<svg xmlns="http://www.w3.org/2000/svg" width="188.986" height="213.013" viewBox="0 0 141.7396 159.76"><defs><style>.a{fill:#00a696}.b{fill:#fff}</style></defs><title>logo_2 [Converted]</title><path class="a" d="M0 20.33v119.095l141.74 20.335V0L0 20.33z"/><path class="b" d="M73.393 113.325c1.87-2.465 2.413-5.11 2.527-12.304l.004-4.382c.016-1.104.023-2.365.023-3.97 0-10.4-.32-13.476-2.573-15.306a4.886 4.886 0 0 0-3.178-1.111 8.42 8.42 0 0 0-2.876.575c-8.596 3.155-8.541 12.609-8.54 12.704-.004.71-.006 8.815-.006 9.6 0 10.392.32 13.538 2.564 15.868a6.528 6.528 0 0 0 6.038 1.892 8.767 8.767 0 0 0 6.017-3.566zM71.51 94.987l-.01 5.124c-.06 6.588-.376 8.968-1.41 10.609a3.641 3.641 0 0 1-2.704 1.715 4.26 4.26 0 0 1-.593.043 2.564 2.564 0 0 1-2.132-.979c-1.18-1.54-1.369-4.444-1.369-12.984V96.64c.01-7.911.21-10.9 1.376-13.009a5.106 5.106 0 0 1 2.772-2.361 2.314 2.314 0 0 1 2.66.327c1.198 1.294 1.41 4.437 1.41 12.645zM26.135 116.55a8.19 8.19 0 0 0 2.691.357 6.604 6.604 0 0 0 4.607-1.666c1.352-1.378 1.628-3.271 1.628-5.692v-.082c-.007-.08-.015-.197-.015-2.28 0-2.142-.475-3.595-1.452-4.442a4.833 4.833 0 0 0-3.973-.786s-.708.148-1.82.313a.985.985 0 0 1-.822-.238c-.686-.622-.636-2.273-.612-3.067.004-.142.008-.254.006-.324 0-1.413.258-3.344 2.493-3.847a1.603 1.603 0 0 1 1.51.272c.424.44.582 1.097.582 2.425v.753l4.033-.75v-.35c0-1.877-.226-3.973-1.899-5.288a5.544 5.544 0 0 0-4.565-.788 7.315 7.315 0 0 0-4.164 2.284 8.352 8.352 0 0 0-1.99 5.736c0 3.212.239 5.269 1.46 6.276.968.798 2.618.938 5.193.439a1.66 1.66 0 0 1 1.405.259c.597.51.597 1.553.597 2.761 0 1.89-.215 2.939-.719 3.506a2.504 2.504 0 0 1-1.91.755 2.104 2.104 0 0 1-1.57-.494c-.378-.39-.597-.957-.597-2.697v-1.041l-4.031.826c.013 2.386.329 4.16 1.79 5.593a5.42 5.42 0 0 0 2.144 1.277zm78.523-46.87l.146-.052 15.411-5.402v-5.865l-20.417 7.293v50.891l20.417-.001v-5.053l-15.557-.029V92.093l.119-.026 13.448-2.869v-5.617L104.658 86.5V69.68zM27.674 85.564V46.879l.288-.061 8.032 18.027 4.185-1.093 8.255-17.366.286.064v31.656l5.075-1.798V31.38h-4.313l-10.88 25.732-.912.195L26.913 31.38h-4.257v55.962l5.018-1.778zM76.196 68.37v-4.576l-12.23 4.075V54.5l10.421-2.427v-4.747l-10.421 2.063V35.914h12.23V31.38H58.777v43.163l17.419-6.173zm14.681-5.202c2.637-1.307 5.57-4.102 5.57-11.594V41.41c-.25-3.938-.877-5.91-2.395-7.528l-.002-.003a7.723 7.723 0 0 0-6.106-2.498h-8.192v35.73zm-6.515-27.302l.148-.003c3.567-.06 5.384.323 6.427 1.359 1.33 1.32 1.308 3.705 1.272 7.656-.006.699-.013 1.448-.013 2.251 0 8.827-.303 11.24-7.635 13.741l-.2.068zm25.381 20.616l1.567-7.79 4.718-1.23 1.288 6.337 3.319-1.176-4.667-21.243h-4.502l-5.851 26.565zm3.827-19.017l.418-.034.027.13 1.35 6.646-3.326.87zm-62.925 68.737c0 3.65-1.412 6.055-3.778 6.43-2.599.411-3.959-.661-3.968-12.417 0-3.32.421-7.652 1.348-9.318a5.084 5.084 0 0 1 2.761-2.34 2.34 2.34 0 0 1 2.563.274c.868.738.97 4.722.982 5.844l3.174-.695 1.221-.31v-2.725c-.05-3.06-.938-5.313-2.5-6.344a4.23 4.23 0 0 0-2.45-.761 10.798 10.798 0 0 0-3.086.594c-6.9 2.376-8.066 7.493-8.3 12.668v7.811c0 8.951 1.265 13.012 8.447 11.874 4.155-.658 7.884-2.14 7.884-12.894l.003-1.197-4.3.94-.001 2.566zm53.089-74.822h-3.936v28.626l3.936-1.394V31.38zM94.19 69.829c-1.347-.944-3.382-.904-6.22.124l-3.625 1.268-4.556 1.594-.037 43.707h4.608V96.223l.52-.105c4.872-.985 11.545-2.334 11.632-10.473v-8.228c.001-4.01-.759-6.49-2.323-7.588zm-1.93 15.146c0 2.335-1.727 4.26-4.4 4.904l-3.519.75.004-14.574 3.367-1.248a3.497 3.497 0 0 1 3.251.097c.863.6 1.303 1.753 1.31 3.427l-.013 6.644zm-69.637 47.494v-8.182h2.852a2.34 2.34 0 1 1 0 4.675H23.65v3.507zm1.028-4.489h1.882a1.357 1.357 0 0 0 0-2.711H23.65zm5.912.398a4.229 4.229 0 0 1 1.063-3.063 3.588 3.588 0 0 1 5.213 0 4.229 4.229 0 0 1 1.064 3.063 4.276 4.276 0 0 1-1.064 3.074 3.613 3.613 0 0 1-5.213 0 4.276 4.276 0 0 1-1.063-3.074zm1.063 0a3.513 3.513 0 0 0 .725 2.372 2.421 2.421 0 0 0 1.882.83 2.38 2.38 0 0 0 1.87-.83 4.19 4.19 0 0 0 0-4.745 2.38 2.38 0 0 0-1.87-.83 2.421 2.421 0 0 0-1.882.83 3.512 3.512 0 0 0-.725 2.373zm7.547-4.091h1.087l1.66 6.662 1.741-5.797h.935l1.742 5.797 1.66-6.662h1.087l-2.186 8.182h-1.075l-1.695-5.622-1.695 5.622H40.36zm11.637 8.182v-8.182h4.699v.982h-3.67v2.35h2.969v.981h-2.97v2.887h3.788v.982zm6.765 0v-8.182h2.723a2.129 2.129 0 0 1 2.409 2.162A1.996 1.996 0 0 1 60 128.541l2.443 3.928h-1.216l-2.396-3.857h-1.227v3.857zm1.029-4.84h1.718c.877 0 1.32-.397 1.32-1.18s-.443-1.18-1.32-1.18h-1.718zm6.367 4.84v-8.182h4.699v.982H65v2.35h2.969v.981h-2.97v2.887h3.788v.982zm6.765 0v-8.182h2.244a3.598 3.598 0 0 1 2.677 1.099 4.038 4.038 0 0 1 1.086 2.992 4.085 4.085 0 0 1-1.086 3.004 3.632 3.632 0 0 1-2.677 1.087zm1.028-.982h1.04c1.508 0 2.841-.818 2.841-3.11s-1.333-3.108-2.84-3.108h-1.04zm10.819.982v-8.182h2.758a2.03 2.03 0 0 1 2.302 2.104 1.8 1.8 0 0 1-.923 1.601 2.105 2.105 0 0 1 1.32 2.046 2.299 2.299 0 0 1-2.548 2.43zm1.028-4.85h1.672c.795 0 1.297-.41 1.297-1.17a1.14 1.14 0 0 0-1.297-1.18H83.61zm0 3.868h1.73c1.087 0 1.636-.48 1.636-1.45 0-.958-.55-1.437-1.636-1.437h-1.73zm5.316-7.2h1.134l1.777 3.623 1.776-3.623h1.134l-2.396 4.652v3.53h-1.03v-3.53zm10.107.982v-.982h5.75v.982h-2.361v7.2h-1.029v-7.2zm8.226 7.2v-8.182h1.204l3.693 6.394v-6.394h1.029v8.182h-1.205l-3.693-6.37v6.37zm8.82-2.654c.316 1.11.783 1.766 1.754 1.766a1.367 1.367 0 0 0 1.11-.468 1.49 1.49 0 0 0 .315-.97c0-.713-.561-1.122-1.543-1.59a4.965 4.965 0 0 1-1.379-.841 1.785 1.785 0 0 1-.608-1.438 2.009 2.009 0 0 1 .597-1.484 1.925 1.925 0 0 1 1.414-.597 2.16 2.16 0 0 1 2.127 1.31l-.83.537a1.354 1.354 0 0 0-1.297-.865.995.995 0 0 0-.982 1.017 1.078 1.078 0 0 0 .479.947c.187.129.339.234.468.304l.63.327a5.638 5.638 0 0 1 1.076.643 2.02 2.02 0 0 1 .877 1.707 2.38 2.38 0 0 1-.631 1.671 2.35 2.35 0 0 1-1.824.772 2.564 2.564 0 0 1-1.718-.62 2.82 2.82 0 0 1-.923-1.59z"/></svg>