<?xml version="1.0" standalone="no"?><!DOCTYPE svg PUBLIC "-//W3C//DTD SVG 1.1//EN" "http://www.w3.org/Graphics/SVG/1.1/DTD/svg11.dtd" ><svg xmlns="http://www.w3.org/2000/svg"><metadata></metadata><defs><font id="ParaTypeLtd: Futura PT Cond Extra Bold: 2013" horiz-adv-x="1061"><font-face font-family="Futura PT Cond Extra Bold" font-weight="800" font-stretch="normal" units-per-em="1000" panose-1="2 11 10 6 2 2 4 2 2 3" ascent="982" descent="-300" x-height="3" bbox="-306 -250 1035 925" underline-thickness="50" underline-position="-175" unicode-range="U+0020-fb02" /><missing-glyph horiz-adv-x="233"  /><glyph glyph-name="space" unicode=" " d="" /><glyph glyph-name="exclam" unicode="!" d="M251 240 l-176 0 l0 450 l176 0 l0 -450 ZM232.5 163 q29.5 -30 29.5 -72 q0 -42 -29.5 -71.5 q-29.5 -29.5 -71.5 -29.5 q-41 0 -71 30 q-30 30 -30 71 q0 42 29.5 72 q29.5 30 71.5 30 q42 0 71.5 -30 Z" /><glyph glyph-name="quotedbl" unicode="&quot;" d="M372 667 l-24 -268 l-96 0 l-24 268 l144 0 ZM185 667 l-25 -268 l-95 0 l-24 268 l144 0 Z" /><glyph glyph-name="numbersign" unicode="#" d="M606 498 l-18 -116 l-100 0 l-13 -83 l101 0 l-17 -117 l-102 0 l-29 -182 l-134 0 l30 182 l-85 0 l-29 -182 l-132 0 l30 182 l-102 0 l18 117 l101 0 l14 83 l-101 0 l18 116 l101 0 l27 169 l132 0 l-28 -169 l85 0 l27 169 l133 0 l-27 -169 l100 0 ZM355 382 l-85 0 l-13 -83 l85 0 l13 83 Z" /><glyph glyph-name="dollar" unicode="$" d="M424 646 l0 -202 q-56 71 -109 71 q-18 0 -31.5 -10.5 q-13.5 -10.5 -13.5 -28.5 q0 -19 17.5 -36.5 q17.5 -17.5 43 -35.5 q25.5 -18 50.5 -41 q25 -23 42.5 -61.5 q17.5 -38.5 17.5 -87.5 q0 -78 -45 -140 q-29 -41 -83 -67 l0 -101 l-84 0 l0 85 q-45 2 -72 7.5 q-27 5.5 -65 22.5 l0 208 q48 -75 115 -75 q22 0 37.5 11 q15.5 11 15.5 32 q0 18 -17.5 37 q-17.5 19 -42 39 q-24.5 20 -49 44.5 q-24.5 24.5 -42 62 q-17.5 37.5 -17.5 82.5 q0 88 54 151 q31 37 89 61 l0 93 l83 0 l0 -88 q55 -7 106 -33 Z" /><glyph glyph-name="percent" unicode="%" d="M278.5 623.5 q37.5 -47.5 37.5 -121.5 q0 -74 -36.5 -123.5 q-36.5 -49.5 -104.5 -49.5 q-72 0 -110 47.5 q-38 47.5 -38 126.5 q0 76 38 122 q38 46 108 46 q68 0 105.5 -47.5 ZM199 503 q0 70 -27 70 q-28 0 -28 -74 q0 -73 28 -73 q27 0 27 77 ZM555 667 l-288 -667 l-92 0 l290 667 l90 0 ZM663.5 289.5 q37.5 -47.5 37.5 -121.5 q0 -74 -36.5 -123.5 q-36.5 -49.5 -104.5 -49.5 q-72 0 -110 47.5 q-38 47.5 -38 126.5 q0 76 38 122 q38 46 108 46 q68 0 105.5 -47.5 ZM584 169 q0 70 -27 70 q-28 0 -28 -74 q0 -73 28 -73 q27 0 27 77 Z" /><glyph glyph-name="ampersand" unicode="&amp;" d="M620 0 l-195 0 l-26 36 q-73 -48 -148 -48 q-87 0 -149 60 q-62 60 -62 146 q0 113 115 177 q-52 65 -52 131 q0 75 55 126 q55 51 131 51 q79 0 140.5 -51.5 q61.5 -51.5 61.5 -128.5 q0 -100 -113 -174 l65 -86 q26 26 62 77 l92 -122 q-39 -42 -69 -70 l92 -124 ZM339 507 q0 14 -11 24.5 q-11 10.5 -25 10.5 q-15 0 -26 -10 q-11 -10 -11 -25 q0 -24 32 -67 q41 39 41 67 ZM308 160 l-66 87 q-31 -17 -31 -49 q0 -22 14.5 -38.5 q14.5 -16.5 36.5 -16.5 q22 0 46 17 Z" /><glyph glyph-name="quotesingle" unicode="&#39;" d="M185 667 l-25 -268 l-95 0 l-24 268 l144 0 Z" /><glyph glyph-name="parenleft" unicode="(" d="M301 -148 l-129 -69 q-125 221 -125 476 q0 255 125 478 l129 -69 q-100 -202 -100 -409 q0 -205 100 -407 Z" /><glyph glyph-name="parenright" unicode=")" d="M162 -217 l-129 69 q100 202 100 407 q0 207 -100 409 l129 69 q125 -223 125 -478 q0 -255 -125 -476 Z" /><glyph glyph-name="asterisk" unicode="*" d="M454 552 l-106 -28 l70 -85 l-92 -66 l-59 93 l-59 -93 l-92 66 l70 85 l-107 28 l35 108 l103 -41 l-7 110 l113 0 l-6 -110 l102 41 l35 -108 Z" /><glyph glyph-name="plus" unicode="+" d="M467 280 l-152 0 l0 -153 l-130 0 l0 153 l-152 0 l0 120 l152 0 l0 153 l130 0 l0 -153 l152 0 l0 -120 Z" /><glyph glyph-name="comma" unicode="," d="M263 159 l-117 -320 l-142 0 l82 320 l177 0 Z" /><glyph glyph-name="hyphen" unicode="-" d="M267 186 l-217 0 l0 134 l217 0 l0 -134 Z" /><glyph glyph-name="period" unicode="." d="M248 90 q0 -41 -30 -70.5 q-30 -29.5 -71 -29.5 q-42 0 -72 30 q-30 30 -30 72 q0 41 30 70.5 q30 29.5 71 29.5 q42 0 72 -30 q30 -30 30 -72 Z" /><glyph glyph-name="slash" unicode="/" d="M583 729 l-508 -945 l-120 0 l508 945 l120 0 Z" /><glyph glyph-name="zero" unicode="0" d="M490.5 453 q11.5 -56 11.5 -117 q0 -61 -11 -117 q-11 -56 -35 -110.5 q-24 -54.5 -71 -87.5 q-47 -33 -112 -33 q-55 0 -98 22 q-43 22 -69.5 56.5 q-26.5 34.5 -44 82 q-17.5 47.5 -24 94 q-6.5 46.5 -6.5 96.5 q0 61 12 117.5 q12 56.5 38 108 q26 51.5 74.5 83 q48.5 31.5 113.5 31.5 q65 0 112.5 -32 q47.5 -32 72.5 -85 q25 -53 36.5 -109 ZM324 314 l0 42 q0 167 -60 167 q-56 0 -56 -165 q0 -48 4 -87 q0 -3 1 -13.5 q1 -10.5 1.5 -16.5 q0.5 -6 2 -17.5 q1.5 -11.5 3.5 -19.5 q2 -8 4.5 -18 q2.5 -10 6.5 -16.5 q4 -6.5 9 -13 q5 -6.5 11.5 -9.5 q6.5 -3 14.5 -3 q58 0 58 170 Z" /><glyph glyph-name="one" unicode="1" d="M386 0 l-180 0 l0 510 l-72 0 l0 157 l252 0 l0 -667 Z" /><glyph glyph-name="two" unicode="2" d="M236 425 l-175 0 q-1 8 -1 24 q0 99 61.5 164.5 q61.5 65.5 160.5 65.5 q95 0 154.5 -61.5 q59.5 -61.5 59.5 -156.5 q0 -152 -175 -313 q36 3 166 5 l0 -153 l-458 0 l182 243 q33 44 51 71 q18 27 38 73 q20 46 20 84 q0 23 -10.5 41.5 q-10.5 18.5 -31.5 18.5 q-43 0 -43 -82 q0 -16 1 -24 Z" /><glyph glyph-name="three" unicode="3" d="M226 477 l-174 0 q7 92 65.5 147 q58.5 55 150.5 55 q85 0 146.5 -55 q61.5 -55 61.5 -139 q0 -94 -81 -140 q89 -52 89 -155 q0 -93 -65.5 -147.5 q-65.5 -54.5 -160.5 -54.5 q-93 0 -156 53.5 q-63 53.5 -63 144.5 l0 10 l176 0 q0 -60 44 -60 q24 0 36.5 18.5 q12.5 18.5 12.5 43.5 q0 33 -19.5 51.5 q-19.5 18.5 -52.5 18.5 q-10 0 -32 -2 l0 142 q7 -1 22 -1 q38 0 56 15.5 q18 15.5 18 52.5 q0 55 -39 55 q-33 0 -35 -53 Z" /><glyph glyph-name="four" unicode="4" d="M506 135 l-57 0 l0 -135 l-180 0 l0 135 l-242 0 l0 141 l201 391 l221 0 l0 -388 l57 0 l0 -144 ZM176 279 l99 0 q2 133 7 200 q-63 -134 -106 -200 Z" /><glyph glyph-name="five" unicode="5" d="M273 510 l-14 -75 q10 1 30 1 q85 0 140 -60.5 q55 -60.5 55 -145.5 q0 -105 -73.5 -173.5 q-73.5 -68.5 -179.5 -68.5 q-95 0 -184 52 l22 158 q76 -46 142 -46 q38 0 65.5 19 q27.5 19 27.5 56 q0 40 -31.5 57 q-31.5 17 -75.5 17 q-56 0 -117 -23 l51 389 l332 0 l0 -157 l-190 0 Z" /><glyph glyph-name="six" unicode="6" d="M404 667 l-107 -190 q-14 -25 -33 -52 q34 18 64 18 q76 0 120 -66.5 q44 -66.5 44 -146.5 q0 -106 -63.5 -174 q-63.5 -68 -168.5 -68 q-101 0 -159.5 69 q-58.5 69 -58.5 172 q0 40 9 82.5 q9 42.5 34.5 101.5 q25.5 59 36 82.5 q10.5 23.5 50 97 q39.5 73.5 39.5 74.5 l193 0 ZM319 227 q0 86 -51 86 q-50 0 -50 -89 q0 -92 50 -92 q51 0 51 95 Z" /><glyph glyph-name="seven" unicode="7" d="M533 667 l-300 -667 l-194 0 l161 355 q30 68 86 155 l-226 0 l0 157 l473 0 Z" /><glyph glyph-name="eight" unicode="8" d="M494 190 q0 -91 -67.5 -146.5 q-67.5 -55.5 -160.5 -55.5 q-90 0 -158.5 56.5 q-68.5 56.5 -68.5 144.5 q0 112 113 158 q-100 34 -100 140 q0 86 62 139 q62 53 149 53 q88 0 153.5 -51.5 q65.5 -51.5 65.5 -136.5 q0 -100 -92 -144 q104 -44 104 -157 ZM295.5 437 q8.5 18 8.5 40 q0 22 -9 40 q-9 18 -29 18 q-36 0 -36 -56 q0 -23 8.5 -41.5 q8.5 -18.5 28.5 -18.5 q20 0 28.5 18 ZM310 210 q0 25 -10.5 46 q-10.5 21 -33.5 21 q-22 0 -33 -22 q-11 -22 -11 -47 q0 -25 11 -45.5 q11 -20.5 34 -20.5 q23 0 33 21 q10 21 10 47 Z" /><glyph glyph-name="nine" unicode="9" d="M321 0 l-193 0 q105 189 139 242 q-32 -19 -63 -19 q-76 0 -120 66.5 q-44 66.5 -44 146.5 q0 105 63.5 174 q63.5 69 168.5 69 q101 0 159.5 -69 q58.5 -69 58.5 -172 q0 -40 -9 -82.5 q-9 -42.5 -34.5 -101.5 q-25.5 -59 -36 -82.5 q-10.5 -23.5 -50 -97 q-39.5 -73.5 -39.5 -74.5 ZM314 443 q0 92 -49 92 q-52 0 -52 -95 q0 -87 52 -87 q49 0 49 90 Z" /><glyph glyph-name="colon" unicode=":" d="M248 375 q0 -41 -30 -70.5 q-30 -29.5 -71 -29.5 q-42 0 -72 30 q-30 30 -30 72 q0 41 30 70.5 q30 29.5 71 29.5 q42 0 72 -30 q30 -30 30 -72 ZM248 90 q0 -41 -30 -70.5 q-30 -29.5 -71 -29.5 q-42 0 -72 30 q-30 30 -30 72 q0 41 30 70.5 q30 29.5 71 29.5 q42 0 72 -30 q30 -30 30 -72 Z" /><glyph glyph-name="semicolon" unicode=";" d="M251 447 q30 -30 30 -72 q0 -42 -29.5 -71 q-29.5 -29 -71.5 -29 q-42 0 -71.5 30 q-29.5 30 -29.5 72 q0 41 29.5 70.5 q29.5 29.5 70.5 29.5 q42 0 72 -30 ZM263 159 l-117 -320 l-142 0 l82 320 l177 0 Z" /><glyph glyph-name="less" unicode="&lt;" d="M467 58 l-434 222 l0 109 l434 220 l0 -128 l-297 -147 l296 -148 l1 -128 Z" /><glyph glyph-name="equal" unicode="=" d="M467 370 l-434 0 l0 113 l434 0 l0 -113 ZM467 197 l-434 0 l0 113 l434 0 l0 -113 Z" /><glyph glyph-name="greater" unicode="&gt;" d="M467 279 l-434 -221 l0 129 l297 147 l-296 147 l-1 128 l434 -221 l0 -109 Z" /><glyph glyph-name="question" unicode="?" d="M40 478 q0 45 5 71.5 q5 26.5 23 57.5 q26 45 76.5 70 q50.5 25 106.5 25 q96 0 156.5 -61.5 q60.5 -61.5 60.5 -157.5 q0 -65 -32.5 -113.5 q-32.5 -48.5 -95.5 -65.5 l0 -64 l-171 0 l0 159 q18 -2 27 -2 q47 0 70 19.5 q23 19.5 23 63.5 q0 74 -38 74 q-38 0 -38 -76 l-173 0 ZM184.5 20 q-29.5 30 -29.5 72 q0 42 29.5 71.5 q29.5 29.5 71.5 29.5 q42 0 71.5 -29.5 q29.5 -29.5 29.5 -71.5 q0 -42 -29.5 -72 q-29.5 -30 -71.5 -30 q-42 0 -71.5 30 Z" /><glyph glyph-name="at" unicode="@" d="M570 98 l20 -80 q-89 -30 -199 -30 q-78 0 -141 21 q-99 33 -158 122.5 q-59 89.5 -59 196.5 q0 147 102.5 248.5 q102.5 101.5 249.5 101.5 q132 0 223.5 -82 q91.5 -82 91.5 -212 q0 -50 -17 -98 q-20 -53 -59 -92.5 q-39 -39.5 -88 -39.5 q-26 0 -48.5 14.5 q-22.5 14.5 -29.5 39.5 q-44 -63 -124 -63 q-62 0 -101.5 47 q-39.5 47 -39.5 110 q0 76 50.5 138 q50.5 62 124.5 62 q66 0 97 -48 l7 38 l89 -1 l-37 -189 q-6 -28 -6 -43 q0 -32 22 -32 q26 0 46 31.5 q20 31.5 28 66 q8 34.5 8 59.5 q0 98 -67 156 q-67 58 -166 58 q-114 0 -191.5 -79 q-77.5 -79 -77.5 -193 q0 -111 74 -188 q67 -70 195 -70 q93 0 181 30 ZM443 340 q0 28 -17.5 48.5 q-17.5 20.5 -45.5 20.5 q-37 0 -61 -32.5 q-24 -32.5 -24 -70.5 q0 -30 17 -50 q17 -20 46 -20 q37 0 61 33 q24 33 24 71 Z" /><glyph glyph-name="A" unicode="a" d="M527 0 l-186 0 l-14 85 l-121 0 l-15 -85 l-186 0 l161 667 l220 0 l141 -667 ZM230 227 l76 0 q-23 155 -34 280 q-2 -15 -5.5 -47 q-3.5 -32 -5.5 -47 q-15 -103 -31 -186 Z" /><glyph glyph-name="B" unicode="b" d="M47 667 l209 0 q91 0 143 -30 q42 -24 65 -66.5 q23 -42.5 23 -92.5 q0 -125 -124 -136 q137 -17 137 -151 q0 -87 -56.5 -139 q-56.5 -52 -144.5 -52 l-252 0 l0 667 ZM227 522 l0 -114 q4 -1 11 -1 q30 0 50.5 14.5 q20.5 14.5 20.5 43.5 q0 29 -17.5 43.5 q-17.5 14.5 -46.5 14.5 q-12 0 -18 -1 ZM227 272 l0 -127 q5 -1 15 -1 q32 0 53 16.5 q21 16.5 21 48.5 q0 32 -21 48 q-21 16 -54 16 q-3 0 -7 -0.5 q-4 -0.5 -7 -0.5 Z" /><glyph glyph-name="C" unicode="c" d="M422 205 l-11 -193 q-55 -24 -107 -24 q-69 0 -123 29.5 q-54 29.5 -86 79 q-32 49.5 -48.5 109 q-16.5 59.5 -16.5 125.5 q0 95 31 172 q31 77 99.5 126.5 q68.5 49.5 164.5 49.5 q49 0 89 -17 l0 -190 q-38 40 -83 40 q-44 0 -72 -30 q-28 -30 -36.5 -67 q-8.5 -37 -8.5 -81 q0 -43 8.5 -78.5 q8.5 -35.5 35.5 -64.5 q27 -29 70 -29 q46 0 94 43 Z" /><glyph glyph-name="D" unicode="d" d="M47 667 l155 0 q148 0 226.5 -92 q78.5 -92 78.5 -242 q0 -124 -46 -205 q-39 -71 -99 -99.5 q-60 -28.5 -147 -28.5 l-168 0 l0 667 ZM227 500 l0 -339 q96 3 96 167 q0 28 -3.5 54 q-3.5 26 -13 54.5 q-9.5 28.5 -30 46 q-20.5 17.5 -49.5 17.5 Z" /><glyph glyph-name="E" unicode="e" d="M381 0 l-334 0 l0 667 l334 0 l0 -157 l-154 0 l0 -97 l138 0 l0 -151 l-138 0 l0 -102 l154 0 l0 -160 Z" /><glyph glyph-name="F" unicode="f" d="M365 510 l-138 0 l0 -97 l128 0 l0 -151 l-128 0 l0 -262 l-180 0 l0 667 l318 0 l0 -157 Z" /><glyph glyph-name="G" unicode="g" d="M530 385 l0 -27 q0 -170 -44 -255 q-29 -56 -82 -85.5 q-53 -29.5 -117 -29.5 q-56 0 -100.5 20 q-44.5 20 -73.5 53 q-29 33 -48 78 q-19 45 -27 92 q-8 47 -8 99 q0 66 13.5 124.5 q13.5 58.5 42 110.5 q28.5 52 80 83 q51.5 31 121.5 31 q157 0 229 -165 l-175 -64 q-3 26 -16 47 q-13 21 -37 21 q-74 0 -74 -204 q0 -165 68 -165 q34 0 48.5 29.5 q14.5 29.5 14.5 66.5 l-66 0 l0 140 l251 0 Z" /><glyph glyph-name="H" unicode="h" d="M493 0 l-180 0 l0 268 l-86 0 l0 -268 l-180 0 l0 667 l180 0 l0 -236 l86 0 l0 236 l180 0 l0 -667 Z" /><glyph glyph-name="I" unicode="i" d="M227 0 l-180 0 l0 667 l180 0 l0 -667 Z" /><glyph glyph-name="J" unicode="j" d="M307 667 l0 -463 q0 -81 -22 -125 q-45 -91 -167 -91 q-57 0 -118 22 l0 186 q31 -39 72 -39 q55 0 55 82 l0 428 l180 0 Z" /><glyph glyph-name="K" unicode="k" d="M536 0 l-194 0 l-120 319 l5 -319 l-180 0 l0 667 l180 0 l-5 -298 l106 298 l190 0 l-142 -322 l160 -345 Z" /><glyph glyph-name="L" unicode="l" d="M362 0 l-315 0 l0 667 l180 0 l0 -507 l135 0 l0 -160 Z" /><glyph glyph-name="M" unicode="m" d="M733 0 l-188 0 l-14 304 q-1 20 -2 60.5 q-1 40.5 -2 60.5 q-6 -65 -18 -128 l-56 -297 l-147 0 l-52 321 q-6 34 -12 104 q0 -16 -0.5 -46.5 q-0.5 -30.5 -1 -55 q-0.5 -24.5 -1.5 -46.5 l-16 -277 l-193 0 l78 667 l224 0 q46 -273 52 -355 q6 54 15 109 q9 55 25.5 138 q16.5 83 21.5 108 l222 0 l65 -667 Z" /><glyph glyph-name="N" unicode="n" d="M516 0 l-172 0 q-11 31 -35 93 q-24 62 -38 99.5 q-14 37.5 -32 91.5 q-18 54 -31 100 q11 -156 11 -214 l0 -170 l-172 0 l0 667 l172 0 l90 -234 q20 -51 55 -168 q-20 164 -20 246 l0 156 l172 0 l0 -667 Z" /><glyph glyph-name="O" unicode="o" d="M537 340 q0 -63 -13.5 -121.5 q-13.5 -58.5 -41 -112 q-27.5 -53.5 -78 -86 q-50.5 -32.5 -117.5 -32.5 q-108 0 -182 89 q-75 91 -75 263 q0 62 15 120 q15 58 44 108 q29 50 80 80.5 q51 30.5 117 30.5 q53 0 96 -20.5 q43 -20.5 71 -54 q28 -33.5 47.5 -78.5 q19.5 -45 28 -91.5 q8.5 -46.5 8.5 -94.5 ZM350 333 q0 178 -65 178 q-22 0 -36.5 -20.5 q-14.5 -20.5 -21 -53 q-6.5 -32.5 -8.5 -56.5 q-2 -24 -2 -47 q0 -24 2 -47 q2 -23 7.5 -56 q5.5 -33 20 -53.5 q14.5 -20.5 36.5 -20.5 q22 0 36.5 20.5 q14.5 20.5 20.5 52.5 q6 32 8 56 q2 24 2 47 Z" /><glyph glyph-name="P" unicode="p" d="M47 667 l174 0 q91 0 148 -25 q59 -26 89.5 -80.5 q30.5 -54.5 30.5 -121.5 q0 -118 -71.5 -175 q-71.5 -57 -190.5 -46 l0 -219 l-180 0 l0 667 ZM227 368 l9 0 q32 0 51.5 21 q19.5 21 19.5 54 q0 33 -18 55.5 q-18 22.5 -50 22.5 l-12 0 l0 -153 Z" /><glyph glyph-name="Q" unicode="q" d="M544 -14 l-145 -79 l-61 89 q-24 -8 -54 -8 q-54 0 -97.5 21 q-43.5 21 -72.5 55 q-29 34 -48 79.5 q-19 45.5 -27.5 92.5 q-8.5 47 -8.5 96 q0 63 14 122 q14 59 42 110.5 q28 51.5 79.5 83 q51.5 31.5 118.5 31.5 q65 0 115.5 -30.5 q50.5 -30.5 79.5 -81 q29 -50.5 43.5 -108 q14.5 -57.5 14.5 -118.5 q0 -175 -75 -263 l82 -92 ZM351 339 q0 23 -2 47 q-2 24 -8.5 55 q-6.5 31 -22 50.5 q-15.5 19.5 -37.5 19.5 q-20 0 -34 -21 q-14 -21 -20 -54 q-6 -33 -8 -57.5 q-2 -24.5 -2 -46.5 q0 -175 67 -175 q67 0 67 182 Z" /><glyph glyph-name="R" unicode="r" d="M521 0 l-195 0 q-93 252 -102 277 q3 -44 3 -88 l0 -189 l-180 0 l0 667 l184 0 q84 0 139 -23 q58 -25 89 -79.5 q31 -54.5 31 -120.5 q0 -120 -103 -167 l134 -277 ZM227 358 l12 0 q33 0 52.5 25 q19.5 25 19.5 59 q0 75 -84 75 l0 -159 Z" /><glyph glyph-name="S" unicode="s" d="M362 645 l0 -204 q-48 73 -106 73 q-18 0 -32.5 -11 q-14.5 -11 -14.5 -29 q0 -18 17.5 -35.5 q17.5 -17.5 43 -35.5 q25.5 -18 51 -41 q25.5 -23 43 -61.5 q17.5 -38.5 17.5 -86.5 q0 -95 -59 -160.5 q-59 -65.5 -153 -65.5 q-67 0 -136 29 l0 209 q53 -73 114 -73 q21 0 37 11.5 q16 11.5 16 32.5 q0 19 -17.5 37.5 q-17.5 18.5 -42.5 37.5 q-25 19 -50 42 q-25 23 -42.5 61 q-17.5 38 -17.5 85 q0 89 57.5 154 q57.5 65 145.5 65 q64 0 129 -34 Z" /><glyph glyph-name="T" unicode="t" d="M378 507 l-99 0 l0 -507 l-180 0 l0 507 l-99 0 l0 160 l378 0 l0 -160 Z" /><glyph glyph-name="U" unicode="u" d="M499 667 l0 -472 q0 -52 -14.5 -87.5 q-14.5 -35.5 -52.5 -67.5 q-60 -52 -151 -52 q-104 0 -169 58 q-65 58 -65 174 l0 447 l180 0 l0 -431 q0 -23 1.5 -37 q1.5 -14 12.5 -28 q11 -14 32 -14 q13 0 22.5 5.5 q9.5 5.5 14 12 q4.5 6.5 6.5 19.5 q2 13 2.5 20.5 q0.5 7.5 0.5 21.5 l0 431 l180 0 Z" /><glyph glyph-name="V" unicode="v" d="M518 667 l-182 -667 l-183 0 l-153 667 l189 0 q52 -298 63 -435 q6 66 10 104 q8 57 18 110 l42 221 l196 0 Z" /><glyph glyph-name="W" unicode="w" d="M753 667 l-135 -667 l-173 0 q-56 310 -68 417 q-3 -23 -9 -83 q-6 -60 -10 -92 l-34 -242 l-176 0 l-148 667 l178 0 q11 -68 37 -241 l9 -57 q2 -20 6 -59.5 q4 -39.5 7 -59.5 q1 12 4.5 51 q3.5 39 6.5 60 q11 77 51 306 l155 0 l30 -161 q21 -114 38 -264 q12 146 23 218 l32 207 l176 0 Z" /><glyph glyph-name="X" unicode="x" d="M517 0 l-200 0 q-9 24 -24 70 q-15 46 -18 54 q-15 44 -17 55 q-3 -10 -9 -29.5 q-6 -19.5 -9 -29.5 q-5 -17 -44 -120 l-196 0 l162 346 l-153 321 l200 0 q3 -11 22.5 -69 q19.5 -58 28.5 -89 q7 32 43 158 l202 0 l-152 -321 l164 -346 Z" /><glyph glyph-name="Y" unicode="y" d="M500 667 l-154 -385 l0 -282 l-180 0 l0 282 l-166 385 l188 0 q52 -161 63 -206 q29 106 63 206 l186 0 Z" /><glyph glyph-name="Z" unicode="z" d="M498 667 l0 -19 q-18 -40 -54.5 -121.5 q-36.5 -81.5 -58.5 -130.5 q-22 -49 -54.5 -118 q-32.5 -69 -60.5 -126 q35 3 206 8 l0 -160 l-459 0 l0 14 l143 326 q43 97 90 170 l-194 0 l0 157 l442 0 Z" /><glyph glyph-name="bracketleft" unicode="[" d="M315 -209 l-255 0 l0 938 l255 0 l0 -119 l-102 0 l0 -699 l102 0 l0 -120 Z" /><glyph glyph-name="backslash" unicode="\" d="M42 729 l120 0 l508 -945 l-120 0 l-508 945 Z" /><glyph glyph-name="bracketright" unicode="]" d="M289 -209 l-256 0 l0 120 l103 0 l0 699 l-103 0 l0 119 l256 0 l0 -938 Z" /><glyph glyph-name="asciicircum" unicode="^" d="M496 330 l-136 0 l-110 233 l-110 -233 l-135 0 l160 337 l170 0 l161 -337 Z" /><glyph glyph-name="underscore" unicode="_" d="M500 -166 l-500 0 l0 120 l500 0 l0 -120 Z" /><glyph glyph-name="grave" unicode="`" d="M304 530 l-100 0 l-87 148 l139 0 l48 -148 Z" /><glyph glyph-name="a" unicode="a" d="M457 0 l-174 0 q1 13 3 39.5 q2 26.5 3 39.5 q-45 -89 -120 -89 q-42 0 -71.5 25 q-29.5 25 -44 65.5 q-14.5 40.5 -20.5 78.5 q-6 38 -6 77 q0 40 6.5 78 q6.5 38 21.5 76.5 q15 38.5 45.5 62.5 q30.5 24 72.5 24 q73 0 112 -84 q-1 8 -2 34 q-1 26 -3 40 l177 0 l0 -467 ZM281 254 q0 80 -36 80 q-44 0 -44 -117 q0 -84 39 -84 q7 0 13.5 3 q6.5 3 10.5 9 q4 6 7 12 q3 6 5 16.5 q2 10.5 3 17 q1 6.5 1.5 18.5 q0.5 12 0.5 17 q0 5 0 16 q0 11 0 12 Z" /><glyph glyph-name="b" unicode="b" d="M213 729 l0 -255 q0 -25 -2 -75 q41 78 111 78 q44 0 75.5 -24.5 q31.5 -24.5 46 -64.5 q14.5 -40 20.5 -78.5 q6 -38.5 6 -80.5 q0 -41 -6.5 -79 q-6.5 -38 -22 -76 q-15.5 -38 -47 -61 q-31.5 -23 -74.5 -23 q-61 0 -107 73 q4 -42 4 -63 l-177 0 l0 729 l173 0 ZM291 234 q0 99 -44 99 q-39 0 -39 -95 q0 -99 40 -99 q43 0 43 95 Z" /><glyph glyph-name="c" unicode="c" d="M283 152 l0 -159 q-24 -3 -47 -3 q-98 0 -153.5 73 q-55.5 73 -55.5 173 q0 100 61.5 170.5 q61.5 70.5 159.5 70.5 q11 0 35 -2 l0 -152 q-77 -5 -77 -84 q0 -32 17.5 -59.5 q17.5 -27.5 47.5 -27.5 l12 0 Z" /><glyph glyph-name="d" unicode="d" d="M457 0 l-177 0 l0 20 q0 1 3 43 q-23 -36 -46.5 -54.5 q-23.5 -18.5 -59.5 -18.5 q-44 0 -75 23 q-31 23 -46.5 61 q-15.5 38 -22 76 q-6.5 38 -6.5 79 q0 42 6 80.5 q6 38.5 20.5 78.5 q14.5 40 46 64.5 q31.5 24.5 75.5 24.5 q70 0 111 -78 l-3 75 l0 255 l174 0 l0 -729 ZM289 238 q0 95 -40 95 q-43 0 -43 -99 q0 -95 43 -95 q40 0 40 99 Z" /><glyph glyph-name="e" unicode="e" d="M279 158 l169 -1 q-18 -81 -72 -124 q-54 -43 -136 -43 q-104 0 -158.5 64.5 q-54.5 64.5 -54.5 170.5 q0 105 58 178 q58 73 160 73 q102 0 156 -71 q54 -71 54 -176 q0 -5 -0.5 -16 q-0.5 -11 -0.5 -16 l-254 0 q0 -72 40 -72 q32 0 39 33 ZM202 290 l81 0 q-2 59 -41 59 q-38 0 -40 -59 Z" /><glyph glyph-name="f" unicode="f" d="M295 327 l-62 0 l0 -327 l-173 0 l0 327 l-50 0 l0 140 l50 0 q0 11 -0.5 34 q-0.5 23 -0.5 37 q0 70 15 110 q16 43 54.5 67.5 q38.5 24.5 85.5 24.5 q35 0 81 -12 l0 -161 q-19 17 -35 17 q-27 0 -27 -48 l0 -69 l62 0 l0 -140 Z" /><glyph glyph-name="g" unicode="g" d="M453 467 l0 -479 q0 -80 -35 -128 q-56 -75 -175 -75 q-186 0 -210 169 l177 0 q0 -16 10 -27 q10 -11 26 -11 q41 0 41 66 l0 72 q-45 -61 -109 -61 q-55 0 -91 42.5 q-36 42.5 -48 93.5 q-12 51 -12 105 q0 38 7.5 77 q7.5 39 23.5 78 q16 39 46.5 63.5 q30.5 24.5 71.5 24.5 q57 0 105 -71 l-3 61 l175 0 ZM285 235 q0 101 -38 101 q-41 0 -41 -98 q0 -102 41 -102 q38 0 38 99 Z" /><glyph glyph-name="h" unicode="h" d="M451 0 l-174 0 l0 247 q0 57 -27 57 q-37 0 -37 -69 l0 -235 l-173 0 l0 729 l173 0 l0 -261 q0 -30 -4 -90 q42 99 123 99 q62 0 90.5 -46.5 q28.5 -46.5 28.5 -112.5 l0 -318 Z" /><glyph glyph-name="i" unicode="i" d="M228 613 q0 -42 -29.5 -72 q-29.5 -30 -71.5 -30 q-42 0 -71.5 30 q-29.5 30 -29.5 72 q0 41 30 70.5 q30 29.5 71 29.5 q41 0 71 -29.5 q30 -29.5 30 -70.5 ZM213 0 l-173 0 l0 467 l173 0 l0 -467 Z" /><glyph glyph-name="j" unicode="j" d="M198 684 q30 -29 30 -71 q0 -42 -29.5 -72 q-29.5 -30 -71.5 -30 q-42 0 -71.5 30 q-29.5 30 -29.5 72 q0 41 29.5 70.5 q29.5 29.5 70.5 29.5 q42 0 72 -29 ZM214 -215 l-173 0 l0 682 l173 0 l0 -682 Z" /><glyph glyph-name="k" unicode="k" d="M495 0 l-199 0 q-10 26 -28 70.5 q-18 44.5 -31.5 81 q-13.5 36.5 -23.5 72.5 l0 -224 l-173 0 l0 729 l173 0 l0 -466 q10 32 23 65 q13 33 32 75 q19 42 28 64 l187 0 l-115 -215 l127 -252 Z" /><glyph glyph-name="l" unicode="l" d="M213 0 l-173 0 l0 729 l173 0 l0 -729 Z" /><glyph glyph-name="m" unicode="m" d="M693 0 l-173 0 l0 259 q0 50 -27 50 q-40 0 -40 -73 l0 -236 l-173 0 l0 257 q0 48 -28 48 q-14 0 -23 -6.5 q-9 -6.5 -12 -20 q-3 -13.5 -3.5 -22 q-0.5 -8.5 -0.5 -24.5 l0 -232 l-173 0 l0 467 l173 0 l0 -24 q0 -18 -2 -54 q23 44 49.5 66 q26.5 22 69.5 22 q46 0 75 -25 q29 -25 49 -72 q34 97 116 97 q48 0 82 -31 q41 -38 41 -126 l0 -320 Z" /><glyph glyph-name="n" unicode="n" d="M451 0 l-174 0 l0 247 q0 57 -27 57 q-37 0 -37 -69 l0 -235 l-173 0 l0 467 l173 0 q-2 -58 -4 -89 q42 99 123 99 q62 0 90.5 -46.5 q28.5 -46.5 28.5 -112.5 l0 -318 Z" /><glyph glyph-name="o" unicode="o" d="M461 229 q0 -106 -57.5 -172.5 q-57.5 -66.5 -162.5 -66.5 q-103 0 -158.5 68.5 q-55.5 68.5 -55.5 173.5 q0 105 56.5 175 q56.5 70 158.5 70 q106 0 162.5 -69.5 q56.5 -69.5 56.5 -178.5 ZM293 233 q0 38 -11 75.5 q-11 37.5 -39 37.5 q-27 0 -37.5 -37.5 q-10.5 -37.5 -10.5 -75.5 q0 -38 10.5 -75 q10.5 -37 38.5 -37 q27 0 38 37.5 q11 37.5 11 74.5 Z" /><glyph glyph-name="p" unicode="p" d="M213 467 l-4 -66 q20 37 44.5 56.5 q24.5 19.5 62.5 19.5 q42 0 73.5 -24.5 q31.5 -24.5 47.5 -63 q16 -38.5 23.5 -78 q7.5 -39.5 7.5 -78.5 q0 -40 -6.5 -78 q-6.5 -38 -22 -77.5 q-15.5 -39.5 -46.5 -63.5 q-31 -24 -73 -24 q-37 0 -62.5 18.5 q-25.5 18.5 -48.5 54.5 q4 -52 4 -77 l0 -201 l-173 0 l0 682 l173 0 ZM289 240 q0 94 -41 94 q-40 0 -40 -98 q0 -100 39 -100 q42 0 42 104 Z" /><glyph glyph-name="q" unicode="q" d="M455 -215 l-174 0 l0 201 q0 15 2 41.5 q2 26.5 2 35.5 q-23 -36 -48 -54.5 q-25 -18.5 -62 -18.5 q-42 0 -73 24 q-31 24 -46.5 63.5 q-15.5 39.5 -22 77.5 q-6.5 38 -6.5 78 q0 39 7.5 78 q7.5 39 23.5 78 q16 39 47 63.5 q31 24.5 73 24.5 q71 0 107 -76 l-4 66 l174 0 l0 -682 ZM287 236 q0 98 -41 98 q-40 0 -40 -101 q0 -97 42 -97 q23 0 31 33.5 q8 33.5 8 66.5 Z" /><glyph glyph-name="r" unicode="r" d="M334 478 l0 -194 q-25 15 -48 15 q-34 0 -55 -27 q-18 -23 -18 -72 l0 -200 l-173 0 l0 467 l173 0 l-9 -91 q40 99 130 102 Z" /><glyph glyph-name="s" unicode="s" d="M370 439 l-60 -127 q-41 41 -71 41 q-27 0 -27 -22 q0 -18 26 -32 q26 -14 56.5 -24.5 q30.5 -10.5 56.5 -41.5 q26 -31 26 -79 q0 -76 -55 -120 q-55 -44 -133 -44 q-75 0 -166 49 l63 129 q47 -49 87 -49 q13 0 23.5 6.5 q10.5 6.5 10.5 18.5 q0 15 -26.5 28 q-26.5 13 -57.5 24.5 q-31 11.5 -57.5 42.5 q-26.5 31 -26.5 78 q0 74 58 117 q58 43 134 43 q63 0 139 -38 Z" /><glyph glyph-name="t" unicode="t" d="M294 327 l-57 0 l0 -327 l-173 0 l0 327 l-50 0 l0 140 l50 0 l0 137 l173 0 l0 -137 l57 0 l0 -140 Z" /><glyph glyph-name="u" unicode="u" d="M459 467 l0 -287 q0 -50 -14.5 -85 q-14.5 -35 -52.5 -62 q-61 -43 -142 -43 q-81 0 -142 43 q-38 27 -53 62 q-15 35 -15 85 l0 287 l173 0 l0 -274 q0 -18 1.5 -28.5 q1.5 -10.5 10.5 -20 q9 -9.5 25 -9.5 q17 0 25.5 11.5 q8.5 11.5 9.5 22 q1 10.5 1 29.5 q0 4 0 6 l0 263 l173 0 Z" /><glyph glyph-name="v" unicode="v" d="M446 467 l-136 -467 l-181 0 l-129 467 l175 0 q3 -17 15.5 -79 q12.5 -62 18.5 -96 q2 -13 13 -120 q11 87 53 295 l171 0 Z" /><glyph glyph-name="w" unicode="w" d="M682 467 l-136 -467 l-171 0 l-36 280 l-53 -280 l-170 0 l-116 467 l170 0 q39 -217 44 -282 q8 81 53 282 l148 0 q34 -201 41 -282 q16 107 53 282 l173 0 Z" /><glyph glyph-name="x" unicode="x" d="M482 0 l-201 0 q-31 79 -38 110 q-17 -49 -49 -110 l-194 0 l142 240 l-134 227 l197 0 q12 -33 34 -101 q8 25 38 101 l192 0 l-138 -223 l151 -244 Z" /><glyph glyph-name="y" unicode="y" d="M456 467 l-221 -682 l-178 0 l82 234 l-139 448 l174 0 q48 -190 55 -265 q19 128 28 164 l26 101 l173 0 Z" /><glyph glyph-name="z" unicode="z" d="M418 467 l-110 -238 q-22 -47 -46 -88 l129 0 l0 -141 l-374 0 l113 242 q25 52 44 85 l-132 0 l0 140 l376 0 Z" /><glyph glyph-name="braceleft" unicode="{" d="M403 -92 l0 -115 q-52 -2 -77 -2 q-80 0 -116 32.5 q-36 32.5 -36 111.5 l0 189 q0 37 -11 58.5 q-11 21.5 -44 27.5 l0 110 q55 10 55 76 l0 188 q0 80 35.5 112.5 q35.5 32.5 116.5 32.5 q12 0 24.5 -0.5 q12.5 -0.5 28 -1.5 q15.5 -1 24.5 -1 l0 -114 q-6 0 -25 0.5 q-19 0.5 -24.5 0 q-5.5 -0.5 -18.5 -3.5 q-13 -3 -17.5 -8.5 q-4.5 -5.5 -9 -17 q-4.5 -11.5 -4.5 -28.5 l0 -169 q0 -48 -12 -75 q-12 -27 -48 -51 q37 -25 48.5 -52 q11.5 -27 11.5 -75 l0 -169 q0 -21 4.5 -33.5 q4.5 -12.5 18 -17.5 q13.5 -5 22.5 -5.5 q9 -0.5 34 -0.5 q13 0 20 1 Z" /><glyph glyph-name="bar" unicode="|" d="M315 -250 l-130 0 l0 1000 l130 0 l0 -1000 Z" /><glyph glyph-name="braceright" unicode="}" d="M119 -207 l0 115 q7 -1 20 -1 q25 0 34 0.5 q9 0.5 22.5 5.5 q13.5 5 18 17.5 q4.5 12.5 4.5 33.5 l0 169 q0 48 11.5 75 q11.5 27 48.5 52 q-36 24 -48 51 q-12 27 -12 75 l0 169 q0 17 -4.5 28.5 q-4.5 11.5 -9 17 q-4.5 5.5 -17.5 8.5 q-13 3 -18.5 3.5 q-5.5 0.5 -24.5 0 q-19 -0.5 -25 -0.5 l0 114 q9 0 24.5 1 q15.5 1 28 1.5 q12.5 0.5 24.5 0.5 q81 0 116.5 -32.5 q35.5 -32.5 35.5 -112.5 l0 -188 q0 -66 55 -76 l0 -110 q-33 -6 -44 -27.5 q-11 -21.5 -11 -58.5 l0 -189 q0 -79 -36 -111.5 q-36 -32.5 -116 -32.5 q-25 0 -77 2 Z" /><glyph glyph-name="asciitilde" unicode="~" d="M503 748 l74 -43 q-29 -62 -65 -98 q-36 -36 -94 -36 q-31 0 -92.5 25 q-61.5 25 -90.5 25 q-20 0 -35 -10 q-15 -10 -20.5 -19 q-5.5 -9 -18.5 -32 l-71 47 q15 34 25 53 q10 19 28 42 q18 23 42.5 33.5 q24.5 10.5 56.5 10.5 q34 0 95.5 -24.5 q61.5 -24.5 94.5 -24.5 q26 0 41.5 12.5 q15.5 12.5 29.5 38.5 Z" /><glyph glyph-name="nonbreakingspace" unicode=" " d="" /><glyph glyph-name="exclamdown" unicode="¡" d="M232.5 447.5 q29.5 -29.5 29.5 -71.5 q0 -42 -29.5 -72 q-29.5 -30 -71.5 -30 q-42 0 -71.5 30 q-29.5 30 -29.5 72 q0 42 29.5 71.5 q29.5 29.5 71.5 29.5 q42 0 71.5 -29.5 ZM247 -223 l-176 0 l0 450 l176 0 l0 -450 Z" /><glyph glyph-name="cent" unicode="¢" d="M375 273 l0 -161 q-9 -2 -25 -2 q-16 0 -23 -1 l0 -86 l-84 0 l0 105 q-46 26 -72 60 q-53 70 -53 161 q0 93 48 160 q16 23 32 35.5 q16 12.5 45 26.5 l0 108 l84 0 l0 -86 q3 0 8 0.5 q5 0.5 7 0.5 q11 0 33 -4 l0 -148 q-37 -2 -57 -25 q-20 -23 -20 -61 q0 -32 17.5 -57.5 q17.5 -25.5 47.5 -25.5 l12 0 Z" /><glyph glyph-name="sterling" unicode="£" d="M409 159 l89 -48 q-45 -123 -158 -123 q-39 0 -85 17 q-5 2 -18 7.5 q-13 5.5 -18.5 7.5 q-5.5 2 -16.5 4 q-11 2 -21 2 q-39 0 -86 -30 l-50 82 q46 33 78 48 q18 30 18 67 q0 41 -17 95 l-62 0 l0 93 l33 0 q-24 76 -24 117 q0 79 57.5 129 q57.5 50 138.5 50 q107 0 195 -93 l-96 -96 q-32 50 -67 50 q-22 0 -35 -16.5 q-13 -16.5 -13 -38.5 q0 -16 11.5 -52 q11.5 -36 13.5 -50 l161 0 l0 -93 l-150 0 q0 -74 -43 -129 q36 -2 75 -21 q22 -11 36 -11 q33 0 54 32 Z" /><glyph glyph-name="currency" unicode="¤" d="M647 138 l-69 -71 l-103 103 q-67 -45 -142 -45 q-68 0 -140 44 l-103 -102 l-70 70 l103 103 q-44 67 -44 138 q0 70 45 137 l-105 104 l71 71 l104 -104 q67 44 140 44 q71 0 137 -43 l103 102 l70 -70 l-102 -102 q46 -74 46 -139 q0 -72 -44 -137 l103 -103 ZM469 377 q0 57 -39 97 q-39 40 -96 40 q-56 0 -96 -40.5 q-40 -40.5 -40 -96.5 q0 -56 40 -96 q40 -40 96 -40 q56 0 95.5 40 q39.5 40 39.5 96 Z" /><glyph glyph-name="yen" unicode="¥" d="M516 667 l-85 -212 l79 0 l0 -94 l-117 0 l-26 -66 l143 0 l0 -93 l-148 0 l0 -202 l-180 0 l0 202 l-160 0 l0 93 l154 0 l-28 66 l-126 0 l0 94 l85 0 l-91 212 l188 0 q52 -161 63 -206 q29 106 63 206 l186 0 Z" /><glyph glyph-name="brokenbar" unicode="¦" d="M315 335 l-130 0 l0 415 l130 0 l0 -415 ZM315 -250 l-130 0 l0 415 l130 0 l0 -415 Z" /><glyph glyph-name="section" unicode="§" d="M473 516 l-143 0 q0 24 -1.5 38 q-1.5 14 -7 31 q-5.5 17 -20 25.5 q-14.5 8.5 -36.5 8.5 q-24 0 -39 -13 q-15 -13 -15 -37 q0 -17 5 -29.5 q5 -12.5 17 -22.5 q12 -10 19.5 -14.5 q7.5 -4.5 24.5 -13.5 q9 -5 34 -17.5 q25 -12.5 37 -19 q12 -6.5 34 -19.5 q22 -13 33.5 -23 q11.5 -10 27.5 -25.5 q16 -15.5 23.5 -31 q7.5 -15.5 13.5 -35.5 q6 -20 6 -42 q0 -82 -65 -135 q73 -59 73 -146 q0 -94 -66 -152 q-66 -58 -162 -58 q-57 0 -108 22 q-51 22 -80 66 q-20 30 -25.5 58.5 q-5.5 28.5 -6.5 74.5 l149 0 q1 -45 15.5 -69 q14.5 -24 56.5 -24 q26 0 42.5 16.5 q16.5 16.5 16.5 42.5 q0 27 -28.5 49.5 q-28.5 22.5 -69 42 q-40.5 19.5 -81 43.5 q-40.5 24 -69 65.5 q-28.5 41.5 -28.5 96.5 q0 86 71 140 q-30 37 -42.5 66.5 q-12.5 29.5 -12.5 74.5 q0 87 62 138.5 q62 51.5 151 51.5 q62 0 110.5 -28 q48.5 -28 69.5 -84 q14 -37 14 -112 ZM334 270 q0 29 -18.5 47.5 q-18.5 18.5 -47.5 18.5 q-29 0 -47.5 -17.5 q-18.5 -17.5 -18.5 -46.5 q0 -29 19 -48 q19 -19 48 -19 q29 0 47 18.5 q18 18.5 18 46.5 Z" /><glyph glyph-name="dieresis" unicode="¨" d="M419 602 q0 -29 -21.5 -50.5 q-21.5 -21.5 -50.5 -21.5 q-30 0 -52 21.5 q-22 21.5 -22 51.5 q0 30 21.5 50.5 q21.5 20.5 51.5 20.5 q30 0 51.5 -21 q21.5 -21 21.5 -51 ZM227 602 q0 -29 -21.5 -50.5 q-21.5 -21.5 -50.5 -21.5 q-30 0 -52 21.5 q-22 21.5 -22 51.5 q0 30 21.5 50.5 q21.5 20.5 51.5 20.5 q30 0 51.5 -21 q21.5 -21 21.5 -51 Z" /><glyph glyph-name="copyright" unicode="©" d="M727 333 q0 -144 -101 -246 q-101 -102 -245 -102 q-144 0 -246 102.5 q-102 102.5 -102 246.5 q0 144 102.5 246 q102.5 102 246.5 102 q143 0 244 -103 q101 -103 101 -246 ZM570 138.5 q77 81.5 77 194.5 q0 113 -77 194.5 q-77 81.5 -189 81.5 q-112 0 -190 -81 q-78 -81 -78 -194 q0 -112 78 -194.5 q78 -82.5 190 -82.5 q112 0 189 81.5 ZM484 270 l-8 -128 q-39 -16 -74 -16 q-85 0 -132 59 q-47 59 -47 147 q0 92 51 150 q51 58 142 58 q36 0 62 -11 l0 -127 q-4 3 -13 11.5 q-9 8.5 -13 11.5 q-4 3 -13 6.5 q-9 3.5 -20 3.5 q-36 0 -51.5 -30.5 q-15.5 -30.5 -15.5 -70.5 q0 -39 15 -68.5 q15 -29.5 50 -29.5 q6 0 11.5 1 q5.5 1 11 3 q5.5 2 9 3.5 q3.5 1.5 9.5 6 q6 4.5 8.5 6 q2.5 1.5 9 7.5 q6.5 6 8.5 7 Z" /><glyph glyph-name="ordfeminine" unicode="ª" d="M261 372 l-99 0 q0 5 1 14 q1 9 1.5 16.5 q0.5 7.5 0.5 14.5 q-25 -51 -69 -51 q-32 0 -51 27 q-19 27 -24.5 58.5 q-5.5 31.5 -5.5 69.5 q0 62 19 107 q19 45 65 45 q41 0 64 -49 q0 1 -1 18 q-1 17 -2 25 l101 0 l0 -295 ZM261 297 l-242 0 l0 48 l242 0 l0 -48 ZM161 517 l0 28 q0 46 -21 46 q-25 0 -25 -81 q0 -61 22 -61 q24 0 24 68 Z" /><glyph glyph-name="guillemotleft" unicode="«" d="M256 71 l-78 -58 l-151 226 l151 226 l78 -58 l-113 -168 l113 -168 ZM452 71 l-78 -58 l-151 226 l151 226 l78 -58 l-113 -168 l113 -168 Z" /><glyph glyph-name="logicalnot" unicode="¬" d="M467 0 l-130 0 l0 150 l-304 0 l0 117 l434 0 l0 -267 Z" /><glyph glyph-name="uni00AD" unicode="­" d="M267 186 l-217 0 l0 134 l217 0 l0 -134 Z" /><glyph glyph-name="registered" unicode="®" d="M530 154 l-117 0 l-54 143 l0 -143 l-109 0 l0 375 l109 0 q68 0 111 -30.5 q43 -30.5 43 -96.5 q0 -68 -61 -93 l78 -155 ZM359 357 l5 0 q18 0 29 13 q11 13 11 31 q0 40 -45 40 l0 -84 ZM570 138.5 q77 81.5 77 194.5 q0 113 -77 194.5 q-77 81.5 -189 81.5 q-112 0 -190 -81 q-78 -81 -78 -194 q0 -112 78 -194.5 q78 -82.5 190 -82.5 q112 0 189 81.5 ZM727 333 q0 -144 -101 -246 q-101 -102 -245 -102 q-144 0 -246 102.5 q-102 102.5 -102 246.5 q0 144 102.5 246 q102.5 102 246.5 102 q143 0 244 -103 q101 -103 101 -246 Z" /><glyph glyph-name="macron" unicode="¯" d="M420 553 l-340 0 l0 94 l340 0 l0 -94 Z" /><glyph glyph-name="degree" unicode="°" d="M358.5 616 q45.5 -44 45.5 -107 q0 -63 -45.5 -108 q-45.5 -45 -108.5 -45 q-63 0 -108.5 45 q-45.5 45 -45.5 108 q0 63 45.5 107 q45.5 44 108.5 44 q63 0 108.5 -44 ZM304.5 455.5 q22.5 22.5 22.5 53.5 q0 31 -23 53 q-23 22 -54 22 q-31 0 -54 -22 q-23 -22 -23 -53 q0 -32 22.5 -54 q22.5 -22 54.5 -22 q32 0 54.5 22.5 Z" /><glyph glyph-name="plusminus" unicode="±" d="M467 357 l-152 0 l0 -154 l-130 0 l0 154 l-152 0 l0 120 l152 0 l0 153 l130 0 l0 -153 l152 0 l0 -120 ZM467 50 l-434 0 l0 120 l434 0 l0 -120 Z" /><glyph glyph-name="twosuperior" unicode="²" d="M48 519 l0 17 q0 59 38 98.5 q38 39.5 97 39.5 q58 0 96 -36 q38 -36 38 -93 q0 -54 -27 -97.5 q-27 -43.5 -76 -88.5 q50 3 98 3 l0 -95 l-286 0 l114 147 q20 26 31.5 42 q11.5 16 23 42.5 q11.5 26.5 11.5 50.5 q0 33 -23 33 q-4 0 -7.5 -1.5 q-3.5 -1.5 -6 -4.5 q-2.5 -3 -4.5 -6 q-2 -3 -3 -8.5 q-1 -5.5 -2 -9 q-1 -3.5 -1 -9.5 q0 -6 0 -8.5 q0 -2.5 0 -8.5 q0 -6 0 -7 l-111 0 Z" /><glyph glyph-name="threesuperior" unicode="³" d="M156 550 l-110 0 q4 56 39.5 90 q35.5 34 91.5 34 q52 0 91.5 -32 q39.5 -32 39.5 -83 q0 -57 -47 -86 q53 -28 53 -90 q0 -56 -40 -89.5 q-40 -33.5 -98 -33.5 q-57 0 -97.5 30.5 q-40.5 30.5 -40.5 86.5 l0 10 l111 0 q2 -35 26 -35 q13 0 20.5 10 q7.5 10 7.5 24 q0 19 -11.5 29.5 q-11.5 10.5 -30.5 10.5 q-6 0 -22 -2 l0 89 q5 -1 15 -1 q23 0 33 8.5 q10 8.5 10 30.5 q0 31 -21 31 q-3 0 -6 -1 q-3 -1 -4.5 -2 q-1.5 -1 -3 -3.5 q-1.5 -2.5 -2.5 -4 q-1 -1.5 -1.5 -5 q-0.5 -3.5 -1 -5 q-0.5 -1.5 -1 -6 q-0.5 -4.5 -0.5 -5.5 Z" /><glyph glyph-name="acute" unicode="´" d="M384 678 l-88 -148 l-99 0 l47 148 l140 0 Z" /><glyph glyph-name="mu" unicode="µ&#x3bc;" d="M543 0 l-156 0 l0 68 q-9 -36 -34 -57 q-25 -21 -62 -21 q-36 0 -59 19 q-27 21 -36 56 l0 -280 l-156 0 l0 682 l172 0 l0 -227 q0 -75 27 -102 q20 -20 53 -20 q33 0 52 20 q27 27 27 108 l0 221 l172 0 l0 -467 Z" /><glyph glyph-name="paragraph" unicode="¶" d="M594 567 l-74 0 l0 -667 l-110 0 l0 667 l-83 0 l0 -667 l-110 0 l0 421 l-12 0 q-78 0 -128 46.5 q-50 46.5 -50 123.5 q0 176 231 176 l336 0 l0 -100 Z" /><glyph glyph-name="periodcentered" unicode="·" d="M281 339 q0 -48 -35 -82 q-35 -34 -83 -34 q-49 0 -83.5 34.5 q-34.5 34.5 -34.5 83.5 q0 48 34.5 82 q34.5 34 82.5 34 q49 0 84 -34.5 q35 -34.5 35 -83.5 Z" /><glyph glyph-name="cedilla" unicode="¸" d="M372 -106 l-113 -117 l-71 54 l98 122 l86 -59 Z" /><glyph glyph-name="onesuperior" unicode="¹" d="M249 267 l-113 0 l0 303 l-44 0 l0 97 l157 0 l0 -400 Z" /><glyph glyph-name="ordmasculine" unicode="º" d="M265 525 q0 -70 -32.5 -110.5 q-32.5 -40.5 -93.5 -40.5 q-60 0 -92 41.5 q-32 41.5 -32 110.5 q0 64 32.5 105.5 q32.5 41.5 91.5 41.5 q62 0 94 -40.5 q32 -40.5 32 -107.5 ZM261 297 l-242 0 l0 48 l242 0 l0 -48 ZM168 527 q0 71 -28 71 q-28 0 -28 -71 q0 -77 28 -77 q28 0 28 77 Z" /><glyph glyph-name="guillemotright" unicode="»" d="M223 71 l113 168 l-113 168 l78 58 l151 -226 l-151 -226 l-78 58 ZM27 71 l113 168 l-113 168 l78 58 l151 -226 l-151 -226 l-78 58 Z" /><glyph glyph-name="onequarter" unicode="¼" d="M815 80 l-34 0 l0 -80 l-114 0 l0 80 l-148 0 l0 86 l124 234 l138 0 l0 -231 l34 0 l0 -89 ZM249 267 l-113 0 l0 303 l-44 0 l0 97 l157 0 l0 -400 ZM616 169 l55 0 q0 53 3 107 q-41 -82 -58 -107 ZM614 667 l-288 -667 l-92 0 l290 667 l90 0 Z" /><glyph glyph-name="onehalf" unicode="½" d="M539 252 l0 17 q0 59 38 98.5 q38 39.5 97 39.5 q58 0 96 -36 q38 -36 38 -93 q0 -54 -27 -97.5 q-27 -43.5 -76 -88.5 q49 3 98 3 l0 -95 l-286 0 l114 147 q20 26 31.5 42 q11.5 16 23 42.5 q11.5 26.5 11.5 50.5 q0 33 -23 33 q-24 0 -24 -63 l-111 0 ZM249 267 l-113 0 l0 303 l-44 0 l0 97 l157 0 l0 -400 ZM605 667 l-288 -667 l-92 0 l290 667 l90 0 Z" /><glyph glyph-name="threequarters" unicode="¾" d="M815 80 l-34 0 l0 -80 l-114 0 l0 80 l-148 0 l0 86 l124 234 l138 0 l0 -231 l34 0 l0 -89 ZM156 550 l-110 0 q4 56 39.5 90 q35.5 34 91.5 34 q52 0 91.5 -32 q39.5 -32 39.5 -83 q0 -57 -47 -86 q53 -28 53 -90 q0 -56 -40 -89.5 q-40 -33.5 -98 -33.5 q-57 0 -97.5 30.5 q-40.5 30.5 -40.5 86.5 l0 10 l111 0 q2 -35 26 -35 q13 0 20.5 10 q7.5 10 7.5 24 q0 19 -11.5 29.5 q-11.5 10.5 -30.5 10.5 q-6 0 -22 -2 l0 89 q5 -1 15 -1 q23 0 33 8.5 q10 8.5 10 30.5 q0 31 -21 31 q-3 0 -6 -1 q-3 -1 -4.5 -2 q-1.5 -1 -3 -3.5 q-1.5 -2.5 -2.5 -4 q-1 -1.5 -1.5 -5 q-0.5 -3.5 -1 -5 q-0.5 -1.5 -1 -6 q-0.5 -4.5 -0.5 -5.5 ZM616 169 l55 0 q0 53 3 107 q-41 -82 -58 -107 ZM631 667 l-288 -667 l-92 0 l290 667 l90 0 Z" /><glyph glyph-name="questiondown" unicode="¿" d="M323.5 447 q29.5 -30 29.5 -72 q0 -42 -29.5 -71.5 q-29.5 -29.5 -71.5 -29.5 q-42 0 -71.5 29.5 q-29.5 29.5 -29.5 71.5 q0 42 29.5 72 q29.5 30 71.5 30 q42 0 71.5 -30 ZM468 -11 q0 -45 -5 -71.5 q-5 -26.5 -23 -57.5 q-26 -45 -76.5 -70 q-50.5 -25 -106.5 -25 q-96 0 -156.5 61.5 q-60.5 61.5 -60.5 157.5 q0 65 32.5 113.5 q32.5 48.5 95.5 65.5 l0 64 l171 0 l0 -159 q-18 2 -27 2 q-47 0 -70 -19.5 q-23 -19.5 -23 -63.5 q0 -74 38 -74 q38 0 38 76 l173 0 Z" /><glyph glyph-name="Agrave" unicode="à" d="M527 0 l-186 0 l-14 85 l-121 0 l-15 -85 l-186 0 l161 667 l220 0 l141 -667 ZM230 227 l76 0 q-23 155 -34 280 q-2 -15 -5.5 -47 q-3.5 -32 -5.5 -47 q-15 -103 -31 -186 ZM344 720 l-100 0 l-87 148 l139 0 l48 -148 Z" /><glyph glyph-name="Aacute" unicode="á" d="M527 0 l-186 0 l-14 85 l-121 0 l-15 -85 l-186 0 l161 667 l220 0 l141 -667 ZM230 227 l76 0 q-23 155 -34 280 q-2 -15 -5.5 -47 q-3.5 -32 -5.5 -47 q-15 -103 -31 -186 ZM394 868 l-88 -148 l-99 0 l47 148 l140 0 Z" /><glyph glyph-name="Acircumflex" unicode="â" d="M527 0 l-186 0 l-14 85 l-121 0 l-15 -85 l-186 0 l161 667 l220 0 l141 -667 ZM230 227 l76 0 q-23 155 -34 280 q-2 -15 -5.5 -47 q-3.5 -32 -5.5 -47 q-15 -103 -31 -186 ZM282 870 l137 -98 l-57 -66 l-83 56 l-82 -58 l-61 66 l146 100 Z" /><glyph glyph-name="Atilde" unicode="ã" d="M527 0 l-186 0 l-14 85 l-121 0 l-15 -85 l-186 0 l161 667 l220 0 l141 -667 ZM230 227 l76 0 q-23 155 -34 280 q-2 -15 -5.5 -47 q-3.5 -32 -5.5 -47 q-15 -103 -31 -186 ZM436 855 l0 -14 q0 -50 -28 -84.5 q-28 -34.5 -77 -34.5 q-26 0 -64.5 16.5 q-38.5 16.5 -52.5 16.5 q-27 0 -27 -35 l-91 0 l0 2 q0 55 24 92.5 q24 37.5 77 37.5 q26 0 65.5 -16.5 q39.5 -16.5 55.5 -16.5 q28 0 28 36 l90 0 Z" /><glyph glyph-name="Adieresis" unicode="ä" d="M527 0 l-186 0 l-14 85 l-121 0 l-15 -85 l-186 0 l161 667 l220 0 l141 -667 ZM230 227 l76 0 q-23 155 -34 280 q-2 -15 -5.5 -47 q-3.5 -32 -5.5 -47 q-15 -103 -31 -186 ZM435 792 q0 -29 -21.5 -50.5 q-21.5 -21.5 -50.5 -21.5 q-30 0 -52 21.5 q-22 21.5 -22 51.5 q0 30 21.5 50.5 q21.5 20.5 51.5 20.5 q30 0 51.5 -21 q21.5 -21 21.5 -51 ZM243 792 q0 -29 -21.5 -50.5 q-21.5 -21.5 -50.5 -21.5 q-30 0 -52 21.5 q-22 21.5 -22 51.5 q0 30 21.5 50.5 q21.5 20.5 51.5 20.5 q30 0 51.5 -21 q21.5 -21 21.5 -51 Z" /><glyph glyph-name="Aring" unicode="å" d="M527 0 l-186 0 l-14 85 l-121 0 l-15 -85 l-186 0 l161 667 l220 0 l141 -667 ZM230 227 l76 0 q-23 155 -34 280 q-2 -15 -5.5 -47 q-3.5 -32 -5.5 -47 q-15 -103 -31 -186 ZM177 810 q0 40 28 68 q28 28 68 28 q40 0 68 -28 q28 -28 28 -68 q0 -40 -28.5 -68 q-28.5 -28 -66.5 -28 q-40 0 -68.5 28.5 q-28.5 28.5 -28.5 67.5 ZM246.5 836.5 q-10.5 -10.5 -10.5 -26.5 q0 -16 10.5 -26.5 q10.5 -10.5 26.5 -10.5 q16 0 26.5 10.5 q10.5 10.5 10.5 26.5 q0 16 -10.5 26.5 q-10.5 10.5 -26.5 10.5 q-16 0 -26.5 -10.5 Z" /><glyph glyph-name="AE" unicode="æ" d="M585 0 l-256 0 l-12 85 l-116 0 l-15 -85 l-186 0 l154 667 l431 0 l0 -157 l-179 0 l15 -97 l150 0 l0 -151 l-124 0 l18 -102 l120 0 l0 -160 ZM223 223 l75 0 q-29 206 -35 283 q-14 -118 -40 -283 Z" /><glyph glyph-name="Ccedilla" unicode="ç" d="M422 205 l-11 -193 q-55 -24 -107 -24 q-69 0 -123 29.5 q-54 29.5 -86 79 q-32 49.5 -48.5 109 q-16.5 59.5 -16.5 125.5 q0 95 31 172 q31 77 99.5 126.5 q68.5 49.5 164.5 49.5 q49 0 89 -17 l0 -190 q-38 40 -83 40 q-44 0 -72 -30 q-28 -30 -36.5 -67 q-8.5 -37 -8.5 -81 q0 -43 8.5 -78.5 q8.5 -35.5 35.5 -64.5 q27 -29 70 -29 q46 0 94 43 ZM388 -113 l-124 -124 l-77 53 l108 137 l93 -66 Z" /><glyph glyph-name="Egrave" unicode="è" d="M381 0 l-334 0 l0 667 l334 0 l0 -157 l-154 0 l0 -97 l138 0 l0 -151 l-138 0 l0 -102 l154 0 l0 -160 ZM294 720 l-100 0 l-87 148 l139 0 l48 -148 Z" /><glyph glyph-name="Eacute" unicode="é" d="M381 0 l-334 0 l0 667 l334 0 l0 -157 l-154 0 l0 -97 l138 0 l0 -151 l-138 0 l0 -102 l154 0 l0 -160 ZM334 868 l-88 -148 l-99 0 l47 148 l140 0 Z" /><glyph glyph-name="Ecircumflex" unicode="ê" d="M381 0 l-334 0 l0 667 l334 0 l0 -157 l-154 0 l0 -97 l138 0 l0 -151 l-138 0 l0 -102 l154 0 l0 -160 ZM222 870 l137 -98 l-57 -66 l-83 56 l-82 -58 l-61 66 l146 100 Z" /><glyph glyph-name="Edieresis" unicode="ë" d="M381 0 l-334 0 l0 667 l334 0 l0 -157 l-154 0 l0 -97 l138 0 l0 -151 l-138 0 l0 -102 l154 0 l0 -160 ZM379 792 q0 -29 -21.5 -50.5 q-21.5 -21.5 -50.5 -21.5 q-30 0 -52 21.5 q-22 21.5 -22 51.5 q0 30 21.5 50.5 q21.5 20.5 51.5 20.5 q30 0 51.5 -21 q21.5 -21 21.5 -51 ZM187 792 q0 -29 -21.5 -50.5 q-21.5 -21.5 -50.5 -21.5 q-30 0 -52 21.5 q-22 21.5 -22 51.5 q0 30 21.5 50.5 q21.5 20.5 51.5 20.5 q30 0 51.5 -21 q21.5 -21 21.5 -51 Z" /><glyph glyph-name="Igrave" unicode="ì" d="M227 0 l-180 0 l0 667 l180 0 l0 -667 ZM204 720 l-100 0 l-87 148 l139 0 l48 -148 Z" /><glyph glyph-name="Iacute" unicode="í" d="M227 0 l-180 0 l0 667 l180 0 l0 -667 ZM254 868 l-88 -148 l-99 0 l47 148 l140 0 Z" /><glyph glyph-name="Icircumflex" unicode="î" d="M227 0 l-180 0 l0 667 l180 0 l0 -667 ZM144 870 l137 -98 l-57 -66 l-83 56 l-82 -58 l-61 66 l146 100 Z" /><glyph glyph-name="Idieresis" unicode="ï" d="M227 0 l-180 0 l0 667 l180 0 l0 -667 ZM306 792 q0 -29 -21.5 -50.5 q-21.5 -21.5 -50.5 -21.5 q-30 0 -52 21.5 q-22 21.5 -22 51.5 q0 30 21.5 50.5 q21.5 20.5 51.5 20.5 q30 0 51.5 -21 q21.5 -21 21.5 -51 ZM114 792 q0 -29 -21.5 -50.5 q-21.5 -21.5 -50.5 -21.5 q-30 0 -52 21.5 q-22 21.5 -22 51.5 q0 30 21.5 50.5 q21.5 20.5 51.5 20.5 q30 0 51.5 -21 q21.5 -21 21.5 -51 Z" /><glyph glyph-name="Eth" unicode="ð" d="M47 667 l156 0 q148 0 227 -94 q77 -91 77 -237 q0 -174 -87 -264 q-70 -72 -205 -72 l-168 0 l0 290 l-40 0 l0 103 l40 0 l0 274 ZM227 290 l0 -129 q96 6 96 166 q0 97 -35 143 q-23 30 -56 30 l-5 0 l0 -107 l53 0 l0 -103 l-53 0 Z" /><glyph glyph-name="Ntilde" unicode="ñ" d="M516 0 l-172 0 q-11 31 -35 93 q-24 62 -38 99.5 q-14 37.5 -32 91.5 q-18 54 -31 100 q11 -156 11 -214 l0 -170 l-172 0 l0 667 l172 0 l90 -234 q20 -51 55 -168 q-20 164 -20 246 l0 156 l172 0 l0 -667 ZM460 855 l0 -14 q0 -50 -28 -84.5 q-28 -34.5 -77 -34.5 q-27 0 -65 16.5 q-38 16.5 -52 16.5 q-27 0 -27 -35 l-91 0 l0 2 q0 55 24 92.5 q24 37.5 77 37.5 q26 0 65.5 -16.5 q39.5 -16.5 55.5 -16.5 q28 0 28 36 l90 0 Z" /><glyph glyph-name="Ograve" unicode="ò" d="M537 340 q0 -63 -13.5 -121.5 q-13.5 -58.5 -41 -112 q-27.5 -53.5 -78 -86 q-50.5 -32.5 -117.5 -32.5 q-108 0 -182 89 q-75 91 -75 263 q0 62 15 120 q15 58 44 108 q29 50 80 80.5 q51 30.5 117 30.5 q53 0 96 -20.5 q43 -20.5 71 -54 q28 -33.5 47.5 -78.5 q19.5 -45 28 -91.5 q8.5 -46.5 8.5 -94.5 ZM350 333 q0 178 -65 178 q-22 0 -36.5 -20.5 q-14.5 -20.5 -21 -53 q-6.5 -32.5 -8.5 -56.5 q-2 -24 -2 -47 q0 -24 2 -47 q2 -23 7.5 -56 q5.5 -33 20 -53.5 q14.5 -20.5 36.5 -20.5 q22 0 36.5 20.5 q14.5 20.5 20.5 52.5 q6 32 8 56 q2 24 2 47 ZM339 720 l-100 0 l-87 148 l139 0 l48 -148 Z" /><glyph glyph-name="Oacute" unicode="ó" d="M537 340 q0 -63 -13.5 -121.5 q-13.5 -58.5 -41 -112 q-27.5 -53.5 -78 -86 q-50.5 -32.5 -117.5 -32.5 q-108 0 -182 89 q-75 91 -75 263 q0 62 15 120 q15 58 44 108 q29 50 80 80.5 q51 30.5 117 30.5 q53 0 96 -20.5 q43 -20.5 71 -54 q28 -33.5 47.5 -78.5 q19.5 -45 28 -91.5 q8.5 -46.5 8.5 -94.5 ZM350 333 q0 178 -65 178 q-22 0 -36.5 -20.5 q-14.5 -20.5 -21 -53 q-6.5 -32.5 -8.5 -56.5 q-2 -24 -2 -47 q0 -24 2 -47 q2 -23 7.5 -56 q5.5 -33 20 -53.5 q14.5 -20.5 36.5 -20.5 q22 0 36.5 20.5 q14.5 20.5 20.5 52.5 q6 32 8 56 q2 24 2 47 ZM419 868 l-88 -148 l-99 0 l47 148 l140 0 Z" /><glyph glyph-name="Ocircumflex" unicode="ô" d="M537 340 q0 -63 -13.5 -121.5 q-13.5 -58.5 -41 -112 q-27.5 -53.5 -78 -86 q-50.5 -32.5 -117.5 -32.5 q-108 0 -182 89 q-75 91 -75 263 q0 62 15 120 q15 58 44 108 q29 50 80 80.5 q51 30.5 117 30.5 q53 0 96 -20.5 q43 -20.5 71 -54 q28 -33.5 47.5 -78.5 q19.5 -45 28 -91.5 q8.5 -46.5 8.5 -94.5 ZM350 333 q0 178 -65 178 q-22 0 -36.5 -20.5 q-14.5 -20.5 -21 -53 q-6.5 -32.5 -8.5 -56.5 q-2 -24 -2 -47 q0 -24 2 -47 q2 -23 7.5 -56 q5.5 -33 20 -53.5 q14.5 -20.5 36.5 -20.5 q22 0 36.5 20.5 q14.5 20.5 20.5 52.5 q6 32 8 56 q2 24 2 47 ZM302 870 l137 -98 l-57 -66 l-83 56 l-82 -58 l-61 66 l146 100 Z" /><glyph glyph-name="Otilde" unicode="õ" d="M537 340 q0 -63 -13.5 -121.5 q-13.5 -58.5 -41 -112 q-27.5 -53.5 -78 -86 q-50.5 -32.5 -117.5 -32.5 q-108 0 -182 89 q-75 91 -75 263 q0 62 15 120 q15 58 44 108 q29 50 80 80.5 q51 30.5 117 30.5 q53 0 96 -20.5 q43 -20.5 71 -54 q28 -33.5 47.5 -78.5 q19.5 -45 28 -91.5 q8.5 -46.5 8.5 -94.5 ZM350 333 q0 178 -65 178 q-22 0 -36.5 -20.5 q-14.5 -20.5 -21 -53 q-6.5 -32.5 -8.5 -56.5 q-2 -24 -2 -47 q0 -24 2 -47 q2 -23 7.5 -56 q5.5 -33 20 -53.5 q14.5 -20.5 36.5 -20.5 q22 0 36.5 20.5 q14.5 20.5 20.5 52.5 q6 32 8 56 q2 24 2 47 ZM453 855 l0 -14 q0 -50 -28 -84.5 q-28 -34.5 -77 -34.5 q-27 0 -64.5 16.5 q-37.5 16.5 -52.5 16.5 q-27 0 -27 -35 l-91 0 l0 2 q0 55 24 92.5 q24 37.5 77 37.5 q26 0 65.5 -16.5 q39.5 -16.5 55.5 -16.5 q28 0 28 36 l90 0 Z" /><glyph glyph-name="Odieresis" unicode="ö" d="M537 340 q0 -63 -13.5 -121.5 q-13.5 -58.5 -41 -112 q-27.5 -53.5 -78 -86 q-50.5 -32.5 -117.5 -32.5 q-108 0 -182 89 q-75 91 -75 263 q0 62 15 120 q15 58 44 108 q29 50 80 80.5 q51 30.5 117 30.5 q53 0 96 -20.5 q43 -20.5 71 -54 q28 -33.5 47.5 -78.5 q19.5 -45 28 -91.5 q8.5 -46.5 8.5 -94.5 ZM350 333 q0 178 -65 178 q-22 0 -36.5 -20.5 q-14.5 -20.5 -21 -53 q-6.5 -32.5 -8.5 -56.5 q-2 -24 -2 -47 q0 -24 2 -47 q2 -23 7.5 -56 q5.5 -33 20 -53.5 q14.5 -20.5 36.5 -20.5 q22 0 36.5 20.5 q14.5 20.5 20.5 52.5 q6 32 8 56 q2 24 2 47 ZM454 792 q0 -29 -21.5 -50.5 q-21.5 -21.5 -50.5 -21.5 q-30 0 -52 21.5 q-22 21.5 -22 51.5 q0 30 21.5 50.5 q21.5 20.5 51.5 20.5 q30 0 51.5 -21 q21.5 -21 21.5 -51 ZM262 792 q0 -29 -21.5 -50.5 q-21.5 -21.5 -50.5 -21.5 q-30 0 -52 21.5 q-22 21.5 -22 51.5 q0 30 21.5 50.5 q21.5 20.5 51.5 20.5 q30 0 51.5 -21 q21.5 -21 21.5 -51 Z" /><glyph glyph-name="multiply" unicode="×" d="M361 144 l-111 111 l-111 -111 l-85 85 l111 111 l-111 111 l85 85 l111 -111 l111 111 l85 -85 l-111 -111 l111 -111 l-85 -85 Z" /><glyph glyph-name="Oslash" unicode="ø" d="M565 631 l-59 -85 q44 -95 44 -206 q0 -64 -14 -123.5 q-14 -59.5 -43 -112 q-29 -52.5 -80.5 -84.5 q-51.5 -32 -119.5 -32 q-81 0 -152 60 l-47 -68 l-64 44 l61 92 q-3 6 -9.5 18.5 q-6.5 12.5 -9.5 19.5 q-29 67 -29 175 q0 64 13 123 q13 59 41 111.5 q28 52.5 79.5 84 q51.5 31.5 119.5 31.5 q85 0 159 -66 l45 64 l65 -46 ZM224 301 l118 174 q-15 41 -48 41 q-22 0 -37.5 -20.5 q-15.5 -20.5 -22 -53 q-6.5 -32.5 -8.5 -57 q-2 -24.5 -2 -47.5 l0 -37 ZM368 364 l-118 -174 q12 -39 47 -39 q22 0 38 20.5 q16 20.5 22.5 53 q6.5 32.5 9 58 q2.5 25.5 2.5 48.5 q0 22 -1 33 Z" /><glyph glyph-name="Ugrave" unicode="ù" d="M499 667 l0 -472 q0 -52 -14.5 -87.5 q-14.5 -35.5 -52.5 -67.5 q-60 -52 -151 -52 q-104 0 -169 58 q-65 58 -65 174 l0 447 l180 0 l0 -431 q0 -23 1.5 -37 q1.5 -14 12.5 -28 q11 -14 32 -14 q13 0 22.5 5.5 q9.5 5.5 14 12 q4.5 6.5 6.5 19.5 q2 13 2.5 20.5 q0.5 7.5 0.5 21.5 l0 431 l180 0 ZM324 720 l-100 0 l-87 148 l139 0 l48 -148 Z" /><glyph glyph-name="Uacute" unicode="ú" d="M499 667 l0 -472 q0 -52 -14.5 -87.5 q-14.5 -35.5 -52.5 -67.5 q-60 -52 -151 -52 q-104 0 -169 58 q-65 58 -65 174 l0 447 l180 0 l0 -431 q0 -23 1.5 -37 q1.5 -14 12.5 -28 q11 -14 32 -14 q13 0 22.5 5.5 q9.5 5.5 14 12 q4.5 6.5 6.5 19.5 q2 13 2.5 20.5 q0.5 7.5 0.5 21.5 l0 431 l180 0 ZM409 868 l-88 -148 l-99 0 l47 148 l140 0 Z" /><glyph glyph-name="Ucircumflex" unicode="û" d="M499 667 l0 -472 q0 -52 -14.5 -87.5 q-14.5 -35.5 -52.5 -67.5 q-60 -52 -151 -52 q-104 0 -169 58 q-65 58 -65 174 l0 447 l180 0 l0 -431 q0 -23 1.5 -37 q1.5 -14 12.5 -28 q11 -14 32 -14 q13 0 22.5 5.5 q9.5 5.5 14 12 q4.5 6.5 6.5 19.5 q2 13 2.5 20.5 q0.5 7.5 0.5 21.5 l0 431 l180 0 ZM279 870 l137 -98 l-57 -66 l-83 56 l-82 -58 l-61 66 l146 100 Z" /><glyph glyph-name="Udieresis" unicode="ü" d="M499 667 l0 -472 q0 -52 -14.5 -87.5 q-14.5 -35.5 -52.5 -67.5 q-60 -52 -151 -52 q-104 0 -169 58 q-65 58 -65 174 l0 447 l180 0 l0 -431 q0 -23 1.5 -37 q1.5 -14 12.5 -28 q11 -14 32 -14 q13 0 22.5 5.5 q9.5 5.5 14 12 q4.5 6.5 6.5 19.5 q2 13 2.5 20.5 q0.5 7.5 0.5 21.5 l0 431 l180 0 ZM441 792 q0 -29 -21.5 -50.5 q-21.5 -21.5 -50.5 -21.5 q-30 0 -52 21.5 q-22 21.5 -22 51.5 q0 30 21.5 50.5 q21.5 20.5 51.5 20.5 q30 0 51.5 -21 q21.5 -21 21.5 -51 ZM249 792 q0 -29 -21.5 -50.5 q-21.5 -21.5 -50.5 -21.5 q-30 0 -52 21.5 q-22 21.5 -22 51.5 q0 30 21.5 50.5 q21.5 20.5 51.5 20.5 q30 0 51.5 -21 q21.5 -21 21.5 -51 Z" /><glyph glyph-name="Yacute" unicode="ý" d="M500 667 l-154 -385 l0 -282 l-180 0 l0 282 l-166 385 l188 0 q52 -161 63 -206 q29 106 63 206 l186 0 ZM389 868 l-88 -148 l-99 0 l47 148 l140 0 Z" /><glyph glyph-name="Thorn" unicode="þ" d="M227 667 l0 -93 q91 -2 143 -25 q59 -26 89 -80.5 q30 -54.5 30 -122.5 q0 -95 -52 -155 q-57 -66 -182 -66 l-28 0 l0 -125 l-180 0 l0 667 l180 0 ZM227 275 l9 0 q33 0 52 21 q19 21 19 54 q0 32 -18 55 q-18 23 -49 23 q-9 0 -13 -1 l0 -152 Z" /><glyph glyph-name="germandbls" unicode="ß" d="M11 467 l48 0 q0 87 11 129 q17 65 74 104.5 q57 39.5 125 39.5 q83 0 143.5 -54.5 q60.5 -54.5 60.5 -136.5 q0 -50 -22 -89.5 q-22 -39.5 -68 -50.5 q37 -5 59 -24 q57 -50 57 -148 q0 -89 -46 -153 q-58 -81 -177 -84 l0 143 q44 12 44 92 q0 87 -44 92 l0 140 q33 2 33 61 q0 58 -39 58 q-38 0 -38 -63 l0 -523 l-173 0 l0 327 l-48 0 l0 140 Z" /><glyph glyph-name="agrave" unicode="à" d="M457 0 l-174 0 q1 13 3 39.5 q2 26.5 3 39.5 q-45 -89 -120 -89 q-42 0 -71.5 25 q-29.5 25 -44 65.5 q-14.5 40.5 -20.5 78.5 q-6 38 -6 77 q0 40 6.5 78 q6.5 38 21.5 76.5 q15 38.5 45.5 62.5 q30.5 24 72.5 24 q73 0 112 -84 q-1 8 -2 34 q-1 26 -3 40 l177 0 l0 -467 ZM281 254 q0 80 -36 80 q-44 0 -44 -117 q0 -84 39 -84 q7 0 13.5 3 q6.5 3 10.5 9 q4 6 7 12 q3 6 5 16.5 q2 10.5 3 17 q1 6.5 1.5 18.5 q0.5 12 0.5 17 q0 5 0 16 q0 11 0 12 ZM329 530 l-100 0 l-87 148 l139 0 l48 -148 Z" /><glyph glyph-name="aacute" unicode="á" d="M457 0 l-174 0 q1 13 3 39.5 q2 26.5 3 39.5 q-45 -89 -120 -89 q-42 0 -71.5 25 q-29.5 25 -44 65.5 q-14.5 40.5 -20.5 78.5 q-6 38 -6 77 q0 40 6.5 78 q6.5 38 21.5 76.5 q15 38.5 45.5 62.5 q30.5 24 72.5 24 q73 0 112 -84 q-1 8 -2 34 q-1 26 -3 40 l177 0 l0 -467 ZM281 254 q0 80 -36 80 q-44 0 -44 -117 q0 -84 39 -84 q7 0 13.5 3 q6.5 3 10.5 9 q4 6 7 12 q3 6 5 16.5 q2 10.5 3 17 q1 6.5 1.5 18.5 q0.5 12 0.5 17 q0 5 0 16 q0 11 0 12 ZM369 678 l-88 -148 l-99 0 l47 148 l140 0 Z" /><glyph glyph-name="acircumflex" unicode="â" d="M457 0 l-174 0 q1 13 3 39.5 q2 26.5 3 39.5 q-45 -89 -120 -89 q-42 0 -71.5 25 q-29.5 25 -44 65.5 q-14.5 40.5 -20.5 78.5 q-6 38 -6 77 q0 40 6.5 78 q6.5 38 21.5 76.5 q15 38.5 45.5 62.5 q30.5 24 72.5 24 q73 0 112 -84 q-1 8 -2 34 q-1 26 -3 40 l177 0 l0 -467 ZM281 254 q0 80 -36 80 q-44 0 -44 -117 q0 -84 39 -84 q7 0 13.5 3 q6.5 3 10.5 9 q4 6 7 12 q3 6 5 16.5 q2 10.5 3 17 q1 6.5 1.5 18.5 q0.5 12 0.5 17 q0 5 0 16 q0 11 0 12 ZM264 690 l129 -117 l-58 -63 l-74 66 l-80 -70 l-60 67 l143 117 Z" /><glyph glyph-name="atilde" unicode="ã" d="M457 0 l-174 0 q1 13 3 39.5 q2 26.5 3 39.5 q-45 -89 -120 -89 q-42 0 -71.5 25 q-29.5 25 -44 65.5 q-14.5 40.5 -20.5 78.5 q-6 38 -6 77 q0 40 6.5 78 q6.5 38 21.5 76.5 q15 38.5 45.5 62.5 q30.5 24 72.5 24 q73 0 112 -84 q-1 8 -2 34 q-1 26 -3 40 l177 0 l0 -467 ZM281 254 q0 80 -36 80 q-44 0 -44 -117 q0 -84 39 -84 q7 0 13.5 3 q6.5 3 10.5 9 q4 6 7 12 q3 6 5 16.5 q2 10.5 3 17 q1 6.5 1.5 18.5 q0.5 12 0.5 17 q0 5 0 16 q0 11 0 12 ZM440 665 l0 -14 q0 -50 -28 -84.5 q-28 -34.5 -77 -34.5 q-27 0 -65 16.5 q-38 16.5 -52 16.5 q-27 0 -27 -35 l-91 0 l0 2 q0 55 24 92.5 q24 37.5 77 37.5 q26 0 65.5 -16.5 q39.5 -16.5 55.5 -16.5 q28 0 28 36 l90 0 Z" /><glyph glyph-name="adieresis" unicode="ä" d="M457 0 l-174 0 q1 13 3 39.5 q2 26.5 3 39.5 q-45 -89 -120 -89 q-42 0 -71.5 25 q-29.5 25 -44 65.5 q-14.5 40.5 -20.5 78.5 q-6 38 -6 77 q0 40 6.5 78 q6.5 38 21.5 76.5 q15 38.5 45.5 62.5 q30.5 24 72.5 24 q73 0 112 -84 q-1 8 -2 34 q-1 26 -3 40 l177 0 l0 -467 ZM281 254 q0 80 -36 80 q-44 0 -44 -117 q0 -84 39 -84 q7 0 13.5 3 q6.5 3 10.5 9 q4 6 7 12 q3 6 5 16.5 q2 10.5 3 17 q1 6.5 1.5 18.5 q0.5 12 0.5 17 q0 5 0 16 q0 11 0 12 ZM434 602 q0 -29 -21.5 -50.5 q-21.5 -21.5 -50.5 -21.5 q-30 0 -52 21.5 q-22 21.5 -22 51.5 q0 30 21.5 50.5 q21.5 20.5 51.5 20.5 q30 0 51.5 -21 q21.5 -21 21.5 -51 ZM242 602 q0 -29 -21.5 -50.5 q-21.5 -21.5 -50.5 -21.5 q-30 0 -52 21.5 q-22 21.5 -22 51.5 q0 30 21.5 50.5 q21.5 20.5 51.5 20.5 q30 0 51.5 -21 q21.5 -21 21.5 -51 Z" /><glyph glyph-name="aring" unicode="å" d="M457 0 l-174 0 q1 13 3 39.5 q2 26.5 3 39.5 q-45 -89 -120 -89 q-42 0 -71.5 25 q-29.5 25 -44 65.5 q-14.5 40.5 -20.5 78.5 q-6 38 -6 77 q0 40 6.5 78 q6.5 38 21.5 76.5 q15 38.5 45.5 62.5 q30.5 24 72.5 24 q73 0 112 -84 q-1 8 -2 34 q-1 26 -3 40 l177 0 l0 -467 ZM281 254 q0 80 -36 80 q-44 0 -44 -117 q0 -84 39 -84 q7 0 13.5 3 q6.5 3 10.5 9 q4 6 7 12 q3 6 5 16.5 q2 10.5 3 17 q1 6.5 1.5 18.5 q0.5 12 0.5 17 q0 5 0 16 q0 11 0 12 ZM185 551 q-28 28 -28 68 q0 40 28 68 q28 28 68 28 q40 0 68 -28 q28 -28 28 -68 q0 -40 -28 -68 q-28 -28 -68 -28 q-40 0 -68 28 ZM226.5 645.5 q-10.5 -10.5 -10.5 -26.5 q0 -16 10.5 -26.5 q10.5 -10.5 26.5 -10.5 q16 0 26.5 10.5 q10.5 10.5 10.5 26.5 q0 16 -10.5 26.5 q-10.5 10.5 -26.5 10.5 q-16 0 -26.5 -10.5 Z" /><glyph glyph-name="ae" unicode="æ" d="M78 321 l0 135 q79 21 139 21 q89 0 144 -46 q64 46 134 46 q102 0 157.5 -71 q55.5 -71 55.5 -176 q0 -21 -1 -32 l-255 0 q3 -80 46 -80 q27 0 39 35 l165 -3 q-23 -87 -77 -124 q-51 -36 -132 -36 q-77 0 -138 48 q-70 -48 -151 -48 q-74 0 -125.5 44.5 q-51.5 44.5 -51.5 117.5 q0 72 47.5 110.5 q47.5 38.5 121.5 38.5 q41 0 89 -10 q-8 57 -93 57 q-60 0 -114 -27 ZM452 291 l87 0 q-7 65 -45 65 q-16 0 -25.5 -12 q-9.5 -12 -12 -23.5 q-2.5 -11.5 -4.5 -29.5 ZM273.5 120 q12.5 11 12.5 30 q0 19 -13 30 q-13 11 -33 11 q-19 0 -32 -11.5 q-13 -11.5 -13 -30.5 q0 -20 13.5 -30 q13.5 -10 33.5 -10 q19 0 31.5 11 Z" /><glyph glyph-name="ccedilla" unicode="ç" d="M283 152 l0 -159 q-24 -3 -47 -3 q-98 0 -153.5 73 q-55.5 73 -55.5 173 q0 100 61.5 170.5 q61.5 70.5 159.5 70.5 q11 0 35 -2 l0 -152 q-77 -5 -77 -84 q0 -32 17.5 -59.5 q17.5 -27.5 47.5 -27.5 l12 0 ZM277 -106 l-113 -117 l-71 54 l98 122 l86 -59 Z" /><glyph glyph-name="egrave" unicode="è" d="M279 158 l169 -1 q-18 -81 -72 -124 q-54 -43 -136 -43 q-104 0 -158.5 64.5 q-54.5 64.5 -54.5 170.5 q0 105 58 178 q58 73 160 73 q102 0 156 -71 q54 -71 54 -176 q0 -5 -0.5 -16 q-0.5 -11 -0.5 -16 l-254 0 q0 -72 40 -72 q32 0 39 33 ZM202 290 l81 0 q-2 59 -41 59 q-38 0 -40 -59 ZM304 530 l-100 0 l-87 148 l139 0 l48 -148 Z" /><glyph glyph-name="eacute" unicode="é" d="M279 158 l169 -1 q-18 -81 -72 -124 q-54 -43 -136 -43 q-104 0 -158.5 64.5 q-54.5 64.5 -54.5 170.5 q0 105 58 178 q58 73 160 73 q102 0 156 -71 q54 -71 54 -176 q0 -5 -0.5 -16 q-0.5 -11 -0.5 -16 l-254 0 q0 -72 40 -72 q32 0 39 33 ZM202 290 l81 0 q-2 59 -41 59 q-38 0 -40 -59 ZM375 678 l-88 -148 l-99 0 l47 148 l140 0 Z" /><glyph glyph-name="ecircumflex" unicode="ê" d="M279 158 l169 -1 q-18 -81 -72 -124 q-54 -43 -136 -43 q-104 0 -158.5 64.5 q-54.5 64.5 -54.5 170.5 q0 105 58 178 q58 73 160 73 q102 0 156 -71 q54 -71 54 -176 q0 -5 -0.5 -16 q-0.5 -11 -0.5 -16 l-254 0 q0 -72 40 -72 q32 0 39 33 ZM202 290 l81 0 q-2 59 -41 59 q-38 0 -40 -59 ZM256 690 l129 -117 l-58 -63 l-74 66 l-80 -70 l-60 67 l143 117 Z" /><glyph glyph-name="edieresis" unicode="ë" d="M279 158 l169 -1 q-18 -81 -72 -124 q-54 -43 -136 -43 q-104 0 -158.5 64.5 q-54.5 64.5 -54.5 170.5 q0 105 58 178 q58 73 160 73 q102 0 156 -71 q54 -71 54 -176 q0 -5 -0.5 -16 q-0.5 -11 -0.5 -16 l-254 0 q0 -72 40 -72 q32 0 39 33 ZM202 290 l81 0 q-2 59 -41 59 q-38 0 -40 -59 ZM419 602 q0 -29 -21.5 -50.5 q-21.5 -21.5 -50.5 -21.5 q-30 0 -52 21.5 q-22 21.5 -22 51.5 q0 30 21.5 50.5 q21.5 20.5 51.5 20.5 q30 0 51.5 -21 q21.5 -21 21.5 -51 ZM227 602 q0 -29 -21.5 -50.5 q-21.5 -21.5 -50.5 -21.5 q-30 0 -52 21.5 q-22 21.5 -22 51.5 q0 30 21.5 50.5 q21.5 20.5 51.5 20.5 q30 0 51.5 -21 q21.5 -21 21.5 -51 Z" /><glyph glyph-name="igrave" unicode="ì" d="M213 0 l-173 0 l0 467 l173 0 l0 -467 ZM194 530 l-100 0 l-87 148 l139 0 l48 -148 Z" /><glyph glyph-name="iacute" unicode="í" d="M213 0 l-173 0 l0 467 l173 0 l0 -467 ZM244 678 l-88 -148 l-99 0 l47 148 l140 0 Z" /><glyph glyph-name="icircumflex" unicode="î" d="M213 0 l-173 0 l0 467 l173 0 l0 -467 ZM132 690 l129 -117 l-58 -63 l-74 66 l-80 -70 l-60 67 l143 117 Z" /><glyph glyph-name="idieresis" unicode="ï" d="M213 0 l-173 0 l0 467 l173 0 l0 -467 ZM295 602 q0 -29 -21.5 -50.5 q-21.5 -21.5 -50.5 -21.5 q-30 0 -52 21.5 q-22 21.5 -22 51.5 q0 30 21.5 50.5 q21.5 20.5 51.5 20.5 q30 0 51.5 -21 q21.5 -21 21.5 -51 ZM103 602 q0 -29 -21.5 -50.5 q-21.5 -21.5 -50.5 -21.5 q-30 0 -52 21.5 q-22 21.5 -22 51.5 q0 30 21.5 50.5 q21.5 20.5 51.5 20.5 q30 0 51.5 -21 q21.5 -21 21.5 -51 Z" /><glyph glyph-name="eth" unicode="ð" d="M386 663 l-83 -46 q78 -69 118.5 -164 q40.5 -95 40.5 -201 q0 -130 -58 -195 q-60 -67 -158 -67 q-106 0 -162.5 67 q-56.5 67 -56.5 175 q0 102 54.5 172 q54.5 70 153.5 72 q-19 48 -46 80 l-109 -60 l-35 63 l91 50 q-39 28 -95 52 l45 70 q79 -22 150 -66 l115 63 l35 -65 ZM293 233 q0 15 -2 31 q-2 16 -6.5 36 q-4.5 20 -15.5 32.5 q-11 12.5 -26 12.5 q-27 0 -38 -38 q-11 -38 -11 -74 q0 -14 2 -30.5 q2 -16.5 6.5 -36.5 q4.5 -20 15.5 -33 q11 -13 26 -13 q28 0 38.5 38 q10.5 38 10.5 75 Z" /><glyph glyph-name="ntilde" unicode="ñ" d="M451 0 l-174 0 l0 247 q0 57 -27 57 q-37 0 -37 -69 l0 -235 l-173 0 l0 467 l173 0 q-2 -58 -4 -89 q42 99 123 99 q62 0 90.5 -46.5 q28.5 -46.5 28.5 -112.5 l0 -318 ZM425 665 l0 -14 q0 -50 -28 -84.5 q-28 -34.5 -77 -34.5 q-26 0 -64 16.5 q-38 16.5 -53 16.5 q-27 0 -27 -35 l-91 0 l0 2 q0 55 24 92.5 q24 37.5 77 37.5 q26 0 65.5 -16.5 q39.5 -16.5 55.5 -16.5 q28 0 28 36 l90 0 Z" /><glyph glyph-name="ograve" unicode="ò" d="M461 229 q0 -106 -57.5 -172.5 q-57.5 -66.5 -162.5 -66.5 q-103 0 -158.5 68.5 q-55.5 68.5 -55.5 173.5 q0 105 56.5 175 q56.5 70 158.5 70 q106 0 162.5 -69.5 q56.5 -69.5 56.5 -178.5 ZM293 233 q0 38 -11 75.5 q-11 37.5 -39 37.5 q-27 0 -37.5 -37.5 q-10.5 -37.5 -10.5 -75.5 q0 -38 10.5 -75 q10.5 -37 38.5 -37 q27 0 38 37.5 q11 37.5 11 74.5 ZM298 530 l-100 0 l-87 148 l139 0 l48 -148 Z" /><glyph glyph-name="oacute" unicode="ó" d="M461 229 q0 -106 -57.5 -172.5 q-57.5 -66.5 -162.5 -66.5 q-103 0 -158.5 68.5 q-55.5 68.5 -55.5 173.5 q0 105 56.5 175 q56.5 70 158.5 70 q106 0 162.5 -69.5 q56.5 -69.5 56.5 -178.5 ZM293 233 q0 38 -11 75.5 q-11 37.5 -39 37.5 q-27 0 -37.5 -37.5 q-10.5 -37.5 -10.5 -75.5 q0 -38 10.5 -75 q10.5 -37 38.5 -37 q27 0 38 37.5 q11 37.5 11 74.5 ZM378 678 l-88 -148 l-99 0 l47 148 l140 0 Z" /><glyph glyph-name="ocircumflex" unicode="ô" d="M461 229 q0 -106 -57.5 -172.5 q-57.5 -66.5 -162.5 -66.5 q-103 0 -158.5 68.5 q-55.5 68.5 -55.5 173.5 q0 105 56.5 175 q56.5 70 158.5 70 q106 0 162.5 -69.5 q56.5 -69.5 56.5 -178.5 ZM293 233 q0 38 -11 75.5 q-11 37.5 -39 37.5 q-27 0 -37.5 -37.5 q-10.5 -37.5 -10.5 -75.5 q0 -38 10.5 -75 q10.5 -37 38.5 -37 q27 0 38 37.5 q11 37.5 11 74.5 ZM258 690 l129 -117 l-58 -63 l-74 66 l-80 -70 l-60 67 l143 117 Z" /><glyph glyph-name="otilde" unicode="õ" d="M461 229 q0 -106 -57.5 -172.5 q-57.5 -66.5 -162.5 -66.5 q-103 0 -158.5 68.5 q-55.5 68.5 -55.5 173.5 q0 105 56.5 175 q56.5 70 158.5 70 q106 0 162.5 -69.5 q56.5 -69.5 56.5 -178.5 ZM293 233 q0 38 -11 75.5 q-11 37.5 -39 37.5 q-27 0 -37.5 -37.5 q-10.5 -37.5 -10.5 -75.5 q0 -38 10.5 -75 q10.5 -37 38.5 -37 q27 0 38 37.5 q11 37.5 11 74.5 ZM410 665 l0 -14 q0 -50 -28 -84.5 q-28 -34.5 -77 -34.5 q-27 0 -65 16.5 q-38 16.5 -52 16.5 q-27 0 -27 -35 l-91 0 l0 2 q0 55 24 92.5 q24 37.5 77 37.5 q26 0 65.5 -16.5 q39.5 -16.5 55.5 -16.5 q28 0 28 36 l90 0 Z" /><glyph glyph-name="odieresis" unicode="ö" d="M461 229 q0 -106 -57.5 -172.5 q-57.5 -66.5 -162.5 -66.5 q-103 0 -158.5 68.5 q-55.5 68.5 -55.5 173.5 q0 105 56.5 175 q56.5 70 158.5 70 q106 0 162.5 -69.5 q56.5 -69.5 56.5 -178.5 ZM293 233 q0 38 -11 75.5 q-11 37.5 -39 37.5 q-27 0 -37.5 -37.5 q-10.5 -37.5 -10.5 -75.5 q0 -38 10.5 -75 q10.5 -37 38.5 -37 q27 0 38 37.5 q11 37.5 11 74.5 ZM409 602 q0 -29 -21.5 -50.5 q-21.5 -21.5 -50.5 -21.5 q-30 0 -52 21.5 q-22 21.5 -22 51.5 q0 30 21.5 50.5 q21.5 20.5 51.5 20.5 q30 0 51.5 -21 q21.5 -21 21.5 -51 ZM217 602 q0 -29 -21.5 -50.5 q-21.5 -21.5 -50.5 -21.5 q-30 0 -52 21.5 q-22 21.5 -22 51.5 q0 30 21.5 50.5 q21.5 20.5 51.5 20.5 q30 0 51.5 -21 q21.5 -21 21.5 -51 Z" /><glyph glyph-name="divide" unicode="÷" d="M302.5 562.5 q21.5 -21.5 21.5 -52.5 q0 -31 -21.5 -52.5 q-21.5 -21.5 -52.5 -21.5 q-31 0 -52.5 21.5 q-21.5 21.5 -21.5 52.5 q0 31 21.5 52.5 q21.5 21.5 52.5 21.5 q31 0 52.5 -21.5 ZM467 280 l-434 0 l0 120 l434 0 l0 -120 ZM302.5 222.5 q21.5 -21.5 21.5 -52.5 q0 -31 -21.5 -52.5 q-21.5 -21.5 -52.5 -21.5 q-31 0 -52.5 21.5 q-21.5 21.5 -21.5 52.5 q0 31 21.5 52.5 q21.5 21.5 52.5 21.5 q31 0 52.5 -21.5 Z" /><glyph glyph-name="oslash" unicode="ø" d="M461 472 l-50 -72 q50 -68 50 -171 q0 -106 -57.5 -172.5 q-57.5 -66.5 -162.5 -66.5 q-53 0 -100 21 l-47 -67 l-67 48 l50 73 q-50 68 -50 167 q0 105 56.5 175 q56.5 70 158.5 70 q57 0 105 -24 l46 66 l68 -47 ZM293 233 q0 38 -11 75.5 q-11 37.5 -39 37.5 q-27 0 -37.5 -37.5 q-10.5 -37.5 -10.5 -75.5 q0 -38 10.5 -75 q10.5 -37 38.5 -37 q27 0 38 37.5 q11 37.5 11 74.5 Z" /><glyph glyph-name="ugrave" unicode="ù" d="M459 467 l0 -287 q0 -50 -14.5 -85 q-14.5 -35 -52.5 -62 q-61 -43 -142 -43 q-81 0 -142 43 q-38 27 -53 62 q-15 35 -15 85 l0 287 l173 0 l0 -274 q0 -18 1.5 -28.5 q1.5 -10.5 10.5 -20 q9 -9.5 25 -9.5 q17 0 25.5 11.5 q8.5 11.5 9.5 22 q1 10.5 1 29.5 q0 4 0 6 l0 263 l173 0 ZM294 530 l-100 0 l-87 148 l139 0 l48 -148 Z" /><glyph glyph-name="uacute" unicode="ú" d="M459 467 l0 -287 q0 -50 -14.5 -85 q-14.5 -35 -52.5 -62 q-61 -43 -142 -43 q-81 0 -142 43 q-38 27 -53 62 q-15 35 -15 85 l0 287 l173 0 l0 -274 q0 -18 1.5 -28.5 q1.5 -10.5 10.5 -20 q9 -9.5 25 -9.5 q17 0 25.5 11.5 q8.5 11.5 9.5 22 q1 10.5 1 29.5 q0 4 0 6 l0 263 l173 0 ZM389 678 l-88 -148 l-99 0 l47 148 l140 0 Z" /><glyph glyph-name="ucircumflex" unicode="û" d="M459 467 l0 -287 q0 -50 -14.5 -85 q-14.5 -35 -52.5 -62 q-61 -43 -142 -43 q-81 0 -142 43 q-38 27 -53 62 q-15 35 -15 85 l0 287 l173 0 l0 -274 q0 -18 1.5 -28.5 q1.5 -10.5 10.5 -20 q9 -9.5 25 -9.5 q17 0 25.5 11.5 q8.5 11.5 9.5 22 q1 10.5 1 29.5 q0 4 0 6 l0 263 l173 0 ZM259 690 l129 -117 l-58 -63 l-74 66 l-80 -70 l-60 67 l143 117 Z" /><glyph glyph-name="udieresis" unicode="ü" d="M459 467 l0 -287 q0 -50 -14.5 -85 q-14.5 -35 -52.5 -62 q-61 -43 -142 -43 q-81 0 -142 43 q-38 27 -53 62 q-15 35 -15 85 l0 287 l173 0 l0 -274 q0 -18 1.5 -28.5 q1.5 -10.5 10.5 -20 q9 -9.5 25 -9.5 q17 0 25.5 11.5 q8.5 11.5 9.5 22 q1 10.5 1 29.5 q0 4 0 6 l0 263 l173 0 ZM422 602 q0 -29 -21.5 -50.5 q-21.5 -21.5 -50.5 -21.5 q-30 0 -52 21.5 q-22 21.5 -22 51.5 q0 30 21.5 50.5 q21.5 20.5 51.5 20.5 q30 0 51.5 -21 q21.5 -21 21.5 -51 ZM230 602 q0 -29 -21.5 -50.5 q-21.5 -21.5 -50.5 -21.5 q-30 0 -52 21.5 q-22 21.5 -22 51.5 q0 30 21.5 50.5 q21.5 20.5 51.5 20.5 q30 0 51.5 -21 q21.5 -21 21.5 -51 Z" /><glyph glyph-name="yacute" unicode="ý" d="M456 467 l-221 -682 l-178 0 l82 234 l-139 448 l174 0 q48 -190 55 -265 q19 128 28 164 l26 101 l173 0 ZM369 678 l-88 -148 l-99 0 l47 148 l140 0 Z" /><glyph glyph-name="thorn" unicode="þ" d="M213 729 l0 -262 q0 -22 -4 -66 q20 38 44.5 57 q24.5 19 62.5 19 q42 0 73.5 -24 q31.5 -24 47.5 -63 q16 -39 23.5 -78 q7.5 -39 7.5 -78 q0 -39 -6.5 -77.5 q-6.5 -38.5 -22 -78 q-15.5 -39.5 -46 -64 q-30.5 -24.5 -72.5 -24.5 q-38 0 -63 18.5 q-25 18.5 -49 54.5 q4 -46 4 -71 l0 -207 l-173 0 l0 944 l173 0 ZM289 239 q0 95 -41 95 q-40 0 -40 -97 q0 -101 39 -101 q42 0 42 103 Z" /><glyph glyph-name="ydieresis" unicode="ÿ" d="M456 467 l-221 -682 l-178 0 l82 234 l-139 448 l174 0 q48 -190 55 -265 q19 128 28 164 l26 101 l173 0 ZM403 602 q0 -29 -21.5 -50.5 q-21.5 -21.5 -50.5 -21.5 q-30 0 -52 21.5 q-22 21.5 -22 51.5 q0 30 21.5 50.5 q21.5 20.5 51.5 20.5 q30 0 51.5 -21 q21.5 -21 21.5 -51 ZM211 602 q0 -29 -21.5 -50.5 q-21.5 -21.5 -50.5 -21.5 q-30 0 -52 21.5 q-22 21.5 -22 51.5 q0 30 21.5 50.5 q21.5 20.5 51.5 20.5 q30 0 51.5 -21 q21.5 -21 21.5 -51 Z" /><glyph glyph-name="Amacron" unicode="&#x100;" d="M527 0 l-186 0 l-14 85 l-121 0 l-15 -85 l-186 0 l161 667 l220 0 l141 -667 ZM230 227 l76 0 q-23 155 -34 280 q-2 -15 -5.5 -47 q-3.5 -32 -5.5 -47 q-15 -103 -31 -186 ZM445 743 l-340 0 l0 94 l340 0 l0 -94 Z" /><glyph glyph-name="amacron" unicode="&#x101;" d="M457 0 l-174 0 q1 13 3 39.5 q2 26.5 3 39.5 q-45 -89 -120 -89 q-42 0 -71.5 25 q-29.5 25 -44 65.5 q-14.5 40.5 -20.5 78.5 q-6 38 -6 77 q0 40 6.5 78 q6.5 38 21.5 76.5 q15 38.5 45.5 62.5 q30.5 24 72.5 24 q73 0 112 -84 q-1 8 -2 34 q-1 26 -3 40 l177 0 l0 -467 ZM281 254 q0 80 -36 80 q-44 0 -44 -117 q0 -84 39 -84 q7 0 13.5 3 q6.5 3 10.5 9 q4 6 7 12 q3 6 5 16.5 q2 10.5 3 17 q1 6.5 1.5 18.5 q0.5 12 0.5 17 q0 5 0 16 q0 11 0 12 ZM430 553 l-340 0 l0 94 l340 0 l0 -94 Z" /><glyph glyph-name="Abreve" unicode="&#x102;" d="M527 0 l-186 0 l-14 85 l-121 0 l-15 -85 l-186 0 l161 667 l220 0 l141 -667 ZM230 227 l76 0 q-23 155 -34 280 q-2 -15 -5.5 -47 q-3.5 -32 -5.5 -47 q-15 -103 -31 -186 ZM357 867 l69 0 q-6 -69 -48.5 -109 q-42.5 -40 -111.5 -40 q-69 0 -111.5 40 q-42.5 40 -48.5 109 l69 0 q13 -31 34 -42 q21 -11 57 -11 q36 0 57 11 q21 11 34 42 Z" /><glyph glyph-name="abreve" unicode="&#x103;" d="M457 0 l-174 0 q1 13 3 39.5 q2 26.5 3 39.5 q-45 -89 -120 -89 q-42 0 -71.5 25 q-29.5 25 -44 65.5 q-14.5 40.5 -20.5 78.5 q-6 38 -6 77 q0 40 6.5 78 q6.5 38 21.5 76.5 q15 38.5 45.5 62.5 q30.5 24 72.5 24 q73 0 112 -84 q-1 8 -2 34 q-1 26 -3 40 l177 0 l0 -467 ZM281 254 q0 80 -36 80 q-44 0 -44 -117 q0 -84 39 -84 q7 0 13.5 3 q6.5 3 10.5 9 q4 6 7 12 q3 6 5 16.5 q2 10.5 3 17 q1 6.5 1.5 18.5 q0.5 12 0.5 17 q0 5 0 16 q0 11 0 12 ZM340 669 l69 0 q-6 -69 -48.5 -109 q-42.5 -40 -111.5 -40 q-69 0 -111.5 40 q-42.5 40 -48.5 109 l69 0 q13 -31 34 -42 q21 -11 57 -11 q36 0 57 11 q21 11 34 42 Z" /><glyph glyph-name="Aogonek" unicode="&#x104;" d="M166 667 l220 0 l141 -667 l-58 0 q-28 -38 -28 -66 q0 -19 11 -28 q10 -9 29 -9 q16 0 34 9 l-8 -77 q-34 -12 -64 -12 q-42 0 -68 19 q-30 22 -30 61 q0 29 19 58 q15 23 40 45 l-63 0 l-14 85 l-121 0 l-15 -85 l-186 0 l161 667 ZM230 227 l76 0 q-13 79 -20 144 q-11 111 -14 136 q-8 -74 -18 -139 q-10 -69 -24 -141 Z" /><glyph glyph-name="aogonek" unicode="&#x105;" d="M280 467 l177 0 l0 -467 l-54 0 q-24 -36 -24 -65 q0 -16 10 -25 q10 -9 29 -9 q16 0 32 9 l-8 -73 q-28 -12 -57 -12 q-51 0 -78 24 q-22 20 -22 54 q0 28 17 55 q13 21 34 42 l-53 0 l6 79 q-17 -35 -39 -56 q-34 -33 -80 -33 q-50 0 -84 37 q-59 65 -59 214 q0 63 16.5 118 q16.5 55 45.5 84 q34 34 83 34 q47 0 80 -34 q21 -23 33 -50 l-5 74 ZM201 230 l0 -13 q0 -57 18 -75 q8 -9 21 -9 q10 0 20 8 q21 20 21 82 l0 31 q0 58 -17 73 q-9 7 -18 7 q-12 0 -23 -9 q-22 -21 -22 -95 Z" /><glyph glyph-name="Cacute" unicode="&#x106;" d="M422 205 l-11 -193 q-55 -24 -107 -24 q-69 0 -123 29.5 q-54 29.5 -86 79 q-32 49.5 -48.5 109 q-16.5 59.5 -16.5 125.5 q0 95 31 172 q31 77 99.5 126.5 q68.5 49.5 164.5 49.5 q49 0 89 -17 l0 -190 q-38 40 -83 40 q-44 0 -72 -30 q-28 -30 -36.5 -67 q-8.5 -37 -8.5 -81 q0 -43 8.5 -78.5 q8.5 -35.5 35.5 -64.5 q27 -29 70 -29 q46 0 94 43 ZM454 868 l-88 -148 l-99 0 l47 148 l140 0 Z" /><glyph glyph-name="cacute" unicode="&#x107;" d="M283 152 l0 -159 q-24 -3 -47 -3 q-98 0 -153.5 73 q-55.5 73 -55.5 173 q0 100 61.5 170.5 q61.5 70.5 159.5 70.5 q11 0 35 -2 l0 -152 q-77 -5 -77 -84 q0 -32 17.5 -59.5 q17.5 -27.5 47.5 -27.5 l12 0 ZM344 678 l-88 -148 l-99 0 l47 148 l140 0 Z" /><glyph glyph-name="Ccircumflex" unicode="&#x108;" d="M422 205 l-11 -193 q-55 -24 -107 -24 q-69 0 -123 29.5 q-54 29.5 -86 79 q-32 49.5 -48.5 109 q-16.5 59.5 -16.5 125.5 q0 95 31 172 q31 77 99.5 126.5 q68.5 49.5 164.5 49.5 q49 0 89 -17 l0 -190 q-38 40 -83 40 q-44 0 -72 -30 q-28 -30 -36.5 -67 q-8.5 -37 -8.5 -81 q0 -43 8.5 -78.5 q8.5 -35.5 35.5 -64.5 q27 -29 70 -29 q46 0 94 43 ZM332 870 l137 -98 l-57 -66 l-83 56 l-82 -58 l-61 66 l146 100 Z" /><glyph glyph-name="ccircumflex" unicode="&#x109;" d="M283 152 l0 -159 q-24 -3 -47 -3 q-98 0 -153.5 73 q-55.5 73 -55.5 173 q0 100 61.5 170.5 q61.5 70.5 159.5 70.5 q11 0 35 -2 l0 -152 q-77 -5 -77 -84 q0 -32 17.5 -59.5 q17.5 -27.5 47.5 -27.5 l12 0 ZM226 690 l129 -117 l-58 -63 l-74 66 l-80 -70 l-60 67 l143 117 Z" /><glyph glyph-name="Cdotaccent" unicode="&#x10a;" d="M422 205 l-11 -193 q-55 -24 -107 -24 q-69 0 -123 29.5 q-54 29.5 -86 79 q-32 49.5 -48.5 109 q-16.5 59.5 -16.5 125.5 q0 95 31 172 q31 77 99.5 126.5 q68.5 49.5 164.5 49.5 q49 0 89 -17 l0 -190 q-38 40 -83 40 q-44 0 -72 -30 q-28 -30 -36.5 -67 q-8.5 -37 -8.5 -81 q0 -43 8.5 -78.5 q8.5 -35.5 35.5 -64.5 q27 -29 70 -29 q46 0 94 43 ZM378 848.5 q22 -22.5 22 -53.5 q0 -31 -22 -53 q-22 -22 -53 -22 q-32 0 -54.5 22 q-22.5 22 -22.5 54 q0 31 22 53 q22 22 54 22 q32 0 54 -22.5 Z" /><glyph glyph-name="cdotaccent" unicode="&#x10b;" d="M283 152 l0 -159 q-24 -3 -47 -3 q-98 0 -153.5 73 q-55.5 73 -55.5 173 q0 100 61.5 170.5 q61.5 70.5 159.5 70.5 q11 0 35 -2 l0 -152 q-77 -5 -77 -84 q0 -32 17.5 -59.5 q17.5 -27.5 47.5 -27.5 l12 0 ZM278.5 658.5 q22.5 -22.5 22.5 -53.5 q0 -31 -22 -53 q-22 -22 -53 -22 q-32 0 -54.5 22 q-22.5 22 -22.5 54 q0 31 22 53 q22 22 54 22 q31 0 53.5 -22.5 Z" /><glyph glyph-name="Ccaron" unicode="&#x10c;" d="M422 205 l-11 -193 q-55 -24 -107 -24 q-69 0 -123 29.5 q-54 29.5 -86 79 q-32 49.5 -48.5 109 q-16.5 59.5 -16.5 125.5 q0 95 31 172 q31 77 99.5 126.5 q68.5 49.5 164.5 49.5 q49 0 89 -17 l0 -190 q-38 40 -83 40 q-44 0 -72 -30 q-28 -30 -36.5 -67 q-8.5 -37 -8.5 -81 q0 -43 8.5 -78.5 q8.5 -35.5 35.5 -64.5 q27 -29 70 -29 q46 0 94 43 ZM474 802 l-149 -98 l-134 100 l61 69 l80 -56 l85 54 l57 -69 Z" /><glyph glyph-name="ccaron" unicode="&#x10d;" d="M283 152 l0 -159 q-24 -3 -47 -3 q-98 0 -153.5 73 q-55.5 73 -55.5 173 q0 100 61.5 170.5 q61.5 70.5 159.5 70.5 q11 0 35 -2 l0 -152 q-77 -5 -77 -84 q0 -32 17.5 -59.5 q17.5 -27.5 47.5 -27.5 l12 0 ZM355 623 l-138 -117 l-134 117 l60 67 l80 -70 l74 66 l58 -63 Z" /><glyph glyph-name="Dcaron" unicode="&#x10e;" d="M47 667 l155 0 q148 0 226.5 -92 q78.5 -92 78.5 -242 q0 -124 -46 -205 q-39 -71 -99 -99.5 q-60 -28.5 -147 -28.5 l-168 0 l0 667 ZM227 500 l0 -339 q96 3 96 167 q0 28 -3.5 54 q-3.5 26 -13 54.5 q-9.5 28.5 -30 46 q-20.5 17.5 -49.5 17.5 ZM394 802 l-149 -98 l-134 100 l61 69 l80 -56 l85 54 l57 -69 Z" /><glyph glyph-name="dcaron" unicode="&#x10f;" d="M457 0 l-177 0 l0 20 q0 1 3 43 q-23 -36 -46.5 -54.5 q-23.5 -18.5 -59.5 -18.5 q-44 0 -75 23 q-31 23 -46.5 61 q-15.5 38 -22 76 q-6.5 38 -6.5 79 q0 42 6 80.5 q6 38.5 20.5 78.5 q14.5 40 46 64.5 q31.5 24.5 75.5 24.5 q70 0 111 -78 l-3 75 l0 255 l174 0 l0 -729 ZM289 238 q0 95 -40 95 q-43 0 -43 -99 q0 -95 43 -95 q40 0 40 99 ZM698 667 l-92 -221 l-103 0 l47 221 l148 0 Z" /><glyph glyph-name="Dcroat" unicode="&#x110;" d="M47 667 l156 0 q148 0 227 -94 q77 -91 77 -237 q0 -174 -87 -264 q-70 -72 -205 -72 l-168 0 l0 290 l-40 0 l0 103 l40 0 l0 274 ZM227 290 l0 -129 q96 6 96 166 q0 97 -35 143 q-23 30 -56 30 l-5 0 l0 -107 l53 0 l0 -103 l-53 0 Z" /><glyph glyph-name="dcroat" unicode="&#x111;" d="M457 499 l0 -499 l-177 0 l0 20 l3 43 q-21 -35 -42 -52 q-29 -21 -67 -21 q-52 0 -88 37 q-59 60 -59 180 q0 132 60 192 q36 36 85 36 q40 0 71 -23 q29 -21 43 -55 q-2 64 -3 75 l0 67 l-120 0 l0 105 l121 0 l0 125 l173 0 l0 -125 l61 0 l0 -105 l-61 0 ZM250 307 q-15 0 -25 -12 q-19 -22 -19 -85 q0 -53 20 -72 q10 -9 23 -9 q13 0 21 9 q19 20 19 79 q0 61 -19 81 q-9 9 -20 9 Z" /><glyph glyph-name="Emacron" unicode="&#x112;" d="M381 0 l-334 0 l0 667 l334 0 l0 -157 l-154 0 l0 -97 l138 0 l0 -151 l-138 0 l0 -102 l154 0 l0 -160 ZM385 743 l-340 0 l0 94 l340 0 l0 -94 Z" /><glyph glyph-name="emacron" unicode="&#x113;" d="M279 158 l169 -1 q-18 -81 -72 -124 q-54 -43 -136 -43 q-104 0 -158.5 64.5 q-54.5 64.5 -54.5 170.5 q0 105 58 178 q58 73 160 73 q102 0 156 -71 q54 -71 54 -176 q0 -5 -0.5 -16 q-0.5 -11 -0.5 -16 l-254 0 q0 -72 40 -72 q32 0 39 33 ZM202 290 l81 0 q-2 59 -41 59 q-38 0 -40 -59 ZM411 553 l-340 0 l0 94 l340 0 l0 -94 Z" /><glyph glyph-name="Edotaccent" unicode="&#x116;" d="M381 0 l-334 0 l0 667 l334 0 l0 -157 l-154 0 l0 -97 l138 0 l0 -151 l-138 0 l0 -102 l154 0 l0 -160 ZM268.5 848.5 q22.5 -22.5 22.5 -53.5 q0 -31 -22 -53 q-22 -22 -53 -22 q-32 0 -54.5 22 q-22.5 22 -22.5 54 q0 31 22 53 q22 22 54 22 q31 0 53.5 -22.5 Z" /><glyph glyph-name="edotaccent" unicode="&#x117;" d="M279 158 l169 -1 q-18 -81 -72 -124 q-54 -43 -136 -43 q-104 0 -158.5 64.5 q-54.5 64.5 -54.5 170.5 q0 105 58 178 q58 73 160 73 q102 0 156 -71 q54 -71 54 -176 q0 -5 -0.5 -16 q-0.5 -11 -0.5 -16 l-254 0 q0 -72 40 -72 q32 0 39 33 ZM202 290 l81 0 q-2 59 -41 59 q-38 0 -40 -59 ZM294.5 658.5 q22.5 -22.5 22.5 -53.5 q0 -31 -22 -53 q-22 -22 -53 -22 q-32 0 -54.5 22 q-22.5 22 -22.5 54 q0 31 22 53 q22 22 54 22 q31 0 53.5 -22.5 Z" /><glyph glyph-name="Eogonek" unicode="&#x118;" d="M47 667 l334 0 l0 -157 l-154 0 l0 -97 l138 0 l0 -151 l-138 0 l0 -102 l154 0 l0 -160 l-56 0 q-28 -38 -28 -66 q0 -19 11 -28 q10 -9 29 -9 q16 0 34 9 l-8 -77 q-34 -12 -64 -12 q-42 0 -68 19 q-30 22 -30 61 q0 29 19 58 q15 23 40 45 l-213 0 l0 667 Z" /><glyph glyph-name="eogonek" unicode="&#x119;" d="M279 158 l169 0 q-14 -80 -79 -131 q-9 -7 -33.5 -23.5 q-24.5 -16.5 -34.5 -26.5 q-21 -19 -21 -42 q0 -17 10 -25 q9 -9 26 -9 q17 0 35 9 l-8 -73 q-28 -12 -61 -12 q-45 0 -68 20 q-28 23 -28 62 q0 48 50 83 q-88 0 -144 54 q-65 63 -65 181 q0 124 75 196 q56 55 142 55 q90 0 144 -56 q67 -71 67 -194 q0 -19 -1 -29 l-254 0 q0 -45 16 -62 q10 -10 24 -10 q16 0 27 11 q9 9 12 22 ZM202 290 l81 0 q0 31 -15 47 q-11 12 -26 12 q-14 0 -24 -10 q-16 -16 -16 -49 Z" /><glyph glyph-name="Ecaron" unicode="&#x11a;" d="M381 0 l-334 0 l0 667 l334 0 l0 -157 l-154 0 l0 -97 l138 0 l0 -151 l-138 0 l0 -102 l154 0 l0 -160 ZM364 802 l-149 -98 l-134 100 l61 69 l80 -56 l85 54 l57 -69 Z" /><glyph glyph-name="ecaron" unicode="&#x11b;" d="M279 158 l169 -1 q-18 -81 -72 -124 q-54 -43 -136 -43 q-104 0 -158.5 64.5 q-54.5 64.5 -54.5 170.5 q0 105 58 178 q58 73 160 73 q102 0 156 -71 q54 -71 54 -176 q0 -5 -0.5 -16 q-0.5 -11 -0.5 -16 l-254 0 q0 -72 40 -72 q32 0 39 33 ZM202 290 l81 0 q-2 59 -41 59 q-38 0 -40 -59 ZM385 623 l-138 -117 l-134 117 l60 67 l80 -70 l74 66 l58 -63 Z" /><glyph glyph-name="Gcircumflex" unicode="&#x11c;" d="M530 385 l0 -27 q0 -170 -44 -255 q-29 -56 -82 -85.5 q-53 -29.5 -117 -29.5 q-56 0 -100.5 20 q-44.5 20 -73.5 53 q-29 33 -48 78 q-19 45 -27 92 q-8 47 -8 99 q0 66 13.5 124.5 q13.5 58.5 42 110.5 q28.5 52 80 83 q51.5 31 121.5 31 q157 0 229 -165 l-175 -64 q-3 26 -16 47 q-13 21 -37 21 q-74 0 -74 -204 q0 -165 68 -165 q34 0 48.5 29.5 q14.5 29.5 14.5 66.5 l-66 0 l0 140 l251 0 ZM307 870 l137 -98 l-57 -66 l-83 56 l-82 -58 l-61 66 l146 100 Z" /><glyph glyph-name="gcircumflex" unicode="&#x11d;" d="M453 467 l0 -479 q0 -80 -35 -128 q-56 -75 -175 -75 q-186 0 -210 169 l177 0 q0 -16 10 -27 q10 -11 26 -11 q41 0 41 66 l0 72 q-45 -61 -109 -61 q-55 0 -91 42.5 q-36 42.5 -48 93.5 q-12 51 -12 105 q0 38 7.5 77 q7.5 39 23.5 78 q16 39 46.5 63.5 q30.5 24.5 71.5 24.5 q57 0 105 -71 l-3 61 l175 0 ZM285 235 q0 101 -38 101 q-41 0 -41 -98 q0 -102 41 -102 q38 0 38 99 ZM253 690 l129 -117 l-58 -63 l-74 66 l-80 -70 l-60 67 l143 117 Z" /><glyph glyph-name="Gbreve" unicode="&#x11e;" d="M530 385 l0 -27 q0 -170 -44 -255 q-29 -56 -82 -85.5 q-53 -29.5 -117 -29.5 q-56 0 -100.5 20 q-44.5 20 -73.5 53 q-29 33 -48 78 q-19 45 -27 92 q-8 47 -8 99 q0 66 13.5 124.5 q13.5 58.5 42 110.5 q28.5 52 80 83 q51.5 31 121.5 31 q157 0 229 -165 l-175 -64 q-3 26 -16 47 q-13 21 -37 21 q-74 0 -74 -204 q0 -165 68 -165 q34 0 48.5 29.5 q14.5 29.5 14.5 66.5 l-66 0 l0 140 l251 0 ZM381 867 l69 0 q-6 -69 -48.5 -109 q-42.5 -40 -111.5 -40 q-69 0 -111.5 40 q-42.5 40 -48.5 109 l69 0 q13 -31 34 -42 q21 -11 57 -11 q36 0 57 11 q21 11 34 42 Z" /><glyph glyph-name="gbreve" unicode="&#x11f;" d="M453 467 l0 -479 q0 -80 -35 -128 q-56 -75 -175 -75 q-186 0 -210 169 l177 0 q0 -16 10 -27 q10 -11 26 -11 q41 0 41 66 l0 72 q-45 -61 -109 -61 q-55 0 -91 42.5 q-36 42.5 -48 93.5 q-12 51 -12 105 q0 38 7.5 77 q7.5 39 23.5 78 q16 39 46.5 63.5 q30.5 24.5 71.5 24.5 q57 0 105 -71 l-3 61 l175 0 ZM285 235 q0 101 -38 101 q-41 0 -41 -98 q0 -102 41 -102 q38 0 38 99 ZM348 669 l69 0 q-6 -69 -48.5 -109 q-42.5 -40 -111.5 -40 q-69 0 -111.5 40 q-42.5 40 -48.5 109 l69 0 q13 -31 34 -42 q21 -11 57 -11 q36 0 57 11 q21 11 34 42 Z" /><glyph glyph-name="Gdotaccent" unicode="&#x120;" d="M530 385 l0 -27 q0 -170 -44 -255 q-29 -56 -82 -85.5 q-53 -29.5 -117 -29.5 q-56 0 -100.5 20 q-44.5 20 -73.5 53 q-29 33 -48 78 q-19 45 -27 92 q-8 47 -8 99 q0 66 13.5 124.5 q13.5 58.5 42 110.5 q28.5 52 80 83 q51.5 31 121.5 31 q157 0 229 -165 l-175 -64 q-3 26 -16 47 q-13 21 -37 21 q-74 0 -74 -204 q0 -165 68 -165 q34 0 48.5 29.5 q14.5 29.5 14.5 66.5 l-66 0 l0 140 l251 0 ZM340 848.5 q22 -22.5 22 -53.5 q0 -31 -22 -53 q-22 -22 -53 -22 q-32 0 -54.5 22 q-22.5 22 -22.5 54 q0 31 22 53 q22 22 54 22 q32 0 54 -22.5 Z" /><glyph glyph-name="gdotaccent" unicode="&#x121;" d="M453 467 l0 -479 q0 -80 -35 -128 q-56 -75 -175 -75 q-186 0 -210 169 l177 0 q0 -16 10 -27 q10 -11 26 -11 q41 0 41 66 l0 72 q-45 -61 -109 -61 q-55 0 -91 42.5 q-36 42.5 -48 93.5 q-12 51 -12 105 q0 38 7.5 77 q7.5 39 23.5 78 q16 39 46.5 63.5 q30.5 24.5 71.5 24.5 q57 0 105 -71 l-3 61 l175 0 ZM285 235 q0 101 -38 101 q-41 0 -41 -98 q0 -102 41 -102 q38 0 38 99 ZM288.5 658.5 q22.5 -22.5 22.5 -53.5 q0 -31 -22 -53 q-22 -22 -53 -22 q-32 0 -54.5 22 q-22.5 22 -22.5 54 q0 31 22 53 q22 22 54 22 q31 0 53.5 -22.5 Z" /><glyph glyph-name="Gcommaaccent" unicode="&#x122;" d="M530 385 l0 -27 q0 -170 -44 -255 q-29 -56 -82 -85.5 q-53 -29.5 -117 -29.5 q-56 0 -100.5 20 q-44.5 20 -73.5 53 q-29 33 -48 78 q-19 45 -27 92 q-8 47 -8 99 q0 66 13.5 124.5 q13.5 58.5 42 110.5 q28.5 52 80 83 q51.5 31 121.5 31 q157 0 229 -165 l-175 -64 q-3 26 -16 47 q-13 21 -37 21 q-74 0 -74 -204 q0 -165 68 -165 q34 0 48.5 29.5 q14.5 29.5 14.5 66.5 l-66 0 l0 140 l251 0 ZM368 -45 l-80 -189 l-102 0 l35 189 l147 0 Z" /><glyph glyph-name="gcommaaccent" unicode="&#x123;" d="M453 467 l0 -479 q0 -80 -35 -128 q-56 -75 -175 -75 q-186 0 -210 169 l177 0 q0 -16 10 -27 q10 -11 26 -11 q41 0 41 66 l0 72 q-45 -61 -109 -61 q-55 0 -91 42.5 q-36 42.5 -48 93.5 q-12 51 -12 105 q0 38 7.5 77 q7.5 39 23.5 78 q16 39 46.5 63.5 q30.5 24.5 71.5 24.5 q57 0 105 -71 l-3 61 l175 0 ZM285 235 q0 101 -38 101 q-41 0 -41 -98 q0 -102 41 -102 q38 0 38 99 ZM154 513 l80 189 l102 0 l-35 -189 l-147 0 Z" /><glyph glyph-name="Hcircumflex" unicode="&#x124;" d="M493 0 l-180 0 l0 268 l-86 0 l0 -268 l-180 0 l0 667 l180 0 l0 -236 l86 0 l0 236 l180 0 l0 -667 ZM277 870 l137 -98 l-57 -66 l-83 56 l-82 -58 l-61 66 l146 100 Z" /><glyph glyph-name="hcircumflex" unicode="&#x125;" d="M451 0 l-174 0 l0 247 q0 57 -27 57 q-37 0 -37 -69 l0 -235 l-173 0 l0 729 l173 0 l0 -261 q0 -30 -4 -90 q42 99 123 99 q62 0 90.5 -46.5 q28.5 -46.5 28.5 -112.5 l0 -318 ZM136 925 l129 -117 l-58 -63 l-74 66 l-80 -70 l-60 67 l143 117 Z" /><glyph glyph-name="Hbar" unicode="&#x126;" d="M47 0 l0 505 l-50 0 l0 121 l50 0 l0 41 l180 0 l0 -41 l86 0 l0 41 l180 0 l0 -41 l50 0 l0 -121 l-50 0 l0 -505 l-180 0 l0 268 l-86 0 l0 -268 l-180 0 ZM313 505 l-86 0 l0 -84 l86 0 l0 84 Z" /><glyph glyph-name="hbar" unicode="&#x127;" d="M482 0 l-174 0 l0 205 q0 57 -27 57 q-37 0 -37 -69 l0 -193 l-173 0 l0 499 l-61 0 l0 105 l61 0 l0 125 l173 0 l0 -125 l121 0 l0 -105 l-120 0 l-1 -57 q0 -14 -4 -106 q42 99 123 99 q62 0 90.5 -46.5 q28.5 -46.5 28.5 -112.5 l0 -276 Z" /><glyph glyph-name="Imacron" unicode="&#x12a;" d="M227 0 l-180 0 l0 667 l180 0 l0 -667 ZM307 743 l-340 0 l0 94 l340 0 l0 -94 Z" /><glyph glyph-name="imacron" unicode="&#x12b;" d="M213 0 l-173 0 l0 467 l173 0 l0 -467 ZM297 553 l-340 0 l0 94 l340 0 l0 -94 Z" /><glyph glyph-name="Iogonek" unicode="&#x12e;" d="M47 667 l180 0 l0 -667 q-28 -38 -28 -66 q0 -19 11 -28 q10 -9 29 -9 q16 0 34 9 l-8 -77 q-34 -12 -64 -12 q-42 0 -68 19 q-30 22 -30 61 q0 29 19 58 q15 23 40 45 l-115 0 l0 667 Z" /><glyph glyph-name="iogonek" unicode="&#x12f;" d="M40 467 l173 0 l0 -467 q-16 -12 -30 -31 q-15 -21 -15 -36 q0 -15 11 -24 q11 -8 27 -8 q15 0 33 9 l-8 -73 q-28 -12 -61 -12 q-42 0 -67 18 q-29 21 -29 58 q0 33 22 58 q18 21 46 41 l-102 0 l0 467 ZM56 541 q-30 30 -30 71 q0 41 30 71 q30 30 71 30 q41 0 71 -30 q30 -30 30 -71 q0 -41 -30 -71 q-30 -30 -71 -30 q-41 0 -71 30 Z" /><glyph glyph-name="Idotaccent" unicode="&#x130;" d="M227 0 l-180 0 l0 667 l180 0 l0 -667 ZM188.5 848.5 q22.5 -22.5 22.5 -53.5 q0 -31 -22 -53 q-22 -22 -53 -22 q-32 0 -54.5 22 q-22.5 22 -22.5 54 q0 31 22 53 q22 22 54 22 q31 0 53.5 -22.5 Z" /><glyph glyph-name="dotlessi" unicode="&#x131;" d="M213 0 l-173 0 l0 467 l173 0 l0 -467 Z" /><glyph glyph-name="Jcircumflex" unicode="&#x134;" d="M307 667 l0 -463 q0 -81 -22 -125 q-45 -91 -167 -91 q-57 0 -118 22 l0 186 q31 -39 72 -39 q55 0 55 82 l0 428 l180 0 ZM217 870 l137 -98 l-57 -66 l-83 56 l-82 -58 l-61 66 l146 100 Z" /><glyph glyph-name="jcircumflex" unicode="&#x135;" d="M214 -215 l-173 0 l-1 682 l174 0 l0 -682 ZM126 690 l129 -117 l-58 -63 l-74 66 l-80 -70 l-60 67 l143 117 Z" /><glyph glyph-name="Kcommaaccent" unicode="&#x136;" d="M536 0 l-194 0 l-120 319 l5 -319 l-180 0 l0 667 l180 0 l-5 -298 l106 298 l190 0 l-142 -322 l160 -345 ZM357 -45 l-80 -189 l-102 0 l35 189 l147 0 Z" /><glyph glyph-name="kcommaaccent" unicode="&#x137;" d="M495 0 l-199 0 q-10 26 -28 70.5 q-18 44.5 -31.5 81 q-13.5 36.5 -23.5 72.5 l0 -224 l-173 0 l0 729 l173 0 l0 -466 q10 32 23 65 q13 33 32 75 q19 42 28 64 l187 0 l-115 -215 l127 -252 ZM334 -45 l-80 -189 l-102 0 l35 189 l147 0 Z" /><glyph glyph-name="Lacute" unicode="&#x139;" d="M362 0 l-315 0 l0 667 l180 0 l0 -507 l135 0 l0 -160 ZM264 868 l-88 -148 l-99 0 l47 148 l140 0 Z" /><glyph glyph-name="lacute" unicode="&#x13a;" d="M213 0 l-173 0 l0 729 l173 0 l0 -729 ZM244 918 l-88 -148 l-99 0 l47 148 l140 0 Z" /><glyph glyph-name="Lcommaaccent" unicode="&#x13b;" d="M362 0 l-315 0 l0 667 l180 0 l0 -507 l135 0 l0 -160 ZM287 -45 l-80 -189 l-102 0 l35 189 l147 0 Z" /><glyph glyph-name="lcommaaccent" unicode="&#x13c;" d="M213 0 l-173 0 l0 729 l173 0 l0 -729 ZM204 -45 l-80 -189 l-102 0 l35 189 l147 0 Z" /><glyph glyph-name="Lcaron" unicode="&#x13d;" d="M362 0 l-315 0 l0 667 l180 0 l0 -507 l135 0 l0 -160 ZM463 667 l-90 -209 l-100 0 l46 209 l144 0 Z" /><glyph glyph-name="lcaron" unicode="&#x13e;" d="M213 0 l-173 0 l0 729 l173 0 l0 -729 ZM453 667 l-92 -221 l-103 0 l47 221 l148 0 Z" /><glyph glyph-name="Ldot" unicode="&#x13f;" d="M362 0 l-315 0 l0 667 l180 0 l0 -507 l135 0 l0 -160 ZM386.5 386.5 q22.5 -22.5 22.5 -53.5 q0 -31 -22 -53 q-22 -22 -53 -22 q-32 0 -54.5 22 q-22.5 22 -22.5 54 q0 31 22 53 q22 22 54 22 q31 0 53.5 -22.5 Z" /><glyph glyph-name="ldot" unicode="&#x140;" d="M213 0 l-173 0 l0 729 l173 0 l0 -729 ZM395 364 q0 -31 -22 -53 q-22 -22 -53 -22 q-32 0 -54.5 22 q-22.5 22 -22.5 54 q0 31 22 53 q22 22 54 22 q31 0 53.5 -22 q22.5 -22 22.5 -54 Z" /><glyph glyph-name="Lslash" unicode="&#x141;" d="M369 0 l-316 0 l0 217 l-53 -62 l0 121 l53 61 l0 330 l180 0 l0 -214 l89 96 l0 -124 l-89 -94 l0 -171 l136 0 l0 -160 Z" /><glyph glyph-name="lslash" unicode="&#x142;" d="M233 729 l0 -237 l47 46 l0 -112 l-47 -47 l0 -379 l-173 0 l0 243 l-47 -47 l0 113 l47 46 l0 374 l173 0 Z" /><glyph glyph-name="Nacute" unicode="&#x143;" d="M516 0 l-172 0 q-11 31 -35 93 q-24 62 -38 99.5 q-14 37.5 -32 91.5 q-18 54 -31 100 q11 -156 11 -214 l0 -170 l-172 0 l0 667 l172 0 l90 -234 q20 -51 55 -168 q-20 164 -20 246 l0 156 l172 0 l0 -667 ZM424 868 l-88 -148 l-99 0 l47 148 l140 0 Z" /><glyph glyph-name="nacute" unicode="&#x144;" d="M451 0 l-174 0 l0 247 q0 57 -27 57 q-37 0 -37 -69 l0 -235 l-173 0 l0 467 l173 0 q-2 -58 -4 -89 q42 99 123 99 q62 0 90.5 -46.5 q28.5 -46.5 28.5 -112.5 l0 -318 ZM394 678 l-88 -148 l-99 0 l47 148 l140 0 Z" /><glyph glyph-name="Ncommaaccent" unicode="&#x145;" d="M516 0 l-172 0 q-11 31 -35 93 q-24 62 -38 99.5 q-14 37.5 -32 91.5 q-18 54 -31 100 q11 -156 11 -214 l0 -170 l-172 0 l0 667 l172 0 l90 -234 q20 -51 55 -168 q-20 164 -20 246 l0 156 l172 0 l0 -667 ZM357 -45 l-80 -189 l-102 0 l35 189 l147 0 Z" /><glyph glyph-name="ncommaaccent" unicode="&#x146;" d="M451 0 l-174 0 l0 247 q0 57 -27 57 q-37 0 -37 -69 l0 -235 l-173 0 l0 467 l173 0 q-2 -58 -4 -89 q42 99 123 99 q62 0 90.5 -46.5 q28.5 -46.5 28.5 -112.5 l0 -318 ZM329 -45 l-80 -189 l-102 0 l35 189 l147 0 Z" /><glyph glyph-name="Ncaron" unicode="&#x147;" d="M516 0 l-172 0 q-11 31 -35 93 q-24 62 -38 99.5 q-14 37.5 -32 91.5 q-18 54 -31 100 q11 -156 11 -214 l0 -170 l-172 0 l0 667 l172 0 l90 -234 q20 -51 55 -168 q-20 164 -20 246 l0 156 l172 0 l0 -667 ZM434 802 l-149 -98 l-134 100 l61 69 l80 -56 l85 54 l57 -69 Z" /><glyph glyph-name="ncaron" unicode="&#x148;" d="M451 0 l-174 0 l0 247 q0 57 -27 57 q-37 0 -37 -69 l0 -235 l-173 0 l0 467 l173 0 q-2 -58 -4 -89 q42 99 123 99 q62 0 90.5 -46.5 q28.5 -46.5 28.5 -112.5 l0 -318 ZM395 623 l-138 -117 l-134 117 l60 67 l80 -70 l74 66 l58 -63 Z" /><glyph glyph-name="Omacron" unicode="&#x14c;" d="M537 340 q0 -63 -13.5 -121.5 q-13.5 -58.5 -41 -112 q-27.5 -53.5 -78 -86 q-50.5 -32.5 -117.5 -32.5 q-108 0 -182 89 q-75 91 -75 263 q0 62 15 120 q15 58 44 108 q29 50 80 80.5 q51 30.5 117 30.5 q53 0 96 -20.5 q43 -20.5 71 -54 q28 -33.5 47.5 -78.5 q19.5 -45 28 -91.5 q8.5 -46.5 8.5 -94.5 ZM350 333 q0 178 -65 178 q-22 0 -36.5 -20.5 q-14.5 -20.5 -21 -53 q-6.5 -32.5 -8.5 -56.5 q-2 -24 -2 -47 q0 -24 2 -47 q2 -23 7.5 -56 q5.5 -33 20 -53.5 q14.5 -20.5 36.5 -20.5 q22 0 36.5 20.5 q14.5 20.5 20.5 52.5 q6 32 8 56 q2 24 2 47 ZM454 743 l-340 0 l0 94 l340 0 l0 -94 Z" /><glyph glyph-name="omacron" unicode="&#x14d;" d="M461 229 q0 -106 -57.5 -172.5 q-57.5 -66.5 -162.5 -66.5 q-103 0 -158.5 68.5 q-55.5 68.5 -55.5 173.5 q0 105 56.5 175 q56.5 70 158.5 70 q106 0 162.5 -69.5 q56.5 -69.5 56.5 -178.5 ZM293 233 q0 38 -11 75.5 q-11 37.5 -39 37.5 q-27 0 -37.5 -37.5 q-10.5 -37.5 -10.5 -75.5 q0 -38 10.5 -75 q10.5 -37 38.5 -37 q27 0 38 37.5 q11 37.5 11 74.5 ZM414 553 l-340 0 l0 94 l340 0 l0 -94 Z" /><glyph glyph-name="Obreve" unicode="&#x14e;" d="M537 340 q0 -63 -13.5 -121.5 q-13.5 -58.5 -41 -112 q-27.5 -53.5 -78 -86 q-50.5 -32.5 -117.5 -32.5 q-108 0 -182 89 q-75 91 -75 263 q0 62 15 120 q15 58 44 108 q29 50 80 80.5 q51 30.5 117 30.5 q53 0 96 -20.5 q43 -20.5 71 -54 q28 -33.5 47.5 -78.5 q19.5 -45 28 -91.5 q8.5 -46.5 8.5 -94.5 ZM350 333 q0 178 -65 178 q-22 0 -36.5 -20.5 q-14.5 -20.5 -21 -53 q-6.5 -32.5 -8.5 -56.5 q-2 -24 -2 -47 q0 -24 2 -47 q2 -23 7.5 -56 q5.5 -33 20 -53.5 q14.5 -20.5 36.5 -20.5 q22 0 36.5 20.5 q14.5 20.5 20.5 52.5 q6 32 8 56 q2 24 2 47 ZM374 867 l69 0 q-6 -69 -48.5 -109 q-42.5 -40 -111.5 -40 q-69 0 -111.5 40 q-42.5 40 -48.5 109 l69 0 q13 -31 34 -42 q21 -11 57 -11 q36 0 57 11 q21 11 34 42 Z" /><glyph glyph-name="obreve" unicode="&#x14f;" d="M461 229 q0 -106 -57.5 -172.5 q-57.5 -66.5 -162.5 -66.5 q-103 0 -158.5 68.5 q-55.5 68.5 -55.5 173.5 q0 105 56.5 175 q56.5 70 158.5 70 q106 0 162.5 -69.5 q56.5 -69.5 56.5 -178.5 ZM293 233 q0 38 -11 75.5 q-11 37.5 -39 37.5 q-27 0 -37.5 -37.5 q-10.5 -37.5 -10.5 -75.5 q0 -38 10.5 -75 q10.5 -37 38.5 -37 q27 0 38 37.5 q11 37.5 11 74.5 ZM335 669 l69 0 q-6 -69 -48.5 -109 q-42.5 -40 -111.5 -40 q-69 0 -111.5 40 q-42.5 40 -48.5 109 l69 0 q13 -31 34 -42 q21 -11 57 -11 q36 0 57 11 q21 11 34 42 Z" /><glyph glyph-name="Ohungarumlaut" unicode="&#x150;" d="M537 340 q0 -63 -13.5 -121.5 q-13.5 -58.5 -41 -112 q-27.5 -53.5 -78 -86 q-50.5 -32.5 -117.5 -32.5 q-108 0 -182 89 q-75 91 -75 263 q0 62 15 120 q15 58 44 108 q29 50 80 80.5 q51 30.5 117 30.5 q53 0 96 -20.5 q43 -20.5 71 -54 q28 -33.5 47.5 -78.5 q19.5 -45 28 -91.5 q8.5 -46.5 8.5 -94.5 ZM350 333 q0 178 -65 178 q-22 0 -36.5 -20.5 q-14.5 -20.5 -21 -53 q-6.5 -32.5 -8.5 -56.5 q-2 -24 -2 -47 q0 -24 2 -47 q2 -23 7.5 -56 q5.5 -33 20 -53.5 q14.5 -20.5 36.5 -20.5 q22 0 36.5 20.5 q14.5 20.5 20.5 52.5 q6 32 8 56 q2 24 2 47 ZM484 868 l-88 -148 l-89 0 l47 148 l130 0 ZM317 868 l-88 -148 l-89 0 l47 148 l130 0 Z" /><glyph glyph-name="ohungarumlaut" unicode="&#x151;" d="M461 229 q0 -106 -57.5 -172.5 q-57.5 -66.5 -162.5 -66.5 q-103 0 -158.5 68.5 q-55.5 68.5 -55.5 173.5 q0 105 56.5 175 q56.5 70 158.5 70 q106 0 162.5 -69.5 q56.5 -69.5 56.5 -178.5 ZM293 233 q0 38 -11 75.5 q-11 37.5 -39 37.5 q-27 0 -37.5 -37.5 q-10.5 -37.5 -10.5 -75.5 q0 -38 10.5 -75 q10.5 -37 38.5 -37 q27 0 38 37.5 q11 37.5 11 74.5 ZM439 678 l-88 -148 l-89 0 l47 148 l130 0 ZM272 678 l-88 -148 l-89 0 l47 148 l130 0 Z" /><glyph glyph-name="OE" unicode="&#x152;" d="M678 0 l-325 0 l0 49 q-36 -57 -103 -57 q-76 0 -130 56 q-90 93 -90 285 q0 192 93 285 q56 56 133 56 q67 0 97 -53 l0 46 l324 0 l0 -157 l-151 0 l0 -97 l136 0 l0 -151 l-136 0 l0 -102 l152 0 l0 -160 ZM217 326 q0 -121 35 -156 q14 -14 32 -14 q18 0 32 15 q33 36 33 167 q0 112 -27 152 q-14 21 -35 21 q-20 0 -34 -16 q-36 -42 -36 -169 Z" /><glyph glyph-name="oe" unicode="&#x153;" d="M538 157 l165 0 q-18 -80 -74 -123.5 q-56 -43.5 -135 -43.5 q-73 0 -128 43 q-48 -43 -113 -43 q-110 0 -168 68 q-58 68 -58 179 q0 107 57.5 172.5 q57.5 65.5 163.5 66.5 q74 0 126 -43 q53 43 123 43 q100 -1 157 -69 q57 -68 57 -170 q0 -6 -0.5 -19 q-0.5 -13 -0.5 -21 l-257 0 q3 -78 46 -78 q30 0 39 38 ZM453 290 l87 0 q-8 59 -45 59 q-34 0 -42 -59 ZM294 234 q0 15 -2 31.5 q-2 16.5 -6.5 36.5 q-4.5 20 -15.5 32.5 q-11 12.5 -26 12.5 q-27 0 -37.5 -37.5 q-10.5 -37.5 -10.5 -75.5 q0 -15 2 -31.5 q2 -16.5 6.5 -36.5 q4.5 -20 15.5 -32.5 q11 -12.5 26 -12.5 q27 0 37.5 38.5 q10.5 38.5 10.5 74.5 Z" /><glyph glyph-name="Racute" unicode="&#x154;" d="M521 0 l-195 0 q-93 252 -102 277 q3 -44 3 -88 l0 -189 l-180 0 l0 667 l184 0 q84 0 139 -23 q58 -25 89 -79.5 q31 -54.5 31 -120.5 q0 -120 -103 -167 l134 -277 ZM227 358 l12 0 q33 0 52.5 25 q19.5 25 19.5 59 q0 75 -84 75 l0 -159 ZM384 868 l-88 -148 l-99 0 l47 148 l140 0 Z" /><glyph glyph-name="racute" unicode="&#x155;" d="M334 478 l0 -194 q-25 15 -48 15 q-34 0 -55 -27 q-18 -23 -18 -72 l0 -200 l-173 0 l0 467 l173 0 l-9 -91 q40 99 130 102 ZM324 678 l-88 -148 l-99 0 l47 148 l140 0 Z" /><glyph glyph-name="Rcommaaccent" unicode="&#x156;" d="M521 0 l-195 0 q-93 252 -102 277 q3 -44 3 -88 l0 -189 l-180 0 l0 667 l184 0 q84 0 139 -23 q58 -25 89 -79.5 q31 -54.5 31 -120.5 q0 -120 -103 -167 l134 -277 ZM227 358 l12 0 q33 0 52.5 25 q19.5 25 19.5 59 q0 75 -84 75 l0 -159 ZM332 -45 l-80 -189 l-102 0 l35 189 l147 0 Z" /><glyph glyph-name="rcommaaccent" unicode="&#x157;" d="M334 478 l0 -194 q-25 15 -48 15 q-34 0 -55 -27 q-18 -23 -18 -72 l0 -200 l-173 0 l0 467 l173 0 l-9 -91 q40 99 130 102 ZM284 -45 l-80 -189 l-102 0 l35 189 l147 0 Z" /><glyph glyph-name="Rcaron" unicode="&#x158;" d="M521 0 l-195 0 q-93 252 -102 277 q3 -44 3 -88 l0 -189 l-180 0 l0 667 l184 0 q84 0 139 -23 q58 -25 89 -79.5 q31 -54.5 31 -120.5 q0 -120 -103 -167 l134 -277 ZM227 358 l12 0 q33 0 52.5 25 q19.5 25 19.5 59 q0 75 -84 75 l0 -159 ZM394 802 l-149 -98 l-134 100 l61 69 l80 -56 l85 54 l57 -69 Z" /><glyph glyph-name="rcaron" unicode="&#x159;" d="M334 478 l0 -194 q-25 15 -48 15 q-34 0 -55 -27 q-18 -23 -18 -72 l0 -200 l-173 0 l0 467 l173 0 l-9 -91 q40 99 130 102 ZM325 623 l-138 -117 l-134 117 l60 67 l80 -70 l74 66 l58 -63 Z" /><glyph glyph-name="Sacute" unicode="&#x15a;" d="M362 645 l0 -204 q-48 73 -106 73 q-18 0 -32.5 -11 q-14.5 -11 -14.5 -29 q0 -18 17.5 -35.5 q17.5 -17.5 43 -35.5 q25.5 -18 51 -41 q25.5 -23 43 -61.5 q17.5 -38.5 17.5 -86.5 q0 -95 -59 -160.5 q-59 -65.5 -153 -65.5 q-67 0 -136 29 l0 209 q53 -73 114 -73 q21 0 37 11.5 q16 11.5 16 32.5 q0 19 -17.5 37.5 q-17.5 18.5 -42.5 37.5 q-25 19 -50 42 q-25 23 -42.5 61 q-17.5 38 -17.5 85 q0 89 57.5 154 q57.5 65 145.5 65 q64 0 129 -34 ZM374 868 l-88 -148 l-99 0 l47 148 l140 0 Z" /><glyph glyph-name="sacute" unicode="&#x15b;" d="M370 439 l-60 -127 q-41 41 -71 41 q-27 0 -27 -22 q0 -18 26 -32 q26 -14 56.5 -24.5 q30.5 -10.5 56.5 -41.5 q26 -31 26 -79 q0 -76 -55 -120 q-55 -44 -133 -44 q-75 0 -166 49 l63 129 q47 -49 87 -49 q13 0 23.5 6.5 q10.5 6.5 10.5 18.5 q0 15 -26.5 28 q-26.5 13 -57.5 24.5 q-31 11.5 -57.5 42.5 q-26.5 31 -26.5 78 q0 74 58 117 q58 43 134 43 q63 0 139 -38 ZM364 678 l-88 -148 l-99 0 l47 148 l140 0 Z" /><glyph glyph-name="Scircumflex" unicode="&#x15c;" d="M362 645 l0 -204 q-48 73 -106 73 q-18 0 -32.5 -11 q-14.5 -11 -14.5 -29 q0 -18 17.5 -35.5 q17.5 -17.5 43 -35.5 q25.5 -18 51 -41 q25.5 -23 43 -61.5 q17.5 -38.5 17.5 -86.5 q0 -95 -59 -160.5 q-59 -65.5 -153 -65.5 q-67 0 -136 29 l0 209 q53 -73 114 -73 q21 0 37 11.5 q16 11.5 16 32.5 q0 19 -17.5 37.5 q-17.5 18.5 -42.5 37.5 q-25 19 -50 42 q-25 23 -42.5 61 q-17.5 38 -17.5 85 q0 89 57.5 154 q57.5 65 145.5 65 q64 0 129 -34 ZM247 870 l137 -98 l-57 -66 l-83 56 l-82 -58 l-61 66 l146 100 Z" /><glyph glyph-name="scircumflex" unicode="&#x15d;" d="M370 439 l-60 -127 q-41 41 -71 41 q-27 0 -27 -22 q0 -18 26 -32 q26 -14 56.5 -24.5 q30.5 -10.5 56.5 -41.5 q26 -31 26 -79 q0 -76 -55 -120 q-55 -44 -133 -44 q-75 0 -166 49 l63 129 q47 -49 87 -49 q13 0 23.5 6.5 q10.5 6.5 10.5 18.5 q0 15 -26.5 28 q-26.5 13 -57.5 24.5 q-31 11.5 -57.5 42.5 q-26.5 31 -26.5 78 q0 74 58 117 q58 43 134 43 q63 0 139 -38 ZM240 690 l129 -117 l-58 -63 l-74 66 l-80 -70 l-60 67 l143 117 Z" /><glyph glyph-name="Scedilla" unicode="&#x15e;" d="M362 645 l0 -204 q-48 73 -106 73 q-18 0 -32.5 -11 q-14.5 -11 -14.5 -29 q0 -18 17.5 -35.5 q17.5 -17.5 43 -35.5 q25.5 -18 51 -41 q25.5 -23 43 -61.5 q17.5 -38.5 17.5 -86.5 q0 -95 -59 -160.5 q-59 -65.5 -153 -65.5 q-67 0 -136 29 l0 209 q53 -73 114 -73 q21 0 37 11.5 q16 11.5 16 32.5 q0 19 -17.5 37.5 q-17.5 18.5 -42.5 37.5 q-25 19 -50 42 q-25 23 -42.5 61 q-17.5 38 -17.5 85 q0 89 57.5 154 q57.5 65 145.5 65 q64 0 129 -34 ZM270 -113 l-124 -124 l-77 53 l108 137 l93 -66 Z" /><glyph glyph-name="scedilla" unicode="&#x15f;" d="M370 439 l-60 -127 q-41 41 -71 41 q-27 0 -27 -22 q0 -18 26 -32 q26 -14 56.5 -24.5 q30.5 -10.5 56.5 -41.5 q26 -31 26 -79 q0 -76 -55 -120 q-55 -44 -133 -44 q-75 0 -166 49 l63 129 q47 -49 87 -49 q13 0 23.5 6.5 q10.5 6.5 10.5 18.5 q0 15 -26.5 28 q-26.5 13 -57.5 24.5 q-31 11.5 -57.5 42.5 q-26.5 31 -26.5 78 q0 74 58 117 q58 43 134 43 q63 0 139 -38 ZM275 -106 l-113 -117 l-71 54 l98 122 l86 -59 Z" /><glyph glyph-name="Scaron" unicode="&#x160;" d="M362 645 l0 -204 q-48 73 -106 73 q-18 0 -32.5 -11 q-14.5 -11 -14.5 -29 q0 -18 17.5 -35.5 q17.5 -17.5 43 -35.5 q25.5 -18 51 -41 q25.5 -23 43 -61.5 q17.5 -38.5 17.5 -86.5 q0 -95 -59 -160.5 q-59 -65.5 -153 -65.5 q-67 0 -136 29 l0 209 q53 -73 114 -73 q21 0 37 11.5 q16 11.5 16 32.5 q0 19 -17.5 37.5 q-17.5 18.5 -42.5 37.5 q-25 19 -50 42 q-25 23 -42.5 61 q-17.5 38 -17.5 85 q0 89 57.5 154 q57.5 65 145.5 65 q64 0 129 -34 ZM384 802 l-149 -98 l-134 100 l61 69 l80 -56 l85 54 l57 -69 Z" /><glyph glyph-name="scaron" unicode="&#x161;" d="M370 439 l-60 -127 q-41 41 -71 41 q-27 0 -27 -22 q0 -18 26 -32 q26 -14 56.5 -24.5 q30.5 -10.5 56.5 -41.5 q26 -31 26 -79 q0 -76 -55 -120 q-55 -44 -133 -44 q-75 0 -166 49 l63 129 q47 -49 87 -49 q13 0 23.5 6.5 q10.5 6.5 10.5 18.5 q0 15 -26.5 28 q-26.5 13 -57.5 24.5 q-31 11.5 -57.5 42.5 q-26.5 31 -26.5 78 q0 74 58 117 q58 43 134 43 q63 0 139 -38 ZM366 623 l-138 -117 l-134 117 l60 67 l80 -70 l74 66 l58 -63 Z" /><glyph glyph-name="Tcedilla" unicode="&#x162;" d="M378 507 l-99 0 l0 -507 l-180 0 l0 507 l-99 0 l0 160 l378 0 l0 -160 ZM280 -113 l-124 -124 l-77 53 l108 137 l93 -66 Z" /><glyph glyph-name="tcedilla" unicode="&#x163;" d="M294 327 l-57 0 l0 -327 l-173 0 l0 327 l-50 0 l0 140 l50 0 l0 137 l173 0 l0 -137 l57 0 l0 -140 ZM239 -106 l-113 -117 l-71 54 l98 122 l86 -59 Z" /><glyph glyph-name="Tcaron" unicode="&#x164;" d="M279 507 l99 0 l0 160 l-378 0 l0 -160 l99 0 l0 -507 l180 0 l0 507 ZM344 802 l-149 -98 l-134 100 l61 69 l80 -56 l85 54 l57 -69 Z" /><glyph glyph-name="tcaron" unicode="&#x165;" d="M294 327 l-57 0 l0 -327 l-173 0 l0 327 l-50 0 l0 140 l50 0 l0 137 l173 0 l0 -137 l57 0 l0 -140 ZM473 727 l-92 -221 l-103 0 l47 221 l148 0 Z" /><glyph glyph-name="Utilde" unicode="&#x168;" d="M499 667 l0 -472 q0 -52 -14.5 -87.5 q-14.5 -35.5 -52.5 -67.5 q-60 -52 -151 -52 q-104 0 -169 58 q-65 58 -65 174 l0 447 l180 0 l0 -431 q0 -23 1.5 -37 q1.5 -14 12.5 -28 q11 -14 32 -14 q13 0 22.5 5.5 q9.5 5.5 14 12 q4.5 6.5 6.5 19.5 q2 13 2.5 20.5 q0.5 7.5 0.5 21.5 l0 431 l180 0 ZM442 855 l0 -14 q0 -50 -28 -84.5 q-28 -34.5 -77 -34.5 q-27 0 -65 16.5 q-38 16.5 -52 16.5 q-27 0 -27 -35 l-91 0 l0 2 q0 55 24 92.5 q24 37.5 77 37.5 q26 0 65.5 -16.5 q39.5 -16.5 55.5 -16.5 q28 0 28 36 l90 0 Z" /><glyph glyph-name="utilde" unicode="&#x169;" d="M459 467 l0 -287 q0 -50 -14.5 -85 q-14.5 -35 -52.5 -62 q-61 -43 -142 -43 q-81 0 -142 43 q-38 27 -53 62 q-15 35 -15 85 l0 287 l173 0 l0 -274 q0 -18 1.5 -28.5 q1.5 -10.5 10.5 -20 q9 -9.5 25 -9.5 q17 0 25.5 11.5 q8.5 11.5 9.5 22 q1 10.5 1 29.5 q0 4 0 6 l0 263 l173 0 ZM419 665 l0 -14 q0 -50 -28 -84.5 q-28 -34.5 -77 -34.5 q-26 0 -64 16.5 q-38 16.5 -53 16.5 q-27 0 -27 -35 l-91 0 l0 2 q0 55 24 92.5 q24 37.5 77 37.5 q26 0 65.5 -16.5 q39.5 -16.5 55.5 -16.5 q28 0 28 36 l90 0 Z" /><glyph glyph-name="Umacron" unicode="&#x16a;" d="M499 667 l0 -472 q0 -52 -14.5 -87.5 q-14.5 -35.5 -52.5 -67.5 q-60 -52 -151 -52 q-104 0 -169 58 q-65 58 -65 174 l0 447 l180 0 l0 -431 q0 -23 1.5 -37 q1.5 -14 12.5 -28 q11 -14 32 -14 q13 0 22.5 5.5 q9.5 5.5 14 12 q4.5 6.5 6.5 19.5 q2 13 2.5 20.5 q0.5 7.5 0.5 21.5 l0 431 l180 0 ZM443 743 l-340 0 l0 94 l340 0 l0 -94 Z" /><glyph glyph-name="umacron" unicode="&#x16b;" d="M459 467 l0 -287 q0 -50 -14.5 -85 q-14.5 -35 -52.5 -62 q-61 -43 -142 -43 q-81 0 -142 43 q-38 27 -53 62 q-15 35 -15 85 l0 287 l173 0 l0 -274 q0 -18 1.5 -28.5 q1.5 -10.5 10.5 -20 q9 -9.5 25 -9.5 q17 0 25.5 11.5 q8.5 11.5 9.5 22 q1 10.5 1 29.5 q0 4 0 6 l0 263 l173 0 ZM420 553 l-340 0 l0 94 l340 0 l0 -94 Z" /><glyph glyph-name="Ubreve" unicode="&#x16c;" d="M499 667 l0 -472 q0 -52 -14.5 -87.5 q-14.5 -35.5 -52.5 -67.5 q-60 -52 -151 -52 q-104 0 -169 58 q-65 58 -65 174 l0 447 l180 0 l0 -431 q0 -23 1.5 -37 q1.5 -14 12.5 -28 q11 -14 32 -14 q13 0 22.5 5.5 q9.5 5.5 14 12 q4.5 6.5 6.5 19.5 q2 13 2.5 20.5 q0.5 7.5 0.5 21.5 l0 431 l180 0 ZM363 867 l69 0 q-6 -69 -48.5 -109 q-42.5 -40 -111.5 -40 q-69 0 -111.5 40 q-42.5 40 -48.5 109 l69 0 q13 -31 34 -42 q21 -11 57 -11 q36 0 57 11 q21 11 34 42 Z" /><glyph glyph-name="ubreve" unicode="&#x16d;" d="M459 467 l0 -287 q0 -50 -14.5 -85 q-14.5 -35 -52.5 -62 q-61 -43 -142 -43 q-81 0 -142 43 q-38 27 -53 62 q-15 35 -15 85 l0 287 l173 0 l0 -274 q0 -18 1.5 -28.5 q1.5 -10.5 10.5 -20 q9 -9.5 25 -9.5 q17 0 25.5 11.5 q8.5 11.5 9.5 22 q1 10.5 1 29.5 q0 4 0 6 l0 263 l173 0 ZM341 669 l69 0 q-6 -69 -48.5 -109 q-42.5 -40 -111.5 -40 q-69 0 -111.5 40 q-42.5 40 -48.5 109 l69 0 q13 -31 34 -42 q21 -11 57 -11 q36 0 57 11 q21 11 34 42 Z" /><glyph glyph-name="Uring" unicode="&#x16e;" d="M499 667 l0 -472 q0 -52 -14.5 -87.5 q-14.5 -35.5 -52.5 -67.5 q-60 -52 -151 -52 q-104 0 -169 58 q-65 58 -65 174 l0 447 l180 0 l0 -431 q0 -23 1.5 -37 q1.5 -14 12.5 -28 q11 -14 32 -14 q13 0 22.5 5.5 q9.5 5.5 14 12 q4.5 6.5 6.5 19.5 q2 13 2.5 20.5 q0.5 7.5 0.5 21.5 l0 431 l180 0 ZM177 810 q0 40 28 68 q28 28 68 28 q40 0 68 -28 q28 -28 28 -68 q0 -40 -28.5 -68 q-28.5 -28 -66.5 -28 q-40 0 -68.5 28.5 q-28.5 28.5 -28.5 67.5 ZM246.5 836.5 q-10.5 -10.5 -10.5 -26.5 q0 -16 10.5 -26.5 q10.5 -10.5 26.5 -10.5 q16 0 26.5 10.5 q10.5 10.5 10.5 26.5 q0 16 -10.5 26.5 q-10.5 10.5 -26.5 10.5 q-16 0 -26.5 -10.5 Z" /><glyph glyph-name="uring" unicode="&#x16f;" d="M459 467 l0 -287 q0 -50 -14.5 -85 q-14.5 -35 -52.5 -62 q-61 -43 -142 -43 q-81 0 -142 43 q-38 27 -53 62 q-15 35 -15 85 l0 287 l173 0 l0 -274 q0 -18 1.5 -28.5 q1.5 -10.5 10.5 -20 q9 -9.5 25 -9.5 q17 0 25.5 11.5 q8.5 11.5 9.5 22 q1 10.5 1 29.5 q0 4 0 6 l0 263 l173 0 ZM180 551 q-28 28 -28 68 q0 40 28 68 q28 28 68 28 q40 0 68 -28 q28 -28 28 -68 q0 -40 -28 -68 q-28 -28 -68 -28 q-40 0 -68 28 ZM221.5 645.5 q-10.5 -10.5 -10.5 -26.5 q0 -16 10.5 -26.5 q10.5 -10.5 26.5 -10.5 q16 0 26.5 10.5 q10.5 10.5 10.5 26.5 q0 16 -10.5 26.5 q-10.5 10.5 -26.5 10.5 q-16 0 -26.5 -10.5 Z" /><glyph glyph-name="Uhungarumlaut" unicode="&#x170;" d="M499 667 l0 -472 q0 -52 -14.5 -87.5 q-14.5 -35.5 -52.5 -67.5 q-60 -52 -151 -52 q-104 0 -169 58 q-65 58 -65 174 l0 447 l180 0 l0 -431 q0 -23 1.5 -37 q1.5 -14 12.5 -28 q11 -14 32 -14 q13 0 22.5 5.5 q9.5 5.5 14 12 q4.5 6.5 6.5 19.5 q2 13 2.5 20.5 q0.5 7.5 0.5 21.5 l0 431 l180 0 ZM474 868 l-88 -148 l-89 0 l47 148 l130 0 ZM307 868 l-88 -148 l-89 0 l47 148 l130 0 Z" /><glyph glyph-name="uhungarumlaut" unicode="&#x171;" d="M459 467 l0 -287 q0 -50 -14.5 -85 q-14.5 -35 -52.5 -62 q-61 -43 -142 -43 q-81 0 -142 43 q-38 27 -53 62 q-15 35 -15 85 l0 287 l173 0 l0 -274 q0 -18 1.5 -28.5 q1.5 -10.5 10.5 -20 q9 -9.5 25 -9.5 q17 0 25.5 11.5 q8.5 11.5 9.5 22 q1 10.5 1 29.5 q0 4 0 6 l0 263 l173 0 ZM444 678 l-88 -148 l-89 0 l47 148 l130 0 ZM277 678 l-88 -148 l-89 0 l47 148 l130 0 Z" /><glyph glyph-name="Uogonek" unicode="&#x172;" d="M499 667 l0 -460 q0 -78 -29 -124 q-14 -23 -34 -41.5 q-20 -18.5 -43.5 -35 q-23.5 -16.5 -31.5 -24.5 q-23 -21 -23 -49 q0 -18 11 -27 q11 -9 29 -9 q16 0 34 9 l-8 -77 q-33 -12 -66 -12 q-40 0 -66 20 q-30 23 -30 61 q0 46 48 89 q-124 0 -189 63 q-54 53 -54 153 l0 464 l180 0 l0 -431 q0 -48 13 -65 q10 -14 33 -14 q23 0 33 14 q13 17 13 65 l0 431 l180 0 Z" /><glyph glyph-name="uogonek" unicode="&#x173;" d="M459 467 l0 -281 q0 -53 -10.5 -84 q-10.5 -31 -37.5 -57 q-20 -19 -50 -39 q-30 -20 -41 -32 q-17 -18 -17 -39 q0 -17 10 -25 q9 -9 26 -9 q17 0 35 9 l-8 -73 q-33 -12 -63 -12 q-40 0 -66 20 q-28 21 -28 58 q0 49 48 87 q-50 0 -92 15 q-42 15 -57.5 26 q-15.5 11 -23.5 21 q-44 45 -44 123 l0 292 l173 0 l0 -276 q0 -37 12 -48 q10 -8 24 -8 q15 0 25 8 q12 11 12 48 l0 276 l173 0 Z" /><glyph glyph-name="Ydieresis" unicode="&#x178;" d="M500 667 l-154 -385 l0 -282 l-180 0 l0 282 l-166 385 l188 0 q52 -161 63 -206 q29 106 63 206 l186 0 ZM419 792 q0 -29 -21.5 -50.5 q-21.5 -21.5 -50.5 -21.5 q-30 0 -52 21.5 q-22 21.5 -22 51.5 q0 30 21.5 50.5 q21.5 20.5 51.5 20.5 q30 0 51.5 -21 q21.5 -21 21.5 -51 ZM227 792 q0 -29 -21.5 -50.5 q-21.5 -21.5 -50.5 -21.5 q-30 0 -52 21.5 q-22 21.5 -22 51.5 q0 30 21.5 50.5 q21.5 20.5 51.5 20.5 q30 0 51.5 -21 q21.5 -21 21.5 -51 Z" /><glyph glyph-name="Zacute" unicode="&#x179;" d="M498 667 l0 -19 q-18 -40 -54.5 -121.5 q-36.5 -81.5 -58.5 -130.5 q-22 -49 -54.5 -118 q-32.5 -69 -60.5 -126 q35 3 206 8 l0 -160 l-459 0 l0 14 l143 326 q43 97 90 170 l-194 0 l0 157 l442 0 ZM404 868 l-88 -148 l-99 0 l47 148 l140 0 Z" /><glyph glyph-name="zacute" unicode="&#x17a;" d="M418 467 l-110 -238 q-22 -47 -46 -88 l129 0 l0 -141 l-374 0 l113 242 q25 52 44 85 l-132 0 l0 140 l376 0 ZM359 678 l-88 -148 l-99 0 l47 148 l140 0 Z" /><glyph glyph-name="Zdotaccent" unicode="&#x17b;" d="M498 667 l0 -19 q-18 -40 -54.5 -121.5 q-36.5 -81.5 -58.5 -130.5 q-22 -49 -54.5 -118 q-32.5 -69 -60.5 -126 q35 3 206 8 l0 -160 l-459 0 l0 14 l143 326 q43 97 90 170 l-194 0 l0 157 l442 0 ZM330 848.5 q22 -22.5 22 -53.5 q0 -31 -22 -53 q-22 -22 -53 -22 q-32 0 -54.5 22 q-22.5 22 -22.5 54 q0 31 22 53 q22 22 54 22 q32 0 54 -22.5 Z" /><glyph glyph-name="zdotaccent" unicode="&#x17c;" d="M418 467 l-110 -238 q-22 -47 -46 -88 l129 0 l0 -141 l-374 0 l113 242 q25 52 44 85 l-132 0 l0 140 l376 0 ZM286 658.5 q22 -22.5 22 -53.5 q0 -31 -22 -53 q-22 -22 -53 -22 q-32 0 -54.5 22 q-22.5 22 -22.5 54 q0 31 22 53 q22 22 54 22 q32 0 54 -22.5 Z" /><glyph glyph-name="Zcaron" unicode="&#x17d;" d="M498 667 l0 -19 q-18 -40 -54.5 -121.5 q-36.5 -81.5 -58.5 -130.5 q-22 -49 -54.5 -118 q-32.5 -69 -60.5 -126 q35 3 206 8 l0 -160 l-459 0 l0 14 l143 326 q43 97 90 170 l-194 0 l0 157 l442 0 ZM419 802 l-149 -98 l-134 100 l61 69 l80 -56 l85 54 l57 -69 Z" /><glyph glyph-name="zcaron" unicode="&#x17e;" d="M418 467 l-110 -238 q-22 -47 -46 -88 l129 0 l0 -141 l-374 0 l113 242 q25 52 44 85 l-132 0 l0 140 l376 0 ZM365 623 l-138 -117 l-134 117 l60 67 l80 -70 l74 66 l58 -63 Z" /><glyph glyph-name="uni018F" unicode="&#x18f;" d="M30 385 l310 0 q-7 84 -32 115 q-15 18 -39 18 q-19 0 -35 -14 q-18 -18 -23 -54 l-175 55 q26 72 82 120 q64 54 155 54 q98 0 160 -62 q43 -43 68 -117.5 q25 -74.5 25 -160.5 q0 -192 -87 -283 q-64 -68 -168 -68 q-96 0 -156 64 q-85 93 -85 306 l0 27 ZM340 253 l-129 0 q3 -68 27 -91 q13 -13 36 -13 q22 0 36 15 q28 28 30 89 Z" /><glyph glyph-name="florin" unicode="&#x192;" d="M499 729 l-22 -138 q-6 0 -16.5 1.5 q-10.5 1.5 -15.5 1.5 q-32 0 -38 -34 l-18 -93 l70 0 l-18 -94 l-71 0 l-64 -332 q-16 -84 -58.5 -129 q-42.5 -45 -123.5 -45 q-30 0 -76 13 l26 143 q20 -2 31 -2 q22 0 33 7.5 q11 7.5 15 28.5 l61 316 l-68 0 l17 94 l69 0 l21 106 q17 83 53 125 q36 42 114 42 q31 0 79 -11 Z" /><glyph glyph-name="uni01CF" unicode="&#x1cf;" d="M227 0 l-180 0 l0 667 l180 0 l0 -667 ZM284 802 l-149 -98 l-134 100 l61 69 l80 -56 l85 54 l57 -69 Z" /><glyph glyph-name="uni01D0" unicode="&#x1d0;" d="M213 0 l-173 0 l0 467 l173 0 l0 -467 ZM265 623 l-138 -117 l-134 117 l60 67 l80 -70 l74 66 l58 -63 Z" /><glyph glyph-name="uni01DD" unicode="&#x1dd;" d="M197 308 l-158 38 q20 56 66 91 q52 39 134 39 q97 0 151 -54 q65 -65 65 -180 q0 -125 -75 -197 q-56 -55 -142 -55 q-90 0 -144 56 q-76 79 -66 223 l254 0 q0 46 -16 62 q-10 10 -27 10 q-15 0 -27 -8 q-12 -8 -15 -25 ZM280 176 l-81 0 q0 -31 15 -47 q11 -12 26 -12 q14 0 24 10 q16 16 16 49 Z" /><glyph glyph-name="Gcaron" unicode="&#x1e6;" d="M530 385 l0 -27 q0 -170 -44 -255 q-29 -56 -82 -85.5 q-53 -29.5 -117 -29.5 q-56 0 -100.5 20 q-44.5 20 -73.5 53 q-29 33 -48 78 q-19 45 -27 92 q-8 47 -8 99 q0 66 13.5 124.5 q13.5 58.5 42 110.5 q28.5 52 80 83 q51.5 31 121.5 31 q157 0 229 -165 l-175 -64 q-3 26 -16 47 q-13 21 -37 21 q-74 0 -74 -204 q0 -165 68 -165 q34 0 48.5 29.5 q14.5 29.5 14.5 66.5 l-66 0 l0 140 l251 0 ZM434 802 l-149 -98 l-134 100 l61 69 l80 -56 l85 54 l57 -69 Z" /><glyph glyph-name="gcaron" unicode="&#x1e7;" d="M453 467 l0 -479 q0 -80 -35 -128 q-56 -75 -175 -75 q-186 0 -210 169 l177 0 q0 -16 10 -27 q10 -11 26 -11 q41 0 41 66 l0 72 q-45 -61 -109 -61 q-55 0 -91 42.5 q-36 42.5 -48 93.5 q-12 51 -12 105 q0 38 7.5 77 q7.5 39 23.5 78 q16 39 46.5 63.5 q30.5 24.5 71.5 24.5 q57 0 105 -71 l-3 61 l175 0 ZM285 235 q0 101 -38 101 q-41 0 -41 -98 q0 -102 41 -102 q38 0 38 99 ZM382 623 l-138 -117 l-134 117 l60 67 l80 -70 l74 66 l58 -63 Z" /><glyph glyph-name="AEacute" unicode="&#x1fc;" d="M585 0 l-256 0 l-12 85 l-116 0 l-15 -85 l-186 0 l154 667 l431 0 l0 -157 l-179 0 l15 -97 l150 0 l0 -151 l-124 0 l18 -102 l120 0 l0 -160 ZM223 223 l75 0 q-29 206 -35 283 q-14 -118 -40 -283 ZM441 868 l-88 -148 l-99 0 l47 148 l140 0 Z" /><glyph glyph-name="aeacute" unicode="&#x1fd;" d="M78 321 l0 135 q79 21 139 21 q89 0 144 -46 q64 46 134 46 q102 0 157.5 -71 q55.5 -71 55.5 -176 q0 -21 -1 -32 l-255 0 q3 -80 46 -80 q27 0 39 35 l165 -3 q-23 -87 -77 -124 q-51 -36 -132 -36 q-77 0 -138 48 q-70 -48 -151 -48 q-74 0 -125.5 44.5 q-51.5 44.5 -51.5 117.5 q0 72 47.5 110.5 q47.5 38.5 121.5 38.5 q41 0 89 -10 q-8 57 -93 57 q-60 0 -114 -27 ZM452 291 l87 0 q-7 65 -45 65 q-16 0 -25.5 -12 q-9.5 -12 -12 -23.5 q-2.5 -11.5 -4.5 -29.5 ZM273.5 120 q12.5 11 12.5 30 q0 19 -13 30 q-13 11 -33 11 q-19 0 -32 -11.5 q-13 -11.5 -13 -30.5 q0 -20 13.5 -30 q13.5 -10 33.5 -10 q19 0 31.5 11 ZM501 678 l-88 -148 l-99 0 l47 148 l140 0 Z" /><glyph glyph-name="Scommaaccent" unicode="&#x218;" d="M362 645 l0 -204 q-48 73 -106 73 q-18 0 -32.5 -11 q-14.5 -11 -14.5 -29 q0 -18 17.5 -35.5 q17.5 -17.5 43 -35.5 q25.5 -18 51 -41 q25.5 -23 43 -61.5 q17.5 -38.5 17.5 -86.5 q0 -95 -59 -160.5 q-59 -65.5 -153 -65.5 q-67 0 -136 29 l0 209 q53 -73 114 -73 q21 0 37 11.5 q16 11.5 16 32.5 q0 19 -17.5 37.5 q-17.5 18.5 -42.5 37.5 q-25 19 -50 42 q-25 23 -42.5 61 q-17.5 38 -17.5 85 q0 89 57.5 154 q57.5 65 145.5 65 q64 0 129 -34 ZM262 -45 l-80 -189 l-102 0 l35 189 l147 0 Z" /><glyph glyph-name="scommaaccent" unicode="&#x219;" d="M370 439 l-60 -127 q-41 41 -71 41 q-27 0 -27 -22 q0 -18 26 -32 q26 -14 56.5 -24.5 q30.5 -10.5 56.5 -41.5 q26 -31 26 -79 q0 -76 -55 -120 q-55 -44 -133 -44 q-75 0 -166 49 l63 129 q47 -49 87 -49 q13 0 23.5 6.5 q10.5 6.5 10.5 18.5 q0 15 -26.5 28 q-26.5 13 -57.5 24.5 q-31 11.5 -57.5 42.5 q-26.5 31 -26.5 78 q0 74 58 117 q58 43 134 43 q63 0 139 -38 ZM289 -45 l-80 -189 l-102 0 l35 189 l147 0 Z" /><glyph glyph-name="Tcommaaccent" unicode="&#x21a;" d="M378 507 l-99 0 l0 -507 l-180 0 l0 507 l-99 0 l0 160 l378 0 l0 -160 ZM262 -45 l-80 -189 l-102 0 l35 189 l147 0 Z" /><glyph glyph-name="tcommaaccent" unicode="&#x21b;" d="M294 327 l-57 0 l0 -327 l-173 0 l0 327 l-50 0 l0 140 l50 0 l0 137 l173 0 l0 -137 l57 0 l0 -140 ZM224 -45 l-80 -189 l-102 0 l35 189 l147 0 Z" /><glyph glyph-name="uni0228" unicode="&#x228;" d="M381 0 l-334 0 l0 667 l334 0 l0 -157 l-154 0 l0 -97 l138 0 l0 -151 l-138 0 l0 -102 l154 0 l0 -160 ZM319 -113 l-124 -124 l-77 53 l108 137 l93 -66 Z" /><glyph glyph-name="uni0229" unicode="&#x229;" d="M279 158 l169 -1 q-18 -81 -72 -124 q-54 -43 -136 -43 q-104 0 -158.5 64.5 q-54.5 64.5 -54.5 170.5 q0 105 58 178 q58 73 160 73 q102 0 156 -71 q54 -71 54 -176 q0 -5 -0.5 -16 q-0.5 -11 -0.5 -16 l-254 0 q0 -72 40 -72 q32 0 39 33 ZM202 290 l81 0 q-2 59 -41 59 q-38 0 -40 -59 ZM322 -106 l-113 -117 l-71 54 l98 122 l86 -59 Z" /><glyph glyph-name="uni0237" unicode="&#x237;" d="M214 -215 l-173 0 l-1 682 l174 0 l0 -682 Z" /><glyph glyph-name="uni0259" unicode="&#x259;" d="M197 308 l-158 38 q20 56 66 91 q52 39 134 39 q97 0 151 -54 q65 -65 65 -180 q0 -125 -75 -197 q-56 -55 -142 -55 q-90 0 -144 56 q-76 79 -66 223 l254 0 q0 46 -16 62 q-10 10 -27 10 q-15 0 -27 -8 q-12 -8 -15 -25 ZM280 176 l-81 0 q0 -31 15 -47 q11 -12 26 -12 q14 0 24 10 q16 16 16 49 Z" /><glyph glyph-name="afii57929" unicode="&#x2bc;" d="M243 667 l-92 -221 l-103 0 l47 221 l148 0 Z" /><glyph glyph-name="circumflex" unicode="&#x2c6;" d="M256 690 l129 -117 l-58 -63 l-74 66 l-80 -70 l-60 67 l143 117 Z" /><glyph glyph-name="caron" unicode="&#x2c7;" d="M385 623 l-138 -117 l-134 117 l60 67 l80 -70 l74 66 l58 -63 Z" /><glyph glyph-name="uni02C9" unicode="&#x2c9;" d="M420 553 l-340 0 l0 94 l340 0 l0 -94 Z" /><glyph glyph-name="breve" unicode="&#x2d8;" d="M341 669 l69 0 q-6 -69 -48.5 -109 q-42.5 -40 -111.5 -40 q-69 0 -111.5 40 q-42.5 40 -48.5 109 l69 0 q13 -31 34 -42 q21 -11 57 -11 q36 0 57 11 q21 11 34 42 Z" /><glyph glyph-name="dotaccent" unicode="&#x2d9;" d="M304 658.5 q22 -22.5 22 -53.5 q0 -31 -22 -53 q-22 -22 -53 -22 q-32 0 -54.5 22 q-22.5 22 -22.5 54 q0 31 22 53 q22 22 54 22 q32 0 54 -22.5 Z" /><glyph glyph-name="ring" unicode="&#x2da;" d="M205 551 q-28 28 -28 68 q0 40 28 68 q28 28 68 28 q40 0 68 -28 q28 -28 28 -68 q0 -40 -28 -68 q-28 -28 -68 -28 q-40 0 -68 28 ZM246.5 645.5 q-10.5 -10.5 -10.5 -26.5 q0 -16 10.5 -26.5 q10.5 -10.5 26.5 -10.5 q16 0 26.5 10.5 q10.5 10.5 10.5 26.5 q0 16 -10.5 26.5 q-10.5 10.5 -26.5 10.5 q-16 0 -26.5 -10.5 Z" /><glyph glyph-name="ogonek" unicode="&#x2db;" d="M236 0 l61 0 q-24 -34 -24 -64 q0 -17 10 -25 q10 -9 29 -9 q20 0 35 9 l-8 -70 q-27 -12 -57 -12 q-38 0 -60 16 q-29 20 -29 61 q0 27 17 56 q17 27 26 38 Z" /><glyph glyph-name="tilde" unicode="&#x2dc;" d="M420 665 l0 -14 q0 -50 -28 -84.5 q-28 -34.5 -77 -34.5 q-27 0 -64.5 16.5 q-37.5 16.5 -52.5 16.5 q-27 0 -27 -35 l-91 0 l0 2 q0 55 24 92.5 q24 37.5 77 37.5 q26 0 65.5 -16.5 q39.5 -16.5 55.5 -16.5 q28 0 28 36 l90 0 Z" /><glyph glyph-name="hungarumlaut" unicode="&#x2dd;" d="M464 678 l-88 -148 l-89 0 l47 148 l130 0 ZM297 678 l-88 -148 l-89 0 l47 148 l130 0 Z" /><glyph glyph-name="acutecomb" unicode="&#x301;" d="M-89 678 l-88 -148 l-99 0 l47 148 l140 0 Z" /><glyph glyph-name="Delta" unicode="&#x394;&#x2206;" d="M650 0 l-634 0 l245 667 l141 0 l248 -667 ZM462 118 l-130 390 l-130 -390 l260 0 Z" /><glyph glyph-name="Omega" unicode="&#x3a9;&#x2126;" d="M638 0 l-269 0 l0 104 q134 75 134 248 q0 84 -44.5 149 q-44.5 65 -124.5 65 q-81 0 -125.5 -64.5 q-44.5 -64.5 -44.5 -149.5 q0 -176 135 -248 l0 -104 l-270 0 l0 117 l136 0 q-72 45 -104.5 104.5 q-32.5 59.5 -32.5 144.5 q0 135 85.5 226 q85.5 91 219.5 91 q135 0 220 -91 q85 -91 85 -226 q0 -122 -67 -196 q-25 -26 -68 -53 l135 0 l0 -117 Z" /><glyph glyph-name="pi" unicode="&#x3c0;" d="M670 327 l-76 0 l0 -327 l-172 0 l0 327 l-135 0 l0 -327 l-172 0 l0 327 l-77 0 l0 140 l632 0 l0 -140 Z" /><glyph glyph-name="afii10023" unicode="&#x401;" d="M381 0 l-334 0 l0 667 l334 0 l0 -157 l-154 0 l0 -97 l138 0 l0 -151 l-138 0 l0 -102 l154 0 l0 -160 ZM196 785 q0 -29 -21.5 -50.5 q-21.5 -21.5 -50.5 -21.5 q-30 0 -52 21.5 q-22 21.5 -22 51.5 q0 30 21.5 50.5 q21.5 20.5 51.5 20.5 q30 0 51.5 -21 q21.5 -21 21.5 -51 ZM378 785 q0 -29 -21.5 -50.5 q-21.5 -21.5 -50.5 -21.5 q-30 0 -52 21.5 q-22 21.5 -22 51.5 q0 30 21.5 50.5 q21.5 20.5 51.5 20.5 q30 0 51.5 -21 q21.5 -21 21.5 -51 Z" /><glyph glyph-name="afii10051" unicode="&#x402;" d="M453 507 l-154 0 l0 -65 q0 -36 -5 -64 q50 33 108 33 q69 0 112 -42 q59 -58 59 -168 q0 -120 -59 -178 q-40 -39 -107 -39 q-33 0 -73 14 l14 142 q10 -9 23 -9 q10 0 17 7 q13 12 13 54 q0 35 -15 51 q-12 14 -34 14 q-22 0 -53 -17 l0 -240 l-180 0 l0 507 l-99 0 l0 160 l433 0 l0 -160 Z" /><glyph glyph-name="afii10052" unicode="&#x403;" d="M365 510 l-138 0 l0 -510 l-180 0 l0 667 l318 0 l0 -157 ZM344 868 l-88 -148 l-99 0 l47 148 l140 0 Z" /><glyph glyph-name="afii10053" unicode="&#x404;" d="M451 214 l-10 -193 q-59 -33 -128 -33 q-115 0 -186 68 q-97 95 -97 276 q0 178 89 271 q73 76 199 76 q74 0 130 -34 l0 -187 q-21 25 -44 37 q-29 17 -64 17 q-53 0 -83 -32 q-26 -27 -34 -67 l154 0 l0 -151 l-155 0 q9 -50 40 -75 q30 -25 78 -25 q37 0 64 14 q25 13 47 38 Z" /><glyph glyph-name="afii10054" unicode="&#x405;" d="M362 645 l0 -204 q-48 73 -106 73 q-18 0 -32.5 -11 q-14.5 -11 -14.5 -29 q0 -18 17.5 -35.5 q17.5 -17.5 43 -35.5 q25.5 -18 51 -41 q25.5 -23 43 -61.5 q17.5 -38.5 17.5 -86.5 q0 -95 -59 -160.5 q-59 -65.5 -153 -65.5 q-67 0 -136 29 l0 209 q53 -73 114 -73 q21 0 37 11.5 q16 11.5 16 32.5 q0 19 -17.5 37.5 q-17.5 18.5 -42.5 37.5 q-25 19 -50 42 q-25 23 -42.5 61 q-17.5 38 -17.5 85 q0 89 57.5 154 q57.5 65 145.5 65 q64 0 129 -34 Z" /><glyph glyph-name="afii10055" unicode="&#x406;" d="M227 0 l-180 0 l0 667 l180 0 l0 -667 Z" /><glyph glyph-name="afii10056" unicode="&#x407;" d="M227 0 l-180 0 l0 667 l180 0 l0 -667 ZM261 792 q0 -29 -16 -50.5 q-16 -21.5 -38 -21.5 q-23 0 -40 21.5 q-17 21.5 -17 51.5 q0 29 17 50 q17 21 39 21 q23 0 39 -21 q16 -21 16 -51 ZM124 792 q0 -29 -16.5 -50.5 q-16.5 -21.5 -38.5 -21.5 q-23 0 -40 21 q-17 21 -17 52 q0 30 16.5 50.5 q16.5 20.5 39.5 20.5 q23 0 39.5 -21 q16.5 -21 16.5 -51 Z" /><glyph glyph-name="afii10057" unicode="&#x408;" d="M307 667 l0 -463 q0 -81 -22 -125 q-45 -91 -167 -91 q-57 0 -118 22 l0 186 q31 -39 72 -39 q55 0 55 82 l0 428 l180 0 Z" /><glyph glyph-name="afii10058" unicode="&#x409;" d="M561 0 l-208 0 l0 503 l-80 0 l0 -221 q0 -183 -70 -249 q-46 -44 -127 -44 q-39 0 -71 8 l0 176 q17 -14 37 -14 q25 0 41 16 q22 23 22 88 l0 404 l424 0 l0 -245 l10 0 q141 0 203 -67 q49 -53 49 -142 q0 -103 -57 -158 q-58 -55 -173 -55 ZM529 278 l0 -133 q42 -5 62 14 q20 18 20 52 q0 32 -18 50 q-23 23 -64 17 Z" /><glyph glyph-name="afii10059" unicode="&#x40a;" d="M521 0 l-208 0 l0 278 l-86 0 l0 -278 l-180 0 l0 667 l180 0 l0 -245 l86 0 l0 245 l176 0 l0 -245 l10 0 q141 0 203 -67 q49 -53 49 -142 q0 -103 -57 -158 q-58 -55 -173 -55 ZM489 278 l0 -133 q42 -5 62 14 q20 18 20 52 q0 32 -18 50 q-23 23 -64 17 Z" /><glyph glyph-name="afii10060" unicode="&#x40b;" d="M119 0 l0 507 l-99 0 l0 160 l433 0 l0 -160 l-154 0 l0 -103 q51 11 90 11 q74 0 119 -39 q33 -29 43 -67.5 q10 -38.5 10 -91.5 l0 -217 l-176 0 l0 195 q0 32 -13 46 q-14 14 -38 14 q-18 0 -35 -7 l0 -248 l-180 0 Z" /><glyph glyph-name="afii10061" unicode="&#x40c;" d="M536 0 l-194 0 l-120 319 l5 -319 l-180 0 l0 667 l180 0 l-5 -298 l106 298 l190 0 l-142 -322 l160 -345 ZM424 868 l-88 -148 l-99 0 l47 148 l140 0 Z" /><glyph glyph-name="afii10062" unicode="&#x40e;" d="M5 667 l188 0 l33 -107 q26 -82 34 -147 q11 79 31 150 l28 104 l186 0 l-236 -667 l-181 0 l80 225 l-163 442 ZM326 874 l126 -35 q-15 -65 -69 -99 q-44 -29 -123 -29 q-79 0 -123 29 q-54 34 -69 99 l126 35 q4 -28 22 -43 q17 -13 44 -13 q28 0 44 13 q16 13 22 43 Z" /><glyph glyph-name="afii10145" unicode="&#x40f;" d="M227 667 l0 -504 l84 0 l0 504 l180 0 l0 -667 l-142 0 l0 -130 l-160 0 l0 130 l-142 0 l0 667 l180 0 Z" /><glyph glyph-name="afii10017" unicode="&#x410;" d="M527 0 l-186 0 l-14 85 l-121 0 l-15 -85 l-186 0 l161 667 l220 0 l141 -667 ZM230 227 l76 0 q-23 155 -34 280 q-2 -15 -5.5 -47 q-3.5 -32 -5.5 -47 q-15 -103 -31 -186 Z" /><glyph glyph-name="afii10018" unicode="&#x411;" d="M258 0 l-211 0 l0 667 l374 0 l0 -157 l-194 0 l0 -102 l23 0 q121 0 179 -56 q57 -55 57 -149 q0 -90 -57 -147 q-57 -56 -171 -56 ZM227 272 l0 -127 q40 -7 62 15 q17 17 17 49 q0 32 -18 48 q-23 22 -61 15 Z" /><glyph glyph-name="afii10019" unicode="&#x412;" d="M47 667 l209 0 q91 0 143 -30 q42 -24 65 -66.5 q23 -42.5 23 -92.5 q0 -125 -124 -136 q137 -17 137 -151 q0 -87 -56.5 -139 q-56.5 -52 -144.5 -52 l-252 0 l0 667 ZM227 522 l0 -114 q4 -1 11 -1 q30 0 50.5 14.5 q20.5 14.5 20.5 43.5 q0 29 -17.5 43.5 q-17.5 14.5 -46.5 14.5 q-12 0 -18 -1 ZM227 272 l0 -127 q5 -1 15 -1 q32 0 53 16.5 q21 16.5 21 48.5 q0 32 -21 48 q-21 16 -54 16 q-3 0 -7 -0.5 q-4 -0.5 -7 -0.5 Z" /><glyph glyph-name="afii10020" unicode="&#x413;" d="M365 510 l-138 0 l0 -510 l-180 0 l0 667 l318 0 l0 -157 Z" /><glyph glyph-name="afii10021" unicode="&#x414;" d="M94 667 l413 0 l0 -505 l56 0 l0 -292 l-152 0 l0 130 l-249 0 l0 -130 l-152 0 l0 292 q27 5 44 22 q40 38 40 150 l0 333 ZM258 505 l0 -161 q0 -96 -16 -134 q-12 -28 -35 -48 l124 0 l0 343 l-73 0 Z" /><glyph glyph-name="afii10022" unicode="&#x415;" d="M381 0 l-334 0 l0 667 l334 0 l0 -157 l-154 0 l0 -97 l138 0 l0 -151 l-138 0 l0 -102 l154 0 l0 -160 Z" /><glyph glyph-name="afii10024" unicode="&#x416;" d="M732 0 l-182 0 l-100 321 l5 -321 l-170 0 l5 321 l-100 -321 l-182 0 l137 345 l-140 322 l180 0 l105 -300 l-5 300 l170 0 l-5 -300 l105 300 l178 0 l-138 -322 l137 -345 Z" /><glyph glyph-name="afii10025" unicode="&#x417;" d="M50 452 l0 183 q67 44 159 44 q105 0 163 -58 q53 -51 53 -137 q0 -67 -35 -104 q-32 -34 -77 -40 q55 -4 91 -40 q39 -37 39 -104 q0 -96 -62 -154 q-57 -54 -170 -54 q-86 0 -161 37 l0 198 q26 -33 54 -50 q32 -20 71 -20 q40 0 58 18 q15 15 15 35 q0 28 -24 42 q-20 12 -69 12 l-29 0 l0 153 l31 0 q46 0 66 13 q20 13 20 36 q0 24 -20 39 q-19 13 -48 13 q-39 0 -72 -19 q-29 -17 -53 -43 Z" /><glyph glyph-name="afii10026" unicode="&#x418;" d="M47 0 l0 667 l170 0 l0 -185 q0 -49 -20 -225 q43 128 69 194 l85 216 l158 0 l0 -667 l-170 0 l0 178 q0 50 11 214 q-21 -75 -70 -201 l-75 -191 l-158 0 Z" /><glyph glyph-name="afii10027" unicode="&#x419;" d="M47 0 l0 667 l170 0 l0 -185 q0 -49 -20 -225 q43 128 69 194 l85 216 l158 0 l0 -667 l-170 0 l0 178 q0 50 11 214 q-21 -75 -70 -201 l-75 -191 l-158 0 ZM346 874 l126 -35 q-15 -65 -69 -99 q-44 -29 -123 -29 q-79 0 -123 29 q-54 34 -69 99 l126 35 q4 -28 22 -43 q17 -13 44 -13 q28 0 44 13 q16 13 22 43 Z" /><glyph glyph-name="afii10028" unicode="&#x41a;" d="M536 0 l-194 0 l-120 319 l5 -319 l-180 0 l0 667 l180 0 l-5 -298 l106 298 l190 0 l-142 -322 l160 -345 Z" /><glyph glyph-name="afii10029" unicode="&#x41b;" d="M105 667 l428 0 l0 -667 l-180 0 l0 503 l-80 0 l0 -221 q0 -183 -70 -249 q-46 -44 -127 -44 q-39 0 -71 8 l0 176 q17 -14 37 -14 q25 0 41 16 q22 23 22 88 l0 404 Z" /><glyph glyph-name="afii10030" unicode="&#x41c;" d="M733 0 l-188 0 l-14 304 q-1 20 -2 60.5 q-1 40.5 -2 60.5 q-6 -65 -18 -128 l-56 -297 l-147 0 l-52 321 q-6 34 -12 104 q0 -16 -0.5 -46.5 q-0.5 -30.5 -1 -55 q-0.5 -24.5 -1.5 -46.5 l-16 -277 l-193 0 l78 667 l224 0 q46 -273 52 -355 q6 54 15 109 q9 55 25.5 138 q16.5 83 21.5 108 l222 0 l65 -667 Z" /><glyph glyph-name="afii10031" unicode="&#x41d;" d="M493 0 l-180 0 l0 268 l-86 0 l0 -268 l-180 0 l0 667 l180 0 l0 -236 l86 0 l0 236 l180 0 l0 -667 Z" /><glyph glyph-name="afii10032" unicode="&#x41e;" d="M537 334 q0 -193 -98 -286 q-63 -60 -155 -60 q-93 0 -156 60 q-98 93 -98 286 q0 191 98 285 q63 60 156 60 q92 0 155 -60 q98 -94 98 -285 ZM284 511 q-19 0 -30 -12 q-37 -37 -37 -165 q0 -128 37 -165 q11 -12 30 -12 q17 0 29 12 q37 37 37 165 q0 128 -37 165 q-12 12 -29 12 Z" /><glyph glyph-name="afii10033" unicode="&#x41f;" d="M489 0 l-180 0 l0 504 l-82 0 l0 -504 l-180 0 l0 667 l442 0 l0 -667 Z" /><glyph glyph-name="afii10034" unicode="&#x420;" d="M47 667 l174 0 q91 0 148 -25 q59 -26 89.5 -80.5 q30.5 -54.5 30.5 -121.5 q0 -118 -71.5 -175 q-71.5 -57 -190.5 -46 l0 -219 l-180 0 l0 667 ZM227 368 l9 0 q32 0 51.5 21 q19.5 21 19.5 54 q0 33 -18 55.5 q-18 22.5 -50 22.5 l-12 0 l0 -153 Z" /><glyph glyph-name="afii10035" unicode="&#x421;" d="M422 205 l-11 -193 q-55 -24 -107 -24 q-69 0 -123 29.5 q-54 29.5 -86 79 q-32 49.5 -48.5 109 q-16.5 59.5 -16.5 125.5 q0 95 31 172 q31 77 99.5 126.5 q68.5 49.5 164.5 49.5 q49 0 89 -17 l0 -190 q-38 40 -83 40 q-44 0 -72 -30 q-28 -30 -36.5 -67 q-8.5 -37 -8.5 -81 q0 -43 8.5 -78.5 q8.5 -35.5 35.5 -64.5 q27 -29 70 -29 q46 0 94 43 Z" /><glyph glyph-name="afii10036" unicode="&#x422;" d="M378 507 l-99 0 l0 -507 l-180 0 l0 507 l-99 0 l0 160 l378 0 l0 -160 Z" /><glyph glyph-name="afii10037" unicode="&#x423;" d="M5 667 l188 0 l33 -107 q26 -82 34 -147 q11 79 31 150 l28 104 l186 0 l-236 -667 l-181 0 l80 225 l-163 442 Z" /><glyph glyph-name="afii10038" unicode="&#x424;" d="M277 0 l0 86 q-46 1 -88 18 q-42 17 -57 28.5 q-15 11.5 -25 21.5 q-70 70 -70 204 q0 124 71 195 q65 65 169 69 l0 82 l176 0 l0 -82 q104 -4 169 -69 q71 -71 71 -195 q0 -134 -70 -204 q-10 -10 -25 -21.5 q-15 -11.5 -57 -28.5 q-42 -17 -88 -18 l0 -86 l-176 0 ZM439 464 l0 -220 q41 2 64 28 q22 26 22 83 q0 58 -23 83 q-24 26 -63 26 ZM291 244 l0 220 q-39 0 -63 -26 q-23 -25 -23 -83 q0 -57 22 -83 q23 -26 64 -28 Z" /><glyph glyph-name="afii10039" unicode="&#x425;" d="M517 0 l-200 0 q-9 24 -24 70 q-15 46 -18 54 q-15 44 -17 55 q-3 -10 -9 -29.5 q-6 -19.5 -9 -29.5 q-5 -17 -44 -120 l-196 0 l162 346 l-153 321 l200 0 q3 -11 22.5 -69 q19.5 -58 28.5 -89 q7 32 43 158 l202 0 l-152 -321 l164 -346 Z" /><glyph glyph-name="afii10040" unicode="&#x426;" d="M227 667 l0 -504 l84 0 l0 504 l180 0 l0 -504 l70 0 l0 -293 l-160 0 l0 130 l-354 0 l0 667 l180 0 Z" /><glyph glyph-name="afii10041" unicode="&#x427;" d="M302 0 l0 265 q-51 -11 -90 -11 q-74 0 -119 39 q-33 29 -43 67.5 q-10 38.5 -10 91.5 l0 215 l176 0 l0 -193 q0 -32 13 -46 q14 -14 38 -14 q18 0 35 7 l0 246 l180 0 l0 -667 l-180 0 Z" /><glyph glyph-name="afii10042" unicode="&#x428;" d="M223 667 l0 -504 l82 0 l0 504 l176 0 l0 -504 l82 0 l0 504 l176 0 l0 -667 l-692 0 l0 667 l176 0 Z" /><glyph glyph-name="afii10043" unicode="&#x429;" d="M223 667 l0 -504 l82 0 l0 504 l176 0 l0 -504 l82 0 l0 504 l176 0 l0 -504 l74 0 l0 -293 l-160 0 l0 130 l-606 0 l0 667 l176 0 Z" /><glyph glyph-name="afii10044" unicode="&#x42a;" d="M310 0 l-212 0 l0 507 l-83 0 l0 160 l263 0 l0 -245 l10 0 q141 0 203 -67 q49 -53 49 -142 q0 -103 -57 -158 q-58 -55 -173 -55 ZM278 278 l0 -133 q42 -5 62 14 q20 18 20 52 q0 32 -18 50 q-23 23 -64 17 Z" /><glyph glyph-name="afii10045" unicode="&#x42b;" d="M706 0 l-180 0 l0 667 l180 0 l0 -667 ZM255 0 l-208 0 l0 667 l180 0 l0 -245 l6 0 q141 0 203 -67 q49 -53 49 -142 q0 -103 -57 -158 q-58 -55 -173 -55 ZM227 278 l0 -133 q42 -5 62 14 q20 18 20 52 q0 32 -18 50 q-23 23 -64 17 Z" /><glyph glyph-name="afii10046" unicode="&#x42c;" d="M259 0 l-212 0 l0 667 l180 0 l0 -245 l10 0 q141 0 203 -67 q49 -53 49 -142 q0 -103 -57 -158 q-58 -55 -173 -55 ZM227 278 l0 -133 q42 -5 62 14 q20 18 20 52 q0 32 -18 50 q-23 23 -64 17 Z" /><glyph glyph-name="afii10047" unicode="&#x42d;" d="M44 18 l-10 196 q25 -27 47 -38 q27 -14 63 -14 q50 0 80 25 q33 28 39 75 l-155 0 l0 151 l154 0 q-7 44 -38 72 q-29 27 -77 27 q-35 0 -66 -17 q-23 -12 -44 -37 l0 187 q56 34 131 34 q124 0 198 -75 q89 -90 89 -262 q0 -184 -97 -281 q-73 -73 -196 -73 q-64 0 -118 30 Z" /><glyph glyph-name="afii10048" unicode="&#x42e;" d="M791 334 q0 -193 -98 -286 q-63 -60 -160 -60 q-93 0 -152 58 q-78 77 -87 222 l-67 0 l0 -268 l-180 0 l0 667 l180 0 l0 -242 l71 0 q5 55 27.5 108 q22.5 53 55.5 86 q62 60 157 60 q92 0 155 -60 q98 -94 98 -285 ZM538 511 q-19 0 -30 -12 q-37 -37 -37 -165 q0 -128 37 -165 q11 -12 30 -12 q17 0 29 12 q37 37 37 165 q0 128 -37 165 q-12 12 -29 12 Z" /><glyph glyph-name="afii10049" unicode="&#x42f;" d="M20 0 l128 263 q-46 11 -77 48 q-34 43 -34 115 q0 106 58 170 q66 71 213 71 l186 0 l0 -667 l-180 0 l0 179 q0 58 4 88 l-103 -267 l-195 0 ZM314 358 l0 159 q-42 6 -68 -20 q-20 -20 -20 -58 q0 -39 22 -61 q22 -20 57 -20 l9 0 Z" /><glyph glyph-name="afii10065" unicode="&#x430;" d="M457 0 l-174 0 q1 13 3 39.5 q2 26.5 3 39.5 q-45 -89 -120 -89 q-42 0 -71.5 25 q-29.5 25 -44 65.5 q-14.5 40.5 -20.5 78.5 q-6 38 -6 77 q0 40 6.5 78 q6.5 38 21.5 76.5 q15 38.5 45.5 62.5 q30.5 24 72.5 24 q73 0 112 -84 q-1 8 -2 34 q-1 26 -3 40 l177 0 l0 -467 ZM281 254 q0 80 -36 80 q-44 0 -44 -117 q0 -84 39 -84 q7 0 13.5 3 q6.5 3 10.5 9 q4 6 7 12 q3 6 5 16.5 q2 10.5 3 17 q1 6.5 1.5 18.5 q0.5 12 0.5 17 q0 5 0 16 q0 11 0 12 Z" /><glyph glyph-name="afii10066" unicode="&#x431;" d="M327 551 l-35 -10 q-62 -18 -90 -45 q-40 -40 -41 -100 q13 34 43 54 q33 22 77 22 q78 0 125 -49 q58 -59 58 -174 q0 -132 -69 -202 q-57 -57 -156 -57 q-78 0 -129 46 q-80 73 -80 262 q0 101 16 180 q16 79 68 130 q18 18 43 32 q25 14 38.5 19 q13.5 5 41.5 14 q64 20 76 31 q16 14 17 36 l128 0 q0 -88 -36 -133 q-29 -37 -95 -56 ZM275 325 q-10 16 -28 16 q-18 0 -28 -16 q-21 -30 -21 -97 q0 -61 21 -91 q10 -16 28 -16 q18 0 28 16 q21 30 21 91 q0 67 -21 97 Z" /><glyph glyph-name="afii10067" unicode="&#x432;" d="M40 467 l202 0 q95 0 139 -28 q56 -36 56 -105 q0 -46 -26 -70 q-24 -22 -60 -24 q44 -3 72 -31 q29 -29 29 -74 q0 -70 -43 -103 q-40 -32 -111 -32 l-258 0 l0 467 ZM212 280 l5 0 q29 0 42 9 q16 11 16 33 q0 21 -15 30 q-11 7 -43 7 l-5 0 l0 -79 ZM212 108 l4 0 q28 0 41 7 q19 11 19 36 q0 21 -16 32 q-10 7 -44 7 l-4 0 l0 -82 Z" /><glyph glyph-name="afii10068" unicode="&#x433;" d="M341 327 l-128 0 l0 -327 l-173 0 l0 467 l301 0 l0 -140 Z" /><glyph glyph-name="afii10069" unicode="&#x434;" d="M87 467 l378 0 l0 -331 l53 0 l0 -251 l-138 0 l0 115 l-236 0 l0 -115 l-138 0 l0 251 q29 6 48 24 q21 20 27 52 q6 32 6 83 l0 172 ZM299 136 l0 195 l-61 0 l0 -77 q0 -43 -8 -67 q-10 -31 -34 -51 l103 0 Z" /><glyph glyph-name="afii10070" unicode="&#x435;" d="M279 158 l169 -1 q-18 -81 -72 -124 q-54 -43 -136 -43 q-104 0 -158.5 64.5 q-54.5 64.5 -54.5 170.5 q0 105 58 178 q58 73 160 73 q102 0 156 -71 q54 -71 54 -176 q0 -5 -0.5 -16 q-0.5 -11 -0.5 -16 l-254 0 q0 -72 40 -72 q32 0 39 33 ZM202 290 l81 0 q-2 59 -41 59 q-38 0 -40 -59 Z" /><glyph glyph-name="afii10072" unicode="&#x436;" d="M710 0 l-192 0 l-38 96 q-22 53 -40 120 l0 -216 l-168 0 l0 216 q-18 -67 -40 -120 l-38 -96 l-192 0 l116 239 l-109 228 l180 0 l42 -104 q25 -60 41 -118 l0 222 l168 0 l0 -222 q16 58 41 118 l42 104 l180 0 l-109 -228 l116 -239 Z" /><glyph glyph-name="afii10073" unicode="&#x437;" d="M89 303 l-63 121 q85 53 176 53 q79 0 125 -27 q64 -38 64 -111 q0 -44 -26 -70 q-25 -25 -62 -29 q47 -2 76 -29 q28 -26 28 -69 q0 -37 -19 -69.5 q-19 -32.5 -54 -53.5 q-50 -29 -128 -29 q-65 0 -114 19 q-35 13 -72 40 l65 125 q21 -25 41 -36 q23 -13 51 -13 q25 0 38 8 q14 8 14 21 q0 19 -27 25 q-17 4 -47 4 l-23 0 l0 109 l21 0 q33 0 47 4 q22 5 22 24 q0 29 -47 29 q-25 0 -49 -14 q-16 -10 -37 -32 Z" /><glyph glyph-name="afii10074" unicode="&#x438;" d="M40 467 l166 0 l0 -131 q0 -53 -7 -123 q16 49 35 90 l74 164 l158 0 l0 -467 l-166 0 l0 125 q0 53 6 129 q-13 -44 -35 -94 l-73 -160 l-158 0 l0 467 Z" /><glyph glyph-name="afii10075" unicode="&#x439;" d="M40 467 l166 0 l0 -131 q0 -53 -7 -123 q16 49 35 90 l74 164 l158 0 l0 -467 l-166 0 l0 125 q0 53 6 129 q-13 -44 -35 -94 l-73 -160 l-158 0 l0 467 ZM307 677 l115 -29 q-13 -65 -66 -99 q-40 -25 -102 -25 q-62 0 -102 25 q-53 34 -66 99 l115 29 q3 -28 17 -42 q12 -13 36 -13 q24 0 36 13 q14 14 17 42 Z" /><glyph glyph-name="afii10076" unicode="&#x43a;" d="M495 0 l-199 0 l-34 80 q-20 46 -49 123 l0 -203 l-173 0 l0 467 l173 0 l0 -221 q17 64 52 147 l31 74 l187 0 l-113 -231 l125 -236 Z" /><glyph glyph-name="afii10077" unicode="&#x43b;" d="M465 467 l0 -467 l-174 0 l0 327 l-60 0 l0 -104 q0 -144 -51 -195 q-39 -39 -108 -39 q-30 0 -68 10 l0 139 q10 -7 25 -7 q19 0 31 11 q20 20 20 89 l0 236 l385 0 Z" /><glyph glyph-name="afii10078" unicode="&#x43c;" d="M375 0 l-118 0 l-38 169 q-13 54 -18 107 q-3 -28 -4.5 -48 q-1.5 -20 -2 -36 q-0.5 -16 -1.5 -24 l-12 -168 l-167 0 l65 467 l182 0 l37 -167 q15 -63 18 -106 q4 42 18 106 l37 167 l182 0 l65 -467 l-167 0 l-12 168 q-5 51 -8 108 q-7 -59 -18 -108 l-38 -168 Z" /><glyph glyph-name="afii10079" unicode="&#x43d;" d="M213 467 l0 -159 l64 0 l0 159 l173 0 l0 -467 l-173 0 l0 168 l-64 0 l0 -168 l-173 0 l0 467 l173 0 Z" /><glyph glyph-name="afii10080" unicode="&#x43e;" d="M461 234 q0 -120 -68 -187 q-57 -57 -149 -57 q-92 0 -149 57 q-68 67 -68 187 q0 118 68 186 q57 57 149 57 q92 0 149 -57 q68 -68 68 -186 ZM272 330 q-10 16 -28 16 q-18 0 -28 -16 q-21 -30 -21 -97 q0 -66 21 -96 q10 -16 28 -16 q18 0 28 16 q21 30 21 96 q0 67 -21 97 Z" /><glyph glyph-name="afii10081" unicode="&#x43f;" d="M448 0 l-173 0 l0 327 l-62 0 l0 -327 l-173 0 l0 467 l408 0 l0 -467 Z" /><glyph glyph-name="afii10082" unicode="&#x440;" d="M213 467 l-4 -66 q20 37 44.5 56.5 q24.5 19.5 62.5 19.5 q42 0 73.5 -24.5 q31.5 -24.5 47.5 -63 q16 -38.5 23.5 -78 q7.5 -39.5 7.5 -78.5 q0 -40 -6.5 -78 q-6.5 -38 -22 -77.5 q-15.5 -39.5 -46.5 -63.5 q-31 -24 -73 -24 q-37 0 -62.5 18.5 q-25.5 18.5 -48.5 54.5 q4 -52 4 -77 l0 -201 l-173 0 l0 682 l173 0 ZM289 240 q0 94 -41 94 q-40 0 -40 -98 q0 -100 39 -100 q42 0 42 104 Z" /><glyph glyph-name="afii10083" unicode="&#x441;" d="M283 152 l0 -159 q-24 -3 -47 -3 q-98 0 -153.5 73 q-55.5 73 -55.5 173 q0 100 61.5 170.5 q61.5 70.5 159.5 70.5 q11 0 35 -2 l0 -152 q-77 -5 -77 -84 q0 -32 17.5 -59.5 q17.5 -27.5 47.5 -27.5 l12 0 Z" /><glyph glyph-name="afii10084" unicode="&#x442;" d="M351 327 l-84 0 l0 -327 l-173 0 l0 327 l-84 0 l0 140 l341 0 l0 -140 Z" /><glyph glyph-name="afii10085" unicode="&#x443;" d="M456 467 l-221 -682 l-178 0 l82 234 l-139 448 l174 0 q48 -190 55 -265 q19 128 28 164 l26 101 l173 0 Z" /><glyph glyph-name="afii10086" unicode="&#x444;" d="M239 -215 l0 208 q-92 2 -150 63 q-63 64 -63 180 q0 108 58 169 q58 63 155 69 l0 193 l170 0 l0 -193 q40 -2 76 -16.5 q36 -14.5 51 -26 q15 -11.5 25 -22.5 q61 -63 61 -174 q0 -114 -63 -179 q-62 -62 -150 -63 l0 -208 l-170 0 ZM394 334 l0 -201 q31 1 50 22 q24 27 24 79 q0 56 -26 80 q-20 18 -48 20 ZM254 133 l0 201 q-30 -2 -50 -22 q-24 -25 -24 -76 q0 -56 24 -81 q19 -21 50 -22 Z" /><glyph glyph-name="afii10087" unicode="&#x445;" d="M482 0 l-201 0 q-31 79 -38 110 q-17 -49 -49 -110 l-194 0 l142 240 l-134 227 l197 0 q12 -33 34 -101 q8 25 38 101 l192 0 l-138 -223 l151 -244 Z" /><glyph glyph-name="afii10088" unicode="&#x446;" d="M278 467 l174 0 l0 -327 l61 0 l0 -255 l-142 0 l0 115 l-331 0 l0 467 l174 0 l0 -327 l64 0 l0 327 Z" /><glyph glyph-name="afii10089" unicode="&#x447;" d="M269 0 l0 161 q-37 -10 -77 -10 q-74 0 -115 37 q-42 40 -42 125 l0 154 l170 0 l0 -130 q0 -26 7 -36 q9 -12 27 -12 q16 0 30 8 l0 170 l174 0 l0 -467 l-174 0 Z" /><glyph glyph-name="afii10090" unicode="&#x448;" d="M276 467 l170 0 l0 -327 l66 0 l0 327 l170 0 l0 -467 l-642 0 l0 467 l170 0 l0 -327 l66 0 l0 327 Z" /><glyph glyph-name="afii10091" unicode="&#x449;" d="M276 467 l170 0 l0 -327 l66 0 l0 327 l170 0 l0 -327 l61 0 l0 -255 l-142 0 l0 115 l-561 0 l0 467 l170 0 l0 -327 l66 0 l0 327 Z" /><glyph glyph-name="afii10092" unicode="&#x44a;" d="M262 301 l68 0 q93 0 136 -41 q40 -38 40 -104 q0 -72 -42 -112 q-45 -44 -133 -44 l-243 0 l0 327 l-78 0 l0 140 l252 0 l0 -166 ZM262 110 l6 0 q39 0 54 15 q10 10 10 27 q0 19 -10 28 q-14 13 -54 13 l-6 0 l0 -83 Z" /><glyph glyph-name="afii10093" unicode="&#x44b;" d="M663 0 l-174 0 l0 467 l174 0 l0 -467 ZM214 301 l64 0 q93 0 136 -41 q40 -38 40 -104 q0 -72 -42 -112 q-45 -44 -133 -44 l-239 0 l0 467 l174 0 l0 -166 ZM214 110 l6 0 q39 0 54 15 q10 10 10 27 q0 19 -10 28 q-14 13 -54 13 l-6 0 l0 -83 Z" /><glyph glyph-name="afii10094" unicode="&#x44c;" d="M214 301 l68 0 q93 0 136 -41 q40 -38 40 -104 q0 -72 -42 -112 q-45 -44 -133 -44 l-243 0 l0 467 l174 0 l0 -166 ZM214 110 l6 0 q39 0 54 15 q10 10 10 27 q0 19 -10 28 q-14 13 -54 13 l-6 0 l0 -83 Z" /><glyph glyph-name="afii10095" unicode="&#x44d;" d="M40 14 l0 137 q29 -29 77 -29 q35 0 56 19 q16 15 21 41 l-105 0 l0 106 l105 0 q-7 27 -24 41 q-20 16 -51 16 q-44 0 -79 -32 l0 140 q48 24 106 24 q91 0 151 -58 q68 -68 68 -185 q0 -122 -70 -190 q-54 -54 -146 -54 q-67 0 -109 24 Z" /><glyph glyph-name="afii10096" unicode="&#x44e;" d="M683 234 q0 -120 -68 -188 q-56 -56 -148 -56 q-95 0 -150 57 q-47 50 -55 123 l-53 0 l0 -170 l-169 0 l0 467 l169 0 l0 -161 l54 0 q9 70 56 117 q54 54 145 54 q95 0 151 -56 q68 -68 68 -187 ZM494 330 q-10 16 -28 16 q-18 0 -28 -16 q-21 -30 -21 -97 q0 -66 21 -96 q10 -16 28 -16 q18 0 28 16 q21 30 21 96 q0 67 -21 97 Z" /><glyph glyph-name="afii10097" unicode="&#x44f;" d="M30 0 l85 160 q-38 10 -62 39 q-25 32 -25 87 q0 86 47 132 q51 49 168 49 l200 0 l0 -467 l-174 0 l0 117 q0 7 3 64 q-4 -13 -21 -62 l-45 -119 l-176 0 ZM269 250 l0 95 l-4 0 q-32 0 -46 -10 q-19 -15 -19 -39 q0 -23 16 -35 q14 -11 48 -11 l5 0 Z" /><glyph glyph-name="afii10071" unicode="&#x451;" d="M279 158 l169 -1 q-18 -81 -72 -124 q-54 -43 -136 -43 q-104 0 -158.5 64.5 q-54.5 64.5 -54.5 170.5 q0 105 58 178 q58 73 160 73 q102 0 156 -71 q54 -71 54 -176 q0 -5 -0.5 -16 q-0.5 -11 -0.5 -16 l-254 0 q0 -72 40 -72 q32 0 39 33 ZM202 290 l81 0 q-2 59 -41 59 q-38 0 -40 -59 ZM413 602 q0 -29 -21.5 -50.5 q-21.5 -21.5 -50.5 -21.5 q-30 0 -52 21.5 q-22 21.5 -22 51.5 q0 30 21.5 50.5 q21.5 20.5 51.5 20.5 q30 0 51.5 -21 q21.5 -21 21.5 -51 ZM221 602 q0 -29 -21.5 -50.5 q-21.5 -21.5 -50.5 -21.5 q-30 0 -52 21.5 q-22 21.5 -22 51.5 q0 30 21.5 50.5 q21.5 20.5 51.5 20.5 q30 0 51.5 -21 q21.5 -21 21.5 -51 Z" /><glyph glyph-name="afii10099" unicode="&#x452;" d="M245 499 l0 -74 q0 -29 -4 -90 q15 40 39 64 q35 36 85 36 q48 0 78 -32 q42 -44 42 -159 l0 -237 q0 -128 -49 -179 q-42 -43 -124 -43 q-38 0 -75 10 l0 145 q14 -15 33 -15 q19 0 29 13 q10 12 10 49 l0 232 q0 23 -7 32 q-8 11 -21 11 q-15 0 -24 -13 q-12 -16 -12 -48 l0 -201 l-174 0 l0 499 l-61 0 l0 105 l61 0 l0 125 l173 0 l0 -125 l121 0 l0 -105 l-120 0 Z" /><glyph glyph-name="afii10100" unicode="&#x453;" d="M341 327 l-128 0 l0 -327 l-173 0 l0 467 l301 0 l0 -140 ZM329 678 l-88 -148 l-99 0 l47 148 l140 0 Z" /><glyph glyph-name="afii10101" unicode="&#x454;" d="M351 151 l0 -137 q-42 -24 -109 -24 q-92 0 -146 54 q-70 68 -70 190 q0 117 68 185 q60 58 153 58 q58 0 104 -24 l0 -140 q-30 32 -76 32 q-30 0 -51 -16 q-20 -17 -27 -41 l105 0 l0 -106 l-105 0 q4 -24 23 -41 q23 -19 57 -19 q45 0 74 29 Z" /><glyph glyph-name="afii10102" unicode="&#x455;" d="M370 439 l-60 -127 q-41 41 -71 41 q-27 0 -27 -22 q0 -18 26 -32 q26 -14 56.5 -24.5 q30.5 -10.5 56.5 -41.5 q26 -31 26 -79 q0 -76 -55 -120 q-55 -44 -133 -44 q-75 0 -166 49 l63 129 q47 -49 87 -49 q13 0 23.5 6.5 q10.5 6.5 10.5 18.5 q0 15 -26.5 28 q-26.5 13 -57.5 24.5 q-31 11.5 -57.5 42.5 q-26.5 31 -26.5 78 q0 74 58 117 q58 43 134 43 q63 0 139 -38 Z" /><glyph glyph-name="afii10103" unicode="&#x456;" d="M228 613 q0 -42 -29.5 -72 q-29.5 -30 -71.5 -30 q-42 0 -71.5 30 q-29.5 30 -29.5 72 q0 41 30 70.5 q30 29.5 71 29.5 q41 0 71 -29.5 q30 -29.5 30 -70.5 ZM213 0 l-173 0 l0 467 l173 0 l0 -467 Z" /><glyph glyph-name="afii10104" unicode="&#x457;" d="M213 0 l-173 0 l0 467 l173 0 l0 -467 ZM251 613 q0 -33 -16 -56 q-16 -23 -39 -23 q-23 0 -39 22.5 q-16 22.5 -16 57.5 q0 34 16 56.5 q16 22.5 38 22.5 q23 0 39.5 -23 q16.5 -23 16.5 -57 ZM97.5 670 q15.5 -23 15.5 -57 q0 -34 -15.5 -56.5 q-15.5 -22.5 -38.5 -22.5 q-24 0 -40.5 22.5 q-16.5 22.5 -16.5 57.5 q0 34 16.5 56.5 q16.5 22.5 40.5 22.5 q23 0 38.5 -23 Z" /><glyph glyph-name="afii10105" unicode="&#x458;" d="M198 684 q30 -29 30 -71 q0 -42 -29.5 -72 q-29.5 -30 -71.5 -30 q-42 0 -71.5 30 q-29.5 30 -29.5 72 q0 41 29.5 70.5 q29.5 29.5 70.5 29.5 q42 0 72 -29 ZM214 -215 l-173 0 l0 682 l173 0 l0 -682 Z" /><glyph glyph-name="afii10106" unicode="&#x459;" d="M461 301 l64 0 q93 0 136 -41 q40 -38 40 -104 q0 -72 -42 -112 q-45 -44 -133 -44 l-235 0 l0 327 l-60 0 l0 -104 q0 -144 -51 -195 q-39 -39 -108 -39 q-30 0 -68 10 l0 139 q10 -7 25 -7 q19 0 31 11 q20 20 20 89 l0 236 l381 0 l0 -166 ZM461 110 l6 0 q39 0 54 15 q10 10 10 27 q0 19 -10 28 q-14 13 -54 13 l-6 0 l0 -83 Z" /><glyph glyph-name="afii10107" unicode="&#x45a;" d="M451 301 l68 0 q93 0 136 -41 q40 -38 40 -104 q0 -72 -42 -112 q-45 -44 -133 -44 l-243 0 l0 193 l-64 0 l0 -193 l-173 0 l0 467 l173 0 l0 -166 l64 0 l0 166 l174 0 l0 -166 ZM451 110 l6 0 q39 0 54 15 q10 10 10 27 q0 19 -10 28 q-14 13 -54 13 l-6 0 l0 -83 Z" /><glyph glyph-name="afii10108" unicode="&#x45b;" d="M482 0 l-174 0 l0 205 q0 57 -27 57 q-37 0 -37 -69 l0 -193 l-173 0 l0 499 l-61 0 l0 105 l61 0 l0 125 l173 0 l0 -125 l121 0 l0 -105 l-121 0 l0 -57 q0 -14 -4 -106 q42 99 123 99 q62 0 90.5 -46.5 q28.5 -46.5 28.5 -112.5 l0 -276 Z" /><glyph glyph-name="afii10109" unicode="&#x45c;" d="M495 0 l-199 0 l-34 80 q-20 46 -49 123 l0 -203 l-173 0 l0 467 l173 0 l0 -221 q17 64 52 147 l31 74 l187 0 l-113 -231 l125 -236 ZM394 678 l-88 -148 l-99 0 l47 148 l140 0 Z" /><glyph glyph-name="afii10110" unicode="&#x45e;" d="M456 467 l-221 -682 l-178 0 l82 234 l-139 448 l174 0 q48 -190 55 -265 q19 128 28 164 l26 101 l173 0 ZM286 677 l115 -29 q-13 -65 -66 -99 q-40 -25 -102 -25 q-62 0 -102 25 q-53 34 -66 99 l115 29 q3 -28 17 -42 q12 -13 36 -13 q24 0 36 13 q14 14 17 42 Z" /><glyph glyph-name="afii10193" unicode="&#x45f;" d="M278 467 l174 0 l0 -467 l-135 0 l0 -115 l-142 0 l0 115 l-135 0 l0 467 l174 0 l0 -327 l64 0 l0 327 Z" /><glyph glyph-name="afii10146" unicode="&#x462;" d="M316 0 l-212 0 l0 489 l-84 0 l0 130 l84 0 l0 85 l180 0 l0 -85 l104 0 l0 -130 l-104 0 l0 -73 l10 0 q138 0 198 -60 q54 -54 54 -149 q0 -99 -57 -152 q-58 -55 -173 -55 ZM284 278 l0 -133 q4 -1 15 -1 q31 0 47 15 q20 18 20 52 q0 32 -18 50 q-18 18 -51 18 q-9 0 -13 -1 Z" /><glyph glyph-name="afii10194" unicode="&#x463;" d="M254 343 l0 -46 l68 0 q94 0 136 -41 q40 -38 40 -104 q0 -75 -48 -115 q-44 -37 -127 -37 l-243 0 l0 343 l-60 0 l0 124 l60 0 l0 200 l174 0 l0 -200 l97 0 l0 -124 l-97 0 ZM254 110 l6 0 q39 0 54 15 q10 10 10 27 q0 19 -10 28 q-14 13 -54 13 l-6 0 l0 -83 Z" /><glyph glyph-name="afii10147" unicode="&#x472;" d="M537 334 q0 -193 -98 -286 q-63 -60 -155 -60 q-93 0 -156 60 q-98 93 -98 286 q0 191 98 285 q63 60 156 60 q92 0 155 -60 q98 -94 98 -285 ZM222 403 l123 0 q-3 75 -29 100 q-13 12 -32 12 q-20 0 -32 -12 q-27 -27 -30 -100 ZM346 264 l-125 0 q0 -28 9 -58.5 q9 -30.5 24 -43.5 q11 -10 29 -10 q17 0 31 12 q30 27 32 100 Z" /><glyph glyph-name="afii10195" unicode="&#x473;" d="M461 234 q0 -120 -68 -187 q-57 -57 -149 -57 q-92 0 -149 57 q-68 67 -68 187 q0 118 68 186 q57 57 149 57 q92 0 149 -57 q68 -68 68 -186 ZM195 288 l98 0 q-2 37 -22 57 q-12 12 -28 12 q-16 0 -26 -10 q-20 -18 -22 -59 ZM291 182 l-94 0 q2 -44 22 -62 q10 -10 25 -10 q15 0 25 10 q20 18 22 62 Z" /><glyph glyph-name="afii10148" unicode="&#x474;" d="M518 667 l-182 -667 l-183 0 l-153 667 l189 0 q52 -298 63 -435 q6 66 10 104 q8 57 18 110 l42 221 l196 0 Z" /><glyph glyph-name="afii10196" unicode="&#x475;" d="M446 467 l-136 -467 l-181 0 l-129 467 l175 0 q3 -17 15.5 -79 q12.5 -62 18.5 -96 q2 -13 13 -120 q11 87 53 295 l171 0 Z" /><glyph glyph-name="afii10050" unicode="&#x490;" d="M47 667 l215 0 l0 142 l160 0 l0 -299 l-195 0 l0 -510 l-180 0 l0 667 Z" /><glyph glyph-name="afii10098" unicode="&#x491;" d="M40 467 l211 0 l0 140 l142 0 l0 -280 l-180 0 l0 -327 l-173 0 l0 467 Z" /><glyph glyph-name="uni0492" unicode="&#x492;" d="M399 510 l-138 0 l0 -97 l128 0 l0 -151 l-128 0 l0 -262 l-180 0 l0 262 l-66 0 l0 151 l66 0 l0 254 l318 0 l0 -157 Z" /><glyph glyph-name="uni0493" unicode="&#x493;" d="M371 467 l0 -140 l-128 0 l0 -62 l100 0 l0 -140 l-100 0 l0 -125 l-173 0 l0 125 l-50 0 l0 140 l50 0 l0 202 l301 0 Z" /><glyph glyph-name="uni0494" unicode="&#x494;" d="M375 510 l-148 0 l0 -68 q0 -36 -5 -64 q50 33 108 33 q69 0 112 -42 q59 -58 59 -168 q0 -120 -59 -178 q-40 -39 -107 -39 q-33 0 -73 14 l14 142 q10 -9 23 -9 q10 0 17 7 q13 12 13 54 q0 35 -15 51 q-12 14 -34 14 q-22 0 -53 -17 l0 -240 l-180 0 l0 667 l328 0 l0 -157 Z" /><glyph glyph-name="uni0495" unicode="&#x495;" d="M349 327 l-136 0 l0 -72 l15 0 q129 0 185 -69 q42 -53 42 -144 q0 -127 -59 -191 q-58 -63 -184 -66 l0 136 q30 2 50 20 q27 25 27 92 q0 56 -22 80 q-19 22 -54 22 l0 -135 l-173 0 l0 467 l309 0 l0 -140 Z" /><glyph glyph-name="uni0496" unicode="&#x496;" d="M185 667 l105 -300 l-5 300 l170 0 l-5 -300 l105 300 l178 0 l-138 -322 l72 -182 l74 0 l0 -293 l-156 0 l0 130 l-35 0 l-100 321 l5 -321 l-170 0 l5 321 l-100 -321 l-182 0 l137 345 l-140 322 l180 0 Z" /><glyph glyph-name="uni0497" unicode="&#x497;" d="M523 467 l180 0 l-109 -228 l50 -99 l61 0 l0 -255 l-142 0 l0 115 l-43 0 l-40 96 q-22 53 -40 120 l0 -216 l-168 0 l0 216 q-18 -67 -40 -120 l-38 -96 l-192 0 l116 239 l-109 228 l180 0 l42 -104 q25 -60 41 -118 l0 222 l168 0 l0 -222 q16 58 41 118 l42 104 Z" /><glyph glyph-name="uni0498" unicode="&#x498;" d="M50 452 l0 183 q67 44 159 44 q105 0 163 -58 q53 -51 53 -137 q0 -67 -35 -104 q-32 -34 -77 -40 q55 -4 91 -40 q39 -39 39 -106 q0 -80 -45 -136 q-37 -45 -90 -58 l0 -130 l-160 0 l0 124 q-52 6 -98 31 l0 198 q26 -33 54 -50 q32 -20 71 -20 q40 0 58 18 q15 15 15 35 q0 28 -24 42 q-20 12 -69 12 l-29 0 l0 153 l31 0 q46 0 66 13 q20 13 20 36 q0 24 -20 39 q-19 13 -48 13 q-39 0 -72 -19 q-29 -17 -53 -43 Z" /><glyph glyph-name="uni0499" unicode="&#x499;" d="M89 303 l-63 121 q85 53 176 53 q79 0 125 -27 q64 -38 64 -111 q0 -44 -26 -70 q-25 -25 -62 -29 q47 -2 76 -29 q28 -26 28 -69 q0 -57 -40 -99 q-28 -30 -76 -43 l0 -115 l-142 0 l0 110 q-70 10 -129 54 l65 125 q21 -25 41 -36 q23 -13 51 -13 q25 0 38 8 q14 8 14 21 q0 19 -27 25 q-17 4 -47 4 l-23 0 l0 109 l21 0 q33 0 47 4 q22 5 22 24 q0 29 -47 29 q-25 0 -49 -14 q-16 -10 -37 -32 Z" /><glyph glyph-name="uni049A" unicode="&#x49a;" d="M47 667 l180 0 l-5 -298 l106 298 l190 0 l-142 -322 l85 -182 l79 0 l0 -293 l-156 0 l0 130 l-42 0 l-120 319 l5 -319 l-180 0 l0 667 Z" /><glyph glyph-name="uni049B" unicode="&#x49b;" d="M296 467 l187 0 l-113 -231 l54 -96 l61 0 l0 -255 l-142 0 l0 115 l-44 0 l-37 80 q-25 57 -49 123 l0 -203 l-173 0 l0 467 l173 0 l0 -221 q17 64 52 147 l31 74 Z" /><glyph glyph-name="uni049C" unicode="&#x49c;" d="M221 293 l6 -293 l-180 0 l0 667 l180 0 l-5 -274 l43 0 l0 150 l87 0 l0 -170 l101 294 l186 0 l-135 -322 l137 -345 l-190 0 l-99 317 l0 -158 l-87 0 l0 134 l-44 0 Z" /><glyph glyph-name="uni049D" unicode="&#x49d;" d="M210 181 l0 -181 l-170 0 l0 467 l170 0 l0 -186 l33 0 l0 95 l72 0 l0 -123 q17 75 45 140 l31 74 l178 0 l-109 -231 l115 -236 l-184 0 l-34 80 q-27 67 -42 116 l0 -118 l-72 0 l0 103 l-33 0 Z" /><glyph glyph-name="uni04A0" unicode="&#x4a0;" d="M632 0 l-194 0 l-120 319 l5 -319 l-180 0 l0 510 l-128 0 l0 157 l308 0 l-5 -298 l106 298 l190 0 l-142 -322 l160 -345 Z" /><glyph glyph-name="uni04A1" unicode="&#x4a1;" d="M575 0 l-199 0 l-34 80 q-20 46 -49 123 l0 -203 l-173 0 l0 327 l-110 0 l0 140 l283 0 l0 -221 q17 64 52 147 l31 74 l187 0 l-113 -231 l125 -236 Z" /><glyph glyph-name="uni04A2" unicode="&#x4a2;" d="M313 667 l180 0 l0 -504 l70 0 l0 -292 l-160 0 l0 129 l-90 0 l0 268 l-86 0 l0 -268 l-180 0 l0 667 l180 0 l0 -236 l86 0 l0 236 Z" /><glyph glyph-name="uni04A3" unicode="&#x4a3;" d="M213 467 l0 -159 l64 0 l0 159 l173 0 l0 -327 l61 0 l0 -255 l-142 0 l0 115 l-92 0 l0 168 l-64 0 l0 -168 l-173 0 l0 467 l173 0 Z" /><glyph glyph-name="uni04A4" unicode="&#x4a4;" d="M615 510 l-122 0 l0 -510 l-180 0 l0 268 l-86 0 l0 -268 l-180 0 l0 667 l180 0 l0 -236 l86 0 l0 236 l302 0 l0 -157 Z" /><glyph glyph-name="uni04A5" unicode="&#x4a5;" d="M570 327 l-120 0 l0 -327 l-173 0 l0 168 l-64 0 l0 -168 l-173 0 l0 467 l173 0 l0 -159 l64 0 l0 159 l293 0 l0 -140 Z" /><glyph glyph-name="uni04AA" unicode="&#x4aa;" d="M422 205 l-11 -193 q-19 -10 -35 -12 l0 -130 l-160 0 l0 132 q-67 24 -114 83 q-72 92 -72 246 q0 176 99 273 q76 75 200 75 q47 0 85 -17 l0 -190 q-37 40 -83 40 q-40 0 -67 -24 q-50 -45 -50 -154 q0 -100 43 -143 q29 -29 73 -29 q47 0 92 43 Z" /><glyph glyph-name="uni04AB" unicode="&#x4ab;" d="M287 152 l0 -159 q-9 -3 -20 -3 l0 -105 l-136 0 l0 113 q-52 32 -78 90 q-26 57 -26 138 q0 119 69 189 q62 62 143 62 q6 0 21.5 -1 q15.5 -1 26.5 -1 l0 -152 q-34 0 -57 -21 q-24 -22 -24 -63 q0 -45 27 -70 q17 -17 44 -17 l10 0 Z" /><glyph glyph-name="uni04AE" unicode="&#x4ae;" d="M500 667 l-154 -385 l0 -282 l-180 0 l0 282 l-166 385 l188 0 q52 -161 63 -206 q29 106 63 206 l186 0 Z" /><glyph glyph-name="uni04AF" unicode="&#x4af;" d="M0 467 l180 0 l26 -115 q21 -90 29 -158 q12 83 29 160 l25 113 l180 0 l-149 -448 l0 -234 l-173 0 l0 234 l-147 448 Z" /><glyph glyph-name="uni04B0" unicode="&#x4b0;" d="M500 667 l-154 -367 l0 -26 l118 0 l0 -143 l-118 0 l0 -131 l-180 0 l0 131 l-118 0 l0 143 l118 0 l0 26 l-166 367 l188 0 q52 -161 63 -206 q29 106 63 206 l186 0 Z" /><glyph glyph-name="uni04B1" unicode="&#x4b1;" d="M0 467 l180 0 l26 -110 q20 -86 29 -158 q14 95 29 160 l25 108 l180 0 l-149 -397 l0 -18 l106 0 l0 -105 l-106 0 l0 -162 l-173 0 l0 162 l-105 0 l0 105 l105 0 l0 18 l-147 397 Z" /><glyph glyph-name="uni04B2" unicode="&#x4b2;" d="M303 667 l202 0 l-152 -321 l87 -183 l74 0 l0 -292 l-156 0 l0 129 l-41 0 q-9 24 -24 70 q-15 46 -18 54 q-15 44 -17 55 q-3 -10 -9 -29.5 q-6 -19.5 -9 -29.5 q-5 -17 -44 -120 l-196 0 l162 346 l-153 321 l200 0 q3 -11 22.5 -69 q19.5 -58 28.5 -89 q7 32 43 158 Z" /><glyph glyph-name="uni04B3" unicode="&#x4b3;" d="M205 467 q12 -33 34 -101 q8 25 38 101 l192 0 l-138 -223 l67 -104 l64 0 l0 -255 l-142 0 l0 115 l-35 0 q-30 61 -42 110 q-17 -49 -49 -110 l-194 0 l142 240 l-134 227 l197 0 Z" /><glyph glyph-name="uni04B6" unicode="&#x4b6;" d="M392 0 l-90 0 l0 265 q-51 -11 -90 -11 q-74 0 -119 39 q-33 29 -43 67.5 q-10 38.5 -10 91.5 l0 215 l176 0 l0 -193 q0 -32 13 -46 q14 -14 38 -14 q18 0 35 7 l0 246 l180 0 l0 -504 l70 0 l0 -292 l-160 0 l0 129 Z" /><glyph glyph-name="uni04B7" unicode="&#x4b7;" d="M362 0 l-93 0 l0 161 q-37 -10 -77 -10 q-74 0 -115 37 q-42 40 -42 125 l0 154 l170 0 l0 -130 q0 -26 7 -36 q9 -12 27 -12 q16 0 30 8 l0 170 l174 0 l0 -327 l61 0 l0 -255 l-142 0 l0 115 Z" /><glyph glyph-name="uni04B8" unicode="&#x4b8;" d="M372 0 l0 265 q-19 -6 -38 -9 l0 -117 l-83 0 l0 113 q-116 -4 -170 54 q-41 46 -41 131 l0 230 l172 0 l0 -207 q0 -25 11 -36 q9 -9 28 -9 l0 136 l83 0 l0 -138 q20 2 38 9 l0 245 l180 0 l0 -667 l-180 0 Z" /><glyph glyph-name="uni04B9" unicode="&#x4b9;" d="M333 0 l0 165 q-20 -8 -33 -9 l0 -86 l-72 0 l0 80 l-7 0 q-107 0 -148 43 q-38 39 -38 120 l0 154 l160 0 l0 -136 q0 -30 9 -39 q9 -9 24 -9 l0 103 l72 0 l0 -102 q17 0 33 10 l0 173 l174 0 l0 -467 l-174 0 Z" /><glyph glyph-name="uni04BA" unicode="&#x4ba;" d="M227 667 l0 -247 q51 11 90 11 q74 0 119 -39 q33 -29 43 -67.5 q10 -38.5 10 -91.5 l0 -233 l-176 0 l0 211 q0 32 -13 46 q-14 14 -38 14 q-18 0 -35 -7 l0 -264 l-180 0 l0 667 l180 0 Z" /><glyph glyph-name="uni04BB" unicode="&#x4bb;" d="M451 0 l-174 0 l0 247 q0 57 -27 57 q-37 0 -37 -69 l0 -235 l-173 0 l0 729 l173 0 l0 -261 q0 -30 -4 -90 q42 99 123 99 q62 0 90.5 -46.5 q28.5 -46.5 28.5 -112.5 l0 -318 Z" /><glyph glyph-name="uni04C0" unicode="&#x4c0;" d="M213 0 l-173 0 l0 667 l173 0 l0 -667 Z" /><glyph glyph-name="uni04C1" unicode="&#x4c1;" d="M732 0 l-182 0 l-100 321 l5 -321 l-170 0 l5 321 l-100 -321 l-182 0 l137 345 l-140 322 l180 0 l105 -300 l-5 300 l170 0 l-5 -300 l105 300 l178 0 l-138 -322 l137 -345 ZM435 874 l126 -35 q-15 -65 -69 -99 q-44 -29 -123 -29 q-79 0 -123 29 q-54 34 -69 99 l126 35 q4 -28 22 -43 q17 -13 44 -13 q28 0 44 13 q16 13 22 43 Z" /><glyph glyph-name="uni04C2" unicode="&#x4c2;" d="M710 0 l-192 0 l-38 96 q-22 53 -40 120 l0 -216 l-168 0 l0 216 q-18 -67 -40 -120 l-38 -96 l-192 0 l116 239 l-109 228 l180 0 l42 -104 q25 -60 41 -118 l0 222 l168 0 l0 -222 q16 58 41 118 l42 104 l180 0 l-109 -228 l116 -239 ZM409 677 l115 -29 q-13 -65 -66 -99 q-40 -25 -102 -25 q-62 0 -102 25 q-53 34 -66 99 l115 29 q3 -28 17 -42 q12 -13 36 -13 q24 0 36 13 q14 14 17 42 Z" /><glyph glyph-name="uni04C3" unicode="&#x4c3;" d="M47 667 l180 0 l-5 -286 l106 286 l186 0 l-120 -271 q51 -8 86 -43 q24 -24 36.5 -63.5 q12.5 -39.5 14 -64.5 q1.5 -25 1.5 -65 l0 -65 q0 -154 -65 -216 q-41 -39 -119 -39 q-47 0 -86 14 l14 142 q14 -9 29 -9 q15 0 27 10 q20 19 20 84 l0 66 q0 73 -20 98 q-15 19 -42 19 q-27 0 -63 -20 l0 -244 l-180 0 l0 667 Z" /><glyph glyph-name="uni04C4" unicode="&#x4c4;" d="M40 467 l173 0 l0 -221 q17 64 52 147 l31 74 l187 0 l-117 -237 q50 -15 79 -61 q28 -45 28 -123 q0 -133 -59 -195 q-61 -64 -192 -66 l0 136 q29 0 50 19 q27 26 27 100 q0 61 -25 84 q-22 19 -61 19 l0 -143 l-173 0 l0 467 Z" /><glyph glyph-name="uni04C7" unicode="&#x4c7;" d="M313 667 l180 0 l0 -708 q0 -95 -40 -135 q-37 -37 -122 -37 q-45 0 -85 12 l0 139 q15 -12 31 -12 q17 0 27 12 q9 12 9 58 l0 272 l-86 0 l0 -268 l-180 0 l0 667 l180 0 l0 -236 l86 0 l0 236 Z" /><glyph glyph-name="uni04C8" unicode="&#x4c8;" d="M213 467 l0 -159 l64 0 l0 159 l173 0 l0 -518 q0 -95 -40 -131 q-36 -33 -116 -33 q-44 0 -78 10 l0 125 q10 -7 24 -7 q19 0 29 12 q8 11 8 37 l0 206 l-64 0 l0 -168 l-173 0 l0 467 l173 0 Z" /><glyph glyph-name="uni04D0" unicode="&#x4d0;" d="M527 0 l-186 0 l-14 85 l-121 0 l-15 -85 l-186 0 l161 667 l220 0 l141 -667 ZM230 227 l76 0 q-23 155 -34 280 q-2 -15 -5.5 -47 q-3.5 -32 -5.5 -47 q-15 -103 -31 -186 ZM332 874 l126 -35 q-15 -65 -69 -99 q-44 -29 -123 -29 q-79 0 -123 29 q-54 34 -69 99 l126 35 q4 -28 22 -43 q17 -13 44 -13 q28 0 44 13 q16 13 22 43 Z" /><glyph glyph-name="uni04D1" unicode="&#x4d1;" d="M457 0 l-174 0 q1 13 3 39.5 q2 26.5 3 39.5 q-45 -89 -120 -89 q-42 0 -71.5 25 q-29.5 25 -44 65.5 q-14.5 40.5 -20.5 78.5 q-6 38 -6 77 q0 40 6.5 78 q6.5 38 21.5 76.5 q15 38.5 45.5 62.5 q30.5 24 72.5 24 q73 0 112 -84 q-1 8 -2 34 q-1 26 -3 40 l177 0 l0 -467 ZM281 254 q0 80 -36 80 q-44 0 -44 -117 q0 -84 39 -84 q7 0 13.5 3 q6.5 3 10.5 9 q4 6 7 12 q3 6 5 16.5 q2 10.5 3 17 q1 6.5 1.5 18.5 q0.5 12 0.5 17 q0 5 0 16 q0 11 0 12 ZM314 677 l115 -29 q-13 -65 -66 -99 q-40 -25 -102 -25 q-62 0 -102 25 q-53 34 -66 99 l115 29 q3 -28 17 -42 q12 -13 36 -13 q24 0 36 13 q14 14 17 42 Z" /><glyph glyph-name="uni04D2" unicode="&#x4d2;" d="M527 0 l-186 0 l-14 85 l-121 0 l-15 -85 l-186 0 l161 667 l220 0 l141 -667 ZM230 227 l76 0 q-23 155 -34 280 q-2 -15 -5.5 -47 q-3.5 -32 -5.5 -47 q-15 -103 -31 -186 ZM435 792 q0 -29 -21.5 -50.5 q-21.5 -21.5 -50.5 -21.5 q-30 0 -52 21.5 q-22 21.5 -22 51.5 q0 30 21.5 50.5 q21.5 20.5 51.5 20.5 q30 0 51.5 -21 q21.5 -21 21.5 -51 ZM243 792 q0 -29 -21.5 -50.5 q-21.5 -21.5 -50.5 -21.5 q-30 0 -52 21.5 q-22 21.5 -22 51.5 q0 30 21.5 50.5 q21.5 20.5 51.5 20.5 q30 0 51.5 -21 q21.5 -21 21.5 -51 Z" /><glyph glyph-name="uni04D3" unicode="&#x4d3;" d="M457 0 l-174 0 q1 13 3 39.5 q2 26.5 3 39.5 q-45 -89 -120 -89 q-42 0 -71.5 25 q-29.5 25 -44 65.5 q-14.5 40.5 -20.5 78.5 q-6 38 -6 77 q0 40 6.5 78 q6.5 38 21.5 76.5 q15 38.5 45.5 62.5 q30.5 24 72.5 24 q73 0 112 -84 q-1 8 -2 34 q-1 26 -3 40 l177 0 l0 -467 ZM281 254 q0 80 -36 80 q-44 0 -44 -117 q0 -84 39 -84 q7 0 13.5 3 q6.5 3 10.5 9 q4 6 7 12 q3 6 5 16.5 q2 10.5 3 17 q1 6.5 1.5 18.5 q0.5 12 0.5 17 q0 5 0 16 q0 11 0 12 ZM434 602 q0 -29 -21.5 -50.5 q-21.5 -21.5 -50.5 -21.5 q-30 0 -52 21.5 q-22 21.5 -22 51.5 q0 30 21.5 50.5 q21.5 20.5 51.5 20.5 q30 0 51.5 -21 q21.5 -21 21.5 -51 ZM242 602 q0 -29 -21.5 -50.5 q-21.5 -21.5 -50.5 -21.5 q-30 0 -52 21.5 q-22 21.5 -22 51.5 q0 30 21.5 50.5 q21.5 20.5 51.5 20.5 q30 0 51.5 -21 q21.5 -21 21.5 -51 Z" /><glyph glyph-name="uni04D4" unicode="&#x4d4;" d="M585 0 l-256 0 l-12 85 l-116 0 l-15 -85 l-186 0 l154 667 l431 0 l0 -157 l-179 0 l15 -97 l150 0 l0 -151 l-124 0 l18 -102 l120 0 l0 -160 ZM223 223 l75 0 q-29 206 -35 283 q-14 -118 -40 -283 Z" /><glyph glyph-name="uni04D5" unicode="&#x4d5;" d="M78 321 l0 135 q79 21 139 21 q89 0 144 -46 q64 46 134 46 q102 0 157.5 -71 q55.5 -71 55.5 -176 q0 -21 -1 -32 l-255 0 q3 -80 46 -80 q27 0 39 35 l165 -3 q-23 -87 -77 -124 q-51 -36 -132 -36 q-77 0 -138 48 q-70 -48 -151 -48 q-74 0 -125.5 44.5 q-51.5 44.5 -51.5 117.5 q0 72 47.5 110.5 q47.5 38.5 121.5 38.5 q41 0 89 -10 q-8 57 -93 57 q-60 0 -114 -27 ZM452 291 l87 0 q-7 65 -45 65 q-16 0 -25.5 -12 q-9.5 -12 -12 -23.5 q-2.5 -11.5 -4.5 -29.5 ZM273.5 120 q12.5 11 12.5 30 q0 19 -13 30 q-13 11 -33 11 q-19 0 -32 -11.5 q-13 -11.5 -13 -30.5 q0 -20 13.5 -30 q13.5 -10 33.5 -10 q19 0 31.5 11 Z" /><glyph glyph-name="uni04D6" unicode="&#x4d6;" d="M381 0 l-334 0 l0 667 l334 0 l0 -157 l-154 0 l0 -97 l138 0 l0 -151 l-138 0 l0 -102 l154 0 l0 -160 ZM275 874 l126 -35 q-15 -65 -69 -99 q-44 -29 -123 -29 q-79 0 -123 29 q-54 34 -69 99 l126 35 q4 -28 22 -43 q17 -13 44 -13 q28 0 44 13 q16 13 22 43 Z" /><glyph glyph-name="uni04D7" unicode="&#x4d7;" d="M279 158 l169 -1 q-18 -81 -72 -124 q-54 -43 -136 -43 q-104 0 -158.5 64.5 q-54.5 64.5 -54.5 170.5 q0 105 58 178 q58 73 160 73 q102 0 156 -71 q54 -71 54 -176 q0 -5 -0.5 -16 q-0.5 -11 -0.5 -16 l-254 0 q0 -72 40 -72 q32 0 39 33 ZM202 290 l81 0 q-2 59 -41 59 q-38 0 -40 -59 ZM304 677 l115 -29 q-13 -65 -66 -99 q-40 -25 -102 -25 q-62 0 -102 25 q-53 34 -66 99 l115 29 q3 -28 17 -42 q12 -13 36 -13 q24 0 36 13 q14 14 17 42 Z" /><glyph glyph-name="uni04D8" unicode="&#x4d8;" d="M30 385 l310 0 q-7 84 -32 115 q-15 18 -39 18 q-19 0 -35 -14 q-18 -18 -23 -54 l-175 55 q26 72 82 120 q64 54 155 54 q98 0 160 -62 q43 -43 68 -117.5 q25 -74.5 25 -160.5 q0 -192 -87 -283 q-64 -68 -168 -68 q-96 0 -156 64 q-85 93 -85 306 l0 27 ZM340 253 l-129 0 q3 -68 27 -91 q13 -13 36 -13 q22 0 36 15 q28 28 30 89 Z" /><glyph glyph-name="afii10846" unicode="&#x4d9;" d="M197 308 l-158 38 q20 56 66 91 q52 39 134 39 q97 0 151 -54 q65 -65 65 -180 q0 -125 -75 -197 q-56 -55 -142 -55 q-90 0 -144 56 q-76 79 -66 223 l254 0 q0 46 -16 62 q-10 10 -27 10 q-15 0 -27 -8 q-12 -8 -15 -25 ZM280 176 l-81 0 q0 -31 15 -47 q11 -12 26 -12 q14 0 24 10 q16 16 16 49 Z" /><glyph glyph-name="uni04DA" unicode="&#x4da;" d="M30 385 l310 0 q-7 84 -32 115 q-15 18 -39 18 q-19 0 -35 -14 q-18 -18 -23 -54 l-175 55 q26 72 82 120 q64 54 155 54 q98 0 160 -62 q43 -43 68 -117.5 q25 -74.5 25 -160.5 q0 -192 -87 -283 q-64 -68 -168 -68 q-96 0 -156 64 q-85 93 -85 306 l0 27 ZM340 253 l-129 0 q3 -68 27 -91 q13 -13 36 -13 q22 0 36 15 q28 28 30 89 ZM439 792 q0 -29 -21.5 -50.5 q-21.5 -21.5 -50.5 -21.5 q-30 0 -52 21.5 q-22 21.5 -22 51.5 q0 30 21.5 50.5 q21.5 20.5 51.5 20.5 q30 0 51.5 -21 q21.5 -21 21.5 -51 ZM247 792 q0 -29 -21.5 -50.5 q-21.5 -21.5 -50.5 -21.5 q-30 0 -52 21.5 q-22 21.5 -22 51.5 q0 30 21.5 50.5 q21.5 20.5 51.5 20.5 q30 0 51.5 -21 q21.5 -21 21.5 -51 Z" /><glyph glyph-name="uni04DB" unicode="&#x4db;" d="M197 308 l-158 38 q20 56 66 91 q52 39 134 39 q97 0 151 -54 q65 -65 65 -180 q0 -125 -75 -197 q-56 -55 -142 -55 q-90 0 -144 56 q-76 79 -66 223 l254 0 q0 46 -16 62 q-10 10 -27 10 q-15 0 -27 -8 q-12 -8 -15 -25 ZM280 176 l-81 0 q0 -31 15 -47 q11 -12 26 -12 q14 0 24 10 q16 16 16 49 ZM410 602 q0 -29 -21.5 -50.5 q-21.5 -21.5 -50.5 -21.5 q-30 0 -52 21.5 q-22 21.5 -22 51.5 q0 30 21.5 50.5 q21.5 20.5 51.5 20.5 q30 0 51.5 -21 q21.5 -21 21.5 -51 ZM218 602 q0 -29 -21.5 -50.5 q-21.5 -21.5 -50.5 -21.5 q-30 0 -52 21.5 q-22 21.5 -22 51.5 q0 30 21.5 50.5 q21.5 20.5 51.5 20.5 q30 0 51.5 -21 q21.5 -21 21.5 -51 Z" /><glyph glyph-name="uni04DC" unicode="&#x4dc;" d="M732 0 l-182 0 l-100 321 l5 -321 l-170 0 l5 321 l-100 -321 l-182 0 l137 345 l-140 322 l180 0 l105 -300 l-5 300 l170 0 l-5 -300 l105 300 l178 0 l-138 -322 l137 -345 ZM533 792 q0 -29 -21.5 -50.5 q-21.5 -21.5 -50.5 -21.5 q-30 0 -52 21.5 q-22 21.5 -22 51.5 q0 30 21.5 50.5 q21.5 20.5 51.5 20.5 q30 0 51.5 -21 q21.5 -21 21.5 -51 ZM341 792 q0 -29 -21.5 -50.5 q-21.5 -21.5 -50.5 -21.5 q-30 0 -52 21.5 q-22 21.5 -22 51.5 q0 30 21.5 50.5 q21.5 20.5 51.5 20.5 q30 0 51.5 -21 q21.5 -21 21.5 -51 Z" /><glyph glyph-name="uni04DD" unicode="&#x4dd;" d="M710 0 l-192 0 l-38 96 q-22 53 -40 120 l0 -216 l-168 0 l0 216 q-18 -67 -40 -120 l-38 -96 l-192 0 l116 239 l-109 228 l180 0 l42 -104 q25 -60 41 -118 l0 222 l168 0 l0 -222 q16 58 41 118 l42 104 l180 0 l-109 -228 l116 -239 ZM519 602 q0 -29 -21.5 -50.5 q-21.5 -21.5 -50.5 -21.5 q-30 0 -52 21.5 q-22 21.5 -22 51.5 q0 30 21.5 50.5 q21.5 20.5 51.5 20.5 q30 0 51.5 -21 q21.5 -21 21.5 -51 ZM327 602 q0 -29 -21.5 -50.5 q-21.5 -21.5 -50.5 -21.5 q-30 0 -52 21.5 q-22 21.5 -22 51.5 q0 30 21.5 50.5 q21.5 20.5 51.5 20.5 q30 0 51.5 -21 q21.5 -21 21.5 -51 Z" /><glyph glyph-name="uni04DE" unicode="&#x4de;" d="M50 452 l0 183 q67 44 159 44 q105 0 163 -58 q53 -51 53 -137 q0 -67 -35 -104 q-32 -34 -77 -40 q55 -4 91 -40 q39 -37 39 -104 q0 -96 -62 -154 q-57 -54 -170 -54 q-86 0 -161 37 l0 198 q26 -33 54 -50 q32 -20 71 -20 q40 0 58 18 q15 15 15 35 q0 28 -24 42 q-20 12 -69 12 l-29 0 l0 153 l31 0 q46 0 66 13 q20 13 20 36 q0 24 -20 39 q-19 13 -48 13 q-39 0 -72 -19 q-29 -17 -53 -43 ZM384 792 q0 -29 -21.5 -50.5 q-21.5 -21.5 -50.5 -21.5 q-30 0 -52 21.5 q-22 21.5 -22 51.5 q0 30 21.5 50.5 q21.5 20.5 51.5 20.5 q30 0 51.5 -21 q21.5 -21 21.5 -51 ZM192 792 q0 -29 -21.5 -50.5 q-21.5 -21.5 -50.5 -21.5 q-30 0 -52 21.5 q-22 21.5 -22 51.5 q0 30 21.5 50.5 q21.5 20.5 51.5 20.5 q30 0 51.5 -21 q21.5 -21 21.5 -51 Z" /><glyph glyph-name="uni04DF" unicode="&#x4df;" d="M89 303 l-63 121 q85 53 176 53 q79 0 125 -27 q64 -38 64 -111 q0 -44 -26 -70 q-25 -25 -62 -29 q47 -2 76 -29 q28 -26 28 -69 q0 -37 -19 -69.5 q-19 -32.5 -54 -53.5 q-50 -29 -128 -29 q-65 0 -114 19 q-35 13 -72 40 l65 125 q21 -25 41 -36 q23 -13 51 -13 q25 0 38 8 q14 8 14 21 q0 19 -27 25 q-17 4 -47 4 l-23 0 l0 109 l21 0 q33 0 47 4 q22 5 22 24 q0 29 -47 29 q-25 0 -49 -14 q-16 -10 -37 -32 ZM379 602 q0 -29 -21.5 -50.5 q-21.5 -21.5 -50.5 -21.5 q-30 0 -52 21.5 q-22 21.5 -22 51.5 q0 30 21.5 50.5 q21.5 20.5 51.5 20.5 q30 0 51.5 -21 q21.5 -21 21.5 -51 ZM187 602 q0 -29 -21.5 -50.5 q-21.5 -21.5 -50.5 -21.5 q-30 0 -52 21.5 q-22 21.5 -22 51.5 q0 30 21.5 50.5 q21.5 20.5 51.5 20.5 q30 0 51.5 -21 q21.5 -21 21.5 -51 Z" /><glyph glyph-name="uni04E2" unicode="&#x4e2;" d="M47 0 l0 667 l170 0 l0 -185 q0 -49 -20 -225 q43 128 69 194 l85 216 l158 0 l0 -667 l-170 0 l0 178 q0 50 11 214 q-21 -75 -70 -201 l-75 -191 l-158 0 ZM448 743 l-340 0 l0 94 l340 0 l0 -94 Z" /><glyph glyph-name="uni04E3" unicode="&#x4e3;" d="M40 467 l166 0 l0 -131 q0 -53 -7 -123 q16 49 35 90 l74 164 l158 0 l0 -467 l-166 0 l0 125 q0 53 6 129 q-13 -44 -35 -94 l-73 -160 l-158 0 l0 467 ZM423 553 l-340 0 l0 94 l340 0 l0 -94 Z" /><glyph glyph-name="uni04E4" unicode="&#x4e4;" d="M47 0 l0 667 l170 0 l0 -185 q0 -49 -20 -225 q43 128 69 194 l85 216 l158 0 l0 -667 l-170 0 l0 178 q0 50 11 214 q-21 -75 -70 -201 l-75 -191 l-158 0 ZM447 792 q0 -29 -21.5 -50.5 q-21.5 -21.5 -50.5 -21.5 q-30 0 -52 21.5 q-22 21.5 -22 51.5 q0 30 21.5 50.5 q21.5 20.5 51.5 20.5 q30 0 51.5 -21 q21.5 -21 21.5 -51 ZM255 792 q0 -29 -21.5 -50.5 q-21.5 -21.5 -50.5 -21.5 q-30 0 -52 21.5 q-22 21.5 -22 51.5 q0 30 21.5 50.5 q21.5 20.5 51.5 20.5 q30 0 51.5 -21 q21.5 -21 21.5 -51 Z" /><glyph glyph-name="uni04E5" unicode="&#x4e5;" d="M40 467 l166 0 l0 -131 q0 -53 -7 -123 q16 49 35 90 l74 164 l158 0 l0 -467 l-166 0 l0 125 q0 53 6 129 q-13 -44 -35 -94 l-73 -160 l-158 0 l0 467 ZM422 602 q0 -29 -21.5 -50.5 q-21.5 -21.5 -50.5 -21.5 q-30 0 -52 21.5 q-22 21.5 -22 51.5 q0 30 21.5 50.5 q21.5 20.5 51.5 20.5 q30 0 51.5 -21 q21.5 -21 21.5 -51 ZM230 602 q0 -29 -21.5 -50.5 q-21.5 -21.5 -50.5 -21.5 q-30 0 -52 21.5 q-22 21.5 -22 51.5 q0 30 21.5 50.5 q21.5 20.5 51.5 20.5 q30 0 51.5 -21 q21.5 -21 21.5 -51 Z" /><glyph glyph-name="uni04E6" unicode="&#x4e6;" d="M537 334 q0 -193 -98 -286 q-63 -60 -155 -60 q-93 0 -156 60 q-98 93 -98 286 q0 191 98 285 q63 60 156 60 q92 0 155 -60 q98 -94 98 -285 ZM284 511 q-19 0 -30 -12 q-37 -37 -37 -165 q0 -128 37 -165 q11 -12 30 -12 q17 0 29 12 q37 37 37 165 q0 128 -37 165 q-12 12 -29 12 ZM452 792 q0 -29 -21.5 -50.5 q-21.5 -21.5 -50.5 -21.5 q-30 0 -52 21.5 q-22 21.5 -22 51.5 q0 30 21.5 50.5 q21.5 20.5 51.5 20.5 q30 0 51.5 -21 q21.5 -21 21.5 -51 ZM260 792 q0 -29 -21.5 -50.5 q-21.5 -21.5 -50.5 -21.5 q-30 0 -52 21.5 q-22 21.5 -22 51.5 q0 30 21.5 50.5 q21.5 20.5 51.5 20.5 q30 0 51.5 -21 q21.5 -21 21.5 -51 Z" /><glyph glyph-name="uni04E7" unicode="&#x4e7;" d="M461 234 q0 -120 -68 -187 q-57 -57 -149 -57 q-92 0 -149 57 q-68 67 -68 187 q0 118 68 186 q57 57 149 57 q92 0 149 -57 q68 -68 68 -186 ZM272 330 q-10 16 -28 16 q-18 0 -28 -16 q-21 -30 -21 -97 q0 -66 21 -96 q10 -16 28 -16 q18 0 28 16 q21 30 21 96 q0 67 -21 97 ZM413 602 q0 -29 -21.5 -50.5 q-21.5 -21.5 -50.5 -21.5 q-30 0 -52 21.5 q-22 21.5 -22 51.5 q0 30 21.5 50.5 q21.5 20.5 51.5 20.5 q30 0 51.5 -21 q21.5 -21 21.5 -51 ZM221 602 q0 -29 -21.5 -50.5 q-21.5 -21.5 -50.5 -21.5 q-30 0 -52 21.5 q-22 21.5 -22 51.5 q0 30 21.5 50.5 q21.5 20.5 51.5 20.5 q30 0 51.5 -21 q21.5 -21 21.5 -51 Z" /><glyph glyph-name="uni04E8" unicode="&#x4e8;" d="M537 334 q0 -193 -98 -286 q-63 -60 -155 -60 q-93 0 -156 60 q-98 93 -98 286 q0 191 98 285 q63 60 156 60 q92 0 155 -60 q98 -94 98 -285 ZM222 403 l123 0 q-3 75 -29 100 q-13 12 -32 12 q-20 0 -32 -12 q-27 -27 -30 -100 ZM346 264 l-125 0 q0 -28 9 -58.5 q9 -30.5 24 -43.5 q11 -10 29 -10 q17 0 31 12 q30 27 32 100 Z" /><glyph glyph-name="uni04E9" unicode="&#x4e9;" d="M461 234 q0 -120 -68 -187 q-57 -57 -149 -57 q-92 0 -149 57 q-68 67 -68 187 q0 118 68 186 q57 57 149 57 q92 0 149 -57 q68 -68 68 -186 ZM195 288 l98 0 q-2 37 -22 57 q-12 12 -28 12 q-16 0 -26 -10 q-20 -18 -22 -59 ZM291 182 l-94 0 q2 -44 22 -62 q10 -10 25 -10 q15 0 25 10 q20 18 22 62 Z" /><glyph glyph-name="uni04EA" unicode="&#x4ea;" d="M537 334 q0 -193 -98 -286 q-63 -60 -155 -60 q-93 0 -156 60 q-98 93 -98 286 q0 191 98 285 q63 60 156 60 q92 0 155 -60 q98 -94 98 -285 ZM222 403 l123 0 q-3 75 -29 100 q-13 12 -32 12 q-20 0 -32 -12 q-27 -27 -30 -100 ZM346 264 l-125 0 q0 -28 9 -58.5 q9 -30.5 24 -43.5 q11 -10 29 -10 q17 0 31 12 q30 27 32 100 ZM452 792 q0 -29 -21.5 -50.5 q-21.5 -21.5 -50.5 -21.5 q-30 0 -52 21.5 q-22 21.5 -22 51.5 q0 30 21.5 50.5 q21.5 20.5 51.5 20.5 q30 0 51.5 -21 q21.5 -21 21.5 -51 ZM260 792 q0 -29 -21.5 -50.5 q-21.5 -21.5 -50.5 -21.5 q-30 0 -52 21.5 q-22 21.5 -22 51.5 q0 30 21.5 50.5 q21.5 20.5 51.5 20.5 q30 0 51.5 -21 q21.5 -21 21.5 -51 Z" /><glyph glyph-name="uni04EB" unicode="&#x4eb;" d="M461 234 q0 -120 -68 -187 q-57 -57 -149 -57 q-92 0 -149 57 q-68 67 -68 187 q0 118 68 186 q57 57 149 57 q92 0 149 -57 q68 -68 68 -186 ZM195 288 l98 0 q-2 37 -22 57 q-12 12 -28 12 q-16 0 -26 -10 q-20 -18 -22 -59 ZM291 182 l-94 0 q2 -44 22 -62 q10 -10 25 -10 q15 0 25 10 q20 18 22 62 ZM413 602 q0 -29 -21.5 -50.5 q-21.5 -21.5 -50.5 -21.5 q-30 0 -52 21.5 q-22 21.5 -22 51.5 q0 30 21.5 50.5 q21.5 20.5 51.5 20.5 q30 0 51.5 -21 q21.5 -21 21.5 -51 ZM221 602 q0 -29 -21.5 -50.5 q-21.5 -21.5 -50.5 -21.5 q-30 0 -52 21.5 q-22 21.5 -22 51.5 q0 30 21.5 50.5 q21.5 20.5 51.5 20.5 q30 0 51.5 -21 q21.5 -21 21.5 -51 Z" /><glyph glyph-name="uni04EE" unicode="&#x4ee;" d="M5 667 l188 0 l33 -107 q26 -82 34 -147 q11 79 31 150 l28 104 l186 0 l-236 -667 l-181 0 l80 225 l-163 442 ZM428 743 l-340 0 l0 94 l340 0 l0 -94 Z" /><glyph glyph-name="uni04EF" unicode="&#x4ef;" d="M456 467 l-221 -682 l-178 0 l82 234 l-139 448 l174 0 q48 -190 55 -265 q19 128 28 164 l26 101 l173 0 ZM399 553 l-340 0 l0 94 l340 0 l0 -94 Z" /><glyph glyph-name="uni04F0" unicode="&#x4f0;" d="M5 667 l188 0 l33 -107 q26 -82 34 -147 q11 79 31 150 l28 104 l186 0 l-236 -667 l-181 0 l80 225 l-163 442 ZM424 792 q0 -29 -21.5 -50.5 q-21.5 -21.5 -50.5 -21.5 q-30 0 -52 21.5 q-22 21.5 -22 51.5 q0 30 21.5 50.5 q21.5 20.5 51.5 20.5 q30 0 51.5 -21 q21.5 -21 21.5 -51 ZM232 792 q0 -29 -21.5 -50.5 q-21.5 -21.5 -50.5 -21.5 q-30 0 -52 21.5 q-22 21.5 -22 51.5 q0 30 21.5 50.5 q21.5 20.5 51.5 20.5 q30 0 51.5 -21 q21.5 -21 21.5 -51 Z" /><glyph glyph-name="uni04F1" unicode="&#x4f1;" d="M456 467 l-221 -682 l-178 0 l82 234 l-139 448 l174 0 q48 -190 55 -265 q19 128 28 164 l26 101 l173 0 ZM397 602 q0 -29 -21.5 -50.5 q-21.5 -21.5 -50.5 -21.5 q-30 0 -52 21.5 q-22 21.5 -22 51.5 q0 30 21.5 50.5 q21.5 20.5 51.5 20.5 q30 0 51.5 -21 q21.5 -21 21.5 -51 ZM205 602 q0 -29 -21.5 -50.5 q-21.5 -21.5 -50.5 -21.5 q-30 0 -52 21.5 q-22 21.5 -22 51.5 q0 30 21.5 50.5 q21.5 20.5 51.5 20.5 q30 0 51.5 -21 q21.5 -21 21.5 -51 Z" /><glyph glyph-name="uni04F2" unicode="&#x4f2;" d="M5 667 l188 0 l33 -107 q26 -82 34 -147 q11 79 31 150 l28 104 l186 0 l-236 -667 l-181 0 l80 225 l-163 442 ZM459 868 l-88 -148 l-89 0 l47 148 l130 0 ZM292 868 l-88 -148 l-89 0 l47 148 l130 0 Z" /><glyph glyph-name="uni04F3" unicode="&#x4f3;" d="M456 467 l-221 -682 l-178 0 l82 234 l-139 448 l174 0 q48 -190 55 -265 q19 128 28 164 l26 101 l173 0 ZM429 678 l-88 -148 l-89 0 l47 148 l130 0 ZM262 678 l-88 -148 l-89 0 l47 148 l130 0 Z" /><glyph glyph-name="uni04F4" unicode="&#x4f4;" d="M302 0 l0 265 q-51 -11 -90 -11 q-74 0 -119 39 q-33 29 -43 67.5 q-10 38.5 -10 91.5 l0 215 l176 0 l0 -193 q0 -32 13 -46 q14 -14 38 -14 q18 0 35 7 l0 246 l180 0 l0 -667 l-180 0 ZM429 792 q0 -29 -21.5 -50.5 q-21.5 -21.5 -50.5 -21.5 q-30 0 -52 21.5 q-22 21.5 -22 51.5 q0 30 21.5 50.5 q21.5 20.5 51.5 20.5 q30 0 51.5 -21 q21.5 -21 21.5 -51 ZM237 792 q0 -29 -21.5 -50.5 q-21.5 -21.5 -50.5 -21.5 q-30 0 -52 21.5 q-22 21.5 -22 51.5 q0 30 21.5 50.5 q21.5 20.5 51.5 20.5 q30 0 51.5 -21 q21.5 -21 21.5 -51 Z" /><glyph glyph-name="uni04F5" unicode="&#x4f5;" d="M269 0 l0 161 q-37 -10 -77 -10 q-74 0 -115 37 q-42 40 -42 125 l0 154 l170 0 l0 -130 q0 -26 7 -36 q9 -12 27 -12 q16 0 30 8 l0 170 l174 0 l0 -467 l-174 0 ZM415 602 q0 -29 -21.5 -50.5 q-21.5 -21.5 -50.5 -21.5 q-30 0 -52 21.5 q-22 21.5 -22 51.5 q0 30 21.5 50.5 q21.5 20.5 51.5 20.5 q30 0 51.5 -21 q21.5 -21 21.5 -51 ZM223 602 q0 -29 -21.5 -50.5 q-21.5 -21.5 -50.5 -21.5 q-30 0 -52 21.5 q-22 21.5 -22 51.5 q0 30 21.5 50.5 q21.5 20.5 51.5 20.5 q30 0 51.5 -21 q21.5 -21 21.5 -51 Z" /><glyph glyph-name="uni04F8" unicode="&#x4f8;" d="M706 0 l-180 0 l0 667 l180 0 l0 -667 ZM255 0 l-208 0 l0 667 l180 0 l0 -245 l6 0 q141 0 203 -67 q49 -53 49 -142 q0 -103 -57 -158 q-58 -55 -173 -55 ZM227 278 l0 -133 q42 -5 62 14 q20 18 20 52 q0 32 -18 50 q-23 23 -64 17 ZM545 792 q0 -29 -21.5 -50.5 q-21.5 -21.5 -50.5 -21.5 q-30 0 -52 21.5 q-22 21.5 -22 51.5 q0 30 21.5 50.5 q21.5 20.5 51.5 20.5 q30 0 51.5 -21 q21.5 -21 21.5 -51 ZM353 792 q0 -29 -21.5 -50.5 q-21.5 -21.5 -50.5 -21.5 q-30 0 -52 21.5 q-22 21.5 -22 51.5 q0 30 21.5 50.5 q21.5 20.5 51.5 20.5 q30 0 51.5 -21 q21.5 -21 21.5 -51 Z" /><glyph glyph-name="uni04F9" unicode="&#x4f9;" d="M663 0 l-174 0 l0 467 l174 0 l0 -467 ZM214 301 l64 0 q93 0 136 -41 q40 -38 40 -104 q0 -72 -42 -112 q-45 -44 -133 -44 l-239 0 l0 467 l174 0 l0 -166 ZM214 110 l6 0 q39 0 54 15 q10 10 10 27 q0 19 -10 28 q-14 13 -54 13 l-6 0 l0 -83 ZM513 602 q0 -29 -21.5 -50.5 q-21.5 -21.5 -50.5 -21.5 q-30 0 -52 21.5 q-22 21.5 -22 51.5 q0 30 21.5 50.5 q21.5 20.5 51.5 20.5 q30 0 51.5 -21 q21.5 -21 21.5 -51 ZM321 602 q0 -29 -21.5 -50.5 q-21.5 -21.5 -50.5 -21.5 q-30 0 -52 21.5 q-22 21.5 -22 51.5 q0 30 21.5 50.5 q21.5 20.5 51.5 20.5 q30 0 51.5 -21 q21.5 -21 21.5 -51 Z" /><glyph glyph-name="uni1E9E" unicode="&#x1e9e;" d="M271 418 l38 59 q0 29 -9 43 q-11 15 -32 15 q-19 0 -30 -16 q-11 -16 -11 -45 l0 -474 l-180 0 l0 457 q0 93 58 155 q62 67 161 67 q92 0 149 -46 q62 -50 67 -143 l-79 -99 q37 -12 61 -40 q36 -42 36 -136 q0 -96 -69 -160 q-60 -55 -160 -55 l0 145 q45 7 45 79 q0 71 -45 76 l0 118 Z" /><glyph glyph-name="uni2010" unicode="&#x2010;" d="M267 186 l-217 0 l0 134 l217 0 l0 -134 Z" /><glyph glyph-name="uni2011" unicode="&#x2011;" d="M267 186 l-217 0 l0 134 l217 0 l0 -134 Z" /><glyph glyph-name="figuredash" unicode="&#x2012;" d="M504 279 l-434 0 l0 120 l434 0 l0 -120 Z" /><glyph glyph-name="endash" unicode="&#x2013;" d="M504 193 l-434 0 l0 120 l434 0 l0 -120 Z" /><glyph glyph-name="emdash" unicode="&#x2014;" d="M750 193 l-680 0 l0 120 l680 0 l0 -120 Z" /><glyph glyph-name="afii00208" unicode="&#x2015;" d="M750 193 l-680 0 l0 120 l680 0 l0 -120 Z" /><glyph glyph-name="quoteleft" unicode="&#x2018;" d="M298 721 l-81 -321 l-177 0 l116 321 l142 0 Z" /><glyph glyph-name="quoteright" unicode="&#x2019;" d="M291 721 l-116 -321 l-142 0 l81 321 l177 0 Z" /><glyph glyph-name="quotesinglbase" unicode="&#x201a;" d="M292 159 l-117 -320 l-142 0 l82 320 l177 0 Z" /><glyph glyph-name="quotedblleft" unicode="&#x201c;" d="M535 721 l-82 -321 l-176 0 l116 321 l142 0 ZM298 721 l-81 -321 l-177 0 l116 321 l142 0 Z" /><glyph glyph-name="quotedblright" unicode="&#x201d;" d="M535 721 l-116 -321 l-142 0 l81 321 l177 0 ZM298 721 l-116 -321 l-142 0 l82 321 l176 0 Z" /><glyph glyph-name="quotedblbase" unicode="&#x201e;" d="M528 159 l-116 -320 l-142 0 l82 320 l176 0 ZM292 159 l-117 -320 l-142 0 l82 320 l177 0 Z" /><glyph glyph-name="dagger" unicode="&#x2020;" d="M507 426 l-160 0 l0 -635 l-160 0 l0 635 l-160 0 l0 140 l160 0 l0 163 l160 0 l0 -163 l160 0 l0 -140 Z" /><glyph glyph-name="daggerdbl" unicode="&#x2021;" d="M507 91 l-160 0 l0 -300 l-160 0 l0 300 l-160 0 l0 137 l160 0 l0 199 l-160 0 l0 138 l160 0 l0 164 l160 0 l0 -164 l160 0 l0 -138 l-160 0 l0 -199 l160 0 l0 -137 Z" /><glyph glyph-name="bullet" unicode="&#x2022;" d="M598 438.5 q40 -41.5 40 -98.5 q0 -57 -40 -98.5 q-40 -41.5 -97 -41.5 q-57 0 -97.5 41.5 q-40.5 41.5 -40.5 98.5 q0 57 40.5 98.5 q40.5 41.5 97.5 41.5 q57 0 97 -41.5 Z" /><glyph glyph-name="ellipsis" unicode="&#x2026;" d="M935 90 q0 -41 -30 -70.5 q-30 -29.5 -71 -29.5 q-42 0 -72 30 q-30 30 -30 72 q0 41 29.5 70.5 q29.5 29.5 70.5 29.5 q42 0 72.5 -30 q30.5 -30 30.5 -72 ZM601 90 q0 -41 -29.5 -70.5 q-29.5 -29.5 -70.5 -29.5 q-42 0 -72 30 q-30 30 -30 72 q0 41 29.5 70.5 q29.5 29.5 70.5 29.5 q42 0 72 -30 q30 -30 30 -72 ZM268 90 q0 -41 -30 -70.5 q-30 -29.5 -71 -29.5 q-42 0 -72 30 q-30 30 -30 72 q0 41 30 70.5 q30 29.5 71 29.5 q42 0 72 -30 q30 -30 30 -72 Z" /><glyph glyph-name="perthousand" unicode="&#x2030;" d="M278.5 623.5 q37.5 -47.5 37.5 -121.5 q0 -74 -36.5 -123.5 q-36.5 -49.5 -104.5 -49.5 q-72 0 -110 47.5 q-38 47.5 -38 126.5 q0 76 38 122 q38 46 108 46 q68 0 105.5 -47.5 ZM199 503 q0 70 -27 70 q-28 0 -28 -74 q0 -73 28 -73 q27 0 27 77 ZM555 667 l-288 -667 l-92 0 l290 667 l90 0 ZM663.5 289.5 q37.5 -47.5 37.5 -121.5 q0 -74 -36.5 -123.5 q-36.5 -49.5 -104.5 -49.5 q-72 0 -110 47.5 q-38 47.5 -38 126.5 q0 76 38 122 q38 46 108 46 q68 0 105.5 -47.5 ZM584 169 q0 70 -27 70 q-28 0 -28 -74 q0 -73 28 -73 q27 0 27 77 ZM997.5 289.5 q37.5 -47.5 37.5 -121.5 q0 -74 -36.5 -123.5 q-36.5 -49.5 -104.5 -49.5 q-72 0 -110 47.5 q-38 47.5 -38 126.5 q0 76 38 122 q38 46 108 46 q68 0 105.5 -47.5 ZM918 169 q0 70 -27 70 q-28 0 -28 -74 q0 -73 28 -73 q27 0 27 77 Z" /><glyph glyph-name="guilsinglleft" unicode="&#x2039;" d="M256 71 l-78 -58 l-151 226 l151 226 l78 -58 l-113 -168 l113 -168 Z" /><glyph glyph-name="guilsinglright" unicode="&#x203a;" d="M27 71 l113 168 l-113 168 l78 58 l151 -226 l-151 -226 l-78 58 Z" /><glyph glyph-name="fraction" unicode="&#x2044;" d="M220 667 l-288 -667 l-92 0 l290 667 l90 0 Z" /><glyph glyph-name="Euro" unicode="&#x20ac;" d="M511 205 l-11 -193 q-56 -24 -107 -24 q-105 0 -172 64 q-67 64 -91 171 l-105 0 l31 78 l64 0 q-1 11 -1 34 q0 16 1 24 l-94 0 l32 78 l72 0 q25 112 98 177 q73 65 186 65 q48 0 89 -17 l0 -190 q-38 40 -83 40 q-71 0 -101 -75 l175 0 l-38 -78 l-152 0 q-1 -8 -1 -25 q0 -22 1 -33 l134 0 l-31 -78 l-83 0 q30 -61 93 -61 q46 0 94 43 Z" /><glyph glyph-name="uni20B4" unicode="&#x20b4;" d="M107 505 l0 140 q42 15 62 21 q48 13 101 13 q78 0 122 -31 q48 -34 48 -96 q0 -54 -34 -97 l80 0 l0 -94 l-122 0 l-46 -66 l168 0 l0 -93 l-204 0 q-14 -16 -14 -35 q0 -21 17 -32 q13 -9 39 -9 q31 0 63 9 q28 9 49 21 l0 -140 q-35 -12 -66 -19 q-47 -9 -88 -9 q-89 0 -138 32 q-57 37 -57 109 q0 42 21 73 l-62 0 l0 93 l116 0 l46 66 l-162 0 l0 94 l204 0 q13 16 13 37 q0 25 -17 39 q-16 13 -42 13 q-27 0 -57 -15 q-22 -11 -40 -24 Z" /><glyph glyph-name="uni20B6" unicode="&#x20b6;&#x20b7;&#x20b9;&#x20ba;&#x20bb;&#x20bc;&#x20bd;&#x20be;&#x20bf;&#x20c0;&#x20c1;&#x20c2;&#x20c3;&#x20c4;&#x20c5;&#x20c6;&#x20c7;&#x20c8;&#x20c9;&#x20ca;&#x20cb;&#x20cc;&#x20cd;&#x20ce;&#x20cf;" d="M250 667 q90 0 148 -25 q58 -26 89 -79 q31 -53 31 -113 q0 -118 -65.5 -163 q-65.5 -45 -196.5 -45 l0 -66 l140 0 l0 -93 l-140 0 l0 -83 l-180 0 l0 83 l-71 0 l0 93 l71 0 l0 66 l-71 0 l0 110 l71 0 l0 315 l174 0 ZM256 352 l19 0 q28 0 44.5 23.5 q16.5 23.5 16.5 59.5 q0 36 -15.5 61 q-15.5 25 -42.5 25 l-22 0 l0 -169 Z" /><glyph glyph-name="uni20B8" unicode="&#x20b8;" d="M458 357 l-104 0 l0 -357 l-180 0 l0 357 l-99 0 l0 150 l383 0 l0 -150 ZM458 557 l-383 0 l0 110 l383 0 l0 -110 Z" /><glyph glyph-name="afii61352" unicode="&#x2116;" d="M516 0 l-172 0 q-11 31 -35 93 q-24 62 -38 99.5 q-14 37.5 -32 91.5 q-18 54 -31 100 q11 -156 11 -214 l0 -170 l-172 0 l0 667 l172 0 l90 -234 q6 -17 55 -168 q-20 164 -20 246 l0 156 l172 0 l0 -667 ZM849 515 q0 -70 -37.5 -114.5 q-37.5 -44.5 -107.5 -44.5 q-69 0 -106 45 q-37 45 -37 115 q0 70 37.5 116.5 q37.5 46.5 105.5 46.5 q70 0 107.5 -46 q37.5 -46 37.5 -118 ZM830 196 l-250 0 l0 100 l250 0 l0 -100 ZM737 517 q0 76 -32 76 q-18 0 -25 -25.5 q-7 -25.5 -7 -50.5 q0 -73 32 -73 q18 0 25 24.5 q7 24.5 7 48.5 Z" /><glyph glyph-name="uni2117" unicode="&#x2117;" d="M250 529 l108 0 q78 0 119 -39 q36 -36 36 -95 q0 -55 -30 -87 q-34 -37 -114 -37 l-10 0 l0 -117 l-109 0 l0 375 ZM359 357 l2 0 q20 0 31 11 q12 12 12 33 q0 20 -12 30 q-11 10 -30 10 l-3 0 l0 -84 ZM727 333 q0 -141 -100 -244 q-102 -104 -247 -104 q-145 0 -247 104 q-100 102 -100 245 q0 141 100 244 q102 104 247 104 q145 0 247 -104 q100 -102 100 -245 ZM563 534 q-77 75 -183 75 q-106 0 -183 -75 q-84 -82 -84 -201 q0 -119 84 -201 q77 -75 183 -75 q106 0 183 75 q84 82 84 201 q0 119 -84 201 Z" /><glyph glyph-name="trademark" unicode="&#x2122;" d="M651 287 l-116 0 l-9 195 l-38 -195 l-91 0 l-31 185 l-11 -185 l-119 0 l45 380 l137 0 l28 -164 l32 164 l135 0 l38 -380 ZM225 571 l-60 0 l0 -284 l-111 0 l0 284 l-57 0 l0 96 l228 0 l0 -96 Z" /><glyph glyph-name="partialdiff" unicode="&#x2202;" d="M55 557 l17 112 q188 -20 288 -106 q127 -109 127 -294 q0 -120 -64.5 -199 q-64.5 -79 -181.5 -79 q-96 0 -164 66.5 q-68 66.5 -68 162.5 q0 89 59 150.5 q59 61.5 148 61.5 q75 0 121 -45 q-62 149 -282 170 ZM243 323 l-10 0 q-9 0 -30 -8 q-28 -12 -44 -38.5 q-16 -26.5 -16 -58.5 q0 -46 28 -78 q28 -32 73 -32 q45 0 73.5 32 q28.5 32 28.5 77 q0 45 -29 75.5 q-29 30.5 -74 30.5 Z" /><glyph glyph-name="product" unicode="&#x220f;" d="M693 -250 l-293 0 l0 117 l80 0 l0 766 l-226 0 l0 -766 l78 0 l0 -117 l-292 0 l0 117 l83 0 l0 766 l-83 0 l0 117 l653 0 l0 -117 l-82 0 l0 -766 l82 0 l0 -117 Z" /><glyph glyph-name="summation" unicode="&#x2211;" d="M629 -250 l-608 0 l0 130 l243 387 l-243 353 l0 130 l599 0 l0 -247 l-117 0 l-13 130 l-323 0 l250 -366 l-250 -400 l332 0 l8 133 l122 0 l0 -250 Z" /><glyph glyph-name="minus" unicode="&#x2212;" d="M467 280 l-434 0 l0 120 l434 0 l0 -120 Z" /><glyph glyph-name="fraction" unicode="&#x2215;" d="M583 729 l-508 -945 l-120 0 l508 945 l120 0 Z" /><glyph glyph-name="periodcentered" unicode="&#x2219;" d="M281 339 q0 -48 -35 -82 q-35 -34 -83 -34 q-49 0 -83.5 34.5 q-34.5 34.5 -34.5 83.5 q0 48 34.5 82 q34.5 34 82.5 34 q49 0 84 -34.5 q35 -34.5 35 -83.5 Z" /><glyph glyph-name="radical" unicode="&#x221a;" d="M667 710 l-179 0 l-165 -710 l-172 0 l-57 271 l-94 0 l0 116 l202 0 l18 -84 q11 -52 13 -146 l11 0 q9 142 43 290 l88 380 l292 0 l0 -117 Z" /><glyph glyph-name="infinity" unicode="&#x221e;" d="M650 340 q0 -71 -45.5 -117.5 q-45.5 -46.5 -116.5 -46.5 q-82 0 -151 79 q-72 -79 -157 -79 q-71 0 -117 46 q-46 46 -46 117 q0 71 46 117 q46 46 116 46 q80 0 151 -78 q71 78 156 78 q72 0 118 -45 q46 -45 46 -117 ZM501 306.5 q15 13.5 15 33.5 q0 20 -15 33 q-15 13 -35 13 q-36 0 -69 -47 q36 -46 69 -46 q20 0 35 13.5 ZM269 339 q-32 46 -68 46 q-20 0 -35 -13 q-15 -13 -15 -33 q0 -20 15 -33 q15 -13 35 -13 q36 0 68 46 Z" /><glyph glyph-name="integral" unicode="&#x222b;" d="M454 740 l-24 -116 q-30 10 -56 10 q-33 0 -45 -18.5 q-12 -18.5 -12 -52.5 l0 -538 q0 -7 0.5 -35 q0.5 -28 0 -40 q-0.5 -12 -2 -36.5 q-1.5 -24.5 -5.5 -39.5 q-4 -15 -11 -33.5 q-7 -18.5 -18 -31.5 q-47 -59 -141 -59 q-42 0 -94 10 l24 116 q30 -10 56 -10 q17 0 28.5 5.5 q11.5 5.5 17 12.5 q5.5 7 8 21.5 q2.5 14.5 3 23 q0.5 8.5 0.5 26.5 l0 44 l0 532 q0 71 11 111 q16 55 61 81.5 q45 26.5 106 26.5 q31 0 93 -10 Z" /><glyph glyph-name="approxequal" unicode="&#x2248;" d="M420 528 l73 -43 q-30 -65 -64.5 -99.5 q-34.5 -34.5 -94.5 -34.5 q-30 0 -95 25 q-65 25 -87 25 q-28 0 -43.5 -15.5 q-15.5 -15.5 -30.5 -45.5 l-71 47 q26 66 59 102.5 q33 36.5 93 36.5 q34 0 95.5 -24.5 q61.5 -24.5 93.5 -24.5 q26 0 42 12.5 q16 12.5 30 38.5 ZM420 324 l73 -42 q-30 -65 -64.5 -99.5 q-34.5 -34.5 -94.5 -34.5 q-32 0 -94.5 25 q-62.5 25 -87.5 25 q-19 0 -34 -9.5 q-15 -9.5 -22 -20 q-7 -10.5 -18 -31.5 l-71 46 q27 68 59.5 104 q32.5 36 92.5 36 q34 0 96.5 -25 q62.5 -25 92.5 -25 q41 0 72 51 Z" /><glyph glyph-name="notequal" unicode="&#x2260;" d="M467 171 l-241 0 l-49 -95 l-102 0 l47 95 l-88 0 l0 117 l141 0 l34 67 l-175 0 l0 116 l228 0 l55 108 l102 0 l-54 -108 l102 0 l0 -116 l-155 0 l-34 -67 l189 0 l0 -117 Z" /><glyph glyph-name="lessequal" unicode="&#x2264;" d="M467 145 l-434 208 l0 109 l434 207 l0 -121 l-297 -141 l296 -141 l1 -121 ZM467 0 l-434 0 l0 117 l434 0 l0 -117 Z" /><glyph glyph-name="greaterequal" unicode="&#x2265;" d="M467 353 l-434 -208 l0 121 l297 141 l-296 141 l-1 121 l434 -207 l0 -109 ZM467 0 l-434 0 l0 117 l434 0 l0 -117 Z" /><glyph glyph-name="dotmath" unicode="&#x22c5;" d="M281 339 q0 -48 -35 -82 q-35 -34 -83 -34 q-49 0 -83.5 34.5 q-34.5 34.5 -34.5 83.5 q0 48 34.5 82 q34.5 34 82.5 34 q49 0 84 -34.5 q35 -34.5 35 -83.5 Z" /><glyph glyph-name="lozenge" unicode="&#x25ca;" d="M593 334 l-260 -360 l-259 360 l259 359 l260 -359 ZM441 334 l-108 148 l-107 -148 l107 -148 l108 148 Z" /><glyph glyph-name="openbullet" unicode="&#x25e6;" d="M358.5 616 q45.5 -44 45.5 -107 q0 -63 -45.5 -108 q-45.5 -45 -108.5 -45 q-63 0 -108.5 45 q-45.5 45 -45.5 108 q0 63 45.5 107 q45.5 44 108.5 44 q63 0 108.5 -44 ZM304.5 455.5 q22.5 22.5 22.5 53.5 q0 31 -23 53 q-23 22 -54 22 q-31 0 -54 -22 q-23 -22 -23 -53 q0 -32 22.5 -54 q22.5 -22 54.5 -22 q32 0 54.5 22.5 Z" /><glyph glyph-name="uniF400" unicode="&#xf400;" d="M-89 678 l-88 -148 l-99 0 l47 148 l140 0 Z" /><glyph glyph-name="uniF401" unicode="&#xf401;" d="M-119 868 l-88 -148 l-99 0 l47 148 l140 0 Z" /><glyph glyph-name="uniF406" unicode="&#xf406;" d="M341 867 l69 0 q-6 -69 -48.5 -109 q-42.5 -40 -111.5 -40 q-69 0 -111.5 40 q-42.5 40 -48.5 109 l69 0 q13 -31 34 -42 q21 -11 57 -11 q36 0 57 11 q21 11 34 42 Z" /><glyph glyph-name="uniF407" unicode="&#xf407;" d="M382 -113 l-124 -124 l-77 53 l108 137 l93 -66 Z" /><glyph glyph-name="uniF408" unicode="&#xf408;" d="M257 870 l137 -98 l-57 -66 l-83 56 l-82 -58 l-61 66 l146 100 Z" /><glyph glyph-name="uniF409" unicode="&#xf409;" d="M217 -45 l-80 -189 l-102 0 l35 189 l147 0 Z" /><glyph glyph-name="uniF40A" unicode="&#xf40a;" d="M223 667 l-90 -209 l-100 0 l46 209 l144 0 Z" /><glyph glyph-name="uniF40B" unicode="&#xf40b;" d="M304 848.5 q22 -22.5 22 -53.5 q0 -31 -22 -53 q-22 -22 -53 -22 q-32 0 -54.5 22 q-22.5 22 -22.5 54 q0 31 22 53 q22 22 54 22 q32 0 54 -22.5 Z" /><glyph glyph-name="uniF40C" unicode="&#xf40c;" d="M177 810 q0 40 28 68 q28 28 68 28 q40 0 68 -28 q28 -28 28 -68 q0 -40 -28.5 -68 q-28.5 -28 -66.5 -28 q-40 0 -68.5 28.5 q-28.5 28.5 -28.5 67.5 ZM246.5 836.5 q-10.5 -10.5 -10.5 -26.5 q0 -16 10.5 -26.5 q10.5 -10.5 26.5 -10.5 q16 0 26.5 10.5 q10.5 10.5 10.5 26.5 q0 16 -10.5 26.5 q-10.5 10.5 -26.5 10.5 q-16 0 -26.5 -10.5 Z" /><glyph glyph-name="uniF40D" unicode="&#xf40d;" d="M420 855 l0 -14 q0 -50 -28 -84.5 q-28 -34.5 -77 -34.5 q-27 0 -64.5 16.5 q-37.5 16.5 -52.5 16.5 q-27 0 -27 -35 l-91 0 l0 2 q0 55 24 92.5 q24 37.5 77 37.5 q26 0 65.5 -16.5 q39.5 -16.5 55.5 -16.5 q28 0 28 36 l90 0 Z" /><glyph glyph-name="uniF40E" unicode="&#xf40e;" d="M347 -92 l-8 -70 q-21 -9 -43 -9 q-40 0 -71.5 21 q-31.5 21 -31.5 59 q0 46 53 91 l61 0 q-34 -30 -34 -63 q0 -35 40 -35 q17 0 34 6 Z" /><glyph glyph-name="afii10017.var.accented" unicode="&#xf460;" d="M527 0 l-186 0 l-14 85 l-121 0 l-15 -85 l-186 0 l161 667 l220 0 l141 -667 ZM230 227 l76 0 q-23 155 -34 280 q-2 -15 -5.5 -47 q-3.5 -32 -5.5 -47 q-15 -103 -31 -186 ZM400 868 l-88 -148 l-99 0 l47 148 l140 0 Z" /><glyph glyph-name="afii10022.var.accented" unicode="&#xf461;" d="M381 0 l-334 0 l0 667 l334 0 l0 -157 l-154 0 l0 -97 l138 0 l0 -151 l-138 0 l0 -102 l154 0 l0 -160 ZM339 868 l-88 -148 l-99 0 l47 148 l140 0 Z" /><glyph glyph-name="afii10026.var.accented" unicode="&#xf462;" d="M47 0 l0 667 l170 0 l0 -185 q0 -49 -20 -225 q43 128 69 194 l85 216 l158 0 l0 -667 l-170 0 l0 178 q0 50 11 214 q-21 -75 -70 -201 l-75 -191 l-158 0 ZM412 868 l-88 -148 l-99 0 l47 148 l140 0 Z" /><glyph glyph-name="afii10032.var.accented" unicode="&#xf463;" d="M537 334 q0 -193 -98 -286 q-63 -60 -155 -60 q-93 0 -156 60 q-98 93 -98 286 q0 191 98 285 q63 60 156 60 q92 0 155 -60 q98 -94 98 -285 ZM284 511 q-19 0 -30 -12 q-37 -37 -37 -165 q0 -128 37 -165 q11 -12 30 -12 q17 0 29 12 q37 37 37 165 q0 128 -37 165 q-12 12 -29 12 ZM417 868 l-88 -148 l-99 0 l47 148 l140 0 Z" /><glyph glyph-name="afii10037.var.accented" unicode="&#xf464;" d="M5 667 l188 0 l33 -107 q26 -82 34 -147 q11 79 31 150 l28 104 l186 0 l-236 -667 l-181 0 l80 225 l-163 442 ZM389 868 l-88 -148 l-99 0 l47 148 l140 0 Z" /><glyph glyph-name="afii10045.var.accented" unicode="&#xf465;" d="M706 0 l-180 0 l0 667 l180 0 l0 -667 ZM255 0 l-208 0 l0 667 l180 0 l0 -245 l6 0 q141 0 203 -67 q49 -53 49 -142 q0 -103 -57 -158 q-58 -55 -173 -55 ZM227 278 l0 -133 q42 -5 62 14 q20 18 20 52 q0 32 -18 50 q-23 23 -64 17 ZM510 868 l-88 -148 l-99 0 l47 148 l140 0 Z" /><glyph glyph-name="afii10047.var.accented" unicode="&#xf466;" d="M44 18 l-10 196 q25 -27 47 -38 q27 -14 63 -14 q50 0 80 25 q33 28 39 75 l-155 0 l0 151 l154 0 q-7 44 -38 72 q-29 27 -77 27 q-35 0 -66 -17 q-23 -12 -44 -37 l0 187 q56 34 131 34 q124 0 198 -75 q89 -90 89 -262 q0 -184 -97 -281 q-73 -73 -196 -73 q-64 0 -118 30 ZM309 868 l-88 -148 l-99 0 l47 148 l140 0 Z" /><glyph glyph-name="afii10048.var.accented" unicode="&#xf467;" d="M791 334 q0 -193 -98 -286 q-63 -60 -160 -60 q-93 0 -152 58 q-78 77 -87 222 l-67 0 l0 -268 l-180 0 l0 667 l180 0 l0 -242 l71 0 q5 55 27.5 108 q22.5 53 55.5 86 q62 60 157 60 q92 0 155 -60 q98 -94 98 -285 ZM538 511 q-19 0 -30 -12 q-37 -37 -37 -165 q0 -128 37 -165 q11 -12 30 -12 q17 0 29 12 q37 37 37 165 q0 128 -37 165 q-12 12 -29 12 ZM544 868 l-88 -148 l-99 0 l47 148 l140 0 Z" /><glyph glyph-name="afii10049.var.accented" unicode="&#xf468;" d="M20 0 l128 263 q-46 11 -77 48 q-34 43 -34 115 q0 106 58 170 q66 71 213 71 l186 0 l0 -667 l-180 0 l0 179 q0 58 4 88 l-103 -267 l-195 0 ZM314 358 l0 159 q-42 6 -68 -20 q-20 -20 -20 -58 q0 -39 22 -61 q22 -20 57 -20 l9 0 ZM404 868 l-88 -148 l-99 0 l47 148 l140 0 Z" /><glyph glyph-name="afii10023.var.accented" unicode="&#xf469;" d="M381 0 l-334 0 l0 667 l334 0 l0 -157 l-154 0 l0 -97 l138 0 l0 -151 l-138 0 l0 -102 l154 0 l0 -160 ZM287 851 l-77 -128 l-66 13 l59 139 l84 -24 ZM127 845 q19 -19 19 -45 q0 -26 -19 -45 q-19 -19 -45 -19 q-26 0 -45.5 19 q-19.5 19 -19.5 46 q0 26 19.5 44.5 q19.5 18.5 45.5 18.5 q26 0 45 -19 ZM394 845 q19 -19 19 -45 q0 -26 -19 -45 q-19 -19 -45 -19 q-26 0 -45.5 19 q-19.5 19 -19.5 46 q0 26 19.5 44.5 q19.5 18.5 45.5 18.5 q26 0 45 -19 Z" /><glyph glyph-name="afii10065.var.accented" unicode="&#xf46a;" d="M457 0 l-174 0 q1 13 3 39.5 q2 26.5 3 39.5 q-45 -89 -120 -89 q-42 0 -71.5 25 q-29.5 25 -44 65.5 q-14.5 40.5 -20.5 78.5 q-6 38 -6 77 q0 40 6.5 78 q6.5 38 21.5 76.5 q15 38.5 45.5 62.5 q30.5 24 72.5 24 q73 0 112 -84 q-1 8 -2 34 q-1 26 -3 40 l177 0 l0 -467 ZM281 254 q0 80 -36 80 q-44 0 -44 -117 q0 -84 39 -84 q7 0 13.5 3 q6.5 3 10.5 9 q4 6 7 12 q3 6 5 16.5 q2 10.5 3 17 q1 6.5 1.5 18.5 q0.5 12 0.5 17 q0 5 0 16 q0 11 0 12 ZM382 678 l-88 -148 l-99 0 l47 148 l140 0 Z" /><glyph glyph-name="afii10070.var.accented" unicode="&#xf46b;" d="M279 158 l169 -1 q-18 -81 -72 -124 q-54 -43 -136 -43 q-104 0 -158.5 64.5 q-54.5 64.5 -54.5 170.5 q0 105 58 178 q58 73 160 73 q102 0 156 -71 q54 -71 54 -176 q0 -5 -0.5 -16 q-0.5 -11 -0.5 -16 l-254 0 q0 -72 40 -72 q32 0 39 33 ZM202 290 l81 0 q-2 59 -41 59 q-38 0 -40 -59 ZM374 678 l-88 -148 l-99 0 l47 148 l140 0 Z" /><glyph glyph-name="afii10074.var.accented" unicode="&#xf46c;" d="M40 467 l166 0 l0 -131 q0 -53 -7 -123 q16 49 35 90 l74 164 l158 0 l0 -467 l-166 0 l0 125 q0 53 6 129 q-13 -44 -35 -94 l-73 -160 l-158 0 l0 467 ZM387 678 l-88 -148 l-99 0 l47 148 l140 0 Z" /><glyph glyph-name="afii10080.var.accented" unicode="&#xf46d;" d="M461 234 q0 -120 -68 -187 q-57 -57 -149 -57 q-92 0 -149 57 q-68 67 -68 187 q0 118 68 186 q57 57 149 57 q92 0 149 -57 q68 -68 68 -186 ZM272 330 q-10 16 -28 16 q-18 0 -28 -16 q-21 -30 -21 -97 q0 -66 21 -96 q10 -16 28 -16 q18 0 28 16 q21 30 21 96 q0 67 -21 97 ZM377 678 l-88 -148 l-99 0 l47 148 l140 0 Z" /><glyph glyph-name="afii10085.var.accented" unicode="&#xf46e;" d="M456 467 l-221 -682 l-178 0 l82 234 l-139 448 l174 0 q48 -190 55 -265 q19 128 28 164 l26 101 l173 0 ZM362 678 l-88 -148 l-99 0 l47 148 l140 0 Z" /><glyph glyph-name="afii10093.var.accented" unicode="&#xf46f;" d="M663 0 l-174 0 l0 467 l174 0 l0 -467 ZM214 301 l64 0 q93 0 136 -41 q40 -38 40 -104 q0 -72 -42 -112 q-45 -44 -133 -44 l-239 0 l0 467 l174 0 l0 -166 ZM214 110 l6 0 q39 0 54 15 q10 10 10 27 q0 19 -10 28 q-14 13 -54 13 l-6 0 l0 -83 ZM478 678 l-88 -148 l-99 0 l47 148 l140 0 Z" /><glyph glyph-name="afii10095.var.accented" unicode="&#xf470;" d="M40 14 l0 137 q29 -29 77 -29 q35 0 56 19 q16 15 21 41 l-105 0 l0 106 l105 0 q-7 27 -24 41 q-20 16 -51 16 q-44 0 -79 -32 l0 140 q48 24 106 24 q91 0 151 -58 q68 -68 68 -185 q0 -122 -70 -190 q-54 -54 -146 -54 q-67 0 -109 24 ZM292 678 l-88 -148 l-99 0 l47 148 l140 0 Z" /><glyph glyph-name="afii10096.var.accented" unicode="&#xf471;" d="M683 234 q0 -120 -68 -188 q-56 -56 -148 -56 q-95 0 -150 57 q-47 50 -55 123 l-53 0 l0 -170 l-169 0 l0 467 l169 0 l0 -161 l54 0 q9 70 56 117 q54 54 145 54 q95 0 151 -56 q68 -68 68 -187 ZM494 330 q-10 16 -28 16 q-18 0 -28 -16 q-21 -30 -21 -97 q0 -66 21 -96 q10 -16 28 -16 q18 0 28 16 q21 30 21 96 q0 67 -21 97 ZM488 678 l-88 -148 l-99 0 l47 148 l140 0 Z" /><glyph glyph-name="afii10097.var.accented" unicode="&#xf472;" d="M30 0 l85 160 q-38 10 -62 39 q-25 32 -25 87 q0 86 47 132 q51 49 168 49 l200 0 l0 -467 l-174 0 l0 117 q0 7 3 64 q-4 -13 -21 -62 l-45 -119 l-176 0 ZM269 250 l0 95 l-4 0 q-32 0 -46 -10 q-19 -15 -19 -39 q0 -23 16 -35 q14 -11 48 -11 l5 0 ZM375 678 l-88 -148 l-99 0 l47 148 l140 0 Z" /><glyph glyph-name="afii10071.var.accented" unicode="&#xf473;" d="M279 158 l169 -1 q-18 -81 -72 -124 q-54 -43 -136 -43 q-104 0 -158.5 64.5 q-54.5 64.5 -54.5 170.5 q0 105 58 178 q58 73 160 73 q102 0 156 -71 q54 -71 54 -176 q0 -5 -0.5 -16 q-0.5 -11 -0.5 -16 l-254 0 q0 -72 40 -72 q32 0 39 33 ZM202 290 l81 0 q-2 59 -41 59 q-38 0 -40 -59 ZM312 656 l-72 -126 l-68 16 l47 140 l93 -30 ZM173 610 q0 -26 -19.5 -45.5 q-19.5 -19.5 -45.5 -19.5 q-27 0 -47 19.5 q-20 19.5 -20 46.5 q0 27 19.5 45 q19.5 18 46.5 18 q27 0 46.5 -18.5 q19.5 -18.5 19.5 -45.5 ZM450 610 q0 -26 -19.5 -45.5 q-19.5 -19.5 -45.5 -19.5 q-27 0 -47 19.5 q-20 19.5 -20 46.5 q0 27 19.5 45 q19.5 18 46.5 18 q27 0 46.5 -18.5 q19.5 -18.5 19.5 -45.5 Z" /><glyph glyph-name="uniF4C6" unicode="&#xf4c6;" d="M216 667 l0 -193 q0 -32 13 -46 q14 -14 38 -14 q18 0 35 7 l0 246 l180 0 l0 -708 q0 -95 -40 -135 q-37 -37 -118 -37 q-49 0 -89 12 l0 139 q12 -12 29 -12 q18 0 28 12 q10 12 10 49 l0 278 q-51 -11 -90 -11 q-74 0 -119 39 q-33 29 -43 67.5 q-10 38.5 -10 91.5 l0 215 l176 0 Z" /><glyph glyph-name="uniF4C7" unicode="&#xf4c7;" d="M269 467 l174 0 l0 -524 q0 -86 -38 -123 q-36 -35 -118 -35 q-42 0 -78 10 l0 125 q10 -7 24 -7 q17 0 26 9 q10 9 10 34 l0 205 q-37 -10 -77 -10 q-74 0 -115 37 q-42 40 -42 125 l0 154 l170 0 l0 -130 q0 -26 7 -36 q9 -12 27 -12 q16 0 30 8 l0 170 Z" /><glyph glyph-name="uniF4CC" unicode="&#xf4cc;" d="M5 667 l188 0 l33 -107 q26 -82 34 -147 q11 79 31 150 l28 104 l186 0 l-236 -667 l-181 0 l80 225 l-163 442 ZM394 868 l-88 -148 l-99 0 l47 148 l140 0 Z" /><glyph glyph-name="uniF4CD" unicode="&#xf4cd;" d="M456 467 l-221 -682 l-178 0 l82 234 l-139 448 l174 0 q48 -190 55 -265 q19 128 28 164 l26 101 l173 0 ZM369 678 l-88 -148 l-99 0 l47 148 l140 0 Z" /><glyph glyph-name="dollar.fitted" unicode="&#xf5f5;" d="M352 646 l0 -202 q-56 71 -109 71 q-18 0 -31.5 -10.5 q-13.5 -10.5 -13.5 -28.5 q0 -19 17.5 -36.5 q17.5 -17.5 43 -35.5 q25.5 -18 50.5 -41 q25 -23 42.5 -61.5 q17.5 -38.5 17.5 -87.5 q0 -78 -45 -140 q-29 -41 -83 -67 l0 -101 l-84 0 l0 85 q-45 2 -72 7.5 q-27 5.5 -65 22.5 l0 208 q48 -75 115 -75 q22 0 37.5 11 q15.5 11 15.5 32 q0 18 -17.5 37 q-17.5 19 -42 39 q-24.5 20 -49 44.5 q-24.5 24.5 -42 62 q-17.5 37.5 -17.5 82.5 q0 88 54 151 q31 37 89 61 l0 93 l83 0 l0 -88 q55 -7 106 -33 Z" /><glyph glyph-name="Euro.fitted" unicode="&#xf5f6;" d="M496 205 l-11 -193 q-56 -24 -107 -24 q-105 0 -172 64 q-67 64 -91 171 l-105 0 l31 78 l64 0 q-1 11 -1 34 q0 16 1 24 l-94 0 l32 78 l72 0 q25 112 98 177 q73 65 186 65 q48 0 89 -17 l0 -190 q-38 40 -83 40 q-71 0 -101 -75 l175 0 l-38 -78 l-152 0 q-1 -8 -1 -25 q0 -22 1 -33 l134 0 l-31 -78 l-83 0 q31 -61 93 -61 q46 0 94 43 Z" /><glyph glyph-name="cent.fitted" unicode="&#xf5f7;" d="M268 273 l0 -161 q-9 -2 -25 -2 q-16 0 -23 -1 l0 -86 l-84 0 l0 105 q-46 26 -72 60 q-53 70 -53 161 q0 93 48 160 q16 23 32 35.5 q16 12.5 45 26.5 l0 108 l84 0 l0 -86 q2 0 7 0.5 q5 0.5 8 0.5 q11 0 33 -4 l0 -148 q-37 -2 -57 -25 q-20 -23 -20 -61 q0 -32 17.5 -57.5 q17.5 -25.5 47.5 -25.5 l12 0 Z" /><glyph glyph-name="sterling.fitted" unicode="&#xf5f8;" d="M388 159 l89 -48 q-45 -123 -158 -123 q-39 0 -85 17 q-5 2 -18 7.5 q-13 5.5 -18.5 7.5 q-5.5 2 -16.5 4 q-11 2 -21 2 q-39 0 -86 -30 l-50 82 q46 33 78 48 q18 30 18 67 q0 41 -17 95 l-62 0 l0 93 l33 0 q-24 76 -24 117 q0 79 57.5 129 q57.5 50 138.5 50 q107 0 195 -93 l-96 -96 q-32 50 -67 50 q-22 0 -35 -16.5 q-13 -16.5 -13 -38.5 q0 -16 11.5 -52 q11.5 -36 13.5 -50 l161 0 l0 -93 l-150 0 q0 -74 -43 -129 q36 -2 75 -21 q22 -11 36 -11 q33 0 54 32 Z" /><glyph glyph-name="yen.fitted" unicode="&#xf5f9;" d="M519 667 l-85 -212 l79 0 l0 -94 l-117 0 l-26 -66 l143 0 l0 -93 l-148 0 l0 -202 l-180 0 l0 202 l-160 0 l0 93 l154 0 l-28 66 l-126 0 l0 94 l85 0 l-91 212 l188 0 q52 -161 63 -206 q29 106 63 206 l186 0 Z" /><glyph glyph-name="florin.fitted" unicode="&#xf5fa;" d="M460 729 l-22 -138 q-6 0 -16 1.5 q-10 1.5 -16 1.5 q-32 0 -38 -34 l-18 -93 l70 0 l-18 -94 l-71 0 l-64 -332 q-16 -84 -58.5 -129 q-42.5 -45 -123.5 -45 q-30 0 -76 13 l26 143 q20 -2 31 -2 q22 0 33 7.5 q11 7.5 15 28.5 l61 316 l-68 0 l17 94 l69 0 l21 106 q17 83 53 125 q36 42 114 42 q31 0 79 -11 Z" /><glyph glyph-name="uni20B4.fitted" unicode="&#xf5fb;" d="M83 505 l0 140 q42 15 62 21 q48 13 101 13 q78 0 122 -31 q48 -34 48 -96 q0 -54 -34 -97 l80 0 l0 -94 l-122 0 l-46 -66 l168 0 l0 -93 l-204 0 q-14 -16 -14 -35 q0 -21 17 -32 q13 -9 39 -9 q31 0 63 9 q28 9 49 21 l0 -140 q-35 -12 -66 -19 q-47 -9 -88 -9 q-89 0 -138 32 q-57 37 -57 109 q0 42 21 73 l-62 0 l0 93 l116 0 l46 66 l-162 0 l0 94 l204 0 q13 16 13 37 q0 25 -17 39 q-16 13 -42 13 q-27 0 -57 -15 q-22 -11 -40 -24 Z" /><glyph glyph-name="uni20B6.fitted" unicode="&#xf5fc;" d="M269 667 q90 0 148 -25 q58 -26 89 -79 q31 -53 31 -113 q0 -118 -65.5 -163 q-65.5 -45 -196.5 -45 l0 -66 l140 0 l0 -93 l-140 0 l0 -83 l-180 0 l0 83 l-71 0 l0 93 l71 0 l0 66 l-71 0 l0 110 l71 0 l0 315 l174 0 ZM275 352 l19 0 q28 0 44.5 23.5 q16.5 23.5 16.5 59.5 q0 36 -15.5 61 q-15.5 25 -42.5 25 l-22 0 l0 -169 Z" /><glyph glyph-name="uni20B8.fitted" unicode="&#xf5fd;" d="M404 357 l-104 0 l0 -357 l-180 0 l0 357 l-99 0 l0 150 l383 0 l0 -150 ZM404 557 l-383 0 l0 110 l383 0 l0 -110 Z" /><glyph glyph-name="uniF639" unicode="&#xf639;" d="M484.5 453 q11.5 -56 11.5 -117 q0 -61 -11 -117 q-11 -56 -35 -110.5 q-24 -54.5 -71 -87.5 q-47 -33 -112 -33 q-55 0 -98 22 q-43 22 -69.5 56.5 q-26.5 34.5 -44 82 q-17.5 47.5 -24 94 q-6.5 46.5 -6.5 96.5 q0 61 12 117.5 q12 56.5 38 108 q26 51.5 74.5 83 q48.5 31.5 113.5 31.5 q65 0 112.5 -32 q47.5 -32 72.5 -85 q25 -53 36.5 -109 ZM318 314 l0 42 q0 167 -60 167 q-56 0 -56 -165 q0 -48 4 -87 q0 -3 1 -13.5 q1 -10.5 1.5 -16.5 q0.5 -6 2 -17.5 q1.5 -11.5 3.5 -19.5 q2 -8 4.5 -18 q2.5 -10 6.5 -16.5 q4 -6.5 9 -13 q5 -6.5 11.5 -9.5 q6.5 -3 14.5 -3 q58 0 58 170 Z" /><glyph glyph-name="uniF63A" unicode="&#xf63a;" d="M227 425 l-175 0 q-1 8 -1 24 q0 99 61.5 164.5 q61.5 65.5 160.5 65.5 q95 0 154.5 -61.5 q59.5 -61.5 59.5 -156.5 q0 -152 -175 -313 q36 3 166 5 l0 -153 l-458 0 l182 243 q33 44 51 71 q18 27 38 73 q20 46 20 84 q0 23 -10.5 41.5 q-10.5 18.5 -31.5 18.5 q-43 0 -43 -82 q0 -16 1 -24 Z" /><glyph glyph-name="uniF63B" unicode="&#xf63b;" d="M207 477 l-174 0 q7 92 65.5 147 q58.5 55 150.5 55 q85 0 146.5 -55 q61.5 -55 61.5 -139 q0 -94 -81 -140 q89 -52 89 -155 q0 -93 -65.5 -147.5 q-65.5 -54.5 -160.5 -54.5 q-93 0 -156 53.5 q-63 53.5 -63 144.5 l0 10 l176 0 q0 -60 44 -60 q24 0 36.5 18.5 q12.5 18.5 12.5 43.5 q0 33 -19.5 51.5 q-19.5 18.5 -52.5 18.5 q-10 0 -32 -2 l0 142 q7 -1 22 -1 q37 0 55.5 15.5 q18.5 15.5 18.5 52.5 q0 55 -39 55 q-33 0 -35 -53 Z" /><glyph glyph-name="uniF63C" unicode="&#xf63c;" d="M491 135 l-57 0 l0 -135 l-180 0 l0 135 l-242 0 l0 141 l201 391 l221 0 l0 -388 l57 0 l0 -144 ZM161 279 l99 0 q2 133 7 200 q-63 -134 -106 -200 Z" /><glyph glyph-name="uniF63D" unicode="&#xf63d;" d="M249 510 l-14 -75 q10 1 30 1 q85 0 140 -60.5 q55 -60.5 55 -145.5 q0 -105 -73.5 -173.5 q-73.5 -68.5 -179.5 -68.5 q-95 0 -184 52 l22 158 q76 -46 142 -46 q38 0 65.5 19 q27.5 19 27.5 56 q0 40 -31.5 57 q-31.5 17 -75.5 17 q-56 0 -117 -23 l51 389 l332 0 l0 -157 l-190 0 Z" /><glyph glyph-name="uniF63E" unicode="&#xf63e;" d="M383 667 l-107 -190 q-14 -25 -33 -52 q34 18 64 18 q76 0 120 -66.5 q44 -66.5 44 -146.5 q0 -106 -63.5 -174 q-63.5 -68 -168.5 -68 q-101 0 -159.5 69 q-58.5 69 -58.5 172 q0 40 9 82.5 q9 42.5 34.5 101.5 q25.5 59 36 82.5 q10.5 23.5 50 97 q39.5 73.5 39.5 74.5 l193 0 ZM298 227 q0 86 -51 86 q-50 0 -50 -89 q0 -92 50 -92 q51 0 51 95 Z" /><glyph glyph-name="uniF63F" unicode="&#xf63f;" d="M523 667 l-300 -667 l-194 0 l161 355 q30 68 86 155 l-226 0 l0 157 l473 0 Z" /><glyph glyph-name="uniF640" unicode="&#xf640;" d="M480 190 q0 -91 -67.5 -146.5 q-67.5 -55.5 -160.5 -55.5 q-90 0 -158.5 56.5 q-68.5 56.5 -68.5 144.5 q0 112 113 158 q-100 34 -100 140 q0 86 62 139 q62 53 149 53 q88 0 153.5 -51.5 q65.5 -51.5 65.5 -136.5 q0 -100 -92 -144 q104 -44 104 -157 ZM281.5 437 q8.5 18 8.5 40 q0 22 -9 40 q-9 18 -29 18 q-36 0 -36 -56 q0 -23 8.5 -41.5 q8.5 -18.5 28.5 -18.5 q20 0 28.5 18 ZM296 210 q0 25 -10.5 46 q-10.5 21 -33.5 21 q-22 0 -33 -22 q-11 -22 -11 -47 q0 -25 11 -45.5 q11 -20.5 34 -20.5 q23 0 33 21 q10 21 10 47 Z" /><glyph glyph-name="uniF641" unicode="&#xf641;" d="M301 0 l-193 0 q105 189 139 242 q-32 -19 -63 -19 q-76 0 -120 66.5 q-44 66.5 -44 146.5 q0 105 63.5 174 q63.5 69 168.5 69 q101 0 159.5 -69 q58.5 -69 58.5 -172 q0 -40 -9 -82.5 q-9 -42.5 -34.5 -101.5 q-25.5 -59 -36 -82.5 q-10.5 -23.5 -50 -97 q-39.5 -73.5 -39.5 -74.5 ZM294 443 q0 92 -49 92 q-52 0 -52 -95 q0 -87 52 -87 q49 0 49 90 Z" /><glyph glyph-name="uniF6BA" unicode="&#xf6ba;" d="M267 272 l-217 0 l0 134 l217 0 l0 -134 Z" /><glyph glyph-name="uniF6BB" unicode="&#xf6bb;" d="M504 279 l-434 0 l0 120 l434 0 l0 -120 Z" /><glyph glyph-name="uniF6BC" unicode="&#xf6bc;" d="M750 279 l-680 0 l0 120 l680 0 l0 -120 Z" /><glyph glyph-name="uniF6C3" unicode="&#xf6c3;" d="M239 -45 l-80 -189 l-102 0 l35 189 l147 0 Z" /><glyph glyph-name="uniF6C9" unicode="&#xf6c9;" d="M384 868 l-88 -148 l-99 0 l47 148 l140 0 Z" /><glyph glyph-name="uniF6CA" unicode="&#xf6ca;" d="M394 802 l-149 -98 l-134 100 l61 69 l80 -56 l85 54 l57 -69 Z" /><glyph glyph-name="uniF6CB" unicode="&#xf6cb;" d="M419 792 q0 -29 -21.5 -50.5 q-21.5 -21.5 -50.5 -21.5 q-30 0 -52 21.5 q-22 21.5 -22 51.5 q0 30 21.5 50.5 q21.5 20.5 51.5 20.5 q30 0 51.5 -21 q21.5 -21 21.5 -51 ZM227 792 q0 -29 -21.5 -50.5 q-21.5 -21.5 -50.5 -21.5 q-30 0 -52 21.5 q-22 21.5 -22 51.5 q0 30 21.5 50.5 q21.5 20.5 51.5 20.5 q30 0 51.5 -21 q21.5 -21 21.5 -51 Z" /><glyph glyph-name="uniF6CE" unicode="&#xf6ce;" d="M304 720 l-100 0 l-87 148 l139 0 l48 -148 Z" /><glyph glyph-name="uniF6CF" unicode="&#xf6cf;" d="M464 868 l-88 -148 l-89 0 l47 148 l130 0 ZM297 868 l-88 -148 l-89 0 l47 148 l130 0 Z" /><glyph glyph-name="uniF6D0" unicode="&#xf6d0;" d="M420 743 l-340 0 l0 94 l340 0 l0 -94 Z" /><glyph glyph-name="uniF6D1" unicode="&#xf6d1;" d="M305 874 l126 -35 q-15 -65 -69 -99 q-44 -29 -123 -29 q-79 0 -123 29 q-54 34 -69 99 l126 35 q4 -28 22 -43 q17 -13 44 -13 q28 0 44 13 q16 13 22 43 Z" /><glyph glyph-name="uniF6D4" unicode="&#xf6d4;" d="M269 677 l115 -29 q-13 -65 -66 -99 q-40 -25 -102 -25 q-62 0 -102 25 q-53 34 -66 99 l115 29 q3 -28 17 -42 q12 -13 36 -13 q24 0 36 13 q14 14 17 42 Z" /><glyph glyph-name="uniF6DC" unicode="&#xf6dc;" d="M271 0 l-180 0 l0 510 l-72 0 l0 157 l252 0 l0 -667 Z" /><glyph glyph-name="uniF6DE" unicode="&#xf6de;" d="M562 193 l-510 0 l0 120 l510 0 l0 -120 Z" /><glyph glyph-name="fi" unicode="&#xfb01;" d="M295 327 l-62 0 l0 -327 l-173 0 l0 327 l-50 0 l0 140 l50 0 q0 11 -0.5 34 q-0.5 23 -0.5 37 q0 70 15 110 q16 43 54.5 67.5 q38.5 24.5 85.5 24.5 q35 0 81 -12 l0 -161 q-19 17 -35 17 q-27 0 -27 -48 l0 -69 l62 0 l0 -140 ZM522 613 q0 -42 -29.5 -72 q-29.5 -30 -71.5 -30 q-42 0 -71.5 30 q-29.5 30 -29.5 72 q0 41 30 70.5 q30 29.5 71 29.5 q41 0 71 -29.5 q30 -29.5 30 -70.5 ZM507 0 l-173 0 l0 467 l173 0 l0 -467 Z" /><glyph glyph-name="fl" unicode="&#xfb02;" d="M295 327 l-62 0 l0 -327 l-173 0 l0 327 l-50 0 l0 140 l50 0 q0 11 -0.5 34 q-0.5 23 -0.5 37 q0 70 15 110 q16 43 54.5 67.5 q38.5 24.5 85.5 24.5 q35 0 81 -12 l0 -161 q-19 17 -35 17 q-27 0 -27 -48 l0 -69 l62 0 l0 -140 ZM507 0 l-173 0 l0 729 l173 0 l0 -729 Z" /></font>
</defs>
</svg>
