<?xml version="1.0" standalone="no"?><!DOCTYPE svg PUBLIC "-//W3C//DTD SVG 1.1//EN" "http://www.w3.org/Graphics/SVG/1.1/DTD/svg11.dtd" ><svg xmlns="http://www.w3.org/2000/svg"><metadata></metadata><defs><font id="ParaTypeLtd: Futura PT Extra Bold Oblique: 2013" horiz-adv-x="1538"><font-face font-family="Futura PT Extra Bold Italic" font-weight="400" font-stretch="normal" units-per-em="1000" panose-1="2 11 10 2 2 2 4 9 2 3" ascent="982" descent="-300" x-height="3" bbox="-365 -274 1509 982" underline-thickness="50" underline-position="-175" unicode-range="U+0020-fb02" /><missing-glyph horiz-adv-x="233"  /><glyph glyph-name="space" unicode=" " d="" /><glyph glyph-name="exclam" unicode="!" d="M140 667 l242 0 l-49 -405 l-242 0 l49 405 ZM95 180 q37 31 93 31 q56 0 95 -32.5 q39 -32.5 39 -79.5 q0 -46 -38.5 -78.5 q-38.5 -32.5 -92.5 -32.5 q-54 0 -93.5 34 q-39.5 34 -39.5 81 q0 46 37 77 Z" /><glyph glyph-name="quotedbl" unicode="&quot;" d="M241 667 l-58 -268 l-99 0 l9 268 l148 0 ZM428 667 l-57 -268 l-100 0 l9 268 l148 0 Z" /><glyph glyph-name="numbersign" unicode="#" d="M484 299 l101 0 l-32 -117 l-102 0 l-51 -182 l-134 0 l52 182 l-84 0 l-52 -182 l-132 0 l52 182 l-102 0 l33 117 l101 0 l23 83 l-100 0 l32 116 l101 0 l48 169 l131 0 l-47 -169 l84 0 l48 169 l133 0 l-48 -169 l100 0 l-32 -116 l-100 0 l-23 -83 ZM350 299 l24 83 l-85 0 l-23 -83 l84 0 Z" /><glyph glyph-name="dollar" unicode="$" d="M497 773 l-12 -96 q80 -8 173 -49 l-77 -177 q-72 63 -162 63 q-82 0 -82 -45 q0 -18 11 -24 q11 -6 63 -16 q126 -22 172 -55 q68 -50 68 -143 q0 -113 -96 -182 q-35 -25 -66.5 -36 q-31.5 -11 -94.5 -21 l-14 -107 l-145 0 l14 107 q-64 9 -114 28 q-50 19 -99 48 l79 181 q44 -42 93 -63 q58 -25 114 -25 q44 0 68.5 13 q24.5 13 24.5 36 q0 19 -15 29 q-15 10 -52 15 q-116 15 -174 50 q-34 22 -54.5 62 q-20.5 40 -20.5 85 q0 90 63.5 150.5 q63.5 60.5 174.5 75.5 l12 96 l148 0 Z" /><glyph glyph-name="percent" unicode="%" d="M267 683 q95 0 156 -48.5 q61 -48.5 61 -125.5 q0 -85 -62.5 -142 q-62.5 -57 -155.5 -57 q-93 0 -151.5 51 q-58.5 51 -58.5 133 q0 83 59 136 q59 53 152 53 ZM312 507 q0 17 -10.5 28.5 q-10.5 11.5 -24.5 11.5 q-18 0 -31 -15.5 q-13 -15.5 -13 -35.5 q0 -17 10.5 -29 q10.5 -12 24.5 -12 q19 0 31.5 15 q12.5 15 12.5 37 ZM720 667 l120 0 l-470 -667 l-121 0 l471 667 ZM812 357 q95 0 156.5 -49 q61.5 -49 61.5 -126 q0 -85 -63.5 -142 q-63.5 -57 -155.5 -57 q-93 0 -151.5 51.5 q-58.5 51.5 -58.5 132.5 q0 83 59 136.5 q59 53.5 152 53.5 ZM857 180 q0 18 -10 29 q-10 11 -25 11 q-18 0 -31 -15 q-13 -15 -13 -36 q0 -16 10.5 -28 q10.5 -12 24.5 -12 q19 0 31.5 14.5 q12.5 14.5 12.5 36.5 Z" /><glyph glyph-name="ampersand" unicode="&amp;" d="M805 220 l-111 -75 l143 -145 l-293 0 l-35 42 q-67 -33 -130 -47 q-51 -12 -93 -12 q-108 0 -178.5 61.5 q-70.5 61.5 -70.5 154.5 q0 99 79 149 q39 22 104 37 q-51 62 -51 122 q0 84 71.5 137 q71.5 53 184.5 53 q108 0 177 -52 q69 -52 69 -133 q0 -115 -156 -175 l51 -61 q36 26 54.5 43.5 q18.5 17.5 58.5 65.5 l126 -165 ZM390 503 q0 -20 24 -53 q51 25 51 58 q0 16 -10 26.5 q-10 10.5 -25 10.5 q-17 0 -28.5 -11.5 q-11.5 -11.5 -11.5 -30.5 ZM389 179 l-69 78 q-48 -15 -48 -50 q0 -19 16 -30.5 q16 -11.5 42 -11.5 q25 0 59 14 Z" /><glyph glyph-name="quotesingle" unicode="&#39;" d="M243 667 l-58 -268 l-101 0 l9 268 l150 0 Z" /><glyph glyph-name="parenleft" unicode="(" d="M318 -160 l-191 -70 q-46 135 -62 237 q-12 80 -12 151 q0 183 63 342 q24 63 51 112.5 q27 49.5 93 153.5 l170 -116 q-91 -145 -129 -262.5 q-38 -117.5 -38 -249.5 q0 -57 9 -123 q12 -86 46 -175 Z" /><glyph glyph-name="parenright" unicode=")" d="M120 696 l191 70 q46 -135 62 -237 q12 -79 12 -154 q0 -180 -62 -339 q-25 -62 -51.5 -111 q-26.5 -49 -93.5 -155 l-170 116 q90 144 128.5 261 q38.5 117 38.5 247 q0 61 -9 127 q-12 86 -46 175 Z" /><glyph glyph-name="asterisk" unicode="*" d="M253 663 l96 -44 l4 110 l120 0 l-24 -110 l107 44 l23 -114 l-111 -25 l63 -83 l-105 -70 l-46 94 l-67 -94 l-89 70 l83 83 l-105 25 l51 114 Z" /><glyph glyph-name="plus" unicode="+" d="M47 280 l0 120 l152 0 l0 153 l130 0 l0 -153 l151 0 l0 -120 l-151 0 l0 -153 l-130 0 l0 153 l-152 0 Z" /><glyph glyph-name="comma" unicode="," d="M75 183 l233 0 l-187 -343 l-178 0 l132 343 Z" /><glyph glyph-name="hyphen" unicode="-" d="M356 175 l-315 0 l23 180 l315 0 l-23 -180 Z" /><glyph glyph-name="period" unicode="." d="M70 176 q40 35 94 35 q54 0 91.5 -32.5 q37.5 -32.5 37.5 -78.5 q0 -47 -39 -80 q-39 -33 -96 -33 q-55 0 -91.5 30.5 q-36.5 30.5 -36.5 75.5 q0 48 40 83 Z" /><glyph glyph-name="slash" unicode="/" d="M-104 -193 l490 922 l173 0 l-491 -922 l-172 0 Z" /><glyph glyph-name="zero" unicode="0" d="M373 683 q136 0 226 -93 q90 -93 90 -233 q0 -159 -97 -266.5 q-97 -107.5 -241 -107.5 q-136 0 -222 91.5 q-86 91.5 -86 235.5 q0 161 93.5 267 q93.5 106 236.5 106 ZM350 183 q41 0 70 56 q29 56 29 136 q0 47 -19 76 q-19 29 -50 29 q-38 0 -67.5 -55 q-29.5 -55 -29.5 -127 q0 -53 18 -84 q18 -31 49 -31 Z" /><glyph glyph-name="one" unicode="1" d="M215 667 l355 0 l-82 -667 l-246 0 l56 461 l-109 -8 l26 214 Z" /><glyph glyph-name="two" unicode="2" d="M551 190 l89 0 l-23 -190 l-614 0 l331 299 q29 26 44 41.5 q15 15.5 30 40.5 q15 25 15 48 q0 30 -17 45 q-15 13 -37 13 q-33 0 -51 -30 q-15 -27 -15 -57 l-244 0 q17 126 91 200 q85 83 233 83 q137 0 213 -71 q69 -65 69 -165 q0 -96 -72 -165 q-33 -31 -83 -60 q-39 -22 -95 -41 l3 -11 q34 12 61 16 q25 4 72 4 Z" /><glyph glyph-name="three" unicode="3" d="M84 100 q-20 29 -28.5 55 q-8.5 26 -14.5 76 l246 0 q-1 -7 -1 -16 q0 -28 17.5 -45.5 q17.5 -17.5 45.5 -17.5 q30 0 51 20 q21 20 21 48 q0 26 -18 43 q-18 17 -46 17 q-13 0 -23 -2 l17 137 q13 -3 20 -3 q25 0 41.5 15 q16.5 15 16.5 38 q0 22 -14.5 36.5 q-14.5 14.5 -34.5 14.5 q-46 0 -52 -55 l-232 0 q10 62 33 99 q27 43 67 69 q79 54 193 54 q119 0 196 -56 q77 -56 77 -142 q0 -52 -31.5 -88.5 q-31.5 -36.5 -83.5 -44.5 l0 -10 q50 -9 79.5 -47.5 q29.5 -38.5 29.5 -93.5 q0 -98 -83 -158 q-83 -60 -217 -60 q-91 0 -161.5 30.5 q-70.5 30.5 -110.5 86.5 Z" /><glyph glyph-name="four" unicode="4" d="M595 309 l92 0 l-23 -182 l-92 0 l-15 -127 l-223 0 l16 127 l-332 0 l22 182 l312 358 l287 0 l-44 -358 ZM337 309 l41 0 l7 56 q7 59 40 132 l-10 1 q-23 -45 -57 -87 l-46 -59 q-22 -26 -62 -57 l4 -7 q36 21 83 21 Z" /><glyph glyph-name="five" unicode="5" d="M226 667 l447 0 l-23 -188 l-274 0 l-18 -62 q43 12 84 12 q101 0 163 -60 q55 -55 55 -134 q0 -93 -67 -161 q-90 -91 -285 -91 q-81 0 -151 16 q-54 12 -107 35 l50 177 q46 -21 89 -33 q48 -13 107 -13 q56 0 85 15 q35 18 35 46 q0 38 -48 55 q-32 12 -92 12 q-56 0 -105 -12 q-36 -10 -57 -17 l112 403 Z" /><glyph glyph-name="six" unicode="6" d="M341 667 l339 0 l-186 -148 q-6 -4 -12 -9 q-6 -5 -8.5 -7.5 q-2.5 -2.5 -3.5 -2.5 q-11 -8 -30 -18 q-4 -2 -20 -8 l3 -13 q23 7 44 7 q83 0 137.5 -59.5 q54.5 -59.5 54.5 -149.5 q0 -119 -90 -197.5 q-90 -78.5 -227 -78.5 q-135 0 -222 77.5 q-87 77.5 -87 197.5 q0 113 81 205 q32 35 72 69 l155 135 ZM343 171 q35 0 58.5 25 q23.5 25 23.5 63 q0 33 -21 54 q-21 21 -54 21 q-34 0 -58.5 -25.5 q-24.5 -25.5 -24.5 -60.5 q0 -34 21 -55.5 q21 -21.5 55 -21.5 Z" /><glyph glyph-name="seven" unicode="7" d="M131 667 l637 0 l-444 -667 l-275 0 l260 372 q47 67 88 101 l-3 7 q-25 -7 -41 -7 l-32 0 l-214 0 l24 194 Z" /><glyph glyph-name="eight" unicode="8" d="M539 338 l-1 -8 q116 -26 116 -132 q0 -92 -84.5 -153.5 q-84.5 -61.5 -212.5 -61.5 q-132 0 -221 64 q-89 64 -89 159 q0 65 39 105 q39 40 109 46 l2 8 q-93 27 -93 120 q0 86 78.5 142 q78.5 56 197.5 56 q122 0 205.5 -58 q83.5 -58 83.5 -143 q0 -65 -47 -106 q-29 -26 -83 -38 ZM384 412 q23 0 39 15.5 q16 15.5 16 38.5 q0 22 -15.5 38 q-15.5 16 -38.5 16 q-23 0 -38.5 -16 q-15.5 -16 -15.5 -38 q0 -22 15.5 -38 q15.5 -16 37.5 -16 ZM302 165.5 q20 -20.5 49 -20.5 q29 0 49 19.5 q20 19.5 20 47.5 q0 30 -19.5 50 q-19.5 20 -48.5 20 q-29 0 -49.5 -20 q-20.5 -20 -20.5 -48 q0 -28 20 -48.5 Z" /><glyph glyph-name="nine" unicode="9" d="M387 0 l-328 0 l150 121 q64 50 107 69 l-5 11 q-28 -7 -50 -7 q-85 0 -142.5 61 q-57.5 61 -57.5 152 q0 120 92 198 q92 78 233 78 q132 0 218 -77 q86 -77 86 -196 q0 -48 -17 -98 q-17 -50 -46 -87 q-26 -32 -75 -77 l-165 -148 ZM372 324 q35 0 60.5 28 q25.5 28 25.5 65 q0 33 -21.5 54.5 q-21.5 21.5 -54.5 21.5 q-36 0 -61 -25.5 q-25 -25.5 -25 -62.5 q0 -35 21.5 -58 q21.5 -23 54.5 -23 Z" /><glyph glyph-name="colon" unicode=":" d="M103 458 q40 35 94 35 q54 0 91.5 -32.5 q37.5 -32.5 37.5 -78.5 q0 -48 -39 -81 q-39 -33 -96 -33 q-55 0 -91.5 30.5 q-36.5 30.5 -36.5 76.5 q0 48 40 83 ZM70 176 q40 35 94 35 q54 0 91.5 -32.5 q37.5 -32.5 37.5 -78.5 q0 -47 -39 -80 q-39 -33 -96 -33 q-55 0 -91.5 30.5 q-36.5 30.5 -36.5 75.5 q0 48 40 83 Z" /><glyph glyph-name="semicolon" unicode=";" d="M75 183 l233 0 l-187 -343 l-178 0 l132 343 ZM225 493 q54 0 91.5 -32.5 q37.5 -32.5 37.5 -78.5 q0 -48 -39.5 -81 q-39.5 -33 -95.5 -33 q-55 0 -91.5 30.5 q-36.5 30.5 -36.5 76.5 q0 48 39.5 83 q39.5 35 94.5 35 Z" /><glyph glyph-name="less" unicode="&lt;" d="M33 389 l433 220 l0 -128 l-296 -147 l295 -148 l1 -128 l-433 222 l0 109 Z" /><glyph glyph-name="equal" unicode="=" d="M47 370 l0 113 l433 0 l0 -113 l-433 0 ZM47 197 l0 113 l433 0 l0 -113 l-433 0 Z" /><glyph glyph-name="greater" unicode="&gt;" d="M493 279 l-433 -221 l0 129 l296 147 l-295 147 l-1 128 l433 -221 l0 -109 Z" /><glyph glyph-name="question" unicode="?" d="M241 267 l21 152 q21 -8 44 -8 q40 0 60 16 q23 18 23 48 q0 22 -13 34 q-14 12 -32 12 q-23 0 -35 -16 q-12 -14 -12 -44 l-224 0 q11 87 70 146 q74 75 206 75 q133 0 206 -74 q57 -58 57 -141 q0 -86 -55 -141 q-67 -68 -221 -68 q-54 0 -95 9 ZM299 212 q60 0 95 -36 q35 -36 35 -80 q0 -47 -39.5 -78 q-39.5 -31 -93.5 -31 q-59 0 -95 34 q-36 34 -36 77 q0 43 36.5 78.5 q36.5 35.5 97.5 35.5 Z" /><glyph glyph-name="at" unicode="@" d="M446 352 q0 26 -13 41 q-14 16 -35 16 q-30 0 -55 -23 q-41 -36 -41 -93 q0 -25 14 -41 q14 -16 34 -16 q26 0 50 19 q19 15 32.5 44 q13.5 29 13.5 53 ZM488 454 l11 38 l89 0 l-59 -190 q-10 -30 -10 -44 q0 -12 7 -18 q5 -5 17 -5 q15 0 30 12 q32 26 47.5 72 q15.5 46 15.5 85 q0 81 -56 135 q-58 55 -144 55 q-56 0 -112.5 -23 q-56.5 -23 -97.5 -62 q-40 -39 -65.5 -96 q-25.5 -57 -25.5 -117 q0 -100 62 -160 q64 -62 177 -62 q97 0 183 34 l11 -86 q-94 -34 -200 -34 q-153 0 -238 81 q-87 84 -87 221 q0 158 119 273 q120 115 281 115 q133 0 213 -88 q65 -71 65 -173 q0 -62 -20 -119 q-20 -57 -58 -93 q-53 -51 -117 -51 q-40 0 -63 21 q-14 14 -18 33 q-24 -28 -52 -44 q-34 -19 -74 -19 q-51 0 -85 34 q-37 37 -37 98 q0 92 67 162 q62 63 138 63 q32 0 54 -13 q21 -13 32 -35 Z" /><glyph glyph-name="A" unicode="a" d="M428 89 l-164 0 l-32 -89 l-260 0 l308 667 l276 0 l124 -667 l-247 0 l-5 89 ZM365 362 l-45 -121 l92 0 l-10 121 q-2 22 -2 47 q0 20 3 53 l-8 0 q-13 -55 -30 -100 Z" /><glyph glyph-name="B" unicode="b" d="M530 348 l1 -6 q52 -11 80.5 -48.5 q28.5 -37.5 28.5 -94.5 q0 -88 -64 -143.5 q-64 -55.5 -163 -55.5 l-374 0 l82 667 l299 0 q156 0 204 -98 q17 -37 17 -72 q0 -59 -29 -98 q-29 -39 -82 -51 ZM367 507 l-34 0 l-12 -96 l21 0 q39 0 57 12 q18 12 18 40 q0 44 -50 44 ZM345 271 l-41 0 l-14 -115 l16 0 q54 0 78 15.5 q24 15.5 24 53.5 q0 46 -63 46 Z" /><glyph glyph-name="C" unicode="c" d="M415 683 q87 0 173 -31 l-20 -237 q-65 52 -133 52 q-60 0 -103.5 -44 q-43.5 -44 -43.5 -104 q0 -51 37 -85.5 q37 -34.5 92 -34.5 q71 0 131 57 l-29 -243 q-89 -30 -152 -30 q-139 0 -229.5 94 q-90.5 94 -90.5 237 q0 159 105 264 q105 105 263 105 Z" /><glyph glyph-name="D" unicode="d" d="M39 0 l82 667 l226 0 q176 0 275.5 -85.5 q99.5 -85.5 99.5 -237.5 q0 -80 -32 -148.5 q-32 -68.5 -90 -114.5 q-55 -44 -122 -62.5 q-67 -18.5 -172 -18.5 l-267 0 ZM368 471 l-30 0 l-33 -273 l34 0 q60 0 102 44 q42 44 42 108 q0 52 -32.5 86.5 q-32.5 34.5 -82.5 34.5 Z" /><glyph glyph-name="E" unicode="e" d="M121 667 l438 0 l-21 -174 l-197 0 l-9 -73 l180 0 l-20 -165 l-180 0 l-9 -76 l204 0 l-22 -179 l-446 0 l82 667 Z" /><glyph glyph-name="F" unicode="f" d="M121 667 l426 0 l-22 -178 l-184 0 l-9 -73 l172 0 l-22 -176 l-172 0 l-29 -240 l-242 0 l82 667 Z" /><glyph glyph-name="G" unicode="g" d="M418 388 l365 0 l0 -6 q0 -192 -110 -301 q-99 -98 -267 -98 q-79 0 -142 20.5 q-63 20.5 -119 75.5 q-98 96 -98 238 q0 152 102 256 q108 111 294 111 q217 0 319 -169 l-227 -89 q-28 56 -89 56 q-61 0 -102 -38 q-55 -52 -55 -137 q0 -62 38 -102 q35 -36 94 -36 q83 0 107 73 l-130 0 l20 146 Z" /><glyph glyph-name="H" unicode="h" d="M505 667 l242 0 l-82 -667 l-242 0 l30 243 l-143 0 l-29 -243 l-242 0 l82 667 l242 0 l-28 -228 l142 0 l28 228 Z" /><glyph glyph-name="I" unicode="i" d="M121 667 l245 0 l-82 -667 l-245 0 l82 667 Z" /><glyph glyph-name="J" unicode="j" d="M201 667 l242 0 l-55 -447 q-5 -38 -9.5 -61.5 q-4.5 -23.5 -19 -56 q-14.5 -32.5 -37.5 -56.5 q-62 -63 -177 -63 q-109 0 -179 52 l78 216 q8 -20 25 -41 q16 -19 39 -19 q20 0 30 14 q8 13 12 46 l51 416 Z" /><glyph glyph-name="K" unicode="k" d="M121 667 l242 0 l-22 -173 q-8 -61 -21 -116 l7 -2 q20 51 42 85 l23 37 l106 169 l282 0 l-260 -338 l170 -329 l-255 0 l-85 192 q-23 52 -34 98 l-7 -1 l0 -20 q0 -39 -5 -77 l-23 -192 l-242 0 l82 667 Z" /><glyph glyph-name="L" unicode="l" d="M121 667 l245 0 l-57 -466 l205 6 l-25 -207 l-450 0 l82 667 Z" /><glyph glyph-name="M" unicode="m" d="M623 667 l255 0 l2 -667 l-235 0 l13 197 q5 86 23 185 l-9 2 l-5 -19 q-21 -85 -54 -163 l-85 -202 l-152 0 l-26 211 q-1 3 -5 50 q-3 37 -3 60 l0 13 q0 27 2 50 l-8 0 l-2 -15 q-10 -81 -28 -158 l-49 -211 l-245 0 l194 667 l256 0 l26 -208 q5 -40 5 -74 q0 -38 -6 -73 l10 0 q16 84 59 190 l67 165 Z" /><glyph glyph-name="N" unicode="n" d="M554 667 l245 0 l-82 -667 l-234 0 l-116 230 q-34 69 -53 135 l-4 12 l-8 0 q4 -40 4 -80 q0 -41 -3 -67 l-21 -230 l-243 0 l82 667 l243 0 l118 -251 q22 -47 42 -118 l6 -22 l10 1 l-2 22 q-5 62 -5 92 q0 44 4 79 l17 197 Z" /><glyph glyph-name="O" unicode="o" d="M675 591 q111 -91 111 -252 q0 -152 -104.5 -254 q-104.5 -102 -260.5 -102 q-158 0 -265.5 98 q-107.5 98 -107.5 243 q0 151 106.5 255 q106.5 104 261.5 104 q150 0 259 -92 ZM410 193 q57 0 94.5 40.5 q37.5 40.5 37.5 101.5 q0 53 -34 90 q-34 37 -84 37 q-55 0 -93.5 -41 q-38.5 -41 -38.5 -99 q0 -56 33.5 -92.5 q33.5 -36.5 84.5 -36.5 Z" /><glyph glyph-name="P" unicode="p" d="M398 203 l-92 0 l-25 -203 l-242 0 l82 667 l278 0 q127 0 192 -51 q84 -67 84 -177 q0 -47 -19 -92.5 q-19 -45.5 -51 -77.5 q-37 -35 -85 -50.5 q-48 -15.5 -122 -15.5 ZM366 493 l-25 0 l-15 -124 l22 0 q92 0 92 71 q0 29 -16.5 41 q-16.5 12 -57.5 12 Z" /><glyph glyph-name="Q" unicode="q" d="M720 139 q-7 -8 -26 -25 l87 -131 l-203 -65 l-44 91 q-68 -26 -131 -26 q-129 0 -228 77 q-126 96 -126 264 q0 154 106.5 256.5 q106.5 102.5 267.5 102.5 q151 0 257 -93 q58 -51 84.5 -112 q26.5 -61 26.5 -143 q0 -125 -71 -196 ZM373 275 l170 18 q5 32 5 44 q0 50 -36.5 87.5 q-36.5 37.5 -85.5 37.5 q-56 0 -95 -44.5 q-39 -44.5 -39 -107.5 q0 -55 34.5 -92.5 q34.5 -37.5 85.5 -37.5 q10 0 30 3 l-69 92 Z" /><glyph glyph-name="R" unicode="r" d="M607 300 q-23 -18 -42.5 -26 q-19.5 -8 -56.5 -13 l145 -261 l-262 0 l-60 161 q-19 52 -26 89 l-7 -1 q1 -22 1 -49 q0 -46 -5 -88 l-13 -112 l-242 0 l82 667 l265 0 q81 0 126.5 -12 q45.5 -12 83.5 -42 q78 -65 78 -166 q0 -93 -67 -147 ZM360 488 l-19 0 l-15 -120 l20 0 q42 0 66.5 18 q24.5 18 24.5 48 q0 54 -77 54 Z" /><glyph glyph-name="S" unicode="s" d="M556 636 q24 -12 42 -22 l-89 -177 q-66 60 -146 60 q-20 0 -33 -10 q-13 -10 -13 -25 q0 -16 13.5 -24 q13.5 -8 59.5 -19 q73 -19 108 -44 q34 -22 53.5 -62.5 q19.5 -40.5 19.5 -86.5 q0 -101 -85 -172 q-85 -71 -206 -71 q-98 0 -202 48 q-44 22 -62 32 l90 180 q30 -37 75 -58 q45 -21 92 -21 q26 0 41 10.5 q15 10.5 15 28.5 q0 33 -63 47 q-62 12 -95 30 q-96 47 -96 164 q0 100 80 169.5 q80 69.5 194 69.5 q105 0 207 -47 Z" /><glyph glyph-name="T" unicode="t" d="M60 667 l476 0 l-26 -210 l-115 7 l-57 -464 l-245 0 l57 464 l-115 -7 l25 210 Z" /><glyph glyph-name="U" unicode="u" d="M500 667 l245 0 l-45 -369 q-14 -107 -31.5 -152 q-17.5 -45 -61.5 -85 q-87 -78 -226 -78 q-147 0 -236 72 q-75 61 -75 175 q0 26 3 53 l48 384 l245 0 l-45 -369 q-5 -40 -5 -49 q0 -62 60 -62 q34 0 52 23.5 q18 23.5 26 78.5 l46 378 Z" /><glyph glyph-name="V" unicode="v" d="M474 667 l274 0 l-334 -667 l-210 0 l-150 667 l253 0 l26 -210 q6 -47 6 -99 q0 -37 -4 -89 l10 -1 q14 119 52 211 l77 188 Z" /><glyph glyph-name="W" unicode="w" d="M820 667 l274 0 l-320 -667 l-204 0 l-30 215 q-8 54 -8 110 q0 15 1 28 l-9 1 l-3 -11 q-13 -65 -27 -100 l-22 -60 l-68 -183 l-216 0 l-134 667 l250 0 l22 -259 q4 -58 4 -88 q0 -3 -2 -53 l10 0 l3 19 q9 72 42 164 l81 217 l199 0 l28 -254 q7 -64 7 -120 q0 -13 -1 -27 l10 0 q7 69 14 101 q7 32 27 88 l72 212 Z" /><glyph glyph-name="X" unicode="x" d="M765 667 l-253 -321 l200 -346 l-261 0 l-51 109 q-16 33 -27 76 l-8 0 q-9 -31 -22 -52 l-14 -24 l-64 -109 l-293 0 l278 356 l-181 311 l273 0 l32 -84 q17 -43 20 -68 l6 0 q11 33 32 73 l41 79 l292 0 Z" /><glyph glyph-name="Y" unicode="y" d="M745 667 l-281 -384 l-35 -283 l-240 0 l36 289 l-178 378 l265 0 l34 -109 q10 -33 13 -76 l9 0 q8 30 24 63 l62 122 l291 0 Z" /><glyph glyph-name="Z" unicode="z" d="M435 194 l181 4 l-24 -198 l-607 0 l8 60 l233 328 q27 37 41 52.5 q14 15.5 31 25.5 l-3 8 q-33 -10 -87 -13 l-153 -4 l26 210 l582 0 l-8 -59 l-247 -348 q-37 -51 -65 -71 l4 -8 q36 11 88 13 Z" /><glyph glyph-name="bracketleft" unicode="[" d="M325 646 l-93 -756 l130 0 l-10 -83 l-132 0 l-198 0 l113 922 l330 0 l-10 -83 l-130 0 Z" /><glyph glyph-name="backslash" unicode="\" d="M-82 -193 l631 922 l173 0 l-632 -922 l-172 0 Z" /><glyph glyph-name="bracketright" unicode="]" d="M115 -110 l93 756 l-130 0 l10 83 l330 0 l-113 -922 l-200 0 l-130 0 l10 83 l130 0 Z" /><glyph glyph-name="asciicircum" unicode="^" d="M263 549 l-101 -219 l-144 0 l160 337 l170 0 l161 -337 l-144 0 l-102 219 Z" /><glyph glyph-name="underscore" unicode="_" d="M-30 -196 l0 150 l500 0 l0 -150 l-500 0 Z" /><glyph glyph-name="grave" unicode="`" d="M161 669 l117 73 l115 -146 l-86 -55 l-146 128 Z" /><glyph glyph-name="a" unicode="a" d="M403 467 l230 0 l-58 -467 l-229 0 q7 30 25 83 l-7 3 q-30 -53 -64 -76 q-34 -23 -80 -23 q-79 0 -137 65 q-58 65 -58 153 q0 111 70.5 194.5 q70.5 83.5 163.5 83.5 q56 0 88.5 -23 q32.5 -23 52.5 -77 l8 3 q-5 41 -5 71 l0 10 ZM316 164 q28 0 46.5 21 q18.5 21 18.5 53 q0 26 -15.5 43.5 q-15.5 17.5 -39.5 17.5 q-27 0 -47 -22.5 q-20 -22.5 -20 -53.5 q0 -26 16 -42.5 q16 -16.5 41 -16.5 Z" /><glyph glyph-name="b" unicode="b" d="M110 729 l231 0 l-28 -228 q-7 -55 -28 -112 l6 -4 q44 98 137 98 q79 0 132 -66.5 q53 -66.5 53 -166.5 q0 -110 -64.5 -186.5 q-64.5 -76.5 -158.5 -76.5 q-97 0 -144 94 l-7 -2 q5 -31 5 -60 l0 -19 l-224 0 l90 729 ZM324 164 q26 0 43.5 21 q17.5 21 17.5 53 q0 28 -15.5 45.5 q-15.5 17.5 -39.5 17.5 q-26 0 -44 -21 q-18 -21 -18 -52 q0 -27 16 -45.5 q16 -18.5 40 -18.5 Z" /><glyph glyph-name="c" unicode="c" d="M300 493 q59 0 139 -26 l-29 -196 q-36 42 -82 42 q-33 0 -53 -22 q-20 -22 -20 -58 q0 -32 18 -50.5 q18 -18.5 50 -18.5 q41 0 78 33 l-34 -192 q-60 -18 -105 -18 q-104 0 -169.5 65 q-65.5 65 -65.5 168 q0 122 75.5 197.5 q75.5 75.5 197.5 75.5 Z" /><glyph glyph-name="d" unicode="d" d="M426 729 l231 0 l-90 -729 l-231 0 q10 40 23 78 l-8 4 q-42 -95 -140 -95 q-80 0 -132.5 62.5 q-52.5 62.5 -52.5 157.5 q0 114 65 195 q65 81 157 81 q105 0 140 -102 l9 2 q-4 24 -4 35 q0 48 7 101 l26 210 ZM311 169 q25 0 42.5 19.5 q17.5 19.5 19.5 50.5 l0 5 q0 27 -15 43.5 q-15 16.5 -40 16.5 q-26 0 -44.5 -21 q-18.5 -21 -18.5 -52 q0 -26 16.5 -44 q16.5 -18 39.5 -18 Z" /><glyph glyph-name="e" unicode="e" d="M587 202 l-331 0 q-1 -6 -1 -17 q0 -29 14 -46 q14 -17 37 -17 q34 0 50 40 l222 0 q-14 -40 -27 -61 q-13 -21 -38 -43 q-82 -71 -205 -71 q-125 0 -202.5 67 q-77.5 67 -77.5 175 q0 113 82.5 189 q82.5 76 205.5 76 q116 0 195.5 -70.5 q79.5 -70.5 79.5 -173.5 q0 -6 -4 -48 ZM322 360 q-47 0 -57 -62 l108 0 q-1 62 -51 62 Z" /><glyph glyph-name="f" unicode="f" d="M372 288 l-66 6 l-36 -294 l-231 0 l36 294 l-60 -6 l23 183 l57 -10 l10 81 q11 90 61 140 q58 58 165 58 q53 0 101 -14 l-22 -177 q-18 8 -29 8 q-18 0 -31 -13 q-14 -14 -19 -55 l-4 -28 l67 6 l-22 -179 Z" /><glyph glyph-name="g" unicode="g" d="M397 467 l228 0 l-52 -421 q-10 -82 -31.5 -128 q-21.5 -46 -65.5 -79 q-88 -68 -221 -68 q-106 0 -213 41 q-10 3 -30 12 l62 152 q82 -50 150 -50 q37 0 67 15.5 q30 15.5 44 41.5 q13 26 28 100 l-7 2 q-22 -48 -53 -68 q-31 -20 -83 -20 q-83 0 -138 63 q-55 63 -55 158 q0 111 66.5 188 q66.5 77 162.5 77 q103 0 138 -95 l7 2 l-2 27 l-1 34 l-1 16 ZM312 163 q28 0 46.5 19.5 q18.5 19.5 18.5 49.5 q0 29 -15.5 47.5 q-15.5 18.5 -39.5 18.5 q-28 0 -47.5 -21.5 q-19.5 -21.5 -19.5 -51.5 q0 -28 16 -45 q16 -17 41 -17 Z" /><glyph glyph-name="h" unicode="h" d="M110 729 l231 0 l-26 -211 q-9 -71 -25 -125 l9 -3 q53 93 148 93 q62 0 104.5 -43 q42.5 -43 42.5 -106 q0 -26 -4 -53 l-34 -281 l-232 0 l28 226 q3 20 3 31 q0 35 -30 35 q-22 0 -32.5 -15.5 q-10.5 -15.5 -15.5 -58.5 l-26 -218 l-231 0 l90 729 Z" /><glyph glyph-name="i" unicode="i" d="M217 747 q52 0 90.5 -32.5 q38.5 -32.5 38.5 -76.5 q0 -47 -38.5 -80 q-38.5 -33 -95.5 -33 q-53 0 -90 31 q-37 31 -37 76 q0 46 39.5 80.5 q39.5 34.5 92.5 34.5 ZM81 467 l231 0 l-57 -467 l-231 0 l57 467 Z" /><glyph glyph-name="j" unicode="j" d="M90 467 l231 0 l-89 -696 l-231 0 l89 696 ZM225 747 q52 0 91 -32.5 q39 -32.5 39 -76.5 q0 -47 -39 -80 q-39 -33 -96 -33 q-53 0 -90 31 q-37 31 -37 76 q0 46 39.5 80.5 q39.5 34.5 92.5 34.5 Z" /><glyph glyph-name="k" unicode="k" d="M110 729 l231 0 l-34 -279 q-9 -70 -29 -175 l7 -1 q17 44 61 109 l57 84 l275 0 l-201 -241 l134 -226 l-256 0 l-42 91 q-29 63 -40 114 l-9 -1 q3 -39 3 -57 q0 -17 -2 -39 l-14 -108 l-231 0 l90 729 Z" /><glyph glyph-name="l" unicode="l" d="M110 729 l231 0 l-90 -729 l-231 0 l90 729 Z" /><glyph glyph-name="m" unicode="m" d="M77 467 l225 0 q-8 -37 -21 -77 l11 -2 q30 52 63.5 73.5 q33.5 21.5 84.5 21.5 q104 0 120 -98 l8 0 q38 98 144 98 q70 0 111.5 -41 q41.5 -41 41.5 -110 q0 -23 -5 -65 l-33 -267 l-225 0 l29 236 q3 22 3 29 q0 15 -7.5 25 q-7.5 10 -19.5 10 q-20 0 -29 -15.5 q-9 -15.5 -14 -63.5 l-28 -221 l-225 0 l28 230 l4 25 l0 11 q0 33 -26 33 q-20 0 -29.5 -15 q-9.5 -15 -14.5 -57 l-28 -227 l-225 0 l57 467 Z" /><glyph glyph-name="n" unicode="n" d="M77 467 l232 0 q-8 -45 -23 -83 l8 -2 q35 56 68.5 79 q33.5 23 78.5 23 q66 0 109.5 -43.5 q43.5 -43.5 43.5 -108.5 q0 -24 -5 -71 l-32 -261 l-232 0 l28 226 q3 20 3 31 q0 35 -30 35 q-23 0 -33 -15 q-10 -15 -15 -59 l-27 -218 l-231 0 l57 467 Z" /><glyph glyph-name="o" unicode="o" d="M320 493 q131 0 211 -68.5 q80 -68.5 80 -180.5 q0 -110 -83 -183.5 q-83 -73.5 -207 -73.5 q-127 0 -209.5 70.5 q-82.5 70.5 -82.5 178.5 q0 111 83 184 q83 73 208 73 ZM318 169 q28 0 46 21.5 q18 21.5 18 53.5 q0 28 -16.5 47 q-16.5 19 -41.5 19 q-27 0 -46.5 -22 q-19.5 -22 -19.5 -53 q0 -29 17 -47.5 q17 -18.5 43 -18.5 Z" /><glyph glyph-name="p" unicode="p" d="M82 467 l232 0 q-8 -38 -19 -71 l9 -4 q28 51 57 71.5 q29 20.5 74 20.5 q77 0 131 -68 q54 -68 54 -165 q0 -106 -64 -185 q-64 -79 -150 -79 q-113 0 -146 96 l-8 -3 q3 -41 3 -57 q0 -30 -5 -77 l-22 -175 l-232 0 l86 696 ZM331 163 q27 0 44 21 q17 21 17 54 q0 28 -15.5 46 q-15.5 18 -38.5 18 q-25 0 -43.5 -22.5 q-18.5 -22.5 -18.5 -54.5 q0 -28 15 -45 q15 -17 40 -17 Z" /><glyph glyph-name="q" unicode="q" d="M383 467 l236 0 l-86 -696 l-231 0 l24 195 q8 61 32 119 l-9 4 q-42 -102 -142 -102 q-78 0 -130 63.5 q-52 63.5 -52 158.5 q0 111 66.5 192.5 q66.5 81.5 156.5 81.5 q98 0 137 -98 l9 3 q-9 33 -11 79 ZM308 169 q26 0 44.5 20.5 q18.5 20.5 18.5 50.5 q0 28 -15 45.5 q-15 17.5 -39 17.5 q-27 0 -45 -20.5 q-18 -20.5 -18 -50.5 q0 -28 15.5 -45.5 q15.5 -17.5 38.5 -17.5 Z" /><glyph glyph-name="r" unicode="r" d="M425 484 q10 0 29 -4 l-28 -230 q-33 17 -54 17 q-85 0 -102 -130 l-17 -137 l-233 0 l57 467 l234 0 q-9 -41 -26 -83 l10 -5 q32 58 61.5 81.5 q29.5 23.5 68.5 23.5 Z" /><glyph glyph-name="s" unicode="s" d="M271 493 q91 0 198 -42 l-57 -141 q-53 39 -108 39 q-40 0 -40 -24 q0 -20 27 -26 l42 -10 q52 -11 82 -45.5 q30 -34.5 30 -82.5 q0 -77 -64.5 -125.5 q-64.5 -48.5 -165.5 -48.5 q-78 0 -167 34 q-6 3 -22 9.5 q-16 6.5 -26 10.5 l56 141 q74 -49 137 -49 q37 0 37 25 q0 24 -52 36 q-70 16 -98.5 43.5 q-28.5 27.5 -28.5 78.5 q0 77 62.5 127 q62.5 50 157.5 50 Z" /><glyph glyph-name="t" unicode="t" d="M362 288 l-56 6 l-36 -294 l-231 0 l36 294 l-60 -6 l23 183 l57 -10 l21 164 l231 0 l-20 -164 l57 6 l-22 -179 Z" /><glyph glyph-name="u" unicode="u" d="M383 467 l232 0 l-32 -257 q-8 -66 -24.5 -101.5 q-16.5 -35.5 -52.5 -64.5 q-73 -57 -191 -57 q-128 0 -198.5 52 q-70.5 52 -70.5 147 q0 24 3 54 l28 227 l232 0 l-28 -227 q-4 -31 -4 -41 q0 -15 9.5 -25 q9.5 -10 24.5 -10 q21 0 30 13.5 q9 13.5 13 53.5 l29 236 Z" /><glyph glyph-name="v" unicode="v" d="M344 467 l260 0 l-271 -467 l-195 0 l-119 467 l232 0 l11 -138 q2 -36 2 -51 q0 -16 -3 -65 l9 0 q10 73 30 130 l44 124 Z" /><glyph glyph-name="w" unicode="w" d="M609 467 l256 0 l-247 -467 l-188 0 l-11 85 q-9 69 -9 112 q0 3 0.5 15 q0.5 12 0.5 20 l-8 2 q-23 -89 -36 -121 l-47 -113 l-186 0 l-115 467 l235 0 l11 -120 q3 -27 3 -56 q0 -17 -3 -77 l10 -1 q7 39 14 66 q1 3 13 41 l47 147 l165 0 l19 -135 q6 -49 9 -116 l9 0 q5 60 23 124 l35 127 Z" /><glyph glyph-name="x" unicode="x" d="M374 467 l282 0 l-211 -234 l162 -233 l-255 0 l-20 43 q-15 32 -17 59 l-7 1 q-5 -15 -25 -48 l-35 -55 l-278 0 l217 246 l-155 221 l263 0 l16 -49 q7 -20 9 -44 l9 1 q7 23 18 43 l27 49 Z" /><glyph glyph-name="y" unicode="y" d="M381 467 l249 0 l-363 -696 l-248 0 l88 169 q35 61 65 96 l-141 431 l238 0 l20 -130 q7 -43 7 -75 q0 -24 -2 -48 l10 -1 q15 78 34 131 l43 123 Z" /><glyph glyph-name="z" unicode="z" d="M62 467 l461 0 l-4 -30 l-144 -204 q-23 -32 -57 -56 l4 -11 q22 11 58 11 l107 0 l-22 -177 l-472 0 l4 35 l139 207 q33 42 58 57 l-5 9 q-27 -15 -64 -15 l-84 0 l21 174 Z" /><glyph glyph-name="braceleft" unicode="{" d="M324 420 q-8 -70 -23 -99 q-15 -29 -55 -54 q26 -20 36 -39 q10 -19 10 -52 q0 -14 -2 -36 l-15 -123 l-4 -37 q-1 -8 -1 -20 q0 -22 15 -29.5 q15 -7.5 59 -7.5 q10 0 20 1 l-14 -115 l-34 -1 l-32 -1 l-12 0 q-73 0 -104.5 25.5 q-31.5 25.5 -31.5 84.5 q0 21 4 59 l19 155 q2 16 2 28 q0 48 -46 58 l13 110 q48 9 57 45 l6 23 l4 35 l19 154 q10 78 49 111.5 q39 33.5 121 33.5 q2 0 6 -0.5 q4 -0.5 6 -0.5 l32 -1 l33 -1 l-14 -114 l-21 0 q-50 0 -65.5 -10 q-15.5 -10 -19.5 -47 l-2 -12 l-15 -123 Z" /><glyph glyph-name="bar" unicode="|" d="M185 -250 l0 1000 l130 0 l0 -1000 l-130 0 Z" /><glyph glyph-name="braceright" unicode="}" d="M208 141 q6 51 21 76 q15 25 54 51 q-27 19 -36.5 38 q-9.5 19 -9.5 53 q0 15 2 35 l18 149 l1 12 q2 16 2 21 q0 22 -15 29 q-15 7 -59 7 l-20 0 l14 114 l34 1 l32 1 q2 0 5.5 0.5 q3.5 0.5 5.5 0.5 q73 0 105 -25.5 q32 -25.5 32 -84.5 q0 -9 -2 -35 l-22 -180 q-2 -16 -2 -28 q0 -49 46 -58 l-13 -110 q-48 -11 -57 -46 l-6 -23 l-2 -7 l-22 -181 q-10 -78 -48.5 -111 q-38.5 -33 -120.5 -33 l-12 0 l-32 1 l-33 1 l14 115 q10 -1 21 -1 q49 0 64.5 10.5 q15.5 10.5 20.5 46.5 l2 12 l18 149 Z" /><glyph glyph-name="asciitilde" unicode="~" d="M158 256 q-25 0 -39.5 -12 q-14.5 -12 -33.5 -49 l-71 47 l7 17 q26 65 59.5 93.5 q33.5 28.5 84.5 28.5 q34 0 104 -26 q62 -23 86 -23 q25 0 39.5 10.5 q14.5 10.5 32.5 40.5 l73 -43 q-25 -54 -44.5 -78 q-19.5 -24 -49.5 -40 q-34 -16 -65 -16 q-23 0 -102 28 q-64 22 -81 22 Z" /><glyph glyph-name="nonbreakingspace" unicode=" " d="" /><glyph glyph-name="exclamdown" unicode="¡" d="M277 -230 l-242 0 l50 405 l242 0 l-50 -405 ZM236 226 q-56 0 -95 32.5 q-39 32.5 -39 79.5 q0 46 38.5 78.5 q38.5 32.5 92.5 32.5 q54 0 93.5 -33.5 q39.5 -33.5 39.5 -80.5 q0 -47 -37.5 -78 q-37.5 -31 -92.5 -31 Z" /><glyph glyph-name="cent" unicode="¢" d="M504 670 l-10 -84 q38 -3 71 -19 l-28 -193 q-32 41 -79 41 q-32 0 -53 -21 q-21 -22 -21 -53 q0 -29 19 -46 q20 -18 52 -18 q43 0 79 34 l-34 -191 q-34 -15 -66 -18 l-12 -92 l-104 0 l12 92 q-59 12 -103 53 q-69 65 -69 174 q0 117 77 192 q63 61 160 70 l9 79 l100 0 Z" /><glyph glyph-name="sterling" unicode="£" d="M474 162 l126 0 q-4 -82 -53 -131 q-44 -44 -131 -44 q-58 0 -105 20 l-39 16 q-39 16 -54 16 q-25 0 -40 -15 q-9 -9 -14 -24 l-113 0 q5 62 40 111 q32 45 84 65 q4 13 7 67 l-120 0 l15 110 l83 0 q-20 53 -20 105 q0 89 63 152 q72 72 188 72 q114 0 174 -59 q51 -51 51 -136 q0 -27 -6 -59 l-154 0 q3 12 3 32 q0 37 -18 56 q-17 17 -43 17 q-33 0 -53 -20 q-22 -22 -22 -58 q0 -18 7.5 -45.5 q7.5 -27.5 10.5 -56.5 l133 0 l-15 -110 l-118 0 q0 -51 -20 -81 q8 -4 24 -11 q16 -7 21.5 -9.5 q5.5 -2.5 16.5 -7 q11 -4.5 16.5 -5.5 q5.5 -1 12.5 -2.5 q7 -1.5 14 -1.5 q22 0 33 10 q9 8 15 27 Z" /><glyph glyph-name="currency" unicode="¤" d="M109 67 l-70 70 l103 103 q-44 65 -44 138 q0 72 44 137 l-104 104 l71 71 l104 -104 q67 44 140 44 q70 0 137 -43 l103 102 l70 -70 l-102 -102 q45 -71 45 -140 q0 -71 -43 -136 l103 -103 l-70 -71 l-103 103 q-67 -45 -142 -45 q-70 0 -140 44 l-102 -102 ZM488 377 q0 57 -40 97 q-40 40 -96 40 q-56 0 -96 -40 q-40 -40 -40 -97 q0 -56 40 -96 q40 -40 96 -40 q56 0 96 40 q40 40 40 96 Z" /><glyph glyph-name="yen" unicode="¥" d="M456 247 l206 0 l-13 -108 l-206 0 l-17 -139 l-240 0 l17 139 l-196 0 l13 108 l196 0 l6 42 l-24 50 l-167 0 l14 108 l102 0 l-103 220 l265 0 l34 -109 q9 -33 13 -76 l8 0 q8 29 25 63 l61 122 l291 0 l-160 -220 l106 0 l-14 -108 l-171 0 l-41 -56 l-5 -36 Z" /><glyph glyph-name="brokenbar" unicode="¦" d="M185 337 l0 413 l130 0 l0 -413 l-130 0 ZM185 -250 l0 413 l130 0 l0 -413 l-130 0 Z" /><glyph glyph-name="section" unicode="§" d="M655 541 q0 -15 -1 -28 l-170 0 l0 11 q0 37 -21.5 58.5 q-21.5 21.5 -57.5 21.5 q-28 0 -45 -13.5 q-17 -13.5 -17 -36.5 q0 -23 16.5 -39 q16.5 -16 56.5 -30 l47 -16 q99 -35 138 -93 q29 -44 29 -90 q0 -49 -29 -90.5 q-29 -41.5 -79 -61.5 q27 -33 38 -62 q11 -29 11 -69 q0 -93 -67 -144.5 q-67 -51.5 -187 -51.5 q-128 0 -198.5 54 q-70.5 54 -76.5 157 l189 0 l0 -7 q0 -32 23 -53.5 q23 -21.5 57 -21.5 q29 0 46 15 q17 15 17 42 q0 27 -19.5 44 q-19.5 17 -66.5 32 q-70 22 -94.5 33.5 q-24.5 11.5 -47.5 33.5 q-52 40 -52 121 q0 95 106 151 q-53 59 -53 132 q0 88 71.5 138.5 q71.5 50.5 194.5 50.5 q119 0 180 -53 q29 -26 45.5 -62 q16.5 -36 16.5 -73 ZM432 271 q0 29 -19.5 47.5 q-19.5 18.5 -50.5 18.5 q-34 0 -55.5 -18.5 q-21.5 -18.5 -21.5 -47.5 q0 -29 20.5 -48.5 q20.5 -19.5 50.5 -19.5 q32 0 54 20 q22 20 22 48 Z" /><glyph glyph-name="dieresis" unicode="¨" d="M75 642 q0 43 30 73 q30 30 72 30 q43 0 73 -30 q30 -30 30 -73 q0 -42 -30 -72 q-30 -30 -73 -30 q-42 0 -72 30 q-30 30 -30 72 ZM322 642 q0 43 30 73 q30 30 72 30 q43 0 73 -30 q30 -30 30 -73 q0 -42 -30 -72 q-30 -30 -73 -30 q-42 0 -72 30 q-30 30 -30 72 Z" /><glyph glyph-name="copyright" unicode="©" d="M46 334 q0 144 102 246 q102 102 247 102 q142 0 243.5 -102.5 q101.5 -102.5 101.5 -246.5 q0 -144 -101.5 -246 q-101.5 -102 -244.5 -102 q-144 0 -246 102 q-102 102 -102 247 ZM660 334 q0 114 -78 194.5 q-78 80.5 -188 80.5 q-111 0 -189.5 -80.5 q-78.5 -80.5 -78.5 -195.5 q0 -114 78.5 -195 q78.5 -81 189.5 -81 q110 0 188 81 q78 81 78 196 ZM526 303 l-3 -158 q-44 -18 -112 -18 q-89 0 -150.5 59 q-61.5 59 -61.5 144 q0 88 62.5 148.5 q62.5 60.5 152.5 60.5 q54 0 105 -15 l4 -2 l3 -160 l-10 8 q-43 32 -79 32 q-30 0 -51 -20 q-21 -20 -21 -48 q0 -29 21.5 -49 q21.5 -20 52.5 -20 q40 0 77 29 l10 9 Z" /><glyph glyph-name="ordfeminine" unicode="ª" d="M249 427 l-4 0 q-15 -19 -33 -29 q-21 -12 -56 -12 q-44 0 -72 25 q-36 32 -36 93 q0 75 49 124 q39 39 98 39 q28 0 48 -12 q17 -11 27 -27 q-1 3 -1 14 l0 5 l2 12 l141 0 l-33 -266 l-140 0 l1 9 q1 9 9 25 ZM364 267 l-339 0 l11 92 l339 0 l-11 -92 ZM192 520 q0 -11 7 -18 q8 -8 24 -8 q18 0 27 11 q10 10 10 26 q0 12 -9 21 q-9 7 -22 7 q-18 0 -29 -14 q-8 -11 -8 -25 Z" /><glyph glyph-name="guillemotleft" unicode="«" d="M276 67 l-96 -62 l-144 222 l192 230 l85 -71 l-142 -161 l105 -158 ZM487 67 l-96 -62 l-144 222 l192 230 l85 -71 l-142 -161 l105 -158 Z" /><glyph glyph-name="logicalnot" unicode="¬" d="M455 0 l-130 0 l0 150 l-303 0 l0 117 l433 0 l0 -267 Z" /><glyph glyph-name="uni00AD" unicode="­" d="M356 175 l-315 0 l23 180 l315 0 l-23 -180 Z" /><glyph glyph-name="registered" unicode="®" d="M426 -22 q-145 0 -248.5 103 q-103.5 103 -103.5 250 q0 145 103 248 q103 103 249 103 q146 0 249.5 -102.5 q103.5 -102.5 103.5 -248.5 q0 -147 -103.5 -250 q-103.5 -103 -249.5 -103 ZM427 610 q-111 0 -192 -83.5 q-81 -83.5 -81 -196.5 q0 -116 80.5 -198 q80.5 -82 192.5 -82 q113 0 192.5 82 q79.5 82 79.5 198 q0 115 -80 197.5 q-80 82.5 -192 82.5 ZM396 158 l-138 0 l0 353 l170 0 q72 0 113 -33.5 q41 -33.5 41 -91.5 q0 -36 -16.5 -57 q-16.5 -21 -52.5 -35 l5 -6 l10 -8 l87 -122 l-163 0 l-56 102 l0 -102 ZM395 409 l0 -52 l15 0 q32 0 32 25 q0 12 -7.5 19.5 q-7.5 7.5 -19.5 7.5 l-20 0 Z" /><glyph glyph-name="macron" unicode="¯" d="M458 546 l-340 0 l12 100 l340 0 l-12 -100 Z" /><glyph glyph-name="degree" unicode="°" d="M286 363 q-66 0 -111 45 q-45 45 -45 108 q0 62 45 106 q46 45 108 45 q64 0 110 -44 q45 -43 45 -107 q0 -63 -45 -108 q-45 -45 -107 -45 ZM234.5 563 q-20.5 -20 -20.5 -48 q0 -28 20.5 -48 q20.5 -20 49.5 -20 q29 0 49.5 20 q20.5 20 20.5 48 q0 28 -20.5 48 q-20.5 20 -49.5 20 q-29 0 -49.5 -20 Z" /><glyph glyph-name="plusminus" unicode="±" d="M38 357 l0 120 l151 0 l0 153 l130 0 l0 -153 l152 0 l0 -120 l-152 0 l0 -154 l-130 0 l0 154 l-151 0 ZM38 50 l0 120 l433 0 l0 -120 l-433 0 Z" /><glyph glyph-name="twosuperior" unicode="²" d="M436 399 l38 0 l-15 -128 l-389 0 l146 130 q68 59 77 68 q33 31 33 59 q0 15 -8 25 q-9 9 -24 9 q-22 0 -33 -17 q-8 -11 -10 -36 l-143 0 q5 75 59 123 q55 51 142 51 q75 0 124 -37 q53 -41 53 -105 q0 -49 -35 -84 q-35 -35 -105 -63 l4 -9 q43 14 86 14 Z" /><glyph glyph-name="threesuperior" unicode="³" d="M383 484 l0 -6 q24 -9 39 -25 q21 -22 21 -58 q0 -52 -36 -87 q-45 -45 -137 -45 q-114 0 -160 43 q-44 40 -45 107 l148 0 q0 -23 8 -31 q9 -11 28 -11 q18 0 28 11 q10 10 10 24 q0 15 -10 24 q-10 9 -28 9 q-8 0 -11 -1 l10 83 q8 -2 11 -2 q16 0 24 10 q8 10 8 22 q0 14 -9 23 q-7 7 -21 7 q-12 0 -20 -8 q-11 -11 -13 -31 l-138 0 q10 60 56 102 q45 39 136 39 q79 0 121 -33 q43 -33 43 -87 q0 -34 -23 -57 q-16 -16 -40 -22 Z" /><glyph glyph-name="acute" unicode="´" d="M231 596 l116 146 l117 -73 l-146 -128 l-87 55 Z" /><glyph glyph-name="mu" unicode="µ&#x3bc;" d="M219 -230 l-223 0 l85 697 l232 0 l-34 -278 q0 -2 -0.5 -6 q-0.5 -4 -0.5 -7 q0 -16 7 -27 q11 -17 35 -17 q24 0 40 16 q13 13 17 43 l34 276 l232 0 l-57 -467 l-223 0 l1 9 q0 5 11 51 l-6 0 q-9 -32 -25 -49 q-15 -17 -41 -17 q-24 0 -37 18 q-12 17 -16 48 l-6 0 q3 -21 3 -47 q0 -16 -1 -23 l-27 -220 Z" /><glyph glyph-name="paragraph" unicode="¶" d="M302 -95 l-122 0 l51 409 l-5 0 q-85 0 -129 46 q-39 39 -39 109 q0 85 54 137 q64 61 211 61 l348 0 l-14 -110 l-70 0 l-80 -652 l-122 0 l80 652 l-83 0 l-80 -652 Z" /><glyph glyph-name="periodcentered" unicode="·" d="M54 415 q42 37 99 37 q57 0 96.5 -34 q39.5 -34 39.5 -83 q0 -50 -41.5 -84.5 q-41.5 -34.5 -100.5 -34.5 q-58 0 -96.5 32 q-38.5 32 -38.5 80 q0 50 42 87 Z" /><glyph glyph-name="cedilla" unicode="¸" d="M118 -180 l134 135 l106 -76 l-140 -129 l-100 70 Z" /><glyph glyph-name="onesuperior" unicode="¹" d="M96 674 l204 0 l-49 -400 l-144 0 l34 276 l-61 -4 l16 128 Z" /><glyph glyph-name="ordmasculine" unicode="º" d="M260 667 q73 0 116 -35 q42 -34 42 -91 q0 -60 -42 -100 q-53 -53 -154 -53 q-77 0 -122 40 q-38 35 -38 84 q0 58 40 100 q53 55 158 55 ZM41 359 l360 0 l-12 -92 l-361 0 l13 92 ZM206 522 q0 -13 7 -20 q8 -8 24 -8 q18 0 27 11 q10 10 10 26 q0 12 -9 21 q-9 7 -22 7 q-14 0 -25 -9 q-12 -10 -12 -28 Z" /><glyph glyph-name="guillemotright" unicode="»" d="M65 395 l96 62 l141 -222 l-192 -230 l-84 71 l141 159 l-102 160 ZM278 395 l96 62 l141 -222 l-192 -230 l-84 71 l141 159 l-102 160 Z" /><glyph glyph-name="onequarter" unicode="¼" d="M72 667 l204 0 l-49 -400 l-144 0 l34 276 l-61 -4 l16 128 ZM568 667 l130 0 l-470 -667 l-131 0 l471 667 ZM637 186 l43 0 l6 51 q5 32 8 43 l-5 3 q-25 -31 -32 -38 q-13 -13 -25.5 -27 q-12.5 -14 -18.5 -20 q-6 -6 -14 -12 l1 -4 q17 4 37 4 ZM799 81 l-7 -81 l-146 0 l14 81 l-206 -5 l13 106 l193 218 l181 0 l-26 -214 l52 5 l-14 -114 l-54 4 Z" /><glyph glyph-name="onehalf" unicode="½" d="M72 667 l204 0 l-49 -400 l-144 0 l34 276 l-61 -4 l16 128 ZM820 128 l38 0 l-15 -128 l-389 0 l146 130 q68 59 77 68 q33 31 33 59 q0 15 -8 25 q-9 9 -24 9 q-22 0 -33 -17 q-8 -11 -10 -36 l-143 0 q5 75 59 123 q55 51 142 51 q75 0 124 -37 q53 -41 53 -105 q0 -49 -35 -84 q-35 -35 -105 -63 l4 -9 q43 14 86 14 ZM568 667 l130 0 l-470 -667 l-131 0 l471 667 Z" /><glyph glyph-name="threequarters" unicode="¾" d="M374 483 l0 -6 q24 -9 39 -25 q21 -22 21 -58 q0 -52 -36 -87 q-45 -45 -143 -45 q-108 0 -154 43 q-44 40 -45 107 l148 0 q0 -23 8 -31 q9 -11 28 -11 q18 0 28 11 q10 10 10 24 q0 15 -10 24 q-11 9 -28 9 q-8 0 -11 -1 l10 83 q8 -2 11 -2 q16 0 24 10 q8 10 8 22 q0 14 -9 23 q-7 7 -21 7 q-12 0 -20 -8 q-11 -11 -13 -31 l-138 0 q10 60 56 102 q46 39 130 39 q83 0 127 -33 q43 -33 43 -87 q0 -34 -23 -57 q-16 -16 -40 -22 ZM703 667 l130 0 l-470 -667 l-131 0 l471 667 ZM756 186 l43 0 l6 51 q5 32 8 43 l-5 3 q-25 -31 -32 -38 q-13 -13 -25.5 -27 q-12.5 -14 -18.5 -20 q-6 -6 -14 -12 l1 -4 q17 4 37 4 ZM918 81 l-7 -81 l-146 0 l14 81 l-206 -5 l13 106 l193 218 l181 0 l-26 -214 l52 5 l-14 -114 l-54 4 Z" /><glyph glyph-name="questiondown" unicode="¿" d="M391 179 l-21 -151 q-24 8 -48 8 q-41 0 -64 -23 q-20 -20 -20 -50 q0 -20 12 -32 q12 -12 34 -12 q23 0 35 16 q11 15 11 41 l229 0 q-12 -101 -90 -163 q-71 -55 -196 -55 q-133 0 -201 66 q-57 55 -57 146 q0 111 92 171 q68 45 198 45 q53 0 86 -7 ZM334 226 q-59 0 -95 34 q-36 34 -36 79 q0 43 36 76.5 q36 33.5 96 33.5 q60 0 96 -34 q36 -34 36 -77 q0 -44 -37.5 -78 q-37.5 -34 -95.5 -34 Z" /><glyph glyph-name="Agrave" unicode="à" d="M428 89 l-164 0 l-32 -89 l-260 0 l308 667 l276 0 l124 -667 l-247 0 l-5 89 ZM365 362 l-45 -121 l92 0 l-10 121 q-2 22 -2 47 q0 20 3 53 l-8 0 q-13 -55 -30 -100 ZM280 843 l117 73 l126 -137 l-86 -55 l-157 119 Z" /><glyph glyph-name="Aacute" unicode="á" d="M428 89 l-164 0 l-32 -89 l-260 0 l308 667 l276 0 l124 -667 l-247 0 l-5 89 ZM365 362 l-45 -121 l92 0 l-10 121 q-2 22 -2 47 q0 20 3 53 l-8 0 q-13 -55 -30 -100 ZM326 779 l127 137 l117 -73 l-157 -119 l-87 55 Z" /><glyph glyph-name="Acircumflex" unicode="â" d="M428 89 l-164 0 l-32 -89 l-260 0 l308 667 l276 0 l124 -667 l-247 0 l-5 89 ZM365 362 l-45 -121 l92 0 l-10 121 q-2 22 -2 47 q0 20 3 53 l-8 0 q-13 -55 -30 -100 ZM295 716 l-55 101 l187 101 l161 -115 l-66 -87 l-98 70 l-129 -70 Z" /><glyph glyph-name="Atilde" unicode="ã" d="M428 89 l-164 0 l-32 -89 l-260 0 l308 667 l276 0 l124 -667 l-247 0 l-5 89 ZM365 362 l-45 -121 l92 0 l-10 121 q-2 22 -2 47 q0 20 3 53 l-8 0 q-13 -55 -30 -100 ZM463 829 q12 0 19 5.5 q7 5.5 15 22.5 l83 -42 q-34 -51 -57.5 -69.5 q-23.5 -18.5 -54.5 -18.5 q-19 0 -58 13 l-34 12 q-21 6 -28 6 q-27 0 -39 -31 l-90 28 q33 56 64.5 79 q31.5 23 74.5 23 q25 0 70 -18 q26 -10 35 -10 Z" /><glyph glyph-name="Adieresis" unicode="ä" d="M428 89 l-164 0 l-32 -89 l-260 0 l308 667 l276 0 l124 -667 l-247 0 l-5 89 ZM365 362 l-45 -121 l92 0 l-10 121 q-2 22 -2 47 q0 20 3 53 l-8 0 q-13 -55 -30 -100 ZM232 762 q-29 29 -29 71 q0 42 29 71 q29 29 71 29 q42 0 71 -29 q29 -29 29 -71 q0 -42 -29 -71 q-29 -29 -71 -29 q-42 0 -71 29 ZM479 762 q-29 29 -29 71 q0 42 29 71 q29 29 71 29 q42 0 71 -29 q29 -29 29 -71 q0 -42 -29 -71 q-29 -29 -71 -29 q-42 0 -71 29 Z" /><glyph glyph-name="Aring" unicode="å" d="M428 89 l-164 0 l-32 -89 l-260 0 l308 667 l276 0 l124 -667 l-247 0 l-5 89 ZM365 362 l-45 -121 l92 0 l-10 121 q-2 22 -2 47 q0 20 3 53 l-8 0 q-13 -55 -30 -100 ZM564 826 q0 -51 -40 -81 q-36 -28 -104 -28 q-68 0 -103 27 q-41 31 -41 82 q0 49 40 80 q36 28 104 28 q69 0 104 -28 q40 -32 40 -80 ZM420 860 q-22 0 -35 -8 q-15 -10 -15 -28 q0 -16 15 -25 q13 -8 35 -8 q22 0 36 8 q14 8 14 27 q0 16 -14 26 q-13 8 -36 8 Z" /><glyph glyph-name="AE" unicode="æ" d="M289 667 l478 0 l31 -175 l-203 0 l12 -71 l204 0 l29 -170 l-203 0 l13 -70 l203 0 l32 -181 l-446 0 l-4 88 l-165 0 l-32 -88 l-259 0 l310 667 ZM375 370 l-48 -131 l93 0 l-12 131 q-1 9 -1 32 q0 25 4 57 l-11 2 q-8 -45 -25 -91 Z" /><glyph glyph-name="Ccedilla" unicode="ç" d="M415 683 q87 0 173 -31 l-20 -237 q-65 52 -133 52 q-60 0 -103.5 -44 q-43.5 -44 -43.5 -104 q0 -51 37 -85.5 q37 -34.5 92 -34.5 q71 0 131 57 l-29 -243 q-89 -30 -152 -30 q-139 0 -229.5 94 q-90.5 94 -90.5 237 q0 159 105 264 q105 105 263 105 ZM198 -190 l152 147 l116 -82 l-158 -143 l-110 78 Z" /><glyph glyph-name="Egrave" unicode="è" d="M121 667 l438 0 l-21 -174 l-197 0 l-9 -73 l180 0 l-20 -165 l-180 0 l-9 -76 l204 0 l-22 -179 l-446 0 l82 667 ZM200 843 l117 73 l126 -137 l-86 -55 l-157 119 Z" /><glyph glyph-name="Eacute" unicode="é" d="M121 667 l438 0 l-21 -174 l-197 0 l-9 -73 l180 0 l-20 -165 l-180 0 l-9 -76 l204 0 l-22 -179 l-446 0 l82 667 ZM266 779 l127 137 l117 -73 l-157 -119 l-87 55 Z" /><glyph glyph-name="Ecircumflex" unicode="ê" d="M121 667 l438 0 l-21 -174 l-197 0 l-9 -73 l180 0 l-20 -165 l-180 0 l-9 -76 l204 0 l-22 -179 l-446 0 l82 667 ZM225 716 l-55 101 l187 101 l161 -115 l-66 -87 l-98 70 l-129 -70 Z" /><glyph glyph-name="Edieresis" unicode="ë" d="M121 667 l438 0 l-21 -174 l-197 0 l-9 -73 l180 0 l-20 -165 l-180 0 l-9 -76 l204 0 l-22 -179 l-446 0 l82 667 ZM167 762 q-29 29 -29 71 q0 42 29 71 q29 29 71 29 q42 0 71 -29 q29 -29 29 -71 q0 -42 -29 -71 q-29 -29 -71 -29 q-42 0 -71 29 ZM414 762 q-29 29 -29 71 q0 42 29 71 q29 29 71 29 q42 0 71 -29 q29 -29 29 -71 q0 -42 -29 -71 q-29 -29 -71 -29 q-42 0 -71 29 Z" /><glyph glyph-name="Igrave" unicode="ì" d="M121 667 l245 0 l-82 -667 l-245 0 l82 667 ZM110 843 l117 73 l126 -137 l-86 -55 l-157 119 Z" /><glyph glyph-name="Iacute" unicode="í" d="M121 667 l245 0 l-82 -667 l-245 0 l82 667 ZM166 779 l127 137 l117 -73 l-157 -119 l-87 55 Z" /><glyph glyph-name="Icircumflex" unicode="î" d="M121 667 l245 0 l-82 -667 l-245 0 l82 667 ZM130 716 l-55 101 l187 101 l161 -115 l-66 -87 l-98 70 l-129 -70 Z" /><glyph glyph-name="Idieresis" unicode="ï" d="M121 667 l245 0 l-82 -667 l-245 0 l82 667 ZM67 762 q-29 29 -29 71 q0 42 29 71 q29 29 71 29 q42 0 71 -29 q29 -29 29 -71 q0 -42 -29 -71 q-29 -29 -71 -29 q-42 0 -71 29 ZM314 762 q-29 29 -29 71 q0 42 29 71 q29 29 71 29 q42 0 71 -29 q29 -29 29 -71 q0 -42 -29 -71 q-29 -29 -71 -29 q-42 0 -71 29 Z" /><glyph glyph-name="Eth" unicode="ð" d="M65 0 l34 280 l-84 0 l14 120 l85 0 l33 267 l226 0 q176 0 275.5 -85.5 q99.5 -85.5 99.5 -237.5 q0 -80 -32 -148.5 q-32 -68.5 -90 -114.5 q-55 -44 -122 -62.5 q-67 -18.5 -172 -18.5 l-267 0 ZM394 471 l-30 0 l-10 -71 l84 0 l-14 -120 l-83 0 l-10 -82 l34 0 q60 0 102 44 q42 44 42 108 q0 52 -32.5 86.5 q-32.5 34.5 -82.5 34.5 Z" /><glyph glyph-name="Ntilde" unicode="ñ" d="M554 667 l245 0 l-82 -667 l-234 0 l-116 230 q-34 69 -53 135 l-4 12 l-8 0 q4 -40 4 -80 q0 -41 -3 -67 l-21 -230 l-243 0 l82 667 l243 0 l118 -251 q22 -47 42 -118 l6 -22 l10 1 l-2 22 q-5 62 -5 92 q0 44 4 79 l17 197 ZM501 829 q12 0 19 5.5 q7 5.5 15 22.5 l83 -42 q-34 -51 -57.5 -69.5 q-23.5 -18.5 -54.5 -18.5 q-19 0 -58 13 l-34 12 q-21 6 -28 6 q-27 0 -39 -31 l-90 28 q33 56 64.5 79 q31.5 23 74.5 23 q25 0 70 -18 q26 -10 35 -10 Z" /><glyph glyph-name="Ograve" unicode="ò" d="M675 591 q111 -91 111 -252 q0 -152 -104.5 -254 q-104.5 -102 -260.5 -102 q-158 0 -265.5 98 q-107.5 98 -107.5 243 q0 151 106.5 255 q106.5 104 261.5 104 q150 0 259 -92 ZM410 193 q57 0 94.5 40.5 q37.5 40.5 37.5 101.5 q0 53 -34 90 q-34 37 -84 37 q-55 0 -93.5 -41 q-38.5 -41 -38.5 -99 q0 -56 33.5 -92.5 q33.5 -36.5 84.5 -36.5 ZM280 843 l117 73 l126 -137 l-86 -55 l-157 119 Z" /><glyph glyph-name="Oacute" unicode="ó" d="M675 591 q111 -91 111 -252 q0 -152 -104.5 -254 q-104.5 -102 -260.5 -102 q-158 0 -265.5 98 q-107.5 98 -107.5 243 q0 151 106.5 255 q106.5 104 261.5 104 q150 0 259 -92 ZM410 193 q57 0 94.5 40.5 q37.5 40.5 37.5 101.5 q0 53 -34 90 q-34 37 -84 37 q-55 0 -93.5 -41 q-38.5 -41 -38.5 -99 q0 -56 33.5 -92.5 q33.5 -36.5 84.5 -36.5 ZM346 779 l127 137 l117 -73 l-157 -119 l-87 55 Z" /><glyph glyph-name="Ocircumflex" unicode="ô" d="M675 591 q111 -91 111 -252 q0 -152 -104.5 -254 q-104.5 -102 -260.5 -102 q-158 0 -265.5 98 q-107.5 98 -107.5 243 q0 151 106.5 255 q106.5 104 261.5 104 q150 0 259 -92 ZM410 193 q57 0 94.5 40.5 q37.5 40.5 37.5 101.5 q0 53 -34 90 q-34 37 -84 37 q-55 0 -93.5 -41 q-38.5 -41 -38.5 -99 q0 -56 33.5 -92.5 q33.5 -36.5 84.5 -36.5 ZM305 716 l-55 101 l187 101 l161 -115 l-66 -87 l-98 70 l-129 -70 Z" /><glyph glyph-name="Otilde" unicode="õ" d="M675 591 q111 -91 111 -252 q0 -152 -104.5 -254 q-104.5 -102 -260.5 -102 q-158 0 -265.5 98 q-107.5 98 -107.5 243 q0 151 106.5 255 q106.5 104 261.5 104 q150 0 259 -92 ZM410 193 q57 0 94.5 40.5 q37.5 40.5 37.5 101.5 q0 53 -34 90 q-34 37 -84 37 q-55 0 -93.5 -41 q-38.5 -41 -38.5 -99 q0 -56 33.5 -92.5 q33.5 -36.5 84.5 -36.5 ZM473 829 q12 0 19 5.5 q7 5.5 15 22.5 l83 -42 q-34 -51 -57.5 -69.5 q-23.5 -18.5 -54.5 -18.5 q-19 0 -58 13 l-34 12 q-21 6 -28 6 q-27 0 -39 -31 l-90 28 q33 56 64.5 79 q31.5 23 74.5 23 q25 0 70 -18 q26 -10 35 -10 Z" /><glyph glyph-name="Odieresis" unicode="ö" d="M675 591 q111 -91 111 -252 q0 -152 -104.5 -254 q-104.5 -102 -260.5 -102 q-158 0 -265.5 98 q-107.5 98 -107.5 243 q0 151 106.5 255 q106.5 104 261.5 104 q150 0 259 -92 ZM410 193 q57 0 94.5 40.5 q37.5 40.5 37.5 101.5 q0 53 -34 90 q-34 37 -84 37 q-55 0 -93.5 -41 q-38.5 -41 -38.5 -99 q0 -56 33.5 -92.5 q33.5 -36.5 84.5 -36.5 ZM237 762 q-29 29 -29 71 q0 42 29 71 q29 29 71 29 q42 0 71 -29 q29 -29 29 -71 q0 -42 -29 -71 q-29 -29 -71 -29 q-42 0 -71 29 ZM484 762 q-29 29 -29 71 q0 42 29 71 q29 29 71 29 q42 0 71 -29 q29 -29 29 -71 q0 -42 -29 -71 q-29 -29 -71 -29 q-42 0 -71 29 Z" /><glyph glyph-name="multiply" unicode="×" d="M132 173 l-85 85 l125 124 l-125 125 l92 92 l125 -125 l124 124 l84 -85 l-123 -124 l126 -126 l-92 -92 l-126 126 l-125 -124 Z" /><glyph glyph-name="Oslash" unicode="ø" d="M3 34 l120 107 q-55 78 -55 183 q0 149 105 253 q108 106 263 106 q126 0 223 -64 l124 107 l88 -95 l-118 -104 q53 -83 53 -188 q0 -149 -103 -252 q-104 -104 -262 -104 q-132 0 -227 67 l-119 -111 l-92 95 ZM430 193 q55 0 90 35 q19 19 30.5 49 q11.5 30 11.5 58 q0 57 -37 94 q-33 33 -81 33 q-54 0 -92 -40 q-40 -40 -40 -100 q0 -64 41 -100 q32 -29 77 -29 Z" /><glyph glyph-name="Ugrave" unicode="ù" d="M500 667 l245 0 l-45 -369 q-14 -107 -31.5 -152 q-17.5 -45 -61.5 -85 q-87 -78 -226 -78 q-147 0 -236 72 q-75 61 -75 175 q0 26 3 53 l48 384 l245 0 l-45 -369 q-5 -40 -5 -49 q0 -62 60 -62 q34 0 52 23.5 q18 23.5 26 78.5 l46 378 ZM270 843 l117 73 l126 -137 l-86 -55 l-157 119 Z" /><glyph glyph-name="Uacute" unicode="ú" d="M500 667 l245 0 l-45 -369 q-14 -107 -31.5 -152 q-17.5 -45 -61.5 -85 q-87 -78 -226 -78 q-147 0 -236 72 q-75 61 -75 175 q0 26 3 53 l48 384 l245 0 l-45 -369 q-5 -40 -5 -49 q0 -62 60 -62 q34 0 52 23.5 q18 23.5 26 78.5 l46 378 ZM366 779 l127 137 l117 -73 l-157 -119 l-87 55 Z" /><glyph glyph-name="Ucircumflex" unicode="û" d="M500 667 l245 0 l-45 -369 q-14 -107 -31.5 -152 q-17.5 -45 -61.5 -85 q-87 -78 -226 -78 q-147 0 -236 72 q-75 61 -75 175 q0 26 3 53 l48 384 l245 0 l-45 -369 q-5 -40 -5 -49 q0 -62 60 -62 q34 0 52 23.5 q18 23.5 26 78.5 l46 378 ZM320 716 l-55 101 l187 101 l161 -115 l-66 -87 l-98 70 l-129 -70 Z" /><glyph glyph-name="Udieresis" unicode="ü" d="M500 667 l245 0 l-45 -369 q-14 -107 -31.5 -152 q-17.5 -45 -61.5 -85 q-87 -78 -226 -78 q-147 0 -236 72 q-75 61 -75 175 q0 26 3 53 l48 384 l245 0 l-45 -369 q-5 -40 -5 -49 q0 -62 60 -62 q34 0 52 23.5 q18 23.5 26 78.5 l46 378 ZM242 762 q-29 29 -29 71 q0 42 29 71 q29 29 71 29 q42 0 71 -29 q29 -29 29 -71 q0 -42 -29 -71 q-29 -29 -71 -29 q-42 0 -71 29 ZM489 762 q-29 29 -29 71 q0 42 29 71 q29 29 71 29 q42 0 71 -29 q29 -29 29 -71 q0 -42 -29 -71 q-29 -29 -71 -29 q-42 0 -71 29 Z" /><glyph glyph-name="Yacute" unicode="ý" d="M745 667 l-281 -384 l-35 -283 l-240 0 l36 289 l-178 378 l265 0 l34 -109 q10 -33 13 -76 l9 0 q8 30 24 63 l62 122 l291 0 ZM326 779 l127 137 l117 -73 l-157 -119 l-87 55 Z" /><glyph glyph-name="Thorn" unicode="þ" d="M388 116 l-92 0 l-15 -116 l-242 0 l82 667 l242 0 l-11 -87 l37 0 q144 0 214 -70 q62 -62 62 -156 q0 -51 -19.5 -96.5 q-19.5 -45.5 -50.5 -75.5 q-68 -66 -207 -66 ZM355 406 l-25 0 l-15 -124 l22 0 q52 0 75 23 q17 17 17 50 q0 24 -14 37 q-16 14 -60 14 Z" /><glyph glyph-name="germandbls" unicode="ß" d="M612 541 q0 -100 -99 -150 q108 -41 108 -159 q0 -74 -29.5 -128 q-29.5 -54 -83.5 -78 q-62 -27 -167 -27 q-5 0 -24 0.5 q-19 0.5 -32 0.5 l15 122 q9 -1 24 -1 q39 0 56 34 q17 34 17 111 q0 35 -15 49.5 q-15 14.5 -56 20.5 l16 127 q20 -3 29 -3 q22 0 36 12 q14 12 14 32 q0 22 -14 35.5 q-14 13.5 -35 13.5 q-31 0 -44.5 -21.5 q-13.5 -21.5 -21.5 -84.5 l-55 -447 l-231 0 l59 480 q10 79 25.5 121 q15.5 42 47.5 71 q74 68 207 68 q116 0 184.5 -53.5 q68.5 -53.5 68.5 -145.5 Z" /><glyph glyph-name="agrave" unicode="à" d="M403 467 l230 0 l-58 -467 l-229 0 q7 30 25 83 l-7 3 q-30 -53 -64 -76 q-34 -23 -80 -23 q-79 0 -137 65 q-58 65 -58 153 q0 111 70.5 194.5 q70.5 83.5 163.5 83.5 q56 0 88.5 -23 q32.5 -23 52.5 -77 l8 3 q-5 41 -5 71 l0 10 ZM316 164 q28 0 46.5 21 q18.5 21 18.5 53 q0 26 -15.5 43.5 q-15.5 17.5 -39.5 17.5 q-27 0 -47 -22.5 q-20 -22.5 -20 -53.5 q0 -26 16 -42.5 q16 -16.5 41 -16.5 ZM251 669 l117 73 l115 -146 l-86 -55 l-146 128 Z" /><glyph glyph-name="aacute" unicode="á" d="M403 467 l230 0 l-58 -467 l-229 0 q7 30 25 83 l-7 3 q-30 -53 -64 -76 q-34 -23 -80 -23 q-79 0 -137 65 q-58 65 -58 153 q0 111 70.5 194.5 q70.5 83.5 163.5 83.5 q56 0 88.5 -23 q32.5 -23 52.5 -77 l8 3 q-5 41 -5 71 l0 10 ZM316 164 q28 0 46.5 21 q18.5 21 18.5 53 q0 26 -15.5 43.5 q-15.5 17.5 -39.5 17.5 q-27 0 -47 -22.5 q-20 -22.5 -20 -53.5 q0 -26 16 -42.5 q16 -16.5 41 -16.5 ZM281 596 l116 146 l117 -73 l-146 -128 l-87 55 Z" /><glyph glyph-name="acircumflex" unicode="â" d="M403 467 l230 0 l-58 -467 l-229 0 q7 30 25 83 l-7 3 q-30 -53 -64 -76 q-34 -23 -80 -23 q-79 0 -137 65 q-58 65 -58 153 q0 111 70.5 194.5 q70.5 83.5 163.5 83.5 q56 0 88.5 -23 q32.5 -23 52.5 -77 l8 3 q-5 41 -5 71 l0 10 ZM316 164 q28 0 46.5 21 q18.5 21 18.5 53 q0 26 -15.5 43.5 q-15.5 17.5 -39.5 17.5 q-27 0 -47 -22.5 q-20 -22.5 -20 -53.5 q0 -26 16 -42.5 q16 -16.5 41 -16.5 ZM261 533 l-55 101 l187 101 l161 -115 l-66 -87 l-98 70 l-129 -70 Z" /><glyph glyph-name="atilde" unicode="ã" d="M403 467 l230 0 l-58 -467 l-229 0 q7 30 25 83 l-7 3 q-30 -53 -64 -76 q-34 -23 -80 -23 q-79 0 -137 65 q-58 65 -58 153 q0 111 70.5 194.5 q70.5 83.5 163.5 83.5 q56 0 88.5 -23 q32.5 -23 52.5 -77 l8 3 q-5 41 -5 71 l0 10 ZM316 164 q28 0 46.5 21 q18.5 21 18.5 53 q0 26 -15.5 43.5 q-15.5 17.5 -39.5 17.5 q-27 0 -47 -22.5 q-20 -22.5 -20 -53.5 q0 -26 16 -42.5 q16 -16.5 41 -16.5 ZM458 673 l74 -38 q-48 -91 -109 -91 q-22 0 -57 17 q-22 11 -37 11 q-27 0 -46 -32 l-77 40 q38 50 63.5 68.5 q25.5 18.5 53.5 18.5 q22 0 52 -13 l23 -10 q13 -5 20 -5 q17 0 34 25 l6 9 Z" /><glyph glyph-name="adieresis" unicode="ä" d="M403 467 l230 0 l-58 -467 l-229 0 q7 30 25 83 l-7 3 q-30 -53 -64 -76 q-34 -23 -80 -23 q-79 0 -137 65 q-58 65 -58 153 q0 111 70.5 194.5 q70.5 83.5 163.5 83.5 q56 0 88.5 -23 q32.5 -23 52.5 -77 l8 3 q-5 41 -5 71 l0 10 ZM316 164 q28 0 46.5 21 q18.5 21 18.5 53 q0 26 -15.5 43.5 q-15.5 17.5 -39.5 17.5 q-27 0 -47 -22.5 q-20 -22.5 -20 -53.5 q0 -26 16 -42.5 q16 -16.5 41 -16.5 ZM145 642 q0 43 30 73 q30 30 72 30 q43 0 73 -30 q30 -30 30 -73 q0 -42 -30 -72 q-30 -30 -73 -30 q-42 0 -72 30 q-30 30 -30 72 ZM392 642 q0 43 30 73 q30 30 72 30 q43 0 73 -30 q30 -30 30 -73 q0 -42 -30 -72 q-30 -30 -73 -30 q-42 0 -72 30 q-30 30 -30 72 Z" /><glyph glyph-name="aring" unicode="å" d="M403 467 l230 0 l-58 -467 l-229 0 q7 30 25 83 l-7 3 q-30 -53 -64 -76 q-34 -23 -80 -23 q-79 0 -137 65 q-58 65 -58 153 q0 111 70.5 194.5 q70.5 83.5 163.5 83.5 q56 0 88.5 -23 q32.5 -23 52.5 -77 l8 3 q-5 41 -5 71 l0 10 ZM316 164 q28 0 46.5 21 q18.5 21 18.5 53 q0 26 -15.5 43.5 q-15.5 17.5 -39.5 17.5 q-27 0 -47 -22.5 q-20 -22.5 -20 -53.5 q0 -26 16 -42.5 q16 -16.5 41 -16.5 ZM510 645 q0 -51 -40 -81 q-36 -28 -104 -28 q-68 0 -103 27 q-41 31 -41 82 q0 49 40 80 q36 28 104 28 q69 0 104 -28 q40 -32 40 -80 ZM366 679 q-22 0 -35 -8 q-15 -10 -15 -28 q0 -16 15 -25 q13 -8 35 -8 q22 0 36 8 q14 8 14 27 q0 16 -14 26 q-13 8 -36 8 Z" /><glyph glyph-name="ae" unicode="æ" d="M913 203 l-331 0 q-1 -5 -1 -16 q0 -28 14.5 -45 q14.5 -17 37.5 -17 q21 0 34 11 q9 9 16 27 l222 0 q-25 -80 -95 -127 q-72 -49 -172 -49 q-132 0 -208 73 q-39 -41 -83 -57 q-43 -16 -110 -16 q-102 0 -158 43 q-60 46 -60 124 q0 62 44 104 q53 51 153 51 q49 0 85 -14 q39 -16 63 -41 q3 15 3 31 q0 43 -38 66 q-31 19 -89 19 q-88 0 -178 -46 l17 133 q84 36 180 36 q130 0 191 -67 q70 67 194 67 q127 0 203 -78 q70 -73 70 -171 q0 -22 -4 -41 ZM295 97 q34 0 55 14 q23 15 23 40 q0 24 -20 38 q-20 14 -60 14 q-38 0 -56 -13 q-20 -15 -20 -40 q0 -24 21 -39 q19 -14 57 -14 ZM592 299 l108 0 q0 25 -13 43.5 q-13 18.5 -37 18.5 q-24 0 -40 -17.5 q-16 -17.5 -18 -44.5 Z" /><glyph glyph-name="ccedilla" unicode="ç" d="M300 493 q59 0 139 -26 l-29 -196 q-36 42 -82 42 q-33 0 -53 -22 q-20 -22 -20 -58 q0 -32 18 -50.5 q18 -18.5 50 -18.5 q41 0 78 33 l-34 -192 q-60 -18 -105 -18 q-104 0 -169.5 65 q-65.5 65 -65.5 168 q0 122 75.5 197.5 q75.5 75.5 197.5 75.5 ZM118 -180 l134 135 l106 -76 l-140 -129 l-100 70 Z" /><glyph glyph-name="egrave" unicode="è" d="M587 202 l-331 0 q-1 -6 -1 -17 q0 -29 14 -46 q14 -17 37 -17 q34 0 50 40 l222 0 q-14 -40 -27 -61 q-13 -21 -38 -43 q-82 -71 -205 -71 q-125 0 -202.5 67 q-77.5 67 -77.5 175 q0 113 82.5 189 q82.5 76 205.5 76 q116 0 195.5 -70.5 q79.5 -70.5 79.5 -173.5 q0 -6 -4 -48 ZM322 360 q-47 0 -57 -62 l108 0 q-1 62 -51 62 ZM191 669 l117 73 l115 -146 l-86 -55 l-146 128 Z" /><glyph glyph-name="eacute" unicode="é" d="M587 202 l-331 0 q-1 -6 -1 -17 q0 -29 14 -46 q14 -17 37 -17 q34 0 50 40 l222 0 q-14 -40 -27 -61 q-13 -21 -38 -43 q-82 -71 -205 -71 q-125 0 -202.5 67 q-77.5 67 -77.5 175 q0 113 82.5 189 q82.5 76 205.5 76 q116 0 195.5 -70.5 q79.5 -70.5 79.5 -173.5 q0 -6 -4 -48 ZM322 360 q-47 0 -57 -62 l108 0 q-1 62 -51 62 ZM241 596 l116 146 l117 -73 l-146 -128 l-87 55 Z" /><glyph glyph-name="ecircumflex" unicode="ê" d="M587 202 l-331 0 q-1 -6 -1 -17 q0 -29 14 -46 q14 -17 37 -17 q34 0 50 40 l222 0 q-14 -40 -27 -61 q-13 -21 -38 -43 q-82 -71 -205 -71 q-125 0 -202.5 67 q-77.5 67 -77.5 175 q0 113 82.5 189 q82.5 76 205.5 76 q116 0 195.5 -70.5 q79.5 -70.5 79.5 -173.5 q0 -6 -4 -48 ZM322 360 q-47 0 -57 -62 l108 0 q-1 62 -51 62 ZM200 533 l-55 101 l187 101 l161 -115 l-66 -87 l-98 70 l-129 -70 Z" /><glyph glyph-name="edieresis" unicode="ë" d="M587 202 l-331 0 q-1 -6 -1 -17 q0 -29 14 -46 q14 -17 37 -17 q34 0 50 40 l222 0 q-14 -40 -27 -61 q-13 -21 -38 -43 q-82 -71 -205 -71 q-125 0 -202.5 67 q-77.5 67 -77.5 175 q0 113 82.5 189 q82.5 76 205.5 76 q116 0 195.5 -70.5 q79.5 -70.5 79.5 -173.5 q0 -6 -4 -48 ZM322 360 q-47 0 -57 -62 l108 0 q-1 62 -51 62 ZM95 642 q0 43 30 73 q30 30 72 30 q43 0 73 -30 q30 -30 30 -73 q0 -42 -30 -72 q-30 -30 -73 -30 q-42 0 -72 30 q-30 30 -30 72 ZM342 642 q0 43 30 73 q30 30 72 30 q43 0 73 -30 q30 -30 30 -73 q0 -42 -30 -72 q-30 -30 -73 -30 q-42 0 -72 30 q-30 30 -30 72 Z" /><glyph glyph-name="igrave" unicode="ì" d="M81 467 l231 0 l-57 -467 l-231 0 l57 467 ZM91 669 l117 73 l115 -146 l-86 -55 l-146 128 Z" /><glyph glyph-name="iacute" unicode="í" d="M81 467 l231 0 l-57 -467 l-231 0 l57 467 ZM111 596 l116 146 l117 -73 l-146 -128 l-87 55 Z" /><glyph glyph-name="icircumflex" unicode="î" d="M81 467 l231 0 l-57 -467 l-231 0 l57 467 ZM86 533 l-55 101 l187 101 l161 -115 l-66 -87 l-98 70 l-129 -70 Z" /><glyph glyph-name="idieresis" unicode="ï" d="M81 467 l231 0 l-57 -467 l-231 0 l57 467 ZM-9 642 q0 43 30 73 q30 30 72 30 q43 0 73 -30 q30 -30 30 -73 q0 -42 -30 -72 q-30 -30 -73 -30 q-42 0 -72 30 q-30 30 -30 72 ZM238 642 q0 43 30 73 q30 30 72 30 q43 0 73 -30 q30 -30 30 -73 q0 -42 -30 -72 q-30 -30 -73 -30 q-42 0 -72 30 q-30 30 -30 72 Z" /><glyph glyph-name="eth" unicode="ð" d="M163 633 l29 111 q143 -11 244 -67 l131 56 l33 -94 l-86 -36 q50 -40 77 -103 q30 -70 30 -160 q0 -179 -88 -272 q-76 -81 -214 -81 q-125 0 -200 55 q-90 65 -90 178 q0 94 70 161 q77 73 204 73 q88 0 155 -46 q-13 87 -85 134 l-199 -78 l-30 96 l137 52 q-53 21 -118 21 ZM315 163 q25 0 42 15 q22 20 22 51 q0 31 -20 51 q-15 15 -39 15 q-25 0 -42 -17 q-23 -23 -23 -55 q0 -29 20 -46 q17 -14 40 -14 Z" /><glyph glyph-name="ntilde" unicode="ñ" d="M77 467 l232 0 q-8 -45 -23 -83 l8 -2 q35 56 68.5 79 q33.5 23 78.5 23 q66 0 109.5 -43.5 q43.5 -43.5 43.5 -108.5 q0 -24 -5 -71 l-32 -261 l-232 0 l28 226 q3 20 3 31 q0 35 -30 35 q-23 0 -33 -15 q-10 -15 -15 -59 l-27 -218 l-231 0 l57 467 ZM439 673 l74 -38 q-48 -91 -109 -91 q-22 0 -57 17 q-22 11 -37 11 q-27 0 -46 -32 l-77 40 q38 50 63.5 68.5 q25.5 18.5 53.5 18.5 q22 0 52 -13 l23 -10 q13 -5 20 -5 q17 0 34 25 l6 9 Z" /><glyph glyph-name="ograve" unicode="ò" d="M320 493 q131 0 211 -68.5 q80 -68.5 80 -180.5 q0 -110 -83 -183.5 q-83 -73.5 -207 -73.5 q-127 0 -209.5 70.5 q-82.5 70.5 -82.5 178.5 q0 111 83 184 q83 73 208 73 ZM318 169 q28 0 46 21.5 q18 21.5 18 53.5 q0 28 -16.5 47 q-16.5 19 -41.5 19 q-27 0 -46.5 -22 q-19.5 -22 -19.5 -53 q0 -29 17 -47.5 q17 -18.5 43 -18.5 ZM230 669 l117 73 l115 -146 l-86 -55 l-146 128 Z" /><glyph glyph-name="oacute" unicode="ó" d="M320 493 q131 0 211 -68.5 q80 -68.5 80 -180.5 q0 -110 -83 -183.5 q-83 -73.5 -207 -73.5 q-127 0 -209.5 70.5 q-82.5 70.5 -82.5 178.5 q0 111 83 184 q83 73 208 73 ZM318 169 q28 0 46 21.5 q18 21.5 18 53.5 q0 28 -16.5 47 q-16.5 19 -41.5 19 q-27 0 -46.5 -22 q-19.5 -22 -19.5 -53 q0 -29 17 -47.5 q17 -18.5 43 -18.5 ZM231 596 l116 146 l117 -73 l-146 -128 l-87 55 Z" /><glyph glyph-name="ocircumflex" unicode="ô" d="M320 493 q131 0 211 -68.5 q80 -68.5 80 -180.5 q0 -110 -83 -183.5 q-83 -73.5 -207 -73.5 q-127 0 -209.5 70.5 q-82.5 70.5 -82.5 178.5 q0 111 83 184 q83 73 208 73 ZM318 169 q28 0 46 21.5 q18 21.5 18 53.5 q0 28 -16.5 47 q-16.5 19 -41.5 19 q-27 0 -46.5 -22 q-19.5 -22 -19.5 -53 q0 -29 17 -47.5 q17 -18.5 43 -18.5 ZM210 533 l-55 101 l187 101 l161 -115 l-66 -87 l-98 70 l-129 -70 Z" /><glyph glyph-name="otilde" unicode="õ" d="M320 493 q131 0 211 -68.5 q80 -68.5 80 -180.5 q0 -110 -83 -183.5 q-83 -73.5 -207 -73.5 q-127 0 -209.5 70.5 q-82.5 70.5 -82.5 178.5 q0 111 83 184 q83 73 208 73 ZM318 169 q28 0 46 21.5 q18 21.5 18 53.5 q0 28 -16.5 47 q-16.5 19 -41.5 19 q-27 0 -46.5 -22 q-19.5 -22 -19.5 -53 q0 -29 17 -47.5 q17 -18.5 43 -18.5 ZM419 673 l74 -38 q-48 -91 -109 -91 q-22 0 -57 17 q-22 11 -37 11 q-27 0 -46 -32 l-77 40 q38 50 63.5 68.5 q25.5 18.5 53.5 18.5 q22 0 52 -13 l23 -10 q13 -5 20 -5 q17 0 34 25 l6 9 Z" /><glyph glyph-name="odieresis" unicode="ö" d="M320 493 q131 0 211 -68.5 q80 -68.5 80 -180.5 q0 -110 -83 -183.5 q-83 -73.5 -207 -73.5 q-127 0 -209.5 70.5 q-82.5 70.5 -82.5 178.5 q0 111 83 184 q83 73 208 73 ZM318 169 q28 0 46 21.5 q18 21.5 18 53.5 q0 28 -16.5 47 q-16.5 19 -41.5 19 q-27 0 -46.5 -22 q-19.5 -22 -19.5 -53 q0 -29 17 -47.5 q17 -18.5 43 -18.5 ZM110 642 q0 43 30 73 q30 30 72 30 q43 0 73 -30 q30 -30 30 -73 q0 -42 -30 -72 q-30 -30 -73 -30 q-42 0 -72 30 q-30 30 -30 72 ZM357 642 q0 43 30 73 q30 30 72 30 q43 0 73 -30 q30 -30 30 -73 q0 -42 -30 -72 q-30 -30 -73 -30 q-42 0 -72 30 q-30 30 -30 72 Z" /><glyph glyph-name="divide" unicode="÷" d="M211 457.5 q-22 21.5 -22 52.5 q0 31 21.5 52.5 q21.5 21.5 52.5 21.5 q31 0 53 -21.5 q22 -21.5 22 -52.5 q0 -31 -22 -53 q-22 -22 -53 -21 q-30 0 -52 21.5 ZM211 117.5 q-22 21.5 -22 52.5 q0 31 21.5 52.5 q21.5 21.5 52.5 21.5 q31 0 53 -21.5 q22 -21.5 22 -52.5 q0 -31 -22 -53 q-22 -22 -53 -21 q-30 0 -52 21.5 ZM47 280 l0 120 l433 0 l0 -120 l-433 0 Z" /><glyph glyph-name="oslash" unicode="ø" d="M649 459 l-80 -71 q45 -60 45 -144 q0 -101 -71 -172 q-85 -85 -223 -85 q-87 0 -157 37 l-93 -82 l-72 79 l82 74 q-48 60 -48 140 q0 105 73 176 q84 82 224 82 q84 0 156 -36 l92 82 l72 -80 ZM280 186 q16 -17 41 -17 q25 0 42 17 q22 22 22 58 q0 31 -18 49 q-16 17 -39 17 q-26 0 -44 -18 q-23 -21 -23 -56 q0 -29 19 -50 Z" /><glyph glyph-name="ugrave" unicode="ù" d="M383 467 l232 0 l-32 -257 q-8 -66 -24.5 -101.5 q-16.5 -35.5 -52.5 -64.5 q-73 -57 -191 -57 q-128 0 -198.5 52 q-70.5 52 -70.5 147 q0 24 3 54 l28 227 l232 0 l-28 -227 q-4 -31 -4 -41 q0 -15 9.5 -25 q9.5 -10 24.5 -10 q21 0 30 13.5 q9 13.5 13 53.5 l29 236 ZM221 669 l117 73 l115 -146 l-86 -55 l-146 128 Z" /><glyph glyph-name="uacute" unicode="ú" d="M383 467 l232 0 l-32 -257 q-8 -66 -24.5 -101.5 q-16.5 -35.5 -52.5 -64.5 q-73 -57 -191 -57 q-128 0 -198.5 52 q-70.5 52 -70.5 147 q0 24 3 54 l28 227 l232 0 l-28 -227 q-4 -31 -4 -41 q0 -15 9.5 -25 q9.5 -10 24.5 -10 q21 0 30 13.5 q9 13.5 13 53.5 l29 236 ZM271 596 l116 146 l117 -73 l-146 -128 l-87 55 Z" /><glyph glyph-name="ucircumflex" unicode="û" d="M383 467 l232 0 l-32 -257 q-8 -66 -24.5 -101.5 q-16.5 -35.5 -52.5 -64.5 q-73 -57 -191 -57 q-128 0 -198.5 52 q-70.5 52 -70.5 147 q0 24 3 54 l28 227 l232 0 l-28 -227 q-4 -31 -4 -41 q0 -15 9.5 -25 q9.5 -10 24.5 -10 q21 0 30 13.5 q9 13.5 13 53.5 l29 236 ZM240 533 l-55 101 l187 101 l161 -115 l-66 -87 l-98 70 l-129 -70 Z" /><glyph glyph-name="udieresis" unicode="ü" d="M383 467 l232 0 l-32 -257 q-8 -66 -24.5 -101.5 q-16.5 -35.5 -52.5 -64.5 q-73 -57 -191 -57 q-128 0 -198.5 52 q-70.5 52 -70.5 147 q0 24 3 54 l28 227 l232 0 l-28 -227 q-4 -31 -4 -41 q0 -15 9.5 -25 q9.5 -10 24.5 -10 q21 0 30 13.5 q9 13.5 13 53.5 l29 236 ZM130 642 q0 43 30 73 q30 30 72 30 q43 0 73 -30 q30 -30 30 -73 q0 -42 -30 -72 q-30 -30 -73 -30 q-42 0 -72 30 q-30 30 -30 72 ZM377 642 q0 43 30 73 q30 30 72 30 q43 0 73 -30 q30 -30 30 -73 q0 -42 -30 -72 q-30 -30 -73 -30 q-42 0 -72 30 q-30 30 -30 72 Z" /><glyph glyph-name="yacute" unicode="ý" d="M381 467 l249 0 l-363 -696 l-248 0 l88 169 q35 61 65 96 l-141 431 l238 0 l20 -130 q7 -43 7 -75 q0 -24 -2 -48 l10 -1 q15 78 34 131 l43 123 ZM241 596 l116 146 l117 -73 l-146 -128 l-87 55 Z" /><glyph glyph-name="thorn" unicode="þ" d="M115 729 l232 0 l-30 -236 q-10 -62 -22 -97 l9 -4 q28 51 57 71.5 q29 20.5 74 20.5 q77 0 131 -68 q54 -68 54 -165 q0 -106 -64 -185 q-64 -79 -150 -79 q-113 0 -146 96 l-8 -3 q3 -41 3 -57 q0 -30 -5 -77 l-22 -175 l-232 0 l119 958 ZM331 163 q27 0 44 21 q17 21 17 54 q0 28 -15.5 46 q-15.5 18 -38.5 18 q-25 0 -43.5 -22.5 q-18.5 -22.5 -18.5 -54.5 q0 -28 15 -45 q15 -17 40 -17 Z" /><glyph glyph-name="ydieresis" unicode="ÿ" d="M381 467 l249 0 l-363 -696 l-248 0 l88 169 q35 61 65 96 l-141 431 l238 0 l20 -130 q7 -43 7 -75 q0 -24 -2 -48 l10 -1 q15 78 34 131 l43 123 ZM100 642 q0 43 30 73 q30 30 72 30 q43 0 73 -30 q30 -30 30 -73 q0 -42 -30 -72 q-30 -30 -73 -30 q-42 0 -72 30 q-30 30 -30 72 ZM347 642 q0 43 30 73 q30 30 72 30 q43 0 73 -30 q30 -30 30 -73 q0 -42 -30 -72 q-30 -30 -73 -30 q-42 0 -72 30 q-30 30 -30 72 Z" /><glyph glyph-name="Amacron" unicode="&#x100;" d="M428 89 l-164 0 l-32 -89 l-260 0 l308 667 l276 0 l124 -667 l-247 0 l-5 89 ZM365 362 l-45 -121 l92 0 l-10 121 q-2 22 -2 47 q0 20 3 53 l-8 0 q-13 -55 -30 -100 ZM600 746 l-364 0 l12 104 l364 0 l-12 -104 Z" /><glyph glyph-name="amacron" unicode="&#x101;" d="M403 467 l230 0 l-58 -467 l-229 0 q7 30 25 83 l-7 3 q-30 -53 -64 -76 q-34 -23 -80 -23 q-79 0 -137 65 q-58 65 -58 153 q0 111 70.5 194.5 q70.5 83.5 163.5 83.5 q56 0 88.5 -23 q32.5 -23 52.5 -77 l8 3 q-5 41 -5 71 l0 10 ZM316 164 q28 0 46.5 21 q18.5 21 18.5 53 q0 26 -15.5 43.5 q-15.5 17.5 -39.5 17.5 q-27 0 -47 -22.5 q-20 -22.5 -20 -53.5 q0 -26 16 -42.5 q16 -16.5 41 -16.5 ZM563 546 l-340 0 l12 100 l340 0 l-12 -100 Z" /><glyph glyph-name="Abreve" unicode="&#x102;" d="M428 89 l-164 0 l-32 -89 l-260 0 l308 667 l276 0 l124 -667 l-247 0 l-5 89 ZM365 362 l-45 -121 l92 0 l-10 121 q-2 22 -2 47 q0 20 3 53 l-8 0 q-13 -55 -30 -100 ZM502 875 l102 0 q-11 -61 -53 -103 q-50 -49 -133 -49 q-70 0 -112 31 q-54 39 -56 121 l102 0 q4 -26 19 -40 q16 -16 52 -16 q31 0 51 15 q20 15 28 41 Z" /><glyph glyph-name="abreve" unicode="&#x103;" d="M403 467 l230 0 l-58 -467 l-229 0 q7 30 25 83 l-7 3 q-30 -53 -64 -76 q-34 -23 -80 -23 q-79 0 -137 65 q-58 65 -58 153 q0 111 70.5 194.5 q70.5 83.5 163.5 83.5 q56 0 88.5 -23 q32.5 -23 52.5 -77 l8 3 q-5 41 -5 71 l0 10 ZM316 164 q28 0 46.5 21 q18.5 21 18.5 53 q0 26 -15.5 43.5 q-15.5 17.5 -39.5 17.5 q-27 0 -47 -22.5 q-20 -22.5 -20 -53.5 q0 -26 16 -42.5 q16 -16.5 41 -16.5 ZM458 691 l102 0 q-11 -61 -53 -103 q-49 -49 -134 -49 q-69 0 -111 31 q-54 39 -56 121 l102 0 q4 -26 19 -40 q16 -16 52 -16 q31 0 51 15 q20 15 28 41 Z" /><glyph glyph-name="Aogonek" unicode="&#x104;" d="M428 89 l-164 0 l-32 -89 l-260 0 l308 667 l276 0 l124 -667 l-157 0 q-20 -14 -40 -34 q-20 -22 -20 -43 q0 -13 10 -23 q9 -9 28 -9 q36 0 63 25 l-33 -95 q-42 -23 -95 -23 q-49 0 -73 22 q-24 21 -24 59 q0 43 39 80 q23 22 55 41 l-5 89 ZM402 362 q-2 30 -2 52 q0 18 2 40 l1 8 l-8 0 q-6 -37 -30 -100 l-45 -121 l92 0 l-10 121 Z" /><glyph glyph-name="aogonek" unicode="&#x105;" d="M403 467 l230 0 l-58 -467 l-60 0 q-29 -23 -36 -31 q-18 -20 -18 -40 q0 -12 9 -20 q9 -8 27 -8 q29 0 55 23 l-29 -87 q-37 -21 -87 -21 q-46 0 -69 23 q-19 17 -19 49 q0 42 35 75 q20 18 50 37 l-87 0 q6 31 22 75 l3 8 l-7 3 q-21 -44 -51 -68 q-37 -31 -90 -31 q-75 0 -132 57 q-66 66 -66 164 q0 58 24 115.5 q24 57.5 63 95.5 q66 64 155 64 q57 0 93 -34 q27 -24 40 -66 l8 3 q-5 36 -5 71 l0 10 ZM316 164 q27 0 44 19 q21 23 21 55 q0 30 -20 48 q-15 13 -35 13 q-24 0 -42 -18 q-25 -24 -25 -58 q0 -24 16 -42 q15 -17 41 -17 Z" /><glyph glyph-name="Cacute" unicode="&#x106;" d="M415 683 q87 0 173 -31 l-20 -237 q-65 52 -133 52 q-60 0 -103.5 -44 q-43.5 -44 -43.5 -104 q0 -51 37 -85.5 q37 -34.5 92 -34.5 q71 0 131 57 l-29 -243 q-89 -30 -152 -30 q-139 0 -229.5 94 q-90.5 94 -90.5 237 q0 159 105 264 q105 105 263 105 ZM326 779 l127 137 l117 -73 l-157 -119 l-87 55 Z" /><glyph glyph-name="cacute" unicode="&#x107;" d="M300 493 q59 0 139 -26 l-29 -196 q-36 42 -82 42 q-33 0 -53 -22 q-20 -22 -20 -58 q0 -32 18 -50.5 q18 -18.5 50 -18.5 q41 0 78 33 l-34 -192 q-60 -18 -105 -18 q-104 0 -169.5 65 q-65.5 65 -65.5 168 q0 122 75.5 197.5 q75.5 75.5 197.5 75.5 ZM231 596 l116 146 l117 -73 l-146 -128 l-87 55 Z" /><glyph glyph-name="Ccircumflex" unicode="&#x108;" d="M415 683 q87 0 173 -31 l-20 -237 q-65 52 -133 52 q-60 0 -103.5 -44 q-43.5 -44 -43.5 -104 q0 -51 37 -85.5 q37 -34.5 92 -34.5 q71 0 131 57 l-29 -243 q-89 -30 -152 -30 q-139 0 -229.5 94 q-90.5 94 -90.5 237 q0 159 105 264 q105 105 263 105 ZM320 716 l-55 101 l187 101 l161 -115 l-66 -87 l-98 70 l-129 -70 Z" /><glyph glyph-name="ccircumflex" unicode="&#x109;" d="M300 493 q59 0 139 -26 l-29 -196 q-36 42 -82 42 q-33 0 -53 -22 q-20 -22 -20 -58 q0 -32 18 -50.5 q18 -18.5 50 -18.5 q41 0 78 33 l-34 -192 q-60 -18 -105 -18 q-104 0 -169.5 65 q-65.5 65 -65.5 168 q0 122 75.5 197.5 q75.5 75.5 197.5 75.5 ZM200 533 l-55 101 l187 101 l161 -115 l-66 -87 l-98 70 l-129 -70 Z" /><glyph glyph-name="Cdotaccent" unicode="&#x10a;" d="M415 683 q87 0 173 -31 l-20 -237 q-65 52 -133 52 q-60 0 -103.5 -44 q-43.5 -44 -43.5 -104 q0 -51 37 -85.5 q37 -34.5 92 -34.5 q71 0 131 57 l-29 -243 q-89 -30 -152 -30 q-139 0 -229.5 94 q-90.5 94 -90.5 237 q0 159 105 264 q105 105 263 105 ZM335 825 q0 43 30 73 q30 30 73 30 q42 0 72 -30 q30 -30 30 -73 q0 -42 -30 -72 q-30 -30 -72 -30 q-43 0 -73 30 q-30 30 -30 72 Z" /><glyph glyph-name="cdotaccent" unicode="&#x10b;" d="M300 493 q59 0 139 -26 l-29 -196 q-36 42 -82 42 q-33 0 -53 -22 q-20 -22 -20 -58 q0 -32 18 -50.5 q18 -18.5 50 -18.5 q41 0 78 33 l-34 -192 q-60 -18 -105 -18 q-104 0 -169.5 65 q-65.5 65 -65.5 168 q0 122 75.5 197.5 q75.5 75.5 197.5 75.5 ZM218 642 q0 43 30 73 q30 30 73 30 q42 0 72 -30 q30 -30 30 -73 q0 -42 -30 -72 q-30 -30 -72 -30 q-43 0 -73 30 q-30 30 -30 72 Z" /><glyph glyph-name="Ccaron" unicode="&#x10c;" d="M415 683 q87 0 173 -31 l-20 -237 q-65 52 -133 52 q-60 0 -103.5 -44 q-43.5 -44 -43.5 -104 q0 -51 37 -85.5 q37 -34.5 92 -34.5 q71 0 131 57 l-29 -243 q-89 -30 -152 -30 q-139 0 -229.5 94 q-90.5 94 -90.5 237 q0 159 105 264 q105 105 263 105 ZM548 918 l55 -101 l-187 -101 l-161 115 l67 87 l97 -70 l129 70 Z" /><glyph glyph-name="ccaron" unicode="&#x10d;" d="M300 493 q59 0 139 -26 l-29 -196 q-36 42 -82 42 q-33 0 -53 -22 q-20 -22 -20 -58 q0 -32 18 -50.5 q18 -18.5 50 -18.5 q41 0 78 33 l-34 -192 q-60 -18 -105 -18 q-104 0 -169.5 65 q-65.5 65 -65.5 168 q0 122 75.5 197.5 q75.5 75.5 197.5 75.5 ZM438 735 l55 -101 l-187 -101 l-161 115 l67 87 l97 -70 l129 70 Z" /><glyph glyph-name="Dcaron" unicode="&#x10e;" d="M39 0 l82 667 l226 0 q176 0 275.5 -85.5 q99.5 -85.5 99.5 -237.5 q0 -80 -32 -148.5 q-32 -68.5 -90 -114.5 q-55 -44 -122 -62.5 q-67 -18.5 -172 -18.5 l-267 0 ZM368 471 l-30 0 l-33 -273 l34 0 q60 0 102 44 q42 44 42 108 q0 52 -32.5 86.5 q-32.5 34.5 -82.5 34.5 ZM498 918 l55 -101 l-187 -101 l-161 115 l67 87 l97 -70 l129 70 Z" /><glyph glyph-name="dcaron" unicode="&#x10f;" d="M426 729 l231 0 l-90 -729 l-231 0 q10 40 23 78 l-8 4 q-42 -95 -140 -95 q-80 0 -132.5 62.5 q-52.5 62.5 -52.5 157.5 q0 114 65 195 q65 81 157 81 q105 0 140 -102 l9 2 q-4 24 -4 35 q0 48 7 101 l26 210 ZM311 169 q25 0 42.5 19.5 q17.5 19.5 19.5 50.5 l0 5 q0 27 -15 43.5 q-15 16.5 -40 16.5 q-26 0 -44.5 -21 q-18.5 -21 -18.5 -52 q0 -26 16.5 -44 q16.5 -18 39.5 -18 ZM946 667 l-126 -218 l-152 0 l85 218 l193 0 Z" /><glyph glyph-name="Dcroat" unicode="&#x110;" d="M65 0 l34 280 l-84 0 l14 120 l85 0 l33 267 l226 0 q176 0 275.5 -85.5 q99.5 -85.5 99.5 -237.5 q0 -80 -32 -148.5 q-32 -68.5 -90 -114.5 q-55 -44 -122 -62.5 q-67 -18.5 -172 -18.5 l-267 0 ZM394 471 l-30 0 l-10 -71 l84 0 l-14 -120 l-83 0 l-10 -82 l34 0 q60 0 102 44 q42 44 42 108 q0 52 -32.5 86.5 q-32.5 34.5 -82.5 34.5 Z" /><glyph glyph-name="dcroat" unicode="&#x111;" d="M426 729 l231 0 l-11 -87 l84 0 l-14 -120 l-85 0 l-64 -522 l-231 0 q10 40 23 78 l-8 4 q-42 -95 -140 -95 q-80 0 -132.5 62.5 q-52.5 62.5 -52.5 157.5 q0 114 65 195 q65 81 157 81 q105 0 140 -102 l9 2 q-4 24 -4 35 q0 48 7 101 l0 3 l-166 0 l15 120 l166 0 l11 87 ZM311 169 q25 0 42.5 19.5 q17.5 19.5 19.5 50.5 l0 5 q0 27 -15 43.5 q-15 16.5 -40 16.5 q-26 0 -44.5 -21 q-18.5 -21 -18.5 -52 q0 -26 16.5 -44 q16.5 -18 39.5 -18 Z" /><glyph glyph-name="Emacron" unicode="&#x112;" d="M121 667 l438 0 l-21 -174 l-197 0 l-9 -73 l180 0 l-20 -165 l-180 0 l-9 -76 l204 0 l-22 -179 l-446 0 l82 667 ZM520 746 l-364 0 l12 104 l364 0 l-12 -104 Z" /><glyph glyph-name="emacron" unicode="&#x113;" d="M587 202 l-331 0 q-1 -6 -1 -17 q0 -29 14 -46 q14 -17 37 -17 q34 0 50 40 l222 0 q-14 -40 -27 -61 q-13 -21 -38 -43 q-82 -71 -205 -71 q-125 0 -202.5 67 q-77.5 67 -77.5 175 q0 113 82.5 189 q82.5 76 205.5 76 q116 0 195.5 -70.5 q79.5 -70.5 79.5 -173.5 q0 -6 -4 -48 ZM322 360 q-47 0 -57 -62 l108 0 q-1 62 -51 62 ZM498 546 l-340 0 l12 100 l340 0 l-12 -100 Z" /><glyph glyph-name="Edotaccent" unicode="&#x116;" d="M121 667 l438 0 l-21 -174 l-197 0 l-9 -73 l180 0 l-20 -165 l-180 0 l-9 -76 l204 0 l-22 -179 l-446 0 l82 667 ZM248 825 q0 43 30 73 q30 30 73 30 q42 0 72 -30 q30 -30 30 -73 q0 -42 -30 -72 q-30 -30 -72 -30 q-43 0 -73 30 q-30 30 -30 72 Z" /><glyph glyph-name="edotaccent" unicode="&#x117;" d="M587 202 l-331 0 q-1 -6 -1 -17 q0 -29 14 -46 q14 -17 37 -17 q34 0 50 40 l222 0 q-14 -40 -27 -61 q-13 -21 -38 -43 q-82 -71 -205 -71 q-125 0 -202.5 67 q-77.5 67 -77.5 175 q0 113 82.5 189 q82.5 76 205.5 76 q116 0 195.5 -70.5 q79.5 -70.5 79.5 -173.5 q0 -6 -4 -48 ZM322 360 q-47 0 -57 -62 l108 0 q-1 62 -51 62 ZM218 642 q0 43 30 73 q30 30 73 30 q42 0 72 -30 q30 -30 30 -73 q0 -42 -30 -72 q-30 -30 -72 -30 q-43 0 -73 30 q-30 30 -30 72 Z" /><glyph glyph-name="Eogonek" unicode="&#x118;" d="M121 667 l438 0 l-21 -174 l-197 0 l-9 -73 l180 0 l-20 -165 l-180 0 l-9 -76 l204 0 l-22 -179 l-60 0 q-19 -14 -40 -34 q-20 -23 -20 -43 q0 -13 10 -23 q9 -9 28 -9 q36 0 63 25 l-33 -95 q-42 -23 -95 -23 q-49 0 -73 22 q-24 21 -24 59 q0 43 39 80 q23 22 55 41 l-296 0 l82 667 Z" /><glyph glyph-name="eogonek" unicode="&#x119;" d="M587 202 l-331 0 q-1 -5 -1 -16 q0 -36 18 -52 q12 -12 33 -12 q23 0 35 14 q4 4 15 26 l222 0 q-13 -54 -53 -96 q-28 -29 -77 -57 q-51 -29 -68 -45 q-22 -20 -22 -41 q0 -14 9 -20 q9 -8 27 -8 q29 0 55 23 l-29 -87 q-37 -21 -87 -21 q-46 0 -69 23 q-19 17 -19 49 q0 42 35 75 q16 15 40 30 q-149 0 -225 76 q-67 65 -67 164 q0 107 74 183 q82 84 214 84 q125 0 208 -83 q67 -68 67 -152 q0 -8 -1.5 -25.5 q-1.5 -17.5 -2.5 -31.5 ZM265 298 l108 0 q0 35 -16 50 q-13 12 -35 12 q-23 0 -37 -14 q-16 -16 -20 -48 Z" /><glyph glyph-name="Ecaron" unicode="&#x11a;" d="M121 667 l438 0 l-21 -174 l-197 0 l-9 -73 l180 0 l-20 -165 l-180 0 l-9 -76 l204 0 l-22 -179 l-446 0 l82 667 ZM473 918 l55 -101 l-187 -101 l-161 115 l67 87 l97 -70 l129 70 Z" /><glyph glyph-name="ecaron" unicode="&#x11b;" d="M587 202 l-331 0 q-1 -6 -1 -17 q0 -29 14 -46 q14 -17 37 -17 q34 0 50 40 l222 0 q-14 -40 -27 -61 q-13 -21 -38 -43 q-82 -71 -205 -71 q-125 0 -202.5 67 q-77.5 67 -77.5 175 q0 113 82.5 189 q82.5 76 205.5 76 q116 0 195.5 -70.5 q79.5 -70.5 79.5 -173.5 q0 -6 -4 -48 ZM322 360 q-47 0 -57 -62 l108 0 q-1 62 -51 62 ZM458 735 l55 -101 l-187 -101 l-161 115 l67 87 l97 -70 l129 70 Z" /><glyph glyph-name="Gcircumflex" unicode="&#x11c;" d="M418 388 l365 0 l0 -6 q0 -192 -110 -301 q-99 -98 -267 -98 q-79 0 -142 20.5 q-63 20.5 -119 75.5 q-98 96 -98 238 q0 152 102 256 q108 111 294 111 q217 0 319 -169 l-227 -89 q-28 56 -89 56 q-61 0 -102 -38 q-55 -52 -55 -137 q0 -62 38 -102 q35 -36 94 -36 q83 0 107 73 l-130 0 l20 146 ZM320 716 l-55 101 l187 101 l161 -115 l-66 -87 l-98 70 l-129 -70 Z" /><glyph glyph-name="gcircumflex" unicode="&#x11d;" d="M397 467 l228 0 l-52 -421 q-10 -82 -31.5 -128 q-21.5 -46 -65.5 -79 q-88 -68 -221 -68 q-106 0 -213 41 q-10 3 -30 12 l62 152 q82 -50 150 -50 q37 0 67 15.5 q30 15.5 44 41.5 q13 26 28 100 l-7 2 q-22 -48 -53 -68 q-31 -20 -83 -20 q-83 0 -138 63 q-55 63 -55 158 q0 111 66.5 188 q66.5 77 162.5 77 q103 0 138 -95 l7 2 l-2 27 l-1 34 l-1 16 ZM312 163 q28 0 46.5 19.5 q18.5 19.5 18.5 49.5 q0 29 -15.5 47.5 q-15.5 18.5 -39.5 18.5 q-28 0 -47.5 -21.5 q-19.5 -21.5 -19.5 -51.5 q0 -28 16 -45 q16 -17 41 -17 ZM252 533 l-55 101 l187 101 l161 -115 l-66 -87 l-98 70 l-129 -70 Z" /><glyph glyph-name="Gbreve" unicode="&#x11e;" d="M418 388 l365 0 l0 -6 q0 -192 -110 -301 q-99 -98 -267 -98 q-79 0 -142 20.5 q-63 20.5 -119 75.5 q-98 96 -98 238 q0 152 102 256 q108 111 294 111 q217 0 319 -169 l-227 -89 q-28 56 -89 56 q-61 0 -102 -38 q-55 -52 -55 -137 q0 -62 38 -102 q35 -36 94 -36 q83 0 107 73 l-130 0 l20 146 ZM527 875 l102 0 q-11 -61 -53 -103 q-50 -49 -133 -49 q-70 0 -112 31 q-54 39 -56 121 l102 0 q4 -26 19 -40 q16 -16 52 -16 q31 0 51 15 q20 15 28 41 Z" /><glyph glyph-name="gbreve" unicode="&#x11f;" d="M397 467 l228 0 l-52 -421 q-10 -82 -31.5 -128 q-21.5 -46 -65.5 -79 q-88 -68 -221 -68 q-106 0 -213 41 q-10 3 -30 12 l62 152 q82 -50 150 -50 q37 0 67 15.5 q30 15.5 44 41.5 q13 26 28 100 l-7 2 q-22 -48 -53 -68 q-31 -20 -83 -20 q-83 0 -138 63 q-55 63 -55 158 q0 111 66.5 188 q66.5 77 162.5 77 q103 0 138 -95 l7 2 l-2 27 l-1 34 l-1 16 ZM312 163 q28 0 46.5 19.5 q18.5 19.5 18.5 49.5 q0 29 -15.5 47.5 q-15.5 18.5 -39.5 18.5 q-28 0 -47.5 -21.5 q-19.5 -21.5 -19.5 -51.5 q0 -28 16 -45 q16 -17 41 -17 ZM442 691 l102 0 q-11 -61 -53 -103 q-49 -49 -134 -49 q-69 0 -111 31 q-54 39 -56 121 l102 0 q4 -26 19 -40 q16 -16 52 -16 q31 0 51 15 q20 15 28 41 Z" /><glyph glyph-name="Gdotaccent" unicode="&#x120;" d="M418 388 l365 0 l0 -6 q0 -192 -110 -301 q-99 -98 -267 -98 q-79 0 -142 20.5 q-63 20.5 -119 75.5 q-98 96 -98 238 q0 152 102 256 q108 111 294 111 q217 0 319 -169 l-227 -89 q-28 56 -89 56 q-61 0 -102 -38 q-55 -52 -55 -137 q0 -62 38 -102 q35 -36 94 -36 q83 0 107 73 l-130 0 l20 146 ZM378 825 q0 43 30 73 q30 30 73 30 q42 0 72 -30 q30 -30 30 -73 q0 -42 -30 -72 q-30 -30 -72 -30 q-43 0 -73 30 q-30 30 -30 72 Z" /><glyph glyph-name="gdotaccent" unicode="&#x121;" d="M397 467 l228 0 l-52 -421 q-10 -82 -31.5 -128 q-21.5 -46 -65.5 -79 q-88 -68 -221 -68 q-106 0 -213 41 q-10 3 -30 12 l62 152 q82 -50 150 -50 q37 0 67 15.5 q30 15.5 44 41.5 q13 26 28 100 l-7 2 q-22 -48 -53 -68 q-31 -20 -83 -20 q-83 0 -138 63 q-55 63 -55 158 q0 111 66.5 188 q66.5 77 162.5 77 q103 0 138 -95 l7 2 l-2 27 l-1 34 l-1 16 ZM312 163 q28 0 46.5 19.5 q18.5 19.5 18.5 49.5 q0 29 -15.5 47.5 q-15.5 18.5 -39.5 18.5 q-28 0 -47.5 -21.5 q-19.5 -21.5 -19.5 -51.5 q0 -28 16 -45 q16 -17 41 -17 ZM267 642 q0 43 30 73 q30 30 73 30 q42 0 72 -30 q30 -30 30 -73 q0 -42 -30 -72 q-30 -30 -72 -30 q-43 0 -73 30 q-30 30 -30 72 Z" /><glyph glyph-name="Gcommaaccent" unicode="&#x122;" d="M418 388 l365 0 l0 -6 q0 -192 -110 -301 q-99 -98 -267 -98 q-79 0 -142 20.5 q-63 20.5 -119 75.5 q-98 96 -98 238 q0 152 102 256 q108 111 294 111 q217 0 319 -169 l-227 -89 q-28 56 -89 56 q-61 0 -102 -38 q-55 -52 -55 -137 q0 -62 38 -102 q35 -36 94 -36 q83 0 107 73 l-130 0 l20 146 ZM527 -62 l-125 -212 l-155 0 l84 212 l196 0 Z" /><glyph glyph-name="gcommaaccent" unicode="&#x123;" d="M397 467 l228 0 l-52 -421 q-10 -82 -31.5 -128 q-21.5 -46 -65.5 -79 q-88 -68 -221 -68 q-106 0 -213 41 q-10 3 -30 12 l62 152 q82 -50 150 -50 q37 0 67 15.5 q30 15.5 44 41.5 q13 26 28 100 l-7 2 q-22 -48 -53 -68 q-31 -20 -83 -20 q-83 0 -138 63 q-55 63 -55 158 q0 111 66.5 188 q66.5 77 162.5 77 q103 0 138 -95 l7 2 l-2 27 l-1 34 l-1 16 ZM312 163 q28 0 46.5 19.5 q18.5 19.5 18.5 49.5 q0 29 -15.5 47.5 q-15.5 18.5 -39.5 18.5 q-28 0 -47.5 -21.5 q-19.5 -21.5 -19.5 -51.5 q0 -28 16 -45 q16 -17 41 -17 ZM232 531 l125 212 l155 0 l-84 -212 l-196 0 Z" /><glyph glyph-name="Hcircumflex" unicode="&#x124;" d="M505 667 l242 0 l-82 -667 l-242 0 l30 243 l-143 0 l-29 -243 l-242 0 l82 667 l242 0 l-28 -228 l142 0 l28 228 ZM350 716 l-55 101 l187 101 l161 -115 l-66 -87 l-98 70 l-129 -70 Z" /><glyph glyph-name="hcircumflex" unicode="&#x125;" d="M110 729 l231 0 l-26 -211 q-9 -71 -25 -125 l9 -3 q53 93 148 93 q62 0 104.5 -43 q42.5 -43 42.5 -106 q0 -26 -4 -53 l-34 -281 l-232 0 l28 226 q3 20 3 31 q0 35 -30 35 q-22 0 -32.5 -15.5 q-10.5 -15.5 -15.5 -58.5 l-26 -218 l-231 0 l90 729 ZM115 763 l-55 101 l187 101 l161 -115 l-66 -87 l-98 70 l-129 -70 Z" /><glyph glyph-name="Hbar" unicode="&#x126;" d="M281 0 l-242 0 l59 482 l-60 0 l18 142 l60 0 l5 43 l242 0 l-5 -43 l142 0 l5 43 l242 0 l-5 -43 l60 0 l-18 -142 l-60 0 l-59 -482 l-242 0 l30 242 l-143 0 l-29 -242 ZM484 482 l-144 0 l-9 -74 l144 0 l9 74 Z" /><glyph glyph-name="hbar" unicode="&#x127;" d="M125 642 l10 87 l231 0 l-10 -87 l165 0 l-14 -120 l-166 0 l-1 -4 q-9 -71 -25 -125 l9 -3 q53 93 148 93 q62 0 104.5 -43 q42.5 -43 42.5 -106 q0 -26 -4 -53 l-34 -281 l-232 0 l28 226 q3 20 3 31 q0 35 -30 35 q-22 0 -32.5 -15.5 q-10.5 -15.5 -15.5 -58.5 l-26 -218 l-231 0 l65 522 l-85 0 l15 120 l85 0 Z" /><glyph glyph-name="Imacron" unicode="&#x12a;" d="M121 667 l245 0 l-82 -667 l-245 0 l82 667 ZM425 746 l-364 0 l12 104 l364 0 l-12 -104 Z" /><glyph glyph-name="imacron" unicode="&#x12b;" d="M81 467 l231 0 l-57 -467 l-231 0 l57 467 ZM368 546 l-340 0 l12 100 l340 0 l-12 -100 Z" /><glyph glyph-name="Iogonek" unicode="&#x12e;" d="M121 667 l245 0 l-82 -667 q-20 -14 -40 -34 q-20 -23 -20 -43 q0 -13 10 -23 q9 -9 28 -9 q36 0 63 25 l-33 -95 q-42 -23 -95 -23 q-49 0 -73 22 q-24 21 -24 59 q0 43 39 80 q23 22 55 41 l-155 0 l82 667 Z" /><glyph glyph-name="iogonek" unicode="&#x12f;" d="M217 747 q52 0 90.5 -32.5 q38.5 -32.5 38.5 -76.5 q0 -42 -37.5 -77.5 q-37.5 -35.5 -96.5 -35.5 q-56 0 -91.5 32 q-35.5 32 -35.5 75 q0 47 39.5 81 q39.5 34 92.5 34 ZM81 467 l231 0 l-57 -467 q-29 -23 -36 -31 q-18 -20 -18 -40 q0 -12 9 -20 q9 -8 27 -8 q29 0 55 23 l-29 -87 q-37 -21 -87 -21 q-46 0 -69 23 q-19 17 -19 49 q0 42 35 75 q20 18 50 37 l-149 0 l57 467 Z" /><glyph glyph-name="Idotaccent" unicode="&#x130;" d="M121 667 l245 0 l-82 -667 l-245 0 l82 667 ZM143 825 q0 43 30 73 q30 30 73 30 q42 0 72 -30 q30 -30 30 -73 q0 -42 -30 -72 q-30 -30 -72 -30 q-43 0 -73 30 q-30 30 -30 72 Z" /><glyph glyph-name="dotlessi" unicode="&#x131;" d="M81 467 l231 0 l-57 -467 l-231 0 l57 467 Z" /><glyph glyph-name="Jcircumflex" unicode="&#x134;" d="M201 667 l242 0 l-55 -447 q-5 -38 -9.5 -61.5 q-4.5 -23.5 -19 -56 q-14.5 -32.5 -37.5 -56.5 q-62 -63 -177 -63 q-109 0 -179 52 l78 216 q8 -20 25 -41 q16 -19 39 -19 q20 0 30 14 q8 13 12 46 l51 416 ZM210 716 l-55 101 l187 101 l161 -115 l-66 -87 l-98 70 l-129 -70 Z" /><glyph glyph-name="jcircumflex" unicode="&#x135;" d="M86 467 l231 0 l-85 -696 l-231 0 l85 696 ZM90 533 l-55 101 l187 101 l161 -115 l-66 -87 l-98 70 l-129 -70 Z" /><glyph glyph-name="Kcommaaccent" unicode="&#x136;" d="M121 667 l242 0 l-22 -173 q-8 -61 -21 -116 l7 -2 q20 51 42 85 l23 37 l106 169 l282 0 l-260 -338 l170 -329 l-255 0 l-85 192 q-23 52 -34 98 l-7 -1 l0 -20 q0 -39 -5 -77 l-23 -192 l-242 0 l82 667 ZM447 -62 l-125 -212 l-155 0 l84 212 l196 0 Z" /><glyph glyph-name="kcommaaccent" unicode="&#x137;" d="M110 729 l231 0 l-34 -279 q-9 -70 -29 -175 l7 -1 q17 44 61 109 l57 84 l275 0 l-201 -241 l134 -226 l-256 0 l-42 91 q-29 63 -40 114 l-9 -1 q3 -39 3 -57 q0 -17 -2 -39 l-14 -108 l-231 0 l90 729 ZM407 -62 l-125 -212 l-155 0 l84 212 l196 0 Z" /><glyph glyph-name="Lacute" unicode="&#x139;" d="M121 667 l245 0 l-57 -466 l205 6 l-25 -207 l-450 0 l82 667 ZM186 779 l127 137 l117 -73 l-157 -119 l-87 55 Z" /><glyph glyph-name="lacute" unicode="&#x13a;" d="M110 729 l231 0 l-90 -729 l-231 0 l90 729 ZM141 836 l116 146 l117 -73 l-146 -128 l-87 55 Z" /><glyph glyph-name="Lcommaaccent" unicode="&#x13b;" d="M121 667 l245 0 l-57 -466 l205 6 l-25 -207 l-450 0 l82 667 ZM387 -62 l-125 -212 l-155 0 l84 212 l196 0 Z" /><glyph glyph-name="lcommaaccent" unicode="&#x13c;" d="M110 729 l231 0 l-90 -729 l-231 0 l90 729 ZM235 -62 l-125 -212 l-155 0 l84 212 l196 0 Z" /><glyph glyph-name="Lcaron" unicode="&#x13d;" d="M121 667 l245 0 l-57 -466 l205 6 l-25 -207 l-450 0 l82 667 ZM666 667 l-126 -218 l-152 0 l85 218 l193 0 Z" /><glyph glyph-name="lcaron" unicode="&#x13e;" d="M110 729 l231 0 l-90 -729 l-231 0 l90 729 ZM636 667 l-126 -218 l-152 0 l85 218 l193 0 Z" /><glyph glyph-name="Ldot" unicode="&#x13f;" d="M121 667 l245 0 l-57 -466 l205 6 l-25 -207 l-450 0 l82 667 ZM389 370 q0 43 30 73 q30 30 73 30 q42 0 72 -30 q30 -30 30 -73 q0 -42 -30 -72 q-30 -30 -72 -30 q-43 0 -73 30 q-30 30 -30 72 Z" /><glyph glyph-name="ldot" unicode="&#x140;" d="M110 729 l231 0 l-90 -729 l-231 0 l90 729 ZM349 354 q0 43 30 73 q30 30 73 30 q42 0 72 -30 q30 -30 30 -73 q0 -42 -30 -72 q-30 -30 -72 -30 q-43 0 -73 30 q-30 30 -30 72 Z" /><glyph glyph-name="Lslash" unicode="&#x141;" d="M521 0 l-446 0 l28 230 l-93 -55 l20 162 l93 55 l34 275 l242 0 l-23 -184 l123 73 l-20 -162 l-123 -73 l-13 -106 l204 0 l-26 -215 Z" /><glyph glyph-name="lslash" unicode="&#x142;" d="M406 729 l-27 -213 l111 68 l-18 -142 l-110 -68 l-46 -374 l-231 0 l35 279 l-110 -68 l16 142 l111 68 l38 308 l231 0 Z" /><glyph glyph-name="Nacute" unicode="&#x143;" d="M554 667 l245 0 l-82 -667 l-234 0 l-116 230 q-34 69 -53 135 l-4 12 l-8 0 q4 -40 4 -80 q0 -41 -3 -67 l-21 -230 l-243 0 l82 667 l243 0 l118 -251 q22 -47 42 -118 l6 -22 l10 1 l-2 22 q-5 62 -5 92 q0 44 4 79 l17 197 ZM386 779 l127 137 l117 -73 l-157 -119 l-87 55 Z" /><glyph glyph-name="nacute" unicode="&#x144;" d="M77 467 l232 0 q-8 -45 -23 -83 l8 -2 q35 56 68.5 79 q33.5 23 78.5 23 q66 0 109.5 -43.5 q43.5 -43.5 43.5 -108.5 q0 -24 -5 -71 l-32 -261 l-232 0 l28 226 q3 20 3 31 q0 35 -30 35 q-23 0 -33 -15 q-10 -15 -15 -59 l-27 -218 l-231 0 l57 467 ZM281 596 l116 146 l117 -73 l-146 -128 l-87 55 Z" /><glyph glyph-name="Ncommaaccent" unicode="&#x145;" d="M554 667 l245 0 l-82 -667 l-234 0 l-116 230 q-34 69 -53 135 l-4 12 l-8 0 q4 -40 4 -80 q0 -41 -3 -67 l-21 -230 l-243 0 l82 667 l243 0 l118 -251 q22 -47 42 -118 l6 -22 l10 1 l-2 22 q-5 62 -5 92 q0 44 4 79 l17 197 ZM487 -62 l-125 -212 l-155 0 l84 212 l196 0 Z" /><glyph glyph-name="ncommaaccent" unicode="&#x146;" d="M77 467 l232 0 q-8 -45 -23 -83 l8 -2 q35 56 68.5 79 q33.5 23 78.5 23 q66 0 109.5 -43.5 q43.5 -43.5 43.5 -108.5 q0 -24 -5 -71 l-32 -261 l-232 0 l28 226 q3 20 3 31 q0 35 -30 35 q-23 0 -33 -15 q-10 -15 -15 -59 l-27 -218 l-231 0 l57 467 ZM397 -62 l-125 -212 l-155 0 l84 212 l196 0 Z" /><glyph glyph-name="Ncaron" unicode="&#x147;" d="M554 667 l245 0 l-82 -667 l-234 0 l-116 230 q-34 69 -53 135 l-4 12 l-8 0 q4 -40 4 -80 q0 -41 -3 -67 l-21 -230 l-243 0 l82 667 l243 0 l118 -251 q22 -47 42 -118 l6 -22 l10 1 l-2 22 q-5 62 -5 92 q0 44 4 79 l17 197 ZM583 918 l55 -101 l-187 -101 l-161 115 l67 87 l97 -70 l129 70 Z" /><glyph glyph-name="ncaron" unicode="&#x148;" d="M77 467 l232 0 q-8 -45 -23 -83 l8 -2 q35 56 68.5 79 q33.5 23 78.5 23 q66 0 109.5 -43.5 q43.5 -43.5 43.5 -108.5 q0 -24 -5 -71 l-32 -261 l-232 0 l28 226 q3 20 3 31 q0 35 -30 35 q-23 0 -33 -15 q-10 -15 -15 -59 l-27 -218 l-231 0 l57 467 ZM478 735 l55 -101 l-187 -101 l-161 115 l67 87 l97 -70 l129 70 Z" /><glyph glyph-name="Omacron" unicode="&#x14c;" d="M675 591 q111 -91 111 -252 q0 -152 -104.5 -254 q-104.5 -102 -260.5 -102 q-158 0 -265.5 98 q-107.5 98 -107.5 243 q0 151 106.5 255 q106.5 104 261.5 104 q150 0 259 -92 ZM410 193 q57 0 94.5 40.5 q37.5 40.5 37.5 101.5 q0 53 -34 90 q-34 37 -84 37 q-55 0 -93.5 -41 q-38.5 -41 -38.5 -99 q0 -56 33.5 -92.5 q33.5 -36.5 84.5 -36.5 ZM600 746 l-364 0 l12 104 l364 0 l-12 -104 Z" /><glyph glyph-name="omacron" unicode="&#x14d;" d="M320 493 q131 0 211 -68.5 q80 -68.5 80 -180.5 q0 -110 -83 -183.5 q-83 -73.5 -207 -73.5 q-127 0 -209.5 70.5 q-82.5 70.5 -82.5 178.5 q0 111 83 184 q83 73 208 73 ZM318 169 q28 0 46 21.5 q18 21.5 18 53.5 q0 28 -16.5 47 q-16.5 19 -41.5 19 q-27 0 -46.5 -22 q-19.5 -22 -19.5 -53 q0 -29 17 -47.5 q17 -18.5 43 -18.5 ZM503 546 l-340 0 l12 100 l340 0 l-12 -100 Z" /><glyph glyph-name="Obreve" unicode="&#x14e;" d="M675 591 q111 -91 111 -252 q0 -152 -104.5 -254 q-104.5 -102 -260.5 -102 q-158 0 -265.5 98 q-107.5 98 -107.5 243 q0 151 106.5 255 q106.5 104 261.5 104 q150 0 259 -92 ZM410 193 q57 0 94.5 40.5 q37.5 40.5 37.5 101.5 q0 53 -34 90 q-34 37 -84 37 q-55 0 -93.5 -41 q-38.5 -41 -38.5 -99 q0 -56 33.5 -92.5 q33.5 -36.5 84.5 -36.5 ZM512 875 l102 0 q-11 -61 -53 -103 q-50 -49 -133 -49 q-70 0 -112 31 q-54 39 -56 121 l102 0 q4 -26 19 -40 q16 -16 52 -16 q31 0 51 15 q20 15 28 41 Z" /><glyph glyph-name="obreve" unicode="&#x14f;" d="M320 493 q131 0 211 -68.5 q80 -68.5 80 -180.5 q0 -110 -83 -183.5 q-83 -73.5 -207 -73.5 q-127 0 -209.5 70.5 q-82.5 70.5 -82.5 178.5 q0 111 83 184 q83 73 208 73 ZM318 169 q28 0 46 21.5 q18 21.5 18 53.5 q0 28 -16.5 47 q-16.5 19 -41.5 19 q-27 0 -46.5 -22 q-19.5 -22 -19.5 -53 q0 -29 17 -47.5 q17 -18.5 43 -18.5 ZM422 691 l102 0 q-11 -61 -53 -103 q-49 -49 -134 -49 q-69 0 -111 31 q-54 39 -56 121 l102 0 q4 -26 19 -40 q16 -16 52 -16 q31 0 51 15 q20 15 28 41 Z" /><glyph glyph-name="Ohungarumlaut" unicode="&#x150;" d="M675 591 q111 -91 111 -252 q0 -152 -104.5 -254 q-104.5 -102 -260.5 -102 q-158 0 -265.5 98 q-107.5 98 -107.5 243 q0 151 106.5 255 q106.5 104 261.5 104 q150 0 259 -92 ZM410 193 q57 0 94.5 40.5 q37.5 40.5 37.5 101.5 q0 53 -34 90 q-34 37 -84 37 q-55 0 -93.5 -41 q-38.5 -41 -38.5 -99 q0 -56 33.5 -92.5 q33.5 -36.5 84.5 -36.5 ZM460 779 l111 137 l111 -73 l-143 -119 l-79 55 ZM242 779 l111 137 l111 -73 l-143 -119 l-79 55 Z" /><glyph glyph-name="ohungarumlaut" unicode="&#x151;" d="M320 493 q131 0 211 -68.5 q80 -68.5 80 -180.5 q0 -110 -83 -183.5 q-83 -73.5 -207 -73.5 q-127 0 -209.5 70.5 q-82.5 70.5 -82.5 178.5 q0 111 83 184 q83 73 208 73 ZM318 169 q28 0 46 21.5 q18 21.5 18 53.5 q0 28 -16.5 47 q-16.5 19 -41.5 19 q-27 0 -46.5 -22 q-19.5 -22 -19.5 -53 q0 -29 17 -47.5 q17 -18.5 43 -18.5 ZM145 596 l100 146 l112 -73 l-133 -128 l-79 55 ZM349 596 l100 146 l111 -73 l-132 -128 l-79 55 Z" /><glyph glyph-name="OE" unicode="&#x152;" d="M561 667 l433 0 l-21 -174 l-195 0 l-9 -73 l178 0 l-20 -165 l-179 0 l-9 -76 l203 0 l-22 -179 l-441 0 l10 83 q-31 -35 -51.5 -52 q-20.5 -17 -51.5 -30 q-42 -18 -83 -18 q-104 0 -179.5 100 q-75.5 100 -75.5 238 q0 149 92 255.5 q92 106.5 221 106.5 q89 0 152 -69 q9 -10 36 -43 l12 96 ZM326 238.5 q34 -37.5 86 -37.5 q52 0 86 40.5 q34 40.5 34 102.5 q0 58 -32 94.5 q-32 36.5 -82 36.5 q-54 0 -90 -40.5 q-36 -40.5 -36 -100.5 q0 -58 34 -95.5 Z" /><glyph glyph-name="oe" unicode="&#x153;" d="M913 199 l-330 0 q0 -42 17 -59 q13 -13 34 -13 q18 0 29 11 q10 10 12 23 l229 0 q-20 -85 -95 -133 q-63 -41 -156 -41 q-74 0 -123 24 q-45 22 -74 67 q-37 -47 -81 -68 q-46 -23 -109 -23 q-99 0 -164 65 q-73 73 -73 178 q0 110 79 189 q74 74 188 74 q61 0 108 -28 q41 -24 71 -68 q29 42 73 67 q50 29 117 29 q113 0 182 -73 q69 -74 69 -181 q0 -21 -3 -40 ZM309 171 q21 0 39 18 q23 25 23 59 q0 29 -15 44 q-15 15 -37 15 q-21 0 -38 -15 q-24 -21 -24 -61 q0 -27 16 -44 q16 -16 36 -16 ZM593 300 l109 0 q-4 30 -20 46 q-13 13 -34 13 q-22 0 -38 -18 q-15 -18 -17 -41 Z" /><glyph glyph-name="Racute" unicode="&#x154;" d="M607 300 q-23 -18 -42.5 -26 q-19.5 -8 -56.5 -13 l145 -261 l-262 0 l-60 161 q-19 52 -26 89 l-7 -1 q1 -22 1 -49 q0 -46 -5 -88 l-13 -112 l-242 0 l82 667 l265 0 q81 0 126.5 -12 q45.5 -12 83.5 -42 q78 -65 78 -166 q0 -93 -67 -147 ZM360 488 l-19 0 l-15 -120 l20 0 q42 0 66.5 18 q24.5 18 24.5 48 q0 54 -77 54 ZM276 779 l127 137 l117 -73 l-157 -119 l-87 55 Z" /><glyph glyph-name="racute" unicode="&#x155;" d="M425 484 q10 0 29 -4 l-28 -230 q-33 17 -54 17 q-85 0 -102 -130 l-17 -137 l-233 0 l57 467 l234 0 q-9 -41 -26 -83 l10 -5 q32 58 61.5 81.5 q29.5 23.5 68.5 23.5 ZM176 596 l116 146 l117 -73 l-146 -128 l-87 55 Z" /><glyph glyph-name="Rcommaaccent" unicode="&#x156;" d="M607 300 q-23 -18 -42.5 -26 q-19.5 -8 -56.5 -13 l145 -261 l-262 0 l-60 161 q-19 52 -26 89 l-7 -1 q1 -22 1 -49 q0 -46 -5 -88 l-13 -112 l-242 0 l82 667 l265 0 q81 0 126.5 -12 q45.5 -12 83.5 -42 q78 -65 78 -166 q0 -93 -67 -147 ZM360 488 l-19 0 l-15 -120 l20 0 q42 0 66.5 18 q24.5 18 24.5 48 q0 54 -77 54 ZM447 -62 l-125 -212 l-155 0 l84 212 l196 0 Z" /><glyph glyph-name="rcommaaccent" unicode="&#x157;" d="M425 484 q10 0 29 -4 l-28 -230 q-33 17 -54 17 q-85 0 -102 -130 l-17 -137 l-233 0 l57 467 l234 0 q-9 -41 -26 -83 l10 -5 q32 58 61.5 81.5 q29.5 23.5 68.5 23.5 ZM327 -62 l-125 -212 l-155 0 l84 212 l196 0 Z" /><glyph glyph-name="Rcaron" unicode="&#x158;" d="M607 300 q-23 -18 -42.5 -26 q-19.5 -8 -56.5 -13 l145 -261 l-262 0 l-60 161 q-19 52 -26 89 l-7 -1 q1 -22 1 -49 q0 -46 -5 -88 l-13 -112 l-242 0 l82 667 l265 0 q81 0 126.5 -12 q45.5 -12 83.5 -42 q78 -65 78 -166 q0 -93 -67 -147 ZM360 488 l-19 0 l-15 -120 l20 0 q42 0 66.5 18 q24.5 18 24.5 48 q0 54 -77 54 ZM518 918 l55 -101 l-187 -101 l-161 115 l67 87 l97 -70 l129 70 Z" /><glyph glyph-name="rcaron" unicode="&#x159;" d="M425 484 q10 0 29 -4 l-28 -230 q-33 17 -54 17 q-85 0 -102 -130 l-17 -137 l-233 0 l57 467 l234 0 q-9 -41 -26 -83 l10 -5 q32 58 61.5 81.5 q29.5 23.5 68.5 23.5 ZM398 735 l55 -101 l-187 -101 l-161 115 l67 87 l97 -70 l129 70 Z" /><glyph glyph-name="Sacute" unicode="&#x15a;" d="M556 636 q24 -12 42 -22 l-89 -177 q-66 60 -146 60 q-20 0 -33 -10 q-13 -10 -13 -25 q0 -16 13.5 -24 q13.5 -8 59.5 -19 q73 -19 108 -44 q34 -22 53.5 -62.5 q19.5 -40.5 19.5 -86.5 q0 -101 -85 -172 q-85 -71 -206 -71 q-98 0 -202 48 q-44 22 -62 32 l90 180 q30 -37 75 -58 q45 -21 92 -21 q26 0 41 10.5 q15 10.5 15 28.5 q0 33 -63 47 q-62 12 -95 30 q-96 47 -96 164 q0 100 80 169.5 q80 69.5 194 69.5 q105 0 207 -47 ZM256 779 l127 137 l117 -73 l-157 -119 l-87 55 Z" /><glyph glyph-name="sacute" unicode="&#x15b;" d="M271 493 q91 0 198 -42 l-57 -141 q-53 39 -108 39 q-40 0 -40 -24 q0 -20 27 -26 l42 -10 q52 -11 82 -45.5 q30 -34.5 30 -82.5 q0 -77 -64.5 -125.5 q-64.5 -48.5 -165.5 -48.5 q-78 0 -167 34 q-6 3 -22 9.5 q-16 6.5 -26 10.5 l56 141 q74 -49 137 -49 q37 0 37 25 q0 24 -52 36 q-70 16 -98.5 43.5 q-28.5 27.5 -28.5 78.5 q0 77 62.5 127 q62.5 50 157.5 50 ZM191 596 l116 146 l117 -73 l-146 -128 l-87 55 Z" /><glyph glyph-name="Scircumflex" unicode="&#x15c;" d="M556 636 q24 -12 42 -22 l-89 -177 q-66 60 -146 60 q-20 0 -33 -10 q-13 -10 -13 -25 q0 -16 13.5 -24 q13.5 -8 59.5 -19 q73 -19 108 -44 q34 -22 53.5 -62.5 q19.5 -40.5 19.5 -86.5 q0 -101 -85 -172 q-85 -71 -206 -71 q-98 0 -202 48 q-44 22 -62 32 l90 180 q30 -37 75 -58 q45 -21 92 -21 q26 0 41 10.5 q15 10.5 15 28.5 q0 33 -63 47 q-62 12 -95 30 q-96 47 -96 164 q0 100 80 169.5 q80 69.5 194 69.5 q105 0 207 -47 ZM250 716 l-55 101 l187 101 l161 -115 l-66 -87 l-98 70 l-129 -70 Z" /><glyph glyph-name="scircumflex" unicode="&#x15d;" d="M271 493 q91 0 198 -42 l-57 -141 q-53 39 -108 39 q-40 0 -40 -24 q0 -20 27 -26 l42 -10 q52 -11 82 -45.5 q30 -34.5 30 -82.5 q0 -77 -64.5 -125.5 q-64.5 -48.5 -165.5 -48.5 q-78 0 -167 34 q-6 3 -22 9.5 q-16 6.5 -26 10.5 l56 141 q74 -49 137 -49 q37 0 37 25 q0 24 -52 36 q-70 16 -98.5 43.5 q-28.5 27.5 -28.5 78.5 q0 77 62.5 127 q62.5 50 157.5 50 ZM174 533 l-55 101 l187 101 l161 -115 l-66 -87 l-98 70 l-129 -70 Z" /><glyph glyph-name="Scedilla" unicode="&#x15e;" d="M556 636 q24 -12 42 -22 l-89 -177 q-66 60 -146 60 q-20 0 -33 -10 q-13 -10 -13 -25 q0 -16 13.5 -24 q13.5 -8 59.5 -19 q73 -19 108 -44 q34 -22 53.5 -62.5 q19.5 -40.5 19.5 -86.5 q0 -101 -85 -172 q-85 -71 -206 -71 q-98 0 -202 48 q-44 22 -62 32 l90 180 q30 -37 75 -58 q45 -21 92 -21 q26 0 41 10.5 q15 10.5 15 28.5 q0 33 -63 47 q-62 12 -95 30 q-96 47 -96 164 q0 100 80 169.5 q80 69.5 194 69.5 q105 0 207 -47 ZM118 -190 l152 147 l116 -82 l-158 -143 l-110 78 Z" /><glyph glyph-name="scedilla" unicode="&#x15f;" d="M271 493 q91 0 198 -42 l-57 -141 q-53 39 -108 39 q-40 0 -40 -24 q0 -20 27 -26 l42 -10 q52 -11 82 -45.5 q30 -34.5 30 -82.5 q0 -77 -64.5 -125.5 q-64.5 -48.5 -165.5 -48.5 q-78 0 -167 34 q-6 3 -22 9.5 q-16 6.5 -26 10.5 l56 141 q74 -49 137 -49 q37 0 37 25 q0 24 -52 36 q-70 16 -98.5 43.5 q-28.5 27.5 -28.5 78.5 q0 77 62.5 127 q62.5 50 157.5 50 ZM78 -180 l134 135 l106 -76 l-140 -129 l-100 70 Z" /><glyph glyph-name="Scaron" unicode="&#x160;" d="M556 636 q24 -12 42 -22 l-89 -177 q-66 60 -146 60 q-20 0 -33 -10 q-13 -10 -13 -25 q0 -16 13.5 -24 q13.5 -8 59.5 -19 q73 -19 108 -44 q34 -22 53.5 -62.5 q19.5 -40.5 19.5 -86.5 q0 -101 -85 -172 q-85 -71 -206 -71 q-98 0 -202 48 q-44 22 -62 32 l90 180 q30 -37 75 -58 q45 -21 92 -21 q26 0 41 10.5 q15 10.5 15 28.5 q0 33 -63 47 q-62 12 -95 30 q-96 47 -96 164 q0 100 80 169.5 q80 69.5 194 69.5 q105 0 207 -47 ZM488 918 l55 -101 l-187 -101 l-161 115 l67 87 l97 -70 l129 70 Z" /><glyph glyph-name="scaron" unicode="&#x161;" d="M271 493 q91 0 198 -42 l-57 -141 q-53 39 -108 39 q-40 0 -40 -24 q0 -20 27 -26 l42 -10 q52 -11 82 -45.5 q30 -34.5 30 -82.5 q0 -77 -64.5 -125.5 q-64.5 -48.5 -165.5 -48.5 q-78 0 -167 34 q-6 3 -22 9.5 q-16 6.5 -26 10.5 l56 141 q74 -49 137 -49 q37 0 37 25 q0 24 -52 36 q-70 16 -98.5 43.5 q-28.5 27.5 -28.5 78.5 q0 77 62.5 127 q62.5 50 157.5 50 ZM416 735 l55 -101 l-187 -101 l-161 115 l67 87 l97 -70 l129 70 Z" /><glyph glyph-name="Tcedilla" unicode="&#x162;" d="M60 667 l476 0 l-26 -210 l-115 7 l-57 -464 l-245 0 l57 464 l-115 -7 l25 210 ZM38 -190 l152 147 l116 -82 l-158 -143 l-110 78 Z" /><glyph glyph-name="tcedilla" unicode="&#x163;" d="M362 288 l-56 6 l-36 -294 l-231 0 l36 294 l-60 -6 l23 183 l57 -10 l21 164 l231 0 l-20 -164 l57 6 l-22 -179 ZM38 -180 l134 135 l106 -76 l-140 -129 l-100 70 Z" /><glyph glyph-name="Tcaron" unicode="&#x164;" d="M536 667 l-476 0 l-25 -210 l115 7 l-57 -464 l245 0 l57 464 l115 -7 l26 210 ZM428 918 l55 -101 l-187 -101 l-161 115 l67 87 l97 -70 l129 70 Z" /><glyph glyph-name="tcaron" unicode="&#x165;" d="M362 288 l-56 6 l-36 -294 l-231 0 l36 294 l-60 -6 l23 183 l57 -10 l21 164 l231 0 l-20 -164 l57 6 l-22 -179 ZM656 727 l-126 -218 l-152 0 l85 218 l193 0 Z" /><glyph glyph-name="Utilde" unicode="&#x168;" d="M500 667 l245 0 l-45 -369 q-14 -107 -31.5 -152 q-17.5 -45 -61.5 -85 q-87 -78 -226 -78 q-147 0 -236 72 q-75 61 -75 175 q0 26 3 53 l48 384 l245 0 l-45 -369 q-5 -40 -5 -49 q0 -62 60 -62 q34 0 52 23.5 q18 23.5 26 78.5 l46 378 ZM509 829 q12 0 19 5.5 q7 5.5 15 22.5 l83 -42 q-34 -51 -57.5 -69.5 q-23.5 -18.5 -54.5 -18.5 q-19 0 -58 13 l-34 12 q-21 6 -28 6 q-27 0 -39 -31 l-90 28 q33 56 64.5 79 q31.5 23 74.5 23 q25 0 70 -18 q26 -10 35 -10 Z" /><glyph glyph-name="utilde" unicode="&#x169;" d="M383 467 l232 0 l-32 -257 q-8 -66 -24.5 -101.5 q-16.5 -35.5 -52.5 -64.5 q-73 -57 -191 -57 q-128 0 -198.5 52 q-70.5 52 -70.5 147 q0 24 3 54 l28 227 l232 0 l-28 -227 q-4 -31 -4 -41 q0 -15 9.5 -25 q9.5 -10 24.5 -10 q21 0 30 13.5 q9 13.5 13 53.5 l29 236 ZM455 673 l74 -38 q-48 -91 -109 -91 q-22 0 -57 17 q-22 11 -37 11 q-27 0 -46 -32 l-77 40 q38 50 63.5 68.5 q25.5 18.5 53.5 18.5 q22 0 52 -13 l23 -10 q13 -5 20 -5 q17 0 34 25 l6 9 Z" /><glyph glyph-name="Umacron" unicode="&#x16a;" d="M500 667 l245 0 l-45 -369 q-14 -107 -31.5 -152 q-17.5 -45 -61.5 -85 q-87 -78 -226 -78 q-147 0 -236 72 q-75 61 -75 175 q0 26 3 53 l48 384 l245 0 l-45 -369 q-5 -40 -5 -49 q0 -62 60 -62 q34 0 52 23.5 q18 23.5 26 78.5 l46 378 ZM615 746 l-364 0 l12 104 l364 0 l-12 -104 Z" /><glyph glyph-name="umacron" unicode="&#x16b;" d="M383 467 l232 0 l-32 -257 q-8 -66 -24.5 -101.5 q-16.5 -35.5 -52.5 -64.5 q-73 -57 -191 -57 q-128 0 -198.5 52 q-70.5 52 -70.5 147 q0 24 3 54 l28 227 l232 0 l-28 -227 q-4 -31 -4 -41 q0 -15 9.5 -25 q9.5 -10 24.5 -10 q21 0 30 13.5 q9 13.5 13 53.5 l29 236 ZM518 546 l-340 0 l12 100 l340 0 l-12 -100 Z" /><glyph glyph-name="Ubreve" unicode="&#x16c;" d="M500 667 l245 0 l-45 -369 q-14 -107 -31.5 -152 q-17.5 -45 -61.5 -85 q-87 -78 -226 -78 q-147 0 -236 72 q-75 61 -75 175 q0 26 3 53 l48 384 l245 0 l-45 -369 q-5 -40 -5 -49 q0 -62 60 -62 q34 0 52 23.5 q18 23.5 26 78.5 l46 378 ZM522 875 l102 0 q-11 -61 -53 -103 q-50 -49 -133 -49 q-70 0 -112 31 q-54 39 -56 121 l102 0 q4 -26 19 -40 q16 -16 52 -16 q31 0 51 15 q20 15 28 41 Z" /><glyph glyph-name="ubreve" unicode="&#x16d;" d="M383 467 l232 0 l-32 -257 q-8 -66 -24.5 -101.5 q-16.5 -35.5 -52.5 -64.5 q-73 -57 -191 -57 q-128 0 -198.5 52 q-70.5 52 -70.5 147 q0 24 3 54 l28 227 l232 0 l-28 -227 q-4 -31 -4 -41 q0 -15 9.5 -25 q9.5 -10 24.5 -10 q21 0 30 13.5 q9 13.5 13 53.5 l29 236 ZM442 691 l102 0 q-11 -61 -53 -103 q-49 -49 -134 -49 q-69 0 -111 31 q-54 39 -56 121 l102 0 q4 -26 19 -40 q16 -16 52 -16 q31 0 51 15 q20 15 28 41 Z" /><glyph glyph-name="Uring" unicode="&#x16e;" d="M500 667 l245 0 l-45 -369 q-14 -107 -31.5 -152 q-17.5 -45 -61.5 -85 q-87 -78 -226 -78 q-147 0 -236 72 q-75 61 -75 175 q0 26 3 53 l48 384 l245 0 l-45 -369 q-5 -40 -5 -49 q0 -62 60 -62 q34 0 52 23.5 q18 23.5 26 78.5 l46 378 ZM579 826 q0 -51 -40 -81 q-36 -28 -104 -28 q-68 0 -103 27 q-41 31 -41 82 q0 49 40 80 q36 28 104 28 q69 0 104 -28 q40 -32 40 -80 ZM435 860 q-22 0 -35 -8 q-15 -10 -15 -28 q0 -16 15 -25 q13 -8 35 -8 q22 0 36 8 q14 8 14 27 q0 16 -14 26 q-13 8 -36 8 Z" /><glyph glyph-name="uring" unicode="&#x16f;" d="M383 467 l232 0 l-32 -257 q-8 -66 -24.5 -101.5 q-16.5 -35.5 -52.5 -64.5 q-73 -57 -191 -57 q-128 0 -198.5 52 q-70.5 52 -70.5 147 q0 24 3 54 l28 227 l232 0 l-28 -227 q-4 -31 -4 -41 q0 -15 9.5 -25 q9.5 -10 24.5 -10 q21 0 30 13.5 q9 13.5 13 53.5 l29 236 ZM494 645 q0 -51 -40 -81 q-36 -28 -104 -28 q-68 0 -103 27 q-41 31 -41 82 q0 49 40 80 q36 28 104 28 q69 0 104 -28 q40 -32 40 -80 ZM350 679 q-22 0 -35 -8 q-15 -10 -15 -28 q0 -16 15 -25 q13 -8 35 -8 q22 0 36 8 q14 8 14 27 q0 16 -14 26 q-13 8 -36 8 Z" /><glyph glyph-name="Uhungarumlaut" unicode="&#x170;" d="M500 667 l245 0 l-45 -369 q-14 -107 -31.5 -152 q-17.5 -45 -61.5 -85 q-87 -78 -226 -78 q-147 0 -236 72 q-75 61 -75 175 q0 26 3 53 l48 384 l245 0 l-45 -369 q-5 -40 -5 -49 q0 -62 60 -62 q34 0 52 23.5 q18 23.5 26 78.5 l46 378 ZM464 779 l111 137 l111 -73 l-143 -119 l-79 55 ZM246 779 l111 137 l111 -73 l-143 -119 l-79 55 Z" /><glyph glyph-name="uhungarumlaut" unicode="&#x171;" d="M383 467 l232 0 l-32 -257 q-8 -66 -24.5 -101.5 q-16.5 -35.5 -52.5 -64.5 q-73 -57 -191 -57 q-128 0 -198.5 52 q-70.5 52 -70.5 147 q0 24 3 54 l28 227 l232 0 l-28 -227 q-4 -31 -4 -41 q0 -15 9.5 -25 q9.5 -10 24.5 -10 q21 0 30 13.5 q9 13.5 13 53.5 l29 236 ZM160 596 l100 146 l112 -73 l-133 -128 l-79 55 ZM364 596 l100 146 l111 -73 l-132 -128 l-79 55 Z" /><glyph glyph-name="Uogonek" unicode="&#x172;" d="M500 667 l245 0 l-48 -392 q-6 -48 -9.5 -71.5 q-3.5 -23.5 -18.5 -61.5 q-15 -38 -39 -65 q-31 -34 -86 -64 q-67 -36 -76 -42 q-34 -23 -34 -48 q0 -14 10 -23 q9 -9 28 -9 q36 0 63 25 l-33 -95 q-42 -23 -95 -23 q-49 0 -73 22 q-24 21 -24 59 q0 41 39 80 q15 15 29 24 q-166 0 -250 87 q-59 63 -59 158 q0 15 5 63 l47 376 l245 0 l-45 -369 q-5 -45 -5 -49 q0 -30 17 -47 q15 -15 43 -15 q30 0 48 18 q23 23 30 84 l46 378 Z" /><glyph glyph-name="uogonek" unicode="&#x173;" d="M383 467 l232 0 l-32 -257 q-10 -90 -49 -138 q-28 -34 -85 -66 q-52 -29 -66 -42 q-22 -18 -22 -41 q0 -14 9 -20 q9 -8 27 -8 q29 0 55 23 l-29 -87 q-37 -21 -87 -21 q-46 0 -69 23 q-19 17 -19 49 q0 42 35 75 q16 15 40 30 q-161 0 -228 71 q-49 53 -49 132 q0 14 5 61 l26 216 l232 0 l-27 -216 q-1 -7 -2 -17.5 q-1 -10.5 -2 -17.5 q-1 -7 -1 -11 q0 -23 11 -33 q10 -8 23 -8 q16 0 26 8 q11 10 17 59 l29 236 Z" /><glyph glyph-name="Ydieresis" unicode="&#x178;" d="M745 667 l-281 -384 l-35 -283 l-240 0 l36 289 l-178 378 l265 0 l34 -109 q10 -33 13 -76 l9 0 q8 30 24 63 l62 122 l291 0 ZM213 762 q-29 29 -29 71 q0 42 29 71 q29 29 71 29 q42 0 71 -29 q29 -29 29 -71 q0 -42 -29 -71 q-29 -29 -71 -29 q-42 0 -71 29 ZM460 762 q-29 29 -29 71 q0 42 29 71 q29 29 71 29 q42 0 71 -29 q29 -29 29 -71 q0 -42 -29 -71 q-29 -29 -71 -29 q-42 0 -71 29 Z" /><glyph glyph-name="Zacute" unicode="&#x179;" d="M435 194 l181 4 l-24 -198 l-607 0 l8 60 l233 328 q27 37 41 52.5 q14 15.5 31 25.5 l-3 8 q-33 -10 -87 -13 l-153 -4 l26 210 l582 0 l-8 -59 l-247 -348 q-37 -51 -65 -71 l4 -8 q36 11 88 13 ZM286 779 l127 137 l117 -73 l-157 -119 l-87 55 Z" /><glyph glyph-name="zacute" unicode="&#x17a;" d="M62 467 l461 0 l-4 -30 l-144 -204 q-23 -32 -57 -56 l4 -11 q22 11 58 11 l107 0 l-22 -177 l-472 0 l4 35 l139 207 q33 42 58 57 l-5 9 q-27 -15 -64 -15 l-84 0 l21 174 ZM201 596 l116 146 l117 -73 l-146 -128 l-87 55 Z" /><glyph glyph-name="Zdotaccent" unicode="&#x17b;" d="M435 194 l181 4 l-24 -198 l-607 0 l8 60 l233 328 q27 37 41 52.5 q14 15.5 31 25.5 l-3 8 q-33 -10 -87 -13 l-153 -4 l26 210 l582 0 l-8 -59 l-247 -348 q-37 -51 -65 -71 l4 -8 q36 11 88 13 ZM264 825 q0 43 30 73 q30 30 73 30 q42 0 72 -30 q30 -30 30 -73 q0 -42 -30 -72 q-30 -30 -72 -30 q-43 0 -73 30 q-30 30 -30 72 Z" /><glyph glyph-name="zdotaccent" unicode="&#x17c;" d="M62 467 l461 0 l-4 -30 l-144 -204 q-23 -32 -57 -56 l4 -11 q22 11 58 11 l107 0 l-22 -177 l-472 0 l4 35 l139 207 q33 42 58 57 l-5 9 q-27 -15 -64 -15 l-84 0 l21 174 ZM193 642 q0 43 30 73 q30 30 73 30 q42 0 72 -30 q30 -30 30 -73 q0 -42 -30 -72 q-30 -30 -72 -30 q-43 0 -73 30 q-30 30 -30 72 Z" /><glyph glyph-name="Zcaron" unicode="&#x17d;" d="M435 194 l181 4 l-24 -198 l-607 0 l8 60 l233 328 q27 37 41 52.5 q14 15.5 31 25.5 l-3 8 q-33 -10 -87 -13 l-153 -4 l26 210 l582 0 l-8 -59 l-247 -348 q-37 -51 -65 -71 l4 -8 q36 11 88 13 ZM494 918 l55 -101 l-187 -101 l-161 115 l67 87 l97 -70 l129 70 Z" /><glyph glyph-name="zcaron" unicode="&#x17e;" d="M62 467 l461 0 l-4 -30 l-144 -204 q-23 -32 -57 -56 l4 -11 q22 11 58 11 l107 0 l-22 -177 l-472 0 l4 35 l139 207 q33 42 58 57 l-5 9 q-27 -15 -64 -15 l-84 0 l21 174 ZM425 735 l55 -101 l-187 -101 l-161 115 l67 87 l97 -70 l129 70 Z" /><glyph glyph-name="uni018F" unicode="&#x18f;" d="M287 431 l-220 37 q49 105 141 161 q88 54 209 54 q161 0 252 -93 q91 -93 91 -238 q0 -168 -103 -273 q-95 -96 -266 -96 q-162 0 -250 92 q-111 115 -90 311 l466 0 q-2 55 -35 88 q-29 29 -80 29 q-45 0 -74 -21 q-27 -18 -41 -51 ZM502 258 l-245 0 q3 -43 31 -69 q29 -26 81 -26 q53 0 85 23 q36 25 48 72 Z" /><glyph glyph-name="florin" unicode="&#x192;" d="M465 321 l-69 -292 q-25 -110 -77 -160 q-65 -62 -204 -62 q-41 0 -69 6 l40 169 l12 0 q46 0 66 14 q23 16 32 57 l66 268 l-60 0 l31 124 l60 0 l27 110 q8 30 14 48 q6 18 20 42.5 q14 24.5 34 42.5 q56 52 147 52 q53 0 107 -22 l-40 -167 q-20 12 -39 12 q-21 0 -33 -12 q-10 -8 -16 -32 l-18 -74 l69 0 l-31 -124 l-69 0 Z" /><glyph glyph-name="uni01CF" unicode="&#x1cf;" d="M121 667 l245 0 l-82 -667 l-245 0 l82 667 ZM378 918 l55 -101 l-187 -101 l-161 115 l67 87 l97 -70 l129 70 Z" /><glyph glyph-name="uni01D0" unicode="&#x1d0;" d="M81 467 l231 0 l-57 -467 l-231 0 l57 467 ZM334 735 l55 -101 l-187 -101 l-161 115 l67 87 l97 -70 l129 70 Z" /><glyph glyph-name="uni01DD" unicode="&#x1dd;" d="M31 275 l331 0 q10 53 -12 77 q-12 14 -38 14 q-24 0 -39 -14 q-15 -15 -21 -32 l-196 38 q37 63 101 99 q66 37 159 37 q126 0 201 -73 q69 -67 69 -171 q0 -117 -78 -193 q-72 -71 -201 -71 q-137 0 -208 69 q-38 36 -57 94 q-19 58 -11 126 ZM348 174 l-107 0 q-2 -30 15 -47 q13 -13 34 -13 q24 0 37 13 q17 16 21 47 Z" /><glyph glyph-name="Gcaron" unicode="&#x1e6;" d="M418 388 l365 0 l0 -6 q0 -192 -110 -301 q-99 -98 -267 -98 q-79 0 -142 20.5 q-63 20.5 -119 75.5 q-98 96 -98 238 q0 152 102 256 q108 111 294 111 q217 0 319 -169 l-227 -89 q-28 56 -89 56 q-61 0 -102 -38 q-55 -52 -55 -137 q0 -62 38 -102 q35 -36 94 -36 q83 0 107 73 l-130 0 l20 146 ZM572 918 l55 -101 l-187 -101 l-161 115 l67 87 l97 -70 l129 70 Z" /><glyph glyph-name="gcaron" unicode="&#x1e7;" d="M397 467 l228 0 l-52 -421 q-10 -82 -31.5 -128 q-21.5 -46 -65.5 -79 q-88 -68 -221 -68 q-106 0 -213 41 q-10 3 -30 12 l62 152 q82 -50 150 -50 q37 0 67 15.5 q30 15.5 44 41.5 q13 26 28 100 l-7 2 q-22 -48 -53 -68 q-31 -20 -83 -20 q-83 0 -138 63 q-55 63 -55 158 q0 111 66.5 188 q66.5 77 162.5 77 q103 0 138 -95 l7 2 l-2 27 l-1 34 l-1 16 ZM312 163 q28 0 46.5 19.5 q18.5 19.5 18.5 49.5 q0 29 -15.5 47.5 q-15.5 18.5 -39.5 18.5 q-28 0 -47.5 -21.5 q-19.5 -21.5 -19.5 -51.5 q0 -28 16 -45 q16 -17 41 -17 ZM483 735 l55 -101 l-187 -101 l-161 115 l67 87 l97 -70 l129 70 Z" /><glyph glyph-name="AEacute" unicode="&#x1fc;" d="M289 667 l478 0 l31 -175 l-203 0 l12 -71 l204 0 l29 -170 l-203 0 l13 -70 l203 0 l32 -181 l-446 0 l-4 88 l-165 0 l-32 -88 l-259 0 l310 667 ZM375 370 l-48 -131 l93 0 l-12 131 q-1 9 -1 32 q0 25 4 57 l-11 2 q-8 -45 -25 -91 ZM436 779 l127 137 l117 -73 l-157 -119 l-87 55 Z" /><glyph glyph-name="aeacute" unicode="&#x1fd;" d="M913 203 l-331 0 q-1 -5 -1 -16 q0 -28 14.5 -45 q14.5 -17 37.5 -17 q21 0 34 11 q9 9 16 27 l222 0 q-25 -80 -95 -127 q-72 -49 -172 -49 q-132 0 -208 73 q-39 -41 -83 -57 q-43 -16 -110 -16 q-102 0 -158 43 q-60 46 -60 124 q0 62 44 104 q53 51 153 51 q49 0 85 -14 q39 -16 63 -41 q3 15 3 31 q0 43 -38 66 q-31 19 -89 19 q-88 0 -178 -46 l17 133 q84 36 180 36 q130 0 191 -67 q70 67 194 67 q127 0 203 -78 q70 -73 70 -171 q0 -22 -4 -41 ZM295 97 q34 0 55 14 q23 15 23 40 q0 24 -20 38 q-20 14 -60 14 q-38 0 -56 -13 q-20 -15 -20 -40 q0 -24 21 -39 q19 -14 57 -14 ZM592 299 l108 0 q0 25 -13 43.5 q-13 18.5 -37 18.5 q-24 0 -40 -17.5 q-16 -17.5 -18 -44.5 ZM403 596 l116 146 l117 -73 l-146 -128 l-87 55 Z" /><glyph glyph-name="Scommaaccent" unicode="&#x218;" d="M556 636 q24 -12 42 -22 l-89 -177 q-66 60 -146 60 q-20 0 -33 -10 q-13 -10 -13 -25 q0 -16 13.5 -24 q13.5 -8 59.5 -19 q73 -19 108 -44 q34 -22 53.5 -62.5 q19.5 -40.5 19.5 -86.5 q0 -101 -85 -172 q-85 -71 -206 -71 q-98 0 -202 48 q-44 22 -62 32 l90 180 q30 -37 75 -58 q45 -21 92 -21 q26 0 41 10.5 q15 10.5 15 28.5 q0 33 -63 47 q-62 12 -95 30 q-96 47 -96 164 q0 100 80 169.5 q80 69.5 194 69.5 q105 0 207 -47 ZM397 -62 l-125 -212 l-155 0 l84 212 l196 0 Z" /><glyph glyph-name="scommaaccent" unicode="&#x219;" d="M271 493 q91 0 198 -42 l-57 -141 q-53 39 -108 39 q-40 0 -40 -24 q0 -20 27 -26 l42 -10 q52 -11 82 -45.5 q30 -34.5 30 -82.5 q0 -77 -64.5 -125.5 q-64.5 -48.5 -165.5 -48.5 q-78 0 -167 34 q-6 3 -22 9.5 q-16 6.5 -26 10.5 l56 141 q74 -49 137 -49 q37 0 37 25 q0 24 -52 36 q-70 16 -98.5 43.5 q-28.5 27.5 -28.5 78.5 q0 77 62.5 127 q62.5 50 157.5 50 ZM327 -62 l-125 -212 l-155 0 l84 212 l196 0 Z" /><glyph glyph-name="Tcommaaccent" unicode="&#x21a;" d="M60 667 l476 0 l-26 -210 l-115 7 l-57 -464 l-245 0 l57 464 l-115 -7 l25 210 ZM319 -62 l-125 -212 l-155 0 l84 212 l196 0 Z" /><glyph glyph-name="tcommaaccent" unicode="&#x21b;" d="M362 288 l-56 6 l-36 -294 l-231 0 l36 294 l-60 -6 l23 183 l57 -10 l21 164 l231 0 l-20 -164 l57 6 l-22 -179 ZM247 -62 l-125 -212 l-155 0 l84 212 l196 0 Z" /><glyph glyph-name="uni0228" unicode="&#x228;" d="M121 667 l438 0 l-21 -174 l-197 0 l-9 -73 l180 0 l-20 -165 l-180 0 l-9 -76 l204 0 l-22 -179 l-446 0 l82 667 ZM103 -190 l152 147 l116 -82 l-158 -143 l-110 78 Z" /><glyph glyph-name="uni0229" unicode="&#x229;" d="M587 202 l-331 0 q-1 -6 -1 -17 q0 -29 14 -46 q14 -17 37 -17 q34 0 50 40 l222 0 q-14 -40 -27 -61 q-13 -21 -38 -43 q-82 -71 -205 -71 q-125 0 -202.5 67 q-77.5 67 -77.5 175 q0 113 82.5 189 q82.5 76 205.5 76 q116 0 195.5 -70.5 q79.5 -70.5 79.5 -173.5 q0 -6 -4 -48 ZM322 360 q-47 0 -57 -62 l108 0 q-1 62 -51 62 ZM165 -180 l134 135 l106 -76 l-140 -129 l-100 70 Z" /><glyph glyph-name="uni0237" unicode="&#x237;" d="M86 467 l231 0 l-85 -696 l-231 0 l85 696 Z" /><glyph glyph-name="uni0259" unicode="&#x259;" d="M31 275 l331 0 q10 53 -12 77 q-12 14 -38 14 q-24 0 -39 -14 q-15 -15 -21 -32 l-196 38 q37 63 101 99 q66 37 159 37 q126 0 201 -73 q69 -67 69 -171 q0 -117 -78 -193 q-72 -71 -201 -71 q-137 0 -208 69 q-38 36 -57 94 q-19 58 -11 126 ZM348 174 l-107 0 q-2 -30 15 -47 q13 -13 34 -13 q24 0 37 13 q17 16 21 47 Z" /><glyph glyph-name="afii57929" unicode="&#x2bc;" d="M426 667 l-126 -218 l-152 0 l85 218 l193 0 Z" /><glyph glyph-name="circumflex" unicode="&#x2c6;" d="M180 533 l-55 101 l187 101 l161 -115 l-66 -87 l-98 70 l-129 -70 Z" /><glyph glyph-name="caron" unicode="&#x2c7;" d="M418 735 l55 -101 l-187 -101 l-161 115 l67 87 l97 -70 l129 70 Z" /><glyph glyph-name="uni02C9" unicode="&#x2c9;" d="M458 546 l-340 0 l12 100 l340 0 l-12 -100 Z" /><glyph glyph-name="breve" unicode="&#x2d8;" d="M382 691 l102 0 q-11 -61 -53 -103 q-49 -49 -134 -49 q-69 0 -111 31 q-54 39 -56 121 l102 0 q4 -26 19 -40 q16 -16 52 -16 q31 0 51 15 q20 15 28 41 Z" /><glyph glyph-name="dotaccent" unicode="&#x2d9;" d="M198 642 q0 43 30 73 q30 30 73 30 q42 0 72 -30 q30 -30 30 -73 q0 -42 -30 -72 q-30 -30 -72 -30 q-43 0 -73 30 q-30 30 -30 72 Z" /><glyph glyph-name="ring" unicode="&#x2da;" d="M434 645 q0 -51 -40 -81 q-36 -28 -104 -28 q-68 0 -103 27 q-41 31 -41 82 q0 49 40 80 q36 28 104 28 q69 0 104 -28 q40 -32 40 -80 ZM290 679 q-22 0 -35 -8 q-15 -10 -15 -28 q0 -16 15 -25 q13 -8 35 -8 q22 0 36 8 q14 8 14 27 q0 16 -14 26 q-13 8 -36 8 Z" /><glyph glyph-name="ogonek" unicode="&#x2db;" d="M318 0 q-29 -23 -36 -31 q-18 -20 -18 -40 q0 -12 9 -20 q9 -8 27 -8 q29 0 55 23 l-29 -87 q-37 -21 -87 -21 q-46 0 -69 23 q-19 17 -19 49 q0 42 35 75 q20 18 50 37 l82 0 Z" /><glyph glyph-name="tilde" unicode="&#x2dc;" d="M389 673 l74 -38 q-48 -91 -109 -91 q-22 0 -57 17 q-22 11 -37 11 q-27 0 -46 -32 l-77 40 q38 50 63.5 68.5 q25.5 18.5 53.5 18.5 q22 0 52 -13 l23 -10 q13 -5 20 -5 q17 0 34 25 l6 9 Z" /><glyph glyph-name="hungarumlaut" unicode="&#x2dd;" d="M110 596 l100 146 l112 -73 l-133 -128 l-79 55 ZM314 596 l100 146 l111 -73 l-132 -128 l-79 55 Z" /><glyph glyph-name="acutecomb" unicode="&#x301;" d="M-141 641 l-149 -108 l-75 70 l127 120 l97 -82 Z" /><glyph glyph-name="Delta" unicode="&#x394;&#x2206;" d="M622 0 l-634 0 l245 667 l141 0 l248 -667 ZM304 508 l-130 -390 l260 0 l-130 390 Z" /><glyph glyph-name="Omega" unicode="&#x3a9;&#x2126;" d="M294 0 l-271 0 l0 117 l136 0 q-68 43 -99 94 q-37 65 -37 155 q0 137 86.5 227 q86.5 90 218.5 90 q132 0 218.5 -90 q86.5 -90 86.5 -227 q0 -122 -68 -196 q-22 -24 -68 -53 l136 0 l0 -117 l-270 0 l0 104 q37 21 59 42 q22 21 39 50 q36 63 36 156 q0 94 -47.5 154 q-47.5 60 -121.5 60 q-73 0 -121 -60.5 q-48 -60.5 -48 -153.5 q0 -130 69 -200 q28 -28 66 -48 l0 -104 Z" /><glyph glyph-name="pi" unicode="&#x3c0;" d="M352 -1 l-226 0 l0 313 l-78 0 l0 154 l690 0 l0 -154 l-78 0 l0 -313 l-226 0 l0 313 l-82 0 l0 -313 Z" /><glyph glyph-name="afii10023" unicode="&#x401;" d="M121 667 l438 0 l-21 -174 l-197 0 l-9 -73 l180 0 l-20 -165 l-180 0 l-9 -76 l204 0 l-22 -179 l-446 0 l82 667 ZM167 762 q-29 29 -29 71 q0 42 29 71 q29 29 71 29 q42 0 71 -29 q29 -29 29 -71 q0 -42 -29 -71 q-29 -29 -71 -29 q-42 0 -71 29 ZM414 762 q-29 29 -29 71 q0 42 29 71 q29 29 71 29 q42 0 71 -29 q29 -29 29 -71 q0 -42 -29 -71 q-29 -29 -71 -29 q-42 0 -71 29 Z" /><glyph glyph-name="afii10051" unicode="&#x402;" d="M104 0 l56 464 l-120 -6 l25 209 l586 0 l-25 -209 l-224 6 l-10 -88 q63 23 130 23 q115 0 176 -56 q57 -51 57 -142 q0 -99 -61 -158 q-61 -59 -185 -59 q-65 0 -115 16 l49 143 q12 -12 30 -12 q23 0 35 13 q13 14 13 43 q0 23 -15 36 q-18 16 -53 16 q-40 0 -80 -15 l-27 -224 l-242 0 Z" /><glyph glyph-name="afii10052" unicode="&#x403;" d="M121 667 l438 0 l-22 -178 l-196 0 l-60 -489 l-242 0 l82 667 ZM266 779 l127 137 l117 -73 l-157 -119 l-87 55 Z" /><glyph glyph-name="afii10053" unicode="&#x404;" d="M625 247 l-26 -217 q-91 -47 -206 -47 q-164 0 -257 93 q-89 89 -89 234 q0 86 29 156.5 q29 70.5 78 117.5 q103 99 279 99 q139 0 238 -56 l-27 -221 q-33 41 -76 64 q-46 23 -101 23 q-51 0 -90 -23 q-38 -24 -56 -60 l217 0 l-18 -146 l-217 0 q10 -44 48 -67 q39 -24 98 -24 q56 0 101 21 q38 17 75 53 Z" /><glyph glyph-name="afii10054" unicode="&#x405;" d="M556 636 q24 -12 42 -22 l-89 -177 q-66 60 -146 60 q-20 0 -33 -10 q-13 -10 -13 -25 q0 -16 13.5 -24 q13.5 -8 59.5 -19 q73 -19 108 -44 q34 -22 53.5 -62.5 q19.5 -40.5 19.5 -86.5 q0 -101 -85 -172 q-85 -71 -206 -71 q-98 0 -202 48 q-44 22 -62 32 l90 180 q30 -37 75 -58 q45 -21 92 -21 q26 0 41 10.5 q15 10.5 15 28.5 q0 33 -63 47 q-62 12 -95 30 q-96 47 -96 164 q0 100 80 169.5 q80 69.5 194 69.5 q105 0 207 -47 Z" /><glyph glyph-name="afii10055" unicode="&#x406;" d="M121 667 l245 0 l-82 -667 l-245 0 l82 667 Z" /><glyph glyph-name="afii10056" unicode="&#x407;" d="M293 0 l-242 0 l82 667 l242 0 l-82 -667 ZM382 902 q35 0 57 -22 q22 -24 22 -60 q0 -49 -30 -77 q-25 -23 -61 -23 q-35 0 -57 22 q-22 24 -22 60 q0 49 30 77 q25 23 61 23 ZM176 902 q35 0 57 -22 q22 -24 22 -60 q0 -49 -30 -77 q-25 -23 -61 -23 q-35 0 -57 22 q-22 24 -22 60 q0 49 30 77 q25 23 61 23 Z" /><glyph glyph-name="afii10057" unicode="&#x408;" d="M201 667 l242 0 l-57 -467 q-8 -64 -22 -96 q-14 -32 -46 -59 q-72 -62 -173 -62 q-87 0 -179 52 l78 216 q28 -60 67 -60 q19 0 26.5 12.5 q7.5 12.5 12.5 47.5 l51 416 Z" /><glyph glyph-name="afii10058" unicode="&#x409;" d="M759 413 l84 0 q138 0 195 -56 q50 -50 50 -132 q0 -116 -83 -176 q-70 -49 -208 -49 l-328 0 l59 471 l-136 0 l-27 -215 q-16 -126 -85 -195 q-72 -72 -206 -72 q-51 0 -94 8 l22 194 q16 -6 39 -6 q48 0 74 26 q28 28 37 97 l44 359 l594 0 l-31 -254 ZM727 156 l23 0 q50 0 71 10 q29 14 29 50 q0 26 -19 37 q-17 10 -62 10 l-29 0 l-13 -107 Z" /><glyph glyph-name="afii10059" unicode="&#x40a;" d="M744 667 l-31 -254 l84 0 q138 0 195 -56 q50 -50 50 -132 q0 -116 -83 -176 q-70 -49 -208 -49 l-328 0 l32 257 l-144 0 l-30 -257 l-242 0 l82 667 l242 0 l-31 -254 l142 0 l32 254 l238 0 ZM681 156 l23 0 q50 0 71 10 q28 13 28 44 q0 26 -19 37 q-17 10 -62 10 l-28 0 l-13 -101 Z" /><glyph glyph-name="afii10060" unicode="&#x40b;" d="M723 0 l-240 0 l15 131 q4 26 4 40 q0 25 -17 37 q-18 13 -53 13 q-33 0 -61 -6 l-26 -215 l-242 0 l57 464 l-120 -6 l25 209 l586 0 l-25 -209 l-224 6 l-10 -78 q49 12 116 12 q111 0 169 -36 q71 -44 71 -137 q0 -23 -7 -79 l-18 -146 Z" /><glyph glyph-name="afii10061" unicode="&#x40c;" d="M121 667 l242 0 l-22 -173 q-8 -61 -21 -116 l7 -2 q20 51 42 85 l23 37 l106 169 l282 0 l-260 -338 l170 -329 l-255 0 l-85 192 q-23 52 -34 98 l-7 -1 l0 -20 q0 -39 -5 -77 l-23 -192 l-242 0 l82 667 ZM376 779 l127 137 l117 -73 l-157 -119 l-87 55 Z" /><glyph glyph-name="afii10062" unicode="&#x40e;" d="M40 667 l259 0 l72 -188 q15 -39 17 -73 l8 0 q11 43 26 75 l90 186 l263 0 l-389 -667 l-266 0 l87 153 q25 44 53 73 l-220 441 ZM506 904 l138 -50 q-27 -67 -83 -99 q-53 -30 -142 -30 q-84 0 -137 30 q-57 35 -80 99 l144 50 q4 -32 23 -48 q18 -15 51 -15 q33 0 53 13 q25 16 33 50 Z" /><glyph glyph-name="afii10145" unicode="&#x40f;" d="M39 0 l82 667 l242 0 l-58 -471 l142 0 l58 471 l243 0 l-82 -667 l-212 0 l-19 -149 l-206 0 l20 149 l-210 0 Z" /><glyph glyph-name="afii10017" unicode="&#x410;" d="M428 89 l-164 0 l-32 -89 l-260 0 l308 667 l276 0 l124 -667 l-247 0 l-5 89 ZM365 362 l-45 -121 l92 0 l-10 121 q-2 22 -2 47 q0 20 3 53 l-8 0 q-13 -55 -30 -100 Z" /><glyph glyph-name="afii10018" unicode="&#x411;" d="M121 667 l518 0 l-20 -178 l-287 0 l-10 -76 l80 0 q136 0 195 -56 q50 -48 50 -134 q0 -117 -83 -174 q-70 -49 -208 -49 l-317 0 l82 667 ZM291 156 l23 0 q50 0 71 10 q29 14 29 51 q0 24 -19 36 q-17 10 -62 10 l-29 0 l-13 -107 Z" /><glyph glyph-name="afii10019" unicode="&#x412;" d="M530 348 l1 -6 q52 -11 80.5 -48.5 q28.5 -37.5 28.5 -94.5 q0 -88 -64 -143.5 q-64 -55.5 -163 -55.5 l-374 0 l82 667 l299 0 q156 0 204 -98 q17 -37 17 -72 q0 -59 -29 -98 q-29 -39 -82 -51 ZM367 507 l-34 0 l-12 -96 l21 0 q39 0 57 12 q18 12 18 40 q0 44 -50 44 ZM345 271 l-41 0 l-14 -115 l16 0 q54 0 78 15.5 q24 15.5 24 53.5 q0 46 -63 46 Z" /><glyph glyph-name="afii10020" unicode="&#x413;" d="M121 667 l438 0 l-22 -178 l-196 0 l-60 -489 l-242 0 l82 667 Z" /><glyph glyph-name="afii10021" unicode="&#x414;" d="M201 667 l577 0 l-58 -471 l80 0 l-40 -329 l-204 0 l16 133 l-382 0 l-16 -133 l-204 0 l40 329 q62 -1 101 36 q42 41 58 173 l32 262 ZM396 474 l-16 -126 q-7 -61 -27 -97 q-21 -37 -56 -56 l0 -3 l185 0 l34 282 l-120 0 Z" /><glyph glyph-name="afii10022" unicode="&#x415;" d="M121 667 l438 0 l-21 -174 l-197 0 l-9 -73 l180 0 l-20 -165 l-180 0 l-9 -76 l204 0 l-22 -179 l-446 0 l82 667 Z" /><glyph glyph-name="afii10024" unicode="&#x416;" d="M388 0 l23 192 q0 7 17 97 l-8 1 q-24 -52 -55 -98 l-133 -192 l-247 0 l248 356 l-150 311 l250 0 l75 -197 q7 -17 12 -40.5 q5 -23.5 7 -37 q2 -13.5 2 -16.5 l10 2 q2 28 2.5 41.5 q0.5 13.5 0.5 15.5 q1 18 6 59 l22 173 l230 0 l-23 -173 q-9 -71 -21 -116 l10 -2 q14 44 39 85 l129 206 l259 0 l-242 -320 l163 -347 l-243 0 l-85 192 q-23 54 -31 98 l-10 -1 q0 -45 -5 -97 l-22 -192 l-230 0 Z" /><glyph glyph-name="afii10025" unicode="&#x417;" d="M144 437 l-56 178 q141 68 265 68 q114 0 183 -49 q77 -53 77 -144 q0 -63 -42 -105 q-24 -23 -64 -37 l-1 -6 q39 -10 66 -37 q37 -37 37 -95 q0 -116 -97 -178 q-77 -49 -199 -49 q-96 0 -177 27 q-60 21 -120 55 l85 180 q34 -38 76 -58 q46 -22 93 -22 q38 0 57 9 q28 12 28 39 q0 22 -25 32 q-18 7 -56 7 l-85 0 l20 162 l67 0 q44 0 67 9 q27 11 27 35 q0 19 -22 30 q-19 9 -49 9 q-40 0 -87 -20 q-31 -13 -68 -40 Z" /><glyph glyph-name="afii10026" unicode="&#x418;" d="M121 667 l238 0 l-26 -204 q-10 -78 -32 -140 l10 -5 q33 64 73 120 l166 229 l221 0 l-82 -667 l-238 0 l21 172 q8 68 32 153 l-10 2 q-26 -51 -75 -117 l-159 -210 l-221 0 l82 667 Z" /><glyph glyph-name="afii10027" unicode="&#x419;" d="M121 667 l238 0 l-26 -204 q-10 -78 -32 -140 l10 -5 q33 64 73 120 l166 229 l221 0 l-82 -667 l-238 0 l21 172 q8 68 32 153 l-10 2 q-26 -51 -75 -117 l-159 -210 l-221 0 l82 667 ZM554 904 l138 -50 q-27 -67 -83 -99 q-53 -30 -142 -30 q-84 0 -137 30 q-57 35 -80 99 l144 50 q4 -32 23 -48 q18 -15 51 -15 q33 0 53 13 q25 16 33 50 Z" /><glyph glyph-name="afii10028" unicode="&#x41a;" d="M121 667 l242 0 l-22 -173 q-8 -61 -21 -116 l7 -2 q20 51 42 85 l23 37 l106 169 l282 0 l-260 -338 l170 -329 l-255 0 l-85 192 q-23 52 -34 98 l-7 -1 l0 -20 q0 -39 -5 -77 l-23 -192 l-242 0 l82 667 Z" /><glyph glyph-name="afii10029" unicode="&#x41b;" d="M186 667 l598 0 l-82 -667 l-242 0 l58 471 l-136 0 l-27 -215 q-16 -126 -85 -195 q-72 -72 -206 -72 q-51 0 -94 8 l22 194 q16 -6 39 -6 q48 0 74 26 q28 28 37 97 l44 359 Z" /><glyph glyph-name="afii10030" unicode="&#x41c;" d="M623 667 l255 0 l2 -667 l-235 0 l13 197 q5 86 23 185 l-9 2 l-5 -19 q-21 -85 -54 -163 l-85 -202 l-152 0 l-26 211 q-1 3 -5 50 q-3 37 -3 60 l0 13 q0 27 2 50 l-8 0 l-2 -15 q-10 -81 -28 -158 l-49 -211 l-245 0 l194 667 l256 0 l26 -208 q5 -40 5 -74 q0 -38 -6 -73 l10 0 q16 84 59 190 l67 165 Z" /><glyph glyph-name="afii10031" unicode="&#x41d;" d="M505 667 l242 0 l-82 -667 l-242 0 l30 243 l-143 0 l-29 -243 l-242 0 l82 667 l242 0 l-28 -228 l142 0 l28 228 Z" /><glyph glyph-name="afii10032" unicode="&#x41e;" d="M675 591 q111 -91 111 -252 q0 -152 -104.5 -254 q-104.5 -102 -260.5 -102 q-158 0 -265.5 98 q-107.5 98 -107.5 243 q0 151 106.5 255 q106.5 104 261.5 104 q150 0 259 -92 ZM410 193 q57 0 94.5 40.5 q37.5 40.5 37.5 101.5 q0 53 -34 90 q-34 37 -84 37 q-55 0 -93.5 -41 q-38.5 -41 -38.5 -99 q0 -56 33.5 -92.5 q33.5 -36.5 84.5 -36.5 Z" /><glyph glyph-name="afii10033" unicode="&#x41f;" d="M665 0 l-242 0 l58 471 l-143 0 l-57 -471 l-242 0 l82 667 l626 0 l-82 -667 Z" /><glyph glyph-name="afii10034" unicode="&#x420;" d="M398 203 l-92 0 l-25 -203 l-242 0 l82 667 l278 0 q127 0 192 -51 q84 -67 84 -177 q0 -47 -19 -92.5 q-19 -45.5 -51 -77.5 q-37 -35 -85 -50.5 q-48 -15.5 -122 -15.5 ZM366 493 l-25 0 l-15 -124 l22 0 q92 0 92 71 q0 29 -16.5 41 q-16.5 12 -57.5 12 Z" /><glyph glyph-name="afii10035" unicode="&#x421;" d="M415 683 q87 0 173 -31 l-20 -237 q-65 52 -133 52 q-60 0 -103.5 -44 q-43.5 -44 -43.5 -104 q0 -51 37 -85.5 q37 -34.5 92 -34.5 q71 0 131 57 l-29 -243 q-89 -30 -152 -30 q-139 0 -229.5 94 q-90.5 94 -90.5 237 q0 159 105 264 q105 105 263 105 Z" /><glyph glyph-name="afii10036" unicode="&#x422;" d="M60 667 l476 0 l-26 -210 l-115 7 l-57 -464 l-245 0 l57 464 l-115 -7 l25 210 Z" /><glyph glyph-name="afii10037" unicode="&#x423;" d="M40 667 l259 0 l72 -188 q15 -39 17 -73 l8 0 q11 43 26 75 l90 186 l263 0 l-389 -667 l-266 0 l87 153 q25 44 53 73 l-220 441 Z" /><glyph glyph-name="afii10038" unicode="&#x424;" d="M316 0 l13 98 q-142 0 -220 73 q-69 64 -69 169 q0 122 73 205 q90 101 282 101 l12 98 l240 0 l-12 -98 q138 0 216 -72 q73 -65 73 -187 q0 -59 -19.5 -114 q-19.5 -55 -54.5 -90 q-85 -85 -282 -85 l-12 -98 l-240 0 ZM592 464 l-23 -184 l5 0 q57 0 90 25 q34 27 34 78 q0 40 -28 62 q-25 19 -73 19 l-5 0 ZM394 464 l-6 0 q-57 0 -87 -22 q-36 -27 -36 -78 q0 -41 27 -64 q23 -20 73 -20 l6 0 l23 184 Z" /><glyph glyph-name="afii10039" unicode="&#x425;" d="M765 667 l-253 -321 l200 -346 l-261 0 l-51 109 q-16 33 -27 76 l-8 0 q-9 -31 -22 -52 l-14 -24 l-64 -109 l-293 0 l278 356 l-181 311 l273 0 l32 -84 q17 -43 20 -68 l6 0 q11 33 32 73 l41 79 l292 0 Z" /><glyph glyph-name="afii10040" unicode="&#x426;" d="M39 0 l82 667 l242 0 l-58 -471 l142 0 l58 471 l243 0 l-58 -471 l105 0 l-39 -329 l-206 0 l16 133 l-527 0 Z" /><glyph glyph-name="afii10041" unicode="&#x427;" d="M387 0 l29 233 q-49 -12 -116 -12 q-115 0 -170 36 q-70 46 -70 137 q0 3 4 51 l27 222 l240 0 l-21 -172 q-5 -15 -3.5 -36 q1.5 -21 17.5 -33 q17 -13 53 -13 q30 0 62 6 l30 248 l242 0 l-82 -667 l-242 0 Z" /><glyph glyph-name="afii10042" unicode="&#x428;" d="M39 0 l82 667 l238 0 l-58 -471 l120 0 l58 471 l238 0 l-58 -471 l120 0 l58 471 l238 0 l-82 -667 l-954 0 Z" /><glyph glyph-name="afii10043" unicode="&#x429;" d="M121 667 l238 0 l-58 -471 l120 0 l58 471 l238 0 l-58 -471 l120 0 l58 471 l238 0 l-59 -471 l115 0 l-39 -329 l-206 0 l16 133 l-863 0 l82 667 Z" /><glyph glyph-name="afii10044" unicode="&#x42a;" d="M109 0 l57 464 l-121 -7 l26 210 l363 0 l-31 -254 l84 0 q138 0 195 -56 q50 -50 50 -132 q0 -116 -83 -176 q-70 -49 -208 -49 l-332 0 ZM371 156 l23 0 q50 0 71 10 q29 14 29 50 q0 26 -19 37 q-17 10 -62 10 l-29 0 l-13 -107 Z" /><glyph glyph-name="afii10045" unicode="&#x42b;" d="M912 0 l-242 0 l82 667 l242 0 l-82 -667 ZM39 0 l83 667 l242 0 l-31 -254 l78 0 q138 0 195 -56 q50 -48 50 -134 q0 -116 -83 -175 q-68 -48 -208 -48 l-326 0 ZM301 156 l23 0 q50 0 71 10 q29 14 29 50 q0 26 -19 37 q-17 10 -62 10 l-29 0 l-13 -107 Z" /><glyph glyph-name="afii10046" unicode="&#x42c;" d="M39 0 l83 667 l242 0 l-31 -254 l84 0 q138 0 195 -56 q50 -50 50 -132 q0 -116 -83 -176 q-70 -49 -208 -49 l-332 0 ZM301 156 l23 0 q50 0 71 10 q29 14 29 50 q0 26 -19 37 q-17 10 -62 10 l-29 0 l-13 -107 Z" /><glyph glyph-name="afii10047" unicode="&#x42d;" d="M30 38 l26 211 q29 -31 72 -53 q46 -23 103 -23 q60 0 96 19 q44 23 60 72 l-219 0 l18 146 l217 0 q-14 41 -51 62 q-36 21 -93 21 q-60 0 -108 -26 q-40 -21 -75 -56 l28 222 q99 50 205 50 q160 0 251 -89 q88 -86 88 -235 q0 -175 -110 -280 q-100 -96 -271 -96 q-131 0 -237 55 Z" /><glyph glyph-name="afii10048" unicode="&#x42e;" d="M335 439 l81 0 q29 102 107 166 q96 78 230 78 q82 0 155.5 -29.5 q73.5 -29.5 123.5 -81.5 q89 -93 89 -233 q0 -149 -103 -252 q-104 -104 -275 -104 q-129 0 -220 62 q-104 71 -123 198 l-90 0 l-29 -243 l-242 0 l82 667 l242 0 l-28 -228 ZM745 193 q55 0 90 35 q19 19 30.5 49 q11.5 30 11.5 58 q0 57 -37 94 q-33 33 -81 33 q-54 0 -92 -40 q-40 -40 -40 -100 q0 -64 41 -100 q32 -29 77 -29 Z" /><glyph glyph-name="afii10049" unicode="&#x42f;" d="M25 0 l181 251 q-45 8 -79 43 q-47 48 -47 124 q0 52 18 98 q18 46 48 76 q75 75 240 75 l308 0 l-82 -667 l-242 0 l17 141 q5 38 21 104 l-7 1 q-10 -54 -35 -99 l-83 -147 l-258 0 ZM417 376 l14 117 l-41 0 q-39 0 -58 -18 q-19 -19 -19 -51 q0 -24 20 -37 q18 -11 50 -11 l34 0 Z" /><glyph glyph-name="afii10065" unicode="&#x430;" d="M403 467 l230 0 l-58 -467 l-229 0 q7 30 25 83 l-7 3 q-30 -53 -64 -76 q-34 -23 -80 -23 q-79 0 -137 65 q-58 65 -58 153 q0 111 70.5 194.5 q70.5 83.5 163.5 83.5 q56 0 88.5 -23 q32.5 -23 52.5 -77 l8 3 q-5 41 -5 71 l0 10 ZM316 164 q28 0 46.5 21 q18.5 21 18.5 53 q0 26 -15.5 43.5 q-15.5 17.5 -39.5 17.5 q-27 0 -47 -22.5 q-20 -22.5 -20 -53.5 q0 -26 16 -42.5 q16 -16.5 41 -16.5 Z" /><glyph glyph-name="afii10066" unicode="&#x431;" d="M208 375 l8 -1 q25 45 62 65 q44 26 108 26 q117 0 181 -66 q59 -59 59 -155 q0 -105 -69 -176 q-80 -81 -226 -81 q-138 0 -212 75 q-79 81 -79 227 q0 78 26 161.5 q26 83.5 78 135.5 q38 39 89.5 59.5 q51.5 20.5 131.5 35.5 q34 6 47.5 9 q13.5 3 29 9 q15.5 6 24.5 14 q13 11 14 27 l180 0 q-11 -72 -60 -121 q-47 -47 -142 -73 l-67 -18 q-2 0 -18.5 -4.5 q-16.5 -4.5 -21.5 -6 q-5 -1.5 -19.5 -6 q-14.5 -4.5 -22.5 -8 q-8 -3.5 -19.5 -9 q-11.5 -5.5 -20 -12 q-8.5 -6.5 -16.5 -13.5 q-36 -34 -45 -94 ZM332 169 q25 0 41 16 q23 23 23 59 q0 33 -20 51 q-17 15 -38 15 q-26 0 -43 -17 q-23 -23 -23 -58 q0 -30 21 -51 q17 -15 39 -15 Z" /><glyph glyph-name="afii10067" unicode="&#x432;" d="M77 467 l329 0 q85 0 123 -35 q35 -31 35 -86 q0 -46 -26 -74 q-25 -27 -62 -32 l0 -4 q38 -6 63 -30 q28 -27 28 -72 q0 -66 -49 -103 q-42 -31 -126 -31 l-372 0 l57 467 ZM276 279 l33 0 q26 0 39 11 q13 11 13 32 q0 21 -14 29 q-10 6 -32 6 l-30 0 l-9 -78 ZM255 110 l37 0 q27 0 40 10 q16 11 16 35 q0 19 -12 28 q-11 8 -34 8 l-37 0 l-10 -81 Z" /><glyph glyph-name="afii10068" unicode="&#x433;" d="M20 0 l57 467 l393 0 l-21 -174 l-161 0 l-36 -293 l-232 0 Z" /><glyph glyph-name="afii10069" unicode="&#x434;" d="M152 467 l495 0 l-39 -317 l67 0 l-34 -281 l-174 0 l16 131 l-322 0 l-17 -131 l-174 0 l35 281 l5 0 q39 0 68 22 q19 14 31 39.5 q12 25.5 16 45 q4 19.5 8 52.5 l19 158 ZM392 150 l21 167 l-78 0 l-8 -70 q-4 -36 -17 -59 q-15 -27 -44 -38 l126 0 Z" /><glyph glyph-name="afii10070" unicode="&#x435;" d="M587 202 l-331 0 q-1 -6 -1 -17 q0 -29 14 -46 q14 -17 37 -17 q34 0 50 40 l222 0 q-14 -40 -27 -61 q-13 -21 -38 -43 q-82 -71 -205 -71 q-125 0 -202.5 67 q-77.5 67 -77.5 175 q0 113 82.5 189 q82.5 76 205.5 76 q116 0 195.5 -70.5 q79.5 -70.5 79.5 -173.5 q0 -6 -4 -48 ZM322 360 q-47 0 -57 -62 l108 0 q-1 62 -51 62 Z" /><glyph glyph-name="afii10072" unicode="&#x436;" d="M336 0 l13 108 q7 60 25 96 l-9 1 q-28 -57 -68 -114 l-64 -91 l-248 0 l191 247 l-130 220 l253 0 l37 -84 q2 -4 6.5 -13.5 q4.5 -9.5 6.5 -14.5 q2 -5 5.5 -16 q3.5 -11 7.5 -26.5 q4 -15.5 9 -38.5 l7 1 q5 115 8 136 l7 56 l220 0 l-6 -56 q-8 -69 -24 -136 l7 -1 q18 46 61 109 l57 84 l267 0 l-201 -241 l134 -226 l-248 0 l-42 91 q-30 65 -40 114 l-9 -1 q7 -43 1 -96 l-14 -108 l-220 0 Z" /><glyph glyph-name="afii10073" unicode="&#x437;" d="M94 303 l-40 142 q102 48 216 48 q110 0 166 -34 q67 -40 67 -115 q0 -41 -26 -68 q-21 -22 -53 -31 l1 -9 q31 -6 52 -27 q24 -24 24 -62 q0 -58 -43 -100 q-61 -60 -208 -60 q-131 0 -240 55 l56 144 q25 -23 60 -37 q38 -16 78 -16 q41 0 58 12 q11 8 11 22 q0 18 -20 24 q-12 4 -53 4 l-46 0 l14 100 l50 0 q35 0 51 4 q23 6 23 26 q0 14 -18 22 q-16 6 -48 6 q-37 0 -72 -14 q-31 -13 -60 -36 Z" /><glyph glyph-name="afii10074" unicode="&#x438;" d="M77 467 l228 0 l-20 -146 q-6 -49 -25 -91 l11 -4 q12 27 33 59 l124 182 l227 0 l-57 -467 l-228 0 l19 140 q6 48 19 92 l-10 4 q-15 -30 -42 -70 l-109 -166 l-227 0 l57 467 Z" /><glyph glyph-name="afii10075" unicode="&#x439;" d="M77 467 l228 0 l-20 -146 q-6 -49 -25 -91 l11 -4 q12 27 33 59 l124 182 l227 0 l-57 -467 l-228 0 l19 140 q6 48 19 92 l-10 4 q-15 -30 -42 -70 l-109 -166 l-227 0 l57 467 ZM462 695 l134 -51 q-24 -61 -80 -93 q-49 -28 -128 -28 q-88 0 -139 29 q-54 31 -73 92 l145 51 q5 -31 19 -46 q16 -16 46 -16 q33 0 50 16 q19 17 26 46 Z" /><glyph glyph-name="afii10076" unicode="&#x43a;" d="M78 467 l231 0 l-7 -56 q-7 -65 -24 -136 l7 -1 q18 46 61 109 l57 84 l267 0 l-201 -241 l134 -226 l-248 0 l-42 91 q-30 65 -40 114 l-9 -1 q7 -43 1 -96 l-14 -108 l-231 0 l58 467 Z" /><glyph glyph-name="afii10077" unicode="&#x43b;" d="M643 467 l-57 -467 l-232 0 l37 299 l-74 0 l-18 -130 q-9 -71 -62 -118 q-63 -57 -175 -57 q-38 0 -82 6 l21 170 q49 -10 77 15 q26 22 33 90 l22 192 l510 0 Z" /><glyph glyph-name="afii10078" unicode="&#x43c;" d="M10 0 l132 467 l255 0 l32 -186 q7 -33 3 -74 l10 0 q6 30 22 73 l75 187 l255 0 l18 -467 l-218 0 l-6 175 q-1 26 6 66 l-10 0 q-21 -78 -30 -96 l-66 -145 l-150 0 l-29 143 q-6 30 -6 99 l-10 0 q-5 -33 -17 -76 l-48 -166 l-218 0 Z" /><glyph glyph-name="afii10079" unicode="&#x43d;" d="M20 0 l57 467 l232 0 l-18 -144 l74 0 l18 144 l232 0 l-57 -467 l-232 0 l19 155 l-74 0 l-19 -155 l-232 0 Z" /><glyph glyph-name="afii10080" unicode="&#x43e;" d="M329 493 q135 0 213 -78 q69 -67 69 -171 q0 -102 -71 -174 q-81 -83 -216 -83 q-141 0 -223 80 q-72 69 -72 169 q0 101 69 172 q40 40 101 62.5 q61 22.5 130 22.5 ZM318 169 q25 0 41 16 q23 23 23 59 q0 33 -20 51 q-17 15 -38 15 q-26 0 -43 -17 q-23 -23 -23 -58 q0 -30 21 -51 q17 -15 39 -15 Z" /><glyph glyph-name="afii10081" unicode="&#x43f;" d="M20 0 l57 467 l538 0 l-57 -467 l-232 0 l37 299 l-74 0 l-37 -299 l-232 0 Z" /><glyph glyph-name="afii10082" unicode="&#x440;" d="M82 467 l232 0 q-8 -38 -19 -71 l9 -4 q28 51 57 71.5 q29 20.5 74 20.5 q77 0 131 -68 q54 -68 54 -165 q0 -106 -64 -185 q-64 -79 -150 -79 q-113 0 -146 96 l-8 -3 q3 -41 3 -57 q0 -30 -5 -77 l-22 -175 l-232 0 l86 696 ZM331 163 q27 0 44 21 q17 21 17 54 q0 28 -15.5 46 q-15.5 18 -38.5 18 q-25 0 -43.5 -22.5 q-18.5 -22.5 -18.5 -54.5 q0 -28 15 -45 q15 -17 40 -17 Z" /><glyph glyph-name="afii10083" unicode="&#x441;" d="M300 493 q59 0 139 -26 l-29 -196 q-36 42 -82 42 q-33 0 -53 -22 q-20 -22 -20 -58 q0 -32 18 -50.5 q18 -18.5 50 -18.5 q41 0 78 33 l-34 -192 q-60 -18 -105 -18 q-104 0 -169.5 65 q-65.5 65 -65.5 168 q0 122 75.5 197.5 q75.5 75.5 197.5 75.5 Z" /><glyph glyph-name="afii10084" unicode="&#x442;" d="M95 0 l36 293 l-106 -6 l22 180 l442 0 l-22 -180 l-104 6 l-36 -293 l-232 0 Z" /><glyph glyph-name="afii10085" unicode="&#x443;" d="M381 467 l249 0 l-363 -696 l-248 0 l88 169 q35 61 65 96 l-141 431 l238 0 l20 -130 q7 -43 7 -75 q0 -24 -2 -48 l10 -1 q15 78 34 131 l43 123 Z" /><glyph glyph-name="afii10086" unicode="&#x444;" d="M238 -229 l27 222 l-4 0 q-102 0 -166 52 q-71 58 -71 163 q0 122 75 192 q38 35 97 54.5 q59 19.5 126 19.5 l2 0 l25 203 l221 0 l-25 -203 q111 -2 179 -67 q62 -58 62 -154 q0 -117 -67 -184 q-76 -76 -229 -76 l-4 0 l-27 -222 l-221 0 ZM504 310 l-19 -153 l3 0 q43 0 68 20 q27 22 27 66 q0 30 -21 49 q-21 18 -55 18 l-3 0 ZM325 310 l-3 0 q-41 0 -65 -19 q-30 -25 -30 -67 q0 -33 19 -50 q18 -17 57 -17 l3 0 l19 153 Z" /><glyph glyph-name="afii10087" unicode="&#x445;" d="M374 467 l282 0 l-211 -234 l162 -233 l-255 0 l-20 43 q-15 32 -17 59 l-7 1 q-5 -15 -25 -48 l-35 -55 l-278 0 l217 246 l-155 221 l263 0 l16 -49 q7 -20 9 -44 l9 1 q7 23 18 43 l27 49 Z" /><glyph glyph-name="afii10088" unicode="&#x446;" d="M20 0 l57 467 l232 0 l-37 -299 l72 0 l37 299 l232 0 l-37 -299 l79 0 l-36 -299 l-174 0 l16 131 l-441 0 Z" /><glyph glyph-name="afii10089" unicode="&#x447;" d="M307 0 l17 141 q-46 -10 -94 -10 q-92 0 -138 32 q-60 42 -50 134 l21 170 l227 0 l-15 -126 q-4 -32 9 -42 q9 -8 30 -8 q15 0 29 6 l21 170 l232 0 l-57 -467 l-232 0 Z" /><glyph glyph-name="afii10090" unicode="&#x448;" d="M20 0 l57 467 l218 0 l-37 -299 l74 0 l37 299 l218 0 l-37 -299 l74 0 l37 299 l218 0 l-57 -467 l-802 0 Z" /><glyph glyph-name="afii10091" unicode="&#x449;" d="M20 0 l57 467 l218 0 l-37 -299 l74 0 l37 299 l218 0 l-37 -299 l74 0 l37 299 l218 0 l-37 -299 l87 0 l-37 -299 l-174 0 l17 131 l-715 0 Z" /><glyph glyph-name="afii10092" unicode="&#x44a;" d="M359 311 l115 0 q92 0 134 -39 q42 -36 42 -105 q0 -71 -43 -114 q-53 -53 -174 -53 l-343 0 l35 293 l-100 -6 l22 180 l331 0 l-19 -156 ZM335 116 l36 0 q29 0 43 11 q16 12 16 37 q0 18 -12 27 q-12 8 -36 8 l-37 0 l-10 -83 Z" /><glyph glyph-name="afii10093" unicode="&#x44b;" d="M579 0 l57 467 l228 0 l-57 -467 l-228 0 ZM289 311 l99 0 q92 0 134 -39 q42 -38 42 -107 q0 -67 -43 -112 q-53 -53 -174 -53 l-327 0 l56 467 l232 0 l-19 -156 ZM265 116 l36 0 q29 0 43 11 q16 12 16 37 q0 18 -12 27 q-12 8 -36 8 l-37 0 l-10 -83 Z" /><glyph glyph-name="afii10094" unicode="&#x44c;" d="M289 311 l115 0 q92 0 134 -39 q42 -36 42 -105 q0 -71 -43 -114 q-53 -53 -174 -53 l-343 0 l56 467 l232 0 l-19 -156 ZM265 116 l36 0 q29 0 43 11 q16 12 16 37 q0 18 -12 27 q-12 8 -36 8 l-37 0 l-10 -83 Z" /><glyph glyph-name="afii10095" unicode="&#x44d;" d="M30 29 l19 158 q26 -29 58 -44 q34 -16 74 -16 q45 0 73 17 q26 16 34 43 l-167 0 l13 110 l161 0 q-14 27 -41 42 q-26 13 -60 13 q-40 0 -75 -17 q-34 -16 -56 -38 l20 165 q83 30 160 30 q134 0 203 -69 q65 -65 65 -173 q0 -120 -74 -192 q-72 -70 -212 -70 q-114 0 -195 41 Z" /><glyph glyph-name="afii10096" unicode="&#x44e;" d="M276 318 l63 0 q27 81 96 127 q71 48 169 48 q137 0 215 -78 q67 -67 67 -163 q0 -112 -73 -186 q-78 -79 -227 -79 q-111 0 -175 46 q-64 48 -83 127 l-70 0 l-20 -160 l-218 0 l57 467 l218 0 l-19 -149 ZM593 169 q25 0 41 16 q23 21 23 58 q0 32 -20 52 q-17 15 -38 15 q-26 0 -43 -17 q-23 -23 -23 -58 q0 -30 21 -51 q17 -15 39 -15 Z" /><glyph glyph-name="afii10097" unicode="&#x44f;" d="M10 0 l130 158 q-36 7 -61 32 q-33 34 -33 91 q0 81 50 131 q56 55 179 55 l332 0 l-57 -467 l-230 0 l17 138 l-6 0 l-92 -138 l-229 0 ZM351 250 l11 95 l-31 0 q-34 0 -50 -15 q-15 -13 -15 -39 q0 -19 13 -30 q14 -11 38 -11 l34 0 Z" /><glyph glyph-name="afii10071" unicode="&#x451;" d="M587 202 l-331 0 q-1 -6 -1 -17 q0 -29 14 -46 q14 -17 37 -17 q34 0 50 40 l222 0 q-14 -40 -27 -61 q-13 -21 -38 -43 q-82 -71 -205 -71 q-125 0 -202.5 67 q-77.5 67 -77.5 175 q0 113 82.5 189 q82.5 76 205.5 76 q116 0 195.5 -70.5 q79.5 -70.5 79.5 -173.5 q0 -6 -4 -48 ZM322 360 q-47 0 -57 -62 l108 0 q-1 62 -51 62 ZM100 642 q0 43 30 73 q30 30 72 30 q43 0 73 -30 q30 -30 30 -73 q0 -42 -30 -72 q-30 -30 -73 -30 q-42 0 -72 30 q-30 30 -30 72 ZM347 642 q0 43 30 73 q30 30 72 30 q43 0 73 -30 q30 -30 30 -73 q0 -42 -30 -72 q-30 -30 -73 -30 q-42 0 -72 30 q-30 30 -30 72 Z" /><glyph glyph-name="afii10099" unicode="&#x452;" d="M277 0 l-232 0 l59 482 l-80 0 l15 120 l80 0 l16 127 l232 0 l-16 -127 l165 0 l-15 -120 l-165 0 l-7 -51 q-5 -39 -21 -90 l9 -3 q23 42 58 66 q41 27 92 27 q62 0 105 -41 q42 -41 42 -113 q0 -23 -4 -51 l-29 -234 q-7 -59 -23 -100.5 q-16 -41.5 -55 -73.5 q-59 -48 -168 -48 q-54 0 -101 10 l21 174 q16 -14 39 -14 q26 0 39 13 q13 12 17 44 l23 186 q3 21 3 24 q0 16 -10 25 q-10 8 -24 8 q-17 0 -27 -12 q-11 -13 -17 -61 l-21 -167 Z" /><glyph glyph-name="afii10100" unicode="&#x453;" d="M20 0 l57 467 l393 0 l-21 -174 l-161 0 l-36 -293 l-232 0 ZM196 596 l116 146 l117 -73 l-146 -128 l-87 55 Z" /><glyph glyph-name="afii10101" unicode="&#x454;" d="M474 176 l-19 -153 q-74 -36 -174 -36 q-127 0 -192 68 q-62 66 -62 169 q0 117 72 189 q79 79 233 79 q93 0 176 -36 l-19 -158 q-23 27 -49 40 q-32 16 -71 16 q-41 0 -71 -16 q-25 -15 -40 -41 l165 0 l-13 -110 l-165 0 q9 -29 37 -45 q28 -15 72 -15 q40 0 71 13 q31 15 49 36 Z" /><glyph glyph-name="afii10102" unicode="&#x455;" d="M271 493 q91 0 198 -42 l-57 -141 q-53 39 -108 39 q-40 0 -40 -24 q0 -20 27 -26 l42 -10 q52 -11 82 -45.5 q30 -34.5 30 -82.5 q0 -77 -64.5 -125.5 q-64.5 -48.5 -165.5 -48.5 q-78 0 -167 34 q-6 3 -22 9.5 q-16 6.5 -26 10.5 l56 141 q74 -49 137 -49 q37 0 37 25 q0 24 -52 36 q-70 16 -98.5 43.5 q-28.5 27.5 -28.5 78.5 q0 77 62.5 127 q62.5 50 157.5 50 Z" /><glyph glyph-name="afii10103" unicode="&#x456;" d="M217 747 q52 0 90.5 -32.5 q38.5 -32.5 38.5 -76.5 q0 -47 -38.5 -80 q-38.5 -33 -95.5 -33 q-53 0 -90 31 q-37 31 -37 76 q0 46 39.5 80.5 q39.5 34.5 92.5 34.5 ZM81 467 l231 0 l-57 -467 l-231 0 l57 467 Z" /><glyph glyph-name="afii10104" unicode="&#x457;" d="M286 0 l-227 0 l57 467 l227 0 l-57 -467 ZM357 723 q35 0 57 -22 q22 -24 22 -60 q0 -49 -30 -77 q-25 -23 -61 -23 q-35 0 -57 22 q-22 24 -22 60 q0 49 30 77 q25 23 61 23 ZM159 723 q35 0 57 -22 q22 -24 22 -60 q0 -49 -30 -77 q-25 -23 -61 -23 q-35 0 -57 22 q-22 24 -22 60 q0 49 30 77 q25 23 61 23 Z" /><glyph glyph-name="afii10105" unicode="&#x458;" d="M90 467 l231 0 l-89 -696 l-231 0 l89 696 ZM225 747 q52 0 91 -32.5 q39 -32.5 39 -76.5 q0 -47 -39 -80 q-39 -33 -96 -33 q-53 0 -90 31 q-37 31 -37 76 q0 46 39.5 80.5 q39.5 34.5 92.5 34.5 Z" /><glyph glyph-name="afii10106" unicode="&#x459;" d="M617 311 l114 0 q92 0 134 -39 q42 -36 42 -105 q0 -71 -43 -114 q-53 -53 -174 -53 l-336 0 l37 299 l-74 0 l-18 -130 q-9 -71 -62 -118 q-63 -57 -175 -57 q-38 0 -82 6 l21 170 q49 -10 77 15 q26 22 33 90 l22 192 l502 0 l-18 -156 ZM592 116 l36 0 q29 0 43 11 q16 12 16 37 q0 18 -12 27 q-12 8 -36 8 l-37 0 l-10 -83 Z" /><glyph glyph-name="afii10107" unicode="&#x45a;" d="M594 311 l115 0 q92 0 134 -39 q42 -36 42 -105 q0 -71 -43 -114 q-53 -53 -174 -53 l-343 0 l24 192 l-74 0 l-23 -192 l-232 0 l57 467 l232 0 l-19 -156 l73 0 l18 156 l232 0 l-19 -156 ZM570 116 l36 0 q29 0 43 11 q16 12 16 37 q0 18 -12 27 q-12 8 -36 8 l-37 0 l-10 -83 Z" /><glyph glyph-name="afii10108" unicode="&#x45b;" d="M277 0 l-232 0 l59 482 l-80 0 l15 120 l80 0 l16 127 l232 0 l-16 -127 l165 0 l-15 -120 l-165 0 l-7 -51 q-5 -39 -21 -90 l9 -3 q23 42 58 66 q41 27 92 27 q62 0 105 -41 q42 -41 42 -113 q0 -23 -4 -51 l-28 -226 l-232 0 l23 183 q3 21 3 24 q0 16 -10 25 q-10 8 -24 8 q-17 0 -27 -12 q-11 -13 -17 -61 l-21 -167 Z" /><glyph glyph-name="afii10109" unicode="&#x45c;" d="M78 467 l231 0 l-7 -56 q-7 -65 -24 -136 l7 -1 q18 46 61 109 l57 84 l267 0 l-201 -241 l134 -226 l-248 0 l-42 91 q-30 65 -40 114 l-9 -1 q7 -43 1 -96 l-14 -108 l-231 0 l58 467 ZM281 596 l116 146 l117 -73 l-146 -128 l-87 55 Z" /><glyph glyph-name="afii10110" unicode="&#x45e;" d="M381 467 l249 0 l-363 -696 l-248 0 l88 169 q35 61 65 96 l-141 431 l238 0 l20 -130 q7 -43 7 -75 q0 -24 -2 -48 l10 -1 q15 78 34 131 l43 123 ZM422 695 l134 -51 q-24 -61 -80 -93 q-49 -28 -128 -28 q-88 0 -139 29 q-54 31 -73 92 l145 51 q5 -31 19 -46 q16 -16 46 -16 q33 0 50 16 q19 17 26 46 Z" /><glyph glyph-name="afii10193" unicode="&#x45f;" d="M20 0 l57 467 l232 0 l-37 -299 l74 0 l37 299 l232 0 l-57 -467 l-187 0 l-17 -140 l-166 0 l18 140 l-186 0 Z" /><glyph glyph-name="afii10146" unicode="&#x462;" d="M428 744 l-15 -118 l169 0 l-18 -149 l-169 6 l-9 -82 l82 0 q139 0 195 -56 q50 -50 50 -137 q0 -102 -80 -159 q-70 -49 -208 -49 l-332 0 l61 483 l-114 -6 l19 149 l113 0 l14 118 l242 0 ZM355 156 l23 0 q50 0 71 10 q30 16 30 50 q0 26 -19 37 q-17 10 -62 10 l-29 0 l-14 -107 Z" /><glyph glyph-name="afii10194" unicode="&#x463;" d="M332 291 l113 0 q86 0 132 -39 q42 -36 42 -98 q0 -76 -56 -117 q-52 -37 -143 -37 l-354 0 l44 347 l-85 0 l15 120 l85 0 l23 200 l231 0 l-25 -200 l165 0 l-14 -120 l-166 0 l-7 -56 ZM311 116 l33 0 q29 0 43 11 q16 11 16 31 q0 17 -12 26 q-12 8 -36 8 l-34 0 l-10 -76 Z" /><glyph glyph-name="afii10147" unicode="&#x472;" d="M315 395 l218 0 q-9 38 -38 59 q-28 21 -69 21 q-42 0 -70 -21 q-30 -21 -41 -59 ZM531 287 l-229 0 q5 -44 34 -70 q28 -25 74 -25 q49 0 80 25 q30 26 41 70 ZM416 683 q81 0 156 -30.5 q75 -30.5 125 -81.5 q89 -93 89 -232 q0 -149 -103 -252 q-104 -104 -262 -104 q-168 0 -275 107 q-98 98 -98 234 q0 148 105 253 q106 106 263 106 Z" /><glyph glyph-name="afii10195" unicode="&#x473;" d="M250 281 l150 0 q-3 27 -21 43 q-18 16 -50 16 q-34 0 -55 -19 q-17 -15 -24 -40 ZM390 203 l-148 0 q0 -30 17 -45 q18 -18 53 -18 q32 0 52 16 q22 16 26 47 ZM329 493 q135 0 213 -78 q69 -69 69 -171 q0 -101 -71 -174 q-81 -83 -216 -83 q-142 0 -223 80 q-72 70 -72 169 q0 101 69 172 q40 40 101 62.5 q61 22.5 130 22.5 Z" /><glyph glyph-name="afii10148" unicode="&#x474;" d="M474 667 l274 0 l-334 -667 l-210 0 l-150 667 l253 0 l26 -210 q6 -47 6 -99 q0 -37 -4 -89 l10 -1 q14 119 52 211 l77 188 Z" /><glyph glyph-name="afii10196" unicode="&#x475;" d="M344 467 l260 0 l-271 -467 l-195 0 l-119 467 l232 0 l11 -138 q2 -36 2 -51 q0 -16 -3 -65 l9 0 q10 73 30 130 l44 124 Z" /><glyph glyph-name="afii10050" unicode="&#x490;" d="M121 667 l295 1 l21 158 l198 0 l-39 -337 l-255 0 l-60 -489 l-242 0 l82 667 Z" /><glyph glyph-name="afii10098" unicode="&#x491;" d="M20 0 l57 467 l285 0 l18 145 l170 0 l-39 -319 l-223 0 l-36 -293 l-232 0 Z" /><glyph glyph-name="uni0492" unicode="&#x492;" d="M355 217 l-27 -217 l-242 0 l26 217 l-92 0 l21 175 l92 0 l35 275 l465 0 l-22 -178 l-223 0 l-12 -97 l160 0 l-21 -175 l-160 0 Z" /><glyph glyph-name="uni0493" unicode="&#x493;" d="M75 0 l14 118 l-84 0 l16 124 l84 0 l27 225 l393 0 l-21 -174 l-161 0 l-6 -51 l111 0 l-16 -124 l-111 0 l-14 -118 l-232 0 Z" /><glyph glyph-name="uni0494" unicode="&#x494;" d="M121 667 l475 0 l-23 -190 l-233 0 l-13 -101 q63 23 131 23 q114 0 175 -56 q57 -51 57 -142 q0 -99 -61 -158 q-61 -59 -185 -59 q-65 0 -115 16 l49 143 q12 -12 30 -12 q23 0 35 13 q13 14 13 43 q0 23 -15 36 q-18 16 -53 16 q-36 0 -79 -14 l-28 -225 l-242 0 l82 667 Z" /><glyph glyph-name="uni0495" unicode="&#x495;" d="M20 0 l57 467 l393 0 l-21 -174 l-161 0 l-6 -51 l25 0 q130 0 190 -60 q50 -50 50 -133 q0 -112 -69 -181 q-76 -76 -241 -76 l-13 0 l16 124 l3 0 q32 0 54 18 q37 33 37 100 q0 39 -19 55 q-16 15 -48 15 l-2 0 l-13 -104 l-232 0 Z" /><glyph glyph-name="uni0496" unicode="&#x496;" d="M388 0 l23 192 q0 7 17 97 l-8 1 q-24 -52 -55 -98 l-133 -192 l-247 0 l248 356 l-150 311 l250 0 l75 -197 q7 -17 12 -40.5 q5 -23.5 7 -37 q2 -13.5 2 -16.5 l10 2 q2 28 2.5 41.5 q0.5 13.5 0.5 15.5 q1 18 6 59 l22 173 l230 0 l-23 -173 q-9 -71 -21 -116 l10 -2 q14 44 39 85 l129 206 l259 0 l-242 -320 l70 -151 l117 0 l-39 -329 l-200 0 l16 133 l-44 0 l-85 192 q-23 54 -31 98 l-10 -1 q0 -45 -5 -97 l-22 -192 l-230 0 Z" /><glyph glyph-name="uni0497" unicode="&#x497;" d="M336 0 l13 108 q6 45 25 96 l-9 1 q-28 -57 -68 -114 l-64 -91 l-248 0 l191 247 l-130 220 l253 0 l37 -84 q2 -4 6.5 -13.5 q4.5 -9.5 6.5 -14.5 q2 -5 5.5 -16 q3.5 -11 7.5 -26.5 q4 -15.5 9 -38.5 l7 1 q5 115 8 136 l7 56 l220 0 l-6 -56 q-8 -69 -24 -136 l7 -1 q18 46 61 109 l57 84 l256 0 l-190 -234 l38 -65 l107 0 l-35 -299 l-166 0 l15 131 l-65 0 l-50 91 q-23 42 -40 114 l-9 -1 q7 -43 1 -96 l-14 -108 l-220 0 Z" /><glyph glyph-name="uni0498" unicode="&#x498;" d="M144 437 l-56 178 q141 68 265 68 q114 0 183 -49 q77 -53 77 -144 q0 -63 -42 -105 q-24 -23 -64 -37 l-1 -6 q39 -10 66 -37 q37 -37 37 -99 q0 -85 -58 -144 q-63 -65 -161 -73 l-17 -138 l-206 0 l19 146 q-83 15 -170 68 l85 180 q34 -38 76 -58 q44 -22 91 -22 q40 0 59 9 q28 12 28 39 q0 22 -25 32 q-18 7 -56 7 l-85 0 l20 162 l67 0 q44 0 67 9 q27 11 27 35 q0 19 -22 30 q-19 9 -49 9 q-40 0 -87 -20 q-31 -13 -68 -40 Z" /><glyph glyph-name="uni0499" unicode="&#x499;" d="M94 303 l-40 142 q106 48 219 48 q105 0 163 -35 q67 -41 67 -112 q0 -43 -26 -72 q-19 -21 -53 -29 l1 -9 q31 -7 50 -25 q26 -24 26 -66 q0 -58 -42 -101 q-47 -49 -125 -52 l-17 -131 l-166 0 l19 132 q-86 7 -160 49 l56 147 q26 -25 61 -39 q36 -16 77 -16 q35 0 49 7 q16 7 16 22 q0 16 -20 23 q-14 5 -49 5 l-50 0 l14 108 l50 0 q44 0 54 4 q20 7 20 23 q0 14 -19 21 q-16 6 -43 6 q-38 0 -69 -13 q-35 -13 -63 -37 Z" /><glyph glyph-name="uni049A" unicode="&#x49a;" d="M121 667 l242 0 l-21 -171 q-8 -60 -22 -118 l7 -2 q16 44 42 85 l129 206 l268 0 l-242 -336 l74 -135 l117 0 l-39 -329 l-200 0 l16 133 l-49 0 l-88 182 q-25 53 -39 108 l-7 -1 q0 -56 -6 -110 l-22 -179 l-242 0 l82 667 Z" /><glyph glyph-name="uni049B" unicode="&#x49b;" d="M78 467 l231 0 l-7 -56 q-7 -65 -24 -136 l7 -1 q18 46 61 109 l57 84 l253 0 l-185 -236 l38 -63 l103 0 l-36 -299 l-166 0 l16 131 l-60 0 l-53 91 q-30 52 -40 114 l-9 -1 q7 -43 1 -96 l-14 -108 l-231 0 l58 467 Z" /><glyph glyph-name="uni049C" unicode="&#x49c;" d="M312 254 l-31 -254 l-242 0 l82 667 l242 0 l-33 -265 l50 0 l18 141 l121 0 l-10 -84 q-4 -38 -15 -83 l5 0 q17 43 58 110 l112 181 l282 0 l-260 -338 l170 -329 l-255 0 l-78 177 q-29 67 -40 107 l-5 0 q-2 -48 -5 -72 l-6 -53 l-121 0 l11 95 l-50 0 Z" /><glyph glyph-name="uni049D" unicode="&#x49d;" d="M297 174 l-21 -174 l-228 0 l57 467 l228 0 l-22 -183 l37 0 l11 92 l108 0 l-12 -102 l5 0 q18 51 57 109 l57 84 l241 0 l-186 -241 l125 -226 l-228 0 l-42 91 q-27 59 -35 94 l-5 0 l-13 -107 l-108 0 l11 96 l-37 0 Z" /><glyph glyph-name="uni04A0" unicode="&#x4a0;" d="M114 0 l61 489 l-140 0 l22 178 l381 0 l-22 -173 q-8 -61 -21 -116 l7 -2 q20 51 42 85 l23 37 l106 169 l282 0 l-260 -338 l170 -329 l-255 0 l-85 192 q-23 52 -34 98 l-7 -1 l0 -20 q0 -39 -5 -77 l-23 -192 l-242 0 Z" /><glyph glyph-name="uni04A1" unicode="&#x4a1;" d="M46 467 l363 0 l-7 -56 q-7 -65 -24 -136 l7 -1 q18 46 61 109 l57 84 l267 0 l-201 -241 l134 -226 l-248 0 l-42 91 q-30 65 -40 114 l-9 -1 q7 -43 1 -96 l-14 -108 l-231 0 l37 293 l-132 0 l21 174 Z" /><glyph glyph-name="uni04A2" unicode="&#x4a2;" d="M505 667 l242 0 l-57 -471 l105 0 l-39 -329 l-200 0 l16 133 l-149 0 l30 243 l-143 0 l-29 -243 l-242 0 l82 667 l242 0 l-28 -228 l142 0 l28 228 Z" /><glyph glyph-name="uni04A3" unicode="&#x4a3;" d="M20 0 l57 467 l232 0 l-18 -144 l74 0 l18 144 l232 0 l-36 -299 l79 0 l-36 -299 l-166 0 l16 131 l-146 0 l19 155 l-74 0 l-19 -155 l-232 0 Z" /><glyph glyph-name="uni04A4" unicode="&#x4a4;" d="M121 667 l242 0 l-28 -228 l142 0 l28 228 l418 0 l-22 -178 l-176 0 l-60 -489 l-242 0 l30 243 l-143 0 l-29 -243 l-242 0 l82 667 Z" /><glyph glyph-name="uni04A5" unicode="&#x4a5;" d="M20 0 l57 467 l232 0 l-18 -144 l74 0 l18 144 l371 0 l-21 -174 l-139 0 l-36 -293 l-232 0 l19 155 l-74 0 l-19 -155 l-232 0 Z" /><glyph glyph-name="uni04AA" unicode="&#x4aa;" d="M231 -149 l19 153 q-85 31 -140 107 q-63 86 -63 203 q0 160 105 265 q104 104 270 104 q88 0 166 -31 l-20 -237 q-59 52 -133 52 q-59 0 -100 -40 q-47 -45 -47 -108 q0 -46 30 -79 q37 -41 99 -41 q74 0 131 57 l-29 -243 q-30 -16 -65 -19 l-17 -143 l-206 0 Z" /><glyph glyph-name="uni04AB" unicode="&#x4ab;" d="M439 467 l-29 -196 q-33 42 -82 42 q-33 0 -53 -21.5 q-20 -21.5 -20 -58.5 q0 -33 18 -51 q18 -18 50 -18 q45 0 78 33 l-34 -192 q-18 -6 -33 -9 l-17 -136 l-166 0 l20 143 q-27 9 -57 31 q-87 68 -87 186 q0 127 82 204 q75 69 191 69 q65 0 139 -26 Z" /><glyph glyph-name="uni04AE" unicode="&#x4ae;" d="M745 667 l-281 -384 l-35 -283 l-240 0 l36 289 l-178 378 l265 0 l34 -109 q10 -33 13 -76 l9 0 q8 30 24 63 l62 122 l291 0 Z" /><glyph glyph-name="uni04AF" unicode="&#x4af;" d="M24 467 l243 0 l19 -119 q15 -99 11 -154 l10 0 q8 46 15 68 q5 21 25 74 l50 131 l253 0 l-251 -454 l-30 -242 l-232 0 l30 242 l-143 454 Z" /><glyph glyph-name="uni04B0" unicode="&#x4b0;" d="M755 667 l-275 -353 l-3 -19 l180 0 l-20 -168 l-180 0 l-18 -127 l-240 0 l16 127 l-180 0 l20 168 l180 0 l3 19 l-181 353 l265 0 l34 -109 q10 -33 13 -76 l9 0 q8 30 24 63 l62 122 l291 0 Z" /><glyph glyph-name="uni04B1" unicode="&#x4b1;" d="M180 63 l-148 404 l243 0 l19 -109 q10 -55 11 -74 q0 -1 0.5 -7 q0.5 -6 0.5 -13 q0 -7 0 -18 q0 -11 -1 -22 l10 0 q4 21 13 55 q9 33 27 72 l50 116 l253 0 l-246 -404 l-2 -25 l137 0 l-17 -138 l-137 0 l-15 -129 l-232 0 l15 129 l-137 0 l17 138 l136 0 l3 25 Z" /><glyph glyph-name="uni04B2" unicode="&#x4b2;" d="M765 667 l-253 -321 l100 -150 l117 0 l-39 -329 l-200 0 l16 133 l-40 0 l-58 99 q-21 36 -35 86 l-8 0 q-10 -31 -22 -52 l-78 -133 l-293 0 l278 356 l-181 311 l273 0 l32 -84 q15 -39 20 -68 l6 0 q11 32 32 73 l41 79 l292 0 Z" /><glyph glyph-name="uni04B3" unicode="&#x4b3;" d="M374 467 l272 0 l-192 -228 l51 -71 l105 0 l-36 -299 l-166 0 l16 131 l-65 0 l-25 43 q-9 15 -12 27 q-5 18 -7 32 l-7 1 q-6 -15 -9 -21 q-12 -22 -16 -28 l-35 -54 l-278 0 l217 246 l-155 221 l263 0 l15 -46 q1 -2 2.5 -6 q1.5 -4 2.5 -8.5 q1 -4.5 2 -9.5 q3 -21 3 -23 l9 1 q3 13 7 21 q6 13 11 22 l27 49 Z" /><glyph glyph-name="uni04B6" unicode="&#x4b6;" d="M534 0 l-147 0 l29 233 q-49 -12 -116 -12 q-115 0 -170 36 q-70 46 -70 137 q0 3 4 51 l27 222 l240 0 l-21 -172 q-5 -15 -3.5 -36 q1.5 -21 17.5 -33 q17 -13 53 -13 q30 0 62 6 l30 248 l242 0 l-59 -471 l105 0 l-39 -329 l-200 0 l16 133 Z" /><glyph glyph-name="uni04B7" unicode="&#x4b7;" d="M453 0 l-146 0 l17 141 q-46 -10 -94 -10 q-92 0 -138 32 q-60 42 -50 134 l21 170 l227 0 l-15 -126 q-4 -32 9 -42 q9 -8 30 -8 q15 0 29 6 l21 170 l232 0 l-36 -299 l79 0 l-36 -299 l-166 0 l16 131 Z" /><glyph glyph-name="uni04B8" unicode="&#x4b8;" d="M527 407 l32 260 l242 0 l-82 -667 l-242 0 l30 246 q-27 -8 -51 -12 l-14 -108 l-122 0 l12 97 q-60 -6 -123 6.5 q-63 12.5 -100 45.5 q-26 23 -38 53.5 q-12 30.5 -10.5 57 q1.5 26.5 3.5 54.5 l28 227 l228 0 l-21 -171 q-4 -26 -4 -44 q0 -29 17 -42 q16 -12 42 -10 l18 143 l122 0 l-18 -146 q29 2 51 10 Z" /><glyph glyph-name="uni04B9" unicode="&#x4b9;" d="M413 376 l-12 -98 q17 0 38 8 l22 181 l232 0 l-57 -467 l-232 0 l18 152 q-22 -7 -37 -8 l-10 -76 l-104 0 l8 63 q-151 -9 -206 48 q-42 43 -30 132 l19 156 l210 0 l-16 -130 q-4 -40 10 -52 q12 -11 31 -9 l12 100 l104 0 Z" /><glyph glyph-name="uni04BA" unicode="&#x4ba;" d="M363 667 l-29 -233 q53 12 115 12 q113 0 170 -36 q71 -46 71 -135 q0 -5 -4 -53 l-27 -222 l-240 0 l21 172 q3 27 3 31 q0 26 -17 38 q-17 13 -53 13 q-33 0 -63 -6 l-29 -248 l-242 0 l82 667 l242 0 Z" /><glyph glyph-name="uni04BB" unicode="&#x4bb;" d="M110 729 l231 0 l-26 -211 q-9 -71 -25 -125 l9 -3 q53 93 148 93 q62 0 104.5 -43 q42.5 -43 42.5 -106 q0 -26 -4 -53 l-34 -281 l-232 0 l28 226 q3 20 3 31 q0 35 -30 35 q-22 0 -32.5 -15.5 q-10.5 -15.5 -15.5 -58.5 l-26 -218 l-231 0 l90 729 Z" /><glyph glyph-name="uni04C0" unicode="&#x4c0;" d="M121 667 l245 0 l-82 -667 l-245 0 l82 667 Z" /><glyph glyph-name="uni04C1" unicode="&#x4c1;" d="M388 0 l23 192 q0 7 17 97 l-8 1 q-24 -52 -55 -98 l-133 -192 l-247 0 l248 356 l-150 311 l250 0 l75 -197 q7 -17 12 -40.5 q5 -23.5 7 -37 q2 -13.5 2 -16.5 l10 2 q2 28 2.5 41.5 q0.5 13.5 0.5 15.5 q1 18 6 59 l22 173 l230 0 l-23 -173 q-9 -71 -21 -116 l10 -2 q14 44 39 85 l129 206 l259 0 l-242 -320 l163 -347 l-243 0 l-85 192 q-23 54 -31 98 l-10 -1 q0 -45 -5 -97 l-22 -192 l-230 0 ZM671 904 l138 -50 q-27 -67 -83 -99 q-52 -30 -142 -30 q-84 0 -137 30 q-57 35 -80 99 l144 50 q4 -32 23 -48 q18 -15 51 -15 q33 0 53 13 q25 16 33 50 Z" /><glyph glyph-name="uni04C2" unicode="&#x4c2;" d="M336 0 l13 108 q7 60 25 96 l-9 1 q-28 -57 -68 -114 l-64 -91 l-248 0 l191 247 l-130 220 l253 0 l37 -84 q2 -4 6.5 -13.5 q4.5 -9.5 6.5 -14.5 q2 -5 5.5 -16 q3.5 -11 7.5 -26.5 q4 -15.5 9 -38.5 l7 1 q5 115 8 136 l7 56 l220 0 l-6 -56 q-8 -69 -24 -136 l7 -1 q18 46 61 109 l57 84 l267 0 l-201 -241 l134 -226 l-248 0 l-42 91 q-30 65 -40 114 l-9 -1 q7 -43 1 -96 l-14 -108 l-220 0 ZM607 695 l134 -51 q-24 -61 -80 -93 q-49 -28 -128 -28 q-88 0 -139 29 q-54 31 -73 92 l145 51 q4 -31 19 -46 q16 -16 46 -16 q33 0 50 16 q19 17 26 46 Z" /><glyph glyph-name="uni04C3" unicode="&#x4c3;" d="M121 667 l242 0 l-21 -171 q-8 -60 -22 -118 l7 -2 q24 51 44 85 l127 206 l237 0 l-197 -279 q72 -9 117 -54 q44 -44 44 -117 q0 -107 -62 -171 q-60 -62 -174 -62 q-79 0 -136 25 l50 140 q15 -20 38 -20 q19 0 33 19 q11 17 11 38 q0 27 -17 42 q-19 16 -51 16 q-23 0 -44 -10 q-11 -5 -40 -23 l-26 -211 l-242 0 l82 667 Z" /><glyph glyph-name="uni04C4" unicode="&#x4c4;" d="M78 467 l231 0 l-7 -56 q-9 -76 -28 -147 l7 -1 q24 59 65 120 l57 84 l232 0 l-187 -236 l0 -6 q47 -11 82 -44 q49 -46 49 -123 q0 -117 -69 -186 q-80 -80 -259 -80 l-13 0 l16 124 l3 0 q39 0 61 19 q37 32 37 105 q0 46 -17 67 q-24 31 -72 18 l-15 -125 l-231 0 l58 467 Z" /><glyph glyph-name="uni04C7" unicode="&#x4c7;" d="M505 667 l242 0 l-87 -711 q-4 -31 -8 -50.5 q-4 -19.5 -16 -46 q-12 -26.5 -32 -44.5 q-49 -45 -165 -45 q-65 0 -116 9 l18 146 q11 -8 28 -8 q23 0 34 11 q14 14 17 48 l33 267 l-143 0 l-29 -243 l-242 0 l82 667 l242 0 l-28 -228 l142 0 l28 228 Z" /><glyph glyph-name="uni04C8" unicode="&#x4c8;" d="M20 0 l57 467 l232 0 l-18 -144 l74 0 l18 144 l232 0 l-59 -497 q-13 -109 -56 -152 q-48 -48 -151 -48 q-59 0 -124 12 l18 148 q13 -10 33 -10 q23 0 35 14 q9 12 13 45 l21 176 l-74 0 l-19 -155 l-232 0 Z" /><glyph glyph-name="uni04D0" unicode="&#x4d0;" d="M428 89 l-164 0 l-32 -89 l-260 0 l308 667 l276 0 l124 -667 l-247 0 l-5 89 ZM365 362 l-45 -121 l92 0 l-10 121 q-2 22 -2 47 q0 20 3 53 l-8 0 q-13 -55 -30 -100 ZM518 904 l138 -50 q-27 -67 -83 -99 q-53 -30 -142 -30 q-84 0 -137 30 q-57 35 -80 99 l144 50 q4 -32 23 -48 q18 -15 51 -15 q33 0 53 13 q25 16 33 50 Z" /><glyph glyph-name="uni04D1" unicode="&#x4d1;" d="M403 467 l230 0 l-58 -467 l-229 0 q7 30 25 83 l-7 3 q-30 -53 -64 -76 q-34 -23 -80 -23 q-79 0 -137 65 q-58 65 -58 153 q0 111 70.5 194.5 q70.5 83.5 163.5 83.5 q56 0 88.5 -23 q32.5 -23 52.5 -77 l8 3 q-5 41 -5 71 l0 10 ZM316 164 q28 0 46.5 21 q18.5 21 18.5 53 q0 26 -15.5 43.5 q-15.5 17.5 -39.5 17.5 q-27 0 -47 -22.5 q-20 -22.5 -20 -53.5 q0 -26 16 -42.5 q16 -16.5 41 -16.5 ZM447 695 l134 -51 q-24 -61 -80 -93 q-49 -28 -128 -28 q-88 0 -139 29 q-54 31 -73 92 l145 51 q4 -31 19 -46 q16 -16 46 -16 q33 0 50 16 q19 17 26 46 Z" /><glyph glyph-name="uni04D2" unicode="&#x4d2;" d="M428 89 l-164 0 l-32 -89 l-260 0 l308 667 l276 0 l124 -667 l-247 0 l-5 89 ZM365 362 l-45 -121 l92 0 l-10 121 q-2 22 -2 47 q0 20 3 53 l-8 0 q-13 -55 -30 -100 ZM237 762 q-29 29 -29 71 q0 42 29 71 q29 29 71 29 q42 0 71 -29 q29 -29 29 -71 q0 -42 -29 -71 q-29 -29 -71 -29 q-42 0 -71 29 ZM484 762 q-29 29 -29 71 q0 42 29 71 q29 29 71 29 q42 0 71 -29 q29 -29 29 -71 q0 -42 -29 -71 q-29 -29 -71 -29 q-42 0 -71 29 Z" /><glyph glyph-name="uni04D3" unicode="&#x4d3;" d="M403 467 l230 0 l-58 -467 l-229 0 q7 30 25 83 l-7 3 q-30 -53 -64 -76 q-34 -23 -80 -23 q-79 0 -137 65 q-58 65 -58 153 q0 111 70.5 194.5 q70.5 83.5 163.5 83.5 q56 0 88.5 -23 q32.5 -23 52.5 -77 l8 3 q-5 41 -5 71 l0 10 ZM316 164 q28 0 46.5 21 q18.5 21 18.5 53 q0 26 -15.5 43.5 q-15.5 17.5 -39.5 17.5 q-27 0 -47 -22.5 q-20 -22.5 -20 -53.5 q0 -26 16 -42.5 q16 -16.5 41 -16.5 ZM145 642 q0 43 30 73 q30 30 72 30 q43 0 73 -30 q30 -30 30 -73 q0 -42 -30 -72 q-30 -30 -73 -30 q-42 0 -72 30 q-30 30 -30 72 ZM392 642 q0 43 30 73 q30 30 72 30 q43 0 73 -30 q30 -30 30 -73 q0 -42 -30 -72 q-30 -30 -73 -30 q-42 0 -72 30 q-30 30 -30 72 Z" /><glyph glyph-name="uni04D4" unicode="&#x4d4;" d="M289 667 l478 0 l31 -175 l-203 0 l12 -71 l204 0 l29 -170 l-203 0 l13 -70 l203 0 l32 -181 l-446 0 l-4 88 l-165 0 l-32 -88 l-259 0 l310 667 ZM375 370 l-48 -131 l93 0 l-12 131 q-1 9 -1 32 q0 25 4 57 l-11 2 q-8 -45 -25 -91 Z" /><glyph glyph-name="uni04D5" unicode="&#x4d5;" d="M913 203 l-331 0 q-1 -5 -1 -16 q0 -28 14.5 -45 q14.5 -17 37.5 -17 q21 0 34 11 q9 9 16 27 l222 0 q-25 -80 -95 -127 q-72 -49 -172 -49 q-132 0 -208 73 q-39 -41 -83 -57 q-43 -16 -110 -16 q-102 0 -158 43 q-60 46 -60 124 q0 62 44 104 q53 51 153 51 q49 0 85 -14 q39 -16 63 -41 q3 15 3 31 q0 43 -38 66 q-31 19 -89 19 q-88 0 -178 -46 l17 133 q84 36 180 36 q130 0 191 -67 q70 67 194 67 q127 0 203 -78 q70 -73 70 -171 q0 -22 -4 -41 ZM295 97 q34 0 55 14 q23 15 23 40 q0 24 -20 38 q-20 14 -60 14 q-38 0 -56 -13 q-20 -15 -20 -40 q0 -24 21 -39 q19 -14 57 -14 ZM592 299 l108 0 q0 25 -13 43.5 q-13 18.5 -37 18.5 q-24 0 -40 -17.5 q-16 -17.5 -18 -44.5 Z" /><glyph glyph-name="uni04D6" unicode="&#x4d6;" d="M121 667 l438 0 l-21 -174 l-197 0 l-9 -73 l180 0 l-20 -165 l-180 0 l-9 -76 l204 0 l-22 -179 l-446 0 l82 667 ZM439 904 l138 -50 q-27 -67 -83 -99 q-52 -30 -142 -30 q-84 0 -137 30 q-57 35 -80 99 l144 50 q4 -32 23 -48 q18 -15 51 -15 q33 0 53 13 q25 16 33 50 Z" /><glyph glyph-name="uni04D7" unicode="&#x4d7;" d="M587 202 l-331 0 q-1 -6 -1 -17 q0 -29 14 -46 q14 -17 37 -17 q34 0 50 40 l222 0 q-14 -40 -27 -61 q-13 -21 -38 -43 q-82 -71 -205 -71 q-125 0 -202.5 67 q-77.5 67 -77.5 175 q0 113 82.5 189 q82.5 76 205.5 76 q116 0 195.5 -70.5 q79.5 -70.5 79.5 -173.5 q0 -6 -4 -48 ZM322 360 q-47 0 -57 -62 l108 0 q-1 62 -51 62 ZM407 695 l134 -51 q-24 -61 -80 -93 q-49 -28 -128 -28 q-88 0 -139 29 q-54 31 -73 92 l145 51 q4 -31 19 -46 q16 -16 46 -16 q33 0 50 16 q19 17 26 46 Z" /><glyph glyph-name="uni04D8" unicode="&#x4d8;" d="M287 431 l-220 37 q49 105 141 161 q88 54 209 54 q161 0 252 -93 q91 -93 91 -238 q0 -168 -103 -273 q-95 -96 -266 -96 q-162 0 -250 92 q-111 115 -90 311 l466 0 q-2 55 -35 88 q-29 29 -80 29 q-45 0 -74 -21 q-27 -18 -41 -51 ZM502 258 l-245 0 q3 -43 31 -69 q29 -26 81 -26 q53 0 85 23 q36 25 48 72 Z" /><glyph glyph-name="afii10846" unicode="&#x4d9;" d="M31 275 l331 0 q10 53 -12 77 q-12 14 -38 14 q-24 0 -39 -14 q-15 -15 -21 -32 l-196 38 q37 63 101 99 q66 37 159 37 q126 0 201 -73 q69 -67 69 -171 q0 -117 -78 -193 q-72 -71 -201 -71 q-137 0 -208 69 q-38 36 -57 94 q-19 58 -11 126 ZM348 174 l-107 0 q-2 -30 15 -47 q13 -13 34 -13 q24 0 37 13 q17 16 21 47 Z" /><glyph glyph-name="uni04DA" unicode="&#x4da;" d="M287 431 l-220 37 q49 105 141 161 q88 54 209 54 q161 0 252 -93 q91 -93 91 -238 q0 -168 -103 -273 q-95 -96 -266 -96 q-162 0 -250 92 q-111 115 -90 311 l466 0 q-2 55 -35 88 q-29 29 -80 29 q-45 0 -74 -21 q-27 -18 -41 -51 ZM502 258 l-245 0 q3 -43 31 -69 q29 -26 81 -26 q53 0 85 23 q36 25 48 72 ZM237 762 q-29 29 -29 71 q0 42 29 71 q29 29 71 29 q42 0 71 -29 q29 -29 29 -71 q0 -42 -29 -71 q-29 -29 -71 -29 q-42 0 -71 29 ZM484 762 q-29 29 -29 71 q0 42 29 71 q29 29 71 29 q42 0 71 -29 q29 -29 29 -71 q0 -42 -29 -71 q-29 -29 -71 -29 q-42 0 -71 29 Z" /><glyph glyph-name="uni04DB" unicode="&#x4db;" d="M31 275 l331 0 q10 53 -12 77 q-12 14 -38 14 q-24 0 -39 -14 q-15 -15 -21 -32 l-196 38 q37 63 101 99 q66 37 159 37 q126 0 201 -73 q69 -67 69 -171 q0 -117 -78 -193 q-72 -71 -201 -71 q-137 0 -208 69 q-38 36 -57 94 q-19 58 -11 126 ZM348 174 l-107 0 q-2 -30 15 -47 q13 -13 34 -13 q24 0 37 13 q17 16 21 47 ZM95 642 q0 43 30 73 q30 30 72 30 q43 0 73 -30 q30 -30 30 -73 q0 -42 -30 -72 q-30 -30 -73 -30 q-42 0 -72 30 q-30 30 -30 72 ZM342 642 q0 43 30 73 q30 30 72 30 q43 0 73 -30 q30 -30 30 -73 q0 -42 -30 -72 q-30 -30 -73 -30 q-42 0 -72 30 q-30 30 -30 72 Z" /><glyph glyph-name="uni04DC" unicode="&#x4dc;" d="M388 0 l23 192 q0 7 17 97 l-8 1 q-24 -52 -55 -98 l-133 -192 l-247 0 l248 356 l-150 311 l250 0 l75 -197 q7 -17 12 -40.5 q5 -23.5 7 -37 q2 -13.5 2 -16.5 l10 2 q2 28 2.5 41.5 q0.5 13.5 0.5 15.5 q1 18 6 59 l22 173 l230 0 l-23 -173 q-9 -71 -21 -116 l10 -2 q14 44 39 85 l129 206 l259 0 l-242 -320 l163 -347 l-243 0 l-85 192 q-23 54 -31 98 l-10 -1 q0 -45 -5 -97 l-22 -192 l-230 0 ZM407 762 q-29 29 -29 71 q0 42 29 71 q29 29 71 29 q42 0 71 -29 q29 -29 29 -71 q0 -42 -29 -71 q-29 -29 -71 -29 q-42 0 -71 29 ZM654 762 q-29 29 -29 71 q0 42 29 71 q29 29 71 29 q42 0 71 -29 q29 -29 29 -71 q0 -42 -29 -71 q-29 -29 -71 -29 q-42 0 -71 29 Z" /><glyph glyph-name="uni04DD" unicode="&#x4dd;" d="M336 0 l13 108 q7 60 25 96 l-9 1 q-28 -57 -68 -114 l-64 -91 l-248 0 l191 247 l-130 220 l253 0 l37 -84 q2 -4 6.5 -13.5 q4.5 -9.5 6.5 -14.5 q2 -5 5.5 -16 q3.5 -11 7.5 -26.5 q4 -15.5 9 -38.5 l7 1 q5 115 8 136 l7 56 l220 0 l-6 -56 q-8 -69 -24 -136 l7 -1 q18 46 61 109 l57 84 l267 0 l-201 -241 l134 -226 l-248 0 l-42 91 q-30 65 -40 114 l-9 -1 q7 -43 1 -96 l-14 -108 l-220 0 ZM285 642 q0 43 30 73 q30 30 72 30 q43 0 73 -30 q30 -30 30 -73 q0 -42 -30 -72 q-30 -30 -73 -30 q-42 0 -72 30 q-30 30 -30 72 ZM532 642 q0 43 30 73 q30 30 72 30 q43 0 73 -30 q30 -30 30 -73 q0 -42 -30 -72 q-30 -30 -73 -30 q-42 0 -72 30 q-30 30 -30 72 Z" /><glyph glyph-name="uni04DE" unicode="&#x4de;" d="M144 437 l-56 178 q141 68 265 68 q114 0 183 -49 q77 -53 77 -144 q0 -63 -42 -105 q-24 -23 -64 -37 l-1 -6 q39 -10 66 -37 q37 -37 37 -95 q0 -116 -97 -178 q-77 -49 -199 -49 q-96 0 -177 27 q-60 21 -120 55 l85 180 q34 -38 76 -58 q46 -22 93 -22 q38 0 57 9 q28 12 28 39 q0 22 -25 32 q-18 7 -56 7 l-85 0 l20 162 l67 0 q44 0 67 9 q27 11 27 35 q0 19 -22 30 q-19 9 -49 9 q-40 0 -87 -20 q-31 -13 -68 -40 ZM177 762 q-29 29 -29 71 q0 42 29 71 q29 29 71 29 q42 0 71 -29 q29 -29 29 -71 q0 -42 -29 -71 q-29 -29 -71 -29 q-42 0 -71 29 ZM424 762 q-29 29 -29 71 q0 42 29 71 q29 29 71 29 q42 0 71 -29 q29 -29 29 -71 q0 -42 -29 -71 q-29 -29 -71 -29 q-42 0 -71 29 Z" /><glyph glyph-name="uni04DF" unicode="&#x4df;" d="M94 303 l-40 142 q102 48 216 48 q110 0 166 -34 q67 -40 67 -115 q0 -41 -26 -68 q-21 -22 -53 -31 l1 -9 q31 -6 52 -27 q24 -24 24 -62 q0 -58 -43 -100 q-61 -60 -208 -60 q-131 0 -240 55 l56 144 q25 -23 60 -37 q38 -16 78 -16 q41 0 58 12 q11 8 11 22 q0 18 -20 24 q-12 4 -53 4 l-46 0 l14 100 l50 0 q35 0 51 4 q23 6 23 26 q0 14 -18 22 q-16 6 -48 6 q-37 0 -72 -14 q-31 -13 -60 -36 ZM55 642 q0 43 30 73 q30 30 72 30 q43 0 73 -30 q30 -30 30 -73 q0 -42 -30 -72 q-30 -30 -73 -30 q-42 0 -72 30 q-30 30 -30 72 ZM302 642 q0 43 30 73 q30 30 72 30 q43 0 73 -30 q30 -30 30 -73 q0 -42 -30 -72 q-30 -30 -73 -30 q-42 0 -72 30 q-30 30 -30 72 Z" /><glyph glyph-name="uni04E2" unicode="&#x4e2;" d="M121 667 l238 0 l-26 -204 q-10 -78 -32 -140 l10 -5 q33 64 73 120 l166 229 l221 0 l-82 -667 l-238 0 l21 172 q8 68 32 153 l-10 2 q-26 -51 -75 -117 l-159 -210 l-221 0 l82 667 ZM633 746 l-364 0 l12 104 l364 0 l-12 -104 Z" /><glyph glyph-name="uni04E3" unicode="&#x4e3;" d="M77 467 l228 0 l-20 -146 q-6 -49 -25 -91 l11 -4 q12 27 33 59 l124 182 l227 0 l-57 -467 l-228 0 l19 140 q6 48 19 92 l-10 4 q-15 -30 -42 -70 l-109 -166 l-227 0 l57 467 ZM544 546 l-340 0 l12 100 l340 0 l-12 -100 Z" /><glyph glyph-name="uni04E4" unicode="&#x4e4;" d="M121 667 l238 0 l-26 -204 q-10 -78 -32 -140 l10 -5 q33 64 73 120 l166 229 l221 0 l-82 -667 l-238 0 l21 172 q8 68 32 153 l-10 2 q-26 -51 -75 -117 l-159 -210 l-221 0 l82 667 ZM265 762 q-29 29 -29 71 q0 42 29 71 q29 29 71 29 q42 0 71 -29 q29 -29 29 -71 q0 -42 -29 -71 q-29 -29 -71 -29 q-42 0 -71 29 ZM512 762 q-29 29 -29 71 q0 42 29 71 q29 29 71 29 q42 0 71 -29 q29 -29 29 -71 q0 -42 -29 -71 q-29 -29 -71 -29 q-42 0 -71 29 Z" /><glyph glyph-name="uni04E5" unicode="&#x4e5;" d="M77 467 l228 0 l-20 -146 q-6 -49 -25 -91 l11 -4 q12 27 33 59 l124 182 l227 0 l-57 -467 l-228 0 l19 140 q6 48 19 92 l-10 4 q-15 -30 -42 -70 l-109 -166 l-227 0 l57 467 ZM155 642 q0 43 30 73 q30 30 72 30 q43 0 73 -30 q30 -30 30 -73 q0 -42 -30 -72 q-30 -30 -73 -30 q-42 0 -72 30 q-30 30 -30 72 ZM402 642 q0 43 30 73 q30 30 72 30 q43 0 73 -30 q30 -30 30 -73 q0 -42 -30 -72 q-30 -30 -73 -30 q-42 0 -72 30 q-30 30 -30 72 Z" /><glyph glyph-name="uni04E6" unicode="&#x4e6;" d="M675 591 q111 -91 111 -252 q0 -152 -104.5 -254 q-104.5 -102 -260.5 -102 q-158 0 -265.5 98 q-107.5 98 -107.5 243 q0 151 106.5 255 q106.5 104 261.5 104 q150 0 259 -92 ZM410 193 q57 0 94.5 40.5 q37.5 40.5 37.5 101.5 q0 53 -34 90 q-34 37 -84 37 q-55 0 -93.5 -41 q-38.5 -41 -38.5 -99 q0 -56 33.5 -92.5 q33.5 -36.5 84.5 -36.5 ZM237 762 q-29 29 -29 71 q0 42 29 71 q29 29 71 29 q42 0 71 -29 q29 -29 29 -71 q0 -42 -29 -71 q-29 -29 -71 -29 q-42 0 -71 29 ZM484 762 q-29 29 -29 71 q0 42 29 71 q29 29 71 29 q42 0 71 -29 q29 -29 29 -71 q0 -42 -29 -71 q-29 -29 -71 -29 q-42 0 -71 29 Z" /><glyph glyph-name="uni04E7" unicode="&#x4e7;" d="M329 493 q135 0 213 -78 q69 -67 69 -171 q0 -102 -71 -174 q-81 -83 -216 -83 q-141 0 -223 80 q-72 69 -72 169 q0 101 69 172 q40 40 101 62.5 q61 22.5 130 22.5 ZM318 169 q25 0 41 16 q23 23 23 59 q0 33 -20 51 q-17 15 -38 15 q-26 0 -43 -17 q-23 -23 -23 -58 q0 -30 21 -51 q17 -15 39 -15 ZM125 642 q0 43 30 73 q30 30 72 30 q43 0 73 -30 q30 -30 30 -73 q0 -42 -30 -72 q-30 -30 -73 -30 q-42 0 -72 30 q-30 30 -30 72 ZM372 642 q0 43 30 73 q30 30 72 30 q43 0 73 -30 q30 -30 30 -73 q0 -42 -30 -72 q-30 -30 -73 -30 q-42 0 -72 30 q-30 30 -30 72 Z" /><glyph glyph-name="uni04E8" unicode="&#x4e8;" d="M315 395 l218 0 q-9 38 -38 59 q-28 21 -69 21 q-42 0 -70 -21 q-30 -21 -41 -59 ZM531 287 l-229 0 q5 -44 34 -70 q28 -25 74 -25 q49 0 80 25 q30 26 41 70 ZM416 683 q81 0 156 -30.5 q75 -30.5 125 -81.5 q89 -93 89 -232 q0 -149 -103 -252 q-104 -104 -262 -104 q-168 0 -275 107 q-98 98 -98 234 q0 148 105 253 q106 106 263 106 Z" /><glyph glyph-name="uni04E9" unicode="&#x4e9;" d="M250 281 l150 0 q-3 27 -21 43 q-18 16 -50 16 q-34 0 -55 -19 q-17 -15 -24 -40 ZM390 203 l-148 0 q0 -30 17 -45 q18 -18 53 -18 q32 0 52 16 q22 16 26 47 ZM329 493 q135 0 213 -78 q69 -69 69 -171 q0 -101 -71 -174 q-81 -83 -216 -83 q-142 0 -223 80 q-72 70 -72 169 q0 101 69 172 q40 40 101 62.5 q61 22.5 130 22.5 Z" /><glyph glyph-name="uni04EA" unicode="&#x4ea;" d="M315 395 l218 0 q-9 38 -38 59 q-28 21 -69 21 q-42 0 -70 -21 q-30 -21 -41 -59 ZM531 287 l-229 0 q5 -44 34 -70 q28 -25 74 -25 q49 0 80 25 q30 26 41 70 ZM416 683 q81 0 156 -30.5 q75 -30.5 125 -81.5 q89 -93 89 -232 q0 -149 -103 -252 q-104 -104 -262 -104 q-168 0 -275 107 q-98 98 -98 234 q0 148 105 253 q106 106 263 106 ZM237 762 q-29 29 -29 71 q0 42 29 71 q29 29 71 29 q42 0 71 -29 q29 -29 29 -71 q0 -42 -29 -71 q-29 -29 -71 -29 q-42 0 -71 29 ZM484 762 q-29 29 -29 71 q0 42 29 71 q29 29 71 29 q42 0 71 -29 q29 -29 29 -71 q0 -42 -29 -71 q-29 -29 -71 -29 q-42 0 -71 29 Z" /><glyph glyph-name="uni04EB" unicode="&#x4eb;" d="M250 281 l150 0 q-3 27 -21 43 q-18 16 -50 16 q-34 0 -55 -19 q-17 -15 -24 -40 ZM390 203 l-148 0 q0 -30 17 -45 q18 -18 53 -18 q32 0 52 16 q22 16 26 47 ZM329 493 q135 0 213 -78 q69 -69 69 -171 q0 -101 -71 -174 q-81 -83 -216 -83 q-142 0 -223 80 q-72 70 -72 169 q0 101 69 172 q40 40 101 62.5 q61 22.5 130 22.5 ZM125 642 q0 43 30 73 q30 30 72 30 q43 0 73 -30 q30 -30 30 -73 q0 -42 -30 -72 q-30 -30 -73 -30 q-42 0 -72 30 q-30 30 -30 72 ZM372 642 q0 43 30 73 q30 30 72 30 q43 0 73 -30 q30 -30 30 -73 q0 -42 -30 -72 q-30 -30 -73 -30 q-42 0 -72 30 q-30 30 -30 72 Z" /><glyph glyph-name="uni04EE" unicode="&#x4ee;" d="M40 667 l259 0 l72 -188 q15 -39 17 -73 l8 0 q11 43 26 75 l90 186 l263 0 l-389 -667 l-266 0 l87 153 q25 44 53 73 l-220 441 ZM595 746 l-364 0 l12 104 l364 0 l-12 -104 Z" /><glyph glyph-name="uni04EF" unicode="&#x4ef;" d="M381 467 l249 0 l-363 -696 l-248 0 l88 169 q35 61 65 96 l-141 431 l238 0 l20 -130 q7 -43 7 -75 q0 -24 -2 -48 l10 -1 q15 78 34 131 l43 123 ZM498 546 l-340 0 l12 100 l340 0 l-12 -100 Z" /><glyph glyph-name="uni04F0" unicode="&#x4f0;" d="M40 667 l259 0 l72 -188 q15 -39 17 -73 l8 0 q11 43 26 75 l90 186 l263 0 l-389 -667 l-266 0 l87 153 q25 44 53 73 l-220 441 ZM227 762 q-29 29 -29 71 q0 42 29 71 q29 29 71 29 q42 0 71 -29 q29 -29 29 -71 q0 -42 -29 -71 q-29 -29 -71 -29 q-42 0 -71 29 ZM474 762 q-29 29 -29 71 q0 42 29 71 q29 29 71 29 q42 0 71 -29 q29 -29 29 -71 q0 -42 -29 -71 q-29 -29 -71 -29 q-42 0 -71 29 Z" /><glyph glyph-name="uni04F1" unicode="&#x4f1;" d="M381 467 l249 0 l-363 -696 l-248 0 l88 169 q35 61 65 96 l-141 431 l238 0 l20 -130 q7 -43 7 -75 q0 -24 -2 -48 l10 -1 q15 78 34 131 l43 123 ZM95 642 q0 43 30 73 q30 30 72 30 q43 0 73 -30 q30 -30 30 -73 q0 -42 -30 -72 q-30 -30 -73 -30 q-42 0 -72 30 q-30 30 -30 72 ZM342 642 q0 43 30 73 q30 30 72 30 q43 0 73 -30 q30 -30 30 -73 q0 -42 -30 -72 q-30 -30 -73 -30 q-42 0 -72 30 q-30 30 -30 72 Z" /><glyph glyph-name="uni04F2" unicode="&#x4f2;" d="M40 667 l259 0 l72 -188 q15 -39 17 -73 l8 0 q11 43 26 75 l90 186 l263 0 l-389 -667 l-266 0 l87 153 q25 44 53 73 l-220 441 ZM424 779 l111 137 l111 -73 l-143 -119 l-79 55 ZM206 779 l111 137 l111 -73 l-143 -119 l-79 55 Z" /><glyph glyph-name="uni04F3" unicode="&#x4f3;" d="M381 467 l249 0 l-363 -696 l-248 0 l88 169 q35 61 65 96 l-141 431 l238 0 l20 -130 q7 -43 7 -75 q0 -24 -2 -48 l10 -1 q15 78 34 131 l43 123 ZM143 596 l100 146 l112 -73 l-133 -128 l-79 55 ZM347 596 l100 146 l111 -73 l-132 -128 l-79 55 Z" /><glyph glyph-name="uni04F4" unicode="&#x4f4;" d="M387 0 l29 233 q-49 -12 -116 -12 q-115 0 -170 36 q-70 46 -70 137 q0 3 4 51 l27 222 l240 0 l-21 -172 q-5 -15 -3.5 -36 q1.5 -21 17.5 -33 q17 -13 53 -13 q30 0 62 6 l30 248 l242 0 l-82 -667 l-242 0 ZM227 762 q-29 29 -29 71 q0 42 29 71 q29 29 71 29 q42 0 71 -29 q29 -29 29 -71 q0 -42 -29 -71 q-29 -29 -71 -29 q-42 0 -71 29 ZM474 762 q-29 29 -29 71 q0 42 29 71 q29 29 71 29 q42 0 71 -29 q29 -29 29 -71 q0 -42 -29 -71 q-29 -29 -71 -29 q-42 0 -71 29 Z" /><glyph glyph-name="uni04F5" unicode="&#x4f5;" d="M307 0 l17 141 q-46 -10 -94 -10 q-92 0 -138 32 q-60 42 -50 134 l21 170 l227 0 l-15 -126 q-4 -32 9 -42 q9 -8 30 -8 q15 0 29 6 l21 170 l232 0 l-57 -467 l-232 0 ZM115 642 q0 43 30 73 q30 30 72 30 q43 0 73 -30 q30 -30 30 -73 q0 -42 -30 -72 q-30 -30 -73 -30 q-42 0 -72 30 q-30 30 -30 72 ZM362 642 q0 43 30 73 q30 30 72 30 q43 0 73 -30 q30 -30 30 -73 q0 -42 -30 -72 q-30 -30 -73 -30 q-42 0 -72 30 q-30 30 -30 72 Z" /><glyph glyph-name="uni04F8" unicode="&#x4f8;" d="M912 0 l-242 0 l82 667 l242 0 l-82 -667 ZM39 0 l83 667 l242 0 l-31 -254 l78 0 q138 0 195 -56 q50 -48 50 -134 q0 -116 -83 -175 q-68 -48 -208 -48 l-326 0 ZM301 156 l23 0 q50 0 71 10 q29 14 29 50 q0 26 -19 37 q-17 10 -62 10 l-29 0 l-13 -107 ZM377 762 q-29 29 -29 71 q0 42 29 71 q29 29 71 29 q42 0 71 -29 q29 -29 29 -71 q0 -42 -29 -71 q-29 -29 -71 -29 q-42 0 -71 29 ZM624 762 q-29 29 -29 71 q0 42 29 71 q29 29 71 29 q42 0 71 -29 q29 -29 29 -71 q0 -42 -29 -71 q-29 -29 -71 -29 q-42 0 -71 29 Z" /><glyph glyph-name="uni04F9" unicode="&#x4f9;" d="M579 0 l57 467 l228 0 l-57 -467 l-228 0 ZM289 311 l99 0 q92 0 134 -39 q42 -38 42 -107 q0 -67 -43 -112 q-53 -53 -174 -53 l-327 0 l56 467 l232 0 l-19 -156 ZM265 116 l36 0 q29 0 43 11 q16 12 16 37 q0 18 -12 27 q-12 8 -36 8 l-37 0 l-10 -83 ZM245 642 q0 43 30 73 q30 30 72 30 q43 0 73 -30 q30 -30 30 -73 q0 -42 -30 -72 q-30 -30 -73 -30 q-42 0 -72 30 q-30 30 -30 72 ZM492 642 q0 43 30 73 q30 30 72 30 q43 0 73 -30 q30 -30 30 -73 q0 -42 -30 -72 q-30 -30 -73 -30 q-42 0 -72 30 q-30 30 -30 72 Z" /><glyph glyph-name="uni1E9E" unicode="&#x1e9e;" d="M39 0 l51 416 q9 69 29.5 114.5 q20.5 45.5 66.5 86.5 q72 65 204 65 q97 0 151 -34 q58 -36 78 -85 q19 -47 15 -89 l-96 -102 q42 -15 65 -40 q36 -37 36 -99 q0 -56 -23 -107.5 q-23 -51.5 -68 -83.5 q-28 -21 -75 -31 q-47 -10 -69.5 -10.5 q-22.5 -0.5 -69.5 -0.5 l-18 0 l19 157 q37 0 51 10 q28 19 28 70 q0 29 -21 42 q-14 9 -42 12 l13 99 l51 63 q0 23 -7 32 q-12 15 -33 15 q-26 0 -41 -15 q-14 -14 -17 -41 l-54 -444 l-224 0 Z" /><glyph glyph-name="uni2010" unicode="&#x2010;" d="M356 175 l-315 0 l23 180 l315 0 l-23 -180 Z" /><glyph glyph-name="uni2011" unicode="&#x2011;" d="M356 175 l-315 0 l23 180 l315 0 l-23 -180 Z" /><glyph glyph-name="figuredash" unicode="&#x2012;" d="M63 266 l19 150 l434 0 l-19 -150 l-434 0 Z" /><glyph glyph-name="endash" unicode="&#x2013;" d="M63 190 l19 150 l434 0 l-19 -150 l-434 0 Z" /><glyph glyph-name="emdash" unicode="&#x2014;" d="M856 190 l-793 0 l19 150 l793 0 l-19 -150 Z" /><glyph glyph-name="afii00208" unicode="&#x2015;" d="M856 190 l-793 0 l19 150 l793 0 l-19 -150 Z" /><glyph glyph-name="quoteleft" unicode="&#x2018;" d="M51 337 l198 330 l178 0 l-147 -330 l-229 0 Z" /><glyph glyph-name="quoteright" unicode="&#x2019;" d="M433 667 l-188 -330 l-178 0 l147 330 l219 0 Z" /><glyph glyph-name="quotesinglbase" unicode="&#x201a;" d="M139 183 l233 0 l-187 -343 l-178 0 l132 343 Z" /><glyph glyph-name="quotedblleft" unicode="&#x201c;" d="M337 337 l188 330 l178 0 l-148 -330 l-218 0 ZM60 337 l188 330 l178 0 l-147 -330 l-219 0 Z" /><glyph glyph-name="quotedblright" unicode="&#x201d;" d="M433 667 l-188 -330 l-178 0 l147 330 l219 0 ZM709 667 l-188 -330 l-178 0 l148 330 l218 0 Z" /><glyph glyph-name="quotedblbase" unicode="&#x201e;" d="M373 170 l-188 -330 l-178 0 l148 330 l218 0 ZM650 170 l-188 -330 l-178 0 l147 330 l219 0 Z" /><glyph glyph-name="dagger" unicode="&#x2020;" d="M402 -193 l-194 0 l69 564 l-171 0 l21 168 l171 0 l23 190 l195 0 l-24 -190 l171 0 l-21 -168 l-170 0 l-70 -564 Z" /><glyph glyph-name="daggerdbl" unicode="&#x2021;" d="M257 208 l22 183 l-164 0 l21 168 l164 0 l21 170 l195 0 l-21 -170 l164 0 l-21 -168 l-164 0 l-22 -183 l164 0 l-21 -168 l-164 0 l-29 -233 l-194 0 l28 233 l-164 0 l21 168 l164 0 Z" /><glyph glyph-name="bullet" unicode="&#x2022;" d="M416 241 q-40 41 -40 99 q0 58 40 99 q40 41 97 41 q57 0 98 -41 q41 -41 41 -99 q0 -58 -41 -99 q-41 -41 -98 -41 q-57 0 -97 41 Z" /><glyph glyph-name="ellipsis" unicode="&#x2026;" d="M70 176 q40 35 94 35 q54 0 91.5 -32.5 q37.5 -32.5 37.5 -78.5 q0 -47 -39 -80 q-39 -33 -96 -33 q-55 0 -91.5 30.5 q-36.5 30.5 -36.5 75.5 q0 48 40 83 ZM425 176 q40 35 94 35 q54 0 91.5 -32.5 q37.5 -32.5 37.5 -78.5 q0 -47 -39 -80 q-39 -33 -96 -33 q-55 0 -91.5 30.5 q-36.5 30.5 -36.5 75.5 q0 48 40 83 ZM780 176 q40 35 94 35 q54 0 91.5 -32.5 q37.5 -32.5 37.5 -78.5 q0 -47 -39 -80 q-39 -33 -96 -33 q-55 0 -91.5 30.5 q-36.5 30.5 -36.5 75.5 q0 48 40 83 Z" /><glyph glyph-name="perthousand" unicode="&#x2030;" d="M267 683 q87 0 152.5 -49 q65.5 -49 65.5 -133 q0 -81 -63.5 -136 q-63.5 -55 -155.5 -55 q-93 0 -151.5 51 q-58.5 51 -58.5 133 q0 83 59 136 q59 53 152 53 ZM312 507 q0 17 -10.5 28.5 q-10.5 11.5 -24.5 11.5 q-18 0 -31 -15.5 q-13 -15.5 -13 -35.5 q0 -17 10.5 -29 q10.5 -12 24.5 -12 q19 0 31.5 15 q12.5 15 12.5 37 ZM720 667 l120 0 l-470 -667 l-121 0 l471 667 ZM812 357 q84 0 151 -48.5 q67 -48.5 67 -134.5 q0 -81 -63 -136 q-63 -55 -156 -55 q-93 0 -151.5 51.5 q-58.5 51.5 -58.5 132.5 q0 83 59 136.5 q59 53.5 152 53.5 ZM857 180 q0 18 -10 29 q-10 11 -25 11 q-18 0 -31 -15 q-13 -15 -13 -36 q0 -16 10.5 -28 q10.5 -12 24.5 -12 q19 0 31.5 14.5 q12.5 14.5 12.5 36.5 ZM1291 357 q84 0 151 -48.5 q67 -48.5 67 -134.5 q0 -81 -63 -136 q-63 -55 -156 -55 q-93 0 -151.5 51.5 q-58.5 51.5 -58.5 132.5 q0 83 59 136.5 q59 53.5 152 53.5 ZM1336 180 q0 18 -10 29 q-10 11 -25 11 q-18 0 -31 -15 q-13 -15 -13 -36 q0 -16 10.5 -28 q10.5 -12 24.5 -12 q19 0 31.5 14.5 q12.5 14.5 12.5 36.5 Z" /><glyph glyph-name="guilsinglleft" unicode="&#x2039;" d="M275 67 l-96 -62 l-144 222 l192 230 l85 -71 l-142 -161 l105 -158 Z" /><glyph glyph-name="guilsinglright" unicode="&#x203a;" d="M65 395 l96 62 l141 -222 l-192 -230 l-84 71 l141 159 l-102 160 Z" /><glyph glyph-name="fraction" unicode="&#x2044;" d="M321 667 l130 0 l-470 -667 l-131 0 l471 667 Z" /><glyph glyph-name="Euro" unicode="&#x20ac;" d="M650 228 l-25 -203 q-90 -42 -208 -42 q-140 0 -226 73 q-76 64 -95 161 l-95 0 l47 90 l41 0 l3 43 l-76 0 l47 90 l51 0 q37 112 130 176 q96 67 241 67 q125 0 230 -56 l-84 -157 q-58 42 -141 42 q-53 0 -88 -20 q-32 -18 -52 -52 l268 0 l-47 -90 l-244 0 l-4 -43 l239 0 l-47 -90 l-176 0 q14 -34 48 -49 q32 -15 81 -15 q57 0 102 19 q49 21 80 56 Z" /><glyph glyph-name="uni20B4" unicode="&#x20b4;" d="M204 513 l-47 123 q112 46 249 46 q116 0 170 -33 q56 -34 56 -95 q0 -53 -38 -87 l72 0 l-12 -102 l-151 0 l-85 -71 l227 0 l-12 -102 l-296 0 q-19 -18 -19 -40 q0 -19 14 -29 q16 -12 63 -12 q69 0 152 33 l46 -121 q-118 -44 -259 -44 q-130 0 -185 33 q-56 35 -56 95 q0 49 33 85 l-56 0 l12 102 l135 0 l85 71 l-211 0 l12 102 l284 0 q18 16 18 37 q0 16 -15 29 q-15 13 -50 13 q-64 0 -136 -33 Z" /><glyph glyph-name="uni20B6" unicode="&#x20b6;&#x20b7;&#x20b9;&#x20ba;&#x20bb;&#x20bc;&#x20bd;&#x20be;&#x20bf;&#x20c0;&#x20c1;&#x20c2;&#x20c3;&#x20c4;&#x20c5;&#x20c6;&#x20c7;&#x20c8;&#x20c9;&#x20ca;&#x20cb;&#x20cc;&#x20cd;&#x20ce;&#x20cf;" d="M167 667 l268 0 q126 0 195 -48 q42 -29 61.5 -71.5 q19.5 -42.5 19.5 -83.5 q0 -97 -70 -162 q-40 -37 -88.5 -50 q-48.5 -13 -118.5 -13 l-87 0 l-8 -62 l180 0 l-12 -102 l-180 0 l-10 -75 l-232 0 l10 75 l-82 0 l12 102 l82 0 l8 62 l-82 0 l16 130 l82 0 l36 298 ZM402 493 l-25 0 l-15 -124 l22 0 q52 0 74 23 q18 20 18 48 q0 26 -17 39 q-17 14 -57 14 Z" /><glyph glyph-name="uni20B8" unicode="&#x20b8;" d="M153 500 l467 0 l-26 -187 l-106 7 l-37 -320 l-245 0 l37 320 l-115 -7 l25 187 ZM623 546 l-465 0 l14 121 l467 0 l-16 -121 Z" /><glyph glyph-name="afii61352" unicode="&#x2116;" d="M554 667 l245 0 l-82 -667 l-234 0 l-116 230 q-13 26 -23 49 q-10 23 -14 34.5 q-4 11.5 -9 29 q-5 17.5 -7 22.5 l-4 12 l-8 0 q4 -55 4 -84 q0 -30 -6 -94 l-18 -199 l-243 0 l82 667 l243 0 l118 -251 q27 -57 48 -140 l10 1 l-2 22 q-5 62 -5 88 q0 25 4 83 l17 197 ZM844 498 q0 71 51 117 q56 52 150 52 q83 0 128 -39 q49 -41 49 -109 q0 -71 -51 -118 q-54 -49 -146 -49 q-83 0 -129 37 q-52 41 -52 109 ZM829 291 l361 0 l-15 -126 l-361 0 l15 126 ZM1033 461 q23 0 36 15 q13 14 13 38 q0 21 -12 33 q-11 11 -34 11 q-23 0 -36 -12 q-16 -14 -16 -38 q0 -21 14 -35 q14 -12 35 -12 Z" /><glyph glyph-name="uni2117" unicode="&#x2117;" d="M415 158 l-138 0 l0 353 l163 0 q85 0 125 -38 q36 -34 36 -94 q0 -65 -47 -97 q-35 -22 -108 -22 l-31 0 l0 -102 ZM414 409 l0 -52 l13 0 q19 0 27 7 q7 7 7 18 q0 13 -9 20 q-8 7 -23 7 l-15 0 ZM676 579 q103 -101 103 -249 q0 -148 -103 -249 q-47 -46 -113.5 -74.5 q-66.5 -28.5 -135.5 -28.5 q-69 0 -136 28.5 q-67 28.5 -114 74.5 q-103 101 -103 249 q0 148 103 249 q47 46 114 74.5 q67 28.5 136 28.5 q69 0 135.5 -28.5 q66.5 -28.5 113.5 -74.5 ZM426 610 q-107 0 -185 -75 q-87 -82 -87 -205 q0 -123 87 -205 q78 -75 185 -75 q108 0 186 75 q87 82 87 205 q0 123 -87 205 q-78 75 -186 75 Z" /><glyph glyph-name="trademark" unicode="&#x2122;" d="M51 667 l293 0 l-15 -129 l-64 3 l-32 -254 l-160 0 l31 254 l-69 -3 l16 129 ZM678 667 l164 0 l6 -380 l-155 0 l10 159 l-69 -159 l-101 0 l-23 162 l-38 -162 l-161 0 l117 380 l164 0 l17 -120 q3 -13 4 -41 q9 28 24 66 l41 95 Z" /><glyph glyph-name="partialdiff" unicode="&#x2202;" d="M82 567 l17 110 q85 -6 167.5 -35 q82.5 -29 140.5 -84 q63 -59 89 -136 q26 -77 26 -147 q0 -137 -76 -218 q-65 -69 -175 -69 q-105 0 -172 64 q-70 69 -70 169 q0 96 67 161 q58 57 145 57 q71 0 123 -40 q-34 80 -106 120 q-73 41 -176 48 ZM276 110 q40 0 68 27 q34 34 34 82 q0 52 -35 82 q-27 24 -71 24 q-42 0 -70 -25 q-35 -32 -35 -81 q0 -47 32 -79 q30 -30 77 -30 Z" /><glyph glyph-name="product" unicode="&#x220f;" d="M43 624 l0 126 l669 0 l0 -126 l-82 0 l0 -748 l82 0 l0 -126 l-301 0 l0 126 l73 0 l0 748 l-212 0 l0 -748 l71 0 l0 -126 l-300 0 l0 126 l83 0 l0 748 l-83 0 Z" /><glyph glyph-name="summation" unicode="&#x2211;" d="M21 750 l599 0 l0 -247 l-117 0 l-13 121 l-307 0 l250 -357 l-250 -391 l316 0 l8 124 l122 0 l0 -250 l-608 0 l0 130 l243 387 l-243 353 l0 130 Z" /><glyph glyph-name="minus" unicode="&#x2212;" d="M47 280 l0 120 l433 0 l0 -120 l-433 0 Z" /><glyph glyph-name="fraction" unicode="&#x2215;" d="M-82 -193 l631 922 l173 0 l-632 -922 l-172 0 Z" /><glyph glyph-name="periodcentered" unicode="&#x2219;" d="M54 415 q42 37 99 37 q57 0 96.5 -34 q39.5 -34 39.5 -83 q0 -50 -41.5 -84.5 q-41.5 -34.5 -100.5 -34.5 q-58 0 -96.5 32 q-38.5 32 -38.5 80 q0 50 42 87 Z" /><glyph glyph-name="radical" unicode="&#x221a;" d="M415 827 l291 0 l0 -117 l-178 0 l-165 -710 l-173 0 l-56 271 l-95 0 l0 116 l202 0 l18 -84 q1 -5 3 -15 q5 -37 6 -58 q4 -39 4 -73 l11 0 q3 39 7 73 q14 123 36 217 l89 380 Z" /><glyph glyph-name="infinity" unicode="&#x221e;" d="M502 176 q-82 0 -152 79 q-73 -79 -156 -79 q-72 0 -118 46 q-46 46 -46 117 q0 71 46 117 q46 46 117 46 q42 0 76.5 -18 q34.5 -18 74.5 -60 q70 78 156 78 q72 0 118 -45.5 q46 -45.5 46 -116.5 q0 -72 -45.5 -118 q-45.5 -46 -116.5 -46 ZM480 386 q-34 0 -69 -47 q35 -46 69 -46 q21 0 35.5 13.5 q14.5 13.5 14.5 33.5 q0 19 -15 32.5 q-15 13.5 -35 13.5 ZM215 293 q33 0 68 46 q-35 46 -69 46 q-21 0 -35.5 -13.5 q-14.5 -13.5 -14.5 -32.5 q0 -19 15 -32.5 q15 -13.5 36 -13.5 Z" /><glyph glyph-name="integral" unicode="&#x222b;" d="M143 -250 q-35 0 -94 10 l24 116 q32 -10 55 -10 q31 0 44.5 16.5 q13.5 16.5 13.5 54.5 l0 18 l0 44 l0 476 q0 114 6 150 q6 36 30 66 q47 59 143 59 q35 0 91 -10 l-23 -116 q-33 10 -56 10 q-30 0 -44 -17 q-14 -17 -14 -54 l0 -62 l0 -67 l0 -409 q0 -113 -6 -149.5 q-6 -36.5 -30 -66.5 q-47 -59 -140 -59 Z" /><glyph glyph-name="approxequal" unicode="&#x2248;" d="M164 401 q-25 0 -39.5 -12 q-14.5 -12 -33.5 -49 l-71 47 q24 61 49 91 q39 48 103 48 q29 0 103 -26 q65 -24 86 -24 q24 0 39 11 q15 11 33 41 l73 -43 q-25 -54 -44.5 -78 q-19.5 -24 -49.5 -40 q-31 -16 -65 -16 q-27 0 -102 28 q-64 22 -81 22 ZM164 198 q-25 0 -39.5 -12.5 q-14.5 -12.5 -33.5 -48.5 l-71 46 q24 62 49 92 q39 48 103 48 q29 0 103 -26 q65 -24 86 -24 q24 0 39 10.5 q15 10.5 33 40.5 l73 -42 q-25 -54 -44.5 -78 q-19.5 -24 -49.5 -40 q-31 -16 -65 -16 q-26 0 -102 27 q-63 23 -81 23 Z" /><glyph glyph-name="notequal" unicode="&#x2260;" d="M45 471 l228 0 l55 108 l102 0 l-54 -108 l102 0 l0 -116 l-155 0 l-33 -67 l188 0 l0 -117 l-241 0 l-49 -95 l-102 0 l47 95 l-88 0 l0 117 l141 0 l34 67 l-175 0 l0 116 Z" /><glyph glyph-name="lessequal" unicode="&#x2264;" d="M46 353 l0 109 l434 207 l-1 -121 l-296 -141 l297 -141 l0 -121 l-434 208 ZM46 0 l0 117 l434 0 l0 -117 l-434 0 Z" /><glyph glyph-name="greaterequal" unicode="&#x2265;" d="M480 353 l-434 -208 l0 121 l297 141 l-296 141 l-1 121 l434 -207 l0 -109 ZM480 0 l-434 0 l0 117 l434 0 l0 -117 Z" /><glyph glyph-name="dotmath" unicode="&#x22c5;" d="M54 415 q42 37 99 37 q57 0 96.5 -34 q39.5 -34 39.5 -83 q0 -50 -41.5 -84.5 q-41.5 -34.5 -100.5 -34.5 q-58 0 -96.5 32 q-38.5 32 -38.5 80 q0 50 42 87 Z" /><glyph glyph-name="lozenge" unicode="&#x25ca;" d="M87 334 l259 359 l260 -359 l-260 -360 l-259 360 ZM454 334 l-108 148 l-107 -148 l107 -148 l108 148 Z" /><glyph glyph-name="openbullet" unicode="&#x25e6;" d="M286 363 q-66 0 -111 45 q-45 45 -45 108 q0 62 45 106 q46 45 108 45 q64 0 110 -44 q45 -43 45 -107 q0 -63 -45 -108 q-45 -45 -107 -45 ZM234.5 563 q-20.5 -20 -20.5 -48 q0 -28 20.5 -48 q20.5 -20 49.5 -20 q29 0 49.5 20 q20.5 20 20.5 48 q0 28 -20.5 48 q-20.5 20 -49.5 20 q-29 0 -49.5 -20 Z" /><glyph glyph-name="uniF400" unicode="&#xf400;" d="M-141 641 l-149 -108 l-75 70 l127 120 l97 -82 Z" /><glyph glyph-name="uniF401" unicode="&#xf401;" d="M-141 824 l-149 -108 l-75 70 l127 120 l97 -82 Z" /><glyph glyph-name="uniF406" unicode="&#xf406;" d="M382 875 l102 0 q-11 -61 -53 -103 q-50 -49 -133 -49 q-70 0 -112 31 q-54 39 -56 121 l102 0 q4 -26 19 -40 q16 -16 52 -16 q31 0 51 15 q20 15 28 41 Z" /><glyph glyph-name="uniF407" unicode="&#xf407;" d="M118 -190 l152 147 l116 -82 l-158 -143 l-110 78 Z" /><glyph glyph-name="uniF408" unicode="&#xf408;" d="M180 716 l-55 101 l187 101 l161 -115 l-66 -87 l-98 70 l-129 -70 Z" /><glyph glyph-name="uniF409" unicode="&#xf409;" d="M367 -62 l-125 -212 l-155 0 l84 212 l196 0 Z" /><glyph glyph-name="uniF40A" unicode="&#xf40a;" d="M426 667 l-126 -218 l-152 0 l85 218 l193 0 Z" /><glyph glyph-name="uniF40B" unicode="&#xf40b;" d="M198 825 q0 43 30 73 q30 30 73 30 q42 0 72 -30 q30 -30 30 -73 q0 -42 -30 -72 q-30 -30 -72 -30 q-43 0 -73 30 q-30 30 -30 72 Z" /><glyph glyph-name="uniF40C" unicode="&#xf40c;" d="M434 826 q0 -51 -40 -81 q-36 -28 -104 -28 q-68 0 -103 27 q-41 31 -41 82 q0 49 40 80 q36 28 104 28 q69 0 104 -28 q40 -32 40 -80 ZM290 860 q-22 0 -35 -8 q-15 -10 -15 -28 q0 -16 15 -25 q13 -8 35 -8 q22 0 36 8 q14 8 14 27 q0 16 -14 26 q-13 8 -36 8 Z" /><glyph glyph-name="uniF40D" unicode="&#xf40d;" d="M363 829 q12 0 19 5.5 q7 5.5 15 22.5 l83 -42 q-34 -51 -57.5 -69.5 q-23.5 -18.5 -54.5 -18.5 q-19 0 -58 13 l-34 12 q-21 6 -28 6 q-27 0 -39 -31 l-90 28 q33 56 64.5 79 q31.5 23 74.5 23 q25 0 70 -18 q26 -10 35 -10 Z" /><glyph glyph-name="uniF40E" unicode="&#xf40e;" d="M335 0 q-19 -14 -40 -34 q-20 -23 -20 -43 q0 -13 10 -23 q9 -9 28 -9 q36 0 63 25 l-33 -95 q-42 -23 -95 -23 q-49 0 -73 22 q-24 21 -24 59 q0 43 39 80 q23 22 55 41 l90 0 Z" /><glyph glyph-name="afii10017.var.accented" unicode="&#xf460;" d="M428 89 l-164 0 l-32 -89 l-260 0 l308 667 l276 0 l124 -667 l-247 0 l-5 89 ZM365 362 l-45 -121 l92 0 l-10 121 q-2 22 -2 47 q0 20 3 53 l-8 0 q-13 -55 -30 -100 ZM317 779 l127 137 l117 -73 l-157 -119 l-87 55 Z" /><glyph glyph-name="afii10022.var.accented" unicode="&#xf461;" d="M121 667 l438 0 l-21 -174 l-197 0 l-9 -73 l180 0 l-20 -165 l-180 0 l-9 -76 l204 0 l-22 -179 l-446 0 l82 667 ZM247 779 l127 137 l117 -73 l-157 -119 l-87 55 Z" /><glyph glyph-name="afii10026.var.accented" unicode="&#xf462;" d="M121 667 l238 0 l-26 -204 q-10 -78 -32 -140 l10 -5 q33 64 73 120 l166 229 l221 0 l-82 -667 l-238 0 l21 172 q8 68 32 153 l-10 2 q-26 -51 -75 -117 l-159 -210 l-221 0 l82 667 ZM345 779 l127 137 l117 -73 l-157 -119 l-87 55 Z" /><glyph glyph-name="afii10032.var.accented" unicode="&#xf463;" d="M675 591 q111 -91 111 -252 q0 -152 -104.5 -254 q-104.5 -102 -260.5 -102 q-158 0 -265.5 98 q-107.5 98 -107.5 243 q0 151 106.5 255 q106.5 104 261.5 104 q150 0 259 -92 ZM410 193 q57 0 94.5 40.5 q37.5 40.5 37.5 101.5 q0 53 -34 90 q-34 37 -84 37 q-55 0 -93.5 -41 q-38.5 -41 -38.5 -99 q0 -56 33.5 -92.5 q33.5 -36.5 84.5 -36.5 ZM357 779 l127 137 l117 -73 l-157 -119 l-87 55 Z" /><glyph glyph-name="afii10037.var.accented" unicode="&#xf464;" d="M40 667 l259 0 l72 -188 q15 -39 17 -73 l8 0 q11 43 26 75 l90 186 l263 0 l-389 -667 l-266 0 l87 153 q25 44 53 73 l-220 441 ZM310 779 l127 137 l117 -73 l-157 -119 l-87 55 Z" /><glyph glyph-name="afii10045.var.accented" unicode="&#xf465;" d="M912 0 l-242 0 l82 667 l242 0 l-82 -667 ZM39 0 l83 667 l242 0 l-31 -254 l78 0 q138 0 195 -56 q50 -48 50 -134 q0 -116 -83 -175 q-68 -48 -208 -48 l-326 0 ZM301 156 l23 0 q50 0 71 10 q29 14 29 50 q0 26 -19 37 q-17 10 -62 10 l-29 0 l-13 -107 ZM456 779 l127 137 l117 -73 l-157 -119 l-87 55 Z" /><glyph glyph-name="afii10047.var.accented" unicode="&#xf466;" d="M30 38 l26 211 q29 -31 72 -53 q46 -23 103 -23 q60 0 96 19 q44 23 60 72 l-219 0 l18 146 l217 0 q-14 41 -51 62 q-36 21 -93 21 q-60 0 -108 -26 q-40 -21 -75 -56 l28 222 q99 50 205 50 q160 0 251 -89 q88 -86 88 -235 q0 -175 -110 -280 q-100 -96 -271 -96 q-131 0 -237 55 ZM238 779 l127 137 l117 -73 l-157 -119 l-87 55 Z" /><glyph glyph-name="afii10048.var.accented" unicode="&#xf467;" d="M335 439 l81 0 q29 102 107 166 q96 78 230 78 q82 0 155.5 -29.5 q73.5 -29.5 123.5 -81.5 q89 -93 89 -233 q0 -149 -103 -252 q-104 -104 -275 -104 q-129 0 -220 62 q-104 71 -123 198 l-90 0 l-29 -243 l-242 0 l82 667 l242 0 l-28 -228 ZM745 193 q55 0 90 35 q19 19 30.5 49 q11.5 30 11.5 58 q0 57 -37 94 q-33 33 -81 33 q-54 0 -92 -40 q-40 -40 -40 -100 q0 -64 41 -100 q32 -29 77 -29 ZM524 779 l127 137 l117 -73 l-157 -119 l-87 55 Z" /><glyph glyph-name="afii10049.var.accented" unicode="&#xf468;" d="M25 0 l181 251 q-45 8 -79 43 q-47 48 -47 124 q0 52 18 98 q18 46 48 76 q75 75 240 75 l308 0 l-82 -667 l-242 0 l17 141 q5 38 21 104 l-7 1 q-10 -54 -35 -99 l-83 -147 l-258 0 ZM417 376 l14 117 l-41 0 q-39 0 -58 -18 q-19 -19 -19 -51 q0 -24 20 -37 q18 -11 50 -11 l34 0 ZM336 779 l127 137 l117 -73 l-157 -119 l-87 55 Z" /><glyph glyph-name="afii10023.var.accented" unicode="&#xf469;" d="M121 667 l438 0 l-21 -174 l-197 0 l-9 -73 l180 0 l-20 -165 l-180 0 l-9 -76 l204 0 l-22 -179 l-446 0 l82 667 ZM345 911 l107 -31 l-120 -150 l-88 26 l101 155 ZM80 815 q0 35 23 57.5 q23 22.5 57 22.5 q37 0 58.5 -25 q21.5 -25 21.5 -55 q0 -32 -24 -56 q-24 -24 -56 -24 q-30 0 -55 21.5 q-25 21.5 -25 58.5 ZM451 815 q0 30 21.5 55 q21.5 25 58.5 25 q35 0 57.5 -22.5 q22.5 -22.5 22.5 -57.5 q0 -37 -25 -58.5 q-25 -21.5 -55 -21.5 q-32 0 -56 24 q-24 24 -24 56 Z" /><glyph glyph-name="afii10065.var.accented" unicode="&#xf46a;" d="M403 467 l230 0 l-58 -467 l-229 0 q7 30 25 83 l-7 3 q-30 -53 -64 -76 q-34 -23 -80 -23 q-79 0 -137 65 q-58 65 -58 153 q0 111 70.5 194.5 q70.5 83.5 163.5 83.5 q56 0 88.5 -23 q32.5 -23 52.5 -77 l8 3 q-5 41 -5 71 l0 10 ZM316 164 q28 0 46.5 21 q18.5 21 18.5 53 q0 26 -15.5 43.5 q-15.5 17.5 -39.5 17.5 q-27 0 -47 -22.5 q-20 -22.5 -20 -53.5 q0 -26 16 -42.5 q16 -16.5 41 -16.5 ZM307 596 l116 146 l117 -73 l-146 -128 l-87 55 Z" /><glyph glyph-name="afii10070.var.accented" unicode="&#xf46b;" d="M587 202 l-331 0 q-1 -6 -1 -17 q0 -29 14 -46 q14 -17 37 -17 q34 0 50 40 l222 0 q-14 -40 -27 -61 q-13 -21 -38 -43 q-82 -71 -205 -71 q-125 0 -202.5 67 q-77.5 67 -77.5 175 q0 113 82.5 189 q82.5 76 205.5 76 q116 0 195.5 -70.5 q79.5 -70.5 79.5 -173.5 q0 -6 -4 -48 ZM322 360 q-47 0 -57 -62 l108 0 q-1 62 -51 62 ZM290 596 l116 146 l117 -73 l-146 -128 l-87 55 Z" /><glyph glyph-name="afii10074.var.accented" unicode="&#xf46c;" d="M77 467 l228 0 l-20 -146 q-6 -49 -25 -91 l11 -4 q12 27 33 59 l124 182 l227 0 l-57 -467 l-228 0 l19 140 q6 48 19 92 l-10 4 q-15 -30 -42 -70 l-109 -166 l-227 0 l57 467 ZM317 596 l116 146 l117 -73 l-146 -128 l-87 55 Z" /><glyph glyph-name="afii10080.var.accented" unicode="&#xf46d;" d="M329 493 q135 0 213 -78 q69 -67 69 -171 q0 -102 -71 -174 q-81 -83 -216 -83 q-141 0 -223 80 q-72 69 -72 169 q0 101 69 172 q40 40 101 62.5 q61 22.5 130 22.5 ZM318 169 q25 0 41 16 q23 23 23 59 q0 33 -20 51 q-17 15 -38 15 q-26 0 -43 -17 q-23 -23 -23 -58 q0 -30 21 -51 q17 -15 39 -15 ZM299 596 l116 146 l117 -73 l-146 -128 l-87 55 Z" /><glyph glyph-name="afii10085.var.accented" unicode="&#xf46e;" d="M381 467 l249 0 l-363 -696 l-248 0 l88 169 q35 61 65 96 l-141 431 l238 0 l20 -130 q7 -43 7 -75 q0 -24 -2 -48 l10 -1 q15 78 34 131 l43 123 ZM270 596 l116 146 l117 -73 l-146 -128 l-87 55 Z" /><glyph glyph-name="afii10093.var.accented" unicode="&#xf46f;" d="M579 0 l57 467 l228 0 l-57 -467 l-228 0 ZM289 311 l99 0 q92 0 134 -39 q42 -38 42 -107 q0 -67 -43 -112 q-53 -53 -174 -53 l-327 0 l56 467 l232 0 l-19 -156 ZM265 116 l36 0 q29 0 43 11 q16 12 16 37 q0 18 -12 27 q-12 8 -36 8 l-37 0 l-10 -83 ZM423 596 l116 146 l117 -73 l-146 -128 l-87 55 Z" /><glyph glyph-name="afii10095.var.accented" unicode="&#xf470;" d="M30 29 l19 158 q26 -29 58 -44 q34 -16 74 -16 q45 0 73 17 q26 16 34 43 l-167 0 l13 110 l161 0 q-14 27 -41 42 q-26 13 -60 13 q-40 0 -75 -17 q-34 -16 -56 -38 l20 165 q83 30 160 30 q134 0 203 -69 q65 -65 65 -173 q0 -120 -74 -192 q-72 -70 -212 -70 q-114 0 -195 41 ZM179 596 l116 146 l117 -73 l-146 -128 l-87 55 Z" /><glyph glyph-name="afii10096.var.accented" unicode="&#xf471;" d="M276 318 l63 0 q27 81 96 127 q71 48 169 48 q137 0 215 -78 q67 -67 67 -163 q0 -112 -73 -186 q-78 -79 -227 -79 q-111 0 -175 46 q-64 48 -83 127 l-70 0 l-20 -160 l-218 0 l57 467 l218 0 l-19 -149 ZM593 169 q25 0 41 16 q23 21 23 58 q0 32 -20 52 q-17 15 -38 15 q-26 0 -43 -17 q-23 -23 -23 -58 q0 -30 21 -51 q17 -15 39 -15 ZM437 596 l116 146 l117 -73 l-146 -128 l-87 55 Z" /><glyph glyph-name="afii10097.var.accented" unicode="&#xf472;" d="M10 0 l130 158 q-36 7 -61 32 q-33 34 -33 91 q0 81 50 131 q56 55 179 55 l332 0 l-57 -467 l-230 0 l17 138 l-6 0 l-92 -138 l-229 0 ZM351 250 l11 95 l-31 0 q-34 0 -50 -15 q-15 -13 -15 -39 q0 -19 13 -30 q14 -11 38 -11 l34 0 ZM294 596 l116 146 l117 -73 l-146 -128 l-87 55 Z" /><glyph glyph-name="afii10071.var.accented" unicode="&#xf473;" d="M587 202 l-331 0 q-1 -6 -1 -17 q0 -29 14 -46 q14 -17 37 -17 q34 0 50 40 l222 0 q-14 -40 -27 -61 q-13 -21 -38 -43 q-82 -71 -205 -71 q-125 0 -202.5 67 q-77.5 67 -77.5 175 q0 113 82.5 189 q82.5 76 205.5 76 q116 0 195.5 -70.5 q79.5 -70.5 79.5 -173.5 q0 -6 -4 -48 ZM322 360 q-47 0 -57 -62 l108 0 q-1 62 -51 62 ZM202 602 l116 146 l96 -63 l-146 -128 l-66 45 ZM72 612 q-23 23 -23 55 q0 32 23 55 q23 23 55 23 q32 0 54.5 -23 q22.5 -23 22.5 -55 q0 -32 -22.5 -55 q-22.5 -23 -54.5 -23 q-32 0 -55 23 ZM454.5 612 q-22.5 23 -22.5 55 q0 32 22.5 55 q22.5 23 54.5 23 q32 0 55 -23 q23 -23 23 -55 q0 -32 -23 -55 q-23 -23 -55 -23 q-32 0 -54.5 23 Z" /><glyph glyph-name="uniF4C6" unicode="&#xf4c6;" d="M469 667 l242 0 l-87 -709 q-13 -101 -58 -143 q-48 -45 -165 -45 q-65 0 -116 9 l18 146 q13 -8 28 -8 q23 0 34 11 q13 13 17 48 l34 257 q-49 -12 -116 -12 q-115 0 -170 36 q-70 46 -70 137 q0 3 4 51 l27 222 l240 0 l-21 -172 q-3 -27 -3 -31 q0 -26 17 -38 q17 -13 53 -13 q30 0 62 6 l30 248 Z" /><glyph glyph-name="uniF4C7" unicode="&#xf4c7;" d="M63 467 l227 0 l-15 -126 q-1 -5 -1 -15 q0 -20 10 -27 q9 -8 30 -8 q15 0 29 6 l21 170 l232 0 l-61 -497 q-13 -109 -56 -152 q-48 -48 -151 -48 q-59 0 -124 12 l18 148 q13 -10 33 -10 q23 0 35 14 q8 8 13 45 l21 162 q-46 -10 -94 -10 q-92 0 -138 32 q-52 36 -52 106 q0 12 2 28 l21 170 Z" /><glyph glyph-name="uniF4CC" unicode="&#xf4cc;" d="M40 667 l259 0 l72 -188 q15 -39 17 -73 l8 0 q11 43 26 75 l90 186 l263 0 l-389 -667 l-266 0 l87 153 q25 44 53 73 l-220 441 ZM346 779 l127 137 l117 -73 l-157 -119 l-87 55 Z" /><glyph glyph-name="uniF4CD" unicode="&#xf4cd;" d="M381 467 l249 0 l-363 -696 l-248 0 l88 169 q35 61 65 96 l-141 431 l238 0 l20 -130 q7 -43 7 -75 q0 -24 -2 -48 l10 -1 q15 78 34 131 l43 123 ZM241 596 l116 146 l117 -73 l-146 -128 l-87 55 Z" /><glyph glyph-name="dollar.fitted" unicode="&#xf5f5;" d="M480 773 l-12 -96 q80 -8 173 -49 l-77 -177 q-72 63 -162 63 q-82 0 -82 -45 q0 -18 11 -24 q11 -6 63 -16 q126 -22 172 -55 q68 -50 68 -143 q0 -113 -96 -182 q-35 -25 -66.5 -36 q-31.5 -11 -94.5 -21 l-14 -107 l-145 0 l14 107 q-64 9 -114 28 q-50 19 -99 48 l79 181 q44 -42 93 -63 q58 -25 114 -25 q44 0 68.5 13 q24.5 13 24.5 36 q0 19 -15 29 q-15 10 -52 15 q-116 15 -174 50 q-34 22 -54.5 62 q-20.5 40 -20.5 85 q0 90 63.5 150.5 q63.5 60.5 174.5 75.5 l12 96 l148 0 Z" /><glyph glyph-name="Euro.fitted" unicode="&#xf5f6;" d="M669 228 l-25 -203 q-90 -42 -208 -42 q-140 0 -226 73 q-76 64 -95 161 l-95 0 l47 90 l41 0 l3 43 l-76 0 l47 90 l51 0 q37 112 130 176 q96 67 241 67 q125 0 230 -56 l-84 -157 q-58 42 -141 42 q-53 0 -88 -20 q-32 -18 -52 -52 l268 0 l-47 -90 l-244 0 l-4 -43 l239 0 l-47 -90 l-176 0 q14 -34 48 -49 q32 -15 81 -15 q57 0 102 19 q49 21 80 56 Z" /><glyph glyph-name="cent.fitted" unicode="&#xf5f7;" d="M364 670 l-10 -84 q38 -3 71 -19 l-28 -193 q-32 41 -79 41 q-32 0 -53 -21 q-21 -22 -21 -53 q0 -29 19 -46 q20 -18 52 -18 q43 0 79 34 l-34 -191 q-34 -15 -66 -18 l-12 -92 l-104 0 l12 92 q-59 12 -103 53 q-69 65 -69 174 q0 117 77 192 q63 61 160 70 l9 79 l100 0 Z" /><glyph glyph-name="sterling.fitted" unicode="&#xf5f8;" d="M449 162 l126 0 q-4 -82 -53 -131 q-44 -44 -131 -44 q-57 0 -105 20 l-39 16 q-39 16 -54 16 q-25 0 -40 -15 q-9 -9 -14 -24 l-113 0 q5 62 40 111 q32 45 84 65 q4 13 7 67 l-120 0 l15 110 l83 0 q-20 53 -20 105 q0 89 63 152 q72 72 188 72 q114 0 174 -59 q51 -51 51 -136 q0 -27 -6 -59 l-154 0 q3 12 3 32 q0 37 -18 56 q-17 17 -43 17 q-33 0 -53 -20 q-22 -22 -22 -58 q0 -18 7.5 -45.5 q7.5 -27.5 10.5 -56.5 l133 0 l-15 -110 l-118 0 q0 -51 -20 -81 q8 -4 24 -11 q16 -7 21.5 -9.5 q5.5 -2.5 16.5 -7 q11 -4.5 16.5 -5.5 q5.5 -1 12.5 -2.5 q7 -1.5 14 -1.5 q22 0 33 10 q9 8 15 27 Z" /><glyph glyph-name="yen.fitted" unicode="&#xf5f9;" d="M477 247 l206 0 l-13 -108 l-206 0 l-17 -139 l-240 0 l17 139 l-196 0 l13 108 l196 0 l6 42 l-24 50 l-167 0 l14 108 l102 0 l-103 220 l265 0 l34 -109 q9 -33 13 -76 l8 0 q8 29 25 63 l61 122 l291 0 l-160 -220 l106 0 l-14 -108 l-171 0 l-41 -56 l-5 -36 Z" /><glyph glyph-name="florin.fitted" unicode="&#xf5fa;" d="M431 321 l-69 -292 q-25 -110 -77 -160 q-65 -62 -204 -62 q-41 0 -69 6 l40 169 l12 0 q46 0 66 14 q23 16 32 57 l66 268 l-60 0 l31 124 l60 0 l27 110 q8 30 14 48 q6 18 20 42.5 q14 24.5 34 42.5 q56 52 147 52 q53 0 107 -22 l-40 -167 q-20 12 -39 12 q-21 0 -33 -12 q-10 -8 -16 -32 l-18 -74 l69 0 l-31 -124 l-69 0 Z" /><glyph glyph-name="uni20B4.fitted" unicode="&#xf5fb;" d="M156 513 l-47 123 q112 46 249 46 q116 0 170 -33 q56 -34 56 -95 q0 -53 -38 -87 l72 0 l-12 -102 l-151 0 l-85 -71 l227 0 l-12 -102 l-296 0 q-19 -18 -19 -40 q0 -19 14 -29 q16 -12 63 -12 q70 0 152 33 l46 -121 q-118 -44 -259 -44 q-130 0 -185 33 q-56 35 -56 95 q0 49 33 85 l-56 0 l12 102 l135 0 l85 71 l-211 0 l12 102 l284 0 q18 16 18 37 q0 16 -15 29 q-15 13 -50 13 q-64 0 -136 -33 Z" /><glyph glyph-name="uni20B6.fitted" unicode="&#xf5fc;" d="M175 667 l268 0 q126 0 195 -48 q42 -29 61.5 -71.5 q19.5 -42.5 19.5 -83.5 q0 -97 -70 -162 q-40 -37 -88.5 -50 q-48.5 -13 -118.5 -13 l-87 0 l-8 -62 l180 0 l-12 -102 l-180 0 l-10 -75 l-232 0 l10 75 l-82 0 l12 102 l82 0 l8 62 l-82 0 l16 130 l82 0 l36 298 ZM410 493 l-25 0 l-15 -124 l22 0 q52 0 74 23 q18 20 18 48 q0 26 -17 39 q-17 14 -57 14 Z" /><glyph glyph-name="uni20B8.fitted" unicode="&#xf5fd;" d="M48 500 l467 0 l-26 -187 l-106 7 l-37 -320 l-245 0 l37 320 l-115 -7 l25 187 ZM518 546 l-465 0 l14 121 l467 0 l-16 -121 Z" /><glyph glyph-name="uniF639" unicode="&#xf639;" d="M362 683 q136 0 226 -93 q90 -93 90 -233 q0 -159 -97 -266.5 q-97 -107.5 -241 -107.5 q-136 0 -222 91.5 q-86 91.5 -86 235.5 q0 161 93.5 267 q93.5 106 236.5 106 ZM339 183 q41 0 70 56 q29 56 29 136 q0 47 -19 76 q-19 29 -50 29 q-38 0 -67.5 -55 q-29.5 -55 -29.5 -127 q0 -53 18 -84 q18 -31 49 -31 Z" /><glyph glyph-name="uniF63A" unicode="&#xf63a;" d="M572 190 l89 0 l-23 -190 l-614 0 l331 299 q29 26 44 41.5 q15 15.5 30 40.5 q15 25 15 48 q0 30 -17 45 q-15 13 -37 13 q-34 0 -51 -30 q-15 -27 -15 -57 l-244 0 q17 126 91 200 q85 83 233 83 q137 0 213 -71 q69 -65 69 -165 q0 -96 -72 -165 q-33 -31 -83 -60 q-39 -22 -95 -41 l3 -11 q34 12 61 16 q25 4 72 4 Z" /><glyph glyph-name="uniF63B" unicode="&#xf63b;" d="M67 100 q-20 29 -28.5 55 q-8.5 26 -14.5 76 l246 0 q-1 -7 -1 -16 q0 -28 17.5 -45.5 q17.5 -17.5 45.5 -17.5 q30 0 51 20 q21 20 21 48 q0 26 -18 43 q-18 17 -46 17 q-13 0 -23 -2 l17 137 q14 -3 20 -3 q25 0 41.5 15 q16.5 15 16.5 38 q0 22 -14.5 36.5 q-14.5 14.5 -34.5 14.5 q-46 0 -52 -55 l-232 0 q10 62 33 99 q27 43 67 69 q79 54 193 54 q119 0 196 -56 q77 -56 77 -142 q0 -52 -31.5 -88.5 q-31.5 -36.5 -83.5 -44.5 l0 -10 q50 -9 79.5 -47.5 q29.5 -38.5 29.5 -93.5 q0 -98 -83 -158 q-83 -60 -217 -60 q-91 0 -161.5 30.5 q-70.5 30.5 -110.5 86.5 Z" /><glyph glyph-name="uniF63C" unicode="&#xf63c;" d="M592 309 l92 0 l-23 -182 l-92 0 l-15 -127 l-223 0 l16 127 l-332 0 l22 182 l312 358 l287 0 l-44 -358 ZM334 309 l41 0 l7 56 q7 59 40 132 l-10 1 q-23 -45 -57 -87 l-46 -59 q-22 -26 -62 -57 l4 -7 q36 21 83 21 Z" /><glyph glyph-name="uniF63D" unicode="&#xf63d;" d="M202 667 l447 0 l-23 -188 l-274 0 l-18 -62 q43 12 84 12 q101 0 163 -60 q55 -55 55 -134 q0 -93 -67 -161 q-90 -91 -285 -91 q-81 0 -151 16 q-54 12 -107 35 l50 177 q46 -21 89 -33 q48 -13 107 -13 q56 0 85 15 q35 18 35 46 q0 38 -48 55 q-32 12 -92 12 q-56 0 -105 -12 q-36 -10 -57 -17 l112 403 Z" /><glyph glyph-name="uniF63E" unicode="&#xf63e;" d="M335 667 l339 0 l-186 -148 q-6 -4 -12 -9 q-6 -5 -8.5 -7.5 q-2.5 -2.5 -3.5 -2.5 q-11 -8 -30 -18 q-4 -2 -20 -8 l3 -13 q23 7 44 7 q83 0 137.5 -59.5 q54.5 -59.5 54.5 -149.5 q0 -119 -90 -197.5 q-90 -78.5 -227 -78.5 q-135 0 -222 77.5 q-87 77.5 -87 197.5 q0 113 81 205 q32 35 72 69 l155 135 ZM337 171 q35 0 58.5 25 q23.5 25 23.5 63 q0 33 -21 54 q-21 21 -54 21 q-34 0 -58.5 -25.5 q-24.5 -25.5 -24.5 -60.5 q0 -34 21 -55.5 q21 -21.5 55 -21.5 Z" /><glyph glyph-name="uniF63F" unicode="&#xf63f;" d="M117 667 l637 0 l-444 -667 l-275 0 l260 372 q47 67 88 101 l-3 7 q-25 -7 -41 -7 l-32 0 l-214 0 l24 194 Z" /><glyph glyph-name="uniF640" unicode="&#xf640;" d="M522 338 l-1 -8 q116 -26 116 -132 q0 -92 -84.5 -153.5 q-84.5 -61.5 -212.5 -61.5 q-132 0 -221 64 q-89 64 -89 159 q0 65 39 105 q39 40 109 46 l2 8 q-93 27 -93 120 q0 86 78.5 142 q78.5 56 197.5 56 q122 0 205.5 -58 q83.5 -58 83.5 -143 q0 -65 -47 -106 q-29 -26 -83 -38 ZM367 412 q23 0 39 15.5 q16 15.5 16 38.5 q0 22 -16 38 q-16 16 -38 16 q-22 0 -38 -16 q-16 -16 -16 -38 q0 -22 15.5 -38 q15.5 -16 37.5 -16 ZM334 145 q29 0 49 19.5 q20 19.5 20 47.5 q0 30 -19.5 50 q-19.5 20 -48.5 20 q-29 0 -49.5 -20 q-20.5 -20 -20.5 -48 q0 -28 20.5 -48.5 q20.5 -20.5 48.5 -20.5 Z" /><glyph glyph-name="uniF641" unicode="&#xf641;" d="M361 0 l-328 0 l150 121 q64 50 107 69 l-5 11 q-28 -7 -50 -7 q-85 0 -142.5 61 q-57.5 61 -57.5 152 q0 120 92 198 q92 78 233 78 q132 0 218 -77 q86 -77 86 -196 q0 -48 -17 -98 q-17 -50 -46 -87 q-26 -32 -75 -77 l-165 -148 ZM346 324 q35 0 60.5 28 q25.5 28 25.5 65 q0 33 -21.5 54.5 q-21.5 21.5 -54.5 21.5 q-36 0 -61 -25.5 q-25 -25.5 -25 -62.5 q0 -35 21.5 -58 q21.5 -23 54.5 -23 Z" /><glyph glyph-name="uniF6BA" unicode="&#xf6ba;" d="M356 251 l-315 0 l23 180 l315 0 l-23 -180 Z" /><glyph glyph-name="uniF6BB" unicode="&#xf6bb;" d="M63 266 l19 150 l434 0 l-19 -150 l-434 0 Z" /><glyph glyph-name="uniF6BC" unicode="&#xf6bc;" d="M856 266 l-793 0 l19 150 l793 0 l-19 -150 Z" /><glyph glyph-name="uniF6C3" unicode="&#xf6c3;" d="M367 -62 l-125 -212 l-155 0 l84 212 l196 0 Z" /><glyph glyph-name="uniF6C9" unicode="&#xf6c9;" d="M226 779 l127 137 l117 -73 l-157 -119 l-87 55 Z" /><glyph glyph-name="uniF6CA" unicode="&#xf6ca;" d="M418 918 l55 -101 l-187 -101 l-161 115 l67 87 l97 -70 l129 70 Z" /><glyph glyph-name="uniF6CB" unicode="&#xf6cb;" d="M107 762 q-29 29 -29 71 q0 42 29 71 q29 29 71 29 q42 0 71 -29 q29 -29 29 -71 q0 -42 -29 -71 q-29 -29 -71 -29 q-42 0 -71 29 ZM354 762 q-29 29 -29 71 q0 42 29 71 q29 29 71 29 q42 0 71 -29 q29 -29 29 -71 q0 -42 -29 -71 q-29 -29 -71 -29 q-42 0 -71 29 Z" /><glyph glyph-name="uniF6CE" unicode="&#xf6ce;" d="M160 843 l117 73 l126 -137 l-86 -55 l-157 119 Z" /><glyph glyph-name="uniF6CF" unicode="&#xf6cf;" d="M320 779 l111 137 l111 -73 l-143 -119 l-79 55 ZM102 779 l111 137 l111 -73 l-143 -119 l-79 55 Z" /><glyph glyph-name="uniF6D0" unicode="&#xf6d0;" d="M470 746 l-364 0 l12 104 l364 0 l-12 -104 Z" /><glyph glyph-name="uniF6D1" unicode="&#xf6d1;" d="M346 904 l138 -50 q-27 -67 -83 -99 q-53 -30 -142 -30 q-84 0 -137 30 q-57 35 -80 99 l144 50 q4 -32 23 -48 q18 -15 51 -15 q33 0 53 13 q25 16 33 50 Z" /><glyph glyph-name="uniF6D4" unicode="&#xf6d4;" d="M327 695 l134 -51 q-24 -61 -80 -93 q-49 -28 -128 -28 q-88 0 -139 29 q-54 31 -73 92 l145 51 q4 -31 19 -46 q16 -16 46 -16 q33 0 50 16 q19 17 26 46 Z" /><glyph glyph-name="uniF6DC" unicode="&#xf6dc;" d="M58 667 l355 0 l-82 -667 l-246 0 l56 461 l-109 -8 l26 214 Z" /><glyph glyph-name="uniF6DE" unicode="&#xf6de;" d="M642 190 l-595 0 l14 150 l595 0 l-14 -150 Z" /><glyph glyph-name="fi" unicode="&#xfb01;" d="M268 0 l-226 0 l36 293 l-63 -6 l22 180 l62 -6 l2 21 q11 113 76 178 q80 80 236 80 q131 0 206 -58 q71 -56 71 -146 q0 -11 -2 -29 l-226 0 l0 4 q0 20 -12 34 q-16 19 -51 19 q-32 0 -53 -21 q-15 -16 -20 -48 l-5 -36 l78 8 l-22 -180 l-73 6 l-36 -293 ZM626 0 l-226 0 l57 467 l226 0 l-57 -467 Z" /><glyph glyph-name="fl" unicode="&#xfb02;" d="M268 0 l-226 0 l36 293 l-63 -6 l22 180 l62 -6 l2 21 q11 114 75 178 q80 80 231 80 q133 0 208 -64 q71 -60 71 -160 q0 -21 -11 -111 l-49 -405 l-226 0 l55 440 q6 51 6 57 q0 39 -22 55 q-17 12 -41 12 q-32 0 -52 -21 q-16 -18 -20 -48 l-5 -36 l78 8 l-22 -180 l-73 6 l-36 -293 Z" /></font>
</defs>
</svg>
