<?xml version="1.0" standalone="no"?><!DOCTYPE svg PUBLIC "-//W3C//DTD SVG 1.1//EN" "http://www.w3.org/Graphics/SVG/1.1/DTD/svg11.dtd" ><svg xmlns="http://www.w3.org/2000/svg"><metadata></metadata><defs><font id="ParaTypeLtd: Futura PT Cond Extra Bold Oblique: 2013" horiz-adv-x="1057"><font-face font-family="Futura PT Cond Extra Bold Ital" font-weight="400" font-stretch="normal" units-per-em="1000" panose-1="2 11 10 6 2 2 4 9 2 3" ascent="982" descent="-300" x-height="3" bbox="-272 -250 1024 930" underline-thickness="50" underline-position="-175" unicode-range="U+0020-fb02" /><missing-glyph horiz-adv-x="233"  /><glyph glyph-name="space" unicode=" " d="" /><glyph glyph-name="exclam" unicode="!" d="M303 690 l-54 -450 l-173 0 l54 450 l173 0 ZM242 103 q0 -44 -34.5 -78.5 q-34.5 -34.5 -78.5 -34.5 q-38 0 -62.5 25.5 q-24.5 25.5 -24.5 63.5 q0 45 33.5 79.5 q33.5 34.5 78.5 34.5 q39 0 63.5 -25.5 q24.5 -25.5 24.5 -64.5 Z" /><glyph glyph-name="quotedbl" unicode="&quot;" d="M422 667 l-25 -268 l-95 0 l-24 268 l144 0 ZM234 667 l-24 -268 l-96 0 l-24 268 l144 0 Z" /><glyph glyph-name="numbersign" unicode="#" d="M639 498 l-32 -116 l-100 0 l-23 -83 l101 0 l-32 -117 l-102 0 l-51 -182 l-134 0 l52 182 l-84 0 l-52 -182 l-132 0 l52 182 l-102 0 l33 117 l101 0 l23 83 l-100 0 l32 116 l101 0 l48 169 l131 0 l-47 -169 l84 0 l48 169 l133 0 l-48 -169 l100 0 ZM374 382 l-85 0 l-23 -83 l84 0 l24 83 Z" /><glyph glyph-name="dollar" unicode="$" d="M472 642 l-24 -202 q-45 71 -99 71 q-20 0 -34.5 -12.5 q-14.5 -12.5 -14.5 -31.5 q0 -15 14 -30.5 q14 -15.5 34.5 -32 q20.5 -16.5 41 -36.5 q20.5 -20 34.5 -53 q14 -33 14 -72 q0 -94 -62 -169 q-33 -38 -90 -67 l-12 -101 l-84 0 l10 85 q-43 2 -68.5 7.5 q-25.5 5.5 -62.5 22.5 l26 208 q16 -33 43.5 -54 q27.5 -21 60.5 -21 q23 0 40.5 13 q17.5 13 17.5 36 q0 18 -21.5 41.5 q-21.5 23.5 -46.5 45 q-25 21.5 -46.5 59 q-21.5 37.5 -21.5 80.5 q0 105 72 180 q45 47 98 65 l11 93 l84 0 l-10 -88 q47 -10 96 -37 Z" /><glyph glyph-name="percent" unicode="%" d="M335 531 q0 -78 -44.5 -136 q-44.5 -58 -115.5 -58 q-61 0 -94.5 38 q-33.5 38 -33.5 105 q0 85 44 142 q44 57 122 57 q61 0 91.5 -40 q30.5 -40 30.5 -108 ZM219 533 q0 48 -20 48 q-20 0 -28 -32 q-8 -32 -8 -66 q0 -49 21 -49 q19 0 27 33 q8 33 8 66 ZM599 667 l-370 -667 l-92 0 l372 667 l90 0 ZM692 189 q0 -78 -44.5 -136 q-44.5 -58 -115.5 -58 q-61 0 -94.5 38 q-33.5 38 -33.5 105 q0 85 44 142 q44 57 122 57 q61 0 91.5 -40 q30.5 -40 30.5 -108 ZM576 191 q0 48 -20 48 q-20 0 -28 -32 q-8 -32 -8 -66 q0 -49 21 -49 q19 0 27 33 q8 33 8 66 Z" /><glyph glyph-name="ampersand" unicode="&amp;" d="M508 316 l76 -122 q-50 -48 -77 -70 l76 -124 l-192 0 l-22 36 q-76 -48 -153 -48 q-77 0 -129.5 52.5 q-52.5 52.5 -52.5 128.5 q0 129 136 202 q-36 52 -36 111 q0 80 62.5 138.5 q62.5 58.5 143.5 58.5 q73 0 125.5 -45 q52.5 -45 52.5 -117 q0 -112 -134 -192 l54 -86 q39 39 70 77 ZM369 511 q0 14 -9 22.5 q-9 8.5 -23 8.5 q-17 0 -29 -12 q-12 -12 -12 -29 q0 -17 23 -61 q50 40 50 71 ZM295 160 l-54 87 q-38 -21 -38 -57 q0 -20 12.5 -33.5 q12.5 -13.5 32.5 -13.5 q23 0 47 17 Z" /><glyph glyph-name="quotesingle" unicode="&#39;" d="M234 667 l-24 -268 l-96 0 l-24 268 l144 0 Z" /><glyph glyph-name="parenleft" unicode="(" d="M231 737 l119 -69 q-153 -252 -153 -501 q0 -170 54 -315 l-136 -69 q-73 172 -73 356 q0 316 189 598 Z" /><glyph glyph-name="parenright" unicode=")" d="M86 668 l136 69 q73 -167 73 -358 q0 -315 -189 -596 l-119 69 q71 111 112.5 241.5 q41.5 130.5 41.5 258.5 q0 169 -55 316 Z" /><glyph glyph-name="asterisk" unicode="*" d="M486 530 l-108 -15 l59 -93 l-98 -55 l-47 99 l-69 -85 l-82 77 l79 76 l-101 40 l48 103 l95 -52 l7 110 l111 -14 l-20 -108 l105 28 l21 -111 Z" /><glyph glyph-name="plus" unicode="+" d="M480 280 l-151 0 l0 -153 l-130 0 l0 153 l-152 0 l0 120 l152 0 l0 153 l130 0 l0 -153 l151 0 l0 -120 Z" /><glyph glyph-name="comma" unicode="," d="M250 159 l-154 -320 l-140 0 l120 320 l174 0 Z" /><glyph glyph-name="hyphen" unicode="-" d="M262 186 l-217 0 l16 134 l217 0 l-16 -134 Z" /><glyph glyph-name="period" unicode="." d="M228 102 q0 -44 -34 -78 q-34 -34 -78 -34 q-38 0 -63.5 26 q-25.5 26 -25.5 64 q0 44 34 78 q34 34 78 34 q38 0 63.5 -26 q25.5 -26 25.5 -64 Z" /><glyph glyph-name="slash" unicode="/" d="M565 729 l-489 -945 l-120 0 l489 945 l120 0 Z" /><glyph glyph-name="zero" unicode="0" d="M516 426 q0 -95 -20 -178 q-12 -50 -32.5 -93.5 q-20.5 -43.5 -51 -82.5 q-30.5 -39 -74 -61.5 q-43.5 -22.5 -95.5 -22.5 q-55 0 -95.5 22.5 q-40.5 22.5 -62.5 62 q-22 39.5 -32 84.5 q-10 45 -10 97 q0 93 21 171 q27 106 93.5 180 q66.5 74 165.5 74 q53 0 91.5 -21.5 q38.5 -21.5 60 -58.5 q21.5 -37 31.5 -80 q10 -43 10 -93 ZM343 436 q0 87 -43 87 q-26 0 -44 -37 q-18 -37 -25.5 -93 q-7.5 -56 -10.5 -96 q-3 -40 -3 -71 q0 -82 38 -82 q35 0 56.5 66 q21.5 66 26.5 123.5 q5 57.5 5 102.5 Z" /><glyph glyph-name="one" unicode="1" d="M438 667 l-82 -667 l-177 0 l62 510 l-71 0 l19 157 l249 0 Z" /><glyph glyph-name="two" unicode="2" d="M260 425 l-172 0 q9 110 75.5 182 q66.5 72 174.5 72 q84 0 134.5 -51.5 q50.5 -51.5 50.5 -135.5 q0 -51 -18 -100.5 q-18 -49.5 -51.5 -93.5 q-33.5 -44 -66.5 -78 q-33 -34 -77 -72 q37 3 165 5 l-19 -153 l-452 0 l209 243 q29 33 45.5 53.5 q16.5 20.5 41.5 56.5 q25 36 37.5 69 q12.5 33 12.5 63 q0 18 -9 32 q-9 14 -26 14 q-49 0 -55 -106 Z" /><glyph glyph-name="three" unicode="3" d="M257 477 l-171 0 q18 92 81.5 147 q63.5 55 155.5 55 q78 0 130.5 -47.5 q52.5 -47.5 52.5 -124.5 q0 -66 -42 -117 q-19 -24 -57 -45 q71 -44 71 -131 q0 -99 -74.5 -162.5 q-74.5 -63.5 -174.5 -63.5 q-82 0 -138 45 q-56 45 -56 125 q0 7 2 20 q2 13 2 18 l173 0 q-1 -6 -1 -18 q0 -42 37 -42 q26 0 41.5 22.5 q15.5 22.5 15.5 49.5 q0 60 -63 60 q-6 0 -16 -1 q-10 -1 -16 -1 l18 142 q7 -1 21 -1 q81 0 81 80 q0 43 -31 43 q-31 0 -42 -53 Z" /><glyph glyph-name="four" unicode="4" d="M508 279 l-17 -144 l-56 0 l-17 -135 l-177 0 l16 135 l-238 0 l17 141 l247 391 l217 0 l-48 -388 l56 0 ZM183 279 l98 0 q25 165 31 200 q-78 -134 -129 -200 Z" /><glyph glyph-name="five" unicode="5" d="M514 667 l-19 -157 l-187 0 l-24 -75 q10 1 30 1 q76 0 122.5 -50.5 q46.5 -50.5 46.5 -126.5 q0 -113 -84 -192 q-84 -79 -197 -79 q-92 0 -174 52 l40 158 q73 -46 135 -46 q40 0 70.5 22 q30.5 22 30.5 61 q0 66 -96 66 q-56 0 -119 -23 l98 389 l327 0 Z" /><glyph glyph-name="six" unicode="6" d="M456 667 l-128 -190 q-16 -24 -39 -52 q34 18 64 18 q67 0 102.5 -54.5 q35.5 -54.5 35.5 -124.5 q0 -114 -73.5 -195 q-73.5 -81 -186.5 -81 q-90 0 -139 56 q-49 56 -49 148 q0 36 12.5 81 q12.5 45 26 79 q13.5 34 44 89 q30.5 55 45 78.5 q14.5 23.5 52 81.5 q37.5 58 42.5 66 l191 0 ZM320 254 q0 23 -10.5 41 q-10.5 18 -31.5 18 q-18 0 -31 -13 q-13 -13 -19 -33.5 q-6 -20.5 -8.5 -38.5 q-2.5 -18 -2.5 -35 q0 -61 39 -61 q34 0 49 40 q15 40 15 82 Z" /><glyph glyph-name="seven" unicode="7" d="M583 667 l-377 -667 l-191 0 l201 355 q46 80 104 155 l-222 0 l19 157 l466 0 Z" /><glyph glyph-name="eight" unicode="8" d="M512 513 q0 -67 -40 -116 q-24 -29 -69 -50 q84 -37 84 -130 q0 -100 -74.5 -164.5 q-74.5 -64.5 -175.5 -64.5 q-82 0 -141.5 49 q-59.5 49 -59.5 129 q0 90 67 146 q22 18 66 35 q-43 15 -63 43 q-20 28 -20 75 q0 92 70 153 q70 61 163 61 q79 0 136 -44.5 q57 -44.5 57 -121.5 ZM335 492 q0 17 -7.5 30 q-7.5 13 -23.5 13 q-23 0 -33.5 -22.5 q-10.5 -22.5 -10.5 -48.5 q0 -45 33 -45 q21 0 31.5 24.5 q10.5 24.5 10.5 48.5 ZM308 225 q0 52 -36 52 q-24 0 -38 -27.5 q-14 -27.5 -14 -54.5 q0 -53 36 -53 q26 0 39 27 q13 27 13 56 Z" /><glyph glyph-name="nine" unicode="9" d="M102 0 l128 189 q20 30 39 53 q-33 -19 -65 -19 q-66 0 -101.5 54.5 q-35.5 54.5 -35.5 124.5 q0 114 74 195.5 q74 81.5 187 81.5 q90 0 138.5 -56 q48.5 -56 48.5 -148 q0 -36 -12.5 -81.5 q-12.5 -45.5 -25.5 -78.5 q-13 -33 -45 -90 q-32 -57 -44.5 -77 q-12.5 -20 -53 -82 q-40.5 -62 -42.5 -66 l-190 0 ZM342 475 q0 60 -39 60 q-24 0 -40 -23.5 q-16 -23.5 -20.5 -49 q-4.5 -25.5 -4.5 -50.5 q0 -23 10.5 -41 q10.5 -18 31.5 -18 q24 0 39 24 q15 24 19 48.5 q4 24.5 4 49.5 Z" /><glyph glyph-name="colon" unicode=":" d="M263 387 q0 -44 -34 -78 q-34 -34 -78 -34 q-38 0 -63.5 26 q-25.5 26 -25.5 64 q0 44 34 78 q34 34 78 34 q38 0 63.5 -26 q25.5 -26 25.5 -64 ZM228 102 q0 -44 -34 -78 q-34 -34 -78 -34 q-38 0 -63.5 26 q-25.5 26 -25.5 64 q0 44 34 78 q34 34 78 34 q38 0 63.5 -26 q25.5 -26 25.5 -64 Z" /><glyph glyph-name="semicolon" unicode=";" d="M296 387 q0 -44 -34 -78 q-34 -34 -78 -34 q-38 0 -63.5 25.5 q-25.5 25.5 -25.5 63.5 q0 45 33.5 79 q33.5 34 78.5 34 q38 0 63.5 -26 q25.5 -26 25.5 -64 ZM250 159 l-154 -320 l-140 0 l120 320 l174 0 Z" /><glyph glyph-name="less" unicode="&lt;" d="M466 58 l-433 222 l0 109 l433 220 l0 -128 l-296 -147 l295 -148 l1 -128 Z" /><glyph glyph-name="equal" unicode="=" d="M480 370 l-433 0 l0 113 l433 0 l0 -113 ZM480 197 l-433 0 l0 113 l433 0 l0 -113 Z" /><glyph glyph-name="greater" unicode="&gt;" d="M493 279 l-433 -221 l0 129 l296 147 l-295 147 l-1 128 l433 -221 l0 -109 Z" /><glyph glyph-name="question" unicode="?" d="M242 478 l-171 0 q10 79 45 129 q31 45 83 70 q52 25 109 25 q86 0 137 -52 q51 -52 51 -138 q0 -72 -40 -129.5 q-40 -57.5 -111 -77.5 l-7 -65 l-169 0 l19 160 q18 -2 27 -2 q104 0 104 102 q0 54 -31 54 q-37 0 -46 -76 ZM337 103 q0 -44 -34.5 -78.5 q-34.5 -34.5 -78.5 -34.5 q-38 0 -62.5 25.5 q-24.5 25.5 -24.5 63.5 q0 45 33.5 79.5 q33.5 34.5 78.5 34.5 q39 0 63.5 -25.5 q24.5 -25.5 24.5 -64.5 Z" /><glyph glyph-name="at" unicode="@" d="M554 98 l10 -80 q-94 -30 -206 -30 q-141 0 -228 79 q-87 79 -87 219 q0 158 119 275 q119 117 278 117 q121 0 201.5 -69 q80.5 -69 80.5 -188 q0 -86 -47 -163 q-27 -43 -66 -73.5 q-39 -30.5 -83 -30.5 q-25 0 -45.5 15 q-20.5 15 -24.5 39 q-52 -63 -133 -63 q-55 0 -88.5 39 q-33.5 39 -33.5 95 q0 80 60.5 151.5 q60.5 71.5 139.5 71.5 q68 0 92 -48 l12 38 l88 -1 l-60 -189 q-12 -41 -12 -53 q0 -22 20 -22 q21 0 48 32 q54 64 54 152 q0 89 -58.5 138 q-58.5 49 -149.5 49 q-124 0 -214.5 -90.5 q-90.5 -90.5 -90.5 -215.5 q0 -91 53 -154 q60 -70 186 -70 q95 0 185 30 ZM457 349 q0 27 -14 43.5 q-14 16.5 -40 16.5 q-40 0 -70 -37 q-30 -37 -30 -78 q0 -26 16 -42 q16 -16 41 -16 q39 0 68 36 q29 36 29 77 Z" /><glyph glyph-name="A" unicode="a" d="M491 0 l-183 0 l-3 85 l-119 0 l-25 -85 l-184 0 l240 667 l217 0 l57 -667 ZM300 305 l0 87 q0 1 3 115 q-3 -11 -10.5 -43.5 q-7.5 -32.5 -12.5 -50.5 q-6 -21 -24 -86 q-18 -65 -29 -100 l75 0 q-2 52 -2 78 Z" /><glyph glyph-name="B" unicode="b" d="M100 667 l206 0 q206 0 206 -165 q0 -68 -36.5 -111 q-36.5 -43 -103.5 -49 q60 -8 88.5 -37.5 q28.5 -29.5 28.5 -89.5 q0 -94 -64.5 -154.5 q-64.5 -60.5 -158.5 -60.5 l-248 0 l82 667 ZM259 522 l-14 -114 q4 -1 12 -1 q33 0 55 17.5 q22 17.5 22 48.5 q0 50 -56 50 q-13 0 -19 -1 ZM229 272 l-16 -127 q5 -1 15 -1 q34 0 58 20 q24 20 24 54 q0 28 -19 41.5 q-19 13.5 -48 13.5 q-3 0 -7 -0.5 q-4 -0.5 -7 -0.5 Z" /><glyph glyph-name="C" unicode="c" d="M461 662 l-23 -190 q-35 40 -77 40 q-50 0 -83.5 -39.5 q-33.5 -39.5 -45 -87 q-11.5 -47.5 -11.5 -96.5 q0 -55 22 -91 q22 -36 73 -36 q47 0 97 43 l-34 -193 q-59 -24 -109 -24 q-113 0 -172.5 77.5 q-59.5 77.5 -59.5 194.5 q0 77 21 150 q21 73 61 134 q40 61 106 98 q66 37 147 37 q48 0 88 -17 Z" /><glyph glyph-name="D" unicode="d" d="M100 667 l153 0 q126 0 195 -71.5 q69 -71.5 69 -197.5 q0 -158 -75 -270 q-47 -69 -108.5 -98.5 q-61.5 -29.5 -149.5 -29.5 l-166 0 l82 667 ZM257 500 l-42 -339 q34 2 59 24.5 q25 22.5 37 57.5 q12 35 17.5 68 q5.5 33 5.5 65 q0 124 -77 124 Z" /><glyph glyph-name="E" unicode="e" d="M430 667 l-20 -157 l-152 0 l-12 -97 l137 0 l-19 -151 l-136 0 l-13 -102 l152 0 l-19 -160 l-330 0 l82 667 l330 0 Z" /><glyph glyph-name="F" unicode="f" d="M413 667 l-19 -157 l-136 0 l-12 -97 l127 0 l-19 -151 l-126 0 l-33 -262 l-177 0 l82 667 l313 0 Z" /><glyph glyph-name="G" unicode="g" d="M543 514 l-180 -64 q0 68 -44 68 q-25 0 -43.5 -23 q-18.5 -23 -24.5 -42.5 q-6 -19.5 -14 -50.5 q-21 -93 -21 -161 q0 -93 53 -93 q32 0 50 30 q18 30 23 67 l-65 0 l17 140 l247 0 q-8 -85 -24 -148 q-26 -111 -91.5 -180 q-65.5 -69 -172.5 -69 q-111 0 -163.5 74.5 q-52.5 74.5 -52.5 190.5 q0 95 24 177 q31 107 102.5 178 q71.5 71 174.5 71 q156 0 205 -165 Z" /><glyph glyph-name="H" unicode="h" d="M539 667 l-82 -667 l-177 0 l33 268 l-85 0 l-33 -268 l-177 0 l82 667 l177 0 l-29 -236 l85 0 l29 236 l177 0 Z" /><glyph glyph-name="I" unicode="i" d="M277 667 l-82 -667 l-177 0 l82 667 l177 0 Z" /><glyph glyph-name="J" unicode="j" d="M357 667 l-57 -463 q-11 -85 -37 -125 q-57 -91 -177 -91 q-53 0 -113 22 l23 186 q25 -39 66 -39 q55 0 65 82 l52 428 l178 0 Z" /><glyph glyph-name="K" unicode="k" d="M564 667 l-181 -322 l117 -345 l-191 0 l-79 319 l-35 -319 l-177 0 l82 667 l177 0 l-40 -298 l140 298 l187 0 Z" /><glyph glyph-name="L" unicode="l" d="M348 160 l-19 -160 l-311 0 l82 667 l177 0 l-62 -507 l133 0 Z" /><glyph glyph-name="M" unicode="m" d="M712 667 l-18 -667 l-185 0 q10 130 35 425 q-28 -110 -126 -425 l-145 0 l-11 321 q0 5 -0.5 17 q-0.5 12 -0.5 17 q0 24 2 70 q-13 -100 -71 -425 l-190 0 l158 667 l221 0 l9 -225 q2 -34 2 -50 q0 -12 -0.5 -25.5 q-0.5 -13.5 -1.5 -29.5 q-1 -16 -1 -25 q10 43 24 94 q14 51 23 81 q9 30 30 95 q21 65 27 85 l219 0 Z" /><glyph glyph-name="N" unicode="n" d="M562 667 l-82 -667 l-169 0 l-59 245 q-19 81 -28 139 q-1 -17 -3 -53 q-2 -36 -3 -53 q-2 -35 -31 -278 l-169 0 l82 667 l169 0 l60 -234 q8 -32 20 -93.5 q12 -61.5 15 -74.5 q0 176 10 252 l19 150 l169 0 Z" /><glyph glyph-name="O" unicode="o" d="M546 422 q0 -101 -26 -191 q-31 -103 -99.5 -173 q-68.5 -70 -166.5 -70 q-50 0 -95 24 q-45 24 -74 65 q-47 69 -47 186 q0 100 29 187 q34 98 104 163.5 q70 65.5 166 65.5 q102 0 155.5 -75.5 q53.5 -75.5 53.5 -181.5 ZM362 408 q0 103 -47 103 q-19 0 -35 -18 q-16 -18 -26 -45.5 q-10 -27.5 -16 -50.5 q-6 -23 -9 -42 q-7 -41 -7 -89 q0 -109 48 -109 q19 0 35.5 18.5 q16.5 18.5 26.5 47 q10 28.5 15.5 51.5 q5.5 23 8.5 44 q6 45 6 90 Z" /><glyph glyph-name="P" unicode="p" d="M100 667 l172 0 q238 0 238 -193 q0 -115 -73 -190 q-76 -77 -215 -65 l-27 -219 l-177 0 l82 667 ZM241 368 l9 0 q36 0 57.5 25.5 q21.5 25.5 21.5 61.5 q0 29 -14.5 47.5 q-14.5 18.5 -42.5 18.5 l-13 0 l-18 -153 Z" /><glyph glyph-name="Q" unicode="q" d="M354 -93 l-50 89 q-24 -8 -54 -8 q-71 0 -121 40.5 q-50 40.5 -71 99 q-21 58.5 -21 128.5 q0 95 24 174 q32 106 102.5 177.5 q70.5 71.5 171.5 71.5 q72 0 121.5 -40.5 q49.5 -40.5 70.5 -99.5 q21 -59 21 -129 q0 -90 -28 -181.5 q-28 -91.5 -83 -150.5 l69 -92 l-152 -79 ZM362 403 q0 108 -50 108 q-32 0 -53.5 -54.5 q-21.5 -54.5 -29.5 -104.5 q-7 -41 -7 -89 q0 -106 49 -106 q25 0 44.5 31.5 q19.5 31.5 28 62.5 q8.5 31 12.5 60 q6 45 6 92 Z" /><glyph glyph-name="R" unicode="r" d="M100 667 l181 0 q230 0 230 -191 q0 -147 -124 -199 l98 -277 l-192 0 q-6 24 -23.5 93 q-17.5 69 -25.5 107 q-3 13 -8.5 38.5 q-5.5 25.5 -8.5 38.5 q-8 -93 -32 -277 l-177 0 l82 667 ZM239 358 l12 0 q35 0 59 29.5 q24 29.5 24 65.5 q0 64 -75 64 l-20 -159 Z" /><glyph glyph-name="S" unicode="s" d="M408 645 l-25 -204 q-37 73 -95 73 q-19 0 -36 -12.5 q-17 -12.5 -17 -31.5 q0 -19 22 -41 q22 -22 48 -41.5 q26 -19.5 48 -57.5 q22 -38 22 -84 q0 -105 -69 -181.5 q-69 -76.5 -173 -76.5 q-63 0 -127 29 l26 209 q44 -73 104 -73 q23 0 40.5 13.5 q17.5 13.5 17.5 36.5 q0 16 -14 32.5 q-14 16.5 -34.5 33.5 q-20.5 17 -41 38 q-20.5 21 -34.5 54 q-14 33 -14 73 q0 95 67.5 170 q67.5 75 160.5 75 q62 0 124 -34 Z" /><glyph glyph-name="T" unicode="t" d="M427 667 l-20 -160 l-98 0 l-62 -507 l-177 0 l62 507 l-98 0 l20 160 l373 0 Z" /><glyph glyph-name="U" unicode="u" d="M545 667 l-58 -472 q-11 -98 -85 -155 q-66 -52 -155 -52 q-92 0 -148.5 47 q-56.5 47 -56.5 137 q0 24 3 48 l55 447 l177 0 l-53 -431 q-2 -22 -2 -33 q0 -46 39 -46 q16 0 26.5 7 q10.5 7 16 20.5 q5.5 13.5 7.5 24 q2 10.5 4 27.5 l53 431 l177 0 Z" /><glyph glyph-name="V" unicode="v" d="M564 667 l-261 -667 l-181 0 l-68 667 l186 0 q12 -250 12 -312 q0 -41 -4 -123 q9 42 19 84 q10 42 25.5 96 q15.5 54 23 78 q7.5 24 30 95 q22.5 71 25.5 82 l193 0 Z" /><glyph glyph-name="W" unicode="w" d="M796 667 l-215 -667 l-171 0 q-17 330 -16 417 q-8 -30 -20 -92 q-4 -21 -20 -83 l-63 -242 l-173 0 l-64 667 l175 0 q3 -78 7 -241 q2 -38 2 -57 q0 -39 -2 -119 q27 129 113 417 l152 0 q14 -217 15 -287 l0 -138 q26 134 49 218 l58 207 l173 0 Z" /><glyph glyph-name="X" unicode="x" d="M552 667 l-190 -321 l119 -346 l-197 0 q-9 37 -26 124 q-8 35 -10 55 q-25 -61 -83 -179 l-193 0 l202 346 l-111 321 l197 0 q3 -18 10.5 -55 q7.5 -37 11.5 -55 q1 -5 2.5 -15 q1.5 -10 3 -18 q1.5 -8 3.5 -15 q14 45 62 158 l199 0 Z" /><glyph glyph-name="Y" unicode="y" d="M547 667 l-200 -385 l-35 -282 l-177 0 l35 282 l-116 385 l185 0 q30 -146 37 -206 q21 56 87 206 l184 0 Z" /><glyph glyph-name="Z" unicode="z" d="M544 667 l-2 -19 l-206 -363 q-14 -25 -41 -70 q-27 -45 -38 -63 q35 3 203 8 l-19 -160 l-453 0 l2 14 l181 326 q53 95 110 170 l-191 0 l19 157 l435 0 Z" /><glyph glyph-name="bracketleft" unicode="[" d="M372 729 l-14 -119 l-102 0 l-85 -699 l101 0 l-15 -120 l-251 0 l115 938 l251 0 Z" /><glyph glyph-name="backslash" unicode="\" d="M53 729 l120 0 l372 -945 l-120 0 l-372 945 Z" /><glyph glyph-name="bracketright" unicode="]" d="M346 729 l-115 -938 l-252 0 l15 120 l101 0 l86 699 l-101 0 l14 119 l252 0 Z" /><glyph glyph-name="asciicircum" unicode="^" d="M509 330 l-136 0 l-110 233 l-110 -233 l-135 0 l160 337 l170 0 l161 -337 Z" /><glyph glyph-name="underscore" unicode="_" d="M472 -166 l-500 0 l0 120 l500 0 l0 -120 Z" /><glyph glyph-name="grave" unicode="`" d="M340 530 l-98 0 l-68 148 l138 0 l28 -148 Z" /><glyph glyph-name="a" unicode="a" d="M479 467 l-57 -467 l-171 0 q3 13 8 39.5 q5 26.5 7 39.5 q-53 -89 -130 -89 q-33 0 -56.5 17 q-23.5 17 -35 45 q-11.5 28 -16.5 56 q-5 28 -5 59 q0 69 14 128 q8 33 21 63 q13 30 32.5 58 q19.5 28 48.5 44.5 q29 16.5 63 16.5 q40 0 62 -21.5 q22 -21.5 37 -62.5 q0 12 1.5 36.5 q1.5 24.5 2.5 37.5 l174 0 ZM269 187.5 q13 54.5 13 100.5 q0 46 -28 46 q-31 0 -45 -51 q-14 -51 -14 -95 q0 -55 31 -55 q30 0 43 54.5 Z" /><glyph glyph-name="b" unicode="b" d="M101 729 l171 0 q-3 -21 -15 -122.5 q-12 -101.5 -20 -155.5 q-6 -32 -8 -52 q25 38 51.5 58 q26.5 20 66.5 20 q35 0 60 -16 q25 -16 37.5 -43.5 q12.5 -27.5 17.5 -56.5 q5 -29 5 -62 q0 -70 -14 -129 q-18 -73 -60 -126.5 q-42 -53.5 -107 -53.5 q-37 0 -57 17.5 q-20 17.5 -39 55.5 q-1 -11 -2 -32 q-1 -21 -2 -31 l-175 0 l90 729 ZM290 273 q0 60 -34 60 q-20 0 -33 -29.5 q-13 -29.5 -16.5 -57.5 q-3.5 -28 -3.5 -51 q0 -56 31 -56 q30 0 43 46.5 q13 46.5 13 87.5 Z" /><glyph glyph-name="c" unicode="c" d="M309 475 l-19 -152 q-41 -3 -64 -30 q-23 -27 -23 -68 q0 -28 14.5 -50.5 q14.5 -22.5 40.5 -22.5 l11 0 l-19 -159 q-22 -3 -46 -3 q-88 0 -133.5 60 q-45.5 60 -45.5 150 q0 109 71.5 193 q71.5 84 178.5 84 q12 0 34 -2 Z" /><glyph glyph-name="d" unicode="d" d="M511 729 l-89 -729 l-174 0 q1 12 5.5 34 q4.5 22 5.5 29 q-27 -36 -52.5 -54.5 q-25.5 -18.5 -61.5 -18.5 q-66 0 -94.5 51 q-28.5 51 -28.5 123 q0 70 14 129 q18 74 60 129 q42 55 107 55 q39 0 61 -19.5 q22 -19.5 39 -58.5 q4 62 38 330 l170 0 ZM288 274 q0 59 -29 59 q-31 0 -44.5 -46.5 q-13.5 -46.5 -13.5 -89.5 q0 -58 33 -58 q29 0 41.5 47 q12.5 47 12.5 88 Z" /><glyph glyph-name="e" unicode="e" d="M266 157 l166 0 q-26 -80 -84 -123.5 q-58 -43.5 -141 -43.5 q-89 0 -136.5 51 q-47.5 51 -47.5 140 q0 116 68 205.5 q68 89.5 180 89.5 q87 0 133.5 -55.5 q46.5 -55.5 46.5 -144.5 q0 -27 -8 -79 l-250 0 q-1 -6 -1 -19 q0 -53 32 -53 q31 0 42 32 ZM207 290 l79 0 q0 2 0.5 6 q0.5 4 0.5 6 q0 47 -34 47 q-20 0 -31.5 -18 q-11.5 -18 -14.5 -41 Z" /><glyph glyph-name="f" unicode="f" d="M352 728 l-20 -161 q-17 17 -33 17 q-27 0 -32 -48 l-8 -69 l61 0 l-17 -140 l-61 0 l-40 -327 l-171 0 l40 327 l-49 0 l17 140 l50 0 q1 9 4.5 45 q3.5 36 5.5 51.5 q2 15.5 8.5 41 q6.5 25.5 16.5 43.5 q22 43 62 67.5 q40 24.5 88 24.5 q35 0 78 -12 Z" /><glyph glyph-name="g" unicode="g" d="M475 467 l-59 -479 q-10 -83 -49 -128 q-65 -75 -183 -75 q-91 0 -137.5 40 q-46.5 40 -47.5 129 l174 0 q0 -38 31 -38 q18 0 28.5 11.5 q10.5 11.5 13.5 23 q3 11.5 6 31.5 q4 34 9 72 q-50 -61 -114 -61 q-44 0 -73.5 30.5 q-29.5 30.5 -40 69 q-10.5 38.5 -10.5 81.5 q0 62 15 122 q19 71 62 126 q43 55 106 55 q52 0 93 -71 l4 61 l172 0 ZM284 279 q0 57 -27 57 q-21 0 -34.5 -29 q-13.5 -29 -17 -57 q-3.5 -28 -3.5 -51 q0 -63 30 -63 q28 0 40 50 q12 50 12 93 Z" /><glyph glyph-name="h" unicode="h" d="M272 729 l-32 -261 q-7 -50 -16 -90 q53 99 134 99 q47 0 73.5 -33.5 q26.5 -33.5 26.5 -82.5 q0 -22 -3 -43 l-39 -318 l-171 0 l31 247 q2 18 2 26 q0 31 -23 31 q-36 0 -44 -69 l-29 -235 l-171 0 l90 729 l171 0 Z" /><glyph glyph-name="i" unicode="i" d="M273 624 q0 -44 -34.5 -78.5 q-34.5 -34.5 -78.5 -34.5 q-37 0 -62.5 25.5 q-25.5 25.5 -25.5 63.5 q0 45 34 79 q34 34 79 34 q38 0 63 -25.5 q25 -25.5 25 -63.5 ZM239 467 l-57 -467 l-171 0 l58 467 l170 0 Z" /><glyph glyph-name="j" unicode="j" d="M274 624 l0 -10 q0 -10 -8 -29 q-12 -32 -41.5 -53 q-29.5 -21 -62.5 -21 q-38 0 -63 25.5 q-25 25.5 -25 63.5 q0 45 33.5 79 q33.5 34 78.5 34 q39 0 63.5 -25 q24.5 -25 24.5 -64 ZM242 467 l-85 -682 l-170 0 l83 682 l172 0 Z" /><glyph glyph-name="k" unicode="k" d="M505 467 l-139 -215 l93 -252 l-190 0 l-41 146 q-14 48 -18 81 l-28 -227 l-171 0 l90 729 l171 0 l-57 -462 q9 19 33 62 l75 138 l182 0 Z" /><glyph glyph-name="l" unicode="l" d="M272 729 l-90 -729 l-171 0 l90 729 l171 0 Z" /><glyph glyph-name="m" unicode="m" d="M69 467 l170 0 q-5 -39 -12 -78 q55 88 130 88 q46 0 71 -25 q25 -25 39 -72 q22 47 50.5 72 q28.5 25 74.5 25 q47 0 76.5 -30.5 q29.5 -30.5 29.5 -77.5 q0 -17 -4 -49 l-39 -320 l-171 0 l30 245 q0 3 2 15.5 q2 12.5 2 18.5 q0 30 -22 30 q-39 0 -47 -73 l-29 -236 l-171 0 l29 235 q4 28 4 41 q0 29 -24 29 q-14 0 -23 -6 q-9 -6 -14 -20 q-5 -14 -6.5 -21.5 q-1.5 -7.5 -3.5 -25.5 l-29 -232 l-171 0 l58 467 Z" /><glyph glyph-name="n" unicode="n" d="M69 467 l170 0 q-14 -84 -15 -89 q53 99 134 99 q47 0 73.5 -33.5 q26.5 -33.5 26.5 -82.5 q0 -22 -3 -43 l-39 -318 l-171 0 l31 247 q2 18 2 26 q0 31 -23 31 q-36 0 -44 -69 l-29 -235 l-171 0 l58 467 Z" /><glyph glyph-name="o" unicode="o" d="M456 280 q0 -123 -64.5 -206.5 q-64.5 -83.5 -183.5 -83.5 q-90 0 -137 54 q-47 54 -47 146 q0 116 66.5 201.5 q66.5 85.5 179.5 85.5 q89 0 137.5 -53.5 q48.5 -53.5 48.5 -143.5 ZM291 269 q0 77 -37 77 q-32 0 -48 -52.5 q-16 -52.5 -16 -95.5 q0 -77 37 -77 q32 0 48 52.5 q16 52.5 16 95.5 Z" /><glyph glyph-name="p" unicode="p" d="M241 467 l-12 -66 q49 76 115 76 q46 0 75 -32 q29 -32 38.5 -71.5 q9.5 -39.5 9.5 -84.5 q0 -67 -15 -122 q-18 -70 -60 -123.5 q-42 -53.5 -105 -53.5 q-63 0 -99 73 q0 -25 -6 -77 l-25 -201 l-171 0 l85 682 l170 0 ZM290 272 q0 62 -31 62 q-15 0 -26.5 -16 q-11.5 -16 -17 -40.5 q-5.5 -24.5 -8 -44.5 q-2.5 -20 -2.5 -35 q0 -62 29 -62 q28 0 42 48.5 q14 48.5 14 87.5 Z" /><glyph glyph-name="q" unicode="q" d="M477 467 l-84 -682 l-171 0 l25 201 q2 16 4 26 q2 8 5 25 q3 17 5 26 q-53 -73 -118 -73 q-35 0 -60 17 q-25 17 -37.5 45.5 q-12.5 28.5 -17.5 58 q-5 29.5 -5 62.5 q0 63 15 123 q18 71 61.5 126 q43.5 55 106.5 55 q68 0 96 -76 l4 66 l171 0 ZM286 272 q0 62 -30 62 q-29 0 -41.5 -47 q-12.5 -47 -12.5 -88 q0 -63 31 -63 q27 0 40 49 q13 49 13 87 Z" /><glyph glyph-name="r" unicode="r" d="M360 478 l-24 -194 q-25 15 -46 15 q-33 0 -57 -27 q-21 -23 -26 -72 l-25 -200 l-171 0 l58 467 l170 0 l-20 -91 q51 99 141 102 Z" /><glyph glyph-name="s" unicode="s" d="M390 439 l-74 -127 q-35 41 -65 41 q-11 0 -20.5 -7 q-9.5 -7 -9.5 -18 q0 -17 22 -29.5 q22 -12.5 49 -22 q27 -9.5 49 -36.5 q22 -27 22 -69 q0 -79 -61.5 -130 q-61.5 -51 -142.5 -51 q-45 0 -79.5 11.5 q-34.5 11.5 -79.5 37.5 l78 129 q38 -49 79 -49 q14 0 25 7 q11 7 11 20 q0 10 -8 17.5 q-8 7.5 -13 9.5 q-5 2 -19 7 q-49 19 -76.5 46 q-27.5 27 -27.5 73 q0 79 64 128.5 q64 49.5 145 49.5 q66 0 132 -38 Z" /><glyph glyph-name="t" unicode="t" d="M319 467 l-17 -140 l-56 0 l-41 -327 l-170 0 l40 327 l-49 0 l17 140 l49 0 l17 137 l171 0 l-17 -137 l56 0 Z" /><glyph glyph-name="u" unicode="u" d="M482 467 l-35 -287 q-12 -99 -85 -147 q-66 -43 -145 -43 q-78 0 -132 39.5 q-54 39.5 -54 114.5 l3 36 l35 287 l170 0 l-32 -263 q0 -1 -1.5 -14.5 q-1.5 -13.5 -1.5 -20.5 q0 -34 31 -34 q13 0 22 6 q9 6 13.5 19 q4.5 13 5.5 20.5 q1 7.5 3 23.5 l32 263 l171 0 Z" /><glyph glyph-name="v" unicode="v" d="M468 467 l-191 -467 l-178 0 l-70 467 l173 0 q12 -161 12 -202 q0 -31 -2 -93 q17 70 88 295 l168 0 Z" /><glyph glyph-name="w" unicode="w" d="M701 467 l-191 -467 l-169 0 l0 280 l-87 -280 l-168 0 l-57 467 l168 0 l8 -150 q1 -22 1 -132 q6 34 17.5 74.5 q11.5 40.5 20 65.5 q8.5 25 26 75 q17.5 50 23.5 67 l145 0 q9 -201 6 -282 q22 87 87 282 l170 0 Z" /><glyph glyph-name="x" unicode="x" d="M491 467 l-163 -223 l119 -244 l-198 0 q-17 62 -25 110 q-20 -45 -61 -110 l-191 0 l169 240 l-104 227 l195 0 q18 -88 20 -101 q8 20 26 54 q18 34 24 47 l189 0 Z" /><glyph glyph-name="y" unicode="y" d="M487 467 l-301 -682 l-176 0 l110 234 l-82 448 l172 0 q2 -18 7 -57 q5 -39 7.5 -61.5 q2.5 -22.5 5 -55.5 q2.5 -33 2.5 -61 q0 -5 -0.5 -15 q-0.5 -10 -0.5 -15 q36 133 48 164 l38 101 l170 0 Z" /><glyph glyph-name="z" unicode="z" d="M441 467 l-138 -238 q-26 -46 -55 -88 l126 0 l-17 -141 l-369 0 l141 242 q30 52 55 85 l-130 0 l17 140 l370 0 Z" /><glyph glyph-name="braceleft" unicode="{" d="M462 726 l-14 -114 q-7 0 -23 0.5 q-16 0.5 -22 0 q-6 -0.5 -17 -1.5 q-11 -1 -16 -5 q-5 -4 -11.5 -10 q-6.5 -6 -10 -16.5 q-3.5 -10.5 -6.5 -24.5 q-4 -29 -10 -88.5 q-6 -59.5 -12.5 -95.5 q-6.5 -36 -18.5 -60 q-12 -24 -54 -51 q27 -19 36.5 -39 q9.5 -20 9.5 -53 q0 -11 -2 -35 l-20 -157 q0 -1 -1.5 -11 q-1.5 -10 -1.5 -15 q0 -27 14.5 -35 q14.5 -8 45.5 -8 q23 0 34 1 l-14 -115 q-52 -2 -78 -2 q-67 0 -101.5 23 q-34.5 23 -34.5 87 q0 12 2 34 l24 189 q2 18 2 28 q0 48 -46 58 l13 110 q32 6 46 24 q14 18 18 52 l22 188 q10 80 49.5 112.5 q39.5 32.5 120.5 32.5 q12 0 24.5 -0.5 q12.5 -0.5 28 -1.5 q15.5 -1 24.5 -1 Z" /><glyph glyph-name="bar" unicode="|" d="M318 -250 l-130 0 l0 1000 l130 0 l0 -1000 Z" /><glyph glyph-name="braceright" unicode="}" d="M415 310 l-13 -110 q-45 -10 -57 -46 q-7 -25 -8 -30 l-23 -189 q-10 -84 -51.5 -114 q-41.5 -30 -129.5 -30 q-21 0 -65 2 l14 115 q7 -1 21 -1 q25 0 35 1 q10 1 22.5 6 q12.5 5 18 17 q5.5 12 9.5 33 q3 19 9 74.5 q6 55.5 13.5 101 q7.5 45.5 19.5 69.5 q11 23 54 51 q-27 19 -36.5 38.5 q-9.5 19.5 -9.5 52.5 q0 11 2 35 l19 157 q0 4 1 10.5 q1 6.5 1.5 12 q0.5 5.5 0.5 10.5 q0 11 -5.5 18.5 q-5.5 7.5 -12 11 q-6.5 3.5 -18.5 5.5 q-12 2 -19.5 2 q-7.5 0 -21.5 -0.5 q-14 -0.5 -17 -0.5 l14 114 q9 0 24.5 1 q15.5 1 28 1.5 q12.5 0.5 24.5 0.5 q67 0 102 -23 q35 -23 35 -87 q0 -11 -2 -35 l-23 -188 q-2 -18 -2 -28 q0 -50 46 -58 Z" /><glyph glyph-name="asciitilde" unicode="~" d="M556 748 l73 -43 q-29 -63 -65 -98.5 q-36 -35.5 -94 -35.5 q-31 0 -92 25 q-61 25 -91 25 q-28 0 -42.5 -14.5 q-14.5 -14.5 -30.5 -46.5 l-71 47 q12 30 19 45 q44 94 132 94 q34 0 96 -24.5 q62 -24.5 94 -24.5 q26 0 42 12.5 q16 12.5 30 38.5 Z" /><glyph glyph-name="nonbreakingspace" unicode=" " d="" /><glyph glyph-name="exclamdown" unicode="¡" d="M279 388 q0 -45 -34 -79.5 q-34 -34.5 -79 -34.5 q-39 0 -63.5 25.5 q-24.5 25.5 -24.5 64.5 q0 44 34.5 78.5 q34.5 34.5 78.5 34.5 q37 0 62.5 -25.5 q25.5 -25.5 25.5 -63.5 ZM245 227 l-56 -450 l-173 0 l55 450 l174 0 Z" /><glyph glyph-name="cent" unicode="¢" d="M417 590 l-18 -148 q-40 -2 -63.5 -30 q-23.5 -28 -23.5 -69 q0 -28 14 -49 q14 -21 41 -21 l11 0 l-19 -161 q-9 -2 -25 -2 q-16 0 -23 -1 l-10 -86 l-84 0 l13 105 q-97 62 -97 187 q0 109 69 194 q31 38 82 62 l12 108 l84 0 l-10 -86 q5 1 16 1 q11 0 31 -4 Z" /><glyph glyph-name="sterling" unicode="£" d="M503 584 l-107 -96 q-12 24 -25 37 q-13 13 -34 13 q-23 0 -38.5 -18.5 q-15.5 -18.5 -15.5 -42.5 q0 -16 6 -48 q6 -32 6 -48 l159 0 l-12 -93 l-148 0 q-7 -70 -58 -129 q36 -2 71 -21 q19 -11 35 -11 q31 0 56 32 l82 -48 q-62 -123 -171 -123 q-41 0 -81 17 q-7 3 -18 8 q-11 5 -16.5 7 q-5.5 2 -15.5 4 q-10 2 -21 2 q-39 0 -88 -30 l-39 82 q49 33 83 48 q28 41 28 98 q0 22 -8 64 l-60 0 l11 93 l33 0 q-12 67 -12 85 q0 91 63 151 q63 60 154 60 q106 0 181 -93 Z" /><glyph glyph-name="currency" unicode="¤" d="M666 138 l-70 -71 l-103 103 q-67 -45 -142 -45 q-68 0 -140 44 l-102 -102 l-70 70 l103 103 q-44 64 -44 138 q0 72 44 137 l-104 104 l71 71 l104 -104 q67 44 140 44 q71 0 137 -43 l103 102 l70 -70 l-102 -102 q45 -70 45 -139 q0 -73 -43 -137 l103 -103 ZM448 281 q40 40 40 96 q0 56 -40 96.5 q-40 40.5 -96 40.5 q-56 0 -96 -40.5 q-40 -40.5 -40 -96.5 q0 -56 40 -96 q40 -40 96 -40 q56 0 96 40 Z" /><glyph glyph-name="yen" unicode="¥" d="M567 667 l-111 -212 l78 0 l-11 -94 l-115 0 l-34 -66 l141 0 l-12 -93 l-146 0 l-25 -202 l-177 0 l25 202 l-157 0 l11 93 l152 0 l-20 66 l-124 0 l12 94 l84 0 l-64 212 l184 0 q32 -157 38 -206 q30 82 87 206 l184 0 Z" /><glyph glyph-name="brokenbar" unicode="¦" d="M318 335 l-130 0 l0 415 l130 0 l0 -415 ZM318 -250 l-130 0 l0 415 l130 0 l0 -415 Z" /><glyph glyph-name="section" unicode="§" d="M19 7 l147 0 q0 -3 -1 -9.5 q-1 -6.5 -1.5 -11.5 q-0.5 -5 -0.5 -9 q0 -63 61 -63 q28 0 47.5 18.5 q19.5 18.5 19.5 46.5 q0 9 -4 18 q-4 9 -8 15 q-4 6 -14 13.5 q-10 7.5 -14.5 10.5 q-4.5 3 -17 10.5 q-12.5 7.5 -14.5 8.5 q-8 5 -23 13 q-15 8 -27 15 q-12 7 -22 14 q-48 31 -71 64.5 q-23 33.5 -23 85.5 q0 99 89 162 q-21 31 -30.5 56 q-9.5 25 -9.5 62 q0 94 70 153.5 q70 59.5 166 59.5 q77 0 122.5 -41.5 q45.5 -41.5 45.5 -117.5 q0 -10 -1 -20.5 q-1 -10.5 -2.5 -24 q-1.5 -13.5 -2.5 -20.5 l-140 0 q3 21 3 42 q0 61 -54 61 q-26 0 -43.5 -16 q-17.5 -16 -17.5 -42 q0 -25 24.5 -46.5 q24.5 -21.5 59.5 -40.5 q35 -19 70 -40.5 q35 -21.5 59.5 -56.5 q24.5 -35 24.5 -80 q0 -95 -82 -156 q55 -47 55 -122 q0 -100 -75 -167 q-75 -67 -177 -67 q-82 0 -137 44.5 q-55 44.5 -55 124.5 q0 10 2 28.5 q2 18.5 2 24.5 ZM335 279 q0 27 -16 42 q-16 15 -43 15 q-30 0 -51 -21 q-21 -21 -21 -51 q0 -27 15.5 -43 q15.5 -16 42.5 -16 q31 0 52 21.5 q21 21.5 21 52.5 Z" /><glyph glyph-name="dieresis" unicode="¨" d="M463 610 q0 -31 -24.5 -55.5 q-24.5 -24.5 -56.5 -24.5 q-27 0 -45 18.5 q-18 18.5 -18 45.5 q0 32 24 56 q24 24 56 24 q28 0 46 -18 q18 -18 18 -46 ZM273 602 q0 -8 -5 -20 q-9 -23 -30 -37.5 q-21 -14.5 -45 -14.5 q-28 0 -46 18 q-18 18 -18 46 q0 32 24.5 56 q24.5 24 56.5 24 q31 0 47 -20 q16 -20 16 -52 Z" /><glyph glyph-name="copyright" unicode="©" d="M740 333 q0 -144 -101 -246 q-101 -102 -245 -102 q-144 0 -246 102.5 q-102 102.5 -102 246.5 q0 144 102.5 246 q102.5 102 246.5 102 q143 0 244 -103 q101 -103 101 -246 ZM583 138.5 q77 81.5 77 194.5 q0 113 -77 194.5 q-77 81.5 -189 81.5 q-112 0 -190 -81 q-78 -81 -78 -194 q0 -112 78 -194.5 q78 -82.5 190 -82.5 q112 0 189 81.5 ZM497 270 l-8 -128 q-39 -16 -74 -16 q-85 0 -132 59 q-47 59 -47 147 q0 92 51 150 q51 58 142 58 q36 0 62 -11 l0 -127 q-4 3 -13 11.5 q-9 8.5 -13 11.5 q-4 3 -13 6.5 q-9 3.5 -20 3.5 q-36 0 -51.5 -30.5 q-15.5 -30.5 -15.5 -70.5 q0 -39 15 -68.5 q15 -29.5 50 -29.5 q6 0 11.5 1 q5.5 1 11 3 q5.5 2 9 3.5 q3.5 1.5 9.5 6 q6 4.5 8.5 6 q2.5 1.5 9 7.5 q6.5 6 8.5 7 Z" /><glyph glyph-name="ordfeminine" unicode="ª" d="M279 372 l-99 0 l8 45 q-12 -24 -31 -37 q-19 -14 -39 -14 q-31 0 -50 25 q-20 26 -20 77 q0 49 12.5 102 q12.5 53 41.5 81 q22 22 52 22 q22 0 36 -13 q14 -13 22 -36 l2 43 l101 0 l-36 -295 ZM269 297 l-242 0 l6 48 l242 0 l-6 -48 ZM147 475 q0 -14 5 -20 q4 -6 12 -6 q10 0 19 15 q7 13 14 50 q5 28 5 45 q0 16 -4 24 q-5 8 -13 8 q-7 0 -14 -7 q-11 -11 -18 -49 q-6 -34 -6 -60 Z" /><glyph glyph-name="guillemotleft" unicode="«" d="M237 63 l-85 -50 l-124 226 l179 226 l71 -66 l-134 -168 l93 -168 ZM437 63 l-85 -50 l-124 226 l179 226 l71 -66 l-134 -168 l93 -168 Z" /><glyph glyph-name="logicalnot" unicode="¬" d="M455 0 l-130 0 l0 150 l-303 0 l0 117 l433 0 l0 -267 Z" /><glyph glyph-name="uni00AD" unicode="­" d="M262 186 l-217 0 l16 134 l217 0 l-16 -134 Z" /><glyph glyph-name="registered" unicode="®" d="M543 154 l-117 0 l-54 143 l0 -143 l-109 0 l0 375 l109 0 q68 0 111 -30.5 q43 -30.5 43 -96.5 q0 -68 -61 -93 l78 -155 ZM372 357 l5 0 q18 0 29 13 q11 13 11 31 q0 40 -45 40 l0 -84 ZM583 138.5 q77 81.5 77 194.5 q0 113 -77 194.5 q-77 81.5 -189 81.5 q-112 0 -190 -81 q-78 -81 -78 -194 q0 -112 78 -194.5 q78 -82.5 190 -82.5 q112 0 189 81.5 ZM740 333 q0 -144 -101 -246 q-101 -102 -245 -102 q-144 0 -246 102.5 q-102 102.5 -102 246.5 q0 144 102.5 246 q102.5 102 246.5 102 q143 0 244 -103 q101 -103 101 -246 Z" /><glyph glyph-name="macron" unicode="¯" d="M469 647 l-12 -94 l-335 0 l12 94 l335 0 Z" /><glyph glyph-name="degree" unicode="°" d="M439 509 q0 -64 -45.5 -108.5 q-45.5 -44.5 -109.5 -44.5 q-63 0 -108.5 45 q-45.5 45 -45.5 108 q0 63 45.5 107 q45.5 44 108.5 44 q64 0 109.5 -44 q45.5 -44 45.5 -107 ZM361 509 q0 31 -22.5 53 q-22.5 22 -54.5 22 q-31 0 -53.5 -22 q-22.5 -22 -22.5 -53 q0 -31 22 -53.5 q22 -22.5 54 -22.5 q32 0 54.5 22 q22.5 22 22.5 54 Z" /><glyph glyph-name="plusminus" unicode="±" d="M471 357 l-152 0 l0 -154 l-130 0 l0 154 l-151 0 l0 120 l151 0 l0 153 l130 0 l0 -153 l152 0 l0 -120 ZM471 50 l-433 0 l0 120 l433 0 l0 -120 Z" /><glyph glyph-name="twosuperior" unicode="²" d="M193 519 l-110 0 q5 67 46.5 111 q41.5 44 106.5 44 q53 0 85 -30 q32 -30 32 -83 q0 -57 -34 -104.5 q-34 -47.5 -91 -97.5 q48 3 96 3 l-11 -95 l-282 0 l130 147 q24 27 37 43 q13 16 29 46 q16 30 16 54 q0 25 -19 25 q-28 0 -31 -63 Z" /><glyph glyph-name="threesuperior" unicode="³" d="M193 550 l-108 0 q11 56 49.5 90 q38.5 34 94.5 34 q49 0 82.5 -28 q33.5 -28 33.5 -76 q0 -64 -57 -97 q41 -25 41 -77 q0 -59 -45.5 -97.5 q-45.5 -38.5 -105.5 -38.5 q-50 0 -86.5 26 q-36.5 26 -36.5 74 q0 9 2 27 l110 0 q-1 -4 -1 -13 q0 -22 21 -22 q15 0 23.5 12.5 q8.5 12.5 8.5 28.5 q0 33 -36 33 q-8 0 -22 -2 l11 89 q2 0 7 -0.5 q5 -0.5 8 -0.5 q47 0 47 46 q0 24 -17 24 q-18 0 -24 -32 Z" /><glyph glyph-name="acute" unicode="´" d="M437 678 l-105 -148 l-98 0 l65 148 l138 0 Z" /><glyph glyph-name="mu" unicode="µ&#x3bc;" d="M515 0 l-156 0 l8 64 q-14 -33 -37 -53 q-25 -21 -61 -21 q-39 0 -62 23 q-21 21 -31 53 l-34 -281 l-156 0 l83 682 l172 0 l-27 -219 q-3 -36 -3 -42 q0 -40 19 -64 q20 -24 53 -24 q28 0 50 20 q31 29 41 114 l26 215 l172 0 l-57 -467 Z" /><glyph glyph-name="paragraph" unicode="¶" d="M647 667 l-12 -100 l-73 0 l-81 -667 l-110 0 l81 667 l-83 0 l-82 -667 l-110 0 l52 421 l-13 0 q-70 0 -114 38.5 q-44 38.5 -44 107.5 q0 88 61 144 q61 56 193 56 l335 0 Z" /><glyph glyph-name="periodcentered" unicode="·" d="M291 353 q0 -52 -39.5 -91 q-39.5 -39 -91.5 -39 q-44 0 -73.5 29.5 q-29.5 29.5 -29.5 73.5 q0 52 39 91.5 q39 39.5 91 39.5 q45 0 74.5 -29.5 q29.5 -29.5 29.5 -74.5 Z" /><glyph glyph-name="cedilla" unicode="¸" d="M307 -106 l-126 -117 l-71 54 l102 122 l95 -59 Z" /><glyph glyph-name="onesuperior" unicode="¹" d="M300 667 l-49 -400 l-112 0 l37 303 l-43 0 l12 97 l155 0 Z" /><glyph glyph-name="ordmasculine" unicode="º" d="M54 505 q0 81 49 130 q37 38 94 38 q48 0 78 -31 q32 -34 32 -94 q0 -88 -49 -137 q-37 -37 -94 -37 q-48 0 -76 31 q-34 35 -34 100 ZM273 297 l-246 0 l6 48 l246 0 l-6 -48 ZM189 598 q-8 0 -15 -7 q-12 -12 -19 -49 q-5 -30 -5 -53 q0 -24 7 -32 q6 -7 14 -7 q8 0 15 7 q11 10 18 42 q7 33 7 57 q0 20 -6 31 q-6 11 -16 11 Z" /><glyph glyph-name="guillemotright" unicode="»" d="M11 79 l133 168 l-92 168 l85 50 l123 -226 l-178 -226 l-71 66 ZM211 79 l133 168 l-92 168 l85 50 l123 -226 l-178 -226 l-71 66 Z" /><glyph glyph-name="onequarter" unicode="¼" d="M796 169 l-11 -89 l-34 0 l-10 -80 l-112 0 l10 80 l-145 0 l10 86 l151 234 l135 0 l-28 -231 l34 0 ZM300 667 l-49 -400 l-112 0 l37 303 l-43 0 l12 97 l155 0 ZM600 169 l54 0 q12 88 16 107 q-41 -70 -70 -107 ZM650 667 l-370 -667 l-92 0 l372 667 l90 0 Z" /><glyph glyph-name="onehalf" unicode="½" d="M643 252 l-109 0 q5 67 46.5 111 q41.5 44 106.5 44 q53 0 85 -30 q32 -30 32 -83 q0 -57 -34 -104.5 q-34 -47.5 -91 -97.5 q48 3 96 3 l-11 -95 l-282 0 l130 147 q82 93 82 143 q0 25 -20 25 q-28 0 -31 -63 ZM300 667 l-49 -400 l-112 0 l37 303 l-43 0 l12 97 l155 0 ZM650 667 l-370 -667 l-92 0 l372 667 l90 0 Z" /><glyph glyph-name="threequarters" unicode="¾" d="M796 169 l-11 -89 l-34 0 l-10 -80 l-112 0 l10 80 l-145 0 l10 86 l150 234 l136 0 l-28 -231 l34 0 ZM193 550 l-108 0 q11 56 49.5 90 q38.5 34 94.5 34 q49 0 82.5 -28 q33.5 -28 33.5 -76 q0 -64 -57 -97 q41 -25 41 -77 q0 -59 -45.5 -97.5 q-45.5 -38.5 -105.5 -38.5 q-50 0 -86.5 26 q-36.5 26 -36.5 74 q0 9 2 27 l110 0 q-1 -4 -1 -13 q0 -22 21 -22 q15 0 23.5 12.5 q8.5 12.5 8.5 28.5 q0 33 -36 33 q-8 0 -22 -2 l11 89 q2 0 7 -0.5 q5 -0.5 8 -0.5 q47 0 47 46 q0 24 -17 24 q-18 0 -24 -32 ZM599 169 l55 0 q14 99 16 107 q-42 -70 -71 -107 ZM678 667 l-370 -667 l-92 0 l372 667 l90 0 Z" /><glyph glyph-name="questiondown" unicode="¿" d="M370 387 q0 -45 -33.5 -79 q-33.5 -34 -78.5 -34 q-39 0 -63.5 25.5 q-24.5 25.5 -24.5 64.5 q0 44 34.5 78.5 q34.5 34.5 78.5 34.5 q38 0 62.5 -26 q24.5 -26 24.5 -64 ZM263 -11 l171 0 q-5 -43 -13.5 -70 q-8.5 -27 -30.5 -59 q-32 -45 -83.5 -70 q-51.5 -25 -108.5 -25 q-86 0 -137 52 q-51 52 -51 138 q0 72 39.5 129.5 q39.5 57.5 110.5 77.5 l9 65 l169 0 l-21 -160 q-16 2 -26 2 q-104 0 -104 -102 q0 -54 30 -54 q37 0 46 76 Z" /><glyph glyph-name="Agrave" unicode="à" d="M491 0 l-183 0 l-3 85 l-119 0 l-25 -85 l-184 0 l240 667 l217 0 l57 -667 ZM300 305 l0 87 q0 1 3 115 q-3 -11 -10.5 -43.5 q-7.5 -32.5 -12.5 -50.5 q-6 -21 -24 -86 q-18 -65 -29 -100 l75 0 q-2 52 -2 78 ZM380 720 l-98 0 l-68 148 l138 0 l28 -148 Z" /><glyph glyph-name="Aacute" unicode="á" d="M491 0 l-183 0 l-3 85 l-119 0 l-25 -85 l-184 0 l240 667 l217 0 l57 -667 ZM300 305 l0 87 q0 1 3 115 q-3 -11 -10.5 -43.5 q-7.5 -32.5 -12.5 -50.5 q-6 -21 -24 -86 q-18 -65 -29 -100 l75 0 q-2 52 -2 78 ZM467 868 l-105 -148 l-98 0 l65 148 l138 0 Z" /><glyph glyph-name="Acircumflex" unicode="â" d="M491 0 l-183 0 l-3 85 l-119 0 l-25 -85 l-184 0 l240 667 l217 0 l57 -667 ZM300 305 l0 87 q0 1 3 115 q-3 -11 -10.5 -43.5 q-7.5 -32.5 -12.5 -50.5 q-6 -21 -24 -86 q-18 -65 -29 -100 l75 0 q-2 52 -2 78 ZM356 870 l124 -98 l-65 -70 l-71 55 l-94 -57 l-53 70 l159 100 Z" /><glyph glyph-name="Atilde" unicode="ã" d="M491 0 l-183 0 l-3 85 l-119 0 l-25 -85 l-184 0 l240 667 l217 0 l57 -667 ZM300 305 l0 87 q0 1 3 115 q-3 -11 -10.5 -43.5 q-7.5 -32.5 -12.5 -50.5 q-6 -21 -24 -86 q-18 -65 -29 -100 l75 0 q-2 52 -2 78 ZM413 855 l88 0 q-5 -56 -35.5 -94.5 q-30.5 -38.5 -84.5 -38.5 q-25 0 -61 16.5 q-36 16.5 -50 16.5 q-25 0 -31 -35 l-89 0 q4 34 12 56 q13 33 41 54.5 q28 21.5 62 21.5 q27 0 63.5 -16.5 q36.5 -16.5 52.5 -16.5 q26 0 32 36 Z" /><glyph glyph-name="Adieresis" unicode="ä" d="M491 0 l-183 0 l-3 85 l-119 0 l-25 -85 l-184 0 l240 667 l217 0 l57 -667 ZM300 305 l0 87 q0 1 3 115 q-3 -11 -10.5 -43.5 q-7.5 -32.5 -12.5 -50.5 q-6 -21 -24 -86 q-18 -65 -29 -100 l75 0 q-2 52 -2 78 ZM503 800 q0 -31 -24.5 -55.5 q-24.5 -24.5 -56.5 -24.5 q-27 0 -45 18.5 q-18 18.5 -18 45.5 q0 32 24 56 q24 24 56 24 q28 0 46 -18 q18 -18 18 -46 ZM313 792 q0 -8 -5 -20 q-9 -23 -30 -37.5 q-21 -14.5 -45 -14.5 q-28 0 -46 18 q-18 18 -18 46 q0 32 24.5 56 q24.5 24 56.5 24 q31 0 47 -20 q16 -20 16 -52 Z" /><glyph glyph-name="Aring" unicode="å" d="M491 0 l-183 0 l-3 85 l-119 0 l-25 -85 l-184 0 l240 667 l217 0 l57 -667 ZM300 305 l0 87 q0 1 3 115 q-3 -11 -10.5 -43.5 q-7.5 -32.5 -12.5 -50.5 q-6 -21 -24 -86 q-18 -65 -29 -100 l75 0 q-2 52 -2 78 ZM238 810 q0 40 28 68 q28 28 68 28 q40 0 68 -28 q28 -28 28 -68 q0 -40 -28 -68 q-28 -28 -67 -28 q-40 0 -68.5 28.5 q-28.5 28.5 -28.5 67.5 ZM307.5 836.5 q-10.5 -10.5 -10.5 -26.5 q0 -16 10.5 -26.5 q10.5 -10.5 26.5 -10.5 q16 0 26.5 10.5 q10.5 10.5 10.5 26.5 q0 16 -10.5 26.5 q-10.5 10.5 -26.5 10.5 q-16 0 -26.5 -10.5 Z" /><glyph glyph-name="AE" unicode="æ" d="M630 667 l-19 -157 l-177 0 l3 -97 l148 0 l-18 -151 l-122 0 l4 -102 l119 0 l-20 -160 l-252 0 l-2 85 l-114 0 l-24 -85 l-184 0 l234 667 l424 0 ZM219 223 l74 0 q-2 122 -2 184 q0 33 2 99 q-17 -77 -74 -283 Z" /><glyph glyph-name="Ccedilla" unicode="ç" d="M461 662 l-23 -190 q-35 40 -77 40 q-50 0 -83.5 -39.5 q-33.5 -39.5 -45 -87 q-11.5 -47.5 -11.5 -96.5 q0 -55 22 -91 q22 -36 73 -36 q47 0 97 43 l-34 -193 q-59 -24 -109 -24 q-113 0 -172.5 77.5 q-59.5 77.5 -59.5 194.5 q0 77 21 150 q21 73 61 134 q40 61 106 98 q66 37 147 37 q48 0 88 -17 ZM331 -113 l-126 -124 l-77 53 l107 137 l96 -66 Z" /><glyph glyph-name="Egrave" unicode="è" d="M430 667 l-20 -157 l-152 0 l-12 -97 l137 0 l-19 -151 l-136 0 l-13 -102 l152 0 l-19 -160 l-330 0 l82 667 l330 0 ZM340 720 l-98 0 l-68 148 l138 0 l28 -148 Z" /><glyph glyph-name="Eacute" unicode="é" d="M430 667 l-20 -157 l-152 0 l-12 -97 l137 0 l-19 -151 l-136 0 l-13 -102 l152 0 l-19 -160 l-330 0 l82 667 l330 0 ZM417 868 l-105 -148 l-98 0 l65 148 l138 0 Z" /><glyph glyph-name="Ecircumflex" unicode="ê" d="M430 667 l-20 -157 l-152 0 l-12 -97 l137 0 l-19 -151 l-136 0 l-13 -102 l152 0 l-19 -160 l-330 0 l82 667 l330 0 ZM301 870 l124 -98 l-65 -70 l-71 55 l-94 -57 l-53 70 l159 100 Z" /><glyph glyph-name="Edieresis" unicode="ë" d="M430 667 l-20 -157 l-152 0 l-12 -97 l137 0 l-19 -151 l-136 0 l-13 -102 l152 0 l-19 -160 l-330 0 l82 667 l330 0 ZM443 800 q0 -31 -24.5 -55.5 q-24.5 -24.5 -56.5 -24.5 q-27 0 -45 18.5 q-18 18.5 -18 45.5 q0 32 24 56 q24 24 56 24 q28 0 46 -18 q18 -18 18 -46 ZM253 792 q0 -8 -5 -20 q-9 -23 -30 -37.5 q-21 -14.5 -45 -14.5 q-28 0 -46 18 q-18 18 -18 46 q0 32 24.5 56 q24.5 24 56.5 24 q31 0 47 -20 q16 -20 16 -52 Z" /><glyph glyph-name="Igrave" unicode="ì" d="M277 667 l-82 -667 l-177 0 l82 667 l177 0 ZM255 720 l-98 0 l-68 148 l138 0 l28 -148 Z" /><glyph glyph-name="Iacute" unicode="í" d="M277 667 l-82 -667 l-177 0 l82 667 l177 0 ZM322 868 l-105 -148 l-98 0 l65 148 l138 0 Z" /><glyph glyph-name="Icircumflex" unicode="î" d="M277 667 l-82 -667 l-177 0 l82 667 l177 0 ZM221 870 l124 -98 l-65 -70 l-71 55 l-94 -57 l-53 70 l159 100 Z" /><glyph glyph-name="Idieresis" unicode="ï" d="M277 667 l-82 -667 l-177 0 l82 667 l177 0 ZM368 800 q0 -31 -24.5 -55.5 q-24.5 -24.5 -56.5 -24.5 q-27 0 -45 18.5 q-18 18.5 -18 45.5 q0 32 24 56 q24 24 56 24 q28 0 46 -18 q18 -18 18 -46 ZM178 792 q0 -8 -5 -20 q-9 -23 -30 -37.5 q-21 -14.5 -45 -14.5 q-28 0 -46 18 q-18 18 -18 46 q0 32 24.5 56 q24.5 24 56.5 24 q31 0 47 -20 q16 -20 16 -52 Z" /><glyph glyph-name="Eth" unicode="ð" d="M103 667 l153 0 q103 0 165 -44 q50 -35 74.5 -96 q24.5 -61 24.5 -128 q0 -160 -75 -271 q-46 -69 -108.5 -98.5 q-62.5 -29.5 -149.5 -29.5 l-166 0 l35 287 l-39 0 l14 110 l39 0 l33 270 ZM234 287 l-16 -126 q51 3 81 52 q38 63 38 164 q0 124 -77 124 l-13 -104 l50 0 l-14 -110 l-49 0 Z" /><glyph glyph-name="Ntilde" unicode="ñ" d="M562 667 l-82 -667 l-169 0 l-59 245 q-19 81 -28 139 q-1 -17 -3 -53 q-2 -36 -3 -53 q-2 -35 -31 -278 l-169 0 l82 667 l169 0 l60 -234 q8 -32 20 -93.5 q12 -61.5 15 -74.5 q0 176 10 252 l19 150 l169 0 ZM438 855 l88 0 q-5 -56 -35.5 -94.5 q-30.5 -38.5 -84.5 -38.5 q-26 0 -62 16.5 q-36 16.5 -49 16.5 q-25 0 -31 -35 l-89 0 q4 34 12 56 q13 33 41 54.5 q28 21.5 62 21.5 q27 0 63.5 -16.5 q36.5 -16.5 52.5 -16.5 q26 0 32 36 Z" /><glyph glyph-name="Ograve" unicode="ò" d="M546 422 q0 -101 -26 -191 q-31 -103 -99.5 -173 q-68.5 -70 -166.5 -70 q-50 0 -95 24 q-45 24 -74 65 q-47 69 -47 186 q0 100 29 187 q34 98 104 163.5 q70 65.5 166 65.5 q102 0 155.5 -75.5 q53.5 -75.5 53.5 -181.5 ZM362 408 q0 103 -47 103 q-19 0 -35 -18 q-16 -18 -26 -45.5 q-10 -27.5 -16 -50.5 q-6 -23 -9 -42 q-7 -41 -7 -89 q0 -109 48 -109 q19 0 35.5 18.5 q16.5 18.5 26.5 47 q10 28.5 15.5 51.5 q5.5 23 8.5 44 q6 45 6 90 ZM395 720 l-98 0 l-68 148 l138 0 l28 -148 Z" /><glyph glyph-name="Oacute" unicode="ó" d="M546 422 q0 -101 -26 -191 q-31 -103 -99.5 -173 q-68.5 -70 -166.5 -70 q-50 0 -95 24 q-45 24 -74 65 q-47 69 -47 186 q0 100 29 187 q34 98 104 163.5 q70 65.5 166 65.5 q102 0 155.5 -75.5 q53.5 -75.5 53.5 -181.5 ZM362 408 q0 103 -47 103 q-19 0 -35 -18 q-16 -18 -26 -45.5 q-10 -27.5 -16 -50.5 q-6 -23 -9 -42 q-7 -41 -7 -89 q0 -109 48 -109 q19 0 35.5 18.5 q16.5 18.5 26.5 47 q10 28.5 15.5 51.5 q5.5 23 8.5 44 q6 45 6 90 ZM492 868 l-105 -148 l-98 0 l65 148 l138 0 Z" /><glyph glyph-name="Ocircumflex" unicode="ô" d="M546 422 q0 -101 -26 -191 q-31 -103 -99.5 -173 q-68.5 -70 -166.5 -70 q-50 0 -95 24 q-45 24 -74 65 q-47 69 -47 186 q0 100 29 187 q34 98 104 163.5 q70 65.5 166 65.5 q102 0 155.5 -75.5 q53.5 -75.5 53.5 -181.5 ZM362 408 q0 103 -47 103 q-19 0 -35 -18 q-16 -18 -26 -45.5 q-10 -27.5 -16 -50.5 q-6 -23 -9 -42 q-7 -41 -7 -89 q0 -109 48 -109 q19 0 35.5 18.5 q16.5 18.5 26.5 47 q10 28.5 15.5 51.5 q5.5 23 8.5 44 q6 45 6 90 ZM371 870 l124 -98 l-65 -70 l-71 55 l-94 -57 l-53 70 l159 100 Z" /><glyph glyph-name="Otilde" unicode="õ" d="M546 422 q0 -101 -26 -191 q-31 -103 -99.5 -173 q-68.5 -70 -166.5 -70 q-50 0 -95 24 q-45 24 -74 65 q-47 69 -47 186 q0 100 29 187 q34 98 104 163.5 q70 65.5 166 65.5 q102 0 155.5 -75.5 q53.5 -75.5 53.5 -181.5 ZM362 408 q0 103 -47 103 q-19 0 -35 -18 q-16 -18 -26 -45.5 q-10 -27.5 -16 -50.5 q-6 -23 -9 -42 q-7 -41 -7 -89 q0 -109 48 -109 q19 0 35.5 18.5 q16.5 18.5 26.5 47 q10 28.5 15.5 51.5 q5.5 23 8.5 44 q6 45 6 90 ZM438 855 l88 0 q-5 -56 -35.5 -94.5 q-30.5 -38.5 -84.5 -38.5 q-26 0 -62 16.5 q-36 16.5 -49 16.5 q-25 0 -31 -35 l-89 0 q4 34 12 56 q13 33 41 54.5 q28 21.5 62 21.5 q27 0 63.5 -16.5 q36.5 -16.5 52.5 -16.5 q26 0 32 36 Z" /><glyph glyph-name="Odieresis" unicode="ö" d="M546 422 q0 -101 -26 -191 q-31 -103 -99.5 -173 q-68.5 -70 -166.5 -70 q-50 0 -95 24 q-45 24 -74 65 q-47 69 -47 186 q0 100 29 187 q34 98 104 163.5 q70 65.5 166 65.5 q102 0 155.5 -75.5 q53.5 -75.5 53.5 -181.5 ZM362 408 q0 103 -47 103 q-19 0 -35 -18 q-16 -18 -26 -45.5 q-10 -27.5 -16 -50.5 q-6 -23 -9 -42 q-7 -41 -7 -89 q0 -109 48 -109 q19 0 35.5 18.5 q16.5 18.5 26.5 47 q10 28.5 15.5 51.5 q5.5 23 8.5 44 q6 45 6 90 ZM518 800 q0 -31 -24.5 -55.5 q-24.5 -24.5 -56.5 -24.5 q-27 0 -45 18.5 q-18 18.5 -18 45.5 q0 32 24 56 q24 24 56 24 q28 0 46 -18 q18 -18 18 -46 ZM328 792 q0 -8 -5 -20 q-9 -23 -30 -37.5 q-21 -14.5 -45 -14.5 q-28 0 -46 18 q-18 18 -18 46 q0 32 24.5 56 q24.5 24 56.5 24 q31 0 47 -20 q16 -20 16 -52 Z" /><glyph glyph-name="multiply" unicode="×" d="M374 144 l-111 111 l-111 -111 l-85 85 l111 111 l-111 111 l85 85 l111 -111 l111 111 l85 -85 l-111 -111 l111 -111 l-85 -85 Z" /><glyph glyph-name="Oslash" unicode="ø" d="M606 631 l-68 -85 q22 -67 22 -135 q0 -88 -24 -172 q-33 -105 -104.5 -178 q-71.5 -73 -172.5 -73 q-80 0 -143 60 l-54 -68 l-57 44 l71 92 q-27 69 -27 136 q0 96 24 176 q31 106 101.5 178.5 q70.5 72.5 172.5 72.5 q85 0 149 -66 l51 64 l59 -46 ZM229 301 l138 174 q-10 41 -42 41 q-67 0 -95 -209 q-1 -4 -1 -6 ZM380 364 l-138 -174 q7 -39 41 -39 q25 0 44 24.5 q19 24.5 29.5 63.5 q10.5 39 15.5 68 q5 29 8 57 Z" /><glyph glyph-name="Ugrave" unicode="ù" d="M545 667 l-58 -472 q-11 -98 -85 -155 q-66 -52 -155 -52 q-92 0 -148.5 47 q-56.5 47 -56.5 137 q0 24 3 48 l55 447 l177 0 l-53 -431 q-2 -22 -2 -33 q0 -46 39 -46 q16 0 26.5 7 q10.5 7 16 20.5 q5.5 13.5 7.5 24 q2 10.5 4 27.5 l53 431 l177 0 ZM394 720 l-98 0 l-68 148 l138 0 l28 -148 Z" /><glyph glyph-name="Uacute" unicode="ú" d="M545 667 l-58 -472 q-11 -98 -85 -155 q-66 -52 -155 -52 q-92 0 -148.5 47 q-56.5 47 -56.5 137 q0 24 3 48 l55 447 l177 0 l-53 -431 q-2 -22 -2 -33 q0 -46 39 -46 q16 0 26.5 7 q10.5 7 16 20.5 q5.5 13.5 7.5 24 q2 10.5 4 27.5 l53 431 l177 0 ZM461 868 l-105 -148 l-98 0 l65 148 l138 0 Z" /><glyph glyph-name="Ucircumflex" unicode="û" d="M545 667 l-58 -472 q-11 -98 -85 -155 q-66 -52 -155 -52 q-92 0 -148.5 47 q-56.5 47 -56.5 137 q0 24 3 48 l55 447 l177 0 l-53 -431 q-2 -22 -2 -33 q0 -46 39 -46 q16 0 26.5 7 q10.5 7 16 20.5 q5.5 13.5 7.5 24 q2 10.5 4 27.5 l53 431 l177 0 ZM356 870 l124 -98 l-65 -70 l-71 55 l-94 -57 l-53 70 l159 100 Z" /><glyph glyph-name="Udieresis" unicode="ü" d="M545 667 l-58 -472 q-11 -98 -85 -155 q-66 -52 -155 -52 q-92 0 -148.5 47 q-56.5 47 -56.5 137 q0 24 3 48 l55 447 l177 0 l-53 -431 q-2 -22 -2 -33 q0 -46 39 -46 q16 0 26.5 7 q10.5 7 16 20.5 q5.5 13.5 7.5 24 q2 10.5 4 27.5 l53 431 l177 0 ZM503 800 q0 -31 -24.5 -55.5 q-24.5 -24.5 -56.5 -24.5 q-27 0 -45 18.5 q-18 18.5 -18 45.5 q0 32 24 56 q24 24 56 24 q28 0 46 -18 q18 -18 18 -46 ZM313 792 q0 -8 -5 -20 q-9 -23 -30 -37.5 q-21 -14.5 -45 -14.5 q-28 0 -46 18 q-18 18 -18 46 q0 32 24.5 56 q24.5 24 56.5 24 q31 0 47 -20 q16 -20 16 -52 Z" /><glyph glyph-name="Yacute" unicode="ý" d="M547 667 l-200 -385 l-35 -282 l-177 0 l35 282 l-116 385 l185 0 q30 -146 37 -206 q21 56 87 206 l184 0 ZM452 868 l-105 -148 l-98 0 l65 148 l138 0 Z" /><glyph glyph-name="Thorn" unicode="þ" d="M277 667 l-11 -93 q88 -2 137 -26 q95 -46 95 -167 q0 -116 -73 -190 q-65 -66 -186 -66 l-28 0 l-16 -125 l-177 0 l82 667 l177 0 ZM229 275 l9 0 q36 0 58 25.5 q22 25.5 22 61.5 q0 29 -15 47.5 q-15 18.5 -43 18.5 q-8 0 -12 -1 l-19 -152 Z" /><glyph glyph-name="germandbls" unicode="ß" d="M40 467 l47 0 q10 88 27 129 q26 64 86 104.5 q60 40.5 128 40.5 q74 0 126.5 -47.5 q52.5 -47.5 52.5 -121.5 q0 -56 -28.5 -103 q-28.5 -47 -79.5 -60 q36 -5 55 -24 q41 -41 41 -119 q0 -46 -18.5 -96.5 q-18.5 -50.5 -47.5 -85.5 q-67 -81 -185 -84 l17 143 q57 15 57 122 q0 59 -34 62 l17 140 q23 2 32.5 25.5 q9.5 23.5 9.5 50.5 q0 43 -33 43 q-38 0 -45 -63 l-64 -523 l-171 0 l40 327 l-47 0 l17 140 Z" /><glyph glyph-name="agrave" unicode="à" d="M479 467 l-57 -467 l-171 0 q3 13 8 39.5 q5 26.5 7 39.5 q-53 -89 -130 -89 q-33 0 -56.5 17 q-23.5 17 -35 45 q-11.5 28 -16.5 56 q-5 28 -5 59 q0 69 14 128 q8 33 21 63 q13 30 32.5 58 q19.5 28 48.5 44.5 q29 16.5 63 16.5 q40 0 62 -21.5 q22 -21.5 37 -62.5 q0 12 1.5 36.5 q1.5 24.5 2.5 37.5 l174 0 ZM269 187.5 q13 54.5 13 100.5 q0 46 -28 46 q-31 0 -45 -51 q-14 -51 -14 -95 q0 -55 31 -55 q30 0 43 54.5 ZM345 530 l-98 0 l-68 148 l138 0 l28 -148 Z" /><glyph glyph-name="aacute" unicode="á" d="M479 467 l-57 -467 l-171 0 q3 13 8 39.5 q5 26.5 7 39.5 q-53 -89 -130 -89 q-33 0 -56.5 17 q-23.5 17 -35 45 q-11.5 28 -16.5 56 q-5 28 -5 59 q0 69 14 128 q8 33 21 63 q13 30 32.5 58 q19.5 28 48.5 44.5 q29 16.5 63 16.5 q40 0 62 -21.5 q22 -21.5 37 -62.5 q0 12 1.5 36.5 q1.5 24.5 2.5 37.5 l174 0 ZM269 187.5 q13 54.5 13 100.5 q0 46 -28 46 q-31 0 -45 -51 q-14 -51 -14 -95 q0 -55 31 -55 q30 0 43 54.5 ZM412 678 l-105 -148 l-98 0 l65 148 l138 0 Z" /><glyph glyph-name="acircumflex" unicode="â" d="M479 467 l-57 -467 l-171 0 q3 13 8 39.5 q5 26.5 7 39.5 q-53 -89 -130 -89 q-33 0 -56.5 17 q-23.5 17 -35 45 q-11.5 28 -16.5 56 q-5 28 -5 59 q0 69 14 128 q8 33 21 63 q13 30 32.5 58 q19.5 28 48.5 44.5 q29 16.5 63 16.5 q40 0 62 -21.5 q22 -21.5 37 -62.5 q0 12 1.5 36.5 q1.5 24.5 2.5 37.5 l174 0 ZM269 187.5 q13 54.5 13 100.5 q0 46 -28 46 q-31 0 -45 -51 q-14 -51 -14 -95 q0 -55 31 -55 q30 0 43 54.5 ZM326 690 l116 -117 l-64 -63 l-65 66 l-90 -70 l-53 67 l156 117 Z" /><glyph glyph-name="atilde" unicode="ã" d="M479 467 l-57 -467 l-171 0 q3 13 8 39.5 q5 26.5 7 39.5 q-53 -89 -130 -89 q-33 0 -56.5 17 q-23.5 17 -35 45 q-11.5 28 -16.5 56 q-5 28 -5 59 q0 69 14 128 q8 33 21 63 q13 30 32.5 58 q19.5 28 48.5 44.5 q29 16.5 63 16.5 q40 0 62 -21.5 q22 -21.5 37 -62.5 q0 12 1.5 36.5 q1.5 24.5 2.5 37.5 l174 0 ZM269 187.5 q13 54.5 13 100.5 q0 46 -28 46 q-31 0 -45 -51 q-14 -51 -14 -95 q0 -55 31 -55 q30 0 43 54.5 ZM398 665 l88 0 q-5 -56 -35.5 -94.5 q-30.5 -38.5 -84.5 -38.5 q-26 0 -62 16.5 q-36 16.5 -49 16.5 q-25 0 -31 -35 l-89 0 q4 34 12 56 q13 33 41 54.5 q28 21.5 62 21.5 q27 0 63.5 -16.5 q36.5 -16.5 52.5 -16.5 q26 0 32 36 Z" /><glyph glyph-name="adieresis" unicode="ä" d="M479 467 l-57 -467 l-171 0 q3 13 8 39.5 q5 26.5 7 39.5 q-53 -89 -130 -89 q-33 0 -56.5 17 q-23.5 17 -35 45 q-11.5 28 -16.5 56 q-5 28 -5 59 q0 69 14 128 q8 33 21 63 q13 30 32.5 58 q19.5 28 48.5 44.5 q29 16.5 63 16.5 q40 0 62 -21.5 q22 -21.5 37 -62.5 q0 12 1.5 36.5 q1.5 24.5 2.5 37.5 l174 0 ZM269 187.5 q13 54.5 13 100.5 q0 46 -28 46 q-31 0 -45 -51 q-14 -51 -14 -95 q0 -55 31 -55 q30 0 43 54.5 ZM478 610 q0 -31 -24.5 -55.5 q-24.5 -24.5 -56.5 -24.5 q-27 0 -45 18.5 q-18 18.5 -18 45.5 q0 32 24 56 q24 24 56 24 q28 0 46 -18 q18 -18 18 -46 ZM288 602 q0 -8 -5 -20 q-9 -23 -30 -37.5 q-21 -14.5 -45 -14.5 q-28 0 -46 18 q-18 18 -18 46 q0 32 24.5 56 q24.5 24 56.5 24 q31 0 47 -20 q16 -20 16 -52 Z" /><glyph glyph-name="aring" unicode="å" d="M479 467 l-57 -467 l-171 0 q3 13 8 39.5 q5 26.5 7 39.5 q-53 -89 -130 -89 q-33 0 -56.5 17 q-23.5 17 -35 45 q-11.5 28 -16.5 56 q-5 28 -5 59 q0 69 14 128 q8 33 21 63 q13 30 32.5 58 q19.5 28 48.5 44.5 q29 16.5 63 16.5 q40 0 62 -21.5 q22 -21.5 37 -62.5 q0 12 1.5 36.5 q1.5 24.5 2.5 37.5 l174 0 ZM269 187.5 q13 54.5 13 100.5 q0 46 -28 46 q-31 0 -45 -51 q-14 -51 -14 -95 q0 -55 31 -55 q30 0 43 54.5 ZM216 551 q-28 28 -28 68 q0 40 28 68 q28 28 68 28 q40 0 68 -28 q28 -28 28 -68 q0 -40 -28 -68 q-28 -28 -68 -28 q-40 0 -68 28 ZM257.5 645.5 q-10.5 -10.5 -10.5 -26.5 q0 -16 10.5 -26.5 q10.5 -10.5 26.5 -10.5 q16 0 26.5 10.5 q10.5 10.5 10.5 26.5 q0 16 -10.5 26.5 q-10.5 10.5 -26.5 10.5 q-16 0 -26.5 -10.5 Z" /><glyph glyph-name="ae" unicode="æ" d="M88 321 l17 135 q80 21 140 21 q87 0 135 -46 q68 46 138 46 q88 0 135.5 -56 q47.5 -56 47.5 -145 q0 -26 -8 -78 l-252 0 q0 -3 -0.5 -9 q-0.5 -6 -0.5 -9 q0 -62 37 -62 q27 0 43 35 l161 -3 q-17 -44 -36.5 -73 q-19.5 -29 -53.5 -51 q-56 -36 -135 -36 q-77 0 -130 48 q-74 -48 -154 -48 q-66 0 -111 38 q-45 38 -45 103 q0 79 53 124.5 q53 45.5 133 45.5 q39 0 86 -10 q-1 57 -83 57 q-60 0 -117 -27 ZM453 291 l86 0 q0 65 -36 65 q-36 0 -50 -65 ZM273 156 q0 17 -11.5 26 q-11.5 9 -29.5 9 q-20 0 -35 -13.5 q-15 -13.5 -15 -33.5 q0 -35 41 -35 q22 0 36 13 q14 13 14 34 Z" /><glyph glyph-name="ccedilla" unicode="ç" d="M309 475 l-19 -152 q-41 -3 -64 -30 q-23 -27 -23 -68 q0 -28 14.5 -50.5 q14.5 -22.5 40.5 -22.5 l11 0 l-19 -159 q-22 -3 -46 -3 q-88 0 -133.5 60 q-45.5 60 -45.5 150 q0 109 71.5 193 q71.5 84 178.5 84 q12 0 34 -2 ZM248 -106 l-126 -117 l-71 54 l102 122 l95 -59 Z" /><glyph glyph-name="egrave" unicode="è" d="M266 157 l166 0 q-26 -80 -84 -123.5 q-58 -43.5 -141 -43.5 q-89 0 -136.5 51 q-47.5 51 -47.5 140 q0 116 68 205.5 q68 89.5 180 89.5 q87 0 133.5 -55.5 q46.5 -55.5 46.5 -144.5 q0 -27 -8 -79 l-250 0 q-1 -6 -1 -19 q0 -53 32 -53 q31 0 42 32 ZM207 290 l79 0 q0 2 0.5 6 q0.5 4 0.5 6 q0 47 -34 47 q-20 0 -31.5 -18 q-11.5 -18 -14.5 -41 ZM347 530 l-98 0 l-68 148 l138 0 l28 -148 Z" /><glyph glyph-name="eacute" unicode="é" d="M266 157 l166 0 q-26 -80 -84 -123.5 q-58 -43.5 -141 -43.5 q-89 0 -136.5 51 q-47.5 51 -47.5 140 q0 116 68 205.5 q68 89.5 180 89.5 q87 0 133.5 -55.5 q46.5 -55.5 46.5 -144.5 q0 -27 -8 -79 l-250 0 q-1 -6 -1 -19 q0 -53 32 -53 q31 0 42 32 ZM207 290 l79 0 q0 2 0.5 6 q0.5 4 0.5 6 q0 47 -34 47 q-20 0 -31.5 -18 q-11.5 -18 -14.5 -41 ZM424 678 l-105 -148 l-98 0 l65 148 l138 0 Z" /><glyph glyph-name="ecircumflex" unicode="ê" d="M266 157 l166 0 q-26 -80 -84 -123.5 q-58 -43.5 -141 -43.5 q-89 0 -136.5 51 q-47.5 51 -47.5 140 q0 116 68 205.5 q68 89.5 180 89.5 q87 0 133.5 -55.5 q46.5 -55.5 46.5 -144.5 q0 -27 -8 -79 l-250 0 q-1 -6 -1 -19 q0 -53 32 -53 q31 0 42 32 ZM207 290 l79 0 q0 2 0.5 6 q0.5 4 0.5 6 q0 47 -34 47 q-20 0 -31.5 -18 q-11.5 -18 -14.5 -41 ZM311 690 l116 -117 l-64 -63 l-65 66 l-90 -70 l-53 67 l156 117 Z" /><glyph glyph-name="edieresis" unicode="ë" d="M266 157 l166 0 q-26 -80 -84 -123.5 q-58 -43.5 -141 -43.5 q-89 0 -136.5 51 q-47.5 51 -47.5 140 q0 116 68 205.5 q68 89.5 180 89.5 q87 0 133.5 -55.5 q46.5 -55.5 46.5 -144.5 q0 -27 -8 -79 l-250 0 q-1 -6 -1 -19 q0 -53 32 -53 q31 0 42 32 ZM207 290 l79 0 q0 2 0.5 6 q0.5 4 0.5 6 q0 47 -34 47 q-20 0 -31.5 -18 q-11.5 -18 -14.5 -41 ZM450 610 q0 -31 -24.5 -55.5 q-24.5 -24.5 -56.5 -24.5 q-27 0 -45 18.5 q-18 18.5 -18 45.5 q0 32 24 56 q24 24 56 24 q28 0 46 -18 q18 -18 18 -46 ZM260 602 q0 -8 -5 -20 q-9 -23 -30 -37.5 q-21 -14.5 -45 -14.5 q-28 0 -46 18 q-18 18 -18 46 q0 32 24.5 56 q24.5 24 56.5 24 q31 0 47 -20 q16 -20 16 -52 Z" /><glyph glyph-name="igrave" unicode="ì" d="M239 467 l-57 -467 l-171 0 l58 467 l170 0 ZM225 530 l-98 0 l-68 148 l138 0 l28 -148 Z" /><glyph glyph-name="iacute" unicode="í" d="M239 467 l-57 -467 l-171 0 l58 467 l170 0 ZM292 678 l-105 -148 l-98 0 l65 148 l138 0 Z" /><glyph glyph-name="icircumflex" unicode="î" d="M239 467 l-57 -467 l-171 0 l58 467 l170 0 ZM186 690 l116 -117 l-64 -63 l-65 66 l-90 -70 l-53 67 l156 117 Z" /><glyph glyph-name="idieresis" unicode="ï" d="M239 467 l-57 -467 l-171 0 l58 467 l170 0 ZM328 610 q0 -31 -24.5 -55.5 q-24.5 -24.5 -56.5 -24.5 q-27 0 -45 18.5 q-18 18.5 -18 45.5 q0 32 24 56 q24 24 56 24 q28 0 46 -18 q18 -18 18 -46 ZM138 602 q0 -8 -5 -20 q-9 -23 -30 -37.5 q-21 -14.5 -45 -14.5 q-28 0 -46 18 q-18 18 -18 46 q0 32 24.5 56 q24.5 24 56.5 24 q31 0 47 -20 q16 -20 16 -52 Z" /><glyph glyph-name="eth" unicode="ð" d="M416 663 l-70 -37 q57 -56 86 -137 q29 -81 29 -168 q0 -156 -63 -238 q-71 -93 -185 -93 q-93 0 -141 53 q-48 53 -48 147 q0 113 64 198.5 q64 85.5 174 87.5 q-11 51 -34 88 l-96 -54 l-33 70 l78 43 q-41 31 -77 48 l52 69 q72 -21 128 -62 l98 53 l38 -68 ZM291 268 q0 77 -38 77 q-32 0 -48 -53 q-16 -53 -16 -95 q0 -77 37 -77 q17 0 31 18 q14 18 20.5 43.5 q6.5 25.5 10 48 q3.5 22.5 3.5 38.5 Z" /><glyph glyph-name="ntilde" unicode="ñ" d="M69 467 l170 0 q-14 -84 -15 -89 q53 99 134 99 q47 0 73.5 -33.5 q26.5 -33.5 26.5 -82.5 q0 -22 -3 -43 l-39 -318 l-171 0 l31 247 q2 18 2 26 q0 31 -23 31 q-36 0 -44 -69 l-29 -235 l-171 0 l58 467 ZM375 665 l88 0 q-5 -56 -35.5 -94.5 q-30.5 -38.5 -84.5 -38.5 q-26 0 -62 16.5 q-36 16.5 -49 16.5 q-25 0 -31 -35 l-89 0 q4 34 12 56 q13 33 41 54.5 q28 21.5 62 21.5 q27 0 63.5 -16.5 q36.5 -16.5 52.5 -16.5 q26 0 32 36 Z" /><glyph glyph-name="ograve" unicode="ò" d="M456 280 q0 -123 -64.5 -206.5 q-64.5 -83.5 -183.5 -83.5 q-90 0 -137 54 q-47 54 -47 146 q0 116 66.5 201.5 q66.5 85.5 179.5 85.5 q89 0 137.5 -53.5 q48.5 -53.5 48.5 -143.5 ZM291 269 q0 77 -37 77 q-32 0 -48 -52.5 q-16 -52.5 -16 -95.5 q0 -77 37 -77 q32 0 48 52.5 q16 52.5 16 95.5 ZM330 530 l-98 0 l-68 148 l138 0 l28 -148 Z" /><glyph glyph-name="oacute" unicode="ó" d="M456 280 q0 -123 -64.5 -206.5 q-64.5 -83.5 -183.5 -83.5 q-90 0 -137 54 q-47 54 -47 146 q0 116 66.5 201.5 q66.5 85.5 179.5 85.5 q89 0 137.5 -53.5 q48.5 -53.5 48.5 -143.5 ZM291 269 q0 77 -37 77 q-32 0 -48 -52.5 q-16 -52.5 -16 -95.5 q0 -77 37 -77 q32 0 48 52.5 q16 52.5 16 95.5 ZM437 678 l-105 -148 l-98 0 l65 148 l138 0 Z" /><glyph glyph-name="ocircumflex" unicode="ô" d="M456 280 q0 -123 -64.5 -206.5 q-64.5 -83.5 -183.5 -83.5 q-90 0 -137 54 q-47 54 -47 146 q0 116 66.5 201.5 q66.5 85.5 179.5 85.5 q89 0 137.5 -53.5 q48.5 -53.5 48.5 -143.5 ZM291 269 q0 77 -37 77 q-32 0 -48 -52.5 q-16 -52.5 -16 -95.5 q0 -77 37 -77 q32 0 48 52.5 q16 52.5 16 95.5 ZM311 690 l116 -117 l-64 -63 l-65 66 l-90 -70 l-53 67 l156 117 Z" /><glyph glyph-name="otilde" unicode="õ" d="M456 280 q0 -123 -64.5 -206.5 q-64.5 -83.5 -183.5 -83.5 q-90 0 -137 54 q-47 54 -47 146 q0 116 66.5 201.5 q66.5 85.5 179.5 85.5 q89 0 137.5 -53.5 q48.5 -53.5 48.5 -143.5 ZM291 269 q0 77 -37 77 q-32 0 -48 -52.5 q-16 -52.5 -16 -95.5 q0 -77 37 -77 q32 0 48 52.5 q16 52.5 16 95.5 ZM373 665 l88 0 q-5 -56 -35.5 -94.5 q-30.5 -38.5 -84.5 -38.5 q-25 0 -61 16.5 q-36 16.5 -50 16.5 q-25 0 -31 -35 l-89 0 q4 34 12 56 q13 33 41 54.5 q28 21.5 62 21.5 q27 0 63.5 -16.5 q36.5 -16.5 52.5 -16.5 q26 0 32 36 Z" /><glyph glyph-name="odieresis" unicode="ö" d="M456 280 q0 -123 -64.5 -206.5 q-64.5 -83.5 -183.5 -83.5 q-90 0 -137 54 q-47 54 -47 146 q0 116 66.5 201.5 q66.5 85.5 179.5 85.5 q89 0 137.5 -53.5 q48.5 -53.5 48.5 -143.5 ZM291 269 q0 77 -37 77 q-32 0 -48 -52.5 q-16 -52.5 -16 -95.5 q0 -77 37 -77 q32 0 48 52.5 q16 52.5 16 95.5 ZM453 610 q0 -31 -24.5 -55.5 q-24.5 -24.5 -56.5 -24.5 q-27 0 -45 18.5 q-18 18.5 -18 45.5 q0 32 24 56 q24 24 56 24 q28 0 46 -18 q18 -18 18 -46 ZM263 602 q0 -8 -5 -20 q-9 -23 -30 -37.5 q-21 -14.5 -45 -14.5 q-28 0 -46 18 q-18 18 -18 46 q0 32 24.5 56 q24.5 24 56.5 24 q31 0 47 -20 q16 -20 16 -52 Z" /><glyph glyph-name="divide" unicode="÷" d="M338 510 q0 -30 -22 -52 q-22 -22 -52 -22 q-31 0 -53 21.5 q-22 21.5 -22 52.5 q0 31 21.5 52.5 q21.5 21.5 52.5 21.5 q31 0 53 -21.5 q22 -21.5 22 -52.5 ZM480 280 l-433 0 l0 120 l433 0 l0 -120 ZM338 170 q0 -30 -22 -52 q-22 -22 -52 -22 q-31 0 -53 21.5 q-22 21.5 -22 52.5 q0 31 21.5 52.5 q21.5 21.5 52.5 21.5 q31 0 53 -21.5 q22 -21.5 22 -52.5 Z" /><glyph glyph-name="oslash" unicode="ø" d="M484 472 l-58 -72 q31 -50 31 -126 q0 -119 -66.5 -201.5 q-66.5 -82.5 -182.5 -82.5 q-54 0 -96 21 l-54 -67 l-60 48 l58 73 q-32 53 -32 125 q0 115 67 201 q67 86 178 86 q55 0 100 -24 l54 66 l61 -47 ZM291 269 q0 77 -37 77 q-32 0 -48 -52.5 q-16 -52.5 -16 -95.5 q0 -77 37 -77 q32 0 48 52.5 q16 52.5 16 95.5 Z" /><glyph glyph-name="ugrave" unicode="ù" d="M482 467 l-35 -287 q-12 -99 -85 -147 q-66 -43 -145 -43 q-78 0 -132 39.5 q-54 39.5 -54 114.5 l3 36 l35 287 l170 0 l-32 -263 q0 -1 -1.5 -14.5 q-1.5 -13.5 -1.5 -20.5 q0 -34 31 -34 q13 0 22 6 q9 6 13.5 19 q4.5 13 5.5 20.5 q1 7.5 3 23.5 l32 263 l171 0 ZM325 530 l-98 0 l-68 148 l138 0 l28 -148 Z" /><glyph glyph-name="uacute" unicode="ú" d="M482 467 l-35 -287 q-12 -99 -85 -147 q-66 -43 -145 -43 q-78 0 -132 39.5 q-54 39.5 -54 114.5 l3 36 l35 287 l170 0 l-32 -263 q0 -1 -1.5 -14.5 q-1.5 -13.5 -1.5 -20.5 q0 -34 31 -34 q13 0 22 6 q9 6 13.5 19 q4.5 13 5.5 20.5 q1 7.5 3 23.5 l32 263 l171 0 ZM422 678 l-105 -148 l-98 0 l65 148 l138 0 Z" /><glyph glyph-name="ucircumflex" unicode="û" d="M482 467 l-35 -287 q-12 -99 -85 -147 q-66 -43 -145 -43 q-78 0 -132 39.5 q-54 39.5 -54 114.5 l3 36 l35 287 l170 0 l-32 -263 q0 -1 -1.5 -14.5 q-1.5 -13.5 -1.5 -20.5 q0 -34 31 -34 q13 0 22 6 q9 6 13.5 19 q4.5 13 5.5 20.5 q1 7.5 3 23.5 l32 263 l171 0 ZM307 690 l116 -117 l-64 -63 l-65 66 l-90 -70 l-53 67 l156 117 Z" /><glyph glyph-name="udieresis" unicode="ü" d="M482 467 l-35 -287 q-12 -99 -85 -147 q-66 -43 -145 -43 q-78 0 -132 39.5 q-54 39.5 -54 114.5 l3 36 l35 287 l170 0 l-32 -263 q0 -1 -1.5 -14.5 q-1.5 -13.5 -1.5 -20.5 q0 -34 31 -34 q13 0 22 6 q9 6 13.5 19 q4.5 13 5.5 20.5 q1 7.5 3 23.5 l32 263 l171 0 ZM459 610 q0 -31 -24.5 -55.5 q-24.5 -24.5 -56.5 -24.5 q-27 0 -45 18.5 q-18 18.5 -18 45.5 q0 32 24 56 q24 24 56 24 q28 0 46 -18 q18 -18 18 -46 ZM269 602 q0 -8 -5 -20 q-9 -23 -30 -37.5 q-21 -14.5 -45 -14.5 q-28 0 -46 18 q-18 18 -18 46 q0 32 24.5 56 q24.5 24 56.5 24 q31 0 47 -20 q16 -20 16 -52 Z" /><glyph glyph-name="yacute" unicode="ý" d="M487 467 l-301 -682 l-176 0 l110 234 l-82 448 l172 0 q2 -18 7 -57 q5 -39 7.5 -61.5 q2.5 -22.5 5 -55.5 q2.5 -33 2.5 -61 q0 -5 -0.5 -15 q-0.5 -10 -0.5 -15 q36 133 48 164 l38 101 l170 0 ZM412 678 l-105 -148 l-98 0 l65 148 l138 0 Z" /><glyph glyph-name="thorn" unicode="þ" d="M275 729 l-32 -262 q-3 -22 -13 -66 q48 76 115 76 q46 0 75 -32 q29 -32 38.5 -71 q9.5 -39 9.5 -84 q0 -43 -9.5 -91.5 q-9.5 -48.5 -29 -97 q-19.5 -48.5 -56 -80 q-36.5 -31.5 -83.5 -31.5 q-37 0 -59.5 18 q-22.5 18 -41.5 55 q-5 -91 -32 -278 l-171 0 l118 944 l171 0 ZM291 270 q0 64 -30 64 q-28 0 -41 -48 q-13 -48 -13 -87 q0 -63 28 -63 q15 0 27 16.5 q12 16.5 17.5 40 q5.5 23.5 8.5 43.5 q3 20 3 34 Z" /><glyph glyph-name="ydieresis" unicode="ÿ" d="M487 467 l-301 -682 l-176 0 l110 234 l-82 448 l172 0 q2 -18 7 -57 q5 -39 7.5 -61.5 q2.5 -22.5 5 -55.5 q2.5 -33 2.5 -61 q0 -5 -0.5 -15 q-0.5 -10 -0.5 -15 q36 133 48 164 l38 101 l170 0 ZM438 610 q0 -31 -24.5 -55.5 q-24.5 -24.5 -56.5 -24.5 q-27 0 -45 18.5 q-18 18.5 -18 45.5 q0 32 24 56 q24 24 56 24 q28 0 46 -18 q18 -18 18 -46 ZM248 602 q0 -8 -5 -20 q-9 -23 -30 -37.5 q-21 -14.5 -45 -14.5 q-28 0 -46 18 q-18 18 -18 46 q0 32 24.5 56 q24.5 24 56.5 24 q31 0 47 -20 q16 -20 16 -52 Z" /><glyph glyph-name="Amacron" unicode="&#x100;" d="M491 0 l-183 0 l-3 85 l-119 0 l-25 -85 l-184 0 l240 667 l217 0 l57 -667 ZM300 305 l0 87 q0 1 3 115 q-3 -11 -10.5 -43.5 q-7.5 -32.5 -12.5 -50.5 q-6 -21 -24 -86 q-18 -65 -29 -100 l75 0 q-2 52 -2 78 ZM504 837 l-12 -94 l-335 0 l12 94 l335 0 Z" /><glyph glyph-name="amacron" unicode="&#x101;" d="M479 467 l-57 -467 l-171 0 q3 13 8 39.5 q5 26.5 7 39.5 q-53 -89 -130 -89 q-33 0 -56.5 17 q-23.5 17 -35 45 q-11.5 28 -16.5 56 q-5 28 -5 59 q0 69 14 128 q8 33 21 63 q13 30 32.5 58 q19.5 28 48.5 44.5 q29 16.5 63 16.5 q40 0 62 -21.5 q22 -21.5 37 -62.5 q0 12 1.5 36.5 q1.5 24.5 2.5 37.5 l174 0 ZM269 187.5 q13 54.5 13 100.5 q0 46 -28 46 q-31 0 -45 -51 q-14 -51 -14 -95 q0 -55 31 -55 q30 0 43 54.5 ZM469 647 l-12 -94 l-335 0 l12 94 l335 0 Z" /><glyph glyph-name="Abreve" unicode="&#x102;" d="M491 0 l-183 0 l-3 85 l-119 0 l-25 -85 l-184 0 l240 667 l217 0 l57 -667 ZM300 305 l0 87 q0 1 3 115 q-3 -11 -10.5 -43.5 q-7.5 -32.5 -12.5 -50.5 q-6 -21 -24 -86 q-18 -65 -29 -100 l75 0 q-2 52 -2 78 ZM438 866 l69 0 q-14 -68 -60.5 -108 q-46.5 -40 -115.5 -40 q-61 0 -100.5 35.5 q-39.5 35.5 -39.5 95.5 l0 17 l69 0 q8 -32 27.5 -42.5 q19.5 -10.5 54.5 -10.5 q37 0 58.5 11 q21.5 11 37.5 42 Z" /><glyph glyph-name="abreve" unicode="&#x103;" d="M479 467 l-57 -467 l-171 0 q3 13 8 39.5 q5 26.5 7 39.5 q-53 -89 -130 -89 q-33 0 -56.5 17 q-23.5 17 -35 45 q-11.5 28 -16.5 56 q-5 28 -5 59 q0 69 14 128 q8 33 21 63 q13 30 32.5 58 q19.5 28 48.5 44.5 q29 16.5 63 16.5 q40 0 62 -21.5 q22 -21.5 37 -62.5 q0 12 1.5 36.5 q1.5 24.5 2.5 37.5 l174 0 ZM269 187.5 q13 54.5 13 100.5 q0 46 -28 46 q-31 0 -45 -51 q-14 -51 -14 -95 q0 -55 31 -55 q30 0 43 54.5 ZM398 669 l69 0 q-14 -68 -60.5 -108 q-46.5 -40 -115.5 -40 q-61 0 -100.5 35.5 q-39.5 35.5 -39.5 95.5 l0 17 l69 0 q8 -32 27.5 -42.5 q19.5 -10.5 54.5 -10.5 q37 0 58.5 11 q21.5 11 37.5 42 Z" /><glyph glyph-name="Aogonek" unicode="&#x104;" d="M217 667 l217 0 l57 -667 l-60 0 q-13 -15 -24 -36 q-9 -18 -9 -35 q0 -13 8 -22 q9 -10 27 -10 q16 0 36 9 l-17 -77 q-29 -12 -60 -12 q-42 0 -67 21 q-23 20 -23 55 q0 35 22 64 q15 19 43 43 l-59 0 l-3 85 l-119 0 l-25 -85 l-184 0 l240 667 ZM300 305 l0 87 q0 13 3 115 q-18 -83 -36 -140 q-3 -11 -7.5 -25.5 q-4.5 -14.5 -13 -46 q-8.5 -31.5 -19.5 -68.5 l75 0 l-2 78 Z" /><glyph glyph-name="aogonek" unicode="&#x105;" d="M479 467 l-57 -467 l-52 0 q-16 -20 -23 -34 q-10 -20 -10 -34 q0 -14 10 -23 q8 -8 24 -8 q17 0 35 9 l-17 -73 q-28 -12 -61 -12 q-43 0 -66 24 q-19 21 -19 52 q0 30 20 58 q14 20 43 41 l-55 0 l15 79 q-13 -24 -35 -47 q-40 -42 -92 -42 q-46 0 -73 30 q-43 46 -43 153 q0 75 21.5 148 q21.5 73 62.5 114 q42 42 95 42 q39 0 64 -24 q24 -23 35 -60 l4 74 l174 0 ZM254 334 q-13 0 -24 -11 q-17 -17 -26 -58 q-9 -36 -9 -80 q0 -32 12 -44 q8 -8 19 -8 q11 0 22 11 q17 17 27 69 q7 37 7 73 q0 33 -11 42 q-6 6 -17 6 Z" /><glyph glyph-name="Cacute" unicode="&#x106;" d="M461 662 l-23 -190 q-35 40 -77 40 q-50 0 -83.5 -39.5 q-33.5 -39.5 -45 -87 q-11.5 -47.5 -11.5 -96.5 q0 -55 22 -91 q22 -36 73 -36 q47 0 97 43 l-34 -193 q-59 -24 -109 -24 q-113 0 -172.5 77.5 q-59.5 77.5 -59.5 194.5 q0 77 21 150 q21 73 61 134 q40 61 106 98 q66 37 147 37 q48 0 88 -17 ZM517 868 l-105 -148 l-98 0 l65 148 l138 0 Z" /><glyph glyph-name="cacute" unicode="&#x107;" d="M309 475 l-19 -152 q-41 -3 -64 -30 q-23 -27 -23 -68 q0 -28 14.5 -50.5 q14.5 -22.5 40.5 -22.5 l11 0 l-19 -159 q-22 -3 -46 -3 q-88 0 -133.5 60 q-45.5 60 -45.5 150 q0 109 71.5 193 q71.5 84 178.5 84 q12 0 34 -2 ZM407 678 l-105 -148 l-98 0 l65 148 l138 0 Z" /><glyph glyph-name="Ccircumflex" unicode="&#x108;" d="M461 662 l-23 -190 q-35 40 -77 40 q-50 0 -83.5 -39.5 q-33.5 -39.5 -45 -87 q-11.5 -47.5 -11.5 -96.5 q0 -55 22 -91 q22 -36 73 -36 q47 0 97 43 l-34 -193 q-59 -24 -109 -24 q-113 0 -172.5 77.5 q-59.5 77.5 -59.5 194.5 q0 77 21 150 q21 73 61 134 q40 61 106 98 q66 37 147 37 q48 0 88 -17 ZM396 870 l124 -98 l-65 -70 l-71 55 l-94 -57 l-53 70 l159 100 Z" /><glyph glyph-name="ccircumflex" unicode="&#x109;" d="M309 475 l-19 -152 q-41 -3 -64 -30 q-23 -27 -23 -68 q0 -28 14.5 -50.5 q14.5 -22.5 40.5 -22.5 l11 0 l-19 -159 q-22 -3 -46 -3 q-88 0 -133.5 60 q-45.5 60 -45.5 150 q0 109 71.5 193 q71.5 84 178.5 84 q12 0 34 -2 ZM261 690 l116 -117 l-64 -63 l-65 66 l-90 -70 l-53 67 l156 117 Z" /><glyph glyph-name="Cdotaccent" unicode="&#x10a;" d="M461 662 l-23 -190 q-35 40 -77 40 q-50 0 -83.5 -39.5 q-33.5 -39.5 -45 -87 q-11.5 -47.5 -11.5 -96.5 q0 -55 22 -91 q22 -36 73 -36 q47 0 97 43 l-34 -193 q-59 -24 -109 -24 q-113 0 -172.5 77.5 q-59.5 77.5 -59.5 194.5 q0 77 21 150 q21 73 61 134 q40 61 106 98 q66 37 147 37 q48 0 88 -17 ZM463 796 q0 -11 -6 -21 q-9 -24 -31 -39.5 q-22 -15.5 -47 -15.5 q-29 0 -48 19 q-19 19 -19 48 q0 34 25 59 q25 25 59 25 q33 0 50 -20.5 q17 -20.5 17 -54.5 Z" /><glyph glyph-name="cdotaccent" unicode="&#x10b;" d="M309 475 l-19 -152 q-41 -3 -64 -30 q-23 -27 -23 -68 q0 -28 14.5 -50.5 q14.5 -22.5 40.5 -22.5 l11 0 l-19 -159 q-22 -3 -46 -3 q-88 0 -133.5 60 q-45.5 60 -45.5 150 q0 109 71.5 193 q71.5 84 178.5 84 q12 0 34 -2 ZM355 606 q0 -11 -6 -21 q-9 -24 -31 -39.5 q-22 -15.5 -47 -15.5 q-29 0 -48 19 q-19 19 -19 48 q0 34 25 59 q25 25 59 25 q33 0 50 -20.5 q17 -20.5 17 -54.5 Z" /><glyph glyph-name="Ccaron" unicode="&#x10c;" d="M461 662 l-23 -190 q-35 40 -77 40 q-50 0 -83.5 -39.5 q-33.5 -39.5 -45 -87 q-11.5 -47.5 -11.5 -96.5 q0 -55 22 -91 q22 -36 73 -36 q47 0 97 43 l-34 -193 q-59 -24 -109 -24 q-113 0 -172.5 77.5 q-59.5 77.5 -59.5 194.5 q0 77 21 150 q21 73 61 134 q40 61 106 98 q66 37 147 37 q48 0 88 -17 ZM536 802 l-166 -98 l-121 103 l71 63 l70 -58 l92 56 l54 -66 Z" /><glyph glyph-name="ccaron" unicode="&#x10d;" d="M309 475 l-19 -152 q-41 -3 -64 -30 q-23 -27 -23 -68 q0 -28 14.5 -50.5 q14.5 -22.5 40.5 -22.5 l11 0 l-19 -159 q-22 -3 -46 -3 q-88 0 -133.5 60 q-45.5 60 -45.5 150 q0 109 71.5 193 q71.5 84 178.5 84 q12 0 34 -2 ZM410 623 l-159 -112 l-118 118 l71 61 l64 -65 l87 65 l55 -67 Z" /><glyph glyph-name="Dcaron" unicode="&#x10e;" d="M100 667 l153 0 q126 0 195 -71.5 q69 -71.5 69 -197.5 q0 -158 -75 -270 q-47 -69 -108.5 -98.5 q-61.5 -29.5 -149.5 -29.5 l-166 0 l82 667 ZM257 500 l-42 -339 q34 2 59 24.5 q25 22.5 37 57.5 q12 35 17.5 68 q5.5 33 5.5 65 q0 124 -77 124 ZM456 802 l-166 -98 l-121 103 l71 63 l70 -58 l92 56 l54 -66 Z" /><glyph glyph-name="dcaron" unicode="&#x10f;" d="M511 729 l-89 -729 l-174 0 q1 12 5.5 34 q4.5 22 5.5 29 q-27 -36 -52.5 -54.5 q-25.5 -18.5 -61.5 -18.5 q-66 0 -94.5 51 q-28.5 51 -28.5 123 q0 70 14 129 q18 74 60 129 q42 55 107 55 q39 0 61 -19.5 q22 -19.5 39 -58.5 q4 62 38 330 l170 0 ZM288 274 q0 59 -29 59 q-31 0 -44.5 -46.5 q-13.5 -46.5 -13.5 -89.5 q0 -58 33 -58 q29 0 41.5 47 q12.5 47 12.5 88 ZM727 667 l-100 -221 l-104 0 l58 221 l146 0 Z" /><glyph glyph-name="Dcroat" unicode="&#x110;" d="M103 667 l153 0 q103 0 165 -44 q50 -35 74.5 -96 q24.5 -61 24.5 -128 q0 -160 -75 -271 q-46 -69 -108.5 -98.5 q-62.5 -29.5 -149.5 -29.5 l-166 0 l35 287 l-39 0 l14 110 l39 0 l33 270 ZM234 287 l-16 -126 q51 3 81 52 q38 63 38 164 q0 124 -77 124 l-13 -104 l50 0 l-14 -110 l-49 0 Z" /><glyph glyph-name="dcroat" unicode="&#x111;" d="M511 729 l-15 -125 l55 0 l-14 -105 l-54 0 l-61 -499 l-174 0 l11 63 q-21 -31 -46 -50 q-31 -23 -68 -23 q-53 0 -85 43 q-38 50 -38 146 q0 58 22 120 q22 62 58 97 q41 39 95 39 q36 0 63 -19 q26 -18 40 -47 q0 14 7 78 l6 52 l-120 0 l14 105 l118 0 l16 125 l170 0 ZM257 307 q-12 0 -22 -9 q-16 -14 -25 -48 q-9 -34 -9 -65 q0 -35 13 -48 q10 -8 18 -8 q12 0 21 9 q17 16 25.5 51 q8.5 35 8.5 62 q0 34 -12 48 q-8 8 -18 8 Z" /><glyph glyph-name="Emacron" unicode="&#x112;" d="M430 667 l-20 -157 l-152 0 l-12 -97 l137 0 l-19 -151 l-136 0 l-13 -102 l152 0 l-19 -160 l-330 0 l82 667 l330 0 ZM449 837 l-12 -94 l-335 0 l12 94 l335 0 Z" /><glyph glyph-name="emacron" unicode="&#x113;" d="M266 157 l166 0 q-26 -80 -84 -123.5 q-58 -43.5 -141 -43.5 q-89 0 -136.5 51 q-47.5 51 -47.5 140 q0 116 68 205.5 q68 89.5 180 89.5 q87 0 133.5 -55.5 q46.5 -55.5 46.5 -144.5 q0 -27 -8 -79 l-250 0 q-1 -6 -1 -19 q0 -53 32 -53 q31 0 42 32 ZM207 290 l79 0 q0 2 0.5 6 q0.5 4 0.5 6 q0 47 -34 47 q-20 0 -31.5 -18 q-11.5 -18 -14.5 -41 ZM456 647 l-12 -94 l-335 0 l12 94 l335 0 Z" /><glyph glyph-name="Edotaccent" unicode="&#x116;" d="M430 667 l-20 -157 l-152 0 l-12 -97 l137 0 l-19 -151 l-136 0 l-13 -102 l152 0 l-19 -160 l-330 0 l82 667 l330 0 ZM352 796 q0 -11 -6 -21 q-9 -24 -31 -39.5 q-22 -15.5 -47 -15.5 q-28 0 -47.5 19 q-19.5 19 -19.5 48 q0 34 25 59 q25 25 59 25 q33 0 50 -20.5 q17 -20.5 17 -54.5 Z" /><glyph glyph-name="edotaccent" unicode="&#x117;" d="M266 157 l166 0 q-26 -80 -84 -123.5 q-58 -43.5 -141 -43.5 q-89 0 -136.5 51 q-47.5 51 -47.5 140 q0 116 68 205.5 q68 89.5 180 89.5 q87 0 133.5 -55.5 q46.5 -55.5 46.5 -144.5 q0 -27 -8 -79 l-250 0 q-1 -6 -1 -19 q0 -53 32 -53 q31 0 42 32 ZM207 290 l79 0 q0 2 0.5 6 q0.5 4 0.5 6 q0 47 -34 47 q-20 0 -31.5 -18 q-11.5 -18 -14.5 -41 ZM359 606 q0 -11 -6 -21 q-9 -24 -31 -39.5 q-22 -15.5 -47 -15.5 q-29 0 -48 19 q-19 19 -19 48 q0 34 25 59 q25 25 59 25 q33 0 50 -20.5 q17 -20.5 17 -54.5 Z" /><glyph glyph-name="Eogonek" unicode="&#x118;" d="M430 667 l-20 -157 l-152 0 l-12 -97 l137 0 l-19 -151 l-136 0 l-13 -102 l152 0 l-19 -160 l-52 0 q-13 -15 -24 -36 q-9 -18 -9 -35 q0 -13 8 -22 q9 -10 27 -10 q16 0 36 9 l-17 -77 q-29 -12 -60 -12 q-42 0 -67 21 q-23 20 -23 55 q0 35 22 64 q15 19 43 43 l-214 0 l82 667 l330 0 Z" /><glyph glyph-name="eogonek" unicode="&#x119;" d="M266 157 l166 0 q-16 -50 -51 -89 q-21 -24 -65 -59 q-36 -30 -45 -43 q-11 -16 -11 -34 q0 -14 10 -23 q8 -8 24 -8 q17 0 35 9 l-17 -73 q-28 -12 -61 -12 q-43 0 -66 24 q-19 21 -19 52 q0 29 20 58 q13 18 34 32 q-8 -1 -24 -1 q-73 0 -121 48 q-52 52 -52 143 q0 68 24.5 128.5 q24.5 60.5 65.5 101.5 q67 65 158 65 q76 0 123 -45 q57 -55 57 -155 q0 -34 -8 -79 l-250 0 q-1 -5 -1 -19 q0 -34 12 -46 q9 -7 20 -7 q13 0 25 9 q10 8 17 23 ZM207 290 l79 0 q1 4 1 13 q0 24 -10 35 q-9 11 -24 11 q-15 0 -26 -11 q-18 -18 -20 -48 Z" /><glyph glyph-name="Ecaron" unicode="&#x11a;" d="M430 667 l-20 -157 l-152 0 l-12 -97 l137 0 l-19 -151 l-136 0 l-13 -102 l152 0 l-19 -160 l-330 0 l82 667 l330 0 ZM431 802 l-166 -98 l-121 103 l71 63 l70 -58 l92 56 l54 -66 Z" /><glyph glyph-name="ecaron" unicode="&#x11b;" d="M266 157 l166 0 q-26 -80 -84 -123.5 q-58 -43.5 -141 -43.5 q-89 0 -136.5 51 q-47.5 51 -47.5 140 q0 116 68 205.5 q68 89.5 180 89.5 q87 0 133.5 -55.5 q46.5 -55.5 46.5 -144.5 q0 -27 -8 -79 l-250 0 q-1 -6 -1 -19 q0 -53 32 -53 q31 0 42 32 ZM207 290 l79 0 q0 2 0.5 6 q0.5 4 0.5 6 q0 47 -34 47 q-20 0 -31.5 -18 q-11.5 -18 -14.5 -41 ZM427 623 l-159 -112 l-118 118 l71 61 l64 -65 l87 65 l55 -67 Z" /><glyph glyph-name="Gcircumflex" unicode="&#x11c;" d="M543 514 l-180 -64 q0 68 -44 68 q-25 0 -43.5 -23 q-18.5 -23 -24.5 -42.5 q-6 -19.5 -14 -50.5 q-21 -93 -21 -161 q0 -93 53 -93 q32 0 50 30 q18 30 23 67 l-65 0 l17 140 l247 0 q-8 -85 -24 -148 q-26 -111 -91.5 -180 q-65.5 -69 -172.5 -69 q-111 0 -163.5 74.5 q-52.5 74.5 -52.5 190.5 q0 95 24 177 q31 107 102.5 178 q71.5 71 174.5 71 q156 0 205 -165 ZM386 870 l124 -98 l-65 -70 l-71 55 l-94 -57 l-53 70 l159 100 Z" /><glyph glyph-name="gcircumflex" unicode="&#x11d;" d="M475 467 l-59 -479 q-10 -83 -49 -128 q-65 -75 -183 -75 q-91 0 -137.5 40 q-46.5 40 -47.5 129 l174 0 q0 -38 31 -38 q18 0 28.5 11.5 q10.5 11.5 13.5 23 q3 11.5 6 31.5 q4 34 9 72 q-50 -61 -114 -61 q-44 0 -73.5 30.5 q-29.5 30.5 -40 69 q-10.5 38.5 -10.5 81.5 q0 62 15 122 q19 71 62 126 q43 55 106 55 q52 0 93 -71 l4 61 l172 0 ZM284 279 q0 57 -27 57 q-21 0 -34.5 -29 q-13.5 -29 -17 -57 q-3.5 -28 -3.5 -51 q0 -63 30 -63 q28 0 40 50 q12 50 12 93 ZM321 690 l116 -117 l-64 -63 l-65 66 l-90 -70 l-53 67 l156 117 Z" /><glyph glyph-name="Gbreve" unicode="&#x11e;" d="M543 514 l-180 -64 q0 68 -44 68 q-25 0 -43.5 -23 q-18.5 -23 -24.5 -42.5 q-6 -19.5 -14 -50.5 q-21 -93 -21 -161 q0 -93 53 -93 q32 0 50 30 q18 30 23 67 l-65 0 l17 140 l247 0 q-8 -85 -24 -148 q-26 -111 -91.5 -180 q-65.5 -69 -172.5 -69 q-111 0 -163.5 74.5 q-52.5 74.5 -52.5 190.5 q0 95 24 177 q31 107 102.5 178 q71.5 71 174.5 71 q156 0 205 -165 ZM453 866 l69 0 q-14 -68 -60.5 -108 q-46.5 -40 -115.5 -40 q-61 0 -100.5 35.5 q-39.5 35.5 -39.5 95.5 l0 17 l69 0 q8 -32 27.5 -42.5 q19.5 -10.5 54.5 -10.5 q37 0 58.5 11 q21.5 11 37.5 42 Z" /><glyph glyph-name="gbreve" unicode="&#x11f;" d="M475 467 l-59 -479 q-10 -83 -49 -128 q-65 -75 -183 -75 q-91 0 -137.5 40 q-46.5 40 -47.5 129 l174 0 q0 -38 31 -38 q18 0 28.5 11.5 q10.5 11.5 13.5 23 q3 11.5 6 31.5 q4 34 9 72 q-50 -61 -114 -61 q-44 0 -73.5 30.5 q-29.5 30.5 -40 69 q-10.5 38.5 -10.5 81.5 q0 62 15 122 q19 71 62 126 q43 55 106 55 q52 0 93 -71 l4 61 l172 0 ZM284 279 q0 57 -27 57 q-21 0 -34.5 -29 q-13.5 -29 -17 -57 q-3.5 -28 -3.5 -51 q0 -63 30 -63 q28 0 40 50 q12 50 12 93 ZM383 669 l69 0 q-14 -68 -60.5 -108 q-46.5 -40 -115.5 -40 q-61 0 -100.5 35.5 q-39.5 35.5 -39.5 95.5 l0 17 l69 0 q8 -32 27.5 -42.5 q19.5 -10.5 54.5 -10.5 q37 0 58.5 11 q21.5 11 37.5 42 Z" /><glyph glyph-name="Gdotaccent" unicode="&#x120;" d="M543 514 l-180 -64 q0 68 -44 68 q-25 0 -43.5 -23 q-18.5 -23 -24.5 -42.5 q-6 -19.5 -14 -50.5 q-21 -93 -21 -161 q0 -93 53 -93 q32 0 50 30 q18 30 23 67 l-65 0 l17 140 l247 0 q-8 -85 -24 -148 q-26 -111 -91.5 -180 q-65.5 -69 -172.5 -69 q-111 0 -163.5 74.5 q-52.5 74.5 -52.5 190.5 q0 95 24 177 q31 107 102.5 178 q71.5 71 174.5 71 q156 0 205 -165 ZM430 796 q0 -11 -6 -21 q-9 -24 -31 -39.5 q-22 -15.5 -47 -15.5 q-28 0 -47.5 19 q-19.5 19 -19.5 48 q0 34 25 59 q25 25 59 25 q33 0 50 -20.5 q17 -20.5 17 -54.5 Z" /><glyph glyph-name="gdotaccent" unicode="&#x121;" d="M475 467 l-59 -479 q-10 -83 -49 -128 q-65 -75 -183 -75 q-91 0 -137.5 40 q-46.5 40 -47.5 129 l174 0 q0 -38 31 -38 q18 0 28.5 11.5 q10.5 11.5 13.5 23 q3 11.5 6 31.5 q4 34 9 72 q-50 -61 -114 -61 q-44 0 -73.5 30.5 q-29.5 30.5 -40 69 q-10.5 38.5 -10.5 81.5 q0 62 15 122 q19 71 62 126 q43 55 106 55 q52 0 93 -71 l4 61 l172 0 ZM284 279 q0 57 -27 57 q-21 0 -34.5 -29 q-13.5 -29 -17 -57 q-3.5 -28 -3.5 -51 q0 -63 30 -63 q28 0 40 50 q12 50 12 93 ZM362 606 q0 -11 -6 -21 q-9 -24 -31 -39.5 q-22 -15.5 -47 -15.5 q-28 0 -47.5 19 q-19.5 19 -19.5 48 q0 34 25 59 q25 25 59 25 q33 0 50 -20.5 q17 -20.5 17 -54.5 Z" /><glyph glyph-name="Gcommaaccent" unicode="&#x122;" d="M543 514 l-180 -64 q0 68 -44 68 q-25 0 -43.5 -23 q-18.5 -23 -24.5 -42.5 q-6 -19.5 -14 -50.5 q-21 -93 -21 -161 q0 -93 53 -93 q32 0 50 30 q18 30 23 67 l-65 0 l17 140 l247 0 q-8 -85 -24 -148 q-26 -111 -91.5 -180 q-65.5 -69 -172.5 -69 q-111 0 -163.5 74.5 q-52.5 74.5 -52.5 190.5 q0 95 24 177 q31 107 102.5 178 q71.5 71 174.5 71 q156 0 205 -165 ZM327 -45 l-94 -188 l-102 0 l50 188 l146 0 Z" /><glyph glyph-name="gcommaaccent" unicode="&#x123;" d="M475 467 l-59 -479 q-10 -83 -49 -128 q-65 -75 -183 -75 q-91 0 -137.5 40 q-46.5 40 -47.5 129 l174 0 q0 -38 31 -38 q18 0 28.5 11.5 q10.5 11.5 13.5 23 q3 11.5 6 31.5 q4 34 9 72 q-50 -61 -114 -61 q-44 0 -73.5 30.5 q-29.5 30.5 -40 69 q-10.5 38.5 -10.5 81.5 q0 62 15 122 q19 71 62 126 q43 55 106 55 q52 0 93 -71 l4 61 l172 0 ZM284 279 q0 57 -27 57 q-21 0 -34.5 -29 q-13.5 -29 -17 -57 q-3.5 -28 -3.5 -51 q0 -63 30 -63 q28 0 40 50 q12 50 12 93 ZM179 517 l94 188 l102 0 l-50 -188 l-146 0 Z" /><glyph glyph-name="Hcircumflex" unicode="&#x124;" d="M539 667 l-82 -667 l-177 0 l33 268 l-85 0 l-33 -268 l-177 0 l82 667 l177 0 l-29 -236 l85 0 l29 236 l177 0 ZM361 870 l124 -98 l-65 -70 l-71 55 l-94 -57 l-53 70 l159 100 Z" /><glyph glyph-name="hcircumflex" unicode="&#x125;" d="M272 729 l-32 -261 q-7 -50 -16 -90 q53 99 134 99 q47 0 73.5 -33.5 q26.5 -33.5 26.5 -82.5 q0 -22 -3 -43 l-39 -318 l-171 0 l31 247 q2 18 2 26 q0 31 -23 31 q-36 0 -44 -69 l-29 -235 l-171 0 l90 729 l171 0 ZM211 930 l116 -117 l-64 -63 l-65 66 l-90 -70 l-53 67 l156 117 Z" /><glyph glyph-name="Hbar" unicode="&#x126;" d="M18 0 l62 505 l-50 0 l15 121 l50 0 l5 41 l177 0 l-5 -41 l86 0 l5 41 l177 0 l-5 -41 l50 0 l-15 -121 l-50 0 l-62 -505 l-177 0 l33 268 l-86 0 l-33 -268 l-177 0 ZM343 505 l-86 0 l-10 -84 l86 0 l10 84 Z" /><glyph glyph-name="hbar" unicode="&#x127;" d="M20 0 l61 499 l-54 0 l14 105 l53 0 l15 125 l173 0 l-15 -125 l118 0 l-14 -105 l-118 0 l-8 -73 q-7 -50 -16 -90 q53 99 134 99 q47 0 73.5 -33.5 q26.5 -33.5 26.5 -82.5 q0 -22 -3 -43 l-35 -276 l-171 0 l27 205 q2 18 2 26 q0 31 -23 31 q-36 0 -44 -69 l-25 -193 l-171 0 Z" /><glyph glyph-name="Imacron" unicode="&#x12a;" d="M277 667 l-82 -667 l-177 0 l82 667 l177 0 ZM364 837 l-12 -94 l-335 0 l12 94 l335 0 Z" /><glyph glyph-name="imacron" unicode="&#x12b;" d="M239 467 l-57 -467 l-171 0 l58 467 l170 0 ZM339 647 l-12 -94 l-335 0 l12 94 l335 0 Z" /><glyph glyph-name="Iogonek" unicode="&#x12e;" d="M277 667 l-82 -667 q-13 -15 -24 -36 q-9 -18 -9 -35 q0 -13 8 -22 q9 -10 27 -10 q16 0 36 9 l-17 -77 q-29 -12 -60 -12 q-42 0 -67 21 q-23 20 -23 55 q0 35 22 64 q15 19 43 43 l-113 0 l82 667 l177 0 Z" /><glyph glyph-name="iogonek" unicode="&#x12f;" d="M186 713 q37 0 62 -25 q26 -25 26 -64 q0 -43 -34 -78 q-34 -35 -79 -35 q-36 0 -62 26 q-26 27 -26 63 q0 44 33 78 q35 35 80 35 ZM240 467 l-57 -467 q-16 -20 -23 -34 q-10 -20 -10 -34 q0 -14 10 -23 q8 -8 24 -8 q17 0 35 9 l-17 -73 q-28 -12 -61 -12 q-43 0 -66 24 q-19 21 -19 52 q0 30 20 58 q14 20 43 41 l-107 0 l58 467 l170 0 Z" /><glyph glyph-name="Idotaccent" unicode="&#x130;" d="M277 667 l-82 -667 l-177 0 l82 667 l177 0 ZM277 796 q0 -11 -6 -21 q-9 -24 -31 -39.5 q-22 -15.5 -47 -15.5 q-29 0 -48 19 q-19 19 -19 48 q0 34 25 59 q25 25 59 25 q33 0 50 -20.5 q17 -20.5 17 -54.5 Z" /><glyph glyph-name="dotlessi" unicode="&#x131;" d="M239 467 l-57 -467 l-171 0 l58 467 l170 0 Z" /><glyph glyph-name="Jcircumflex" unicode="&#x134;" d="M357 667 l-57 -463 q-11 -85 -37 -125 q-57 -91 -177 -91 q-53 0 -113 22 l23 186 q25 -39 66 -39 q55 0 65 82 l52 428 l178 0 ZM291 870 l124 -98 l-65 -70 l-71 55 l-94 -57 l-53 70 l159 100 Z" /><glyph glyph-name="jcircumflex" unicode="&#x135;" d="M241 467 l-84 -682 l-170 0 l82 682 l172 0 ZM176 690 l116 -117 l-64 -63 l-65 66 l-90 -70 l-53 67 l156 117 Z" /><glyph glyph-name="Kcommaaccent" unicode="&#x136;" d="M564 667 l-181 -322 l117 -345 l-191 0 l-79 319 l-35 -319 l-177 0 l82 667 l177 0 l-40 -298 l140 298 l187 0 ZM322 -45 l-94 -188 l-102 0 l50 188 l146 0 Z" /><glyph glyph-name="kcommaaccent" unicode="&#x137;" d="M505 467 l-139 -215 l93 -252 l-190 0 l-41 146 q-14 48 -18 81 l-28 -227 l-171 0 l90 729 l171 0 l-57 -462 q9 19 33 62 l75 138 l182 0 ZM297 -46 l-94 -188 l-102 0 l50 188 l146 0 Z" /><glyph glyph-name="Lacute" unicode="&#x139;" d="M348 160 l-19 -160 l-311 0 l82 667 l177 0 l-62 -507 l133 0 ZM327 868 l-105 -148 l-98 0 l65 148 l138 0 Z" /><glyph glyph-name="lacute" unicode="&#x13a;" d="M272 729 l-90 -729 l-171 0 l90 729 l171 0 ZM317 918 l-105 -148 l-98 0 l65 148 l138 0 Z" /><glyph glyph-name="Lcommaaccent" unicode="&#x13b;" d="M348 160 l-19 -160 l-311 0 l82 667 l177 0 l-62 -507 l133 0 ZM247 -45 l-94 -188 l-102 0 l50 188 l146 0 Z" /><glyph glyph-name="lcommaaccent" unicode="&#x13c;" d="M272 729 l-90 -729 l-171 0 l90 729 l171 0 ZM167 -46 l-94 -188 l-102 0 l50 188 l146 0 Z" /><glyph glyph-name="Lcaron" unicode="&#x13d;" d="M348 160 l-19 -160 l-311 0 l82 667 l177 0 l-62 -507 l133 0 ZM507 667 l-104 -209 l-102 0 l60 209 l146 0 Z" /><glyph glyph-name="lcaron" unicode="&#x13e;" d="M272 729 l-90 -729 l-171 0 l90 729 l171 0 ZM487 667 l-100 -221 l-104 0 l58 221 l146 0 Z" /><glyph glyph-name="Ldot" unicode="&#x13f;" d="M348 160 l-19 -160 l-311 0 l82 667 l177 0 l-62 -507 l133 0 ZM421 334 q0 -11 -6 -21 q-9 -24 -31 -39.5 q-22 -15.5 -47 -15.5 q-29 0 -48 19 q-19 19 -19 48 q0 34 25 59 q25 25 59 25 q33 0 50 -20.5 q17 -20.5 17 -54.5 Z" /><glyph glyph-name="ldot" unicode="&#x140;" d="M272 729 l-90 -729 l-171 0 l90 729 l171 0 ZM416 365 q0 -11 -6 -21 q-9 -24 -31 -39.5 q-22 -15.5 -47 -15.5 q-28 0 -47.5 19.5 q-19.5 19.5 -19.5 47.5 q0 34 25 59 q25 25 59 25 q33 0 50 -20.5 q17 -20.5 17 -54.5 Z" /><glyph glyph-name="Lslash" unicode="&#x141;" d="M351 160 l-19 -160 l-311 0 l27 217 l-52 -40 l16 131 l52 40 l39 319 l177 0 l-27 -224 l96 71 l-16 -131 l-96 -71 l-19 -152 l133 0 Z" /><glyph glyph-name="lslash" unicode="&#x142;" d="M319 515 l-15 -118 l-54 -39 l-44 -358 l-171 0 l34 275 l-55 -38 l14 118 l55 38 l42 336 l170 0 l-31 -253 l55 39 Z" /><glyph glyph-name="Nacute" unicode="&#x143;" d="M562 667 l-82 -667 l-169 0 l-59 245 q-19 81 -28 139 q-1 -17 -3 -53 q-2 -36 -3 -53 q-2 -35 -31 -278 l-169 0 l82 667 l169 0 l60 -234 q8 -32 20 -93.5 q12 -61.5 15 -74.5 q0 176 10 252 l19 150 l169 0 ZM472 868 l-105 -148 l-98 0 l65 148 l138 0 Z" /><glyph glyph-name="nacute" unicode="&#x144;" d="M69 467 l170 0 q-14 -84 -15 -89 q53 99 134 99 q47 0 73.5 -33.5 q26.5 -33.5 26.5 -82.5 q0 -22 -3 -43 l-39 -318 l-171 0 l31 247 q2 18 2 26 q0 31 -23 31 q-36 0 -44 -69 l-29 -235 l-171 0 l58 467 ZM417 678 l-105 -148 l-98 0 l65 148 l138 0 Z" /><glyph glyph-name="Ncommaaccent" unicode="&#x145;" d="M562 667 l-82 -667 l-169 0 l-59 245 q-19 81 -28 139 q-1 -17 -3 -53 q-2 -36 -3 -53 q-2 -35 -31 -278 l-169 0 l82 667 l169 0 l60 -234 q8 -32 20 -93.5 q12 -61.5 15 -74.5 q0 176 10 252 l19 150 l169 0 ZM322 -45 l-94 -188 l-102 0 l50 188 l146 0 Z" /><glyph glyph-name="ncommaaccent" unicode="&#x146;" d="M69 467 l170 0 q-14 -84 -15 -89 q53 99 134 99 q47 0 73.5 -33.5 q26.5 -33.5 26.5 -82.5 q0 -22 -3 -43 l-39 -318 l-171 0 l31 247 q2 18 2 26 q0 31 -23 31 q-36 0 -44 -69 l-29 -235 l-171 0 l58 467 ZM287 -46 l-94 -188 l-102 0 l50 188 l146 0 Z" /><glyph glyph-name="Ncaron" unicode="&#x147;" d="M562 667 l-82 -667 l-169 0 l-59 245 q-19 81 -28 139 q-1 -17 -3 -53 q-2 -36 -3 -53 q-2 -35 -31 -278 l-169 0 l82 667 l169 0 l60 -234 q8 -32 20 -93.5 q12 -61.5 15 -74.5 q0 176 10 252 l19 150 l169 0 ZM506 802 l-166 -98 l-121 103 l71 63 l70 -58 l92 56 l54 -66 Z" /><glyph glyph-name="ncaron" unicode="&#x148;" d="M69 467 l170 0 q-14 -84 -15 -89 q53 99 134 99 q47 0 73.5 -33.5 q26.5 -33.5 26.5 -82.5 q0 -22 -3 -43 l-39 -318 l-171 0 l31 247 q2 18 2 26 q0 31 -23 31 q-36 0 -44 -69 l-29 -235 l-171 0 l58 467 ZM445 623 l-159 -112 l-118 118 l71 61 l64 -65 l87 65 l55 -67 Z" /><glyph glyph-name="Omacron" unicode="&#x14c;" d="M546 422 q0 -101 -26 -191 q-31 -103 -99.5 -173 q-68.5 -70 -166.5 -70 q-50 0 -95 24 q-45 24 -74 65 q-47 69 -47 186 q0 100 29 187 q34 98 104 163.5 q70 65.5 166 65.5 q102 0 155.5 -75.5 q53.5 -75.5 53.5 -181.5 ZM362 408 q0 103 -47 103 q-19 0 -35 -18 q-16 -18 -26 -45.5 q-10 -27.5 -16 -50.5 q-6 -23 -9 -42 q-7 -41 -7 -89 q0 -109 48 -109 q19 0 35.5 18.5 q16.5 18.5 26.5 47 q10 28.5 15.5 51.5 q5.5 23 8.5 44 q6 45 6 90 ZM524 837 l-12 -94 l-335 0 l12 94 l335 0 Z" /><glyph glyph-name="omacron" unicode="&#x14d;" d="M456 280 q0 -123 -64.5 -206.5 q-64.5 -83.5 -183.5 -83.5 q-90 0 -137 54 q-47 54 -47 146 q0 116 66.5 201.5 q66.5 85.5 179.5 85.5 q89 0 137.5 -53.5 q48.5 -53.5 48.5 -143.5 ZM291 269 q0 77 -37 77 q-32 0 -48 -52.5 q-16 -52.5 -16 -95.5 q0 -77 37 -77 q32 0 48 52.5 q16 52.5 16 95.5 ZM469 647 l-12 -94 l-335 0 l12 94 l335 0 Z" /><glyph glyph-name="Obreve" unicode="&#x14e;" d="M546 422 q0 -101 -26 -191 q-31 -103 -99.5 -173 q-68.5 -70 -166.5 -70 q-50 0 -95 24 q-45 24 -74 65 q-47 69 -47 186 q0 100 29 187 q34 98 104 163.5 q70 65.5 166 65.5 q102 0 155.5 -75.5 q53.5 -75.5 53.5 -181.5 ZM362 408 q0 103 -47 103 q-19 0 -35 -18 q-16 -18 -26 -45.5 q-10 -27.5 -16 -50.5 q-6 -23 -9 -42 q-7 -41 -7 -89 q0 -109 48 -109 q19 0 35.5 18.5 q16.5 18.5 26.5 47 q10 28.5 15.5 51.5 q5.5 23 8.5 44 q6 45 6 90 ZM448 866 l69 0 q-14 -68 -60.5 -108 q-46.5 -40 -115.5 -40 q-61 0 -100.5 35.5 q-39.5 35.5 -39.5 95.5 l0 17 l69 0 q8 -32 27.5 -42.5 q19.5 -10.5 54.5 -10.5 q37 0 58.5 11 q21.5 11 37.5 42 Z" /><glyph glyph-name="obreve" unicode="&#x14f;" d="M456 280 q0 -123 -64.5 -206.5 q-64.5 -83.5 -183.5 -83.5 q-90 0 -137 54 q-47 54 -47 146 q0 116 66.5 201.5 q66.5 85.5 179.5 85.5 q89 0 137.5 -53.5 q48.5 -53.5 48.5 -143.5 ZM291 269 q0 77 -37 77 q-32 0 -48 -52.5 q-16 -52.5 -16 -95.5 q0 -77 37 -77 q32 0 48 52.5 q16 52.5 16 95.5 ZM383 669 l69 0 q-14 -68 -60.5 -108 q-46.5 -40 -115.5 -40 q-61 0 -100.5 35.5 q-39.5 35.5 -39.5 95.5 l0 17 l69 0 q8 -32 27.5 -42.5 q19.5 -10.5 54.5 -10.5 q37 0 58.5 11 q21.5 11 37.5 42 Z" /><glyph glyph-name="Ohungarumlaut" unicode="&#x150;" d="M546 422 q0 -101 -26 -191 q-31 -103 -99.5 -173 q-68.5 -70 -166.5 -70 q-50 0 -95 24 q-45 24 -74 65 q-47 69 -47 186 q0 100 29 187 q34 98 104 163.5 q70 65.5 166 65.5 q102 0 155.5 -75.5 q53.5 -75.5 53.5 -181.5 ZM362 408 q0 103 -47 103 q-19 0 -35 -18 q-16 -18 -26 -45.5 q-10 -27.5 -16 -50.5 q-6 -23 -9 -42 q-7 -41 -7 -89 q0 -109 48 -109 q19 0 35.5 18.5 q16.5 18.5 26.5 47 q10 28.5 15.5 51.5 q5.5 23 8.5 44 q6 45 6 90 ZM571 868 l-105 -148 l-88 0 l65 148 l128 0 ZM406 868 l-104 -148 l-88 0 l65 148 l127 0 Z" /><glyph glyph-name="ohungarumlaut" unicode="&#x151;" d="M456 280 q0 -123 -64.5 -206.5 q-64.5 -83.5 -183.5 -83.5 q-90 0 -137 54 q-47 54 -47 146 q0 116 66.5 201.5 q66.5 85.5 179.5 85.5 q89 0 137.5 -53.5 q48.5 -53.5 48.5 -143.5 ZM291 269 q0 77 -37 77 q-32 0 -48 -52.5 q-16 -52.5 -16 -95.5 q0 -77 37 -77 q32 0 48 52.5 q16 52.5 16 95.5 ZM506 678 l-105 -148 l-88 0 l65 148 l128 0 ZM341 678 l-104 -148 l-88 0 l65 148 l127 0 Z" /><glyph glyph-name="OE" unicode="&#x152;" d="M675 413 l-19 -151 l-134 0 l-12 -102 l149 0 l-19 -160 l-328 0 l6 49 q-44 -57 -102 -57 q-83 0 -131 74 q-47 74 -47 190 q0 105 31.5 201.5 q31.5 96.5 89.5 154.5 q61 61 136 61 q66 0 93 -52 l6 46 l326 0 l-19 -157 l-148 0 l-12 -97 l134 0 ZM220 262 q0 -74 25 -96 q10 -10 26 -10 q17 0 33 16 q29 29 46 119 q12 60 12 119 q0 70 -21 91 q-10 10 -24 10 q-20 0 -35 -16 q-26 -27 -43 -92 q-19 -72 -19 -141 Z" /><glyph glyph-name="oe" unicode="&#x153;" d="M521 157 l162 0 q-27 -79 -86.5 -123 q-59.5 -44 -138.5 -44 q-73 0 -121 43 q-46 -43 -117 -43 q-93 0 -144.5 53 q-51.5 53 -51.5 147 q0 120 66.5 202.5 q66.5 82.5 184.5 83.5 q73 0 117 -42 q58 42 129 42 q87 -1 135 -56 q48 -55 48 -143 q0 -30 -9 -80 l-253 0 l0 -17 q0 -61 36 -61 q30 0 43 38 ZM454 290 l86 0 q0 59 -36 59 q-36 0 -50 -59 ZM293 271 q0 76 -38 76 q-32 0 -48 -53 q-16 -53 -16 -96 q0 -77 37 -77 q23 0 38.5 31 q15.5 31 21 63 q5.5 32 5.5 56 Z" /><glyph glyph-name="Racute" unicode="&#x154;" d="M100 667 l181 0 q230 0 230 -191 q0 -147 -124 -199 l98 -277 l-192 0 q-6 24 -23.5 93 q-17.5 69 -25.5 107 q-3 13 -8.5 38.5 q-5.5 25.5 -8.5 38.5 q-8 -93 -32 -277 l-177 0 l82 667 ZM239 358 l12 0 q35 0 59 29.5 q24 29.5 24 65.5 q0 64 -75 64 l-20 -159 ZM449 868 l-105 -148 l-98 0 l65 148 l138 0 Z" /><glyph glyph-name="racute" unicode="&#x155;" d="M360 478 l-24 -194 q-25 15 -46 15 q-33 0 -57 -27 q-21 -23 -26 -72 l-25 -200 l-171 0 l58 467 l170 0 l-20 -91 q51 99 141 102 ZM377 678 l-105 -148 l-98 0 l65 148 l138 0 Z" /><glyph glyph-name="Rcommaaccent" unicode="&#x156;" d="M100 667 l181 0 q230 0 230 -191 q0 -147 -124 -199 l98 -277 l-192 0 q-6 24 -23.5 93 q-17.5 69 -25.5 107 q-3 13 -8.5 38.5 q-5.5 25.5 -8.5 38.5 q-8 -93 -32 -277 l-177 0 l82 667 ZM239 358 l12 0 q35 0 59 29.5 q24 29.5 24 65.5 q0 64 -75 64 l-20 -159 ZM317 -45 l-94 -188 l-102 0 l50 188 l146 0 Z" /><glyph glyph-name="rcommaaccent" unicode="&#x157;" d="M360 478 l-24 -194 q-25 15 -46 15 q-33 0 -57 -27 q-21 -23 -26 -72 l-25 -200 l-171 0 l58 467 l170 0 l-20 -91 q51 99 141 102 ZM277 -46 l-94 -188 l-102 0 l50 188 l146 0 Z" /><glyph glyph-name="Rcaron" unicode="&#x158;" d="M100 667 l181 0 q230 0 230 -191 q0 -147 -124 -199 l98 -277 l-192 0 q-6 24 -23.5 93 q-17.5 69 -25.5 107 q-3 13 -8.5 38.5 q-5.5 25.5 -8.5 38.5 q-8 -93 -32 -277 l-177 0 l82 667 ZM239 358 l12 0 q35 0 59 29.5 q24 29.5 24 65.5 q0 64 -75 64 l-20 -159 ZM463 802 l-166 -98 l-121 103 l71 63 l70 -58 l92 56 l54 -66 Z" /><glyph glyph-name="rcaron" unicode="&#x159;" d="M360 478 l-24 -194 q-25 15 -46 15 q-33 0 -57 -27 q-21 -23 -26 -72 l-25 -200 l-171 0 l58 467 l170 0 l-20 -91 q51 99 141 102 ZM400 623 l-159 -112 l-118 118 l71 61 l64 -65 l87 65 l55 -67 Z" /><glyph glyph-name="Sacute" unicode="&#x15a;" d="M408 645 l-25 -204 q-37 73 -95 73 q-19 0 -36 -12.5 q-17 -12.5 -17 -31.5 q0 -19 22 -41 q22 -22 48 -41.5 q26 -19.5 48 -57.5 q22 -38 22 -84 q0 -105 -69 -181.5 q-69 -76.5 -173 -76.5 q-63 0 -127 29 l26 209 q44 -73 104 -73 q23 0 40.5 13.5 q17.5 13.5 17.5 36.5 q0 16 -14 32.5 q-14 16.5 -34.5 33.5 q-20.5 17 -41 38 q-20.5 21 -34.5 54 q-14 33 -14 73 q0 95 67.5 170 q67.5 75 160.5 75 q62 0 124 -34 ZM437 868 l-105 -148 l-98 0 l65 148 l138 0 Z" /><glyph glyph-name="sacute" unicode="&#x15b;" d="M390 439 l-74 -127 q-35 41 -65 41 q-11 0 -20.5 -7 q-9.5 -7 -9.5 -18 q0 -17 22 -29.5 q22 -12.5 49 -22 q27 -9.5 49 -36.5 q22 -27 22 -69 q0 -79 -61.5 -130 q-61.5 -51 -142.5 -51 q-45 0 -79.5 11.5 q-34.5 11.5 -79.5 37.5 l78 129 q38 -49 79 -49 q14 0 25 7 q11 7 11 20 q0 10 -8 17.5 q-8 7.5 -13 9.5 q-5 2 -19 7 q-49 19 -76.5 46 q-27.5 27 -27.5 73 q0 79 64 128.5 q64 49.5 145 49.5 q66 0 132 -38 ZM412 678 l-105 -148 l-98 0 l65 148 l138 0 Z" /><glyph glyph-name="Scircumflex" unicode="&#x15c;" d="M408 645 l-25 -204 q-37 73 -95 73 q-19 0 -36 -12.5 q-17 -12.5 -17 -31.5 q0 -19 22 -41 q22 -22 48 -41.5 q26 -19.5 48 -57.5 q22 -38 22 -84 q0 -105 -69 -181.5 q-69 -76.5 -173 -76.5 q-63 0 -127 29 l26 209 q44 -73 104 -73 q23 0 40.5 13.5 q17.5 13.5 17.5 36.5 q0 16 -14 32.5 q-14 16.5 -34.5 33.5 q-20.5 17 -41 38 q-20.5 21 -34.5 54 q-14 33 -14 73 q0 95 67.5 170 q67.5 75 160.5 75 q62 0 124 -34 ZM316 870 l124 -98 l-65 -70 l-71 55 l-94 -57 l-53 70 l159 100 Z" /><glyph glyph-name="scircumflex" unicode="&#x15d;" d="M390 439 l-74 -127 q-35 41 -65 41 q-11 0 -20.5 -7 q-9.5 -7 -9.5 -18 q0 -17 22 -29.5 q22 -12.5 49 -22 q27 -9.5 49 -36.5 q22 -27 22 -69 q0 -79 -61.5 -130 q-61.5 -51 -142.5 -51 q-45 0 -79.5 11.5 q-34.5 11.5 -79.5 37.5 l78 129 q38 -49 79 -49 q14 0 25 7 q11 7 11 20 q0 10 -8 17.5 q-8 7.5 -13 9.5 q-5 2 -19 7 q-49 19 -76.5 46 q-27.5 27 -27.5 73 q0 79 64 128.5 q64 49.5 145 49.5 q66 0 132 -38 ZM291 690 l116 -117 l-64 -63 l-65 66 l-90 -70 l-53 67 l156 117 Z" /><glyph glyph-name="Scedilla" unicode="&#x15e;" d="M408 645 l-25 -204 q-37 73 -95 73 q-19 0 -36 -12.5 q-17 -12.5 -17 -31.5 q0 -19 22 -41 q22 -22 48 -41.5 q26 -19.5 48 -57.5 q22 -38 22 -84 q0 -105 -69 -181.5 q-69 -76.5 -173 -76.5 q-63 0 -127 29 l26 209 q44 -73 104 -73 q23 0 40.5 13.5 q17.5 13.5 17.5 36.5 q0 16 -14 32.5 q-14 16.5 -34.5 33.5 q-20.5 17 -41 38 q-20.5 21 -34.5 54 q-14 33 -14 73 q0 95 67.5 170 q67.5 75 160.5 75 q62 0 124 -34 ZM220 -113 l-126 -124 l-77 53 l107 137 l96 -66 Z" /><glyph glyph-name="scedilla" unicode="&#x15f;" d="M390 439 l-74 -127 q-35 41 -65 41 q-11 0 -20.5 -7 q-9.5 -7 -9.5 -18 q0 -17 22 -29.5 q22 -12.5 49 -22 q27 -9.5 49 -36.5 q22 -27 22 -69 q0 -79 -61.5 -130 q-61.5 -51 -142.5 -51 q-45 0 -79.5 11.5 q-34.5 11.5 -79.5 37.5 l78 129 q38 -49 79 -49 q14 0 25 7 q11 7 11 20 q0 10 -8 17.5 q-8 7.5 -13 9.5 q-5 2 -19 7 q-49 19 -76.5 46 q-27.5 27 -27.5 73 q0 79 64 128.5 q64 49.5 145 49.5 q66 0 132 -38 ZM238 -106 l-126 -117 l-71 54 l102 122 l95 -59 Z" /><glyph glyph-name="Scaron" unicode="&#x160;" d="M408 645 l-25 -204 q-37 73 -95 73 q-19 0 -36 -12.5 q-17 -12.5 -17 -31.5 q0 -19 22 -41 q22 -22 48 -41.5 q26 -19.5 48 -57.5 q22 -38 22 -84 q0 -105 -69 -181.5 q-69 -76.5 -173 -76.5 q-63 0 -127 29 l26 209 q44 -73 104 -73 q23 0 40.5 13.5 q17.5 13.5 17.5 36.5 q0 16 -14 32.5 q-14 16.5 -34.5 33.5 q-20.5 17 -41 38 q-20.5 21 -34.5 54 q-14 33 -14 73 q0 95 67.5 170 q67.5 75 160.5 75 q62 0 124 -34 ZM451 802 l-166 -98 l-121 103 l71 63 l70 -58 l92 56 l54 -66 Z" /><glyph glyph-name="scaron" unicode="&#x161;" d="M390 439 l-74 -127 q-35 41 -65 41 q-11 0 -20.5 -7 q-9.5 -7 -9.5 -18 q0 -17 22 -29.5 q22 -12.5 49 -22 q27 -9.5 49 -36.5 q22 -27 22 -69 q0 -79 -61.5 -130 q-61.5 -51 -142.5 -51 q-45 0 -79.5 11.5 q-34.5 11.5 -79.5 37.5 l78 129 q38 -49 79 -49 q14 0 25 7 q11 7 11 20 q0 10 -8 17.5 q-8 7.5 -13 9.5 q-5 2 -19 7 q-49 19 -76.5 46 q-27.5 27 -27.5 73 q0 79 64 128.5 q64 49.5 145 49.5 q66 0 132 -38 ZM415 623 l-159 -112 l-118 118 l71 61 l64 -65 l87 65 l55 -67 Z" /><glyph glyph-name="Tcedilla" unicode="&#x162;" d="M427 667 l-20 -160 l-98 0 l-62 -507 l-177 0 l62 507 l-98 0 l20 160 l373 0 ZM237 -113 l-126 -124 l-77 53 l107 137 l96 -66 Z" /><glyph glyph-name="tcedilla" unicode="&#x163;" d="M319 467 l-17 -140 l-56 0 l-41 -327 l-170 0 l40 327 l-49 0 l17 140 l49 0 l17 137 l171 0 l-17 -137 l56 0 ZM197 -106 l-126 -117 l-71 54 l102 122 l95 -59 Z" /><glyph glyph-name="Tcaron" unicode="&#x164;" d="M407 507 l20 160 l-373 0 l-20 -160 l98 0 l-62 -507 l177 0 l62 507 l98 0 ZM411 802 l-166 -98 l-121 103 l71 63 l70 -58 l92 56 l54 -66 Z" /><glyph glyph-name="tcaron" unicode="&#x165;" d="M319 467 l-17 -140 l-56 0 l-41 -327 l-170 0 l40 327 l-49 0 l17 140 l49 0 l17 137 l171 0 l-17 -137 l56 0 ZM517 727 l-100 -221 l-104 0 l58 221 l146 0 Z" /><glyph glyph-name="Utilde" unicode="&#x168;" d="M545 667 l-58 -472 q-11 -98 -85 -155 q-66 -52 -155 -52 q-92 0 -148.5 47 q-56.5 47 -56.5 137 q0 24 3 48 l55 447 l177 0 l-53 -431 q-2 -22 -2 -33 q0 -46 39 -46 q16 0 26.5 7 q10.5 7 16 20.5 q5.5 13.5 7.5 24 q2 10.5 4 27.5 l53 431 l177 0 ZM423 855 l88 0 q-5 -56 -35.5 -94.5 q-30.5 -38.5 -84.5 -38.5 q-25 0 -61.5 16.5 q-36.5 16.5 -49.5 16.5 q-25 0 -31 -35 l-89 0 q4 34 12 56 q13 33 41 54.5 q28 21.5 62 21.5 q27 0 63.5 -16.5 q36.5 -16.5 52.5 -16.5 q26 0 32 36 Z" /><glyph glyph-name="utilde" unicode="&#x169;" d="M482 467 l-35 -287 q-12 -99 -85 -147 q-66 -43 -145 -43 q-78 0 -132 39.5 q-54 39.5 -54 114.5 l3 36 l35 287 l170 0 l-32 -263 q0 -1 -1.5 -14.5 q-1.5 -13.5 -1.5 -20.5 q0 -34 31 -34 q13 0 22 6 q9 6 13.5 19 q4.5 13 5.5 20.5 q1 7.5 3 23.5 l32 263 l171 0 ZM379 665 l88 0 q-5 -56 -35.5 -94.5 q-30.5 -38.5 -84.5 -38.5 q-25 0 -61 16.5 q-36 16.5 -50 16.5 q-25 0 -31 -35 l-89 0 q4 34 12 56 q13 33 41 54.5 q28 21.5 62 21.5 q27 0 63.5 -16.5 q36.5 -16.5 52.5 -16.5 q26 0 32 36 Z" /><glyph glyph-name="Umacron" unicode="&#x16a;" d="M545 667 l-58 -472 q-11 -98 -85 -155 q-66 -52 -155 -52 q-92 0 -148.5 47 q-56.5 47 -56.5 137 q0 24 3 48 l55 447 l177 0 l-53 -431 q-2 -22 -2 -33 q0 -46 39 -46 q16 0 26.5 7 q10.5 7 16 20.5 q5.5 13.5 7.5 24 q2 10.5 4 27.5 l53 431 l177 0 ZM509 837 l-12 -94 l-335 0 l12 94 l335 0 Z" /><glyph glyph-name="umacron" unicode="&#x16b;" d="M482 467 l-35 -287 q-12 -99 -85 -147 q-66 -43 -145 -43 q-78 0 -132 39.5 q-54 39.5 -54 114.5 l3 36 l35 287 l170 0 l-32 -263 q0 -1 -1.5 -14.5 q-1.5 -13.5 -1.5 -20.5 q0 -34 31 -34 q13 0 22 6 q9 6 13.5 19 q4.5 13 5.5 20.5 q1 7.5 3 23.5 l32 263 l171 0 ZM459 647 l-12 -94 l-335 0 l12 94 l335 0 Z" /><glyph glyph-name="Ubreve" unicode="&#x16c;" d="M545 667 l-58 -472 q-11 -98 -85 -155 q-66 -52 -155 -52 q-92 0 -148.5 47 q-56.5 47 -56.5 137 q0 24 3 48 l55 447 l177 0 l-53 -431 q-2 -22 -2 -33 q0 -46 39 -46 q16 0 26.5 7 q10.5 7 16 20.5 q5.5 13.5 7.5 24 q2 10.5 4 27.5 l53 431 l177 0 ZM433 866 l69 0 q-14 -68 -60.5 -108 q-46.5 -40 -115.5 -40 q-61 0 -100.5 35.5 q-39.5 35.5 -39.5 95.5 l0 17 l69 0 q8 -32 27.5 -42.5 q19.5 -10.5 54.5 -10.5 q37 0 58.5 11 q21.5 11 37.5 42 Z" /><glyph glyph-name="ubreve" unicode="&#x16d;" d="M482 467 l-35 -287 q-12 -99 -85 -147 q-66 -43 -145 -43 q-78 0 -132 39.5 q-54 39.5 -54 114.5 l3 36 l35 287 l170 0 l-32 -263 q0 -1 -1.5 -14.5 q-1.5 -13.5 -1.5 -20.5 q0 -34 31 -34 q13 0 22 6 q9 6 13.5 19 q4.5 13 5.5 20.5 q1 7.5 3 23.5 l32 263 l171 0 ZM383 669 l69 0 q-14 -68 -60.5 -108 q-46.5 -40 -115.5 -40 q-61 0 -100.5 35.5 q-39.5 35.5 -39.5 95.5 l0 17 l69 0 q8 -32 27.5 -42.5 q19.5 -10.5 54.5 -10.5 q37 0 58.5 11 q21.5 11 37.5 42 Z" /><glyph glyph-name="Uring" unicode="&#x16e;" d="M545 667 l-58 -472 q-11 -98 -85 -155 q-66 -52 -155 -52 q-92 0 -148.5 47 q-56.5 47 -56.5 137 q0 24 3 48 l55 447 l177 0 l-53 -431 q-2 -22 -2 -33 q0 -46 39 -46 q16 0 26.5 7 q10.5 7 16 20.5 q5.5 13.5 7.5 24 q2 10.5 4 27.5 l53 431 l177 0 ZM243 810 q0 40 28 68 q28 28 68 28 q40 0 68 -28 q28 -28 28 -68 q0 -40 -28.5 -68 q-28.5 -28 -66.5 -28 q-40 0 -68.5 28.5 q-28.5 28.5 -28.5 67.5 ZM312.5 836.5 q-10.5 -10.5 -10.5 -26.5 q0 -16 10.5 -26.5 q10.5 -10.5 26.5 -10.5 q16 0 26.5 10.5 q10.5 10.5 10.5 26.5 q0 16 -10.5 26.5 q-10.5 10.5 -26.5 10.5 q-16 0 -26.5 -10.5 Z" /><glyph glyph-name="uring" unicode="&#x16f;" d="M482 467 l-35 -287 q-12 -99 -85 -147 q-66 -43 -145 -43 q-78 0 -132 39.5 q-54 39.5 -54 114.5 l3 36 l35 287 l170 0 l-32 -263 q0 -1 -1.5 -14.5 q-1.5 -13.5 -1.5 -20.5 q0 -34 31 -34 q13 0 22 6 q9 6 13.5 19 q4.5 13 5.5 20.5 q1 7.5 3 23.5 l32 263 l171 0 ZM216 551 q-28 28 -28 68 q0 40 28 68 q28 28 68 28 q40 0 68 -28 q28 -28 28 -68 q0 -40 -28 -68 q-28 -28 -68 -28 q-40 0 -68 28 ZM257.5 645.5 q-10.5 -10.5 -10.5 -26.5 q0 -16 10.5 -26.5 q10.5 -10.5 26.5 -10.5 q16 0 26.5 10.5 q10.5 10.5 10.5 26.5 q0 16 -10.5 26.5 q-10.5 10.5 -26.5 10.5 q-16 0 -26.5 -10.5 Z" /><glyph glyph-name="Uhungarumlaut" unicode="&#x170;" d="M545 667 l-58 -472 q-11 -98 -85 -155 q-66 -52 -155 -52 q-92 0 -148.5 47 q-56.5 47 -56.5 137 q0 24 3 48 l55 447 l177 0 l-53 -431 q-2 -22 -2 -33 q0 -46 39 -46 q16 0 26.5 7 q10.5 7 16 20.5 q5.5 13.5 7.5 24 q2 10.5 4 27.5 l53 431 l177 0 ZM521 868 l-105 -148 l-88 0 l65 148 l128 0 ZM356 868 l-104 -148 l-88 0 l65 148 l127 0 Z" /><glyph glyph-name="uhungarumlaut" unicode="&#x171;" d="M482 467 l-35 -287 q-12 -99 -85 -147 q-66 -43 -145 -43 q-78 0 -132 39.5 q-54 39.5 -54 114.5 l3 36 l35 287 l170 0 l-32 -263 q0 -1 -1.5 -14.5 q-1.5 -13.5 -1.5 -20.5 q0 -34 31 -34 q13 0 22 6 q9 6 13.5 19 q4.5 13 5.5 20.5 q1 7.5 3 23.5 l32 263 l171 0 ZM491 678 l-105 -148 l-88 0 l65 148 l128 0 ZM326 678 l-104 -148 l-88 0 l65 148 l127 0 Z" /><glyph glyph-name="Uogonek" unicode="&#x172;" d="M545 667 l-58 -472 q-7 -58 -27 -95 q-23 -43 -68 -77 q-4 -3 -32.5 -22.5 q-28.5 -19.5 -39.5 -30.5 q-19 -21 -19 -40 q0 -13 8 -23 q9 -10 27 -10 q16 0 36 9 l-17 -77 q-29 -12 -60 -12 q-44 0 -67 21 q-23 21 -23 57 q0 28 18 56 q14 20 34 38 l-10 0 q-90 0 -140 39 q-65 49 -65 147 q0 25 3 45 l55 447 l177 0 l-53 -431 q-2 -20 -2 -29 q0 -25 11 -39 q10 -11 27 -11 q19 0 31 11 q18 17 24 68 l53 431 l177 0 Z" /><glyph glyph-name="uogonek" unicode="&#x173;" d="M482 467 l-35 -287 q-8 -70 -32 -104 q-21 -29 -78 -65 q-50 -31 -60 -42 q-14 -16 -14 -36 q0 -15 10 -24 q8 -8 24 -8 q17 0 35 9 l-17 -73 q-28 -12 -61 -12 q-43 0 -66 24 q-19 21 -19 52 q0 26 15 49 q13 21 39 41 q-6 -1 -19 -1 q-78 0 -131 50 q-42 41 -42 104 q0 23 4 47 l34 276 l170 0 l-33 -275 q-2 -10 -2 -24 q0 -17 8 -25 q8 -8 23 -8 q16 0 26 10 q12 12 16 41 l34 281 l171 0 Z" /><glyph glyph-name="Ydieresis" unicode="&#x178;" d="M547 667 l-200 -385 l-35 -282 l-177 0 l35 282 l-116 385 l185 0 q30 -146 37 -206 q21 56 87 206 l184 0 ZM478 800 q0 -31 -24.5 -55.5 q-24.5 -24.5 -56.5 -24.5 q-27 0 -45 18.5 q-18 18.5 -18 45.5 q0 32 24 56 q24 24 56 24 q28 0 46 -18 q18 -18 18 -46 ZM288 792 q0 -8 -5 -20 q-9 -23 -30 -37.5 q-21 -14.5 -45 -14.5 q-28 0 -46 18 q-18 18 -18 46 q0 32 24.5 56 q24.5 24 56.5 24 q31 0 47 -20 q16 -20 16 -52 Z" /><glyph glyph-name="Zacute" unicode="&#x179;" d="M544 667 l-2 -19 l-206 -363 q-14 -25 -41 -70 q-27 -45 -38 -63 q35 3 203 8 l-19 -160 l-453 0 l2 14 l181 326 q53 95 110 170 l-191 0 l19 157 l435 0 ZM462 868 l-105 -148 l-98 0 l65 148 l138 0 Z" /><glyph glyph-name="zacute" unicode="&#x17a;" d="M441 467 l-138 -238 q-26 -46 -55 -88 l126 0 l-17 -141 l-369 0 l141 242 q30 52 55 85 l-130 0 l17 140 l370 0 ZM401 678 l-105 -148 l-98 0 l65 148 l138 0 Z" /><glyph glyph-name="Zdotaccent" unicode="&#x17b;" d="M544 667 l-2 -19 l-206 -363 q-14 -25 -41 -70 q-27 -45 -38 -63 q35 3 203 8 l-19 -160 l-453 0 l2 14 l181 326 q53 95 110 170 l-191 0 l19 157 l435 0 ZM409 796 q0 -11 -6 -21 q-9 -24 -31 -39.5 q-22 -15.5 -47 -15.5 q-29 0 -48 19 q-19 19 -19 48 q0 34 25 59 q25 25 59 25 q33 0 50 -20.5 q17 -20.5 17 -54.5 Z" /><glyph glyph-name="zdotaccent" unicode="&#x17c;" d="M441 467 l-138 -238 q-26 -46 -55 -88 l126 0 l-17 -141 l-369 0 l141 242 q30 52 55 85 l-130 0 l17 140 l370 0 ZM343 606 q0 -11 -6 -21 q-9 -24 -31 -39.5 q-22 -15.5 -47 -15.5 q-29 0 -48 19 q-19 19 -19 48 q0 34 25 59 q25 25 59 25 q33 0 50 -20.5 q17 -20.5 17 -54.5 Z" /><glyph glyph-name="Zcaron" unicode="&#x17d;" d="M544 667 l-2 -19 l-206 -363 q-14 -25 -41 -70 q-27 -45 -38 -63 q35 3 203 8 l-19 -160 l-453 0 l2 14 l181 326 q53 95 110 170 l-191 0 l19 157 l435 0 ZM486 802 l-166 -98 l-121 103 l71 63 l70 -58 l92 56 l54 -66 Z" /><glyph glyph-name="zcaron" unicode="&#x17e;" d="M441 467 l-138 -238 q-26 -46 -55 -88 l126 0 l-17 -141 l-369 0 l141 242 q30 52 55 85 l-130 0 l17 140 l370 0 ZM410 623 l-159 -112 l-118 118 l71 61 l64 -65 l87 65 l55 -67 Z" /><glyph glyph-name="uni018F" unicode="&#x18f;" d="M47 385 l310 0 q2 88 -18 115 q-14 18 -38 18 q-24 0 -38 -14 q-19 -17 -30 -54 l-168 55 q37 80 99 126 q66 48 151 48 q97 0 158 -61 q69 -71 69 -208 q0 -97 -30.5 -195 q-30.5 -98 -94.5 -161 q-38 -38 -76.5 -52 q-38.5 -14 -92.5 -14 q-90 0 -140 52 q-70 72 -70 226 q0 42 6 92 l3 27 ZM341 253 l-129 0 q-6 -69 16 -91 q11 -13 34 -13 q21 0 38 15 q29 26 41 89 Z" /><glyph glyph-name="florin" unicode="&#x192;" d="M479 729 l-22 -138 q-5 0 -16 1.5 q-11 1.5 -16 1.5 q-32 0 -38 -34 l-18 -93 l70 0 l-18 -94 l-71 0 l-64 -332 q-16 -84 -58.5 -129 q-42.5 -45 -123.5 -45 q-30 0 -76 13 l26 143 q20 -2 31 -2 q22 0 33 7.5 q11 7.5 15 28.5 l61 316 l-68 0 l17 94 l69 0 l21 106 q17 83 53 125 q36 42 114 42 q31 0 79 -11 Z" /><glyph glyph-name="uni01CF" unicode="&#x1cf;" d="M277 667 l-82 -667 l-177 0 l82 667 l177 0 ZM366 802 l-166 -98 l-121 103 l71 63 l70 -58 l92 56 l54 -66 Z" /><glyph glyph-name="uni01D0" unicode="&#x1d0;" d="M239 467 l-57 -467 l-171 0 l58 467 l170 0 ZM315 623 l-159 -112 l-118 118 l71 61 l64 -65 l87 65 l55 -67 Z" /><glyph glyph-name="uni01DD" unicode="&#x1dd;" d="M201 308 l-154 38 q27 56 78 91 q58 40 138 40 q88 0 138 -48 q57 -54 57 -155 q0 -66 -22 -126.5 q-22 -60.5 -62 -99.5 q-60 -58 -161 -58 q-87 0 -134 51 q-55 58 -55 164 q0 22 7 64 l254 0 q6 43 -11 61 q-10 11 -28 11 q-15 0 -27 -8 q-13 -9 -18 -25 ZM272 176 l-81 0 q-2 -36 11 -50 q9 -9 24 -9 q14 0 24 10 q16 16 22 49 Z" /><glyph glyph-name="Gcaron" unicode="&#x1e6;" d="M543 514 l-180 -64 q0 68 -44 68 q-25 0 -43.5 -23 q-18.5 -23 -24.5 -42.5 q-6 -19.5 -14 -50.5 q-21 -93 -21 -161 q0 -93 53 -93 q32 0 50 30 q18 30 23 67 l-65 0 l17 140 l247 0 q-8 -85 -24 -148 q-26 -111 -91.5 -180 q-65.5 -69 -172.5 -69 q-111 0 -163.5 74.5 q-52.5 74.5 -52.5 190.5 q0 95 24 177 q31 107 102.5 178 q71.5 71 174.5 71 q156 0 205 -165 ZM511 802 l-166 -98 l-121 103 l71 63 l70 -58 l92 56 l54 -66 Z" /><glyph glyph-name="gcaron" unicode="&#x1e7;" d="M475 467 l-59 -479 q-10 -83 -49 -128 q-65 -75 -183 -75 q-91 0 -137.5 40 q-46.5 40 -47.5 129 l174 0 q0 -38 31 -38 q18 0 28.5 11.5 q10.5 11.5 13.5 23 q3 11.5 6 31.5 q4 34 9 72 q-50 -61 -114 -61 q-44 0 -73.5 30.5 q-29.5 30.5 -40 69 q-10.5 38.5 -10.5 81.5 q0 62 15 122 q19 71 62 126 q43 55 106 55 q52 0 93 -71 l4 61 l172 0 ZM284 279 q0 57 -27 57 q-21 0 -34.5 -29 q-13.5 -29 -17 -57 q-3.5 -28 -3.5 -51 q0 -63 30 -63 q28 0 40 50 q12 50 12 93 ZM425 623 l-159 -112 l-118 118 l71 61 l64 -65 l87 65 l55 -67 Z" /><glyph glyph-name="AEacute" unicode="&#x1fc;" d="M630 667 l-19 -157 l-177 0 l3 -97 l148 0 l-18 -151 l-122 0 l4 -102 l119 0 l-20 -160 l-252 0 l-2 85 l-114 0 l-24 -85 l-184 0 l234 667 l424 0 ZM219 223 l74 0 q-2 122 -2 184 q0 33 2 99 q-17 -77 -74 -283 ZM490 868 l-105 -148 l-98 0 l65 148 l138 0 Z" /><glyph glyph-name="aeacute" unicode="&#x1fd;" d="M88 321 l17 135 q80 21 140 21 q87 0 135 -46 q68 46 138 46 q88 0 135.5 -56 q47.5 -56 47.5 -145 q0 -26 -8 -78 l-252 0 q0 -3 -0.5 -9 q-0.5 -6 -0.5 -9 q0 -62 37 -62 q27 0 43 35 l161 -3 q-17 -44 -36.5 -73 q-19.5 -29 -53.5 -51 q-56 -36 -135 -36 q-77 0 -130 48 q-74 -48 -154 -48 q-66 0 -111 38 q-45 38 -45 103 q0 79 53 124.5 q53 45.5 133 45.5 q39 0 86 -10 q-1 57 -83 57 q-60 0 -117 -27 ZM453 291 l86 0 q0 65 -36 65 q-36 0 -50 -65 ZM273 156 q0 17 -11.5 26 q-11.5 9 -29.5 9 q-20 0 -35 -13.5 q-15 -13.5 -15 -33.5 q0 -35 41 -35 q22 0 36 13 q14 13 14 34 ZM549 678 l-105 -148 l-98 0 l65 148 l138 0 Z" /><glyph glyph-name="Scommaaccent" unicode="&#x218;" d="M408 645 l-25 -204 q-37 73 -95 73 q-19 0 -36 -12.5 q-17 -12.5 -17 -31.5 q0 -19 22 -41 q22 -22 48 -41.5 q26 -19.5 48 -57.5 q22 -38 22 -84 q0 -105 -69 -181.5 q-69 -76.5 -173 -76.5 q-63 0 -127 29 l26 209 q44 -73 104 -73 q23 0 40.5 13.5 q17.5 13.5 17.5 36.5 q0 16 -14 32.5 q-14 16.5 -34.5 33.5 q-20.5 17 -41 38 q-20.5 21 -34.5 54 q-14 33 -14 73 q0 95 67.5 170 q67.5 75 160.5 75 q62 0 124 -34 ZM227 -45 l-94 -188 l-102 0 l50 188 l146 0 Z" /><glyph glyph-name="scommaaccent" unicode="&#x219;" d="M390 439 l-74 -127 q-35 41 -65 41 q-11 0 -20.5 -7 q-9.5 -7 -9.5 -18 q0 -17 22 -29.5 q22 -12.5 49 -22 q27 -9.5 49 -36.5 q22 -27 22 -69 q0 -79 -61.5 -130 q-61.5 -51 -142.5 -51 q-45 0 -79.5 11.5 q-34.5 11.5 -79.5 37.5 l78 129 q38 -49 79 -49 q14 0 25 7 q11 7 11 20 q0 10 -8 17.5 q-8 7.5 -13 9.5 q-5 2 -19 7 q-49 19 -76.5 46 q-27.5 27 -27.5 73 q0 79 64 128.5 q64 49.5 145 49.5 q66 0 132 -38 ZM242 -46 l-94 -188 l-102 0 l50 188 l146 0 Z" /><glyph glyph-name="Tcommaaccent" unicode="&#x21a;" d="M427 667 l-20 -160 l-98 0 l-62 -507 l-177 0 l62 507 l-98 0 l20 160 l373 0 ZM227 -45 l-94 -188 l-102 0 l50 188 l146 0 Z" /><glyph glyph-name="tcommaaccent" unicode="&#x21b;" d="M319 467 l-17 -140 l-56 0 l-41 -327 l-170 0 l40 327 l-49 0 l17 140 l49 0 l17 137 l171 0 l-17 -137 l56 0 ZM192 -46 l-94 -188 l-102 0 l50 188 l146 0 Z" /><glyph glyph-name="uni0228" unicode="&#x228;" d="M430 667 l-20 -157 l-152 0 l-12 -97 l137 0 l-19 -151 l-136 0 l-13 -102 l152 0 l-19 -160 l-330 0 l82 667 l330 0 ZM270 -113 l-126 -124 l-77 53 l107 137 l96 -66 Z" /><glyph glyph-name="uni0229" unicode="&#x229;" d="M266 157 l166 0 q-26 -80 -84 -123.5 q-58 -43.5 -141 -43.5 q-89 0 -136.5 51 q-47.5 51 -47.5 140 q0 116 68 205.5 q68 89.5 180 89.5 q87 0 133.5 -55.5 q46.5 -55.5 46.5 -144.5 q0 -27 -8 -79 l-250 0 q-1 -6 -1 -19 q0 -53 32 -53 q31 0 42 32 ZM207 290 l79 0 q0 2 0.5 6 q0.5 4 0.5 6 q0 47 -34 47 q-20 0 -31.5 -18 q-11.5 -18 -14.5 -41 ZM285 -106 l-126 -117 l-71 54 l102 122 l95 -59 Z" /><glyph glyph-name="uni0237" unicode="&#x237;" d="M241 467 l-84 -682 l-170 0 l82 682 l172 0 Z" /><glyph glyph-name="uni0259" unicode="&#x259;" d="M201 308 l-154 38 q27 56 78 91 q58 40 138 40 q88 0 138 -48 q57 -54 57 -155 q0 -66 -22 -126.5 q-22 -60.5 -62 -99.5 q-60 -58 -161 -58 q-87 0 -134 51 q-55 58 -55 164 q0 22 7 64 l254 0 q6 43 -11 61 q-10 11 -28 11 q-15 0 -27 -8 q-13 -9 -18 -25 ZM272 176 l-81 0 q-2 -36 11 -50 q9 -9 24 -9 q14 0 24 10 q16 16 22 49 Z" /><glyph glyph-name="afii57929" unicode="&#x2bc;" d="M267 667 l-100 -221 l-104 0 l58 221 l146 0 Z" /><glyph glyph-name="circumflex" unicode="&#x2c6;" d="M311 690 l116 -117 l-64 -63 l-65 66 l-90 -70 l-53 67 l156 117 Z" /><glyph glyph-name="caron" unicode="&#x2c7;" d="M440 623 l-159 -112 l-118 118 l71 61 l64 -65 l87 65 l55 -67 Z" /><glyph glyph-name="uni02C9" unicode="&#x2c9;" d="M469 647 l-12 -94 l-335 0 l12 94 l335 0 Z" /><glyph glyph-name="breve" unicode="&#x2d8;" d="M393 669 l69 0 q-14 -68 -60.5 -108 q-46.5 -40 -115.5 -40 q-61 0 -100.5 35.5 q-39.5 35.5 -39.5 95.5 l0 17 l69 0 q8 -32 27.5 -42.5 q19.5 -10.5 54.5 -10.5 q37 0 58.5 11 q21.5 11 37.5 42 Z" /><glyph glyph-name="dotaccent" unicode="&#x2d9;" d="M372 606 q0 -11 -6 -21 q-9 -24 -31 -39.5 q-22 -15.5 -47 -15.5 q-28 0 -47.5 19 q-19.5 19 -19.5 48 q0 34 25 59 q25 25 59 25 q33 0 50 -20.5 q17 -20.5 17 -54.5 Z" /><glyph glyph-name="ring" unicode="&#x2da;" d="M231 551 q-28 28 -28 68 q0 40 28 68 q28 28 68 28 q40 0 68 -28 q28 -28 28 -68 q0 -40 -28 -68 q-28 -28 -68 -28 q-40 0 -68 28 ZM272.5 645.5 q-10.5 -10.5 -10.5 -26.5 q0 -16 10.5 -26.5 q10.5 -10.5 26.5 -10.5 q16 0 26.5 10.5 q10.5 10.5 10.5 26.5 q0 16 -10.5 26.5 q-10.5 10.5 -26.5 10.5 q-16 0 -26.5 -10.5 Z" /><glyph glyph-name="ogonek" unicode="&#x2db;" d="M378 -92 l-16 -70 q-20 -9 -44 -9 q-45 0 -72 24 q-20 18 -20 49 q0 26 19 54 q18 25 37 44 l60 0 q-1 -2 -5 -7 q-4 -5 -8 -11.5 q-4 -6.5 -8 -12.5 q-13 -20 -13 -37 q0 -14 9 -21 q11 -9 28 -9 q17 0 33 6 Z" /><glyph glyph-name="tilde" unicode="&#x2dc;" d="M383 665 l88 0 q-5 -56 -35.5 -94.5 q-30.5 -38.5 -84.5 -38.5 q-25 0 -61 16.5 q-36 16.5 -50 16.5 q-25 0 -31 -35 l-89 0 q4 34 12 56 q13 33 41 54.5 q28 21.5 62 21.5 q27 0 63.5 -16.5 q36.5 -16.5 52.5 -16.5 q26 0 32 36 Z" /><glyph glyph-name="hungarumlaut" unicode="&#x2dd;" d="M516 678 l-105 -148 l-88 0 l65 148 l128 0 ZM351 678 l-104 -148 l-88 0 l65 148 l127 0 Z" /><glyph glyph-name="acutecomb" unicode="&#x301;" d="M-69 678 l-105 -148 l-98 0 l65 148 l138 0 Z" /><glyph glyph-name="Delta" unicode="&#x394;&#x2206;" d="M622 0 l-634 0 l245 667 l141 0 l248 -667 ZM434 118 l-130 390 l-130 -390 l260 0 Z" /><glyph glyph-name="Omega" unicode="&#x3a9;&#x2126;" d="M633 0 l-270 0 l0 104 q134 72 134 248 q0 84 -44.5 149 q-44.5 65 -124.5 65 q-80 0 -124.5 -65 q-44.5 -65 -44.5 -149 q0 -177 135 -248 l0 -104 l-271 0 l0 117 l136 0 q-72 45 -104 104 q-32 59 -32 145 q0 135 85.5 226 q85.5 91 219.5 91 q134 0 219.5 -91 q85.5 -91 85.5 -226 q0 -121 -68 -196 q-24 -27 -68 -53 l136 0 l0 -117 Z" /><glyph glyph-name="pi" unicode="&#x3c0;" d="M672 327 l-76 0 l0 -327 l-172 0 l0 327 l-135 0 l0 -327 l-172 0 l0 327 l-77 0 l0 140 l632 0 l0 -140 Z" /><glyph glyph-name="afii10023" unicode="&#x401;" d="M430 667 l-20 -157 l-152 0 l-12 -97 l137 0 l-19 -151 l-136 0 l-13 -102 l152 0 l-19 -160 l-330 0 l82 667 l330 0 ZM439 793 q0 -31 -24.5 -55.5 q-24.5 -24.5 -56.5 -24.5 q-27 0 -45 18.5 q-18 18.5 -18 45.5 q0 32 24 56 q24 24 56 24 q28 0 46 -18 q18 -18 18 -46 ZM254 785 q0 -7 -5 -20 q-9 -23 -30 -37.5 q-21 -14.5 -45 -14.5 q-28 0 -46 18 q-18 18 -18 46 q0 32 24.5 56 q24.5 24 56.5 24 q31 0 47 -20 q16 -20 16 -52 Z" /><glyph glyph-name="afii10051" unicode="&#x402;" d="M76 0 l63 507 l-99 0 l20 160 l429 0 l-20 -160 l-154 0 l-8 -65 q-4 -38 -13 -64 q55 33 109 33 q71 0 113 -53 q40 -50 40 -133 q0 -61 -19.5 -114.5 q-19.5 -53.5 -51.5 -83.5 q-45 -43 -123 -43 q-39 0 -74 14 l31 142 q10 -9 24 -9 q13 0 24 14 q13 17 13 54 q0 29 -12 43 q-12 15 -30 15 q-20 0 -56 -17 l-29 -240 l-177 0 Z" /><glyph glyph-name="afii10052" unicode="&#x403;" d="M413 667 l-19 -157 l-136 0 l-63 -510 l-177 0 l82 667 l313 0 ZM407 868 l-105 -148 l-98 0 l65 148 l138 0 Z" /><glyph glyph-name="afii10053" unicode="&#x404;" d="M446 210 l-32 -189 q-60 -33 -130 -33 q-108 0 -171 65 q-75 77 -75 218 q0 91 31.5 181 q31.5 90 91.5 148 q82 79 207 79 q73 0 132 -32 l-23 -189 q-18 23 -39 37 q-27 17 -63 17 q-52 0 -86 -32 q-29 -27 -42 -67 l164 0 l-20 -149 l-165 0 q1 -46 32 -77 q28 -27 74 -27 q35 0 64 13 q28 12 50 37 Z" /><glyph glyph-name="afii10054" unicode="&#x405;" d="M408 645 l-25 -204 q-37 73 -95 73 q-19 0 -36 -12.5 q-17 -12.5 -17 -31.5 q0 -19 22 -41 q22 -22 48 -41.5 q26 -19.5 48 -57.5 q22 -38 22 -84 q0 -105 -69 -181.5 q-69 -76.5 -173 -76.5 q-63 0 -127 29 l26 209 q44 -73 104 -73 q23 0 40.5 13.5 q17.5 13.5 17.5 36.5 q0 16 -14 32.5 q-14 16.5 -34.5 33.5 q-20.5 17 -41 38 q-20.5 21 -34.5 54 q-14 33 -14 73 q0 95 67.5 170 q67.5 75 160.5 75 q62 0 124 -34 Z" /><glyph glyph-name="afii10055" unicode="&#x406;" d="M277 667 l-82 -667 l-177 0 l82 667 l177 0 Z" /><glyph glyph-name="afii10056" unicode="&#x407;" d="M277 667 l-82 -667 l-177 0 l82 667 l177 0 ZM317 800 q0 -32 -17.5 -56 q-17.5 -24 -39.5 -24 q-19 0 -31.5 18.5 q-12.5 18.5 -12.5 45.5 q0 32 16.5 56 q16.5 24 39.5 24 q20 0 32.5 -18 q12.5 -18 12.5 -46 ZM184 792 q0 -10 -4 -20 q-6 -23 -21 -37.5 q-15 -14.5 -31 -14.5 q-20 0 -32.5 18 q-12.5 18 -12.5 46 q0 32 17 56 q17 24 40 24 q22 0 33 -20 q11 -20 11 -52 Z" /><glyph glyph-name="afii10057" unicode="&#x408;" d="M357 667 l-57 -463 q-11 -85 -37 -125 q-57 -91 -177 -91 q-53 0 -113 22 l23 186 q25 -39 66 -39 q55 0 65 82 l52 428 l178 0 Z" /><glyph glyph-name="afii10058" unicode="&#x409;" d="M527 0 l-201 0 l62 503 l-80 0 l-27 -221 q-22 -179 -82 -240 q-52 -53 -147 -53 q-40 0 -72 8 l22 178 q16 -16 37 -16 q25 0 42 15 q23 22 32 97 l49 396 l421 0 l-30 -245 l9 0 q118 0 174 -55 q52 -52 52 -133 q0 -103 -65 -168 q-67 -66 -196 -66 ZM535 278 l-16 -133 q44 -6 73 24 q18 18 18 51 q0 30 -20 46 q-22 17 -55 12 Z" /><glyph glyph-name="afii10059" unicode="&#x40a;" d="M482 0 l-201 0 l33 278 l-86 0 l-33 -278 l-177 0 l82 667 l177 0 l-30 -245 l86 0 l30 245 l175 0 l-30 -245 l9 0 q118 0 174 -55 q52 -52 52 -133 q0 -103 -65 -168 q-67 -66 -196 -66 ZM490 278 l-16 -133 q44 -6 73 24 q18 18 18 51 q0 30 -20 46 q-22 17 -55 12 Z" /><glyph glyph-name="afii10060" unicode="&#x40b;" d="M75 0 l64 507 l-99 0 l20 160 l429 0 l-20 -160 l-154 0 l-15 -107 q41 15 90 15 q73 0 114 -40 q40 -39 40 -106 q0 -11 -7 -76 l-23 -193 l-176 0 l20 158 q5 45 5 50 q0 24 -10 35 q-10 12 -31 12 q-20 0 -40 -11 l-30 -244 l-177 0 Z" /><glyph glyph-name="afii10061" unicode="&#x40c;" d="M564 667 l-181 -322 l117 -345 l-191 0 l-79 319 l-35 -319 l-177 0 l82 667 l177 0 l-40 -298 l140 298 l187 0 ZM472 868 l-105 -148 l-98 0 l65 148 l138 0 Z" /><glyph glyph-name="afii10062" unicode="&#x40e;" d="M54 667 l184 0 l23 -109 q15 -70 17 -141 q22 78 49 146 l41 104 l186 0 l-318 -667 l-177 0 l108 230 l-113 437 ZM377 874 l125 -37 q-17 -67 -72 -99 q-45 -27 -121 -27 q-75 0 -118 26 q-56 34 -73 99 l127 38 q4 -26 20 -41 q17 -15 47 -15 q30 0 47 17 q14 16 18 39 Z" /><glyph glyph-name="afii10145" unicode="&#x40f;" d="M277 667 l-62 -504 l84 0 l62 504 l177 0 l-82 -667 l-139 0 l-16 -130 l-160 0 l16 130 l-139 0 l82 667 l177 0 Z" /><glyph glyph-name="afii10017" unicode="&#x410;" d="M491 0 l-183 0 l-3 85 l-119 0 l-25 -85 l-184 0 l240 667 l217 0 l57 -667 ZM300 305 l0 87 q0 1 3 115 q-3 -11 -10.5 -43.5 q-7.5 -32.5 -12.5 -50.5 q-6 -21 -24 -86 q-18 -65 -29 -100 l75 0 q-2 52 -2 78 Z" /><glyph glyph-name="afii10018" unicode="&#x411;" d="M222 0 l-204 0 l82 667 l367 0 l-19 -157 l-190 0 l-13 -104 l10 0 q121 0 175 -54 q46 -46 46 -122 q0 -104 -64 -165 q-67 -65 -190 -65 ZM228 272 l-15 -127 q40 -7 65 19 q20 20 20 56 q0 27 -16 40 q-17 16 -54 12 Z" /><glyph glyph-name="afii10019" unicode="&#x412;" d="M100 667 l206 0 q206 0 206 -165 q0 -68 -36.5 -111 q-36.5 -43 -103.5 -49 q60 -8 88.5 -37.5 q28.5 -29.5 28.5 -89.5 q0 -94 -64.5 -154.5 q-64.5 -60.5 -158.5 -60.5 l-248 0 l82 667 ZM259 522 l-14 -114 q4 -1 12 -1 q33 0 55 17.5 q22 17.5 22 48.5 q0 50 -56 50 q-13 0 -19 -1 ZM229 272 l-16 -127 q5 -1 15 -1 q34 0 58 20 q24 20 24 54 q0 28 -19 41.5 q-19 13.5 -48 13.5 q-3 0 -7 -0.5 q-4 -0.5 -7 -0.5 Z" /><glyph glyph-name="afii10020" unicode="&#x413;" d="M413 667 l-19 -157 l-136 0 l-63 -510 l-177 0 l82 667 l313 0 Z" /><glyph glyph-name="afii10021" unicode="&#x414;" d="M152 667 l411 0 l-63 -509 l56 0 l-35 -288 l-152 0 l16 130 l-247 0 l-16 -130 l-152 0 l36 288 q34 8 56 30 q36 36 49 142 l41 337 ZM297 509 l-21 -169 q-11 -94 -29 -131 q-15 -30 -43 -51 l123 0 l43 351 l-73 0 Z" /><glyph glyph-name="afii10022" unicode="&#x415;" d="M430 667 l-20 -157 l-152 0 l-12 -97 l137 0 l-19 -151 l-136 0 l-13 -102 l152 0 l-19 -160 l-330 0 l82 667 l330 0 Z" /><glyph glyph-name="afii10024" unicode="&#x416;" d="M709 0 l-182 0 l-61 321 l-34 -321 l-170 0 l45 321 l-140 -321 l-182 0 l177 349 l-98 318 l180 0 l69 -300 l31 300 l170 0 l-42 -300 l142 300 l178 0 l-176 -324 l93 -343 Z" /><glyph glyph-name="afii10025" unicode="&#x417;" d="M70 453 l24 190 q62 36 139 36 q107 0 163 -58 q46 -47 46 -123 q0 -73 -40 -114 q-37 -37 -96 -45 q52 0 86 -34 q34 -34 34 -92 q0 -44 -18.5 -88.5 q-18.5 -44.5 -50.5 -74.5 q-66 -62 -180 -62 q-75 0 -157 43 l25 201 q21 -36 49 -57 q30 -23 69 -23 q35 0 53 17 q17 15 17 42 q0 27 -24 43 q-19 12 -58 12 l-26 0 l17 148 l24 0 q44 0 65 11 q26 14 26 42 q0 21 -18 35 q-19 15 -55 15 q-32 0 -61 -18 q-23 -14 -53 -46 Z" /><glyph glyph-name="afii10026" unicode="&#x418;" d="M18 0 l82 667 l170 0 l-23 -185 q-14 -118 -47 -225 q45 105 92 195 l115 215 l158 0 l-82 -667 l-170 0 l22 178 q12 102 37 214 q-27 -79 -87 -190 l-109 -202 l-158 0 Z" /><glyph glyph-name="afii10027" unicode="&#x419;" d="M18 0 l82 667 l170 0 l-23 -185 q-14 -118 -47 -225 q45 105 92 195 l115 215 l158 0 l-82 -667 l-170 0 l22 178 q12 102 37 214 q-27 -79 -87 -190 l-109 -202 l-158 0 ZM417 874 l125 -37 q-17 -67 -72 -99 q-45 -27 -121 -27 q-75 0 -118 26 q-56 34 -73 99 l127 38 q4 -26 20 -41 q17 -15 47 -15 q30 0 47 17 q14 16 18 39 Z" /><glyph glyph-name="afii10028" unicode="&#x41a;" d="M564 667 l-181 -322 l117 -345 l-191 0 l-79 319 l-35 -319 l-177 0 l82 667 l177 0 l-40 -298 l140 298 l187 0 Z" /><glyph glyph-name="afii10029" unicode="&#x41b;" d="M162 667 l426 0 l-82 -667 l-180 0 l62 503 l-80 0 l-27 -221 q-22 -179 -82 -240 q-52 -53 -147 -53 q-40 0 -72 8 l22 178 q16 -16 37 -16 q25 0 42 15 q23 22 32 97 l49 396 Z" /><glyph glyph-name="afii10030" unicode="&#x41c;" d="M712 667 l-18 -667 l-185 0 q10 130 35 425 q-28 -110 -126 -425 l-145 0 l-11 321 q0 5 -0.5 17 q-0.5 12 -0.5 17 q0 24 2 70 q-13 -100 -71 -425 l-190 0 l158 667 l221 0 l9 -225 q2 -34 2 -50 q0 -12 -0.5 -25.5 q-0.5 -13.5 -1.5 -29.5 q-1 -16 -1 -25 q10 43 24 94 q14 51 23 81 q9 30 30 95 q21 65 27 85 l219 0 Z" /><glyph glyph-name="afii10031" unicode="&#x41d;" d="M539 667 l-82 -667 l-177 0 l33 268 l-85 0 l-33 -268 l-177 0 l82 667 l177 0 l-29 -236 l85 0 l29 236 l177 0 Z" /><glyph glyph-name="afii10032" unicode="&#x41e;" d="M337 679 q86 0 140 -57 q69 -72 69 -208 q0 -96 -30.5 -195 q-30.5 -99 -94.5 -161 q-71 -70 -167 -70 q-87 0 -146 62 q-70 72 -70 213 q0 116 34.5 203 q34.5 87 88.5 139 q75 74 176 74 ZM315 511 q-17 0 -35 -19 q-25 -27 -41 -91 q-17 -67 -17 -139 q0 -72 22 -94 q11 -11 26 -11 q19 0 33 16 q28 31 44 99 q15 61 15 134 q0 77 -22 96 q-10 9 -25 9 Z" /><glyph glyph-name="afii10033" unicode="&#x41f;" d="M539 667 l-82 -667 l-177 0 l62 504 l-85 0 l-62 -504 l-177 0 l82 667 l439 0 Z" /><glyph glyph-name="afii10034" unicode="&#x420;" d="M100 667 l172 0 q238 0 238 -193 q0 -115 -73 -190 q-76 -77 -215 -65 l-27 -219 l-177 0 l82 667 ZM241 368 l9 0 q36 0 57.5 25.5 q21.5 25.5 21.5 61.5 q0 29 -14.5 47.5 q-14.5 18.5 -42.5 18.5 l-13 0 l-18 -153 Z" /><glyph glyph-name="afii10035" unicode="&#x421;" d="M461 662 l-23 -190 q-35 40 -77 40 q-50 0 -83.5 -39.5 q-33.5 -39.5 -45 -87 q-11.5 -47.5 -11.5 -96.5 q0 -55 22 -91 q22 -36 73 -36 q47 0 97 43 l-34 -193 q-59 -24 -109 -24 q-113 0 -172.5 77.5 q-59.5 77.5 -59.5 194.5 q0 77 21 150 q21 73 61 134 q40 61 106 98 q66 37 147 37 q48 0 88 -17 Z" /><glyph glyph-name="afii10036" unicode="&#x422;" d="M427 667 l-20 -160 l-98 0 l-62 -507 l-177 0 l62 507 l-98 0 l20 160 l373 0 Z" /><glyph glyph-name="afii10037" unicode="&#x423;" d="M54 667 l184 0 l23 -109 q15 -70 17 -141 q22 78 49 146 l41 104 l186 0 l-318 -667 l-177 0 l108 230 l-113 437 Z" /><glyph glyph-name="afii10038" unicode="&#x424;" d="M232 0 l11 90 q-82 9 -140 63 q-65 63 -65 169 q0 131 75 211 q74 78 195 85 l10 86 l176 0 l-10 -86 q88 -10 142 -65 q65 -65 65 -174 q0 -132 -78 -208 q-73 -71 -194 -81 l-11 -90 l-176 0 ZM451 463 l-26 -217 q42 1 69 30 q31 34 31 96 q0 45 -23 68 q-20 20 -51 23 ZM276 245 l27 218 q-37 -1 -63 -25 q-36 -34 -36 -98 q0 -45 24 -70 q20 -20 48 -25 Z" /><glyph glyph-name="afii10039" unicode="&#x425;" d="M552 667 l-190 -321 l119 -346 l-197 0 q-9 37 -26 124 q-8 35 -10 55 q-25 -61 -83 -179 l-193 0 l202 346 l-111 321 l197 0 q3 -18 10.5 -55 q7.5 -37 11.5 -55 q1 -5 2.5 -15 q1.5 -10 3 -18 q1.5 -8 3.5 -15 q14 45 62 158 l199 0 Z" /><glyph glyph-name="afii10040" unicode="&#x426;" d="M277 667 l-62 -504 l82 0 l62 504 l177 0 l-62 -504 l70 0 l-37 -293 l-160 0 l17 130 l-346 0 l82 667 l177 0 Z" /><glyph glyph-name="afii10041" unicode="&#x427;" d="M270 0 l33 269 q-39 -11 -79 -11 q-71 0 -113 33 q-51 40 -51 112 q0 29 6 74 l24 190 l176 0 l-22 -178 q-3 -27 -3 -30 q0 -21 13 -32 q12 -11 35 -11 q18 0 33 7 l30 244 l177 0 l-82 -667 l-177 0 Z" /><glyph glyph-name="afii10042" unicode="&#x428;" d="M276 667 l-62 -504 l80 0 l62 504 l176 0 l-62 -504 l80 0 l62 504 l176 0 l-82 -667 l-688 0 l82 667 l176 0 Z" /><glyph glyph-name="afii10043" unicode="&#x429;" d="M278 667 l-62 -504 l80 0 l62 504 l176 0 l-62 -504 l80 0 l62 504 l176 0 l-62 -504 l78 0 l-37 -293 l-160 0 l17 130 l-606 0 l82 667 l176 0 Z" /><glyph glyph-name="afii10044" unicode="&#x42a;" d="M279 0 l-203 0 l62 507 l-83 0 l20 160 l260 0 l-30 -245 l9 0 q118 0 174 -55 q52 -52 52 -133 q0 -103 -65 -168 q-67 -66 -196 -66 ZM287 278 l-16 -133 q44 -6 73 24 q18 18 18 51 q0 30 -20 46 q-22 17 -55 12 Z" /><glyph glyph-name="afii10045" unicode="&#x42b;" d="M674 0 l-177 0 l79 667 l183 0 l-85 -667 ZM220 0 l-202 0 l82 667 l177 0 l-30 -245 l8 0 q118 0 174 -55 q52 -50 52 -131 q0 -105 -65 -170 q-67 -66 -196 -66 ZM229 278 l-16 -133 q44 -6 73 24 q18 18 18 51 q0 30 -20 46 q-22 17 -55 12 Z" /><glyph glyph-name="afii10046" unicode="&#x42c;" d="M221 0 l-203 0 l82 667 l177 0 l-30 -245 l9 0 q118 0 174 -55 q52 -52 52 -133 q0 -103 -65 -168 q-67 -66 -196 -66 ZM229 278 l-16 -133 q44 -6 73 24 q18 18 18 51 q0 30 -20 46 q-22 17 -55 12 Z" /><glyph glyph-name="afii10047" unicode="&#x42d;" d="M40 29 l11 193 q16 -25 43 -44 q29 -20 66 -20 q45 0 77 28 q31 28 40 75 l-151 0 l19 151 l150 0 q-7 48 -36 74 q-29 26 -76 26 q-32 0 -61 -16 q-24 -14 -44 -35 l24 188 q55 30 117 30 q115 0 184 -69 q37 -37 59 -97.5 q22 -60.5 22 -132.5 q0 -87 -30.5 -176 q-30.5 -89 -92.5 -147 q-73 -69 -183 -69 q-40 0 -69 9.5 q-29 9.5 -69 31.5 Z" /><glyph glyph-name="afii10048" unicode="&#x42e;" d="M247 425 l69 0 q24 109 97 182 q73 72 174 72 q88 0 142 -57 q69 -72 69 -208 q0 -97 -30.5 -195.5 q-30.5 -98.5 -94.5 -161.5 q-69 -69 -172 -69 q-84 0 -137 53 q-70 70 -70 227 l-66 0 l-33 -268 l-177 0 l82 667 l177 0 l-30 -242 ZM567 511 q-17 0 -35 -19 q-25 -27 -41 -91 q-17 -67 -17 -139 q0 -72 22 -94 q11 -11 26 -11 q19 0 33 16 q28 31 44 99 q15 61 15 134 q0 77 -22 96 q-10 9 -25 9 Z" /><glyph glyph-name="afii10049" unicode="&#x42f;" d="M0 0 l155 269 q-41 18 -63 50 q-28 40 -28 102 q0 107 63 172 q73 74 250 74 l172 0 l-82 -667 l-177 0 l19 147 q12 91 18 120 l-128 -267 l-199 0 ZM334 358 l19 159 q-43 5 -70 -20 q-28 -24 -28 -70 q0 -30 19 -49 q22 -20 54 -20 l6 0 Z" /><glyph glyph-name="afii10065" unicode="&#x430;" d="M479 467 l-57 -467 l-171 0 q3 13 8 39.5 q5 26.5 7 39.5 q-53 -89 -130 -89 q-33 0 -56.5 17 q-23.5 17 -35 45 q-11.5 28 -16.5 56 q-5 28 -5 59 q0 69 14 128 q8 33 21 63 q13 30 32.5 58 q19.5 28 48.5 44.5 q29 16.5 63 16.5 q40 0 62 -21.5 q22 -21.5 37 -62.5 q0 12 1.5 36.5 q1.5 24.5 2.5 37.5 l174 0 ZM269 187.5 q13 54.5 13 100.5 q0 46 -28 46 q-31 0 -45 -51 q-14 -51 -14 -95 q0 -55 31 -55 q30 0 43 54.5 Z" /><glyph glyph-name="afii10066" unicode="&#x431;" d="M376 557 l-38 -11 q-74 -22 -102 -49 q-42 -40 -49 -103 q19 39 47 59 q33 24 81 24 q64 0 106 -42 q51 -53 51 -152 q0 -60 -19.5 -127 q-19.5 -67 -64.5 -110 q-59 -56 -159 -56 q-84 0 -131 48 q-58 59 -58 186 q0 96 30 211 q31 116 90 174 q33 32 70.5 49 q37.5 17 91.5 31 q51 13 67 32 q11 12 13 29 l131 0 q-5 -77 -50 -131 q-35 -42 -107 -62 ZM270 346 q-13 0 -24 -11 q-18 -18 -29 -60.5 q-11 -42.5 -11 -79.5 q0 -37 11 -57 q10 -17 26 -17 q15 0 25 12 q19 19 29 61 q10 42 10 79 q0 35 -11 56 q-8 17 -26 17 Z" /><glyph glyph-name="afii10067" unicode="&#x432;" d="M68 467 l200 0 q113 0 153 -40 q31 -33 31 -83 q0 -47 -26 -73 q-31 -31 -83 -31 l0 -2 q50 2 77 -27 q22 -24 22 -64 q0 -58 -35 -96 q-48 -51 -145 -51 l-251 0 l57 467 ZM216 280 l7 0 q36 0 50 12 q15 13 15 34 q0 16 -14 26 q-11 7 -41 7 l-7 0 l-10 -79 ZM195 108 l6 0 q35 0 48 9 q19 13 19 37 q0 20 -17 30 q-15 6 -38 6 l-8 0 l-10 -82 Z" /><glyph glyph-name="afii10068" unicode="&#x433;" d="M351 327 l-128 0 l-40 -327 l-172 0 l57 467 l300 0 l-17 -140 Z" /><glyph glyph-name="afii10069" unicode="&#x434;" d="M122 467 l378 0 l-40 -331 l53 0 l-32 -251 l-138 0 l15 115 l-236 0 l-14 -115 l-138 0 l31 251 q35 7 55 27 q33 31 45 132 l21 172 ZM294 136 l24 195 l-61 0 l-10 -79 q-6 -45 -17 -70 q-13 -28 -38 -46 l102 0 Z" /><glyph glyph-name="afii10070" unicode="&#x435;" d="M266 157 l166 0 q-26 -80 -84 -123.5 q-58 -43.5 -141 -43.5 q-89 0 -136.5 51 q-47.5 51 -47.5 140 q0 116 68 205.5 q68 89.5 180 89.5 q87 0 133.5 -55.5 q46.5 -55.5 46.5 -144.5 q0 -27 -8 -79 l-250 0 q-1 -6 -1 -19 q0 -53 32 -53 q31 0 42 32 ZM207 290 l79 0 q0 2 0.5 6 q0.5 4 0.5 6 q0 47 -34 47 q-20 0 -31.5 -18 q-11.5 -18 -14.5 -41 Z" /><glyph glyph-name="afii10072" unicode="&#x436;" d="M686 0 l-187 0 l-26 96 q-18 67 -25 120 l-27 -216 l-168 0 l27 216 q-29 -70 -55 -120 l-50 -96 l-192 0 l145 239 l-79 228 l178 0 l30 -104 q17 -60 26 -118 l27 222 l168 0 l-27 -222 q18 44 56 118 l54 104 l180 0 l-137 -228 l82 -239 Z" /><glyph glyph-name="afii10073" unicode="&#x437;" d="M108 303 l-55 127 q41 21 74 32 q48 15 101 15 q99 0 147 -48 q34 -34 34 -85 q0 -48 -29 -75 q-28 -27 -74 -30 q42 -3 68 -28 q25 -23 25 -65 q0 -55 -41 -99 q-55 -57 -157 -57 q-62 0 -110 18 q-40 15 -81 45 l82 121 q12 -23 37 -38 q22 -14 49 -14 q16 0 32 8 q12 8 12 23 q0 19 -20 26 q-15 5 -49 5 l-20 0 l13 109 l30 0 q26 0 41 4 q22 7 22 25 q0 12 -13 20 q-11 7 -33 7 q-25 0 -46 -12 q-12 -7 -39 -34 Z" /><glyph glyph-name="afii10074" unicode="&#x438;" d="M68 467 l166 0 l-16 -131 q-7 -59 -22 -123 q24 53 46 90 l94 164 l158 0 l-57 -467 l-166 0 l15 125 q4 35 22 129 q-23 -55 -46 -94 l-93 -160 l-158 0 l57 467 Z" /><glyph glyph-name="afii10075" unicode="&#x439;" d="M68 467 l166 0 l-16 -131 q-7 -59 -22 -123 q24 53 46 90 l94 164 l158 0 l-57 -467 l-166 0 l15 125 q4 35 22 129 q-23 -55 -46 -94 l-93 -160 l-158 0 l57 467 ZM351 677 l111 -26 q-19 -67 -72 -102 q-39 -25 -100 -25 q-65 0 -103 27 q-50 34 -60 100 l118 26 q-2 -27 12 -42 q12 -13 34 -13 q25 0 38 13 q16 14 22 42 Z" /><glyph glyph-name="afii10076" unicode="&#x43a;" d="M456 0 l-190 0 l-24 80 q-24 81 -34 123 l-25 -203 l-172 0 l57 467 l172 0 l-27 -221 q31 77 70 147 l40 74 l182 0 l-139 -234 l90 -233 Z" /><glyph glyph-name="afii10077" unicode="&#x43b;" d="M496 467 l-57 -467 l-172 0 l40 327 l-60 0 l-13 -104 q-18 -145 -72 -196 q-41 -38 -115 -38 q-35 0 -67 10 l17 139 q10 -7 24 -7 q20 0 32 10 q22 17 31 90 l29 236 l383 0 Z" /><glyph glyph-name="afii10078" unicode="&#x43c;" d="M347 0 l-118 0 l-17 169 q-6 55 -5 107 q-4 -44 -17 -108 l-33 -168 l-167 0 l118 467 l182 0 l16 -156 q7 -63 6 -117 q12 57 32 112 l56 161 l182 0 l4 -467 l-167 0 l9 155 q3 65 9 121 q-12 -55 -34 -118 l-56 -158 Z" /><glyph glyph-name="afii10079" unicode="&#x43d;" d="M240 467 l-19 -159 l64 0 l19 159 l172 0 l-57 -467 l-172 0 l21 168 l-64 0 l-21 -168 l-172 0 l57 467 l172 0 Z" /><glyph glyph-name="afii10080" unicode="&#x43e;" d="M270 477 q82 0 131 -47 q55 -53 55 -152 q0 -66 -22 -126.5 q-22 -60.5 -62 -99.5 q-64 -62 -164 -62 q-79 0 -127 44 q-57 52 -57 156 q0 137 85 222 q67 65 161 65 ZM254 346 q-13 0 -24 -11 q-18 -18 -29 -60.5 q-11 -42.5 -11 -79.5 q0 -37 11 -57 q10 -17 26 -17 q15 0 25 12 q19 19 29 61 q10 42 10 79 q0 35 -11 56 q-8 17 -26 17 Z" /><glyph glyph-name="afii10081" unicode="&#x43f;" d="M417 0 l-172 0 l40 327 l-62 0 l-40 -327 l-172 0 l57 467 l406 0 l-57 -467 Z" /><glyph glyph-name="afii10082" unicode="&#x440;" d="M241 467 l-12 -66 q49 76 115 76 q46 0 75 -32 q29 -32 38.5 -71.5 q9.5 -39.5 9.5 -84.5 q0 -67 -15 -122 q-18 -70 -60 -123.5 q-42 -53.5 -105 -53.5 q-63 0 -99 73 q0 -25 -6 -77 l-25 -201 l-171 0 l85 682 l170 0 ZM290 272 q0 62 -31 62 q-15 0 -26.5 -16 q-11.5 -16 -17 -40.5 q-5.5 -24.5 -8 -44.5 q-2.5 -20 -2.5 -35 q0 -62 29 -62 q28 0 42 48.5 q14 48.5 14 87.5 Z" /><glyph glyph-name="afii10083" unicode="&#x441;" d="M309 475 l-19 -152 q-41 -3 -64 -30 q-23 -27 -23 -68 q0 -28 14.5 -50.5 q14.5 -22.5 40.5 -22.5 l11 0 l-19 -159 q-22 -3 -46 -3 q-88 0 -133.5 60 q-45.5 60 -45.5 150 q0 109 71.5 193 q71.5 84 178.5 84 q12 0 34 -2 Z" /><glyph glyph-name="afii10084" unicode="&#x442;" d="M398 467 l-17 -140 l-94 0 l-41 -327 l-170 0 l40 327 l-90 0 l17 140 l355 0 Z" /><glyph glyph-name="afii10085" unicode="&#x443;" d="M487 467 l-301 -682 l-176 0 l110 234 l-82 448 l172 0 q2 -18 7 -57 q5 -39 7.5 -61.5 q2.5 -22.5 5 -55.5 q2.5 -33 2.5 -61 q0 -5 -0.5 -15 q-0.5 -10 -0.5 -15 q36 133 48 164 l38 101 l170 0 Z" /><glyph glyph-name="afii10086" unicode="&#x444;" d="M179 -215 l27 208 q-72 3 -125 56 q-57 59 -57 162 q0 121 74 193 q65 63 167 70 l25 193 l170 0 l-25 -193 q74 -13 125 -65 q57 -61 57 -154 q0 -127 -73 -198 q-66 -64 -168 -64 l-27 -208 l-170 0 ZM403 334 l-25 -201 q35 1 56 22 q33 32 33 94 q0 38 -17 60 q-15 20 -47 25 ZM238 133 l25 201 q-32 -2 -54 -22 q-34 -31 -34 -96 q0 -40 18 -62 q16 -21 45 -21 Z" /><glyph glyph-name="afii10087" unicode="&#x445;" d="M491 467 l-163 -223 l119 -244 l-198 0 q-17 62 -25 110 q-20 -45 -61 -110 l-191 0 l169 240 l-104 227 l195 0 q18 -88 20 -101 q8 20 26 54 q18 34 24 47 l189 0 Z" /><glyph glyph-name="afii10088" unicode="&#x446;" d="M304 467 l172 0 l-40 -327 l61 0 l-31 -255 l-142 0 l14 115 l-327 0 l57 467 l172 0 l-40 -327 l64 0 l40 327 Z" /><glyph glyph-name="afii10089" unicode="&#x447;" d="M237 0 l20 161 q-34 -10 -71 -10 q-73 0 -112 37 q-34 34 -34 91 q0 27 5 65 l15 123 l170 0 l-15 -122 q-2 -14 -2 -26 q0 -16 9 -23 q8 -7 24 -7 q15 0 27 8 l21 170 l172 0 l-57 -467 l-172 0 Z" /><glyph glyph-name="afii10090" unicode="&#x448;" d="M302 467 l168 0 l-40 -327 l66 0 l40 327 l168 0 l-57 -467 l-636 0 l57 467 l168 0 l-40 -327 l66 0 l40 327 Z" /><glyph glyph-name="afii10091" unicode="&#x449;" d="M302 467 l168 0 l-40 -327 l66 0 l40 327 l168 0 l-40 -327 l67 0 l-31 -255 l-142 0 l14 115 l-561 0 l57 467 l168 0 l-40 -327 l66 0 l40 327 Z" /><glyph glyph-name="afii10092" unicode="&#x44a;" d="M279 301 l53 0 q87 0 131 -36 q43 -36 43 -100 q0 -75 -45 -119 q-48 -46 -139 -46 l-252 0 l40 327 l-80 0 l17 140 l252 0 l-20 -166 ZM256 110 l5 0 q36 0 50 7 q21 11 21 38 q0 14 -9 24 q-13 14 -51 14 l-6 0 l-10 -83 Z" /><glyph glyph-name="afii10093" unicode="&#x44b;" d="M626 0 l-172 0 l57 467 l172 0 l-57 -467 ZM219 301 l49 0 q87 0 131 -36 q43 -36 43 -100 q0 -75 -45 -119 q-48 -46 -139 -46 l-248 0 l57 467 l172 0 l-20 -166 ZM196 110 l5 0 q36 0 50 7 q21 11 21 38 q0 14 -9 24 q-13 14 -51 14 l-6 0 l-10 -83 Z" /><glyph glyph-name="afii10094" unicode="&#x44c;" d="M219 301 l53 0 q87 0 131 -36 q43 -36 43 -100 q0 -75 -45 -119 q-48 -46 -139 -46 l-252 0 l57 467 l172 0 l-20 -166 ZM196 110 l5 0 q36 0 50 7 q21 11 21 38 q0 14 -9 24 q-13 14 -51 14 l-6 0 l-10 -83 Z" /><glyph glyph-name="afii10095" unicode="&#x44d;" d="M20 22 l17 133 q29 -33 75 -33 q33 0 53 15 q22 18 27 45 l-107 0 l13 104 l103 0 q-5 30 -26 45 q-18 14 -51 14 q-37 0 -68 -23 l17 135 q46 20 95 20 q90 0 142 -54 q55 -57 55 -162 q0 -51 -17.5 -109 q-17.5 -58 -59.5 -101 q-58 -61 -152 -61 q-68 0 -116 32 Z" /><glyph glyph-name="afii10096" unicode="&#x44e;" d="M217 306 l55 0 q17 74 76 122 q60 49 144 49 q85 0 135 -48 q55 -54 55 -153 q0 -68 -22 -128 q-22 -60 -62 -99 q-62 -59 -164 -59 q-84 0 -130 49 q-47 49 -49 131 l-56 0 l-20 -170 l-168 0 l57 467 l168 0 l-19 -161 ZM480 346 q-13 0 -24 -11 q-18 -18 -29 -60.5 q-11 -42.5 -11 -79.5 q0 -37 11 -57 q10 -17 26 -17 q15 0 25 12 q19 19 29 61 q10 42 10 79 q0 35 -11 56 q-8 17 -26 17 Z" /><glyph glyph-name="afii10097" unicode="&#x44f;" d="M0 0 l104 162 q-30 11 -48 35 q-22 31 -22 76 q0 85 50 137 q34 35 79.5 46 q45.5 11 121.5 11 l183 0 l-57 -467 l-172 0 l12 102 q5 43 10 73 q-7 -18 -15.5 -36.5 q-8.5 -18.5 -9.5 -19.5 l-55 -119 l-181 0 ZM270 250 l11 95 l-9 0 q-36 0 -50 -12 q-15 -13 -15 -37 q0 -22 15 -34 q15 -12 42 -12 l6 0 Z" /><glyph glyph-name="afii10071" unicode="&#x451;" d="M266 157 l166 0 q-26 -80 -84 -123.5 q-58 -43.5 -141 -43.5 q-89 0 -136.5 51 q-47.5 51 -47.5 140 q0 116 68 205.5 q68 89.5 180 89.5 q87 0 133.5 -55.5 q46.5 -55.5 46.5 -144.5 q0 -27 -8 -79 l-250 0 q-1 -6 -1 -19 q0 -53 32 -53 q31 0 42 32 ZM207 290 l79 0 q0 2 0.5 6 q0.5 4 0.5 6 q0 47 -34 47 q-20 0 -31.5 -18 q-11.5 -18 -14.5 -41 ZM452 610 q0 -31 -24.5 -55.5 q-24.5 -24.5 -56.5 -24.5 q-27 0 -45 18.5 q-18 18.5 -18 45.5 q0 32 24 56 q24 24 56 24 q28 0 46 -18 q18 -18 18 -46 ZM262 602 q0 -8 -5 -20 q-9 -23 -30 -37.5 q-21 -14.5 -45 -14.5 q-28 0 -46 18 q-18 18 -18 46 q0 32 24.5 56 q24.5 24 56.5 24 q31 0 47 -20 q16 -20 16 -52 Z" /><glyph glyph-name="afii10099" unicode="&#x452;" d="M20 0 l64 499 l-54 0 l14 105 l53 0 l15 125 l173 0 l-16 -125 l118 0 l-14 -105 l-118 0 l-8 -74 q-7 -57 -14 -90 q15 32 40 58 q42 42 94 42 q40 0 66 -26 q33 -35 33 -104 q0 -38 -9 -98 l-27 -200 q-5 -39 -10.5 -65.5 q-5.5 -26.5 -20.5 -59.5 q-15 -33 -38 -54 q-47 -43 -127 -43 q-32 0 -74 10 l18 145 q13 -15 31 -15 q18 0 31 13 q12 15 16 49 l27 202 q4 27 4 40 q0 18 -7 26 q-6 7 -15 7 q-14 0 -25 -11 q-14 -15 -20 -50 l-27 -201 l-173 0 Z" /><glyph glyph-name="afii10100" unicode="&#x453;" d="M351 327 l-128 0 l-40 -327 l-172 0 l57 467 l300 0 l-17 -140 ZM369 678 l-105 -148 l-98 0 l65 148 l138 0 Z" /><glyph glyph-name="afii10101" unicode="&#x454;" d="M343 140 l-17 -133 q-46 -17 -101 -17 q-90 0 -140 48 q-60 58 -60 167 q0 125 78 205 q66 67 171 67 q60 0 106 -24 l-16 -132 q-35 26 -74 26 q-32 0 -53 -15 q-23 -15 -32 -44 l105 0 l-13 -106 l-105 0 q4 -27 23 -44 q21 -18 58 -18 q39 0 70 20 Z" /><glyph glyph-name="afii10102" unicode="&#x455;" d="M390 439 l-74 -127 q-35 41 -65 41 q-11 0 -20.5 -7 q-9.5 -7 -9.5 -18 q0 -17 22 -29.5 q22 -12.5 49 -22 q27 -9.5 49 -36.5 q22 -27 22 -69 q0 -79 -61.5 -130 q-61.5 -51 -142.5 -51 q-45 0 -79.5 11.5 q-34.5 11.5 -79.5 37.5 l78 129 q38 -49 79 -49 q14 0 25 7 q11 7 11 20 q0 10 -8 17.5 q-8 7.5 -13 9.5 q-5 2 -19 7 q-49 19 -76.5 46 q-27.5 27 -27.5 73 q0 79 64 128.5 q64 49.5 145 49.5 q66 0 132 -38 Z" /><glyph glyph-name="afii10103" unicode="&#x456;" d="M273 624 q0 -44 -34.5 -78.5 q-34.5 -34.5 -78.5 -34.5 q-37 0 -62.5 25.5 q-25.5 25.5 -25.5 63.5 q0 45 34 79 q34 34 79 34 q38 0 63 -25.5 q25 -25.5 25 -63.5 ZM239 467 l-57 -467 l-171 0 l58 467 l170 0 Z" /><glyph glyph-name="afii10104" unicode="&#x457;" d="M239 467 l-57 -467 l-171 0 l58 467 l170 0 ZM245 693 q15 0 26 -13 q17 -18 17 -52 q0 -47 -27 -76 q-16 -18 -35 -18 q-15 0 -27 12 q-17 19 -17 55 q0 47 30 77 q15 15 33 15 ZM117 693 q16 0 27 -13 q16 -17 16 -52 q0 -48 -26 -76 q-16 -18 -35 -18 q-16 0 -28 12 q-18 18 -18 55 q0 50 30 77 q17 15 34 15 Z" /><glyph glyph-name="afii10105" unicode="&#x458;" d="M274 624 l0 -10 q0 -10 -8 -29 q-12 -32 -41.5 -53 q-29.5 -21 -62.5 -21 q-38 0 -63 25.5 q-25 25.5 -25 63.5 q0 45 33.5 79 q33.5 34 78.5 34 q39 0 63.5 -25 q24.5 -25 24.5 -64 ZM242 467 l-85 -682 l-170 0 l83 682 l172 0 Z" /><glyph glyph-name="afii10106" unicode="&#x459;" d="M472 301 l53 0 q87 0 131 -36 q43 -36 43 -100 q0 -75 -45 -119 q-48 -46 -139 -46 l-248 0 l40 327 l-60 0 l-13 -104 q-18 -145 -72 -196 q-41 -38 -115 -38 q-35 0 -67 10 l17 139 q10 -7 24 -7 q20 0 32 10 q22 17 31 90 l29 236 l379 0 l-20 -166 ZM449 110 l5 0 q36 0 50 7 q21 11 21 38 q0 14 -9 24 q-13 14 -51 14 l-6 0 l-10 -83 Z" /><glyph glyph-name="afii10107" unicode="&#x45a;" d="M457 301 l53 0 q87 0 131 -36 q43 -36 43 -100 q0 -75 -45 -119 q-48 -46 -139 -46 l-252 0 l24 193 l-65 0 l-24 -193 l-172 0 l57 467 l172 0 l-19 -166 l64 0 l20 166 l172 0 l-20 -166 ZM434 110 l5 0 q36 0 50 7 q21 11 21 38 q0 14 -9 24 q-13 14 -51 14 l-6 0 l-10 -83 Z" /><glyph glyph-name="afii10108" unicode="&#x45b;" d="M20 0 l61 499 l-54 0 l14 105 l53 0 l15 125 l173 0 l-15 -125 l118 0 l-14 -105 l-118 0 l-8 -73 q-7 -50 -16 -90 q53 99 134 99 q47 0 73.5 -33.5 q26.5 -33.5 26.5 -82.5 q0 -22 -3 -43 l-35 -276 l-171 0 l27 207 q2 16 2 24 q0 31 -23 31 q-36 0 -44 -69 l-25 -193 l-171 0 Z" /><glyph glyph-name="afii10109" unicode="&#x45c;" d="M456 0 l-190 0 l-24 80 q-24 81 -34 123 l-25 -203 l-172 0 l57 467 l172 0 l-27 -221 q31 77 70 147 l40 74 l182 0 l-139 -234 l90 -233 ZM437 678 l-105 -148 l-98 0 l65 148 l138 0 Z" /><glyph glyph-name="afii10110" unicode="&#x45e;" d="M487 467 l-301 -682 l-176 0 l110 234 l-82 448 l172 0 q2 -18 7 -57 q5 -39 7.5 -61.5 q2.5 -22.5 5 -55.5 q2.5 -33 2.5 -61 q0 -5 -0.5 -15 q-0.5 -10 -0.5 -15 q36 133 48 164 l38 101 l170 0 ZM332 677 l111 -26 q-19 -67 -72 -102 q-39 -25 -100 -25 q-65 0 -103 27 q-50 34 -60 100 l118 26 q-2 -27 12 -42 q12 -13 34 -13 q25 0 38 13 q16 14 22 42 Z" /><glyph glyph-name="afii10193" unicode="&#x45f;" d="M304 467 l172 0 l-57 -467 l-133 0 l-14 -115 l-142 0 l14 115 l-133 0 l57 467 l172 0 l-40 -327 l64 0 l40 327 Z" /><glyph glyph-name="afii10146" unicode="&#x462;" d="M262 0 l-203 0 l61 489 l-85 0 l17 130 l84 0 l10 85 l177 0 l-11 -85 l104 0 l-16 -130 l-104 0 l-8 -73 l9 0 q120 0 174 -53 q52 -52 52 -129 q0 -50 -18.5 -96.5 q-18.5 -46.5 -51.5 -77.5 q-65 -60 -191 -60 ZM270 278 l-16 -133 q4 -1 12 -1 q38 0 61 25 q18 18 18 51 q0 30 -20 46 q-16 12 -55 12 Z" /><glyph glyph-name="afii10194" unicode="&#x463;" d="M257 343 l-5 -46 l52 0 q87 0 131 -36 q43 -36 43 -100 q0 -71 -44 -115 q-48 -46 -139 -46 l-252 0 l42 343 l-60 0 l15 124 l60 0 l25 200 l172 0 l-25 -200 l97 0 l-15 -124 l-97 0 ZM229 110 l5 0 q36 0 50 7 q21 11 21 38 q0 14 -9 24 q-13 14 -51 14 l-6 0 l-10 -83 Z" /><glyph glyph-name="afii10147" unicode="&#x472;" d="M337 679 q86 0 140 -57 q69 -72 69 -208 q0 -96 -30.5 -195 q-30.5 -99 -94.5 -161 q-71 -70 -167 -70 q-87 0 -146 62 q-70 72 -70 213 q0 116 34.5 203 q34.5 87 88.5 139 q75 74 176 74 ZM240 407 l122 0 q3 25 -2.5 55.5 q-5.5 30.5 -19.5 43.5 q-9 9 -25 9 q-17 0 -35 -19 q-29 -32 -40 -89 ZM348 276 l-126 0 q0 -90 23 -113 q10 -10 25 -10 q16 0 32 14 q16 16 29 47 q13 31 17 62 Z" /><glyph glyph-name="afii10195" unicode="&#x473;" d="M270 477 q82 0 131 -47 q55 -53 55 -152 q0 -66 -22 -126.5 q-22 -60.5 -62 -99.5 q-64 -62 -164 -62 q-79 0 -127 44 q-57 52 -57 156 q0 137 85 222 q67 65 161 65 ZM201 291 l92 0 q-2 31 -10 45 q-10 18 -30 18 q-14 0 -25 -10 q-19 -16 -27 -53 ZM282 185 l-94 0 q0 -37 11 -55 q10 -17 28 -17 q15 0 28 11 q22 22 27 61 Z" /><glyph glyph-name="afii10148" unicode="&#x474;" d="M564 667 l-261 -667 l-181 0 l-68 667 l186 0 q12 -250 12 -312 q0 -41 -4 -123 q9 42 19 84 q10 42 25.5 96 q15.5 54 23 78 q7.5 24 30 95 q22.5 71 25.5 82 l193 0 Z" /><glyph glyph-name="afii10196" unicode="&#x475;" d="M468 467 l-191 -467 l-178 0 l-70 467 l173 0 q12 -161 12 -202 q0 -31 -2 -93 q17 70 88 295 l168 0 Z" /><glyph glyph-name="afii10050" unicode="&#x490;" d="M100 667 l216 0 l17 142 l156 0 l-36 -299 l-195 0 l-63 -510 l-177 0 l82 667 Z" /><glyph glyph-name="afii10098" unicode="&#x491;" d="M68 467 l200 0 l18 140 l142 0 l-35 -280 l-170 0 l-40 -327 l-172 0 l57 467 Z" /><glyph glyph-name="uni0492" unicode="&#x492;" d="M417 510 l-138 0 l-12 -97 l128 0 l-19 -151 l-128 0 l-32 -262 l-177 0 l32 262 l-66 0 l19 151 l66 0 l31 254 l315 0 l-19 -157 Z" /><glyph glyph-name="uni0493" unicode="&#x493;" d="M392 467 l-17 -140 l-128 0 l-7 -62 l100 0 l-18 -140 l-100 0 l-15 -125 l-172 0 l15 125 l-50 0 l18 140 l50 0 l24 202 l300 0 Z" /><glyph glyph-name="uni0494" unicode="&#x494;" d="M426 667 l-19 -157 l-149 0 l-9 -68 q-7 -45 -13 -64 q55 33 109 33 q71 0 113 -53 q40 -50 40 -133 q0 -61 -19.5 -114.5 q-19.5 -53.5 -51.5 -83.5 q-45 -43 -123 -43 q-39 0 -74 14 l31 142 q10 -9 24 -9 q13 0 24 14 q13 17 13 54 q0 29 -12 43 q-12 15 -30 15 q-20 0 -56 -17 l-29 -240 l-177 0 l82 667 l326 0 Z" /><glyph glyph-name="uni0495" unicode="&#x495;" d="M359 327 l-136 0 l-9 -72 l15 0 q101 0 152 -52 q53 -54 53 -152 q0 -121 -74 -193 q-71 -68 -200 -73 l16 136 q32 2 53 20 q38 32 38 105 q0 53 -22 73 q-17 16 -45 16 l-17 -135 l-172 0 l57 467 l308 0 l-17 -140 Z" /><glyph glyph-name="uni0496" unicode="&#x496;" d="M64 667 l180 0 l69 -300 l31 300 l170 0 l-42 -300 l142 300 l178 0 l-176 -324 l49 -180 l72 0 l-37 -292 l-156 0 l17 129 l-34 0 l-61 321 l-34 -321 l-170 0 l45 321 l-140 -321 l-182 0 l177 349 l-98 318 Z" /><glyph glyph-name="uni0497" unicode="&#x497;" d="M49 467 l178 0 l30 -104 q17 -60 26 -118 l27 222 l168 0 l-27 -222 q18 44 56 118 l54 104 l180 0 l-137 -228 l30 -99 l63 0 l-31 -255 l-142 0 l14 115 l-36 0 l-27 96 q-22 75 -27 120 l-27 -216 l-168 0 l27 216 q-29 -70 -55 -120 l-50 -96 l-192 0 l145 239 l-79 228 Z" /><glyph glyph-name="uni0498" unicode="&#x498;" d="M70 453 l24 190 q62 36 139 36 q107 0 163 -58 q46 -47 46 -123 q0 -73 -40 -114 q-37 -37 -96 -45 q52 0 86 -34 q34 -34 34 -98 q0 -82 -47 -141 q-45 -55 -111 -66 l-16 -130 l-160 0 l16 128 q-47 10 -88 33 l25 201 q21 -36 49 -57 q30 -23 69 -23 q35 0 53 17 q17 15 17 42 q0 27 -24 43 q-19 12 -58 12 l-26 0 l17 148 l24 0 q44 0 65 11 q26 14 26 42 q0 21 -18 35 q-19 15 -55 15 q-32 0 -61 -18 q-23 -14 -53 -46 Z" /><glyph glyph-name="uni0499" unicode="&#x499;" d="M108 303 l-55 127 q41 21 74 32 q48 15 101 15 q99 0 147 -48 q34 -34 34 -85 q0 -48 -29 -75 q-28 -27 -74 -30 q40 -3 67 -28 q26 -24 26 -66 q0 -64 -43 -105 q-38 -36 -92 -41 l-14 -114 l-142 0 l14 112 q-50 12 -112 56 l82 121 q12 -23 37 -38 q22 -14 49 -14 q16 0 32 8 q12 8 12 23 q0 19 -20 26 q-15 5 -49 5 l-20 0 l13 109 l30 0 q26 0 41 4 q22 7 22 25 q0 12 -13 20 q-11 7 -33 7 q-25 0 -46 -12 q-12 -7 -39 -34 Z" /><glyph glyph-name="uni049A" unicode="&#x49a;" d="M564 667 l-181 -322 l62 -182 l77 0 l-37 -292 l-156 0 l17 129 l-37 0 l-79 319 l-35 -319 l-177 0 l82 667 l177 0 l-40 -298 l140 298 l187 0 Z" /><glyph glyph-name="uni049B" unicode="&#x49b;" d="M68 467 l172 0 l-27 -221 q31 77 70 147 l40 74 l187 0 l-141 -229 l35 -98 l65 0 l-31 -255 l-142 0 l14 115 l-42 0 l-26 80 q-17 50 -34 123 l-25 -203 l-172 0 l57 467 Z" /><glyph glyph-name="uni049C" unicode="&#x49c;" d="M231 293 l-36 -293 l-177 0 l82 667 l177 0 l-34 -274 l43 0 l19 150 l87 0 l-21 -168 l137 292 l186 0 l-175 -322 l95 -345 l-190 0 l-60 317 l-19 -158 l-87 0 l16 134 l-43 0 Z" /><glyph glyph-name="uni049D" unicode="&#x49d;" d="M205 181 l-22 -181 l-172 0 l57 467 l172 0 l-22 -186 l33 0 l11 95 l72 0 l-15 -123 q23 69 62 140 l40 74 l178 0 l-137 -231 l86 -236 l-184 0 l-24 80 q-18 56 -28 116 l-14 -118 l-72 0 l12 103 l-33 0 Z" /><glyph glyph-name="uni04A0" unicode="&#x4a0;" d="M654 667 l-181 -322 l117 -345 l-191 0 l-79 319 l-35 -319 l-177 0 l62 510 l-130 0 l19 157 l308 0 l-40 -298 l140 298 l187 0 Z" /><glyph glyph-name="uni04A1" unicode="&#x4a1;" d="M544 0 l-199 0 l-24 80 q-24 81 -34 123 l-25 -203 l-172 0 l40 327 l-110 0 l17 140 l282 0 l-27 -221 q31 77 70 147 l40 74 l187 0 l-141 -231 l96 -236 Z" /><glyph glyph-name="uni04A2" unicode="&#x4a2;" d="M539 667 l-63 -504 l70 0 l-38 -292 l-160 0 l18 129 l-86 0 l33 268 l-85 0 l-33 -268 l-177 0 l82 667 l177 0 l-29 -236 l85 0 l29 236 l177 0 Z" /><glyph glyph-name="uni04A3" unicode="&#x4a3;" d="M240 467 l-19 -159 l64 0 l19 159 l172 0 l-40 -327 l61 0 l-31 -255 l-142 0 l14 115 l-91 0 l21 168 l-64 0 l-21 -168 l-172 0 l57 467 l172 0 Z" /><glyph glyph-name="uni04A4" unicode="&#x4a4;" d="M100 667 l177 0 l-29 -236 l85 0 l29 236 l298 0 l-19 -157 l-121 0 l-63 -510 l-177 0 l33 268 l-85 0 l-33 -268 l-177 0 l82 667 Z" /><glyph glyph-name="uni04A5" unicode="&#x4a5;" d="M240 467 l-19 -159 l64 0 l19 159 l276 0 l-17 -140 l-104 0 l-40 -327 l-172 0 l21 168 l-64 0 l-21 -168 l-172 0 l57 467 l172 0 Z" /><glyph glyph-name="uni04AA" unicode="&#x4aa;" d="M461 662 l-23 -190 q-35 40 -77 40 q-50 0 -83.5 -39.5 q-33.5 -39.5 -45 -87 q-11.5 -47.5 -11.5 -96.5 q0 -55 22 -91 q22 -36 73 -36 q47 0 97 43 l-34 -193 q-28 -12 -38 -14 l-29 -137 l-160 0 l30 142 q-71 27 -107.5 97 q-36.5 70 -36.5 160 q0 77 21 150 q21 73 61 134 q40 61 106 98 q66 37 147 37 q48 0 88 -17 Z" /><glyph glyph-name="uni04AB" unicode="&#x4ab;" d="M279 152 l-20 -159 l-20 -3 l-13 -105 l-136 0 l16 127 q-39 28 -58 67 q-23 49 -23 112 q0 131 79 214 q68 72 172 72 q7 0 23.5 -1 q16.5 -1 18.5 -1 l-18 -152 q-39 0 -64 -23 q-29 -26 -29 -72 q0 -39 20 -59 q17 -17 47 -17 l5 0 Z" /><glyph glyph-name="uni04AE" unicode="&#x4ae;" d="M547 667 l-200 -385 l-35 -282 l-177 0 l35 282 l-116 385 l185 0 q30 -146 37 -206 q21 56 87 206 l184 0 Z" /><glyph glyph-name="uni04AF" unicode="&#x4af;" d="M25 467 l176 0 l12 -115 q10 -88 10 -158 q29 106 48 160 l39 113 l183 0 l-204 -448 l-28 -234 l-171 0 l27 234 l-92 448 Z" /><glyph glyph-name="uni04B0" unicode="&#x4b0;" d="M547 667 l-197 -367 l-3 -26 l118 0 l-18 -143 l-118 0 l-17 -131 l-177 0 l17 131 l-118 0 l18 143 l118 0 l3 26 l-119 367 l185 0 q30 -146 37 -206 q21 56 87 206 l184 0 Z" /><glyph glyph-name="uni04B1" unicode="&#x4b1;" d="M32 467 l176 0 l13 -110 q10 -90 11 -155 q16 69 47 157 l38 108 l183 0 l-197 -397 l-3 -18 l106 0 l-13 -105 l-106 0 l-19 -162 l-172 0 l19 162 l-105 0 l13 105 l105 0 l3 18 l-99 397 Z" /><glyph glyph-name="uni04B2" unicode="&#x4b2;" d="M552 667 l-190 -321 l61 -183 l70 0 l-36 -292 l-156 0 l16 129 l-33 0 q-6 23 -14.5 66.5 q-8.5 43.5 -11.5 57.5 q-8 35 -10 55 q-25 -61 -83 -179 l-193 0 l202 346 l-111 321 l197 0 q12 -66 22 -110 q1 -5 2.5 -15 q1.5 -10 3 -18 q1.5 -8 3.5 -15 q14 45 62 158 l199 0 Z" /><glyph glyph-name="uni04B3" unicode="&#x4b3;" d="M491 467 l-163 -223 l50 -104 l65 0 l-31 -255 l-142 0 l14 115 l-31 0 q-19 49 -29 110 q-20 -45 -61 -110 l-191 0 l169 240 l-104 227 l195 0 q18 -88 20 -101 q8 20 26 54 q18 34 24 47 l189 0 Z" /><glyph glyph-name="uni04B6" unicode="&#x4b6;" d="M356 0 l-86 0 l33 269 q-39 -11 -79 -11 q-71 0 -113 33 q-51 40 -51 112 q0 29 6 74 l24 190 l176 0 l-22 -178 q-3 -21 -3 -30 q0 -21 13 -32 q12 -11 35 -11 q18 0 33 7 l30 244 l177 0 l-63 -504 l70 0 l-36 -292 l-160 0 l16 129 Z" /><glyph glyph-name="uni04B7" unicode="&#x4b7;" d="M326 0 l-89 0 l20 161 q-34 -10 -71 -10 q-73 0 -112 37 q-34 34 -34 91 q0 27 5 65 l15 123 l170 0 l-15 -122 q-2 -14 -2 -26 q0 -16 9 -23 q8 -7 24 -7 q15 0 27 8 l21 170 l172 0 l-41 -327 l60 0 l-31 -255 l-142 0 l14 115 Z" /><glyph glyph-name="uni04B8" unicode="&#x4b8;" d="M344 0 l33 267 q-17 -6 -40 -9 l-14 -119 l-83 0 l15 119 q-41 -2 -84 9.5 q-43 11.5 -69 36.5 q-42 40 -42 103 q0 25 6 70 l24 190 l172 0 l-22 -178 q-3 -23 -3 -38 q0 -20 12 -29 q11 -7 25 -7 l17 136 l83 0 l-17 -138 q19 1 39 9 l30 245 l177 0 l-82 -667 l-177 0 Z" /><glyph glyph-name="uni04B9" unicode="&#x4b9;" d="M304 0 l20 165 q-16 -7 -34 -9 l-10 -86 l-72 0 l9 80 l-7 0 q-92 0 -134 38 q-36 32 -36 89 q0 29 5 67 l15 123 l161 0 l-14 -117 q-3 -27 -3 -31 q0 -21 10 -29 q9 -7 20 -7 l12 103 l72 0 l-12 -102 q20 2 34 10 l21 173 l172 0 l-57 -467 l-172 0 Z" /><glyph glyph-name="uni04BA" unicode="&#x4ba;" d="M277 667 l-31 -251 q41 15 90 15 q73 0 114 -40 q40 -39 40 -106 q0 -17 -7 -76 l-26 -209 l-176 0 l22 174 q5 45 5 50 q0 24 -10 35 q-10 12 -31 12 q-20 0 -40 -11 l-32 -260 l-177 0 l82 667 l177 0 Z" /><glyph glyph-name="uni04BB" unicode="&#x4bb;" d="M272 729 l-32 -261 q-7 -50 -16 -90 q53 99 134 99 q47 0 73.5 -33.5 q26.5 -33.5 26.5 -82.5 q0 -22 -3 -43 l-39 -318 l-171 0 l31 247 q2 18 2 26 q0 31 -23 31 q-36 0 -44 -69 l-29 -235 l-171 0 l90 729 l171 0 Z" /><glyph glyph-name="uni04C0" unicode="&#x4c0;" d="M265 667 l-83 -667 l-171 0 l83 667 l171 0 Z" /><glyph glyph-name="uni04C1" unicode="&#x4c1;" d="M709 0 l-182 0 l-61 321 l-34 -321 l-170 0 l45 321 l-140 -321 l-182 0 l177 349 l-98 318 l180 0 l69 -300 l31 300 l170 0 l-42 -300 l142 300 l178 0 l-176 -324 l93 -343 ZM502 874 l125 -37 q-17 -67 -72 -99 q-45 -27 -121 -27 q-75 0 -118 26 q-56 34 -73 99 l127 38 q4 -26 20 -41 q17 -15 47 -15 q30 0 47 17 q14 16 18 39 Z" /><glyph glyph-name="uni04C2" unicode="&#x4c2;" d="M686 0 l-187 0 l-26 96 q-18 67 -25 120 l-27 -216 l-168 0 l27 216 q-29 -70 -55 -120 l-50 -96 l-192 0 l145 239 l-79 228 l178 0 l30 -104 q17 -60 26 -118 l27 222 l168 0 l-27 -222 q18 44 56 118 l54 104 l180 0 l-137 -228 l82 -239 ZM451 677 l111 -26 q-19 -67 -72 -102 q-39 -25 -100 -25 q-65 0 -103 27 q-50 34 -60 100 l118 26 q-2 -27 12 -42 q12 -13 34 -13 q25 0 38 13 q16 14 22 42 Z" /><glyph glyph-name="uni04C3" unicode="&#x4c3;" d="M100 667 l177 0 l-40 -286 l141 286 l190 0 l-161 -278 q52 -12 82 -57 q31 -47 31 -136 q0 -63 -11 -129 q-20 -130 -72 -182 q-45 -45 -134 -45 q-50 0 -86 14 l29 142 q13 -10 31 -10 q17 0 26 9 q23 20 30 110 q7 80 7 93 q0 36 -17 52 q-14 14 -37 14 q-30 0 -64 -20 l-27 -244 l-177 0 l82 667 Z" /><glyph glyph-name="uni04C4" unicode="&#x4c4;" d="M68 467 l172 0 l-27 -221 q31 77 70 147 l40 74 l187 0 l-145 -237 q44 -15 67 -53 q25 -40 25 -106 q0 -56 -19 -115 q-19 -59 -57 -97 q-69 -70 -211 -74 l17 136 q32 0 53 20 q38 37 38 115 q0 44 -20 63 q-16 15 -59 15 l-16 -134 l-172 0 l57 467 Z" /><glyph glyph-name="uni04C7" unicode="&#x4c7;" d="M363 667 l177 0 l-87 -710 q-12 -96 -57 -135 q-41 -37 -126 -37 q-42 0 -81 12 l17 139 q13 -12 30 -12 q18 0 28 12 q10 11 16 58 l34 274 l-86 0 l-33 -268 l-177 0 l82 667 l177 0 l-29 -236 l86 0 l29 236 Z" /><glyph glyph-name="uni04C8" unicode="&#x4c8;" d="M240 467 l-19 -159 l64 0 l19 159 l172 0 l-55 -460 q-15 -130 -69 -179 q-47 -43 -127 -43 q-32 0 -74 10 l18 145 q13 -15 31 -15 q18 0 31 13 q11 13 15 50 l22 180 l-64 0 l-21 -168 l-172 0 l57 467 l172 0 Z" /><glyph glyph-name="uni04D0" unicode="&#x4d0;" d="M491 0 l-183 0 l-3 85 l-119 0 l-25 -85 l-184 0 l240 667 l217 0 l57 -667 ZM300 305 l0 87 q0 1 3 115 q-3 -11 -10.5 -43.5 q-7.5 -32.5 -12.5 -50.5 q-6 -21 -24 -86 q-18 -65 -29 -100 l75 0 q-2 52 -2 78 ZM397 874 l125 -37 q-17 -67 -72 -99 q-45 -27 -121 -27 q-75 0 -118 26 q-56 34 -73 99 l127 38 q4 -26 20 -41 q17 -15 47 -15 q30 0 47 17 q14 16 18 39 Z" /><glyph glyph-name="uni04D1" unicode="&#x4d1;" d="M479 467 l-57 -467 l-171 0 q3 13 8 39.5 q5 26.5 7 39.5 q-53 -89 -130 -89 q-33 0 -56.5 17 q-23.5 17 -35 45 q-11.5 28 -16.5 56 q-5 28 -5 59 q0 69 14 128 q8 33 21 63 q13 30 32.5 58 q19.5 28 48.5 44.5 q29 16.5 63 16.5 q40 0 62 -21.5 q22 -21.5 37 -62.5 q0 12 1.5 36.5 q1.5 24.5 2.5 37.5 l174 0 ZM269 187.5 q13 54.5 13 100.5 q0 46 -28 46 q-31 0 -45 -51 q-14 -51 -14 -95 q0 -55 31 -55 q30 0 43 54.5 ZM355 677 l111 -26 q-19 -67 -72 -102 q-39 -25 -100 -25 q-65 0 -103 27 q-50 34 -60 100 l118 26 q-2 -27 12 -42 q12 -13 34 -13 q25 0 38 13 q16 14 22 42 Z" /><glyph glyph-name="uni04D2" unicode="&#x4d2;" d="M491 0 l-183 0 l-3 85 l-119 0 l-25 -85 l-184 0 l240 667 l217 0 l57 -667 ZM300 305 l0 87 q0 1 3 115 q-3 -11 -10.5 -43.5 q-7.5 -32.5 -12.5 -50.5 q-6 -21 -24 -86 q-18 -65 -29 -100 l75 0 q-2 52 -2 78 ZM493 800 q0 -31 -24.5 -55.5 q-24.5 -24.5 -56.5 -24.5 q-27 0 -45 18.5 q-18 18.5 -18 45.5 q0 32 24 56 q24 24 56 24 q28 0 46 -18 q18 -18 18 -46 ZM303 792 q0 -8 -5 -20 q-9 -23 -30 -37.5 q-21 -14.5 -45 -14.5 q-28 0 -46 18 q-18 18 -18 46 q0 32 24.5 56 q24.5 24 56.5 24 q31 0 47 -20 q16 -20 16 -52 Z" /><glyph glyph-name="uni04D3" unicode="&#x4d3;" d="M479 467 l-57 -467 l-171 0 q3 13 8 39.5 q5 26.5 7 39.5 q-53 -89 -130 -89 q-33 0 -56.5 17 q-23.5 17 -35 45 q-11.5 28 -16.5 56 q-5 28 -5 59 q0 69 14 128 q8 33 21 63 q13 30 32.5 58 q19.5 28 48.5 44.5 q29 16.5 63 16.5 q40 0 62 -21.5 q22 -21.5 37 -62.5 q0 12 1.5 36.5 q1.5 24.5 2.5 37.5 l174 0 ZM269 187.5 q13 54.5 13 100.5 q0 46 -28 46 q-31 0 -45 -51 q-14 -51 -14 -95 q0 -55 31 -55 q30 0 43 54.5 ZM473 610 q0 -31 -24.5 -55.5 q-24.5 -24.5 -56.5 -24.5 q-27 0 -45 18.5 q-18 18.5 -18 45.5 q0 32 24 56 q24 24 56 24 q28 0 46 -18 q18 -18 18 -46 ZM283 602 q0 -8 -5 -20 q-9 -23 -30 -37.5 q-21 -14.5 -45 -14.5 q-28 0 -46 18 q-18 18 -18 46 q0 32 24.5 56 q24.5 24 56.5 24 q31 0 47 -20 q16 -20 16 -52 Z" /><glyph glyph-name="uni04D4" unicode="&#x4d4;" d="M630 667 l-19 -157 l-177 0 l3 -97 l148 0 l-18 -151 l-122 0 l4 -102 l119 0 l-20 -160 l-252 0 l-2 85 l-114 0 l-24 -85 l-184 0 l234 667 l424 0 ZM219 223 l74 0 q-2 122 -2 184 q0 33 2 99 q-17 -77 -74 -283 Z" /><glyph glyph-name="uni04D5" unicode="&#x4d5;" d="M88 321 l17 135 q80 21 140 21 q87 0 135 -46 q68 46 138 46 q88 0 135.5 -56 q47.5 -56 47.5 -145 q0 -26 -8 -78 l-252 0 q0 -3 -0.5 -9 q-0.5 -6 -0.5 -9 q0 -62 37 -62 q27 0 43 35 l161 -3 q-17 -44 -36.5 -73 q-19.5 -29 -53.5 -51 q-56 -36 -135 -36 q-77 0 -130 48 q-74 -48 -154 -48 q-66 0 -111 38 q-45 38 -45 103 q0 79 53 124.5 q53 45.5 133 45.5 q39 0 86 -10 q-1 57 -83 57 q-60 0 -117 -27 ZM453 291 l86 0 q0 65 -36 65 q-36 0 -50 -65 ZM273 156 q0 17 -11.5 26 q-11.5 9 -29.5 9 q-20 0 -35 -13.5 q-15 -13.5 -15 -33.5 q0 -35 41 -35 q22 0 36 13 q14 13 14 34 Z" /><glyph glyph-name="uni04D6" unicode="&#x4d6;" d="M430 667 l-20 -157 l-152 0 l-12 -97 l137 0 l-19 -151 l-136 0 l-13 -102 l152 0 l-19 -160 l-330 0 l82 667 l330 0 ZM342 874 l125 -37 q-17 -67 -72 -99 q-45 -27 -121 -27 q-75 0 -118 26 q-56 34 -73 99 l127 38 q4 -26 20 -41 q17 -15 47 -15 q30 0 47 17 q14 16 18 39 Z" /><glyph glyph-name="uni04D7" unicode="&#x4d7;" d="M266 157 l166 0 q-26 -80 -84 -123.5 q-58 -43.5 -141 -43.5 q-89 0 -136.5 51 q-47.5 51 -47.5 140 q0 116 68 205.5 q68 89.5 180 89.5 q87 0 133.5 -55.5 q46.5 -55.5 46.5 -144.5 q0 -27 -8 -79 l-250 0 q-1 -6 -1 -19 q0 -53 32 -53 q31 0 42 32 ZM207 290 l79 0 q0 2 0.5 6 q0.5 4 0.5 6 q0 47 -34 47 q-20 0 -31.5 -18 q-11.5 -18 -14.5 -41 ZM335 677 l111 -26 q-19 -67 -72 -102 q-39 -25 -100 -25 q-65 0 -103 27 q-50 34 -60 100 l118 26 q-2 -27 12 -42 q12 -13 34 -13 q25 0 38 13 q16 14 22 42 Z" /><glyph glyph-name="uni04D8" unicode="&#x4d8;" d="M47 385 l310 0 q2 88 -18 115 q-14 18 -38 18 q-24 0 -38 -14 q-19 -17 -30 -54 l-168 55 q37 80 99 126 q66 48 151 48 q97 0 158 -61 q69 -71 69 -208 q0 -97 -30.5 -195 q-30.5 -98 -94.5 -161 q-38 -38 -76.5 -52 q-38.5 -14 -92.5 -14 q-90 0 -140 52 q-70 72 -70 226 q0 42 6 92 l3 27 ZM341 253 l-129 0 q-6 -69 16 -91 q11 -13 34 -13 q21 0 38 15 q29 26 41 89 Z" /><glyph glyph-name="afii10846" unicode="&#x4d9;" d="M201 308 l-154 38 q27 56 78 91 q58 40 138 40 q88 0 138 -48 q57 -54 57 -155 q0 -66 -22 -126.5 q-22 -60.5 -62 -99.5 q-60 -58 -161 -58 q-87 0 -134 51 q-55 58 -55 164 q0 22 7 64 l254 0 q6 43 -11 61 q-10 11 -28 11 q-15 0 -27 -8 q-13 -9 -18 -25 ZM272 176 l-81 0 q-2 -36 11 -50 q9 -9 24 -9 q14 0 24 10 q16 16 22 49 Z" /><glyph glyph-name="uni04DA" unicode="&#x4da;" d="M47 385 l310 0 q2 88 -18 115 q-14 18 -38 18 q-24 0 -38 -14 q-19 -17 -30 -54 l-168 55 q37 80 99 126 q66 48 151 48 q97 0 158 -61 q69 -71 69 -208 q0 -97 -30.5 -195 q-30.5 -98 -94.5 -161 q-38 -38 -76.5 -52 q-38.5 -14 -92.5 -14 q-90 0 -140 52 q-70 72 -70 226 q0 42 6 92 l3 27 ZM341 253 l-129 0 q-6 -69 16 -91 q11 -13 34 -13 q21 0 38 15 q29 26 41 89 ZM490 800 q0 -31 -24.5 -55.5 q-24.5 -24.5 -56.5 -24.5 q-27 0 -45 18.5 q-18 18.5 -18 45.5 q0 32 24 56 q24 24 56 24 q28 0 46 -18 q18 -18 18 -46 ZM300 792 q0 -8 -5 -20 q-9 -23 -30 -37.5 q-21 -14.5 -45 -14.5 q-28 0 -46 18 q-18 18 -18 46 q0 32 24.5 56 q24.5 24 56.5 24 q31 0 47 -20 q16 -20 16 -52 Z" /><glyph glyph-name="uni04DB" unicode="&#x4db;" d="M201 308 l-154 38 q27 56 78 91 q58 40 138 40 q88 0 138 -48 q57 -54 57 -155 q0 -66 -22 -126.5 q-22 -60.5 -62 -99.5 q-60 -58 -161 -58 q-87 0 -134 51 q-55 58 -55 164 q0 22 7 64 l254 0 q6 43 -11 61 q-10 11 -28 11 q-15 0 -27 -8 q-13 -9 -18 -25 ZM272 176 l-81 0 q-2 -36 11 -50 q9 -9 24 -9 q14 0 24 10 q16 16 22 49 ZM438 610 q0 -31 -24.5 -55.5 q-24.5 -24.5 -56.5 -24.5 q-27 0 -45 18.5 q-18 18.5 -18 45.5 q0 32 24 56 q24 24 56 24 q28 0 46 -18 q18 -18 18 -46 ZM248 602 q0 -8 -5 -20 q-9 -23 -30 -37.5 q-21 -14.5 -45 -14.5 q-28 0 -46 18 q-18 18 -18 46 q0 32 24.5 56 q24.5 24 56.5 24 q31 0 47 -20 q16 -20 16 -52 Z" /><glyph glyph-name="uni04DC" unicode="&#x4dc;" d="M709 0 l-182 0 l-61 321 l-34 -321 l-170 0 l45 321 l-140 -321 l-182 0 l177 349 l-98 318 l180 0 l69 -300 l31 300 l170 0 l-42 -300 l142 300 l178 0 l-176 -324 l93 -343 ZM601 800 q0 -31 -24.5 -55.5 q-24.5 -24.5 -56.5 -24.5 q-27 0 -45 18.5 q-18 18.5 -18 45.5 q0 32 24 56 q24 24 56 24 q28 0 46 -18 q18 -18 18 -46 ZM411 792 q0 -8 -5 -20 q-9 -23 -30 -37.5 q-21 -14.5 -45 -14.5 q-28 0 -46 18 q-18 18 -18 46 q0 32 24.5 56 q24.5 24 56.5 24 q31 0 47 -20 q16 -20 16 -52 Z" /><glyph glyph-name="uni04DD" unicode="&#x4dd;" d="M686 0 l-187 0 l-26 96 q-18 67 -25 120 l-27 -216 l-168 0 l27 216 q-29 -70 -55 -120 l-50 -96 l-192 0 l145 239 l-79 228 l178 0 l30 -104 q17 -60 26 -118 l27 222 l168 0 l-27 -222 q18 44 56 118 l54 104 l180 0 l-137 -228 l82 -239 ZM568 610 q0 -31 -24.5 -55.5 q-24.5 -24.5 -56.5 -24.5 q-27 0 -45 18.5 q-18 18.5 -18 45.5 q0 32 24 56 q24 24 56 24 q28 0 46 -18 q18 -18 18 -46 ZM378 602 q0 -8 -5 -20 q-9 -23 -30 -37.5 q-21 -14.5 -45 -14.5 q-28 0 -46 18 q-18 18 -18 46 q0 32 24.5 56 q24.5 24 56.5 24 q31 0 47 -20 q16 -20 16 -52 Z" /><glyph glyph-name="uni04DE" unicode="&#x4de;" d="M70 453 l24 190 q62 36 139 36 q107 0 163 -58 q46 -47 46 -123 q0 -73 -40 -114 q-37 -37 -96 -45 q52 0 86 -34 q34 -34 34 -92 q0 -44 -18.5 -88.5 q-18.5 -44.5 -50.5 -74.5 q-66 -62 -180 -62 q-75 0 -157 43 l25 201 q21 -36 49 -57 q30 -23 69 -23 q35 0 53 17 q17 15 17 42 q0 27 -24 43 q-19 12 -58 12 l-26 0 l17 148 l24 0 q44 0 65 11 q26 14 26 42 q0 21 -18 35 q-19 15 -55 15 q-32 0 -61 -18 q-23 -14 -53 -46 ZM423 800 q0 -31 -24.5 -55.5 q-24.5 -24.5 -56.5 -24.5 q-27 0 -45 18.5 q-18 18.5 -18 45.5 q0 32 24 56 q24 24 56 24 q28 0 46 -18 q18 -18 18 -46 ZM233 792 q0 -8 -5 -20 q-9 -23 -30 -37.5 q-21 -14.5 -45 -14.5 q-28 0 -46 18 q-18 18 -18 46 q0 32 24.5 56 q24.5 24 56.5 24 q31 0 47 -20 q16 -20 16 -52 Z" /><glyph glyph-name="uni04DF" unicode="&#x4df;" d="M108 303 l-55 127 q41 21 74 32 q48 15 101 15 q99 0 147 -48 q34 -34 34 -85 q0 -48 -29 -75 q-28 -27 -74 -30 q42 -3 68 -28 q25 -23 25 -65 q0 -55 -41 -99 q-55 -57 -157 -57 q-62 0 -110 18 q-40 15 -81 45 l82 121 q12 -23 37 -38 q22 -14 49 -14 q16 0 32 8 q12 8 12 23 q0 19 -20 26 q-15 5 -49 5 l-20 0 l13 109 l30 0 q26 0 41 4 q22 7 22 25 q0 12 -13 20 q-11 7 -33 7 q-25 0 -46 -12 q-12 -7 -39 -34 ZM413 610 q0 -31 -24.5 -55.5 q-24.5 -24.5 -56.5 -24.5 q-27 0 -45 18.5 q-18 18.5 -18 45.5 q0 32 24 56 q24 24 56 24 q28 0 46 -18 q18 -18 18 -46 ZM223 602 q0 -8 -5 -20 q-9 -23 -30 -37.5 q-21 -14.5 -45 -14.5 q-28 0 -46 18 q-18 18 -18 46 q0 32 24.5 56 q24.5 24 56.5 24 q31 0 47 -20 q16 -20 16 -52 Z" /><glyph glyph-name="uni04E2" unicode="&#x4e2;" d="M18 0 l82 667 l170 0 l-23 -185 q-14 -118 -47 -225 q45 105 92 195 l115 215 l158 0 l-82 -667 l-170 0 l22 178 q12 102 37 214 q-27 -79 -87 -190 l-109 -202 l-158 0 ZM519 837 l-12 -94 l-335 0 l12 94 l335 0 Z" /><glyph glyph-name="uni04E3" unicode="&#x4e3;" d="M68 467 l166 0 l-16 -131 q-7 -59 -22 -123 q24 53 46 90 l94 164 l158 0 l-57 -467 l-166 0 l15 125 q4 35 22 129 q-23 -55 -46 -94 l-93 -160 l-158 0 l57 467 ZM464 647 l-12 -94 l-335 0 l12 94 l335 0 Z" /><glyph glyph-name="uni04E4" unicode="&#x4e4;" d="M18 0 l82 667 l170 0 l-23 -185 q-14 -118 -47 -225 q45 105 92 195 l115 215 l158 0 l-82 -667 l-170 0 l22 178 q12 102 37 214 q-27 -79 -87 -190 l-109 -202 l-158 0 ZM513 800 q0 -31 -24.5 -55.5 q-24.5 -24.5 -56.5 -24.5 q-27 0 -45 18.5 q-18 18.5 -18 45.5 q0 32 24 56 q24 24 56 24 q28 0 46 -18 q18 -18 18 -46 ZM323 792 q0 -8 -5 -20 q-9 -23 -30 -37.5 q-21 -14.5 -45 -14.5 q-28 0 -46 18 q-18 18 -18 46 q0 32 24.5 56 q24.5 24 56.5 24 q31 0 47 -20 q16 -20 16 -52 Z" /><glyph glyph-name="uni04E5" unicode="&#x4e5;" d="M68 467 l166 0 l-16 -131 q-7 -59 -22 -123 q24 53 46 90 l94 164 l158 0 l-57 -467 l-166 0 l15 125 q4 35 22 129 q-23 -55 -46 -94 l-93 -160 l-158 0 l57 467 ZM465 610 q0 -31 -24.5 -55.5 q-24.5 -24.5 -56.5 -24.5 q-27 0 -45 18.5 q-18 18.5 -18 45.5 q0 32 24 56 q24 24 56 24 q28 0 46 -18 q18 -18 18 -46 ZM275 602 q0 -8 -5 -20 q-9 -23 -30 -37.5 q-21 -14.5 -45 -14.5 q-28 0 -46 18 q-18 18 -18 46 q0 32 24.5 56 q24.5 24 56.5 24 q31 0 47 -20 q16 -20 16 -52 Z" /><glyph glyph-name="uni04E6" unicode="&#x4e6;" d="M337 679 q86 0 140 -57 q69 -72 69 -208 q0 -96 -30.5 -195 q-30.5 -99 -94.5 -161 q-71 -70 -167 -70 q-87 0 -146 62 q-70 72 -70 213 q0 116 34.5 203 q34.5 87 88.5 139 q75 74 176 74 ZM315 511 q-17 0 -35 -19 q-25 -27 -41 -91 q-17 -67 -17 -139 q0 -72 22 -94 q11 -11 26 -11 q19 0 33 16 q28 31 44 99 q15 61 15 134 q0 77 -22 96 q-10 9 -25 9 ZM518 800 q0 -31 -24.5 -55.5 q-24.5 -24.5 -56.5 -24.5 q-27 0 -45 18.5 q-18 18.5 -18 45.5 q0 32 24 56 q24 24 56 24 q28 0 46 -18 q18 -18 18 -46 ZM328 792 q0 -8 -5 -20 q-9 -23 -30 -37.5 q-21 -14.5 -45 -14.5 q-28 0 -46 18 q-18 18 -18 46 q0 32 24.5 56 q24.5 24 56.5 24 q31 0 47 -20 q16 -20 16 -52 Z" /><glyph glyph-name="uni04E7" unicode="&#x4e7;" d="M270 477 q82 0 131 -47 q55 -53 55 -152 q0 -66 -22 -126.5 q-22 -60.5 -62 -99.5 q-64 -62 -164 -62 q-79 0 -127 44 q-57 52 -57 156 q0 137 85 222 q67 65 161 65 ZM254 346 q-13 0 -24 -11 q-18 -18 -29 -60.5 q-11 -42.5 -11 -79.5 q0 -37 11 -57 q10 -17 26 -17 q15 0 25 12 q19 19 29 61 q10 42 10 79 q0 35 -11 56 q-8 17 -26 17 ZM453 610 q0 -31 -24.5 -55.5 q-24.5 -24.5 -56.5 -24.5 q-27 0 -45 18.5 q-18 18.5 -18 45.5 q0 32 24 56 q24 24 56 24 q28 0 46 -18 q18 -18 18 -46 ZM263 602 q0 -8 -5 -20 q-9 -23 -30 -37.5 q-21 -14.5 -45 -14.5 q-28 0 -46 18 q-18 18 -18 46 q0 32 24.5 56 q24.5 24 56.5 24 q31 0 47 -20 q16 -20 16 -52 Z" /><glyph glyph-name="uni04E8" unicode="&#x4e8;" d="M337 679 q86 0 140 -57 q69 -72 69 -208 q0 -96 -30.5 -195 q-30.5 -99 -94.5 -161 q-71 -70 -167 -70 q-87 0 -146 62 q-70 72 -70 213 q0 116 34.5 203 q34.5 87 88.5 139 q75 74 176 74 ZM240 407 l122 0 q3 25 -2.5 55.5 q-5.5 30.5 -19.5 43.5 q-9 9 -25 9 q-17 0 -35 -19 q-29 -32 -40 -89 ZM348 276 l-126 0 q0 -90 23 -113 q10 -10 25 -10 q16 0 32 14 q16 16 29 47 q13 31 17 62 Z" /><glyph glyph-name="uni04E9" unicode="&#x4e9;" d="M270 477 q82 0 131 -47 q55 -53 55 -152 q0 -66 -22 -126.5 q-22 -60.5 -62 -99.5 q-64 -62 -164 -62 q-79 0 -127 44 q-57 52 -57 156 q0 137 85 222 q67 65 161 65 ZM201 291 l92 0 q-2 31 -10 45 q-10 18 -30 18 q-14 0 -25 -10 q-19 -16 -27 -53 ZM282 185 l-94 0 q0 -37 11 -55 q10 -17 28 -17 q15 0 28 11 q22 22 27 61 Z" /><glyph glyph-name="uni04EA" unicode="&#x4ea;" d="M337 679 q86 0 140 -57 q69 -72 69 -208 q0 -96 -30.5 -195 q-30.5 -99 -94.5 -161 q-71 -70 -167 -70 q-87 0 -146 62 q-70 72 -70 213 q0 116 34.5 203 q34.5 87 88.5 139 q75 74 176 74 ZM240 407 l122 0 q3 25 -2.5 55.5 q-5.5 30.5 -19.5 43.5 q-9 9 -25 9 q-17 0 -35 -19 q-29 -32 -40 -89 ZM348 276 l-126 0 q0 -90 23 -113 q10 -10 25 -10 q16 0 32 14 q16 16 29 47 q13 31 17 62 ZM518 800 q0 -31 -24.5 -55.5 q-24.5 -24.5 -56.5 -24.5 q-27 0 -45 18.5 q-18 18.5 -18 45.5 q0 32 24 56 q24 24 56 24 q28 0 46 -18 q18 -18 18 -46 ZM328 792 q0 -8 -5 -20 q-9 -23 -30 -37.5 q-21 -14.5 -45 -14.5 q-28 0 -46 18 q-18 18 -18 46 q0 32 24.5 56 q24.5 24 56.5 24 q31 0 47 -20 q16 -20 16 -52 Z" /><glyph glyph-name="uni04EB" unicode="&#x4eb;" d="M270 477 q82 0 131 -47 q55 -53 55 -152 q0 -66 -22 -126.5 q-22 -60.5 -62 -99.5 q-64 -62 -164 -62 q-79 0 -127 44 q-57 52 -57 156 q0 137 85 222 q67 65 161 65 ZM201 291 l92 0 q-2 31 -10 45 q-10 18 -30 18 q-14 0 -25 -10 q-19 -16 -27 -53 ZM282 185 l-94 0 q0 -37 11 -55 q10 -17 28 -17 q15 0 28 11 q22 22 27 61 ZM453 610 q0 -31 -24.5 -55.5 q-24.5 -24.5 -56.5 -24.5 q-27 0 -45 18.5 q-18 18.5 -18 45.5 q0 32 24 56 q24 24 56 24 q28 0 46 -18 q18 -18 18 -46 ZM263 602 q0 -8 -5 -20 q-9 -23 -30 -37.5 q-21 -14.5 -45 -14.5 q-28 0 -46 18 q-18 18 -18 46 q0 32 24.5 56 q24.5 24 56.5 24 q31 0 47 -20 q16 -20 16 -52 Z" /><glyph glyph-name="uni04EE" unicode="&#x4ee;" d="M54 667 l184 0 l23 -109 q15 -70 17 -141 q22 78 49 146 l41 104 l186 0 l-318 -667 l-177 0 l108 230 l-113 437 ZM484 837 l-12 -94 l-335 0 l12 94 l335 0 Z" /><glyph glyph-name="uni04EF" unicode="&#x4ef;" d="M487 467 l-301 -682 l-176 0 l110 234 l-82 448 l172 0 q2 -18 7 -57 q5 -39 7.5 -61.5 q2.5 -22.5 5 -55.5 q2.5 -33 2.5 -61 q0 -5 -0.5 -15 q-0.5 -10 -0.5 -15 q36 133 48 164 l38 101 l170 0 ZM434 647 l-12 -94 l-335 0 l12 94 l335 0 Z" /><glyph glyph-name="uni04F0" unicode="&#x4f0;" d="M54 667 l184 0 l23 -109 q15 -70 17 -141 q22 78 49 146 l41 104 l186 0 l-318 -667 l-177 0 l108 230 l-113 437 ZM483 800 q0 -31 -24.5 -55.5 q-24.5 -24.5 -56.5 -24.5 q-27 0 -45 18.5 q-18 18.5 -18 45.5 q0 32 24 56 q24 24 56 24 q28 0 46 -18 q18 -18 18 -46 ZM293 792 q0 -8 -5 -20 q-9 -23 -30 -37.5 q-21 -14.5 -45 -14.5 q-28 0 -46 18 q-18 18 -18 46 q0 32 24.5 56 q24.5 24 56.5 24 q31 0 47 -20 q16 -20 16 -52 Z" /><glyph glyph-name="uni04F1" unicode="&#x4f1;" d="M487 467 l-301 -682 l-176 0 l110 234 l-82 448 l172 0 q2 -18 7 -57 q5 -39 7.5 -61.5 q2.5 -22.5 5 -55.5 q2.5 -33 2.5 -61 q0 -5 -0.5 -15 q-0.5 -10 -0.5 -15 q36 133 48 164 l38 101 l170 0 ZM438 610 q0 -31 -24.5 -55.5 q-24.5 -24.5 -56.5 -24.5 q-27 0 -45 18.5 q-18 18.5 -18 45.5 q0 32 24 56 q24 24 56 24 q28 0 46 -18 q18 -18 18 -46 ZM248 602 q0 -8 -5 -20 q-9 -23 -30 -37.5 q-21 -14.5 -45 -14.5 q-28 0 -46 18 q-18 18 -18 46 q0 32 24.5 56 q24.5 24 56.5 24 q31 0 47 -20 q16 -20 16 -52 Z" /><glyph glyph-name="uni04F2" unicode="&#x4f2;" d="M54 667 l184 0 l23 -109 q15 -70 17 -141 q22 78 49 146 l41 104 l186 0 l-318 -667 l-177 0 l108 230 l-113 437 ZM516 868 l-105 -148 l-88 0 l65 148 l128 0 ZM351 868 l-104 -148 l-88 0 l65 148 l127 0 Z" /><glyph glyph-name="uni04F3" unicode="&#x4f3;" d="M487 467 l-301 -682 l-176 0 l110 234 l-82 448 l172 0 q2 -18 7 -57 q5 -39 7.5 -61.5 q2.5 -22.5 5 -55.5 q2.5 -33 2.5 -61 q0 -5 -0.5 -15 q-0.5 -10 -0.5 -15 q36 133 48 164 l38 101 l170 0 ZM471 678 l-105 -148 l-88 0 l65 148 l128 0 ZM306 678 l-104 -148 l-88 0 l65 148 l127 0 Z" /><glyph glyph-name="uni04F4" unicode="&#x4f4;" d="M270 0 l33 269 q-39 -11 -79 -11 q-71 0 -113 33 q-51 40 -51 112 q0 29 6 74 l24 190 l176 0 l-22 -178 q-3 -27 -3 -30 q0 -21 13 -32 q12 -11 35 -11 q18 0 33 7 l30 244 l177 0 l-82 -667 l-177 0 ZM493 800 q0 -31 -24.5 -55.5 q-24.5 -24.5 -56.5 -24.5 q-27 0 -45 18.5 q-18 18.5 -18 45.5 q0 32 24 56 q24 24 56 24 q28 0 46 -18 q18 -18 18 -46 ZM303 792 q0 -8 -5 -20 q-9 -23 -30 -37.5 q-21 -14.5 -45 -14.5 q-28 0 -46 18 q-18 18 -18 46 q0 32 24.5 56 q24.5 24 56.5 24 q31 0 47 -20 q16 -20 16 -52 Z" /><glyph glyph-name="uni04F5" unicode="&#x4f5;" d="M237 0 l20 161 q-34 -10 -71 -10 q-73 0 -112 37 q-34 34 -34 91 q0 27 5 65 l15 123 l170 0 l-15 -122 q-2 -14 -2 -26 q0 -16 9 -23 q8 -7 24 -7 q15 0 27 8 l21 170 l172 0 l-57 -467 l-172 0 ZM443 610 q0 -31 -24.5 -55.5 q-24.5 -24.5 -56.5 -24.5 q-27 0 -45 18.5 q-18 18.5 -18 45.5 q0 32 24 56 q24 24 56 24 q28 0 46 -18 q18 -18 18 -46 ZM253 602 q0 -8 -5 -20 q-9 -23 -30 -37.5 q-21 -14.5 -45 -14.5 q-28 0 -46 18 q-18 18 -18 46 q0 32 24.5 56 q24.5 24 56.5 24 q31 0 47 -20 q16 -20 16 -52 Z" /><glyph glyph-name="uni04F8" unicode="&#x4f8;" d="M674 0 l-177 0 l79 667 l183 0 l-85 -667 ZM220 0 l-202 0 l82 667 l177 0 l-30 -245 l8 0 q118 0 174 -55 q52 -50 52 -131 q0 -105 -65 -170 q-67 -66 -196 -66 ZM229 278 l-16 -133 q44 -6 73 24 q18 18 18 51 q0 30 -20 46 q-22 17 -55 12 ZM598 800 q0 -31 -24.5 -55.5 q-24.5 -24.5 -56.5 -24.5 q-27 0 -45 18.5 q-18 18.5 -18 45.5 q0 32 24 56 q24 24 56 24 q28 0 46 -18 q18 -18 18 -46 ZM408 792 q0 -8 -5 -20 q-9 -23 -30 -37.5 q-21 -14.5 -45 -14.5 q-28 0 -46 18 q-18 18 -18 46 q0 32 24.5 56 q24.5 24 56.5 24 q31 0 47 -20 q16 -20 16 -52 Z" /><glyph glyph-name="uni04F9" unicode="&#x4f9;" d="M626 0 l-172 0 l57 467 l172 0 l-57 -467 ZM219 301 l49 0 q87 0 131 -36 q43 -36 43 -100 q0 -75 -45 -119 q-48 -46 -139 -46 l-248 0 l57 467 l172 0 l-20 -166 ZM196 110 l5 0 q36 0 50 7 q21 11 21 38 q0 14 -9 24 q-13 14 -51 14 l-6 0 l-10 -83 ZM558 610 q0 -31 -24.5 -55.5 q-24.5 -24.5 -56.5 -24.5 q-27 0 -45 18.5 q-18 18.5 -18 45.5 q0 32 24 56 q24 24 56 24 q28 0 46 -18 q18 -18 18 -46 ZM368 602 q0 -8 -5 -20 q-9 -23 -30 -37.5 q-21 -14.5 -45 -14.5 q-28 0 -46 18 q-18 18 -18 46 q0 32 24.5 56 q24.5 24 56.5 24 q31 0 47 -20 q16 -20 16 -52 Z" /><glyph glyph-name="uni1E9E" unicode="&#x1e9e;" d="M290 418 l45 59 q2 10 2 20 q0 18 -10 28 q-10 10 -25 10 q-21 0 -33 -15 q-13 -14 -16 -46 l-58 -474 l-177 0 l54 439 q15 121 80 179 q67 61 165 61 q86 0 135 -41 q64 -54 58 -148 l-91 -99 q34 -8 56 -40 q22 -32 22 -97 q0 -124 -91 -199 q-67 -55 -167 -55 l18 145 q21 1 35 21 q20 27 20 78 q0 27 -10 41 q-10 14 -26 15 l14 118 Z" /><glyph glyph-name="uni2010" unicode="&#x2010;" d="M262 186 l-217 0 l16 134 l217 0 l-16 -134 Z" /><glyph glyph-name="uni2011" unicode="&#x2011;" d="M262 186 l-217 0 l16 134 l217 0 l-16 -134 Z" /><glyph glyph-name="figuredash" unicode="&#x2012;" d="M500 279 l-434 0 l14 120 l434 0 l-14 -120 Z" /><glyph glyph-name="endash" unicode="&#x2013;" d="M500 193 l-434 0 l14 120 l434 0 l-14 -120 Z" /><glyph glyph-name="emdash" unicode="&#x2014;" d="M746 193 l-680 0 l14 120 l680 0 l-14 -120 Z" /><glyph glyph-name="afii00208" unicode="&#x2015;" d="M746 193 l-680 0 l14 120 l680 0 l-14 -120 Z" /><glyph glyph-name="quoteleft" unicode="&#x2018;" d="M341 721 l-120 -321 l-174 0 l154 321 l140 0 Z" /><glyph glyph-name="quoteright" unicode="&#x2019;" d="M341 721 l-154 -321 l-140 0 l120 321 l174 0 Z" /><glyph glyph-name="quotesinglbase" unicode="&#x201a;" d="M279 159 l-154 -320 l-140 0 l120 320 l174 0 Z" /><glyph glyph-name="quotedblleft" unicode="&#x201c;" d="M581 721 l-120 -321 l-174 0 l154 321 l140 0 ZM348 721 l-120 -321 l-174 0 l154 321 l140 0 Z" /><glyph glyph-name="quotedblright" unicode="&#x201d;" d="M581 721 l-154 -321 l-140 0 l120 321 l174 0 ZM348 721 l-154 -321 l-140 0 l120 321 l174 0 Z" /><glyph glyph-name="quotedblbase" unicode="&#x201e;" d="M512 159 l-154 -320 l-140 0 l120 320 l174 0 ZM279 159 l-154 -320 l-140 0 l120 320 l174 0 Z" /><glyph glyph-name="dagger" unicode="&#x2020;" d="M541 566 l-18 -140 l-157 0 l-78 -635 l-158 0 l78 635 l-157 0 l17 140 l157 0 l21 163 l157 0 l-20 -163 l158 0 Z" /><glyph glyph-name="daggerdbl" unicode="&#x2021;" d="M540 565 l-16 -138 l-158 0 l-24 -199 l157 0 l-17 -137 l-157 0 l-37 -300 l-158 0 l37 300 l-158 0 l17 137 l158 0 l24 199 l-157 0 l17 138 l157 0 l20 164 l158 0 l-20 -164 l157 0 Z" /><glyph glyph-name="bullet" unicode="&#x2022;" d="M612 438.5 q40 -41.5 40 -98.5 q0 -57 -40.5 -98.5 q-40.5 -41.5 -97.5 -41.5 q-57 0 -97 41.5 q-40 41.5 -40 98.5 q0 57 40.5 98.5 q40.5 41.5 97.5 41.5 q57 0 97 -41.5 Z" /><glyph glyph-name="ellipsis" unicode="&#x2026;" d="M905 102 q0 -44 -34.5 -78 q-34.5 -34 -78.5 -34 q-38 0 -63 26 q-25 26 -25 64 q0 44 33.5 78 q33.5 34 77.5 34 q39 0 64.5 -25.5 q25.5 -25.5 25.5 -64.5 ZM576 102 q0 -44 -34 -78 q-34 -34 -78 -34 q-38 0 -63.5 26 q-25.5 26 -25.5 64 q0 44 34 78 q34 34 78 34 q38 0 63.5 -26 q25.5 -26 25.5 -64 ZM248 102 q0 -44 -34.5 -78 q-34.5 -34 -78.5 -34 q-38 0 -63 26 q-25 26 -25 64 q0 44 34 78 q34 34 78 34 q38 0 63.5 -26 q25.5 -26 25.5 -64 Z" /><glyph glyph-name="perthousand" unicode="&#x2030;" d="M335 531 q0 -78 -44.5 -136 q-44.5 -58 -115.5 -58 q-61 0 -94.5 38 q-33.5 38 -33.5 105 q0 85 44 142 q44 57 122 57 q61 0 91.5 -40 q30.5 -40 30.5 -108 ZM219 533 q0 48 -20 48 q-20 0 -28 -32 q-8 -32 -8 -66 q0 -49 21 -49 q19 0 27 33 q8 33 8 66 ZM599 667 l-370 -667 l-92 0 l372 667 l90 0 ZM692 189 q0 -78 -44.5 -136 q-44.5 -58 -115.5 -58 q-61 0 -94.5 38 q-33.5 38 -33.5 105 q0 85 44 142 q44 57 122 57 q61 0 91.5 -40 q30.5 -40 30.5 -108 ZM576 191 q0 48 -20 48 q-20 0 -28 -32 q-8 -32 -8 -66 q0 -49 21 -49 q19 0 27 33 q8 33 8 66 ZM1024 189 q0 -78 -44.5 -136 q-44.5 -58 -115.5 -58 q-61 0 -94.5 38 q-33.5 38 -33.5 105 q0 85 44 142 q44 57 122 57 q61 0 91.5 -40 q30.5 -40 30.5 -108 ZM908 191 q0 48 -20 48 q-20 0 -28 -32 q-8 -32 -8 -66 q0 -49 21 -49 q19 0 27 33 q8 33 8 66 Z" /><glyph glyph-name="guilsinglleft" unicode="&#x2039;" d="M237 63 l-85 -50 l-124 226 l179 226 l71 -66 l-134 -168 l93 -168 Z" /><glyph glyph-name="guilsinglright" unicode="&#x203a;" d="M11 79 l133 168 l-92 168 l85 50 l123 -226 l-178 -226 l-71 66 Z" /><glyph glyph-name="fraction" unicode="&#x2044;" d="M276 667 l-370 -667 l-92 0 l372 667 l90 0 Z" /><glyph glyph-name="Euro" unicode="&#x20ac;" d="M498 205 l-35 -193 q-59 -24 -110 -24 q-105 0 -164 64 q-59 64 -70 171 l-105 0 l41 78 l63 0 q1 21 7 58 l-94 0 l43 78 l71 0 q39 112 120 177 q81 65 194 65 q48 0 87 -17 l-24 -190 q-34 40 -78 40 q-71 0 -109 -75 l173 0 l-49 -78 l-150 0 l-4 -25 q-2 -22 -2 -33 l132 0 l-41 -78 l-81 0 q22 -61 85 -61 q45 0 100 43 Z" /><glyph glyph-name="uni20B4" unicode="&#x20b4;" d="M142 505 l17 140 q85 34 153 34 q79 0 122 -41 q40 -38 40 -98 q0 -48 -31 -85 l72 0 l-12 -94 l-121 0 l-56 -66 l169 0 l-11 -93 l-220 0 q-10 -15 -10 -36 q0 -19 13 -29 q15 -11 49 -11 q62 0 112 30 l-17 -140 q-73 -28 -156 -28 q-85 0 -131 40 q-44 38 -44 97 q0 39 26 77 l-62 0 l11 93 l113 0 l56 66 l-161 0 l12 94 l214 0 q15 17 15 37 q0 27 -15 40 q-16 12 -40 12 q-52 0 -107 -39 Z" /><glyph glyph-name="uni20B6" unicode="&#x20b6;&#x20b7;&#x20b9;&#x20ba;&#x20bb;&#x20bc;&#x20bd;&#x20be;&#x20bf;&#x20c0;&#x20c1;&#x20c2;&#x20c3;&#x20c4;&#x20c5;&#x20c6;&#x20c7;&#x20c8;&#x20c9;&#x20ca;&#x20cb;&#x20cc;&#x20cd;&#x20ce;&#x20cf;" d="M106 352 l39 315 l172 0 q237 0 240 -183 q0 -53 -19 -102.5 q-19 -49.5 -54 -77.5 q-44 -38 -93 -50 q-49 -12 -122 -12 l-8 -66 l140 0 l-11 -93 l-140 0 l-10 -83 l-177 0 l12 83 l-71 0 l11 93 l71 0 l7 66 l-71 0 l13 110 l71 0 ZM286 352 l21 0 q31 0 50 28 q19 28 19 67 q0 32 -12 53 q-12 21 -35 21 l-23 0 l-20 -169 Z" /><glyph glyph-name="uni20B8" unicode="&#x20b8;" d="M494 507 l-19 -150 l-102 0 l-44 -357 l-177 0 l44 357 l-98 0 l19 150 l377 0 ZM499 557 l-377 0 l15 110 l377 0 l-15 -110 Z" /><glyph glyph-name="afii61352" unicode="&#x2116;" d="M562 667 l-82 -667 l-169 0 l-59 245 q-19 81 -28 139 q-1 -16 -2 -33.5 q-1 -17.5 -2 -39 q-1 -21.5 -2 -33.5 q-2 -42 -7 -86.5 q-5 -44.5 -13 -105.5 q-8 -61 -11 -86 l-169 0 l82 667 l169 0 l60 -234 q8 -32 20 -93.5 q12 -61.5 15 -74.5 q2 193 10 252 l19 150 l169 0 ZM881 547 q0 -82 -43 -138 q-43 -56 -124 -56 q-60 0 -91 36 q-31 36 -31 98 q0 78 44.5 135 q44.5 57 120.5 57 q59 0 91.5 -36 q32.5 -36 32.5 -96 ZM828 296 l-12 -100 l-249 0 l12 100 l249 0 ZM771 540 q0 52 -26 52 q-21 0 -31.5 -35.5 q-10.5 -35.5 -10.5 -63.5 q0 -52 25 -52 q21 0 32 35.5 q11 35.5 11 63.5 Z" /><glyph glyph-name="uni2117" unicode="&#x2117;" d="M287 529 l108 0 q78 0 119 -39 q36 -36 36 -95 q0 -55 -30 -87 q-34 -37 -114 -37 l-10 0 l0 -117 l-109 0 l0 375 ZM396 357 l2 0 q20 0 31 11 q12 12 12 33 q0 20 -12 30 q-11 10 -30 10 l-3 0 l0 -84 ZM740 333 q0 -141 -100 -244 q-102 -104 -247 -104 q-145 0 -247 104 q-100 102 -100 245 q0 141 100 244 q102 104 247 104 q145 0 247 -104 q100 -102 100 -245 ZM576 534 q-77 75 -183 75 q-106 0 -183 -75 q-84 -82 -84 -201 q0 -119 84 -201 q77 -75 183 -75 q106 0 183 75 q84 82 84 201 q0 119 -84 201 Z" /><glyph glyph-name="trademark" unicode="&#x2122;" d="M660 667 l-9 -380 l-114 0 l15 195 l-62 -195 l-89 0 l-8 185 l-34 -185 l-117 0 l92 380 l134 0 l8 -164 l51 164 l133 0 ZM279 667 l-12 -96 l-59 0 l-35 -284 l-110 0 l35 284 l-57 0 l12 96 l226 0 Z" /><glyph glyph-name="partialdiff" unicode="&#x2202;" d="M56 557 l17 112 q188 -20 288 -106 q127 -109 127 -294 q0 -120 -64.5 -199 q-64.5 -79 -181.5 -79 q-96 0 -164 66.5 q-68 66.5 -68 162.5 q0 89 59 150.5 q59 61.5 148 61.5 q75 0 121 -45 q-62 149 -282 170 ZM244 323 l-10 0 q-9 0 -30 -8 q-28 -12 -44 -38.5 q-16 -26.5 -16 -58.5 q0 -46 28 -78 q28 -32 73 -32 q45 0 73.5 32 q28.5 32 28.5 77 q0 45 -29 75.5 q-29 30.5 -74 30.5 Z" /><glyph glyph-name="product" unicode="&#x220f;" d="M696 -250 l-294 0 l0 117 l80 0 l0 766 l-226 0 l0 -766 l79 0 l0 -117 l-292 0 l0 117 l83 0 l0 766 l-83 0 l0 117 l653 0 l0 -117 l-82 0 l0 -766 l82 0 l0 -117 Z" /><glyph glyph-name="summation" unicode="&#x2211;" d="M632 -250 l-609 0 l0 130 l244 387 l-244 353 l0 130 l600 0 l0 -247 l-117 0 l-13 130 l-323 0 l249 -366 l-249 -400 l332 0 l8 133 l122 0 l0 -250 Z" /><glyph glyph-name="minus" unicode="&#x2212;" d="M481 280 l-434 0 l0 120 l434 0 l0 -120 Z" /><glyph glyph-name="fraction" unicode="&#x2215;" d="M565 729 l-489 -945 l-120 0 l489 945 l120 0 Z" /><glyph glyph-name="periodcentered" unicode="&#x2219;" d="M291 353 q0 -52 -39.5 -91 q-39.5 -39 -91.5 -39 q-44 0 -73.5 29.5 q-29.5 29.5 -29.5 73.5 q0 52 39 91.5 q39 39.5 91 39.5 q45 0 74.5 -29.5 q29.5 -29.5 29.5 -74.5 Z" /><glyph glyph-name="radical" unicode="&#x221a;" d="M706 710 l-178 0 l-165 -710 l-173 0 l-56 271 l-95 0 l0 116 l202 0 l21 -99 q10 -72 10 -131 l11 0 q9 142 43 290 l89 380 l291 0 l0 -117 Z" /><glyph glyph-name="infinity" unicode="&#x221e;" d="M664 340 q0 -71 -45.5 -117.5 q-45.5 -46.5 -116.5 -46.5 q-82 0 -152 79 q-71 -79 -156 -79 q-71 0 -117.5 46 q-46.5 46 -46.5 117 q0 71 46 117 q46 46 117 46 q45 0 79.5 -20 q34.5 -20 71.5 -58 q70 78 156 78 q72 0 118 -45 q46 -45 46 -117 ZM530 340 q0 19 -15.5 32.5 q-15.5 13.5 -34.5 13.5 q-36 0 -69 -47 q34 -46 69 -46 q20 0 35 13.5 q15 13.5 15 33.5 ZM283 339 q-34 46 -69 46 q-20 0 -35 -13 q-15 -13 -15 -33 q0 -20 15.5 -33 q15.5 -13 35.5 -13 q32 0 68 46 Z" /><glyph glyph-name="integral" unicode="&#x222b;" d="M456 740 l-23 -116 q-30 10 -56 10 q-58 0 -58 -71 l0 -538 q0 -65 -1 -98 q-6 -177 -175 -177 q-42 0 -94 10 l24 116 q30 -10 56 -10 q20 0 32.5 7 q12.5 7 17.5 22 q5 15 6 26.5 q1 11.5 1 33.5 l0 44 q0 89 -0.5 267.5 q-0.5 178.5 -0.5 267.5 q0 66 12 108 q16 54 61.5 81 q45.5 27 105.5 27 q32 0 92 -10 Z" /><glyph glyph-name="approxequal" unicode="&#x2248;" d="M433 528 l73 -43 q-30 -65 -64.5 -99.5 q-34.5 -34.5 -94.5 -34.5 q-30 0 -95 25 q-65 25 -87 25 q-28 0 -43.5 -15.5 q-15.5 -15.5 -30.5 -45.5 l-71 47 q26 66 59 102.5 q33 36.5 93 36.5 q34 0 95.5 -24.5 q61.5 -24.5 93.5 -24.5 q26 0 42 12.5 q16 12.5 30 38.5 ZM433 324 l73 -42 q-30 -65 -64.5 -99.5 q-34.5 -34.5 -94.5 -34.5 q-32 0 -94.5 25 q-62.5 25 -87.5 25 q-19 0 -34 -9.5 q-15 -9.5 -22 -20 q-7 -10.5 -18 -31.5 l-71 46 q27 68 59.5 104 q32.5 36 92.5 36 q34 0 96.5 -25 q62.5 -25 92.5 -25 q41 0 72 51 Z" /><glyph glyph-name="notequal" unicode="&#x2260;" d="M478 171 l-241 0 l-49 -95 l-102 0 l47 95 l-88 0 l0 117 l141 0 l34 67 l-175 0 l0 116 l228 0 l55 108 l102 0 l-54 -108 l102 0 l0 -116 l-155 0 l-33 -67 l188 0 l0 -117 Z" /><glyph glyph-name="lessequal" unicode="&#x2264;" d="M467 145 l-433 208 l0 109 l433 207 l0 -121 l-296 -141 l295 -141 l1 -121 ZM467 0 l-433 0 l0 117 l433 0 l0 -117 Z" /><glyph glyph-name="greaterequal" unicode="&#x2265;" d="M480 353 l-434 -208 l0 121 l297 141 l-296 141 l-1 121 l434 -207 l0 -109 ZM480 0 l-434 0 l0 117 l434 0 l0 -117 Z" /><glyph glyph-name="dotmath" unicode="&#x22c5;" d="M291 353 q0 -52 -39.5 -91 q-39.5 -39 -91.5 -39 q-44 0 -73.5 29.5 q-29.5 29.5 -29.5 73.5 q0 52 39 91.5 q39 39.5 91 39.5 q45 0 74.5 -29.5 q29.5 -29.5 29.5 -74.5 Z" /><glyph glyph-name="lozenge" unicode="&#x25ca;" d="M606 334 l-260 -360 l-259 360 l259 359 l260 -359 ZM454 334 l-108 148 l-107 -148 l107 -148 l108 148 Z" /><glyph glyph-name="openbullet" unicode="&#x25e6;" d="M439 509 q0 -64 -45.5 -108.5 q-45.5 -44.5 -109.5 -44.5 q-63 0 -108.5 45 q-45.5 45 -45.5 108 q0 63 45.5 107 q45.5 44 108.5 44 q64 0 109.5 -44 q45.5 -44 45.5 -107 ZM361 509 q0 31 -22.5 53 q-22.5 22 -54.5 22 q-31 0 -53.5 -22 q-22.5 -22 -22.5 -53 q0 -31 22 -53.5 q22 -22.5 54 -22.5 q32 0 54.5 22 q22.5 22 22.5 54 Z" /><glyph glyph-name="uniF400" unicode="&#xf400;" d="M-69 678 l-105 -148 l-98 0 l65 148 l138 0 Z" /><glyph glyph-name="uniF401" unicode="&#xf401;" d="M-69 868 l-105 -148 l-98 0 l65 148 l138 0 Z" /><glyph glyph-name="uniF406" unicode="&#xf406;" d="M393 866 l69 0 q-14 -68 -60.5 -108 q-46.5 -40 -115.5 -40 q-61 0 -100.5 35.5 q-39.5 35.5 -39.5 95.5 l0 17 l69 0 q8 -32 27.5 -42.5 q19.5 -10.5 54.5 -10.5 q37 0 58.5 11 q21.5 11 37.5 42 Z" /><glyph glyph-name="uniF407" unicode="&#xf407;" d="M311 -113 l-126 -124 l-77 53 l107 137 l96 -66 Z" /><glyph glyph-name="uniF408" unicode="&#xf408;" d="M316 870 l124 -98 l-65 -70 l-71 55 l-94 -57 l-53 70 l159 100 Z" /><glyph glyph-name="uniF409" unicode="&#xf409;" d="M267 -45 l-94 -188 l-102 0 l50 188 l146 0 Z" /><glyph glyph-name="uniF40A" unicode="&#xf40a;" d="M267 667 l-104 -209 l-102 0 l60 209 l146 0 Z" /><glyph glyph-name="uniF40B" unicode="&#xf40b;" d="M372 796 q0 -11 -6 -21 q-9 -24 -31 -39.5 q-22 -15.5 -47 -15.5 q-28 0 -47.5 19 q-19.5 19 -19.5 48 q0 34 25 59 q25 25 59 25 q33 0 50 -20.5 q17 -20.5 17 -54.5 Z" /><glyph glyph-name="uniF40C" unicode="&#xf40c;" d="M203 810 q0 40 28 68 q28 28 68 28 q40 0 68 -28 q28 -28 28 -68 q0 -40 -28.5 -68 q-28.5 -28 -66.5 -28 q-40 0 -68.5 28.5 q-28.5 28.5 -28.5 67.5 ZM272.5 836.5 q-10.5 -10.5 -10.5 -26.5 q0 -16 10.5 -26.5 q10.5 -10.5 26.5 -10.5 q16 0 26.5 10.5 q10.5 10.5 10.5 26.5 q0 16 -10.5 26.5 q-10.5 10.5 -26.5 10.5 q-16 0 -26.5 -10.5 Z" /><glyph glyph-name="uniF40D" unicode="&#xf40d;" d="M383 855 l88 0 q-5 -56 -35.5 -94.5 q-30.5 -38.5 -84.5 -38.5 q-25 0 -61 16.5 q-36 16.5 -50 16.5 q-25 0 -31 -35 l-89 0 q4 34 12 56 q13 33 41 54.5 q28 21.5 62 21.5 q27 0 63.5 -16.5 q36.5 -16.5 52.5 -16.5 q26 0 32 36 Z" /><glyph glyph-name="uniF40E" unicode="&#xf40e;" d="M378 -92 l-16 -70 q-22 -9 -44 -9 q-36 0 -64 18 q-28 18 -28 53 q0 53 64 100 l60 0 q-42 -35 -42 -68 q0 -30 36 -30 q18 0 34 6 Z" /><glyph glyph-name="afii10017.var.accented" unicode="&#xf460;" d="M491 0 l-183 0 l-3 85 l-119 0 l-25 -85 l-184 0 l240 667 l217 0 l57 -667 ZM300 305 l0 87 q0 1 3 115 q-3 -11 -10.5 -43.5 q-7.5 -32.5 -12.5 -50.5 q-6 -21 -24 -86 q-18 -65 -29 -100 l75 0 q-2 52 -2 78 ZM459 868 l-105 -148 l-98 0 l65 148 l138 0 Z" /><glyph glyph-name="afii10022.var.accented" unicode="&#xf461;" d="M430 667 l-20 -157 l-152 0 l-12 -97 l137 0 l-19 -151 l-136 0 l-13 -102 l152 0 l-19 -160 l-330 0 l82 667 l330 0 ZM409 868 l-105 -148 l-98 0 l65 148 l138 0 Z" /><glyph glyph-name="afii10026.var.accented" unicode="&#xf462;" d="M18 0 l82 667 l170 0 l-23 -185 q-14 -118 -47 -225 q45 105 92 195 l115 215 l158 0 l-82 -667 l-170 0 l22 178 q12 102 37 214 q-27 -79 -87 -190 l-109 -202 l-158 0 ZM465 868 l-105 -148 l-98 0 l65 148 l138 0 Z" /><glyph glyph-name="afii10032.var.accented" unicode="&#xf463;" d="M337 679 q86 0 140 -57 q69 -72 69 -208 q0 -96 -30.5 -195 q-30.5 -99 -94.5 -161 q-71 -70 -167 -70 q-87 0 -146 62 q-70 72 -70 213 q0 116 34.5 203 q34.5 87 88.5 139 q75 74 176 74 ZM315 511 q-17 0 -35 -19 q-25 -27 -41 -91 q-17 -67 -17 -139 q0 -72 22 -94 q11 -11 26 -11 q19 0 33 16 q28 31 44 99 q15 61 15 134 q0 77 -22 96 q-10 9 -25 9 ZM486 868 l-105 -148 l-98 0 l65 148 l138 0 Z" /><glyph glyph-name="afii10037.var.accented" unicode="&#xf464;" d="M54 667 l184 0 l23 -109 q15 -70 17 -141 q22 78 49 146 l41 104 l186 0 l-318 -667 l-177 0 l108 230 l-113 437 ZM437 868 l-105 -148 l-98 0 l65 148 l138 0 Z" /><glyph glyph-name="afii10045.var.accented" unicode="&#xf465;" d="M674 0 l-177 0 l79 667 l183 0 l-85 -667 ZM220 0 l-202 0 l82 667 l177 0 l-30 -245 l8 0 q118 0 174 -55 q52 -50 52 -131 q0 -105 -65 -170 q-67 -66 -196 -66 ZM229 278 l-16 -133 q44 -6 73 24 q18 18 18 51 q0 30 -20 46 q-22 17 -55 12 ZM562 868 l-105 -148 l-98 0 l65 148 l138 0 Z" /><glyph glyph-name="afii10047.var.accented" unicode="&#xf466;" d="M40 29 l11 193 q16 -25 43 -44 q29 -20 66 -20 q45 0 77 28 q31 28 40 75 l-151 0 l19 151 l150 0 q-7 48 -36 74 q-29 26 -76 26 q-32 0 -61 -16 q-24 -14 -44 -35 l24 188 q55 30 117 30 q115 0 184 -69 q37 -37 59 -97.5 q22 -60.5 22 -132.5 q0 -87 -30.5 -176 q-30.5 -89 -92.5 -147 q-73 -69 -183 -69 q-40 0 -69 9.5 q-29 9.5 -69 31.5 ZM388 868 l-105 -148 l-98 0 l65 148 l138 0 Z" /><glyph glyph-name="afii10048.var.accented" unicode="&#xf467;" d="M247 425 l69 0 q24 109 97 182 q73 72 174 72 q88 0 142 -57 q69 -72 69 -208 q0 -97 -30.5 -195.5 q-30.5 -98.5 -94.5 -161.5 q-69 -69 -172 -69 q-84 0 -137 53 q-70 70 -70 227 l-66 0 l-33 -268 l-177 0 l82 667 l177 0 l-30 -242 ZM567 511 q-17 0 -35 -19 q-25 -27 -41 -91 q-17 -67 -17 -139 q0 -72 22 -94 q11 -11 26 -11 q19 0 33 16 q28 31 44 99 q15 61 15 134 q0 77 -22 96 q-10 9 -25 9 ZM602 868 l-105 -148 l-98 0 l65 148 l138 0 Z" /><glyph glyph-name="afii10049.var.accented" unicode="&#xf468;" d="M0 0 l155 269 q-41 18 -63 50 q-28 40 -28 102 q0 107 63 172 q73 74 250 74 l172 0 l-82 -667 l-177 0 l19 147 q12 91 18 120 l-128 -267 l-199 0 ZM334 358 l19 159 q-43 5 -70 -20 q-28 -24 -28 -70 q0 -30 19 -49 q22 -20 54 -20 l6 0 ZM497 868 l-105 -148 l-98 0 l65 148 l138 0 Z" /><glyph glyph-name="afii10023.var.accented" unicode="&#xf469;" d="M430 667 l-20 -157 l-152 0 l-12 -97 l137 0 l-19 -151 l-136 0 l-13 -102 l152 0 l-19 -160 l-330 0 l82 667 l330 0 ZM357 847 l-85 -124 l-73 12 l59 133 l99 -21 ZM206 799 q0 -2 -4 -18 q-8 -20 -27 -33.5 q-19 -13.5 -41 -13.5 q-25 0 -41.5 16.5 q-16.5 16.5 -16.5 41.5 q0 28 22 50 q22 22 51 22 q28 0 42.5 -18 q14.5 -18 14.5 -47 ZM483 806 q0 -28 -22 -50 q-22 -22 -51 -22 q-25 0 -41 16.5 q-16 16.5 -16 41.5 q0 29 21.5 50.5 q21.5 21.5 50.5 21.5 q25 0 41.5 -16.5 q16.5 -16.5 16.5 -41.5 Z" /><glyph glyph-name="afii10065.var.accented" unicode="&#xf46a;" d="M479 467 l-57 -467 l-171 0 q3 13 8 39.5 q5 26.5 7 39.5 q-53 -89 -130 -89 q-33 0 -56.5 17 q-23.5 17 -35 45 q-11.5 28 -16.5 56 q-5 28 -5 59 q0 69 14 128 q8 33 21 63 q13 30 32.5 58 q19.5 28 48.5 44.5 q29 16.5 63 16.5 q40 0 62 -21.5 q22 -21.5 37 -62.5 q0 12 1.5 36.5 q1.5 24.5 2.5 37.5 l174 0 ZM269 187.5 q13 54.5 13 100.5 q0 46 -28 46 q-31 0 -45 -51 q-14 -51 -14 -95 q0 -55 31 -55 q30 0 43 54.5 ZM431 678 l-105 -148 l-98 0 l65 148 l138 0 Z" /><glyph glyph-name="afii10070.var.accented" unicode="&#xf46b;" d="M266 157 l166 0 q-26 -80 -84 -123.5 q-58 -43.5 -141 -43.5 q-89 0 -136.5 51 q-47.5 51 -47.5 140 q0 116 68 205.5 q68 89.5 180 89.5 q87 0 133.5 -55.5 q46.5 -55.5 46.5 -144.5 q0 -27 -8 -79 l-250 0 q-1 -6 -1 -19 q0 -53 32 -53 q31 0 42 32 ZM207 290 l79 0 q0 2 0.5 6 q0.5 4 0.5 6 q0 47 -34 47 q-20 0 -31.5 -18 q-11.5 -18 -14.5 -41 ZM423 678 l-105 -148 l-98 0 l65 148 l138 0 Z" /><glyph glyph-name="afii10074.var.accented" unicode="&#xf46c;" d="M68 467 l166 0 l-16 -131 q-7 -59 -22 -123 q24 53 46 90 l94 164 l158 0 l-57 -467 l-166 0 l15 125 q4 35 22 129 q-23 -55 -46 -94 l-93 -160 l-158 0 l57 467 ZM439 678 l-105 -148 l-98 0 l65 148 l138 0 Z" /><glyph glyph-name="afii10080.var.accented" unicode="&#xf46d;" d="M270 477 q82 0 131 -47 q55 -53 55 -152 q0 -66 -22 -126.5 q-22 -60.5 -62 -99.5 q-64 -62 -164 -62 q-79 0 -127 44 q-57 52 -57 156 q0 137 85 222 q67 65 161 65 ZM254 346 q-13 0 -24 -11 q-18 -18 -29 -60.5 q-11 -42.5 -11 -79.5 q0 -37 11 -57 q10 -17 26 -17 q15 0 25 12 q19 19 29 61 q10 42 10 79 q0 35 -11 56 q-8 17 -26 17 ZM427 678 l-105 -148 l-98 0 l65 148 l138 0 Z" /><glyph glyph-name="afii10085.var.accented" unicode="&#xf46e;" d="M487 467 l-301 -682 l-176 0 l110 234 l-82 448 l172 0 q2 -18 7 -57 q5 -39 7.5 -61.5 q2.5 -22.5 5 -55.5 q2.5 -33 2.5 -61 q0 -5 -0.5 -15 q-0.5 -10 -0.5 -15 q36 133 48 164 l38 101 l170 0 ZM411 678 l-105 -148 l-98 0 l65 148 l138 0 Z" /><glyph glyph-name="afii10093.var.accented" unicode="&#xf46f;" d="M626 0 l-172 0 l57 467 l172 0 l-57 -467 ZM219 301 l49 0 q87 0 131 -36 q43 -36 43 -100 q0 -75 -45 -119 q-48 -46 -139 -46 l-248 0 l57 467 l172 0 l-20 -166 ZM196 110 l5 0 q36 0 50 7 q21 11 21 38 q0 14 -9 24 q-13 14 -51 14 l-6 0 l-10 -83 ZM524 678 l-105 -148 l-98 0 l65 148 l138 0 Z" /><glyph glyph-name="afii10095.var.accented" unicode="&#xf470;" d="M20 22 l17 133 q29 -33 75 -33 q33 0 53 15 q22 18 27 45 l-107 0 l13 104 l103 0 q-5 30 -26 45 q-18 14 -51 14 q-37 0 -68 -23 l17 135 q46 20 95 20 q90 0 142 -54 q55 -57 55 -162 q0 -51 -17.5 -109 q-17.5 -58 -59.5 -101 q-58 -61 -152 -61 q-68 0 -116 32 ZM331 678 l-105 -148 l-98 0 l65 148 l138 0 Z" /><glyph glyph-name="afii10096.var.accented" unicode="&#xf471;" d="M217 306 l55 0 q17 74 76 122 q60 49 144 49 q85 0 135 -48 q55 -54 55 -153 q0 -68 -22 -128 q-22 -60 -62 -99 q-62 -59 -164 -59 q-84 0 -130 49 q-47 49 -49 131 l-56 0 l-20 -170 l-168 0 l57 467 l168 0 l-19 -161 ZM480 346 q-13 0 -24 -11 q-18 -18 -29 -60.5 q-11 -42.5 -11 -79.5 q0 -37 11 -57 q10 -17 26 -17 q15 0 25 12 q19 19 29 61 q10 42 10 79 q0 35 -11 56 q-8 17 -26 17 ZM540 678 l-105 -148 l-98 0 l65 148 l138 0 Z" /><glyph glyph-name="afii10097.var.accented" unicode="&#xf472;" d="M0 0 l104 162 q-30 11 -48 35 q-22 31 -22 76 q0 85 50 137 q34 35 79.5 46 q45.5 11 121.5 11 l183 0 l-57 -467 l-172 0 l12 102 q5 43 10 73 q-7 -18 -15.5 -36.5 q-8.5 -18.5 -9.5 -19.5 l-55 -119 l-181 0 ZM270 250 l11 95 l-9 0 q-36 0 -50 -12 q-15 -13 -15 -37 q0 -22 15 -34 q15 -12 42 -12 l6 0 ZM436 678 l-105 -148 l-98 0 l65 148 l138 0 Z" /><glyph glyph-name="afii10071.var.accented" unicode="&#xf473;" d="M266 157 l166 0 q-26 -80 -84 -123.5 q-58 -43.5 -141 -43.5 q-89 0 -136.5 51 q-47.5 51 -47.5 140 q0 116 68 205.5 q68 89.5 180 89.5 q87 0 133.5 -55.5 q46.5 -55.5 46.5 -144.5 q0 -27 -8 -79 l-250 0 q-1 -6 -1 -19 q0 -53 32 -53 q31 0 42 32 ZM207 290 l79 0 q0 2 0.5 6 q0.5 4 0.5 6 q0 47 -34 47 q-20 0 -31.5 -18 q-11.5 -18 -14.5 -41 ZM340 662 l-91 -128 l-63 16 l64 131 l90 -19 ZM190 609 q0 -8 -5 -18 q-8 -20 -26.5 -33.5 q-18.5 -13.5 -40.5 -13.5 q-25 0 -41.5 16.5 q-16.5 16.5 -16.5 41.5 q0 29 22 50.5 q22 21.5 51 21.5 q28 0 42.5 -18 q14.5 -18 14.5 -47 ZM466 616 q0 -28 -22 -50 q-22 -22 -51 -22 q-24 0 -40.5 16.5 q-16.5 16.5 -16.5 41.5 q0 28 22 50 q22 22 50 22 q25 0 41.5 -16.5 q16.5 -16.5 16.5 -41.5 Z" /><glyph glyph-name="uniF4C6" unicode="&#xf4c6;" d="M90 667 l176 0 l-22 -178 q-3 -21 -3 -30 q0 -21 13 -32 q12 -11 35 -11 q18 0 33 7 l30 244 l177 0 l-86 -710 q-11 -94 -57 -135 q-41 -37 -126 -37 q-42 0 -81 12 l17 139 q13 -12 30 -12 q18 0 28 12 q10 11 16 58 l33 275 q-39 -11 -79 -11 q-71 0 -113 33 q-51 40 -51 112 q0 29 6 74 l24 190 Z" /><glyph glyph-name="uniF4C7" unicode="&#xf4c7;" d="M294 467 l172 0 l-58 -460 q-17 -130 -69 -179 q-47 -43 -127 -43 q-32 0 -74 10 l18 145 q13 -15 31 -15 q20 0 31 13 q10 10 15 50 l24 173 q-34 -10 -71 -10 q-73 0 -112 37 q-34 34 -34 91 q0 27 5 65 l15 123 l170 0 l-15 -122 q-2 -12 -2 -26 q0 -16 9 -23 q8 -7 24 -7 q15 0 27 8 l21 170 Z" /><glyph glyph-name="uniF4CC" unicode="&#xf4cc;" d="M54 667 l184 0 l23 -109 q15 -70 17 -141 q22 78 49 146 l41 104 l186 0 l-318 -667 l-177 0 l108 230 l-113 437 ZM432 868 l-105 -148 l-98 0 l65 148 l138 0 Z" /><glyph glyph-name="uniF4CD" unicode="&#xf4cd;" d="M487 467 l-301 -682 l-176 0 l110 234 l-82 448 l172 0 q2 -18 7 -57 q5 -39 7.5 -61.5 q2.5 -22.5 5 -55.5 q2.5 -33 2.5 -61 q0 -5 -0.5 -15 q-0.5 -10 -0.5 -15 q36 133 48 164 l38 101 l170 0 ZM402 678 l-105 -148 l-98 0 l65 148 l138 0 Z" /><glyph glyph-name="dollar.fitted" unicode="&#xf5f5;" d="M416 642 l-24 -202 q-45 71 -99 71 q-20 0 -34.5 -12.5 q-14.5 -12.5 -14.5 -31.5 q0 -15 14 -30.5 q14 -15.5 34.5 -32 q20.5 -16.5 41 -36.5 q20.5 -20 34.5 -53 q14 -33 14 -72 q0 -94 -62 -169 q-33 -38 -90 -67 l-12 -101 l-84 0 l10 85 q-43 2 -68.5 7.5 q-25.5 5.5 -62.5 22.5 l26 208 q16 -33 43.5 -54 q27.5 -21 60.5 -21 q23 0 40.5 13 q17.5 13 17.5 36 q0 18 -21.5 41.5 q-21.5 23.5 -46.5 45 q-25 21.5 -46.5 59 q-21.5 37.5 -21.5 80.5 q0 105 72 180 q45 47 98 65 l11 93 l84 0 l-10 -88 q47 -10 96 -37 Z" /><glyph glyph-name="Euro.fitted" unicode="&#xf5f6;" d="M494 205 l-35 -193 q-59 -24 -110 -24 q-105 0 -164 64 q-59 64 -70 171 l-105 0 l41 78 l63 0 q1 21 7 58 l-94 0 l43 78 l71 0 q39 112 120 177 q81 65 194 65 q48 0 87 -17 l-24 -190 q-34 40 -78 40 q-71 0 -109 -75 l173 0 l-49 -78 l-150 0 l-4 -25 q-2 -22 -2 -33 l132 0 l-41 -78 l-81 0 q22 -61 85 -61 q45 0 100 43 Z" /><glyph glyph-name="cent.fitted" unicode="&#xf5f7;" d="M296 590 l-18 -148 q-40 -2 -63.5 -30 q-23.5 -28 -23.5 -69 q0 -28 14 -49 q14 -21 41 -21 l11 0 l-19 -161 q-9 -2 -25 -2 q-16 0 -23 -1 l-10 -86 l-84 0 l13 105 q-97 62 -97 187 q0 109 69 194 q31 38 82 62 l12 108 l84 0 l-10 -86 q5 1 16 1 q11 0 31 -4 Z" /><glyph glyph-name="sterling.fitted" unicode="&#xf5f8;" d="M490 584 l-107 -96 q-12 24 -25 37 q-13 13 -34 13 q-23 0 -38.5 -18.5 q-15.5 -18.5 -15.5 -42.5 q0 -16 6 -48 q6 -32 6 -48 l159 0 l-12 -93 l-148 0 q-7 -70 -58 -129 q36 -2 71 -21 q19 -11 35 -11 q31 0 56 32 l82 -48 q-61 -123 -171 -123 q-41 0 -81 17 q-7 3 -18 8 q-11 5 -16.5 7 q-5.5 2 -15.5 4 q-10 2 -21 2 q-39 0 -88 -30 l-39 82 q49 33 83 48 q28 41 28 98 q0 22 -8 64 l-60 0 l11 93 l33 0 q-12 67 -12 85 q0 91 63 151 q63 60 154 60 q106 0 181 -93 Z" /><glyph glyph-name="yen.fitted" unicode="&#xf5f9;" d="M562 667 l-111 -212 l78 0 l-11 -94 l-115 0 l-34 -66 l141 0 l-12 -93 l-146 0 l-25 -202 l-177 0 l25 202 l-157 0 l11 93 l152 0 l-20 66 l-124 0 l12 94 l84 0 l-64 212 l184 0 q32 -157 38 -206 q30 82 87 206 l184 0 Z" /><glyph glyph-name="florin.fitted" unicode="&#xf5fa;" d="M460 729 l-22 -138 q-6 0 -16 1.5 q-10 1.5 -16 1.5 q-32 0 -38 -34 l-18 -93 l70 0 l-18 -94 l-71 0 l-64 -332 q-16 -84 -58.5 -129 q-42.5 -45 -123.5 -45 q-30 0 -76 13 l26 143 q20 -2 31 -2 q22 0 33 7.5 q11 7.5 15 28.5 l61 316 l-68 0 l17 94 l69 0 l21 106 q17 83 53 125 q36 42 114 42 q31 0 79 -11 Z" /><glyph glyph-name="uni20B4.fitted" unicode="&#xf5fb;" d="M117 505 l17 140 q85 34 153 34 q79 0 122 -41 q40 -38 40 -98 q0 -48 -31 -85 l72 0 l-12 -94 l-121 0 l-56 -66 l169 0 l-11 -93 l-220 0 q-10 -15 -10 -36 q0 -19 13 -29 q15 -11 49 -11 q62 0 112 30 l-17 -140 q-73 -28 -156 -28 q-85 0 -131 40 q-44 38 -44 97 q0 39 26 77 l-62 0 l11 93 l113 0 l56 66 l-161 0 l12 94 l214 0 q15 17 15 37 q0 27 -15 40 q-16 12 -40 12 q-52 0 -107 -39 Z" /><glyph glyph-name="uni20B6.fitted" unicode="&#xf5fc;" d="M122 352 l39 315 l172 0 q237 0 240 -183 q0 -53 -19 -102.5 q-19 -49.5 -54 -77.5 q-44 -38 -93 -50 q-49 -12 -122 -12 l-8 -66 l140 0 l-11 -93 l-140 0 l-10 -83 l-177 0 l12 83 l-71 0 l11 93 l71 0 l7 66 l-71 0 l13 110 l71 0 ZM302 352 l21 0 q31 0 50 28 q19 28 19 67 q0 32 -12 53 q-12 21 -35 21 l-23 0 l-20 -169 Z" /><glyph glyph-name="uni20B8.fitted" unicode="&#xf5fd;" d="M419 507 l-19 -150 l-102 0 l-44 -357 l-177 0 l44 357 l-98 0 l19 150 l377 0 ZM424 557 l-377 0 l15 110 l377 0 l-15 -110 Z" /><glyph glyph-name="uniF639" unicode="&#xf639;" d="M496 426 q0 -95 -20 -178 q-12 -50 -32.5 -93.5 q-20.5 -43.5 -51 -82.5 q-30.5 -39 -74 -61.5 q-43.5 -22.5 -95.5 -22.5 q-55 0 -95.5 22.5 q-40.5 22.5 -62.5 62 q-22 39.5 -32 84.5 q-10 45 -10 97 q0 93 21 171 q27 106 93.5 180 q66.5 74 165.5 74 q53 0 91.5 -21.5 q38.5 -21.5 60 -58.5 q21.5 -37 31.5 -80 q10 -43 10 -93 ZM323 436 q0 87 -43 87 q-26 0 -44 -37 q-18 -37 -25.5 -93 q-7.5 -56 -10.5 -96 q-3 -40 -3 -71 q0 -82 38 -82 q35 0 56.5 66 q21.5 66 26.5 123.5 q5 57.5 5 102.5 Z" /><glyph glyph-name="uniF63A" unicode="&#xf63a;" d="M270 425 l-172 0 q9 110 75.5 182 q66.5 72 174.5 72 q84 0 134.5 -51.5 q50.5 -51.5 50.5 -135.5 q0 -51 -18 -100.5 q-18 -49.5 -51.5 -93.5 q-33.5 -44 -66.5 -78 q-33 -34 -77 -72 q37 3 165 5 l-19 -153 l-452 0 l209 243 q29 33 45.5 53.5 q16.5 20.5 41.5 56.5 q25 36 37.5 69 q12.5 33 12.5 63 q0 18 -9 32 q-9 14 -26 14 q-49 0 -55 -106 Z" /><glyph glyph-name="uniF63B" unicode="&#xf63b;" d="M239 477 l-171 0 q18 92 81.5 147 q63.5 55 155.5 55 q78 0 130.5 -47.5 q52.5 -47.5 52.5 -124.5 q0 -66 -42 -117 q-19 -24 -57 -45 q71 -44 71 -131 q0 -99 -74.5 -162.5 q-74.5 -63.5 -174.5 -63.5 q-82 0 -138 45 q-56 45 -56 125 q0 7 2 20 q2 13 2 18 l173 0 q-1 -6 -1 -18 q0 -42 37 -42 q26 0 41.5 22.5 q15.5 22.5 15.5 49.5 q0 60 -63 60 q-5 0 -15.5 -1 q-10.5 -1 -16.5 -1 l18 142 q7 -1 21 -1 q81 0 81 80 q0 43 -31 43 q-31 0 -42 -53 Z" /><glyph glyph-name="uniF63C" unicode="&#xf63c;" d="M498 279 l-17 -144 l-56 0 l-17 -135 l-177 0 l16 135 l-238 0 l17 141 l247 391 l217 0 l-48 -388 l56 0 ZM173 279 l98 0 q25 165 31 200 q-78 -134 -129 -200 Z" /><glyph glyph-name="uniF63D" unicode="&#xf63d;" d="M503 667 l-19 -157 l-187 0 l-24 -75 q10 1 30 1 q76 0 122.5 -50.5 q46.5 -50.5 46.5 -126.5 q0 -113 -84 -192 q-84 -79 -197 -79 q-92 0 -174 52 l40 158 q73 -46 135 -46 q40 0 70.5 22 q30.5 22 30.5 61 q0 66 -96 66 q-56 0 -119 -23 l98 389 l327 0 Z" /><glyph glyph-name="uniF63E" unicode="&#xf63e;" d="M431 667 l-128 -190 q-16 -24 -39 -52 q34 18 64 18 q67 0 102.5 -54.5 q35.5 -54.5 35.5 -124.5 q0 -114 -73.5 -195 q-73.5 -81 -186.5 -81 q-90 0 -139 56 q-49 56 -49 148 q0 36 12.5 81 q12.5 45 26 79 q13.5 34 44 89 q30.5 55 45 78.5 q14.5 23.5 52 81.5 q37.5 58 42.5 66 l191 0 ZM295 254 q0 23 -10.5 41 q-10.5 18 -31.5 18 q-18 0 -31 -13 q-13 -13 -19 -33.5 q-6 -20.5 -8.5 -38.5 q-2.5 -18 -2.5 -35 q0 -61 39 -61 q34 0 49 40 q15 40 15 82 Z" /><glyph glyph-name="uniF63F" unicode="&#xf63f;" d="M590 667 l-377 -667 l-191 0 l201 355 q46 80 104 155 l-222 0 l19 157 l466 0 Z" /><glyph glyph-name="uniF640" unicode="&#xf640;" d="M497 513 q0 -67 -40 -116 q-24 -29 -69 -50 q84 -37 84 -130 q0 -100 -74.5 -164.5 q-74.5 -64.5 -175.5 -64.5 q-82 0 -141.5 49 q-59.5 49 -59.5 129 q0 90 67 146 q22 18 66 35 q-43 15 -63 43 q-20 28 -20 75 q0 92 70 153 q70 61 163 61 q79 0 136 -44.5 q57 -44.5 57 -121.5 ZM320 492 q0 17 -7.5 30 q-7.5 13 -23.5 13 q-23 0 -33.5 -22.5 q-10.5 -22.5 -10.5 -48.5 q0 -45 33 -45 q21 0 31.5 24.5 q10.5 24.5 10.5 48.5 ZM293 225 q0 52 -36 52 q-24 0 -38 -27.5 q-14 -27.5 -14 -54.5 q0 -53 36 -53 q26 0 39 27 q13 27 13 56 Z" /><glyph glyph-name="uniF641" unicode="&#xf641;" d="M56 0 l128 189 q20 30 39 53 q-33 -19 -65 -19 q-66 0 -101.5 54.5 q-35.5 54.5 -35.5 124.5 q0 114 74 195.5 q74 81.5 187 81.5 q90 0 138.5 -56 q48.5 -56 48.5 -148 q0 -36 -12.5 -81.5 q-12.5 -45.5 -25.5 -78.5 q-13 -33 -45 -90 q-32 -57 -44.5 -77 q-12.5 -20 -53 -82 q-40.5 -62 -42.5 -66 l-190 0 ZM296 475 q0 60 -39 60 q-24 0 -40 -23.5 q-16 -23.5 -20.5 -49 q-4.5 -25.5 -4.5 -50.5 q0 -23 10.5 -41 q10.5 -18 31.5 -18 q24 0 39 24 q15 24 19 48.5 q4 24.5 4 49.5 Z" /><glyph glyph-name="uniF6BA" unicode="&#xf6ba;" d="M262 272 l-217 0 l16 134 l217 0 l-16 -134 Z" /><glyph glyph-name="uniF6BB" unicode="&#xf6bb;" d="M500 279 l-434 0 l14 120 l434 0 l-14 -120 Z" /><glyph glyph-name="uniF6BC" unicode="&#xf6bc;" d="M746 279 l-680 0 l14 120 l680 0 l-14 -120 Z" /><glyph glyph-name="uniF6C3" unicode="&#xf6c3;" d="M267 -46 l-94 -188 l-102 0 l50 188 l146 0 Z" /><glyph glyph-name="uniF6C9" unicode="&#xf6c9;" d="M437 868 l-105 -148 l-98 0 l65 148 l138 0 Z" /><glyph glyph-name="uniF6CA" unicode="&#xf6ca;" d="M451 802 l-166 -98 l-121 103 l71 63 l70 -58 l92 56 l54 -66 Z" /><glyph glyph-name="uniF6CB" unicode="&#xf6cb;" d="M463 800 q0 -31 -24.5 -55.5 q-24.5 -24.5 -56.5 -24.5 q-27 0 -45 18.5 q-18 18.5 -18 45.5 q0 32 24 56 q24 24 56 24 q28 0 46 -18 q18 -18 18 -46 ZM273 792 q0 -8 -5 -20 q-9 -23 -30 -37.5 q-21 -14.5 -45 -14.5 q-28 0 -46 18 q-18 18 -18 46 q0 32 24.5 56 q24.5 24 56.5 24 q31 0 47 -20 q16 -20 16 -52 Z" /><glyph glyph-name="uniF6CE" unicode="&#xf6ce;" d="M340 720 l-98 0 l-68 148 l138 0 l28 -148 Z" /><glyph glyph-name="uniF6CF" unicode="&#xf6cf;" d="M516 868 l-105 -148 l-88 0 l65 148 l128 0 ZM351 868 l-104 -148 l-88 0 l65 148 l127 0 Z" /><glyph glyph-name="uniF6D0" unicode="&#xf6d0;" d="M469 837 l-12 -94 l-335 0 l12 94 l335 0 Z" /><glyph glyph-name="uniF6D1" unicode="&#xf6d1;" d="M277 874 l125 -37 q-17 -67 -72 -99 q-45 -27 -121 -27 q-75 0 -118 26 q-56 34 -73 99 l127 38 q4 -26 20 -41 q17 -15 47 -15 q30 0 47 17 q14 16 18 39 Z" /><glyph glyph-name="uniF6D4" unicode="&#xf6d4;" d="M235 677 l111 -26 q-19 -67 -72 -102 q-39 -25 -100 -25 q-65 0 -103 27 q-50 34 -60 100 l118 26 q-2 -27 12 -42 q12 -13 34 -13 q25 0 38 13 q16 14 22 42 Z" /><glyph glyph-name="uniF6DC" unicode="&#xf6dc;" d="M296 667 l-82 -667 l-177 0 l62 510 l-71 0 l19 157 l249 0 Z" /><glyph glyph-name="uniF6DE" unicode="&#xf6de;" d="M559 193 l-510 0 l11 120 l510 0 l-11 -120 Z" /><glyph glyph-name="fi" unicode="&#xfb01;" d="M352 728 l-20 -161 q-17 17 -33 17 q-27 0 -32 -48 l-8 -69 l61 0 l-17 -140 l-61 0 l-40 -327 l-171 0 l40 327 l-49 0 l17 140 l50 0 q1 9 4.5 45 q3.5 36 5.5 51.5 q2 15.5 8.5 41 q6.5 25.5 16.5 43.5 q22 43 62 67.5 q40 24.5 88 24.5 q35 0 78 -12 ZM563 624 q0 -44 -34.5 -78.5 q-34.5 -34.5 -78.5 -34.5 q-37 0 -62.5 25.5 q-25.5 25.5 -25.5 63.5 q0 45 34 79 q34 34 79 34 q38 0 63 -25.5 q25 -25.5 25 -63.5 ZM529 467 l-57 -467 l-171 0 l58 467 l170 0 Z" /><glyph glyph-name="fl" unicode="&#xfb02;" d="M352 728 l-20 -161 q-17 17 -33 17 q-27 0 -32 -48 l-8 -69 l61 0 l-17 -140 l-61 0 l-40 -327 l-171 0 l40 327 l-49 0 l17 140 l50 0 q1 9 4.5 45 q3.5 36 5.5 51.5 q2 15.5 8.5 41 q6.5 25.5 16.5 43.5 q22 43 62 67.5 q40 24.5 88 24.5 q35 0 78 -12 ZM562 729 l-90 -729 l-171 0 l90 729 l171 0 Z" /></font>
</defs>
</svg>
