<?xml version="1.0" standalone="no"?><!DOCTYPE svg PUBLIC "-//W3C//DTD SVG 1.1//EN" "http://www.w3.org/Graphics/SVG/1.1/DTD/svg11.dtd" ><svg xmlns="http://www.w3.org/2000/svg"><metadata></metadata><defs><font id="ParaTypeLtd: Futura PT Light: 2013" horiz-adv-x="1072"><font-face font-family="Futura PT Light" font-weight="300" font-stretch="normal" units-per-em="1000" panose-1="2 11 4 2 2 2 4 2 3 3" ascent="982" descent="-300" x-height="3" bbox="-298 -250 1018 900" underline-thickness="50" underline-position="-175" unicode-range="U+0020-fb02" /><missing-glyph horiz-adv-x="233"  /><glyph glyph-name="space" unicode=" " d="" /><glyph glyph-name="exclam" unicode="!" d="M152 119 l-44 0 l0 548 l44 0 l0 -548 ZM103.5 3.5 q-10.5 10.5 -10.5 26.5 q0 16 10.5 26.5 q10.5 10.5 26.5 10.5 q16 0 26.5 -10.5 q10.5 -10.5 10.5 -26.5 q0 -16 -10.5 -26.5 q-10.5 -10.5 -26.5 -10.5 q-16 0 -26.5 10.5 Z" /><glyph glyph-name="quotedbl" unicode="&quot;" d="M104 667 l-7 -269 l-30 0 l-7 269 l44 0 ZM220 667 l-7 -269 l-30 0 l-7 269 l44 0 Z" /><glyph glyph-name="numbersign" unicode="#" d="M375 0 l-40 0 l33 221 l-164 0 l-33 -221 l-40 0 l33 221 l-118 0 l6 38 l118 0 l24 161 l-118 0 l6 38 l118 0 l32 209 l40 0 l-32 -209 l164 0 l32 209 l40 0 l-32 -209 l118 0 l-6 -38 l-118 0 l-24 -161 l118 0 l-6 -38 l-118 0 l-33 -221 ZM374 259 l24 161 l-164 0 l-24 -161 l164 0 Z" /><glyph glyph-name="dollar" unicode="$" d="M443 581 l-32 -27 q-5 12 -13.5 25 q-8.5 13 -34 32.5 q-25.5 19.5 -56.5 24.5 l0 -270 q70 -32 99 -53 q71 -49 71 -129 q0 -68 -47 -124 q-47 -56 -123 -68 l0 -99 l-40 0 l0 96 q-93 0 -153 70 q-29 34 -43 73 l38 18 q12 -36 36 -64 q44 -55 122 -57 l0 310 l-25 12 q-48 23 -72 40.5 q-24 17.5 -39 42.5 q-21 35 -21 76 q0 68 44 115.5 q44 47.5 113 50.5 l0 89 l40 0 l0 -89 q93 -11 136 -95 ZM307 319 l0 -287 q56 12 90 55 q34 43 34 96 q0 65 -65 105 q-2 1 -8 4.5 q-6 3.5 -19 10.5 q-13 7 -32 16 ZM267 386 l0 250 q-51 -3 -81 -40 q-30 -37 -30 -84 q0 -44 27 -73.5 q27 -29.5 84 -52.5 Z" /><glyph glyph-name="percent" unicode="%" d="M71 636 q37 37 98 37 q61 0 98 -37 q37 -37 37 -94 q0 -57 -37 -94 q-37 -37 -98 -37 q-61 0 -98 37 q-37 37 -37 94 q0 57 37 94 ZM99 476 q25 -29 70 -29 q45 0 70 29 q25 29 25 66 q0 37 -25 66 q-25 29 -70 29 q-45 0 -70 -29 q-25 -29 -25 -66 q0 -37 25 -66 ZM92 1 l394 681 l30 -16 l-394 -681 l-30 16 ZM341 219 q37 37 98 37 q61 0 98 -37 q37 -37 37 -94 q0 -57 -37 -94 q-37 -37 -98 -37 q-61 0 -98 37 q-37 37 -37 94 q0 57 37 94 ZM369 59 q25 -29 70 -29 q45 0 70 29 q25 29 25 66 q0 37 -25 66 q-25 29 -70 29 q-45 0 -70 -29 q-25 -29 -25 -66 q0 -37 25 -66 Z" /><glyph glyph-name="ampersand" unicode="&amp;" d="M567 259 l32 -27 q-39 -53 -85 -97 l100 -135 l-56 0 l-77 105 q-76 -63 -118 -85 q-65 -33 -124 -33 q-73 0 -121 46 q-52 50 -52 126 q0 73 44 126 q27 33 84 71 l71 46 q-39 61 -53 89.5 q-14 28.5 -14 58.5 q0 54 38 92 q36 37 92 37 q49 0 85 -33 q37 -34 37 -91 q0 -58 -49 -107 q-24 -24 -75 -58 l163 -220 q34 34 78 89 ZM456 140 l-167 228 l-63 -41 q-59 -38 -85 -73 q-29 -40 -29 -92 q0 -60 35 -97 q36 -38 93 -38 q55 0 117 36 q49 27 99 77 ZM301 424 q50 32 74 57 q31 33 31 73 q0 37 -23 60 q-23 23 -58 23 q-32 0 -55 -22 q-28 -26 -28 -67 q0 -16 7 -34.5 q7 -18.5 13.5 -29.5 q6.5 -11 20.5 -32.5 q14 -21.5 18 -27.5 Z" /><glyph glyph-name="quotesingle" unicode="&#39;" d="M104 667 l-7 -269 l-30 0 l-7 269 l44 0 Z" /><glyph glyph-name="parenleft" unicode="(" d="M146 290 q0 -106 21 -232 q16 -103 45 -195 l-38 -23 q-27 76 -48 183 q-26 134 -26 267 q0 134 26 267 q21 107 48 183 l38 -23 q-28 -86 -45 -195 q-21 -130 -21 -232 Z" /><glyph glyph-name="parenright" unicode=")" d="M108 -160 l-38 23 q29 92 45 195 q21 126 21 232 q0 102 -21 232 q-17 109 -45 195 l38 23 q27 -76 48 -183 q26 -133 26 -267 q0 -133 -26 -267 q-21 -107 -48 -183 Z" /><glyph glyph-name="asterisk" unicode="*" d="M130 640 l125 -44 l-3 133 l44 0 l-3 -133 l125 44 l14 -41 l-128 -38 l81 -106 l-35 -25 l-76 110 l-76 -110 l-35 25 l81 106 l-128 38 l14 41 Z" /><glyph glyph-name="plus" unicode="+" d="M33 310 l0 38 l197 0 l0 182 l40 0 l0 -182 l197 0 l0 -38 l-197 0 l0 -182 l-40 0 l0 182 l-197 0 Z" /><glyph glyph-name="comma" unicode="," d="M38 -137 l60 202 l40 -12 l-74 -200 l-26 10 Z" /><glyph glyph-name="hyphen" unicode="-" d="M50 184 l0 46 l200 0 l0 -46 l-200 0 Z" /><glyph glyph-name="period" unicode="." d="M74.5 3.5 q-10.5 10.5 -10.5 26.5 q0 16 10.5 26.5 q10.5 10.5 26.5 10.5 q16 0 26.5 -10.5 q10.5 -10.5 10.5 -26.5 q0 -16 -10.5 -26.5 q-10.5 -10.5 -26.5 -10.5 q-16 0 -26.5 10.5 Z" /><glyph glyph-name="slash" unicode="/" d="M20 -158 l504 901 l32 -16 l-504 -901 l-32 16 Z" /><glyph glyph-name="zero" unicode="0" d="M117 595 q67 81 157 81 q90 0 157 -81 q85 -101 85 -262 q0 -161 -85 -262 q-69 -82 -157 -82 q-88 0 -157 82 q-85 101 -85 262 q0 161 85 262 ZM150 97 q55 -68 124 -68 q69 0 124 68 q72 89 72 236 q0 147 -72 236 q-54 67 -124 67 q-70 0 -124 -67 q-72 -89 -72 -236 q0 -147 72 -236 Z" /><glyph glyph-name="one" unicode="1" d="M272 0 l0 627 l-104 0 l20 40 l128 0 l0 -667 l-44 0 Z" /><glyph glyph-name="two" unicode="2" d="M471 0 l-411 0 l256 282 q53 60 73 90 q39 60 39 114 q0 64 -43.5 107 q-43.5 43 -111.5 43 q-72 0 -115 -49 q-39 -43 -39 -109 l-44 0 q0 85 53 140 q56 58 148 58 q86 0 142 -54.5 q56 -54.5 56 -135.5 q0 -71 -48 -137 q-23 -32 -59 -72 l-214 -237 l318 0 l0 -40 Z" /><glyph glyph-name="three" unicode="3" d="M76 162 l44 0 q2 -39 22 -71 q19 -27 52 -44.5 q33 -17.5 66 -17.5 q61 0 105.5 46 q44.5 46 44.5 109 q0 82 -63 122 q-31 20 -85 20 l0 40 q54 0 90 31 q49 41 49 109 q0 56 -34 93 q-34 37 -94 37 q-62 0 -96 -39 q-32 -35 -34 -89 l-42 0 q1 71 49 120 q47 48 123 48 q80 0 127 -48 q47 -48 47 -119 q0 -50 -25 -94.5 q-25 -44.5 -80 -66.5 q53 -17 83.5 -61 q30.5 -44 30.5 -102 q0 -83 -57 -139.5 q-57 -56.5 -139 -56.5 q-47 0 -91 23 q-44 23 -69 64 q-24 39 -24 86 Z" /><glyph glyph-name="four" unicode="4" d="M415 689 l0 -522 l93 0 l0 -40 l-93 0 l0 -127 l-44 0 l0 127 l-359 0 l403 562 ZM90 167 l281 0 l0 392 l-281 -392 Z" /><glyph glyph-name="five" unicode="5" d="M470 667 l0 -40 l-224 0 l-56 -180 q24 6 45 6 q105 0 168.5 -65 q63.5 -65 63.5 -166 q0 -105 -68.5 -169 q-68.5 -64 -168.5 -64 q-136 0 -200 110 l39 16 q58 -86 162 -86 q83 0 136.5 54 q53.5 54 53.5 138 q0 85 -52.5 138.5 q-52.5 53.5 -135.5 53.5 q-57 0 -104 -29 l86 283 l255 0 Z" /><glyph glyph-name="six" unicode="6" d="M301 676 l34 -26 l-148 -210 q43 18 91 18 q100 0 166 -66 q66 -66 66 -167 q0 -101 -67 -168.5 q-67 -67.5 -171 -67.5 q-102 0 -169 66.5 q-67 66.5 -67 170.5 q0 73 43 136 l222 314 ZM136.5 84.5 q54.5 -55.5 136.5 -55.5 q82 0 136.5 56 q54.5 56 54.5 139 q0 85 -54 139.5 q-54 54.5 -137 54.5 q-83 0 -137 -55 q-54 -55 -54 -139 q0 -84 54.5 -139.5 Z" /><glyph glyph-name="seven" unicode="7" d="M22 14 l432 613 l-405 0 l0 40 l483 0 l-477 -678 l-33 25 Z" /><glyph glyph-name="eight" unicode="8" d="M358 346 q52 -20 80.5 -66 q28.5 -46 28.5 -103 q0 -85 -56 -136.5 q-56 -51.5 -137 -51.5 q-81 0 -137 51.5 q-56 51.5 -56 136.5 q0 57 28.5 103 q28.5 46 80.5 66 q-93 49 -93 154 q0 75 51 125.5 q51 50.5 126 50.5 q75 0 126 -50.5 q51 -50.5 51 -125.5 q0 -105 -93 -154 ZM181.5 403.5 q38.5 -38.5 92.5 -38.5 q54 0 92.5 38.5 q38.5 38.5 38.5 96.5 q0 59 -38 97.5 q-38 38.5 -93 38.5 q-55 0 -93 -38.5 q-38 -38.5 -38 -97.5 q0 -58 38.5 -96.5 ZM167.5 71.5 q40.5 -42.5 106.5 -42.5 q66 0 106.5 42.5 q40.5 42.5 40.5 105.5 q0 66 -41 108 q-41 42 -106 42 q-65 0 -106 -42 q-41 -42 -41 -108 q0 -63 40.5 -105.5 Z" /><glyph glyph-name="nine" unicode="9" d="M247 -11 l-34 26 l148 211 q-43 -18 -91 -18 q-100 0 -166 66 q-66 66 -66 167 q0 101 67 168 q67 67 171 67 q102 0 169 -67 q67 -67 67 -169 q0 -73 -43 -136 l-222 -315 ZM411.5 580.5 q-54.5 55.5 -136.5 55.5 q-82 0 -136.5 -56 q-54.5 -56 -54.5 -138 q0 -85 54.5 -139.5 q54.5 -54.5 136.5 -54.5 q83 0 137 55 q54 55 54 139 q0 83 -54.5 138.5 Z" /><glyph glyph-name="colon" unicode=":" d="M74.5 353.5 q-10.5 10.5 -10.5 26.5 q0 16 10.5 26.5 q10.5 10.5 26.5 10.5 q16 0 26.5 -10.5 q10.5 -10.5 10.5 -26.5 q0 -16 -10.5 -26.5 q-10.5 -10.5 -26.5 -10.5 q-16 0 -26.5 10.5 ZM74.5 -0.5 q-10.5 10.5 -10.5 26.5 q0 16 10.5 26.5 q10.5 10.5 26.5 10.5 q16 0 26.5 -10.5 q10.5 -10.5 10.5 -26.5 q0 -16 -10.5 -26.5 q-10.5 -10.5 -26.5 -10.5 q-16 0 -26.5 10.5 Z" /><glyph glyph-name="semicolon" unicode=";" d="M76.5 353.5 q-10.5 10.5 -10.5 26.5 q0 16 10.5 26.5 q10.5 10.5 26.5 10.5 q16 0 26.5 -10.5 q10.5 -10.5 10.5 -26.5 q0 -16 -10.5 -26.5 q-10.5 -10.5 -26.5 -10.5 q-16 0 -26.5 10.5 ZM38 -137 l60 202 l40 -12 l-74 -200 l-26 10 Z" /><glyph glyph-name="less" unicode="&lt;" d="M33 347 l434 192 l0 -41 l-390 -170 l390 -170 l0 -41 l-434 192 l0 38 Z" /><glyph glyph-name="equal" unicode="=" d="M33 381 l0 38 l434 0 l0 -38 l-434 0 ZM33 239 l0 38 l434 0 l0 -38 l-434 0 Z" /><glyph glyph-name="greater" unicode="&gt;" d="M467 309 l-434 -192 l0 41 l390 170 l-390 170 l0 41 l434 -192 l0 -38 Z" /><glyph glyph-name="question" unicode="?" d="M330 260 l40 0 q0 -53 -21 -88 q-34 -58 -114 -58 q-62 0 -101 36 q-40 37 -40 101 q0 62 44 99 q10 8 22.5 14 q12.5 6 20.5 9 q8 3 26 8 q18 5 23 7 q4 1 16 4.5 q12 3.5 17.5 5.5 q5.5 2 15.5 5.5 q10 3.5 16 7 q6 3.5 13 8.5 q7 5 13 11 q25 29 25 82 q0 57 -30 90 q-31 34 -85 34 q-54 0 -85 -34 q-28 -30 -28 -90 q0 -20 7 -40 l-44 0 q-7 22 -7 46 q0 74 44 116 q45 42 116 42 q74 0 117 -45 q41 -42 41 -117 q0 -65 -36 -106 q-32 -35 -89 -51 q-8 -2 -25.5 -6.5 q-17.5 -4.5 -27 -7.5 q-9.5 -3 -22 -8 q-12.5 -5 -20.5 -12 q-34 -27 -34 -74 q0 -41 25 -68 q27 -29 71 -29 q54 0 79 36 q17 24 17 72 ZM207.5 -0.5 q-10.5 10.5 -10.5 26.5 q0 16 10.5 26.5 q10.5 10.5 26.5 10.5 q16 0 26.5 -10.5 q10.5 -10.5 10.5 -26.5 q0 -16 -10.5 -26.5 q-10.5 -10.5 -26.5 -10.5 q-16 0 -26.5 10.5 Z" /><glyph glyph-name="at" unicode="@" d="M489 413 l15 78 l32 0 q-50 -257 -50 -271 q0 -21 12 -37 q12 -16 35 -16 q52 0 90.5 63 q38.5 63 38.5 148 q0 119 -82 192.5 q-82 73.5 -203 73.5 q-132 0 -221.5 -90 q-89.5 -90 -89.5 -221 q0 -96 50.5 -177 q50.5 -81 137.5 -115 q61 -24 139 -24 q106 0 185 38 l37 18 l12 -29 q-58 -30 -119 -44 q-59 -13 -116 -13 q-157 0 -258.5 97 q-101.5 97 -101.5 247 q0 145 100 244 q100 99 245 99 q131 0 223 -82.5 q92 -82.5 92 -213.5 q0 -101 -49.5 -170 q-49.5 -69 -110.5 -69 q-32 0 -51.5 19 q-19.5 19 -19.5 54 q-20 -36 -54 -55.5 q-34 -19.5 -72 -19.5 q-63 0 -101 46.5 q-38 46.5 -38 114.5 q0 85 49.5 145.5 q49.5 60.5 125.5 60.5 q11 0 22 -2 q11 -2 32.5 -9 q21.5 -7 38.5 -27.5 q17 -20.5 25 -52.5 ZM340 169 q54 0 92.5 51.5 q38.5 51.5 38.5 135.5 q0 15 -2.5 29.5 q-2.5 14.5 -11 37 q-8.5 22.5 -30 36 q-21.5 13.5 -53.5 13.5 q-65 0 -104 -51.5 q-39 -51.5 -39 -121.5 q0 -61 32.5 -95.5 q32.5 -34.5 76.5 -34.5 Z" /><glyph glyph-name="A" unicode="a" d="M524 0 l-89 219 l-284 0 l-89 -219 l-48 0 l281 687 l277 -687 l-48 0 ZM167 259 l252 0 l-125 316 l-127 -316 Z" /><glyph glyph-name="B" unicode="b" d="M90 0 l0 667 l146 0 q86 0 135 -45.5 q49 -45.5 49 -121.5 q0 -98 -78 -146 q64 -10 101 -56 q37 -46 37 -111 q0 -86 -57.5 -136.5 q-57.5 -50.5 -149.5 -50.5 l-183 0 ZM134 627 l0 -262 l106 0 q57 0 91 28 q44 36 44 102 q0 67 -45 104 q-36 28 -111 28 l-85 0 ZM134 325 l0 -285 l112 0 q31 0 49 1.5 q18 1.5 46.5 10.5 q28.5 9 49.5 28 q43 38 43 102 q0 91 -71 124 q-43 19 -125 19 l-104 0 Z" /><glyph glyph-name="C" unicode="c" d="M624 589 l0 -58 q-43 50 -101.5 77.5 q-58.5 27.5 -123.5 27.5 q-127 0 -213 -89 q-86 -89 -86 -217 q0 -71 27.5 -130 q27.5 -59 72 -95.5 q44.5 -36.5 96.5 -56 q52 -19.5 104 -19.5 q56 0 116 24.5 q60 24.5 108 76.5 l0 -58 q-94 -83 -222 -83 q-148 0 -248 101 q-100 101 -100 242 q0 144 101 244 q101 100 245 100 q132 0 224 -87 Z" /><glyph glyph-name="D" unicode="d" d="M222 0 l-132 0 l0 667 l132 0 q153 0 246 -93 q49 -49 72.5 -114 q23.5 -65 23.5 -127 q0 -61 -23 -125.5 q-23 -64.5 -73 -114.5 q-93 -93 -246 -93 ZM134 627 l0 -587 l87 0 q132 0 214.5 81.5 q82.5 81.5 82.5 211.5 q0 129 -83 211.5 q-83 82.5 -214 82.5 l-87 0 Z" /><glyph glyph-name="E" unicode="e" d="M410 667 l0 -40 l-276 0 l0 -242 l270 0 l0 -40 l-270 0 l0 -305 l276 0 l0 -40 l-320 0 l0 667 l320 0 Z" /><glyph glyph-name="F" unicode="f" d="M360 667 l0 -40 l-226 0 l0 -242 l220 0 l0 -40 l-220 0 l0 -345 l-44 0 l0 667 l270 0 Z" /><glyph glyph-name="G" unicode="g" d="M438 280 l0 40 l280 0 q0 -132 -68 -219 q-88 -112 -251 -112 q-148 0 -246.5 97 q-98.5 97 -98.5 246 q0 147 100.5 245.5 q100.5 98.5 247.5 98.5 q115 0 209 -72 q46 -36 80 -84 l-35 -28 q-24 41 -64 74 q-84 70 -191 70 q-128 0 -214.5 -89 q-86.5 -89 -86.5 -217 q0 -126 85 -213.5 q85 -87.5 213 -87.5 q79 0 140.5 33.5 q61.5 33.5 91.5 79.5 q40 62 44 138 l-236 0 Z" /><glyph glyph-name="H" unicode="h" d="M134 667 l0 -283 l404 0 l0 283 l44 0 l0 -667 l-44 0 l0 344 l-404 0 l0 -344 l-44 0 l0 667 l44 0 Z" /><glyph glyph-name="I" unicode="i" d="M90 667 l44 0 l0 -667 l-44 0 l0 667 Z" /><glyph glyph-name="J" unicode="j" d="M129 667 l44 0 l0 -537 q0 -76 -33 -110 q-31 -31 -83 -31 q-42 0 -73 25 q-22 18 -39 45 l31 26 q13 -25 31 -38 q24 -18 52 -18 q29 0 48 19 q22 22 22 75 l0 544 Z" /><glyph glyph-name="K" unicode="k" d="M134 667 l0 -314 l315 314 l58 0 l-323 -319 l342 -348 l-60 0 l-314 318 l-18 -17 l0 -301 l-44 0 l0 667 l44 0 Z" /><glyph glyph-name="L" unicode="l" d="M90 667 l44 0 l0 -627 l186 0 l0 -40 l-230 0 l0 667 Z" /><glyph glyph-name="M" unicode="m" d="M127 0 l-44 0 l76 690 l289 -617 l289 617 l76 -690 l-44 0 l-59 536 q-261 -560 -262 -560 l-262 560 l-59 -536 Z" /><glyph glyph-name="N" unicode="n" d="M134 0 l-44 0 l0 674 l560 -586 l0 579 l44 0 l0 -684 l-560 586 l0 -569 Z" /><glyph glyph-name="O" unicode="o" d="M154 576 q100 100 246 100 q146 0 246 -100 q100 -100 100 -244 q0 -144 -100 -243.5 q-100 -99.5 -246 -99.5 q-147 0 -246.5 99.5 q-99.5 99.5 -99.5 243.5 q0 144 100 244 ZM186 116.5 q86 -87.5 214 -87.5 q128 0 214 87.5 q86 87.5 86 215.5 q0 129 -86 216.5 q-86 87.5 -214 87.5 q-128 0 -214 -87.5 q-86 -87.5 -86 -216.5 q0 -128 86 -215.5 Z" /><glyph glyph-name="P" unicode="p" d="M220 317 l-86 0 l0 -317 l-44 0 l0 667 l129 0 q85 0 140 -45.5 q55 -45.5 55 -128.5 q0 -82 -53 -129 q-53 -47 -141 -47 ZM134 627 l0 -270 l88 0 q66 0 106 36.5 q40 36.5 40 98.5 q0 63 -40.5 99 q-40.5 36 -112.5 36 l-81 0 Z" /><glyph glyph-name="Q" unicode="q" d="M736 0 l-58 0 l-59 64 q-95 -75 -219 -75 q-146 0 -246 99.5 q-100 99.5 -100 243.5 q0 144 100 244 q100 100 246 100 q145 0 245.5 -100 q100.5 -100 100.5 -244 q0 -139 -96 -240 l86 -92 ZM400 29 q108 0 191 65 l-167 179 l58 0 l139 -150 q79 86 79 209 q0 128 -86 216 q-86 88 -214 88 q-128 0 -214 -87.5 q-86 -87.5 -86 -216.5 q0 -128 86 -215.5 q86 -87.5 214 -87.5 Z" /><glyph glyph-name="R" unicode="r" d="M420 0 l-50 0 l-216 315 l-20 0 l0 -315 l-44 0 l0 667 l96 0 q91 0 141 -34 q69 -48 69 -143 q0 -55 -27 -98.5 q-27 -43.5 -85 -63.5 q-38 -13 -82 -13 l218 -315 ZM134 627 l0 -272 l64 0 q71 0 111.5 36 q40.5 36 40.5 100 q0 84 -59 116 q-35 20 -102 20 l-55 0 Z" /><glyph glyph-name="S" unicode="s" d="M426 581 l-32 -27 q-42 82 -131 82 q-57 0 -90.5 -36 q-33.5 -36 -33.5 -88 q0 -26 7.5 -45 q7.5 -19 27 -35 q19.5 -16 34.5 -24.5 q15 -8.5 48 -24.5 q108 -52 133 -70 q71 -49 71 -129 q0 -83 -61 -139 q-61 -56 -147 -56 q-95 0 -155 70 q-29 34 -43 73 l38 18 q12 -36 36 -64 q45 -57 125 -57 q68 0 114.5 44 q46.5 44 46.5 110 q0 65 -65 105 q-29 17 -113 58 q-55 27 -80.5 44 q-25.5 17 -41.5 44 q-21 35 -21 76 q0 65 44 115.5 q44 50.5 127 50.5 q51 0 94 -24.5 q43 -24.5 68 -70.5 Z" /><glyph glyph-name="T" unicode="t" d="M404 627 l-173 0 l0 -627 l-44 0 l0 627 l-173 0 l0 40 l390 0 l0 -40 Z" /><glyph glyph-name="U" unicode="u" d="M90 667 l44 0 l0 -417 q0 -53 5.5 -84.5 q5.5 -31.5 22.5 -59.5 q26 -42 69.5 -59.5 q43.5 -17.5 85.5 -17.5 q42 0 85.5 17.5 q43.5 17.5 69.5 59.5 q17 28 22.5 59.5 q5.5 31.5 5.5 84.5 l0 417 l44 0 l0 -417 q0 -62 -7 -99 q-7 -37 -31 -72 q-62 -90 -189 -90 q-127 0 -189 90 q-24 35 -31 72 q-7 37 -7 99 l0 417 Z" /><glyph glyph-name="V" unicode="v" d="M14 667 l48 0 l196 -568 l190 568 l48 0 l-238 -694 l-244 694 Z" /><glyph glyph-name="W" unicode="w" d="M14 667 l48 0 l184 -566 l241 602 l226 -602 l209 566 l48 0 l-257 -692 l-226 606 l-248 -606 l-225 692 Z" /><glyph glyph-name="X" unicode="x" d="M23 0 l183 340 l-175 327 l48 0 l151 -285 l152 285 l48 0 l-174 -327 l183 -340 l-48 0 l-161 300 l-159 -300 l-48 0 Z" /><glyph glyph-name="Y" unicode="y" d="M233 0 l0 285 l-219 382 l50 0 l192 -337 l196 337 l50 0 l-225 -382 l0 -285 l-44 0 Z" /><glyph glyph-name="Z" unicode="z" d="M517 667 l-406 -627 l395 0 l0 -40 l-469 0 l406 627 l-367 0 l0 40 l441 0 Z" /><glyph glyph-name="bracketleft" unicode="[" d="M238 689 l-106 0 l0 -809 l106 0 l0 -40 l-150 0 l0 889 l150 0 l0 -40 Z" /><glyph glyph-name="backslash" unicode="\" d="M556 -158 l-32 -16 l-504 901 l32 16 l504 -901 Z" /><glyph glyph-name="bracketright" unicode="]" d="M40 -120 l106 0 l0 809 l-106 0 l0 40 l150 0 l0 -889 l-150 0 l0 40 Z" /><glyph glyph-name="asciicircum" unicode="^" d="M250 636 l-167 -254 l-46 0 l186 285 l54 0 l186 -285 l-46 0 l-167 254 Z" /><glyph glyph-name="underscore" unicode="_" d="M0 -116 l0 38 l500 0 l0 -38 l-500 0 Z" /><glyph glyph-name="grave" unicode="`" d="M248 467 l-105 128 l43 25 l92 -137 l-30 -16 Z" /><glyph glyph-name="a" unicode="a" d="M404 337 l0 71 l40 0 l0 -408 l-40 0 l0 73 q-55 -84 -159 -84 q-83 0 -141 59 q-58 59 -58 156 q0 95 55 154 q55 59 144 59 q102 0 159 -80 ZM247 379 q-65 0 -112 -46.5 q-47 -46.5 -47 -125.5 q0 -73 43 -126.5 q43 -53.5 117 -53.5 q73 0 115.5 52.5 q42.5 52.5 42.5 127.5 q0 83 -49 127.5 q-49 44.5 -110 44.5 Z" /><glyph glyph-name="b" unicode="b" d="M72 729 l40 0 l0 -392 q59 80 160 80 q90 0 144 -59.5 q54 -59.5 54 -150.5 q0 -93 -54.5 -155.5 q-54.5 -62.5 -145.5 -62.5 q-46 0 -83 18.5 q-37 18.5 -51 34 q-14 15.5 -24 31.5 l0 -73 l-40 0 l0 729 ZM152 78.5 q42 -51.5 117 -51.5 q75 0 117 51 q42 51 42 129 q0 81 -46 126.5 q-46 45.5 -112 45.5 q-65 0 -112.5 -45 q-47.5 -45 -47.5 -125 q0 -79 42 -130.5 Z" /><glyph glyph-name="c" unicode="c" d="M399 365 l0 -53 q-58 67 -141 67 q-74 0 -122 -50.5 q-48 -50.5 -48 -126.5 q0 -82 51 -128.5 q51 -46.5 117 -46.5 q81 0 148 73 l0 -54 q-64 -57 -149 -57 q-92 0 -150.5 60.5 q-58.5 60.5 -58.5 151.5 q0 93 58 154.5 q58 61.5 154 61.5 q79 0 141 -52 Z" /><glyph glyph-name="d" unicode="d" d="M404 337 l0 392 l40 0 l0 -729 l-40 0 l0 73 q-55 -84 -158 -84 q-83 0 -141.5 57.5 q-58.5 57.5 -58.5 159.5 q0 104 59 157.5 q59 53.5 141 53.5 q102 0 158 -80 ZM246 379 q-67 0 -112.5 -45 q-45.5 -45 -45.5 -127 q0 -85 47 -132.5 q47 -47.5 113 -47.5 q65 0 111.5 47.5 q46.5 47.5 46.5 132.5 q0 74 -43 123 q-43 49 -117 49 Z" /><glyph glyph-name="e" unicode="e" d="M437 199 l-349 0 q0 -76 47.5 -124 q47.5 -48 114.5 -48 q48 0 85 25.5 q37 25.5 57 67.5 l34 -20 q-23 -44 -67 -77.5 q-44 -33.5 -112 -33.5 q-93 0 -147 60.5 q-54 60.5 -54 152.5 q0 101 58.5 158 q58.5 57 139.5 57 q83 0 138 -61 q55 -61 55 -157 ZM91 237 l304 0 q-8 62 -49.5 102 q-41.5 40 -101.5 40 q-61 0 -103 -40.5 q-42 -40.5 -50 -101.5 Z" /><glyph glyph-name="f" unicode="f" d="M214 370 l-102 0 l0 -370 l-40 0 l0 370 l-46 0 l0 38 l46 0 l0 194 q0 78 31 108.5 q31 30.5 76 30.5 q14 0 35 -6 l0 -37 q-12 5 -31 5 q-32 0 -51.5 -22.5 q-19.5 -22.5 -19.5 -86.5 l0 -186 l102 0 l0 -38 Z" /><glyph glyph-name="g" unicode="g" d="M408 408 l40 0 l0 -396 q0 -115 -54.5 -178.5 q-54.5 -63.5 -150.5 -63.5 q-83 0 -139.5 46.5 q-56.5 46.5 -60.5 128.5 l42 0 q5 -63 48.5 -100 q43.5 -37 109.5 -37 q45 0 78.5 18 q33.5 18 49.5 41 q16 23 25 56 q9 33 10.5 51 q1.5 18 1.5 38 l0 58 q-58 -81 -161 -81 q-81 0 -141 57 q-60 57 -60 158 q0 91 56 152 q56 61 150 61 q100 0 156 -80 l0 71 ZM365.5 329 q-44.5 50 -117.5 50 q-73 0 -116.5 -51.5 q-43.5 -51.5 -43.5 -125.5 q0 -75 43.5 -125 q43.5 -50 114.5 -50 q74 0 119 51 q45 51 45 128 q0 73 -44.5 123 Z" /><glyph glyph-name="h" unicode="h" d="M72 0 l0 729 l40 0 l0 -385 q41 73 125 73 q76 0 113 -57 q20 -32 20 -103 l0 -257 l-40 0 l0 257 q0 57 -16 82 q-24 40 -80 40 q-68 0 -100 -57 q-22 -39 -22 -110 l0 -212 l-40 0 Z" /><glyph glyph-name="i" unicode="i" d="M72 408 l40 0 l0 -408 l-40 0 l0 408 ZM117.5 517.5 q-10.5 -10.5 -25.5 -10.5 q-15 0 -25.5 10.5 q-10.5 10.5 -10.5 26.5 q0 16 10.5 26.5 q10.5 10.5 25.5 10.5 q15 0 25.5 -10.5 q10.5 -10.5 10.5 -26.5 q0 -16 -10.5 -26.5 Z" /><glyph glyph-name="j" unicode="j" d="M72 408 l40 0 l0 -638 l-40 0 l0 638 ZM117.5 517.5 q-10.5 -10.5 -25.5 -10.5 q-15 0 -25.5 10.5 q-10.5 10.5 -10.5 26.5 q0 16 10.5 26.5 q10.5 10.5 25.5 10.5 q15 0 25.5 -10.5 q10.5 -10.5 10.5 -26.5 q0 -16 -10.5 -26.5 Z" /><glyph glyph-name="k" unicode="k" d="M72 729 l40 0 l0 -496 l168 175 l52 0 l-172 -177 l228 -231 l-54 0 l-201 202 l-21 -21 l0 -181 l-40 0 l0 729 Z" /><glyph glyph-name="l" unicode="l" d="M72 729 l40 0 l0 -729 l-40 0 l0 729 Z" /><glyph glyph-name="m" unicode="m" d="M72 0 l0 408 l40 0 l0 -51 q35 60 106 60 q86 0 114 -74 q35 74 121 74 q58 0 92 -34 q35 -35 35 -111 l0 -272 l-40 0 l0 272 q0 59 -24 84 q-22 23 -61 23 q-30 0 -52.5 -12 q-22.5 -12 -33 -27 q-10.5 -15 -16 -37 q-5.5 -22 -6.5 -33 q-1 -11 -1 -24 l0 -246 l-40 0 l0 262 q0 117 -90 117 q-51 0 -77.5 -39.5 q-26.5 -39.5 -26.5 -103.5 l0 -236 l-40 0 Z" /><glyph glyph-name="n" unicode="n" d="M72 0 l0 408 l40 0 l0 -64 q41 73 125 73 q76 0 113 -57 q20 -32 20 -103 l0 -257 l-40 0 l0 257 q0 57 -16 82 q-24 40 -80 40 q-68 0 -100 -57 q-22 -39 -22 -110 l0 -212 l-40 0 Z" /><glyph glyph-name="o" unicode="o" d="M107.5 355.5 q61.5 61.5 152.5 61.5 q91 0 152.5 -61.5 q61.5 -61.5 61.5 -152.5 q0 -91 -61.5 -152.5 q-61.5 -61.5 -152.5 -61.5 q-91 0 -152.5 61.5 q-61.5 61.5 -61.5 152.5 q0 91 61.5 152.5 ZM137.5 78 q49.5 -51 122.5 -51 q73 0 122.5 51 q49.5 51 49.5 125 q0 74 -49.5 125 q-49.5 51 -122.5 51 q-73 0 -122.5 -51 q-49.5 -51 -49.5 -125 q0 -74 49.5 -125 Z" /><glyph glyph-name="p" unicode="p" d="M112 73 l0 -303 l-40 0 l0 638 l40 0 l0 -71 q59 80 160 80 q90 0 144 -59.5 q54 -59.5 54 -150.5 q0 -93 -54.5 -155.5 q-54.5 -62.5 -145.5 -62.5 q-46 0 -83 18.5 q-37 18.5 -51 34 q-14 15.5 -24 31.5 ZM152 78.5 q42 -51.5 117 -51.5 q75 0 117 51 q42 51 42 129 q0 81 -46 126.5 q-46 45.5 -112 45.5 q-65 0 -112.5 -45 q-47.5 -45 -47.5 -125 q0 -79 42 -130.5 Z" /><glyph glyph-name="q" unicode="q" d="M444 -230 l-40 0 l0 303 q-55 -84 -158 -84 q-83 0 -141.5 57.5 q-58.5 57.5 -58.5 159.5 q0 104 59 157.5 q59 53.5 141 53.5 q102 0 158 -80 l0 71 l40 0 l0 -638 ZM246 379 q-67 0 -112.5 -45 q-45.5 -45 -45.5 -127 q0 -85 47 -132.5 q47 -47.5 113 -47.5 q65 0 111.5 47.5 q46.5 47.5 46.5 132.5 q0 74 -43 123 q-43 49 -117 49 Z" /><glyph glyph-name="r" unicode="r" d="M72 0 l0 408 l40 0 l0 -53 q27 62 90 62 q24 0 43 -10 l-20 -36 q-11 8 -30 8 q-29 0 -47.5 -16.5 q-18.5 -16.5 -25 -46 q-6.5 -29.5 -8.5 -49.5 q-2 -20 -2 -48 l0 -219 l-40 0 Z" /><glyph glyph-name="s" unicode="s" d="M280 351 l-34 -18 q-20 46 -71 46 q-32 0 -50.5 -20 q-18.5 -20 -18.5 -45 q0 -19 11 -32.5 q11 -13.5 23 -20 q12 -6.5 38 -16.5 q4 -1 19.5 -7.5 q15.5 -6.5 20.5 -8.5 q5 -2 17.5 -7.5 q12.5 -5.5 18.5 -10 q6 -4.5 14.5 -11.5 q8.5 -7 14.5 -15 q21 -26 21 -66 q0 -65 -39.5 -97.5 q-39.5 -32.5 -93.5 -32.5 q-52 0 -90 29 q-38 29 -51 79 l39 12 q10 -39 38.5 -60.5 q28.5 -21.5 63.5 -21.5 q39 0 65 25.5 q26 25.5 26 64.5 q0 32 -20 49.5 q-20 17.5 -71 38.5 q-70 29 -89 54 q-18 24 -18 53 q0 46 31 75.5 q31 29.5 78 29.5 q79 0 107 -66 Z" /><glyph glyph-name="t" unicode="t" d="M186 370 l-71 0 l0 -370 l-40 0 l0 370 l-45 0 l0 38 l45 0 l0 146 l40 0 l0 -146 l71 0 l0 -38 Z" /><glyph glyph-name="u" unicode="u" d="M72 408 l40 0 l0 -246 q0 -71 26 -102 q28 -33 81 -33 q53 0 81 33 q26 31 26 102 l0 246 l40 0 l0 -257 q0 -72 -31 -112 q-39 -50 -116 -50 q-77 0 -116 50 q-31 40 -31 112 l0 257 Z" /><glyph glyph-name="v" unicode="v" d="M8 408 l44 0 l144 -339 l142 339 l44 0 l-186 -433 l-188 433 Z" /><glyph glyph-name="w" unicode="w" d="M8 408 l44 0 l141 -337 l141 362 l141 -362 l145 337 l44 0 l-189 -433 l-141 362 l-141 -362 l-185 433 Z" /><glyph glyph-name="x" unicode="x" d="M8 0 l165 214 l-151 194 l49 0 l129 -168 l127 168 l49 0 l-148 -194 l164 -214 l-49 0 l-143 188 l-143 -188 l-49 0 Z" /><glyph glyph-name="y" unicode="y" d="M106 -230 l96 223 l-194 415 l46 0 l171 -363 l149 363 l46 0 l-268 -638 l-46 0 Z" /><glyph glyph-name="z" unicode="z" d="M434 408 l-330 -370 l328 0 l0 -38 l-414 0 l334 370 l-282 0 l0 38 l364 0 Z" /><glyph glyph-name="braceleft" unicode="{" d="M40 270 l0 29 q26 7 39.5 24 q13.5 17 16.5 33.5 q3 16.5 3 42.5 l0 194 q0 73 31 104 q32 32 98 32 l12 0 l0 -40 q-57 0 -78 -24 q-19 -21 -19 -75 l0 -194 q0 -48 -13.5 -73.5 q-13.5 -25.5 -50.5 -38.5 q64 -23 64 -116 l0 -182 q0 -62 19 -83 q20 -23 78 -23 l0 -40 l-9 0 q-71 0 -102 34 q-30 33 -30 120 l0 176 q0 17 -1.5 29 q-1.5 12 -6.5 28.5 q-5 16.5 -18 27 q-13 10.5 -33 15.5 Z" /><glyph glyph-name="bar" unicode="|" d="M230 -250 l0 1000 l40 0 l0 -1000 l-40 0 Z" /><glyph glyph-name="braceright" unicode="}" d="M238 299 l0 -29 q-20 -5 -33 -15.5 q-13 -10.5 -18 -27 q-5 -16.5 -6.5 -28.5 q-1.5 -12 -1.5 -29 l0 -176 q0 -87 -30 -120 q-31 -34 -102 -34 l-9 0 l0 40 q58 0 78 23 q19 21 19 83 l0 182 q0 93 64 116 q-37 13 -50.5 38.5 q-13.5 25.5 -13.5 73.5 l0 194 q0 54 -19 75 q-21 24 -78 24 l0 40 l12 0 q66 0 98 -32 q31 -31 31 -104 l0 -194 q0 -26 3 -42.5 q3 -16.5 16.5 -33.5 q13.5 -17 39.5 -24 Z" /><glyph glyph-name="asciitilde" unicode="~" d="M39 195 l-27 16 q18 38 47 67 q37 35 85 35 q37 0 113 -40 q72 -37 103 -37 q38 0 65 27 q19 19 36 51 l27 -16 q-18 -36 -39 -58 q-40 -42 -95 -42 q-44 0 -138 52 q-46 25 -75 25 q-37 0 -64 -26 q-22 -21 -38 -54 Z" /><glyph glyph-name="nonbreakingspace" unicode=" " d="" /><glyph glyph-name="exclamdown" unicode="¡" d="M108 318 l44 0 l0 -548 l-44 0 l0 548 ZM156.5 433.5 q10.5 -10.5 10.5 -26.5 q0 -16 -10.5 -26.5 q-10.5 -10.5 -26.5 -10.5 q-16 0 -26.5 10.5 q-10.5 10.5 -10.5 26.5 q0 16 10.5 26.5 q10.5 10.5 26.5 10.5 q16 0 26.5 -10.5 Z" /><glyph glyph-name="cent" unicode="¢" d="M319 655 l0 -102 q68 0 129 -51 l0 -53 q-58 62 -129 66 l0 -350 q76 3 134 72 l0 -54 q-61 -53 -134 -56 l0 -114 l-38 0 l0 114 q-83 11 -134.5 69.5 q-51.5 58.5 -51.5 141.5 q0 86 51.5 144.5 q51.5 58.5 134.5 69.5 l0 103 l38 0 ZM281 165 l0 349 q-71 -13 -107.5 -63.5 q-36.5 -50.5 -36.5 -111.5 q0 -60 37.5 -111.5 q37.5 -51.5 106.5 -62.5 Z" /><glyph glyph-name="sterling" unicode="£" d="M97 273 l0 40 l98 0 l-21 35 q-26 44 -40 70 q-23 46 -23 84 q0 72 51 122 q52 50 128 50 q70 0 116 -45 q53 -53 53 -140 l-44 0 q0 75 -42 113 q-35 32 -84 32 q-58 0 -96 -39 q-36 -37 -36 -88 q0 -39 27 -89 q10 -19 46 -77 l17 -28 l121 0 l0 -40 l-108 0 q22 -44 22 -88 q0 -55 -46 -115 l65 -22 q51 -17 72 -17 q33 0 57 21 q24 21 37 48 l36 -22 q-19 -37 -52 -64 q-33 -27 -73 -27 q-12 0 -28 3.5 q-16 3.5 -27 7 q-11 3.5 -34 11 q-23 7.5 -31 10.5 q-51 17 -74 17 q-41 0 -91 -46 l-24 32 q53 57 119 57 q50 52 50 106 q0 44 -27 88 l-114 0 Z" /><glyph glyph-name="currency" unicode="¤" d="M40 90 l-24 25 l90 89 q-56 62 -56 146 q0 83 53 143 l-90 90 l24 24 l90 -89 q61 56 147 56 q86 0 147 -56 l90 89 l24 -24 l-90 -90 q54 -59 54 -144 q0 -78 -55 -143 l91 -91 l-24 -24 l-91 91 q-60 -55 -144 -55 q-84 0 -146 53 l-90 -90 ZM406 218 q55 55 55 132 q0 77 -55 132.5 q-55 55.5 -132 55.5 q-77 0 -131.5 -55.5 q-54.5 -55.5 -54.5 -132.5 q0 -77 54.5 -132 q54.5 -55 131.5 -55 q77 0 132 55 Z" /><glyph glyph-name="yen" unicode="¥" d="M500 391 l-145 0 l-61 -103 l206 0 l0 -40 l-207 0 l0 -248 l-44 0 l0 248 l-200 0 l0 40 l198 0 l-59 103 l-139 0 l0 40 l116 0 l-134 236 l51 0 l190 -335 l194 335 l51 0 l-139 -236 l122 0 l0 -40 Z" /><glyph glyph-name="brokenbar" unicode="¦" d="M230 390 l0 360 l40 0 l0 -360 l-40 0 ZM230 -250 l0 360 l40 0 l0 -360 l-40 0 Z" /><glyph glyph-name="section" unicode="§" d="M116 13 l44 0 q0 -72 28 -101 q32 -32 88 -32 q53 0 84 31 q31 31 31 79 q0 52 -33 83 q-27 26 -104 47 q-73 20 -106 50 q-48 44 -48 116 q0 63 33 105 q31 40 80 58 q-43 20 -67 49 q-29 36 -29 87 q0 69 44 113 q44 42 118 42 q80 0 122 -43 q41 -42 41 -129 l-44 0 l0 9 q0 64 -33 95 q-30 28 -83 28 q-56 0 -88 -30 q-31 -28 -31 -78 q0 -46 31 -76 q12 -12 48.5 -29 q36.5 -17 55.5 -22 q72 -21 108 -57 q42 -42 42 -116 q0 -61 -30 -99 q-27 -36 -74 -54 q45 -22 69 -57 q24 -36 24 -87 q0 -71 -40 -111 q-43 -44 -123 -44 q-76 0 -114 36 q-44 42 -44 137 ZM274 421 q-57 0 -94 -38 q-34 -35 -34 -92 q0 -59 34 -91 q39 -37 94 -37 q55 0 94 39 q34 36 34 90 q0 58 -35 93 q-34 36 -93 36 Z" /><glyph glyph-name="dieresis" unicode="¨" d="M141.5 500.5 q-10.5 10.5 -10.5 25.5 q0 15 10.5 25.5 q10.5 10.5 25.5 10.5 q15 0 25.5 -10.5 q10.5 -10.5 10.5 -25.5 q0 -15 -10.5 -25.5 q-10.5 -10.5 -25.5 -10.5 q-15 0 -25.5 10.5 ZM307.5 500.5 q-10.5 10.5 -10.5 25.5 q0 15 10.5 25.5 q10.5 10.5 25.5 10.5 q15 0 25.5 -10.5 q10.5 -10.5 10.5 -25.5 q0 -15 -10.5 -25.5 q-10.5 -10.5 -25.5 -10.5 q-15 0 -25.5 10.5 Z" /><glyph glyph-name="copyright" unicode="©" d="M27 333 q0 143 100.5 243.5 q100.5 100.5 242.5 100.5 q142 0 242.5 -100.5 q100.5 -100.5 100.5 -243.5 q0 -142 -100.5 -242.5 q-100.5 -100.5 -242.5 -100.5 q-142 0 -242.5 100.5 q-100.5 100.5 -100.5 242.5 ZM588 112 q91 92 91 221 q0 129 -91 221.5 q-91 92.5 -218 92.5 q-127 0 -218 -92.5 q-91 -92.5 -91 -221.5 q0 -129 91 -221 q91 -92 218 -92 q127 0 218 92 ZM513 474 l0 -53 q-50 68 -130 68 q-69 0 -113.5 -45.5 q-44.5 -45.5 -44.5 -115.5 q0 -68 45.5 -113 q45.5 -45 113.5 -45 q77 0 129 65 l0 -52 q-60 -49 -129 -49 q-84 0 -140.5 55.5 q-56.5 55.5 -56.5 139.5 q0 85 56.5 140.5 q56.5 55.5 140.5 55.5 q74 0 129 -51 Z" /><glyph glyph-name="ordfeminine" unicode="ª" d="M266 615 l0 46 l26 0 l0 -268 l-26 0 l0 48 q-16 -24 -41 -38 q-28 -16 -62 -16 q-58 0 -94 36 q-39 39 -39 104 q0 66 39 105 q35 35 96 35 q34 0 60 -15 q24 -13 41 -37 ZM163 643 q-48 0 -76 -30 q-29 -31 -29 -85 q0 -58 34 -90 q29 -27 71 -27 q43 0 71 28 q34 34 34 90 q0 53 -32 85 q-29 29 -73 29 ZM37 325 l255 0 l0 -34 l-255 0 l0 34 Z" /><glyph glyph-name="guillemotleft" unicode="«" d="M80 207 l108 -126 l-26 -24 l-130 150 l130 150 l26 -24 l-108 -126 ZM186 207 l108 -126 l-26 -24 l-130 150 l130 150 l26 -24 l-108 -126 Z" /><glyph glyph-name="logicalnot" unicode="¬" d="M467 0 l-40 0 l0 229 l-394 0 l0 38 l434 0 l0 -267 Z" /><glyph glyph-name="uni00AD" unicode="­" d="M50 184 l0 46 l200 0 l0 -46 l-200 0 Z" /><glyph glyph-name="registered" unicode="®" d="M27 333 q0 143 100.5 243.5 q100.5 100.5 242.5 100.5 q142 0 242.5 -100.5 q100.5 -100.5 100.5 -243.5 q0 -142 -100.5 -242.5 q-100.5 -100.5 -242.5 -100.5 q-142 0 -242.5 100.5 q-100.5 100.5 -100.5 242.5 ZM588 112 q91 92 91 221 q0 129 -91 221.5 q-91 92.5 -218 92.5 q-127 0 -218 -92.5 q-91 -92.5 -91 -221.5 q0 -129 91 -221 q91 -92 218 -92 q127 0 218 92 ZM495 135 l-40 0 l-117 171 l-7 0 l0 -171 l-34 0 l0 370 l62 0 q61 0 89.5 -23.5 q28.5 -23.5 28.5 -77.5 q0 -66 -64 -91 q-10 -4 -19.5 -5.5 q-9.5 -1.5 -13.5 -1.5 l-4 0 l119 -171 ZM331 474 l0 -137 l34 0 q77 0 77 68 q0 24 -8 39 q-8 15 -23 21 q-15 6 -25 7.5 q-10 1.5 -26 1.5 l-29 0 Z" /><glyph glyph-name="macron" unicode="¯" d="M115 493 l0 39 l270 0 l0 -39 l-270 0 Z" /><glyph glyph-name="degree" unicode="°" d="M152.5 630 q37.5 37 97.5 37 q60 0 97.5 -37 q37.5 -37 37.5 -94 q0 -57 -37.5 -94 q-37.5 -37 -97.5 -37 q-60 0 -97.5 37 q-37.5 37 -37.5 94 q0 57 37.5 94 ZM324.5 609.5 q-28.5 29.5 -74.5 29.5 q-46 0 -74.5 -29.5 q-28.5 -29.5 -28.5 -73.5 q0 -44 28.5 -73.5 q28.5 -29.5 74.5 -29.5 q46 0 74.5 29.5 q28.5 29.5 28.5 73.5 q0 44 -28.5 73.5 Z" /><glyph glyph-name="plusminus" unicode="±" d="M33 339 l0 38 l197 0 l0 181 l40 0 l0 -181 l197 0 l0 -38 l-197 0 l0 -181 l-40 0 l0 181 l-197 0 ZM33 76 l0 38 l434 0 l0 -38 l-434 0 Z" /><glyph glyph-name="twosuperior" unicode="²" d="M283 267 l-246 0 l146 169 q32 38 41 53 q21 33 21 70 q0 34 -21.5 55.5 q-21.5 21.5 -58.5 21.5 q-39 0 -62 -25 q-21 -23 -21 -57 l-36 0 q0 50 32 84 q32 34 88 34 q52 0 85.5 -32 q33.5 -32 33.5 -81 q0 -42 -26 -83 q-2 -2 -9 -12 q-7 -10 -13 -18.5 q-6 -8.5 -10 -12.5 l-110 -130 l166 0 l0 -36 Z" /><glyph glyph-name="threesuperior" unicode="³" d="M48 365 l36 0 q2 -22 12 -37 q22 -30 62 -30 q33 0 55.5 24 q22.5 24 22.5 60 q0 46 -40 65 q-21 10 -56 10 l0 36 q34 0 58 17 q33 24 33 61 q0 28 -17 46.5 q-17 18.5 -48 18.5 q-31 0 -49 -19 q-18 -18 -18 -45 l-36 0 q2 43 29 72 q25 28 74 28 q48 0 76.5 -29 q28.5 -29 28.5 -71 q0 -71 -63 -96 q32 -10 50 -36 q18 -26 18 -61 q0 -51 -34 -84 q-34 -33 -84 -33 q-63 0 -96 52 q-14 23 -14 51 Z" /><glyph glyph-name="acute" unicode="´" d="M305 620 l43 -25 l-105 -128 l-30 16 l92 137 Z" /><glyph glyph-name="mu" unicode="µ&#x3bc;" d="M112 -230 l-40 0 l0 638 l40 0 l0 -207 q0 -94 39 -134 q39 -40 93 -40 q59 0 101.5 50 q42.5 50 42.5 136 l0 195 l40 0 l0 -408 l-40 0 l0 90 q-14 -37 -43 -64 q-41 -37 -103 -37 q-87 0 -130 81 l0 -300 Z" /><glyph glyph-name="paragraph" unicode="¶" d="M257 -95 l-36 0 l0 406 l-9 0 q-99 0 -150 54 q-44 46 -44 122 q0 83 55 132 q54 48 159 48 l231 0 l0 -33 l-53 0 l0 -729 l-36 0 l0 729 l-117 0 l0 -729 Z" /><glyph glyph-name="periodcentered" unicode="·" d="M66 306 q-14 14 -14 34 q0 20 14 34 q14 14 34 14 q20 0 34 -14 q14 -14 14 -34 q0 -20 -14 -34 q-14 -14 -34 -14 q-20 0 -34 14 Z" /><glyph glyph-name="cedilla" unicode="¸" d="M268 -50 l46 -20 l-100 -124 l-28 16 l82 128 Z" /><glyph glyph-name="onesuperior" unicode="¹" d="M152 267 l0 364 l-62 0 l12 36 l88 0 l0 -400 l-38 0 Z" /><glyph glyph-name="ordmasculine" unicode="º" d="M174 667 q61 0 100 -42 q38 -41 38 -97 q0 -60 -37 -99 q-39 -42 -105 -42 q-61 0 -100 39 q-40 40 -40 100 q0 60 38 100 q39 41 106 41 ZM37 325 l267 0 l0 -34 l-267 0 l0 34 ZM170 643 q-46 0 -79 -33 q-33 -33 -33 -83 q0 -50 35 -85 q32 -31 76 -31 q47 0 79 30 q36 34 36 86 q0 53 -35 86 q-32 30 -79 30 Z" /><glyph glyph-name="guillemotright" unicode="»" d="M162 207 l-108 126 l26 24 l130 -150 l-130 -150 l-26 24 l108 126 ZM268 207 l-108 126 l26 24 l130 -150 l-130 -150 l-26 24 l108 126 Z" /><glyph glyph-name="onequarter" unicode="¼" d="M152 267 l0 364 l-62 0 l12 36 l88 0 l0 -400 l-38 0 ZM188 1 l394 681 l30 -16 l-394 -681 l-30 16 ZM680 413 l0 -301 l56 0 l0 -36 l-56 0 l0 -76 l-38 0 l0 76 l-204 0 l242 337 ZM508 112 l134 0 l0 190 l-134 -190 Z" /><glyph glyph-name="onehalf" unicode="½" d="M152 267 l0 364 l-62 0 l12 36 l88 0 l0 -400 l-38 0 ZM158 1 l394 681 l30 -16 l-394 -681 l-30 16 ZM713 0 l-246 0 l146 169 q33 38 41 53 q21 33 21 70 q0 34 -21.5 55.5 q-21.5 21.5 -58.5 21.5 q-39 0 -62 -25 q-21 -23 -21 -57 l-36 0 q0 50 32 84 q32 34 88 34 q52 0 85.5 -32 q33.5 -32 33.5 -81 q0 -42 -26 -83 q-2 -2 -9 -12 q-7 -10 -13 -18.5 q-6 -8.5 -10 -12.5 l-110 -130 l166 0 l0 -36 Z" /><glyph glyph-name="threequarters" unicode="¾" d="M48 365 l36 0 q2 -22 12 -37 q22 -30 62 -30 q33 0 55.5 24 q22.5 24 22.5 60 q0 46 -40 65 q-21 10 -56 10 l0 36 q34 0 58 17 q33 24 33 61 q0 28 -17 46.5 q-17 18.5 -48 18.5 q-31 0 -49 -19 q-18 -18 -18 -45 l-36 0 q2 43 29 72 q25 28 74 28 q48 0 76.5 -29 q28.5 -29 28.5 -71 q0 -71 -63 -96 q32 -10 50 -36 q18 -26 18 -61 q0 -51 -34 -84 q-34 -33 -84 -33 q-63 0 -96 52 q-14 23 -14 51 ZM208 1 l394 681 l30 -16 l-394 -681 l-30 16 ZM680 413 l0 -301 l56 0 l0 -36 l-56 0 l0 -76 l-38 0 l0 76 l-204 0 l242 337 ZM508 112 l134 0 l0 190 l-134 -190 Z" /><glyph glyph-name="questiondown" unicode="¿" d="M136 174 l-40 0 q0 53 21 88 q34 58 114 58 q62 0 101 -36 q40 -37 40 -101 q0 -62 -44 -99 q-27 -23 -92 -38 q-67 -16 -91 -42 q-25 -29 -25 -82 q0 -57 30 -90 q31 -34 85 -34 q54 0 85 34 q28 30 28 90 q0 20 -7 40 l44 0 q7 -22 7 -46 q0 -74 -44 -116 q-45 -42 -116 -42 q-74 0 -117 45 q-41 42 -41 117 q0 65 36 106 q32 35 89 51 q8 2 25.5 6.5 q17.5 4.5 27 7.5 q9.5 3 22 8 q12.5 5 20.5 12 q34 27 34 74 q0 41 -25 68 q-27 29 -71 29 q-54 0 -79 -36 q-17 -24 -17 -72 ZM258.5 433.5 q10.5 -10.5 10.5 -26.5 q0 -16 -10.5 -26.5 q-10.5 -10.5 -26.5 -10.5 q-16 0 -26.5 10.5 q-10.5 10.5 -10.5 26.5 q0 16 10.5 26.5 q10.5 10.5 26.5 10.5 q16 0 26.5 -10.5 Z" /><glyph glyph-name="Agrave" unicode="à" d="M524 0 l-89 219 l-284 0 l-89 -219 l-48 0 l281 687 l277 -687 l-48 0 ZM167 259 l252 0 l-125 316 l-127 -316 ZM311 703 l-134 126 l50 25 l116 -133 l-32 -18 Z" /><glyph glyph-name="Aacute" unicode="á" d="M524 0 l-89 219 l-284 0 l-89 -219 l-48 0 l281 687 l277 -687 l-48 0 ZM167 259 l252 0 l-125 316 l-127 -316 ZM359 854 l50 -25 l-134 -126 l-32 18 l116 133 Z" /><glyph glyph-name="Acircumflex" unicode="â" d="M524 0 l-89 219 l-284 0 l-89 -219 l-48 0 l281 687 l277 -687 l-48 0 ZM167 259 l252 0 l-125 316 l-127 -316 ZM293 786 l-96 -64 l-34 27 l130 90 l130 -90 l-34 -27 l-96 64 Z" /><glyph glyph-name="Atilde" unicode="ã" d="M524 0 l-89 219 l-284 0 l-89 -219 l-48 0 l281 687 l277 -687 l-48 0 ZM167 259 l252 0 l-125 316 l-127 -316 ZM192 717 l-29 22 q11 25 23 38 q20 22 45 22 q22 0 64 -17 q47 -18 59 -18 q13 0 25 12 q11 13 15 26 l29 -22 q-9 -27 -28 -43 q-19 -17 -46 -17 q-18 0 -58 17 q-43 18 -58 18 q-17 0 -28 -14 q-6 -7 -13 -24 Z" /><glyph glyph-name="Adieresis" unicode="ä" d="M524 0 l-89 219 l-284 0 l-89 -219 l-48 0 l281 687 l277 -687 l-48 0 ZM167 259 l252 0 l-125 316 l-127 -316 ZM173 753 q-11 11 -11 27 q0 16 11 27 q11 11 27 11 q16 0 27 -11 q11 -11 11 -27 q0 -16 -11 -27 q-11 -11 -27 -11 q-16 0 -27 11 ZM359 753 q-11 11 -11 27 q0 16 11 27 q11 11 27 11 q16 0 27 -11 q11 -11 11 -27 q0 -16 -11 -27 q-11 -11 -27 -11 q-16 0 -27 11 Z" /><glyph glyph-name="Aring" unicode="å" d="M524 0 l-89 219 l-284 0 l-89 -219 l-48 0 l281 687 l277 -687 l-48 0 ZM167 259 l252 0 l-125 316 l-127 -316 ZM236.5 730.5 q-23.5 23.5 -23.5 56.5 q0 33 23.5 56.5 q23.5 23.5 56.5 23.5 q33 0 56.5 -23.5 q23.5 -23.5 23.5 -56.5 q0 -33 -23.5 -56.5 q-23.5 -23.5 -56.5 -23.5 q-33 0 -56.5 23.5 ZM263.5 816.5 q-11.5 -11.5 -11.5 -29.5 q0 -18 11.5 -29.5 q11.5 -11.5 29.5 -11.5 q18 0 29.5 11.5 q11.5 11.5 11.5 29.5 q0 18 -11.5 29.5 q-11.5 11.5 -29.5 11.5 q-18 0 -29.5 -11.5 Z" /><glyph glyph-name="AE" unicode="æ" d="M523 0 l-89 219 l-285 0 l-87 -219 l-48 0 l269 667 l289 0 l17 -40 l-275 0 l99 -242 l268 0 l17 -40 l-268 0 l124 -305 l273 0 l18 -40 l-322 0 ZM165 259 l252 0 l-127 314 l-125 -314 Z" /><glyph glyph-name="Ccedilla" unicode="ç" d="M624 589 l0 -58 q-43 50 -101.5 77.5 q-58.5 27.5 -123.5 27.5 q-127 0 -213 -89 q-86 -89 -86 -217 q0 -71 27.5 -130 q27.5 -59 72 -95.5 q44.5 -36.5 96.5 -56 q52 -19.5 104 -19.5 q56 0 116 24.5 q60 24.5 108 76.5 l0 -58 q-94 -83 -222 -83 q-148 0 -248 101 q-100 101 -100 242 q0 144 101 244 q101 100 245 100 q132 0 224 -87 ZM390 -50 l46 -26 l-108 -126 l-30 18 l92 134 Z" /><glyph glyph-name="Egrave" unicode="è" d="M410 667 l0 -40 l-276 0 l0 -242 l270 0 l0 -40 l-270 0 l0 -305 l276 0 l0 -40 l-320 0 l0 667 l320 0 ZM278 703 l-134 126 l50 25 l116 -133 l-32 -18 Z" /><glyph glyph-name="Eacute" unicode="é" d="M410 667 l0 -40 l-276 0 l0 -242 l270 0 l0 -40 l-270 0 l0 -305 l276 0 l0 -40 l-320 0 l0 667 l320 0 ZM316 854 l50 -25 l-134 -126 l-32 18 l116 133 Z" /><glyph glyph-name="Ecircumflex" unicode="ê" d="M410 667 l0 -40 l-276 0 l0 -242 l270 0 l0 -40 l-270 0 l0 -305 l276 0 l0 -40 l-320 0 l0 667 l320 0 ZM250 786 l-96 -64 l-34 27 l130 90 l130 -90 l-34 -27 l-96 64 Z" /><glyph glyph-name="Edieresis" unicode="ë" d="M410 667 l0 -40 l-276 0 l0 -242 l270 0 l0 -40 l-270 0 l0 -305 l276 0 l0 -40 l-320 0 l0 667 l320 0 ZM130 753 q-11 11 -11 27 q0 16 11 27 q11 11 27 11 q16 0 27 -11 q11 -11 11 -27 q0 -16 -11 -27 q-11 -11 -27 -11 q-16 0 -27 11 ZM316 753 q-11 11 -11 27 q0 16 11 27 q11 11 27 11 q16 0 27 -11 q11 -11 11 -27 q0 -16 -11 -27 q-11 -11 -27 -11 q-16 0 -27 11 Z" /><glyph glyph-name="Igrave" unicode="ì" d="M90 667 l44 0 l0 -667 l-44 0 l0 667 ZM110 703 l-105 134 l56 17 l90 -136 l-41 -15 Z" /><glyph glyph-name="Iacute" unicode="í" d="M90 667 l44 0 l0 -667 l-44 0 l0 667 ZM162 854 l57 -17 l-106 -134 l-40 15 l89 136 Z" /><glyph glyph-name="Icircumflex" unicode="î" d="M90 667 l44 0 l0 -667 l-44 0 l0 667 ZM112 782 l-80 -60 l-35 28 l115 89 l115 -89 l-35 -27 l-80 59 Z" /><glyph glyph-name="Idieresis" unicode="ï" d="M90 667 l44 0 l0 -667 l-44 0 l0 667 ZM21 753 q-11 11 -11 27 q0 16 11 27 q11 11 27 11 q16 0 27 -11 q11 -11 11 -27 q0 -16 -11 -27 q-11 -11 -27 -11 q-16 0 -27 11 ZM149 753 q-11 11 -11 27 q0 16 11 27 q11 11 27 11 q16 0 27 -11 q11 -11 11 -27 q0 -16 -11 -27 q-11 -11 -27 -11 q-16 0 -27 11 Z" /><glyph glyph-name="Eth" unicode="ð" d="M222 0 l-132 0 l0 345 l-90 0 l0 40 l90 0 l0 282 l132 0 q153 0 246 -93 q49 -49 72.5 -114 q23.5 -65 23.5 -127 q0 -61 -23 -125.5 q-23 -64.5 -73 -114.5 q-93 -93 -246 -93 ZM134 627 l0 -242 l136 0 l0 -40 l-136 0 l0 -305 l87 0 q132 0 214.5 81.5 q82.5 81.5 82.5 211.5 q0 129 -83 211.5 q-83 82.5 -214 82.5 l-87 0 Z" /><glyph glyph-name="Ntilde" unicode="ñ" d="M134 0 l-44 0 l0 674 l560 -586 l0 579 l44 0 l0 -684 l-560 586 l0 -569 ZM291 717 l-29 22 q11 25 23 38 q20 22 45 22 q22 0 64 -17 q47 -18 59 -18 q13 0 25 12 q11 13 15 26 l29 -22 q-9 -27 -28 -43 q-19 -17 -46 -17 q-18 0 -58 17 q-43 18 -58 18 q-17 0 -28 -14 q-6 -7 -13 -24 Z" /><glyph glyph-name="Ograve" unicode="ò" d="M154 576 q100 100 246 100 q146 0 246 -100 q100 -100 100 -244 q0 -144 -100 -243.5 q-100 -99.5 -246 -99.5 q-147 0 -246.5 99.5 q-99.5 99.5 -99.5 243.5 q0 144 100 244 ZM186 116.5 q86 -87.5 214 -87.5 q128 0 214 87.5 q86 87.5 86 215.5 q0 129 -86 216.5 q-86 87.5 -214 87.5 q-128 0 -214 -87.5 q-86 -87.5 -86 -216.5 q0 -128 86 -215.5 ZM418 703 l-134 126 l50 25 l116 -133 l-32 -18 Z" /><glyph glyph-name="Oacute" unicode="ó" d="M154 576 q100 100 246 100 q146 0 246 -100 q100 -100 100 -244 q0 -144 -100 -243.5 q-100 -99.5 -246 -99.5 q-147 0 -246.5 99.5 q-99.5 99.5 -99.5 243.5 q0 144 100 244 ZM186 116.5 q86 -87.5 214 -87.5 q128 0 214 87.5 q86 87.5 86 215.5 q0 129 -86 216.5 q-86 87.5 -214 87.5 q-128 0 -214 -87.5 q-86 -87.5 -86 -216.5 q0 -128 86 -215.5 ZM466 854 l50 -25 l-134 -126 l-32 18 l116 133 Z" /><glyph glyph-name="Ocircumflex" unicode="ô" d="M154 576 q100 100 246 100 q146 0 246 -100 q100 -100 100 -244 q0 -144 -100 -243.5 q-100 -99.5 -246 -99.5 q-147 0 -246.5 99.5 q-99.5 99.5 -99.5 243.5 q0 144 100 244 ZM186 116.5 q86 -87.5 214 -87.5 q128 0 214 87.5 q86 87.5 86 215.5 q0 129 -86 216.5 q-86 87.5 -214 87.5 q-128 0 -214 -87.5 q-86 -87.5 -86 -216.5 q0 -128 86 -215.5 ZM400 786 l-96 -64 l-34 27 l130 90 l130 -90 l-34 -27 l-96 64 Z" /><glyph glyph-name="Otilde" unicode="õ" d="M154 576 q100 100 246 100 q146 0 246 -100 q100 -100 100 -244 q0 -144 -100 -243.5 q-100 -99.5 -246 -99.5 q-147 0 -246.5 99.5 q-99.5 99.5 -99.5 243.5 q0 144 100 244 ZM186 116.5 q86 -87.5 214 -87.5 q128 0 214 87.5 q86 87.5 86 215.5 q0 129 -86 216.5 q-86 87.5 -214 87.5 q-128 0 -214 -87.5 q-86 -87.5 -86 -216.5 q0 -128 86 -215.5 ZM299 717 l-29 22 q11 25 23 38 q20 22 45 22 q22 0 64 -17 q47 -18 59 -18 q13 0 25 12 q11 13 15 26 l29 -22 q-9 -27 -28 -43 q-19 -17 -46 -17 q-18 0 -58 17 q-43 18 -58 18 q-17 0 -28 -14 q-6 -7 -13 -24 Z" /><glyph glyph-name="Odieresis" unicode="ö" d="M154 576 q100 100 246 100 q146 0 246 -100 q100 -100 100 -244 q0 -144 -100 -243.5 q-100 -99.5 -246 -99.5 q-147 0 -246.5 99.5 q-99.5 99.5 -99.5 243.5 q0 144 100 244 ZM186 116.5 q86 -87.5 214 -87.5 q128 0 214 87.5 q86 87.5 86 215.5 q0 129 -86 216.5 q-86 87.5 -214 87.5 q-128 0 -214 -87.5 q-86 -87.5 -86 -216.5 q0 -128 86 -215.5 ZM280 753 q-11 11 -11 27 q0 16 11 27 q11 11 27 11 q16 0 27 -11 q11 -11 11 -27 q0 -16 -11 -27 q-11 -11 -27 -11 q-16 0 -27 11 ZM466 753 q-11 11 -11 27 q0 16 11 27 q11 11 27 11 q16 0 27 -11 q11 -11 11 -27 q0 -16 -11 -27 q-11 -11 -27 -11 q-16 0 -27 11 Z" /><glyph glyph-name="multiply" unicode="×" d="M67 173 l156 156 l-156 156 l27 27 l156 -156 l156 156 l27 -27 l-156 -156 l156 -156 l-27 -27 l-156 156 l-156 -156 l-27 27 Z" /><glyph glyph-name="Oslash" unicode="ø" d="M64 21 l79 79 q-89 99 -89 232 q0 144 100.5 244 q100.5 100 245.5 100 q134 0 231 -86 l78 79 l27 -27 l-78 -78 q88 -99 88 -232 q0 -144 -100.5 -243.5 q-100.5 -99.5 -245.5 -99.5 q-135 0 -231 85 l-78 -79 l-27 26 ZM628 533 l-429 -430 q86 -74 201 -74 q128 0 214 87.5 q86 87.5 86 215.5 q0 117 -72 201 ZM173 130 l428 431 q-84 75 -201 75 q-128 0 -214 -88 q-86 -88 -86 -216 q0 -114 73 -202 Z" /><glyph glyph-name="Ugrave" unicode="ù" d="M90 667 l44 0 l0 -417 q0 -53 5.5 -84.5 q5.5 -31.5 22.5 -59.5 q26 -42 69.5 -59.5 q43.5 -17.5 85.5 -17.5 q42 0 85.5 17.5 q43.5 17.5 69.5 59.5 q17 28 22.5 59.5 q5.5 31.5 5.5 84.5 l0 417 l44 0 l0 -417 q0 -62 -7 -99 q-7 -37 -31 -72 q-62 -90 -189 -90 q-127 0 -189 90 q-24 35 -31 72 q-7 37 -7 99 l0 417 ZM335 703 l-134 126 l50 25 l116 -133 l-32 -18 Z" /><glyph glyph-name="Uacute" unicode="ú" d="M90 667 l44 0 l0 -417 q0 -53 5.5 -84.5 q5.5 -31.5 22.5 -59.5 q26 -42 69.5 -59.5 q43.5 -17.5 85.5 -17.5 q42 0 85.5 17.5 q43.5 17.5 69.5 59.5 q17 28 22.5 59.5 q5.5 31.5 5.5 84.5 l0 417 l44 0 l0 -417 q0 -62 -7 -99 q-7 -37 -31 -72 q-62 -90 -189 -90 q-127 0 -189 90 q-24 35 -31 72 q-7 37 -7 99 l0 417 ZM383 854 l50 -25 l-134 -126 l-32 18 l116 133 Z" /><glyph glyph-name="Ucircumflex" unicode="û" d="M90 667 l44 0 l0 -417 q0 -53 5.5 -84.5 q5.5 -31.5 22.5 -59.5 q26 -42 69.5 -59.5 q43.5 -17.5 85.5 -17.5 q42 0 85.5 17.5 q43.5 17.5 69.5 59.5 q17 28 22.5 59.5 q5.5 31.5 5.5 84.5 l0 417 l44 0 l0 -417 q0 -62 -7 -99 q-7 -37 -31 -72 q-62 -90 -189 -90 q-127 0 -189 90 q-24 35 -31 72 q-7 37 -7 99 l0 417 ZM317 786 l-96 -64 l-34 27 l130 90 l130 -90 l-34 -27 l-96 64 Z" /><glyph glyph-name="Udieresis" unicode="ü" d="M90 667 l44 0 l0 -417 q0 -53 5.5 -84.5 q5.5 -31.5 22.5 -59.5 q26 -42 69.5 -59.5 q43.5 -17.5 85.5 -17.5 q42 0 85.5 17.5 q43.5 17.5 69.5 59.5 q17 28 22.5 59.5 q5.5 31.5 5.5 84.5 l0 417 l44 0 l0 -417 q0 -62 -7 -99 q-7 -37 -31 -72 q-62 -90 -189 -90 q-127 0 -189 90 q-24 35 -31 72 q-7 37 -7 99 l0 417 ZM197 753 q-11 11 -11 27 q0 16 11 27 q11 11 27 11 q16 0 27 -11 q11 -11 11 -27 q0 -16 -11 -27 q-11 -11 -27 -11 q-16 0 -27 11 ZM383 753 q-11 11 -11 27 q0 16 11 27 q11 11 27 11 q16 0 27 -11 q11 -11 11 -27 q0 -16 -11 -27 q-11 -11 -27 -11 q-16 0 -27 11 Z" /><glyph glyph-name="Yacute" unicode="ý" d="M233 0 l0 285 l-219 382 l50 0 l192 -337 l196 337 l50 0 l-225 -382 l0 -285 l-44 0 ZM324 854 l50 -25 l-134 -126 l-32 18 l116 133 Z" /><glyph glyph-name="Thorn" unicode="þ" d="M90 0 l0 667 l44 0 l0 -120 l85 0 q85 0 140 -45.5 q55 -45.5 55 -128.5 q0 -82 -53 -129 q-53 -47 -141 -47 l-86 0 l0 -197 l-44 0 ZM134 507 l0 -270 l88 0 q66 0 106 36.5 q40 36.5 40 98.5 q0 63 -40.5 99 q-40.5 36 -112.5 36 l-81 0 Z" /><glyph glyph-name="germandbls" unicode="ß" d="M113 0 l-40 0 l0 370 l-69 0 l0 38 l69 0 l0 164 q0 90 41 131 q38 38 105 38 q58 0 95 -32 q48 -41 48 -125 q0 -55 -23 -91 q-21 -31 -55 -47 q53 -18 97 -58 q62 -58 62 -152 q0 -99 -65 -165 q-66 -68 -168 -76 l0 40 q89 8 144 68 q47 52 47 126 q0 81 -50 133 q-53 57 -141 63 l0 35 q49 2 77 30 q33 31 33 89 q0 61 -27 93 q-28 31 -76 31 q-48 0 -74 -27 q-30 -31 -30 -98 l0 -578 Z" /><glyph glyph-name="agrave" unicode="à" d="M404 337 l0 71 l40 0 l0 -408 l-40 0 l0 73 q-55 -84 -159 -84 q-83 0 -141 59 q-58 59 -58 156 q0 95 55 154 q55 59 144 59 q102 0 159 -80 ZM247 379 q-65 0 -112 -46.5 q-47 -46.5 -47 -125.5 q0 -73 43 -126.5 q43 -53.5 117 -53.5 q73 0 115.5 52.5 q42.5 52.5 42.5 127.5 q0 83 -49 127.5 q-49 44.5 -110 44.5 ZM268 467 l-105 128 l43 25 l92 -137 l-30 -16 Z" /><glyph glyph-name="aacute" unicode="á" d="M404 337 l0 71 l40 0 l0 -408 l-40 0 l0 73 q-55 -84 -159 -84 q-83 0 -141 59 q-58 59 -58 156 q0 95 55 154 q55 59 144 59 q102 0 159 -80 ZM247 379 q-65 0 -112 -46.5 q-47 -46.5 -47 -125.5 q0 -73 43 -126.5 q43 -53.5 117 -53.5 q73 0 115.5 52.5 q42.5 52.5 42.5 127.5 q0 83 -49 127.5 q-49 44.5 -110 44.5 ZM313 620 l43 -25 l-105 -128 l-30 16 l92 137 Z" /><glyph glyph-name="acircumflex" unicode="â" d="M404 337 l0 71 l40 0 l0 -408 l-40 0 l0 73 q-55 -84 -159 -84 q-83 0 -141 59 q-58 59 -58 156 q0 95 55 154 q55 59 144 59 q102 0 159 -80 ZM247 379 q-65 0 -112 -46.5 q-47 -46.5 -47 -125.5 q0 -73 43 -126.5 q43 -53.5 117 -53.5 q73 0 115.5 52.5 q42.5 52.5 42.5 127.5 q0 83 -49 127.5 q-49 44.5 -110 44.5 ZM259 535 l-90 -68 l-32 25 l122 94 l122 -94 l-32 -25 l-90 68 Z" /><glyph glyph-name="atilde" unicode="ã" d="M404 337 l0 71 l40 0 l0 -408 l-40 0 l0 73 q-55 -84 -159 -84 q-83 0 -141 59 q-58 59 -58 156 q0 95 55 154 q55 59 144 59 q102 0 159 -80 ZM247 379 q-65 0 -112 -46.5 q-47 -46.5 -47 -125.5 q0 -73 43 -126.5 q43 -53.5 117 -53.5 q73 0 115.5 52.5 q42.5 52.5 42.5 127.5 q0 83 -49 127.5 q-49 44.5 -110 44.5 ZM168 487 l-26 19 q9 25 23 38 q19 19 46 19 q22 0 72 -22 q31 -13 47 -13 q16 0 27 12 q14 18 14 25 l25 -20 q-9 -24 -26 -40 q-20 -17 -45 -17 q-18 0 -58 17 q-43 18 -59 18 q-17 0 -28 -12 q-9 -10 -12 -24 Z" /><glyph glyph-name="adieresis" unicode="ä" d="M404 337 l0 71 l40 0 l0 -408 l-40 0 l0 73 q-55 -84 -159 -84 q-83 0 -141 59 q-58 59 -58 156 q0 95 55 154 q55 59 144 59 q102 0 159 -80 ZM247 379 q-65 0 -112 -46.5 q-47 -46.5 -47 -125.5 q0 -73 43 -126.5 q43 -53.5 117 -53.5 q73 0 115.5 52.5 q42.5 52.5 42.5 127.5 q0 83 -49 127.5 q-49 44.5 -110 44.5 ZM160.5 500.5 q-10.5 10.5 -10.5 25.5 q0 15 10.5 25.5 q10.5 10.5 25.5 10.5 q15 0 25.5 -10.5 q10.5 -10.5 10.5 -25.5 q0 -15 -10.5 -25.5 q-10.5 -10.5 -25.5 -10.5 q-15 0 -25.5 10.5 ZM326.5 500.5 q-10.5 10.5 -10.5 25.5 q0 15 10.5 25.5 q10.5 10.5 25.5 10.5 q15 0 25.5 -10.5 q10.5 -10.5 10.5 -25.5 q0 -15 -10.5 -25.5 q-10.5 -10.5 -25.5 -10.5 q-15 0 -25.5 10.5 Z" /><glyph glyph-name="aring" unicode="å" d="M404 337 l0 71 l40 0 l0 -408 l-40 0 l0 73 q-55 -84 -159 -84 q-83 0 -141 59 q-58 59 -58 156 q0 95 55 154 q55 59 144 59 q102 0 159 -80 ZM247 379 q-65 0 -112 -46.5 q-47 -46.5 -47 -125.5 q0 -73 43 -126.5 q43 -53.5 117 -53.5 q73 0 115.5 52.5 q42.5 52.5 42.5 127.5 q0 83 -49 127.5 q-49 44.5 -110 44.5 ZM209 494 q-22 22 -22 55 q0 33 22 55 q22 22 55 22 q33 0 55 -22 q22 -22 22 -55 q0 -33 -22 -55 q-22 -22 -55 -22 q-33 0 -55 22 ZM234.5 578.5 q-11.5 -11.5 -11.5 -29.5 q0 -18 11.5 -29.5 q11.5 -11.5 29.5 -11.5 q18 0 29.5 11.5 q11.5 11.5 11.5 29.5 q0 18 -11.5 29.5 q-11.5 11.5 -29.5 11.5 q-18 0 -29.5 -11.5 Z" /><glyph glyph-name="ae" unicode="æ" d="M747 198 l-350 0 q1 -76 46 -123.5 q45 -47.5 112 -47.5 q94 0 147 92 l34 -24 q-68 -106 -182 -106 q-116 0 -168 102 q-17 -50 -61.5 -76 q-44.5 -26 -107.5 -26 q-82 0 -127 37.5 q-45 37.5 -45 89.5 q0 49 42 89 q42 40 137 40 q83 0 131 -42 q0 176 -142 176 q-67 0 -139 -37 l0 41 q68 34 141 34 q58 0 101 -29 q43 -29 62 -85 q26 53 72 83.5 q46 30.5 103 30.5 q79 0 135.5 -57 q56.5 -57 58.5 -162 ZM402 236 l303 0 q-9 62 -51.5 102.5 q-42.5 40.5 -101.5 40.5 q-59 0 -100.5 -41 q-41.5 -41 -49.5 -102 ZM223 207 q-66 0 -101 -26 q-35 -26 -35 -65 q0 -38 33.5 -63.5 q33.5 -25.5 96.5 -25.5 q70 0 102.5 28.5 q32.5 28.5 32.5 64.5 q0 34 -31 60.5 q-31 26.5 -98 26.5 Z" /><glyph glyph-name="ccedilla" unicode="ç" d="M399 365 l0 -53 q-58 67 -141 67 q-74 0 -122 -50.5 q-48 -50.5 -48 -126.5 q0 -82 51 -128.5 q51 -46.5 117 -46.5 q81 0 148 73 l0 -54 q-64 -57 -149 -57 q-92 0 -150.5 60.5 q-58.5 60.5 -58.5 151.5 q0 93 58 154.5 q58 61.5 154 61.5 q79 0 141 -52 ZM239 -50 l46 -20 l-100 -124 l-28 16 l82 128 Z" /><glyph glyph-name="egrave" unicode="è" d="M437 199 l-349 0 q0 -76 47.5 -124 q47.5 -48 114.5 -48 q48 0 85 25.5 q37 25.5 57 67.5 l34 -20 q-23 -44 -67 -77.5 q-44 -33.5 -112 -33.5 q-93 0 -147 60.5 q-54 60.5 -54 152.5 q0 101 58.5 158 q58.5 57 139.5 57 q83 0 138 -61 q55 -61 55 -157 ZM91 237 l304 0 q-8 62 -49.5 102 q-41.5 40 -101.5 40 q-61 0 -103 -40.5 q-42 -40.5 -50 -101.5 ZM248 467 l-105 128 l43 25 l92 -137 l-30 -16 Z" /><glyph glyph-name="eacute" unicode="é" d="M437 199 l-349 0 q0 -76 47.5 -124 q47.5 -48 114.5 -48 q48 0 85 25.5 q37 25.5 57 67.5 l34 -20 q-23 -44 -67 -77.5 q-44 -33.5 -112 -33.5 q-93 0 -147 60.5 q-54 60.5 -54 152.5 q0 101 58.5 158 q58.5 57 139.5 57 q83 0 138 -61 q55 -61 55 -157 ZM91 237 l304 0 q-8 62 -49.5 102 q-41.5 40 -101.5 40 q-61 0 -103 -40.5 q-42 -40.5 -50 -101.5 ZM298 620 l43 -25 l-105 -128 l-30 16 l92 137 Z" /><glyph glyph-name="ecircumflex" unicode="ê" d="M437 199 l-349 0 q0 -76 47.5 -124 q47.5 -48 114.5 -48 q48 0 85 25.5 q37 25.5 57 67.5 l34 -20 q-23 -44 -67 -77.5 q-44 -33.5 -112 -33.5 q-93 0 -147 60.5 q-54 60.5 -54 152.5 q0 101 58.5 158 q58.5 57 139.5 57 q83 0 138 -61 q55 -61 55 -157 ZM91 237 l304 0 q-8 62 -49.5 102 q-41.5 40 -101.5 40 q-61 0 -103 -40.5 q-42 -40.5 -50 -101.5 ZM250 535 l-90 -68 l-32 25 l122 94 l122 -94 l-32 -25 l-90 68 Z" /><glyph glyph-name="edieresis" unicode="ë" d="M437 199 l-349 0 q0 -76 47.5 -124 q47.5 -48 114.5 -48 q48 0 85 25.5 q37 25.5 57 67.5 l34 -20 q-23 -44 -67 -77.5 q-44 -33.5 -112 -33.5 q-93 0 -147 60.5 q-54 60.5 -54 152.5 q0 101 58.5 158 q58.5 57 139.5 57 q83 0 138 -61 q55 -61 55 -157 ZM91 237 l304 0 q-8 62 -49.5 102 q-41.5 40 -101.5 40 q-61 0 -103 -40.5 q-42 -40.5 -50 -101.5 ZM134.5 500.5 q-10.5 10.5 -10.5 25.5 q0 15 10.5 25.5 q10.5 10.5 25.5 10.5 q15 0 25.5 -10.5 q10.5 -10.5 10.5 -25.5 q0 -15 -10.5 -25.5 q-10.5 -10.5 -25.5 -10.5 q-15 0 -25.5 10.5 ZM300.5 500.5 q-10.5 10.5 -10.5 25.5 q0 15 10.5 25.5 q10.5 10.5 25.5 10.5 q15 0 25.5 -10.5 q10.5 -10.5 10.5 -25.5 q0 -15 -10.5 -25.5 q-10.5 -10.5 -25.5 -10.5 q-15 0 -25.5 10.5 Z" /><glyph glyph-name="igrave" unicode="ì" d="M72 408 l40 0 l0 -408 l-40 0 l0 408 ZM90 467 l-105 128 l43 25 l92 -137 l-30 -16 Z" /><glyph glyph-name="iacute" unicode="í" d="M72 408 l40 0 l0 -408 l-40 0 l0 408 ZM147 620 l43 -25 l-105 -128 l-30 16 l92 137 Z" /><glyph glyph-name="icircumflex" unicode="î" d="M72 408 l40 0 l0 -408 l-40 0 l0 408 ZM92 531 l-70 -60 l-30 26 l100 86 l100 -86 l-30 -26 l-70 60 Z" /><glyph glyph-name="idieresis" unicode="ï" d="M72 408 l40 0 l0 -408 l-40 0 l0 408 ZM-16.5 500.5 q-10.5 10.5 -10.5 25.5 q0 15 10.5 25.5 q10.5 10.5 25.5 10.5 q15 0 25.5 -10.5 q10.5 -10.5 10.5 -25.5 q0 -15 -10.5 -25.5 q-10.5 -10.5 -25.5 -10.5 q-15 0 -25.5 10.5 ZM149.5 500.5 q-10.5 10.5 -10.5 25.5 q0 15 10.5 25.5 q10.5 10.5 25.5 10.5 q15 0 25.5 -10.5 q10.5 -10.5 10.5 -25.5 q0 -15 -10.5 -25.5 q-10.5 -10.5 -25.5 -10.5 q-15 0 -25.5 10.5 Z" /><glyph glyph-name="eth" unicode="ð" d="M105 636 l5 37 q64 -7 115 -29 q42 -17 87 -52 l146 49 l12 -35 l-127 -42 q45 -43 72 -93 q55 -99 55 -233 q0 -125 -65 -190 q-59 -59 -146 -59 q-89 0 -148 59 q-65 65 -65 164 q0 100 64 164 q59 61 152 61 q94 0 147 -78 l2 0 q-10 55 -39 104 q-31 52 -73 86 l-162 -53 l-12 34 l140 46 q-70 47 -160 60 ZM428 218 q0 86 -53 137 q-44 44 -113 44 q-73 0 -121 -50 q-53 -54 -53 -139 q0 -80 49 -131 q50 -52 122 -52 q65 0 112 45 q57 56 57 146 Z" /><glyph glyph-name="ntilde" unicode="ñ" d="M72 0 l0 408 l40 0 l0 -64 q41 73 125 73 q76 0 113 -57 q20 -32 20 -103 l0 -257 l-40 0 l0 257 q0 57 -16 82 q-24 40 -80 40 q-68 0 -100 -57 q-22 -39 -22 -110 l0 -212 l-40 0 ZM120 487 l-26 19 q9 25 23 38 q19 19 46 19 q22 0 72 -22 q31 -13 47 -13 q16 0 27 12 q14 18 14 25 l25 -20 q-9 -24 -26 -40 q-20 -17 -45 -17 q-18 0 -58 17 q-43 18 -59 18 q-17 0 -28 -12 q-9 -10 -12 -24 Z" /><glyph glyph-name="ograve" unicode="ò" d="M107.5 355.5 q61.5 61.5 152.5 61.5 q91 0 152.5 -61.5 q61.5 -61.5 61.5 -152.5 q0 -91 -61.5 -152.5 q-61.5 -61.5 -152.5 -61.5 q-91 0 -152.5 61.5 q-61.5 61.5 -61.5 152.5 q0 91 61.5 152.5 ZM137.5 78 q49.5 -51 122.5 -51 q73 0 122.5 51 q49.5 51 49.5 125 q0 74 -49.5 125 q-49.5 51 -122.5 51 q-73 0 -122.5 -51 q-49.5 -51 -49.5 -125 q0 -74 49.5 -125 ZM278 467 l-105 128 l43 25 l92 -137 l-30 -16 Z" /><glyph glyph-name="oacute" unicode="ó" d="M107.5 355.5 q61.5 61.5 152.5 61.5 q91 0 152.5 -61.5 q61.5 -61.5 61.5 -152.5 q0 -91 -61.5 -152.5 q-61.5 -61.5 -152.5 -61.5 q-91 0 -152.5 61.5 q-61.5 61.5 -61.5 152.5 q0 91 61.5 152.5 ZM137.5 78 q49.5 -51 122.5 -51 q73 0 122.5 51 q49.5 51 49.5 125 q0 74 -49.5 125 q-49.5 51 -122.5 51 q-73 0 -122.5 -51 q-49.5 -51 -49.5 -125 q0 -74 49.5 -125 ZM305 620 l43 -25 l-105 -128 l-30 16 l92 137 Z" /><glyph glyph-name="ocircumflex" unicode="ô" d="M107.5 355.5 q61.5 61.5 152.5 61.5 q91 0 152.5 -61.5 q61.5 -61.5 61.5 -152.5 q0 -91 -61.5 -152.5 q-61.5 -61.5 -152.5 -61.5 q-91 0 -152.5 61.5 q-61.5 61.5 -61.5 152.5 q0 91 61.5 152.5 ZM137.5 78 q49.5 -51 122.5 -51 q73 0 122.5 51 q49.5 51 49.5 125 q0 74 -49.5 125 q-49.5 51 -122.5 51 q-73 0 -122.5 -51 q-49.5 -51 -49.5 -125 q0 -74 49.5 -125 ZM260 535 l-90 -68 l-32 25 l122 94 l122 -94 l-32 -25 l-90 68 Z" /><glyph glyph-name="otilde" unicode="õ" d="M107.5 355.5 q61.5 61.5 152.5 61.5 q91 0 152.5 -61.5 q61.5 -61.5 61.5 -152.5 q0 -91 -61.5 -152.5 q-61.5 -61.5 -152.5 -61.5 q-91 0 -152.5 61.5 q-61.5 61.5 -61.5 152.5 q0 91 61.5 152.5 ZM137.5 78 q49.5 -51 122.5 -51 q73 0 122.5 51 q49.5 51 49.5 125 q0 74 -49.5 125 q-49.5 51 -122.5 51 q-73 0 -122.5 -51 q-49.5 -51 -49.5 -125 q0 -74 49.5 -125 ZM159 487 l-26 19 q9 25 23 38 q19 19 46 19 q22 0 72 -22 q31 -13 47 -13 q16 0 27 12 q14 18 14 25 l25 -20 q-9 -24 -26 -40 q-20 -17 -45 -17 q-18 0 -58 17 q-43 18 -59 18 q-17 0 -28 -12 q-9 -10 -12 -24 Z" /><glyph glyph-name="odieresis" unicode="ö" d="M107.5 355.5 q61.5 61.5 152.5 61.5 q91 0 152.5 -61.5 q61.5 -61.5 61.5 -152.5 q0 -91 -61.5 -152.5 q-61.5 -61.5 -152.5 -61.5 q-91 0 -152.5 61.5 q-61.5 61.5 -61.5 152.5 q0 91 61.5 152.5 ZM137.5 78 q49.5 -51 122.5 -51 q73 0 122.5 51 q49.5 51 49.5 125 q0 74 -49.5 125 q-49.5 51 -122.5 51 q-73 0 -122.5 -51 q-49.5 -51 -49.5 -125 q0 -74 49.5 -125 ZM151.5 500.5 q-10.5 10.5 -10.5 25.5 q0 15 10.5 25.5 q10.5 10.5 25.5 10.5 q15 0 25.5 -10.5 q10.5 -10.5 10.5 -25.5 q0 -15 -10.5 -25.5 q-10.5 -10.5 -25.5 -10.5 q-15 0 -25.5 10.5 ZM317.5 500.5 q-10.5 10.5 -10.5 25.5 q0 15 10.5 25.5 q10.5 10.5 25.5 10.5 q15 0 25.5 -10.5 q10.5 -10.5 10.5 -25.5 q0 -15 -10.5 -25.5 q-10.5 -10.5 -25.5 -10.5 q-15 0 -25.5 10.5 Z" /><glyph glyph-name="divide" unicode="÷" d="M225.5 493.5 q-10.5 10.5 -10.5 24.5 q0 14 10.5 24.5 q10.5 10.5 24.5 10.5 q14 0 24.5 -10.5 q10.5 -10.5 10.5 -24.5 q0 -14 -10.5 -24.5 q-10.5 -10.5 -24.5 -10.5 q-14 0 -24.5 10.5 ZM225.5 115.5 q-10.5 10.5 -10.5 24.5 q0 14 10.5 24.5 q10.5 10.5 24.5 10.5 q14 0 24.5 -10.5 q10.5 -10.5 10.5 -24.5 q0 -14 -10.5 -24.5 q-10.5 -10.5 -24.5 -10.5 q-14 0 -24.5 10.5 ZM33 310 l0 38 l434 0 l0 -38 l-434 0 Z" /><glyph glyph-name="oslash" unicode="ø" d="M40 13 l54 53 q-47 60 -47 137 q0 91 61.5 152.5 q61.5 61.5 152.5 61.5 q80 0 136 -47 l53 53 l25 -25 l-53 -52 q53 -59 53 -143 q0 -91 -61.5 -152.5 q-61.5 -61.5 -152.5 -61.5 q-83 0 -144 53 l-52 -53 l-25 24 ZM394 317 l-248 -246 q47 -44 115 -44 q73 0 122.5 51 q49.5 51 49.5 125 q0 66 -39 114 ZM123 95 l246 247 q-47 37 -108 37 q-73 0 -122.5 -51 q-49.5 -51 -49.5 -125 q0 -62 34 -108 Z" /><glyph glyph-name="ugrave" unicode="ù" d="M72 408 l40 0 l0 -246 q0 -71 26 -102 q28 -33 81 -33 q53 0 81 33 q26 31 26 102 l0 246 l40 0 l0 -257 q0 -72 -31 -112 q-39 -50 -116 -50 q-77 0 -116 50 q-31 40 -31 112 l0 257 ZM228 467 l-105 128 l43 25 l92 -137 l-30 -16 Z" /><glyph glyph-name="uacute" unicode="ú" d="M72 408 l40 0 l0 -246 q0 -71 26 -102 q28 -33 81 -33 q53 0 81 33 q26 31 26 102 l0 246 l40 0 l0 -257 q0 -72 -31 -112 q-39 -50 -116 -50 q-77 0 -116 50 q-31 40 -31 112 l0 257 ZM274 620 l43 -25 l-105 -128 l-30 16 l92 137 Z" /><glyph glyph-name="ucircumflex" unicode="û" d="M72 408 l40 0 l0 -246 q0 -71 26 -102 q28 -33 81 -33 q53 0 81 33 q26 31 26 102 l0 246 l40 0 l0 -257 q0 -72 -31 -112 q-39 -50 -116 -50 q-77 0 -116 50 q-31 40 -31 112 l0 257 ZM219 535 l-90 -68 l-32 25 l122 94 l122 -94 l-32 -25 l-90 68 Z" /><glyph glyph-name="udieresis" unicode="ü" d="M72 408 l40 0 l0 -246 q0 -71 26 -102 q28 -33 81 -33 q53 0 81 33 q26 31 26 102 l0 246 l40 0 l0 -257 q0 -72 -31 -112 q-39 -50 -116 -50 q-77 0 -116 50 q-31 40 -31 112 l0 257 ZM110.5 500.5 q-10.5 10.5 -10.5 25.5 q0 15 10.5 25.5 q10.5 10.5 25.5 10.5 q15 0 25.5 -10.5 q10.5 -10.5 10.5 -25.5 q0 -15 -10.5 -25.5 q-10.5 -10.5 -25.5 -10.5 q-15 0 -25.5 10.5 ZM276.5 500.5 q-10.5 10.5 -10.5 25.5 q0 15 10.5 25.5 q10.5 10.5 25.5 10.5 q15 0 25.5 -10.5 q10.5 -10.5 10.5 -25.5 q0 -15 -10.5 -25.5 q-10.5 -10.5 -25.5 -10.5 q-15 0 -25.5 10.5 Z" /><glyph glyph-name="yacute" unicode="ý" d="M106 -230 l96 223 l-194 415 l46 0 l171 -363 l149 363 l46 0 l-268 -638 l-46 0 ZM269 620 l43 -25 l-105 -128 l-30 16 l92 137 Z" /><glyph glyph-name="thorn" unicode="þ" d="M112 73 l0 -303 l-40 0 l0 959 l40 0 l0 -392 q59 80 160 80 q90 0 144 -59.5 q54 -59.5 54 -150.5 q0 -93 -54.5 -155.5 q-54.5 -62.5 -145.5 -62.5 q-46 0 -83 18.5 q-37 18.5 -51 34 q-14 15.5 -24 31.5 ZM152 78.5 q42 -51.5 117 -51.5 q75 0 117 51 q42 51 42 129 q0 81 -46 126.5 q-46 45.5 -112 45.5 q-65 0 -112.5 -45 q-47.5 -45 -47.5 -125 q0 -79 42 -130.5 Z" /><glyph glyph-name="ydieresis" unicode="ÿ" d="M106 -230 l96 223 l-194 415 l46 0 l171 -363 l149 363 l46 0 l-268 -638 l-46 0 ZM105.5 500.5 q-10.5 10.5 -10.5 25.5 q0 15 10.5 25.5 q10.5 10.5 25.5 10.5 q15 0 25.5 -10.5 q10.5 -10.5 10.5 -25.5 q0 -15 -10.5 -25.5 q-10.5 -10.5 -25.5 -10.5 q-15 0 -25.5 10.5 ZM271.5 500.5 q-10.5 10.5 -10.5 25.5 q0 15 10.5 25.5 q10.5 10.5 25.5 10.5 q15 0 25.5 -10.5 q10.5 -10.5 10.5 -25.5 q0 -15 -10.5 -25.5 q-10.5 -10.5 -25.5 -10.5 q-15 0 -25.5 10.5 Z" /><glyph glyph-name="Amacron" unicode="&#x100;" d="M524 0 l-89 219 l-284 0 l-89 -219 l-48 0 l281 687 l277 -687 l-48 0 ZM167 259 l252 0 l-125 316 l-127 -316 ZM158 750 l0 44 l270 0 l0 -44 l-270 0 Z" /><glyph glyph-name="amacron" unicode="&#x101;" d="M404 337 l0 71 l40 0 l0 -408 l-40 0 l0 73 q-55 -84 -159 -84 q-83 0 -141 59 q-58 59 -58 156 q0 95 55 154 q55 59 144 59 q102 0 159 -80 ZM247 379 q-65 0 -112 -46.5 q-47 -46.5 -47 -125.5 q0 -73 43 -126.5 q43 -53.5 117 -53.5 q73 0 115.5 52.5 q42.5 52.5 42.5 127.5 q0 83 -49 127.5 q-49 44.5 -110 44.5 ZM121 493 l0 39 l270 0 l0 -39 l-270 0 Z" /><glyph glyph-name="Abreve" unicode="&#x102;" d="M524 0 l-89 219 l-284 0 l-89 -219 l-48 0 l281 687 l277 -687 l-48 0 ZM167 259 l252 0 l-125 316 l-127 -316 ZM166 826 l40 0 q6 -20 24 -34 q24 -18 63 -18 q39 0 63 18 q18 14 24 34 l40 0 q-4 -33 -29 -58 q-36 -36 -98 -36 q-62 0 -98 36 q-25 25 -29 58 Z" /><glyph glyph-name="abreve" unicode="&#x103;" d="M404 337 l0 71 l40 0 l0 -408 l-40 0 l0 73 q-55 -84 -159 -84 q-83 0 -141 59 q-58 59 -58 156 q0 95 55 154 q55 59 144 59 q102 0 159 -80 ZM247 379 q-65 0 -112 -46.5 q-47 -46.5 -47 -125.5 q0 -73 43 -126.5 q43 -53.5 117 -53.5 q73 0 115.5 52.5 q42.5 52.5 42.5 127.5 q0 83 -49 127.5 q-49 44.5 -110 44.5 ZM132 573 l38 0 q5 -22 25 -37 q26 -19 62 -19 q36 0 62 19 q20 15 25 37 l38 0 q-4 -33 -29 -58 q-36 -36 -96 -36 q-60 0 -96 36 q-25 25 -29 58 Z" /><glyph glyph-name="Aogonek" unicode="&#x104;" d="M524 0 l-89 219 l-284 0 l-89 -219 l-48 0 l281 687 l277 -687 q-27 -18 -46 -42 q-22 -29 -22 -55 q0 -22 15 -35.5 q15 -13.5 45 -13.5 q23 0 52 9 l-9 -37 q-22 -8 -45 -8 q-45 0 -72.5 23.5 q-27.5 23.5 -27.5 59.5 q0 33 23 62 q16 20 43 37 l-4 0 ZM167 259 l252 0 l-125 316 l-127 -316 Z" /><glyph glyph-name="aogonek" unicode="&#x105;" d="M404 337 l0 71 l40 0 l0 -408 q-27 -18 -46 -42 q-22 -29 -22 -55 q0 -22 15 -35.5 q15 -13.5 45 -13.5 q23 0 52 9 l-9 -36 q-20 -8 -45 -8 q-47 0 -71.5 25 q-24.5 25 -24.5 57 q0 33 23 62 q16 20 43 37 l0 73 q-55 -84 -159 -84 q-83 0 -141 59 q-58 59 -58 156 q0 95 55 154 q55 59 144 59 q102 0 159 -80 ZM247 379 q-65 0 -112 -46.5 q-47 -46.5 -47 -125.5 q0 -73 43 -126.5 q43 -53.5 117 -53.5 q73 0 115.5 52.5 q42.5 52.5 42.5 127.5 q0 83 -49 127.5 q-49 44.5 -110 44.5 Z" /><glyph glyph-name="Cacute" unicode="&#x106;" d="M624 589 l0 -58 q-43 50 -101.5 77.5 q-58.5 27.5 -123.5 27.5 q-127 0 -213 -89 q-86 -89 -86 -217 q0 -71 27.5 -130 q27.5 -59 72 -95.5 q44.5 -36.5 96.5 -56 q52 -19.5 104 -19.5 q56 0 116 24.5 q60 24.5 108 76.5 l0 -58 q-94 -83 -222 -83 q-148 0 -248 101 q-100 101 -100 242 q0 144 101 244 q101 100 245 100 q132 0 224 -87 ZM446 854 l50 -25 l-134 -126 l-32 18 l116 133 Z" /><glyph glyph-name="cacute" unicode="&#x107;" d="M399 365 l0 -53 q-58 67 -141 67 q-74 0 -122 -50.5 q-48 -50.5 -48 -126.5 q0 -82 51 -128.5 q51 -46.5 117 -46.5 q81 0 148 73 l0 -54 q-64 -57 -149 -57 q-92 0 -150.5 60.5 q-58.5 60.5 -58.5 151.5 q0 93 58 154.5 q58 61.5 154 61.5 q79 0 141 -52 ZM305 620 l43 -25 l-105 -128 l-30 16 l92 137 Z" /><glyph glyph-name="Ccircumflex" unicode="&#x108;" d="M624 589 l0 -58 q-43 50 -101.5 77.5 q-58.5 27.5 -123.5 27.5 q-127 0 -213 -89 q-86 -89 -86 -217 q0 -71 27.5 -130 q27.5 -59 72 -95.5 q44.5 -36.5 96.5 -56 q52 -19.5 104 -19.5 q56 0 116 24.5 q60 24.5 108 76.5 l0 -58 q-94 -83 -222 -83 q-148 0 -248 101 q-100 101 -100 242 q0 144 101 244 q101 100 245 100 q132 0 224 -87 ZM400 786 l-96 -64 l-34 27 l130 90 l130 -90 l-34 -27 l-96 64 Z" /><glyph glyph-name="ccircumflex" unicode="&#x109;" d="M399 365 l0 -53 q-58 67 -141 67 q-74 0 -122 -50.5 q-48 -50.5 -48 -126.5 q0 -82 51 -128.5 q51 -46.5 117 -46.5 q81 0 148 73 l0 -54 q-64 -57 -149 -57 q-92 0 -150.5 60.5 q-58.5 60.5 -58.5 151.5 q0 93 58 154.5 q58 61.5 154 61.5 q79 0 141 -52 ZM260 535 l-90 -68 l-32 25 l122 94 l122 -94 l-32 -25 l-90 68 Z" /><glyph glyph-name="Cdotaccent" unicode="&#x10a;" d="M624 589 l0 -58 q-43 50 -101.5 77.5 q-58.5 27.5 -123.5 27.5 q-127 0 -213 -89 q-86 -89 -86 -217 q0 -71 27.5 -130 q27.5 -59 72 -95.5 q44.5 -36.5 96.5 -56 q52 -19.5 104 -19.5 q56 0 116 24.5 q60 24.5 108 76.5 l0 -58 q-94 -83 -222 -83 q-148 0 -248 101 q-100 101 -100 242 q0 144 101 244 q101 100 245 100 q132 0 224 -87 ZM372.5 751.5 q-11.5 11.5 -11.5 29.5 q0 18 11.5 29.5 q11.5 11.5 29.5 11.5 q18 0 29.5 -11.5 q11.5 -11.5 11.5 -29.5 q0 -18 -11.5 -29.5 q-11.5 -11.5 -29.5 -11.5 q-18 0 -29.5 11.5 Z" /><glyph glyph-name="cdotaccent" unicode="&#x10b;" d="M399 365 l0 -53 q-58 67 -141 67 q-74 0 -122 -50.5 q-48 -50.5 -48 -126.5 q0 -82 51 -128.5 q51 -46.5 117 -46.5 q81 0 148 73 l0 -54 q-64 -57 -149 -57 q-92 0 -150.5 60.5 q-58.5 60.5 -58.5 151.5 q0 93 58 154.5 q58 61.5 154 61.5 q79 0 141 -52 ZM233 499 q-11 11 -11 28 q0 17 11 28 q11 11 28 11 q17 0 28 -11 q11 -11 11 -28 q0 -17 -11 -28 q-11 -11 -28 -11 q-17 0 -28 11 Z" /><glyph glyph-name="Ccaron" unicode="&#x10c;" d="M624 589 l0 -58 q-43 50 -101.5 77.5 q-58.5 27.5 -123.5 27.5 q-127 0 -213 -89 q-86 -89 -86 -217 q0 -71 27.5 -130 q27.5 -59 72 -95.5 q44.5 -36.5 96.5 -56 q52 -19.5 104 -19.5 q56 0 116 24.5 q60 24.5 108 76.5 l0 -58 q-94 -83 -222 -83 q-148 0 -248 101 q-100 101 -100 242 q0 144 101 244 q101 100 245 100 q132 0 224 -87 ZM400 775 l96 64 l34 -27 l-130 -90 l-130 90 l34 27 l96 -64 Z" /><glyph glyph-name="ccaron" unicode="&#x10d;" d="M399 365 l0 -53 q-58 67 -141 67 q-74 0 -122 -50.5 q-48 -50.5 -48 -126.5 q0 -82 51 -128.5 q51 -46.5 117 -46.5 q81 0 148 73 l0 -54 q-64 -57 -149 -57 q-92 0 -150.5 60.5 q-58.5 60.5 -58.5 151.5 q0 93 58 154.5 q58 61.5 154 61.5 q79 0 141 -52 ZM260 517 l90 68 l32 -26 l-122 -94 l-122 94 l32 26 l90 -68 Z" /><glyph glyph-name="Dcaron" unicode="&#x10e;" d="M222 0 l-132 0 l0 667 l132 0 q153 0 246 -93 q49 -49 72.5 -114 q23.5 -65 23.5 -127 q0 -61 -23 -125.5 q-23 -64.5 -73 -114.5 q-93 -93 -246 -93 ZM134 627 l0 -587 l87 0 q132 0 214.5 81.5 q82.5 81.5 82.5 211.5 q0 129 -83 211.5 q-83 82.5 -214 82.5 l-87 0 ZM230 775 l96 64 l34 -27 l-130 -90 l-130 90 l34 27 l96 -64 Z" /><glyph glyph-name="dcaron" unicode="&#x10f;" d="M404 337 l0 392 l40 0 l0 -729 l-40 0 l0 73 q-55 -84 -158 -84 q-83 0 -141.5 57.5 q-58.5 57.5 -58.5 159.5 q0 104 59 157.5 q59 53.5 141 53.5 q102 0 158 -80 ZM246 379 q-67 0 -112.5 -45 q-45.5 -45 -45.5 -127 q0 -85 47 -132.5 q47 -47.5 113 -47.5 q65 0 111.5 47.5 q46.5 47.5 46.5 132.5 q0 74 -43 123 q-43 49 -117 49 ZM482 520 l46 160 l44 -14 l-62 -156 l-28 10 Z" /><glyph glyph-name="Dcroat" unicode="&#x110;" d="M222 0 l-132 0 l0 345 l-90 0 l0 40 l90 0 l0 282 l132 0 q153 0 246 -93 q49 -49 72.5 -114 q23.5 -65 23.5 -127 q0 -61 -23 -125.5 q-23 -64.5 -73 -114.5 q-93 -93 -246 -93 ZM134 627 l0 -242 l136 0 l0 -40 l-136 0 l0 -305 l87 0 q132 0 214.5 81.5 q82.5 81.5 82.5 211.5 q0 129 -83 211.5 q-83 82.5 -214 82.5 l-87 0 Z" /><glyph glyph-name="dcroat" unicode="&#x111;" d="M404 337 l0 225 l-180 0 l0 38 l180 0 l0 129 l40 0 l0 -129 l72 0 l0 -38 l-72 0 l0 -562 l-40 0 l0 73 q-55 -84 -158 -84 q-83 0 -141.5 57.5 q-58.5 57.5 -58.5 159.5 q0 104 59 157.5 q59 53.5 141 53.5 q102 0 158 -80 ZM246 379 q-67 0 -112.5 -45 q-45.5 -45 -45.5 -127 q0 -85 47 -132.5 q47 -47.5 113 -47.5 q65 0 111.5 47.5 q46.5 47.5 46.5 132.5 q0 74 -43 123 q-43 49 -117 49 Z" /><glyph glyph-name="Emacron" unicode="&#x112;" d="M410 667 l0 -40 l-276 0 l0 -242 l270 0 l0 -40 l-270 0 l0 -305 l276 0 l0 -40 l-320 0 l0 667 l320 0 ZM115 750 l0 44 l270 0 l0 -44 l-270 0 Z" /><glyph glyph-name="emacron" unicode="&#x113;" d="M437 199 l-349 0 q0 -76 47.5 -124 q47.5 -48 114.5 -48 q48 0 85 25.5 q37 25.5 57 67.5 l34 -20 q-23 -44 -67 -77.5 q-44 -33.5 -112 -33.5 q-93 0 -147 60.5 q-54 60.5 -54 152.5 q0 101 58.5 158 q58.5 57 139.5 57 q83 0 138 -61 q55 -61 55 -157 ZM91 237 l304 0 q-8 62 -49.5 102 q-41.5 40 -101.5 40 q-61 0 -103 -40.5 q-42 -40.5 -50 -101.5 ZM108 493 l0 39 l270 0 l0 -39 l-270 0 Z" /><glyph glyph-name="Edotaccent" unicode="&#x116;" d="M410 667 l0 -40 l-276 0 l0 -242 l270 0 l0 -40 l-270 0 l0 -305 l276 0 l0 -40 l-320 0 l0 667 l320 0 ZM220.5 751.5 q-11.5 11.5 -11.5 29.5 q0 18 11.5 29.5 q11.5 11.5 29.5 11.5 q18 0 29.5 -11.5 q11.5 -11.5 11.5 -29.5 q0 -18 -11.5 -29.5 q-11.5 -11.5 -29.5 -11.5 q-18 0 -29.5 11.5 Z" /><glyph glyph-name="edotaccent" unicode="&#x117;" d="M437 199 l-349 0 q0 -76 47.5 -124 q47.5 -48 114.5 -48 q48 0 85 25.5 q37 25.5 57 67.5 l34 -20 q-23 -44 -67 -77.5 q-44 -33.5 -112 -33.5 q-93 0 -147 60.5 q-54 60.5 -54 152.5 q0 101 58.5 158 q58.5 57 139.5 57 q83 0 138 -61 q55 -61 55 -157 ZM91 237 l304 0 q-8 62 -49.5 102 q-41.5 40 -101.5 40 q-61 0 -103 -40.5 q-42 -40.5 -50 -101.5 ZM215 499 q-11 11 -11 28 q0 17 11 28 q11 11 28 11 q17 0 28 -11 q11 -11 11 -28 q0 -17 -11 -28 q-11 -11 -28 -11 q-17 0 -28 11 Z" /><glyph glyph-name="Eogonek" unicode="&#x118;" d="M410 667 l0 -40 l-276 0 l0 -242 l270 0 l0 -40 l-270 0 l0 -305 l276 0 l0 -40 l-40 0 q-68 -45 -68 -96 q0 -24 14 -36 q15 -14 49 -14 q27 0 49 9 l-9 -37 q-21 -8 -45 -8 q-51 0 -78 28 q-22 23 -22 55 q0 33 23 62 q16 20 43 37 l-236 0 l0 667 l320 0 Z" /><glyph glyph-name="eogonek" unicode="&#x119;" d="M439 199 l-351 0 q0 -76 47 -125 q45 -47 115 -47 q48 0 88 27 q33 24 54 66 l34 -20 q-33 -62 -109 -102 q-39 -20 -59 -43 q-20 -23 -20 -52 q0 -24 17 -37 q15 -12 43 -12 q21 0 52 9 l-9 -36 q-20 -8 -45 -8 q-47 0 -73 26 q-23 23 -23 56 q0 25 16 51 q13 21 34 37 q-93 0 -147 56 q-57 58 -57 157 q0 99 60 159 q58 56 138 56 q80 0 133 -51 q62 -62 62 -167 ZM91 237 l302 0 q-9 65 -49 103 q-40 39 -100 39 q-64 0 -105 -42 q-38 -38 -48 -100 Z" /><glyph glyph-name="Ecaron" unicode="&#x11a;" d="M410 667 l0 -40 l-276 0 l0 -242 l270 0 l0 -40 l-270 0 l0 -305 l276 0 l0 -40 l-320 0 l0 667 l320 0 ZM250 775 l96 64 l34 -27 l-130 -90 l-130 90 l34 27 l96 -64 Z" /><glyph glyph-name="ecaron" unicode="&#x11b;" d="M437 199 l-349 0 q0 -76 47.5 -124 q47.5 -48 114.5 -48 q48 0 85 25.5 q37 25.5 57 67.5 l34 -20 q-23 -44 -67 -77.5 q-44 -33.5 -112 -33.5 q-93 0 -147 60.5 q-54 60.5 -54 152.5 q0 101 58.5 158 q58.5 57 139.5 57 q83 0 138 -61 q55 -61 55 -157 ZM91 237 l304 0 q-8 62 -49.5 102 q-41.5 40 -101.5 40 q-61 0 -103 -40.5 q-42 -40.5 -50 -101.5 ZM243 517 l90 68 l32 -26 l-122 -94 l-122 94 l32 26 l90 -68 Z" /><glyph glyph-name="Gcircumflex" unicode="&#x11c;" d="M438 280 l0 40 l280 0 q0 -132 -68 -219 q-88 -112 -251 -112 q-148 0 -246.5 97 q-98.5 97 -98.5 246 q0 147 100.5 245.5 q100.5 98.5 247.5 98.5 q115 0 209 -72 q46 -36 80 -84 l-35 -28 q-24 41 -64 74 q-84 70 -191 70 q-128 0 -214.5 -89 q-86.5 -89 -86.5 -217 q0 -126 85 -213.5 q85 -87.5 213 -87.5 q79 0 140.5 33.5 q61.5 33.5 91.5 79.5 q40 62 44 138 l-236 0 ZM400 786 l-96 -64 l-34 27 l130 90 l130 -90 l-34 -27 l-96 64 Z" /><glyph glyph-name="gcircumflex" unicode="&#x11d;" d="M408 408 l40 0 l0 -396 q0 -115 -54.5 -178.5 q-54.5 -63.5 -150.5 -63.5 q-83 0 -139.5 46.5 q-56.5 46.5 -60.5 128.5 l42 0 q5 -63 48.5 -100 q43.5 -37 109.5 -37 q45 0 78.5 18 q33.5 18 49.5 41 q16 23 25 56 q9 33 10.5 51 q1.5 18 1.5 38 l0 58 q-58 -81 -161 -81 q-81 0 -141 57 q-60 57 -60 158 q0 91 56 152 q56 61 150 61 q100 0 156 -80 l0 71 ZM365.5 329 q-44.5 50 -117.5 50 q-73 0 -116.5 -51.5 q-43.5 -51.5 -43.5 -125.5 q0 -75 43.5 -125 q43.5 -50 114.5 -50 q74 0 119 51 q45 51 45 128 q0 73 -44.5 123 ZM250 535 l-90 -68 l-32 25 l122 94 l122 -94 l-32 -25 l-90 68 Z" /><glyph glyph-name="Gbreve" unicode="&#x11e;" d="M438 280 l0 40 l280 0 q0 -132 -68 -219 q-88 -112 -251 -112 q-148 0 -246.5 97 q-98.5 97 -98.5 246 q0 147 100.5 245.5 q100.5 98.5 247.5 98.5 q115 0 209 -72 q46 -36 80 -84 l-35 -28 q-24 41 -64 74 q-84 70 -191 70 q-128 0 -214.5 -89 q-86.5 -89 -86.5 -217 q0 -126 85 -213.5 q85 -87.5 213 -87.5 q79 0 140.5 33.5 q61.5 33.5 91.5 79.5 q40 62 44 138 l-236 0 ZM273 826 l40 0 q6 -20 24 -34 q24 -18 63 -18 q39 0 63 18 q18 14 24 34 l40 0 q-4 -33 -29 -58 q-36 -36 -98 -36 q-62 0 -98 36 q-25 25 -29 58 Z" /><glyph glyph-name="gbreve" unicode="&#x11f;" d="M408 408 l40 0 l0 -396 q0 -115 -54.5 -178.5 q-54.5 -63.5 -150.5 -63.5 q-83 0 -139.5 46.5 q-56.5 46.5 -60.5 128.5 l42 0 q5 -63 48.5 -100 q43.5 -37 109.5 -37 q45 0 78.5 18 q33.5 18 49.5 41 q16 23 25 56 q9 33 10.5 51 q1.5 18 1.5 38 l0 58 q-58 -81 -161 -81 q-81 0 -141 57 q-60 57 -60 158 q0 91 56 152 q56 61 150 61 q100 0 156 -80 l0 71 ZM365.5 329 q-44.5 50 -117.5 50 q-73 0 -116.5 -51.5 q-43.5 -51.5 -43.5 -125.5 q0 -75 43.5 -125 q43.5 -50 114.5 -50 q74 0 119 51 q45 51 45 128 q0 73 -44.5 123 ZM125 573 l38 0 q5 -22 25 -37 q26 -19 62 -19 q36 0 62 19 q20 15 25 37 l38 0 q-4 -33 -29 -58 q-36 -36 -96 -36 q-60 0 -96 36 q-25 25 -29 58 Z" /><glyph glyph-name="Gdotaccent" unicode="&#x120;" d="M438 280 l0 40 l280 0 q0 -132 -68 -219 q-88 -112 -251 -112 q-148 0 -246.5 97 q-98.5 97 -98.5 246 q0 147 100.5 245.5 q100.5 98.5 247.5 98.5 q115 0 209 -72 q46 -36 80 -84 l-35 -28 q-24 41 -64 74 q-84 70 -191 70 q-128 0 -214.5 -89 q-86.5 -89 -86.5 -217 q0 -126 85 -213.5 q85 -87.5 213 -87.5 q79 0 140.5 33.5 q61.5 33.5 91.5 79.5 q40 62 44 138 l-236 0 ZM373.5 751.5 q-11.5 11.5 -11.5 29.5 q0 18 11.5 29.5 q11.5 11.5 29.5 11.5 q18 0 29.5 -11.5 q11.5 -11.5 11.5 -29.5 q0 -18 -11.5 -29.5 q-11.5 -11.5 -29.5 -11.5 q-18 0 -29.5 11.5 Z" /><glyph glyph-name="gdotaccent" unicode="&#x121;" d="M408 408 l40 0 l0 -396 q0 -115 -54.5 -178.5 q-54.5 -63.5 -150.5 -63.5 q-83 0 -139.5 46.5 q-56.5 46.5 -60.5 128.5 l42 0 q5 -63 48.5 -100 q43.5 -37 109.5 -37 q45 0 78.5 18 q33.5 18 49.5 41 q16 23 25 56 q9 33 10.5 51 q1.5 18 1.5 38 l0 58 q-58 -81 -161 -81 q-81 0 -141 57 q-60 57 -60 158 q0 91 56 152 q56 61 150 61 q100 0 156 -80 l0 71 ZM365.5 329 q-44.5 50 -117.5 50 q-73 0 -116.5 -51.5 q-43.5 -51.5 -43.5 -125.5 q0 -75 43.5 -125 q43.5 -50 114.5 -50 q74 0 119 51 q45 51 45 128 q0 73 -44.5 123 ZM224 499 q-11 11 -11 28 q0 17 11 28 q11 11 28 11 q17 0 28 -11 q11 -11 11 -28 q0 -17 -11 -28 q-11 -11 -28 -11 q-17 0 -28 11 Z" /><glyph glyph-name="Gcommaaccent" unicode="&#x122;" d="M438 280 l0 40 l280 0 q0 -132 -68 -219 q-88 -112 -251 -112 q-148 0 -246.5 97 q-98.5 97 -98.5 246 q0 147 100.5 245.5 q100.5 98.5 247.5 98.5 q115 0 209 -72 q46 -36 80 -84 l-35 -28 q-24 41 -64 74 q-84 70 -191 70 q-128 0 -214.5 -89 q-86.5 -89 -86.5 -217 q0 -126 85 -213.5 q85 -87.5 213 -87.5 q79 0 140.5 33.5 q61.5 33.5 91.5 79.5 q40 62 44 138 l-236 0 ZM329 -190 l46 140 l44 -14 l-62 -136 l-28 10 Z" /><glyph glyph-name="gcommaaccent" unicode="&#x123;" d="M408 408 l40 0 l0 -396 q0 -115 -54.5 -178.5 q-54.5 -63.5 -150.5 -63.5 q-83 0 -139.5 46.5 q-56.5 46.5 -60.5 128.5 l42 0 q5 -63 48.5 -100 q43.5 -37 109.5 -37 q45 0 78.5 18 q33.5 18 49.5 41 q16 23 25 56 q9 33 10.5 51 q1.5 18 1.5 38 l0 58 q-58 -81 -161 -81 q-81 0 -141 57 q-60 57 -60 158 q0 91 56 152 q56 61 150 61 q100 0 156 -80 l0 71 ZM365.5 329 q-44.5 50 -117.5 50 q-73 0 -116.5 -51.5 q-43.5 -51.5 -43.5 -125.5 q0 -75 43.5 -125 q43.5 -50 114.5 -50 q74 0 119 51 q45 51 45 128 q0 73 -44.5 123 ZM324 633 l-46 -140 l-44 14 l62 136 l28 -10 Z" /><glyph glyph-name="Hcircumflex" unicode="&#x124;" d="M134 667 l0 -283 l404 0 l0 283 l44 0 l0 -667 l-44 0 l0 344 l-404 0 l0 -344 l-44 0 l0 667 l44 0 ZM336 786 l-96 -64 l-34 27 l130 90 l130 -90 l-34 -27 l-96 64 Z" /><glyph glyph-name="hcircumflex" unicode="&#x125;" d="M72 0 l0 729 l40 0 l0 -385 q41 73 125 73 q76 0 113 -57 q20 -32 20 -103 l0 -257 l-40 0 l0 257 q0 57 -16 82 q-24 40 -80 40 q-68 0 -100 -57 q-22 -39 -22 -110 l0 -212 l-40 0 ZM90 775 l-90 -68 l-32 25 l122 94 l122 -94 l-32 -25 l-90 68 Z" /><glyph glyph-name="Hbar" unicode="&#x126;" d="M134 667 l0 -54 l404 0 l0 54 l44 0 l0 -54 l54 0 l0 -34 l-54 0 l0 -579 l-44 0 l0 344 l-404 0 l0 -344 l-44 0 l0 579 l-54 0 l0 34 l54 0 l0 54 l44 0 ZM538 579 l-404 0 l0 -195 l404 0 l0 195 Z" /><glyph glyph-name="hbar" unicode="&#x127;" d="M72 0 l0 562 l-72 0 l0 38 l72 0 l0 129 l40 0 l0 -129 l180 0 l0 -38 l-180 0 l0 -218 q41 73 125 73 q76 0 113 -57 q20 -32 20 -103 l0 -257 l-40 0 l0 257 q0 57 -16 82 q-24 40 -80 40 q-68 0 -100 -57 q-22 -39 -22 -110 l0 -212 l-40 0 Z" /><glyph glyph-name="Imacron" unicode="&#x12a;" d="M90 667 l44 0 l0 -667 l-44 0 l0 667 ZM10 750 l0 44 l204 0 l0 -44 l-204 0 Z" /><glyph glyph-name="imacron" unicode="&#x12b;" d="M72 408 l40 0 l0 -408 l-40 0 l0 408 ZM12 493 l0 39 l160 0 l0 -39 l-160 0 Z" /><glyph glyph-name="Iogonek" unicode="&#x12e;" d="M90 667 l44 0 l0 -667 q-27 -18 -46 -42 q-22 -29 -22 -55 q0 -22 15 -35.5 q15 -13.5 45 -13.5 q23 0 52 9 l-9 -37 q-22 -8 -45 -8 q-45 0 -72.5 23.5 q-27.5 23.5 -27.5 59.5 q0 33 23 62 q16 20 43 37 l0 667 Z" /><glyph glyph-name="iogonek" unicode="&#x12f;" d="M72 408 l40 0 l0 -408 q-27 -18 -46 -42 q-22 -29 -22 -55 q0 -22 15 -35.5 q15 -13.5 45 -13.5 q23 0 52 9 l-9 -36 q-20 -8 -45 -8 q-47 0 -71.5 25 q-24.5 25 -24.5 57 q0 33 23 62 q16 20 43 37 l0 408 ZM117.5 517.5 q-10.5 -10.5 -25.5 -10.5 q-15 0 -25.5 10.5 q-10.5 10.5 -10.5 26.5 q0 16 10.5 26.5 q10.5 10.5 25.5 10.5 q15 0 25.5 -10.5 q10.5 -10.5 10.5 -26.5 q0 -16 -10.5 -26.5 Z" /><glyph glyph-name="Idotaccent" unicode="&#x130;" d="M90 667 l44 0 l0 -667 l-44 0 l0 667 ZM82.5 751.5 q-11.5 11.5 -11.5 29.5 q0 18 11.5 29.5 q11.5 11.5 29.5 11.5 q18 0 29.5 -11.5 q11.5 -11.5 11.5 -29.5 q0 -18 -11.5 -29.5 q-11.5 -11.5 -29.5 -11.5 q-18 0 -29.5 11.5 Z" /><glyph glyph-name="dotlessi" unicode="&#x131;" d="M72 408 l40 0 l0 -408 l-40 0 l0 408 Z" /><glyph glyph-name="Jcircumflex" unicode="&#x134;" d="M129 667 l44 0 l0 -537 q0 -76 -33 -110 q-31 -31 -83 -31 q-42 0 -73 25 q-22 18 -39 45 l31 26 q13 -25 31 -38 q24 -18 52 -18 q29 0 48 19 q22 22 22 75 l0 544 ZM150 786 l-96 -64 l-34 27 l130 90 l130 -90 l-34 -27 l-96 64 Z" /><glyph glyph-name="jcircumflex" unicode="&#x135;" d="M72 408 l40 0 l0 -638 l-40 0 l0 638 ZM92 531 l-70 -60 l-30 26 l100 86 l100 -86 l-30 -26 l-70 60 Z" /><glyph glyph-name="Kcommaaccent" unicode="&#x136;" d="M134 667 l0 -314 l315 314 l58 0 l-323 -319 l342 -348 l-60 0 l-314 318 l-18 -17 l0 -301 l-44 0 l0 667 l44 0 ZM213 -190 l46 140 l44 -14 l-62 -136 l-28 10 Z" /><glyph glyph-name="kcommaaccent" unicode="&#x137;" d="M72 729 l40 0 l0 -496 l168 175 l52 0 l-172 -177 l228 -231 l-54 0 l-201 202 l-21 -21 l0 -181 l-40 0 l0 729 ZM140 -190 l46 140 l44 -14 l-62 -136 l-28 10 Z" /><glyph glyph-name="Lacute" unicode="&#x139;" d="M90 667 l44 0 l0 -627 l186 0 l0 -40 l-230 0 l0 667 ZM233 854 l50 -25 l-134 -126 l-32 18 l116 133 Z" /><glyph glyph-name="lacute" unicode="&#x13a;" d="M72 729 l40 0 l0 -729 l-40 0 l0 729 ZM147 900 l43 -25 l-105 -128 l-30 16 l92 137 Z" /><glyph glyph-name="Lcommaaccent" unicode="&#x13b;" d="M90 667 l44 0 l0 -627 l186 0 l0 -40 l-230 0 l0 667 ZM153 -190 l46 140 l44 -14 l-62 -136 l-28 10 Z" /><glyph glyph-name="lcommaaccent" unicode="&#x13c;" d="M72 729 l40 0 l0 -729 l-40 0 l0 729 ZM34 -190 l46 140 l44 -14 l-62 -136 l-28 10 Z" /><glyph glyph-name="Lcaron" unicode="&#x13d;" d="M90 667 l44 0 l0 -627 l186 0 l0 -40 l-230 0 l0 667 ZM232 520 l46 160 l44 -14 l-62 -156 l-28 10 Z" /><glyph glyph-name="lcaron" unicode="&#x13e;" d="M72 729 l40 0 l0 -729 l-40 0 l0 729 ZM150 520 l46 160 l44 -14 l-62 -156 l-28 10 Z" /><glyph glyph-name="Ldot" unicode="&#x13f;" d="M90 667 l44 0 l0 -627 l186 0 l0 -40 l-230 0 l0 667 ZM249 306 q-11 11 -11 28 q0 17 11 28 q11 11 28 11 q17 0 28 -11 q11 -11 11 -28 q0 -17 -11 -28 q-11 -11 -28 -11 q-17 0 -28 11 Z" /><glyph glyph-name="ldot" unicode="&#x140;" d="M72 729 l40 0 l0 -729 l-40 0 l0 729 ZM200 337 q-11 11 -11 28 q0 17 11 28 q11 11 28 11 q17 0 28 -11 q11 -11 11 -28 q0 -17 -11 -28 q-11 -11 -28 -11 q-17 0 -28 11 Z" /><glyph glyph-name="Lslash" unicode="&#x141;" d="M90 667 l44 0 l0 -281 l100 64 l0 -44 l-100 -64 l0 -302 l186 0 l0 -40 l-230 0 l0 318 l-90 -58 l0 44 l90 58 l0 305 Z" /><glyph glyph-name="lslash" unicode="&#x142;" d="M72 729 l40 0 l0 -249 l72 56 l0 -44 l-72 -56 l0 -436 l-40 0 l0 412 l-72 -56 l0 44 l72 56 l0 273 Z" /><glyph glyph-name="Nacute" unicode="&#x143;" d="M134 0 l-44 0 l0 674 l560 -586 l0 579 l44 0 l0 -684 l-560 586 l0 -569 ZM458 854 l50 -25 l-134 -126 l-32 18 l116 133 Z" /><glyph glyph-name="nacute" unicode="&#x144;" d="M72 0 l0 408 l40 0 l0 -64 q41 73 125 73 q76 0 113 -57 q20 -32 20 -103 l0 -257 l-40 0 l0 257 q0 57 -16 82 q-24 40 -80 40 q-68 0 -100 -57 q-22 -39 -22 -110 l0 -212 l-40 0 ZM276 620 l43 -25 l-105 -128 l-30 16 l92 137 Z" /><glyph glyph-name="Ncommaaccent" unicode="&#x145;" d="M134 0 l-44 0 l0 674 l560 -586 l0 579 l44 0 l0 -684 l-560 586 l0 -569 ZM335 -190 l46 140 l44 -14 l-62 -136 l-28 10 Z" /><glyph glyph-name="ncommaaccent" unicode="&#x146;" d="M72 0 l0 408 l40 0 l0 -64 q41 73 125 73 q76 0 113 -57 q20 -32 20 -103 l0 -257 l-40 0 l0 257 q0 57 -16 82 q-24 40 -80 40 q-68 0 -100 -57 q-22 -39 -22 -110 l0 -212 l-40 0 ZM163 -190 l46 140 l44 -14 l-62 -136 l-28 10 Z" /><glyph glyph-name="Ncaron" unicode="&#x147;" d="M134 0 l-44 0 l0 674 l560 -586 l0 579 l44 0 l0 -684 l-560 586 l0 -569 ZM392 775 l96 64 l34 -27 l-130 -90 l-130 90 l34 27 l96 -64 Z" /><glyph glyph-name="ncaron" unicode="&#x148;" d="M72 0 l0 408 l40 0 l0 -64 q41 73 125 73 q76 0 113 -57 q20 -32 20 -103 l0 -257 l-40 0 l0 257 q0 57 -16 82 q-24 40 -80 40 q-68 0 -100 -57 q-22 -39 -22 -110 l0 -212 l-40 0 ZM240 517 l90 68 l32 -26 l-122 -94 l-122 94 l32 26 l90 -68 Z" /><glyph glyph-name="Omacron" unicode="&#x14c;" d="M154 576 q100 100 246 100 q146 0 246 -100 q100 -100 100 -244 q0 -144 -100 -243.5 q-100 -99.5 -246 -99.5 q-147 0 -246.5 99.5 q-99.5 99.5 -99.5 243.5 q0 144 100 244 ZM186 116.5 q86 -87.5 214 -87.5 q128 0 214 87.5 q86 87.5 86 215.5 q0 129 -86 216.5 q-86 87.5 -214 87.5 q-128 0 -214 -87.5 q-86 -87.5 -86 -216.5 q0 -128 86 -215.5 ZM265 750 l0 44 l270 0 l0 -44 l-270 0 Z" /><glyph glyph-name="omacron" unicode="&#x14d;" d="M107.5 355.5 q61.5 61.5 152.5 61.5 q91 0 152.5 -61.5 q61.5 -61.5 61.5 -152.5 q0 -91 -61.5 -152.5 q-61.5 -61.5 -152.5 -61.5 q-91 0 -152.5 61.5 q-61.5 61.5 -61.5 152.5 q0 91 61.5 152.5 ZM137.5 78 q49.5 -51 122.5 -51 q73 0 122.5 51 q49.5 51 49.5 125 q0 74 -49.5 125 q-49.5 51 -122.5 51 q-73 0 -122.5 -51 q-49.5 -51 -49.5 -125 q0 -74 49.5 -125 ZM125 493 l0 39 l270 0 l0 -39 l-270 0 Z" /><glyph glyph-name="Obreve" unicode="&#x14e;" d="M154 576 q100 100 246 100 q146 0 246 -100 q100 -100 100 -244 q0 -144 -100 -243.5 q-100 -99.5 -246 -99.5 q-147 0 -246.5 99.5 q-99.5 99.5 -99.5 243.5 q0 144 100 244 ZM186 116.5 q86 -87.5 214 -87.5 q128 0 214 87.5 q86 87.5 86 215.5 q0 129 -86 216.5 q-86 87.5 -214 87.5 q-128 0 -214 -87.5 q-86 -87.5 -86 -216.5 q0 -128 86 -215.5 ZM273 826 l40 0 q6 -20 24 -34 q24 -18 63 -18 q39 0 63 18 q18 14 24 34 l40 0 q-4 -33 -29 -58 q-36 -36 -98 -36 q-62 0 -98 36 q-25 25 -29 58 Z" /><glyph glyph-name="obreve" unicode="&#x14f;" d="M107.5 355.5 q61.5 61.5 152.5 61.5 q91 0 152.5 -61.5 q61.5 -61.5 61.5 -152.5 q0 -91 -61.5 -152.5 q-61.5 -61.5 -152.5 -61.5 q-91 0 -152.5 61.5 q-61.5 61.5 -61.5 152.5 q0 91 61.5 152.5 ZM137.5 78 q49.5 -51 122.5 -51 q73 0 122.5 51 q49.5 51 49.5 125 q0 74 -49.5 125 q-49.5 51 -122.5 51 q-73 0 -122.5 -51 q-49.5 -51 -49.5 -125 q0 -74 49.5 -125 ZM135 573 l38 0 q5 -22 25 -37 q26 -19 62 -19 q36 0 62 19 q20 15 25 37 l38 0 q-4 -33 -29 -58 q-36 -36 -96 -36 q-60 0 -96 36 q-25 25 -29 58 Z" /><glyph glyph-name="Ohungarumlaut" unicode="&#x150;" d="M154 576 q100 100 246 100 q146 0 246 -100 q100 -100 100 -244 q0 -144 -100 -243.5 q-100 -99.5 -246 -99.5 q-147 0 -246.5 99.5 q-99.5 99.5 -99.5 243.5 q0 144 100 244 ZM186 116.5 q86 -87.5 214 -87.5 q128 0 214 87.5 q86 87.5 86 215.5 q0 129 -86 216.5 q-86 87.5 -214 87.5 q-128 0 -214 -87.5 q-86 -87.5 -86 -216.5 q0 -128 86 -215.5 ZM390 854 l52 -26 l-100 -125 l-36 15 l84 136 ZM511 854 l52 -26 l-100 -125 l-36 15 l84 136 Z" /><glyph glyph-name="ohungarumlaut" unicode="&#x151;" d="M107.5 355.5 q61.5 61.5 152.5 61.5 q91 0 152.5 -61.5 q61.5 -61.5 61.5 -152.5 q0 -91 -61.5 -152.5 q-61.5 -61.5 -152.5 -61.5 q-91 0 -152.5 61.5 q-61.5 61.5 -61.5 152.5 q0 91 61.5 152.5 ZM137.5 78 q49.5 -51 122.5 -51 q73 0 122.5 51 q49.5 51 49.5 125 q0 74 -49.5 125 q-49.5 51 -122.5 51 q-73 0 -122.5 -51 q-49.5 -51 -49.5 -125 q0 -74 49.5 -125 ZM259 620 l42 -25 l-99 -128 l-27 16 l84 137 ZM370 620 l42 -25 l-99 -128 l-27 16 l84 137 Z" /><glyph glyph-name="OE" unicode="&#x152;" d="M1018 667 l0 -40 l-275 0 l0 -242 l268 0 l0 -40 l-268 0 l0 -305 l275 0 l0 -40 l-319 0 l0 171 q-45 -85 -124 -133.5 q-79 -48.5 -174 -48.5 q-143 0 -245.5 101 q-102.5 101 -102.5 242 q0 143 101.5 243.5 q101.5 100.5 245.5 100.5 q96 0 174.5 -48 q78.5 -48 124.5 -135 l0 174 l319 0 ZM401 636 q-125 0 -213.5 -89 q-88.5 -89 -88.5 -215 q0 -124 88.5 -213.5 q88.5 -89.5 211.5 -89.5 q123 0 211.5 89.5 q88.5 89.5 88.5 213.5 q0 51 -19.5 103 q-19.5 52 -55 97.5 q-35.5 45.5 -94.5 74.5 q-59 29 -129 29 Z" /><glyph glyph-name="oe" unicode="&#x153;" d="M823 201 l-349 0 q0 -77 46 -125.5 q46 -48.5 115 -48.5 q50 0 86.5 26 q36.5 26 55.5 68 l33 -20 q-7 -15 -17.5 -29.5 q-10.5 -14.5 -32 -35.5 q-21.5 -21 -55 -34 q-33.5 -13 -74.5 -13 q-16 0 -33 3 q-17 3 -46.5 13 q-29.5 10 -56.5 37 q-27 27 -44 68 q-21 -40 -43 -60 q-61 -61 -149 -61 q-88 0 -150.5 62.5 q-62.5 62.5 -62.5 150.5 q0 89 62.5 152 q62.5 63 151.5 63 q82 0 146 -57 q24 -22 45 -63 q22 56 69 88 q47 32 108 32 q85 0 140 -60 q55 -60 55 -156 ZM477 239 l304 0 q-9 65 -51.5 102.5 q-42.5 37.5 -100.5 37.5 q-58 0 -100 -37.5 q-42 -37.5 -52 -102.5 ZM259 379 q-72 0 -121.5 -51 q-49.5 -51 -49.5 -125 q0 -74 49 -125 q49 -51 121 -51 q73 0 123.5 50 q50.5 50 50.5 123 q0 76 -50 127.5 q-50 51.5 -123 51.5 Z" /><glyph glyph-name="Racute" unicode="&#x154;" d="M420 0 l-50 0 l-216 315 l-20 0 l0 -315 l-44 0 l0 667 l96 0 q91 0 141 -34 q69 -48 69 -143 q0 -55 -27 -98.5 q-27 -43.5 -85 -63.5 q-38 -13 -82 -13 l218 -315 ZM134 627 l0 -272 l64 0 q71 0 111.5 36 q40.5 36 40.5 100 q0 84 -59 116 q-35 20 -102 20 l-55 0 ZM300 854 l50 -25 l-134 -126 l-32 18 l116 133 Z" /><glyph glyph-name="racute" unicode="&#x155;" d="M72 0 l0 408 l40 0 l0 -53 q27 62 90 62 q24 0 43 -10 l-20 -36 q-11 8 -30 8 q-29 0 -47.5 -16.5 q-18.5 -16.5 -25 -46 q-6.5 -29.5 -8.5 -49.5 q-2 -20 -2 -48 l0 -219 l-40 0 ZM205 620 l43 -25 l-105 -128 l-30 16 l92 137 Z" /><glyph glyph-name="Rcommaaccent" unicode="&#x156;" d="M420 0 l-50 0 l-216 315 l-20 0 l0 -315 l-44 0 l0 667 l96 0 q91 0 141 -34 q69 -48 69 -143 q0 -55 -27 -98.5 q-27 -43.5 -85 -63.5 q-38 -13 -82 -13 l218 -315 ZM134 627 l0 -272 l64 0 q71 0 111.5 36 q40.5 36 40.5 100 q0 84 -59 116 q-35 20 -102 20 l-55 0 ZM177 -190 l46 140 l44 -14 l-62 -136 l-28 10 Z" /><glyph glyph-name="rcommaaccent" unicode="&#x157;" d="M72 0 l0 408 l40 0 l0 -53 q27 62 90 62 q24 0 43 -10 l-20 -36 q-11 8 -30 8 q-29 0 -47.5 -16.5 q-18.5 -16.5 -25 -46 q-6.5 -29.5 -8.5 -49.5 q-2 -20 -2 -48 l0 -219 l-40 0 ZM72 -190 l46 140 l44 -14 l-62 -136 l-28 10 Z" /><glyph glyph-name="Rcaron" unicode="&#x158;" d="M420 0 l-50 0 l-216 315 l-20 0 l0 -315 l-44 0 l0 667 l96 0 q91 0 141 -34 q69 -48 69 -143 q0 -55 -27 -98.5 q-27 -43.5 -85 -63.5 q-38 -13 -82 -13 l218 -315 ZM134 627 l0 -272 l64 0 q71 0 111.5 36 q40.5 36 40.5 100 q0 84 -59 116 q-35 20 -102 20 l-55 0 ZM210 775 l96 64 l34 -27 l-130 -90 l-130 90 l34 27 l96 -64 Z" /><glyph glyph-name="rcaron" unicode="&#x159;" d="M72 0 l0 408 l40 0 l0 -53 q27 62 90 62 q24 0 43 -10 l-20 -36 q-11 8 -30 8 q-29 0 -47.5 -16.5 q-18.5 -16.5 -25 -46 q-6.5 -29.5 -8.5 -49.5 q-2 -20 -2 -48 l0 -219 l-40 0 ZM150 517 l90 68 l32 -26 l-122 -94 l-122 94 l32 26 l90 -68 Z" /><glyph glyph-name="Sacute" unicode="&#x15a;" d="M426 581 l-32 -27 q-42 82 -131 82 q-57 0 -90.5 -36 q-33.5 -36 -33.5 -88 q0 -26 7.5 -45 q7.5 -19 27 -35 q19.5 -16 34.5 -24.5 q15 -8.5 48 -24.5 q108 -52 133 -70 q71 -49 71 -129 q0 -83 -61 -139 q-61 -56 -147 -56 q-95 0 -155 70 q-29 34 -43 73 l38 18 q12 -36 36 -64 q45 -57 125 -57 q68 0 114.5 44 q46.5 44 46.5 110 q0 65 -65 105 q-29 17 -113 58 q-55 27 -80.5 44 q-25.5 17 -41.5 44 q-21 35 -21 76 q0 65 44 115.5 q44 50.5 127 50.5 q51 0 94 -24.5 q43 -24.5 68 -70.5 ZM336 854 l50 -25 l-134 -126 l-32 18 l116 133 Z" /><glyph glyph-name="sacute" unicode="&#x15b;" d="M280 351 l-34 -18 q-20 46 -71 46 q-32 0 -50.5 -20 q-18.5 -20 -18.5 -45 q0 -19 11 -32.5 q11 -13.5 23 -20 q12 -6.5 38 -16.5 q4 -1 19.5 -7.5 q15.5 -6.5 20.5 -8.5 q5 -2 17.5 -7.5 q12.5 -5.5 18.5 -10 q6 -4.5 14.5 -11.5 q8.5 -7 14.5 -15 q21 -26 21 -66 q0 -65 -39.5 -97.5 q-39.5 -32.5 -93.5 -32.5 q-52 0 -90 29 q-38 29 -51 79 l39 12 q10 -39 38.5 -60.5 q28.5 -21.5 63.5 -21.5 q39 0 65 25.5 q26 25.5 26 64.5 q0 32 -20 49.5 q-20 17.5 -71 38.5 q-70 29 -89 54 q-18 24 -18 53 q0 46 31 75.5 q31 29.5 78 29.5 q79 0 107 -66 ZM237 620 l43 -25 l-105 -128 l-30 16 l92 137 Z" /><glyph glyph-name="Scircumflex" unicode="&#x15c;" d="M426 581 l-32 -27 q-42 82 -131 82 q-57 0 -90.5 -36 q-33.5 -36 -33.5 -88 q0 -26 7.5 -45 q7.5 -19 27 -35 q19.5 -16 34.5 -24.5 q15 -8.5 48 -24.5 q108 -52 133 -70 q71 -49 71 -129 q0 -83 -61 -139 q-61 -56 -147 -56 q-95 0 -155 70 q-29 34 -43 73 l38 18 q12 -36 36 -64 q45 -57 125 -57 q68 0 114.5 44 q46.5 44 46.5 110 q0 65 -65 105 q-29 17 -113 58 q-55 27 -80.5 44 q-25.5 17 -41.5 44 q-21 35 -21 76 q0 65 44 115.5 q44 50.5 127 50.5 q51 0 94 -24.5 q43 -24.5 68 -70.5 ZM270 786 l-96 -64 l-34 27 l130 90 l130 -90 l-34 -27 l-96 64 Z" /><glyph glyph-name="scircumflex" unicode="&#x15d;" d="M280 351 l-34 -18 q-20 46 -71 46 q-32 0 -50.5 -20 q-18.5 -20 -18.5 -45 q0 -19 11 -32.5 q11 -13.5 23 -20 q12 -6.5 38 -16.5 q4 -1 19.5 -7.5 q15.5 -6.5 20.5 -8.5 q5 -2 17.5 -7.5 q12.5 -5.5 18.5 -10 q6 -4.5 14.5 -11.5 q8.5 -7 14.5 -15 q21 -26 21 -66 q0 -65 -39.5 -97.5 q-39.5 -32.5 -93.5 -32.5 q-52 0 -90 29 q-38 29 -51 79 l39 12 q10 -39 38.5 -60.5 q28.5 -21.5 63.5 -21.5 q39 0 65 25.5 q26 25.5 26 64.5 q0 32 -20 49.5 q-20 17.5 -71 38.5 q-70 29 -89 54 q-18 24 -18 53 q0 46 31 75.5 q31 29.5 78 29.5 q79 0 107 -66 ZM176 535 l-90 -68 l-32 25 l122 94 l122 -94 l-32 -25 l-90 68 Z" /><glyph glyph-name="Scedilla" unicode="&#x15e;" d="M426 581 l-32 -27 q-42 82 -131 82 q-57 0 -90.5 -36 q-33.5 -36 -33.5 -88 q0 -26 7.5 -45 q7.5 -19 27 -35 q19.5 -16 34.5 -24.5 q15 -8.5 48 -24.5 q108 -52 133 -70 q71 -49 71 -129 q0 -83 -61 -139 q-61 -56 -147 -56 q-95 0 -155 70 q-29 34 -43 73 l38 18 q12 -36 36 -64 q45 -57 125 -57 q68 0 114.5 44 q46.5 44 46.5 110 q0 65 -65 105 q-29 17 -113 58 q-55 27 -80.5 44 q-25.5 17 -41.5 44 q-21 35 -21 76 q0 65 44 115.5 q44 50.5 127 50.5 q51 0 94 -24.5 q43 -24.5 68 -70.5 ZM250 -50 l46 -26 l-108 -126 l-30 18 l92 134 Z" /><glyph glyph-name="scedilla" unicode="&#x15f;" d="M280 351 l-34 -18 q-20 46 -71 46 q-32 0 -50.5 -20 q-18.5 -20 -18.5 -45 q0 -19 11 -32.5 q11 -13.5 23 -20 q12 -6.5 38 -16.5 q4 -1 19.5 -7.5 q15.5 -6.5 20.5 -8.5 q5 -2 17.5 -7.5 q12.5 -5.5 18.5 -10 q6 -4.5 14.5 -11.5 q8.5 -7 14.5 -15 q21 -26 21 -66 q0 -65 -39.5 -97.5 q-39.5 -32.5 -93.5 -32.5 q-52 0 -90 29 q-38 29 -51 79 l39 12 q10 -39 38.5 -60.5 q28.5 -21.5 63.5 -21.5 q39 0 65 25.5 q26 25.5 26 64.5 q0 32 -20 49.5 q-20 17.5 -71 38.5 q-70 29 -89 54 q-18 24 -18 53 q0 46 31 75.5 q31 29.5 78 29.5 q79 0 107 -66 ZM170 -50 l46 -20 l-100 -124 l-28 16 l82 128 Z" /><glyph glyph-name="Scaron" unicode="&#x160;" d="M426 581 l-32 -27 q-42 82 -131 82 q-57 0 -90.5 -36 q-33.5 -36 -33.5 -88 q0 -26 7.5 -45 q7.5 -19 27 -35 q19.5 -16 34.5 -24.5 q15 -8.5 48 -24.5 q108 -52 133 -70 q71 -49 71 -129 q0 -83 -61 -139 q-61 -56 -147 -56 q-95 0 -155 70 q-29 34 -43 73 l38 18 q12 -36 36 -64 q45 -57 125 -57 q68 0 114.5 44 q46.5 44 46.5 110 q0 65 -65 105 q-29 17 -113 58 q-55 27 -80.5 44 q-25.5 17 -41.5 44 q-21 35 -21 76 q0 65 44 115.5 q44 50.5 127 50.5 q51 0 94 -24.5 q43 -24.5 68 -70.5 ZM262 775 l96 64 l34 -27 l-130 -90 l-130 90 l34 27 l96 -64 Z" /><glyph glyph-name="scaron" unicode="&#x161;" d="M280 351 l-34 -18 q-20 46 -71 46 q-32 0 -50.5 -20 q-18.5 -20 -18.5 -45 q0 -19 11 -32.5 q11 -13.5 23 -20 q12 -6.5 38 -16.5 q4 -1 19.5 -7.5 q15.5 -6.5 20.5 -8.5 q5 -2 17.5 -7.5 q12.5 -5.5 18.5 -10 q6 -4.5 14.5 -11.5 q8.5 -7 14.5 -15 q21 -26 21 -66 q0 -65 -39.5 -97.5 q-39.5 -32.5 -93.5 -32.5 q-52 0 -90 29 q-38 29 -51 79 l39 12 q10 -39 38.5 -60.5 q28.5 -21.5 63.5 -21.5 q39 0 65 25.5 q26 25.5 26 64.5 q0 32 -20 49.5 q-20 17.5 -71 38.5 q-70 29 -89 54 q-18 24 -18 53 q0 46 31 75.5 q31 29.5 78 29.5 q79 0 107 -66 ZM174 517 l90 68 l32 -26 l-122 -94 l-122 94 l32 26 l90 -68 Z" /><glyph glyph-name="Tcedilla" unicode="&#x162;" d="M404 627 l-173 0 l0 -627 l-44 0 l0 627 l-173 0 l0 40 l390 0 l0 -40 ZM210 -50 l46 -26 l-108 -126 l-30 18 l92 134 Z" /><glyph glyph-name="tcedilla" unicode="&#x163;" d="M186 370 l-71 0 l0 -370 l-40 0 l0 370 l-45 0 l0 38 l45 0 l0 146 l40 0 l0 -146 l71 0 l0 -38 ZM88 -50 l46 -20 l-100 -124 l-28 16 l82 128 Z" /><glyph glyph-name="Tcaron" unicode="&#x164;" d="M404 627 l-173 0 l0 -627 l-44 0 l0 627 l-173 0 l0 40 l390 0 l0 -40 ZM209 775 l96 64 l34 -27 l-130 -90 l-130 90 l34 27 l96 -64 Z" /><glyph glyph-name="tcaron" unicode="&#x165;" d="M186 370 l-71 0 l0 -370 l-40 0 l0 370 l-45 0 l0 38 l45 0 l0 146 l40 0 l0 -146 l71 0 l0 -38 ZM146 520 l46 160 l44 -14 l-62 -156 l-28 10 Z" /><glyph glyph-name="Utilde" unicode="&#x168;" d="M90 667 l44 0 l0 -417 q0 -53 5.5 -84.5 q5.5 -31.5 22.5 -59.5 q26 -42 69.5 -59.5 q43.5 -17.5 85.5 -17.5 q42 0 85.5 17.5 q43.5 17.5 69.5 59.5 q17 28 22.5 59.5 q5.5 31.5 5.5 84.5 l0 417 l44 0 l0 -417 q0 -62 -7 -99 q-7 -37 -31 -72 q-62 -90 -189 -90 q-127 0 -189 90 q-24 35 -31 72 q-7 37 -7 99 l0 417 ZM216 717 l-29 22 q11 25 23 38 q20 22 45 22 q22 0 64 -17 q47 -18 59 -18 q13 0 25 12 q11 13 15 26 l29 -22 q-9 -27 -28 -43 q-19 -17 -46 -17 q-18 0 -58 17 q-43 18 -58 18 q-17 0 -28 -14 q-6 -7 -13 -24 Z" /><glyph glyph-name="utilde" unicode="&#x169;" d="M72 408 l40 0 l0 -246 q0 -71 26 -102 q28 -33 81 -33 q53 0 81 33 q26 31 26 102 l0 246 l40 0 l0 -257 q0 -72 -31 -112 q-39 -50 -116 -50 q-77 0 -116 50 q-31 40 -31 112 l0 257 ZM118 487 l-26 19 q9 25 23 38 q19 19 46 19 q22 0 72 -22 q31 -13 47 -13 q16 0 27 12 q14 18 14 25 l25 -20 q-9 -24 -26 -40 q-20 -17 -45 -17 q-18 0 -58 17 q-43 18 -59 18 q-17 0 -28 -12 q-9 -10 -12 -24 Z" /><glyph glyph-name="Umacron" unicode="&#x16a;" d="M90 667 l44 0 l0 -417 q0 -53 5.5 -84.5 q5.5 -31.5 22.5 -59.5 q26 -42 69.5 -59.5 q43.5 -17.5 85.5 -17.5 q42 0 85.5 17.5 q43.5 17.5 69.5 59.5 q17 28 22.5 59.5 q5.5 31.5 5.5 84.5 l0 417 l44 0 l0 -417 q0 -62 -7 -99 q-7 -37 -31 -72 q-62 -90 -189 -90 q-127 0 -189 90 q-24 35 -31 72 q-7 37 -7 99 l0 417 ZM182 750 l0 44 l270 0 l0 -44 l-270 0 Z" /><glyph glyph-name="umacron" unicode="&#x16b;" d="M72 408 l40 0 l0 -246 q0 -71 26 -102 q28 -33 81 -33 q53 0 81 33 q26 31 26 102 l0 246 l40 0 l0 -257 q0 -72 -31 -112 q-39 -50 -116 -50 q-77 0 -116 50 q-31 40 -31 112 l0 257 ZM84 493 l0 39 l270 0 l0 -39 l-270 0 Z" /><glyph glyph-name="Ubreve" unicode="&#x16c;" d="M90 667 l44 0 l0 -417 q0 -53 5.5 -84.5 q5.5 -31.5 22.5 -59.5 q26 -42 69.5 -59.5 q43.5 -17.5 85.5 -17.5 q42 0 85.5 17.5 q43.5 17.5 69.5 59.5 q17 28 22.5 59.5 q5.5 31.5 5.5 84.5 l0 417 l44 0 l0 -417 q0 -62 -7 -99 q-7 -37 -31 -72 q-62 -90 -189 -90 q-127 0 -189 90 q-24 35 -31 72 q-7 37 -7 99 l0 417 ZM190 826 l40 0 q6 -20 24 -34 q24 -18 63 -18 q39 0 63 18 q18 14 24 34 l40 0 q-4 -33 -29 -58 q-36 -36 -98 -36 q-62 0 -98 36 q-25 25 -29 58 Z" /><glyph glyph-name="ubreve" unicode="&#x16d;" d="M72 408 l40 0 l0 -246 q0 -71 26 -102 q28 -33 81 -33 q53 0 81 33 q26 31 26 102 l0 246 l40 0 l0 -257 q0 -72 -31 -112 q-39 -50 -116 -50 q-77 0 -116 50 q-31 40 -31 112 l0 257 ZM94 573 l38 0 q5 -22 25 -37 q26 -19 62 -19 q36 0 62 19 q20 15 25 37 l38 0 q-4 -33 -29 -58 q-36 -36 -96 -36 q-60 0 -96 36 q-25 25 -29 58 Z" /><glyph glyph-name="Uring" unicode="&#x16e;" d="M90 667 l44 0 l0 -417 q0 -53 5.5 -84.5 q5.5 -31.5 22.5 -59.5 q26 -42 69.5 -59.5 q43.5 -17.5 85.5 -17.5 q42 0 85.5 17.5 q43.5 17.5 69.5 59.5 q17 28 22.5 59.5 q5.5 31.5 5.5 84.5 l0 417 l44 0 l0 -417 q0 -62 -7 -99 q-7 -37 -31 -72 q-62 -90 -189 -90 q-127 0 -189 90 q-24 35 -31 72 q-7 37 -7 99 l0 417 ZM260.5 730.5 q-23.5 23.5 -23.5 56.5 q0 33 23.5 56.5 q23.5 23.5 56.5 23.5 q33 0 56.5 -23.5 q23.5 -23.5 23.5 -56.5 q0 -33 -23.5 -56.5 q-23.5 -23.5 -56.5 -23.5 q-33 0 -56.5 23.5 ZM287.5 816.5 q-11.5 -11.5 -11.5 -29.5 q0 -18 11.5 -29.5 q11.5 -11.5 29.5 -11.5 q18 0 29.5 11.5 q11.5 11.5 11.5 29.5 q0 18 -11.5 29.5 q-11.5 11.5 -29.5 11.5 q-18 0 -29.5 -11.5 Z" /><glyph glyph-name="uring" unicode="&#x16f;" d="M72 408 l40 0 l0 -246 q0 -71 26 -102 q28 -33 81 -33 q53 0 81 33 q26 31 26 102 l0 246 l40 0 l0 -257 q0 -72 -31 -112 q-39 -50 -116 -50 q-77 0 -116 50 q-31 40 -31 112 l0 257 ZM164 494 q-22 22 -22 55 q0 33 22 55 q22 22 55 22 q33 0 55 -22 q22 -22 22 -55 q0 -33 -22 -55 q-22 -22 -55 -22 q-33 0 -55 22 ZM189.5 578.5 q-11.5 -11.5 -11.5 -29.5 q0 -18 11.5 -29.5 q11.5 -11.5 29.5 -11.5 q18 0 29.5 11.5 q11.5 11.5 11.5 29.5 q0 18 -11.5 29.5 q-11.5 11.5 -29.5 11.5 q-18 0 -29.5 -11.5 Z" /><glyph glyph-name="Uhungarumlaut" unicode="&#x170;" d="M90 667 l44 0 l0 -417 q0 -53 5.5 -84.5 q5.5 -31.5 22.5 -59.5 q26 -42 69.5 -59.5 q43.5 -17.5 85.5 -17.5 q42 0 85.5 17.5 q43.5 17.5 69.5 59.5 q17 28 22.5 59.5 q5.5 31.5 5.5 84.5 l0 417 l44 0 l0 -417 q0 -62 -7 -99 q-7 -37 -31 -72 q-62 -90 -189 -90 q-127 0 -189 90 q-24 35 -31 72 q-7 37 -7 99 l0 417 ZM307 854 l52 -26 l-100 -125 l-36 15 l84 136 ZM428 854 l52 -26 l-100 -125 l-36 15 l84 136 Z" /><glyph glyph-name="uhungarumlaut" unicode="&#x171;" d="M72 408 l40 0 l0 -246 q0 -71 26 -102 q28 -33 81 -33 q53 0 81 33 q26 31 26 102 l0 246 l40 0 l0 -257 q0 -72 -31 -112 q-39 -50 -116 -50 q-77 0 -116 50 q-31 40 -31 112 l0 257 ZM218 620 l42 -25 l-99 -128 l-27 16 l84 137 ZM329 620 l42 -25 l-99 -128 l-27 16 l84 137 Z" /><glyph glyph-name="Uogonek" unicode="&#x172;" d="M90 667 l44 0 l0 -427 q0 -54 9.5 -93 q9.5 -39 40.5 -69 q51 -49 133 -49 q84 0 135 51 q22 22 33 54.5 q11 32.5 13 55.5 q2 23 2 60 l0 417 l44 0 l0 -417 q0 -62 -7 -99 q-7 -37 -31 -72 q-18 -27 -37.5 -41.5 q-19.5 -14.5 -53.5 -33.5 q-46 -24 -64 -45 q-23 -26 -23 -56 q0 -19 12 -33 q14 -16 48 -16 q30 0 52 9 l-9 -37 q-22 -8 -45 -8 q-49 0 -77 27 q-23 22 -23 56 q0 26 17 53 q13 21 34 36 q-63 0 -106.5 12.5 q-43.5 12.5 -79.5 48.5 q-37 37 -49 80.5 q-12 43.5 -12 108.5 l0 427 Z" /><glyph glyph-name="uogonek" unicode="&#x173;" d="M72 408 l40 0 l0 -246 q0 -71 26 -102 q28 -33 81 -33 q53 0 81 33 q26 31 26 102 l0 246 l40 0 l0 -257 q0 -74 -31 -112 q-16 -19 -54 -42 q-34 -21 -51 -44 q-19 -25 -19 -50 q0 -21 12 -33 q16 -16 48 -16 q27 0 52 9 l-9 -36 q-24 -8 -45 -8 q-47 0 -73 26 q-23 23 -23 56 q0 29 19 56 q13 19 31 32 q-81 0 -120 50 q-31 40 -31 112 l0 257 Z" /><glyph glyph-name="Ydieresis" unicode="&#x178;" d="M233 0 l0 285 l-219 382 l50 0 l192 -337 l196 337 l50 0 l-225 -382 l0 -285 l-44 0 ZM138 753 q-11 11 -11 27 q0 16 11 27 q11 11 27 11 q16 0 27 -11 q11 -11 11 -27 q0 -16 -11 -27 q-11 -11 -27 -11 q-16 0 -27 11 ZM324 753 q-11 11 -11 27 q0 16 11 27 q11 11 27 11 q16 0 27 -11 q11 -11 11 -27 q0 -16 -11 -27 q-11 -11 -27 -11 q-16 0 -27 11 Z" /><glyph glyph-name="Zacute" unicode="&#x179;" d="M517 667 l-406 -627 l395 0 l0 -40 l-469 0 l406 627 l-367 0 l0 40 l441 0 ZM356 854 l50 -25 l-134 -126 l-32 18 l116 133 Z" /><glyph glyph-name="zacute" unicode="&#x17a;" d="M434 408 l-330 -370 l328 0 l0 -38 l-414 0 l334 370 l-282 0 l0 38 l364 0 ZM295 620 l43 -25 l-105 -128 l-30 16 l92 137 Z" /><glyph glyph-name="Zdotaccent" unicode="&#x17b;" d="M517 667 l-406 -627 l395 0 l0 -40 l-469 0 l406 627 l-367 0 l0 40 l441 0 ZM260.5 751.5 q-11.5 11.5 -11.5 29.5 q0 18 11.5 29.5 q11.5 11.5 29.5 11.5 q18 0 29.5 -11.5 q11.5 -11.5 11.5 -29.5 q0 -18 -11.5 -29.5 q-11.5 -11.5 -29.5 -11.5 q-18 0 -29.5 11.5 Z" /><glyph glyph-name="zdotaccent" unicode="&#x17c;" d="M434 408 l-330 -370 l328 0 l0 -38 l-414 0 l334 370 l-282 0 l0 38 l364 0 ZM212 499 q-11 11 -11 28 q0 17 11 28 q11 11 28 11 q17 0 28 -11 q11 -11 11 -28 q0 -17 -11 -28 q-11 -11 -28 -11 q-17 0 -28 11 Z" /><glyph glyph-name="Zcaron" unicode="&#x17d;" d="M517 667 l-406 -627 l395 0 l0 -40 l-469 0 l406 627 l-367 0 l0 40 l441 0 ZM290 775 l96 64 l34 -27 l-130 -90 l-130 90 l34 27 l96 -64 Z" /><glyph glyph-name="zcaron" unicode="&#x17e;" d="M434 408 l-330 -370 l328 0 l0 -38 l-414 0 l334 370 l-282 0 l0 38 l364 0 ZM240 517 l90 68 l32 -26 l-122 -94 l-122 94 l32 26 l90 -68 Z" /><glyph glyph-name="uni018F" unicode="&#x18f;" d="M54 320 l619 0 l0 10 q0 129 -86 217.5 q-86 88.5 -215 88.5 q-109 0 -191 -70 q-40 -33 -64 -74 l-35 28 q34 48 80 84 q94 72 209 72 q147 0 247.5 -98.5 q100.5 -98.5 100.5 -245.5 q0 -149 -98.5 -246 q-98.5 -97 -246.5 -97 q-162 0 -251 112 q-69 87 -69 219 ZM669 280 l-569 0 q4 -78 43 -138 q30 -46 91.5 -79.5 q61.5 -33.5 140.5 -33.5 q116 0 197 72.5 q81 72.5 97 178.5 Z" /><glyph glyph-name="florin" unicode="&#x192;" d="M184 370 l7 38 l62 0 l45 235 q10 49 33 72 q25 25 69 25 q30 0 58 -14 l-8 -36 q-23 12 -46 12 q-30 0 -46 -15 q-16 -15 -21 -44 l-44 -235 l101 0 l-7 -38 l-101 0 l-72 -385 q-16 -89 -45 -118 q-27 -27 -74 -27 q-38 0 -68 14 l8 37 q29 -13 56 -13 q32 0 49 17 q18 18 31 84 l75 391 l-62 0 Z" /><glyph glyph-name="uni01CF" unicode="&#x1cf;" d="M90 667 l44 0 l0 -667 l-44 0 l0 667 ZM112 779 l80 60 l35 -28 l-115 -89 l-115 89 l35 28 l80 -60 Z" /><glyph glyph-name="uni01D0" unicode="&#x1d0;" d="M72 408 l40 0 l0 -408 l-40 0 l0 408 ZM92 523 l70 60 l30 -26 l-100 -86 l-100 86 l30 26 l70 -60 Z" /><glyph glyph-name="uni01DD" unicode="&#x1dd;" d="M46 207 l349 0 q0 80 -47 126 q-47 46 -115 46 q-48 0 -85 -25.5 q-37 -25.5 -57 -67.5 l-34 20 q23 44 67 77.5 q44 33.5 112 33.5 q93 0 147 -60.5 q54 -60.5 54 -152.5 q0 -101 -58.5 -158 q-58.5 -57 -139.5 -57 q-84 0 -138.5 59.5 q-54.5 59.5 -54.5 158.5 ZM392 169 l-304 0 q8 -62 49.5 -102 q41.5 -40 101.5 -40 q61 0 103 40.5 q42 40.5 50 101.5 Z" /><glyph glyph-name="Gcaron" unicode="&#x1e6;" d="M438 280 l0 40 l280 0 q0 -132 -68 -219 q-88 -112 -251 -112 q-148 0 -246.5 97 q-98.5 97 -98.5 246 q0 147 100.5 245.5 q100.5 98.5 247.5 98.5 q115 0 209 -72 q46 -36 80 -84 l-35 -28 q-24 41 -64 74 q-84 70 -191 70 q-128 0 -214.5 -89 q-86.5 -89 -86.5 -217 q0 -126 85 -213.5 q85 -87.5 213 -87.5 q79 0 140.5 33.5 q61.5 33.5 91.5 79.5 q40 62 44 138 l-236 0 ZM386 775 l96 64 l34 -27 l-130 -90 l-130 90 l34 27 l96 -64 Z" /><glyph glyph-name="gcaron" unicode="&#x1e7;" d="M408 408 l40 0 l0 -396 q0 -115 -54.5 -178.5 q-54.5 -63.5 -150.5 -63.5 q-83 0 -139.5 46.5 q-56.5 46.5 -60.5 128.5 l42 0 q5 -63 48.5 -100 q43.5 -37 109.5 -37 q45 0 78.5 18 q33.5 18 49.5 41 q16 23 25 56 q9 33 10.5 51 q1.5 18 1.5 38 l0 58 q-58 -81 -161 -81 q-81 0 -141 57 q-60 57 -60 158 q0 91 56 152 q56 61 150 61 q100 0 156 -80 l0 71 ZM365.5 329 q-44.5 50 -117.5 50 q-73 0 -116.5 -51.5 q-43.5 -51.5 -43.5 -125.5 q0 -75 43.5 -125 q43.5 -50 114.5 -50 q74 0 119 51 q45 51 45 128 q0 73 -44.5 123 ZM260 517 l90 68 l32 -26 l-122 -94 l-122 94 l32 26 l90 -68 Z" /><glyph glyph-name="AEacute" unicode="&#x1fc;" d="M523 0 l-89 219 l-285 0 l-87 -219 l-48 0 l269 667 l289 0 l17 -40 l-275 0 l99 -242 l268 0 l17 -40 l-268 0 l124 -305 l273 0 l18 -40 l-322 0 ZM165 259 l252 0 l-127 314 l-125 -314 ZM492 854 l50 -25 l-134 -126 l-32 18 l116 133 Z" /><glyph glyph-name="aeacute" unicode="&#x1fd;" d="M747 198 l-350 0 q1 -76 46 -123.5 q45 -47.5 112 -47.5 q94 0 147 92 l34 -24 q-68 -106 -182 -106 q-116 0 -168 102 q-17 -50 -61.5 -76 q-44.5 -26 -107.5 -26 q-82 0 -127 37.5 q-45 37.5 -45 89.5 q0 49 42 89 q42 40 137 40 q83 0 131 -42 q0 176 -142 176 q-67 0 -139 -37 l0 41 q68 34 141 34 q58 0 101 -29 q43 -29 62 -85 q26 53 72 83.5 q46 30.5 103 30.5 q79 0 135.5 -57 q56.5 -57 58.5 -162 ZM402 236 l303 0 q-9 62 -51.5 102.5 q-42.5 40.5 -101.5 40.5 q-59 0 -100.5 -41 q-41.5 -41 -49.5 -102 ZM223 207 q-66 0 -101 -26 q-35 -26 -35 -65 q0 -38 33.5 -63.5 q33.5 -25.5 96.5 -25.5 q70 0 102.5 28.5 q32.5 28.5 32.5 64.5 q0 34 -31 60.5 q-31 26.5 -98 26.5 ZM451 620 l43 -25 l-105 -128 l-30 16 l92 137 Z" /><glyph glyph-name="Scommaaccent" unicode="&#x218;" d="M426 581 l-32 -27 q-42 82 -131 82 q-57 0 -90.5 -36 q-33.5 -36 -33.5 -88 q0 -26 7.5 -45 q7.5 -19 27 -35 q19.5 -16 34.5 -24.5 q15 -8.5 48 -24.5 q108 -52 133 -70 q71 -49 71 -129 q0 -83 -61 -139 q-61 -56 -147 -56 q-95 0 -155 70 q-29 34 -43 73 l38 18 q12 -36 36 -64 q45 -57 125 -57 q68 0 114.5 44 q46.5 44 46.5 110 q0 65 -65 105 q-29 17 -113 58 q-55 27 -80.5 44 q-25.5 17 -41.5 44 q-21 35 -21 76 q0 65 44 115.5 q44 50.5 127 50.5 q51 0 94 -24.5 q43 -24.5 68 -70.5 ZM193 -190 l46 140 l44 -14 l-62 -136 l-28 10 Z" /><glyph glyph-name="scommaaccent" unicode="&#x219;" d="M280 351 l-34 -18 q-20 46 -71 46 q-32 0 -50.5 -20 q-18.5 -20 -18.5 -45 q0 -19 11 -32.5 q11 -13.5 23 -20 q12 -6.5 38 -16.5 q4 -1 19.5 -7.5 q15.5 -6.5 20.5 -8.5 q5 -2 17.5 -7.5 q12.5 -5.5 18.5 -10 q6 -4.5 14.5 -11.5 q8.5 -7 14.5 -15 q21 -26 21 -66 q0 -65 -39.5 -97.5 q-39.5 -32.5 -93.5 -32.5 q-52 0 -90 29 q-38 29 -51 79 l39 12 q10 -39 38.5 -60.5 q28.5 -21.5 63.5 -21.5 q39 0 65 25.5 q26 25.5 26 64.5 q0 32 -20 49.5 q-20 17.5 -71 38.5 q-70 29 -89 54 q-18 24 -18 53 q0 46 31 75.5 q31 29.5 78 29.5 q79 0 107 -66 ZM104 -190 l46 140 l44 -14 l-62 -136 l-28 10 Z" /><glyph glyph-name="Tcommaaccent" unicode="&#x21a;" d="M404 627 l-173 0 l0 -627 l-44 0 l0 627 l-173 0 l0 40 l390 0 l0 -40 ZM153 -190 l46 140 l44 -14 l-62 -136 l-28 10 Z" /><glyph glyph-name="tcommaaccent" unicode="&#x21b;" d="M186 370 l-71 0 l0 -370 l-40 0 l0 370 l-45 0 l0 38 l45 0 l0 146 l40 0 l0 -146 l71 0 l0 -38 ZM42 -190 l46 140 l44 -14 l-62 -136 l-28 10 Z" /><glyph glyph-name="uni0228" unicode="&#x228;" d="M410 667 l0 -40 l-276 0 l0 -242 l270 0 l0 -40 l-270 0 l0 -305 l276 0 l0 -40 l-320 0 l0 667 l320 0 ZM252 -50 l46 -26 l-108 -126 l-30 18 l92 134 Z" /><glyph glyph-name="uni0229" unicode="&#x229;" d="M437 199 l-349 0 q0 -76 47.5 -124 q47.5 -48 114.5 -48 q48 0 85 25.5 q37 25.5 57 67.5 l34 -20 q-23 -44 -67 -77.5 q-44 -33.5 -112 -33.5 q-93 0 -147 60.5 q-54 60.5 -54 152.5 q0 101 58.5 158 q58.5 57 139.5 57 q83 0 138 -61 q55 -61 55 -157 ZM91 237 l304 0 q-8 62 -49.5 102 q-41.5 40 -101.5 40 q-61 0 -103 -40.5 q-42 -40.5 -50 -101.5 ZM259 -50 l46 -20 l-100 -124 l-28 16 l82 128 Z" /><glyph glyph-name="uni0237" unicode="&#x237;" d="M72 408 l40 0 l0 -638 l-40 0 l0 638 Z" /><glyph glyph-name="uni0259" unicode="&#x259;" d="M46 207 l349 0 q0 80 -47 126 q-47 46 -115 46 q-48 0 -85 -25.5 q-37 -25.5 -57 -67.5 l-34 20 q23 44 67 77.5 q44 33.5 112 33.5 q93 0 147 -60.5 q54 -60.5 54 -152.5 q0 -101 -58.5 -158 q-58.5 -57 -139.5 -57 q-84 0 -138.5 59.5 q-54.5 59.5 -54.5 158.5 ZM392 169 l-304 0 q8 -62 49.5 -102 q41.5 -40 101.5 -40 q61 0 103 40.5 q42 40.5 50 101.5 Z" /><glyph glyph-name="afii57929" unicode="&#x2bc;" d="M192 520 l46 160 l44 -14 l-62 -156 l-28 10 Z" /><glyph glyph-name="circumflex" unicode="&#x2c6;" d="M250 535 l-90 -68 l-32 25 l122 94 l122 -94 l-32 -25 l-90 68 Z" /><glyph glyph-name="caron" unicode="&#x2c7;" d="M250 517 l90 68 l32 -26 l-122 -94 l-122 94 l32 26 l90 -68 Z" /><glyph glyph-name="uni02C9" unicode="&#x2c9;" d="M115 493 l0 39 l270 0 l0 -39 l-270 0 Z" /><glyph glyph-name="breve" unicode="&#x2d8;" d="M125 573 l38 0 q5 -22 25 -37 q26 -19 62 -19 q36 0 62 19 q20 15 25 37 l38 0 q-4 -33 -29 -58 q-36 -36 -96 -36 q-60 0 -96 36 q-25 25 -29 58 Z" /><glyph glyph-name="dotaccent" unicode="&#x2d9;" d="M222 499 q-11 11 -11 28 q0 17 11 28 q11 11 28 11 q17 0 28 -11 q11 -11 11 -28 q0 -17 -11 -28 q-11 -11 -28 -11 q-17 0 -28 11 Z" /><glyph glyph-name="ring" unicode="&#x2da;" d="M195 494 q-22 22 -22 55 q0 33 22 55 q22 22 55 22 q33 0 55 -22 q22 -22 22 -55 q0 -33 -22 -55 q-22 -22 -55 -22 q-33 0 -55 22 ZM220.5 578.5 q-11.5 -11.5 -11.5 -29.5 q0 -18 11.5 -29.5 q11.5 -11.5 29.5 -11.5 q18 0 29.5 11.5 q11.5 11.5 11.5 29.5 q0 18 -11.5 29.5 q-11.5 11.5 -29.5 11.5 q-18 0 -29.5 -11.5 Z" /><glyph glyph-name="ogonek" unicode="&#x2db;" d="M358 -137 l-9 -36 q-20 -8 -45 -8 q-47 0 -71.5 25 q-24.5 25 -24.5 57 q0 33 23 62 q16 20 43 37 l40 0 q-27 -18 -46 -42 q-22 -29 -22 -55 q0 -22 15 -35.5 q15 -13.5 45 -13.5 q23 0 52 9 Z" /><glyph glyph-name="tilde" unicode="&#x2dc;" d="M149 487 l-26 19 q9 25 23 38 q19 19 46 19 q22 0 72 -22 q31 -13 47 -13 q16 0 27 12 q14 18 14 25 l25 -20 q-9 -24 -26 -40 q-20 -17 -45 -17 q-18 0 -58 17 q-43 18 -59 18 q-17 0 -28 -12 q-9 -10 -12 -24 Z" /><glyph glyph-name="hungarumlaut" unicode="&#x2dd;" d="M249 620 l42 -25 l-99 -128 l-27 16 l84 137 ZM360 620 l42 -25 l-99 -128 l-27 16 l84 137 Z" /><glyph glyph-name="acutecomb" unicode="&#x301;" d="M-173 620 l43 -25 l-105 -128 l-30 16 l92 137 Z" /><glyph glyph-name="Delta" unicode="&#x394;&#x2206;" d="M614 0 l-600 0 l280 667 l40 0 l280 -667 ZM314 603 l-234 -563 l468 0 l-234 563 Z" /><glyph glyph-name="Omega" unicode="&#x3a9;&#x2126;" d="M28 40 l204 0 q-65 33 -116 92 q-88 101 -88 222 q0 62 23 124 q23 62 68 109 q85 89 214 89 q129 0 214 -89 q91 -93 91 -230 q0 -124 -88 -225 q-51 -59 -116 -92 l204 0 l0 -40 l-256 0 l0 44 q86 46 138 109 q72 87 72 198 q0 127 -79 208 q-75 77 -180 77 q-107 0 -180 -77 q-39 -41 -59 -97 q-20 -56 -20 -112 q0 -110 72 -197 q52 -63 138 -109 l0 -44 l-256 0 l0 40 Z" /><glyph glyph-name="pi" unicode="&#x3c0;" d="M134 0 l-40 0 l0 370 l-72 0 l0 38 l448 0 l0 -38 l-72 0 l0 -370 l-40 0 l0 370 l-224 0 l0 -370 Z" /><glyph glyph-name="afii10023" unicode="&#x401;" d="M410 667 l0 -40 l-276 0 l0 -242 l270 0 l0 -40 l-270 0 l0 -305 l276 0 l0 -40 l-320 0 l0 667 l320 0 ZM132 753 q-11 11 -11 27 q0 16 11 27 q11 11 27 11 q16 0 27 -11 q11 -11 11 -27 q0 -16 -11 -27 q-11 -11 -27 -11 q-16 0 -27 11 ZM318 753 q-11 11 -11 27 q0 16 11 27 q11 11 27 11 q16 0 27 -11 q11 -11 11 -27 q0 -16 -11 -27 q-11 -11 -27 -11 q-16 0 -27 11 Z" /><glyph glyph-name="afii10051" unicode="&#x402;" d="M424 627 l-200 0 l0 -262 q69 23 137 23 q115 0 167 -61 q42 -49 42 -133 q0 -110 -67 -163 q-47 -37 -127 -37 q-30 0 -68 6 l0 40 q28 -6 63 -6 q70 0 107 33 q46 41 46 125 q0 65 -33 107 q-41 49 -127 49 q-71 0 -140 -23 l0 -325 l-44 0 l0 627 l-166 0 l0 40 l410 0 l0 -40 Z" /><glyph glyph-name="afii10052" unicode="&#x403;" d="M90 0 l0 667 l296 0 l0 -40 l-252 0 l0 -627 l-44 0 ZM316 854 l50 -25 l-134 -126 l-32 18 l116 133 Z" /><glyph glyph-name="afii10053" unicode="&#x404;" d="M624 589 l0 -58 q-43 50 -101.5 77.5 q-58.5 27.5 -123.5 27.5 q-115 0 -200.5 -77 q-85.5 -77 -96.5 -195 l442 0 l0 -40 l-444 0 q3 -133 94.5 -214 q91.5 -81 205.5 -81 q56 0 116 24.5 q60 24.5 108 76.5 l0 -58 q-94 -83 -222 -83 q-148 0 -248 101 q-100 101 -100 242 q0 144 101 244 q101 100 245 100 q132 0 224 -87 Z" /><glyph glyph-name="afii10054" unicode="&#x405;" d="M426 581 l-32 -27 q-42 82 -131 82 q-57 0 -90.5 -36 q-33.5 -36 -33.5 -88 q0 -26 7.5 -45 q7.5 -19 27 -35 q19.5 -16 34.5 -24.5 q15 -8.5 48 -24.5 q108 -52 133 -70 q71 -49 71 -129 q0 -83 -61 -139 q-61 -56 -147 -56 q-95 0 -155 70 q-29 34 -43 73 l38 18 q12 -36 36 -64 q45 -57 125 -57 q68 0 114.5 44 q46.5 44 46.5 110 q0 65 -65 105 q-29 17 -113 58 q-5 2 -22 10.5 q-17 8.5 -23.5 12 q-6.5 3.5 -20.5 12 q-14 8.5 -22 15 q-8 6.5 -17.5 17 q-9.5 10.5 -16.5 21.5 q-21 35 -21 76 q0 65 44 115.5 q44 50.5 127 50.5 q51 0 94 -24.5 q43 -24.5 68 -70.5 Z" /><glyph glyph-name="afii10055" unicode="&#x406;" d="M90 667 l44 0 l0 -667 l-44 0 l0 667 Z" /><glyph glyph-name="afii10056" unicode="&#x407;" d="M90 667 l44 0 l0 -667 l-44 0 l0 667 ZM21 753 q-11 11 -11 27 q0 16 11 27 q11 11 27 11 q16 0 27 -11 q11 -11 11 -27 q0 -16 -11 -27 q-11 -11 -27 -11 q-16 0 -27 11 ZM149 753 q-11 11 -11 27 q0 16 11 27 q11 11 27 11 q16 0 27 -11 q11 -11 11 -27 q0 -16 -11 -27 q-11 -11 -27 -11 q-16 0 -27 11 Z" /><glyph glyph-name="afii10057" unicode="&#x408;" d="M129 667 l44 0 l0 -537 q0 -76 -33 -110 q-31 -31 -83 -31 q-38 0 -73 25 q-18 13 -38 45 l30 26 q13 -25 31 -38 q24 -18 52 -18 q32 0 48 19 q22 24 22 82 l0 537 Z" /><glyph glyph-name="afii10058" unicode="&#x409;" d="M154 667 l376 0 l0 -287 l116 0 q230 0 230 -183 q0 -83 -53.5 -140 q-53.5 -57 -162.5 -57 l-174 0 l0 627 l-288 0 l0 -388 q0 -50 -1.5 -77.5 q-1.5 -27.5 -12.5 -65.5 q-11 -38 -33 -62 q-36 -40 -97 -40 q-16 0 -40 6 l0 40 q20 -6 37 -6 q39 0 65 26 q18 18 26.5 51 q8.5 33 10 57.5 q1.5 24.5 1.5 70.5 l0 428 ZM530 340 l0 -300 l112 0 q101 0 146 44 q42 40 42 113 q0 87 -69 123 q-39 20 -127 20 l-104 0 Z" /><glyph glyph-name="afii10059" unicode="&#x40a;" d="M134 667 l0 -287 l404 0 l0 287 l44 0 l0 -287 l116 0 q230 0 230 -183 q0 -83 -53.5 -140 q-53.5 -57 -162.5 -57 l-174 0 l0 340 l-404 0 l0 -340 l-44 0 l0 667 l44 0 ZM582 340 l0 -300 l112 0 q101 0 146 44 q42 40 42 113 q0 87 -69 123 q-39 20 -127 20 l-104 0 Z" /><glyph glyph-name="afii10060" unicode="&#x40b;" d="M424 627 l-200 0 l0 -243 l170 0 q91 0 136 -22 q44 -21 57 -55.5 q13 -34.5 13 -93.5 l0 -213 l-44 0 l0 213 q0 19 -1 31 q-1 12 -6 30 q-5 18 -16.5 32 q-11.5 14 -30.5 23 q-31 15 -122 15 l-156 0 l0 -344 l-44 0 l0 627 l-166 0 l0 40 l410 0 l0 -40 Z" /><glyph glyph-name="afii10061" unicode="&#x40c;" d="M134 667 l0 -314 l315 314 l58 0 l-323 -319 l342 -348 l-60 0 l-314 318 l-18 -17 l0 -301 l-44 0 l0 667 l44 0 ZM336 854 l50 -25 l-134 -126 l-32 18 l116 133 Z" /><glyph glyph-name="afii10062" unicode="&#x40e;" d="M14 667 l50 0 l231 -432 l195 432 l46 0 l-305 -667 l-46 0 l85 186 l-256 481 ZM145 803 l35 19 q29 -64 105 -64 q76 0 105 64 l35 -19 q-21 -46 -60.5 -65.5 q-39.5 -19.5 -79.5 -19.5 q-40 0 -79.5 19.5 q-39.5 19.5 -60.5 65.5 Z" /><glyph glyph-name="afii10145" unicode="&#x40f;" d="M90 0 l0 667 l44 0 l0 -627 l398 0 l0 627 l44 0 l0 -667 l-221 0 l0 -150 l-44 0 l0 150 l-221 0 Z" /><glyph glyph-name="afii10017" unicode="&#x410;" d="M524 0 l-89 219 l-284 0 l-89 -219 l-48 0 l281 687 l277 -687 l-48 0 ZM167 259 l252 0 l-125 316 l-127 -316 Z" /><glyph glyph-name="afii10018" unicode="&#x411;" d="M90 0 l0 667 l321 0 l0 -40 l-277 0 l0 -247 l116 0 q230 0 230 -183 q0 -83 -53.5 -140 q-53.5 -57 -162.5 -57 l-174 0 ZM134 340 l0 -300 l112 0 q101 0 146 44 q42 40 42 113 q0 87 -69 123 q-40 20 -127 20 l-104 0 Z" /><glyph glyph-name="afii10019" unicode="&#x412;" d="M90 0 l0 667 l146 0 q86 0 135 -45.5 q49 -45.5 49 -121.5 q0 -98 -78 -146 q64 -10 101 -56 q37 -46 37 -111 q0 -86 -57.5 -136.5 q-57.5 -50.5 -149.5 -50.5 l-183 0 ZM134 627 l0 -262 l106 0 q57 0 91 28 q44 36 44 102 q0 67 -45 104 q-36 28 -111 28 l-85 0 ZM134 325 l0 -285 l112 0 q31 0 49 1.5 q18 1.5 46.5 10.5 q28.5 9 49.5 28 q43 38 43 102 q0 91 -71 124 q-43 19 -125 19 l-104 0 Z" /><glyph glyph-name="afii10020" unicode="&#x413;" d="M90 0 l0 667 l296 0 l0 -40 l-252 0 l0 -627 l-44 0 Z" /><glyph glyph-name="afii10021" unicode="&#x414;" d="M144 667 l376 0 l0 -627 l76 0 l0 -174 l-42 0 l0 134 l-498 0 l0 -134 l-42 0 l0 174 q34 0 62 25 q28 25 44 65 q24 61 24 175 l0 362 ZM188 627 l0 -322 q0 -123 -24 -186 q-17 -45 -51 -79 l363 0 l0 587 l-288 0 Z" /><glyph glyph-name="afii10022" unicode="&#x415;" d="M410 667 l0 -40 l-276 0 l0 -242 l270 0 l0 -40 l-270 0 l0 -305 l276 0 l0 -40 l-320 0 l0 667 l320 0 Z" /><glyph glyph-name="afii10024" unicode="&#x416;" d="M376 667 l44 0 l0 -314 l282 314 l58 0 l-296 -323 l318 -344 l-58 0 l-291 314 l-13 -13 l0 -301 l-44 0 l0 301 l-13 13 l-291 -314 l-58 0 l318 344 l-296 323 l58 0 l282 -314 l0 314 Z" /><glyph glyph-name="afii10025" unicode="&#x417;" d="M136 554 l-32 27 q58 95 181 95 q76 0 121 -43 q48 -44 48 -120 q0 -99 -88 -146 q64 -16 99 -64 q35 -48 35 -112 q0 -105 -76 -160 q-58 -42 -145 -42 q-83 0 -140 40.5 q-57 40.5 -85 100.5 l42 20 q25 -60 78.5 -90.5 q53.5 -30.5 107.5 -30.5 q68 0 115 35 q57 42 57 127 q0 70 -47.5 109 q-47.5 39 -130.5 39 l-60 0 l0 40 l60 0 q53 0 92.5 36.5 q39.5 36.5 39.5 97.5 q0 52 -31 86 q-34 37 -97 37 q-91 0 -144 -82 Z" /><glyph glyph-name="afii10026" unicode="&#x418;" d="M566 0 l0 556 l-476 -573 l0 684 l44 0 l0 -566 l476 573 l0 -674 l-44 0 Z" /><glyph glyph-name="afii10027" unicode="&#x419;" d="M566 0 l0 556 l-476 -573 l0 684 l44 0 l0 -566 l476 573 l0 -674 l-44 0 ZM210 803 l35 19 q29 -64 105 -64 q76 0 105 64 l35 -19 q-21 -46 -60.5 -65.5 q-39.5 -19.5 -79.5 -19.5 q-40 0 -79.5 19.5 q-39.5 19.5 -60.5 65.5 Z" /><glyph glyph-name="afii10028" unicode="&#x41a;" d="M134 667 l0 -314 l315 314 l58 0 l-323 -319 l342 -348 l-60 0 l-314 318 l-18 -17 l0 -301 l-44 0 l0 667 l44 0 Z" /><glyph glyph-name="afii10029" unicode="&#x41b;" d="M154 667 l376 0 l0 -667 l-44 0 l0 627 l-288 0 l0 -388 q0 -50 -1.5 -77.5 q-1.5 -27.5 -12.5 -65.5 q-11 -38 -33 -62 q-36 -40 -97 -40 q-16 0 -40 6 l0 40 q20 -6 37 -6 q39 0 65 26 q18 18 26.5 51 q8.5 33 10 57.5 q1.5 24.5 1.5 70.5 l0 428 Z" /><glyph glyph-name="afii10030" unicode="&#x41c;" d="M127 0 l-44 0 l76 690 l289 -617 l289 617 l76 -690 l-44 0 l-59 536 l-262 -560 l-262 560 l-59 -536 Z" /><glyph glyph-name="afii10031" unicode="&#x41d;" d="M134 667 l0 -283 l404 0 l0 283 l44 0 l0 -667 l-44 0 l0 344 l-404 0 l0 -344 l-44 0 l0 667 l44 0 Z" /><glyph glyph-name="afii10032" unicode="&#x41e;" d="M154 576 q100 100 246 100 q146 0 246 -100 q100 -100 100 -244 q0 -144 -100 -243.5 q-100 -99.5 -246 -99.5 q-146 0 -246 99.5 q-100 99.5 -100 243.5 q0 144 100 244 ZM186 116.5 q86 -87.5 214 -87.5 q128 0 214 87.5 q86 87.5 86 215.5 q0 129 -86 216.5 q-86 87.5 -214 87.5 q-128 0 -214 -87.5 q-86 -87.5 -86 -216.5 q0 -128 86 -215.5 Z" /><glyph glyph-name="afii10033" unicode="&#x41f;" d="M90 667 l492 0 l0 -667 l-44 0 l0 627 l-404 0 l0 -627 l-44 0 l0 667 Z" /><glyph glyph-name="afii10034" unicode="&#x420;" d="M220 317 l-86 0 l0 -317 l-44 0 l0 667 l129 0 q85 0 140 -45.5 q55 -45.5 55 -128.5 q0 -82 -53 -129 q-53 -47 -141 -47 ZM134 627 l0 -270 l88 0 q66 0 106 36.5 q40 36.5 40 98.5 q0 63 -40.5 99 q-40.5 36 -112.5 36 l-81 0 Z" /><glyph glyph-name="afii10035" unicode="&#x421;" d="M624 589 l0 -58 q-43 50 -101.5 77.5 q-58.5 27.5 -123.5 27.5 q-127 0 -213 -89 q-86 -89 -86 -217 q0 -71 27.5 -130 q27.5 -59 72 -95.5 q44.5 -36.5 96.5 -56 q52 -19.5 104 -19.5 q56 0 116 24.5 q60 24.5 108 76.5 l0 -58 q-94 -83 -222 -83 q-148 0 -248 101 q-100 101 -100 242 q0 144 101 244 q101 100 245 100 q132 0 224 -87 Z" /><glyph glyph-name="afii10036" unicode="&#x422;" d="M404 627 l-173 0 l0 -627 l-44 0 l0 627 l-173 0 l0 40 l390 0 l0 -40 Z" /><glyph glyph-name="afii10037" unicode="&#x423;" d="M14 667 l50 0 l231 -432 l195 432 l46 0 l-305 -667 l-46 0 l85 186 l-256 481 Z" /><glyph glyph-name="afii10038" unicode="&#x424;" d="M388 0 l0 94 l-28 0 q-71 0 -126.5 17 q-55.5 17 -88.5 43 q-33 26 -54.5 62 q-21.5 36 -29 69.5 q-7.5 33.5 -7.5 68.5 q0 35 7.5 68.5 q7.5 33.5 29 69.5 q21.5 36 54.5 62 q33 26 88.5 43 q55.5 17 126.5 17 l28 0 l0 80 l44 0 l0 -80 l28 0 q71 0 126.5 -17 q55.5 -17 88.5 -43 q33 -26 54.5 -62 q21.5 -36 29 -69.5 q7.5 -33.5 7.5 -68.5 q0 -35 -7.5 -68.5 q-7.5 -33.5 -29 -69.5 q-21.5 -36 -54.5 -62 q-33 -26 -88.5 -43 q-55.5 -17 -126.5 -17 l-28 0 l0 -94 l-44 0 ZM388 134 l0 440 l-30 0 q-73 0 -126.5 -20.5 q-53.5 -20.5 -80.5 -54.5 q-27 -34 -39 -69.5 q-12 -35.5 -12 -75.5 q0 -40 12 -75.5 q12 -35.5 39 -69.5 q27 -34 80.5 -54.5 q53.5 -20.5 126.5 -20.5 l30 0 ZM432 574 l0 -440 l30 0 q73 0 126.5 20.5 q53.5 20.5 80.5 54.5 q27 34 39 69.5 q12 35.5 12 75.5 q0 40 -12 75.5 q-12 35.5 -39 69.5 q-27 34 -80.5 54.5 q-53.5 20.5 -126.5 20.5 l-30 0 Z" /><glyph glyph-name="afii10039" unicode="&#x425;" d="M23 0 l183 340 l-175 327 l48 0 l151 -285 l152 285 l48 0 l-174 -327 l183 -340 l-48 0 l-161 300 l-159 -300 l-48 0 Z" /><glyph glyph-name="afii10040" unicode="&#x426;" d="M90 0 l0 667 l44 0 l0 -627 l398 0 l0 627 l44 0 l0 -627 l76 0 l0 -174 l-42 0 l0 134 l-520 0 Z" /><glyph glyph-name="afii10041" unicode="&#x427;" d="M446 0 l0 300 q-112 -7 -170 -7 q-91 0 -136 22 q-44 21 -57 55.5 q-13 34.5 -13 93.5 l0 203 l44 0 l0 -203 q0 -20 1 -31.5 q1 -11.5 5.5 -29.5 q4.5 -18 16.5 -32 q12 -14 31 -23 q31 -15 122 -15 q69 0 156 7 l0 327 l44 0 l0 -667 l-44 0 Z" /><glyph glyph-name="afii10042" unicode="&#x428;" d="M90 0 l0 667 l44 0 l0 -627 l304 0 l0 627 l44 0 l0 -627 l304 0 l0 627 l44 0 l0 -667 l-740 0 Z" /><glyph glyph-name="afii10043" unicode="&#x429;" d="M90 0 l0 667 l44 0 l0 -627 l304 0 l0 627 l44 0 l0 -627 l304 0 l0 627 l44 0 l0 -627 l76 0 l0 -174 l-42 0 l0 134 l-774 0 Z" /><glyph glyph-name="afii10044" unicode="&#x42a;" d="M174 0 l0 627 l-160 0 l0 40 l204 0 l0 -287 l116 0 q230 0 230 -183 q0 -83 -53.5 -140 q-53.5 -57 -162.5 -57 l-174 0 ZM218 340 l0 -300 l112 0 q101 0 146 44 q42 40 42 113 q0 87 -69 123 q-39 20 -127 20 l-104 0 Z" /><glyph glyph-name="afii10045" unicode="&#x42b;" d="M90 0 l0 667 l44 0 l0 -287 l116 0 q230 0 230 -183 q0 -83 -53.5 -140 q-53.5 -57 -162.5 -57 l-174 0 ZM134 340 l0 -300 l112 0 q101 0 146 44 q42 40 42 113 q0 87 -69 123 q-39 20 -127 20 l-104 0 ZM556 667 l44 0 l0 -667 l-44 0 l0 667 Z" /><glyph glyph-name="afii10046" unicode="&#x42c;" d="M90 0 l0 667 l44 0 l0 -287 l116 0 q230 0 230 -183 q0 -83 -53.5 -140 q-53.5 -57 -162.5 -57 l-174 0 ZM134 340 l0 -300 l112 0 q101 0 146 44 q42 40 42 113 q0 87 -69 123 q-39 20 -127 20 l-104 0 Z" /><glyph glyph-name="afii10047" unicode="&#x42d;" d="M54 72 l0 58 q48 -52 108 -76.5 q60 -24.5 116 -24.5 q114 0 205 81 q91 81 95 214 l-444 0 l0 40 l442 0 q-11 118 -96.5 195 q-85.5 77 -200.5 77 q-65 0 -123.5 -27.5 q-58.5 -27.5 -101.5 -77.5 l0 58 q92 87 224 87 q144 0 245 -100 q101 -100 101 -244 q0 -141 -100 -242 q-100 -101 -248 -101 q-128 0 -222 83 Z" /><glyph glyph-name="afii10048" unicode="&#x42e;" d="M134 372 l102 0 q15 132 110 218 q95 86 224 86 q142 0 239 -100 q97 -100 97 -244 q0 -144 -97 -243.5 q-97 -99.5 -239 -99.5 q-142 0 -238 100 q-96 100 -98 243 l-100 0 l0 -332 l-44 0 l0 667 l44 0 l0 -295 ZM362.5 116.5 q82.5 -87.5 207.5 -87.5 q125 0 207.5 87.5 q82.5 87.5 82.5 215.5 q0 128 -83 216 q-83 88 -207 88 q-124 0 -207 -88 q-83 -88 -83 -216 q0 -128 82.5 -215.5 Z" /><glyph glyph-name="afii10049" unicode="&#x42f;" d="M34 0 l202 299 q-38 1 -75 15 q-13 5 -26.5 13.5 q-13.5 8.5 -34 27 q-20.5 18.5 -33.5 52 q-13 33.5 -13 76.5 q0 59 26 98.5 q26 39.5 61 59.5 q44 26 125 26 l114 0 l0 -667 l-44 0 l0 299 l-50 0 l-200 -299 l-52 0 ZM336 627 l-70 0 q-58 0 -91 -16 q-35 -16 -55 -50 q-20 -34 -20 -78 q0 -70 44 -109 q39 -35 116 -35 l76 0 l0 288 Z" /><glyph glyph-name="afii10065" unicode="&#x430;" d="M404 337 l0 71 l40 0 l0 -408 l-40 0 l0 73 q-55 -84 -159 -84 q-83 0 -141 59 q-58 59 -58 156 q0 95 55 154 q55 59 144 59 q102 0 159 -80 ZM247 379 q-65 0 -112 -46.5 q-47 -46.5 -47 -125.5 q0 -73 43 -126.5 q43 -53.5 117 -53.5 q73 0 115.5 52.5 q42.5 52.5 42.5 127.5 q0 83 -49 127.5 q-49 44.5 -110 44.5 Z" /><glyph glyph-name="afii10066" unicode="&#x431;" d="M87 311 l2 0 q23 53 72.5 79.5 q49.5 26.5 106.5 26.5 q93 0 149.5 -59 q56.5 -59 56.5 -154 q0 -98 -61 -156.5 q-61 -58.5 -154 -58.5 q-88 0 -143 51 q-70 66 -70 218 q0 246 128 329 q12 8 26 14.5 q14 6.5 24.5 10.5 q10.5 4 28.5 8.5 q18 4.5 26 6 q8 1.5 28.5 5.5 q20.5 4 24.5 5 q74 16 90 53 l50 0 q-11 -25 -27.5 -42.5 q-16.5 -17.5 -40 -28 q-23.5 -10.5 -39 -15 q-15.5 -4.5 -41.5 -10.5 q-99 -20 -143 -55 q-46 -37 -68.5 -100 q-22.5 -63 -25.5 -128 ZM259 27 q86 0 129.5 53.5 q43.5 53.5 43.5 123.5 q0 70 -44 122.5 q-44 52.5 -120 52.5 q-82 0 -129 -53 q-47 -53 -47 -122 q0 -67 39 -118 q45 -59 128 -59 Z" /><glyph glyph-name="afii10067" unicode="&#x432;" d="M72 408 l133 0 q57 0 87 -24 q36 -29 36 -78 q0 -56 -45 -85 q28 -4 50 -23 q35 -31 35 -82 q0 -57 -41 -88 q-36 -28 -100 -28 l-155 0 l0 408 ZM112 230 l93 0 q37 0 58 17 q25 20 25 54 q0 33 -25 53 q-20 16 -58 16 l-93 0 l0 -140 ZM112 38 l115 0 q46 0 70 18 q29 22 29 61 q0 36 -27 57 q-24 18 -72 18 l-115 0 l0 -154 Z" /><glyph glyph-name="afii10068" unicode="&#x433;" d="M72 0 l0 408 l220 0 l0 -38 l-180 0 l0 -370 l-40 0 Z" /><glyph glyph-name="afii10069" unicode="&#x434;" d="M100 408 l268 0 l0 -370 l60 0 l0 -148 l-38 0 l0 110 l-344 0 l0 -110 l-38 0 l0 148 q50 3 75 54 q17 35 17 110 l0 206 ZM328 38 l0 332 l-188 0 l0 -180 q0 -108 -52 -152 l240 0 Z" /><glyph glyph-name="afii10070" unicode="&#x435;" d="M437 199 l-349 0 q0 -76 47.5 -124 q47.5 -48 114.5 -48 q48 0 85 25.5 q37 25.5 57 67.5 l34 -20 q-23 -44 -67 -77.5 q-44 -33.5 -112 -33.5 q-93 0 -147 60.5 q-54 60.5 -54 152.5 q0 101 58.5 158 q58.5 57 139.5 57 q83 0 138 -61 q55 -61 55 -157 ZM91 237 l304 0 q-8 62 -49.5 102 q-41.5 40 -101.5 40 q-61 0 -103 -40.5 q-42 -40.5 -50 -101.5 Z" /><glyph glyph-name="afii10072" unicode="&#x436;" d="M260 408 l40 0 l0 -194 l184 194 l52 0 l-190 -196 l206 -212 l-54 0 l-178 186 l-20 -20 l0 -166 l-40 0 l0 166 l-20 20 l-178 -186 l-54 0 l206 212 l-190 196 l52 0 l184 -194 l0 194 Z" /><glyph glyph-name="afii10073" unicode="&#x437;" d="M105 322 l-33 23 q42 72 129 72 q59 0 90 -29 q33 -29 33 -79 q0 -60 -47 -85 q27 -6 48 -27 q29 -29 29 -78 q0 -63 -48 -100 q-40 -30 -104 -30 q-66 0 -107 31 q-33 27 -49 59 l36 23 q15 -33 43 -52 q31 -23 77 -23 q51 0 78 23 q32 26 32 70 q0 39 -28 60 q-24 18 -75 18 l-42 0 l0 38 l31 0 q39 0 61 17 q25 20 25 52 q0 32 -21 53 q-23 21 -63 21 q-64 0 -95 -57 Z" /><glyph glyph-name="afii10074" unicode="&#x438;" d="M72 408 l40 0 l0 -327 l290 350 l0 -431 l-40 0 l0 325 l-290 -350 l0 433 Z" /><glyph glyph-name="afii10075" unicode="&#x439;" d="M72 408 l40 0 l0 -327 l290 350 l0 -431 l-40 0 l0 325 l-290 -350 l0 433 ZM118 573 l34 17 q8 -31 33.5 -52 q25.5 -21 62.5 -21 q37 0 62.5 21 q25.5 21 33.5 52 l34 -17 q-30 -94 -130 -94 q-100 0 -130 94 Z" /><glyph glyph-name="afii10076" unicode="&#x43a;" d="M72 408 l40 0 l0 -194 l206 194 l54 0 l-208 -194 l224 -214 l-58 0 l-196 187 l-22 -21 l0 -166 l-40 0 l0 408 Z" /><glyph glyph-name="afii10077" unicode="&#x43b;" d="M358 408 l0 -408 l-40 0 l0 370 l-188 0 l0 -236 q0 -67 -24 -99 q-27 -37 -78 -37 q-6 0 -20 2 l0 38 q10 -2 15 -2 q34 0 53 27 q14 22 14 71 l0 274 l268 0 Z" /><glyph glyph-name="afii10078" unicode="&#x43c;" d="M24 0 l96 433 l163 -368 l163 368 l96 -433 l-42 0 l-66 319 l-151 -344 l-151 344 l-66 -319 l-42 0 Z" /><glyph glyph-name="afii10079" unicode="&#x43d;" d="M72 0 l0 408 l40 0 l0 -180 l230 0 l0 180 l40 0 l0 -408 l-40 0 l0 190 l-230 0 l0 -190 l-40 0 Z" /><glyph glyph-name="afii10080" unicode="&#x43e;" d="M107.5 355.5 q61.5 61.5 152.5 61.5 q91 0 152.5 -61.5 q61.5 -61.5 61.5 -152.5 q0 -91 -61.5 -152.5 q-61.5 -61.5 -152.5 -61.5 q-91 0 -152.5 61.5 q-61.5 61.5 -61.5 152.5 q0 91 61.5 152.5 ZM137.5 78 q49.5 -51 122.5 -51 q73 0 122.5 51 q49.5 51 49.5 125 q0 74 -49.5 125 q-49.5 51 -122.5 51 q-73 0 -122.5 -51 q-49.5 -51 -49.5 -125 q0 -74 49.5 -125 Z" /><glyph glyph-name="afii10081" unicode="&#x43f;" d="M72 0 l0 408 l304 0 l0 -408 l-40 0 l0 370 l-224 0 l0 -370 l-40 0 Z" /><glyph glyph-name="afii10082" unicode="&#x440;" d="M112 73 l0 -303 l-40 0 l0 638 l40 0 l0 -71 q59 80 160 80 q90 0 144 -59.5 q54 -59.5 54 -150.5 q0 -93 -54.5 -155.5 q-54.5 -62.5 -145.5 -62.5 q-46 0 -83 18.5 q-37 18.5 -51 34 q-14 15.5 -24 31.5 ZM152 78.5 q42 -51.5 117 -51.5 q75 0 117 51 q42 51 42 129 q0 81 -46 126.5 q-46 45.5 -112 45.5 q-65 0 -112.5 -45 q-47.5 -45 -47.5 -125 q0 -79 42 -130.5 Z" /><glyph glyph-name="afii10083" unicode="&#x441;" d="M399 365 l0 -53 q-58 67 -141 67 q-74 0 -122 -50.5 q-48 -50.5 -48 -126.5 q0 -82 51 -128.5 q51 -46.5 117 -46.5 q81 0 148 73 l0 -54 q-64 -57 -149 -57 q-92 0 -150.5 60.5 q-58.5 60.5 -58.5 151.5 q0 93 58 154.5 q58 61.5 154 61.5 q79 0 141 -52 Z" /><glyph glyph-name="afii10084" unicode="&#x442;" d="M150 0 l0 370 l-142 0 l0 38 l324 0 l0 -38 l-142 0 l0 -370 l-40 0 Z" /><glyph glyph-name="afii10085" unicode="&#x443;" d="M106 -230 l96 223 l-194 415 l46 0 l171 -363 l149 363 l46 0 l-268 -638 l-46 0 Z" /><glyph glyph-name="afii10086" unicode="&#x444;" d="M280 -230 l0 223 q-102 0 -165 53 q-69 58 -69 158 q0 101 69 159 q62 51 165 51 l0 253 l40 0 l0 -253 q103 0 165 -51 q69 -58 69 -159 q0 -100 -69 -158 q-63 -53 -165 -53 l0 -223 l-40 0 ZM280 31 l0 345 q-86 0 -137 -42 q-55 -46 -55 -130 q0 -85 55 -130 q53 -43 137 -43 ZM320 376 l0 -345 q84 0 137 43 q55 45 55 130 q0 84 -55 130 q-51 42 -137 42 Z" /><glyph glyph-name="afii10087" unicode="&#x445;" d="M8 0 l165 214 l-151 194 l49 0 l129 -168 l127 168 l49 0 l-148 -194 l164 -214 l-49 0 l-143 188 l-143 -188 l-49 0 Z" /><glyph glyph-name="afii10088" unicode="&#x446;" d="M72 0 l0 408 l40 0 l0 -370 l220 0 l0 370 l40 0 l0 -370 l60 0 l0 -148 l-38 0 l0 110 l-322 0 Z" /><glyph glyph-name="afii10089" unicode="&#x447;" d="M300 0 l0 169 q-66 -10 -107 -10 q-65 0 -96 22 q-37 27 -37 104 l0 123 l40 0 l0 -123 q0 -56 27 -75 q19 -13 61 -13 q47 0 112 10 l0 201 l40 0 l0 -408 l-40 0 Z" /><glyph glyph-name="afii10090" unicode="&#x448;" d="M72 0 l0 408 l40 0 l0 -370 l190 0 l0 370 l40 0 l0 -370 l190 0 l0 370 l40 0 l0 -408 l-500 0 Z" /><glyph glyph-name="afii10091" unicode="&#x449;" d="M72 0 l0 408 l40 0 l0 -370 l190 0 l0 370 l40 0 l0 -370 l190 0 l0 370 l40 0 l0 -370 l60 0 l0 -148 l-38 0 l0 110 l-522 0 Z" /><glyph glyph-name="afii10092" unicode="&#x44a;" d="M8 408 l140 0 l0 -170 l97 0 q70 0 104 -38 q29 -32 29 -81 q0 -55 -36 -88 q-33 -31 -98 -31 l-136 0 l0 370 l-100 0 l0 38 ZM148 38 l96 0 q42 0 64 19 q28 23 28 62 q0 41 -29 63 q-24 18 -65 18 l-94 0 l0 -162 Z" /><glyph glyph-name="afii10093" unicode="&#x44b;" d="M72 408 l40 0 l0 -170 l97 0 q70 0 104 -38 q29 -32 29 -81 q0 -55 -36 -88 q-33 -31 -98 -31 l-136 0 l0 408 ZM112 38 l96 0 q42 0 64 19 q28 23 28 62 q0 41 -29 63 q-24 18 -65 18 l-94 0 l0 -162 ZM388 408 l40 0 l0 -408 l-40 0 l0 408 Z" /><glyph glyph-name="afii10094" unicode="&#x44c;" d="M72 408 l40 0 l0 -170 l97 0 q70 0 104 -38 q29 -32 29 -81 q0 -55 -36 -88 q-33 -31 -98 -31 l-136 0 l0 408 ZM112 38 l96 0 q42 0 64 19 q28 23 28 62 q0 41 -29 63 q-24 18 -65 18 l-94 0 l0 -162 Z" /><glyph glyph-name="afii10095" unicode="&#x44d;" d="M38 10 l0 42 q45 -25 110 -25 q83 0 132 53 q41 43 44 110 l-239 0 l0 38 l239 0 q-8 74 -67 118 q-46 33 -112 33 q-63 0 -103 -21 l0 40 q50 19 103 19 q95 0 153 -51 q68 -59 68 -161 q0 -99 -61 -158 q-60 -58 -157 -58 q-67 0 -110 21 Z" /><glyph glyph-name="afii10096" unicode="&#x44e;" d="M112 228 l70 0 q9 82 66.5 135.5 q57.5 53.5 139.5 53.5 q88 0 147 -61.5 q59 -61.5 59 -152.5 q0 -91 -59 -152.5 q-59 -61.5 -147 -61.5 q-82 0 -142 55.5 q-60 55.5 -64 145.5 l-70 0 l0 -190 l-40 0 l0 408 l40 0 l0 -180 ZM271 77.5 q47 -50.5 117 -50.5 q70 0 117 50.5 q47 50.5 47 125.5 q0 75 -47 125.5 q-47 50.5 -117 50.5 q-70 0 -117 -50.5 q-47 -50.5 -47 -125.5 q0 -75 47 -125.5 Z" /><glyph glyph-name="afii10097" unicode="&#x44f;" d="M28 0 l130 178 q-47 2 -80 30 q-34 30 -34 81 q0 59 37 90 q33 29 97 29 l136 0 l0 -408 l-40 0 l0 176 l-70 0 l-128 -176 l-48 0 ZM274 214 l0 156 l-96 0 q-42 0 -65 -18 q-27 -23 -27 -62 q0 -38 26 -58 q24 -18 66 -18 l96 0 Z" /><glyph glyph-name="afii10071" unicode="&#x451;" d="M437 199 l-349 0 q0 -76 47.5 -124 q47.5 -48 114.5 -48 q48 0 85 25.5 q37 25.5 57 67.5 l34 -20 q-23 -44 -67 -77.5 q-44 -33.5 -112 -33.5 q-93 0 -147 60.5 q-54 60.5 -54 152.5 q0 101 58.5 158 q58.5 57 139.5 57 q83 0 138 -61 q55 -61 55 -157 ZM91 237 l304 0 q-8 62 -49.5 102 q-41.5 40 -101.5 40 q-61 0 -103 -40.5 q-42 -40.5 -50 -101.5 ZM137.5 500.5 q-10.5 10.5 -10.5 25.5 q0 15 10.5 25.5 q10.5 10.5 25.5 10.5 q15 0 25.5 -10.5 q10.5 -10.5 10.5 -25.5 q0 -15 -10.5 -25.5 q-10.5 -10.5 -25.5 -10.5 q-15 0 -25.5 10.5 ZM303.5 500.5 q-10.5 10.5 -10.5 25.5 q0 15 10.5 25.5 q10.5 10.5 25.5 10.5 q15 0 25.5 -10.5 q10.5 -10.5 10.5 -25.5 q0 -15 -10.5 -25.5 q-10.5 -10.5 -25.5 -10.5 q-15 0 -25.5 10.5 Z" /><glyph glyph-name="afii10099" unicode="&#x452;" d="M72 0 l0 522 l-72 0 l0 38 l72 0 l0 169 l40 0 l0 -169 l180 0 l0 -38 l-180 0 l0 -218 q41 73 125 73 q76 0 113 -57 q20 -32 20 -103 l0 -312 q0 -75 -35 -109 q-27 -26 -72 -26 q-17 0 -35 6 l0 37 q12 -5 28 -5 q32 0 50 17 q24 23 24 87 l0 305 q0 57 -16 82 q-24 40 -80 40 q-68 0 -100 -57 q-22 -39 -22 -110 l0 -172 l-40 0 Z" /><glyph glyph-name="afii10100" unicode="&#x453;" d="M72 0 l0 408 l220 0 l0 -38 l-180 0 l0 -370 l-40 0 ZM235 620 l43 -25 l-105 -128 l-30 16 l92 137 Z" /><glyph glyph-name="afii10101" unicode="&#x454;" d="M398 365 l0 -53 q-58 67 -141 67 q-68 0 -115.5 -43.5 q-47.5 -43.5 -53.5 -107.5 l238 0 l0 -38 l-238 0 q2 -72 51.5 -117.5 q49.5 -45.5 115.5 -45.5 q81 0 148 73 l0 -54 q-64 -57 -149 -57 q-91 0 -149.5 60.5 q-58.5 60.5 -58.5 151.5 q0 93 57.5 154.5 q57.5 61.5 153.5 61.5 q79 0 141 -52 Z" /><glyph glyph-name="afii10102" unicode="&#x455;" d="M280 351 l-34 -18 q-20 46 -71 46 q-32 0 -50.5 -20 q-18.5 -20 -18.5 -45 q0 -19 11 -32.5 q11 -13.5 23 -20 q12 -6.5 38 -16.5 q4 -1 19.5 -7.5 q15.5 -6.5 20.5 -8.5 q5 -2 17.5 -7.5 q12.5 -5.5 18.5 -10 q6 -4.5 14.5 -11.5 q8.5 -7 14.5 -15 q21 -26 21 -66 q0 -65 -39.5 -97.5 q-39.5 -32.5 -93.5 -32.5 q-52 0 -90 29 q-38 29 -51 79 l39 12 q10 -39 38.5 -60.5 q28.5 -21.5 63.5 -21.5 q39 0 65 25.5 q26 25.5 26 64.5 q0 32 -20 49.5 q-20 17.5 -71 38.5 q-70 29 -89 54 q-18 24 -18 53 q0 46 31 75.5 q31 29.5 78 29.5 q79 0 107 -66 Z" /><glyph glyph-name="afii10103" unicode="&#x456;" d="M72 408 l40 0 l0 -408 l-40 0 l0 408 ZM117.5 517.5 q-10.5 -10.5 -25.5 -10.5 q-15 0 -25.5 10.5 q-10.5 10.5 -10.5 26.5 q0 16 10.5 26.5 q10.5 10.5 25.5 10.5 q15 0 25.5 -10.5 q10.5 -10.5 10.5 -26.5 q0 -16 -10.5 -26.5 Z" /><glyph glyph-name="afii10104" unicode="&#x457;" d="M71 408 l40 0 l0 -408 l-40 0 l0 408 ZM18.5 519.5 q-10.5 10.5 -10.5 25.5 q0 15 10.5 25.5 q10.5 10.5 25.5 10.5 q15 0 25.5 -10.5 q10.5 -10.5 10.5 -25.5 q0 -15 -10.5 -25.5 q-10.5 -10.5 -25.5 -10.5 q-15 0 -25.5 10.5 ZM114.5 519.5 q-10.5 10.5 -10.5 25.5 q0 15 10.5 25.5 q10.5 10.5 25.5 10.5 q15 0 25.5 -10.5 q10.5 -10.5 10.5 -25.5 q0 -15 -10.5 -25.5 q-10.5 -10.5 -25.5 -10.5 q-15 0 -25.5 10.5 Z" /><glyph glyph-name="afii10105" unicode="&#x458;" d="M72 408 l40 0 l0 -638 l-40 0 l0 638 ZM117.5 517.5 q-10.5 -10.5 -25.5 -10.5 q-15 0 -25.5 10.5 q-10.5 10.5 -10.5 26.5 q0 16 10.5 26.5 q10.5 10.5 25.5 10.5 q15 0 25.5 -10.5 q10.5 -10.5 10.5 -26.5 q0 -16 -10.5 -26.5 Z" /><glyph glyph-name="afii10106" unicode="&#x459;" d="M358 408 l0 -170 l97 0 q70 0 104 -38 q29 -32 29 -81 q0 -55 -36 -88 q-33 -31 -98 -31 l-136 0 l0 370 l-188 0 l0 -236 q0 -67 -24 -99 q-27 -37 -78 -37 q-6 0 -20 2 l0 38 q10 -2 15 -2 q34 0 53 27 q14 22 14 71 l0 274 l268 0 ZM358 38 l96 0 q42 0 64 19 q28 23 28 62 q0 41 -29 63 q-24 18 -65 18 l-94 0 l0 -162 Z" /><glyph glyph-name="afii10107" unicode="&#x45a;" d="M72 0 l0 408 l40 0 l0 -170 l230 0 l0 170 l40 0 l0 -170 l97 0 q70 0 104 -38 q29 -32 29 -81 q0 -55 -36 -88 q-33 -31 -98 -31 l-136 0 l0 200 l-230 0 l0 -200 l-40 0 ZM382 38 l96 0 q42 0 64 19 q28 23 28 62 q0 41 -29 63 q-24 18 -65 18 l-94 0 l0 -162 Z" /><glyph glyph-name="afii10108" unicode="&#x45b;" d="M72 0 l0 522 l-72 0 l0 38 l72 0 l0 169 l40 0 l0 -169 l180 0 l0 -38 l-180 0 l0 -218 q41 73 125 73 q76 0 113 -57 q20 -32 20 -103 l0 -217 l-40 0 l0 217 q0 57 -16 82 q-24 40 -80 40 q-68 0 -100 -57 q-22 -39 -22 -110 l0 -172 l-40 0 Z" /><glyph glyph-name="afii10109" unicode="&#x45c;" d="M72 408 l40 0 l0 -194 l206 194 l54 0 l-208 -194 l224 -214 l-58 0 l-196 187 l-22 -21 l0 -166 l-40 0 l0 408 ZM253 620 l43 -25 l-105 -128 l-30 16 l92 137 Z" /><glyph glyph-name="afii10110" unicode="&#x45e;" d="M106 -230 l96 223 l-194 415 l46 0 l171 -363 l149 363 l46 0 l-268 -638 l-46 0 ZM90 573 l34 17 q8 -31 33.5 -52 q25.5 -21 62.5 -21 q37 0 62.5 21 q25.5 21 33.5 52 l34 -17 q-30 -94 -130 -94 q-100 0 -130 94 Z" /><glyph glyph-name="afii10193" unicode="&#x45f;" d="M72 0 l0 408 l40 0 l0 -370 l220 0 l0 370 l40 0 l0 -408 l-130 0 l0 -120 l-40 0 l0 120 l-130 0 Z" /><glyph glyph-name="afii10146" unicode="&#x462;" d="M174 0 l0 527 l-160 0 l0 40 l160 0 l0 127 l44 0 l0 -127 l200 0 l0 -40 l-200 0 l0 -147 l116 0 q230 0 230 -183 q0 -83 -53.5 -140 q-53.5 -57 -162.5 -57 l-174 0 ZM218 340 l0 -300 l112 0 q101 0 146 44 q42 40 42 113 q0 87 -69 123 q-39 20 -127 20 l-104 0 Z" /><glyph glyph-name="afii10194" unicode="&#x463;" d="M8 408 l100 0 l0 259 l40 0 l0 -259 l120 0 l0 -38 l-120 0 l0 -132 l97 0 q70 0 104 -38 q29 -32 29 -81 q0 -55 -36 -88 q-33 -31 -98 -31 l-136 0 l0 370 l-100 0 l0 38 ZM148 38 l96 0 q42 0 64 19 q28 23 28 62 q0 41 -29 63 q-24 18 -65 18 l-94 0 l0 -162 Z" /><glyph glyph-name="afii10147" unicode="&#x472;" d="M154 576 q100 100 246 100 q146 0 246 -100 q100 -100 100 -244 q0 -144 -100 -243.5 q-100 -99.5 -246 -99.5 q-146 0 -246 99.5 q-100 99.5 -100 243.5 q0 144 100 244 ZM187.5 114.5 q82.5 -85.5 212.5 -85.5 q130 0 212.5 85.5 q82.5 85.5 87.5 205.5 l-600 0 q5 -120 87.5 -205.5 ZM101 360 l598 0 q-11 123 -97 199.5 q-86 76.5 -202 76.5 q-116 0 -202 -76.5 q-86 -76.5 -97 -199.5 Z" /><glyph glyph-name="afii10195" unicode="&#x473;" d="M107.5 355.5 q61.5 61.5 152.5 61.5 q91 0 152.5 -61.5 q61.5 -61.5 61.5 -152.5 q0 -91 -61.5 -152.5 q-61.5 -61.5 -152.5 -61.5 q-91 0 -152.5 61.5 q-61.5 61.5 -61.5 152.5 q0 91 61.5 152.5 ZM431 189 l-342 0 q4 -71 54 -116.5 q50 -45.5 117 -45.5 q67 0 117 45.5 q50 45.5 54 116.5 ZM89 227 l342 0 q-9 71 -59.5 111.5 q-50.5 40.5 -111.5 40.5 q-61 0 -111.5 -40.5 q-50.5 -40.5 -59.5 -111.5 Z" /><glyph glyph-name="afii10148" unicode="&#x474;" d="M14 667 l48 0 l196 -568 l190 568 l48 0 l-238 -694 l-244 694 Z" /><glyph glyph-name="afii10196" unicode="&#x475;" d="M8 408 l44 0 l144 -339 l142 339 l44 0 l-186 -433 l-188 433 Z" /><glyph glyph-name="afii10050" unicode="&#x490;" d="M90 0 l0 667 l254 0 l0 133 l42 0 l0 -173 l-252 0 l0 -627 l-44 0 Z" /><glyph glyph-name="afii10098" unicode="&#x491;" d="M72 0 l0 408 l182 0 l0 110 l38 0 l0 -148 l-180 0 l0 -370 l-40 0 Z" /><glyph glyph-name="uni0492" unicode="&#x492;" d="M90 0 l0 345 l-90 0 l0 40 l90 0 l0 282 l296 0 l0 -40 l-252 0 l0 -242 l136 0 l0 -40 l-136 0 l0 -345 l-44 0 Z" /><glyph glyph-name="uni0493" unicode="&#x493;" d="M72 0 l0 200 l-72 0 l0 38 l72 0 l0 170 l220 0 l0 -38 l-180 0 l0 -132 l100 0 l0 -38 l-100 0 l0 -200 l-40 0 Z" /><glyph glyph-name="uni0494" unicode="&#x494;" d="M386 627 l-252 0 l0 -262 q69 23 137 23 q115 0 167 -61 q42 -49 42 -133 q0 -110 -67 -163 q-47 -37 -127 -37 q-30 0 -68 6 l0 40 q28 -6 63 -6 q70 0 107 33 q46 41 46 125 q0 65 -33 107 q-41 49 -127 49 q-71 0 -140 -23 l0 -325 l-44 0 l0 667 l296 0 l0 -40 Z" /><glyph glyph-name="uni0495" unicode="&#x495;" d="M72 0 l0 408 l220 0 l0 -38 l-180 0 l0 -134 l30 0 q71 0 120 -35 q72 -52 72 -166 q0 -108 -70 -178 q-52 -52 -129 -65 l0 40 q60 13 101 56 q56 59 56 149 q0 43 -16 79.5 q-16 36.5 -45 56.5 q-37 25 -89 25 l-30 0 l0 -198 l-40 0 Z" /><glyph glyph-name="uni0496" unicode="&#x496;" d="M376 667 l44 0 l0 -314 l282 314 l58 0 l-296 -323 l281 -304 l37 0 l0 -174 l-42 0 l0 134 l-16 0 l-291 314 l-13 -13 l0 -301 l-44 0 l0 301 l-13 13 l-291 -314 l-58 0 l318 344 l-296 323 l58 0 l282 -314 l0 314 Z" /><glyph glyph-name="uni0497" unicode="&#x497;" d="M260 408 l40 0 l0 -194 l184 194 l52 0 l-190 -196 l169 -174 l37 0 l0 -148 l-38 0 l0 110 l-16 0 l-178 186 l-20 -20 l0 -166 l-40 0 l0 166 l-20 20 l-178 -186 l-54 0 l206 212 l-190 196 l52 0 l184 -194 l0 194 Z" /><glyph glyph-name="uni0498" unicode="&#x498;" d="M136 554 l-32 27 q29 47 74 71 q44 24 104 24 q78 0 124 -43 q48 -44 48 -120 q0 -50 -26 -91 q-25 -39 -62 -55 q50 -12 85 -47 q49 -51 49 -127 q0 -92 -57 -147 q-54 -52 -144 -56 l0 -140 l-44 0 l0 141 q-72 2 -128 47 q-45 36 -73 92 l42 20 q21 -43 58 -75 q55 -46 128 -46 q35 0 71.5 13 q36.5 13 59.5 36 q41 41 41 113 q0 68 -48 109 q-46 39 -130 39 l-60 0 l0 40 l50 0 q67 0 107 41 q35 35 35 93 q0 52 -31 86 q-34 37 -98 37 q-54 0 -94 -29 q-29 -21 -49 -53 Z" /><glyph glyph-name="uni0499" unicode="&#x499;" d="M105 322 l-33 23 q42 72 129 72 q59 0 90 -29 q33 -29 33 -79 q0 -60 -47 -85 q27 -6 48 -27 q29 -29 29 -79 q0 -63 -48 -99 q-38 -29 -86 -30 l0 -109 l-40 0 l0 110 q-46 3 -83 29 q-31 20 -51 60 l36 23 q15 -33 43 -52 q31 -23 77 -23 q51 0 78 23 q32 26 32 70 q0 39 -28 60 q-24 18 -75 18 l-42 0 l0 38 l31 0 q39 0 61 17 q25 20 25 52 q0 32 -21 53 q-23 21 -63 21 q-64 0 -95 -57 Z" /><glyph glyph-name="uni049A" unicode="&#x49a;" d="M90 667 l44 0 l0 -314 l315 314 l58 0 l-323 -319 l303 -308 l39 0 l0 -174 l-42 0 l0 134 l-18 0 l-314 318 l-18 -17 l0 -301 l-44 0 l0 667 Z" /><glyph glyph-name="uni049B" unicode="&#x49b;" d="M72 408 l40 0 l0 -194 l206 194 l54 0 l-208 -194 l184 -176 l40 0 l0 -148 l-38 0 l0 110 l-20 0 l-196 187 l-22 -21 l0 -166 l-40 0 l0 408 Z" /><glyph glyph-name="uni049C" unicode="&#x49c;" d="M90 667 l44 0 l0 -303 l72 0 l0 140 l40 0 l0 -140 l269 303 l52 0 l-287 -319 l306 -348 l-54 0 l-286 324 l0 -160 l-40 0 l0 160 l-72 0 l0 -324 l-44 0 l0 667 Z" /><glyph glyph-name="uni049D" unicode="&#x49d;" d="M72 408 l40 0 l0 -178 l43 0 l0 100 l38 0 l0 -100 l149 178 l46 0 l-162 -194 l166 -214 l-50 0 l-149 192 l0 -120 l-38 0 l0 120 l-43 0 l0 -192 l-40 0 l0 408 Z" /><glyph glyph-name="uni04A0" unicode="&#x4a0;" d="M174 0 l0 627 l-160 0 l0 40 l204 0 l0 -314 l315 314 l58 0 l-323 -319 l342 -348 l-60 0 l-314 318 l-18 -17 l0 -301 l-44 0 Z" /><glyph glyph-name="uni04A1" unicode="&#x4a1;" d="M108 0 l0 370 l-100 0 l0 38 l140 0 l0 -194 l206 194 l54 0 l-208 -194 l224 -214 l-58 0 l-196 187 l-22 -21 l0 -166 l-40 0 Z" /><glyph glyph-name="uni04A2" unicode="&#x4a2;" d="M90 0 l0 667 l44 0 l0 -283 l404 0 l0 283 l44 0 l0 -627 l76 0 l0 -174 l-42 0 l0 134 l-78 0 l0 344 l-404 0 l0 -344 l-44 0 Z" /><glyph glyph-name="uni04A3" unicode="&#x4a3;" d="M72 0 l0 408 l40 0 l0 -180 l230 0 l0 180 l40 0 l0 -370 l60 0 l0 -148 l-38 0 l0 110 l-62 0 l0 190 l-230 0 l0 -190 l-40 0 Z" /><glyph glyph-name="uni04A4" unicode="&#x4a4;" d="M90 0 l0 667 l44 0 l0 -283 l404 0 l0 283 l296 0 l0 -40 l-252 0 l0 -627 l-44 0 l0 344 l-404 0 l0 -344 l-44 0 Z" /><glyph glyph-name="uni04A5" unicode="&#x4a5;" d="M72 0 l0 408 l40 0 l0 -180 l230 0 l0 180 l220 0 l0 -38 l-180 0 l0 -370 l-40 0 l0 190 l-230 0 l0 -190 l-40 0 Z" /><glyph glyph-name="uni04AA" unicode="&#x4aa;" d="M624 589 l0 -58 q-45 53 -105.5 79 q-60.5 26 -119.5 26 q-125 0 -213 -90 q-86 -88 -86 -216 q0 -125 84 -210 q89 -91 218 -91 q124 0 222 101 l0 -58 q-89 -77 -193 -82 l0 -140 l-44 0 l0 141 q-133 2 -232 99 q-101 99 -101 242 q0 146 102 246 q98 98 244 98 q132 0 224 -87 Z" /><glyph glyph-name="uni04AB" unicode="&#x4ab;" d="M399 365 l0 -53 q-58 67 -139 67 q-76 0 -124 -50 q-48 -51 -48 -127 q0 -76 47 -125 q48 -50 121 -50 q84 0 148 73 l0 -54 q-54 -48 -123 -56 l0 -110 l-40 0 l0 110 q-81 3 -137 60 q-58 60 -58 151 q0 97 60 157 q57 59 150 59 q80 0 143 -52 Z" /><glyph glyph-name="uni04AE" unicode="&#x4ae;" d="M233 0 l0 285 l-219 382 l50 0 l192 -337 l196 337 l50 0 l-225 -382 l0 -285 l-44 0 Z" /><glyph glyph-name="uni04AF" unicode="&#x4af;" d="M8 408 l44 0 l143 -339 l143 339 l44 0 l-167 -387 l0 -251 l-40 0 l0 251 l-167 387 Z" /><glyph glyph-name="uni04B0" unicode="&#x4b0;" d="M233 0 l0 245 l-200 0 l0 40 l200 0 l-219 382 l50 0 l192 -337 l196 337 l50 0 l-225 -382 l200 0 l0 -40 l-200 0 l0 -245 l-44 0 Z" /><glyph glyph-name="uni04B1" unicode="&#x4b1;" d="M8 408 l44 0 l143 -339 l143 339 l44 0 l-167 -387 l0 -21 l120 0 l0 -38 l-120 0 l0 -192 l-40 0 l0 192 l-120 0 l0 38 l120 0 l0 21 l-167 387 Z" /><glyph glyph-name="uni04B2" unicode="&#x4b2;" d="M23 0 l183 340 l-175 327 l48 0 l151 -285 l152 285 l48 0 l-174 -327 l161 -300 l22 0 l0 -174 l-42 0 l0 134 l-6 0 l-161 300 l-159 -300 l-48 0 Z" /><glyph glyph-name="uni04B3" unicode="&#x4b3;" d="M8 0 l165 214 l-151 194 l49 0 l129 -168 l127 168 l49 0 l-148 -194 l135 -176 l29 0 l0 -148 l-38 0 l0 110 l-11 0 l-143 188 l-143 -188 l-49 0 Z" /><glyph glyph-name="uni04B6" unicode="&#x4b6;" d="M446 0 l0 300 q-112 -7 -170 -7 q-91 0 -136 22 q-44 21 -57 55.5 q-13 34.5 -13 93.5 l0 203 l44 0 l0 -203 q0 -20 1 -31.5 q1 -11.5 5.5 -29.5 q4.5 -18 16.5 -32 q12 -14 31 -23 q31 -15 122 -15 q69 0 156 7 l0 327 l44 0 l0 -627 l76 0 l0 -174 l-42 0 l0 134 l-78 0 Z" /><glyph glyph-name="uni04B7" unicode="&#x4b7;" d="M300 0 l0 169 q-66 -10 -107 -10 q-65 0 -96 22 q-37 27 -37 104 l0 123 l40 0 l0 -123 q0 -56 27 -75 q19 -13 61 -13 q47 0 112 10 l0 201 l40 0 l0 -370 l60 0 l0 -148 l-38 0 l0 110 l-62 0 Z" /><glyph glyph-name="uni04B8" unicode="&#x4b8;" d="M446 0 l0 300 q-11 -1 -140 -7 l0 -129 l-40 0 l0 129 q-82 0 -126 22 q-44 21 -57 55.5 q-13 34.5 -13 93.5 l0 203 l44 0 l0 -203 q0 -20 1 -31.5 q1 -11.5 5.5 -29.5 q4.5 -18 16.5 -32 q12 -14 31 -23 q32 -15 98 -15 l0 171 l40 0 l0 -171 q50 0 140 7 l0 327 l44 0 l0 -667 l-44 0 Z" /><glyph glyph-name="uni04B9" unicode="&#x4b9;" d="M308 0 l0 169 q-39 -8 -84 -10 l0 -80 l-38 0 l0 80 q-58 0 -89 22 q-37 27 -37 104 l0 123 l40 0 l0 -123 q0 -57 27 -75 q20 -13 59 -13 l0 120 l38 0 l0 -120 q45 2 84 10 l0 201 l40 0 l0 -408 l-40 0 Z" /><glyph glyph-name="uni04BA" unicode="&#x4ba;" d="M134 667 l0 -283 l170 0 q91 0 136 -22 q44 -21 57 -55.5 q13 -34.5 13 -93.5 l0 -213 l-44 0 l0 213 q0 19 -1 31 q-1 12 -5.5 30 q-4.5 18 -16.5 32 q-12 14 -31 23 q-31 15 -122 15 l-156 0 l0 -344 l-44 0 l0 667 l44 0 Z" /><glyph glyph-name="uni04BB" unicode="&#x4bb;" d="M72 0 l0 729 l40 0 l0 -385 q41 73 125 73 q76 0 113 -57 q20 -32 20 -103 l0 -257 l-40 0 l0 257 q0 57 -16 82 q-24 40 -80 40 q-68 0 -100 -57 q-22 -39 -22 -110 l0 -212 l-40 0 Z" /><glyph glyph-name="uni04C0" unicode="&#x4c0;" d="M72 667 l40 0 l0 -667 l-40 0 l0 667 Z" /><glyph glyph-name="uni04C1" unicode="&#x4c1;" d="M376 667 l44 0 l0 -314 l282 314 l58 0 l-296 -323 l318 -344 l-58 0 l-291 314 l-13 -13 l0 -301 l-44 0 l0 301 l-13 13 l-291 -314 l-58 0 l318 344 l-296 323 l58 0 l282 -314 l0 314 ZM258 803 l35 19 q29 -64 105 -64 q76 0 105 64 l35 -19 q-21 -46 -60.5 -65.5 q-39.5 -19.5 -79.5 -19.5 q-40 0 -79.5 19.5 q-39.5 19.5 -60.5 65.5 Z" /><glyph glyph-name="uni04C2" unicode="&#x4c2;" d="M260 408 l40 0 l0 -194 l184 194 l52 0 l-190 -196 l206 -212 l-54 0 l-178 186 l-20 -20 l0 -166 l-40 0 l0 166 l-20 20 l-178 -186 l-54 0 l206 212 l-190 196 l52 0 l184 -194 l0 194 ZM150 573 l34 17 q8 -31 33.5 -52 q25.5 -21 62.5 -21 q37 0 62.5 21 q25.5 21 33.5 52 l34 -17 q-30 -94 -130 -94 q-100 0 -130 94 Z" /><glyph glyph-name="uni04C3" unicode="&#x4c3;" d="M90 667 l44 0 l0 -314 l315 314 l58 0 l-296 -298 q76 0 116 -7 q40 -7 76 -32 q91 -62 91 -226 q0 -151 -66 -213 q-54 -51 -145 -51 q-29 0 -60 6 l0 40 q28 -6 58 -6 q74 0 116 42 q51 52 51 178 q0 130 -66 187 q-50 43 -139 43 q-47 0 -109 -11 l0 -319 l-44 0 l0 667 Z" /><glyph glyph-name="uni04C4" unicode="&#x4c4;" d="M72 408 l40 0 l0 -194 l206 194 l54 0 l-208 -193 q64 0 108 -26 q80 -47 80 -161 q0 -102 -70 -171 q-55 -53 -129 -65 l0 40 q61 14 101 56 q56 59 56 141 q0 99 -69 135 q-37 19 -94 19 l-35 0 l0 -183 l-40 0 l0 408 Z" /><glyph glyph-name="uni04C7" unicode="&#x4c7;" d="M90 0 l0 667 l44 0 l0 -283 l404 0 l0 283 l44 0 l0 -758 q0 -80 -38 -115 q-26 -24 -70 -24 q-25 0 -46 7 l0 41 q17 -6 37 -6 q32 0 50 18 q23 23 23 91 l0 423 l-404 0 l0 -344 l-44 0 Z" /><glyph glyph-name="uni04C8" unicode="&#x4c8;" d="M72 0 l0 408 l40 0 l0 -180 l230 0 l0 180 l40 0 l0 -499 q0 -79 -38 -115 q-26 -24 -66 -24 q-22 0 -38 6 l0 37 q20 -5 30 -5 q30 0 47 17 q25 24 25 92 l0 273 l-230 0 l0 -190 l-40 0 Z" /><glyph glyph-name="uni04D0" unicode="&#x4d0;" d="M524 0 l-89 219 l-284 0 l-89 -219 l-48 0 l281 687 l277 -687 l-48 0 ZM167 259 l252 0 l-125 316 l-127 -316 ZM153 803 l35 19 q29 -64 105 -64 q76 0 105 64 l35 -19 q-21 -46 -60.5 -65.5 q-39.5 -19.5 -79.5 -19.5 q-40 0 -79.5 19.5 q-39.5 19.5 -60.5 65.5 Z" /><glyph glyph-name="uni04D1" unicode="&#x4d1;" d="M404 337 l0 71 l40 0 l0 -408 l-40 0 l0 73 q-55 -84 -159 -84 q-83 0 -141 59 q-58 59 -58 156 q0 95 55 154 q55 59 144 59 q102 0 159 -80 ZM247 379 q-65 0 -112 -46.5 q-47 -46.5 -47 -125.5 q0 -73 43 -126.5 q43 -53.5 117 -53.5 q73 0 115.5 52.5 q42.5 52.5 42.5 127.5 q0 83 -49 127.5 q-49 44.5 -110 44.5 ZM128 573 l34 17 q8 -31 33.5 -52 q25.5 -21 62.5 -21 q37 0 62.5 21 q25.5 21 33.5 52 l34 -17 q-30 -94 -130 -94 q-100 0 -130 94 Z" /><glyph glyph-name="uni04D2" unicode="&#x4d2;" d="M524 0 l-89 219 l-284 0 l-89 -219 l-48 0 l281 687 l277 -687 l-48 0 ZM167 259 l252 0 l-125 316 l-127 -316 ZM173 753 q-11 11 -11 27 q0 16 11 27 q11 11 27 11 q16 0 27 -11 q11 -11 11 -27 q0 -16 -11 -27 q-11 -11 -27 -11 q-16 0 -27 11 ZM359 753 q-11 11 -11 27 q0 16 11 27 q11 11 27 11 q16 0 27 -11 q11 -11 11 -27 q0 -16 -11 -27 q-11 -11 -27 -11 q-16 0 -27 11 Z" /><glyph glyph-name="uni04D3" unicode="&#x4d3;" d="M404 337 l0 71 l40 0 l0 -408 l-40 0 l0 73 q-55 -84 -159 -84 q-83 0 -141 59 q-58 59 -58 156 q0 95 55 154 q55 59 144 59 q102 0 159 -80 ZM247 379 q-65 0 -112 -46.5 q-47 -46.5 -47 -125.5 q0 -73 43 -126.5 q43 -53.5 117 -53.5 q73 0 115.5 52.5 q42.5 52.5 42.5 127.5 q0 83 -49 127.5 q-49 44.5 -110 44.5 ZM145.5 500.5 q-10.5 10.5 -10.5 25.5 q0 15 10.5 25.5 q10.5 10.5 25.5 10.5 q15 0 25.5 -10.5 q10.5 -10.5 10.5 -25.5 q0 -15 -10.5 -25.5 q-10.5 -10.5 -25.5 -10.5 q-15 0 -25.5 10.5 ZM311.5 500.5 q-10.5 10.5 -10.5 25.5 q0 15 10.5 25.5 q10.5 10.5 25.5 10.5 q15 0 25.5 -10.5 q10.5 -10.5 10.5 -25.5 q0 -15 -10.5 -25.5 q-10.5 -10.5 -25.5 -10.5 q-15 0 -25.5 10.5 Z" /><glyph glyph-name="uni04D4" unicode="&#x4d4;" d="M523 0 l-89 219 l-285 0 l-87 -219 l-48 0 l269 667 l289 0 l17 -40 l-275 0 l99 -242 l268 0 l17 -40 l-268 0 l124 -305 l273 0 l18 -40 l-322 0 ZM165 259 l252 0 l-127 314 l-125 -314 Z" /><glyph glyph-name="uni04D5" unicode="&#x4d5;" d="M747 198 l-350 0 q1 -76 46 -123.5 q45 -47.5 112 -47.5 q94 0 147 92 l34 -24 q-68 -106 -182 -106 q-116 0 -168 102 q-17 -50 -61.5 -76 q-44.5 -26 -107.5 -26 q-82 0 -127 37.5 q-45 37.5 -45 89.5 q0 49 42 89 q42 40 137 40 q83 0 131 -42 q0 176 -142 176 q-67 0 -139 -37 l0 41 q68 34 141 34 q58 0 101 -29 q43 -29 62 -85 q26 53 72 83.5 q46 30.5 103 30.5 q79 0 135.5 -57 q56.5 -57 58.5 -162 ZM402 236 l303 0 q-9 62 -51.5 102.5 q-42.5 40.5 -101.5 40.5 q-59 0 -100.5 -41 q-41.5 -41 -49.5 -102 ZM223 207 q-66 0 -101 -26 q-35 -26 -35 -65 q0 -38 33.5 -63.5 q33.5 -25.5 96.5 -25.5 q70 0 102.5 28.5 q32.5 28.5 32.5 64.5 q0 34 -31 60.5 q-31 26.5 -98 26.5 Z" /><glyph glyph-name="uni04D6" unicode="&#x4d6;" d="M410 667 l0 -40 l-276 0 l0 -242 l270 0 l0 -40 l-270 0 l0 -305 l276 0 l0 -40 l-320 0 l0 667 l320 0 ZM110 803 l35 19 q29 -64 105 -64 q76 0 105 64 l35 -19 q-21 -46 -60.5 -65.5 q-39.5 -19.5 -79.5 -19.5 q-40 0 -79.5 19.5 q-39.5 19.5 -60.5 65.5 Z" /><glyph glyph-name="uni04D7" unicode="&#x4d7;" d="M437 199 l-349 0 q0 -76 47.5 -124 q47.5 -48 114.5 -48 q48 0 85 25.5 q37 25.5 57 67.5 l34 -20 q-23 -44 -67 -77.5 q-44 -33.5 -112 -33.5 q-93 0 -147 60.5 q-54 60.5 -54 152.5 q0 101 58.5 158 q58.5 57 139.5 57 q83 0 138 -61 q55 -61 55 -157 ZM91 237 l304 0 q-8 62 -49.5 102 q-41.5 40 -101.5 40 q-61 0 -103 -40.5 q-42 -40.5 -50 -101.5 ZM112 573 l34 17 q8 -31 33.5 -52 q25.5 -21 62.5 -21 q37 0 62.5 21 q25.5 21 33.5 52 l34 -17 q-30 -94 -130 -94 q-100 0 -130 94 Z" /><glyph glyph-name="uni04D8" unicode="&#x4d8;" d="M54 320 l619 0 l0 10 q0 129 -86 217.5 q-86 88.5 -215 88.5 q-109 0 -191 -70 q-40 -33 -64 -74 l-35 28 q34 48 80 84 q94 72 209 72 q147 0 247.5 -98.5 q100.5 -98.5 100.5 -245.5 q0 -149 -98.5 -246 q-98.5 -97 -246.5 -97 q-162 0 -251 112 q-69 87 -69 219 ZM669 280 l-569 0 q4 -78 43 -138 q30 -46 91.5 -79.5 q61.5 -33.5 140.5 -33.5 q116 0 197 72.5 q81 72.5 97 178.5 Z" /><glyph glyph-name="afii10846" unicode="&#x4d9;" d="M46 207 l349 0 q0 80 -47 126 q-47 46 -115 46 q-48 0 -85 -25.5 q-37 -25.5 -57 -67.5 l-34 20 q23 44 67 77.5 q44 33.5 112 33.5 q93 0 147 -60.5 q54 -60.5 54 -152.5 q0 -101 -58.5 -158 q-58.5 -57 -139.5 -57 q-84 0 -138.5 59.5 q-54.5 59.5 -54.5 158.5 ZM392 169 l-304 0 q8 -62 49.5 -102 q41.5 -40 101.5 -40 q61 0 103 40.5 q42 40.5 50 101.5 Z" /><glyph glyph-name="uni04DA" unicode="&#x4da;" d="M54 320 l619 0 l0 10 q0 129 -86 217.5 q-86 88.5 -215 88.5 q-109 0 -191 -70 q-40 -33 -64 -74 l-35 28 q34 48 80 84 q94 72 209 72 q147 0 247.5 -98.5 q100.5 -98.5 100.5 -245.5 q0 -149 -98.5 -246 q-98.5 -97 -246.5 -97 q-162 0 -251 112 q-69 87 -69 219 ZM669 280 l-569 0 q4 -78 43 -138 q30 -46 91.5 -79.5 q61.5 -33.5 140.5 -33.5 q116 0 197 72.5 q81 72.5 97 178.5 ZM256 753 q-11 11 -11 27 q0 16 11 27 q11 11 27 11 q16 0 27 -11 q11 -11 11 -27 q0 -16 -11 -27 q-11 -11 -27 -11 q-16 0 -27 11 ZM442 753 q-11 11 -11 27 q0 16 11 27 q11 11 27 11 q16 0 27 -11 q11 -11 11 -27 q0 -16 -11 -27 q-11 -11 -27 -11 q-16 0 -27 11 Z" /><glyph glyph-name="uni04DB" unicode="&#x4db;" d="M46 207 l349 0 q0 80 -47 126 q-47 46 -115 46 q-48 0 -85 -25.5 q-37 -25.5 -57 -67.5 l-34 20 q23 44 67 77.5 q44 33.5 112 33.5 q93 0 147 -60.5 q54 -60.5 54 -152.5 q0 -101 -58.5 -158 q-58.5 -57 -139.5 -57 q-84 0 -138.5 59.5 q-54.5 59.5 -54.5 158.5 ZM392 169 l-304 0 q8 -62 49.5 -102 q41.5 -40 101.5 -40 q61 0 103 40.5 q42 40.5 50 101.5 ZM131.5 500.5 q-10.5 10.5 -10.5 25.5 q0 15 10.5 25.5 q10.5 10.5 25.5 10.5 q15 0 25.5 -10.5 q10.5 -10.5 10.5 -25.5 q0 -15 -10.5 -25.5 q-10.5 -10.5 -25.5 -10.5 q-15 0 -25.5 10.5 ZM297.5 500.5 q-10.5 10.5 -10.5 25.5 q0 15 10.5 25.5 q10.5 10.5 25.5 10.5 q15 0 25.5 -10.5 q10.5 -10.5 10.5 -25.5 q0 -15 -10.5 -25.5 q-10.5 -10.5 -25.5 -10.5 q-15 0 -25.5 10.5 Z" /><glyph glyph-name="uni04DC" unicode="&#x4dc;" d="M376 667 l44 0 l0 -314 l282 314 l58 0 l-296 -323 l318 -344 l-58 0 l-291 314 l-13 -13 l0 -301 l-44 0 l0 301 l-13 13 l-291 -314 l-58 0 l318 344 l-296 323 l58 0 l282 -314 l0 314 ZM278 753 q-11 11 -11 27 q0 16 11 27 q11 11 27 11 q16 0 27 -11 q11 -11 11 -27 q0 -16 -11 -27 q-11 -11 -27 -11 q-16 0 -27 11 ZM464 753 q-11 11 -11 27 q0 16 11 27 q11 11 27 11 q16 0 27 -11 q11 -11 11 -27 q0 -16 -11 -27 q-11 -11 -27 -11 q-16 0 -27 11 Z" /><glyph glyph-name="uni04DD" unicode="&#x4dd;" d="M260 408 l40 0 l0 -194 l184 194 l52 0 l-190 -196 l206 -212 l-54 0 l-178 186 l-20 -20 l0 -166 l-40 0 l0 166 l-20 20 l-178 -186 l-54 0 l206 212 l-190 196 l52 0 l184 -194 l0 194 ZM171.5 500.5 q-10.5 10.5 -10.5 25.5 q0 15 10.5 25.5 q10.5 10.5 25.5 10.5 q15 0 25.5 -10.5 q10.5 -10.5 10.5 -25.5 q0 -15 -10.5 -25.5 q-10.5 -10.5 -25.5 -10.5 q-15 0 -25.5 10.5 ZM337.5 500.5 q-10.5 10.5 -10.5 25.5 q0 15 10.5 25.5 q10.5 10.5 25.5 10.5 q15 0 25.5 -10.5 q10.5 -10.5 10.5 -25.5 q0 -15 -10.5 -25.5 q-10.5 -10.5 -25.5 -10.5 q-15 0 -25.5 10.5 Z" /><glyph glyph-name="uni04DE" unicode="&#x4de;" d="M136 554 l-32 27 q58 95 181 95 q76 0 121 -43 q48 -44 48 -120 q0 -99 -88 -146 q64 -16 99 -64 q35 -48 35 -112 q0 -105 -76 -160 q-58 -42 -145 -42 q-83 0 -140 40.5 q-57 40.5 -85 100.5 l42 20 q25 -60 78.5 -90.5 q53.5 -30.5 107.5 -30.5 q68 0 115 35 q57 42 57 127 q0 70 -47.5 109 q-47.5 39 -130.5 39 l-60 0 l0 40 l60 0 q53 0 92.5 36.5 q39.5 36.5 39.5 97.5 q0 52 -31 86 q-34 37 -97 37 q-91 0 -144 -82 ZM165 753 q-11 11 -11 27 q0 16 11 27 q11 11 27 11 q16 0 27 -11 q11 -11 11 -27 q0 -16 -11 -27 q-11 -11 -27 -11 q-16 0 -27 11 ZM351 753 q-11 11 -11 27 q0 16 11 27 q11 11 27 11 q16 0 27 -11 q11 -11 11 -27 q0 -16 -11 -27 q-11 -11 -27 -11 q-16 0 -27 11 Z" /><glyph glyph-name="uni04DF" unicode="&#x4df;" d="M105 322 l-33 23 q42 72 129 72 q59 0 90 -29 q33 -29 33 -79 q0 -60 -47 -85 q27 -6 48 -27 q29 -29 29 -78 q0 -63 -48 -100 q-40 -30 -104 -30 q-66 0 -107 31 q-33 27 -49 59 l36 23 q15 -33 43 -52 q31 -23 77 -23 q51 0 78 23 q32 26 32 70 q0 39 -28 60 q-24 18 -75 18 l-42 0 l0 38 l31 0 q39 0 61 17 q25 20 25 52 q0 32 -21 53 q-23 21 -63 21 q-64 0 -95 -57 ZM91.5 500.5 q-10.5 10.5 -10.5 25.5 q0 15 10.5 25.5 q10.5 10.5 25.5 10.5 q15 0 25.5 -10.5 q10.5 -10.5 10.5 -25.5 q0 -15 -10.5 -25.5 q-10.5 -10.5 -25.5 -10.5 q-15 0 -25.5 10.5 ZM257.5 500.5 q-10.5 10.5 -10.5 25.5 q0 15 10.5 25.5 q10.5 10.5 25.5 10.5 q15 0 25.5 -10.5 q10.5 -10.5 10.5 -25.5 q0 -15 -10.5 -25.5 q-10.5 -10.5 -25.5 -10.5 q-15 0 -25.5 10.5 Z" /><glyph glyph-name="uni04E2" unicode="&#x4e2;" d="M566 0 l0 556 l-476 -573 l0 684 l44 0 l0 -566 l476 573 l0 -674 l-44 0 ZM215 750 l0 44 l270 0 l0 -44 l-270 0 Z" /><glyph glyph-name="uni04E3" unicode="&#x4e3;" d="M72 408 l40 0 l0 -327 l290 350 l0 -431 l-40 0 l0 325 l-290 -350 l0 433 ZM102 493 l0 39 l270 0 l0 -39 l-270 0 Z" /><glyph glyph-name="uni04E4" unicode="&#x4e4;" d="M566 0 l0 556 l-476 -573 l0 684 l44 0 l0 -566 l476 573 l0 -674 l-44 0 ZM230 753 q-11 11 -11 27 q0 16 11 27 q11 11 27 11 q16 0 27 -11 q11 -11 11 -27 q0 -16 -11 -27 q-11 -11 -27 -11 q-16 0 -27 11 ZM416 753 q-11 11 -11 27 q0 16 11 27 q11 11 27 11 q16 0 27 -11 q11 -11 11 -27 q0 -16 -11 -27 q-11 -11 -27 -11 q-16 0 -27 11 Z" /><glyph glyph-name="uni04E5" unicode="&#x4e5;" d="M72 408 l40 0 l0 -327 l290 350 l0 -431 l-40 0 l0 325 l-290 -350 l0 433 ZM128.5 500.5 q-10.5 10.5 -10.5 25.5 q0 15 10.5 25.5 q10.5 10.5 25.5 10.5 q15 0 25.5 -10.5 q10.5 -10.5 10.5 -25.5 q0 -15 -10.5 -25.5 q-10.5 -10.5 -25.5 -10.5 q-15 0 -25.5 10.5 ZM294.5 500.5 q-10.5 10.5 -10.5 25.5 q0 15 10.5 25.5 q10.5 10.5 25.5 10.5 q15 0 25.5 -10.5 q10.5 -10.5 10.5 -25.5 q0 -15 -10.5 -25.5 q-10.5 -10.5 -25.5 -10.5 q-15 0 -25.5 10.5 Z" /><glyph glyph-name="uni04E6" unicode="&#x4e6;" d="M154 576 q100 100 246 100 q146 0 246 -100 q100 -100 100 -244 q0 -144 -100 -243.5 q-100 -99.5 -246 -99.5 q-146 0 -246 99.5 q-100 99.5 -100 243.5 q0 144 100 244 ZM186 116.5 q86 -87.5 214 -87.5 q128 0 214 87.5 q86 87.5 86 215.5 q0 129 -86 216.5 q-86 87.5 -214 87.5 q-128 0 -214 -87.5 q-86 -87.5 -86 -216.5 q0 -128 86 -215.5 ZM280 753 q-11 11 -11 27 q0 16 11 27 q11 11 27 11 q16 0 27 -11 q11 -11 11 -27 q0 -16 -11 -27 q-11 -11 -27 -11 q-16 0 -27 11 ZM466 753 q-11 11 -11 27 q0 16 11 27 q11 11 27 11 q16 0 27 -11 q11 -11 11 -27 q0 -16 -11 -27 q-11 -11 -27 -11 q-16 0 -27 11 Z" /><glyph glyph-name="uni04E7" unicode="&#x4e7;" d="M107.5 355.5 q61.5 61.5 152.5 61.5 q91 0 152.5 -61.5 q61.5 -61.5 61.5 -152.5 q0 -91 -61.5 -152.5 q-61.5 -61.5 -152.5 -61.5 q-91 0 -152.5 61.5 q-61.5 61.5 -61.5 152.5 q0 91 61.5 152.5 ZM137.5 78 q49.5 -51 122.5 -51 q73 0 122.5 51 q49.5 51 49.5 125 q0 74 -49.5 125 q-49.5 51 -122.5 51 q-73 0 -122.5 -51 q-49.5 -51 -49.5 -125 q0 -74 49.5 -125 ZM151.5 500.5 q-10.5 10.5 -10.5 25.5 q0 15 10.5 25.5 q10.5 10.5 25.5 10.5 q15 0 25.5 -10.5 q10.5 -10.5 10.5 -25.5 q0 -15 -10.5 -25.5 q-10.5 -10.5 -25.5 -10.5 q-15 0 -25.5 10.5 ZM317.5 500.5 q-10.5 10.5 -10.5 25.5 q0 15 10.5 25.5 q10.5 10.5 25.5 10.5 q15 0 25.5 -10.5 q10.5 -10.5 10.5 -25.5 q0 -15 -10.5 -25.5 q-10.5 -10.5 -25.5 -10.5 q-15 0 -25.5 10.5 Z" /><glyph glyph-name="uni04E8" unicode="&#x4e8;" d="M154 576 q100 100 246 100 q146 0 246 -100 q100 -100 100 -244 q0 -144 -100 -243.5 q-100 -99.5 -246 -99.5 q-146 0 -246 99.5 q-100 99.5 -100 243.5 q0 144 100 244 ZM187.5 114.5 q82.5 -85.5 212.5 -85.5 q130 0 212.5 85.5 q82.5 85.5 87.5 205.5 l-600 0 q5 -120 87.5 -205.5 ZM101 360 l598 0 q-11 123 -97 199.5 q-86 76.5 -202 76.5 q-116 0 -202 -76.5 q-86 -76.5 -97 -199.5 Z" /><glyph glyph-name="uni04E9" unicode="&#x4e9;" d="M107.5 355.5 q61.5 61.5 152.5 61.5 q91 0 152.5 -61.5 q61.5 -61.5 61.5 -152.5 q0 -91 -61.5 -152.5 q-61.5 -61.5 -152.5 -61.5 q-91 0 -152.5 61.5 q-61.5 61.5 -61.5 152.5 q0 91 61.5 152.5 ZM431 189 l-342 0 q4 -71 54 -116.5 q50 -45.5 117 -45.5 q67 0 117 45.5 q50 45.5 54 116.5 ZM89 227 l342 0 q-9 71 -59.5 111.5 q-50.5 40.5 -111.5 40.5 q-61 0 -111.5 -40.5 q-50.5 -40.5 -59.5 -111.5 Z" /><glyph glyph-name="uni04EA" unicode="&#x4ea;" d="M154 576 q100 100 246 100 q146 0 246 -100 q100 -100 100 -244 q0 -144 -100 -243.5 q-100 -99.5 -246 -99.5 q-146 0 -246 99.5 q-100 99.5 -100 243.5 q0 144 100 244 ZM187.5 114.5 q82.5 -85.5 212.5 -85.5 q130 0 212.5 85.5 q82.5 85.5 87.5 205.5 l-600 0 q5 -120 87.5 -205.5 ZM101 360 l598 0 q-11 123 -97 199.5 q-86 76.5 -202 76.5 q-116 0 -202 -76.5 q-86 -76.5 -97 -199.5 ZM280 753 q-11 11 -11 27 q0 16 11 27 q11 11 27 11 q16 0 27 -11 q11 -11 11 -27 q0 -16 -11 -27 q-11 -11 -27 -11 q-16 0 -27 11 ZM466 753 q-11 11 -11 27 q0 16 11 27 q11 11 27 11 q16 0 27 -11 q11 -11 11 -27 q0 -16 -11 -27 q-11 -11 -27 -11 q-16 0 -27 11 Z" /><glyph glyph-name="uni04EB" unicode="&#x4eb;" d="M107.5 355.5 q61.5 61.5 152.5 61.5 q91 0 152.5 -61.5 q61.5 -61.5 61.5 -152.5 q0 -91 -61.5 -152.5 q-61.5 -61.5 -152.5 -61.5 q-91 0 -152.5 61.5 q-61.5 61.5 -61.5 152.5 q0 91 61.5 152.5 ZM431 189 l-342 0 q4 -71 54 -116.5 q50 -45.5 117 -45.5 q67 0 117 45.5 q50 45.5 54 116.5 ZM89 227 l342 0 q-9 71 -59.5 111.5 q-50.5 40.5 -111.5 40.5 q-61 0 -111.5 -40.5 q-50.5 -40.5 -59.5 -111.5 ZM151.5 500.5 q-10.5 10.5 -10.5 25.5 q0 15 10.5 25.5 q10.5 10.5 25.5 10.5 q15 0 25.5 -10.5 q10.5 -10.5 10.5 -25.5 q0 -15 -10.5 -25.5 q-10.5 -10.5 -25.5 -10.5 q-15 0 -25.5 10.5 ZM317.5 500.5 q-10.5 10.5 -10.5 25.5 q0 15 10.5 25.5 q10.5 10.5 25.5 10.5 q15 0 25.5 -10.5 q10.5 -10.5 10.5 -25.5 q0 -15 -10.5 -25.5 q-10.5 -10.5 -25.5 -10.5 q-15 0 -25.5 10.5 Z" /><glyph glyph-name="uni04EE" unicode="&#x4ee;" d="M14 667 l50 0 l231 -432 l195 432 l46 0 l-305 -667 l-46 0 l85 186 l-256 481 ZM150 750 l0 44 l270 0 l0 -44 l-270 0 Z" /><glyph glyph-name="uni04EF" unicode="&#x4ef;" d="M106 -230 l96 223 l-194 415 l46 0 l171 -363 l149 363 l46 0 l-268 -638 l-46 0 ZM79 493 l0 39 l270 0 l0 -39 l-270 0 Z" /><glyph glyph-name="uni04F0" unicode="&#x4f0;" d="M14 667 l50 0 l231 -432 l195 432 l46 0 l-305 -667 l-46 0 l85 186 l-256 481 ZM164 753 q-11 11 -11 27 q0 16 11 27 q11 11 27 11 q16 0 27 -11 q11 -11 11 -27 q0 -16 -11 -27 q-11 -11 -27 -11 q-16 0 -27 11 ZM350 753 q-11 11 -11 27 q0 16 11 27 q11 11 27 11 q16 0 27 -11 q11 -11 11 -27 q0 -16 -11 -27 q-11 -11 -27 -11 q-16 0 -27 11 Z" /><glyph glyph-name="uni04F1" unicode="&#x4f1;" d="M106 -230 l96 223 l-194 415 l46 0 l171 -363 l149 363 l46 0 l-268 -638 l-46 0 ZM111.5 500.5 q-10.5 10.5 -10.5 25.5 q0 15 10.5 25.5 q10.5 10.5 25.5 10.5 q15 0 25.5 -10.5 q10.5 -10.5 10.5 -25.5 q0 -15 -10.5 -25.5 q-10.5 -10.5 -25.5 -10.5 q-15 0 -25.5 10.5 ZM277.5 500.5 q-10.5 10.5 -10.5 25.5 q0 15 10.5 25.5 q10.5 10.5 25.5 10.5 q15 0 25.5 -10.5 q10.5 -10.5 10.5 -25.5 q0 -15 -10.5 -25.5 q-10.5 -10.5 -25.5 -10.5 q-15 0 -25.5 10.5 Z" /><glyph glyph-name="uni04F2" unicode="&#x4f2;" d="M14 667 l50 0 l231 -432 l195 432 l46 0 l-305 -667 l-46 0 l85 186 l-256 481 ZM265 854 l52 -26 l-100 -125 l-36 15 l84 136 ZM386 854 l52 -26 l-100 -125 l-36 15 l84 136 Z" /><glyph glyph-name="uni04F3" unicode="&#x4f3;" d="M106 -230 l96 223 l-194 415 l46 0 l171 -363 l149 363 l46 0 l-268 -638 l-46 0 ZM213 620 l42 -25 l-99 -128 l-27 16 l84 137 ZM324 620 l42 -25 l-99 -128 l-27 16 l84 137 Z" /><glyph glyph-name="uni04F4" unicode="&#x4f4;" d="M446 0 l0 300 q-112 -7 -170 -7 q-91 0 -136 22 q-44 21 -57 55.5 q-13 34.5 -13 93.5 l0 203 l44 0 l0 -203 q0 -20 1 -31.5 q1 -11.5 5.5 -29.5 q4.5 -18 16.5 -32 q12 -14 31 -23 q31 -15 122 -15 q69 0 156 7 l0 327 l44 0 l0 -667 l-44 0 ZM170 753 q-11 11 -11 27 q0 16 11 27 q11 11 27 11 q16 0 27 -11 q11 -11 11 -27 q0 -16 -11 -27 q-11 -11 -27 -11 q-16 0 -27 11 ZM356 753 q-11 11 -11 27 q0 16 11 27 q11 11 27 11 q16 0 27 -11 q11 -11 11 -27 q0 -16 -11 -27 q-11 -11 -27 -11 q-16 0 -27 11 Z" /><glyph glyph-name="uni04F5" unicode="&#x4f5;" d="M300 0 l0 169 q-66 -10 -107 -10 q-65 0 -96 22 q-37 27 -37 104 l0 123 l40 0 l0 -123 q0 -56 27 -75 q19 -13 61 -13 q47 0 112 10 l0 201 l40 0 l0 -408 l-40 0 ZM97.5 500.5 q-10.5 10.5 -10.5 25.5 q0 15 10.5 25.5 q10.5 10.5 25.5 10.5 q15 0 25.5 -10.5 q10.5 -10.5 10.5 -25.5 q0 -15 -10.5 -25.5 q-10.5 -10.5 -25.5 -10.5 q-15 0 -25.5 10.5 ZM263.5 500.5 q-10.5 10.5 -10.5 25.5 q0 15 10.5 25.5 q10.5 10.5 25.5 10.5 q15 0 25.5 -10.5 q10.5 -10.5 10.5 -25.5 q0 -15 -10.5 -25.5 q-10.5 -10.5 -25.5 -10.5 q-15 0 -25.5 10.5 Z" /><glyph glyph-name="uni04F8" unicode="&#x4f8;" d="M90 0 l0 667 l44 0 l0 -287 l116 0 q230 0 230 -183 q0 -83 -53.5 -140 q-53.5 -57 -162.5 -57 l-174 0 ZM134 340 l0 -300 l112 0 q101 0 146 44 q42 40 42 113 q0 87 -69 123 q-39 20 -127 20 l-104 0 ZM556 667 l44 0 l0 -667 l-44 0 l0 667 ZM225 753 q-11 11 -11 27 q0 16 11 27 q11 11 27 11 q16 0 27 -11 q11 -11 11 -27 q0 -16 -11 -27 q-11 -11 -27 -11 q-16 0 -27 11 ZM411 753 q-11 11 -11 27 q0 16 11 27 q11 11 27 11 q16 0 27 -11 q11 -11 11 -27 q0 -16 -11 -27 q-11 -11 -27 -11 q-16 0 -27 11 Z" /><glyph glyph-name="uni04F9" unicode="&#x4f9;" d="M72 408 l40 0 l0 -170 l97 0 q70 0 104 -38 q29 -32 29 -81 q0 -55 -36 -88 q-33 -31 -98 -31 l-136 0 l0 408 ZM112 38 l96 0 q42 0 64 19 q28 23 28 62 q0 41 -29 63 q-24 18 -65 18 l-94 0 l0 -162 ZM388 408 l40 0 l0 -408 l-40 0 l0 408 ZM141.5 500.5 q-10.5 10.5 -10.5 25.5 q0 15 10.5 25.5 q10.5 10.5 25.5 10.5 q15 0 25.5 -10.5 q10.5 -10.5 10.5 -25.5 q0 -15 -10.5 -25.5 q-10.5 -10.5 -25.5 -10.5 q-15 0 -25.5 10.5 ZM307.5 500.5 q-10.5 10.5 -10.5 25.5 q0 15 10.5 25.5 q10.5 10.5 25.5 10.5 q15 0 25.5 -10.5 q10.5 -10.5 10.5 -25.5 q0 -15 -10.5 -25.5 q-10.5 -10.5 -25.5 -10.5 q-15 0 -25.5 10.5 Z" /><glyph glyph-name="uni1E9E" unicode="&#x1e9e;" d="M90 0 l0 500 q0 81 58 133 q48 43 126 43 q66 0 113 -31 q64 -42 62 -119 l-143 -135 q84 -11 137 -55 q63 -51 63 -129 q0 -83 -67 -143 q-31 -28 -82 -44 q-51 -16 -97 -20 l0 40 q93 5 148 52 q52 45 52 110 q0 36 -19 67 q-19 31 -49 50 q-52 32 -132 38 l0 40 l142 137 q-3 45 -38 76 q-30 26 -91 26 q-60 0 -95 -31 q-44 -39 -44 -109 l0 -496 l-44 0 Z" /><glyph glyph-name="uni2010" unicode="&#x2010;" d="M50 184 l0 46 l200 0 l0 -46 l-200 0 Z" /><glyph glyph-name="uni2011" unicode="&#x2011;" d="M50 184 l0 46 l200 0 l0 -46 l-200 0 Z" /><glyph glyph-name="figuredash" unicode="&#x2012;" d="M70 319 l0 38 l400 0 l0 -38 l-400 0 Z" /><glyph glyph-name="endash" unicode="&#x2013;" d="M70 188 l0 38 l400 0 l0 -38 l-400 0 Z" /><glyph glyph-name="emdash" unicode="&#x2014;" d="M70 188 l0 38 l600 0 l0 -38 l-600 0 Z" /><glyph glyph-name="afii00208" unicode="&#x2015;" d="M70 188 l0 38 l600 0 l0 -38 l-600 0 Z" /><glyph glyph-name="quoteleft" unicode="&#x2018;" d="M164 667 l-60 -202 l-40 12 l74 200 l26 -10 Z" /><glyph glyph-name="quoteright" unicode="&#x2019;" d="M64 477 l60 202 l40 -12 l-74 -200 l-26 10 Z" /><glyph glyph-name="quotesinglbase" unicode="&#x201a;" d="M64 -137 l60 202 l40 -12 l-74 -200 l-26 10 Z" /><glyph glyph-name="quotedblleft" unicode="&#x201c;" d="M164 667 l-60 -202 l-40 12 l74 200 l26 -10 ZM280 667 l-60 -202 l-40 12 l74 200 l26 -10 Z" /><glyph glyph-name="quotedblright" unicode="&#x201d;" d="M64 477 l60 202 l40 -12 l-74 -200 l-26 10 ZM180 477 l60 202 l40 -12 l-74 -200 l-26 10 Z" /><glyph glyph-name="quotedblbase" unicode="&#x201e;" d="M64 -137 l60 202 l40 -12 l-74 -200 l-26 10 ZM180 -137 l60 202 l40 -12 l-74 -200 l-26 10 Z" /><glyph glyph-name="dagger" unicode="&#x2020;" d="M252 489 l0 240 l44 0 l0 -240 l160 0 l0 -40 l-160 0 l0 -609 l-44 0 l0 609 l-160 0 l0 40 l160 0 Z" /><glyph glyph-name="daggerdbl" unicode="&#x2021;" d="M296 -160 l-44 0 l0 264 l-160 0 l0 40 l160 0 l0 305 l-160 0 l0 40 l160 0 l0 240 l44 0 l0 -240 l160 0 l0 -40 l-160 0 l0 -305 l160 0 l0 -40 l-160 0 l0 -264 Z" /><glyph glyph-name="bullet" unicode="&#x2022;" d="M401 241 q-41 41 -41 99 q0 58 41 99 q41 41 99 41 q58 0 99 -41 q41 -41 41 -99 q0 -58 -41 -99 q-41 -41 -99 -41 q-58 0 -99 41 Z" /><glyph glyph-name="ellipsis" unicode="&#x2026;" d="M74.5 3.5 q-10.5 10.5 -10.5 26.5 q0 16 10.5 26.5 q10.5 10.5 26.5 10.5 q16 0 26.5 -10.5 q10.5 -10.5 10.5 -26.5 q0 -16 -10.5 -26.5 q-10.5 -10.5 -26.5 -10.5 q-16 0 -26.5 10.5 ZM276.5 3.5 q-10.5 10.5 -10.5 26.5 q0 16 10.5 26.5 q10.5 10.5 26.5 10.5 q16 0 26.5 -10.5 q10.5 -10.5 10.5 -26.5 q0 -16 -10.5 -26.5 q-10.5 -10.5 -26.5 -10.5 q-16 0 -26.5 10.5 ZM478.5 3.5 q-10.5 10.5 -10.5 26.5 q0 16 10.5 26.5 q10.5 10.5 26.5 10.5 q16 0 26.5 -10.5 q10.5 -10.5 10.5 -26.5 q0 -16 -10.5 -26.5 q-10.5 -10.5 -26.5 -10.5 q-16 0 -26.5 10.5 Z" /><glyph glyph-name="perthousand" unicode="&#x2030;" d="M71 636 q37 37 98 37 q61 0 98 -37 q37 -37 37 -94 q0 -57 -37 -94 q-37 -37 -98 -37 q-61 0 -98 37 q-37 37 -37 94 q0 57 37 94 ZM99 476 q25 -29 70 -29 q45 0 70 29 q25 29 25 66 q0 37 -25 66 q-25 29 -70 29 q-45 0 -70 -29 q-25 -29 -25 -66 q0 -37 25 -66 ZM92 1 l394 681 l30 -16 l-394 -681 l-30 16 ZM341 219 q37 37 98 37 q61 0 98 -37 q37 -37 37 -94 q0 -57 -37 -94 q-37 -37 -98 -37 q-61 0 -98 37 q-37 37 -37 94 q0 57 37 94 ZM369 59 q25 -29 70 -29 q45 0 70 29 q25 29 25 66 q0 37 -25 66 q-25 29 -70 29 q-45 0 -70 -29 q-25 -29 -25 -66 q0 -37 25 -66 ZM663 219 q37 37 98 37 q61 0 98 -37 q37 -37 37 -94 q0 -57 -37 -94 q-37 -37 -98 -37 q-61 0 -98 37 q-37 37 -37 94 q0 57 37 94 ZM691 59 q25 -29 70 -29 q45 0 70 29 q25 29 25 66 q0 37 -25 66 q-25 29 -70 29 q-45 0 -70 -29 q-25 -29 -25 -66 q0 -37 25 -66 Z" /><glyph glyph-name="guilsinglleft" unicode="&#x2039;" d="M188 333 l-108 -126 l108 -126 l-26 -24 l-130 150 l130 150 l26 -24 Z" /><glyph glyph-name="guilsinglright" unicode="&#x203a;" d="M54 81 l108 126 l-108 126 l26 24 l130 -150 l-130 -150 l-26 24 Z" /><glyph glyph-name="fraction" unicode="&#x2044;" d="M-150 1 l394 681 l30 -16 l-394 -681 l-30 16 Z" /><glyph glyph-name="uni2080" unicode="&#x2080;" d="M71 357 q41 48 94 48 q53 0 94 -48 q51 -61 51 -157 q0 -94 -51 -157 q-40 -48 -94 -48 q-54 0 -94 48 q-51 63 -51 157 q0 96 51 157 ZM98 67 q28 -36 67 -36 q39 0 67 36 q38 49 38 133 q0 82 -38 132 q-29 37 -67 37 q-38 0 -67 -37 q-38 -50 -38 -132 q0 -84 38 -133 Z" /><glyph glyph-name="uni2081" unicode="&#x2081;" d="M152 0 l0 364 l-62 0 l12 36 l88 0 l0 -400 l-38 0 Z" /><glyph glyph-name="uni2082" unicode="&#x2082;" d="M283 0 l-246 0 l146 169 q32 38 41 53 q21 33 21 70 q0 34 -21.5 55.5 q-21.5 21.5 -58.5 21.5 q-39 0 -62 -25 q-21 -23 -21 -57 l-36 0 q0 50 32 84 q32 34 88 34 q52 0 85.5 -32 q33.5 -32 33.5 -81 q0 -42 -26 -83 q-2 -2 -9 -12 q-7 -10 -13 -18.5 q-6 -8.5 -10 -12.5 l-110 -130 l166 0 l0 -36 Z" /><glyph glyph-name="uni2083" unicode="&#x2083;" d="M48 98 l36 0 q2 -22 12 -37 q22 -30 62 -30 q33 0 55.5 24 q22.5 24 22.5 60 q0 46 -40 65 q-21 10 -56 10 l0 36 q34 0 58 17 q33 24 33 61 q0 28 -17 46.5 q-17 18.5 -48 18.5 q-31 0 -49 -19 q-18 -18 -18 -45 l-36 0 q2 43 29 72 q25 28 74 28 q48 0 76.5 -29 q28.5 -29 28.5 -71 q0 -71 -63 -96 q32 -10 50 -36 q18 -26 18 -61 q0 -51 -34 -84 q-34 -33 -84 -33 q-63 0 -96 52 q-14 23 -14 51 Z" /><glyph glyph-name="uni2084" unicode="&#x2084;" d="M250 413 l0 -301 l56 0 l0 -36 l-56 0 l0 -76 l-38 0 l0 76 l-204 0 l242 337 ZM78 112 l134 0 l0 190 l-134 -190 Z" /><glyph glyph-name="uni2085" unicode="&#x2085;" d="M282 400 l0 -36 l-134 0 l-30 -96 q18 4 26 4 q54 0 95 -35.5 q41 -35.5 41 -102.5 q0 -64 -41 -101.5 q-41 -37.5 -101 -37.5 q-83 0 -120 66 l38 10 q26 -40 82 -40 q45 0 73.5 28.5 q28.5 28.5 28.5 74.5 q0 46 -27.5 74 q-27.5 28 -72.5 28 q-41 0 -75 -18 l58 182 l159 0 Z" /><glyph glyph-name="uni2086" unicode="&#x2086;" d="M181 405 l28 -21 l-83 -119 q20 10 46 10 q56 0 95.5 -39.5 q39.5 -39.5 39.5 -100.5 q0 -61 -40 -100.5 q-40 -39.5 -103 -39.5 q-68 0 -104.5 42.5 q-36.5 42.5 -36.5 96.5 q0 49 32 93 l126 178 ZM165 31 q43 0 72.5 29 q29.5 29 29.5 74 q0 46 -29 75.5 q-29 29.5 -73 29.5 q-44 0 -73 -29.5 q-29 -29.5 -29 -75.5 q0 -45 28.5 -74 q28.5 -29 73.5 -29 Z" /><glyph glyph-name="uni2087" unicode="&#x2087;" d="M13 19 l234 345 l-218 0 l0 36 l290 0 l-272 -404 l-34 23 Z" /><glyph glyph-name="uni2088" unicode="&#x2088;" d="M115 208 q-56 29 -56 92 q0 45 30 75 q30 30 76 30 q46 0 76 -30 q30 -30 30 -75 q0 -63 -56 -92 q68 -24 68 -102 q0 -50 -34 -80.5 q-34 -30.5 -84 -30.5 q-50 0 -84 30.5 q-34 30.5 -34 80.5 q0 78 68 102 ZM116 249 q19 -23 49 -23 q30 0 49 23 q19 23 19 51 q0 26 -18.5 47.5 q-18.5 21.5 -49.5 21.5 q-31 0 -49.5 -21.5 q-18.5 -21.5 -18.5 -47.5 q0 -28 19 -51 ZM108 53 q21 -22 57 -22 q36 0 57 22 q21 22 21 56 q0 36 -21.5 58.5 q-21.5 22.5 -56.5 22.5 q-35 0 -56.5 -22.5 q-21.5 -22.5 -21.5 -58.5 q0 -34 21 -56 Z" /><glyph glyph-name="uni2089" unicode="&#x2089;" d="M149 -5 l-28 21 l83 119 q-20 -10 -46 -10 q-56 0 -95.5 39.5 q-39.5 39.5 -39.5 100.5 q0 61 40 100.5 q40 39.5 103 39.5 q68 0 104.5 -42.5 q36.5 -42.5 36.5 -96.5 q0 -49 -32 -93 l-126 -178 ZM165 369 q-43 0 -72.5 -29 q-29.5 -29 -29.5 -74 q0 -46 29 -75.5 q29 -29.5 73 -29.5 q44 0 73 29.5 q29 29.5 29 75.5 q0 45 -28.5 74 q-28.5 29 -73.5 29 Z" /><glyph glyph-name="Euro" unicode="&#x20ac;" d="M504 629 l-20 -37 q-64 44 -145 44 q-49 0 -89.5 -19 q-40.5 -19 -67.5 -50.5 q-27 -31.5 -44.5 -65 q-17.5 -33.5 -26.5 -70.5 l325 0 l-16 -40 l-316 0 q-4 -27 -4 -60 q0 -15 2 -43 l278 0 l-16 -40 l-256 0 q3 -19 8.5 -38.5 q5.5 -19.5 16 -46 q10.5 -26.5 27.5 -49 q17 -22.5 39.5 -42.5 q22.5 -20 55.5 -31.5 q33 -11.5 73 -11.5 q103 0 176 71 l0 -58 q-75 -53 -175 -53 q-58 0 -104.5 19 q-46.5 19 -74.5 47 q-28 28 -48 65.5 q-20 37.5 -28 67.5 q-8 30 -12 60 l-68 0 l16 40 l46 0 q-2 28 -2 43 q0 33 4 60 l-64 0 l16 40 l55 0 q23 109 98.5 177 q75.5 68 180.5 68 q89 0 160 -47 Z" /><glyph glyph-name="uni20B4" unicode="&#x20b4;" d="M140 554 l-32 27 q33 41 75 66 q51 29 112 29 q70 0 108 -38 q38 -38 38 -92 q0 -66 -49 -115 l90 0 l0 -40 l-127 0 l-117 -103 l244 0 l0 -40 l-281 0 q-41 -47 -41 -109 q0 -52 31 -81 q29 -29 84 -29 q56 0 103 42 q38 34 54 79 l38 -18 q-21 -47 -61 -86 q-60 -57 -138 -57 q-69 0 -109 35 q-48 41 -48 117 q0 57 37 107 l-85 0 l0 40 l114 0 l117 103 l-231 0 l0 40 l267 0 q62 50 62 112 q0 38 -22 63 q-26 30 -78 30 q-51 0 -93 -26 q-33 -20 -62 -56 Z" /><glyph glyph-name="uni20B6" unicode="&#x20b6;&#x20b7;&#x20b9;&#x20ba;&#x20bb;&#x20bc;&#x20bd;&#x20be;&#x20bf;&#x20c0;&#x20c1;&#x20c2;&#x20c3;&#x20c4;&#x20c5;&#x20c6;&#x20c7;&#x20c8;&#x20c9;&#x20ca;&#x20cb;&#x20cc;&#x20cd;&#x20ce;&#x20cf;" d="M142 357 l0 310 l129 0 q97 0 149 -54 q46 -48 46 -120 q0 -76 -47 -123 q-51 -53 -147 -53 l-86 0 l0 -90 l167 0 l0 -40 l-167 0 l0 -187 l-44 0 l0 187 l-75 0 l0 40 l75 0 l0 90 l-75 0 l0 40 l75 0 ZM186 627 l0 -270 l88 0 q68 0 109 39 q37 36 37 96 q0 62 -39 98 q-40 37 -114 37 l-81 0 Z" /><glyph glyph-name="uni20B8" unicode="&#x20b8;" d="M469 537 l-173 0 l0 -537 l-44 0 l0 537 l-173 0 l0 40 l390 0 l0 -40 ZM469 627 l-390 0 l0 40 l390 0 l0 -40 Z" /><glyph glyph-name="afii61352" unicode="&#x2116;" d="M134 0 l-44 0 l0 674 l448 -564 l0 557 l44 0 l0 -684 l-448 564 l0 -547 ZM675 630 q37 37 98 37 q61 0 98 -37 q37 -37 37 -94 q0 -57 -37 -94 q-37 -37 -98 -37 q-61 0 -98 37 q-37 37 -37 94 q0 57 37 94 ZM703 470 q25 -29 70 -29 q45 0 70 29 q25 29 25 66 q0 37 -25 66 q-25 29 -70 29 q-45 0 -70 -29 q-25 -29 -25 -66 q0 -37 25 -66 ZM658 279 l0 46 l230 0 l0 -46 l-230 0 Z" /><glyph glyph-name="uni2117" unicode="&#x2117;" d="M297 505 l71 0 q54 0 82 -26 q27 -25 27 -71 q0 -46 -27 -73 q-29 -29 -92 -29 l-27 0 l0 -171 l-34 0 l0 370 ZM331 474 l0 -137 l32 0 q44 0 62 19 q17 17 17 50 q0 34 -17 51 q-17 17 -56 17 l-38 0 ZM686 465.5 q27 -66.5 27 -131.5 q0 -65 -27 -132 q-27 -67 -77 -116 q-98 -96 -239 -96 q-141 0 -239 96 q-50 49 -77 116 q-27 67 -27 132 q0 65 27 131.5 q27 66.5 77 115.5 q98 96 239 96 q141 0 239 -96 q50 -49 77 -115.5 ZM370 647 q-122 0 -210 -84 q-45 -43 -72 -104.5 q-27 -61.5 -27 -124.5 q0 -64 27 -125.5 q27 -61.5 72 -104.5 q88 -84 210 -84 q121 0 210 84 q45 43 72 104.5 q27 61.5 27 125.5 q0 63 -27 124.5 q-27 61.5 -72 104.5 q-89 84 -210 84 Z" /><glyph glyph-name="trademark" unicode="&#x2122;" d="M226 631 l-93 0 l0 -344 l-40 0 l0 344 l-93 0 l0 36 l226 0 l0 -36 ZM303 287 l-38 0 l45 410 l163 -348 l164 348 l45 -410 l-38 0 l-31 277 l-140 -299 l-140 299 l-30 -277 Z" /><glyph glyph-name="partialdiff" unicode="&#x2202;" d="M105 636 l5 37 q65 -7 124 -33 q119 -53 183 -178 q53 -103 53 -229 q0 -89 -37 -149 q-29 -47 -76.5 -71 q-47.5 -24 -97.5 -24 q-93 0 -153 65.5 q-60 65.5 -60 157.5 q0 94 61 159.5 q61 65.5 155 65.5 q94 0 147 -78 l2 0 q-16 66 -61 132 q-54 77 -138 115 q-50 23 -107 30 ZM428 218 q0 78 -45.5 129.5 q-45.5 51.5 -120.5 51.5 q-75 0 -124.5 -53.5 q-49.5 -53.5 -49.5 -135.5 q0 -85 52 -134 q52 -49 119 -49 q68 0 118.5 51.5 q50.5 51.5 50.5 139.5 Z" /><glyph glyph-name="product" unicode="&#x220f;" d="M34 710 l0 40 l610 0 l0 -40 l-77 0 l0 -920 l77 0 l0 -40 l-202 0 l0 40 l81 0 l0 920 l-369 0 l0 -920 l80 0 l0 -40 l-200 0 l0 40 l76 0 l0 920 l-76 0 Z" /><glyph glyph-name="summation" unicode="&#x2211;" d="M32 750 l554 0 l0 -215 l-40 0 l0 175 l-465 0 l253 -439 l-256 -481 l476 0 l0 173 l40 0 l0 -213 l-562 0 l0 46 l252 476 l-252 432 l0 46 Z" /><glyph glyph-name="minus" unicode="&#x2212;" d="M33 310 l0 38 l434 0 l0 -38 l-434 0 Z" /><glyph glyph-name="fraction" unicode="&#x2215;" d="M-34 -158 l504 901 l32 -16 l-504 -901 l-32 16 Z" /><glyph glyph-name="periodcentered" unicode="&#x2219;" d="M66 306 q-14 14 -14 34 q0 20 14 34 q14 14 34 14 q20 0 34 -14 q14 -14 14 -34 q0 -20 -14 -34 q-14 -14 -34 -14 q-20 0 -34 14 Z" /><glyph glyph-name="radical" unicode="&#x221a;" d="M427 827 l241 0 l0 -38 l-208 0 l-244 -789 l-43 0 l-96 315 l-77 0 l0 38 l109 0 l84 -286 l3 0 l231 760 Z" /><glyph glyph-name="infinity" unicode="&#x221e;" d="M334 312 q-27 -50 -72.5 -85 q-45.5 -35 -97.5 -35 q-63 0 -103.5 42 q-40.5 42 -40.5 108 q0 64 41 105 q41 41 104 41 q50 0 95 -34 q45 -34 73 -85 q27 49 71 84 q44 35 100 35 q64 0 103.5 -41.5 q39.5 -41.5 39.5 -106.5 q0 -66 -39.5 -107 q-39.5 -41 -103.5 -41 q-56 0 -100 35.5 q-44 35.5 -70 84.5 ZM354 341 q24 -49 64.5 -81 q40.5 -32 83.5 -32 q47 0 76 32.5 q29 32.5 29 79.5 q0 49 -29.5 80.5 q-29.5 31.5 -76.5 31.5 q-79 0 -147 -111 ZM313 340 q-23 42 -61.5 77 q-38.5 35 -86.5 35 q-46 0 -75.5 -31 q-29.5 -31 -29.5 -80 q0 -50 29.5 -81.5 q29.5 -31.5 76.5 -31.5 q77 0 147 112 Z" /><glyph glyph-name="integral" unicode="&#x222b;" d="M378 739 l-12 -36 q-19 11 -42 11 q-25 0 -38 -13 q-16 -16 -16 -68 l0 -766 q0 -72 -27 -96 q-23 -21 -67 -21 q-26 0 -54 11 l12 36 q19 -11 42 -11 q25 0 38 13 q16 16 16 68 l0 766 q0 72 27 96 q23 21 67 21 q26 0 54 -11 Z" /><glyph glyph-name="approxequal" unicode="&#x2248;" d="M39 342 l-27 16 q18 38 47 67 q37 35 85 35 q37 0 113 -40 q72 -37 103 -37 q38 0 65 27 q19 19 36 51 l27 -16 q-18 -36 -39 -58 q-40 -42 -95 -42 q-44 0 -138 52 q-46 25 -75 25 q-37 0 -64 -26 q-22 -21 -38 -54 ZM39 195 l-27 16 q18 38 47 67 q37 35 85 35 q37 0 113 -40 q72 -37 103 -37 q38 0 65 27 q19 19 36 51 l27 -16 q-18 -36 -39 -58 q-40 -42 -95 -42 q-44 0 -138 52 q-46 25 -75 25 q-37 0 -64 -26 q-22 -21 -38 -54 Z" /><glyph glyph-name="notequal" unicode="&#x2260;" d="M33 381 l0 38 l243 0 l55 117 l36 0 l-55 -117 l155 0 l0 -38 l-173 0 l-49 -104 l222 0 l0 -38 l-240 0 l-58 -123 l-36 0 l58 123 l-158 0 l0 38 l176 0 l49 104 l-225 0 Z" /><glyph glyph-name="lessequal" unicode="&#x2264;" d="M33 378 l434 192 l0 -41 l-390 -170 l390 -170 l0 -41 l-434 192 l0 38 ZM33 118 l434 0 l0 -38 l-434 0 l0 38 Z" /><glyph glyph-name="greaterequal" unicode="&#x2265;" d="M467 340 l-434 -192 l0 41 l390 170 l-390 170 l0 41 l434 -192 l0 -38 ZM33 118 l434 0 l0 -38 l-434 0 l0 38 Z" /><glyph glyph-name="dotmath" unicode="&#x22c5;" d="M66 306 q-14 14 -14 34 q0 20 14 34 q14 14 34 14 q20 0 34 -14 q14 -14 14 -34 q0 -20 -14 -34 q-14 -14 -34 -14 q-20 0 -34 14 Z" /><glyph glyph-name="lozenge" unicode="&#x25ca;" d="M90 334 l260 360 l260 -360 l-260 -360 l-260 360 ZM564 334 l-214 294 l-214 -294 l214 -294 l214 294 Z" /><glyph glyph-name="openbullet" unicode="&#x25e6;" d="M152.5 630 q37.5 37 97.5 37 q60 0 97.5 -37 q37.5 -37 37.5 -94 q0 -57 -37.5 -94 q-37.5 -37 -97.5 -37 q-60 0 -97.5 37 q-37.5 37 -37.5 94 q0 57 37.5 94 ZM324.5 609.5 q-28.5 29.5 -74.5 29.5 q-46 0 -74.5 -29.5 q-28.5 -29.5 -28.5 -73.5 q0 -44 28.5 -73.5 q28.5 -29.5 74.5 -29.5 q46 0 74.5 29.5 q28.5 29.5 28.5 73.5 q0 44 -28.5 73.5 Z" /><glyph glyph-name="uniF400" unicode="&#xf400;" d="M-173 620 l43 -25 l-105 -128 l-30 16 l92 137 Z" /><glyph glyph-name="uniF401" unicode="&#xf401;" d="M-182 854 l50 -25 l-134 -126 l-32 18 l116 133 Z" /><glyph glyph-name="uniF406" unicode="&#xf406;" d="M123 826 l40 0 q6 -20 24 -34 q24 -18 63 -18 q39 0 63 18 q18 14 24 34 l40 0 q-4 -33 -29 -58 q-36 -36 -98 -36 q-62 0 -98 36 q-25 25 -29 58 Z" /><glyph glyph-name="uniF407" unicode="&#xf407;" d="M270 -50 l46 -26 l-108 -126 l-30 18 l92 134 Z" /><glyph glyph-name="uniF408" unicode="&#xf408;" d="M250 786 l-96 -64 l-34 27 l130 90 l130 -90 l-34 -27 l-96 64 Z" /><glyph glyph-name="uniF409" unicode="&#xf409;" d="M193 -190 l46 140 l44 -14 l-62 -136 l-28 10 Z" /><glyph glyph-name="uniF40A" unicode="&#xf40a;" d="M193 520 l46 160 l44 -14 l-62 -156 l-28 10 Z" /><glyph glyph-name="uniF40B" unicode="&#xf40b;" d="M220.5 751.5 q-11.5 11.5 -11.5 29.5 q0 18 11.5 29.5 q11.5 11.5 29.5 11.5 q18 0 29.5 -11.5 q11.5 -11.5 11.5 -29.5 q0 -18 -11.5 -29.5 q-11.5 -11.5 -29.5 -11.5 q-18 0 -29.5 11.5 Z" /><glyph glyph-name="uniF40C" unicode="&#xf40c;" d="M193.5 730.5 q-23.5 23.5 -23.5 56.5 q0 33 23.5 56.5 q23.5 23.5 56.5 23.5 q33 0 56.5 -23.5 q23.5 -23.5 23.5 -56.5 q0 -33 -23.5 -56.5 q-23.5 -23.5 -56.5 -23.5 q-33 0 -56.5 23.5 ZM220.5 816.5 q-11.5 -11.5 -11.5 -29.5 q0 -18 11.5 -29.5 q11.5 -11.5 29.5 -11.5 q18 0 29.5 11.5 q11.5 11.5 11.5 29.5 q0 18 -11.5 29.5 q-11.5 11.5 -29.5 11.5 q-18 0 -29.5 -11.5 Z" /><glyph glyph-name="uniF40D" unicode="&#xf40d;" d="M149 717 l-29 22 q11 25 23 38 q20 22 45 22 q22 0 64 -17 q47 -18 59 -18 q13 0 25 12 q11 13 15 26 l29 -22 q-9 -27 -28 -43 q-19 -17 -46 -17 q-18 0 -58 17 q-43 18 -58 18 q-17 0 -28 -14 q-6 -7 -13 -24 Z" /><glyph glyph-name="uniF40E" unicode="&#xf40e;" d="M360 -137 l-9 -37 q-22 -8 -45 -8 q-45 0 -72.5 23.5 q-27.5 23.5 -27.5 59.5 q0 33 23 62 q16 20 43 37 l44 0 q-27 -18 -46 -42 q-22 -29 -22 -55 q0 -22 15 -35.5 q15 -13.5 45 -13.5 q23 0 52 9 Z" /><glyph glyph-name="afii10017.var.accented" unicode="&#xf460;" d="M524 0 l-89 219 l-284 0 l-89 -219 l-48 0 l281 687 l277 -687 l-48 0 ZM167 259 l252 0 l-125 316 l-127 -316 ZM359 854 l50 -25 l-134 -126 l-32 18 l116 133 Z" /><glyph glyph-name="afii10022.var.accented" unicode="&#xf461;" d="M410 667 l0 -40 l-276 0 l0 -242 l270 0 l0 -40 l-270 0 l0 -305 l276 0 l0 -40 l-320 0 l0 667 l320 0 ZM298 854 l50 -25 l-134 -126 l-32 18 l116 133 Z" /><glyph glyph-name="afii10026.var.accented" unicode="&#xf462;" d="M566 0 l0 556 l-476 -573 l0 684 l44 0 l0 -566 l476 573 l0 -674 l-44 0 ZM416 854 l50 -25 l-134 -126 l-32 18 l116 133 Z" /><glyph glyph-name="afii10032.var.accented" unicode="&#xf463;" d="M154 576 q100 100 246 100 q146 0 246 -100 q100 -100 100 -244 q0 -144 -100 -243.5 q-100 -99.5 -246 -99.5 q-146 0 -246 99.5 q-100 99.5 -100 243.5 q0 144 100 244 ZM186 116.5 q86 -87.5 214 -87.5 q128 0 214 87.5 q86 87.5 86 215.5 q0 129 -86 216.5 q-86 87.5 -214 87.5 q-128 0 -214 -87.5 q-86 -87.5 -86 -216.5 q0 -128 86 -215.5 ZM466 854 l50 -25 l-134 -126 l-32 18 l116 133 Z" /><glyph glyph-name="afii10037.var.accented" unicode="&#xf464;" d="M14 667 l50 0 l231 -432 l195 432 l46 0 l-305 -667 l-46 0 l85 186 l-256 481 ZM341 854 l50 -25 l-134 -126 l-32 18 l116 133 Z" /><glyph glyph-name="afii10045.var.accented" unicode="&#xf465;" d="M90 0 l0 667 l44 0 l0 -287 l116 0 q230 0 230 -183 q0 -83 -53.5 -140 q-53.5 -57 -162.5 -57 l-174 0 ZM134 340 l0 -300 l112 0 q101 0 146 44 q42 40 42 113 q0 87 -69 123 q-39 20 -127 20 l-104 0 ZM556 667 l44 0 l0 -667 l-44 0 l0 667 ZM411 854 l50 -25 l-134 -126 l-32 18 l116 133 Z" /><glyph glyph-name="afii10047.var.accented" unicode="&#xf466;" d="M54 72 l0 58 q48 -52 108 -76.5 q60 -24.5 116 -24.5 q114 0 205 81 q91 81 95 214 l-444 0 l0 40 l442 0 q-11 118 -96.5 195 q-85.5 77 -200.5 77 q-65 0 -123.5 -27.5 q-58.5 -27.5 -101.5 -77.5 l0 58 q92 87 224 87 q144 0 245 -100 q101 -100 101 -244 q0 -141 -100 -242 q-100 -101 -248 -101 q-128 0 -222 83 ZM365 854 l50 -25 l-134 -126 l-32 18 l116 133 Z" /><glyph glyph-name="afii10048.var.accented" unicode="&#xf467;" d="M134 372 l102 0 q15 132 110 218 q95 86 224 86 q142 0 239 -100 q97 -100 97 -244 q0 -144 -97 -243.5 q-97 -99.5 -239 -99.5 q-142 0 -238 100 q-96 100 -98 243 l-100 0 l0 -332 l-44 0 l0 667 l44 0 l0 -295 ZM362.5 116.5 q82.5 -87.5 207.5 -87.5 q125 0 207.5 87.5 q82.5 87.5 82.5 215.5 q0 128 -83 216 q-83 88 -207 88 q-124 0 -207 -88 q-83 -88 -83 -216 q0 -128 82.5 -215.5 ZM546 854 l50 -25 l-134 -126 l-32 18 l116 133 Z" /><glyph glyph-name="afii10049.var.accented" unicode="&#xf468;" d="M34 0 l202 299 q-38 1 -75 15 q-13 5 -26.5 13.5 q-13.5 8.5 -34 27 q-20.5 18.5 -33.5 52 q-13 33.5 -13 76.5 q0 59 26 98.5 q26 39.5 61 59.5 q44 26 125 26 l114 0 l0 -667 l-44 0 l0 299 l-50 0 l-200 -299 l-52 0 ZM336 627 l-70 0 q-58 0 -91 -16 q-35 -16 -55 -50 q-20 -34 -20 -78 q0 -70 44 -109 q39 -35 116 -35 l76 0 l0 288 ZM301 854 l50 -25 l-134 -126 l-32 18 l116 133 Z" /><glyph glyph-name="afii10023.var.accented" unicode="&#xf469;" d="M410 667 l0 -40 l-276 0 l0 -242 l270 0 l0 -40 l-270 0 l0 -305 l276 0 l0 -40 l-320 0 l0 667 l320 0 ZM114 753 q-11 11 -11 27 q0 16 11 27 q11 11 27 11 q16 0 27 -11 q11 -11 11 -27 q0 -16 -11 -27 q-11 -11 -27 -11 q-16 0 -27 11 ZM330 753 q-11 11 -11 27 q0 16 11 27 q11 11 27 11 q16 0 27 -11 q11 -11 11 -27 q0 -16 -11 -27 q-11 -11 -27 -11 q-16 0 -27 11 ZM282 854 l44 -25 l-134 -126 l-26 18 l116 133 Z" /><glyph glyph-name="afii10065.var.accented" unicode="&#xf46a;" d="M404 337 l0 71 l40 0 l0 -408 l-40 0 l0 73 q-55 -84 -159 -84 q-83 0 -141 59 q-58 59 -58 156 q0 95 55 154 q55 59 144 59 q102 0 159 -80 ZM247 379 q-65 0 -112 -46.5 q-47 -46.5 -47 -125.5 q0 -73 43 -126.5 q43 -53.5 117 -53.5 q73 0 115.5 52.5 q42.5 52.5 42.5 127.5 q0 83 -49 127.5 q-49 44.5 -110 44.5 ZM313 620 l43 -25 l-105 -128 l-30 16 l92 137 Z" /><glyph glyph-name="afii10070.var.accented" unicode="&#xf46b;" d="M437 199 l-349 0 q0 -76 47.5 -124 q47.5 -48 114.5 -48 q48 0 85 25.5 q37 25.5 57 67.5 l34 -20 q-23 -44 -67 -77.5 q-44 -33.5 -112 -33.5 q-93 0 -147 60.5 q-54 60.5 -54 152.5 q0 101 58.5 158 q58.5 57 139.5 57 q83 0 138 -61 q55 -61 55 -157 ZM91 237 l304 0 q-8 62 -49.5 102 q-41.5 40 -101.5 40 q-61 0 -103 -40.5 q-42 -40.5 -50 -101.5 ZM296 620 l43 -25 l-105 -128 l-30 16 l92 137 Z" /><glyph glyph-name="afii10074.var.accented" unicode="&#xf46c;" d="M72 408 l40 0 l0 -327 l290 350 l0 -431 l-40 0 l0 325 l-290 -350 l0 433 ZM292 620 l43 -25 l-105 -128 l-30 16 l92 137 Z" /><glyph glyph-name="afii10080.var.accented" unicode="&#xf46d;" d="M107.5 355.5 q61.5 61.5 152.5 61.5 q91 0 152.5 -61.5 q61.5 -61.5 61.5 -152.5 q0 -91 -61.5 -152.5 q-61.5 -61.5 -152.5 -61.5 q-91 0 -152.5 61.5 q-61.5 61.5 -61.5 152.5 q0 91 61.5 152.5 ZM137.5 78 q49.5 -51 122.5 -51 q73 0 122.5 51 q49.5 51 49.5 125 q0 74 -49.5 125 q-49.5 51 -122.5 51 q-73 0 -122.5 -51 q-49.5 -51 -49.5 -125 q0 -74 49.5 -125 ZM315 620 l43 -25 l-105 -128 l-30 16 l92 137 Z" /><glyph glyph-name="afii10085.var.accented" unicode="&#xf46e;" d="M106 -230 l96 223 l-194 415 l46 0 l171 -363 l149 363 l46 0 l-268 -638 l-46 0 ZM269 620 l43 -25 l-105 -128 l-30 16 l92 137 Z" /><glyph glyph-name="afii10093.var.accented" unicode="&#xf46f;" d="M72 408 l40 0 l0 -170 l97 0 q70 0 104 -38 q29 -32 29 -81 q0 -55 -36 -88 q-33 -31 -98 -31 l-136 0 l0 408 ZM112 38 l96 0 q42 0 64 19 q28 23 28 62 q0 41 -29 63 q-24 18 -65 18 l-94 0 l0 -162 ZM388 408 l40 0 l0 -408 l-40 0 l0 408 ZM305 620 l43 -25 l-105 -128 l-30 16 l92 137 Z" /><glyph glyph-name="afii10095.var.accented" unicode="&#xf470;" d="M38 10 l0 42 q45 -25 110 -25 q83 0 132 53 q41 43 44 110 l-239 0 l0 38 l239 0 q-8 74 -67 118 q-46 33 -112 33 q-63 0 -103 -21 l0 40 q50 19 103 19 q95 0 153 -51 q68 -59 68 -161 q0 -99 -61 -158 q-60 -58 -157 -58 q-67 0 -110 21 ZM231 620 l43 -25 l-105 -128 l-30 16 l92 137 Z" /><glyph glyph-name="afii10096.var.accented" unicode="&#xf471;" d="M112 228 l70 0 q9 82 66.5 135.5 q57.5 53.5 139.5 53.5 q88 0 147 -61.5 q59 -61.5 59 -152.5 q0 -91 -59 -152.5 q-59 -61.5 -147 -61.5 q-82 0 -142 55.5 q-60 55.5 -64 145.5 l-70 0 l0 -190 l-40 0 l0 408 l40 0 l0 -180 ZM271 77.5 q47 -50.5 117 -50.5 q70 0 117 50.5 q47 50.5 47 125.5 q0 75 -47 125.5 q-47 50.5 -117 50.5 q-70 0 -117 -50.5 q-47 -50.5 -47 -125.5 q0 -75 47 -125.5 ZM375 620 l43 -25 l-105 -128 l-30 16 l92 137 Z" /><glyph glyph-name="afii10097.var.accented" unicode="&#xf472;" d="M28 0 l130 178 q-47 2 -80 30 q-34 30 -34 81 q0 59 37 90 q33 29 97 29 l136 0 l0 -408 l-40 0 l0 176 l-70 0 l-128 -176 l-48 0 ZM274 214 l0 156 l-96 0 q-42 0 -65 -18 q-27 -23 -27 -62 q0 -38 26 -58 q24 -18 66 -18 l96 0 ZM248 620 l43 -25 l-105 -128 l-30 16 l92 137 Z" /><glyph glyph-name="afii10071.var.accented" unicode="&#xf473;" d="M437 199 l-349 0 q-3 -73 47 -125 q45 -47 115 -47 q48 0 86 26 q36 26 56 67 l34 -20 q-28 -50 -70 -79 q-46 -32 -109 -32 q-85 0 -142 55 q-59 57 -59 158 q0 101 61 160 q56 55 137 55 q80 0 133 -53 q62 -62 60 -165 ZM91 237 l304 0 q-8 61 -46 99 q-43 43 -105 43 q-60 0 -106 -44 q-40 -40 -47 -98 ZM125.5 500.5 q-10.5 10.5 -10.5 25.5 q0 15 10.5 25.5 q10.5 10.5 25.5 10.5 q15 0 25.5 -10.5 q10.5 -10.5 10.5 -25.5 q0 -15 -10.5 -25.5 q-10.5 -10.5 -25.5 -10.5 q-15 0 -25.5 10.5 ZM311.5 500.5 q-10.5 10.5 -10.5 25.5 q0 15 10.5 25.5 q10.5 10.5 25.5 10.5 q15 0 25.5 -10.5 q10.5 -10.5 10.5 -25.5 q0 -15 -10.5 -25.5 q-10.5 -10.5 -25.5 -10.5 q-15 0 -25.5 10.5 ZM280 620 l37 -25 l-105 -128 l-24 16 l92 137 Z" /><glyph glyph-name="uniF4C6" unicode="&#xf4c6;" d="M490 667 l0 -758 q0 -80 -38 -115 q-26 -24 -69 -24 q-27 0 -47 7 l0 41 q16 -6 37 -6 q32 0 50 18 q23 23 23 91 l0 379 q-112 -7 -170 -7 q-91 0 -136 22 q-44 21 -57 55.5 q-13 34.5 -13 93.5 l0 203 l44 0 l0 -203 q0 -20 1 -31.5 q1 -11.5 5.5 -29.5 q4.5 -18 16.5 -32 q12 -14 31 -23 q31 -15 122 -15 q69 0 156 7 l0 327 l44 0 Z" /><glyph glyph-name="uniF4C7" unicode="&#xf4c7;" d="M300 408 l40 0 l0 -499 q0 -79 -38 -115 q-27 -24 -68 -24 q-20 0 -36 6 l0 37 q17 -5 31 -5 q29 0 46 17 q25 24 25 92 l0 252 q-60 -10 -106 -10 q-66 0 -97 22 q-37 27 -37 104 l0 123 l40 0 l0 -123 q0 -56 27 -75 q22 -13 62 -13 q39 0 111 10 l0 201 Z" /><glyph glyph-name="uniF4CC" unicode="&#xf4cc;" d="M14 667 l50 0 l231 -432 l195 432 l46 0 l-305 -667 l-46 0 l85 186 l-256 481 ZM341 854 l50 -25 l-134 -126 l-32 18 l116 133 Z" /><glyph glyph-name="uniF4CD" unicode="&#xf4cd;" d="M106 -230 l96 223 l-194 415 l46 0 l171 -363 l149 363 l46 0 l-268 -638 l-46 0 ZM269 620 l43 -25 l-105 -128 l-30 16 l92 137 Z" /><glyph glyph-name="dollar.fitted" unicode="&#xf5f5;" d="M382 581 l-32 -27 q-5 12 -13.5 25 q-8.5 13 -34 32.5 q-25.5 19.5 -56.5 24.5 l0 -270 q70 -32 99 -53 q71 -49 71 -129 q0 -68 -47 -124 q-47 -56 -123 -68 l0 -99 l-40 0 l0 96 q-93 0 -153 70 q-29 34 -43 73 l38 18 q12 -36 36 -64 q44 -55 122 -57 l0 310 l-25 12 q-48 23 -72 40.5 q-24 17.5 -39 42.5 q-21 35 -21 76 q0 68 44 115.5 q44 47.5 113 50.5 l0 89 l40 0 l0 -89 q93 -11 136 -95 ZM246 319 l0 -287 q56 12 90 55 q34 43 34 96 q0 65 -65 105 q-1 1 -7.5 4.5 q-6.5 3.5 -19.5 10.5 q-13 7 -32 16 ZM206 386 l0 250 q-51 -3 -81 -40 q-30 -37 -30 -84 q0 -44 27 -73.5 q27 -29.5 84 -52.5 Z" /><glyph glyph-name="Euro.fitted" unicode="&#xf5f6;" d="M526 629 l-20 -37 q-64 44 -145 44 q-49 0 -89.5 -19 q-40.5 -19 -67.5 -50.5 q-27 -31.5 -44.5 -65 q-17.5 -33.5 -26.5 -70.5 l325 0 l-16 -40 l-316 0 q-4 -27 -4 -60 q0 -15 2 -43 l278 0 l-16 -40 l-256 0 q3 -19 8.5 -38.5 q5.5 -19.5 16 -46 q10.5 -26.5 27.5 -49 q17 -22.5 39.5 -42.5 q22.5 -20 55.5 -31.5 q33 -11.5 73 -11.5 q103 0 176 71 l0 -58 q-75 -53 -175 -53 q-58 0 -104.5 19 q-46.5 19 -74.5 47 q-28 28 -48 65.5 q-20 37.5 -28 67.5 q-8 30 -12 60 l-68 0 l16 40 l46 0 q-2 28 -2 43 q0 33 4 60 l-64 0 l16 40 l55 0 q23 109 98.5 177 q75.5 68 180.5 68 q89 0 160 -47 Z" /><glyph glyph-name="cent.fitted" unicode="&#xf5f7;" d="M235 655 l0 -102 q68 0 129 -51 l0 -53 q-58 62 -129 66 l0 -350 q76 3 134 72 l0 -54 q-61 -53 -134 -56 l0 -114 l-38 0 l0 114 q-83 11 -134.5 69.5 q-51.5 58.5 -51.5 141.5 q0 86 51.5 144.5 q51.5 58.5 134.5 69.5 l0 103 l38 0 ZM197 165 l0 349 q-71 -13 -107.5 -63.5 q-36.5 -50.5 -36.5 -111.5 q0 -60 37.5 -111.5 q37.5 -51.5 106.5 -62.5 Z" /><glyph glyph-name="sterling.fitted" unicode="&#xf5f8;" d="M49 273 l0 40 l98 0 l-21 35 q-26 44 -40 70 q-23 46 -23 84 q0 72 51 122 q52 50 128 50 q70 0 116 -45 q53 -53 53 -140 l-44 0 q0 75 -42 113 q-35 32 -84 32 q-58 0 -96 -39 q-36 -37 -36 -88 q0 -39 27 -89 q10 -19 46 -77 l17 -28 l121 0 l0 -40 l-108 0 q22 -44 22 -88 q0 -55 -46 -115 l65 -22 q51 -17 72 -17 q33 0 57 21 q24 21 37 48 l36 -22 q-19 -37 -52 -64 q-33 -27 -73 -27 q-12 0 -28 3.5 q-16 3.5 -27 7 q-11 3.5 -34 11 q-23 7.5 -31 10.5 q-51 17 -74 17 q-41 0 -91 -46 l-24 32 q53 57 119 57 q50 52 50 106 q0 44 -27 88 l-114 0 Z" /><glyph glyph-name="yen.fitted" unicode="&#xf5f9;" d="M482 391 l-145 0 l-61 -103 l206 0 l0 -40 l-207 0 l0 -248 l-44 0 l0 248 l-200 0 l0 40 l198 0 l-59 103 l-139 0 l0 40 l116 0 l-134 236 l51 0 l190 -335 l194 335 l51 0 l-139 -236 l122 0 l0 -40 Z" /><glyph glyph-name="florin.fitted" unicode="&#xf5fa;" d="M153 370 l7 38 l62 0 l45 235 q10 49 33 72 q25 25 69 25 q30 0 58 -14 l-8 -36 q-23 12 -46 12 q-30 0 -46 -15 q-16 -15 -21 -44 l-44 -235 l101 0 l-7 -38 l-101 0 l-72 -385 q-16 -89 -45 -118 q-27 -27 -74 -27 q-38 0 -68 14 l8 37 q29 -13 56 -13 q32 0 49 17 q18 18 31 84 l75 391 l-62 0 Z" /><glyph glyph-name="uni20B4.fitted" unicode="&#xf5fb;" d="M91 554 l-32 27 q33 41 75 66 q51 29 112 29 q70 0 108 -38 q38 -38 38 -92 q0 -66 -49 -115 l90 0 l0 -40 l-127 0 l-117 -103 l244 0 l0 -40 l-281 0 q-41 -47 -41 -109 q0 -52 31 -81 q29 -29 84 -29 q56 0 103 42 q38 34 54 79 l38 -18 q-21 -47 -61 -86 q-60 -57 -138 -57 q-69 0 -109 35 q-48 41 -48 117 q0 57 37 107 l-85 0 l0 40 l114 0 l117 103 l-231 0 l0 40 l267 0 q62 50 62 112 q0 38 -22 63 q-26 30 -78 30 q-51 0 -93 -26 q-33 -20 -62 -56 Z" /><glyph glyph-name="uni20B6.fitted" unicode="&#xf5fc;" d="M91 357 l0 310 l129 0 q97 0 149 -54 q46 -48 46 -120 q0 -76 -47 -123 q-51 -53 -147 -53 l-86 0 l0 -90 l167 0 l0 -40 l-167 0 l0 -187 l-44 0 l0 187 l-75 0 l0 40 l75 0 l0 90 l-75 0 l0 40 l75 0 ZM135 627 l0 -270 l88 0 q68 0 109 39 q37 36 37 96 q0 62 -39 98 q-40 37 -114 37 l-81 0 Z" /><glyph glyph-name="uni20B8.fitted" unicode="&#xf5fd;" d="M393 537 l-173 0 l0 -537 l-44 0 l0 537 l-173 0 l0 40 l390 0 l0 -40 ZM393 627 l-390 0 l0 40 l390 0 l0 -40 Z" /><glyph glyph-name="currency.fitted" unicode="&#xf5fe;" d="M55 90 l-24 25 l90 89 q-56 62 -56 146 q0 83 53 143 l-90 90 l24 24 l90 -89 q61 56 147 56 q86 0 147 -56 l90 89 l24 -24 l-90 -90 q54 -59 54 -144 q0 -78 -55 -143 l91 -91 l-24 -24 l-91 91 q-61 -55 -144 -55 q-84 0 -146 53 l-90 -90 ZM421 218 q55 55 55 132 q0 77 -55 132.5 q-55 55.5 -132 55.5 q-77 0 -131.5 -55.5 q-54.5 -55.5 -54.5 -132.5 q0 -77 54.5 -132 q54.5 -55 131.5 -55 q77 0 132 55 Z" /><glyph glyph-name="uniF639" unicode="&#xf639;" d="M111 595 q67 81 157 81 q90 0 157 -81 q85 -101 85 -262 q0 -161 -85 -262 q-69 -82 -157 -82 q-88 0 -157 82 q-85 101 -85 262 q0 161 85 262 ZM144 97 q55 -68 124 -68 q69 0 124 68 q72 89 72 236 q0 147 -72 236 q-54 67 -124 67 q-70 0 -124 -67 q-72 -89 -72 -236 q0 -147 72 -236 Z" /><glyph glyph-name="uniF63A" unicode="&#xf63a;" d="M434 0 l-411 0 l256 282 q53 60 73 90 q39 60 39 114 q0 64 -43.5 107 q-43.5 43 -111.5 43 q-72 0 -115 -49 q-39 -43 -39 -109 l-44 0 q0 85 53 140 q56 58 148 58 q86 0 142 -54.5 q56 -54.5 56 -135.5 q0 -71 -48 -137 q-23 -32 -59 -72 l-214 -237 l318 0 l0 -40 Z" /><glyph glyph-name="uniF63B" unicode="&#xf63b;" d="M21 162 l44 0 q2 -39 22 -71 q19 -27 52 -44.5 q33 -17.5 66 -17.5 q61 0 105.5 46 q44.5 46 44.5 109 q0 82 -63 122 q-31 20 -85 20 l0 40 q54 0 90 31 q49 41 49 109 q0 56 -34 93 q-34 37 -94 37 q-62 0 -96 -39 q-32 -35 -34 -89 l-42 0 q1 71 49 120 q47 48 123 48 q80 0 127 -48 q47 -48 47 -119 q0 -50 -25 -94.5 q-25 -44.5 -80 -66.5 q53 -17 83.5 -61 q30.5 -44 30.5 -102 q0 -83 -57 -139.5 q-57 -56.5 -139 -56.5 q-47 0 -91 23 q-44 23 -69 64 q-24 39 -24 86 Z" /><glyph glyph-name="uniF63C" unicode="&#xf63c;" d="M404 689 l0 -522 l93 0 l0 -40 l-93 0 l0 -127 l-44 0 l0 127 l-359 0 l403 562 ZM79 167 l281 0 l0 392 l-281 -392 Z" /><glyph glyph-name="uniF63D" unicode="&#xf63d;" d="M453 667 l0 -40 l-224 0 l-56 -180 q24 6 45 6 q105 0 168.5 -65 q63.5 -65 63.5 -166 q0 -105 -68.5 -169 q-68.5 -64 -168.5 -64 q-136 0 -200 110 l39 16 q58 -86 162 -86 q83 0 136.5 54 q53.5 54 53.5 138 q0 85 -52.5 138.5 q-52.5 53.5 -135.5 53.5 q-57 0 -104 -29 l86 283 l255 0 Z" /><glyph glyph-name="uniF63E" unicode="&#xf63e;" d="M283 676 l34 -26 l-148 -210 q43 18 91 18 q100 0 166 -66 q66 -66 66 -167 q0 -101 -67 -168.5 q-67 -67.5 -171 -67.5 q-102 0 -169 66.5 q-67 66.5 -67 170.5 q0 73 43 136 l222 314 ZM118.5 84.5 q54.5 -55.5 136.5 -55.5 q82 0 136.5 56 q54.5 56 54.5 139 q0 85 -54 139.5 q-54 54.5 -137 54.5 q-83 0 -137 -55 q-54 -55 -54 -139 q0 -84 54.5 -139.5 Z" /><glyph glyph-name="uniF63F" unicode="&#xf63f;" d="M11 14 l432 613 l-405 0 l0 40 l483 0 l-477 -678 l-33 25 Z" /><glyph glyph-name="uniF640" unicode="&#xf640;" d="M304 346 q52 -20 80.5 -66 q28.5 -46 28.5 -103 q0 -85 -56 -136.5 q-56 -51.5 -137 -51.5 q-81 0 -137 51.5 q-56 51.5 -56 136.5 q0 57 28.5 103 q28.5 46 80.5 66 q-93 49 -93 154 q0 75 51 125.5 q51 50.5 126 50.5 q75 0 126 -50.5 q51 -50.5 51 -125.5 q0 -105 -93 -154 ZM127.5 403.5 q38.5 -38.5 92.5 -38.5 q54 0 92.5 38.5 q38.5 38.5 38.5 96.5 q0 59 -38 97.5 q-38 38.5 -93 38.5 q-55 0 -93 -38.5 q-38 -38.5 -38 -97.5 q0 -58 38.5 -96.5 ZM113.5 71.5 q40.5 -42.5 106.5 -42.5 q66 0 106.5 42.5 q40.5 42.5 40.5 105.5 q0 66 -41 108 q-41 42 -106 42 q-65 0 -106 -42 q-41 -42 -41 -108 q0 -63 40.5 -105.5 Z" /><glyph glyph-name="uniF641" unicode="&#xf641;" d="M226 -11 l-34 26 l148 211 q-43 -18 -91 -18 q-100 0 -166 66 q-66 66 -66 167 q0 101 67 168 q67 67 171 67 q102 0 169 -67 q67 -67 67 -169 q0 -73 -43 -136 l-222 -315 ZM390.5 580.5 q-54.5 55.5 -136.5 55.5 q-82 0 -136.5 -56 q-54.5 -56 -54.5 -138 q0 -85 54.5 -139.5 q54.5 -54.5 136.5 -54.5 q83 0 137 55 q54 55 54 139 q0 83 -54.5 138.5 Z" /><glyph glyph-name="uniF6BA" unicode="&#xf6ba;" d="M50 315 l0 46 l200 0 l0 -46 l-200 0 Z" /><glyph glyph-name="uniF6BB" unicode="&#xf6bb;" d="M70 319 l0 38 l400 0 l0 -38 l-400 0 Z" /><glyph glyph-name="uniF6BC" unicode="&#xf6bc;" d="M70 319 l0 38 l600 0 l0 -38 l-600 0 Z" /><glyph glyph-name="uniF6C3" unicode="&#xf6c3;" d="M192 -190 l46 140 l44 -14 l-62 -136 l-28 10 Z" /><glyph glyph-name="uniF6C9" unicode="&#xf6c9;" d="M316 854 l50 -25 l-134 -126 l-32 18 l116 133 Z" /><glyph glyph-name="uniF6CA" unicode="&#xf6ca;" d="M250 775 l96 64 l34 -27 l-130 -90 l-130 90 l34 27 l96 -64 Z" /><glyph glyph-name="uniF6CB" unicode="&#xf6cb;" d="M130 753 q-11 11 -11 27 q0 16 11 27 q11 11 27 11 q16 0 27 -11 q11 -11 11 -27 q0 -16 -11 -27 q-11 -11 -27 -11 q-16 0 -27 11 ZM316 753 q-11 11 -11 27 q0 16 11 27 q11 11 27 11 q16 0 27 -11 q11 -11 11 -27 q0 -16 -11 -27 q-11 -11 -27 -11 q-16 0 -27 11 Z" /><glyph glyph-name="uniF6CE" unicode="&#xf6ce;" d="M268 703 l-134 126 l50 25 l116 -133 l-32 -18 Z" /><glyph glyph-name="uniF6CF" unicode="&#xf6cf;" d="M240 854 l52 -26 l-100 -125 l-36 15 l84 136 ZM361 854 l52 -26 l-100 -125 l-36 15 l84 136 Z" /><glyph glyph-name="uniF6D0" unicode="&#xf6d0;" d="M115 750 l0 44 l270 0 l0 -44 l-270 0 Z" /><glyph glyph-name="uniF6D1" unicode="&#xf6d1;" d="M110 803 l35 19 q29 -64 105 -64 q76 0 105 64 l35 -19 q-21 -46 -60.5 -65.5 q-39.5 -19.5 -79.5 -19.5 q-40 0 -79.5 19.5 q-39.5 19.5 -60.5 65.5 Z" /><glyph glyph-name="uniF6D4" unicode="&#xf6d4;" d="M120 573 l34 17 q8 -31 33.5 -52 q25.5 -21 62.5 -21 q37 0 62.5 21 q25.5 21 33.5 52 l34 -17 q-30 -94 -130 -94 q-100 0 -130 94 Z" /><glyph glyph-name="uniF6DC" unicode="&#xf6dc;" d="M104 0 l0 627 l-104 0 l20 40 l128 0 l0 -667 l-44 0 Z" /><glyph glyph-name="uniF6DE" unicode="&#xf6de;" d="M52 188 l0 38 l450 0 l0 -38 l-450 0 Z" /><glyph glyph-name="fi" unicode="&#xfb01;" d="M214 370 l-102 0 l0 -370 l-40 0 l0 370 l-46 0 l0 38 l46 0 l0 163 q0 75 22 109 q42 61 127 61 q85 0 127 -61 q22 -34 22 -109 l0 -17 l-40 0 l0 17 q0 60 -17 88 q-26 44 -92 44 q-65 0 -92 -44 q-17 -28 -17 -88 l0 -163 l102 0 l0 -38 ZM330 408 l40 0 l0 -408 l-40 0 l0 408 Z" /><glyph glyph-name="fl" unicode="&#xfb02;" d="M214 370 l-102 0 l0 -370 l-40 0 l0 370 l-46 0 l0 38 l46 0 l0 163 q0 75 22 109 q42 61 127 61 q85 0 127 -61 q22 -34 22 -109 l0 -571 l-40 0 l0 571 q0 60 -17 88 q-27 44 -92 44 q-65 0 -92 -44 q-17 -27 -17 -88 l0 -163 l102 0 l0 -38 Z" /></font>
</defs>
</svg>
