<svg xmlns="http://www.w3.org/2000/svg" viewBox="3673.779 7776.109 114.441 85.173"><defs><style>.cls-1{opacity:.85}.cls-2{fill:#fff}</style></defs><g id="Group_28" data-name="Group 28" class="cls-1" transform="translate(3673.779 7776.109)"><path id="Path_1" data-name="Path 1" class="cls-2" d="M57.041 85.148c-.239-1.794-.359-3.587-.6-5.381-.239-3.109-.359-6.338-.6-9.447-.359-4.3-.718-8.61-1.076-13.035l-.359-4.3c-.239-4.544-.6-9.088-.837-13.632-.239-3.827-.6-7.534-.837-11.36-.239-2.631-.359-5.262-.6-7.892-.239-2.392-.957-2.631-3.348-1.435-7.653 3.946-15.426 7.773-23.079 11.6C17.22 34.445 8.73 38.75 0 42.7c1.435-1.076 2.87-2.272 4.3-3.348 5.62-4.3 11.36-8.49 16.981-12.8 7.414-5.5 14.709-11 22.123-16.622L55.606.6a2.237 2.237 0 0 1 3.109 0c7.653 5.74 15.307 11.48 22.84 17.22 6.7 5.022 13.393 10.165 20.09 15.187a541.69 541.69 0 0 1 12.8 9.925 4.247 4.247 0 0 1-1.076-.478c-14.833-7.292-29.661-14.825-44.489-22.24-1.435-.717-2.75-1.555-4.066-2.152-1.2-.6-1.794-.239-2.033 1.076-.239 1.674-.478 3.229-.6 4.9-.239 2.87-.359 5.86-.6 8.73-.359 3.946-.718 8.012-1.076 11.958-.239 2.87-.359 5.62-.6 8.49-.359 4.185-.717 8.49-1.076 12.676-.239 2.392-.359 4.9-.6 7.295-.239 3.946-.6 7.773-.837 11.719-.231.242-.351.242-.351.242z" transform="translate(0 .025)"/><path id="Path_2" data-name="Path 2" class="cls-2" d="M42.544 44.807c.12 1.794.12 3.468.239 5.262 0 1.435-.478 1.913-2.033 2.153l-10.762 1.434h-1.2c-2.392 0-2.392 0-2.392-2.392-.12-2.99-.359-5.979-.6-9.088a1.884 1.884 0 0 1 1.555-2.152c3.946-1.2 7.892-2.392 11.958-3.587 2.152-.6 2.75 0 2.87 2.152 0 2.152.239 4.185.359 6.218z" transform="translate(5.05 7.122)"/><path id="Path_3" data-name="Path 3" class="cls-2" d="M56.106 47.884c0-3.229.239-6.338.359-9.567 0-1.555 1.2-2.272 2.99-1.794 4.066 1.2 8.132 2.392 12.2 3.707.478.12 1.076.717 1.076 1.076-.12 3.827-.239 7.534-.6 11.36 0 .359-.957 1.076-1.315.957-2.392-.12-4.664-.359-7.055-.6-1.913-.239-3.827-.6-5.74-.717-1.315-.12-1.913-.6-1.794-1.913a17.658 17.658 0 0 1-.12-2.511z" transform="translate(10.98 7.154)"/><path id="Path_4" data-name="Path 4" class="cls-2" d="M63.434 66.338H57.1c-1.2 0-1.913-.478-1.794-1.794.239-4.066.359-8.251.6-12.317.12-1.2 1.2-1.555 2.75-1.315 3.707.478 7.295.957 11 1.435 1.794.239 2.272.717 2.272 2.631-.12 2.99-.239 5.979-.239 8.969 0 2.033-.478 2.511-2.511 2.511-1.918-.12-3.831-.12-5.744-.12z" transform="translate(10.827 9.986)"/><path id="Path_5" data-name="Path 5" class="cls-2" d="M35.112 66.355h-6.338c-.957 0-1.674-.359-1.674-1.435-.239-3.468-.478-6.936-.6-10.4-.12-1.674.478-2.033 2.152-2.272 3.827-.478 7.534-.837 11.36-1.435 1.913-.239 2.75.239 2.87 2.152.12 3.827.239 7.653.359 11.6 0 1.315-.478 1.794-1.794 1.794-2.03-.124-4.182-.004-6.335-.004z" transform="translate(5.187 9.969)"/><path id="Path_6" data-name="Path 6" class="cls-2" d="M72.542 29.2a253.253 253.253 0 0 0-12.8-6.457 1.7 1.7 0 0 0-2.631 1.315c-.12 2.392-.239 4.783-.359 7.295a23.222 23.222 0 0 1-.239 2.87c-.359 2.152.12 2.99 2.152 3.587l3.587 1.076c2.631.837 5.381 1.674 8.012 2.392 1.674.478 2.272 0 2.511-1.555.239-2.511.478-5.022.6-7.414.125-1.32-.116-2.755-.833-3.109z" transform="translate(11.046 4.437)"/><path id="Path_7" data-name="Path 7" class="cls-2" d="M41.95 27.658v7.773a1.839 1.839 0 0 1-1.435 2.033c-4.3 1.2-8.49 2.511-12.8 3.707a1.481 1.481 0 0 1-2.033-1.555c-.12-2.272.12-4.544-.359-6.7-.717-2.99.957-4.066 3.229-5.022 3.348-1.555 6.577-3.229 9.806-4.9 2.631-1.315 2.99-.239 3.348 1.794a25.3 25.3 0 0 1 .239 2.87z" transform="translate(4.927 4.42)"/><path id="Path_8" data-name="Path 8" class="cls-2" d="M82.5 54.806c-2.75-.359-5.381-.6-8.012-.957-.12 0-.12-.12-.239-.12-1.076-.12-2.511.239-3.109-.957a8.668 8.668 0 0 1-.239-3.109c0-2.392.12-4.783.239-7.055a1.787 1.787 0 0 1 2.392-1.794c3.229.957 6.338 1.913 9.567 2.75a2.222 2.222 0 0 1 1.795 2.636c-.12 2.152-.239 4.3-.359 6.338.12 1.79-.478 2.268-2.035 2.268z" transform="translate(13.881 8.005)"/><path id="Path_9" data-name="Path 9" class="cls-2" d="M13.3 47.616c0-4.3-.12-3.229 3.348-4.425 2.392-.837 4.9-1.435 7.414-2.152 2.033-.6 2.631-.12 2.75 2.033.12 2.87.359 5.62.6 8.49a1.789 1.789 0 0 1-1.674 2.152c-2.631.359-5.262.6-7.892.837a19.556 19.556 0 0 1-2.631.239 1.412 1.412 0 0 1-1.555-1.435z" transform="translate(2.604 8.02)"/><path id="Path_10" data-name="Path 10" class="cls-2" d="M26.652 38.107v1.2c.12 1.2-.359 1.674-1.435 2.033-3.229.957-6.457 2.033-9.686 2.87-1.435.478-2.272-.239-2.392-1.794-.12-1.913-.239-3.827-.239-5.62a1.976 1.976 0 0 1 .957-1.555c3.109-1.674 6.338-3.229 9.567-4.783 1.674-.837 2.75 0 2.87 1.794s.238 3.822.358 5.855z" transform="translate(2.526 5.93)"/><path id="Path_11" data-name="Path 11" class="cls-2" d="M85.156 36.488a2.249 2.249 0 0 0-.6-1.315 410.585 410.585 0 0 0-10.284-5.142 1.428 1.428 0 0 0-2.152.957c-.12.957-.239 1.913-.359 2.99-.12 1.555-.12 3.109-.359 4.664-.12 1.315.12 2.392 1.555 2.75 3.229.957 6.457 1.913 9.806 2.87 1.076.359 2.033 0 2.153-1.315.12-1.2.239-2.392.239-3.587a11.525 11.525 0 0 0 .001-2.872z" transform="translate(13.978 5.874)"/><path id="Path_12" data-name="Path 12" class="cls-2" d="M13.352 41.591c0 2.392 0 2.392-2.272 3.109-1.555.478-3.109.837-4.783 1.2-1.076.239-1.555-.359-1.555-1.435 0-1.2-.12-2.392-.239-3.707a1.761 1.761 0 0 1 1.076-1.918 89.96 89.96 0 0 1 4.783-2.392c1.674-.717 2.99-.12 2.631 1.674-.12.6.239 1.2.239 1.794a8.471 8.471 0 0 1 .12 1.675z" transform="translate(.878 7.11)"/><path id="Path_13" data-name="Path 13" class="cls-2" d="M92.739 42.185v1.435c0 1.913-.837 2.631-2.75 2.152-1.555-.359-3.109-.837-4.664-1.315-1.076-.359-1.555-.957-1.315-2.392a21.78 21.78 0 0 0 .12-3.946c0-1.674 1.076-2.392 2.631-1.674 1.794.837 3.588 1.674 5.262 2.631.359.12.6.717.718 1.076a11.541 11.541 0 0 1-.002 2.033z" transform="translate(16.44 7.113)"/></g></svg>