<svg xmlns="http://www.w3.org/2000/svg" viewBox="2788.05 28.943 244.901 66.577"><defs><style>.cls-1{opacity:.67}</style></defs><g id="Group_15" data-name="Group 15" class="cls-1" transform="translate(1990)"><path id="Path_1" data-name="Path 1" d="M44.587 66.552c-.187-1.4-.28-2.8-.467-4.206-.187-2.43-.28-4.954-.467-7.384-.28-3.365-.561-6.73-.841-10.189l-.28-3.365c-.187-3.552-.467-7.1-.654-10.656-.187-2.991-.467-5.889-.654-8.88-.187-2.056-.28-4.113-.467-6.169-.187-1.869-.748-2.056-2.617-1.122-5.982 3.085-12.058 6.076-18.04 9.067-6.64 3.271-13.276 6.636-20.1 9.72 1.122-.841 2.243-1.776 3.365-2.617 4.393-3.365 8.88-6.637 13.273-10 5.8-4.3 11.5-8.6 17.293-12.993L43.465.466a1.749 1.749 0 0 1 2.43 0c5.982 4.487 11.965 8.973 17.853 13.46 5.235 3.926 10.469 7.945 15.7 11.871a405.42 405.42 0 0 1 10 7.758 3.32 3.32 0 0 1-.841-.374C77.022 27.48 65.432 21.591 53.841 15.8c-1.122-.561-2.15-1.215-3.178-1.683-.935-.467-1.4-.187-1.589.841-.187 1.309-.374 2.524-.467 3.832-.187 2.243-.28 4.58-.467 6.824-.28 3.085-.561 6.263-.841 9.347-.187 2.243-.28 4.393-.467 6.637-.28 3.272-.561 6.637-.841 9.908-.187 1.869-.28 3.832-.467 5.7-.187 3.085-.467 6.076-.654 9.16-.19.186-.283.186-.283.186z" transform="translate(798.05 28.968)"/><path id="Path_2" data-name="Path 2" d="M38.885 42.931c.093 1.4.093 2.711.187 4.113 0 1.122-.374 1.5-1.589 1.683l-8.413 1.122h-.935c-1.869 0-1.869 0-1.869-1.869-.093-2.337-.28-4.674-.467-7.1a1.472 1.472 0 0 1 1.215-1.683c3.085-.935 6.169-1.869 9.347-2.8 1.683-.467 2.15 0 2.243 1.683 0 1.683.187 3.272.28 4.861z" transform="translate(796.367 26.603)"/><path id="Path_3" data-name="Path 3" d="M56.1 45.372c0-2.524.187-4.954.28-7.478 0-1.215.935-1.776 2.337-1.4 3.178.935 6.356 1.869 9.534 2.9.374.093.841.561.841.841-.093 2.991-.187 5.889-.467 8.88 0 .28-.748.841-1.028.748-1.869-.093-3.645-.28-5.515-.467-1.5-.187-2.991-.467-4.487-.561-1.028-.093-1.5-.467-1.4-1.5a13.8 13.8 0 0 1-.093-1.963z" transform="translate(794.39 26.593)"/><path id="Path_4" data-name="Path 4" d="M61.655 62.954H56.7c-.935 0-1.5-.374-1.4-1.4.187-3.178.28-6.45.467-9.628.093-.935.935-1.215 2.15-1.028 2.9.374 5.7.748 8.6 1.122 1.4.187 1.776.561 1.776 2.056-.093 2.337-.187 4.674-.187 7.011 0 1.589-.374 1.963-1.963 1.963-1.496-.096-2.992-.096-4.488-.096z" transform="translate(794.441 25.649)"/><path id="Path_5" data-name="Path 5" d="M33.229 62.948h-4.954c-.748 0-1.309-.28-1.309-1.122-.187-2.711-.374-5.421-.467-8.132-.093-1.309.374-1.589 1.683-1.776 2.991-.374 5.889-.654 8.88-1.122 1.5-.187 2.15.187 2.243 1.683.093 2.991.187 5.982.28 9.067 0 1.028-.374 1.4-1.4 1.4-1.591-.091-3.273.002-4.956.002z" transform="translate(796.321 25.654)"/><path id="Path_6" data-name="Path 6" d="M69.02 27.735a201.186 201.186 0 0 0-10-5.048 1.331 1.331 0 0 0-2.056 1.028c-.093 1.869-.187 3.739-.28 5.7a18.151 18.151 0 0 1-.187 2.243c-.28 1.683.093 2.337 1.683 2.8l2.8.841a157.6 157.6 0 0 0 6.263 1.869c1.309.374 1.776 0 1.963-1.215.187-1.963.374-3.926.467-5.8.094-1.016-.093-2.138-.653-2.418z" transform="translate(794.368 27.498)"/><path id="Path_7" data-name="Path 7" d="M38.284 26.514v6.076a1.437 1.437 0 0 1-1.122 1.589c-3.365.935-6.637 1.963-10 2.9a1.158 1.158 0 0 1-1.589-1.215 32.186 32.186 0 0 0-.28-5.235c-.561-2.337.748-3.178 2.524-3.926 2.617-1.215 5.141-2.524 7.665-3.832 2.056-1.028 2.337-.187 2.617 1.4a19.777 19.777 0 0 1 .187 2.243z" transform="translate(796.408 27.504)"/><path id="Path_8" data-name="Path 8" d="M79.966 51.731c-2.15-.28-4.206-.467-6.263-.748-.093 0-.093-.093-.187-.093-.841-.093-1.963.187-2.43-.748a6.776 6.776 0 0 1-.187-2.43c0-1.869.093-3.739.187-5.515a1.4 1.4 0 0 1 1.869-1.4c2.524.748 4.954 1.5 7.478 2.15A1.736 1.736 0 0 1 81.835 45c-.093 1.683-.187 3.365-.28 4.954.093 1.404-.374 1.777-1.589 1.777z" transform="translate(793.423 26.309)"/><path id="Path_9" data-name="Path 9" d="M13.3 46.128c0-3.365-.093-2.524 2.617-3.459 1.869-.654 3.832-1.122 5.8-1.683 1.589-.467 2.056-.093 2.15 1.589.093 2.243.28 4.393.467 6.637a1.4 1.4 0 0 1-1.313 1.688c-2.056.28-4.113.467-6.169.654a15.285 15.285 0 0 1-2.056.187 1.1 1.1 0 0 1-1.215-1.122z" transform="translate(797.182 26.304)"/><path id="Path_10" data-name="Path 10" d="M23.649 36.365v.935c.093.935-.28 1.309-1.122 1.589-2.524.748-5.048 1.589-7.571 2.243-1.122.374-1.776-.187-1.869-1.4-.093-1.5-.187-2.991-.187-4.393a1.545 1.545 0 0 1 .748-1.215c2.43-1.309 4.954-2.524 7.478-3.739 1.309-.654 2.15 0 2.243 1.4s.187 2.99.28 4.58z" transform="translate(797.208 27.001)"/><path id="Path_11" data-name="Path 11" d="M82.148 35.037a1.758 1.758 0 0 0-.467-1.028 327.222 327.222 0 0 0-8.039-4.019 1.116 1.116 0 0 0-1.683.748c-.093.748-.187 1.5-.28 2.337-.093 1.215-.093 2.43-.28 3.645-.093 1.028.093 1.869 1.215 2.15 2.524.748 5.048 1.5 7.665 2.243.841.28 1.589 0 1.683-1.028.093-.935.187-1.869.187-2.8a9.008 9.008 0 0 0-.001-2.248z" transform="translate(793.391 27.019)"/><path id="Path_12" data-name="Path 12" d="M11.416 40.4c0 1.869 0 1.869-1.776 2.43-1.215.374-2.43.654-3.739.935-.841.187-1.215-.28-1.215-1.122 0-.935-.093-1.869-.187-2.9a1.376 1.376 0 0 1 .841-1.5 69.284 69.284 0 0 1 3.739-1.869c1.309-.561 2.337-.093 2.056 1.309-.093.467.187.935.187 1.4a6.622 6.622 0 0 1 .094 1.317z" transform="translate(797.757 26.607)"/><path id="Path_13" data-name="Path 13" d="M90.82 40.872v1.122c0 1.5-.654 2.056-2.15 1.683-1.215-.28-2.43-.654-3.645-1.028-.841-.28-1.215-.748-1.028-1.869a17.023 17.023 0 0 0 .093-3.085c0-1.309.841-1.869 2.056-1.309 1.4.654 2.8 1.309 4.113 2.056.28.093.467.561.561.841a9.022 9.022 0 0 1 0 1.589z" transform="translate(792.571 26.606)"/><path id="Path_14" data-name="Path 14" d="M167.069 41.472H160.9V11h9.815a10.777 10.777 0 0 1 2.43.28c2.8.748 4.206 2.8 4.674 5.515a16.022 16.022 0 0 1-.187 7.291 6.878 6.878 0 0 1-2.337 3.645 1.159 1.159 0 0 0-.374 1.4l3.926 11.5c.094.187 0 .467.094.748h-6.076c-.187 0-.561-.467-.654-.841-1.215-3.645-2.337-7.291-3.459-10.936h-1.683v11.87zm0-17.48h1.589c2.056 0 2.9-.748 3.085-2.711a6.258 6.258 0 0 0 0-1.869c-.187-1.122-.28-2.43-1.589-2.711a16.992 16.992 0 0 0-3.085 0z" transform="translate(787.549 28.249)"/><path id="Path_15" data-name="Path 15" d="M242.7 10.8h6.169v12.245h4.767V10.893h6.264v30.566h-6.17V28.84h-4.767v12.619h-6.169c-.094-10.282-.094-20.377-.094-30.659z" transform="translate(782.21 28.262)"/><path id="Path_16" data-name="Path 16" d="M156.673 41.448h-5.982c-.28 0-.654-.467-.748-.748-.28-1.309-.467-2.617-.748-3.926h-6.824c-.374 1.5-.654 3.085-1.028 4.58H134.8c.374-1.4.748-2.8 1.028-4.206 1.869-7.2 3.645-14.488 5.515-21.686l1.122-4.206a.928.928 0 0 1 .748-.561 43.8 43.8 0 0 1 4.954 0 1.047 1.047 0 0 1 .748.654c1.869 7.1 3.645 14.208 5.421 21.219a425.725 425.725 0 0 0 2.337 8.88zm-13.086-10.656h4.3c-.748-3.459-1.4-6.73-2.15-10.376-.374 1.963-.748 3.552-1.122 5.235-.374 1.776-.655 3.365-1.028 5.141z" transform="translate(789.252 28.273)"/><path id="Path_17" data-name="Path 17" d="M111.682 30.8c1.028-6.637 2.056-13.273 3.085-20h6.917c-2.337 10.189-4.58 20.377-6.917 30.566h-6.543c-2.243-10.189-4.58-20.377-6.824-30.566h6.917c1.028 6.637 2.056 13.367 3.085 20.1.187-.1.187-.1.28-.1z" transform="translate(791.432 28.262)"/><path id="Path_18" data-name="Path 18" d="M216.134 10.8v5.7h-7.758v6.45h6.637v5.8h-6.543v6.824h7.758v5.8H202.3V10.8z" transform="translate(784.847 28.262)"/><path id="Path_19" data-name="Path 19" d="M237.762 19.661h-6.169c-.093-.561-.187-1.028-.28-1.589a2.387 2.387 0 0 0-2.15-1.963 2.05 2.05 0 0 0-2.15 1.683 27.734 27.734 0 0 0-.654 4.019 141.351 141.351 0 0 0 0 8.88 16.482 16.482 0 0 0 .654 3.739 2.016 2.016 0 0 0 2.15 1.683 2.372 2.372 0 0 0 2.15-1.869l.28-1.683h6.169a10.892 10.892 0 0 1-1.776 5.889c-2.617 3.926-8.413 4.113-11.684 2.056a8.336 8.336 0 0 1-3.739-5.7c-.841-4.674-.467-9.441-.374-14.115a16.593 16.593 0 0 1 1.5-5.889 7.106 7.106 0 0 1 6.169-4.206 8.516 8.516 0 0 1 6.917 1.869 9.291 9.291 0 0 1 2.8 5.328c.093.559.093 1.12.187 1.868z" transform="translate(783.69 28.281)"/><path id="Path_20" data-name="Path 20" d="M181.3 10.8h16.451v5.7H192.7v24.866h-6.263V16.6H181.3v-5.8z" transform="translate(786.217 28.262)"/><path id="Path_21" data-name="Path 21" d="M131.676 41.459H125.6V10.8h6.076z" transform="translate(789.852 28.262)"/><path id="Path_22" data-name="Path 22" d="M109.5 55.283V47.9c2.056 0 4.019-.093 6.076.093.374 0 .935.654 1.028 1.122.187 1.683.187 3.365.28 5.141 0 .841-.374 1.122-1.122 1.122-2.149-.095-4.112-.095-6.262-.095zm1.028-3.085a8.954 8.954 0 0 0 0 1.589c.093.28.374.654.561.654a28.842 28.842 0 0 0 4.019 0c.748-.093.935-.748.748-1.4-.093-.374-.467-.841-.748-.841-1.402-.1-2.991 0-4.58 0zm0-3.178a6.108 6.108 0 0 0 0 1.309c.093.28.467.654.654.654 1.4.093 2.8 0 4.206 0V49.02z" transform="translate(790.903 25.842)"/><path id="Path_23" data-name="Path 23" d="M153.56 55.382h-5.048c-1.028 0-1.028-.841-1.215-1.5a15.083 15.083 0 0 1 0-2.056h5.141v-1.304h-5.048a3.505 3.505 0 0 0-.093-1.028.707.707 0 0 1 .374-.093h4.206c.935 0 1.589.467 1.589 1.4a37.074 37.074 0 0 1 .094 4.581zm-5.048-2.43c-.187.748-.187 1.5.748 1.5 1.028.093 2.15 0 3.178 0v-1.593c-1.402.093-2.617.093-3.926.093z" transform="translate(788.439 25.743)"/><path id="Path_24" data-name="Path 24" d="M125.6 49.4h4.487c1.028 0 1.5.467 1.5 1.589v3.272c0 .841-.374 1.215-1.215 1.215h-3.645v2.15h-1.028c-.099-2.711-.099-5.426-.099-8.226zm1.028 1.028c0 1.215-.093 2.243 0 3.365a1.014 1.014 0 0 0 .748.748c3.552 0 3.365.467 3.272-2.991v-.187c0-.654-.28-.841-.841-.841-1.029 0-2.057-.094-3.179-.094z" transform="translate(789.852 25.743)"/><path id="Path_25" data-name="Path 25" d="M188.673 52.947h-5.048c-.187 1.309 0 1.589 1.122 1.589a19.866 19.866 0 0 1 3.926.28c-.187.187-.467.561-.654.561a35.932 35.932 0 0 1-4.487 0c-.374 0-.841-.561-.935-.935-.094-1.215 0-2.524 0-3.832 0-.841.654-1.122 1.309-1.215a20.224 20.224 0 0 1 3.365 0c.841.093 1.5.467 1.4 1.5a15.08 15.08 0 0 0 .002 2.052zm-1.215-2.524h-2.8c-1.028-.093-1.4.28-1.122 1.309h3.926z" transform="translate(786.135 25.748)"/><path id="Path_26" data-name="Path 26" d="M201.028 52.843c-.094 1.5.093 1.589 1.309 1.589a18.521 18.521 0 0 1 3.832.28c-.187.187-.467.561-.654.561a32.992 32.992 0 0 1-4.3 0c-.841 0-1.215-.467-1.215-1.309v-3.271c-.093-1.028.561-1.4 1.4-1.5 1.028-.093 2.056 0 3.178 0 1.028 0 1.5.467 1.5 1.589v1.5a1.251 1.251 0 0 1-.093.467c-1.499.094-3.185.094-4.957.094zm0-1.122h3.926v-1.309h-2.9c-.933 0-1.12.468-1.026 1.309z" transform="translate(784.997 25.759)"/><path id="Path_27" data-name="Path 27" d="M140.948 57.332a3.49 3.49 0 0 1 .654-.561 12.241 12.241 0 0 1 2.617 0c1.028.093 1.309-.374 1.028-1.4H141.6a1.239 1.239 0 0 1-1.4-1.4v-4.58c.374 0 .654-.093 1.122-.093V53.5c0 .748.28 1.028 1.028.935 3.365 0 3.085.374 3.085-2.991a9.022 9.022 0 0 1 0-1.589c0-.28.374-.467.561-.654.093.093.187.093.28.187v7.291a1.264 1.264 0 0 1-.841.841c-1.4.093-2.711 0-4.113 0-.281-.001-.281-.094-.374-.188z" transform="translate(788.9 25.756)"/><path id="Path_28" data-name="Path 28" d="M124.269 49.2v6.169h-1.028v-4.113c-2.056 1.122-2.337 4.113-5.141 4.3V49.48h1.028v4.393c2.057-1.308 2.431-4.112 5.141-4.673z" transform="translate(790.342 25.756)"/><path id="Path_29" data-name="Path 29" d="M224.985 55.382h-1.5c-1.122 0-1.589-.467-1.589-1.5V50.9a1.376 1.376 0 0 1 1.5-1.5h3.272a1.334 1.334 0 0 1 1.5 1.5v2.8c0 1.309-.467 1.683-1.776 1.683zm-1.869-4.954c-.093 4.674-.561 4.019 2.9 4.019a1.591 1.591 0 0 0 .654-.093.769.769 0 0 0 .374-.561v-3.365h-3.926z" transform="translate(783.568 25.743)"/><path id="Path_30" data-name="Path 30" d="M238.278 55.376c-3.272 0-3.085.187-3.178-3.178 0-2.711 0-2.9 2.9-2.9 3.365 0 3.178.187 3.178 3.085-.002 3.367.372 2.993-2.9 2.993zm-2.056-4.954v3.085c0 .748.28.935 1.028.935 3.459 0 3.085.28 3.085-3.272 0-.654-.28-.841-.841-.841a18.58 18.58 0 0 1-3.272.093z" transform="translate(782.706 25.749)"/><path id="Path_31" data-name="Path 31" d="M248.4 55.556v-5.982c.654-.374.841-.187.841.467v3.739c1.963-1.215 2.43-4.019 5.048-4.58v6.169h-1.028v-4.113c-1.87 1.122-2.244 3.833-4.861 4.3z" transform="translate(781.838 25.756)"/><path id="Path_32" data-name="Path 32" d="M261.582 49.2v5.608c0 .187-.374.467-.561.654-.094-.093-.187-.093-.28-.187V50.7c-1.028 1.309-1.963 2.337-2.8 3.459-.941 1.304-.941 1.304-2.341 1.117v-5.889h1.028v4.3c1.872-1.215 2.431-3.833 4.954-4.487z" transform="translate(781.368 25.756)"/><path id="Path_33" data-name="Path 33" d="M160.6 55.376v-5.983c.28 0 .654-.093 1.028-.093v2.524h3.739c.841 0 1.215.374 1.215 1.215 0 2.337.093 2.337-2.243 2.337zm2.9-.841h1.215a.9.9 0 0 0 1.028-1.028c0-.748-.467-.841-1.028-.841h-2.243c-.654 0-.841.28-.841.841 0 .654.187 1.028.841.935a4.191 4.191 0 0 0 1.028.093z" transform="translate(787.568 25.749)"/><path id="Path_34" data-name="Path 34" d="M172.854 49.387h1.028v5.889h-1.028v-2.337h-3.926c-.561.654.374 1.869-.561 2.43-.187-.093-.28-.093-.467-.187v-5.328c0-.187.374-.467.561-.654.094.093.187.093.28.187v2.243h4.113z" transform="translate(787.092 25.756)"/><path id="Path_35" data-name="Path 35" d="M207.2 49.492c1.869-.561 2.15 1.215 3.178 1.963 1.028-.654 1.309-2.524 3.178-1.963-.841 1.028-1.683 1.963-2.524 2.9.748.935 1.589 1.963 2.337 2.9-1.869.561-2.056-1.309-3.085-1.963-1.028.654-1.122 2.524-2.991 1.963.748-.935 1.5-1.963 2.337-2.9a30.752 30.752 0 0 0-2.43-2.9z" transform="translate(784.527 25.744)"/><path id="Path_36" data-name="Path 36" d="M219.748 51.724c.467-.748-.374-1.869.561-2.43.187.093.28.093.467.187v5.328c0 .187-.374.467-.561.654-.093-.093-.187-.093-.28-.187v-2.337h-4.206c-.467.654.28 1.869-.561 2.43-.187-.093-.374-.093-.467-.187v-5.328c0-.187.374-.467.561-.654.093.093.187.093.28.187v2.337z" transform="translate(784.037 25.756)"/><path id="Path_37" data-name="Path 37" d="M175.2 55.376v-5.983c.28 0 .654-.093 1.028-.093v2.524h2.524c.935-.093 1.4.374 1.309 1.309v1.122a1.08 1.08 0 0 1-1.122 1.122zm2.524-.841c.561 0 1.309.187 1.309-.935s-.748-.935-1.4-.935-1.4-.28-1.4.935c-.005 1.121.743.935 1.491.935z" transform="translate(786.615 25.749)"/><path id="Path_38" data-name="Path 38" d="M234.067 49.4v5.982h-1.028v-4.77c-1.122-.374-1.589 0-1.869 1.028a34.408 34.408 0 0 1-.654 2.991c-.187.748-.187.748-1.215.654.467-1.776.841-3.552 1.4-5.235.094-.374.841-.561 1.4-.654a13.688 13.688 0 0 1 1.966.004z" transform="translate(783.085 25.746)"/><path id="Path_39" data-name="Path 39" d="M155.828 55.376h-.935c0-.093-.093-.187-.093-.28.28-1.215.561-2.524.841-3.739.467-2.056.467-2.056 2.43-2.056h1.309v5.982a4.587 4.587 0 0 0-1.028.093v-4.861c-1.028-.28-1.589-.093-1.683.935-.186 1.309-.56 2.524-.841 3.926z" transform="translate(787.947 25.749)"/><path id="Path_40" data-name="Path 40" d="M132.8 50.528V49.5h6.169v1.028h-2.43v4.954h-1.122v-4.86a25.381 25.381 0 0 0-2.617-.094z" transform="translate(789.383 25.736)"/><path id="Path_41" data-name="Path 41" d="M198.876 50.435h-2.617V55.3c-.093.093-.28.093-.374.187-.187-.28-.467-.467-.467-.748-.093-1.4 0-2.711 0-4.206H192.8V49.5h6.169a2.882 2.882 0 0 0-.093.935z" transform="translate(785.467 25.736)"/><path id="Path_42" data-name="Path 42" d="M246.971 49.4v1.122h-2.524c-.748 0-1.028.187-1.028.935v3.926c-.374 0-.654.093-1.122.093 0-1.589-.093-3.085 0-4.674a1.412 1.412 0 0 1 1.682-1.4z" transform="translate(782.239 25.743)"/><path id="Path_43" data-name="Path 43" d="M181.735 55.389h-.935V49.5h.935z" transform="translate(786.25 25.736)"/></g></svg>