<svg xmlns="http://www.w3.org/2000/svg" width="16" height="16" viewBox="0 0 16 16"><defs><linearGradient id="a" x1="50%" x2="50%" y1="0%" y2="100%"><stop offset="0%" stop-color="#FAD961"/><stop offset="100%" stop-color="#F76B1C"/></linearGradient></defs><path fill="url(#a)" fill-rule="evenodd" d="M1554.021 1644.104c.363.341.395.693.395 1.045 0 2.486-1.973 4.48-4.405 4.48-2.432 0-4.416-1.994-4.416-4.48 0-.352.042-.704.138-1.045H1542v7.467c0 .778.608 1.429 1.333 1.429h13.334c.725 0 1.333-.65 1.333-1.43v-7.466h-3.979zm-1.429 1.12c0 1.557-1.227 2.827-2.72 2.827s-2.71-1.27-2.71-2.827 1.217-2.816 2.71-2.816c1.493 0 2.72 1.259 2.72 2.816zm4.32-4.939c0 .256-.245.47-.555.47h-2.122c-.31 0-.576-.214-.576-.47v-1.738c0-.256.266-.448.576-.448h2.122c.31 0 .555.192.555.448v1.738zm-.341-3.285h-13.238c-.725 0-1.333.65-1.333 1.376v3.456h5.163c.81-.587 1.674-1.088 2.709-1.088 1.013 0 1.92.501 2.72 1.088H1558v-3.456c0-.725-.65-1.376-1.43-1.376z" transform="translate(-1542 -1637)"/></svg>