<svg xmlns="http://www.w3.org/2000/svg" width="23" height="16" viewBox="0 0 23 16"><defs><linearGradient id="a" x1="50%" x2="50%" y1="0%" y2="100%"><stop offset="0%" stop-color="#FAD961"/><stop offset="100%" stop-color="#F76B1C"/></linearGradient></defs><path fill="url(#a)" fill-rule="evenodd" d="M1506.39 1639.64l-.04-.04c-.867-.766-1.865-1.13-3.034-1.079l-.04-.09h.027c1.05-.235 1.681-.469 1.865-.729.066-.208-.013-.312-.25-.35a6.711 6.711 0 0 0-1.445.337c.552-.338.762-.572.644-.689-.552.013-1.143.273-1.76.793.236-.364.315-.572.263-.598a5.379 5.379 0 0 0-.775.624c-.46.494-.841.95-1.13 1.366l-.013.039a12.031 12.031 0 0 0-1.563 3.446l-.105.09-.027.014a5.53 5.53 0 0 0-1.615-1.327c-.749-.468-1.629-.91-2.654-1.339a22.558 22.558 0 0 0-3.375-1.352c0 1.209.617 2.184 1.852 2.887v.013c-.434 0-.854.065-1.261.182.079 1.118.92 1.898 2.509 2.327l-.014.026a1.865 1.865 0 0 0-1.536.599c.525.975 1.445 1.43 2.784 1.404-.262.13-.473.273-.604.43a.853.853 0 0 0-.25.857c.29.495.815.716 1.564.69l.052.052-.026.013c-1.314 1.287-2.89 1.872-4.755 1.755l-.026.013c-1.13-.013-2.352-.533-3.652-1.56 1.314 1.807 3.06 3.108 5.228 3.927 2.482.78 4.965.832 7.434.169h.04c2.404-.663 4.44-2.016 6.121-4.057.775-1.08 1.26-2.094 1.458-3.082 1.248.039 2.154-.3 2.719-1.028l-.013-.026c-.42.143-1.235.104-2.456-.13v-.13c0-.013 0-.013.013 0 1.326-.143 2.101-.546 2.364-1.222-.933.338-1.839.351-2.745.026-.158-1.183-.749-2.276-1.774-3.251" transform="translate(-1488 -1637)"/></svg>