<?xml version="1.0" encoding="utf-8"?>
<!-- Generator: Adobe Illustrator 21.0.0, SVG Export Plug-In . SVG Version: 6.00 Build 0)  -->
<svg version="1.1" id="Layer_1" xmlns="http://www.w3.org/2000/svg" xmlns:xlink="http://www.w3.org/1999/xlink" x="0px" y="0px"
	 viewBox="0 0 27 27" style="enable-background:new 0 0 27 27;" xml:space="preserve">
<style type="text/css">
	.st0{fill:#383DF4;}
</style>
<g>
	<path class="st0" d="M13.5,0C6,0,0,6,0,13.5C0,20.9,6,26.9,13.4,27H27V13.1C26.8,5.8,20.8,0,13.5,0z M24.9,24.9H13.4
		C7.2,24.8,2.1,19.7,2.1,13.5c0-6.3,5.1-11.4,11.4-11.4c3,0,5.8,1.1,7.9,3.2c2.1,2.1,3.4,4.9,3.4,7.8L24.9,24.9L24.9,24.9z
		 M13.7,11.5c-0.4,0-0.7,0.1-0.9,0.4c-0.2,0.2-0.4,0.6-0.4,1V20c0,0.4,0.1,0.7,0.4,1c0.2,0.3,0.5,0.4,0.9,0.4s0.7-0.1,0.9-0.4
		c0.2-0.2,0.4-0.6,0.4-1v-7.1c0-0.4-0.1-0.7-0.4-1C14.4,11.6,14.1,11.5,13.7,11.5z"/>
	<circle class="st0" cx="13.8" cy="8" r="1.4"/>
</g>
</svg>
