<svg id="Layer_1" xmlns="http://www.w3.org/2000/svg" viewBox="0 0 27 27"><style>.st0{fill:#383df4}</style><path class="st0" d="M13.5 0C6 0 0 6 0 13.5 0 20.9 6 26.9 13.4 27H27V13.1C26.8 5.8 20.8 0 13.5 0zm11.4 24.9H13.4c-6.2-.1-11.3-5.2-11.3-11.4 0-6.3 5.1-11.4 11.4-11.4 3 0 5.8 1.1 7.9 3.2 2.1 2.1 3.4 4.9 3.4 7.8l.1 11.8zM13.7 11.5c-.4 0-.7.1-.9.4-.2.2-.4.6-.4 1V20c0 .4.1.7.4 1 .2.3.5.4.9.4s.7-.1.9-.4c.2-.2.4-.6.4-1v-7.1c0-.4-.1-.7-.4-1-.2-.3-.5-.4-.9-.4z"/><circle class="st0" cx="13.8" cy="8" r="1.4"/></svg>