<svg id="Layer_1" xmlns="http://www.w3.org/2000/svg" width="16" height="16" viewBox="0 0 16 16"><style>.st0{fill:#383df4}</style><path class="st0" d="M0 0c-7.5 0-13.5 6-13.5 13.5 0 7.4 6 13.4 13.4 13.5h13.6V13.1C699.3 378.8 693.3 373 686 373zm697.4 397.9h-11.5c-6.2-.1-11.3-5.2-11.3-11.4 0-6.3 5.1-11.4 11.4-11.4 3 0 5.8 1.1 7.9 3.2 2.1 2.1 3.4 4.9 3.4 7.8v11.8zm-11.2-13.4c-.4 0-.7.1-.9.4-.2.2-.4.6-.4 1v7.1c0 .4.1.7.4 1 .2.3.5.4.9.4s.7-.1.9-.4c.2-.2.4-.6.4-1v-7.1c0-.4-.1-.7-.4-1-.2-.3-.5-.4-.9-.4zm1.1-4.5c-.2-.1-.3-.2-.5-.3-.2-.1-.4-.1-.5-.1s-.4 0-.5.1c-.2.1-.4.2-.5.3-.1.2-.2.3-.3.5-.1.2-.1.3-.1.5s0 .4.1.6c.1.2.2.4.3.5.2.1.3.2.5.3.2.1.4.1.5.1.4 0 .7-.2 1-.4.3-.3.4-.7.4-1.1 0-.2 0-.4-.1-.5-.1-.2-.2-.4-.3-.5z"/></svg>