<?xml version="1.0" encoding="utf-8"?>
<!-- Generator: Adobe Illustrator 21.0.0, SVG Export Plug-In . SVG Version: 6.00 Build 0)  -->
<svg version="1.1" id="Слой_1" xmlns="http://www.w3.org/2000/svg" xmlns:xlink="http://www.w3.org/1999/xlink" x="0px" y="0px"
	 viewBox="0 0 65.5 66.9" style="enable-background:new 0 0 65.5 66.9;" xml:space="preserve">
<g>
	<path d="M1.6,35.1c0-2.2,0.2-4.3,0.7-6.4c0.4-2.1,1.1-4.2,1.9-6.1c0.8-2,1.8-3.9,3-5.6c0.3-0.4,0.6-0.9,0.9-1.3
		c0.3-0.4,0.6-0.8,1-1.3l1-1.2l1.1-1.2c1.5-1.5,3.1-2.9,4.9-4.1c1.8-1.2,3.6-2.2,5.6-3.1c3.9-1.7,8.1-2.6,12.4-2.6
		c2.1,0,4.3,0.2,6.4,0.5c2.1,0.4,4.2,0.9,6.1,1.7c2.5,1,4.9,2.3,7.1,3.8l-1.2,1.3C42.1,1.2,28.1,4.1,28.1,4.1
		C12,6.9,5.2,22.7,5.2,22.7c0.3,1.5,0.6,2.8,1,4c0.1-0.1,0.6-0.7,1.3-1.7C7.6,24.7,7.8,24.4,8,24c0.3-0.3,0.5-0.7,0.9-1
		c0.3-0.4,0.6-0.8,1-1.2c0.4-0.4,0.7-0.8,1.1-1.2c0.8-0.9,1.7-1.7,2.7-2.7c0.5-0.4,1.1-0.9,1.6-1.3c0.3-0.2,0.6-0.4,0.9-0.7
		c0.3-0.2,0.6-0.4,0.9-0.6c1.2-0.9,2.5-1.7,3.9-2.4c0.3-0.2,0.7-0.4,1.1-0.5c0.4-0.2,0.7-0.3,1.1-0.5c0.4-0.2,0.7-0.3,1.1-0.4
		c0.4-0.1,0.7-0.3,1.1-0.4c0.8-0.2,1.5-0.5,2.3-0.6c0.4-0.1,0.8-0.2,1.2-0.2c0.4-0.1,0.8-0.1,1.2-0.2l0.6-0.1l0.6,0
		c0.4,0,0.8-0.1,1.2-0.1c0.8,0,1.5,0,2.3,0c1.5,0,2.9,0.3,4.3,0.5c1.3,0.3,2.6,0.6,3.7,1c2.3,0.8,4.1,1.7,5.3,2.4
		c0.2,0.1,0.4,0.2,0.6,0.3l-0.9,1c-0.1-0.1-0.2-0.1-0.3-0.2c-1.1-0.7-2.9-1.6-5-2.4c-1.1-0.4-2.3-0.8-3.6-1.1
		c-1.3-0.3-2.7-0.5-4.1-0.6c-0.7-0.1-1.5-0.1-2.2-0.1c-0.4,0-0.7,0-1.1,0l-0.6,0L30,10.9c-0.4,0-0.8,0.1-1.1,0.1
		c-0.4,0.1-0.8,0.1-1.1,0.2c-0.8,0.1-1.5,0.4-2.3,0.5c-0.4,0.1-0.7,0.2-1.1,0.4c-0.4,0.1-0.7,0.2-1.1,0.4c-0.4,0.1-0.7,0.3-1.1,0.4
		c-0.4,0.1-0.7,0.3-1,0.5c-1.4,0.7-2.7,1.4-3.9,2.2c-0.3,0.2-0.6,0.4-0.9,0.6c-0.3,0.2-0.6,0.4-0.9,0.6c-0.6,0.4-1.1,0.9-1.6,1.3
		c-1,0.9-2,1.7-2.8,2.6c-0.4,0.4-0.8,0.8-1.2,1.2c-0.4,0.4-0.7,0.8-1,1.1c-0.3,0.4-0.6,0.7-0.9,1c-0.3,0.3-0.5,0.6-0.7,0.9
		c-0.7,0.9-1.2,1.5-1.3,1.7c4.8,15.6,17.3,9.1,17.3,9.1c3-9.8,13.4-8.7,13.4-8.7l0.4-0.4l-0.8,0.9l1.4-1.3l1-0.9l1.4-1.3l1-0.9
		l1.8-1.7l0.8-0.7l1.8-1.7l1-1l2.1-2l0.7-0.7l2.2-2.1L52,13l0.8-0.7l1.3-1.2c0,0,0,0,0,0l1.4-1.3c0.4,0.3,0.8,0.7,1.2,1
		c-1.7,1.6-3.3,3.2-5,4.8c-1.9,1.8-3.8,3.6-5.7,5.5c-1.9,1.8-3.8,3.7-5.6,5.5c-0.7,0.7-1.5,1.5-2.2,2.2c-1.7-0.3-3.3-0.5-4.7,1
		c-1.3,1.4-2.2,3-1.5,4.8c0.4,1,1.6,1.7,2.5,2.5c0.2-0.1,0.4-0.3,0.6-0.4c-1-4,1-6.1,4.4-7.6c-0.3-0.1-0.5-0.1-0.8-0.2
		c0.7-0.6,1.5-1.2,2.2-1.9c2-1.7,4-3.5,5.9-5.2c2-1.7,3.9-3.5,5.9-5.2c0.9-0.8,1.9-1.7,2.8-2.5c0.2-0.1,0.3-0.3,0.5-0.4
		c0.9-0.8,1.7-1.6,2.6-2.3c0,0,0,0,0,0c0.3-0.3,0.3-0.9,0-1.2l0,0c-1.6-1.6-3.3-3.1-5.2-4.3c-1.9-1.3-3.9-2.3-6-3.2
		c-2.1-0.9-4.3-1.5-6.5-2C38.6,0.2,36.3,0,34,0c-4.5,0-9.1,1-13.3,2.8c-2.1,0.9-4.1,2-6,3.3c-1.9,1.3-3.6,2.8-5.2,4.4l-1.1,1.2
		l-1.1,1.3c-0.4,0.5-0.7,0.9-1,1.4c-0.3,0.5-0.6,0.9-1,1.4c-1.2,1.9-2.3,3.9-3.1,6.1C0.6,26.1-0.1,30.7,0,35.2
		c0.1,2.3,0.4,4.5,0.9,6.7c0.5,2.2,1.2,4.3,2.2,6.3c0.9,2,2.1,4,3.4,5.7c1.3,1.8,2.8,3.4,4.5,4.9c-3-3.2-5.4-7-7-11
		C2.3,43.8,1.5,39.5,1.6,35.1z M50,12c-0.6-0.4-1.4-0.9-2.2-1.4c-0.9-0.5-1.9-1-3.1-1.5C43.9,8.7,43,8.3,42,8
		c-0.3,0.7-1,1.1-1.8,1.1C39,9.1,38,8.2,38,7c0,0,0,0,0-0.1c-0.1,0-0.3-0.1-0.4-0.1c-0.2,0-0.4-0.1-0.6-0.1c-0.2,0-0.4,0-0.6-0.1
		c-1.6-0.2-3.2-0.2-4.9-0.2c-0.4,0-0.8,0.1-1.2,0.1c-0.4,0-0.8,0.1-1.2,0.2c-0.8,0.1-1.6,0.3-2.5,0.5c-0.4,0.1-0.8,0.2-1.2,0.4
		C25,7.9,24.6,8,24.2,8.1c-0.4,0.2-0.8,0.3-1.2,0.5c-0.4,0.2-0.8,0.3-1.1,0.5c-1.5,0.7-2.9,1.6-4.2,2.5c-0.3,0.2-0.6,0.5-1,0.7
		c-0.2,0.1-0.3,0.2-0.5,0.3c-0.2,0.1-0.3,0.2-0.4,0.4c-0.6,0.5-1.2,1-1.7,1.5c-1,1-2.1,2-2.9,2.9c-0.4,0.5-0.8,0.9-1.2,1.4
		c-0.4,0.5-0.7,0.9-1,1.3c-0.3,0.4-0.6,0.8-0.9,1.1c-0.3,0.4-0.5,0.7-0.7,1c-0.9,1.2-1.4,1.9-1.4,1.9s0.5-0.7,1.3-1.9
		c0.2-0.3,0.4-0.7,0.7-1c0.3-0.4,0.6-0.7,0.9-1.2c0.3-0.4,0.7-0.9,1-1.3c0.4-0.5,0.8-0.9,1.2-1.4c0.8-1,1.8-2,2.9-3
		c0.6-0.5,1.1-1,1.7-1.5c0.1-0.1,0.3-0.3,0.4-0.4c0.2-0.1,0.3-0.2,0.5-0.4c0.3-0.2,0.6-0.5,1-0.7c1.3-1,2.7-1.9,4.2-2.7
		c0.4-0.2,0.8-0.4,1.2-0.6c0.4-0.2,0.8-0.4,1.2-0.5c0.4-0.2,0.8-0.3,1.2-0.4C25.6,7,26,6.8,26.5,6.7c0.8-0.2,1.7-0.5,2.5-0.6
		c0.4-0.1,0.8-0.2,1.3-0.2c0.4,0,0.9-0.1,1.3-0.1c1.7-0.1,3.4-0.1,5,0c0.2,0,0.4,0,0.6,0.1c0.2,0,0.4,0.1,0.6,0.1
		C38,5.9,38.1,6,38.3,6c0.4-0.6,1-1.1,1.8-1.1c1.1,0,2,0.9,2.1,2c1.1,0.3,2.1,0.7,3,1.1c1.2,0.5,2.3,1,3.2,1.5
		c0.9,0.5,1.7,1,2.4,1.4c0.1,0.1,0.2,0.1,0.3,0.2l-0.9,1C50.2,12.1,50.1,12,50,12z M8.5,27.3c0.2-0.2,0.4-0.5,0.6-0.8
		c0.2-0.3,0.5-0.6,0.8-0.9c0.3-0.3,0.6-0.7,0.9-1c0.3-0.3,0.7-0.7,1.1-1.1c0.1-0.1,0.2-0.2,0.3-0.3C12.1,23,12,22.9,12,22.7
		c0-0.4,0.3-0.7,0.7-0.7c0.2,0,0.3,0.1,0.5,0.2c0.4-0.3,0.8-0.7,1.2-1c0.5-0.4,1-0.8,1.5-1.2c0.5-0.4,1-0.7,1.6-1.1
		c0.5-0.4,1.1-0.7,1.7-1.1c0.6-0.3,1.2-0.6,1.8-1c0.6-0.3,1.3-0.6,1.9-0.8c0.7-0.2,1.3-0.5,2-0.7c0.7-0.2,1.4-0.4,2.1-0.5
		c0.3-0.1,0.7-0.2,1-0.2c0.3-0.1,0.7-0.1,1-0.2c0.3-0.1,0.7-0.1,1-0.1c0.3,0,0.7-0.1,1-0.1c0.7,0,1.4-0.1,2,0c1.3,0,2.6,0.2,3.8,0.3
		c1.2,0.2,2.3,0.5,3.4,0.7c2.1,0.6,3.7,1.3,4.8,1.8c0.2,0.1,0.3,0.1,0.4,0.2l-0.9,1c0,0-0.1,0-0.1-0.1c-1.1-0.6-2.6-1.3-4.6-1.9
		c-1-0.3-2.1-0.6-3.2-0.8c-1.2-0.2-2.4-0.4-3.7-0.4c-0.6,0-1.3,0-2,0c-0.3,0-0.7,0-1,0.1c-0.3,0-0.7,0-1,0.1c-0.3,0-0.7,0.1-1,0.1
		c-0.3,0-0.7,0.1-1,0.2c-0.7,0.1-1.3,0.3-2,0.5c-0.7,0.2-1.3,0.4-2,0.6c-0.6,0.3-1.3,0.5-1.9,0.8c-0.6,0.3-1.2,0.6-1.8,0.9
		c-0.6,0.3-1.2,0.6-1.7,1c-0.5,0.4-1.1,0.7-1.6,1.1c-0.5,0.4-1,0.7-1.5,1.1c-0.4,0.3-0.8,0.7-1.2,1c0,0.1,0.1,0.2,0.1,0.3
		c0,0.4-0.3,0.7-0.7,0.7c-0.1,0-0.2,0-0.4-0.1c-0.1,0.1-0.2,0.2-0.4,0.3c-0.4,0.4-0.7,0.7-1.1,1c-0.3,0.3-0.6,0.7-0.9,1
		c-0.3,0.3-0.6,0.6-0.8,0.9C8.9,26.8,8.7,27.1,8.5,27.3c-0.7,1-1.2,1.5-1.2,1.5S7.7,28.2,8.5,27.3z M8,30.6c0,0,0.4-0.5,1.1-1.3
		c0.3-0.4,0.8-0.9,1.3-1.5c0.5-0.6,1.1-1.2,1.8-1.8c0.3-0.3,0.7-0.7,1.1-1c0.4-0.3,0.8-0.7,1.2-1c0.4-0.3,0.9-0.7,1.3-1
		c0.5-0.3,0.9-0.7,1.4-1c0.5-0.3,1-0.6,1.6-0.9c0.5-0.3,1.1-0.6,1.7-0.8c1.1-0.5,2.3-1,3.5-1.3c1.2-0.4,2.5-0.6,3.7-0.9
		c1.2-0.2,2.5-0.3,3.7-0.3c0.6,0,1.2,0,1.8,0c0.6,0,1.1,0.1,1.7,0.1c1.1,0.1,2.1,0.3,3.1,0.5c1.9,0.4,3.4,0.9,4.5,1.3
		c0.4,0.1,0.6,0.3,0.9,0.4l-1,1.1c-0.1-0.1-0.3-0.1-0.4-0.2c-1-0.4-2.4-0.9-4.2-1.4c-0.9-0.2-1.9-0.4-2.9-0.6
		c-0.5-0.1-1.1-0.1-1.6-0.2c-0.6,0-1.1-0.1-1.7-0.1c-1.2,0-2.3,0.1-3.6,0.2c-1.2,0.2-2.4,0.4-3.6,0.7c-1.2,0.3-2.4,0.7-3.5,1.2
		c-0.6,0.2-1.1,0.5-1.6,0.8c-0.5,0.3-1,0.6-1.6,0.8c-0.5,0.3-1,0.6-1.5,0.9c-0.5,0.3-0.9,0.6-1.3,1c-0.4,0.3-0.8,0.6-1.2,1
		c-0.4,0.3-0.8,0.6-1.1,0.9c-0.7,0.6-1.3,1.2-1.8,1.8c-0.5,0.5-1,1-1.4,1.4C8.4,30.1,8,30.6,8,30.6z M9.2,32.4c0,0,0.3-0.4,1-1.2
		c0.3-0.4,0.7-0.8,1.2-1.3c0.4-0.5,1-1,1.6-1.6c0.3-0.3,0.6-0.6,1-0.9c0.3-0.3,0.7-0.6,1.1-0.9c0.4-0.3,0.8-0.6,1.2-0.9
		c0.4-0.3,0.8-0.6,1.3-0.8c0.5-0.3,0.9-0.5,1.4-0.8c0.5-0.2,1-0.5,1.5-0.7c0.3-0.1,0.5-0.2,0.8-0.3l0.8-0.3c0.5-0.2,1.1-0.4,1.6-0.5
		c0.5-0.2,1.1-0.3,1.6-0.4c0.3-0.1,0.6-0.1,0.9-0.2c0,0,0,0,0,0c0-0.9,0.7-1.6,1.6-1.6c0.8,0,1.4,0.5,1.6,1.3c0.3,0,0.6,0,0.9,0
		c1.1,0,2.1,0,3,0.1c1,0.1,1.9,0.2,2.7,0.3c1.7,0.3,3,0.6,4,0.9c0.4,0.1,0.7,0.2,1,0.3l-1,1.1c-0.1,0-0.3-0.1-0.4-0.1
		c-0.9-0.3-2.2-0.7-3.8-1c-0.8-0.2-1.7-0.3-2.6-0.4C32,22.1,31,22.1,30,22.1c-0.3,0-0.6,0-0.9,0c-0.2,0.6-0.8,1-1.5,1
		c-0.6,0-1.1-0.3-1.4-0.8c-0.3,0-0.6,0.1-1,0.1c-0.5,0.1-1.1,0.2-1.6,0.3c-0.5,0.1-1.1,0.3-1.6,0.5l-0.8,0.3
		c-0.3,0.1-0.5,0.2-0.8,0.3c-0.5,0.2-1,0.4-1.5,0.6c-0.5,0.2-0.9,0.5-1.4,0.7c-0.5,0.2-0.9,0.5-1.3,0.8c-0.4,0.3-0.8,0.5-1.2,0.8
		c-0.4,0.3-0.8,0.5-1.1,0.8c-0.3,0.3-0.7,0.5-1,0.8c-0.6,0.6-1.2,1-1.7,1.5c-0.5,0.5-0.9,0.9-1.2,1.3C9.6,31.9,9.2,32.4,9.2,32.4z
		 M37.1,26c-0.8-0.3-1.9-0.6-3.4-0.8c-1.4-0.2-3.1-0.4-4.9-0.4c-0.9,0-1.8,0.1-2.8,0.2c-0.5,0.1-0.9,0.1-1.4,0.2
		c-0.5,0.1-0.9,0.2-1.4,0.3c-0.5,0.1-0.9,0.2-1.4,0.4l-0.7,0.2c-0.2,0.1-0.4,0.2-0.7,0.3c-0.4,0.2-0.9,0.4-1.3,0.5
		c-0.4,0.2-0.8,0.4-1.2,0.6c-0.4,0.2-0.8,0.4-1.2,0.6c-0.4,0.2-0.7,0.4-1.1,0.7c-0.7,0.4-1.3,0.9-1.9,1.4c-0.6,0.5-1.1,0.9-1.5,1.3
		c-0.4,0.4-0.8,0.8-1.1,1.1c-0.6,0.6-0.9,1-0.9,1s0.3-0.4,0.9-1c0.3-0.3,0.7-0.7,1.1-1.1c0.4-0.4,0.9-0.9,1.5-1.4
		c0.6-0.5,1.2-1,1.9-1.5c0.3-0.3,0.7-0.5,1.1-0.7c0.4-0.2,0.8-0.5,1.2-0.7c0.4-0.2,0.8-0.5,1.2-0.7c0.4-0.2,0.9-0.4,1.3-0.6
		c0.2-0.1,0.4-0.2,0.7-0.3l0.7-0.3c0.5-0.2,0.9-0.3,1.4-0.5c0.5-0.2,1-0.3,1.4-0.4c0.5-0.1,1-0.2,1.4-0.3c1-0.2,1.9-0.3,2.9-0.3
		c1.9-0.1,3.6,0,5.1,0.2c1.5,0.2,2.7,0.5,3.6,0.7c0.4,0.1,0.8,0.2,1,0.3c0,0,0.1,0,0.1,0l-1,1.1C37.5,26.1,37.3,26.1,37.1,26z"/>
	<path d="M9.8,46.1c5.6,2.5,14.1-0.2,12.7-8.8c-3.8,2.1-7.4,1.6-11-0.4c-0.8-0.4-1.6-0.7-2-0.8c-1.2-2-2.5-3.7-3.4-5.5
		c-0.8-1.9-1.2-3.9-1.8-5.9c-0.1,0-0.3-0.1-0.4-0.1c-0.6,2.9-1.4,5.8-1.7,8.8C1.6,39.2,4.5,43.7,9.8,46.1z"/>
	<path d="M17.8,55.9c6.3-1.2,8.7-6.9,5.1-12.5c-2.5,4.1-6.5,5.3-10.5,4.7c-3.9-0.5-7.1-3.2-9.7-6.4c0.5,2.4,1.1,4.7,2,6.9
		C6.7,54.2,11.9,57,17.8,55.9z"/>
	<path d="M27.5,60.2c3.5-3,4.8-9.5-1.4-12.1c-1.2,7-6.7,11.1-16.7,8.3c1.8,1.6,3.5,3.2,5.3,4.6C18.6,63.9,23.9,63.4,27.5,60.2z"/>
	<path d="M30.7,50.5c1.7,5.9,0,11.2-9.4,13.9c2,0.4,4,0.8,6,1.2c5.6,1.1,10-4.7,10.2-8.6C37.8,52.7,34.8,49.9,30.7,50.5z"/>
	<path d="M44,53.2c-1.1-4-6.1-6.1-8.6-3.1c4.5,4.2,4.5,9.4-0.9,15.1c1.6-0.6,3.3-1,4.8-1.7C43.5,61.6,45.3,57.6,44,53.2z"/>
	<path d="M47.8,47c-2.1-2.9-7.5-3.9-9.1,0.4c5.6,1.9,7.5,4.7,6.2,11.9C49.7,56.5,50.9,51.3,47.8,47z"/>
	<path d="M51.6,46.8c0.4-3.8-2.2-7.1-6-7.7c-3.1-0.5-5.3,1.5-5.2,4.8c5.6-1.5,8.6,1.4,10.4,6.5C51.1,49.1,51.4,48,51.6,46.8z"/>
	<path d="M42.2,34.2c-2.8,0.7-3.7,3.2-2.4,6.2c3.9-3.7,7.5-2.7,11.2,0.5C49.5,34.3,46,33.2,42.2,34.2z"/>
	<path d="M46.8,33.2c-2.3-2.2-4.1-3.9-7-3c-2,0.6-3.6,1.8-3.8,3.9c-0.1,1.2,0.6,2.4,1,3.7c0.3,0,0.6-0.1,0.9-0.1
		C39.2,33.5,42.2,32.2,46.8,33.2z"/>
	<path d="M32.2,37.2c-2.2-2.7-2-5.3,0.1-7.9c-3.5,0.7-5.1,2.7-4.5,5.5C28.4,36.9,29.8,37.8,32.2,37.2z"/>
	<path d="M26.4,39.2c1.3,1.1,2.6,1.2,3.9-0.3c-2.6-1.2-3.8-3-3.5-6.1C24.4,35.5,24.3,37.5,26.4,39.2z"/>
	<path d="M26.5,42.9c1.7,0.4,2.5-0.1,2.8-1.2c-1.8-1-3.5-2-5.3-2.9C23.5,40.9,24.3,42.4,26.5,42.9z"/>
	<path d="M28.2,46c1.2-0.2,2.2-0.8,2-2.1c-1.9,0.1-3.7,0.1-5.4,0.2C25.2,45.7,26.5,46.3,28.2,46z"/>
	<path d="M32.3,45.4c-0.2-0.1-0.5-0.3-0.6-0.2c-1.3,0.8-2.6,1.6-3.9,2.4c-0.1,0,0.1,0.4,0.1,0.6c1.1-0.2,2.3-0.2,3.2-0.7
		C31.7,47.2,31.9,46.1,32.3,45.4z"/>
	<path d="M37.2,39.3c-1.2-1.5-3.4-1.8-4.9-0.6c-1.5,1.2-1.8,3.4-0.6,4.9c0.3,0.3,0.6,0.6,0.9,0.8l0,0c0,0,0.1,0,0.2,0
		c0.3,0.2,0.6,0.3,1,0.4c1.1,0.5,2,1.6-1.8,3.1c0,0,6.6-0.4,6-6C38,41.1,37.8,40.1,37.2,39.3z"/>
	<path d="M58.3,18l0.1,0.1c0.1,0,0.1,0,0.1,0c0,0,0,0,0,0s0,0,0,0C58.4,18.1,58.4,18,58.3,18c0,0,0.3-0.1,0.2-0.1
		c0,0,0.1-0.1,0.1-0.1c-0.1-0.1-0.2-0.2-0.2-0.4c0-0.1-0.2-0.3-0.2-0.4c-0.1-0.3-0.2-0.5-0.3-0.8c-0.1-0.3-0.2-0.5-0.4-0.8
		c-0.1-0.2-0.3-0.5-0.5-0.7c-0.2-0.2-0.4-0.4-0.5-0.6l-0.3-0.3c-0.1-0.1-0.2-0.1-0.3-0.2c-0.2,0.1-0.3,0.3-0.5,0.4
		c0.1,0.1,0.1,0.2,0.2,0.3l0.2,0.3c0.1,0.2,0.2,0.4,0.2,0.6c0.1,0.2,0.1,0.4,0.1,0.6c0,0.2,0.1,0.4,0.1,0.6c0,0.2,0,0.4,0,0.6
		c0,0.1,0,0.2,0,0.3c0,0.1,0,0.2-0.1,0.2c0,0,0,0,0,0l0,0.2c0,0.2,0,0.4,0,0.6c0,0.2,0.1,0.4,0.2,0.6c0,0.1,0.1,0.2,0.1,0.3
		c0.1,0.1,0.1,0.2,0.2,0.3c0.1,0.1,0.1,0.2,0.2,0.2c0,0,0.1,0.1,0.1,0.1c0.1,0,0.1,0.1,0.2,0.1c0,0,0.1,0,0.1,0l0,0l0.2,0.1
		c0.1,0,0.1,0,0.2,0.1c0,0,0.1,0.1,0.1,0.1c0.1,0,0.1,0.1,0.1,0.1c0,0,0.1,0.1,0.1,0.1c0,0,0.1,0.1,0.1,0.1c0,0,0,0.1,0.1,0.1l0,0.2
		c0,0,0,0.1,0,0.2c0,0.1,0,0.1,0,0.2c0,0.1,0,0.3,0,0.4c0,0.1,0,0.3-0.1,0.4c0,0.1,0,0.1-0.1,0.2L58,22.7L58,22.9
		c-0.1,0.2-0.1,0.4,0,0.6c0.1,0.3,0.2,0.6,0.3,0.9c0.1,0.3,0.3,0.5,0.4,0.8c0.2,0.2,0.3,0.5,0.5,0.7c0.2,0.2,0.4,0.4,0.5,0.6
		c0.8,0.8,1.6,1.4,2.4,2l0.3,0.2l0.3,0.2c0.1,0.1,0.1,0.1,0.1,0.1c0,0,0.1,0.1,0.1,0.1c0,0.1,0,0.1,0.1,0.1c0,0,0,0.1,0,0.1
		c-0.1,0.2-0.3,0.5-0.5,0.7c-0.1,0.1-0.3,0.3-0.4,0.4c-0.2,0.1-0.3,0.3-0.5,0.3l-0.1,0.1c-0.3,0.2-0.5,0.6-0.5,1l0.1,0.4
		c0,0.2,0,0.3,0.1,0.4c0,0.1,0.1,0.3,0.1,0.4l0.1,0.4c0.1,0.2,0.2,0.5,0.3,0.7c0,0.1,0.1,0.1,0.1,0.2l-0.3,1.1
		c-0.1,0.4,0,0.8,0.2,1.1c0,0-0.1,0.1-0.1,0.1c-0.1,0.1-0.2,0.2-0.3,0.3c-0.1,0.1-0.2,0.2-0.2,0.3c-0.1,0.1-0.1,0.2-0.2,0.4
		c-0.1,0.1-0.1,0.3-0.1,0.4c0,0.2-0.1,0.3-0.1,0.5c0,0.1,0,0.2,0,0.3c0,0.1,0,0.2,0.1,0.3c0.1,0.3,0.3,0.6,0.7,0.7l0.2,0.1
		c0.1,0,0.1,0,0.2,0.1c0.1,0,0.1,0,0.2,0c0,0,0.1,0,0.1,0.1c0.1,0,0.1,0,0.1,0.1c0,0,0.1,0,0.1,0.1c0,0,0,0,0,0.1c0,0,0,0.1,0,0.1
		c0,0,0,0,0,0c0,0,0,0,0,0v0c0,0,0,0,0,0s0,0,0,0l0,0.2c0,0.1,0,0.1,0,0.2c0,0.1,0,0.1,0,0.2c0,0.1,0,0.1,0,0.2l-0.1,0.2l-0.1,0.2
		l-0.1,0.2L61.7,42l-0.2,0.2c-0.1,0.1-0.3,0.3-0.5,0.4c-0.2,0.1-0.4,0.2-0.5,0.4c-0.4,0.2-0.8,0.4-1.2,0.6c-0.8,0.4-1.7,0.7-2.6,1
		c-0.4,0.1-0.9,0.3-1.4,0.4l-0.7,0.2c-0.2,0.1-0.5,0.1-0.7,0.1c-0.5,0.1-0.9,0.5-1,1.1l0,0.1c0,0.2,0,0.5,0.1,0.7l0.1,0.7l0.2,1.2
		c-0.1,0.2-0.3,0.4-0.4,0.6l-0.2,0.2l-0.1,0.3l-0.2,0.5l-0.1,0.3c0,0.1-0.1,0.2-0.1,0.3l-0.1,0.6c0,0.1-0.1,0.2-0.1,0.3l0,0.3l0,0.6
		l0.3-0.5l0.1-0.2c0-0.1,0.1-0.1,0.2-0.2l0.3-0.4c0.1-0.1,0.1-0.1,0.2-0.2l0.2-0.2l0.4-0.4l0.2-0.2l0.2-0.2c0.3-0.2,0.6-0.4,0.8-0.6
		c0.1-0.1,0.2-0.2,0.2-0.3l0-0.2l0.2-1.4l0.1-0.4l0.7-0.2c0.5-0.1,1-0.3,1.5-0.4c1-0.3,1.9-0.7,2.9-1.1c0.5-0.2,0.9-0.5,1.4-0.8
		c0.2-0.1,0.5-0.3,0.7-0.5c0.2-0.2,0.5-0.3,0.7-0.5l0.3-0.3l0.3-0.3l0.3-0.4c0.1-0.1,0.2-0.3,0.3-0.4c0.1-0.2,0.1-0.3,0.2-0.5
		c0.1-0.2,0.1-0.4,0.1-0.5c0-0.2,0-0.4,0.1-0.6c0-0.1,0-0.2,0-0.4c0-0.2,0-0.2,0-0.3c0-0.1,0-0.2-0.1-0.3c0-0.2-0.1-0.3-0.2-0.5
		c-0.1-0.2-0.2-0.3-0.3-0.5c-0.1-0.2-0.2-0.3-0.3-0.4c-0.1-0.1-0.2-0.2-0.4-0.3l0,0l0.1-0.1l0,0l0.1,0c0.2-0.1,0.3-0.2,0.5-0.4
		c0.1-0.2,0.3-0.4,0.4-0.7c0.1-0.3,0.1-0.6,0-0.9c0-0.1-0.1-0.2-0.1-0.3c0-0.1-0.1-0.2-0.1-0.3c-0.1-0.1-0.1-0.2-0.2-0.2l0.3-0.9
		c0.1-0.3,0.1-0.7-0.1-1l0,0c0,0-0.1-0.1-0.1-0.2c0-0.1-0.1-0.2-0.1-0.2c-0.1-0.2-0.2-0.3-0.2-0.5l-0.1-0.2c0,0,0-0.1,0-0.1
		c0,0,0,0,0,0c0.2-0.2,0.4-0.4,0.6-0.6c0.4-0.4,0.8-0.9,1.1-1.6c0.1-0.4,0.2-0.8,0.1-1.3c-0.1-0.5-0.3-0.9-0.5-1.2
		c-0.1-0.2-0.3-0.3-0.4-0.4c-0.1-0.1-0.3-0.3-0.4-0.3l-0.3-0.2l-0.3-0.2c-0.7-0.5-1.4-1.1-2-1.7c-0.1-0.2-0.3-0.3-0.4-0.5
		c-0.1-0.2-0.2-0.3-0.4-0.5c-0.1-0.2-0.2-0.3-0.3-0.5c0-0.1,0-0.1-0.1-0.2c0-0.1,0.1-0.2,0.1-0.3c0.1-0.2,0.1-0.5,0.1-0.8
		c0-0.3,0.1-0.5,0-0.8c0-0.1,0-0.3,0-0.4c0-0.1,0-0.3-0.1-0.4c0-0.1-0.1-0.3-0.1-0.4c-0.1-0.1-0.1-0.3-0.2-0.4
		c-0.1-0.1-0.2-0.3-0.2-0.4c-0.1-0.1-0.2-0.2-0.3-0.3c-0.1-0.1-0.2-0.2-0.3-0.3L59,18.4c-0.1-0.1-0.2-0.1-0.4-0.2L58.3,18z"/>
	<path d="M58.6,17.7C58.6,17.7,58.6,17.8,58.6,17.7c0,0.1,0,0.1,0,0.2V17.7z"/>
</g>
</svg>
