<svg xmlns="http://www.w3.org/2000/svg" viewBox="0 0 65.5 66.9"><path d="M1.6 35.1c0-2.2.2-4.3.7-6.4.4-2.1 1.1-4.2 1.9-6.1.8-2 1.8-3.9 3-5.6.3-.4.6-.9.9-1.3.3-.4.6-.8 1-1.3l1-1.2 1.1-1.2c1.5-1.5 3.1-2.9 4.9-4.1 1.8-1.2 3.6-2.2 5.6-3.1 3.9-1.7 8.1-2.6 12.4-2.6 2.1 0 4.3.2 6.4.5 2.1.4 4.2.9 6.1 1.7 2.5 1 4.9 2.3 7.1 3.8l-1.2 1.3C42.1 1.2 28.1 4.1 28.1 4.1 12 6.9 5.2 22.7 5.2 22.7c.3 1.5.6 2.8 1 4 .1-.1.6-.7 1.3-1.7.1-.3.3-.6.5-1 .3-.3.5-.7.9-1 .3-.4.6-.8 1-1.2.4-.4.7-.8 1.1-1.2.8-.9 1.7-1.7 2.7-2.7.5-.4 1.1-.9 1.6-1.3.3-.2.6-.4.9-.7l.9-.6c1.2-.9 2.5-1.7 3.9-2.4.3-.2.7-.4 1.1-.5.4-.2.7-.3 1.1-.5.4-.2.7-.3 1.1-.4.4-.1.7-.3 1.1-.4.8-.2 1.5-.5 2.3-.6.4-.1.8-.2 1.2-.2.4-.1.8-.1 1.2-.2l.6-.1h.6c.4 0 .8-.1 1.2-.1h2.3c1.5 0 2.9.3 4.3.5 1.3.3 2.6.6 3.7 1 2.3.8 4.1 1.7 5.3 2.4l.6.3-.9 1c-.1-.1-.2-.1-.3-.2-1.1-.7-2.9-1.6-5-2.4-1.1-.4-2.3-.8-3.6-1.1-1.3-.3-2.7-.5-4.1-.6-.7-.1-1.5-.1-2.2-.1h-1.7l-.9.2c-.4 0-.8.1-1.1.1-.4.1-.8.1-1.1.2-.8.1-1.5.4-2.3.5-.4.1-.7.2-1.1.4-.4.1-.7.2-1.1.4-.4.1-.7.3-1.1.4-.4.1-.7.3-1 .5-1.4.7-2.7 1.4-3.9 2.2l-.9.6-.9.6c-.6.4-1.1.9-1.6 1.3-1 .9-2 1.7-2.8 2.6l-1.2 1.2c-.4.4-.7.8-1 1.1-.3.4-.6.7-.9 1-.3.3-.5.6-.7.9-.7.9-1.2 1.5-1.3 1.7 4.8 15.6 17.3 9.1 17.3 9.1 3-9.8 13.4-8.7 13.4-8.7l.4-.4-.8.9 1.4-1.3 1-.9 1.4-1.3 1-.9 1.8-1.7.8-.7 1.8-1.7 1-1 2.1-2 .7-.7 2.2-2.1.5-.2.8-.7 1.3-1.2 1.4-1.3c.4.3.8.7 1.2 1-1.7 1.6-3.3 3.2-5 4.8-1.9 1.8-3.8 3.6-5.7 5.5-1.9 1.8-3.8 3.7-5.6 5.5l-2.2 2.2c-1.7-.3-3.3-.5-4.7 1-1.3 1.4-2.2 3-1.5 4.8.4 1 1.6 1.7 2.5 2.5.2-.1.4-.3.6-.4-1-4 1-6.1 4.4-7.6-.3-.1-.5-.1-.8-.2.7-.6 1.5-1.2 2.2-1.9 2-1.7 4-3.5 5.9-5.2 2-1.7 3.9-3.5 5.9-5.2.9-.8 1.9-1.7 2.8-2.5.2-.1.3-.3.5-.4.9-.8 1.7-1.6 2.6-2.3.3-.3.3-.9 0-1.2-1.6-1.6-3.3-3.1-5.2-4.3-1.9-1.3-3.9-2.3-6-3.2-2.1-.9-4.3-1.5-6.5-2C38.6.2 36.3 0 34 0c-4.5 0-9.1 1-13.3 2.8-2.1.9-4.1 2-6 3.3-1.9 1.3-3.6 2.8-5.2 4.4l-1.1 1.2L7.3 13c-.4.5-.7.9-1 1.4-.3.5-.6.9-1 1.4-1.2 1.9-2.3 3.9-3.1 6.1C.6 26.1-.1 30.7 0 35.2c.1 2.3.4 4.5.9 6.7s1.2 4.3 2.2 6.3c.9 2 2.1 4 3.4 5.7 1.3 1.8 2.8 3.4 4.5 4.9-3-3.2-5.4-7-7-11-1.7-4-2.5-8.3-2.4-12.7zM50 12c-.6-.4-1.4-.9-2.2-1.4-.9-.5-1.9-1-3.1-1.5-.8-.4-1.7-.8-2.7-1.1-.3.7-1 1.1-1.8 1.1C39 9.1 38 8.2 38 7v-.1c-.1 0-.3-.1-.4-.1-.2 0-.4-.1-.6-.1-.2 0-.4 0-.6-.1-1.6-.2-3.2-.2-4.9-.2-.4 0-.8.1-1.2.1-.4 0-.8.1-1.2.2-.8.1-1.6.3-2.5.5-.4.1-.8.2-1.2.4-.4.3-.8.4-1.2.5-.4.2-.8.3-1.2.5-.4.2-.8.3-1.1.5-1.5.7-2.9 1.6-4.2 2.5-.3.2-.6.5-1 .7-.2.1-.3.2-.5.3-.2.1-.3.2-.4.4-.6.5-1.2 1-1.7 1.5-1 1-2.1 2-2.9 2.9-.4.5-.8.9-1.2 1.4-.4.5-.7.9-1 1.3-.3.4-.6.8-.9 1.1-.3.4-.5.7-.7 1-.9 1.2-1.4 1.9-1.4 1.9s.5-.7 1.3-1.9c.2-.3.4-.7.7-1 .3-.4.6-.7.9-1.2.3-.4.7-.9 1-1.3.4-.5.8-.9 1.2-1.4.8-1 1.8-2 2.9-3 .6-.5 1.1-1 1.7-1.5l.4-.4c.2-.1.3-.2.5-.4.3-.2.6-.5 1-.7 1.3-1 2.7-1.9 4.2-2.7L23 8c.4-.2.8-.4 1.2-.5.4-.2.8-.3 1.2-.4.2-.1.6-.3 1.1-.4.8-.2 1.7-.5 2.5-.6.4-.1.8-.2 1.3-.2.4 0 .9-.1 1.3-.1 1.7-.1 3.4-.1 5 0 .2 0 .4 0 .6.1.2 0 .4.1.6.1.2-.1.3 0 .5 0 .4-.6 1-1.1 1.8-1.1 1.1 0 2 .9 2.1 2 1.1.3 2.1.7 3 1.1 1.2.5 2.3 1 3.2 1.5.9.5 1.7 1 2.4 1.4.1.1.2.1.3.2l-.9 1s-.1-.1-.2-.1zM8.5 27.3c.2-.2.4-.5.6-.8.2-.3.5-.6.8-.9.3-.3.6-.7.9-1l1.1-1.1.3-.3c-.1-.2-.2-.3-.2-.5 0-.4.3-.7.7-.7.2 0 .3.1.5.2.4-.3.8-.7 1.2-1l1.5-1.2c.5-.4 1-.7 1.6-1.1.5-.4 1.1-.7 1.7-1.1.6-.3 1.2-.6 1.8-1 .6-.3 1.3-.6 1.9-.8.7-.2 1.3-.5 2-.7.7-.2 1.4-.4 2.1-.5.3-.1.7-.2 1-.2.3-.1.7-.1 1-.2.3-.1.7-.1 1-.1.3 0 .7-.1 1-.1.7 0 1.4-.1 2 0 1.3 0 2.6.2 3.8.3 1.2.2 2.3.5 3.4.7 2.1.6 3.7 1.3 4.8 1.8.2.1.3.1.4.2l-.9 1s-.1 0-.1-.1c-1.1-.6-2.6-1.3-4.6-1.9-1-.3-2.1-.6-3.2-.8-1.2-.2-2.4-.4-3.7-.4h-2c-.3 0-.7 0-1 .1-.3 0-.7 0-1 .1-.3 0-.7.1-1 .1-.3 0-.7.1-1 .2-.7.1-1.3.3-2 .5s-1.3.4-2 .6c-.6.3-1.3.5-1.9.8l-1.8.9c-.6.3-1.2.6-1.7 1s-1.1.7-1.6 1.1c-.5.4-1 .7-1.5 1.1-.4.3-.8.7-1.2 1 0 .1.1.2.1.3 0 .4-.3.7-.7.7-.1 0-.2 0-.4-.1-.1.1-.2.2-.4.3-.4.4-.7.7-1.1 1-.3.3-.6.7-.9 1-.3.3-.6.6-.8.9-.1.2-.3.5-.5.7-.7 1-1.2 1.5-1.2 1.5s.4-.6 1.2-1.5zM8 30.6s.4-.5 1.1-1.3c.3-.4.8-.9 1.3-1.5s1.1-1.2 1.8-1.8c.3-.3.7-.7 1.1-1 .4-.3.8-.7 1.2-1 .4-.3.9-.7 1.3-1 .5-.3.9-.7 1.4-1 .5-.3 1-.6 1.6-.9.5-.3 1.1-.6 1.7-.8 1.1-.5 2.3-1 3.5-1.3 1.2-.4 2.5-.6 3.7-.9 1.2-.2 2.5-.3 3.7-.3h1.8c.6 0 1.1.1 1.7.1 1.1.1 2.1.3 3.1.5 1.9.4 3.4.9 4.5 1.3.4.1.6.3.9.4l-1 1.1c-.1-.1-.3-.1-.4-.2-1-.4-2.4-.9-4.2-1.4-.9-.2-1.9-.4-2.9-.6-.5-.1-1.1-.1-1.6-.2-.6 0-1.1-.1-1.7-.1-1.2 0-2.3.1-3.6.2-1.2.2-2.4.4-3.6.7-1.2.3-2.4.7-3.5 1.2-.6.2-1.1.5-1.6.8-.5.3-1 .6-1.6.8l-1.5.9c-.5.3-.9.6-1.3 1-.4.3-.8.6-1.2 1-.4.3-.8.6-1.1.9-.7.6-1.3 1.2-1.8 1.8l-1.4 1.4c-1 .7-1.4 1.2-1.4 1.2zm1.2 1.8s.3-.4 1-1.2c.3-.4.7-.8 1.2-1.3.4-.5 1-1 1.6-1.6.3-.3.6-.6 1-.9.3-.3.7-.6 1.1-.9l1.2-.9c.4-.3.8-.6 1.3-.8.5-.3.9-.5 1.4-.8.5-.2 1-.5 1.5-.7.3-.1.5-.2.8-.3l.8-.3c.5-.2 1.1-.4 1.6-.5.5-.2 1.1-.3 1.6-.4.3-.1.6-.1.9-.2 0-.9.7-1.6 1.6-1.6.8 0 1.4.5 1.6 1.3h.9c1.1 0 2.1 0 3 .1 1 .1 1.9.2 2.7.3 1.7.3 3 .6 4 .9.4.1.7.2 1 .3L40 24c-.1 0-.3-.1-.4-.1-.9-.3-2.2-.7-3.8-1-.8-.2-1.7-.3-2.6-.4-1.2-.4-2.2-.4-3.2-.4h-.9c-.2.6-.8 1-1.5 1-.6 0-1.1-.3-1.4-.8-.3 0-.6.1-1 .1-.5.1-1.1.2-1.6.3-.5.1-1.1.3-1.6.5l-.8.3c-.3.1-.5.2-.8.3l-1.5.6c-.5.2-.9.5-1.4.7-.5.2-.9.5-1.3.8-.4.3-.8.5-1.2.8-.4.3-.8.5-1.1.8-.3.3-.7.5-1 .8-.6.6-1.2 1-1.7 1.5s-.9.9-1.2 1.3c-.4.8-.8 1.3-.8 1.3zM37.1 26c-.8-.3-1.9-.6-3.4-.8-1.4-.2-3.1-.4-4.9-.4-.9 0-1.8.1-2.8.2-.5.1-.9.1-1.4.2-.5.1-.9.2-1.4.3-.5.1-.9.2-1.4.4l-.7.2c-.2.1-.4.2-.7.3-.4.2-.9.4-1.3.5l-1.2.6-1.2.6c-.4.2-.7.4-1.1.7-.7.4-1.3.9-1.9 1.4-.6.5-1.1.9-1.5 1.3l-1.1 1.1c-.6.6-.9 1-.9 1s.3-.4.9-1l1.1-1.1c.4-.4.9-.9 1.5-1.4.6-.5 1.2-1 1.9-1.5.3-.3.7-.5 1.1-.7.4-.2.8-.5 1.2-.7.4-.2.8-.5 1.2-.7.4-.2.9-.4 1.3-.6.2-.1.4-.2.7-.3l.7-.3c.5-.2.9-.3 1.4-.5.5-.2 1-.3 1.4-.4.5-.1 1-.2 1.4-.3 1-.2 1.9-.3 2.9-.3 1.9-.1 3.6 0 5.1.2 1.5.2 2.7.5 3.6.7.4.1.8.2 1 .3h.1l-1 1.1c-.2 0-.4 0-.6-.1z"/><path d="M9.8 46.1c5.6 2.5 14.1-.2 12.7-8.8-3.8 2.1-7.4 1.6-11-.4-.8-.4-1.6-.7-2-.8-1.2-2-2.5-3.7-3.4-5.5-.8-1.9-1.2-3.9-1.8-5.9-.1 0-.3-.1-.4-.1-.6 2.9-1.4 5.8-1.7 8.8-.6 5.8 2.3 10.3 7.6 12.7z"/><path d="M17.8 55.9c6.3-1.2 8.7-6.9 5.1-12.5-2.5 4.1-6.5 5.3-10.5 4.7-3.9-.5-7.1-3.2-9.7-6.4.5 2.4 1.1 4.7 2 6.9 2 5.6 7.2 8.4 13.1 7.3z"/><path d="M27.5 60.2c3.5-3 4.8-9.5-1.4-12.1-1.2 7-6.7 11.1-16.7 8.3 1.8 1.6 3.5 3.2 5.3 4.6 3.9 2.9 9.2 2.4 12.8-.8z"/><path d="M30.7 50.5c1.7 5.9 0 11.2-9.4 13.9l6 1.2c5.6 1.1 10-4.7 10.2-8.6.3-4.3-2.7-7.1-6.8-6.5z"/><path d="M44 53.2c-1.1-4-6.1-6.1-8.6-3.1 4.5 4.2 4.5 9.4-.9 15.1 1.6-.6 3.3-1 4.8-1.7 4.2-1.9 6-5.9 4.7-10.3z"/><path d="M47.8 47c-2.1-2.9-7.5-3.9-9.1.4 5.6 1.9 7.5 4.7 6.2 11.9 4.8-2.8 6-8 2.9-12.3z"/><path d="M51.6 46.8c.4-3.8-2.2-7.1-6-7.7-3.1-.5-5.3 1.5-5.2 4.8 5.6-1.5 8.6 1.4 10.4 6.5.3-1.3.6-2.4.8-3.6z"/><path d="M42.2 34.2c-2.8.7-3.7 3.2-2.4 6.2 3.9-3.7 7.5-2.7 11.2.5-1.5-6.6-5-7.7-8.8-6.7z"/><path d="M46.8 33.2c-2.3-2.2-4.1-3.9-7-3-2 .6-3.6 1.8-3.8 3.9-.1 1.2.6 2.4 1 3.7.3 0 .6-.1.9-.1 1.3-4.2 4.3-5.5 8.9-4.5zm-14.6 4c-2.2-2.7-2-5.3.1-7.9-3.5.7-5.1 2.7-4.5 5.5.6 2.1 2 3 4.4 2.4z"/><path d="M26.4 39.2c1.3 1.1 2.6 1.2 3.9-.3-2.6-1.2-3.8-3-3.5-6.1-2.4 2.7-2.5 4.7-.4 6.4zm.1 3.7c1.7.4 2.5-.1 2.8-1.2-1.8-1-3.5-2-5.3-2.9-.5 2.1.3 3.6 2.5 4.1zm1.7 3.1c1.2-.2 2.2-.8 2-2.1-1.9.1-3.7.1-5.4.2.4 1.6 1.7 2.2 3.4 1.9zm4.1-.6c-.2-.1-.5-.3-.6-.2l-3.9 2.4c-.1 0 .1.4.1.6 1.1-.2 2.3-.2 3.2-.7.6-.3.8-1.4 1.2-2.1z"/><path d="M37.2 39.3c-1.2-1.5-3.4-1.8-4.9-.6-1.5 1.2-1.8 3.4-.6 4.9.3.3.6.6.9.8h.2c.3.2.6.3 1 .4 1.1.5 2 1.6-1.8 3.1 0 0 6.6-.4 6-6 0-.8-.2-1.8-.8-2.6zM58.3 18l.1.1h.1c-.1 0-.1-.1-.2-.1 0 0 .3-.1.2-.1l.1-.1c-.1-.1-.2-.2-.2-.4 0-.1-.2-.3-.2-.4-.1-.3-.2-.5-.3-.8-.1-.3-.2-.5-.4-.8-.1-.2-.3-.5-.5-.7-.2-.2-.4-.4-.5-.6l-.3-.3c-.1-.1-.2-.1-.3-.2-.2.1-.3.3-.5.4.1.1.1.2.2.3l.2.3c.1.2.2.4.2.6.1.2.1.4.1.6 0 .2.1.4.1.6v.9c0 .1 0 .2-.1.2v.8c0 .2.1.4.2.6 0 .1.1.2.1.3.1.1.1.2.2.3.1.1.1.2.2.2l.1.1c.1 0 .1.1.2.1h.1l.2.1c.1 0 .1 0 .2.1l.1.1c.1 0 .1.1.1.1l.1.1.1.1s0 .1.1.1v1c0 .1 0 .3-.1.4 0 .1 0 .1-.1.2l.1.5v.2c-.1.2-.1.4 0 .6l.3.9c.1.3.3.5.4.8.2.2.3.5.5.7.2.2.4.4.5.6.8.8 1.6 1.4 2.4 2l.3.2.3.2.1.1.1.1c0 .1 0 .1.1.1v.1c-.1.2-.3.5-.5.7l-.4.4c-.2.1-.3.3-.5.3l-.1.1c-.3.2-.5.6-.5 1l.1.4c0 .2 0 .3.1.4 0 .1.1.3.1.4l.1.4c.1.2.2.5.3.7 0 .1.1.1.1.2l-.3 1.1c-.1.4 0 .8.2 1.1l-.1.1-.3.3c-.1.1-.2.2-.2.3-.1.1-.1.2-.2.4-.1.1-.1.3-.1.4 0 .2-.1.3-.1.5v.3c0 .1 0 .2.1.3.1.3.3.6.7.7l.2.1c.1 0 .1 0 .2.1h.2s.1 0 .1.1c.1 0 .1 0 .1.1 0 0 .1 0 .1.1v1l-.1.2-.1.2-.1.2-.4.1-.2.2c-.1.1-.3.3-.5.4-.2.1-.4.2-.5.4l-1.2.6c-.8.4-1.7.7-2.6 1-.4.1-.9.3-1.4.4l-.7.2c-.2.1-.5.1-.7.1-.5.1-.9.5-1 1.1v.1c0 .2 0 .5.1.7l.1.7.2 1.2c-.1.2-.3.4-.4.6l-.2.2-.1.3-.2.5-.1.3c0 .1-.1.2-.1.3l-.1.6c0 .1-.1.2-.1.3v.9l.3-.5.1-.2c0-.1.1-.1.2-.2l.3-.4.2-.2.2-.2.4-.4.2-.2.2-.2c.3-.2.6-.4.8-.6.1-.1.2-.2.2-.3v-.2l.2-1.4.1-.4.7-.2c.5-.1 1-.3 1.5-.4 1-.3 1.9-.7 2.9-1.1.5-.2.9-.5 1.4-.8.2-.1.5-.3.7-.5.2-.2.5-.3.7-.5l.3-.3.3-.3.3-.4c.1-.1.2-.3.3-.4.1-.2.1-.3.2-.5s.1-.4.1-.5c0-.2 0-.4.1-.6v-.7c0-.1 0-.2-.1-.3 0-.2-.1-.3-.2-.5s-.2-.3-.3-.5c-.1-.2-.2-.3-.3-.4-.1-.1-.2-.2-.4-.3l.1-.1h.1c.2-.1.3-.2.5-.4.1-.2.3-.4.4-.7.1-.3.1-.6 0-.9 0-.1-.1-.2-.1-.3 0-.1-.1-.2-.1-.3-.1-.1-.1-.2-.2-.2l.3-.9c.1-.3.1-.7-.1-1 0 0-.1-.1-.1-.2s-.1-.2-.1-.2c-.1-.2-.2-.3-.2-.5l-.1-.2v-.1l.6-.6a5 5 0 0 0 1.1-1.6c.1-.4.2-.8.1-1.3s-.3-.9-.5-1.2c-.1-.2-.3-.3-.4-.4-.1-.1-.3-.3-.4-.3l-.3-.2-.3-.2c-.7-.5-1.4-1.1-2-1.7-.1-.2-.3-.3-.4-.5-.1-.2-.2-.3-.4-.5-.1-.2-.2-.3-.3-.5 0-.1 0-.1-.1-.2 0-.1.1-.2.1-.3.1-.2.1-.5.1-.8 0-.3.1-.5 0-.8V21c0-.1 0-.3-.1-.4 0-.1-.1-.3-.1-.4-.1-.1-.1-.3-.2-.4-.1-.1-.2-.3-.2-.4l-.3-.3-.3-.3-.7-.4c-.1-.1-.2-.1-.4-.2l-.3-.2zm.3-.3s0 .1 0 0v.2-.2z"/></svg>