<?xml version="1.0" encoding="iso-8859-1"?>
<!-- Generator: Adobe Illustrator 16.0.0, SVG Export Plug-In . SVG Version: 6.00 Build 0)  -->
<!DOCTYPE svg PUBLIC "-//W3C//DTD SVG 1.1//EN" "http://www.w3.org/Graphics/SVG/1.1/DTD/svg11.dtd">
<svg version="1.1" id="Capa_1" xmlns="http://www.w3.org/2000/svg" xmlns:xlink="http://www.w3.org/1999/xlink" x="0px" y="0px"
	 width="612px" height="612px" viewBox="0 0 612 612" style="enable-background:new 0 0 612 612;" xml:space="preserve">
<g>
	<g id="key">
		<g>
			<path style="fill: #fff" d="M229.211,286.754c-9.18-54.599-56.543-96.226-113.74-96.226C51.693,190.527,0,242.221,0,306
				s51.693,115.472,115.472,115.472c57.197,0,104.56-41.629,113.74-96.227h267.317v76.98h38.49v-76.98h38.491v96.227H612V286.754
				H229.211z M115.395,385.386c-43.841,0-79.387-35.545-79.387-79.386c0-43.841,35.546-79.387,79.387-79.387
				s79.387,35.546,79.387,79.387C194.782,349.841,159.235,385.386,115.395,385.386z"/>
		</g>
	</g>
</g>
<g>
</g>
<g>
</g>
<g>
</g>
<g>
</g>
<g>
</g>
<g>
</g>
<g>
</g>
<g>
</g>
<g>
</g>
<g>
</g>
<g>
</g>
<g>
</g>
<g>
</g>
<g>
</g>
<g>
</g>
</svg>
