<svg xmlns="http://www.w3.org/2000/svg" viewBox="0 0 143 194"><g data-name="Layer 2"><path d="M138 0H5a5 5 0 0 0-5 5v184a5 5 0 0 0 5 5h133a5 5 0 0 0 5-5V5a5 5 0 0 0-5-5zM75.12 111.12A3 3 0 0 1 73 112H17a3 3 0 0 1 0-6h56a3 3 0 0 1 2.12 5.12zm53-21A3 3 0 0 1 126 91H17a3 3 0 0 1 0-6h109a3 3 0 0 1 2.12 5.12zm0-21A3 3 0 0 1 126 70H17a3 3 0 0 1 0-6h109a3 3 0 0 1 2.12 5.12zm0-21A3 3 0 0 1 126 49H17a3 3 0 0 1 0-6h109a3 3 0 0 1 2.12 5.12zm0-21A3 3 0 0 1 126 28H17a3 3 0 0 1 0-6h109a3 3 0 0 1 2.12 5.12z" fill="#e3e7ef" data-name="Layer 1"/></g></svg>