<svg id="Capa_1" xmlns="http://www.w3.org/2000/svg" viewBox="-49 141 512 512"><style>.st0{fill:#6ed1cd}</style><path class="st0" d="M206 141C65.1 141-49 255.1-49 396c0 139.9 113 257 255 257 140.6 0 257-115.9 257-257 0-142.1-117.3-255-257-255zm0 482.2c-124.1 0-225.2-102-225.2-227.2 0-124.1 101.1-225.2 225.2-225.2 125.2 0 227.2 101.1 227.2 225.2 0 125.2-102 227.2-227.2 227.2z"/><path class="st0" d="M206 231c-91 0-165 74-165 165 0 91.3 73.9 167 165 167 36.9 0 74.2-12.4 102.3-34 6.6-5 7.8-14.5 2.8-21s-14.5-7.8-21-2.8c-23 17.7-53.7 28-84.1 28-74.4 0-135-61.7-135-137.2 0-74.4 60.6-135.2 135-135.2 75.5 0 137 60.8 137 135.2v15c0 16.5-13.5 30-30 30s-30-13.5-30-30v-75c0-8.3-6.7-15-15-15s-15 6.7-15 15v1c-13.5-10.3-29.9-16-47-16-41.4 0-75 33.6-75 75s33.6 75 75 75c22.4 0 43.1-9.6 57.7-25.8 10.8 15.6 28.9 25.8 49.3 25.8 33.1 0 60-26.9 60-60v-15c0-91.3-75.8-165-167-165zm0 210.2c-24.8 0-45-20.4-45-45.2 0-24.8 20.2-45.2 45-45.2 25.5 0 47 20.8 47 45.2 0 24.4-21.5 45.2-47 45.2z"/></svg>