<svg id="Capa_1" xmlns="http://www.w3.org/2000/svg" viewBox="-49 141 512 512"><style>.st0{fill:#6ed1cd}</style><path class="st0" d="M-10.9 292.7c-7.7-3.1-16.4.6-19.6 8.3-24.6 60.8-24.7 131.1 0 192 3.1 7.7 11.9 11.4 19.6 8.3 7.7-3.1 11.4-11.9 8.3-19.6-22.3-54.9-22.3-114.5 0-169.5 3-7.6-.7-16.4-8.3-19.5zm455.4 8.3c-3.1-7.7-11.9-11.4-19.6-8.3-7.7 3.1-11.4 11.9-8.3 19.6 22.3 54.9 22.3 114.5 0 169.5-4 9.9 3.3 20.7 13.9 20.7 5.9 0 11.5-3.5 13.9-9.4 24.6-60.6 24.9-131 .1-192.1zm-75.3 14.3c-7.7 3.1-11.4 11.9-8.3 19.5 16.4 40.4 16.4 83.8 0 124.4-4 9.9 3.3 20.6 13.9 20.6 5.9 0 11.6-3.5 13.9-9.4 19-47 19.1-99.8 0-146.9-3-7.6-11.8-11.3-19.5-8.2zm-324.4 0c-7.7-3.1-16.4.6-19.5 8.3-19 47-19.1 99.8 0 146.9 3.1 7.7 11.9 11.4 19.5 8.3 7.7-3.1 11.4-11.9 8.3-19.5-16.4-40.4-16.4-83.8 0-124.4 3-7.8-.7-16.5-8.3-19.6zm253.3-113.4H115.9c-24.8 0-45 20.2-45 45v300.2c0 24.8 20.2 45 45 45H298c24.8 0 45-20.2 45-45V246.9c.1-24.8-20.1-45-44.9-45zm-197.2 90h212.2v210.2H100.9V291.9zm15-60H298c8.3 0 15 6.7 15 15v15H100.9v-15c0-8.3 6.8-15 15-15zm182.2 330.2H115.9c-8.3 0-15-6.7-15-15v-15h212.2v15c0 8.3-6.8 15-15 15z"/></svg>