<svg id="Capa_1" xmlns="http://www.w3.org/2000/svg" viewBox="-49 141 512 512"><style>.st0{fill:#6ed1cd}</style><path class="st0" d="M207 141c-99.3 0-180 80.7-180 180 0 33.5 9.3 66.3 26.9 94.7L196.8 646c2.7 4.4 7.6 7.1 12.7 7.1h.1c5.2 0 10.1-2.8 12.8-7.3l139.2-232.5c16.6-27.8 25.4-59.7 25.4-92.2 0-99.4-80.7-180.1-180-180.1zm128.9 256.8L209.3 609.2 79.4 399.8C64.7 376.2 56.8 349 56.8 321c0-82.7 67.5-150.2 150.2-150.2S357.1 238.3 357.1 321c0 27.1-7.4 53.7-21.2 76.8z"/><path class="st0" d="M207 231c-49.6 0-90 40.4-90 90 0 49.3 39.7 90 90 90 50.9 0 90-41.2 90-90 0-49.6-40.4-90-90-90zm0 150.2c-33.3 0-60.2-27-60.2-60.2 0-33.1 27.1-60.2 60.2-60.2s60.1 27.1 60.1 60.2c0 32.7-26.3 60.2-60.1 60.2z"/></svg>