<svg id="Element" xmlns="http://www.w3.org/2000/svg" viewBox="0 0 23.59 27.13">
  <defs>
    <style>
      .cls-1 {
        fill: #fff;
      }

      .cls-2 {
        fill: none;
        stroke: #fff;
        stroke-miterlimit: 10;
      }
    </style>
  </defs>
  <title>25</title>
  <g>
    <path class="cls-1" d="M768.81,2047.9q0.44,0.07,1.4.18a28.33,28.33,0,0,0,7.18,0l1.43-.19a6.12,6.12,0,0,0,1.16-.35,3.36,3.36,0,0,0,1.2-.74,2.4,2.4,0,0,0-.9-0.71,4.19,4.19,0,0,0-.93-0.35l-1.14-.2a27,27,0,0,0-9.08,0l-1.06.19a3.58,3.58,0,0,0-.88.35,2.22,2.22,0,0,0-.8.69,3.69,3.69,0,0,0,1.22.73,6.48,6.48,0,0,0,1.18.35h0Zm0,0" transform="translate(-762.02 -2042.88)"/>
    <path class="cls-2" d="M782.24,2062.82a2.84,2.84,0,0,0-.13.59,9,9,0,0,0-.25,1.23c-0.08.54-.15,1-0.22,1.35a3.49,3.49,0,0,1-.46,1.12,2.5,2.5,0,0,1-.93.91,11.39,11.39,0,0,1-3,1.15,13.61,13.61,0,0,1-3.24.35,21.92,21.92,0,0,1-3.23-.3,13.39,13.39,0,0,1-1.31-.29,11.2,11.2,0,0,1-1.23-.43,4.6,4.6,0,0,1-1.17-.7,3.56,3.56,0,0,1-.81-0.94,0.34,0.34,0,0,1,0-.09q-0.4-1.54-.9-4.64l0.1-.26,0.29-.14a15.11,15.11,0,0,0,16.26,0,0.47,0.47,0,0,1,.38.37,1.66,1.66,0,0,1-.08.72h0Zm-19.44-16.49a2.86,2.86,0,0,1,.51-0.6,3.85,3.85,0,0,1,.72-0.48c0.3-.16.55-0.28,0.74-0.36l0.77-.3a20.36,20.36,0,0,1,5-1,28.61,28.61,0,0,1,10.84.8,6.76,6.76,0,0,1,3.45,2,1.31,1.31,0,0,1,.26.82,3.22,3.22,0,0,1-.09.87q-0.42,2.68-1.78,10.5a1.85,1.85,0,0,1-.43.9,3.3,3.3,0,0,1-.7.64,10,10,0,0,1-.87.5,17.44,17.44,0,0,1-9.78,1.41,12.42,12.42,0,0,1-6.32-2.23,2.15,2.15,0,0,1-.41-0.42,1.92,1.92,0,0,1-.27-0.56,4.36,4.36,0,0,1-.14-0.55c0-.14-0.06-0.35-0.1-0.63s-0.07-.46-0.09-0.56q-0.15-.8-0.42-2.4t-0.45-2.59q-0.17-1-.38-2.36t-0.35-2.53a1.79,1.79,0,0,1,.28-0.78h0Zm0,0" transform="translate(-762.02 -2042.88)"/>
    <path class="cls-1" d="M775.56,2052.88a3.3,3.3,0,0,0-3.16-.21,3.7,3.7,0,0,0-2.17,3.5,3.39,3.39,0,0,0,1.24,2.49,3.45,3.45,0,0,0,2.65.9,3.42,3.42,0,0,0,2.44-1.35,3.5,3.5,0,0,0,.8-2.7,3.43,3.43,0,0,0-1.81-2.63h0Zm-0.78,4.59a1.57,1.57,0,0,1-1.79.1,1.53,1.53,0,0,1-.86-0.93,2,2,0,0,1,0-1.32,1.5,1.5,0,0,1,.83-0.93,1.86,1.86,0,0,1,1.16-.19,1.76,1.76,0,0,1,1,.57,1.54,1.54,0,0,1,.44,1.08,1.59,1.59,0,0,1-.81,1.62h0Zm0,0" transform="translate(-762.02 -2042.88)"/>
  </g>
</svg>
