<svg id="Element" xmlns="http://www.w3.org/2000/svg" viewBox="0 0 23.51 20.77">
  <defs>
    <style>
      .cls-1 {
        fill: #0381ea;
      }

      .cls-2 {
        fill: none;
        stroke: #0381ea;
        stroke-miterlimit: 10;
      }
    </style>
  </defs>
  <title>26</title>
  <g>
    <path class="cls-1" d="M770.25,2099v2.47a0.3,0.3,0,0,1-.3.3h-1.49a0.78,0.78,0,0,0-.68,1.17l2.68,4.63,2.54,4.4a0.94,0.94,0,0,0,1.62,0l2.54-4.4,2.71-4.69a0.75,0.75,0,0,0-.65-1.12h-1.55a0.3,0.3,0,0,1-.3-0.3V2099a0.3,0.3,0,0,0-.3-0.3h-6.53A0.3,0.3,0,0,0,770.25,2099Z" transform="translate(-762.06 -2098.65)"/>
    <path class="cls-2" d="M781.79,2113.4v1.94a0.3,0.3,0,0,1-.3.3H766.14a0.3,0.3,0,0,1-.3-0.3v-1.94a0.3,0.3,0,0,0-.3-0.3h-2.68a0.3,0.3,0,0,0-.3.3v5.22a0.3,0.3,0,0,0,.3.3h21.91a0.3,0.3,0,0,0,.3-0.3v-5.22a0.3,0.3,0,0,0-.3-0.3h-2.68A0.3,0.3,0,0,0,781.79,2113.4Z" transform="translate(-762.06 -2098.65)"/>
  </g>
</svg>
