<svg xmlns="http://www.w3.org/2000/svg" viewBox="0 0 511.999 511.999" width="512" height="512"><path d="M321.356 63.796c-56.318-28.458-124.159-17.577-168.81 27.075-51.895 51.894-57.089 134.64-12.081 192.474a8.055 8.055 0 0 0 6.373 3.114 8.03 8.03 0 0 0 4.95-1.702 8.07 8.07 0 0 0 1.413-11.323c-40.019-51.422-35.394-125.002 10.757-171.153 39.71-39.712 100.038-49.39 150.122-24.083 3.976 2.012 8.83.414 10.84-3.563a8.067 8.067 0 0 0-3.564-10.839zm64.431 64.443a8.07 8.07 0 1 0-14.406 7.275c25.289 50.076 15.606 110.396-24.095 150.096-46.152 46.15-119.731 50.774-171.153 10.757a8.068 8.068 0 0 0-9.91 12.735c26.344 20.502 57.855 30.586 89.266 30.586 37.547 0 74.952-14.411 103.209-42.668 44.641-44.64 55.527-112.468 27.089-168.781zM364.94 97.508a147.944 147.944 0 0 0-12.88-12.88 8.066 8.066 0 0 0-11.388.703 8.065 8.065 0 0 0 .7 11.388 132.458 132.458 0 0 1 11.476 11.475 8.048 8.048 0 0 0 6.049 2.725 8.04 8.04 0 0 0 5.34-2.023 8.066 8.066 0 0 0 .703-11.388z" fill="#f9d50d"/><path d="M446.066 208.41c5.38-8.827 5.38-19.791-.002-28.616l-10.615-17.407a11.358 11.358 0 0 1-1.521-7.67l3.164-20.103c1.613-10.245-2.596-20.398-10.982-26.499l-16.451-11.966a11.36 11.36 0 0 1-4.354-6.506l-4.791-19.799c-2.432-10.057-10.191-17.815-20.247-20.249l-19.8-4.792a11.355 11.355 0 0 1-6.506-4.354l-11.968-16.455c-6.1-8.386-16.254-12.597-26.496-10.983l-20.11 3.164a11.359 11.359 0 0 1-7.669-1.521l-17.41-10.618c-8.826-5.382-19.79-5.381-28.616 0l-17.408 10.615a11.358 11.358 0 0 1-7.67 1.521l-20.104-3.164c-10.242-1.612-20.397 2.597-26.497 10.983l-11.966 16.451a11.362 11.362 0 0 1-6.508 4.354l-19.799 4.791c-10.055 2.432-17.815 10.191-20.249 20.247l-4.792 19.8a11.35 11.35 0 0 1-4.354 6.506L85.89 108.108c-8.386 6.099-12.594 16.251-10.983 26.496l3.164 20.111a11.358 11.358 0 0 1-1.521 7.669l-10.617 17.411c-5.38 8.826-5.38 19.79.001 28.615l10.615 17.408a11.358 11.358 0 0 1 1.521 7.67l-3.164 20.104c-1.613 10.244 2.596 20.398 10.982 26.498l16.451 11.966a11.355 11.355 0 0 1 4.354 6.506l4.791 19.799c2.432 10.057 10.191 17.815 20.247 20.249l8.268 2.001-55.954 124.814a8.067 8.067 0 0 0 8.32 11.312l45.022-5.383 25.936 37.191a8.07 8.07 0 0 0 13.981-1.314l57.145-127.479 7.241 4.415a27.444 27.444 0 0 0 14.308 4.036c4.948 0 9.895-1.346 14.308-4.036l7.502-4.574 57.217 127.638a8.067 8.067 0 0 0 7.365 4.768 8.069 8.069 0 0 0 6.616-3.453l25.936-37.191 45.022 5.383a8.067 8.067 0 1 0 8.32-11.312l-55.983-124.883 7.957-1.925c10.055-2.432 17.815-10.191 20.249-20.247l4.792-19.8a11.355 11.355 0 0 1 4.354-6.506l16.455-11.968c8.386-6.099 12.594-16.251 10.983-26.496l-3.164-20.111a11.358 11.358 0 0 1 1.521-7.669l10.618-17.411zM168.408 487.627l-20.554-29.474a8.064 8.064 0 0 0-7.576-3.396l-35.679 4.266L155.578 345.3a11.284 11.284 0 0 1 2.457 2.455l11.968 16.455a27.734 27.734 0 0 0 3.808 4.242l-26.833 59.857a8.07 8.07 0 0 0 14.724 6.601l26.738-59.644c2.631.361 5.34.355 8.059-.073l20.11-3.164a11.327 11.327 0 0 1 3.606.024l-51.807 115.574zm239.324-28.606l-35.68-4.264a8.064 8.064 0 0 0-7.576 3.396l-20.554 29.474-51.829-115.619a11.359 11.359 0 0 1 3.293.024l20.103 3.164c2.829.445 5.648.431 8.379.024l26.758 59.692a8.07 8.07 0 0 0 7.367 4.77 8.068 8.068 0 0 0 7.357-11.371l-26.935-60.085a27.771 27.771 0 0 0 3.571-4.013l11.966-16.451a11.327 11.327 0 0 1 2.716-2.645l51.064 113.904zm24.555-259.013l-10.617 17.411a27.52 27.52 0 0 0-3.684 18.578l3.164 20.11a11.3 11.3 0 0 1-4.534 10.938l-16.456 11.969a27.514 27.514 0 0 0-10.545 15.76l-4.792 19.8a11.303 11.303 0 0 1-8.359 8.359l-19.8 4.791a27.512 27.512 0 0 0-15.762 10.546l-11.966 16.451a11.293 11.293 0 0 1-10.939 4.533l-20.104-3.164a27.517 27.517 0 0 0-18.581 3.684l-17.407 10.615a11.307 11.307 0 0 1-11.812 0l-17.411-10.616a27.51 27.51 0 0 0-18.579-3.684l-20.111 3.164a11.297 11.297 0 0 1-10.938-4.534l-11.969-16.455a27.514 27.514 0 0 0-15.76-10.545l-19.8-4.792a11.303 11.303 0 0 1-8.359-8.359l-4.791-19.799a27.51 27.51 0 0 0-10.546-15.763l-16.45-11.967a11.297 11.297 0 0 1-4.533-10.939l3.164-20.104a27.515 27.515 0 0 0-3.684-18.58l-10.615-17.409a11.303 11.303 0 0 1 0-11.812l10.617-17.411a27.515 27.515 0 0 0 3.684-18.578l-3.164-20.11a11.3 11.3 0 0 1 4.534-10.938l16.456-11.969a27.514 27.514 0 0 0 10.545-15.76l4.792-19.8a11.303 11.303 0 0 1 8.359-8.359l19.8-4.791a27.507 27.507 0 0 0 15.761-10.546l11.966-16.451A11.294 11.294 0 0 1 194 28.948l20.104 3.164a27.504 27.504 0 0 0 18.581-3.684l17.407-10.615a11.307 11.307 0 0 1 11.812 0l17.411 10.616a27.502 27.502 0 0 0 18.579 3.685l20.111-3.164a11.305 11.305 0 0 1 10.938 4.534l11.969 16.455a27.514 27.514 0 0 0 15.76 10.545l19.8 4.792a11.303 11.303 0 0 1 8.359 8.359l4.791 19.799a27.51 27.51 0 0 0 10.546 15.763l16.451 11.966a11.297 11.297 0 0 1 4.533 10.939l-3.164 20.104a27.515 27.515 0 0 0 3.684 18.58l10.615 17.409a11.3 11.3 0 0 1 0 11.813z" fill="#f9d50d"/><path d="M350.416 168.997c-1.778-5.474-6.433-9.296-12.149-9.974l-48.551-5.757-20.478-44.395c-2.411-5.226-7.484-8.473-13.24-8.473-5.755 0-10.829 3.247-13.24 8.473l-20.478 44.396-48.551 5.757c-5.716.678-10.372 4.5-12.149 9.974-1.778 5.471-.258 11.3 3.966 15.207l35.895 33.195-9.528 47.954c-1.121 5.646 1.075 11.254 5.732 14.636 2.569 1.866 5.55 2.811 8.55 2.811 2.439 0 4.889-.624 7.14-1.884l42.662-23.879 42.662 23.879c5.023 2.812 11.034 2.457 15.691-.926s6.853-8.992 5.731-14.637l-9.528-47.953 35.895-33.195c4.226-3.907 5.746-9.735 3.968-15.209zm-54.134 39.623a8.07 8.07 0 0 0-2.436 7.496l9.75 49.071-43.658-24.437a8.065 8.065 0 0 0-7.882 0l-43.658 24.437 9.75-49.071a8.063 8.063 0 0 0-2.436-7.496l-36.732-33.97 49.686-5.891a8.071 8.071 0 0 0 6.377-4.632l20.955-45.431 20.955 45.431a8.07 8.07 0 0 0 6.377 4.632l49.684 5.891-36.732 33.97z" fill="#f9d50d"/></svg>