<svg xmlns="http://www.w3.org/2000/svg" viewBox="0 0 512 512" width="512" height="512"><path d="M392.327 226.071c0-16.209-13.186-29.394-29.395-29.394H308.91c13.125-14.753 21.703-31.552 23.36-46.623 1.012-9.205-1.832-18.342-7.805-25.069-5.459-6.149-12.924-9.576-21.02-9.651l-.281-.001c-7.831 0-15.181 3.016-20.728 8.512-5.548 5.497-8.618 12.82-8.654 20.635-.285 1.711-3.295 7.61-10.66 14.614-6.03 5.736-16.446 13.621-31.825 18.614-6.03 1.958-11.541 5.563-16.379 10.715a105.986 105.986 0 0 1-11.048 10.18 16.454 16.454 0 0 0-7.728-1.924h-51.307c-9.136 0-16.568 7.432-16.568 16.568v136.818c0 9.136 7.432 16.568 16.568 16.568h51.307c6.228 0 11.659-3.458 14.489-8.551h130.923c13.851 0 25.119-11.268 25.119-25.119 0-4.657-1.273-9.021-3.491-12.765 7.217-4.418 12.042-12.376 12.042-21.44 0-4.657-1.273-9.021-3.491-12.765 7.217-4.418 12.042-12.376 12.042-21.44a24.982 24.982 0 0 0-4.371-14.146c7.793-5.293 12.923-14.227 12.923-24.336zm-29.395 13.361h-4.276a8.017 8.017 0 0 0 0 16.034c5.01 0 9.086 4.076 9.086 9.086s-4.076 9.086-9.086 9.086h-8.551a8.017 8.017 0 0 0 0 16.034c5.01 0 9.086 4.076 9.086 9.086 0 5.01-4.076 9.086-9.086 9.086h-8.551a8.017 8.017 0 0 0 0 16.034c5.01 0 9.086 4.076 9.086 9.086 0 5.01-4.076 9.086-9.086 9.086H212.71v-77.495a8.017 8.017 0 0 0-16.034 0v85.511a.534.534 0 0 1-.534.534h-51.307a.534.534 0 0 1-.534-.534V213.244c0-.295.239-.534.534-.534h51.307c.295 0 .534.239.534.534v17.103a8.017 8.017 0 0 0 16.034 0v-17.103c0-.389-.032-.77-.059-1.152a121.724 121.724 0 0 0 13.954-12.695c2.967-3.161 6.211-5.327 9.642-6.44 18.87-6.126 31.569-15.99 38.898-23.186 9.186-9.019 14.669-18.421 14.669-25.152 0-3.556 1.387-6.889 3.906-9.385 2.55-2.527 5.927-3.862 9.576-3.867 4.494.042 7.47 2.341 9.177 4.263 2.926 3.295 4.366 8.033 3.857 12.672-1.751 15.929-14.49 35.619-32.454 50.161a8.018 8.018 0 0 0 5.044 14.247h74.01c7.368 0 13.361 5.993 13.361 13.361s-5.992 13.361-13.359 13.361z" fill="#f9d50d"/><path d="M170.489 316.306c-4.427 0-8.059 3.632-8.059 8.059s3.632 8.059 8.059 8.059 8.059-3.632 8.059-8.059c.001-4.426-3.631-8.059-8.059-8.059z" fill="#f9d50d"/><path d="M497.71 256l13.772-36.443a8.014 8.014 0 0 0-1.243-7.847l-24.359-30.404 1.836-38.915a8.017 8.017 0 0 0-3.606-7.078l-32.562-21.389-10.278-37.578a8.016 8.016 0 0 0-5.617-5.617l-37.578-10.278-21.389-32.561a8.027 8.027 0 0 0-7.078-3.606l-38.915 1.836-30.404-24.359a8.018 8.018 0 0 0-7.847-1.243L255.999 14.29 219.558.519a8.012 8.012 0 0 0-7.847 1.243l-30.404 24.359-38.915-1.836a8.001 8.001 0 0 0-7.078 3.606l-21.388 32.562-37.578 10.278a8.016 8.016 0 0 0-5.617 5.617l-10.278 37.578-32.562 21.388a8.016 8.016 0 0 0-3.606 7.078l1.836 38.915-24.359 30.404a8.018 8.018 0 0 0-1.243 7.847L14.29 256 .518 292.442a8.014 8.014 0 0 0 1.243 7.847l24.359 30.404-1.836 38.915a8.017 8.017 0 0 0 3.606 7.078l32.562 21.389 10.278 37.578a8.016 8.016 0 0 0 5.617 5.617l37.578 10.278 21.388 32.562a8.041 8.041 0 0 0 7.078 3.606l38.915-1.836 30.404 24.359a8.013 8.013 0 0 0 7.847 1.243L256 497.71l36.443 13.772a8.02 8.02 0 0 0 7.846-1.243l30.404-24.359 38.915 1.836a8.025 8.025 0 0 0 7.078-3.606l21.389-32.562 37.578-10.278a8.016 8.016 0 0 0 5.617-5.617l10.278-37.578 32.562-21.389a8.016 8.016 0 0 0 3.606-7.078l-1.836-38.915 24.359-30.404a8.018 8.018 0 0 0 1.243-7.847L497.71 256zm-16.069 2.834l13.226 34.999-23.394 29.199a8.014 8.014 0 0 0-1.752 5.39l1.764 37.373-31.271 20.541a8.017 8.017 0 0 0-3.332 4.586l-9.871 36.089-36.089 9.871a8.022 8.022 0 0 0-4.586 3.332l-20.541 31.271-37.373-1.764a8.023 8.023 0 0 0-5.39 1.752l-29.199 23.394-34.999-13.226a8.018 8.018 0 0 0-5.668 0l-34.999 13.226-29.199-23.394a8.03 8.03 0 0 0-5.39-1.752l-37.373 1.764-20.541-31.271a8.017 8.017 0 0 0-4.586-3.332l-36.089-9.871-9.871-36.089a8.022 8.022 0 0 0-3.332-4.586l-31.271-20.541 1.764-37.373a8.012 8.012 0 0 0-1.752-5.39l-23.394-29.199 13.227-34.999a8.019 8.019 0 0 0 0-5.668l-13.227-34.999 23.394-29.199a8.014 8.014 0 0 0 1.752-5.39l-1.764-37.373 31.271-20.541a8.017 8.017 0 0 0 3.332-4.586l9.871-36.089 36.089-9.871a8.022 8.022 0 0 0 4.586-3.332l20.541-31.271 37.373 1.764a8.022 8.022 0 0 0 5.39-1.752l29.199-23.394 34.999 13.227c1.827.69 3.842.69 5.668 0l34.999-13.227 29.199 23.394a8.01 8.01 0 0 0 5.39 1.752l37.373-1.764 20.541 31.271a8.017 8.017 0 0 0 4.586 3.332l36.089 9.871 9.871 36.089a8.022 8.022 0 0 0 3.332 4.586l31.271 20.541-1.764 37.373a8.012 8.012 0 0 0 1.752 5.39l23.394 29.199-13.227 34.999a8.024 8.024 0 0 0 .001 5.668z" fill="#f9d50d"/><path d="M406.634 117.574a209.24 209.24 0 0 0-12.573-12.573 8.017 8.017 0 0 0-11.327.484 8.016 8.016 0 0 0 .484 11.327c2.003 1.84 3.997 3.75 5.925 5.678a194.67 194.67 0 0 1 5.679 5.926 7.996 7.996 0 0 0 5.908 2.595c1.937 0 3.88-.698 5.419-2.111a8.015 8.015 0 0 0 .485-11.326zm-41.042-34.449c-38.66-24.63-85.206-35.576-131.059-30.829-46.525 4.82-90.395 25.722-123.531 58.857-36.467 36.467-57.699 84.911-59.785 136.408-2.073 51.194 14.883 100.898 47.746 139.954a7.998 7.998 0 0 0 6.139 2.855 8.017 8.017 0 0 0 6.13-13.177c-30.281-35.989-45.905-81.795-43.995-128.982 1.922-47.462 21.49-92.11 55.101-125.72 30.54-30.541 70.972-49.806 113.846-54.247 42.275-4.38 85.171 5.709 120.792 28.403a8.016 8.016 0 0 0 11.068-2.453 8.017 8.017 0 0 0-2.452-11.069zm62.919 62.918a8.017 8.017 0 1 0-13.522 8.614c22.694 35.622 32.781 78.52 28.403 120.792-4.441 42.874-23.706 83.305-54.246 113.847-33.611 33.61-78.259 53.179-125.72 55.101-47.179 1.918-92.994-13.713-128.982-43.993a8.016 8.016 0 0 0-11.295.973 8.016 8.016 0 0 0 .973 11.295c36.921 31.065 83.351 47.917 131.566 47.916 2.789 0 5.589-.057 8.389-.17 51.497-2.085 99.94-23.317 136.408-59.784 33.136-33.136 54.039-77.007 58.857-123.532 4.748-45.856-6.201-92.4-30.831-131.059z" fill="#f9d50d"/></svg>