<svg xmlns="http://www.w3.org/2000/svg" viewBox="0 0 512 512" width="512" height="512"><path d="M418.117 118.823c-.193-8.938-7.624-16.209-16.564-16.209h-77.679V67.875C323.875 30.448 293.426 0 256 0s-67.875 30.448-67.875 67.875v34.739h-77.679c-8.939 0-16.37 7.271-16.564 16.208l-8.179 376.251a16.441 16.441 0 0 0 4.721 11.947 16.443 16.443 0 0 0 11.842 4.981h307.465c4.494 0 8.7-1.769 11.842-4.981a16.436 16.436 0 0 0 4.721-11.947l-8.177-376.25zm-102.259 34.029c5.01 0 9.086 4.076 9.086 9.086s-4.076 9.086-9.086 9.086c-5.01 0-9.086-4.076-9.086-9.086s4.076-9.086 9.086-9.086zm-119.716 0c5.01 0 9.086 4.076 9.086 9.086s-4.076 9.086-9.086 9.086-9.086-4.076-9.086-9.086 4.076-9.086 9.086-9.086zm213.973 342.954c-.157.16-.326.16-.382.16H102.267c-.056 0-.224 0-.382-.16s-.154-.329-.153-.385l8.179-376.251a.537.537 0 0 1 .534-.523h77.679v19.49c-9.93 3.354-17.102 12.752-17.102 23.8 0 13.851 11.268 25.119 25.119 25.119s25.119-11.268 25.119-25.119c0-11.048-7.172-20.446-17.102-23.8v-19.491h77.494a8.017 8.017 0 0 0 0-16.034h-77.494V67.875c0-28.585 23.256-51.841 51.841-51.841S307.84 39.29 307.84 67.875v70.263c-9.93 3.354-17.102 12.752-17.102 23.8 0 13.851 11.268 25.119 25.119 25.119 13.851 0 25.119-11.268 25.119-25.119 0-11.048-7.172-20.446-17.102-23.8v-19.49h77.679c.289 0 .528.234.534.523l8.179 376.251a.5.5 0 0 1-.151.384z" fill="#f9d50d"/><path d="M384.267 461.762h-17.105a8.017 8.017 0 0 0 0 16.034h17.105a8.017 8.017 0 0 0 0-16.034zm-51.307 0H127.733a8.017 8.017 0 0 0 0 16.034H332.96a8.017 8.017 0 0 0 0-16.034zm5.669-219.981a8.016 8.016 0 0 0-11.337 0l-153.921 153.92a8.016 8.016 0 0 0 5.668 13.685 7.988 7.988 0 0 0 5.668-2.348l153.921-153.921a8.015 8.015 0 0 0 .001-11.336zm-133.936-10.9c-23.281 0-42.221 18.941-42.221 42.221s18.941 42.221 42.221 42.221 42.221-18.941 42.221-42.221-18.94-42.221-42.221-42.221zm0 68.409c-14.44 0-26.188-11.748-26.188-26.188s11.748-26.188 26.188-26.188 26.188 11.748 26.188 26.188-11.748 26.188-26.188 26.188zm102.614 34.205c-23.281 0-42.221 18.941-42.221 42.221 0 23.281 18.941 42.221 42.221 42.221s42.221-18.941 42.221-42.221c0-23.28-18.941-42.221-42.221-42.221zm0 68.409c-14.44 0-26.188-11.748-26.188-26.188s11.748-26.188 26.188-26.188 26.188 11.748 26.188 26.188-11.748 26.188-26.188 26.188z" fill="#f9d50d"/></svg>