<svg id="Layer_1" xmlns="http://www.w3.org/2000/svg" viewBox="0 0 76.2 75.6"><style>.st0{fill:#383df4}</style><path class="st0" d="M71.4 4.9C65-1.6 54.6-1.7 48.1 4.7L3.9 48.8c-.5.5-.8 1.1-.9 1.7L.1 71c-.2 1.1.1 2.1.8 3 .6.9 1.6 1.4 2.6 1.6h.6L25.5 73c.7-.1 1.3-.4 1.8-.9l43.9-44c3.1-3.1 4.9-7.2 5-11.6-.1-4.3-1.8-8.5-4.8-11.6zM61.3 29.5L23.6 67.2 6.3 69.3l2.4-17 37.7-37.7 14.9 14.9zm8.7-13c0 2.8-1.1 5.5-3.1 7.4l-1.3 1.3-14.9-14.8L52 9.1c2-2 4.6-3.1 7.4-3.1h.1c2.8 0 5.4 1.1 7.4 3 2 2 3.1 4.7 3.1 7.5z"/></svg>