<svg id="Layer_1" data-name="Layer 1" xmlns="http://www.w3.org/2000/svg" viewBox="0 0 94.24 94.65"><title>logo-mobile</title><path d="M638.9,387.14a48.25,48.25,0,0,1,1-9.21,47.72,47.72,0,0,1,2.7-8.82,46.65,46.65,0,0,1,4.32-8.12c.44-.63.87-1.27,1.32-1.88s.93-1.22,1.41-1.81l1.48-1.72,1.63-1.73a47.53,47.53,0,0,1,7-5.86,46.49,46.49,0,0,1,8-4.39,47.47,47.47,0,0,1,17.85-3.8,48.87,48.87,0,0,1,9.15.75,46.77,46.77,0,0,1,8.85,2.48,48.29,48.29,0,0,1,10.19,5.49l-1.68,1.88c-14.83-12.09-35-7.92-35-7.92-23.17,3.95-33.09,26.69-33.09,26.69a50.3,50.3,0,0,0,1.38,5.76l1.81-2.44c.3-.39.61-.84,1-1.31l1.23-1.49,1.4-1.69,1.65-1.78c1.12-1.28,2.5-2.5,3.9-3.85l2.3-1.93c.38-.34.8-.64,1.23-1l1.28-.93a45.83,45.83,0,0,1,5.61-3.42,15.69,15.69,0,0,1,1.52-.74l1.55-.7c.52-.23,1.06-.4,1.6-.61s1.07-.41,1.62-.57c1.1-.3,2.19-.68,3.31-.88l1.67-.35,1.68-.24.84-.11.84-.06c.56,0,1.11-.09,1.67-.12,1.11,0,2.2-.06,3.28,0a39.43,39.43,0,0,1,6.16.75,44.27,44.27,0,0,1,13,4.83l.83.48L705,358.32l-.48-.29a42.55,42.55,0,0,0-12.35-5,38,38,0,0,0-5.92-.89c-1-.11-2.09-.08-3.16-.11l-1.61.07-.81,0-.81.09-1.64.18-1.63.29c-1.1.16-2.16.5-3.24.76-.54.14-1.06.34-1.59.51s-1.06.33-1.58.55l-1.54.64a15.17,15.17,0,0,0-1.51.68,45.1,45.1,0,0,0-5.61,3.21l-1.29.89a15.27,15.27,0,0,0-1.24.91l-2.33,1.85c-1.42,1.3-2.83,2.48-4,3.72l-1.7,1.73-1.44,1.65-1.27,1.45c-.38.46-.71.89-1,1.28l-1.87,2.39c6.87,22.49,24.84,13,24.84,13,4.25-14.15,19.35-12.53,19.35-12.53l.56-.52-1.12,1.25,2-1.85,1.43-1.34,2-1.9,1.45-1.36,2.63-2.46,1.11-1,2.61-2.45,1.51-1.41,3-2.83,1.06-1,3.15-3,.36-.34,1.12-1,1.9-1.76h0l2-1.89q.88.71,1.72,1.47-3.61,3.44-7.2,6.92c-2.71,2.63-5.45,5.24-8.14,7.89s-5.41,5.27-8.09,7.94c-1.07,1.06-2.13,2.13-3.2,3.19-2.39-.5-4.7-.76-6.78,1.42-1.89,2-3.21,4.3-2.09,6.92.61,1.43,2.33,2.39,3.55,3.56l.86-.54c-1.41-5.7,1.48-8.82,6.26-11l-1.17-.25c1-.9,2.11-1.79,3.15-2.7,2.87-2.46,5.7-5,8.55-7.45s5.67-5,8.5-7.5c1.35-1.19,2.69-2.4,4-3.6l.66-.59c1.26-1.12,2.52-2.23,3.77-3.36l0,0a1.22,1.22,0,0,0,0-1.73l0,0a50.29,50.29,0,0,0-7.51-6.22,48.45,48.45,0,0,0-8.62-4.6,49.83,49.83,0,0,0-9.38-2.82,48.35,48.35,0,0,0-9.76-.89,49.09,49.09,0,0,0-27.7,8.75,50.49,50.49,0,0,0-7.51,6.36l-1.6,1.76-1.59,1.92c-.51.65-1,1.31-1.47,2s-.91,1.36-1.37,2a48.66,48.66,0,0,0-6.41,37.44,47.23,47.23,0,0,0,3.14,9.12,46.42,46.42,0,0,0,4.88,8.26,46.92,46.92,0,0,0,6.41,7.06,50.22,50.22,0,0,1-10.07-15.84A48.66,48.66,0,0,1,638.9,387.14Zm69.78-33.33c-.87-.6-2-1.28-3.23-2s-2.76-1.51-4.42-2.23c-1.22-.53-2.54-1.07-4-1.54a3,3,0,0,1-5.67-1.39s0-.06,0-.09l-.61-.11-.83-.15-.84-.1a36.65,36.65,0,0,0-7-.24l-1.79.16c-.6,0-1.19.18-1.79.26a33.24,33.24,0,0,0-3.56.76,18.06,18.06,0,0,0-1.74.53c-.58.19-1.16.37-1.73.58l-1.67.7a16.41,16.41,0,0,0-1.64.75,44.54,44.54,0,0,0-6.06,3.6l-1.38,1-.68.5c-.22.17-.43.36-.64.53l-2.47,2.1c-1.51,1.47-3,2.82-4.19,4.22-.62.68-1.22,1.33-1.77,2l-1.5,1.86-1.32,1.64-1,1.45-2,2.75,1.9-2.8,1-1.48,1.28-1.67,1.45-1.9c.54-.65,1.13-1.31,1.73-2,1.17-1.44,2.62-2.83,4.11-4.35l2.44-2.18c.21-.18.42-.38.63-.55l.68-.52,1.37-1.05a45.27,45.27,0,0,1,6.07-3.82,17,17,0,0,1,1.66-.81l1.69-.76c.58-.23,1.17-.43,1.75-.64s1.17-.45,1.78-.59a34.32,34.32,0,0,1,3.64-.88c.61-.1,1.22-.26,1.84-.32l1.84-.21a37.94,37.94,0,0,1,7.23.06l.87.08.86.13.78.12a3,3,0,0,1,5.6,1.3c1.53.46,3,1,4.28,1.53,1.75.7,3.28,1.48,4.64,2.19s2.49,1.41,3.41,2l.48.32-1.3,1.45Zm-59.85,22c.28-.34.56-.74.91-1.14l1.13-1.29c.41-.46.83-1,1.3-1.46l1.52-1.55.49-.49a1,1,0,0,1,1.42-1.32c.55-.49,1.09-1,1.69-1.5l2.09-1.67c.73-.54,1.51-1.06,2.29-1.61s1.63-1,2.46-1.52,1.74-.92,2.62-1.39,1.84-.82,2.77-1.22,1.9-.72,2.88-1,2-.58,3-.77c.5-.1,1-.23,1.49-.31l1.5-.23c.5-.09,1-.12,1.49-.17s1-.11,1.48-.12c1,0,2-.09,2.92,0a38.86,38.86,0,0,1,5.52.48,44,44,0,0,1,4.85,1.06,42.73,42.73,0,0,1,7,2.64l.62.31L700.88,363l-.15-.08a40.92,40.92,0,0,0-6.58-2.73,42.37,42.37,0,0,0-4.63-1.16,37.43,37.43,0,0,0-5.3-.63c-.93-.07-1.87,0-2.82,0-.48,0-1,.05-1.44.08s-1,0-1.45.12l-1.46.18c-.49.06-1,.17-1.46.25-1,.15-1.93.42-2.9.66s-1.9.59-2.84.88-1.85.72-2.74,1.11-1.78.82-2.62,1.29-1.68.91-2.47,1.42-1.56,1-2.31,1.52l-2.12,1.58c-.62.48-1.19,1-1.75,1.46a1,1,0,0,1-1.4,1.22l-.52.5-1.56,1.49c-.48.49-.92,1-1.34,1.42l-1.17,1.25c-.36.39-.66.77-.95,1.11L647.12,378Zm-.64,4.75,1.56-1.93c.48-.63,1.14-1.33,1.87-2.15s1.62-1.7,2.58-2.65c.47-.49,1-.94,1.57-1.43s1.11-1,1.74-1.46,1.24-1,1.91-1.45,1.36-.94,2.08-1.41,1.47-.89,2.24-1.32,1.56-.83,2.38-1.2a39.73,39.73,0,0,1,10.41-3.17,40.81,40.81,0,0,1,5.28-.44c.86,0,1.71,0,2.54,0s1.64.08,2.42.18a43.18,43.18,0,0,1,4.4.67,42.19,42.19,0,0,1,6.42,1.87c.51.19.93.37,1.28.52l-1.37,1.53-.63-.27a40.39,40.39,0,0,0-6.07-2,41.58,41.58,0,0,0-4.21-.79c-.75-.12-1.53-.17-2.33-.26s-1.61-.12-2.45-.11a39.54,39.54,0,0,0-5.12.25,38.72,38.72,0,0,0-10.24,2.73c-.81.34-1.59.74-2.37,1.09s-1.51.82-2.25,1.22-1.41.89-2.1,1.31-1.31.93-1.94,1.37-1.2.93-1.77,1.39-1.12.89-1.6,1.36c-1,.91-1.92,1.74-2.66,2.55s-1.44,1.47-1.94,2.08Zm1.72,2.58,1.37-1.71c.42-.56,1-1.17,1.66-1.9s1.45-1.48,2.3-2.33c.44-.41.92-.81,1.41-1.24s1-.85,1.56-1.26,1.1-.86,1.72-1.25,1.21-.84,1.87-1.2,1.3-.79,2-1.13,1.39-.72,2.13-1l1.1-.48,1.13-.42c.75-.3,1.53-.52,2.3-.76s1.57-.41,2.35-.61l1.26-.25s0,0,0-.06a2.3,2.3,0,0,1,4.55-.51l1.23-.07a42.33,42.33,0,0,1,4.39.08c1.39.09,2.71.25,3.91.44a41.94,41.94,0,0,1,5.76,1.33c.57.18,1,.33,1.38.46l-1.41,1.57-.58-.21a40.11,40.11,0,0,0-5.45-1.48c-1.15-.23-2.41-.44-3.75-.58a40.88,40.88,0,0,0-4.23-.24l-1.35,0a2.29,2.29,0,0,1-4.12.35l-1.37.21c-.76.17-1.54.3-2.3.5s-1.53.39-2.27.65l-1.12.36-1.09.42c-.73.27-1.43.59-2.12.92s-1.35.68-2,1-1.27.74-1.88,1.11-1.19.77-1.74,1.17-1.1.77-1.59,1.19-1,.78-1.44,1.17c-.87.81-1.72,1.51-2.38,2.23s-1.29,1.28-1.73,1.82ZM690.09,374a36.37,36.37,0,0,0-4.83-1.18,38.58,38.58,0,0,0-7-.57,36.69,36.69,0,0,0-4,.27c-.68.08-1.35.2-2,.31s-1.36.26-2,.44-1.35.34-2,.56l-1,.31-1,.36c-.65.23-1.27.51-1.88.78s-1.21.57-1.79.87-1.14.62-1.69.93-1.07.65-1.57,1c-1,.64-1.91,1.35-2.75,2s-1.57,1.27-2.18,1.88-1.19,1.08-1.6,1.54l-1.34,1.4,1.27-1.46c.39-.48.94-1,1.53-1.61s1.33-1.26,2.1-2,1.68-1.43,2.69-2.13c.49-.36,1-.73,1.54-1.06s1.08-.71,1.67-1,1.16-.67,1.79-1,1.24-.62,1.89-.88l1-.41,1-.37c.66-.26,1.35-.46,2-.67s1.38-.36,2.07-.55,1.39-.3,2.09-.41a38,38,0,0,1,4.11-.46,40.12,40.12,0,0,1,7.34.27,38.19,38.19,0,0,1,5.13,1c.61.17,1.09.32,1.42.43l.18.06-1.43,1.59Z" transform="translate(-636.64 -336.55)"/><path d="M650.8,403c8.11,3.65,20.29-.3,18.31-12.7-5.41,3-10.68,2.32-15.89-.53a26.05,26.05,0,0,0-2.81-1.21c-1.79-2.89-3.63-5.28-4.83-7.95a67.56,67.56,0,0,1-2.61-8.47l-.64-.16c-.85,4.22-2,8.4-2.47,12.66C638.92,393,643.1,399.48,650.8,403Z" transform="translate(-636.64 -336.55)"/><path d="M662.25,417c9.09-1.76,12.53-9.87,7.27-18-3.61,5.89-9.39,7.57-15.14,6.81s-10.15-4.67-14-9.19a59.68,59.68,0,0,0,2.83,10C646.33,414.64,653.76,418.63,662.25,417Z" transform="translate(-636.64 -336.55)"/><path d="M676.16,423.26c5-4.37,6.94-13.6-2-17.43-1.8,10.12-9.64,15.92-24,12,2.56,2.23,5,4.66,7.7,6.65A14.69,14.69,0,0,0,676.16,423.26Z" transform="translate(-636.64 -336.55)"/><path d="M680.88,409.28c2.51,8.46,0,16.17-13.51,20,2.87.55,5.74,1.09,8.6,1.67,8,1.62,14.42-6.71,14.72-12.42C691,412.47,686.74,408.36,680.88,409.28Z" transform="translate(-636.64 -336.55)"/><path d="M700,413.08c-1.59-5.69-8.78-8.8-12.39-4.41,6.45,6,6.43,13.56-1.28,21.73a73,73,0,0,0,6.89-2.43C699.21,425.2,701.79,419.4,700,413.08Z" transform="translate(-636.64 -336.55)"/><path d="M705.48,404.21c-3-4.17-10.79-5.66-13,.55,8.06,2.69,10.84,6.78,9,17.16C708.23,417.95,709.91,410.43,705.48,404.21Z" transform="translate(-636.64 -336.55)"/><path d="M710.86,403.93a10.05,10.05,0,0,0-8.66-11.11c-4.41-.66-7.57,2.19-7.49,6.86,8.09-2.1,12.39,2,14.92,9.3A22.73,22.73,0,0,0,710.86,403.93Z" transform="translate(-636.64 -336.55)"/><path d="M697.33,385.78c-4,1-5.25,4.55-3.42,8.91,5.57-5.33,10.83-3.93,16.16.73C708,385.92,702.89,384.34,697.33,385.78Z" transform="translate(-636.64 -336.55)"/><path d="M704,384.36c-3.3-3.19-5.91-5.58-10.13-4.3-2.93.89-5.12,2.59-5.42,5.61-.17,1.69.88,3.5,1.38,5.26l1.3-.13C693.06,384.7,697.41,382.94,704,384.36Z" transform="translate(-636.64 -336.55)"/><path d="M683,390.12c-3.15-3.84-2.93-7.67.21-11.44-5.06,1-7.33,3.87-6.42,7.95C677.49,389.68,679.48,390.91,683,390.12Z" transform="translate(-636.64 -336.55)"/><path d="M674.61,393c1.8,1.55,3.74,1.75,5.64-.5-3.7-1.67-5.48-4.34-5.06-8.85C671.82,387.63,671.69,390.51,674.61,393Z" transform="translate(-636.64 -336.55)"/><path d="M674.82,398.37c2.45.65,3.64-.08,4-1.66l-7.56-4.22C670.52,395.38,671.63,397.53,674.82,398.37Z" transform="translate(-636.64 -336.55)"/><path d="M677.23,402.76c1.67-.32,3.18-1.15,2.94-3l-7.83.29C672.91,402.32,674.75,403.23,677.23,402.76Z" transform="translate(-636.64 -336.55)"/><path d="M683.14,401.94c-.31-.11-.75-.43-.92-.32l-5.58,3.46c-.09.05.11.55.16.83,1.55-.31,3.25-.33,4.6-1C682.26,404.43,682.58,403,683.14,401.94Z" transform="translate(-636.64 -336.55)"/><path d="M690.19,393.18a5.06,5.06,0,1,0-6.66,7.39l-.07,0,.26.07a5.05,5.05,0,0,0,1.38.52c1.56.77,2.92,2.27-2.61,4.46,0,0,9.56-.51,8.68-8.58A5,5,0,0,0,690.19,393.18Z" transform="translate(-636.64 -336.55)"/><path d="M720.51,362.48l.15.07.1.05s0,0,0,0l0,0s-.07,0-.11-.1.24-.1.18-.16.08-.11.15-.17c-.1-.19-.33-.34-.35-.5s-.24-.41-.29-.61a10.58,10.58,0,0,0-.44-1.16,9.5,9.5,0,0,0-.54-1.09,8.47,8.47,0,0,0-.67-1,8.33,8.33,0,0,0-.78-.88l-.44-.38a2.76,2.76,0,0,0-.39-.29l-.66.59a3.69,3.69,0,0,1,.24.39l.23.43a6.75,6.75,0,0,1,.34.9,6.51,6.51,0,0,1,.21.92,9.13,9.13,0,0,1,.1.92,7.65,7.65,0,0,1,0,.91c0,.15,0,.29-.05.44a1.62,1.62,0,0,1-.08.35.07.07,0,0,0,0,0v.23a7.1,7.1,0,0,0,.06.8,4.19,4.19,0,0,0,.23.84,2.63,2.63,0,0,0,.2.41,2.88,2.88,0,0,0,.27.39,2.84,2.84,0,0,0,.35.36,2.52,2.52,0,0,0,.21.17,3.12,3.12,0,0,0,.32.21l.11.06,0,0,.26.12a.85.85,0,0,1,.25.13l.21.15c.07,0,.11.12.17.17a.58.58,0,0,1,.14.17,1.9,1.9,0,0,1,.12.18,1.84,1.84,0,0,0,.09.2l.07.23a1.56,1.56,0,0,1,0,.25,1.41,1.41,0,0,1,0,.27,3,3,0,0,1,0,.6,4.22,4.22,0,0,1-.13.64c0,.11-.06.21-.09.32l-.09.25-.08.2a1.39,1.39,0,0,0,0,.92,7.66,7.66,0,0,0,.49,1.27,9.3,9.3,0,0,0,.64,1.11c.24.32.47.66.73,1s.52.59.78.86a22.89,22.89,0,0,0,3.47,2.84l.48.31.43.27.2.16a1.16,1.16,0,0,1,.15.16.32.32,0,0,1,.08.14.43.43,0,0,1,0,.2,3.38,3.38,0,0,1-.79,1.07,8.08,8.08,0,0,1-.64.57c-.22.18-.49.37-.68.49l-.11.07a1.49,1.49,0,0,0-.68,1.42l.07.64a4,4,0,0,0,.12.61c.05.19.09.4.16.58l.19.55c.14.35.29.7.46,1l.15.27-.49,1.57a1.68,1.68,0,0,0,.3,1.54l-.19.16c-.16.14-.32.29-.47.44s-.24.33-.36.5a2.48,2.48,0,0,0-.29.56,2.75,2.75,0,0,0-.2.62,3,3,0,0,0-.08.67,2.37,2.37,0,0,0,0,.36,2.69,2.69,0,0,0,.08.47,1.56,1.56,0,0,0,1,1.07l.35.13.24.08c.07,0,.18,0,.23.07l.16.09c.07,0,.08.07.12.09a.19.19,0,0,1,.09.1s.06.06.07.11a.38.38,0,0,1,0,.12s0,0,0,.05,0,0,0,0h0V395a1.82,1.82,0,0,0,0,.27,2,2,0,0,0,0,.26c0,.09,0,.17-.07.27l-.12.28-.17.29-.21.29-.26.29-.3.29a8.06,8.06,0,0,1-.68.55c-.24.18-.51.35-.77.51a17.43,17.43,0,0,1-1.71.91,30.83,30.83,0,0,1-3.75,1.43q-1,.31-2,.57l-1,.25c-.32.08-.68.13-1,.18a1.62,1.62,0,0,0-1.38,1.53v.14a4.94,4.94,0,0,0,.09,1l.15,1,.26,1.73c-.18.28-.37.57-.55.85l-.22.35-.18.39-.35.77-.17.38a2.39,2.39,0,0,0-.13.4l-.21.81c0,.13-.08.26-.09.4l0,.41-.06.8.37-.71.18-.34c.06-.11.15-.21.23-.32l.46-.62a2.42,2.42,0,0,1,.23-.3l.27-.27.53-.54.26-.26.3-.23c.4-.31.79-.62,1.17-.92a.8.8,0,0,0,.29-.49l.05-.31.32-2,.1-.6.94-.24q1.06-.28,2.11-.61a34.12,34.12,0,0,0,4.16-1.59,20.74,20.74,0,0,0,2-1.08c.33-.21.67-.42,1-.66a11.37,11.37,0,0,0,1-.78l.46-.45.44-.5.41-.56c.13-.2.25-.42.36-.63s.2-.47.29-.7.14-.51.19-.76.06-.53.07-.79,0-.35,0-.53a3.19,3.19,0,0,0,0-.48,2.76,2.76,0,0,0-.08-.38,3.52,3.52,0,0,0-.26-.72,3.29,3.29,0,0,0-.39-.66,2.71,2.71,0,0,0-.5-.57,3.53,3.53,0,0,0-.53-.42h0l.15-.09h0l.08,0a2.87,2.87,0,0,0,.66-.51,2.42,2.42,0,0,0,.57-.95,2.33,2.33,0,0,0,0-1.24,2.9,2.9,0,0,0-.17-.49,2.74,2.74,0,0,0-.21-.37,2.44,2.44,0,0,0-.26-.34l.39-1.25a1.68,1.68,0,0,0-.17-1.37l0-.06c0-.06-.12-.19-.18-.3s-.13-.23-.19-.35-.22-.47-.32-.71l-.12-.35a.92.92,0,0,1,0-.14l.06,0a11.38,11.38,0,0,0,.91-.81,6.5,6.5,0,0,0,1.57-2.3,3.75,3.75,0,0,0,.21-1.83,3.65,3.65,0,0,0-.76-1.73,4.47,4.47,0,0,0-.56-.59,6.25,6.25,0,0,0-.62-.48l-.45-.28-.39-.26a19.61,19.61,0,0,1-2.95-2.41c-.21-.22-.43-.44-.61-.67s-.36-.46-.53-.69a6,6,0,0,1-.4-.69,1.74,1.74,0,0,1-.1-.23c0-.13.09-.26.12-.4a7.52,7.52,0,0,0,.22-1.08,6.27,6.27,0,0,0,.05-1.15,4.2,4.2,0,0,0-.05-.6,4.66,4.66,0,0,0-.11-.61c-.06-.2-.11-.41-.18-.61s-.18-.4-.27-.59a5.26,5.26,0,0,0-.35-.56,3,3,0,0,0-.41-.5,4.66,4.66,0,0,0-.46-.45l-.5-.37a4.25,4.25,0,0,0-.51-.31Z" transform="translate(-636.64 -336.55)"/><path d="M721,362.06s0,.05-.06.08a.39.39,0,0,1,.06.19Z" transform="translate(-636.64 -336.55)"/></svg>