<?xml version="1.0" encoding="UTF-8" standalone="no"?>
<svg
   xmlns:dc="http://purl.org/dc/elements/1.1/"
   xmlns:cc="http://creativecommons.org/ns#"
   xmlns:rdf="http://www.w3.org/1999/02/22-rdf-syntax-ns#"
   xmlns:svg="http://www.w3.org/2000/svg"
   xmlns="http://www.w3.org/2000/svg"
   viewBox="0 0 465.09332 126.19667"
   height="126.19667"
   width="465.09332"
   xml:space="preserve"
   id="svg2"
   version="1.1"><metadata
     id="metadata8"><rdf:RDF><cc:Work
         rdf:about=""><dc:format>image/svg+xml</dc:format><dc:type
           rdf:resource="http://purl.org/dc/dcmitype/StillImage" /></cc:Work></rdf:RDF></metadata><defs
     id="defs6"><clipPath
       id="clipPath18"
       clipPathUnits="userSpaceOnUse"><path
         id="path16"
         d="M 0,94.647 H 348.82 V 0 H 0 Z" /></clipPath></defs><g
     transform="matrix(1.3333333,0,0,-1.3333333,0,126.19667)"
     id="g10"><g
       id="g12"><g
         clip-path="url(#clipPath18)"
         id="g14"><g
           transform="translate(129.7009,48.8951)"
           id="g20"><path
             id="path22"
             style="fill:#000000;fill-opacity:1;fill-rule:nonzero;stroke:none"
             d="m 0,0 v -7.257 c 0,-3.575 -5.592,-4.357 -7.746,-4.357 -1.343,0 -2.521,0.137 -3.499,0.41 -2.342,0.658 -3.889,2.228 -4.242,4.309 -0.359,2.116 0.623,4.332 2.505,5.65 1.741,1.222 4.322,1.867 7.464,1.867 C -3.715,0.622 -1.823,0.408 0,0 m 7.345,-11.231 c -1.863,0 -2.119,0.957 -2.119,1.991 V 7.578 c 0,2.172 -0.484,3.88 -1.537,5.392 -2.087,2.879 -6.322,4.597 -11.328,4.597 -4.245,0 -9.635,-1.375 -12.032,-5.233 -0.294,-0.475 -0.151,-1.099 0.322,-1.396 l 2.75,-1.725 c 0.463,-0.29 1.072,-0.163 1.379,0.29 1.026,1.514 2.779,2.488 5.187,2.89 1.959,0.281 3.275,0.274 4.715,0.008 2.201,-0.428 3.884,-1.328 4.753,-2.554 C -0.18,9.333 0,8.693 0,7.834 V 4.95 c -1.917,0.308 -3.789,0.464 -5.58,0.464 -4.339,0 -8.005,-0.93 -10.588,-2.68 -3.458,-2.27 -5.2,-6.238 -4.545,-10.353 0.669,-4.205 3.672,-7.424 8.052,-8.615 1.776,-0.445 3.43,-0.671 4.915,-0.671 3.763,0 6.762,0.919 9.125,2.801 0.91,-1.093 2.481,-2.063 5.19,-2.063 0.276,0 0.559,0.011 0.848,0.032 0.531,0.037 0.943,0.48 0.943,1.011 v 2.879 c 0,0.56 -0.455,1.014 -1.015,1.014" /></g><g
           transform="translate(149.5788,37.4732)"
           id="g24"><path
             id="path26"
             style="fill:#000000;fill-opacity:1;fill-rule:nonzero;stroke:none"
             d="m 0,0 c -3.004,0 -3.653,0.547 -3.653,3.078 v 38.047 c 0,0.561 -0.454,1.015 -1.015,1.015 h -3.198 c -0.56,0 -1.014,-0.454 -1.014,-1.015 V 3.142 c 0,-5.518 2.449,-8.087 7.707,-8.087 0.395,0 0.807,0.013 1.235,0.04 0.535,0.032 0.953,0.476 0.953,1.012 v 2.878 C 1.015,-0.454 0.56,0 0,0" /></g><g
           transform="translate(174.0778,57.0484)"
           id="g28"><path
             id="path30"
             style="fill:#000000;fill-opacity:1;fill-rule:nonzero;stroke:none"
             d="m 0,0 v -9.145 c 0,-2.211 -2.254,-3.312 -3.572,-3.763 -0.876,-0.274 -1.852,-0.464 -3.015,-0.595 -0.404,-0.022 -0.807,-0.037 -1.207,-0.037 -0.738,0 -1.375,0.05 -1.98,0.155 -1.326,0.194 -5.655,1.071 -5.655,4.24 V 0 c 0,2.532 2.921,3.603 4.182,3.946 0.979,0.273 2.156,0.41 3.5,0.41 1.351,0 2.522,-0.134 3.565,-0.41 C -2.925,3.596 0,2.509 0,0 M 3.278,9.654 C 2.868,10.011 2.25,9.98 1.876,9.586 L 0.19,7.804 c -0.956,0.516 -1.961,0.907 -2.973,1.16 -1.49,0.453 -3.16,0.683 -4.964,0.683 -1.737,0 -3.403,-0.229 -4.928,-0.673 C -17.712,7.636 -20.719,4.281 -20.719,0 v -9.145 c 0,-2.655 1.13,-4.968 3.211,-6.638 -1.29,-1.284 -1.798,-3.079 -1.327,-4.791 0.594,-2.164 2.552,-3.716 5.233,-4.151 1.127,-0.185 2.376,-0.211 3.449,-0.211 0.494,0 0.997,0.006 1.503,0.013 0.504,0.006 1.011,0.013 1.514,0.013 5.096,0 6.816,-0.878 6.816,-3.483 v -1.149 c 0,-1.615 -0.636,-2.275 -2.959,-3.069 -1.12,-0.385 -2.669,-0.605 -4.248,-0.605 -1.485,0 -2.896,0.192 -4.072,0.549 -2.337,0.734 -3.387,1.675 -3.52,3.204 -0.11,0.774 -0.048,1.716 0.163,2.456 0.087,0.306 0.026,0.635 -0.166,0.89 -0.191,0.254 -0.492,0.403 -0.81,0.403 h -3.196 c -0.437,0 -0.825,-0.279 -0.963,-0.693 -0.389,-1.171 -0.368,-2.461 -0.305,-3.455 0.259,-4.081 2.899,-6.79 7.599,-7.825 1.6,-0.415 3.367,-0.608 5.562,-0.608 2.278,0 4.023,0.219 5.455,0.677 4.479,1.259 6.751,3.975 6.751,8.076 v 1.149 c 0,8.33 -6.973,8.378 -12.575,8.417 -1.765,0.012 -3.431,0.024 -4.828,0.257 -0.647,0.113 -1.065,0.385 -1.04,0.678 0.026,0.294 0.444,0.722 1.263,0.759 0.435,-0.107 1.039,-0.241 1.665,-0.312 0.02,-0.002 0.058,-0.004 0.095,-0.005 1.487,-0.208 3.032,-0.245 4.219,-0.128 1.648,0.075 3.151,0.472 4.314,0.823 4.605,1.587 7.142,4.698 7.142,8.759 V 0 c 0,1.58 -0.38,3.022 -1.132,4.299 L 5.78,6.081 C 5.97,6.282 6.069,6.552 6.057,6.828 6.042,7.105 5.917,7.363 5.708,7.544 Z" /></g><g
           transform="translate(204.5788,56.9839)"
           id="g32"><path
             id="path34"
             style="fill:#000000;fill-opacity:1;fill-rule:nonzero;stroke:none"
             d="m 0,0 v -14.835 c 0,-2.352 -2.516,-3.467 -3.599,-3.836 -1.983,-0.68 -4.266,-0.838 -6.532,-0.472 -2.473,0.428 -5.36,1.814 -5.36,4.308 V 0 c 0,2.419 2.62,3.511 4.167,3.943 1.204,0.317 2.408,0.478 3.579,0.478 1.17,0 2.374,-0.161 3.563,-0.475 C -2.924,3.596 0,2.509 0,0 m -2.782,8.964 c -1.49,0.454 -3.16,0.684 -4.963,0.684 -1.763,0 -3.383,-0.222 -4.929,-0.674 C -17.711,7.637 -20.719,4.282 -20.719,0 v -14.835 c 0,-4.742 3.729,-8.336 9.748,-9.38 1.12,-0.175 2.242,-0.263 3.33,-0.263 2.002,0 3.923,0.295 5.726,0.883 4.605,1.588 7.143,4.699 7.143,8.76 L 5.228,0 c 0,4.282 -3.008,7.637 -8.01,8.964" /></g><g
           transform="translate(231.7429,66.2154)"
           id="g36"><path
             id="path38"
             style="fill:#000000;fill-opacity:1;fill-rule:nonzero;stroke:none"
             d="m 0,0 c -1.355,0.35 -2.845,0.534 -4.305,0.534 -3.296,0 -6.168,-0.88 -8.234,-2.473 v 0.957 c 0,0.56 -0.454,1.014 -1.015,1.014 h -3.132 c -0.56,0 -1.014,-0.454 -1.014,-1.014 V -32.38 c 0,-0.56 0.454,-1.015 1.014,-1.015 h 3.261 c 0.561,0 1.015,0.455 1.015,1.015 v 22.509 c 0,3.451 5.057,5.289 8.709,5.289 0.99,0 1.895,-0.127 2.616,-0.367 0.28,-0.095 0.59,-0.061 0.843,0.092 0.254,0.152 0.429,0.408 0.477,0.7 l 0.513,3.005 C 0.836,-0.633 0.511,-0.131 0,0" /></g><g
           transform="translate(239.738,79.7408)"
           id="g40"><path
             id="path42"
             style="fill:#000000;fill-opacity:1;fill-rule:nonzero;stroke:none"
             d="m 0,0 h -3.644 c -0.56,0 -1.014,-0.454 -1.014,-1.015 v -5.691 c 0,-0.56 0.454,-1.014 1.014,-1.014 H 0 c 0.561,0 1.015,0.454 1.015,1.014 v 5.691 C 1.015,-0.454 0.561,0 0,0" /></g><g
           transform="translate(239.5466,66.2476)"
           id="g44"><path
             id="path46"
             style="fill:#000000;fill-opacity:1;fill-rule:nonzero;stroke:none"
             d="m 0,0 h -3.26 c -0.561,0 -1.014,-0.454 -1.014,-1.015 v -31.397 c 0,-0.561 0.453,-1.015 1.014,-1.015 H 0 c 0.562,0 1.015,0.454 1.015,1.015 V -1.015 C 1.015,-0.454 0.562,0 0,0" /></g><g
           transform="translate(261.1901,37.6636)"
           id="g48"><path
             id="path50"
             style="fill:#000000;fill-opacity:1;fill-rule:nonzero;stroke:none"
             d="m 0,0 c -4.878,0.148 -7.2,0.933 -7.2,4.997 v 18.64 c 2.194,0.041 4.34,0.041 6.594,0.041 0.561,0 1.014,0.454 1.014,1.014 v 2.877 c 0,0.561 -0.453,1.015 -1.014,1.015 H -7.2 v 12.479 c 0,0.56 -0.454,1.014 -1.015,1.014 h -3.197 c -0.561,0 -1.015,-0.454 -1.015,-1.014 V 28.584 h -4.484 c -0.562,0 -1.015,-0.454 -1.015,-1.015 v -2.877 c 0,-0.56 0.453,-1.014 1.015,-1.014 h 4.484 V 4.934 c 0,-6.314 4.116,-9.935 11.292,-9.935 0.384,0 0.772,0.011 1.16,0.033 0.538,0.029 0.959,0.474 0.959,1.012 v 2.942 C 0.984,-0.466 0.548,-0.017 0,0" /></g><g
           transform="translate(295.4343,66.5035)"
           id="g52"><path
             id="path54"
             style="fill:#000000;fill-opacity:1;fill-rule:nonzero;stroke:none"
             d="m 0,0 c -2.983,0 -6.958,-0.97 -9.32,-3.599 -1.793,2.332 -5.097,3.728 -9.033,3.728 -3.025,0 -5.636,-0.743 -7.681,-2.167 v 0.767 c 0,0.561 -0.454,1.015 -1.015,1.015 h -3.262 c -0.56,0 -1.014,-0.454 -1.014,-1.015 v -31.397 c 0,-0.561 0.454,-1.015 1.014,-1.015 h 3.262 c 0.561,0 1.015,0.454 1.015,1.015 v 22.318 c 0,3.347 3.661,5.461 7.187,5.572 l 0.168,10e-4 c 3.07,0 6.262,-1.487 6.474,-4.743 v -23.148 c 0,-0.561 0.454,-1.015 1.015,-1.015 h 3.197 c 0.56,0 1.014,0.454 1.014,1.015 L -6.98,-9.587 c 0.226,3.408 3.867,4.617 6.916,4.617 3.19,0 6.915,-1.275 6.915,-4.868 v -22.83 c 0,-0.561 0.454,-1.015 1.014,-1.015 h 3.262 c 0.561,0 1.015,0.454 1.015,1.015 V -9.902 C 12.142,-3.157 6.049,-0.069 0,0" /></g><g
           transform="translate(317.6872,79.7408)"
           id="g56"><path
             id="path58"
             style="fill:#000000;fill-opacity:1;fill-rule:nonzero;stroke:none"
             d="m 0,0 h -3.646 c -0.56,0 -1.013,-0.454 -1.013,-1.015 v -5.691 c 0,-0.56 0.453,-1.014 1.013,-1.014 H 0 c 0.561,0 1.015,0.454 1.015,1.014 v 5.691 C 1.015,-0.454 0.561,0 0,0" /></g><g
           transform="translate(317.4948,66.2476)"
           id="g60"><path
             id="path62"
             style="fill:#000000;fill-opacity:1;fill-rule:nonzero;stroke:none"
             d="m 0,0 h -3.262 c -0.56,0 -1.014,-0.454 -1.014,-1.015 v -31.397 c 0,-0.561 0.454,-1.015 1.014,-1.015 H 0 c 0.561,0 1.015,0.454 1.015,1.015 V -1.015 C 1.015,-0.454 0.561,0 0,0" /></g><g
           transform="translate(348.82,61.2047)"
           id="g64"><path
             id="path66"
             style="fill:#000000;fill-opacity:1;fill-rule:nonzero;stroke:none"
             d="M 0,0 V 3.965 C 0,4.525 -0.454,4.98 -1.015,4.98 h -3.261 c -0.561,0 -1.015,-0.455 -1.015,-1.015 V 0 c 0,-1.121 -0.049,-1.325 -0.838,-2.016 l -6.684,-6.394 -6.694,6.403 c -0.735,0.686 -0.828,0.911 -0.828,2.007 v 3.965 c 0,0.56 -0.454,1.015 -1.015,1.015 h -3.197 c -0.56,0 -1.015,-0.455 -1.015,-1.015 V 0 c 0,-2.438 0.407,-3.908 2.809,-6.171 l 5.815,-5.53 -5.811,-5.529 c -2.406,-2.266 -2.813,-3.737 -2.813,-6.174 v -3.965 c 0,-0.561 0.455,-1.015 1.015,-1.015 h 3.197 c 0.561,0 1.015,0.454 1.015,1.015 v 3.965 c 0,1.061 0.116,1.342 0.838,2.017 l 6.684,6.394 6.717,-6.423 c 0.741,-0.649 0.805,-0.916 0.805,-1.988 v -3.965 c 0,-0.561 0.454,-1.015 1.015,-1.015 h 3.261 c 0.561,0 1.015,0.454 1.015,1.015 v 3.965 c 0,2.335 -0.419,3.851 -2.813,6.174 l -5.867,5.529 5.878,5.537 C -0.419,-3.853 0,-2.335 0,0" /></g><g
           transform="translate(53.4455,57.2115)"
           id="g68"><path
             id="path70"
             style="fill:#000000;fill-opacity:1;fill-rule:nonzero;stroke:none"
             d="m 0,0 c -1.136,0.369 -2.797,0.822 -4.834,1.181 -2.036,0.351 -4.449,0.605 -7.042,0.57 -1.297,-0.017 -2.636,-0.103 -3.99,-0.269 -0.677,-0.076 -1.354,-0.2 -2.036,-0.306 -0.674,-0.15 -1.361,-0.258 -2.03,-0.442 -0.672,-0.173 -1.348,-0.338 -2.004,-0.56 l -0.988,-0.313 c -0.323,-0.121 -0.644,-0.241 -0.965,-0.361 -0.648,-0.227 -1.267,-0.507 -1.882,-0.777 -0.624,-0.255 -1.208,-0.575 -1.793,-0.867 -0.592,-0.281 -1.139,-0.622 -1.686,-0.934 -0.553,-0.305 -1.067,-0.647 -1.567,-0.981 -1.02,-0.639 -1.909,-1.354 -2.751,-1.984 -0.798,-0.685 -1.569,-1.271 -2.177,-1.876 -0.618,-0.591 -1.185,-1.081 -1.596,-1.54 -0.851,-0.891 -1.337,-1.399 -1.337,-1.399 0,0 0.463,0.53 1.274,1.459 0.392,0.477 0.936,0.993 1.531,1.614 0.583,0.635 1.331,1.257 2.104,1.982 0.819,0.672 1.685,1.435 2.687,2.127 0.491,0.361 0.997,0.73 1.543,1.064 0.541,0.341 1.082,0.713 1.67,1.026 0.582,0.323 1.163,0.675 1.786,0.963 0.616,0.305 1.236,0.619 1.888,0.88 0.322,0.137 0.647,0.275 0.972,0.413 l 0.998,0.366 c 0.663,0.257 1.348,0.458 2.031,0.667 0.681,0.22 1.382,0.363 2.07,0.548 0.697,0.141 1.391,0.3 2.086,0.409 1.39,0.235 2.771,0.385 4.114,0.462 2.685,0.156 5.204,0.005 7.343,-0.268 C -2.44,2.575 -0.678,2.179 0.546,1.842 1.159,1.676 1.638,1.524 1.968,1.415 2.034,1.392 2.089,1.373 2.143,1.354 L 0.717,-0.24 C 0.508,-0.166 0.27,-0.086 0,0 m -40.181,-9.142 c 0,0 0.5,0.622 1.375,1.711 0.421,0.56 1.014,1.167 1.661,1.897 0.632,0.744 1.452,1.479 2.3,2.331 0.436,0.413 0.92,0.809 1.405,1.24 0.48,0.438 1.009,0.848 1.56,1.263 0.546,0.423 1.105,0.859 1.716,1.251 0.603,0.401 1.205,0.837 1.865,1.203 0.652,0.379 1.302,0.79 2.004,1.125 0.691,0.357 1.391,0.72 2.126,1.021 0.364,0.16 0.73,0.319 1.097,0.479 l 1.128,0.419 c 0.749,0.298 1.527,0.515 2.3,0.758 0.773,0.239 1.565,0.406 2.347,0.608 0.421,0.076 0.84,0.164 1.259,0.247 -0.001,0.022 -0.006,0.041 -0.006,0.063 0,1.272 1.031,2.304 2.304,2.304 1.099,0 2.014,-0.77 2.246,-1.799 0.412,0.027 0.822,0.05 1.228,0.069 1.52,0.04 2.995,0.031 4.387,-0.078 1.393,-0.088 2.705,-0.254 3.91,-0.445 C 0.442,6.141 2.418,5.623 3.787,5.198 4.359,5.022 4.819,4.865 5.171,4.738 L 3.764,3.165 C 3.585,3.231 3.396,3.301 3.185,3.374 1.905,3.828 0.034,4.397 -2.269,4.859 c -1.15,0.228 -2.407,0.438 -3.746,0.576 -1.338,0.158 -2.758,0.221 -4.228,0.241 -0.445,-0.003 -0.896,-0.012 -1.35,-0.027 -0.332,-0.864 -1.165,-1.481 -2.147,-1.481 -0.841,0 -1.57,0.456 -1.972,1.13 -0.455,-0.07 -0.91,-0.146 -1.369,-0.21 -0.764,-0.166 -1.542,-0.298 -2.301,-0.501 -0.76,-0.206 -1.527,-0.388 -2.267,-0.649 l -1.117,-0.366 c -0.364,-0.141 -0.727,-0.283 -1.088,-0.425 -0.73,-0.266 -1.428,-0.594 -2.119,-0.917 -0.701,-0.301 -1.353,-0.679 -2.008,-1.026 -0.664,-0.334 -1.271,-0.74 -1.882,-1.111 -0.617,-0.363 -1.185,-0.772 -1.74,-1.167 -0.56,-0.389 -1.101,-0.775 -1.591,-1.189 -0.497,-0.406 -0.994,-0.781 -1.442,-1.174 -0.872,-0.81 -1.718,-1.511 -2.375,-2.226 -0.672,-0.699 -1.289,-1.283 -1.73,-1.824 -0.916,-1.053 -1.44,-1.655 -1.44,-1.655 m -1.717,2.577 c 0,0 0.568,0.702 1.562,1.929 0.481,0.629 1.136,1.331 1.875,2.149 0.718,0.837 1.614,1.699 2.583,2.652 0.471,0.49 1.018,0.94 1.566,1.426 0.555,0.478 1.108,1 1.737,1.461 0.621,0.469 1.237,0.985 1.909,1.454 0.68,0.457 1.365,0.94 2.08,1.404 0.734,0.432 1.474,0.888 2.238,1.32 0.786,0.393 1.565,0.826 2.381,1.199 1.636,0.737 3.332,1.427 5.089,1.939 1.743,0.563 3.544,0.917 5.321,1.227 1.786,0.243 3.558,0.436 5.281,0.444 0.861,0.04 1.707,-0.013 2.536,-0.021 0.826,-0.06 1.639,-0.083 2.424,-0.182 1.574,-0.142 3.047,-0.409 4.402,-0.673 C 3.79,10.595 5.99,9.883 7.503,9.298 8.011,9.105 8.435,8.93 8.786,8.777 L 7.414,7.244 C 7.22,7.33 7.015,7.42 6.786,7.517 5.374,8.119 3.292,8.875 0.714,9.512 c -1.292,0.297 -2.701,0.605 -4.212,0.794 -0.752,0.122 -1.534,0.17 -2.329,0.256 -0.798,0.036 -1.614,0.116 -2.446,0.105 -1.665,0.052 -3.382,-0.077 -5.123,-0.252 -1.73,-0.24 -3.493,-0.522 -5.207,-1.012 -1.728,-0.438 -3.405,-1.055 -5.033,-1.72 -0.811,-0.338 -1.59,-0.736 -2.374,-1.095 -0.766,-0.398 -1.508,-0.82 -2.246,-1.22 -0.72,-0.432 -1.411,-0.886 -2.098,-1.314 -0.68,-0.439 -1.306,-0.927 -1.938,-1.37 -0.638,-0.436 -1.203,-0.933 -1.77,-1.388 -0.56,-0.463 -1.119,-0.892 -1.604,-1.361 -0.994,-0.914 -1.917,-1.742 -2.661,-2.549 -0.764,-0.789 -1.443,-1.468 -1.944,-2.077 -1.036,-1.193 -1.627,-1.874 -1.627,-1.874 m 0.638,4.751 c 0.277,0.342 0.564,0.739 0.913,1.138 0.351,0.4 0.73,0.831 1.135,1.292 0.409,0.459 0.83,0.96 1.299,1.464 0.484,0.491 0.993,1.008 1.523,1.547 0.159,0.161 0.323,0.328 0.486,0.492 -0.135,0.168 -0.219,0.377 -0.219,0.609 0,0.539 0.437,0.976 0.977,0.976 0.256,0 0.487,-0.101 0.661,-0.263 0.546,0.49 1.094,1.006 1.692,1.498 0.68,0.541 1.379,1.097 2.093,1.666 0.735,0.541 1.511,1.061 2.287,1.608 0.783,0.54 1.632,1.005 2.464,1.521 0.84,0.502 1.741,0.921 2.624,1.392 0.904,0.429 1.836,0.817 2.767,1.219 0.959,0.327 1.902,0.722 2.885,0.996 0.98,0.282 1.957,0.58 2.957,0.771 0.498,0.101 0.99,0.235 1.491,0.308 0.5,0.077 0.999,0.154 1.497,0.23 0.496,0.09 0.997,0.122 1.493,0.171 0.497,0.04 0.991,0.105 1.485,0.124 0.986,0.031 1.962,0.09 2.922,0.048 1.922,-0.015 3.773,-0.218 5.515,-0.481 1.744,-0.262 3.366,-0.66 4.853,-1.057 2.963,-0.847 5.344,-1.841 6.966,-2.636 0.222,-0.107 0.427,-0.209 0.621,-0.307 l -1.333,-1.49 c -0.052,0.029 -0.099,0.054 -0.154,0.083 -1.514,0.802 -3.764,1.825 -6.583,2.727 -1.416,0.425 -2.964,0.857 -4.634,1.161 -1.667,0.305 -3.445,0.558 -5.298,0.629 -0.925,0.07 -1.867,0.04 -2.822,0.042 -0.477,-0.003 -0.955,-0.052 -1.438,-0.076 -0.481,-0.032 -0.968,-0.047 -1.45,-0.119 -0.484,-0.06 -0.97,-0.119 -1.457,-0.179 -0.488,-0.056 -0.968,-0.171 -1.455,-0.253 -0.977,-0.155 -1.935,-0.416 -2.898,-0.66 -0.965,-0.236 -1.895,-0.595 -2.842,-0.884 -0.921,-0.363 -1.846,-0.715 -2.744,-1.107 -0.878,-0.436 -1.776,-0.818 -2.618,-1.285 -0.832,-0.484 -1.684,-0.914 -2.471,-1.422 -0.782,-0.517 -1.564,-1.005 -2.307,-1.518 -0.725,-0.54 -1.433,-1.069 -2.123,-1.584 -0.619,-0.476 -1.187,-0.981 -1.753,-1.458 0.052,-0.12 0.083,-0.252 0.083,-0.391 0,-0.54 -0.437,-0.976 -0.976,-0.976 -0.187,0 -0.359,0.055 -0.507,0.144 -0.174,-0.166 -0.349,-0.333 -0.519,-0.495 -0.545,-0.519 -1.067,-1.018 -1.563,-1.492 -0.484,-0.487 -0.918,-0.973 -1.34,-1.417 -0.418,-0.448 -0.81,-0.866 -1.172,-1.254 -0.361,-0.387 -0.659,-0.774 -0.946,-1.107 -1.132,-1.35 -1.778,-2.12 -1.778,-2.12 0,0 0.622,0.791 1.711,2.175 m 59.847,21.987 c -0.867,0.6 -1.958,1.278 -3.232,2.02 -1.289,0.712 -2.755,1.505 -4.423,2.226 -1.224,0.533 -2.543,1.066 -3.952,1.538 -0.502,-0.962 -1.497,-1.625 -2.657,-1.625 -1.663,0 -3.011,1.348 -3.011,3.01 0,0.029 0.008,0.056 0.009,0.085 -0.205,0.038 -0.407,0.075 -0.613,0.113 -0.275,0.049 -0.551,0.098 -0.828,0.147 -0.279,0.033 -0.56,0.066 -0.841,0.1 -2.249,0.324 -4.605,0.353 -6.986,0.236 -0.594,-0.051 -1.191,-0.104 -1.789,-0.157 -0.602,-0.034 -1.19,-0.178 -1.788,-0.261 -1.202,-0.157 -2.374,-0.475 -3.556,-0.762 -0.596,-0.123 -1.163,-0.349 -1.743,-0.53 -0.575,-0.196 -1.157,-0.372 -1.726,-0.582 -0.559,-0.234 -1.117,-0.469 -1.674,-0.704 -0.556,-0.235 -1.119,-0.453 -1.643,-0.747 -2.153,-1.062 -4.195,-2.275 -6.065,-3.604 -0.465,-0.337 -0.925,-0.672 -1.381,-1.004 -0.228,-0.165 -0.455,-0.33 -0.681,-0.495 -0.221,-0.171 -0.428,-0.357 -0.641,-0.532 -0.845,-0.716 -1.671,-1.415 -2.475,-2.097 -1.508,-1.473 -2.988,-2.818 -4.188,-4.221 -0.618,-0.684 -1.223,-1.33 -1.774,-1.965 -0.528,-0.654 -1.028,-1.276 -1.498,-1.859 -0.471,-0.585 -0.911,-1.132 -1.318,-1.638 -0.38,-0.526 -0.728,-1.01 -1.043,-1.446 -1.256,-1.753 -1.973,-2.754 -1.973,-2.754 0,0 0.692,1.02 1.903,2.804 0.304,0.445 0.641,0.938 1.007,1.475 0.395,0.517 0.822,1.076 1.278,1.672 0.457,0.598 0.942,1.234 1.454,1.905 0.538,0.649 1.128,1.312 1.73,2.015 1.171,1.44 2.622,2.829 4.105,4.353 0.794,0.708 1.609,1.434 2.443,2.177 0.21,0.184 0.415,0.377 0.633,0.555 0.225,0.172 0.45,0.345 0.676,0.519 0.453,0.347 0.91,0.698 1.372,1.051 1.859,1.394 3.901,2.679 6.069,3.819 0.528,0.312 1.096,0.551 1.658,0.805 0.563,0.253 1.128,0.508 1.694,0.763 0.576,0.23 1.167,0.426 1.752,0.641 0.589,0.201 1.167,0.446 1.775,0.589 1.205,0.327 2.405,0.683 3.637,0.878 0.614,0.102 1.219,0.264 1.837,0.316 0.617,0.069 1.232,0.14 1.843,0.209 2.455,0.184 4.896,0.214 7.231,-0.061 0.293,-0.028 0.584,-0.055 0.874,-0.083 0.288,-0.043 0.575,-0.086 0.86,-0.129 0.264,-0.042 0.522,-0.083 0.784,-0.124 0.517,0.915 1.486,1.539 2.611,1.539 1.605,0 2.905,-1.26 2.993,-2.843 1.527,-0.462 2.955,-0.995 4.281,-1.533 1.745,-0.704 3.284,-1.485 4.64,-2.19 1.341,-0.735 2.492,-1.411 3.413,-2.015 0.17,-0.11 0.325,-0.212 0.48,-0.316 l -1.299,-1.452 c -0.082,0.057 -0.157,0.109 -0.244,0.169 m -69.775,-33.329 c 0.027,3.095 0.335,6.185 0.951,9.209 0.61,3.025 1.528,5.98 2.705,8.82 1.169,2.844 2.62,5.568 4.322,8.122 0.442,0.627 0.865,1.268 1.322,1.883 0.472,0.603 0.933,1.223 1.411,1.813 l 1.477,1.719 1.632,1.727 c 2.098,2.126 4.497,4.143 7.014,5.855 2.529,1.725 5.227,3.199 8.042,4.394 5.63,2.388 11.718,3.72 17.848,3.803 3.064,0.051 6.128,-0.226 9.147,-0.75 3.019,-0.533 5.987,-1.363 8.848,-2.478 3.597,-1.408 7.025,-3.256 10.193,-5.488 L 22.045,23.597 C 7.212,35.685 -12.932,31.513 -12.932,31.513 -36.102,27.565 -46.024,4.827 -46.024,4.827 c 0.383,-2.122 0.848,-4.03 1.376,-5.757 0.156,0.211 0.793,1.071 1.806,2.44 0.297,0.394 0.613,0.842 0.98,1.31 0.38,0.459 0.791,0.955 1.23,1.486 0.439,0.53 0.906,1.094 1.399,1.689 0.525,0.567 1.077,1.163 1.654,1.785 1.12,1.278 2.496,2.5 3.896,3.855 0.745,0.626 1.512,1.269 2.295,1.928 0.384,0.338 0.802,0.644 1.226,0.95 0.422,0.308 0.848,0.62 1.277,0.933 1.732,1.237 3.614,2.393 5.608,3.42 0.487,0.279 1,0.511 1.518,0.738 0.516,0.23 1.033,0.462 1.552,0.695 0.518,0.233 1.064,0.401 1.597,0.605 0.538,0.188 1.066,0.411 1.615,0.569 1.103,0.297 2.188,0.676 3.312,0.876 0.558,0.117 1.116,0.234 1.671,0.35 0.563,0.079 1.123,0.158 1.682,0.238 l 0.837,0.115 0.838,0.062 c 0.558,0.038 1.113,0.088 1.666,0.117 1.107,0 2.203,0.06 3.277,-0.023 2.154,-0.071 4.22,-0.38 6.159,-0.753 1.941,-0.373 3.734,-0.909 5.375,-1.438 3.266,-1.119 5.861,-2.393 7.618,-3.391 0.306,-0.171 0.577,-0.33 0.832,-0.482 l -1.317,-1.472 c -0.154,0.096 -0.31,0.192 -0.481,0.295 -1.647,0.997 -4.104,2.29 -7.216,3.453 -1.564,0.553 -3.276,1.118 -5.135,1.528 -1.856,0.41 -3.841,0.765 -5.916,0.89 -1.035,0.11 -2.093,0.081 -3.163,0.111 -0.534,-0.022 -1.072,-0.046 -1.613,-0.069 l -0.813,-0.037 -0.813,-0.089 c -0.543,-0.062 -1.089,-0.123 -1.636,-0.185 -0.542,-0.097 -1.085,-0.196 -1.63,-0.295 -1.098,-0.163 -2.161,-0.504 -3.244,-0.762 -0.539,-0.138 -1.059,-0.343 -1.59,-0.51 -0.525,-0.186 -1.063,-0.334 -1.576,-0.548 -0.513,-0.214 -1.025,-0.427 -1.536,-0.639 -0.513,-0.207 -1.023,-0.42 -1.508,-0.68 -1.982,-0.954 -3.867,-2.039 -5.61,-3.211 -0.433,-0.299 -0.862,-0.595 -1.287,-0.889 -0.428,-0.289 -0.85,-0.58 -1.238,-0.905 -0.794,-0.63 -1.571,-1.246 -2.327,-1.847 -1.425,-1.303 -2.828,-2.481 -3.977,-3.721 -0.591,-0.603 -1.158,-1.181 -1.696,-1.731 -0.508,-0.58 -0.989,-1.129 -1.441,-1.645 -0.453,-0.518 -0.877,-1.001 -1.268,-1.449 -0.379,-0.458 -0.707,-0.894 -1.015,-1.28 -1.052,-1.342 -1.713,-2.184 -1.874,-2.39 6.874,-22.487 24.838,-13.042 24.838,-13.042 4.254,14.147 19.35,12.526 19.35,12.526 l 0.56,0.519 -1.118,-1.249 1.978,1.852 1.433,1.342 2.026,1.896 1.448,1.357 2.631,2.462 1.111,1.041 2.614,2.447 1.51,1.414 3.026,2.832 1.058,0.991 3.155,2.953 0.361,0.339 1.121,1.038 1.903,1.765 c -0.005,0.005 -0.01,0.009 -0.015,0.013 l 2.023,1.895 c 0.585,-0.477 1.159,-0.966 1.722,-1.47 -2.408,-2.297 -4.813,-4.597 -7.2,-6.916 C 18.174,12.44 15.441,9.832 12.746,7.182 10.048,4.534 7.332,1.907 4.652,-0.761 3.578,-1.817 2.519,-2.89 1.451,-3.954 -0.941,-3.453 -3.254,-3.19 -5.33,-5.37 c -1.885,-1.979 -3.209,-4.295 -2.09,-6.919 0.61,-1.431 2.33,-2.388 3.548,-3.559 0.288,0.181 0.574,0.362 0.861,0.541 -1.413,5.699 1.479,8.819 6.264,10.969 -0.391,0.078 -0.782,0.164 -1.171,0.249 1.049,0.901 2.106,1.794 3.15,2.701 2.868,2.465 5.698,4.969 8.547,7.452 2.851,2.482 5.665,5.004 8.5,7.503 1.352,1.193 2.692,2.4 4.039,3.6 0.219,0.194 0.438,0.39 0.657,0.585 1.255,1.12 2.517,2.232 3.768,3.357 0.013,0.013 0.03,0.029 0.044,0.042 0.478,0.475 0.48,1.247 0.005,1.726 l -0.025,0.024 c -2.29,2.304 -4.806,4.393 -7.507,6.217 -2.702,1.825 -5.604,3.356 -8.622,4.604 -3.02,1.243 -6.166,2.189 -9.377,2.819 -3.21,0.64 -6.49,0.915 -9.762,0.894 -6.545,-0.065 -13.098,-1.389 -19.118,-3.994 -3.009,-1.299 -5.889,-2.897 -8.583,-4.76 -2.707,-1.875 -5.175,-3.962 -7.511,-6.365 l -1.602,-1.754 -1.586,-1.916 c -0.506,-0.65 -0.98,-1.311 -1.471,-1.966 -0.474,-0.665 -0.913,-1.356 -1.37,-2.033 -1.76,-2.753 -3.246,-5.679 -4.429,-8.719 -2.341,-6.091 -3.445,-12.631 -3.253,-19.112 0.111,-3.24 0.538,-6.462 1.272,-9.606 0.726,-3.147 1.795,-6.205 3.139,-9.123 1.339,-2.921 2.978,-5.694 4.879,-8.262 1.887,-2.579 4.057,-4.931 6.409,-7.058 -4.344,4.626 -7.768,10.028 -10.07,15.84 -2.282,5.821 -3.461,12.04 -3.393,18.237" /></g><g
           transform="translate(14.1594,28.2437)"
           id="g72"><path
             id="path74"
             style="fill:#000000;fill-opacity:1;fill-rule:nonzero;stroke:none"
             d="m 0,0 c 8.112,-3.654 20.293,0.298 18.31,12.703 -5.408,-3 -10.679,-2.319 -15.895,0.529 -1.081,0.591 -2.27,0.984 -2.812,1.214 -1.79,2.888 -3.625,5.277 -4.828,7.95 -1.201,2.673 -1.768,5.632 -2.613,8.465 -0.214,0.052 -0.429,0.104 -0.642,0.156 -0.847,-4.218 -2.002,-8.401 -2.474,-12.661 C -11.881,9.989 -7.708,3.472 0,0" /></g><g
           transform="translate(25.6047,14.2134)"
           id="g76"><path
             id="path78"
             style="fill:#000000;fill-opacity:1;fill-rule:nonzero;stroke:none"
             d="M 0,0 C 9.094,1.763 12.527,9.868 7.274,17.976 3.668,12.081 -2.119,10.4 -7.866,11.164 c -5.602,0.745 -10.151,4.666 -13.987,9.19 0.697,-3.516 1.611,-6.804 2.835,-9.972 C -15.916,2.35 -8.486,-1.645 0,0" /></g><g
           transform="translate(39.5158,7.94)"
           id="g80"><path
             id="path82"
             style="fill:#000000;fill-opacity:1;fill-rule:nonzero;stroke:none"
             d="M 0,0 C 4.972,4.375 6.943,13.604 -1.989,17.427 -3.787,7.309 -11.624,1.511 -26.013,5.472 -23.458,3.24 -21.046,0.811 -18.315,-1.181 -12.796,-5.205 -5.172,-4.551 0,0" /></g><g
           transform="translate(44.2409,21.9156)"
           id="g84"><path
             id="path86"
             style="fill:#000000;fill-opacity:1;fill-rule:nonzero;stroke:none"
             d="m 0,0 c 2.509,-8.465 0.005,-16.169 -13.506,-20.044 2.867,-0.554 5.738,-1.086 8.6,-1.666 C 3.083,-23.331 9.51,-15.003 9.813,-9.291 10.136,-3.19 5.86,0.92 0,0" /></g><g
           transform="translate(63.385,18.1177)"
           id="g88"><path
             id="path90"
             style="fill:#000000;fill-opacity:1;fill-rule:nonzero;stroke:none"
             d="m 0,0 c -1.589,5.689 -8.776,8.805 -12.395,4.413 6.453,-6.005 6.429,-13.559 -1.279,-21.733 2.301,0.799 4.689,1.412 6.886,2.432 C -0.818,-12.113 1.763,-6.313 0,0" /></g><g
           transform="translate(68.8332,26.9879)"
           id="g92"><path
             id="path94"
             style="fill:#000000;fill-opacity:1;fill-rule:nonzero;stroke:none"
             d="M 0,0 C -2.972,4.173 -10.792,5.661 -13.043,-0.547 -4.984,-3.234 -2.208,-7.33 -4.08,-17.704 2.75,-13.735 4.43,-6.22 0,0" /></g><g
           transform="translate(74.2146,27.2662)"
           id="g96"><path
             id="path98"
             style="fill:#000000;fill-opacity:1;fill-rule:nonzero;stroke:none"
             d="M 0,0 C 0.583,5.524 -3.17,10.284 -8.658,11.107 -13.066,11.769 -16.231,8.92 -16.147,4.244 -8.061,6.35 -3.761,2.211 -1.227,-5.055 -0.614,-3.278 -0.174,-1.653 0,0" /></g><g
           transform="translate(60.6897,45.4175)"
           id="g100"><path
             id="path102"
             style="fill:#000000;fill-opacity:1;fill-rule:nonzero;stroke:none"
             d="M 0,0 C -4.005,-1.039 -5.254,-4.55 -3.419,-8.914 2.15,-3.583 7.407,-4.982 12.74,-9.641 10.625,-0.142 5.557,1.442 0,0" /></g><g
           transform="translate(67.3483,46.8345)"
           id="g104"><path
             id="path106"
             style="fill:#000000;fill-opacity:1;fill-rule:nonzero;stroke:none"
             d="m 0,0 c -3.3,3.193 -5.908,5.577 -10.126,4.302 -2.934,-0.887 -5.123,-2.593 -5.424,-5.612 -0.169,-1.689 0.878,-3.501 1.377,-5.256 0.434,0.042 0.868,0.085 1.302,0.127 C -10.931,-0.339 -6.58,1.423 0,0" /></g><g
           transform="translate(46.385,41.0806)"
           id="g108"><path
             id="path110"
             style="fill:#000000;fill-opacity:1;fill-rule:nonzero;stroke:none"
             d="M 0,0 C -3.151,3.837 -2.934,7.665 0.207,11.44 -4.858,10.463 -7.122,7.574 -6.214,3.491 -5.536,0.44 -3.55,-0.794 0,0" /></g><g
           transform="translate(37.967,38.1705)"
           id="g112"><path
             id="path114"
             style="fill:#000000;fill-opacity:1;fill-rule:nonzero;stroke:none"
             d="M 0,0 C 1.8,-1.55 3.743,-1.75 5.644,0.503 1.949,2.174 0.167,4.842 0.583,9.354 -2.793,5.402 -2.922,2.515 0,0" /></g><g
           transform="translate(38.1774,32.8248)"
           id="g116"><path
             id="path118"
             style="fill:#000000;fill-opacity:1;fill-rule:nonzero;stroke:none"
             d="M 0,0 C 2.447,-0.646 3.638,0.077 3.983,1.658 1.331,3.139 -1.096,4.492 -3.576,5.876 -4.303,2.998 -3.191,0.843 0,0" /></g><g
           transform="translate(40.5817,28.439)"
           id="g120"><path
             id="path122"
             style="fill:#000000;fill-opacity:1;fill-rule:nonzero;stroke:none"
             d="M 0,0 C 1.675,0.319 3.178,1.151 2.94,3.028 0.167,2.924 -2.357,2.829 -4.894,2.733 -4.321,0.442 -2.478,-0.473 0,0" /></g><g
           transform="translate(46.4958,29.2554)"
           id="g124"><path
             id="path126"
             style="fill:#000000;fill-opacity:1;fill-rule:nonzero;stroke:none"
             d="m 0,0 c -0.309,0.108 -0.748,0.43 -0.922,0.321 -1.859,-1.151 -3.717,-2.303 -5.576,-3.456 -0.086,-0.053 0.105,-0.554 0.16,-0.834 1.551,0.308 3.254,0.329 4.596,1.035 C -0.885,-2.482 -0.561,-1.015 0,0" /></g><g
           transform="translate(53.548,38.022)"
           id="g128"><path
             id="path130"
             style="fill:#000000;fill-opacity:1;fill-rule:nonzero;stroke:none"
             d="m 0,0 c -1.708,2.208 -4.884,2.613 -7.092,0.905 -2.209,-1.709 -2.614,-4.884 -0.906,-7.092 0.382,-0.493 0.839,-0.89 1.339,-1.201 l -0.068,-0.048 c 0,0 0.099,-0.024 0.257,-0.069 0.435,-0.244 0.902,-0.419 1.383,-0.524 1.556,-0.769 2.921,-2.275 -2.612,-4.462 0,0 9.564,0.512 8.684,8.581 C 1.204,-2.574 0.894,-1.155 0,0" /></g><g
           transform="translate(83.8649,68.7203)"
           id="g132"><path
             id="path134"
             style="fill:#000000;fill-opacity:1;fill-rule:nonzero;stroke:none"
             d="m 0,0 0.15,-0.074 c 0.114,-0.064 0.082,-0.042 0.103,-0.054 0.015,-0.011 0.008,0.004 0.008,0.004 0,0 -0.009,0.021 -0.021,0.028 C 0.219,-0.066 0.17,-0.047 0.129,0.001 0.069,0.031 0.37,0.103 0.313,0.164 0.278,0.214 0.39,0.275 0.46,0.338 0.356,0.53 0.132,0.674 0.106,0.843 0.073,1.051 -0.139,1.253 -0.186,1.452 -0.279,1.852 -0.488,2.237 -0.625,2.614 -0.772,2.99 -0.974,3.355 -1.167,3.705 -1.37,4.05 -1.595,4.388 -1.841,4.696 -2.067,5.016 -2.358,5.295 -2.62,5.572 L -3.056,5.954 C -3.17,6.065 -3.31,6.153 -3.442,6.243 -3.661,6.048 -3.881,5.853 -4.101,5.658 -4.017,5.527 -3.927,5.405 -3.86,5.266 L -3.631,4.833 C -3.506,4.53 -3.37,4.244 -3.292,3.934 -3.192,3.635 -3.137,3.32 -3.083,3.018 -3.036,2.709 -3.001,2.404 -2.987,2.1 -2.98,1.793 -2.982,1.491 -3.011,1.193 -3.025,1.045 -3.041,0.899 -3.065,0.759 -3.087,0.629 -3.12,0.454 -3.149,0.405 -3.157,0.394 -3.161,0.379 -3.16,0.363 l 0.012,-0.228 c 0.013,-0.263 0.016,-0.526 0.06,-0.8 0.058,-0.276 0.109,-0.555 0.23,-0.837 0.058,-0.139 0.112,-0.278 0.197,-0.412 0.088,-0.132 0.157,-0.269 0.27,-0.391 0.109,-0.124 0.209,-0.245 0.348,-0.359 0.07,-0.06 0.123,-0.109 0.211,-0.171 0.094,-0.064 0.132,-0.1 0.323,-0.208 0.034,-0.02 0.072,-0.039 0.11,-0.056 l 0.04,-0.018 0.263,-0.12 c 0.086,-0.042 0.19,-0.072 0.246,-0.133 0.067,-0.054 0.136,-0.104 0.207,-0.152 0.075,-0.047 0.107,-0.116 0.167,-0.166 0.058,-0.053 0.113,-0.108 0.144,-0.174 0.035,-0.065 0.092,-0.115 0.121,-0.184 0.027,-0.07 0.059,-0.138 0.094,-0.204 l 0.067,-0.23 c 0.032,-0.072 0.027,-0.17 0.046,-0.253 0.021,-0.083 0.019,-0.18 0.023,-0.275 0.014,-0.186 -0.003,-0.393 -0.03,-0.601 -0.024,-0.208 -0.067,-0.426 -0.127,-0.639 -0.025,-0.108 -0.063,-0.211 -0.094,-0.316 l -0.094,-0.249 -0.076,-0.205 c -0.108,-0.286 -0.123,-0.608 -0.023,-0.92 0.142,-0.442 0.287,-0.896 0.492,-1.275 0.183,-0.411 0.418,-0.746 0.639,-1.105 0.24,-0.326 0.474,-0.665 0.734,-0.956 0.251,-0.309 0.518,-0.585 0.785,-0.865 1.081,-1.091 2.237,-2.007 3.468,-2.841 l 0.476,-0.31 0.431,-0.273 c 0.117,-0.084 0.125,-0.094 0.2,-0.157 0.068,-0.059 0.12,-0.114 0.154,-0.158 0.069,-0.094 0.072,-0.121 0.076,-0.137 0.002,-0.016 0.008,-0.072 -0.039,-0.204 -0.091,-0.264 -0.4,-0.694 -0.79,-1.075 -0.196,-0.193 -0.413,-0.385 -0.642,-0.567 -0.218,-0.176 -0.493,-0.373 -0.68,-0.494 l -0.114,-0.072 c -0.462,-0.298 -0.741,-0.839 -0.676,-1.421 l 0.073,-0.643 c 0.02,-0.222 0.07,-0.414 0.118,-0.611 0.052,-0.192 0.09,-0.401 0.157,-0.579 l 0.192,-0.548 c 0.144,-0.349 0.29,-0.697 0.463,-1.024 0.045,-0.093 0.096,-0.182 0.146,-0.271 l -0.489,-1.573 c -0.163,-0.526 -0.052,-1.105 0.296,-1.54 -0.063,-0.051 -0.127,-0.105 -0.185,-0.156 -0.163,-0.143 -0.321,-0.292 -0.471,-0.444 -0.128,-0.16 -0.244,-0.327 -0.359,-0.497 -0.119,-0.161 -0.212,-0.355 -0.294,-0.559 -0.086,-0.199 -0.164,-0.399 -0.202,-0.624 -0.049,-0.218 -0.085,-0.439 -0.084,-0.675 -0.003,-0.116 -0.007,-0.227 0.009,-0.361 0.015,-0.129 0.017,-0.231 0.078,-0.47 0.122,-0.47 0.464,-0.884 0.953,-1.068 l 0.351,-0.133 C 4.92,-31.653 5,-31.68 5.08,-31.702 c 0.072,-0.028 0.181,-0.029 0.227,-0.069 0.051,-0.037 0.104,-0.067 0.161,-0.091 0.073,-0.016 0.075,-0.07 0.116,-0.095 0.04,-0.026 0.079,-0.054 0.09,-0.096 0.02,-0.036 0.062,-0.059 0.067,-0.107 0.019,-0.04 0.043,-0.079 0.047,-0.123 0.005,-0.022 0.018,-0.045 0.014,-0.055 0.002,-0.011 0.005,-0.047 0.005,0.04 0,0.005 0.005,0.01 0.009,0.01 0.006,0 0.01,-0.005 0.01,-0.01 l -0.002,-0.259 c -10e-4,-0.09 0.005,-0.179 0.018,-0.269 -0.015,-0.087 -0.022,-0.173 -0.025,-0.261 -0.03,-0.088 -0.046,-0.175 -0.069,-0.266 l -0.117,-0.276 -0.165,-0.287 -0.214,-0.293 -0.259,-0.292 -0.299,-0.287 c -0.214,-0.187 -0.434,-0.375 -0.683,-0.55 -0.237,-0.182 -0.505,-0.346 -0.768,-0.513 -0.533,-0.33 -1.114,-0.624 -1.705,-0.905 -1.191,-0.555 -2.457,-1.024 -3.749,-1.432 -0.647,-0.205 -1.301,-0.393 -1.958,-0.567 l -0.988,-0.248 c -0.324,-0.081 -0.676,-0.133 -0.976,-0.179 -0.75,-0.111 -1.341,-0.741 -1.375,-1.527 l -0.007,-0.142 c -0.014,-0.326 0.039,-0.652 0.09,-0.978 l 0.15,-0.98 0.265,-1.731 c -0.185,-0.284 -0.374,-0.568 -0.55,-0.852 l -0.221,-0.355 -0.179,-0.39 -0.35,-0.77 -0.169,-0.379 c -0.063,-0.121 -0.087,-0.269 -0.128,-0.402 l -0.213,-0.807 c -0.032,-0.135 -0.076,-0.262 -0.095,-0.399 l -0.04,-0.413 -0.065,-0.804 0.373,0.709 0.178,0.343 c 0.064,0.113 0.153,0.214 0.227,0.321 l 0.459,0.617 c 0.082,0.099 0.134,0.209 0.234,0.297 l 0.269,0.275 0.529,0.538 0.259,0.265 0.303,0.233 c 0.404,0.309 0.793,0.617 1.172,0.923 0.147,0.12 0.253,0.292 0.287,0.494 l 0.052,0.314 0.323,1.956 0.099,0.6 0.94,0.237 c 0.708,0.186 1.411,0.39 2.111,0.611 1.401,0.442 2.789,0.954 4.16,1.593 0.683,0.324 1.364,0.668 2.033,1.081 0.333,0.21 0.667,0.417 0.992,0.663 0.329,0.231 0.65,0.499 0.965,0.778 l 0.464,0.449 0.443,0.501 0.41,0.562 c 0.128,0.201 0.246,0.419 0.363,0.63 0.108,0.225 0.2,0.466 0.293,0.7 0.076,0.248 0.136,0.506 0.194,0.761 0.034,0.262 0.057,0.528 0.074,0.792 -0.007,0.177 -0.021,0.353 -0.035,0.53 -10e-4,0.235 -0.022,0.347 -0.039,0.483 -0.016,0.139 -0.048,0.259 -0.079,0.382 -0.055,0.249 -0.149,0.485 -0.255,0.716 -0.092,0.236 -0.242,0.446 -0.388,0.657 -0.139,0.219 -0.313,0.4 -0.501,0.568 -0.17,0.15 -0.341,0.317 -0.526,0.425 l 0.012,0.007 0.151,0.094 0.008,0.005 0.078,0.042 c 0.235,0.138 0.442,0.282 0.664,0.514 0.215,0.227 0.439,0.529 0.57,0.945 0.139,0.405 0.136,0.868 0.05,1.242 -0.043,0.186 -0.104,0.327 -0.169,0.487 -0.068,0.156 -0.134,0.246 -0.208,0.368 -0.09,0.144 -0.173,0.244 -0.257,0.339 l 0.389,1.25 c 0.136,0.444 0.089,0.948 -0.174,1.374 l -0.04,0.064 c -0.038,0.061 -0.123,0.192 -0.181,0.3 -0.064,0.114 -0.13,0.227 -0.187,0.346 -0.124,0.235 -0.221,0.475 -0.321,0.71 l -0.123,0.352 c -0.02,0.05 -0.031,0.097 -0.042,0.144 0.021,0.015 0.041,0.031 0.062,0.047 0.311,0.249 0.615,0.515 0.911,0.808 0.581,0.594 1.174,1.26 1.574,2.297 0.192,0.516 0.309,1.163 0.211,1.833 -0.092,0.671 -0.403,1.285 -0.761,1.733 -0.181,0.229 -0.37,0.42 -0.563,0.59 -0.183,0.167 -0.455,0.363 -0.621,0.476 l -0.446,0.281 -0.393,0.257 c -1.06,0.717 -2.08,1.531 -2.946,2.407 -0.21,0.223 -0.425,0.442 -0.61,0.672 -0.203,0.225 -0.356,0.459 -0.531,0.687 -0.136,0.233 -0.306,0.464 -0.398,0.691 -0.044,0.077 -0.071,0.151 -0.1,0.226 0.042,0.132 0.087,0.265 0.119,0.399 0.097,0.35 0.17,0.71 0.216,1.082 0.047,0.371 0.076,0.752 0.054,1.149 -0.007,0.199 -0.013,0.394 -0.049,0.6 -0.037,0.203 -0.049,0.403 -0.114,0.608 -0.058,0.205 -0.113,0.41 -0.184,0.611 -0.087,0.2 -0.178,0.398 -0.272,0.594 -0.095,0.196 -0.231,0.372 -0.35,0.555 -0.119,0.189 -0.261,0.35 -0.413,0.503 -0.15,0.15 -0.293,0.324 -0.458,0.447 l -0.498,0.372 c -0.167,0.131 -0.338,0.211 -0.508,0.312 z" /></g><g
           transform="translate(84.3806,69.1392)"
           id="g136"><path
             id="path138"
             style="fill:#000000;fill-opacity:1;fill-rule:nonzero;stroke:none"
             d="M 0,0 C 0,-0.027 -0.024,-0.054 -0.055,-0.081 -0.023,-0.14 0,-0.201 0,-0.271 Z" /></g></g></g></g></svg>