<svg xmlns="http://www.w3.org/2000/svg" viewBox="0 0 465.09332 126.19667" height="126.197" width="465.093"><defs><clipPath id="a"><path d="M0 94.647h348.82V0H0z"/></clipPath></defs><g clip-path="url(#a)" transform="matrix(1.33333 0 0 -1.33333 0 126.197)" fill="#fff"><path d="M129.7 48.895v-7.257c0-3.575-5.591-4.357-7.745-4.357-1.343 0-2.521.137-3.5.41-2.341.658-3.888 2.228-4.241 4.31-.36 2.115.623 4.331 2.505 5.65 1.74 1.221 4.322 1.866 7.464 1.866 1.803 0 3.695-.214 5.518-.622m7.345-11.23c-1.863 0-2.12.956-2.12 1.99v16.818c0 2.172-.483 3.88-1.536 5.392-2.087 2.88-6.322 4.597-11.328 4.597-4.245 0-9.635-1.375-12.032-5.233a1.017 1.017 0 0 1 .322-1.396l2.75-1.725a1.014 1.014 0 0 1 1.379.29c1.026 1.514 2.779 2.488 5.187 2.89 1.959.281 3.275.274 4.715.008 2.2-.428 3.884-1.328 4.753-2.554.385-.514.565-1.154.565-2.013v-2.884a35.288 35.288 0 0 1-5.58.464c-4.34 0-8.005-.93-10.588-2.68-3.458-2.27-5.2-6.238-4.545-10.353.669-4.205 3.672-7.424 8.052-8.615 1.776-.445 3.43-.67 4.915-.67 3.763 0 6.762.918 9.125 2.8.91-1.093 2.48-2.063 5.19-2.063.276 0 .559.011.848.032.53.037.943.48.943 1.011v2.88c0 .56-.455 1.013-1.015 1.013m12.533-.191c-3.004 0-3.653.547-3.653 3.078v38.047c0 .561-.454 1.015-1.015 1.015h-3.198c-.56 0-1.014-.454-1.014-1.015V40.615c0-5.518 2.449-8.087 7.707-8.087.395 0 .807.013 1.235.04.535.032.953.476.953 1.012v2.878c0 .561-.455 1.015-1.015 1.015m24.499 19.575v-9.145c0-2.21-2.254-3.312-3.572-3.763-.876-.274-1.852-.464-3.015-.595a22.232 22.232 0 0 0-1.207-.037c-.738 0-1.375.05-1.98.155-1.326.194-5.655 1.071-5.655 4.24v9.145c0 2.532 2.92 3.603 4.182 3.946.979.273 2.156.41 3.5.41 1.35 0 2.522-.134 3.565-.41 1.257-.35 4.182-1.437 4.182-3.946m3.278 9.654a1.014 1.014 0 0 1-1.402-.068l-1.686-1.782c-.956.516-1.961.907-2.973 1.16-1.49.453-3.16.683-4.964.683-1.737 0-3.403-.229-4.928-.673-5.037-1.338-8.044-4.693-8.044-8.974v-9.145c0-2.655 1.13-4.968 3.21-6.638-1.29-1.284-1.797-3.079-1.326-4.79.594-2.165 2.552-3.717 5.233-4.152 1.127-.185 2.376-.21 3.449-.21.494 0 .997.005 1.503.012.504.006 1.01.013 1.514.013 5.096 0 6.816-.878 6.816-3.483v-1.149c0-1.615-.636-2.275-2.96-3.069-1.12-.385-2.668-.605-4.247-.605-1.485 0-2.896.192-4.072.55-2.337.733-3.387 1.674-3.52 3.203a6.321 6.321 0 0 0 .163 2.456 1.017 1.017 0 0 1-.976 1.293h-3.196c-.437 0-.825-.279-.963-.693-.39-1.17-.368-2.46-.305-3.455.259-4.08 2.899-6.79 7.599-7.825 1.6-.415 3.367-.608 5.562-.608 2.278 0 4.023.22 5.455.677 4.479 1.26 6.75 3.975 6.75 8.076v1.15c0 8.33-6.972 8.377-12.574 8.416-1.765.012-3.431.024-4.828.257-.647.113-1.065.385-1.04.678.026.294.444.722 1.263.76a13.482 13.482 0 0 1 1.665-.313l.095-.005c1.487-.208 3.032-.245 4.219-.128 1.648.075 3.15.472 4.314.823 4.605 1.587 7.142 4.698 7.142 8.76v9.144c0 1.58-.38 3.022-1.132 4.3l1.686 1.781a1.015 1.015 0 0 1-.073 1.463zm27.223-9.718V42.149c0-2.352-2.516-3.467-3.6-3.836-1.982-.68-4.265-.838-6.531-.472-2.473.428-5.36 1.814-5.36 4.308v14.835c0 2.419 2.62 3.51 4.167 3.943 1.204.317 2.408.478 3.579.478 1.17 0 2.374-.161 3.563-.475 1.258-.35 4.182-1.437 4.182-3.946m-2.782 8.964c-1.49.454-3.16.684-4.963.684-1.763 0-3.383-.222-4.93-.674-5.036-1.337-8.044-4.692-8.044-8.974V42.149c0-4.742 3.729-8.336 9.748-9.38a21.662 21.662 0 0 1 3.33-.263c2.002 0 3.923.295 5.726.883 4.605 1.588 7.143 4.699 7.143 8.76v14.835c0 4.282-3.008 7.637-8.01 8.964m29.946.267c-1.355.35-2.845.534-4.305.534-3.296 0-6.168-.88-8.234-2.473v.957c0 .56-.454 1.014-1.015 1.014h-3.132c-.56 0-1.014-.454-1.014-1.014V33.835c0-.56.454-1.015 1.014-1.015h3.26c.562 0 1.016.455 1.016 1.015v22.51c0 3.45 5.057 5.288 8.709 5.288.99 0 1.895-.127 2.616-.367a1.011 1.011 0 0 1 1.32.792l.513 3.005a1.015 1.015 0 0 1-.748 1.152m7.995 13.525h-3.644c-.56 0-1.014-.453-1.014-1.014v-5.691c0-.56.454-1.014 1.014-1.014h3.644c.561 0 1.015.454 1.015 1.014v5.69c0 .562-.454 1.016-1.015 1.016m-.191-13.493h-3.26a1.014 1.014 0 0 1-1.014-1.015V33.836c0-.561.453-1.015 1.014-1.015h3.26c.562 0 1.015.454 1.015 1.015v31.397c0 .56-.453 1.015-1.015 1.015m21.643-28.584c-4.878.148-7.2.933-7.2 4.997V61.3c2.194.04 4.34.04 6.594.04.561 0 1.014.455 1.014 1.015v2.877c0 .56-.453 1.015-1.014 1.015h-6.594v12.479c0 .56-.454 1.014-1.015 1.014h-3.197a1.014 1.014 0 0 1-1.015-1.014v-12.48h-4.484a1.014 1.014 0 0 1-1.015-1.014v-2.877c0-.56.453-1.014 1.015-1.014h4.484V42.598c0-6.314 4.116-9.935 11.292-9.935.384 0 .772.01 1.16.033.538.029.96.474.96 1.012v2.942c0 .548-.437.997-.985 1.014m34.244 28.84c-2.983 0-6.958-.97-9.32-3.6-1.793 2.332-5.097 3.728-9.033 3.728-3.025 0-5.636-.743-7.68-2.167v.767c0 .561-.455 1.015-1.016 1.015h-3.262c-.56 0-1.014-.454-1.014-1.015V33.835c0-.56.454-1.015 1.014-1.015h3.262c.561 0 1.015.454 1.015 1.015v22.318c0 3.347 3.661 5.461 7.187 5.572l.168.001c3.07 0 6.262-1.487 6.474-4.743V33.835c0-.56.454-1.015 1.015-1.015h3.197c.56 0 1.014.454 1.014 1.015v23.081c.225 3.409 3.866 4.618 6.915 4.618 3.19 0 6.915-1.276 6.915-4.869v-22.83c0-.56.454-1.015 1.014-1.015h3.262c.561 0 1.015.454 1.015 1.015v22.766c0 6.745-6.093 9.833-12.142 9.902m22.253 13.237h-3.646c-.56 0-1.013-.453-1.013-1.014v-5.691c0-.56.453-1.014 1.013-1.014h3.646c.561 0 1.015.454 1.015 1.014v5.69c0 .562-.454 1.016-1.015 1.016m-.192-13.493h-3.262c-.56 0-1.014-.454-1.014-1.015V33.836c0-.561.454-1.015 1.014-1.015h3.262c.56 0 1.015.454 1.015 1.015v31.397c0 .56-.454 1.015-1.015 1.015m31.325-5.043v3.965c0 .56-.454 1.015-1.015 1.015h-3.261a1.015 1.015 0 0 1-1.015-1.015v-3.965c0-1.121-.049-1.325-.838-2.016l-6.684-6.394-6.694 6.403c-.735.686-.828.91-.828 2.007v3.965c0 .56-.454 1.015-1.015 1.015h-3.197c-.56 0-1.015-.455-1.015-1.015v-3.965c0-2.438.407-3.908 2.809-6.171l5.815-5.53-5.811-5.53c-2.406-2.265-2.813-3.736-2.813-6.173v-3.965c0-.561.455-1.015 1.015-1.015h3.197c.561 0 1.015.454 1.015 1.015V37.8c0 1.06.116 1.342.838 2.017l6.684 6.394 6.717-6.423c.741-.65.805-.916.805-1.988v-3.965c0-.561.454-1.015 1.015-1.015h3.261c.561 0 1.015.454 1.015 1.015V37.8c0 2.335-.419 3.85-2.813 6.174l-5.867 5.529 5.878 5.537c2.383 2.31 2.802 3.829 2.802 6.164M53.446 57.212a36.327 36.327 0 0 1-4.834 1.18 38.684 38.684 0 0 1-7.042.57 36.83 36.83 0 0 1-3.99-.269c-.677-.075-1.354-.2-2.036-.305-.674-.15-1.361-.258-2.03-.442-.673-.173-1.349-.338-2.005-.56l-.988-.314-.965-.36c-.648-.228-1.267-.508-1.882-.778-.624-.254-1.208-.574-1.793-.866-.592-.281-1.139-.622-1.686-.934a21.623 21.623 0 0 1-1.567-.981c-1.02-.64-1.909-1.354-2.75-1.984-.799-.685-1.57-1.271-2.178-1.876-.618-.591-1.185-1.081-1.596-1.54l-1.337-1.4 1.274 1.46c.392.477.936.993 1.531 1.614.583.635 1.331 1.257 2.104 1.982.82.672 1.685 1.435 2.687 2.127.491.36.997.73 1.543 1.064.541.34 1.082.713 1.67 1.026.582.323 1.163.675 1.786.963.616.305 1.236.619 1.888.88l.972.413.998.366c.663.257 1.348.458 2.031.667.682.22 1.383.363 2.07.548.698.14 1.392.3 2.087.409 1.39.235 2.77.385 4.113.462 2.685.156 5.204.005 7.343-.268a38.238 38.238 0 0 0 5.128-1.012 26.848 26.848 0 0 0 1.422-.427l.175-.061-1.426-1.594c-.21.074-.447.154-.717.24M13.265 48.07l1.375 1.71c.42.56 1.014 1.168 1.66 1.898.633.744 1.453 1.479 2.3 2.33.437.414.92.81 1.406 1.24.48.439 1.009.849 1.56 1.264.546.423 1.105.859 1.716 1.25.603.402 1.205.838 1.865 1.204.652.379 1.302.79 2.004 1.125.69.357 1.39.72 2.126 1.02l1.097.48 1.128.419c.749.298 1.527.515 2.3.758.773.239 1.565.406 2.347.608.42.076.84.164 1.259.247-.001.022-.006.04-.006.063a2.304 2.304 0 0 0 4.55.505c.412.027.822.05 1.228.069 1.52.04 2.995.03 4.387-.078a41.741 41.741 0 0 0 3.91-.445 41.803 41.803 0 0 0 5.756-1.327 30.567 30.567 0 0 0 1.384-.46l-1.407-1.573c-.18.066-.368.136-.58.209a40.148 40.148 0 0 1-5.453 1.485c-1.15.228-2.407.438-3.746.576-1.338.158-2.758.22-4.228.24a51.428 51.428 0 0 1-1.35-.026 2.301 2.301 0 0 0-2.148-1.481c-.84 0-1.57.456-1.971 1.13-.456-.07-.91-.146-1.37-.21-.763-.166-1.541-.298-2.3-.501-.76-.206-1.528-.388-2.268-.65l-1.117-.365c-.364-.141-.727-.283-1.088-.425-.73-.266-1.428-.594-2.119-.917-.7-.301-1.353-.68-2.008-1.026-.664-.334-1.27-.74-1.882-1.111-.617-.363-1.185-.772-1.74-1.167a21.24 21.24 0 0 1-1.59-1.19c-.498-.405-.995-.78-1.443-1.173-.872-.81-1.718-1.511-2.375-2.226-.672-.7-1.289-1.283-1.73-1.824l-1.44-1.655m-1.717 2.577l1.562 1.929c.481.629 1.136 1.33 1.875 2.149.718.837 1.614 1.699 2.583 2.652.471.49 1.018.94 1.566 1.426.555.478 1.108 1 1.737 1.46.621.47 1.237.986 1.91 1.455.68.457 1.364.94 2.08 1.404.733.432 1.473.888 2.237 1.32.786.393 1.565.826 2.381 1.199 1.636.737 3.332 1.427 5.09 1.939 1.742.563 3.543.917 5.32 1.227 1.786.243 3.558.436 5.281.444.861.04 1.707-.013 2.536-.021.826-.06 1.64-.083 2.424-.182 1.574-.142 3.047-.41 4.402-.673 2.704-.568 4.904-1.28 6.417-1.865.508-.193.932-.368 1.283-.521l-1.372-1.533c-.194.086-.399.176-.628.273-1.412.602-3.494 1.358-6.072 1.995-1.292.297-2.7.605-4.212.794-.752.122-1.534.17-2.329.256-.798.036-1.614.116-2.446.105-1.665.052-3.382-.077-5.123-.252-1.73-.24-3.493-.522-5.207-1.012-1.728-.438-3.405-1.055-5.033-1.72-.81-.338-1.59-.736-2.374-1.095-.766-.398-1.508-.82-2.246-1.22-.72-.432-1.41-.886-2.098-1.314-.68-.44-1.306-.927-1.938-1.37-.638-.436-1.203-.933-1.77-1.388-.56-.463-1.119-.892-1.604-1.361-.994-.914-1.917-1.742-2.66-2.55-.765-.788-1.444-1.467-1.945-2.076l-1.627-1.874m.638 4.75c.277.343.564.74.913 1.139l1.135 1.292c.41.459.83.96 1.3 1.464l1.522 1.547c.16.16.323.328.486.492a.967.967 0 0 0-.219.609c0 .539.437.976.977.976a.967.967 0 0 0 .661-.263c.546.49 1.094 1.006 1.692 1.498.68.54 1.38 1.097 2.093 1.666.735.54 1.511 1.06 2.287 1.608.783.54 1.632 1.005 2.464 1.52.84.503 1.741.922 2.624 1.393.904.429 1.836.817 2.767 1.219.96.327 1.902.722 2.885.996.98.282 1.957.58 2.957.77.498.102.99.236 1.491.309l1.497.23c.496.09.997.122 1.493.17.497.04.991.106 1.485.125.986.03 1.962.09 2.922.048 1.922-.015 3.773-.218 5.515-.481 1.744-.262 3.366-.66 4.853-1.057 2.963-.847 5.344-1.841 6.966-2.636.222-.107.427-.21.621-.307l-1.333-1.49a7.167 7.167 0 0 1-.154.083c-1.514.802-3.764 1.825-6.583 2.727-1.416.425-2.964.857-4.634 1.16-1.667.306-3.445.559-5.298.63-.925.07-1.867.04-2.822.042-.477-.003-.955-.052-1.438-.076-.48-.032-.968-.047-1.45-.12l-1.457-.178c-.488-.056-.968-.171-1.455-.253-.977-.155-1.935-.416-2.898-.66-.965-.236-1.895-.595-2.842-.884-.92-.363-1.846-.715-2.744-1.107-.878-.436-1.776-.818-2.618-1.285-.832-.484-1.684-.914-2.47-1.422-.783-.517-1.565-1.005-2.308-1.518l-2.123-1.584c-.619-.476-1.187-.981-1.753-1.458a.975.975 0 0 0-1.4-1.223l-.519-.495-1.563-1.492c-.484-.487-.918-.973-1.34-1.417l-1.172-1.254c-.36-.387-.659-.774-.946-1.107l-1.778-2.12 1.711 2.175m59.847 21.987c-.867.6-1.958 1.278-3.232 2.02-1.289.712-2.755 1.505-4.423 2.226a48.355 48.355 0 0 1-3.952 1.538 2.996 2.996 0 0 0-2.657-1.625 3.01 3.01 0 0 0-3.01 3.01c0 .029.007.056.008.085l-.613.113-.828.147-.84.1c-2.25.324-4.606.353-6.987.236-.594-.051-1.19-.104-1.789-.157-.602-.034-1.19-.178-1.788-.261-1.202-.157-2.374-.475-3.556-.762-.596-.123-1.163-.35-1.743-.53-.575-.196-1.157-.372-1.726-.582a647.74 647.74 0 0 1-1.674-.704c-.556-.235-1.119-.453-1.643-.747a44.413 44.413 0 0 1-6.065-3.604c-.465-.337-.925-.672-1.38-1.004l-.682-.495c-.22-.171-.428-.357-.64-.532l-2.476-2.097c-1.508-1.473-2.988-2.818-4.188-4.221-.618-.684-1.223-1.33-1.774-1.965l-1.498-1.86-1.318-1.637-1.043-1.446-1.973-2.754 1.903 2.804 1.007 1.475 1.278 1.672 1.454 1.905c.538.649 1.128 1.312 1.73 2.015 1.171 1.44 2.622 2.829 4.105 4.353l2.443 2.177c.21.184.415.377.633.555l.676.519c.453.347.91.698 1.372 1.05a45.22 45.22 0 0 0 6.07 3.82c.527.312 1.095.55 1.657.805l1.694.763c.576.23 1.167.426 1.752.64.59.202 1.167.447 1.775.59 1.205.327 2.405.683 3.637.878.614.102 1.22.264 1.837.316l1.843.209c2.455.184 4.896.214 7.231-.061l.874-.083.86-.13.784-.123a2.996 2.996 0 0 0 2.611 1.539 3.002 3.002 0 0 0 2.993-2.843 49.464 49.464 0 0 0 4.281-1.533c1.745-.704 3.284-1.485 4.64-2.19 1.341-.735 2.492-1.411 3.413-2.015.17-.11.325-.212.48-.316l-1.299-1.452-.244.169M2.257 44.055c.027 3.096.335 6.186.951 9.21a47.686 47.686 0 0 0 2.705 8.82 46.616 46.616 0 0 0 4.322 8.122c.442.627.865 1.268 1.322 1.883.472.603.933 1.223 1.411 1.813l1.477 1.719 1.632 1.727a47.567 47.567 0 0 0 7.014 5.855 46.596 46.596 0 0 0 8.042 4.394c5.63 2.388 11.718 3.72 17.848 3.803 3.064.05 6.128-.226 9.147-.75a46.78 46.78 0 0 0 8.848-2.478 48.265 48.265 0 0 0 10.193-5.488l-1.679-1.876c-14.833 12.088-34.977 7.916-34.977 7.916-23.17-3.948-33.092-26.686-33.092-26.686a50.1 50.1 0 0 1 1.376-5.757l1.806 2.44c.297.394.613.842.98 1.31l1.23 1.486 1.4 1.689 1.653 1.785c1.12 1.278 2.496 2.5 3.896 3.855l2.295 1.928c.384.338.802.644 1.226.95l1.277.933a45.607 45.607 0 0 0 5.608 3.42c.487.279 1 .51 1.518.738l1.552.695c.518.233 1.064.4 1.597.605.538.188 1.066.41 1.615.569 1.103.297 2.188.676 3.312.876l1.671.35 1.682.238.837.115.838.062c.558.038 1.113.088 1.666.117 1.107 0 2.203.06 3.277-.023 2.154-.071 4.22-.38 6.16-.753 1.94-.373 3.733-.91 5.374-1.438 3.266-1.12 5.861-2.393 7.618-3.391.306-.171.577-.33.832-.482L68.4 72.884c-.154.096-.31.192-.48.295-1.648.997-4.105 2.29-7.217 3.453-1.564.553-3.276 1.118-5.135 1.528-1.855.41-3.84.765-5.915.89-1.035.11-2.093.08-3.163.11-.534-.021-1.072-.045-1.613-.068l-.813-.037-.813-.09-1.636-.184c-.543-.097-1.086-.196-1.63-.295-1.099-.163-2.162-.504-3.245-.762-.539-.138-1.059-.343-1.59-.51-.525-.186-1.063-.334-1.576-.548a855.49 855.49 0 0 0-1.536-.64 15.258 15.258 0 0 1-1.508-.68 45.282 45.282 0 0 1-5.61-3.21l-1.287-.89c-.428-.288-.85-.58-1.238-.904l-2.327-1.847c-1.425-1.303-2.828-2.481-3.977-3.721l-1.696-1.731-1.44-1.645c-.454-.518-.878-1.001-1.269-1.45-.379-.457-.707-.893-1.015-1.28-1.052-1.341-1.713-2.183-1.874-2.39 6.874-22.486 24.838-13.041 24.838-13.041 4.254 14.147 19.35 12.526 19.35 12.526l.56.519-1.118-1.25 1.978 1.853 1.433 1.342 2.026 1.896 1.448 1.357 2.631 2.462 1.111 1.04 2.614 2.448 1.51 1.414 3.027 2.832 1.057.99 3.156 2.954.36.339 1.122 1.038 1.902 1.765-.014.013 2.023 1.895a49.081 49.081 0 0 0 1.721-1.47 1092.4 1092.4 0 0 1-7.2-6.916c-2.712-2.632-5.445-5.24-8.14-7.89-2.699-2.648-5.415-5.275-8.095-7.943-1.074-1.056-2.133-2.13-3.2-3.193-2.393.5-4.706.764-6.782-1.416-1.885-1.98-3.209-4.295-2.09-6.92.61-1.43 2.33-2.387 3.548-3.558.288.18.574.362.861.54-1.413 5.7 1.48 8.82 6.264 10.97-.39.078-.782.164-1.17.249 1.048.9 2.105 1.794 3.15 2.7 2.867 2.466 5.697 4.97 8.546 7.453 2.851 2.482 5.665 5.004 8.5 7.503 1.352 1.193 2.692 2.4 4.04 3.6l.656.585c1.255 1.12 2.517 2.232 3.768 3.357l.044.042a1.22 1.22 0 0 1 .005 1.726l-.025.024a50.24 50.24 0 0 1-7.507 6.217 48.533 48.533 0 0 1-8.622 4.604 49.897 49.897 0 0 1-9.377 2.819c-3.21.64-6.49.915-9.762.894-6.545-.065-13.098-1.39-19.118-3.994a49.825 49.825 0 0 1-8.583-4.76 50.393 50.393 0 0 1-7.51-6.365l-1.603-1.754-1.586-1.916c-.506-.65-.98-1.311-1.47-1.966-.475-.665-.914-1.356-1.37-2.033a49.59 49.59 0 0 1-4.43-8.72 49.371 49.371 0 0 1-3.253-19.11 49.78 49.78 0 0 1 1.272-9.606 47.215 47.215 0 0 1 3.14-9.123 46.382 46.382 0 0 1 4.878-8.262c1.887-2.58 4.057-4.931 6.41-7.058a50.213 50.213 0 0 0-10.07 15.84c-2.283 5.82-3.462 12.04-3.394 18.237"/><path d="M14.16 28.244c8.111-3.654 20.292.298 18.31 12.703-5.409-3-10.68-2.32-15.896.529-1.08.59-2.27.984-2.812 1.214-1.79 2.888-3.625 5.277-4.828 7.95-1.2 2.673-1.768 5.632-2.613 8.465l-.642.156C4.832 55.043 3.677 50.86 3.205 46.6c-.927-8.367 3.246-14.884 10.954-18.356"/><path d="M25.605 14.213c9.094 1.763 12.527 9.868 7.274 17.976-3.606-5.895-9.393-7.576-15.14-6.812-5.602.745-10.151 4.666-13.987 9.19.697-3.516 1.61-6.804 2.835-9.972 3.102-8.032 10.532-12.027 19.018-10.382"/><path d="M39.516 7.94c4.972 4.375 6.943 13.604-1.99 17.427-1.797-10.118-9.634-15.916-24.023-11.955 2.555-2.232 4.967-4.661 7.698-6.653 5.519-4.024 13.143-3.37 18.315 1.181"/><path d="M44.24 21.916c2.51-8.465.006-16.17-13.505-20.044 2.867-.554 5.738-1.086 8.6-1.666 7.989-1.621 14.416 6.707 14.719 12.419.323 6.1-3.953 10.21-9.813 9.29"/><path d="M63.385 18.118c-1.589 5.689-8.776 8.805-12.395 4.413 6.453-6.005 6.429-13.56-1.279-21.733 2.301.799 4.689 1.412 6.886 2.432 5.97 2.775 8.551 8.575 6.788 14.888"/><path d="M68.833 26.988c-2.972 4.173-10.792 5.66-13.043-.547 8.06-2.687 10.835-6.783 8.963-17.157 6.83 3.969 8.51 11.484 4.08 17.704"/><path d="M74.215 27.266c.583 5.524-3.17 10.284-8.658 11.107-4.408.662-7.573-2.187-7.49-6.863 8.087 2.106 12.387-2.033 14.92-9.299.614 1.777 1.054 3.402 1.228 5.055"/><path d="M60.69 45.417c-4.005-1.039-5.254-4.55-3.42-8.914 5.57 5.331 10.827 3.932 16.16-.727-2.115 9.5-7.183 11.083-12.74 9.641"/><path d="M67.348 46.834c-3.3 3.193-5.908 5.577-10.126 4.302-2.934-.887-5.123-2.593-5.424-5.612-.169-1.689.878-3.5 1.377-5.256l1.302.127c1.94 6.1 6.291 7.862 12.871 6.44M46.385 41.08c-3.151 3.838-2.934 7.666.207 11.44-5.065-.976-7.329-3.865-6.421-7.948.678-3.051 2.664-4.285 6.214-3.491"/><path d="M37.967 38.17c1.8-1.55 3.743-1.75 5.644.503-3.695 1.671-5.477 4.34-5.061 8.851-3.376-3.952-3.505-6.839-.583-9.354m.21-5.345c2.447-.646 3.638.077 3.983 1.658L34.601 38.7c-.727-2.878.385-5.033 3.576-5.876m2.405-4.385c1.675.319 3.178 1.151 2.94 3.028l-7.834-.295c.573-2.291 2.416-3.206 4.894-2.733m5.914.816c-.31.108-.748.43-.922.321a8438.582 8438.582 0 0 1-5.576-3.456c-.086-.053.105-.554.16-.834 1.55.308 3.254.33 4.596 1.035.857.452 1.18 1.92 1.742 2.934"/><path d="M53.548 38.022a5.056 5.056 0 0 1-7.998-6.187c.382-.493.839-.89 1.339-1.201l-.068-.048s.099-.024.257-.069a5.012 5.012 0 0 1 1.383-.524c1.556-.769 2.921-2.275-2.612-4.462 0 0 9.564.512 8.684 8.581a5.033 5.033 0 0 1-.985 3.91M83.865 68.72l.15-.074c.114-.064.082-.042.103-.054.015-.01.008.004.008.004s-.01.021-.021.028c-.021.03-.07.05-.111.097-.06.03.24.102.184.163-.035.05.077.111.147.174-.104.192-.328.336-.354.505-.033.208-.245.41-.292.61-.093.4-.302.784-.44 1.161-.146.376-.348.741-.541 1.091a8.505 8.505 0 0 1-.674.991c-.226.32-.517.6-.78.876l-.435.382c-.114.111-.254.2-.386.29l-.66-.586c.085-.13.175-.253.242-.392l.229-.433c.125-.303.26-.589.339-.899.1-.299.155-.614.209-.916.047-.309.082-.614.096-.918a7.581 7.581 0 0 0-.024-.907 5.845 5.845 0 0 0-.054-.434c-.022-.13-.055-.305-.084-.354a.065.065 0 0 1-.011-.042l.012-.228c.013-.263.016-.526.06-.8.058-.276.109-.555.23-.837.058-.139.112-.278.197-.412.088-.132.157-.269.27-.39.109-.125.209-.246.348-.36.07-.06.123-.109.21-.17.095-.065.133-.1.324-.209.034-.02.072-.039.11-.056l.04-.018.263-.12c.086-.042.19-.072.246-.133.067-.054.136-.104.207-.152.075-.047.107-.116.167-.166a.59.59 0 0 0 .144-.174c.035-.065.092-.115.12-.184.028-.07.06-.138.095-.204l.067-.23c.032-.072.027-.17.046-.253.02-.083.019-.18.023-.275a3.033 3.033 0 0 0-.03-.6 4.126 4.126 0 0 0-.127-.64c-.025-.108-.063-.21-.094-.316l-.094-.249-.076-.205a1.392 1.392 0 0 1-.023-.92c.142-.442.287-.896.492-1.275.183-.41.418-.746.639-1.105.24-.326.474-.665.734-.956.25-.309.518-.585.785-.865 1.08-1.09 2.237-2.007 3.468-2.84l.476-.31.43-.274c.118-.084.126-.094.2-.157.069-.059.12-.114.155-.158.069-.094.072-.12.076-.137.002-.016.008-.072-.04-.204-.09-.264-.4-.694-.79-1.075a8.943 8.943 0 0 0-1.322-1.061l-.113-.072a1.492 1.492 0 0 1-.676-1.42l.073-.644c.02-.222.07-.414.118-.61.052-.193.09-.402.157-.58l.192-.548c.144-.349.29-.697.463-1.024.045-.093.096-.182.146-.27l-.49-1.574a1.677 1.677 0 0 1 .297-1.54 9.033 9.033 0 0 1-.656-.6 7.646 7.646 0 0 1-.36-.497 2.529 2.529 0 0 1-.293-.559 2.681 2.681 0 0 1-.202-.624 2.984 2.984 0 0 1-.084-.675c-.003-.116-.007-.227.009-.36.015-.13.017-.232.078-.47a1.56 1.56 0 0 1 .953-1.069l.35-.133c.08-.029.16-.056.24-.078.072-.028.18-.029.227-.069a.802.802 0 0 1 .16-.09c.074-.017.076-.07.117-.096.04-.026.079-.054.09-.096.02-.036.062-.059.067-.107.019-.04.043-.079.047-.123.005-.022.018-.045.014-.055.002-.01.005-.047.005.04 0 .005.005.01.009.01a.01.01 0 0 0 .01-.01l-.002-.259c-.001-.09.005-.179.018-.269a1.905 1.905 0 0 1-.025-.26c-.03-.089-.046-.176-.07-.267l-.116-.276-.165-.287-.214-.293-.26-.292-.298-.287a8.193 8.193 0 0 0-.683-.55c-.237-.182-.505-.346-.768-.513a17.635 17.635 0 0 0-1.705-.905 30.998 30.998 0 0 0-3.75-1.432 42.548 42.548 0 0 0-1.957-.567l-.988-.248c-.324-.08-.676-.133-.976-.179a1.615 1.615 0 0 1-1.375-1.527l-.007-.142c-.014-.326.039-.652.09-.978l.15-.98.265-1.73c-.185-.285-.374-.569-.55-.853l-.221-.355-.18-.39-.35-.77-.168-.379c-.063-.12-.087-.269-.128-.402l-.213-.807c-.032-.135-.076-.262-.095-.399l-.04-.413-.065-.804.373.71.178.342c.064.113.153.214.227.321l.459.617c.082.1.134.21.234.297l.269.275.529.538.259.265.303.233c.404.31.793.617 1.172.923a.81.81 0 0 1 .287.494l.052.314.323 1.956.099.6.94.237c.708.186 1.41.39 2.11.611 1.402.442 2.79.954 4.16 1.593.684.324 1.365.668 2.034 1.081.333.21.667.417.992.663.329.231.65.5.965.778l.464.45.443.5.41.562c.128.201.246.42.363.63.108.225.2.466.293.7.076.248.136.506.194.761.034.262.057.528.074.792-.007.177-.021.353-.035.53-.001.235-.022.347-.04.483-.015.14-.047.26-.078.382a3.57 3.57 0 0 1-.255.716c-.092.236-.242.446-.388.657-.14.22-.313.4-.501.568-.17.15-.341.317-.526.425l.012.007.15.094.009.005.078.042c.235.138.442.282.664.514.215.227.439.53.57.945.139.405.136.868.05 1.242-.043.186-.104.327-.17.487-.067.156-.133.246-.207.368-.09.144-.173.244-.257.34l.389 1.25a1.68 1.68 0 0 1-.174 1.373l-.04.064c-.038.061-.123.192-.181.3-.064.114-.13.227-.187.346-.124.235-.221.475-.321.71l-.123.352c-.02.05-.031.097-.042.144l.062.047c.31.25.615.515.91.808.582.594 1.175 1.26 1.575 2.297a3.76 3.76 0 0 1 .21 1.833 3.641 3.641 0 0 1-.76 1.733c-.181.23-.37.42-.563.59a6.27 6.27 0 0 1-.621.476l-.446.281-.393.257c-1.06.717-2.08 1.531-2.946 2.407-.21.223-.425.442-.61.672-.203.225-.356.46-.531.687-.136.233-.306.464-.398.691-.044.077-.071.151-.1.226.042.132.087.265.119.4.097.35.17.71.216 1.081a6.3 6.3 0 0 1 .054 1.15c-.007.198-.013.393-.05.6-.036.202-.048.402-.113.607-.058.205-.113.41-.184.611-.087.2-.178.398-.272.594-.095.196-.231.372-.35.555a2.93 2.93 0 0 1-.413.503c-.15.15-.293.324-.458.447l-.498.372c-.167.131-.338.211-.508.312z"/><path d="M84.38 69.14c0-.028-.023-.055-.054-.082a.392.392 0 0 0 .055-.19z"/></g></svg>