<svg id="Layer_1" xmlns="http://www.w3.org/2000/svg" viewBox="0 0 70.4 70.4"><style>.st0{fill:#b5bcc8}</style><path class="st0" d="M70 29.7l-.4-2.8-5.6.8.4 2.8c.5 3 .5 6.1 0 9.1-1.1 6.3-3.9 11.9-8.3 16.3-11.5 11.5-30.2 11.5-41.7 0-5.6-5.6-8.6-13-8.6-20.8s3.1-15.3 8.6-20.8 13-8.6 20.8-8.6S50.5 8.8 56 14.3c.9.9 1.8 2 2.7 3.1h-7.2c-1.6 0-2.8 1.3-2.8 2.8S50 23 51.5 23h13.9c1.6 0 2.8-1.3 2.8-2.8V6.3c0-1.6-1.3-2.8-2.8-2.8s-2.8 1.3-2.8 2.8V13c-.8-1-1.6-1.9-2.5-2.7C53.5 3.7 44.6 0 35.2 0S17 3.7 10.3 10.3C3.7 16.9 0 25.8 0 35.2s3.7 18.2 10.3 24.9c6.9 6.9 15.9 10.3 24.9 10.3s18-3.4 24.9-10.3c5.2-5.2 8.6-11.9 9.9-19.4.5-3.8.5-7.4 0-11z"/></svg>