<svg id="Layer_1" xmlns="http://www.w3.org/2000/svg" viewBox="0 0 56 39"><style>.st0{fill:#383df4}</style><path class="st0" d="M42 9c-1.9 0-4 .5-6 1.3C32.9 3.7 27.2 0 20 0 9.2 0 0 9.2 0 20c0 10.1 6.8 17.8 16.6 18.9 1.1.1 2.1-.7 2.2-1.8.1-1.1-.7-2.1-1.8-2.2-7.7-.8-13-7-13-14.9 0-8.5 7.5-16 16-16 6.2 0 10.9 3.4 13.1 9.7.2.6.6 1 1.2 1.2.6.2 1.2.1 1.7-.2 1.8-1.1 4.1-1.7 6-1.7 5 0 10 3.8 10 11 0 6.1-4.9 11-11 11h-2.4c-1.1 0-2 .9-2 2s.9 2 2 2H41c8.3 0 15-6.7 15-15 0-7.3-4.9-15-14-15z"/><path class="st0" d="M36.4 24.6l-7-7c-.4-.4-1-.6-1.6-.6h-.2c-.9 0-1.7.6-1.9 1.5l-6.1 6.1c-.8.8-.8 2 0 2.8s2 .8 2.8 0l3.2-3.2V37c0 1.1.9 2 2 2s2-.9 2-2V23.4l4 4c.4.4.9.6 1.4.6s1-.2 1.4-.6c.8-.8.8-2 0-2.8z"/></svg>