<svg xmlns="http://www.w3.org/2000/svg" width="20" height="24" viewBox="0 0 20 24"><g fill="none" fill-rule="evenodd"><path fill="#F5A623" d="M13.793 0H0v24h20V5.834z"/><path fill="#FFF" d="M14.043 1.366L18.547 5.6h-4.504z"/><path fill="#F5A623" d="M.851 23.2V.8h12.34v5.6h5.958v16.8z"/><path fill="#FFF" fill-rule="nonzero" d="M4.05 7.111h3.719c.228 0 .413-.199.413-.444 0-.246-.185-.445-.413-.445h-3.72c-.228 0-.413.199-.413.445 0 .245.185.444.414.444zm7.338 8H4.067a.438.438 0 0 0-.43.445c0 .245.192.444.43.444h7.32a.438.438 0 0 0 .431-.444.438.438 0 0 0-.43-.445zm4.572-3.555h-2.83c-.223 0-.404.198-.404.444s.181.444.404.444h2.829c.223 0 .404-.198.404-.444s-.181-.444-.404-.444zM4.026 9.778h1.948c.215 0 .39-.199.39-.445 0-.245-.175-.444-.39-.444H4.026c-.215 0-.39.199-.39.444 0 .246.175.445.39.445zm6.378 0h2.828c.223 0 .404-.199.404-.445 0-.245-.18-.444-.404-.444h-2.828c-.223 0-.404.199-.404.444 0 .246.181.445.404.445zM8.182 9.33c0 .117.05.233.132.318.086.08.204.13.322.13.119 0 .237-.05.323-.13a.466.466 0 0 0 .132-.317.465.465 0 0 0-.132-.318.482.482 0 0 0-.645 0 .465.465 0 0 0-.132.318zm-1.44 2.226c-.209 0-.378.198-.378.444s.17.444.378.444h3.788c.21 0 .38-.198.38-.444s-.17-.444-.38-.444H6.742zM4.09 13.333a.48.48 0 0 0 .324-.13.466.466 0 0 0 .131-.317.465.465 0 0 0-.131-.317.482.482 0 0 0-.646 0 .456.456 0 0 0-.132.317c0 .116.05.233.132.318.087.08.205.13.323.13zm11.87 4.445h-2.83c-.223 0-.404.198-.404.444s.181.445.404.445h2.829c.223 0 .404-.199.404-.445s-.181-.444-.404-.444zm-5.43 0H6.742c-.209 0-.378.198-.378.444s.17.445.378.445h3.788c.21 0 .38-.199.38-.445s-.17-.444-.38-.444zm-6.762.123a.45.45 0 0 0 0 .636c.087.08.205.13.323.13.123 0 .236-.05.323-.13a.467.467 0 0 0 .131-.318.438.438 0 0 0-.131-.313.477.477 0 0 0-.646-.005zm11.818-8.888a.465.465 0 0 0-.131.318c0 .116.05.232.131.317.087.08.205.13.323.13.118 0 .236-.05.323-.13a.447.447 0 0 0 0-.635.482.482 0 0 0-.646 0zm-2.081 6.857a.466.466 0 0 0 .131-.317.465.465 0 0 0-.131-.318.482.482 0 0 0-.646 0 .465.465 0 0 0-.132.318c0 .116.05.232.132.317.086.085.2.13.323.13s.236-.05.323-.13zm2.081-.635a.465.465 0 0 0-.131.318c0 .116.05.232.131.317.087.08.2.13.323.13s.236-.05.323-.13a.466.466 0 0 0 .132-.317.465.465 0 0 0-.132-.318.482.482 0 0 0-.646 0z"/></g></svg>