<svg xmlns="http://www.w3.org/2000/svg" width="24" height="604" viewBox="0 0 24 604"><path d="M16.5 119.5h7.087M16.5 19.5h7.087m-7.087 116h7.087M16.5 35.5h7.087m-7.087 117h7.087M16.5 52.5h7.087m-7.087 117h7.087M16.5 69.5h7.087m-7.087 116h7.087M16.5 85.5h7.087M8.5 102.5h15.087M.5 202.5h23.087M.5 602.5h23.087M.5 401.5h23.087M8.5 502.5h15.087M8.5 301.5h15.087m-7.087 218h7.087m-7.087-100h7.087m-7.087 116h7.087m-7.087-100h7.087m-7.087 117h7.087m-7.087-100h7.087m-7.087 117h7.087m-7.087-100h7.087m-7.087 116h7.087m-7.087-100h7.087M8.5 102.5h15.087m-7.087 216h7.087m-7.087-100h7.087m-7.087 116h7.087m-7.087-100h7.087m-7.087 117h7.087m-7.087-100h7.087m-7.087 117h7.087m-7.087-100h7.087m-7.087 116h7.087m-7.087-100h7.087M8.5 301.5h15.087M.5 202.5h23.087M.5 1.5h23.087" fill="none" stroke="#FFF" stroke-linecap="square"/></svg>