<svg xmlns="http://www.w3.org/2000/svg" width="282" height="282" viewBox="0 0 282 282"><path fill="#B3B3B3" d="M282 141C282 63.255 218.745 0 141 0S0 63.255 0 141c0 41.064 17.658 78.078 45.766 103.868l-.133.118 4.573 3.856c.298.251.62.456.918.702 2.43 2.015 4.948 3.928 7.511 5.779.831.6 1.662 1.2 2.508 1.784a143.593 143.593 0 0 0 8.419 5.373c.625.37 1.256.729 1.887 1.087a140.697 140.697 0 0 0 9.639 5.025c.24.113.487.216.728.328a139.73 139.73 0 0 0 34.101 10.793l.944.17c3.712.64 7.465 1.153 11.264 1.497.462.04.923.066 1.39.107 3.784.313 7.609.513 11.485.513 3.84 0 7.63-.2 11.393-.502.477-.041.953-.067 1.43-.108 3.769-.344 7.491-.841 11.168-1.472.317-.056.64-.112.958-.174a139.724 139.724 0 0 0 33.62-10.537c.39-.179.784-.348 1.174-.533a141.712 141.712 0 0 0 11.536-6.096 141.074 141.074 0 0 0 8.107-5.127c.948-.646 1.876-1.328 2.814-2.005a140.35 140.35 0 0 0 6.61-5.04c.476-.385.99-.718 1.456-1.113l4.691-3.917-.138-.118C264.172 219.458 282 182.275 282 141zm-271.745 0c0-72.095 58.65-130.745 130.745-130.745S271.745 68.905 271.745 141c0 38.85-17.048 73.776-44.038 97.741-1.507-1.04-3.025-1.974-4.578-2.753l-43.413-21.704a11.365 11.365 0 0 1-6.317-10.219v-15.16a84.4 84.4 0 0 0 3.164-4.19c5.62-7.937 10.126-16.766 13.413-26.267 6.496-3.087 10.69-9.557 10.69-16.863v-18.177c0-4.445-1.63-8.757-4.548-12.146v-23.93c.267-2.66 1.21-17.678-9.654-30.065-9.45-10.788-24.745-16.249-45.464-16.249-20.72 0-36.014 5.46-45.464 16.243-10.864 12.388-9.92 27.406-9.654 30.067v23.929c-2.912 3.389-4.548 7.7-4.548 12.146v18.176c0 5.646 2.533 10.911 6.87 14.464 4.154 16.27 12.7 28.585 15.86 32.759v14.838a11.44 11.44 0 0 1-5.959 10.04l-40.541 22.113a37.054 37.054 0 0 0-3.856 2.44C27.051 214.28 10.255 179.568 10.255 141zm207.444 105.786a131.107 131.107 0 0 1-5.47 3.768c-.852.554-1.698 1.108-2.565 1.646a128.904 128.904 0 0 1-7.393 4.256c-.554.292-1.113.57-1.672.856a130.648 130.648 0 0 1-17.884 7.568c-.215.072-.43.149-.65.22a131.133 131.133 0 0 1-9.763 2.83c-.01 0-.02.006-.03.006-3.323.82-6.687 1.502-10.07 2.061-.093.015-.185.036-.278.051-3.184.518-6.393.892-9.613 1.174-.57.052-1.138.088-1.713.129-3.184.24-6.383.394-9.598.394-3.25 0-6.491-.158-9.716-.4-.56-.04-1.118-.076-1.672-.128-3.25-.287-6.486-.671-9.69-1.194l-.43-.077a130.257 130.257 0 0 1-19.946-4.979c-.2-.066-.405-.138-.605-.205a132.589 132.589 0 0 1-9.547-3.656l-.067-.03c-2.963-1.277-5.87-2.692-8.742-4.184-.374-.195-.753-.38-1.123-.58a131.77 131.77 0 0 1-7.71-4.491c-.75-.472-1.493-.949-2.231-1.43a130.319 130.319 0 0 1-6.86-4.784c-.231-.175-.452-.36-.683-.534l.493-.276 40.541-22.114a21.682 21.682 0 0 0 11.306-19.043l-.005-18.469-1.18-1.425c-.113-.128-11.198-13.613-15.387-31.871l-.466-2.03-1.749-1.134c-2.466-1.594-3.943-4.26-3.943-7.137v-18.176c0-2.384 1.01-4.604 2.856-6.27l1.692-1.529V87.041l-.046-.672c-.015-.123-1.528-12.454 7.158-22.355 7.414-8.45 20.12-12.741 37.752-12.741 17.566 0 30.23 4.255 37.665 12.644 8.675 9.798 7.255 22.36 7.245 22.462l-.046 29.23 1.692 1.529c1.84 1.66 2.856 3.886 2.856 6.27v18.177c0 3.655-2.487 6.973-6.056 8.075l-2.548.784-.82 2.538c-3.025 9.399-7.332 18.08-12.798 25.8-1.343 1.898-2.65 3.58-3.774 4.867l-1.271 1.45v18.966c0 8.266 4.594 15.7 11.987 19.392l43.413 21.704c.277.138.548.282.82.425-.548.415-1.112.8-1.666 1.2z"/></svg>