<svg xmlns="http://www.w3.org/2000/svg" viewBox="2029.578 1011.193 30.844 30.844"><defs><style>.cls-1{fill-rule:evenodd}</style></defs><path id="Path_55" data-name="Path 55" class="cls-1" d="M29.88 5.783A4.772 4.772 0 0 0 25.06.964H5.783A4.772 4.772 0 0 0 .964 5.783V25.06a4.772 4.772 0 0 0 4.819 4.82h9.639v-9.639H12.53v-4.819h2.892v-3.856a3.773 3.773 0 0 1 3.855-3.855H24.1v4.819h-2.9a.944.944 0 0 0-.964.964v1.928h2.892v4.819h-2.887v9.639h4.819a4.772 4.772 0 0 0 4.82-4.82zm-7.711 13.494v-2.891h-2.892v-2.892a1.851 1.851 0 0 1 1.831-1.928h2.024V8.675h-3.855a2.965 2.965 0 0 0-2.892 2.892v4.819h-2.891v2.892h2.892l-.1 10.6h2.988v-10.6zm2.891 11.567H5.783A5.8 5.8 0 0 1 0 25.06V5.783A5.8 5.8 0 0 1 5.783 0H25.06a5.8 5.8 0 0 1 5.783 5.783V25.06a5.8 5.8 0 0 1-5.783 5.784z" transform="translate(2029.578 1011.193)"/></svg>