<svg xmlns="http://www.w3.org/2000/svg" viewBox="2029.578 965.518 30.844 30.844"><defs><style>.cls-1{fill-rule:evenodd}</style></defs><path id="Path_52" data-name="Path 52" class="cls-1" d="M255.422 270.566a4.819 4.819 0 1 0 4.819 4.819 4.772 4.772 0 0 0-4.819-4.819zm0 10.6a5.783 5.783 0 1 1 5.783-5.783 5.8 5.8 0 0 1-5.783 5.786zm0-13.494a7.711 7.711 0 1 0 7.711 7.711 7.734 7.734 0 0 0-7.711-7.708zm0 16.386a8.675 8.675 0 1 1 8.675-8.675 8.639 8.639 0 0 1-8.675 8.677zm11.566-20.241a1.037 1.037 0 0 0-.964-.964H264.1a1.037 1.037 0 0 0-.964.964v1.928a1.037 1.037 0 0 0 .964.964h1.928a1.037 1.037 0 0 0 .964-.964zm-.482 3.855h-2.892a1.482 1.482 0 0 1-1.446-1.446v-2.892a1.482 1.482 0 0 1 1.446-1.446h2.892a1.482 1.482 0 0 1 1.446 1.446v2.892a1.482 1.482 0 0 1-1.446 1.449zm-1.446 19.277h-19.277a2.84 2.84 0 0 1-2.892-2.892v-13.491h4.241a4.5 4.5 0 0 0-.482.964h-2.8v12.53a1.933 1.933 0 0 0 1.928 1.928h19.282a1.933 1.933 0 0 0 1.928-1.928v-12.53h-2.7a4.5 4.5 0 0 0-.482-.964h4.241v13.494a2.983 2.983 0 0 1-2.987 2.892zm4.819-22.169a4.773 4.773 0 0 0-4.819-4.819h-19.277a4.772 4.772 0 0 0-4.819 4.819v19.28a4.772 4.772 0 0 0 4.819 4.819h19.277a4.773 4.773 0 0 0 4.819-4.819zm-4.819 25.06h-19.277a5.8 5.8 0 0 1-5.783-5.78v-19.277a5.8 5.8 0 0 1 5.783-5.783h19.277a5.8 5.8 0 0 1 5.783 5.783v19.277a5.8 5.8 0 0 1-5.783 5.784z" transform="translate(1789.578 706.518)"/></svg>