<svg xmlns="http://www.w3.org/2000/svg" viewBox="2035.458 882.819 18.313 28.916"><path data-name="Path 53" d="M2045.868 882.819h-3.855a1.056 1.056 0 0 0-.964 1.06 5.838 5.838 0 0 1-4.627 5.783 1.124 1.124 0 0 0-.964.964v3.952c0 .578.867.771 1.446.771h2.41v9.35a7.34 7.34 0 0 0 7.614 7.036 12.5 12.5 0 0 0 6.361-1.639.983.983 0 0 0 .482-.771v-4.434a1.281 1.281 0 0 0-.771-.964h-.386a.877.877 0 0 0-.771.386 3.457 3.457 0 0 1-2.6 1.06 2.159 2.159 0 0 1-2.217-2.217v-7.807h4.723c.578 0 1.06-.193 1.06-.675v-4.144a.991.991 0 0 0-1.06-.964h-4.821v-5.59a1.157 1.157 0 0 0-1.06-1.157zm.1.964v6.747h5.783v3.855h-5.783v8.771a3.216 3.216 0 0 0 3.277 3.181 4.571 4.571 0 0 0 3.47-1.446v4.434a10.917 10.917 0 0 1-5.783 1.446c-3.663 0-6.747-2.8-6.747-6.072v-10.314h-3.855v-3.759s5.687-.964 5.687-6.843z"/></svg>