<svg xmlns="http://www.w3.org/2000/svg" viewBox="2030.659 926.963 27.873 24"><path data-name="Path 54" d="M2049.53 926.963a6.442 6.442 0 0 0-6.265 6.554v.193a13.57 13.57 0 0 1-9.06-5.4.877.877 0 0 0-.771-.386h-.1a.983.983 0 0 0-.771.482 6.41 6.41 0 0 0-.867 3.277 7.547 7.547 0 0 0 .675 2.988c-.1 0-.193.1-.289.1a.983.983 0 0 0-.482.771v.1a6.624 6.624 0 0 0 2.12 4.916 1.121 1.121 0 0 0-.193.964 6.617 6.617 0 0 0 3.47 4.048 8.743 8.743 0 0 1-4.145.964 4.693 4.693 0 0 1-1.157-.1h-.1a.926.926 0 0 0-.867.675.962.962 0 0 0 .386 1.157 15.623 15.623 0 0 0 8.681 2.697 15.143 15.143 0 0 0 11.952-5.494 17.92 17.92 0 0 0 4.145-11.374v-.289a11.581 11.581 0 0 0 2.506-2.8 1.01 1.01 0 0 0-.1-1.157 1.094 1.094 0 0 0-.771-.289h-.189a4.028 4.028 0 0 0 .386-.964 1.088 1.088 0 0 0-.289-1.06 1.37 1.37 0 0 0-.578-.193c-.193 0-.386 0-.482.193a10.665 10.665 0 0 1-2.6 1.157 6.148 6.148 0 0 0-4.245-1.73zm0 .964a5.172 5.172 0 0 1 3.856 1.736 10.324 10.324 0 0 0 3.374-1.349 5.419 5.419 0 0 1-2.313 3.084 11.3 11.3 0 0 0 3.084-.867 10.754 10.754 0 0 1-2.6 2.892v.771c0 7.422-5.3 15.9-15.133 15.9a14.624 14.624 0 0 1-8.1-2.506 5.5 5.5 0 0 0 1.253.1 9.988 9.988 0 0 0 6.554-2.41 5.237 5.237 0 0 1-4.916-3.855 3.279 3.279 0 0 0 .964.1 5.689 5.689 0 0 0 1.349-.193 5.53 5.53 0 0 1-4.241-5.494v-.1a5.008 5.008 0 0 0 2.41.675 5.571 5.571 0 0 1-2.41-4.627 5.27 5.27 0 0 1 .771-2.8 15.1 15.1 0 0 0 10.894 5.879 5.5 5.5 0 0 1-.1-1.253 5.441 5.441 0 0 1 5.304-5.683z"/></svg>