<svg width="20" height="20" viewBox="0 0 20 20" xmlns="http://www.w3.org/2000/svg"><title>logout</title><path d="M16.896 10.91H6.815a.905.905 0 0 1-.906-.91c0-.502.41-.91.905-.91h10.082l-3.448-3.447a.91.91 0 0 1 1.286-1.286l5 5a.91.91 0 0 1 0 1.286l-5 5a.91.91 0 0 1-1.286-1.286l3.448-3.448zM10.91 0a.91.91 0 1 1 0 1.818H2.277a.457.457 0 0 0-.459.458v15.448c0 .253.205.458.459.458h8.632a.91.91 0 1 1 0 1.818H2.277A2.276 2.276 0 0 1 0 17.724V2.276A2.275 2.275 0 0 1 2.277 0h8.632z" fill="#AFB3C2"/></svg>