<svg width="20" height="20" viewBox="0 0 20 20" xmlns="http://www.w3.org/2000/svg"><title>settings</title><path d="M6.785 2.276A2.286 2.286 0 0 1 9.078 0h1.844a2.283 2.283 0 0 1 2.293 2.276v.621c.504.214.982.479 1.43.79l.54-.308a2.307 2.307 0 0 1 3.128.829l.922 1.574a2.262 2.262 0 0 1-.844 3.114l-.48.273a7.705 7.705 0 0 1 0 1.662l.48.273a2.262 2.262 0 0 1 .844 3.114l-.922 1.574a2.307 2.307 0 0 1-3.127.829l-.542-.309a7.846 7.846 0 0 1-1.429.79v.622A2.286 2.286 0 0 1 10.922 20H9.078a2.283 2.283 0 0 1-2.293-2.276v-.735a7.847 7.847 0 0 1-1.287-.757l-.684.389a2.307 2.307 0 0 1-3.127-.829l-.922-1.574a2.262 2.262 0 0 1 .844-3.114l.722-.411a7.715 7.715 0 0 1 0-1.386l-.722-.41a2.262 2.262 0 0 1-.844-3.115l.922-1.574a2.307 2.307 0 0 1 3.127-.829l.684.39a7.847 7.847 0 0 1 1.287-.758v-.735zm1.818 1.34a.91.91 0 0 1-.594.852A6.028 6.028 0 0 0 6.173 5.55a.91.91 0 0 1-1.042.101L3.915 4.96a.49.49 0 0 0-.659.167L2.334 6.7a.444.444 0 0 0 .174.615l1.254.713a.91.91 0 0 1 .445.949 5.855 5.855 0 0 0 0 2.044.91.91 0 0 1-.445.949l-1.254.713c-.226.128-.3.4-.174.615l.922 1.574a.49.49 0 0 0 .66.167l1.215-.691a.91.91 0 0 1 1.042.1 6.028 6.028 0 0 0 1.836 1.083.91.91 0 0 1 .594.852v1.34c0 .251.209.458.475.458h1.844a.468.468 0 0 0 .475-.458v-1.25a.91.91 0 0 1 .627-.865 6.027 6.027 0 0 0 1.97-1.084.91.91 0 0 1 1.028-.09l1.063.605a.49.49 0 0 0 .659-.167l.922-1.574a.444.444 0 0 0-.174-.615l-1.023-.582a.91.91 0 0 1-.442-.966 5.847 5.847 0 0 0 0-2.272.91.91 0 0 1 .442-.966l1.023-.582c.226-.128.3-.4.174-.615l-.922-1.574a.49.49 0 0 0-.66-.167l-1.062.604a.91.91 0 0 1-1.029-.089 6.027 6.027 0 0 0-1.969-1.084.91.91 0 0 1-.627-.864v-1.25a.465.465 0 0 0-.475-.458H9.078a.468.468 0 0 0-.475.458v1.34zM10 13.182a3.182 3.182 0 1 1 0-6.364 3.182 3.182 0 0 1 0 6.364zm0-1.818a1.364 1.364 0 1 0 0-2.728 1.364 1.364 0 0 0 0 2.728z" fill="#AFB3C2"/></svg>