<svg width="30" height="30" viewBox="0 0 30 30" xmlns="http://www.w3.org/2000/svg"><title>img</title><path d="M23.804 24.101H6.33v-1.923c0-1.212 1.8-1.864 2.7-2.25.54-.233 1.103-.443 1.648-.713.73-.345 1.478-.75 2.022-1.384.185-.232.3-.386.3-.693 0-.443-.096-.886-.207-1.31-.13-.652-.467-1.192-.73-1.807-.319-.768-.411-1.579-.582-2.366-.055-.345-.17-.671-.17-1.02 0-2.385 1.219-4.481 3.748-4.481 2.53 0 3.745 2.096 3.745 4.481 0 .349-.093.675-.148 1.02-.152.787-.263 1.598-.563 2.366-.263.615-.582 1.155-.73 1.808-.093.424-.207.866-.207 1.309 0 .307.114.46.3.693.544.634 1.292 1.039 2.022 1.384.544.251 1.107.48 1.648.713.9.367 2.678 1.038 2.678 2.25V24.1zM14.814 0C6.635 0 0 6.716 0 15c0 8.284 6.633 15 14.815 15C22.996 30 30 23.284 30 15c0-8.284-7.004-15-15.185-15z" fill="#ACAFB1" fill-rule="evenodd"/></svg>