<svg xmlns="http://www.w3.org/2000/svg" viewBox="0 0 337 255"><defs><style>.cls-1{fill:#e3e7ef}</style></defs><g id="Layer_2" data-name="Layer 2"><g id="Layer_1-2" data-name="Layer 1"><path class="cls-1" d="M334 0H3a3 3 0 0 0-3 3v173.13l55-36.41.72-.24a3.12 3.12 0 0 1 1.07-.48 3 3 0 0 1 2.26.39l91.25 57.55L294 101.72a2.93 2.93 0 0 1 1-.41 2.74 2.74 0 0 1 .78-.3 3 3 0 0 1 2.26.39L337 126V3a3 3 0 0 0-3-3zM111 90a22 22 0 1 1 22-22 22 22 0 0 1-22 22z"/><path class="cls-1" d="M337 135.08V252a3 3 0 0 1-3 3H3a3 3 0 0 1-3-3v-66l57.78-38.28L148 204.61a3 3 0 0 0 2.26.39 2.69 2.69 0 0 0 .65-.24 1 1 0 0 0 1.14-.48l143.7-95.22z"/></g></g></svg>