<svg width="36" height="36" xmlns="http://www.w3.org/2000/svg"><title>1</title><g id="Page-1" fill="none" fill-rule="evenodd"><g id="Desktop-HD-Copy-3" transform="translate(-264 -6618)"><g id="1" transform="translate(266 6620)"><path d="M4.571.508C7.111.254 14.035 0 16 0c2.056 0 8.889.254 11.429.508 2.54.254 3.81 1.524 4.063 4.063C31.746 7.111 32 13.933 32 16c0 2.075-.254 8.889-.508 11.429-.254 2.54-1.524 3.81-4.063 4.056-2.54.248-9.343.515-11.429.515-2.082 0-8.84-.267-11.405-.515-2.563-.247-3.833-1.517-4.087-4.31C.254 24.38 0 18.075 0 16c0-2.126.254-8.635.508-11.429C.762 1.778 2.032.761 4.57.508z" id="Rectangle-7-Copy-4" stroke="#000" stroke-width="4" fill="#FFF"/><path fill="#000" d="M12 12.968l1.183 1.621 2.434-1.654V22H18V10h-1.808z"/></g></g></g></svg>