<?xml version="1.0" encoding="UTF-8"?>
<svg width="36px" height="36px" viewBox="0 0 36 36" version="1.1" xmlns="http://www.w3.org/2000/svg" xmlns:xlink="http://www.w3.org/1999/xlink">
    <!-- Generator: Sketch 47 (45396) - http://www.bohemiancoding.com/sketch -->
    <title>1</title>
    <desc>Created with Sketch.</desc>
    <defs></defs>
    <g id="Page-1" stroke="none" stroke-width="1" fill="none" fill-rule="evenodd">
        <g id="Desktop-HD-Copy-3" transform="translate(-264.000000, -6618.000000)">
            <g id="1" transform="translate(266.000000, 6620.000000)">
                <path d="M4.57142857,0.507936508 C7.11111111,0.253968254 14.0353662,-7.10542736e-15 16,-7.10542736e-15 C18.0561153,-7.10542736e-15 24.8888889,0.253968254 27.4285714,0.507936508 C29.968254,0.761904762 31.2380952,2.03174603 31.4920635,4.57142857 C31.7460317,7.11111111 32,13.9327933 32,16 C32,18.0750418 31.7460317,24.8888889 31.4920635,27.4285714 C31.2380952,29.968254 29.968254,31.2380952 27.4285714,31.4854218 C24.8888889,31.7327484 18.0859894,32 16,32 C13.9179304,32 7.15919577,31.7327484 4.5954709,31.4854218 C2.03174603,31.2380952 0.761904762,29.968254 0.507936508,27.1746032 C0.253968254,24.3809524 1.27897692e-13,18.0756392 1.27897692e-13,16 C1.27897692e-13,13.8743554 0.253968254,7.36507937 0.507936508,4.57142857 C0.761904762,1.77777778 2.03174603,0.761904762 4.57142857,0.507936508 Z" id="Rectangle-7-Copy-4" stroke="#000000" stroke-width="4" fill="#FFFFFF"></path>
                <polygon fill="#000000" points="12 12.9675676 13.1830986 14.5891892 15.6169014 12.9351351 15.6169014 22 18 22 18 10 16.1915493 10"></polygon>
            </g>
        </g>
    </g>
</svg>