<svg width="36" height="36" viewBox="0 0 36 36" xmlns="http://www.w3.org/2000/svg"><title>1</title><g fill="none" fill-rule="evenodd"><path d="M6.571 2.508C9.111 2.254 16.035 2 18 2c2.056 0 8.889.254 11.429.508 2.54.254 3.81 1.524 4.063 4.063C33.746 9.111 34 15.933 34 18c0 2.075-.254 8.889-.508 11.429-.254 2.54-1.524 3.81-4.063 4.056-2.54.248-9.343.515-11.429.515-2.082 0-8.84-.267-11.405-.515-2.563-.247-3.833-1.517-4.087-4.31C2.254 26.38 2 20.075 2 18c0-2.126.254-8.635.508-11.429.254-2.793 1.524-3.81 4.063-4.063z" stroke="#000" stroke-width="4" fill="#FFF"/><path fill="#000" d="M14 14.968l1.183 1.621 2.434-1.654V24H20V12h-1.808z"/></g></svg>