<svg width="36" height="36" xmlns="http://www.w3.org/2000/svg"><title>2</title><g id="Page-1" fill="none" fill-rule="evenodd"><g id="Desktop-HD-Copy-3" transform="translate(-702 -6619)"><g id="2" transform="translate(704 6621)"><path d="M4.571.508C7.111.254 14.035 0 16 0c2.056 0 8.889.254 11.429.508 2.54.254 3.81 1.524 4.063 4.063C31.746 7.111 32 13.933 32 16c0 2.075-.254 8.889-.508 11.429-.254 2.54-1.524 3.81-4.063 4.056-2.54.248-9.343.515-11.429.515-2.082 0-8.84-.267-11.405-.515-2.563-.247-3.833-1.517-4.087-4.31C.254 24.38 0 18.075 0 16c0-2.126.254-8.635.508-11.429C.762 1.778 2.032.761 4.57.508z" id="Rectangle-7-Copy-27" stroke="#000" stroke-width="4" fill="#FFF"/><path d="M20 20.128l-5.068.048 2.2-2.304c.94-.976 1.625-1.824 2.071-2.512.43-.688.654-1.424.654-2.192C19.857 11.264 18.31 10 16 10c-2.295 0-3.873 1.392-3.873 3.44l2.28.208c0-1.072.653-1.776 1.657-1.776.908 0 1.53.592 1.53 1.472 0 .368-.128.8-.367 1.264a6.811 6.811 0 0 1-.94 1.312c-.367.4-.59.64-.638.688L12 20.576V22h8v-1.872z" id="2-copy" fill="#000"/></g></g></g></svg>