<svg width="36" height="36" viewBox="0 0 36 36" xmlns="http://www.w3.org/2000/svg"><title>2</title><g fill="none" fill-rule="evenodd"><path d="M6.571 2.508C9.111 2.254 16.035 2 18 2c2.056 0 8.889.254 11.429.508 2.54.254 3.81 1.524 4.063 4.063C33.746 9.111 34 15.933 34 18c0 2.075-.254 8.889-.508 11.429-.254 2.54-1.524 3.81-4.063 4.056-2.54.248-9.343.515-11.429.515-2.082 0-8.84-.267-11.405-.515-2.563-.247-3.833-1.517-4.087-4.31C2.254 26.38 2 20.075 2 18c0-2.126.254-8.635.508-11.429.254-2.793 1.524-3.81 4.063-4.063z" stroke="#000" stroke-width="4" fill="#FFF"/><path d="M22 22.128l-5.068.048 2.2-2.304c.94-.976 1.625-1.824 2.071-2.512.43-.688.654-1.424.654-2.192C21.857 13.264 20.31 12 18 12c-2.295 0-3.873 1.392-3.873 3.44l2.28.208c0-1.072.653-1.776 1.657-1.776.908 0 1.53.592 1.53 1.472 0 .368-.128.8-.367 1.264a6.811 6.811 0 0 1-.94 1.312c-.367.4-.59.64-.638.688L14 22.576V24h8v-1.872z" fill="#000"/></g></svg>