<svg width="36" height="36" xmlns="http://www.w3.org/2000/svg"><title>3</title><g id="Page-1" fill="none" fill-rule="evenodd"><g id="Desktop-HD-Copy-3" transform="translate(-1141 -6618)"><g id="3" transform="translate(1143 6620)"><path d="M4.571.508C7.111.254 14.035 0 16 0c2.056 0 8.889.254 11.429.508 2.54.254 3.81 1.524 4.063 4.063C31.746 7.111 32 13.933 32 16c0 2.075-.254 8.889-.508 11.429-.254 2.54-1.524 3.81-4.063 4.056-2.54.248-9.343.515-11.429.515-2.082 0-8.84-.267-11.405-.515-2.563-.247-3.833-1.517-4.087-4.31C.254 24.38 0 18.075 0 16c0-2.126.254-8.635.508-11.429C.762 1.778 2.032.761 4.57.508z" id="Rectangle-7-Copy-28" stroke="#000" stroke-width="4" fill="#FFF"/><path d="M19.402 11.408V10h-6.867v1.872h3.985l-3.229 3.744.599 1.136a3.299 3.299 0 0 1 1.59-.384c1.339 0 2.22.72 2.22 1.856 0 1.152-.928 1.904-2.393 1.904-1.008 0-1.905-.336-2.472-.96L12 20.816c.756.752 2.11 1.184 3.56 1.184 2.708 0 4.44-1.52 4.44-3.792 0-2.048-1.449-3.52-3.622-3.552l3.024-3.248z" fill="#000"/></g></g></g></svg>