<svg width="24" height="24" viewBox="0 0 24 24" xmlns="http://www.w3.org/2000/svg"><title>plus copy</title><g fill="none" fill-rule="evenodd"><path d="M3.429.381C5.333.191 10.527 0 12 0c1.542 0 6.667.19 8.571.381 1.905.19 2.858 1.143 3.048 3.048.19 1.904.381 7.02.381 8.571 0 1.556-.19 6.667-.381 8.571-.19 1.905-1.143 2.858-3.048 3.043C18.667 23.8 13.564 24 12 24c-1.562 0-6.63-.2-8.553-.386C1.524 23.43.57 22.476.38 20.381.191 18.286 0 13.557 0 12c0-1.594.19-6.476.381-8.571C.571 1.333 1.524.57 3.429.38z" fill="#000"/><path fill="#FFF" d="M18 13.477V10.55h-4.278V6h-3.444v4.549H6v2.928h4.278V18h3.444v-4.523z"/></g></svg>