<?xml version="1.0" encoding="UTF-8"?>
<svg width="24px" height="24px" viewBox="0 0 24 24" version="1.1" xmlns="http://www.w3.org/2000/svg" xmlns:xlink="http://www.w3.org/1999/xlink">
    <!-- Generator: Sketch 47 (45396) - http://www.bohemiancoding.com/sketch -->
    <title>plus copy</title>
    <desc>Created with Sketch.</desc>
    <defs></defs>
    <g id="Page-1" stroke="none" stroke-width="1" fill="none" fill-rule="evenodd">
        <g id="plus-copy">
            <path d="M3.42857143,0.380952381 C5.33333333,0.19047619 10.5265247,-7.10542736e-15 12,-7.10542736e-15 C13.5420865,-7.10542736e-15 18.6666667,0.19047619 20.5714286,0.380952381 C22.4761905,0.571428571 23.4285714,1.52380952 23.6190476,3.42857143 C23.8095238,5.33333333 24,10.449595 24,12 C24,13.5562814 23.8095238,18.6666667 23.6190476,20.5714286 C23.4285714,22.4761905 22.4761905,23.4285714 20.5714286,23.6140664 C18.6666667,23.7995613 13.5644921,24 12,24 C10.4384478,24 5.36939683,23.7995613 3.44660318,23.6140664 C1.52380952,23.4285714 0.571428571,22.4761905 0.380952381,20.3809524 C0.19047619,18.2857143 1.27897692e-13,13.5567294 1.27897692e-13,12 C1.27897692e-13,10.4057665 0.19047619,5.52380952 0.380952381,3.42857143 C0.571428571,1.33333333 1.52380952,0.571428571 3.42857143,0.380952381 Z" id="Rectangle-7-Copy-3" fill="#000000"></path>
            <polygon id="+" fill="#FFFFFF" points="18 13.4771242 18 10.5490196 13.721519 10.5490196 13.721519 6 10.278481 6 10.278481 10.5490196 6 10.5490196 6 13.4771242 10.278481 13.4771242 10.278481 18 13.721519 18 13.721519 13.4771242"></polygon>
        </g>
    </g>
</svg>