<svg width="19" height="19" xmlns="http://www.w3.org/2000/svg"><title>Rectangle 7 Copy 3</title><g id="Page-1" fill="none" fill-rule="evenodd"><g id="Desktop-HD-Copy-3" transform="translate(-273 -4561)" stroke="#000" stroke-width="4" fill="#FFF"><g id="headline" transform="translate(150 4315)"><g id="content" transform="translate(0 112)"><g id="timeline" transform="translate(0 136)"><path d="M127.143.238C128.333.12 131.579 0 132.5 0c.964 0 4.167.119 5.357.238 1.19.12 1.786.714 1.905 1.905.119 1.19.238 4.388.238 5.357 0 .973-.119 4.167-.238 5.357-.12 1.19-.714 1.786-1.905 1.902-1.19.116-4.38.241-5.357.241-.976 0-4.144-.125-5.346-.241-1.202-.116-1.797-.711-1.916-2.02-.119-1.31-.238-4.266-.238-5.239 0-.996.119-4.048.238-5.357.12-1.31.714-1.786 1.905-1.905z" id="Rectangle-7-Copy-3"/></g></g></g></g></g></svg>