<svg width="19" height="19" viewBox="0 0 19 19" xmlns="http://www.w3.org/2000/svg"><title>Rectangle 7 Copy 3</title><path d="M4.143 2.238C5.333 2.12 8.579 2 9.5 2c.964 0 4.167.119 5.357.238 1.19.12 1.786.714 1.905 1.905C16.88 5.333 17 8.53 17 9.5c0 .973-.119 4.167-.238 5.357-.12 1.19-.714 1.786-1.905 1.902-1.19.116-4.38.241-5.357.241-.976 0-4.144-.125-5.346-.241-1.202-.116-1.797-.711-1.916-2.02C2.12 13.428 2 10.472 2 9.5c0-.996.119-4.048.238-5.357.12-1.31.714-1.786 1.905-1.905z" stroke="#000" stroke-width="4" fill="#FFF" fill-rule="evenodd"/></svg>