<svg width="126" height="126" xmlns="http://www.w3.org/2000/svg" xmlns:xlink="http://www.w3.org/1999/xlink"><title>Rectangle 7</title><defs><path d="M75 39c10-1 37.264-2 45-2 8.096 0 35 1 45 2s15 6 16 16 2 36.86 2 45c0 8.17-1 35-2 45s-6 15-16 15.974c-10 .974-36.786 2.026-45 2.026-8.198 0-34.81-1.052-44.905-2.026C65 160 60 155 59 144c-1-11-2-35.827-2-44 0-8.37 1-34 2-45s6-15 16-16z" id="path-1"/></defs><g id="Page-1" fill="none" fill-rule="evenodd"><g id="Artboard" transform="translate(-57 -37)"><g id="Rectangle-7"><use fill="#D8D8D8" xlink:href="#path-1"/><path stroke="#979797" d="M75.05 39.498c-10.214 1.02-14.612 5.21-15.552 15.547C58.583 65.115 57.5 90.602 57.5 100c0 9.1 1.078 33.838 1.998 43.955.968 10.649 5.683 15.56 15.645 16.521 9.205.888 35.591 2.024 44.857 2.024 9.322 0 35.853-1.138 44.952-2.024 9.759-.95 14.574-5.76 15.55-15.526.895-8.947 1.998-35.352 1.998-44.95 0-9.578-1.103-36.01-1.998-44.95-.976-9.763-5.789-14.576-15.552-15.552-8.93-.894-35.402-1.998-44.95-1.998-9.308 0-36.096 1.112-44.95 1.998z"/></g></g></g></svg>