<svg width="15" height="15" viewBox="0 0 15 15" xmlns="http://www.w3.org/2000/svg"><title>Rectangle 7 Copy 3</title><path d="M2.143.238C3.333.12 6.579 0 7.5 0c.964 0 4.167.119 5.357.238 1.19.12 1.786.714 1.905 1.905C14.88 3.333 15 6.53 15 7.5c0 .973-.119 4.167-.238 5.357-.12 1.19-.714 1.786-1.905 1.902-1.19.116-4.38.241-5.357.241-.976 0-4.144-.125-5.346-.241-1.202-.116-1.797-.711-1.916-2.02C.12 11.428 0 8.472 0 7.5c0-.996.119-4.048.238-5.357C.358.833.952.357 2.143.238z" fill-rule="evenodd"/></svg>