<svg width="15" height="15" xmlns="http://www.w3.org/2000/svg"><title>Rectangle 7 Copy 3</title><g id="Page-1" fill="none" fill-rule="evenodd"><g id="Artboard-Copy" transform="translate(-133 -125)" fill="#000"><path d="M135.143 125.238c1.19-.119 4.436-.238 5.357-.238.964 0 4.167.119 5.357.238 1.19.12 1.786.714 1.905 1.905.119 1.19.238 4.388.238 5.357 0 .973-.119 4.167-.238 5.357-.12 1.19-.714 1.786-1.905 1.902-1.19.116-4.38.241-5.357.241-.976 0-4.144-.125-5.346-.241-1.202-.116-1.797-.711-1.916-2.02-.119-1.31-.238-4.266-.238-5.239 0-.996.119-4.048.238-5.357.12-1.31.714-1.786 1.905-1.905z" id="Rectangle-7-Copy-3"/></g></g></svg>