<svg xmlns="http://www.w3.org/2000/svg" viewBox="0 0 470.4 470.4"><title>Ресурс 1</title><g id="Слой_2" data-name="Слой 2"><g id="Слой_1-2" data-name="Слой 1"><path d="M417.4,0H53A53,53,0,0,0,0,53V417.4a53,53,0,0,0,53,53H417.4a53,53,0,0,0,53-53V53A53,53,0,0,0,417.4,0ZM234.78,387.17a2.62,2.62,0,0,0-.23,1,3.2,3.2,0,0,1-.26,1.13,2.87,2.87,0,0,0-.23,1.05,2.91,2.91,0,0,1-.24,1,2.9,2.9,0,0,0-.24,1.08c-.08.75-.1.79-.34.89a1.75,1.75,0,0,1-1.3-.16,2.37,2.37,0,0,0-.92-.23,3.12,3.12,0,0,1-1-.25,2.27,2.27,0,0,0-.87-.22,3.17,3.17,0,0,1-1.17-.29,2.52,2.52,0,0,0-.84-.19,3.09,3.09,0,0,1-1.14-.26,2.48,2.48,0,0,0-.81-.21,3.21,3.21,0,0,1-1.22-.28,2.89,2.89,0,0,0-1-.22,3.15,3.15,0,0,1-1.07-.25,2.81,2.81,0,0,0-1-.23,2.28,2.28,0,0,1-1-.23,2.23,2.23,0,0,0-.92-.24,3.22,3.22,0,0,1-1.25-.29,1.61,1.61,0,0,0-.31-.11,7.66,7.66,0,0,0-.84-.11,2.65,2.65,0,0,1-.86-.22,2.51,2.51,0,0,0-.92-.23,3.24,3.24,0,0,1-1-.24,2.35,2.35,0,0,0-.9-.23,3.15,3.15,0,0,1-1.09-.25,2.8,2.8,0,0,0-1-.24,3,3,0,0,1-1.08-.25,2.39,2.39,0,0,0-.89-.22,2.58,2.58,0,0,1-1.09-.26,2.43,2.43,0,0,0-.91-.22,3.12,3.12,0,0,1-1.11-.24l-.32-.13c-.62-.22-.73-.39-.5-.74a2.06,2.06,0,0,0,.23-.94,2.87,2.87,0,0,1,.28-1.19,2.4,2.4,0,0,0,.19-.91,3.13,3.13,0,0,1,.25-1.09,3.18,3.18,0,0,0,.24-1.07,2.81,2.81,0,0,1,.27-1.1,2.46,2.46,0,0,0,.18-.81,3.26,3.26,0,0,1,.26-1.2,2.72,2.72,0,0,0,.24-1.08,2.91,2.91,0,0,1,.24-1,2.85,2.85,0,0,0,.24-1.08,3,3,0,0,1,.24-1,2.23,2.23,0,0,0,.22-.88,3.07,3.07,0,0,1,.26-1.2,2.6,2.6,0,0,0,.23-1,3.16,3.16,0,0,1,.21-1,3.53,3.53,0,0,0,.31-1.36,2.81,2.81,0,0,1,.24-.89,2.54,2.54,0,0,0,.21-.93,2.91,2.91,0,0,1,.28-1.18,3,3,0,0,0,.21-1,2.9,2.9,0,0,1,.24-1,3,3,0,0,0,.26-1.21,2.86,2.86,0,0,1,.24-.91,2.46,2.46,0,0,0,.22-1,3.05,3.05,0,0,1,.25-1.08,3.16,3.16,0,0,0,.24-1.09,3,3,0,0,1,.22-1,2.75,2.75,0,0,0,.26-1.11,3,3,0,0,1,.25-1,2.32,2.32,0,0,0,.22-1,3,3,0,0,1,.25-1.1,3,3,0,0,0,.24-1.08,3,3,0,0,1,.22-1,2.55,2.55,0,0,0,.25-1,3,3,0,0,1,.27-1.16,2.25,2.25,0,0,0,.19-.83,3.24,3.24,0,0,1,.28-1.24,2.84,2.84,0,0,0,.21-.94,3.11,3.11,0,0,1,.28-1.19,2.58,2.58,0,0,0,.2-.89,3,3,0,0,1,.27-1.16,2.61,2.61,0,0,0,.21-.93,2.9,2.9,0,0,1,.24-1.1,2.6,2.6,0,0,0,.24-1,3.44,3.44,0,0,1,.09-.52c.1-.34,0-.46-.47-.52a2.15,2.15,0,0,1-.72-.2,2.49,2.49,0,0,0-1-.23,3.07,3.07,0,0,1-1.12-.25,2.17,2.17,0,0,0-.74-.21,3.31,3.31,0,0,1-1.21-.26,2.88,2.88,0,0,0-1-.24,3.14,3.14,0,0,1-1.07-.25,2.83,2.83,0,0,0-1-.23,3.09,3.09,0,0,1-1.06-.25,2.63,2.63,0,0,0-1-.23,3,3,0,0,1-1.07-.25,2.87,2.87,0,0,0-.91-.23,2.83,2.83,0,0,1-1-.24,2.92,2.92,0,0,0-1-.24,3.18,3.18,0,0,1-1-.24,2.79,2.79,0,0,0-1-.24,3,3,0,0,1-1.08-.25,2.67,2.67,0,0,0-1.09-.24,4.29,4.29,0,0,1-.53-.08c-.73-.2-.83-.13-.92.73a3.16,3.16,0,0,1-.25,1.12,2.71,2.71,0,0,0-.23,1,3.19,3.19,0,0,1-.27,1.18,2.55,2.55,0,0,0-.21.93,2.76,2.76,0,0,1-.26,1.12,2.55,2.55,0,0,0-.22,1A3,3,0,0,1,194,342a3.06,3.06,0,0,0-.23,1,3,3,0,0,1-.24,1,2.67,2.67,0,0,0-.23,1,2.85,2.85,0,0,1-.27,1.15,2.76,2.76,0,0,0-.21.95,2.86,2.86,0,0,1-.26,1.13,2.79,2.79,0,0,0-.21.87,3.25,3.25,0,0,1-.26,1.21,2.74,2.74,0,0,0-.23,1,2.93,2.93,0,0,1-.27,1.15,2.87,2.87,0,0,0-.21.94,3,3,0,0,1-.25,1.12,2.71,2.71,0,0,0-.22.89,3.22,3.22,0,0,1-.27,1.23,2.46,2.46,0,0,0-.22,1,3,3,0,0,1-.27,1.15,2.68,2.68,0,0,0-.21.94,3.19,3.19,0,0,1-.24,1.1,2.7,2.7,0,0,0-.24,1,2.76,2.76,0,0,1-.26,1.14,2.73,2.73,0,0,0-.22,1,2.93,2.93,0,0,1-.26,1.13,3,3,0,0,0-.23,1,3,3,0,0,1-.24,1,2.63,2.63,0,0,0-.23,1,3,3,0,0,1-.27,1.16,2.72,2.72,0,0,0-.21.92,2.94,2.94,0,0,1-.25,1.12,2.6,2.6,0,0,0-.22.9,3.21,3.21,0,0,1-.27,1.22,2.5,2.5,0,0,0-.22,1,3.18,3.18,0,0,1-.25,1.12,2.71,2.71,0,0,0-.23,1,3,3,0,0,1-.25,1.12,2.92,2.92,0,0,0-.23,1,3.31,3.31,0,0,1-.25,1.11,2.47,2.47,0,0,0-.23,1c-.09.85-.15,1-.44,1.15a2.11,2.11,0,0,1-1.46-.21,2.38,2.38,0,0,0-.85-.19,3,3,0,0,1-1.12-.25,2.67,2.67,0,0,0-.95-.22,3.15,3.15,0,0,1-1.25-.29,2.38,2.38,0,0,0-.89-.21,3.09,3.09,0,0,1-1.06-.25,2.62,2.62,0,0,0-.94-.23,3,3,0,0,1-1.12-.28,2.38,2.38,0,0,0-.83-.19,3,3,0,0,1-1.12-.25,2.92,2.92,0,0,0-1-.24,3.15,3.15,0,0,1-1.07-.25,2.83,2.83,0,0,0-1-.23,3.09,3.09,0,0,1-1.06-.25A2.62,2.62,0,0,0,168,378a3,3,0,0,1-1.12-.28,2.35,2.35,0,0,0-.83-.19,3,3,0,0,1-1.13-.25,2.92,2.92,0,0,0-1-.24,3.15,3.15,0,0,1-1.07-.25,2.81,2.81,0,0,0-1-.23,3,3,0,0,1-1.06-.25,2.65,2.65,0,0,0-.92-.23,3,3,0,0,1-1.1-.28,2.1,2.1,0,0,0-.74-.18c-1-.1-1.1-.13-1.45-.38s-.37-.45-.12-1a2.85,2.85,0,0,0,.26-1.13,3,3,0,0,1,.24-1,2.41,2.41,0,0,0,.22-.88,3.14,3.14,0,0,1,.27-1.22,3,3,0,0,0,.23-1,2.89,2.89,0,0,1,.28-1.13,3.27,3.27,0,0,0,.21-1,3.12,3.12,0,0,1,.25-1,2.23,2.23,0,0,0,.21-.85,3.16,3.16,0,0,1,.27-1.22,2.21,2.21,0,0,0,.2-.76l.06-.52a2.44,2.44,0,0,1,.22-.83,3.08,3.08,0,0,0,.25-1.2,3,3,0,0,1,.24-.91,2.25,2.25,0,0,0,.21-.86,3.15,3.15,0,0,1,.27-1.21,3.25,3.25,0,0,0,.24-1.07,3,3,0,0,1,.24-1,2.41,2.41,0,0,0,.22-.88,3.32,3.32,0,0,1,.29-1.27,2.51,2.51,0,0,0,.2-.91,3,3,0,0,1,.25-1.13,2.77,2.77,0,0,0,.24-1.07,2.94,2.94,0,0,1,.23-1,2.46,2.46,0,0,0,.23-.92,3.26,3.26,0,0,1,.28-1.23,2.88,2.88,0,0,0,.21-.93,2.93,2.93,0,0,1,.26-1.15,3,3,0,0,0,.24-1.07,3,3,0,0,1,.24-1,2.62,2.62,0,0,0,.23-1,3,3,0,0,1,.27-1.16,2.72,2.72,0,0,0,.21-.92,2.8,2.8,0,0,1,.25-1.12,2.74,2.74,0,0,0,.24-1.09,3.1,3.1,0,0,1,.26-1.06,2.36,2.36,0,0,0,.21-.94,3,3,0,0,1,.27-1.14,2.62,2.62,0,0,0,.2-.85,3.18,3.18,0,0,1,.26-1.21,2.29,2.29,0,0,0,.22-.89,3.37,3.37,0,0,1,.27-1.23,2.62,2.62,0,0,0,.23-1,2.8,2.8,0,0,1,.19-.9,2.43,2.43,0,0,0,.26-1.08c0-.41,0-.42-.64-.49a2.82,2.82,0,0,1-1-.24,2.37,2.37,0,0,0-.89-.22,3.1,3.1,0,0,1-1.14-.26,3,3,0,0,0-1.05-.24,3,3,0,0,1-1-.23,2.69,2.69,0,0,0-1-.25,3.09,3.09,0,0,1-1.07-.25,2.27,2.27,0,0,0-.87-.22,3.17,3.17,0,0,1-1.17-.29,2.52,2.52,0,0,0-.84-.19,3.09,3.09,0,0,1-1.14-.26,2.91,2.91,0,0,0-1-.24,3.21,3.21,0,0,1-1-.23,2.5,2.5,0,0,0-1-.25,3,3,0,0,1-1.07-.25,2.19,2.19,0,0,0-.9-.22,3,3,0,0,1-1.21-.27,2.39,2.39,0,0,0-.82-.21,3.11,3.11,0,0,1-1.1-.26,2.67,2.67,0,0,0-1-.22,3.1,3.1,0,0,1-1.25-.28,2.41,2.41,0,0,0-.88-.21,3.1,3.1,0,0,1-1.05-.25,2.25,2.25,0,0,0-.88-.22,3.2,3.2,0,0,1-1.25-.3,2.89,2.89,0,0,0-.9-.2,2.5,2.5,0,0,1-1.09-.27,2,2,0,0,0-.82-.2,3.18,3.18,0,0,1-1.14-.25,2.86,2.86,0,0,0-1-.24,3.07,3.07,0,0,1-1.07-.25,2.25,2.25,0,0,0-.88-.22,3.22,3.22,0,0,1-1.25-.29,2.6,2.6,0,0,0-.91-.2,2.7,2.7,0,0,1-1.05-.24,3,3,0,0,0-1-.24,3.28,3.28,0,0,1-1-.24,2.85,2.85,0,0,0-1-.24,3.07,3.07,0,0,1-1.07-.25,2.25,2.25,0,0,0-.88-.22,3.22,3.22,0,0,1-1.25-.29,2.35,2.35,0,0,0-.85-.19,3,3,0,0,1-1.17-.25,2.67,2.67,0,0,0-1-.24,3.09,3.09,0,0,1-1-.25,3.13,3.13,0,0,0-1-.24,2.74,2.74,0,0,1-1-.24,2.25,2.25,0,0,0-.88-.22,3.24,3.24,0,0,1-1.23-.29,3.56,3.56,0,0,0-.49-.16c-.6-.16-.7-.33-.38-.64.15-.15.15-.15.24-.54a1.2,1.2,0,0,1,.25-.56,1.13,1.13,0,0,0,.24-.57,1,1,0,0,1,.24-.53,1,1,0,0,0,.23-.52,1,1,0,0,1,.23-.53.87.87,0,0,0,.23-.52,1.1,1.1,0,0,1,.26-.6,1.43,1.43,0,0,0,.27-.68,1.49,1.49,0,0,1,.28-.53,1.08,1.08,0,0,0,.16-.43,1.09,1.09,0,0,1,.26-.59.8.8,0,0,0,.2-.45,1,1,0,0,1,.24-.58.89.89,0,0,0,.24-.54,1.12,1.12,0,0,1,.24-.56,1.28,1.28,0,0,0,.26-.61,1.13,1.13,0,0,1,.27-.56.91.91,0,0,0,.2-.49,1.06,1.06,0,0,1,.25-.55.92.92,0,0,0,.23-.53.91.91,0,0,1,.24-.53.92.92,0,0,0,.24-.54,1.33,1.33,0,0,1,.26-.61,1.16,1.16,0,0,0,.24-.56,1,1,0,0,1,.24-.53.93.93,0,0,0,.23-.52.91.91,0,0,1,.2-.49,1,1,0,0,0,.28-.62,1.13,1.13,0,0,1,.23-.53,1.19,1.19,0,0,0,.25-.55,1.21,1.21,0,0,1,.26-.59c.14-.19.15-.21.26-.65a.83.83,0,0,1,.22-.43A.88.88,0,0,0,124,295a1,1,0,0,1,.23-.54.92.92,0,0,0,.23-.52,1.34,1.34,0,0,1,.27-.61,1.18,1.18,0,0,0,.24-.57,1.06,1.06,0,0,1,.25-.55.93.93,0,0,0,.22-.51,1,1,0,0,1,.24-.53.8.8,0,0,0,.23-.51,1.14,1.14,0,0,1,.24-.58,1,1,0,0,0,.24-.53,1.23,1.23,0,0,1,.24-.58,1.15,1.15,0,0,0,.25-.56,1.17,1.17,0,0,1,.26-.58c.13-.16.14-.16.22-.51a.93.93,0,0,1,.23-.54.93.93,0,0,0,.23-.52,1.32,1.32,0,0,1,.25-.59,1.32,1.32,0,0,0,.26-.58,1.09,1.09,0,0,1,.26-.57,1.06,1.06,0,0,0,.16-.26c.08-.21.14-.31.23-.35a1.74,1.74,0,0,1,1.14.21,2.51,2.51,0,0,0,1,.21,2.4,2.4,0,0,1,1.13.27,2.26,2.26,0,0,0,.85.21,2.8,2.8,0,0,1,1.09.26,2.51,2.51,0,0,0,.86.21,3.29,3.29,0,0,1,1.27.28,2.06,2.06,0,0,0,.87.22,2.87,2.87,0,0,1,1.16.28,2.36,2.36,0,0,0,.89.2,3.23,3.23,0,0,1,1.21.3,3.17,3.17,0,0,0,.89.18,3.11,3.11,0,0,1,1.14.25,2.77,2.77,0,0,0,1.08.23,4.62,4.62,0,0,1,1.32.25,4.51,4.51,0,0,0,1.58.25,6.18,6.18,0,0,1,1.28.18,4.53,4.53,0,0,0,1.07.19c.8.07,1.62.09,2.63.08a6.26,6.26,0,0,0,2.33-.29,3.43,3.43,0,0,1,.82-.19c.43-.06.53-.09.7-.23a1.06,1.06,0,0,1,.52-.25.83.83,0,0,0,.48-.25,1.61,1.61,0,0,1,.34-.23,1.45,1.45,0,0,0,.36-.25,2,2,0,0,1,.34-.25.63.63,0,0,0,.29-.26.77.77,0,0,1,.23-.24.63.63,0,0,0,.22-.24,1.26,1.26,0,0,1,.24-.29.9.9,0,0,0,.27-.38,1.15,1.15,0,0,1,.28-.41.69.69,0,0,0,.21-.29,1.12,1.12,0,0,1,.27-.46,1.16,1.16,0,0,0,.25-.56,1.11,1.11,0,0,1,.21-.39,1.07,1.07,0,0,0,.25-.55,1.09,1.09,0,0,1,.24-.56,1.09,1.09,0,0,0,.23-.6,1.41,1.41,0,0,1,.25-.66,1.43,1.43,0,0,0,.24-.74,1.76,1.76,0,0,1,.26-.8c.14-.22.15-.27.23-.81a2.13,2.13,0,0,1,.24-.85,2.17,2.17,0,0,0,.23-.84,2.69,2.69,0,0,1,.26-1,2.44,2.44,0,0,0,.22-.91,3,3,0,0,1,.25-1,2.23,2.23,0,0,0,.22-.88,3.22,3.22,0,0,1,.28-1.26,2.25,2.25,0,0,0,.19-.83,3.31,3.31,0,0,1,.25-1.18,2.85,2.85,0,0,0,.25-1.11,2.91,2.91,0,0,1,.23-1,2.41,2.41,0,0,0,.23-.91,3.32,3.32,0,0,1,.29-1.28,2.82,2.82,0,0,0,.2-.92,3.43,3.43,0,0,1,.18-1,3.16,3.16,0,0,0,.31-1.25,3.09,3.09,0,0,1,.25-1,2.21,2.21,0,0,0,.21-.85,3.16,3.16,0,0,1,.27-1.24,3,3,0,0,0,.24-1.07,2.94,2.94,0,0,1,.22-1,2.55,2.55,0,0,0,.25-1,3.15,3.15,0,0,1,.27-1.17,2.4,2.4,0,0,0,.21-.94,3.23,3.23,0,0,1,.25-1.1,2.26,2.26,0,0,0,.21-.77,5.61,5.61,0,0,1,.15-1,4,4,0,0,1,.14-.38,2.28,2.28,0,0,0,.2-.84,3.36,3.36,0,0,1,.28-1.25,3.3,3.3,0,0,0,.25-1.23,2.35,2.35,0,0,1,.2-.79,2.86,2.86,0,0,0,.25-1.11,2.77,2.77,0,0,1,.23-1,2.72,2.72,0,0,0,.24-1,3,3,0,0,1,.27-1.16,2.76,2.76,0,0,0,.21-.94,3,3,0,0,1,.25-1.11,2.94,2.94,0,0,0,.24-1.09,3.1,3.1,0,0,1,.25-1,2.53,2.53,0,0,0,.22-1,2.94,2.94,0,0,1,.27-1.16,3.29,3.29,0,0,0,.22-1,2.85,2.85,0,0,1,.24-1,2.34,2.34,0,0,0,.22-.89,3.32,3.32,0,0,1,.29-1.26,2.83,2.83,0,0,0,.22-1,2.79,2.79,0,0,1,.19-.9,3.21,3.21,0,0,0,.29-1.2,2.88,2.88,0,0,1,.22-1,2.67,2.67,0,0,0,.24-1,3,3,0,0,1,.28-1.2,2.45,2.45,0,0,0,.2-.9,3,3,0,0,1,.27-1.15,2.93,2.93,0,0,0,.22-.94,3,3,0,0,1,.26-1.16,3,3,0,0,0,.23-1.07,3.13,3.13,0,0,1,.25-1,2.62,2.62,0,0,0,.22-1,3.16,3.16,0,0,1,.21-1,3,3,0,0,0,.29-1.19,3,3,0,0,1,.25-1,2.21,2.21,0,0,0,.21-.88,3.24,3.24,0,0,1,.28-1.23,3.1,3.1,0,0,0,.22-1,3,3,0,0,1,.23-1,2.61,2.61,0,0,0,.24-1,3.27,3.27,0,0,1,.25-1.12,3.16,3.16,0,0,0,.26-1.26,2.39,2.39,0,0,1,.22-.84,2.6,2.6,0,0,0,.23-1,3.2,3.2,0,0,1,.26-1.12,2.39,2.39,0,0,0,.22-1,3.06,3.06,0,0,1,.21-1,3.62,3.62,0,0,0,.31-1.37,2.39,2.39,0,0,1,.22-.83,2.69,2.69,0,0,0,.23-1,3.22,3.22,0,0,1,.26-1.13,2.31,2.31,0,0,0,.22-.95,3.07,3.07,0,0,1,.21-1,3.62,3.62,0,0,0,.31-1.36,2.55,2.55,0,0,1,.23-.87,2.48,2.48,0,0,0,.22-1,3,3,0,0,1,.25-1.09,2.52,2.52,0,0,0,.23-1,3,3,0,0,1,.29-1.2,2.94,2.94,0,0,0,.19-.87,3,3,0,0,1,.25-1.15,2.52,2.52,0,0,0,.23-1,3.22,3.22,0,0,1,.26-1.14,2.44,2.44,0,0,0,.22-1,2.93,2.93,0,0,1,.27-1.15,2.8,2.8,0,0,0,.21-.93,3,3,0,0,1,.25-1.13,2.18,2.18,0,0,0,.21-.87,3.36,3.36,0,0,1,.28-1.25,3.15,3.15,0,0,0,.23-1,3,3,0,0,1,.23-1,2.81,2.81,0,0,0,.24-1,3,3,0,0,1,.25-1.1,2.48,2.48,0,0,0,.23-1,3.09,3.09,0,0,1,.25-1.1,3.23,3.23,0,0,0,.24-1.08,3,3,0,0,1,.24-1,2.68,2.68,0,0,0,.23-1,3,3,0,0,1,.25-1.09,2.61,2.61,0,0,0,.23-1,3.15,3.15,0,0,1,.24-1.07,3.24,3.24,0,0,0,.26-1.23,3,3,0,0,1,.24-.92,2.55,2.55,0,0,0,.22-1,3.37,3.37,0,0,1,.25-1.13,3.17,3.17,0,0,0,.23-1,4.32,4.32,0,0,1,.24-1.17,3.72,3.72,0,0,0,.25-1.31,6.81,6.81,0,0,1,.24-1.37,6.12,6.12,0,0,0,.24-1.86c0-.44,0-.92.06-1.06a22.94,22.94,0,0,0,0-2.5c0-.23,0-.61-.06-.85a2.45,2.45,0,0,0-.24-1.27,2.34,2.34,0,0,1-.25-.73c-.07-.34-.1-.39-.24-.55a1,1,0,0,1-.24-.46.56.56,0,0,0-.25-.39.66.66,0,0,1-.22-.27,1.55,1.55,0,0,0-.24-.33l-.27-.3a4.72,4.72,0,0,0-.63-.6,1.38,1.38,0,0,1-.21-.2,1.31,1.31,0,0,0-.29-.23.93.93,0,0,1-.27-.22c-.07-.1-.14-.14-.4-.26a1.22,1.22,0,0,1-.28-.19,1.08,1.08,0,0,0-.47-.27.81.81,0,0,1-.38-.22c-.11-.11-.19-.16-.53-.26a.83.83,0,0,1-.41-.2,1,1,0,0,0-.6-.27,1.13,1.13,0,0,1-.6-.25,1,1,0,0,0-.56-.22,1.67,1.67,0,0,1-.65-.23,1.56,1.56,0,0,0-.79-.27,1.52,1.52,0,0,1-.68-.23,1.67,1.67,0,0,0-.82-.25,2,2,0,0,1-.85-.25,1.77,1.77,0,0,0-.79-.22,2.6,2.6,0,0,1-.9-.24,2.44,2.44,0,0,0-.92-.24,2.37,2.37,0,0,1-.93-.24,2.43,2.43,0,0,0-1-.24,3.07,3.07,0,0,1-1.07-.25,2.25,2.25,0,0,0-.88-.22,3.2,3.2,0,0,1-1.25-.3,2.89,2.89,0,0,0-.9-.2,2.51,2.51,0,0,1-1.09-.27,2,2,0,0,0-.82-.2,3.18,3.18,0,0,1-1.14-.25,2.81,2.81,0,0,0-1-.24,3.12,3.12,0,0,1-1.11-.25,2.6,2.6,0,0,0-.93-.23,2.86,2.86,0,0,1-1.11-.28,2.59,2.59,0,0,0-.92-.2,2.7,2.7,0,0,1-1.05-.24,2.71,2.71,0,0,0-.93-.22c-.91-.1-1.16-.42-.82-1.09a2.28,2.28,0,0,0,.22-1,3.33,3.33,0,0,1,.27-1.14,2.36,2.36,0,0,0,.21-.94,2.9,2.9,0,0,1,.27-1.15,2.87,2.87,0,0,0,.21-.94,3.12,3.12,0,0,1,.26-1.13,2.7,2.7,0,0,0,.22-1,3.1,3.1,0,0,1,.25-1.11,2.61,2.61,0,0,0,.23-1,3,3,0,0,1,.27-1.16,2.81,2.81,0,0,0,.2-.92,3.06,3.06,0,0,1,.27-1.15,2.58,2.58,0,0,0,.21-1,3.19,3.19,0,0,1,.22-1,2.87,2.87,0,0,0,.28-1.17,2.71,2.71,0,0,1,.26-1.06,2.66,2.66,0,0,0,.21-.93,2.93,2.93,0,0,1,.27-1.14,2.27,2.27,0,0,0,.2-.85,3.17,3.17,0,0,1,.27-1.22,3,3,0,0,0,.24-1.07,2.84,2.84,0,0,1,.24-1,2.44,2.44,0,0,0,.22-.91c.12-1.16.45-1.56,1-1.26a2.5,2.5,0,0,0,1,.21,3.11,3.11,0,0,1,.95.21,2.27,2.27,0,0,0,.89.25,3.28,3.28,0,0,1,1.26.27,1.89,1.89,0,0,0,.83.21,3.2,3.2,0,0,1,1.24.27,2.82,2.82,0,0,0,1,.24,2.41,2.41,0,0,1,.9.23,2.69,2.69,0,0,0,1,.22,4,4,0,0,1,.9.17l.3.13a2.19,2.19,0,0,0,.72.17,3.28,3.28,0,0,1,1.26.27,1.9,1.9,0,0,0,.83.21,3.21,3.21,0,0,1,1.24.28,2.33,2.33,0,0,0,.8.2,5,5,0,0,1,.91.14l.27.11a2.71,2.71,0,0,0,1,.25,3.17,3.17,0,0,1,1,.24,2.36,2.36,0,0,0,1,.24,2.86,2.86,0,0,1,1.14.26,1.9,1.9,0,0,0,.83.21,3.2,3.2,0,0,1,1.24.28,2.84,2.84,0,0,0,1,.23,2.7,2.7,0,0,1,1,.25,2.9,2.9,0,0,0,1.14.25,2,2,0,0,1,.83.22,2.13,2.13,0,0,0,.82.23,3.26,3.26,0,0,1,1.26.28,2.14,2.14,0,0,0,.89.22,3,3,0,0,1,1.09.26,2.42,2.42,0,0,0,1,.22,2.85,2.85,0,0,1,1.12.24,2.94,2.94,0,0,0,1.19.27,2,2,0,0,1,.83.22,2,2,0,0,0,.87.23,3,3,0,0,1,1.22.28,1.92,1.92,0,0,0,.82.2,3.17,3.17,0,0,1,1.22.27,3,3,0,0,0,1,.24,2.76,2.76,0,0,1,.84.17,3,3,0,0,0,1.22.31,2.86,2.86,0,0,1,1,.24,2.31,2.31,0,0,0,.92.23,3,3,0,0,1,1.08.26,2,2,0,0,0,.84.21,3.17,3.17,0,0,1,1.22.27,3,3,0,0,0,1,.24,2.84,2.84,0,0,1,.85.17,3,3,0,0,0,1.16.31,2.79,2.79,0,0,1,1,.23,2.56,2.56,0,0,0,1,.24c.59.07.68.09.86.2.33.2.4.13.55-.59a3.17,3.17,0,0,1,.18-.55,3,3,0,0,0,.23-1.06,3,3,0,0,1,.25-1,2.37,2.37,0,0,0,.22-.95,3.1,3.1,0,0,1,.21-1,3.23,3.23,0,0,0,.29-1.21,3.09,3.09,0,0,1,.25-1,2.45,2.45,0,0,0,.22-.95,3.28,3.28,0,0,1,.2-1l.13-.3a3.67,3.67,0,0,0,.17-.92,2.78,2.78,0,0,1,.27-1.09,2.89,2.89,0,0,0,.2-.91,2.94,2.94,0,0,1,.26-1.15,2.16,2.16,0,0,0,.2-.85,3.36,3.36,0,0,1,.28-1.25,3.06,3.06,0,0,0,.22-1,2.8,2.8,0,0,1,.27-1.12,2.71,2.71,0,0,0,.19-.9,3.13,3.13,0,0,1,.29-1.21,2.61,2.61,0,0,0,.19-.92,3.46,3.46,0,0,1,.26-1.13,2.76,2.76,0,0,0,.22-.94,2.9,2.9,0,0,1,.25-1.13,2.27,2.27,0,0,0,.22-.89,3.31,3.31,0,0,1,.28-1.26,2.69,2.69,0,0,0,.21-1,3.2,3.2,0,0,1,.24-1.08,2.81,2.81,0,0,0,.24-1,3.13,3.13,0,0,1,.28-1.2,2.53,2.53,0,0,0,.2-.91,2.9,2.9,0,0,1,.27-1.16,3.14,3.14,0,0,0,.22-1,2.85,2.85,0,0,1,.24-1,2.26,2.26,0,0,0,.22-.89,3.28,3.28,0,0,1,.28-1.25,2.74,2.74,0,0,0,.21-1,3.19,3.19,0,0,1,.19-1l.13-.32a2.76,2.76,0,0,0,.16-.8,3.09,3.09,0,0,1,.27-1.15,2.57,2.57,0,0,0,.22-1,2.9,2.9,0,0,1,.27-1.16,3.13,3.13,0,0,0,.22-1,2.88,2.88,0,0,1,.23-1,2.94,2.94,0,0,0,.16-.47c.13-.57.23-.62.9-.51a2.9,2.9,0,0,1,.79.25,2.9,2.9,0,0,0,.93.19,2.86,2.86,0,0,1,1,.24,2.32,2.32,0,0,0,1,.23,2.9,2.9,0,0,1,1.09.25,2.23,2.23,0,0,0,.91.23,2.87,2.87,0,0,1,1.12.26,3,3,0,0,0,1,.23,2.86,2.86,0,0,1,.85.17,3,3,0,0,0,1.21.31,2.85,2.85,0,0,1,1,.24,2.34,2.34,0,0,0,1,.23,2.91,2.91,0,0,1,1.09.25,2,2,0,0,0,.86.22,2.78,2.78,0,0,1,1.19.29,3,3,0,0,0,1,.21,2.88,2.88,0,0,1,1,.24,3,3,0,0,0,1.23.25,2.68,2.68,0,0,1,.89.23,2.34,2.34,0,0,0,1,.23,3,3,0,0,1,1.12.26,1.9,1.9,0,0,0,.83.2,2.78,2.78,0,0,1,1.19.29,3.14,3.14,0,0,0,1,.22,2.81,2.81,0,0,1,.84.17,3.63,3.63,0,0,0,1.37.33,2,2,0,0,1,1.24.51,3.08,3.08,0,0,1-.24,1.74,2.5,2.5,0,0,0-.22,1,3.19,3.19,0,0,1-.24,1.08,2.63,2.63,0,0,0-.23.92,3.38,3.38,0,0,1-.27,1.23,2.56,2.56,0,0,0-.22.95,3,3,0,0,1-.27,1.16,2.69,2.69,0,0,0-.2.93,2.89,2.89,0,0,1-.27,1.14,2.79,2.79,0,0,0-.21.87,3.22,3.22,0,0,1-.28,1.23,2.49,2.49,0,0,0-.22,1,3.29,3.29,0,0,1-.25,1.11,2.73,2.73,0,0,0-.23,1,3,3,0,0,1-.28,1.17,2.46,2.46,0,0,0-.18.82,3.21,3.21,0,0,1-.28,1.25,2.68,2.68,0,0,0-.21,1,3.17,3.17,0,0,1-.25,1.09,2.65,2.65,0,0,0-.23,1,3.16,3.16,0,0,1-.24,1.08,2.7,2.7,0,0,0-.24,1,2.76,2.76,0,0,1-.26,1.14,2.73,2.73,0,0,0-.22,1,3.13,3.13,0,0,1-.21,1,2.94,2.94,0,0,0-.27,1.09,3.21,3.21,0,0,1-.27,1.15,2.44,2.44,0,0,0-.2.85,3.17,3.17,0,0,1-.27,1.2,2.61,2.61,0,0,0-.23,1,3.17,3.17,0,0,1-.24,1.07,2.8,2.8,0,0,0-.24,1,3.36,3.36,0,0,1-.26,1.13,2.63,2.63,0,0,0-.22,1,2.93,2.93,0,0,1-.27,1.15,2.87,2.87,0,0,0-.21.94,3,3,0,0,1-.24,1.1,2.66,2.66,0,0,0-.23.92,3.11,3.11,0,0,1-.27,1.2,2.63,2.63,0,0,0-.23,1,3.37,3.37,0,0,1-.26,1.12,2.66,2.66,0,0,0-.22,1,2.91,2.91,0,0,1-.22,1c-.32.72-.25.85.55.93a3.39,3.39,0,0,1,1,.22,2.27,2.27,0,0,0,.89.25,3.27,3.27,0,0,1,1.26.28,1.92,1.92,0,0,0,.82.2,3.17,3.17,0,0,1,1.22.27,3,3,0,0,0,1,.24,2.76,2.76,0,0,1,.84.17,3,3,0,0,0,1.22.31,2.86,2.86,0,0,1,1,.24,2.32,2.32,0,0,0,.9.23,3,3,0,0,1,1.06.25,2.45,2.45,0,0,0,1,.23,2.87,2.87,0,0,1,1.14.26,3,3,0,0,0,1,.23,2.86,2.86,0,0,1,.85.17,3,3,0,0,0,1.21.31,2.86,2.86,0,0,1,1,.24,2.13,2.13,0,0,0,.82.22l.46.07c.33.08.48,0,.6-.37,0-.09.09-.24.13-.34a2.61,2.61,0,0,0,.2-.93,3.07,3.07,0,0,1,.25-1.11,3,3,0,0,0,.24-1.07,2.85,2.85,0,0,1,.21-.94,3,3,0,0,0,.28-1.18,2.82,2.82,0,0,1,.24-1,2.58,2.58,0,0,0,.23-1,3,3,0,0,1,.29-1.2,2.94,2.94,0,0,0,.19-.89,3,3,0,0,1,.27-1.16,2.31,2.31,0,0,0,.2-.84,3.27,3.27,0,0,1,.28-1.25,2.82,2.82,0,0,0,.22-1,2.76,2.76,0,0,1,.24-1,2.73,2.73,0,0,0,.22-.93,3,3,0,0,1,.25-1.15,2.52,2.52,0,0,0,.23-1,3,3,0,0,1,.25-1.1,3,3,0,0,0,.24-1.08,2.84,2.84,0,0,1,.24-1,2.62,2.62,0,0,0,.23-1,3.07,3.07,0,0,1,.25-1.09,2.24,2.24,0,0,0,.22-.89,3.19,3.19,0,0,1,.28-1.24,2.77,2.77,0,0,0,.22-1,3.1,3.1,0,0,1,.21-1,3.34,3.34,0,0,0,.3-1.29,2.47,2.47,0,0,1,.18-.8,2.39,2.39,0,0,0,.24-.79l.07-.6a2.42,2.42,0,0,1,.23-.85,3,3,0,0,0,.23-1,2.84,2.84,0,0,1,.24-1,2.5,2.5,0,0,0,.23-1,2.87,2.87,0,0,1,.27-1.15,2.64,2.64,0,0,0,.21-1,3.15,3.15,0,0,1,.25-1.1,2.85,2.85,0,0,0,.24-1.08,2.85,2.85,0,0,1,.24-1,2.27,2.27,0,0,0,.22-.89,3.26,3.26,0,0,1,.26-1.21,3.21,3.21,0,0,0,.26-1.26,2.37,2.37,0,0,1,.22-.83,2.8,2.8,0,0,0,.22-1c0-.53.09-.58.65-.58a2.61,2.61,0,0,1,1.22.25,3,3,0,0,0,1,.23,2.77,2.77,0,0,1,.84.17,3,3,0,0,0,1.15.31,2.84,2.84,0,0,1,1,.24,2.07,2.07,0,0,0,.74.2l.48.05a2.64,2.64,0,0,1,.9.24,2,2,0,0,0,.84.21,3.19,3.19,0,0,1,1.23.28,2.84,2.84,0,0,0,1,.23,2.7,2.7,0,0,1,1,.25,2.63,2.63,0,0,0,.91.22,3.15,3.15,0,0,1,1,.24,2.36,2.36,0,0,0,1,.24,2.86,2.86,0,0,1,1.14.26,1.9,1.9,0,0,0,.83.21,3.2,3.2,0,0,1,1.24.28,2.33,2.33,0,0,0,.8.2,2.68,2.68,0,0,1,1.23.28,2.36,2.36,0,0,0,1,.23,3.21,3.21,0,0,1,.92.2,2.72,2.72,0,0,0,1.09.28,2.86,2.86,0,0,1,1,.24,2.21,2.21,0,0,0,.91.22,3.19,3.19,0,0,1,1.25.28,2.44,2.44,0,0,0,.76.2l.46.06c.78.11,1.08.43.94,1a3.77,3.77,0,0,0-.07.46,3.12,3.12,0,0,1-.28,1.18,2.81,2.81,0,0,0-.2.93,3.08,3.08,0,0,1-.25,1.1,2.62,2.62,0,0,0-.23,1,3,3,0,0,1-.28,1.18,2.43,2.43,0,0,0-.18.81,3.35,3.35,0,0,1-.28,1.25,2.47,2.47,0,0,0-.22,1,3.15,3.15,0,0,1-.24,1.07,2.9,2.9,0,0,0-.24,1,3,3,0,0,1-.27,1.15,2.62,2.62,0,0,0-.21.95,3.08,3.08,0,0,1-.21,1,3.5,3.5,0,0,0-.31,1.38,2.41,2.41,0,0,1-.22.84,2.91,2.91,0,0,0-.22,1,3.09,3.09,0,0,1-.27,1.15,2.66,2.66,0,0,0-.21,1,3.07,3.07,0,0,1-.25,1.08,3.26,3.26,0,0,0-.24,1.08,3,3,0,0,1-.24,1,2.5,2.5,0,0,0-.23,1A3.12,3.12,0,0,1,300,121a2.66,2.66,0,0,0-.2.93,3.36,3.36,0,0,1-.26,1.12,2.84,2.84,0,0,0-.22,1,3.1,3.1,0,0,1-.27,1.15,2.68,2.68,0,0,0-.21,1,3.2,3.2,0,0,1-.26,1.13,2.9,2.9,0,0,0-.23,1.06,3.1,3.1,0,0,1-.25,1,2.84,2.84,0,0,0-.22,1,3.16,3.16,0,0,1-.29,1.19,2.66,2.66,0,0,0-.2.93,3.39,3.39,0,0,1-.26,1.12,2.63,2.63,0,0,0-.22,1,2.79,2.79,0,0,1-.26,1.13,2.76,2.76,0,0,0-.22,1,3.22,3.22,0,0,1-.26,1.13,2.4,2.4,0,0,0-.22,1,3.3,3.3,0,0,1-.26,1.11,2.91,2.91,0,0,0-.22,1,3.42,3.42,0,0,1-.21,1c-.15.33-.05.41.57.51a1.7,1.7,0,0,1,.64.2,2,2,0,0,0,.84.24,2.06,2.06,0,0,1,.89.24,2.1,2.1,0,0,0,.86.24,1.82,1.82,0,0,1,.86.25,1.48,1.48,0,0,0,.6.2,3.21,3.21,0,0,1,.83.19l.29.15a1.13,1.13,0,0,0,.32.11c.85.14.89.15,1.14.29a1.83,1.83,0,0,0,.74.24,1.84,1.84,0,0,1,.78.24,1.66,1.66,0,0,0,.75.24,2,2,0,0,1,.81.25,1.48,1.48,0,0,0,.68.23,1.59,1.59,0,0,1,.71.24,1.51,1.51,0,0,0,.69.24,1.7,1.7,0,0,1,.75.25,1.67,1.67,0,0,0,.69.24,1.33,1.33,0,0,1,.6.21,1.54,1.54,0,0,0,.7.26,1.34,1.34,0,0,1,.69.26,1.2,1.2,0,0,0,.62.22,1.32,1.32,0,0,1,.65.24,1.29,1.29,0,0,0,.63.24,1.35,1.35,0,0,1,.62.23,1.42,1.42,0,0,0,.65.25c.39.08.45.11.6.24a.94.94,0,0,0,.51.23,1.21,1.21,0,0,1,.68.28,1.32,1.32,0,0,0,.61.22,1.09,1.09,0,0,1,.57.25,1,1,0,0,0,.55.22.85.85,0,0,1,.55.24c.16.14.18.15.52.23a1.29,1.29,0,0,1,.58.24,1.28,1.28,0,0,0,.57.25,1.11,1.11,0,0,1,.54.24,1.07,1.07,0,0,0,.54.24.87.87,0,0,1,.52.24.81.81,0,0,0,.45.23,1,1,0,0,1,.51.24.93.93,0,0,0,.51.25c.3.08.36.11.48.23a.79.79,0,0,0,.48.24.89.89,0,0,1,.54.28.57.57,0,0,0,.29.18c.42.11.46.13.63.29a.72.72,0,0,0,.4.22,1.08,1.08,0,0,1,.56.29.74.74,0,0,0,.37.2,1.09,1.09,0,0,1,.5.28,1,1,0,0,0,.45.23.81.81,0,0,1,.3.15,1.29,1.29,0,0,0,.51.31.84.84,0,0,1,.38.22.87.87,0,0,0,.43.24.8.8,0,0,1,.44.25.69.69,0,0,0,.36.23,1.1,1.1,0,0,1,.49.28,1,1,0,0,0,.41.24.84.84,0,0,1,.3.2.83.83,0,0,0,.32.21,1.12,1.12,0,0,1,.5.3.82.82,0,0,0,.39.24.75.75,0,0,1,.25.19.82.82,0,0,0,.4.25.84.84,0,0,1,.41.26.81.81,0,0,0,.34.24.67.67,0,0,1,.3.21,1,1,0,0,0,.37.26,1.19,1.19,0,0,1,.38.26,1.24,1.24,0,0,0,.31.23.91.91,0,0,1,.3.24.8.8,0,0,0,.3.23,1,1,0,0,1,.3.21,1.4,1.4,0,0,0,.38.27,1.11,1.11,0,0,1,.36.27,1,1,0,0,0,.28.22.77.77,0,0,1,.33.29.71.71,0,0,0,.24.18.72.72,0,0,1,.27.23.65.65,0,0,0,.25.21,1.62,1.62,0,0,1,.32.24,3.93,3.93,0,0,0,.37.31,2.82,2.82,0,0,1,.34.28,2.05,2.05,0,0,0,.28.24,1.36,1.36,0,0,1,.25.23,1.35,1.35,0,0,0,.26.23,1,1,0,0,1,.25.23.75.75,0,0,0,.26.23.56.56,0,0,1,.23.2.74.74,0,0,0,.31.29.55.55,0,0,1,.2.21.61.61,0,0,0,.22.23.66.66,0,0,1,.29.3.51.51,0,0,0,.2.19.67.67,0,0,1,.25.25.85.85,0,0,0,.17.2c.18.11.22.15.28.24a1.17,1.17,0,0,0,.33.34.73.73,0,0,1,.18.21.68.68,0,0,0,.23.24.76.76,0,0,1,.19.17.82.82,0,0,0,.28.34.82.82,0,0,1,.24.26,1.38,1.38,0,0,0,.23.27,1.67,1.67,0,0,1,.23.26c.06.09.2.25.3.36a2.38,2.38,0,0,1,.28.37.77.77,0,0,0,.21.26.68.68,0,0,1,.25.34.62.62,0,0,0,.2.24.68.68,0,0,1,.22.27,1.32,1.32,0,0,0,.25.33,1.08,1.08,0,0,1,.26.37,1.24,1.24,0,0,0,.25.37,1.17,1.17,0,0,1,.23.34.83.83,0,0,0,.22.3,1,1,0,0,1,.26.38,1.19,1.19,0,0,0,.26.39.94.94,0,0,1,.26.45.85.85,0,0,0,.18.26,1,1,0,0,1,.27.47.68.68,0,0,0,.23.38,1.13,1.13,0,0,1,.29.53,1,1,0,0,0,.18.29.87.87,0,0,1,.25.46,1.08,1.08,0,0,0,.25.49,1,1,0,0,1,.23.47,1.15,1.15,0,0,0,.26.52,1,1,0,0,1,.23.53,1,1,0,0,0,.24.54,1.06,1.06,0,0,1,.21.43,1.5,1.5,0,0,0,.25.67,1.16,1.16,0,0,1,.26.65,1.53,1.53,0,0,0,.24.7,1.47,1.47,0,0,1,.24.69,1.92,1.92,0,0,0,.22.71,2.05,2.05,0,0,1,.27,1,1.73,1.73,0,0,0,.2.75,2.54,2.54,0,0,1,.28,1.21,3.4,3.4,0,0,0,.2,1,5,5,0,0,1,.29,1.91,6.67,6.67,0,0,0,.19,1.31,43,43,0,0,1,0,9.07,10.57,10.57,0,0,0-.22,1.71,8.07,8.07,0,0,1-.28,2.11,5.57,5.57,0,0,0-.24,1.47,3.77,3.77,0,0,1-.24,1.16,3.18,3.18,0,0,0-.22,1.09,2.59,2.59,0,0,1-.25,1.08,2.15,2.15,0,0,0-.23.89,2.52,2.52,0,0,1-.26,1,2,2,0,0,0-.22.86,2,2,0,0,1-.25.91,1.9,1.9,0,0,0-.24.77,1.46,1.46,0,0,1-.22.66,1.67,1.67,0,0,0-.25.74,1.83,1.83,0,0,1-.25.77,1.56,1.56,0,0,0-.23.7,1.23,1.23,0,0,1-.22.62,1.29,1.29,0,0,0-.26.65,1.16,1.16,0,0,1-.23.59,1,1,0,0,0-.24.54,1.18,1.18,0,0,1-.26.6,1.36,1.36,0,0,0-.25.62,1.13,1.13,0,0,1-.25.52,1.25,1.25,0,0,0-.24.56.83.83,0,0,1-.16.34,1.45,1.45,0,0,0-.3.59,1,1,0,0,1-.15.35,1.4,1.4,0,0,0-.31.54.92.92,0,0,1-.24.46,1.16,1.16,0,0,0-.26.5.75.75,0,0,1-.22.36.9.9,0,0,0-.24.42.94.94,0,0,1-.25.43.79.79,0,0,0-.22.37,1.35,1.35,0,0,1-.32.52.94.94,0,0,0-.19.36.61.61,0,0,1-.15.22.74.74,0,0,0-.26.34,1.28,1.28,0,0,1-.31.51,1.07,1.07,0,0,0-.17.22l-.09.2a.57.57,0,0,1-.19.22.65.65,0,0,0-.23.32,1.47,1.47,0,0,1-.26.39,2,2,0,0,0-.26.37.73.73,0,0,1-.23.3.7.7,0,0,0-.23.29.59.59,0,0,1-.22.27.65.65,0,0,0-.23.28,1,1,0,0,1-.22.29,1.62,1.62,0,0,0-.24.28,3.16,3.16,0,0,1-.28.35,2.67,2.67,0,0,0-.27.34,1.24,1.24,0,0,1-.21.25,1,1,0,0,0-.29.31.64.64,0,0,1-.15.17,1.52,1.52,0,0,0-.36.38.52.52,0,0,1-.16.16.87.87,0,0,0-.31.33.58.58,0,0,1-.2.2.73.73,0,0,0-.24.24.65.65,0,0,1-.24.23.7.7,0,0,0-.22.2.69.69,0,0,1-.27.28.76.76,0,0,0-.27.29.7.7,0,0,1-.2.18,1,1,0,0,0-.26.23.74.74,0,0,1-.3.27,1.17,1.17,0,0,0-.24.21,1.66,1.66,0,0,1-.26.24,2.67,2.67,0,0,0-.3.26,2.92,2.92,0,0,1-.37.3,1.76,1.76,0,0,0-.31.26.91.91,0,0,1-.29.22.6.6,0,0,0-.24.18.67.67,0,0,1-.33.28.73.73,0,0,0-.27.21,1,1,0,0,1-.35.26,1.71,1.71,0,0,0-.38.26,1.5,1.5,0,0,1-.35.25.65.65,0,0,0-.29.22.63.63,0,0,1-.29.22,1.31,1.31,0,0,0-.35.24,1.46,1.46,0,0,1-.57.32.6.6,0,0,0-.25.19.6.6,0,0,1-.27.2,1,1,0,0,0-.4.24,1.1,1.1,0,0,1-.49.28.54.54,0,0,0-.31.19.85.85,0,0,1-.5.3.81.81,0,0,0-.4.21,1,1,0,0,1-.51.28.8.8,0,0,0-.37.2,1,1,0,0,1-.49.26,1.34,1.34,0,0,0-.52.29,1.27,1.27,0,0,1-.52.22.92.92,0,0,0-.31.15,1.25,1.25,0,0,1-.45.27,1.51,1.51,0,0,0-.64.25,1.15,1.15,0,0,1-.59.26.92.92,0,0,0-.54.23,1.1,1.1,0,0,1-.58.25,1.1,1.1,0,0,0-.52.2,1.52,1.52,0,0,1-.72.28,1.09,1.09,0,0,0-.61.23,1.24,1.24,0,0,1-.62.24,1.66,1.66,0,0,0-.71.25,1.73,1.73,0,0,1-.78.24,1.83,1.83,0,0,0-.75.22,1.79,1.79,0,0,1-.87.26,1.77,1.77,0,0,0-.75.22,2.12,2.12,0,0,1-.92.25,2.42,2.42,0,0,0-1,.25,2.43,2.43,0,0,1-1,.24,2.76,2.76,0,0,0-1,.22,3.35,3.35,0,0,1-1.24.26,4.09,4.09,0,0,0-1.31.25,3.83,3.83,0,0,1-1.09.2c-.86.06-1,.08-1.28.12l-.46.1a8.27,8.27,0,0,1-2.41.29,15.75,15.75,0,0,0-2.66.38c-.29.14-.17.35.28.45a1,1,0,0,1,.54.26.69.69,0,0,0,.31.17c.42.12.47.15.6.26a.93.93,0,0,0,.5.25.84.84,0,0,1,.49.26c.07.1.17.14.44.22a.83.83,0,0,1,.48.26c.13.13.13.13.57.26a.7.7,0,0,1,.36.21.71.71,0,0,0,.41.22c.3.08.4.13.5.26a.69.69,0,0,0,.43.23.87.87,0,0,1,.47.26.73.73,0,0,0,.37.21,1.05,1.05,0,0,1,.52.28,1,1,0,0,0,.3.19,1,1,0,0,1,.46.27.58.58,0,0,0,.29.18,1.13,1.13,0,0,1,.55.3.65.65,0,0,0,.4.23.9.9,0,0,1,.45.26,1,1,0,0,0,.37.22.71.71,0,0,1,.34.22.77.77,0,0,0,.38.23c.29.11.37.16.47.29a.87.87,0,0,0,.42.25,1.08,1.08,0,0,1,.28.19,1.63,1.63,0,0,0,.41.26.87.87,0,0,1,.36.25.71.71,0,0,0,.21.17,1.45,1.45,0,0,1,.52.31,1.15,1.15,0,0,0,.37.24.76.76,0,0,1,.28.17.92.92,0,0,0,.41.31,1,1,0,0,1,.34.22,1.9,1.9,0,0,0,.38.26,1,1,0,0,1,.33.25.79.79,0,0,0,.31.23.62.62,0,0,1,.29.22.71.71,0,0,0,.34.24,1.33,1.33,0,0,1,.42.29,1.92,1.92,0,0,0,.34.26.74.74,0,0,1,.26.22.66.66,0,0,0,.28.22.65.65,0,0,1,.28.23.63.63,0,0,0,.27.22,1.61,1.61,0,0,1,.34.25,2.3,2.3,0,0,0,.35.27,2,2,0,0,1,.36.29,1.65,1.65,0,0,0,.3.25.56.56,0,0,1,.22.2.63.63,0,0,0,.27.23.63.63,0,0,1,.27.23.58.58,0,0,0,.24.22.81.81,0,0,1,.26.22,1.06,1.06,0,0,0,.27.23,1.23,1.23,0,0,1,.26.22,1.82,1.82,0,0,0,.27.24,4.87,4.87,0,0,1,.38.33l.34.3a1.87,1.87,0,0,1,.25.23,2,2,0,0,0,.26.24,1.49,1.49,0,0,1,.24.24,1.4,1.4,0,0,0,.25.24,1,1,0,0,1,.19.18,1.22,1.22,0,0,0,.3.31,1.36,1.36,0,0,1,.23.24,1.5,1.5,0,0,0,.24.25,1.59,1.59,0,0,1,.23.24,1.52,1.52,0,0,0,.24.24,1.43,1.43,0,0,1,.25.26,1.52,1.52,0,0,0,.22.24,3.24,3.24,0,0,1,.31.33l.31.35a2.51,2.51,0,0,1,.24.29,1.89,1.89,0,0,0,.25.28,1.34,1.34,0,0,1,.22.27.91.91,0,0,0,.18.22.76.76,0,0,1,.28.32.6.6,0,0,0,.13.18.94.94,0,0,1,.32.35.65.65,0,0,0,.21.24.83.83,0,0,1,.23.28,2.27,2.27,0,0,0,.27.35,1.62,1.62,0,0,1,.27.39.92.92,0,0,0,.24.33.78.78,0,0,1,.22.29.8.8,0,0,0,.23.3.84.84,0,0,1,.23.31,1.61,1.61,0,0,0,.25.36,1.4,1.4,0,0,1,.31.52.72.72,0,0,0,.18.22c.14.12.14.13.27.41a1.35,1.35,0,0,0,.23.34.94.94,0,0,1,.2.3.86.86,0,0,0,.26.44.69.69,0,0,1,.21.33l.1.27a1.14,1.14,0,0,0,.18.23.76.76,0,0,1,.19.29,1.33,1.33,0,0,0,.26.5,1,1,0,0,1,.25.48.91.91,0,0,0,.22.43,1.07,1.07,0,0,1,.26.49.86.86,0,0,0,.22.44,1.16,1.16,0,0,1,.26.55,1.06,1.06,0,0,0,.23.52,1.18,1.18,0,0,1,.26.55,1.2,1.2,0,0,0,.25.57,1.14,1.14,0,0,1,.23.6,1.12,1.12,0,0,0,.21.57,1.32,1.32,0,0,1,.27.67,1.53,1.53,0,0,0,.22.65,1.67,1.67,0,0,1,.26.78,1.54,1.54,0,0,0,.24.73,1.74,1.74,0,0,1,.24.89,2.11,2.11,0,0,0,.24.87,2.81,2.81,0,0,1,.25,1.2,3.1,3.1,0,0,0,.21.88,3.73,3.73,0,0,1,.26,1.47,6.25,6.25,0,0,0,.18,1.25,14.37,14.37,0,0,1,.33,3.52c.06,2,.07,3.23,0,4.19l0,1.8,0,1.34a11.91,11.91,0,0,1-.23,2.34,10.45,10.45,0,0,0-.24,1.82,6.48,6.48,0,0,1-.26,1.77,4.2,4.2,0,0,0-.22,1.22,3.76,3.76,0,0,1-.26,1.4,3.08,3.08,0,0,0-.22,1,3.37,3.37,0,0,1-.27,1.25,2.91,2.91,0,0,0-.21.89,2.69,2.69,0,0,1-.25,1,2.43,2.43,0,0,0-.24,1,2,2,0,0,1-.24.88,1.83,1.83,0,0,0-.23.79,1.94,1.94,0,0,1-.23.79,1.81,1.81,0,0,0-.24.72,2.29,2.29,0,0,1-.21.8,2,2,0,0,0-.28.79,1.65,1.65,0,0,1-.25.72,1.39,1.39,0,0,0-.24.72,1.38,1.38,0,0,1-.22.61,1.33,1.33,0,0,0-.23.62c-.09.45-.1.48-.26.67a1.1,1.1,0,0,0-.23.58,1.2,1.2,0,0,1-.24.58,1.19,1.19,0,0,0-.24.58,1.09,1.09,0,0,1-.24.59.85.85,0,0,0-.22.49,1,1,0,0,1-.28.58.64.64,0,0,0-.17.3l-.1.33a.72.72,0,0,1-.19.33.7.7,0,0,0-.18.3c-.13.47-.15.52-.29.68a.85.85,0,0,0-.22.41,1,1,0,0,1-.29.54.67.67,0,0,0-.2.36.9.9,0,0,1-.25.48.92.92,0,0,0-.24.42,1,1,0,0,1-.23.42,1.55,1.55,0,0,0-.28.53.7.7,0,0,1-.19.26.86.86,0,0,0-.24.37,1.14,1.14,0,0,1-.25.4,1.08,1.08,0,0,0-.24.37.84.84,0,0,1-.23.34.89.89,0,0,0-.24.38,1,1,0,0,1-.26.4,1.33,1.33,0,0,0-.25.35.62.62,0,0,1-.22.28.59.59,0,0,0-.21.27,1.42,1.42,0,0,1-.24.35,2.2,2.2,0,0,0-.27.38,1.09,1.09,0,0,1-.25.33.86.86,0,0,0-.23.3.55.55,0,0,1-.23.28.53.53,0,0,0-.21.23.76.76,0,0,1-.28.32.79.79,0,0,0-.17.21,1.26,1.26,0,0,1-.22.26,2,2,0,0,0-.26.29,4.34,4.34,0,0,1-.32.38,3.88,3.88,0,0,0-.29.35,1.37,1.37,0,0,1-.23.24,1.51,1.51,0,0,0-.21.2,2.22,2.22,0,0,1-.36.36,1.19,1.19,0,0,0-.19.2,1.32,1.32,0,0,1-.22.22,1.58,1.58,0,0,0-.24.24,1.53,1.53,0,0,1-.24.24,1.4,1.4,0,0,0-.23.23,1.6,1.6,0,0,1-.27.26,2.22,2.22,0,0,0-.29.26,1.87,1.87,0,0,1-.32.27,2.72,2.72,0,0,0-.38.31,1.62,1.62,0,0,1-.3.24.74.74,0,0,0-.23.2.78.78,0,0,1-.23.21,1.24,1.24,0,0,0-.37.34.68.68,0,0,1-.22.16.78.78,0,0,0-.27.21,1.11,1.11,0,0,1-.28.23,2.26,2.26,0,0,0-.34.26,1.44,1.44,0,0,1-.4.27.63.63,0,0,0-.32.24.61.61,0,0,1-.3.23.76.76,0,0,0-.31.22.92.92,0,0,1-.4.26,1.17,1.17,0,0,0-.4.26.8.8,0,0,1-.32.21,1,1,0,0,0-.37.24.94.94,0,0,1-.5.28.61.61,0,0,0-.32.21.66.66,0,0,1-.29.2,1.33,1.33,0,0,0-.5.26,1,1,0,0,1-.44.24,1,1,0,0,0-.45.24.92.92,0,0,1-.45.24,1,1,0,0,0-.46.24,1,1,0,0,1-.53.25.94.94,0,0,0-.5.23,1,1,0,0,1-.48.23,1.12,1.12,0,0,0-.52.25,1.14,1.14,0,0,1-.6.25,1.08,1.08,0,0,0-.56.22,1.29,1.29,0,0,1-.63.25,1.2,1.2,0,0,0-.61.24,1.41,1.41,0,0,1-.68.25,1.06,1.06,0,0,0-.59.23c-.16.13-.26.16-.76.24a1.39,1.39,0,0,0-.73.23,1.76,1.76,0,0,1-.79.24,1.64,1.64,0,0,0-.73.22,1.75,1.75,0,0,1-.73.22A3.21,3.21,0,0,0,305,348a2.8,2.8,0,0,1-1.19.29,3.16,3.16,0,0,0-1,.21,4.47,4.47,0,0,1-1.45.27,3.24,3.24,0,0,0-1,.19,6.26,6.26,0,0,1-1.81.28,6.56,6.56,0,0,0-1.43.2,11.51,11.51,0,0,1-2.6.28c-.85,0-1.94.11-2.65.19a34.53,34.53,0,0,1-4.4.24,75.87,75.87,0,0,1-8.83-.25l-.53,0-.92-.06-1.15-.06a19.13,19.13,0,0,1-3.5-.26,11.49,11.49,0,0,0-2.14-.23A10.27,10.27,0,0,1,268,349a7.52,7.52,0,0,0-1.69-.22,8.73,8.73,0,0,1-2-.25,6.73,6.73,0,0,0-1.45-.23,7.94,7.94,0,0,1-1.78-.28,4.52,4.52,0,0,0-1.26-.19,5.73,5.73,0,0,1-1.77-.27,4.47,4.47,0,0,0-1.3-.22,5.71,5.71,0,0,1-1.46-.24,4.76,4.76,0,0,0-1.29-.24,4.36,4.36,0,0,1-1.51-.31,4.38,4.38,0,0,0-1.12-.18,4.22,4.22,0,0,1-1.42-.3,4.45,4.45,0,0,0-1.08-.18,3.73,3.73,0,0,1-1.12-.23,2.79,2.79,0,0,0-1-.22,3.8,3.8,0,0,1-1-.19c-1.22-.47-1.47-.31-1.61,1a3.25,3.25,0,0,1-.26,1.21,2.74,2.74,0,0,0-.23,1,2.85,2.85,0,0,1-.26,1.11,2.76,2.76,0,0,0-.23,1,3.26,3.26,0,0,1-.25,1.09,2.42,2.42,0,0,0-.22.89,3.33,3.33,0,0,1-.27,1.24,2.65,2.65,0,0,0-.22,1,3,3,0,0,1-.27,1.15,2.87,2.87,0,0,0-.21.94,3,3,0,0,1-.25,1.12,2.55,2.55,0,0,0-.23,1A2.87,2.87,0,0,1,241,360a2.35,2.35,0,0,0-.2.87,3.23,3.23,0,0,1-.25,1.18,2.93,2.93,0,0,0-.24,1,3.22,3.22,0,0,1-.24,1.06,2.76,2.76,0,0,0-.26,1.12,3,3,0,0,1-.24,1,2.74,2.74,0,0,0-.23,1,2.81,2.81,0,0,1-.26,1.1,3,3,0,0,0-.22,1,3.05,3.05,0,0,1-.27,1.14,2.23,2.23,0,0,0-.2.85,3.25,3.25,0,0,1-.29,1.25,2.77,2.77,0,0,0-.21.94,2.86,2.86,0,0,1-.26,1.13,3,3,0,0,0-.22,1,3.24,3.24,0,0,1-.25,1.11,2.77,2.77,0,0,0-.23,1,3.24,3.24,0,0,1-.25,1.09,2.73,2.73,0,0,0-.23,1,2.87,2.87,0,0,1-.26,1.11,2.72,2.72,0,0,0-.22,1,3.36,3.36,0,0,1-.26,1.13,2.67,2.67,0,0,0-.22,1,3.18,3.18,0,0,1-.25,1.11,2.71,2.71,0,0,0-.23,1A3,3,0,0,1,234.78,387.17Z"/><path d="M227.81,215.69A2.86,2.86,0,0,1,229,216a2.16,2.16,0,0,0,.9.22,2.73,2.73,0,0,1,1.14.27,3.35,3.35,0,0,0,1.08.22,3,3,0,0,1,1.06.25,2.33,2.33,0,0,0,.87.22,2.92,2.92,0,0,1,1.15.27,2.13,2.13,0,0,0,.85.19,2.9,2.9,0,0,1,1.26.29,1.89,1.89,0,0,0,.83.2,3.08,3.08,0,0,1,1.06.25,2.91,2.91,0,0,0,1.06.23,2.4,2.4,0,0,1,.81.17l.28.12a2.71,2.71,0,0,0,.84.18,2.92,2.92,0,0,1,1,.25,2.47,2.47,0,0,0,1,.23,2.93,2.93,0,0,1,1.06.25,2.15,2.15,0,0,0,.89.22,3.24,3.24,0,0,1,1.25.28,2.82,2.82,0,0,0,1,.24,3.13,3.13,0,0,1,1,.24,3.28,3.28,0,0,0,1,.22,3.55,3.55,0,0,1,1.25.27,3.2,3.2,0,0,0,1.13.23,4.54,4.54,0,0,1,1.15.24,4.82,4.82,0,0,0,1.2.22,6.61,6.61,0,0,1,1.68.24,5.41,5.41,0,0,0,1.75.26,12.63,12.63,0,0,1,2.19.24,14,14,0,0,0,3.12.24c2,0,3,0,4.73,0a13.09,13.09,0,0,0,3.61-.32,6.48,6.48,0,0,1,1.22-.17,3.19,3.19,0,0,0,1.22-.23,3.76,3.76,0,0,1,1.31-.29,1.65,1.65,0,0,0,.64-.2,2.24,2.24,0,0,1,.79-.24,1.68,1.68,0,0,0,.74-.25,1.26,1.26,0,0,1,.56-.22,1.28,1.28,0,0,0,.65-.24,1.23,1.23,0,0,1,.61-.26,1,1,0,0,0,.54-.24A1,1,0,0,1,281,220c.29-.09.34-.12.45-.23a1.09,1.09,0,0,1,.48-.27,1,1,0,0,0,.35-.21.93.93,0,0,1,.44-.25.71.71,0,0,0,.34-.22,1.32,1.32,0,0,1,.4-.27,1.08,1.08,0,0,0,.36-.24,1,1,0,0,1,.31-.22.69.69,0,0,0,.28-.22.86.86,0,0,1,.28-.23,1.39,1.39,0,0,0,.29-.22,2.38,2.38,0,0,1,.31-.26,3.81,3.81,0,0,0,.38-.32,3.89,3.89,0,0,1,.33-.28,1.37,1.37,0,0,0,.23-.22,1.56,1.56,0,0,1,.24-.23,1.26,1.26,0,0,0,.22-.21,3.81,3.81,0,0,1,.29-.32,5.63,5.63,0,0,0,.74-.82,3.3,3.3,0,0,1,.3-.37,2.17,2.17,0,0,0,.26-.32.89.89,0,0,1,.21-.24.69.69,0,0,0,.22-.28.67.67,0,0,1,.22-.28.67.67,0,0,0,.24-.32,1.51,1.51,0,0,1,.25-.38,1.41,1.41,0,0,0,.25-.38.8.8,0,0,1,.24-.34.69.69,0,0,0,.16-.18l.1-.27a.81.81,0,0,1,.22-.35.87.87,0,0,0,.26-.46.83.83,0,0,1,.18-.31,1.21,1.21,0,0,0,.29-.55,1,1,0,0,1,.18-.36,1.44,1.44,0,0,0,.3-.59,1.08,1.08,0,0,1,.19-.4,1.21,1.21,0,0,0,.27-.57,1.13,1.13,0,0,1,.26-.57,1.08,1.08,0,0,0,.23-.6,1.12,1.12,0,0,1,.23-.56,1.32,1.32,0,0,0,.25-.68,1.39,1.39,0,0,1,.26-.68,1.54,1.54,0,0,0,.22-.71,1.65,1.65,0,0,1,.25-.72,2,2,0,0,0,.23-.83,2.07,2.07,0,0,1,.25-.83,1.94,1.94,0,0,0,.22-.87,2.82,2.82,0,0,1,.25-1,2.66,2.66,0,0,0,.23-1.06,4.79,4.79,0,0,1,.24-1.24,5.94,5.94,0,0,0,.27-1.84,7.65,7.65,0,0,1,.19-1.36,11.75,11.75,0,0,0,.21-1.57c0-.24,0-1,0-2.23a12.72,12.72,0,0,0-.23-3.62,9.49,9.49,0,0,1-.23-1.53,2.66,2.66,0,0,0-.23-1.08,2.22,2.22,0,0,1-.24-.86c-.08-.53-.1-.62-.24-.81a1.42,1.42,0,0,1-.25-.7c-.08-.4-.11-.48-.21-.6a1.13,1.13,0,0,1-.28-.65.78.78,0,0,0-.22-.46.85.85,0,0,1-.23-.46.81.81,0,0,0-.23-.47,1.24,1.24,0,0,1-.29-.54.6.6,0,0,0-.21-.34.72.72,0,0,1-.22-.31,1.17,1.17,0,0,0-.3-.5.94.94,0,0,1-.19-.28.66.66,0,0,0-.25-.36.68.68,0,0,1-.21-.26,2,2,0,0,0-.26-.36,2.33,2.33,0,0,1-.29-.39.87.87,0,0,0-.25-.31.74.74,0,0,1-.21-.25.75.75,0,0,0-.15-.2,1,1,0,0,1-.32-.34.51.51,0,0,0-.16-.18.88.88,0,0,1-.32-.32.53.53,0,0,0-.22-.21.68.68,0,0,1-.25-.25.61.61,0,0,0-.24-.24.73.73,0,0,1-.25-.23.83.83,0,0,0-.34-.29.71.71,0,0,1-.17-.18.7.7,0,0,0-.24-.21,1.65,1.65,0,0,1-.29-.23,2.64,2.64,0,0,0-.35-.28,3.43,3.43,0,0,1-.38-.3,1.17,1.17,0,0,0-.3-.21.63.63,0,0,1-.32-.27.48.48,0,0,0-.17-.15l-.2-.09a1.12,1.12,0,0,1-.23-.18,1.2,1.2,0,0,0-.37-.25,1.07,1.07,0,0,1-.39-.27.66.66,0,0,0-.28-.2.87.87,0,0,1-.38-.24.93.93,0,0,0-.45-.25.74.74,0,0,1-.37-.24.62.62,0,0,0-.34-.21,1.24,1.24,0,0,1-.55-.3.7.7,0,0,0-.37-.2,1.17,1.17,0,0,1-.53-.3.83.83,0,0,0-.3-.15,1.17,1.17,0,0,1-.5-.23,1,1,0,0,0-.48-.27,1.27,1.27,0,0,1-.55-.24,1,1,0,0,0-.52-.25,1.16,1.16,0,0,1-.57-.25.92.92,0,0,0-.49-.22,1.15,1.15,0,0,1-.57-.26c-.14-.12-.23-.15-.66-.25a1.15,1.15,0,0,1-.53-.24,1.16,1.16,0,0,0-.58-.22,1.37,1.37,0,0,1-.61-.23,1.31,1.31,0,0,0-.63-.24,1.45,1.45,0,0,1-.67-.23,1.33,1.33,0,0,0-.67-.25,1.68,1.68,0,0,1-.72-.24,1.49,1.49,0,0,0-.73-.25,1.83,1.83,0,0,1-.74-.22,1.62,1.62,0,0,0-.85-.26,2,2,0,0,1-.81-.25,1.9,1.9,0,0,0-.79-.23,2.56,2.56,0,0,1-.9-.25,2.33,2.33,0,0,0-.87-.23,2.41,2.41,0,0,1-.88-.24,2.42,2.42,0,0,0-1-.24,2.6,2.6,0,0,1-1-.25,2.23,2.23,0,0,0-.95-.24,2.7,2.7,0,0,1-1-.24,2.57,2.57,0,0,0-1-.22,3.26,3.26,0,0,1-.92-.18,3,3,0,0,0-1.14-.3,2.58,2.58,0,0,1-1-.24,2.94,2.94,0,0,0-1-.24,3,3,0,0,1-1-.22,3.55,3.55,0,0,0-1.26-.28,2.68,2.68,0,0,1-.87-.23,2.37,2.37,0,0,0-.89-.22,3.09,3.09,0,0,1-1.14-.26,2.91,2.91,0,0,0-1-.24,3.21,3.21,0,0,1-1-.24,2.35,2.35,0,0,0-.9-.23,3.15,3.15,0,0,1-1-.23,3.57,3.57,0,0,0-1.26-.28,2.68,2.68,0,0,1-.87-.23,2.37,2.37,0,0,0-.89-.22,3.1,3.1,0,0,1-1.14-.26,2.91,2.91,0,0,0-1-.24,3.17,3.17,0,0,1-1-.24,1.59,1.59,0,0,0-1-.19c-.29,0-.32.12-.39.86a3.14,3.14,0,0,1-.26,1.15,2.64,2.64,0,0,0-.22,1,2.93,2.93,0,0,1-.27,1.15,2.87,2.87,0,0,0-.21.94,3,3,0,0,1-.25,1.12,2.92,2.92,0,0,0-.23,1,3.11,3.11,0,0,1-.25,1.1,2.56,2.56,0,0,0-.23,1,3.13,3.13,0,0,1-.25,1.09,3.17,3.17,0,0,0-.24,1.08,3,3,0,0,1-.24,1,2.41,2.41,0,0,0-.22.89,3.57,3.57,0,0,1-.33,1.37,2.58,2.58,0,0,0-.16.82,2.92,2.92,0,0,1-.26,1.13,2.79,2.79,0,0,0-.21.94,3.1,3.1,0,0,1-.27,1.15,2.39,2.39,0,0,0-.2.85,3.33,3.33,0,0,1-.28,1.24,2.48,2.48,0,0,0-.22,1,3.17,3.17,0,0,1-.25,1.09,2.66,2.66,0,0,0-.23,1,2.81,2.81,0,0,1-.25,1.11,2.65,2.65,0,0,0-.23,1,3.28,3.28,0,0,1-.25,1.11,2.75,2.75,0,0,0-.23,1,2.78,2.78,0,0,1-.27,1.14,2.4,2.4,0,0,0-.2.85,3.17,3.17,0,0,1-.27,1.21,2.36,2.36,0,0,0-.21.89,3.21,3.21,0,0,1-.27,1.2,3.25,3.25,0,0,0-.24,1.08,3,3,0,0,1-.24,1,2.67,2.67,0,0,0-.23,1,3.21,3.21,0,0,1-.26,1.13,2.88,2.88,0,0,0-.23,1.05,2.84,2.84,0,0,1-.17.84,3,3,0,0,0-.3,1.17,3.05,3.05,0,0,1-.27,1.13,2.31,2.31,0,0,0-.2.85,3.27,3.27,0,0,1-.29,1.26,2.64,2.64,0,0,0-.2.93,3,3,0,0,1-.26,1.13,2.91,2.91,0,0,0-.23,1.06,2.77,2.77,0,0,1-.23,1,2.78,2.78,0,0,0-.24,1,3.44,3.44,0,0,1-.24,1.08,3.17,3.17,0,0,0-.27,1.27,2.41,2.41,0,0,1-.22.84,3.15,3.15,0,0,0-.23,1.06,3.18,3.18,0,0,1-.25,1,2.56,2.56,0,0,0-.22,1,3.06,3.06,0,0,1-.25,1.11,3,3,0,0,0-.24,1.06,4.92,4.92,0,0,1-.12.7C227.07,215.57,227.12,215.63,227.81,215.69Z"/><path d="M236.47,315.3a5.78,5.78,0,0,0,1.67.25,5.19,5.19,0,0,1,1.22.22,4.82,4.82,0,0,0,1.6.24,15.63,15.63,0,0,1,2.34.25,52.08,52.08,0,0,0,7.7.25,17.07,17.07,0,0,0,4.22-.3,8.58,8.58,0,0,1,1.55-.2,3.16,3.16,0,0,0,1.23-.23,3.56,3.56,0,0,1,1.05-.23,2.41,2.41,0,0,0,1-.24,2.43,2.43,0,0,1,.9-.25,1.53,1.53,0,0,0,.73-.24,1.75,1.75,0,0,1,.73-.24,1.23,1.23,0,0,0,.61-.2,1.55,1.55,0,0,1,.63-.27c.41-.11.42-.11.6-.27s.15-.13.65-.28a.66.66,0,0,0,.34-.19,1.13,1.13,0,0,1,.57-.28.72.72,0,0,0,.37-.21.94.94,0,0,1,.42-.24.85.85,0,0,0,.42-.24.78.78,0,0,1,.34-.22.89.89,0,0,0,.36-.23,1.32,1.32,0,0,1,.31-.23l.25-.11a.52.52,0,0,0,.21-.17.68.68,0,0,1,.3-.22.66.66,0,0,0,.3-.23.73.73,0,0,1,.27-.22,2.17,2.17,0,0,0,.39-.29,2.83,2.83,0,0,1,.35-.28,1.39,1.39,0,0,0,.27-.23,1.33,1.33,0,0,1,.29-.24.69.69,0,0,0,.24-.22.89.89,0,0,1,.25-.23.83.83,0,0,0,.26-.25.76.76,0,0,1,.22-.22c.12-.08.25-.21.25-.25s.15-.19.26-.26a.57.57,0,0,0,.2-.23.86.86,0,0,1,.24-.27.89.89,0,0,0,.23-.26,2.26,2.26,0,0,1,.26-.33,2.85,2.85,0,0,0,.3-.39,1,1,0,0,1,.24-.29.77.77,0,0,0,.23-.29.74.74,0,0,1,.23-.29.64.64,0,0,0,.22-.29,1.55,1.55,0,0,1,.23-.34,1.41,1.41,0,0,0,.25-.38,1.09,1.09,0,0,1,.27-.39.67.67,0,0,0,.22-.32,1.16,1.16,0,0,1,.28-.46,1.07,1.07,0,0,0,.17-.28A.92.92,0,0,1,276,303a.65.65,0,0,0,.22-.38,1,1,0,0,1,.26-.5.75.75,0,0,0,.23-.45.88.88,0,0,1,.25-.49c.13-.13.15-.17.24-.5a.94.94,0,0,1,.24-.52,1,1,0,0,0,.25-.55,1.07,1.07,0,0,1,.24-.55,1.28,1.28,0,0,0,.25-.65,1.07,1.07,0,0,1,.25-.59,1.11,1.11,0,0,0,.22-.62,1.51,1.51,0,0,1,.24-.7,1.14,1.14,0,0,0,.23-.65,1.87,1.87,0,0,1,.21-.74,1.85,1.85,0,0,0,.28-.89,2.17,2.17,0,0,1,.24-.84,2.09,2.09,0,0,0,.24-.91,2.57,2.57,0,0,1,.24-1,2.48,2.48,0,0,0,.24-1.06,3.83,3.83,0,0,1,.22-1.14,3.09,3.09,0,0,0,.25-1.16,8,8,0,0,1,.26-1.76,8.08,8.08,0,0,0,.24-1.88c0-.64,0-.95.1-1.85a34.18,34.18,0,0,0,0-4.3c0-.62-.06-.92-.12-2.1a4.76,4.76,0,0,0-.21-1.5,3.9,3.9,0,0,1-.26-1.24,2.57,2.57,0,0,0-.24-1,2.24,2.24,0,0,1-.24-.87,1.5,1.5,0,0,0-.24-.79A1.66,1.66,0,0,1,280,270a1.09,1.09,0,0,0-.25-.62,1.16,1.16,0,0,1-.23-.6,1,1,0,0,0-.24-.55,1,1,0,0,1-.24-.49,1,1,0,0,0-.24-.5,1,1,0,0,1-.23-.43,1.18,1.18,0,0,0-.26-.49.9.9,0,0,1-.21-.34.93.93,0,0,0-.24-.44,1.24,1.24,0,0,1-.29-.48.56.56,0,0,0-.23-.32.61.61,0,0,1-.21-.29,1.36,1.36,0,0,0-.25-.37,1.83,1.83,0,0,1-.27-.4.82.82,0,0,0-.24-.33.72.72,0,0,1-.22-.28.75.75,0,0,0-.18-.25.79.79,0,0,1-.29-.32.74.74,0,0,0-.22-.25,1.09,1.09,0,0,1-.24-.26,1.39,1.39,0,0,0-.23-.26,2.15,2.15,0,0,1-.26-.28c-.2-.26-1.87-1.91-2.08-2.05a1.17,1.17,0,0,1-.27-.24.84.84,0,0,0-.26-.22,1,1,0,0,1-.22-.17l-.11-.15a.68.68,0,0,0-.19-.14.75.75,0,0,1-.31-.28.64.64,0,0,0-.23-.16,1.51,1.51,0,0,1-.34-.25,1.88,1.88,0,0,0-.37-.27,1.36,1.36,0,0,1-.34-.26.91.91,0,0,0-.31-.23.74.74,0,0,1-.3-.22.72.72,0,0,0-.23-.19,1.5,1.5,0,0,1-.57-.33.94.94,0,0,0-.34-.22.62.62,0,0,1-.3-.21c-.12-.14-.16-.16-.49-.29a.79.79,0,0,1-.35-.23.8.8,0,0,0-.26-.19l-.22-.08a1,1,0,0,1-.25-.17,1.22,1.22,0,0,0-.49-.28.87.87,0,0,1-.42-.24.76.76,0,0,0-.37-.2,1,1,0,0,1-.49-.25.9.9,0,0,0-.47-.24.92.92,0,0,1-.48-.26c-.14-.13-.17-.14-.49-.23a1,1,0,0,1-.51-.25,1,1,0,0,0-.52-.24.89.89,0,0,1-.49-.23,1.08,1.08,0,0,0-.55-.25,1.17,1.17,0,0,1-.57-.25,1,1,0,0,0-.55-.23,1.1,1.1,0,0,1-.58-.24,1.12,1.12,0,0,0-.59-.24,1.33,1.33,0,0,1-.59-.24,1.34,1.34,0,0,0-.63-.24,1.46,1.46,0,0,1-.69-.25,1.5,1.5,0,0,0-.68-.24,1.34,1.34,0,0,1-.62-.23,1.67,1.67,0,0,0-.75-.25,1.44,1.44,0,0,1-.71-.24,1.5,1.5,0,0,0-.75-.23,1.63,1.63,0,0,1-.73-.22,1.16,1.16,0,0,0-.55-.22l-.52-.09a1.49,1.49,0,0,1-.54-.19,1.78,1.78,0,0,0-.82-.24,2.63,2.63,0,0,1-.93-.25,2.55,2.55,0,0,0-.89-.24,2.14,2.14,0,0,1-.89-.25,1.82,1.82,0,0,0-.9-.22,2.39,2.39,0,0,1-.92-.21l-.25-.13a2.94,2.94,0,0,0-.75-.14,2.81,2.81,0,0,1-1.07-.25,2.91,2.91,0,0,0-.92-.23,2.82,2.82,0,0,1-1-.24,2.92,2.92,0,0,0-1-.24,3.15,3.15,0,0,1-1.07-.25,2.82,2.82,0,0,0-1-.23,3.07,3.07,0,0,1-1.06-.25,2.62,2.62,0,0,0-.94-.23,3,3,0,0,1-1.12-.28,2.35,2.35,0,0,0-.83-.19,3,3,0,0,1-1.13-.25,2.92,2.92,0,0,0-1-.24,3.18,3.18,0,0,1-1-.24,2.79,2.79,0,0,0-1-.24,3,3,0,0,1-1.08-.25,2.37,2.37,0,0,0-.89-.21,3.09,3.09,0,0,1-1.14-.26,2.91,2.91,0,0,0-1-.24,3.21,3.21,0,0,1-1-.23,2.5,2.5,0,0,0-1-.25,3,3,0,0,1-1.07-.25,2.49,2.49,0,0,0-1-.23,2.17,2.17,0,0,1-.66-.12c-.24-.09-.29-.09-.39,0a1.09,1.09,0,0,0-.18.55,2,2,0,0,1-.2.6,2.65,2.65,0,0,0-.19.92,3.22,3.22,0,0,1-.26,1.12,2.44,2.44,0,0,0-.22,1,2.94,2.94,0,0,1-.26,1.14,2.74,2.74,0,0,0-.22.94,3.06,3.06,0,0,1-.28,1.18,2.66,2.66,0,0,0-.21.95,3.12,3.12,0,0,1-.25,1.08,2.84,2.84,0,0,0-.23,1,3.14,3.14,0,0,1-.21,1,2.87,2.87,0,0,0-.27,1.09,3.11,3.11,0,0,1-.27,1.14,2.29,2.29,0,0,0-.2.85,3.22,3.22,0,0,1-.27,1.21,3.24,3.24,0,0,0-.24,1.08,3,3,0,0,1-.24,1,2.42,2.42,0,0,0-.22.89,3.15,3.15,0,0,1-.26,1.22,2.59,2.59,0,0,0-.23,1,3.45,3.45,0,0,1-.19,1l-.12.29a3.58,3.58,0,0,0-.19.94,2.87,2.87,0,0,1-.17.85,3.12,3.12,0,0,0-.31,1.26,3.11,3.11,0,0,1-.25,1,2.39,2.39,0,0,0-.21.87,3.21,3.21,0,0,1-.27,1.2,3.23,3.23,0,0,0-.24,1.08,3,3,0,0,1-.23,1,2.47,2.47,0,0,0-.24,1,3.26,3.26,0,0,1-.25,1.09,2.73,2.73,0,0,0-.23,1,2.92,2.92,0,0,1-.27,1.13,2.78,2.78,0,0,0-.21,1,3.22,3.22,0,0,1-.25,1.1,2.66,2.66,0,0,0-.23,1,3.29,3.29,0,0,1-.25,1.1,3.17,3.17,0,0,0-.24,1.1,2.82,2.82,0,0,1-.24,1,2.72,2.72,0,0,0-.21.88,3.34,3.34,0,0,1-.27,1.23,2.61,2.61,0,0,0-.22,1,2.9,2.9,0,0,1-.27,1.15,2.86,2.86,0,0,0-.21.94,3.21,3.21,0,0,1-.27,1.15,2.4,2.4,0,0,0-.2.85,3.22,3.22,0,0,1-.27,1.21,3.32,3.32,0,0,0-.24,1.08,3,3,0,0,1-.24,1,3,3,0,0,0-.23,1,3.06,3.06,0,0,1-.26,1.14,2.29,2.29,0,0,0-.2.85,3.29,3.29,0,0,1-.28,1.24,2.51,2.51,0,0,0-.22,1,3.3,3.3,0,0,1-.25,1.1,2.43,2.43,0,0,0-.22.9,3.25,3.25,0,0,1-.28,1.23,2.66,2.66,0,0,0-.21,1,2.85,2.85,0,0,1-.27,1.14,3.21,3.21,0,0,0-.22,1,3,3,0,0,1-.24,1,2.44,2.44,0,0,0-.22.9,2.92,2.92,0,0,1-.32,1.3c-.14.22-.15.39,0,.5s.11.07.55.14a2.66,2.66,0,0,1,.74.23,2.92,2.92,0,0,0,.94.2,3,3,0,0,1,1,.25,2.46,2.46,0,0,0,.91.23,2.88,2.88,0,0,1,1,.24,2.25,2.25,0,0,0,.91.22,2.51,2.51,0,0,1,1.19.27,2,2,0,0,0,.89.22,3,3,0,0,1,1.09.25,3,3,0,0,0,1.07.24,2.75,2.75,0,0,1,.87.17,3.54,3.54,0,0,0,1.35.34,2.23,2.23,0,0,1,.78.21,2.37,2.37,0,0,0,.92.23,3.05,3.05,0,0,1,1.26.28,2.5,2.5,0,0,0,1,.22,2.74,2.74,0,0,1,1,.24,3.23,3.23,0,0,0,1.08.24,2.83,2.83,0,0,1,.84.17l.28.12.28.1a5.47,5.47,0,0,0,.76.11,2.75,2.75,0,0,1,.83.21,2.42,2.42,0,0,0,.9.23,3.24,3.24,0,0,1,1.25.29,2.84,2.84,0,0,0,1,.2,4.08,4.08,0,0,1,1.26.26,2.71,2.71,0,0,0,1,.23,3.49,3.49,0,0,1,1.13.24,3.51,3.51,0,0,0,1.36.26A5.36,5.36,0,0,1,236.47,315.3Z"/></g></g></svg>