<svg xmlns="http://www.w3.org/2000/svg" viewBox="0 0 76.52 76.52"><title>Ресурс 1</title><g id="Слой_2" data-name="Слой 2"><g id="Слой_1-2" data-name="Слой 1"><path d="M34.53,44.14a1.06,1.06,0,0,0-.75,0,1,1,0,0,0-.57.49q-.45.82.34,1.19a1.1,1.1,0,0,0,.77,0,1,1,0,0,0,.58-.49.8.8,0,0,0,.09-.7A.75.75,0,0,0,34.53,44.14Z"/><path d="M45.41,39.43a13,13,0,0,0-5.52-2.89A20.15,20.15,0,0,0,32.62,36a18.14,18.14,0,0,0-9.79,3.75q-3.88,3.14-3.51,7a6.9,6.9,0,0,0,2.36,4.5,13,13,0,0,0,5.52,2.89,20.15,20.15,0,0,0,7.27.56,18.14,18.14,0,0,0,9.79-3.75q3.88-3.14,3.51-7A6.9,6.9,0,0,0,45.41,39.43Zm-5.91,8.74a7.59,7.59,0,0,1-4.18,4,8.23,8.23,0,0,1-5.93.32,6,6,0,0,1-3.91-3.35,5.62,5.62,0,0,1,.17-5,7.85,7.85,0,0,1,4-3.68,8.36,8.36,0,0,1,5.58-.5,6.26,6.26,0,0,1,4.2,3.16A5.49,5.49,0,0,1,39.51,48.17Z"/><path d="M31.51,45.38a2.69,2.69,0,0,0-1.93,0A2.91,2.91,0,0,0,28,46.58a2.21,2.21,0,0,0-.34,1.81,2,2,0,0,0,1.14,1.34,2.57,2.57,0,0,0,2,.07,3.06,3.06,0,0,0,1.66-1.26,2.2,2.2,0,0,0,.29-1.83A2,2,0,0,0,31.51,45.38Z"/><path d="M0,8V68.52a8,8,0,0,0,8,8H68.52a8,8,0,0,0,8-8V8a8,8,0,0,0-8-8H8A8,8,0,0,0,0,8ZM54.95,47.73a13.11,13.11,0,0,1-2.89,3.63,22.34,22.34,0,0,1-4.46,3.11,24.73,24.73,0,0,1-6,2.2,30.67,30.67,0,0,1-7.16.82,29.92,29.92,0,0,1-7.28-.89,25.86,25.86,0,0,1-6.37-2.46,13.61,13.61,0,0,1-4.54-4,8.93,8.93,0,0,1-1.72-5.28,13.83,13.83,0,0,1,1.84-6.49,29.41,29.41,0,0,1,5.23-6.83,26.73,26.73,0,0,1,9-6.25q4.57-1.77,6.53.19,1.72,1.7.53,5.54a.79.79,0,0,0,0,.53.33.33,0,0,0,.26.19,1.13,1.13,0,0,0,.38,0l.36-.09.16-.05A17,17,0,0,1,45.36,30a4.75,4.75,0,0,1,4.05,1.62q1.19,1.67,0,4.71a3,3,0,0,1-.12.53.28.28,0,0,0,.12.33,1.37,1.37,0,0,0,.32.2l.45.16a11.69,11.69,0,0,1,2.73,1.24A7,7,0,0,1,55,40.95a5.56,5.56,0,0,1,.9,3.09A8,8,0,0,1,54.95,47.73ZM51.64,29.6a2.84,2.84,0,0,0-2.83-.93,1.58,1.58,0,0,1-1.19-.21,1.37,1.37,0,0,1-.66-1,1.54,1.54,0,0,1,.21-1.18,1.47,1.47,0,0,1,1-.68,6.07,6.07,0,0,1,3.15.15A5.9,5.9,0,0,1,54,27.51a6,6,0,0,1,1.44,2.87,5.88,5.88,0,0,1-.17,3.11,1.55,1.55,0,0,1-.78.9,1.52,1.52,0,0,1-1.18.11,1.55,1.55,0,0,1-.9-.78,1.52,1.52,0,0,1-.11-1.18A2.82,2.82,0,0,0,51.64,29.6Zm9.75,5.88a1.79,1.79,0,0,1-.9,1.06,1.7,1.7,0,0,1-1.38.11,1.85,1.85,0,0,1-1.19-2.28A8.92,8.92,0,0,0,52.14,23.1a9.08,9.08,0,0,0-4.58-.23,1.83,1.83,0,0,1-2.17-1.4,1.73,1.73,0,0,1,.25-1.36,1.77,1.77,0,0,1,1.15-.78,12.65,12.65,0,0,1,6.46.3,12.6,12.6,0,0,1,8.49,9.46A12.12,12.12,0,0,1,61.38,35.48Z"/></g></g></svg>