<svg xmlns="http://www.w3.org/2000/svg" viewBox="0 0 52 52" width="512" height="512"><g fill="#FFF"><path d="M9.5 37h10v5a1 1 0 0 0 1.707.707L26.914 37H38c.265 0 .52-.105.707-.293l6.5-6.5a.996.996 0 0 0 .293-.707V6a1 1 0 0 0-1-1h-35a1 1 0 0 0-1 1v30a1 1 0 0 0 1 1zm1-30h33v22.086L37.586 35H26.5a.997.997 0 0 0-.707.293L21.5 39.586V36a1 1 0 0 0-1-1h-10V7z"/><path d="M50.5 0H5a1 1 0 0 0-.864.496l-3.5 6A1.003 1.003 0 0 0 .5 7v37a1 1 0 0 0 1 1h11v6a1 1 0 0 0 1 1h7c.247 0 .485-.092.669-.257L28.662 45H38c.251 0 .493-.095.677-.264l12.5-11.5a1 1 0 0 0 .323-.736V1a1 1 0 0 0-1-1zm-1 32.062L37.61 43h-9.332c-.247 0-.485.092-.669.257L20.116 50H14.5v-6a1 1 0 0 0-1-1h-11V7.271L5.574 2H49.5v30.062z"/><path d="M21.5 28h4a1 1 0 0 0 1-1V14a1 1 0 0 0-1-1h-4a1 1 0 0 0-1 1v13a1 1 0 0 0 1 1zm1-13h2v11h-2V15zm9 13h4a1 1 0 0 0 1-1V14a1 1 0 0 0-1-1h-4a1 1 0 0 0-1 1v13a1 1 0 0 0 1 1zm1-13h2v11h-2V15z"/></g></svg>