<svg id="Element" xmlns="http://www.w3.org/2000/svg" xmlns:xlink="http://www.w3.org/1999/xlink" viewBox="0 0 84.06 89.59">
  <defs>
    <style>
      .cls-1, .cls-10, .cls-11, .cls-12, .cls-13, .cls-14, .cls-15, .cls-2, .cls-3, .cls-4, .cls-5, .cls-7, .cls-9 {
        fill: #fff;
      }

      .cls-1, .cls-10, .cls-11, .cls-12, .cls-13, .cls-14, .cls-15, .cls-2, .cls-3, .cls-4, .cls-7, .cls-8, .cls-9 {
        stroke-miterlimit: 10;
      }

      .cls-1, .cls-8 {
        stroke: url(#Безымянный_градиент_8);
      }

      .cls-2 {
        stroke: url(#Безымянный_градиент_8-2);
      }

      .cls-3 {
        stroke: url(#Безымянный_градиент_8-3);
      }

      .cls-4 {
        stroke: url(#Безымянный_градиент_8-4);
      }

      .cls-6 {
        clip-path: url(#clip-path);
      }

      .cls-7 {
        stroke: url(#Безымянный_градиент_8-6);
      }

      .cls-8 {
        fill: none;
      }

      .cls-9 {
        stroke: url(#Безымянный_градиент_8-8);
      }

      .cls-10 {
        stroke: url(#Безымянный_градиент_8-9);
      }

      .cls-11 {
        stroke: url(#Безымянный_градиент_8-10);
      }

      .cls-12 {
        stroke: url(#Безымянный_градиент_8-11);
      }

      .cls-13 {
        stroke: url(#Безымянный_градиент_8-12);
      }

      .cls-14 {
        stroke: url(#Безымянный_градиент_8-13);
      }

      .cls-15 {
        stroke: url(#Безымянный_градиент_8-14);
      }
    </style>
    <linearGradient id="Безымянный_градиент_8" data-name="Безымянный градиент 8" x1="368.44" y1="1303.14" x2="384.94" y2="1303.14" gradientUnits="userSpaceOnUse">
      <stop offset="0" stop-color="#47a5f0"/>
      <stop offset="0.06" stop-color="#3298ec"/>
      <stop offset="0.16" stop-color="#1687e8"/>
      <stop offset="0.25" stop-color="#067de5"/>
      <stop offset="0.31" stop-color="#0079e4"/>
      <stop offset="1" stop-color="#1852d3"/>
    </linearGradient>
    <linearGradient id="Безымянный_градиент_8-2" x1="368.32" y1="1333.99" x2="452.38" y2="1333.99" xlink:href="#Безымянный_градиент_8"/>
    <linearGradient id="Безымянный_градиент_8-3" x1="389.76" y1="1355.37" x2="435.23" y2="1355.37" xlink:href="#Безымянный_градиент_8"/>
    <linearGradient id="Безымянный_градиент_8-4" x1="422.94" y1="1352.02" x2="437.14" y2="1352.02" xlink:href="#Безымянный_градиент_8"/>
    <clipPath id="clip-path" transform="translate(-368.32 -1289.2)">
      <path class="cls-1" d="M379,1310.39l-10-9.94a5.37,5.37,0,0,1,4.84-5.23l10,9.94A5.38,5.38,0,0,0,379,1310.39Z"/>
    </clipPath>
    <linearGradient id="Безымянный_градиент_8-6" x1="372.66" y1="1297.44" x2="448.18" y2="1297.44" xlink:href="#Безымянный_градиент_8"/>
    <linearGradient id="Безымянный_градиент_8-8" x1="378.43" y1="1364.68" x2="452.35" y2="1364.68" xlink:href="#Безымянный_градиент_8"/>
    <linearGradient id="Безымянный_градиент_8-9" x1="436.06" y1="1336.22" x2="452.35" y2="1336.22" xlink:href="#Безымянный_градиент_8"/>
    <linearGradient id="Безымянный_градиент_8-10" x1="372.66" y1="1297.44" x2="450.95" y2="1297.44" xlink:href="#Безымянный_градиент_8"/>
    <linearGradient id="Безымянный_градиент_8-11" x1="378.37" y1="1341.27" x2="394.67" y2="1341.27" xlink:href="#Безымянный_градиент_8"/>
    <linearGradient id="Безымянный_градиент_8-12" x1="378.45" y1="1312.98" x2="452.38" y2="1312.98" xlink:href="#Безымянный_градиент_8"/>
    <linearGradient id="Безымянный_градиент_8-13" x1="393.69" y1="1356.73" x2="437.15" y2="1356.73" xlink:href="#Безымянный_градиент_8"/>
    <linearGradient id="Безымянный_градиент_8-14" x1="393.37" y1="1357.33" x2="437.44" y2="1357.33" xlink:href="#Безымянный_градиент_8"/>
  </defs>
  <title>20</title>
  <g>
    <path class="cls-2" d="M426.52,1316.6l-29.83,2.59a2.82,2.82,0,0,0-2.53,2.73v3l-3.43.3,3.36,3.32,0.09,22.81,29.9-2.62a2.82,2.82,0,0,0,2.53-2.74v-3.5l3.29-.29-3.28-3.24-0.09-22.39h0Zm-52.74-21.38,63.23-5.5a4.4,4.4,0,0,1,3.52,1.23l2,2,8,7.95a4.39,4.39,0,0,1,1.29,3.16l0,15.88-3.4.29,3.32,3.29,0.1,24.08-3.28.29,3.28,3.24,0,16.37a5.39,5.39,0,0,1-4.84,5.23l-63.23,5.54a4.42,4.42,0,0,1-3.53-1.23l-10-9.94a4.38,4.38,0,0,1-1.28-3.16l0-16.37,3.29-.29-3.28-3.24-0.1-24.08,3.44-.3-3.37-3.33,0-15.88a5.37,5.37,0,0,1,4.84-5.24h0Z" transform="translate(-368.32 -1289.2)"/>
    <path class="cls-3" d="M394.16,1351.38l29.9-2.62,10,9.94L396.67,1362a2.26,2.26,0,0,1-2.51-2.3v-3.5l-3.28-3.24,3.28-.29v-1.27h0Z" transform="translate(-368.32 -1289.2)"/>
    <path class="cls-4" d="M434.11,1358.7l-10-9.94a2.82,2.82,0,0,0,2.53-2.74l10,9.94A2.82,2.82,0,0,1,434.11,1358.7Z" transform="translate(-368.32 -1289.2)"/>
    <path class="cls-1" d="M379,1310.39l-10-9.94a5.37,5.37,0,0,1,4.84-5.23l10,9.94A5.38,5.38,0,0,0,379,1310.39Z" transform="translate(-368.32 -1289.2)"/>
    <g>
      <path class="cls-5" d="M379,1310.39l-10-9.94a5.37,5.37,0,0,1,4.84-5.23l10,9.94A5.38,5.38,0,0,0,379,1310.39Z" transform="translate(-368.32 -1289.2)"/>
      <g class="cls-6">
        <path class="cls-7" d="M437,1289.72l10,9.93-63.23,5.5-10-9.94Z" transform="translate(-368.32 -1289.2)"/>
      </g>
      <path class="cls-8" d="M379,1310.39l-10-9.94a5.37,5.37,0,0,1,4.84-5.23l10,9.94A5.38,5.38,0,0,0,379,1310.39Z" transform="translate(-368.32 -1289.2)"/>
    </g>
    <path class="cls-9" d="M451.84,1351.13l0,16.37a5.39,5.39,0,0,1-4.84,5.23l-63.23,5.54a4.33,4.33,0,0,1-4.81-4.39l0-16.37,15.21-1.33v3.5a2.26,2.26,0,0,0,2.51,2.3l37.44-3.28a2.82,2.82,0,0,0,2.53-2.74v-3.5l15.19-1.33h0Z" transform="translate(-368.32 -1289.2)"/>
    <path class="cls-10" d="M436.65,1348.93l-0.1-24.08,15.19-1.33,0.1,24.08Z" transform="translate(-368.32 -1289.2)"/>
    <path class="cls-11" d="M440.54,1291l2,2,8,8a4.43,4.43,0,0,0-3.54-1.23l-63.23,5.5-10-9.94,63.23-5.5A4.4,4.4,0,0,1,440.54,1291Z" transform="translate(-368.32 -1289.2)"/>
    <path class="cls-12" d="M379,1354l-0.09-24.08,15.2-1.34,0.09,24.09Z" transform="translate(-368.32 -1289.2)"/>
    <path class="cls-13" d="M383.83,1305.16l63.23-5.5a4.35,4.35,0,0,1,4.82,4.4l0,15.88-15.19,1.33v-3a2.26,2.26,0,0,0-2.51-2.3l-37.44,3.25a2.82,2.82,0,0,0-2.53,2.73v3l-15.2,1.33,0-15.88a5.39,5.39,0,0,1,4.84-5.24h0Z" transform="translate(-368.32 -1289.2)"/>
    <path class="cls-14" d="M436.65,1352.46v3.5a2.82,2.82,0,0,1-2.53,2.74L396.66,1362a2.25,2.25,0,0,1-2.48-1.89,2,2,0,0,0,2.17,1.63l37.72-3.3a2.54,2.54,0,0,0,2.27-2.46v-3.78Z" transform="translate(-368.32 -1289.2)"/>
    <path class="cls-15" d="M393.87,1359.68v-3.47l0.28,0v3.5a2.27,2.27,0,0,0,2.51,2.3l37.44-3.28a2.82,2.82,0,0,0,2.53-2.74v-3.5l0.29,0V1356a3.1,3.1,0,0,1-2.79,3l-37.44,3.28a2.55,2.55,0,0,1-2.82-2.58h0Z" transform="translate(-368.32 -1289.2)"/>
  </g>
</svg>
