<svg id="Element" xmlns="http://www.w3.org/2000/svg" xmlns:xlink="http://www.w3.org/1999/xlink" viewBox="0 0 103.4 100.72">
  <defs>
    <style>
      .cls-1, .cls-2 {
        fill: #fff;
        stroke-miterlimit: 10;
      }

      .cls-1 {
        stroke: url(#Безымянный_градиент_8);
      }

      .cls-2 {
        stroke: url(#Безымянный_градиент_8-2);
      }

      .cls-3 {
        fill: url(#Безымянный_градиент_8-3);
      }
    </style>
    <linearGradient id="Безымянный_градиент_8" data-name="Безымянный градиент 8" x1="541.95" y1="1328.37" x2="642.43" y2="1328.37" gradientUnits="userSpaceOnUse">
      <stop offset="0" stop-color="#47a5f0"/>
      <stop offset="0.06" stop-color="#3298ec"/>
      <stop offset="0.16" stop-color="#1687e8"/>
      <stop offset="0.25" stop-color="#067de5"/>
      <stop offset="0.31" stop-color="#0079e4"/>
      <stop offset="1" stop-color="#1852d3"/>
    </linearGradient>
    <linearGradient id="Безымянный_градиент_8-2" x1="540.34" y1="1328.43" x2="643.74" y2="1328.43" xlink:href="#Безымянный_градиент_8"/>
    <linearGradient id="Безымянный_градиент_8-3" x1="557.08" y1="1328.17" x2="627.63" y2="1328.17" xlink:href="#Безымянный_градиент_8"/>
  </defs>
  <title>21</title>
  <g>
    <path class="cls-1" d="M573.53,1376.7a7.81,7.81,0,0,1-6.16-3l-23.17-28.8a7.77,7.77,0,0,1-1.52-6.75l8.28-36a7.83,7.83,0,0,1,4.3-5.36l33.5-16a7.86,7.86,0,0,1,6.89,0l33.5,16a7.83,7.83,0,0,1,4.3,5.36l8.28,36a8,8,0,0,1-1.52,6.75L617,1373.65a8,8,0,0,1-6.16,3l-37.34.07h0Z" transform="translate(-540.34 -1278.07)"/>
    <path class="cls-2" d="M592.14,1281.69a6.48,6.48,0,0,1,2.71.6l33.5,16a6.43,6.43,0,0,1,3.44,4.3l8.28,36a6.19,6.19,0,0,1-1.26,5.43l-23.17,28.8a6.31,6.31,0,0,1-5,2.38H573.53a6.31,6.31,0,0,1-5-2.38l-23.17-28.8a6.63,6.63,0,0,1-1.26-5.43l8.28-36a6.32,6.32,0,0,1,3.44-4.3l33.5-16a8,8,0,0,1,2.78-.53h0Zm0-3.11h0a10,10,0,0,0-4.11.93l-33.5,16a9.38,9.38,0,0,0-5.16,6.42l-8.28,36a9.39,9.39,0,0,0,1.85,8.08l23.17,28.8a9.35,9.35,0,0,0,7.35,3.51h37.14a9.35,9.35,0,0,0,7.35-3.51l23.17-28.8a9.34,9.34,0,0,0,1.85-8.08l-8.28-36a9.38,9.38,0,0,0-5.16-6.42l-33.37-16a9.49,9.49,0,0,0-4-.93h0Z" transform="translate(-540.34 -1278.07)"/>
    <path class="cls-3" d="M625.71,1335.65h-0.07c-0.07,0-.13,0-0.13-0.07s-0.26-.07-0.4-0.07a9,9,0,0,0-1.26-.13,2.48,2.48,0,0,1-.66-0.07h-0.07a17.48,17.48,0,0,1-3.58-.6,1.29,1.29,0,0,1-.73-0.73c0-.07-0.07-0.07-0.07-0.13h0l-0.86-.26a26.19,26.19,0,0,0-.46-9.34,27.28,27.28,0,0,0-3.71-8.67l0.66-.6v-0.13a1.5,1.5,0,0,1,.33-1,19.32,19.32,0,0,1,3-2.05h0c0.2-.13.4-0.2,0.6-0.33a10,10,0,0,0,1.13-.66c0.07-.07.2-0.13,0.33-0.26a0.25,0.25,0,0,0,.13-0.13h0a2.21,2.21,0,0,0,.46-3,1.88,1.88,0,0,0-1.52-.73,2.46,2.46,0,0,0-1.46.53h0l-0.13.13c-0.13.07-.2,0.2-0.33,0.26a11,11,0,0,0-.86.93,3.06,3.06,0,0,1-.46.46h0a16.83,16.83,0,0,1-2.65,2.38,1.07,1.07,0,0,1-.6.2,0.84,0.84,0,0,1-.4-0.07H611.8l-0.79.53a32.15,32.15,0,0,0-2.71-2.52,26.44,26.44,0,0,0-13.84-5.5l-0.07-.86-0.13-.13a1.38,1.38,0,0,1-.53-0.86,23.23,23.23,0,0,1,.2-3.58v-0.07a2.35,2.35,0,0,1,.13-0.66c0.07-.4.13-0.79,0.2-1.26v-0.6h0a2,2,0,0,0-3.51-1.52,2.1,2.1,0,0,0-.6,1.52h0v0.53a3.85,3.85,0,0,0,.2,1.26c0.07,0.2.07,0.4,0.13,0.66v0.07a17.1,17.1,0,0,1,.2,3.58,1.38,1.38,0,0,1-.53.86l-0.13.13h0L590,1304a33.27,33.27,0,0,0-3.58.53,25.53,25.53,0,0,0-13.11,7.42l-0.66-.46h-0.13c-0.13,0-.26.07-0.4,0.07a1.07,1.07,0,0,1-.6-0.2,17.56,17.56,0,0,1-2.65-2.45h0a3.06,3.06,0,0,0-.46-0.46,11,11,0,0,0-.86-0.93c-0.07-.07-0.2-0.13-0.33-0.26a0.25,0.25,0,0,1-.13-0.13h0a2.31,2.31,0,0,0-1.46-.53,1.88,1.88,0,0,0-1.52.73,2.21,2.21,0,0,0,.46,3h0c0.07,0,.07.07,0.13,0.07s0.2,0.2.33,0.26a10,10,0,0,0,1.13.66,2.68,2.68,0,0,1,.6.33h0a19.32,19.32,0,0,1,3,2.05,1.22,1.22,0,0,1,.33,1v0.13h0l0.66,0.6a2.32,2.32,0,0,0-.33.53,25.79,25.79,0,0,0-3.71,17.48l-0.86.26c0,0.07-.07.07-0.07,0.13a1.54,1.54,0,0,1-.73.73,16.72,16.72,0,0,1-3.58.6h-0.07a2.25,2.25,0,0,0-.66.07,9,9,0,0,0-1.26.13c-0.13,0-.26.07-0.4,0.07a0.24,0.24,0,0,0-.2.07h0a2.17,2.17,0,0,0-1.72,2.45,2,2,0,0,0,2.12,1.52,1.46,1.46,0,0,0,.53-0.07h0c0.07,0,.13,0,0.13-0.07s0.26-.07.4-0.07a6.37,6.37,0,0,0,1.19-.46c0.2-.07.4-0.2,0.6-0.26h0.07a16.27,16.27,0,0,1,3.44-1h0.13a1.47,1.47,0,0,1,.86.33c0.07,0,.07.07,0.13,0.07h0l0.93-.13a26.19,26.19,0,0,0,8.67,12.45,26.8,26.8,0,0,0,2.85,1.92l-0.4.86c0,0.07.07,0.07,0.07,0.13a1.36,1.36,0,0,1,.13,1.06,18.67,18.67,0,0,1-1.72,3.11v0.07c-0.13.2-.26,0.33-0.4,0.53s-0.46.66-.73,1.06a1.45,1.45,0,0,0-.2.33,0.23,0.23,0,0,1-.07.13h0a2.09,2.09,0,0,0,.86,2.85,1.76,1.76,0,0,0,.79.2,2.38,2.38,0,0,0,2-1.26h0a0.23,0.23,0,0,1,.07-0.13,1.45,1.45,0,0,1,.2-0.33,12.54,12.54,0,0,0,.4-1.19l0.2-.6h0a15.56,15.56,0,0,1,1.39-3.31,1.7,1.7,0,0,1,.86-0.6,0.13,0.13,0,0,0,.13-0.07h0l0.46-.86a25.87,25.87,0,0,0,9.27,1.72,24,24,0,0,0,5.76-.66,29.43,29.43,0,0,0,3.44-1l0.4,0.73a0.13,0.13,0,0,1,.13.07,1.23,1.23,0,0,1,.86.6,22.67,22.67,0,0,1,1.39,3.31V1359l0.2,0.6a8.39,8.39,0,0,0,.4,1.19c0.07,0.13.13,0.2,0.2,0.33a0.23,0.23,0,0,0,.07.13h0a2.25,2.25,0,0,0,2,1.26,1.76,1.76,0,0,0,.79-0.2,2,2,0,0,0,1-1.19,2.39,2.39,0,0,0-.13-1.66h0c0-.07-0.07-0.07-0.07-0.13a1.45,1.45,0,0,0-.2-0.33,6,6,0,0,0-.73-1.06c-0.13-.2-0.26-0.33-0.4-0.53v-0.07a14.86,14.86,0,0,1-1.72-3.11,1.84,1.84,0,0,1,.07-1.06c0-.07.07-0.07,0.07-0.13h0l-0.33-.79a26.27,26.27,0,0,0,11.52-14.5l0.79,0.13c0.07,0,.07-0.07.13-0.07a1.68,1.68,0,0,1,.86-0.33h0.13a16.27,16.27,0,0,1,3.44,1h0.07c0.2,0.07.4,0.2,0.6,0.26a6.37,6.37,0,0,0,1.19.46c0.13,0,.26.07,0.4,0.07a0.24,0.24,0,0,1,.2.07h0a1.46,1.46,0,0,0,.53.07,2.23,2.23,0,0,0,2.12-1.52,2.55,2.55,0,0,0-1.92-2.18h0ZM595,1332.4l-2.91,1.39-2.91-1.39-0.73-3.11,2-2.52h3.24l2,2.52L595,1332.4h0Zm17.28-6.89a20.88,20.88,0,0,1,.46,6.69l-10.13-2.91a1.79,1.79,0,0,1-1.26-2.12,1.58,1.58,0,0,1,.4-0.73l8-7.22a21.21,21.21,0,0,1,2.52,6.29h0Zm-5.69-10.26-8.67,6.16a1.76,1.76,0,0,1-2.32-.4,1.47,1.47,0,0,1-.33-0.73l-0.6-10.79a20.1,20.1,0,0,1,11.92,5.76h0Zm-19.2-5.43,2.12-.4L589,1320a1.81,1.81,0,0,1-1.79,1.72,1.57,1.57,0,0,1-.79-0.2l-8.81-6.29a20.2,20.2,0,0,1,9.87-5.43h0Zm-13,9.4,7.88,7a1.76,1.76,0,0,1,.2,2.45,1.32,1.32,0,0,1-.79.53l-10.26,3a21.31,21.31,0,0,1,3-13h0Zm-1.79,17.94,10.53-1.79a1.79,1.79,0,0,1,1.85,1.39,1.89,1.89,0,0,1-.07,1.06h0l-4,9.73a20.87,20.87,0,0,1-8.28-10.4h0Zm24.17,13.18a21.62,21.62,0,0,1-4.63.53,22.43,22.43,0,0,1-6.69-1.06l5.23-9.47a1.74,1.74,0,0,1,2.12-.46,2.82,2.82,0,0,1,.79.73h0l5.1,9.2c-0.6.2-1.26,0.33-1.92,0.53h0Zm12.91-9.2a21,21,0,0,1-6.36,6.42l-4.17-10a1.78,1.78,0,0,1,.93-2.05,2.11,2.11,0,0,1,.93-0.2l10.59,1.79a13.33,13.33,0,0,1-1.92,4h0Z" transform="translate(-540.34 -1278.07)"/>
  </g>
</svg>
