<svg id="Element" xmlns="http://www.w3.org/2000/svg" xmlns:xlink="http://www.w3.org/1999/xlink" viewBox="0 0 138.37 89.79">
  <defs>
    <style>
      .cls-1, .cls-2 {
        fill: #fff;
      }

      .cls-1, .cls-10, .cls-11, .cls-12, .cls-2, .cls-4, .cls-5, .cls-6, .cls-7, .cls-8, .cls-9 {
        stroke-miterlimit: 10;
      }

      .cls-1 {
        stroke: url(#Безымянный_градиент_8);
      }

      .cls-2 {
        stroke: url(#Безымянный_градиент_8-2);
      }

      .cls-3 {
        fill: url(#Безымянный_градиент_8-3);
      }

      .cls-10, .cls-11, .cls-12, .cls-4, .cls-5, .cls-6, .cls-7, .cls-8, .cls-9 {
        fill: none;
      }

      .cls-4 {
        stroke: url(#Безымянный_градиент_8-4);
      }

      .cls-5 {
        stroke: url(#Безымянный_градиент_8-5);
      }

      .cls-6 {
        stroke: url(#Безымянный_градиент_8-6);
      }

      .cls-7 {
        stroke: url(#Безымянный_градиент_8-7);
      }

      .cls-8 {
        stroke: url(#Безымянный_градиент_8-8);
      }

      .cls-9 {
        stroke: url(#Безымянный_градиент_8-9);
      }

      .cls-10 {
        stroke: url(#Безымянный_градиент_8-10);
      }

      .cls-11 {
        stroke: url(#Безымянный_градиент_8-11);
      }

      .cls-12 {
        stroke: url(#Безымянный_градиент_8-12);
      }
    </style>
    <linearGradient id="Безымянный_градиент_8" data-name="Безымянный градиент 8" x1="714.2" y1="1333.89" x2="852.57" y2="1333.89" gradientUnits="userSpaceOnUse">
      <stop offset="0" stop-color="#47a5f0"/>
      <stop offset="0.06" stop-color="#3298ec"/>
      <stop offset="0.16" stop-color="#1687e8"/>
      <stop offset="0.25" stop-color="#067de5"/>
      <stop offset="0.31" stop-color="#0079e4"/>
      <stop offset="1" stop-color="#1852d3"/>
    </linearGradient>
    <linearGradient id="Безымянный_градиент_8-2" x1="716.53" y1="1341.41" x2="849.46" y2="1341.41" xlink:href="#Безымянный_градиент_8"/>
    <linearGradient id="Безымянный_градиент_8-3" x1="754.14" y1="1355.17" x2="758.94" y2="1355.17" xlink:href="#Безымянный_градиент_8"/>
    <linearGradient id="Безымянный_градиент_8-4" x1="14.2" y1="37.13" x2="28.37" y2="37.13" xlink:href="#Безымянный_градиент_8"/>
    <linearGradient id="Безымянный_градиент_8-5" x1="28.28" y1="37.13" x2="42.45" y2="37.13" xlink:href="#Безымянный_градиент_8"/>
    <linearGradient id="Безымянный_градиент_8-6" x1="28.28" y1="22.99" x2="42.45" y2="22.99" xlink:href="#Безымянный_градиент_8"/>
    <linearGradient id="Безымянный_градиент_8-7" x1="42.3" y1="22.99" x2="56.47" y2="22.99" xlink:href="#Безымянный_градиент_8"/>
    <linearGradient id="Безымянный_градиент_8-8" x1="56.38" y1="22.99" x2="70.55" y2="22.99" xlink:href="#Безымянный_градиент_8"/>
    <linearGradient id="Безымянный_градиент_8-9" x1="42.33" y1="37.13" x2="56.5" y2="37.13" xlink:href="#Безымянный_градиент_8"/>
    <linearGradient id="Безымянный_градиент_8-10" x1="56.35" y1="37.13" x2="70.52" y2="37.13" xlink:href="#Безымянный_градиент_8"/>
    <linearGradient id="Безымянный_градиент_8-11" x1="70.43" y1="37.13" x2="84.6" y2="37.13" xlink:href="#Безымянный_градиент_8"/>
    <linearGradient id="Безымянный_градиент_8-12" x1="56.38" y1="8.89" x2="70.55" y2="8.89" xlink:href="#Безымянный_градиент_8"/>
  </defs>
  <title>22</title>
  <g>
    <path class="cls-1" d="M786,1317.53h14v14.33h7.09a30.76,30.76,0,0,0,9.74-1.63,24.71,24.71,0,0,0,4.73-2.14,17.57,17.57,0,0,1-3.28-9.06c-0.4-4.38.48-10.07,3.44-13.49l1.48-1.7,1.76,1.41c4.42,3.55,8.14,8.51,8.8,14.18,5.32-1.56,11.58-1.19,16.27,1.51l1.93,1.11-1,2c-4,7.75-12.27,10.14-20.38,9.72-12.13,30.23-38.56,44.54-70.6,44.54-16.55,0-31.74-6.19-40.38-20.87l-0.14-.24-1.26-2.56A40.63,40.63,0,0,1,714.9,1334l0.2-2.12h12v-14.34h14v-14h28v-14H786v28" transform="translate(-714.2 -1289)"/>
    <path class="cls-2" d="M831.37,1322.83c0.94-7.31-4.53-13-7.92-15.77-3.9,4.52-4.51,16.35,1.61,21.34-3.42,3-10.63,5.79-18,5.79H717.22a37.87,37.87,0,0,0,3.72,20.87l1,1.87a34.88,34.88,0,0,0,2.12,3.18q5.54,0.36,10.21.25h0a50,50,0,0,0,14.9-2.17,1.08,1.08,0,0,1,.7,2c-0.5.18-1,.34-1.57,0.5h0a46.55,46.55,0,0,1-10.3,1.68c0.24,0-.26,0-0.26,0l-0.46,0c-1.63.09-3.38,0.11-5.17,0.11-2,0-3.89,0-6-.14l-0.06,0c7.48,8.41,19.19,13.46,33.86,13.46,31,0,57.38-13.77,69-44.67,8.27,0.85,16.23-1.26,19.84-8.32-5.75-3.33-13.16-2.27-17.43-.13" transform="translate(-714.2 -1289)"/>
    <path class="cls-3" d="M756.54,1352.76a2.34,2.34,0,0,1,.87.16,1,1,0,0,0,.49,1.83,1,1,0,0,0,.86-0.51,2.4,2.4,0,1,1-3.14-1.3,2.44,2.44,0,0,1,.92-0.18" transform="translate(-714.2 -1289)"/>
    <rect class="cls-4" x="14.7" y="30.55" width="13.17" height="13.17"/>
    <rect class="cls-5" x="28.78" y="30.55" width="13.17" height="13.17"/>
    <rect class="cls-6" x="28.78" y="16.41" width="13.17" height="13.17"/>
    <rect class="cls-7" x="42.8" y="16.41" width="13.17" height="13.17"/>
    <rect class="cls-8" x="56.88" y="16.41" width="13.17" height="13.17"/>
    <rect class="cls-9" x="42.83" y="30.55" width="13.17" height="13.17"/>
    <rect class="cls-10" x="56.85" y="30.55" width="13.17" height="13.17"/>
    <rect class="cls-11" x="70.93" y="30.55" width="13.17" height="13.17"/>
    <rect class="cls-12" x="56.88" y="2.3" width="13.17" height="13.17"/>
  </g>
</svg>
