<svg xmlns="http://www.w3.org/2000/svg" shape-rendering="geometricPrecision" text-rendering="geometricPrecision" image-rendering="optimizeQuality" fill-rule="evenodd" clip-rule="evenodd" viewBox="0 0 5775.53 5229.04"><defs><mask id="b"><linearGradient id="a" gradientUnits="userSpaceOnUse" x1="3094.46" y1="3676.54" x2="3147.2" y2="342.63"><stop offset="0" stop-color="#fff"/><stop offset=".23137" stop-opacity=".50196" stop-color="#fff"/><stop offset="1" stop-opacity="0" stop-color="#fff"/></linearGradient><path fill="url(#a)" d="M546.51 0h5229.02v5229.03H546.51z"/></mask></defs><path fill="#00A0E3" stroke="#F3E60E" stroke-width="160.72" stroke-miterlimit="2.61313" mask="url(#b)" d="M3161.02 80.36c1399.57 0 2534.15 1134.58 2534.15 2534.15 0 1399.57-1134.58 2534.15-2534.15 2534.15-1399.57 0-2534.15-1134.58-2534.15-2534.15 0-1399.57 1134.58-2534.15 2534.15-2534.15z"/><path fill="#FDC50D" d="M3056.8 672.41c-416.08 62.84-692.02 414.25-643.02 819.34 46.1 381.01 391.85 699.62 823.09 646.15 374.11-46.39 695.99-383.72 645.17-816.8-22.2-189.22-118.63-370.23-258.53-482.44-128.9-103.39-333.86-201.42-566.7-166.25zM2090 965.1c20.46 25.44 82.65 68.9 122.41 96.82 32.29 22.68 101.88 89.8 146.46 40.71 105.87-116.58-212.02-136.45-268.88-137.53zm249.09-369.63c13.27 39.65 61.05 111.81 82.86 147.29 24.95 40.56 73.4 127.7 132.59 67.93 60.13-60.69-30.54-108.88-68.27-132.43-39.21-24.49-105.94-67.24-147.18-82.79zm-.12 1616.39c36.44-12.74 111.21-59.91 147.35-82.47 37.76-23.59 128.59-72.79 68.25-132.53-59.79-59.21-107.33 27.11-132.59 68-21.28 34.46-70.27 108.93-83.01 147zm-248.91-369.42c45.1-1.43 243.1-22.07 274.13-55.31 21.85-23.41 14.21-60.52-5.4-82.13-43.73-48.21-110.34 15.27-142.64 37.45-29.68 20.38-108.26 77.39-126.09 99.99zm109.86 195.27c50.48-7.82 125.5-40.64 172.21-56.84 50.11-17.38 129.19-54.77 70.46-119.16-51.16-56.11-115.79 24.89-138.35 51.01-22.09 25.57-94.24 97.37-104.33 124.99zm0-1267.82c9.86 26.99 82.81 99.64 104.51 124.7 22.31 25.76 87.28 107.91 138.2 51.33 57.47-63.86-19.31-101.21-70.37-119.28-46.71-16.52-123.04-49.11-172.34-56.75zm1757.09-174.55c-48.81 22.51-101.12 55.27-147.4 83.6-38.86 23.78-125.83 70.72-67.25 130.3 59 60.02 106.12-21.63 132.31-65.27 18.31-30.52 75.96-120.82 82.35-148.63zm-585.27-315.06c-36.8 68.61-147.36 248.58-84.32 290.16 76.89 50.7 99.04-30.89 98.35-93.36-.66-59.41-4.62-140.26-14.03-196.8zm-224.08-15.13c-17.41 32.23-35.34 121.76-44.85 159.44-15.99 63.3-32.58 142.56 51.85 137.88 75.01-4.15 54.05-81.37 39.22-138.93-12.57-48.75-21.61-121.47-46.21-158.39zm809.41 1947.12c-6.28-27.44-64.08-118.22-82.37-148.66-25.58-42.56-74.77-126.86-132.3-65.12-57.31 61.51 27.57 104.99 67.46 129.91 46.84 29.25 97.2 60.38 147.21 83.88zm-371.71 247.08c1.01-13.66-4.57-370.84-132.19-269.36-71.05 56.5 85.16 201.46 132.19 269.36zm-1073.63-102.6c49.16-38.51 80.46-69.38 122.48-107.14 29.96-26.93 113.47-89.2 55.76-141.06-67.23-60.43-102.73 26.36-121.59 75.72-14.15 37.03-51.61 135.24-56.65 172.49zm0-1905.88c5.06 37.4 42.48 135.3 56.65 172.49 18.98 49.83 54.55 135.84 121.47 75.61 57.35-51.62-25.34-114.33-55.48-141.1-41.31-36.68-73.88-68.82-122.63-107zm1776.18 952.94c-37.83-23.18-104.37-32.19-155.02-44.73-59.31-14.67-142.07-35.13-141.91 44.71.16 76.92 76.62 60.91 136.41 46.11 51.25-12.68 121.04-21.9 160.52-46.09zM2710.43 2459.93c33.54-36.48 64.17-76.79 95.61-120.76 22.4-31.33 88.66-103.93 40.91-147.15-42.31-38.29-93.77-24.97-111.47 70.01-9.04 48.51-26.09 150.21-25.05 197.9zm1394.43-422.02c-36.23-15.44-170.97-256.89-247.97-179.02-68.15 68.93 28.19 108.45 76.84 125.26 35.47 12.26 142.59 54.61 171.13 53.76zM2710.4 347.54c-.8 49.93 15.4 142.31 24.07 192.22 10.73 61.68 41.94 130.49 108.38 78.8 54.61-42.5-13.92-119.25-36.94-149.98-33.21-44.33-61.65-83.8-95.51-121.04zm1394.56 422.11c-28.63-.87-135.65 41.6-171.26 53.81-49.07 16.83-144.98 56.24-76.6 125.06 77.3 77.79 209.92-162.14 247.86-178.87zm-733.22 1757.68c7.78-46.77 30.71-247.19-4.62-285.91-20.43-22.39-61.91-18.67-83.51-1.24-42.15 33.98.14 110.49 18.53 148.95 23.21 48.57 45.12 92.56 69.6 138.19zm836.82-687.34c-77.23-55.11-211.21-191.12-268.01-137.89-21.44 20.09-28.17 58.72-7.78 83.73 30.34 37.16 253.17 57.27 275.78 54.16zm-1060.9 698.72c14.15-18.96 20.13-51.66 27.22-77.91 7.3-27.04 13.34-54.46 20.39-82.01 15.1-58.92 31.6-130.96-42.39-134.59-75.38-3.69-66.94 70.54-51.55 132.49 12.94 52.12 22.62 121.12 46.33 162.02zM3585.7 347.9c-49.34 68.66-201.95 213.8-132.55 269.94 67.67 54.73 98.66-18.53 108.86-76.48 8.69-49.41 26.25-146.03 23.69-193.46zm197.97 104.53c-40.83 34.53-80.3 67.19-121.59 106.43-25.45 24.19-112.44 86.65-55.69 139.26 65.39 60.6 102.01-21.28 121.54-73.42 13.39-35.75 53.82-138.49 55.73-172.28zm-1760.7 727.53c41.48 22.4 245.61 147.38 289.1 88.36 19.21-26.05 40.92-102-84.27-101.01-63.94.52-143.43 4.23-204.82 12.65zm2250.21 448.55c-38.81-25.62-85.77-46.67-134.5-69.46-36.47-17.05-118.91-66.19-153.73-18.14-48.74 67.25 16.43 99.85 82.54 99.4 67.07-.45 139.39-5.98 205.7-11.81zm0-449.38c-65.17-5.72-132.57-10.33-198.76-11.69-67.58-1.39-141.35 27.21-89.22 99 34.63 47.68 109.87 2.83 148.88-15.68 51.43-24.42 98.13-44.56 139.11-71.62zM2924.15 2527.5c28.49-44.15 145.3-244.93 88.79-288.62-22.36-17.28-101.39-44.74-99.96 84.79.72 65.07 2.27 140.24 11.17 203.83zm859.46-172.42c-1.65-31.96-41.58-135.62-55.61-172.25-20.43-53.4-55.6-133.07-121.26-72.84-57.11 52.39 29.75 114.22 55.45 138.65 41.38 39.33 80.01 72.09 121.41 106.43zm422.75-1389.6c-44.85 1.09-244.87 21.34-273.6 56.35-19.47 23.72-27.33 173.93 151.05 41.13 33.73-25.11 104.25-73.62 122.55-97.47zm-2194.17 438.35l57.87 20.95c44.12 12.4 181.85 51.31 213.44 32.55 47.35-59.37 28.82-125.63-75.72-108.46-23.07 3.79-169.71 37.65-195.59 54.97zm10.79 223.85l197.83 13.32 20.64-.9c133.96 0 97.39-151.68-12.79-111.83-67.77 24.5-148.03 66.8-205.69 99.41zm901.18-1347.53c-6.25 44.4-26.25 251.16 4.55 285.38 8.7 9.67 216.79 99.81-4.55-285.38z"/><path fill="#009846" d="M2914.9 1382.09c6.57 6.19 46.2 13.58 69.66-3.27 4.56-3.28 12.63-9.97 14.18-15.62-7.67-3.49-22.84-7.11-32.14-8.8-14.46-2.62-23.65-2.27-38.05-3.3 17.14-7.75 54.64.82 70.8 6.44-6.58-25.63-47.68-45.02-72.85-37.96l.09 3.28-7 .04c-.73 3.77-1.59-3.19.49.87 1.14 2.23 1.33-1.07.52 1.26l-1.9.99c.01 10.82-.46 13.49.7 24.93l-.22 2.04c-.32 3.69-.07 2.37 2.45 4.18-4.96.09-1.69.15-2.98.98l.16 17.15-3.18.01c1.89 1.26 2.9 2.76 1.62 4.52l-1.76 1.59c-.26.29 2.02-.21-.59.66zm0 0c2.61-.88.33-.37.59-.66l1.76-1.59c1.28-1.76.27-3.26-1.62-4.52l3.18-.01-.16-17.15c1.29-.83-1.98-.89 2.98-.98-2.52-1.82-2.77-.49-2.45-4.18l.22-2.04c-1.16-11.45-.69-14.11-.7-24.93l1.9-.99c.81-2.33.63.97-.52-1.26-2.08-4.05-1.21 2.91-.49-.87l7-.04-.09-3.28c-21.93 1.26-59.73 17.15-74.34 27.5 3.23 6.36 50.93 34.24 62.74 35zm39.39 49.33c3.31 1.83 1.62 1.03 6.36.69-1.84 3.99-.51.25-1.76 2.48-1.77 3.18.67 39.82-.51 47.32-.38 2.45-.21 1.49-1.14 2.71-.53.68-1.02 1.14-1.13.9-.08-.18-.44.24-.62.3l7.92 1.94c.24.15.63.02.78.36.15.34.59.27.8.33 4.91 1.45 13.86 1.41 18.88 1.4 6.63-.01 14.3-.25 20.13-1.41-.65-6.15-.6-1.53-1.41-4.06-1.71-5.34-.47-20.92-.82-27.81-.49-9.58-1.42-.83 2.37-6.89-5.57-.21-1.21.27-2.97-1.72l-13.57 4.12c.13-.38.44-.98.55-.78l2.55-2.02c18.23-11.07 48.81-13.76 69.33-14.01-8.5-12.23-29.34-22.78-50.87-22.93-18.08-.13-45.68 9.69-54.87 19.08zm46.88 16.55c1.76 1.99-2.61 1.5 2.97 1.72-3.79 6.06-2.86-2.68-2.37 6.89.35 6.89-.89 22.47.82 27.81.81 2.53.76-2.09 1.41 4.06 28.41-3.18 53.15-22.22 57.94-47.23-17.57-.19-45.61 1.69-60.77 6.75zm-37.76 39.8l-7.92-1.94c.18-.06.55-.48.62-.3.11.24.6-.22 1.13-.9.94-1.22.76-.26 1.14-2.71 1.18-7.51-1.26-44.14.51-47.32 1.25-2.23-.08 1.5 1.76-2.48-4.74.34-3.05 1.14-6.36-.69-8.5 2.93-37.56 29.56-46.02 39.62-2.58 3.06-1.29.83-2.68 4.43 10.32 3.08 47.31 14.76 57.82 12.29zm-122.84-256.86c2.41 2.21 1.15 1.19 5.2 1.86-2.35 2.98-.48.11-1.98 1.74-2.13 2.31-7.48 33.57-9.99 39.63-.81 1.98-.47 1.21-1.51 2.04-.58.47-1.08.75-1.12.53-.03-.16-.42.11-.58.13l6.25 3.23c.17.18.53.15.58.46.06.32.44.35.61.44 3.83 2.21 11.35 3.98 15.57 4.99 5.56 1.33 12.06 2.68 17.19 2.88.69-5.29-.2-1.41-.36-3.69-.36-4.83 3.83-17.67 4.93-23.52 1.52-8.14-1.03-.99 3.38-5.32-4.64-1.3-1.07-.01-2.15-2.03l-12.23.72c.19-.29.57-.73.63-.54l2.55-1.18c17.54-5.62 43.77-1.7 61.05 2.23-4.67-11.99-20.04-25.05-38.09-29.53-15.16-3.76-40.32-1.09-49.93 4.94zm36.02 23.36c1.07 2.02-2.49.73 2.15 2.03-4.41 4.33-1.86-2.82-3.38 5.32-1.1 5.85-5.28 18.69-4.93 23.52.17 2.28 1.06-1.6.36 3.69 24.5 3.07 49.12-7.93 58.19-27.96-14.71-3.71-38.64-7.79-52.39-6.6zm-39.75 25.79l-6.25-3.23c.16-.01.55-.29.58-.13.04.22.54-.06 1.12-.53 1.04-.83.69-.06 1.51-2.04 2.5-6.07 7.85-37.32 9.99-39.63 1.5-1.62-.37 1.24 1.98-1.74-4.05-.67-2.79.35-5.2-1.86-7.73.74-37.51 17.24-46.65 23.98-2.78 2.05-1.25.44-3.15 3.18 8.05 4.67 36.75 21.95 46.07 21.99zm-137.24-256.31c2.1 1.16 1.03.65 4.04.43-1.17 2.53-.33.16-1.12 1.58-1.13 2.02.42 25.26-.32 30.02-.24 1.55-.13.95-.73 1.72-.33.44-.65.73-.71.57-.05-.11-.28.16-.39.19l5.02 1.23c.15.1.4.02.49.23.09.22.38.17.51.21 3.12.92 8.79.9 11.98.89 4.2 0 9.07-.16 12.77-.89-.41-3.9-.38-.97-.9-2.57-1.08-3.39-.3-13.27-.52-17.64-.31-6.07-.9-.53 1.5-4.37-3.54-.14-.77.17-1.88-1.09l-8.61 2.62c.08-.24.28-.62.35-.5l1.62-1.28c11.56-7.02 30.96-8.73 43.98-8.89-5.39-7.76-18.61-14.45-32.27-14.54-11.47-.08-28.98 6.15-34.81 12.1zm29.74 10.49c1.12 1.26-1.66.95 1.88 1.09-2.4 3.85-1.81-1.7-1.5 4.37.22 4.37-.57 14.26.52 17.64.52 1.6.49-1.33.9 2.57 18.03-2.02 33.71-14.1 36.76-29.96-11.14-.12-28.93 1.07-38.55 4.28zm-23.95 25.24l-5.02-1.23c.12-.03.35-.3.39-.19.07.15.38-.14.71-.57.6-.77.49-.16.73-1.72.74-4.76-.8-28 .32-30.02.79-1.42-.05.95 1.12-1.58-3.01.22-1.94.73-4.04-.43-5.4 1.86-23.83 18.75-29.2 25.13-1.63 1.95-.82.53-1.7 2.82 6.55 1.96 30.01 9.37 36.68 7.79zm30.87 27.49c2.1 1.17 1.03.65 4.04.44-1.17 2.53-.33.16-1.12 1.58-1.12 2.02.42 25.26-.32 30.02-.24 1.55-.13.95-.73 1.72-.33.44-.65.73-.71.57-.05-.11-.28.16-.39.19l5.02 1.23c.16.1.4.02.49.23.09.22.38.17.51.21 3.11.92 8.79.89 11.98.89 4.2 0 9.07-.16 12.77-.89-.41-3.9-.38-.97-.9-2.57-1.08-3.39-.3-13.27-.52-17.64-.31-6.07-.9-.53 1.5-4.37-3.53-.14-.77.17-1.88-1.09l-8.61 2.62c.09-.24.28-.62.35-.5l1.62-1.28c11.56-7.02 30.97-8.73 43.98-8.89-5.39-7.76-18.61-14.45-32.28-14.54-11.47-.08-28.98 6.15-34.81 12.1zm29.74 10.5c1.12 1.26-1.65.95 1.88 1.09-2.4 3.85-1.81-1.7-1.5 4.37.22 4.37-.56 14.26.52 17.64.51 1.6.48-1.33.9 2.57 18.02-2.02 33.71-14.1 36.75-29.96-11.14-.12-28.93 1.07-38.55 4.28zm-23.95 25.24l-5.02-1.23c.11-.03.35-.3.39-.19.07.15.38-.14.71-.57.6-.77.48-.16.73-1.72.74-4.76-.8-28 .32-30.02.79-1.42-.05.95 1.12-1.58-3.01.22-1.93.73-4.04-.44-5.4 1.86-23.83 18.75-29.19 25.13-1.64 1.95-.82.53-1.7 2.82 6.55 1.96 30.01 9.37 36.68 7.79zm37.12 40.33c2.51 1.38 1.23.77 4.81.52-1.39 3.02-.39.19-1.33 1.88-1.34 2.4.5 30.13-.38 35.81-.29 1.86-.16 1.13-.87 2.05-.4.52-.77.86-.85.68-.06-.13-.33.19-.47.23l5.99 1.47c.18.12.47.02.59.27.11.26.45.21.61.25 3.72 1.1 10.49 1.07 14.29 1.06 5.01 0 10.82-.19 15.23-1.07-.49-4.65-.45-1.16-1.07-3.07-1.29-4.04-.35-15.83-.62-21.05-.37-7.24-1.08-.63 1.79-5.22-4.22-.16-.91.21-2.24-1.29l-10.27 3.12c.1-.29.34-.74.42-.6l1.93-1.53c13.8-8.38 36.94-10.41 52.47-10.6-6.43-9.26-22.21-17.24-38.5-17.35-13.68-.09-34.57 7.33-41.52 14.44zm35.47 12.52c1.33 1.5-1.97 1.14 2.24 1.29-2.87 4.59-2.16-2.03-1.79 5.22.27 5.22-.67 17.01.62 21.05.62 1.91.58-1.58 1.07 3.07 21.5-2.41 40.22-16.82 43.85-35.74-13.29-.15-34.51 1.28-45.99 5.11zm-28.57 30.11l-5.99-1.47c.14-.04.41-.36.47-.23.08.18.45-.16.85-.68.71-.92.58-.19.87-2.05.89-5.68-.96-33.4.38-35.81.94-1.69-.06 1.14 1.33-1.88-3.59.26-2.31.87-4.81-.52-6.44 2.22-28.43 22.37-34.83 29.98-1.95 2.32-.98.63-2.03 3.36 7.81 2.33 35.8 11.17 43.76 9.29zm18.61-263.59c-.38 2.37-.26 1.19.96 3.94-2.78-.24-.26-.25-1.86-.51-2.28-.37-23.6 8.99-28.33 9.91-1.55.3-.93.2-1.86-.1-.52-.17-.9-.36-.78-.47.09-.08-.24-.21-.32-.31l.55 5.14c-.04.18.13.38-.05.54-.17.16-.03.41-.02.55.19 3.24 2.15 8.57 3.24 11.56 1.43 3.95 3.24 8.48 5.19 11.7 3.53-1.71.79-.69 2.11-1.72 2.82-2.17 12.38-4.8 16.42-6.49 5.6-2.36.19-1.03 4.62-.08-1.07-3.37-.42-.66.38-2.14l-5.39-7.21c.26 0 .68.06.59.16l1.76 1.08c10.54 8.49 18.74 26.15 23.33 38.33 5.46-7.71 7.26-22.42 2.7-35.3-3.83-10.81-15.65-25.16-23.23-28.61zm.25 31.53c-.8 1.48-1.46-1.23-.38 2.14-4.43-.95.98-2.28-4.62.08-4.04 1.69-13.6 4.32-16.42 6.49-1.33 1.03 1.41 0-2.11 1.72 8.03 16.26 24.73 26.9 40.68 24.37-3.68-10.52-10.85-26.84-17.14-34.79zm-31.89-13.93l-.55-5.14c.07.09.4.22.32.31-.12.11.26.31.78.47.93.3.32.4 1.86.1 4.73-.92 26.06-10.29 28.33-9.91 1.6.26-.91.28 1.86.51-1.23-2.75-1.34-1.57-.96-3.94-3.58-4.44-25.74-16.02-33.57-18.9-2.38-.87-.77-.59-3.22-.64.39 6.83 1.4 31.41 5.15 37.14zm672.83 374.89c-1.19-2.66-.52-1.38-3.6-3.38 2.98-1.6.43.08 2.24-.71 2.57-1.14 18.08-24.81 22.29-28.89 1.37-1.33.82-.82 1.96-1.14.64-.17 1.16-.23 1.11-.03-.03.14.38.05.52.1l-3.97-4.87c-.08-.21-.38-.31-.31-.58.06-.28-.24-.44-.34-.58-2.35-3.18-7.87-7.3-10.97-9.64-4.08-3.07-8.92-6.49-13.04-8.48-2.46 4.09-.34 1.22-1.02 3.15-1.43 4.08-9.43 13.09-12.41 17.5-4.15 6.12.49 1.17-4.66 3.14 3.33 2.72.87.39 1.03 2.43l10.27 3.77c-.26.17-.73.39-.71.22l-2.51.06c-16.36-1.66-36.43-14.2-49.18-23.58-.45 11.48 7.48 27.65 20.66 37.74 11.07 8.47 32.61 15.25 42.63 13.74zm-21.16-31.95c-.16-2.04 2.3.28-1.03-2.43 5.15-1.97.51 2.98 4.66-3.14 2.98-4.4 10.98-13.42 12.41-17.5.68-1.93-1.44.93 1.02-3.15-18.96-11.24-43.03-11.01-57.59 2.16 10.72 8.27 28.85 20.14 40.53 24.07zm41.72-6.95l3.97 4.87c-.14-.05-.56.04-.52-.1.05-.2-.47-.14-1.11.03-1.14.32-.59-.19-1.96 1.14-4.21 4.08-19.72 27.75-22.29 28.89-1.8.79.75-.89-2.24.71 3.08 1.99 2.41.71 3.6 3.38 6.59 2.15 36.85-.74 46.73-3.01 3.01-.69 1.18.09 3.71-1.48-4.92-6.69-22.26-31.06-29.88-34.41zm-39.07 135.8c-1.46-3.27-.64-1.7-4.41-4.14 3.66-1.96.53.1 2.74-.87 3.15-1.39 22.17-30.42 27.33-35.41 1.69-1.63 1-1.01 2.41-1.39.79-.22 1.42-.28 1.36-.04-.04.18.47.07.64.13l-4.86-5.97c-.1-.25-.47-.38-.39-.71.08-.35-.29-.54-.42-.71-2.87-3.9-9.65-8.96-13.45-11.81-5-3.77-10.93-7.95-15.99-10.4-3.01 5.01-.42 1.5-1.25 3.86-1.75 5-11.56 16.05-15.22 21.45-5.08 7.5.6 1.44-5.71 3.85 4.09 3.33 1.07.48 1.26 2.98l12.58 4.62c-.32.21-.89.48-.87.27l-3.08.07c-20.06-2.03-44.66-17.41-60.29-28.9-.55 14.07 9.17 33.89 25.33 46.27 13.57 10.39 39.98 18.7 52.26 16.85zm-25.94-39.18c-.2-2.5 2.82.35-1.26-2.98 6.31-2.42.63 3.65 5.71-3.85 3.66-5.4 13.47-16.45 15.22-21.45.83-2.37-1.76 1.14 1.25-3.86-23.25-13.78-52.75-13.49-70.6 2.64 13.14 10.14 35.37 24.69 49.69 29.51zm51.15-8.52l4.86 5.97c-.17-.06-.68.05-.64-.13.06-.24-.57-.17-1.36.04-1.4.38-.72-.24-2.41 1.39-5.16 5-24.18 34.03-27.33 35.41-2.21.98.92-1.09-2.74.87 3.77 2.44 2.95.87 4.41 4.14 8.08 2.63 45.17-.91 57.28-3.69 3.69-.84 1.45.11 4.55-1.82-6.04-8.2-27.29-38.08-36.63-42.19zm-66.06 145.1c-1.45-3.27-.63-1.7-4.41-4.14 3.66-1.96.53.1 2.74-.88 3.15-1.39 22.18-30.43 27.35-35.43 1.69-1.63 1-1.01 2.41-1.39.79-.22 1.42-.28 1.36-.04-.04.18.47.07.64.13l-4.87-5.97c-.09-.25-.46-.38-.38-.71.08-.35-.29-.54-.42-.71-2.88-3.9-9.66-8.96-13.46-11.82-5-3.77-10.94-7.96-16-10.4-3.01 5.01-.42 1.5-1.25 3.86-1.75 5-11.57 16.06-15.23 21.47-5.09 7.51.6 1.44-5.71 3.86 4.09 3.34 1.07.48 1.26 2.98l12.59 4.62c-.32.21-.9.49-.87.28l-3.08.08c-20.07-2.03-44.69-17.42-60.32-28.93-.55 14.08 9.17 33.92 25.34 46.3 13.58 10.4 40.01 18.71 52.29 16.86zm-25.96-39.2c-.2-2.5 2.82.35-1.26-2.98 6.32-2.42.63 3.65 5.71-3.86 3.66-5.4 13.47-16.46 15.23-21.47.83-2.37-1.77 1.15 1.25-3.86-23.26-13.79-52.78-13.5-70.65 2.64 13.15 10.15 35.39 24.7 49.72 29.53zm51.18-8.53l4.87 5.97c-.17-.06-.68.05-.64-.13.05-.24-.58-.17-1.36.04-1.4.38-.72-.24-2.41 1.39-5.16 5-24.2 34.05-27.35 35.43-2.21.98.92-1.09-2.74.88 3.77 2.44 2.95.87 4.41 4.14 8.09 2.63 45.2-.91 57.32-3.69 3.69-.85 1.45.11 4.55-1.82-6.04-8.21-27.3-38.1-36.65-42.21zm100.49-373.38c-2.91-.22-1.47-.2-4.68 1.56.01-3.39.28-.35.43-2.31.22-2.8-13.26-27.69-14.85-33.33-.52-1.84-.33-1.11-.06-2.27.15-.65.35-1.12.5-.99.11.1.23-.31.34-.41l-6.17 1.18c-.22-.03-.45.19-.66 0-.22-.19-.5 0-.67.03-3.91.56-10.17 3.46-13.68 5.08-4.64 2.13-9.94 4.77-13.65 7.46 2.43 4.1.91.88 2.29 2.39 2.91 3.2 7.05 14.51 9.51 19.23 3.42 6.55 1.26.13.56 5.59 3.98-1.64.76-.58 2.63.25l8.18-7.25c.03.31 0 .83-.14.73l-1.14 2.24c-9.22 13.61-29.78 25.33-44.09 32.1 9.89 5.84 27.88 6.53 43.02-.28 12.71-5.73 28.9-21.48 32.32-31.01zm-38.17 3.47c-1.87-.82 1.34-1.89-2.63-.25.71-5.47 2.86.96-.56-5.59-2.46-4.72-6.6-16.03-9.51-19.23-1.38-1.51.14 1.71-2.29-2.39-18.89 11.36-30.1 32.65-25.43 51.72 12.37-5.51 31.42-15.84 40.42-24.26zm13.67-40.02l6.17-1.18c-.11.1-.23.51-.34.41-.15-.13-.35.35-.5.99-.27 1.16-.45.43.06 2.27 1.59 5.64 15.08 30.53 14.85 33.33-.15 1.96-.43-1.08-.43 2.31 3.21-1.77 1.77-1.78 4.68-1.56 5.02-4.79 16.82-32.79 19.52-42.56.82-2.98.64-.99.46-3.97-8.22 1.16-37.9 4.86-44.47 9.97zm145.52 16.9c-2.91-.22-1.47-.2-4.68 1.56 0-3.39.28-.34.43-2.3.22-2.8-13.26-27.69-14.85-33.33-.52-1.84-.33-1.11-.07-2.26.15-.65.35-1.13.5-.99.11.1.23-.31.34-.41l-6.17 1.18c-.22-.03-.45.19-.66 0-.21-.19-.5 0-.67.02-3.91.56-10.16 3.47-13.68 5.09-4.64 2.13-9.94 4.77-13.65 7.46 2.43 4.1.91.88 2.29 2.39 2.91 3.19 7.05 14.51 9.51 19.23 3.42 6.55 1.26.13.55 5.59 3.98-1.64.76-.58 2.63.25l8.19-7.25c.03.31 0 .83-.14.73l-1.14 2.24c-9.22 13.62-29.78 25.33-44.09 32.1 9.89 5.84 27.89 6.54 43.02-.28 12.71-5.73 28.9-21.47 32.32-31.01zm-38.17 3.47c-1.87-.83 1.34-1.89-2.63-.25.71-5.47 2.86.96-.55-5.59-2.46-4.72-6.6-16.04-9.51-19.23-1.38-1.51.14 1.71-2.29-2.39-18.89 11.36-30.1 32.65-25.43 51.72 12.37-5.51 31.42-15.84 40.42-24.26zm13.68-40.02l6.17-1.18c-.11.1-.23.51-.34.41-.15-.13-.35.35-.5.99-.27 1.15-.45.43.07 2.26 1.59 5.64 15.07 30.53 14.85 33.33-.16 1.96-.43-1.08-.43 2.3 3.21-1.76 1.77-1.78 4.68-1.56 5.02-4.78 16.82-32.79 19.52-42.56.82-2.98.63-.99.45-3.97-8.22 1.16-37.9 4.86-44.47 9.97zm-18.24 169.83c-1.19-2.66-.52-1.38-3.6-3.38 2.98-1.6.43.08 2.24-.71 2.57-1.14 18.08-24.81 22.29-28.89 1.37-1.33.82-.82 1.96-1.14.64-.17 1.15-.23 1.11-.03-.03.14.38.05.52.1l-3.97-4.87c-.08-.21-.38-.31-.32-.58.07-.28-.24-.44-.34-.58-2.35-3.18-7.87-7.3-10.97-9.64-4.08-3.07-8.92-6.49-13.04-8.48-2.46 4.09-.34 1.22-1.02 3.15-1.43 4.08-9.43 13.09-12.41 17.5-4.15 6.12.49 1.17-4.66 3.14 3.33 2.72.87.39 1.03 2.43l10.27 3.77c-.26.17-.73.39-.71.22l-2.51.06c-16.36-1.66-36.43-14.2-49.18-23.58-.45 11.48 7.48 27.65 20.66 37.74 11.07 8.47 32.61 15.25 42.63 13.74zm-21.16-31.95c-.16-2.04 2.3.28-1.03-2.43 5.15-1.97.51 2.98 4.66-3.14 2.98-4.4 10.98-13.42 12.41-17.5.68-1.93-1.44.93 1.02-3.15-18.96-11.24-43.03-11.01-57.59 2.16 10.72 8.28 28.85 20.14 40.54 24.07zm41.72-6.95l3.97 4.87c-.14-.05-.56.04-.52-.1.04-.2-.47-.14-1.11.03-1.14.32-.59-.19-1.96 1.14-4.21 4.08-19.72 27.75-22.29 28.89-1.8.79.75-.89-2.24.71 3.08 1.99 2.41.71 3.6 3.38 6.59 2.15 36.84-.74 46.73-3.01 3.01-.69 1.18.09 3.71-1.48-4.92-6.69-22.26-31.06-29.88-34.41zm-87.76 94.45c-1.19-2.67-.52-1.39-3.6-3.38 2.98-1.6.43.08 2.24-.71 2.57-1.13 18.08-24.81 22.29-28.89 1.37-1.33.82-.82 1.96-1.13.64-.18 1.15-.23 1.11-.03-.03.14.38.06.52.11l-3.97-4.87c-.08-.21-.38-.31-.32-.58.07-.28-.24-.44-.34-.58-2.35-3.17-7.87-7.3-10.97-9.63-4.08-3.07-8.92-6.49-13.04-8.48-2.46 4.08-.34 1.22-1.02 3.15-1.43 4.08-9.43 13.09-12.41 17.5-4.15 6.12.49 1.17-4.66 3.14 3.33 2.72.87.39 1.03 2.43l10.27 3.77c-.26.17-.73.39-.71.22l-2.51.06c-16.36-1.66-36.43-14.2-49.18-23.58-.45 11.47 7.48 27.65 20.66 37.74 11.07 8.47 32.61 15.25 42.63 13.74zm-21.16-31.96c-.16-2.04 2.3.29-1.03-2.43 5.15-1.97.51 2.97 4.66-3.14 2.98-4.4 10.98-13.42 12.41-17.5.68-1.93-1.44.93 1.02-3.15-18.96-11.24-43.03-11.01-57.59 2.15 10.72 8.28 28.85 20.14 40.54 24.07zm41.72-6.95l3.97 4.87c-.14-.05-.56.04-.52-.11.04-.19-.47-.14-1.11.03-1.14.31-.59-.2-1.96 1.13-4.21 4.08-19.72 27.76-22.29 28.89-1.8.79.75-.89-2.24.71 3.08 1.99 2.41.71 3.6 3.38 6.59 2.15 36.84-.75 46.73-3.01 3.01-.69 1.18.08 3.71-1.49-4.92-6.69-22.26-31.06-29.88-34.41zm7.87-246.32c-2.92.13-1.48-.02-4.46 2.11-.39-3.36.24-.37.16-2.34-.11-2.81-16.47-25.91-18.71-31.32-.74-1.77-.47-1.06-.34-2.24.07-.66.21-1.16.38-1.04.12.08.19-.34.29-.45l-5.98 1.91c-.22 0-.43.24-.66.08-.24-.16-.5.06-.66.1-3.82 1.02-9.68 4.65-12.98 6.68-4.35 2.67-9.31 5.92-12.67 9.03 2.9 3.78 1.01.76 2.56 2.1 3.27 2.82 8.73 13.57 11.74 17.96 4.18 6.1 1.27-.03 1.22 5.49 3.75-2.1.68-.67 2.64-.07l7.26-8.17c.06.31.1.83-.05.74l-.86 2.36c-7.53 14.62-26.56 28.69-39.96 37.12 10.51 4.62 28.47 3.17 42.69-5.4 11.94-7.19 26.14-24.76 28.4-34.63zm-37.48 7.99c-1.96-.6 1.11-2.03-2.64.07.05-5.51 2.96.61-1.22-5.49-3-4.39-8.46-15.14-11.74-17.96-1.55-1.34.34 1.68-2.56-2.1-17.4 13.53-26 36-19.09 54.38 11.63-6.94 29.31-19.47 37.25-28.9zm8.81-41.37l5.98-1.91c-.09.11-.17.53-.29.45-.17-.11-.31.38-.38 1.04-.13 1.18-.4.48.34 2.24 2.25 5.41 18.6 28.52 18.71 31.32.08 1.97-.55-1.02-.16 2.34 2.98-2.13 1.54-1.98 4.46-2.11 4.41-5.35 12.8-34.56 14.31-44.58.46-3.05.51-1.06-.02-4-8.03 2.13-37.06 9.34-42.97 15.2zm-207.23 91.35c.63 2.85.23 1.46 2.85 4.03-3.25.97-.41-.17-2.34.25-2.74.59-22.69 20.67-27.64 23.82-1.61 1.03-.97.64-2.15.72-.66.05-1.18-.01-1.1-.19.06-.14-.36-.13-.49-.21l2.91 5.57c.03.22.31.38.19.63-.12.26.14.48.22.64 1.66 3.58 6.25 8.74 8.81 11.64 3.38 3.83 7.43 8.15 11.07 10.93 3.23-3.51.58-1.13 1.63-2.88 2.22-3.71 11.87-10.94 15.67-14.65 5.29-5.16-.25-1.25 5.2-2.15-2.72-3.33-.77-.56-.52-2.59l-9.3-5.75c.29-.12.79-.24.74-.08l2.47.44c15.7 4.91 32.84 21.23 43.44 32.98 2.75-11.15-1.77-28.59-12.66-41.12-9.14-10.52-28.89-21.49-39-22.02zm14.31 35.55c-.25 2.03-2.19-.74.52 2.59-5.44.9.09-3.01-5.2 2.15-3.8 3.71-13.46 10.94-15.67 14.65-1.05 1.75 1.6-.63-1.63 2.88 16.32 14.82 39.94 19.42 56.85 9.45-8.84-10.26-24.22-25.52-34.88-31.72zm-42.26-1.57l-2.91-5.57c.13.08.55.07.49.21-.08.18.43.24 1.1.19 1.18-.08.54.31 2.15-.72 4.94-3.15 24.89-23.23 27.64-23.82 1.93-.42-.91.72 2.34-.25-2.62-2.57-2.22-1.18-2.85-4.03-6.03-3.43-36.24-6.67-46.38-6.44-3.09.07-1.14-.32-3.93.71 3.48 7.54 15.57 34.9 22.36 39.71zm71.28-81.49c.88 2.29.37 1.18 2.86 2.99-2.57 1.21-.36-.09-1.91.5-2.2.83-16.26 19.98-19.97 23.21-1.21 1.05-.72.65-1.69.86-.55.12-.98.14-.93-.02.03-.12-.32-.06-.43-.11l3.11 4.26c.06.18.3.28.24.5-.07.23.18.38.26.5 1.83 2.76 6.27 6.47 8.76 8.57 3.28 2.76 7.18 5.84 10.55 7.69 2.24-3.31.34-1.01.99-2.6 1.38-3.35 8.49-10.55 11.18-14.1 3.75-4.94-.36-1.01 4.05-2.43-2.67-2.43-.71-.36-.76-2.08l-8.43-3.61c.22-.13.63-.3.6-.16l2.1.06c13.64 2.12 29.89 13.53 40.16 21.96.89-9.6-5.03-23.5-15.62-32.55-8.9-7.6-26.65-14.24-35.11-13.43zm16.3 27.73c.04 1.72-1.91-.34.76 2.08-4.4 1.42-.3-2.51-4.05 2.43-2.7 3.55-9.8 10.75-11.18 14.1-.65 1.59 1.25-.72-.99 2.6 15.39 10.27 35.56 11.15 48.36.77-8.61-7.41-23.28-18.17-32.89-21.99zm-35.27 3.96l-3.11-4.26c.11.05.47-.01.43.11-.05.16.39.14.93.02.97-.21.48.19 1.69-.86 3.71-3.23 17.77-22.38 19.97-23.21 1.55-.59-.66.71 1.91-.5-2.49-1.81-1.99-.71-2.86-2.99-5.43-2.1-30.91-1.03-39.29.43-2.56.44-.98-.13-3.18 1.07 3.83 5.83 17.26 27.03 23.5 30.18zm40.38-86.27c.87 2.29.37 1.18 2.86 2.99-2.57 1.21-.36-.09-1.91.5-2.2.83-16.26 19.98-19.97 23.21-1.21 1.05-.72.65-1.7.86-.54.12-.98.14-.93-.02.03-.12-.32-.06-.43-.11l3.11 4.26c.06.18.3.28.24.5-.07.23.18.38.26.5 1.83 2.76 6.27 6.47 8.76 8.57 3.28 2.76 7.18 5.84 10.55 7.69 2.24-3.31.34-1.01.99-2.59 1.38-3.36 8.49-10.55 11.18-14.11 3.75-4.94-.36-1.01 4.04-2.43-2.67-2.43-.71-.36-.75-2.08l-8.44-3.61c.23-.13.63-.3.6-.16l2.1.06c13.64 2.12 29.89 13.53 40.16 21.96.9-9.6-5.02-23.5-15.62-32.55-8.9-7.6-26.65-14.24-35.11-13.43zm16.3 27.73c.04 1.72-1.92-.34.75 2.08-4.4 1.42-.29-2.51-4.04 2.43-2.7 3.55-9.81 10.75-11.18 14.11-.65 1.59 1.25-.72-.99 2.59 15.39 10.27 35.57 11.15 48.36.77-8.61-7.41-23.28-18.17-32.89-21.99zm-35.28 3.96l-3.11-4.26c.11.05.47-.01.43.11-.05.16.39.14.93.02.98-.21.49.19 1.7-.86 3.71-3.23 17.77-22.38 19.97-23.21 1.55-.59-.66.71 1.91-.5-2.49-1.81-1.99-.71-2.86-2.99-5.43-2.1-30.91-1.03-39.3.43-2.55.44-.98-.13-3.18 1.07 3.83 5.83 17.26 27.03 23.5 30.18zm54.91-73.03c.71 1.85.3.96 2.32 2.42-2.08.98-.29-.07-1.55.4-1.78.68-13.17 16.19-16.18 18.8-.98.85-.58.53-1.37.7-.44.09-.79.11-.76-.02.03-.09-.26-.05-.35-.09l2.52 3.45c.05.14.25.22.19.41-.06.19.14.31.21.41 1.48 2.24 5.08 5.25 7.1 6.94 2.66 2.23 5.82 4.73 8.55 6.23 1.81-2.68.28-.82.8-2.1 1.12-2.71 6.88-8.55 9.06-11.43 3.04-4-.29-.81 3.28-1.96-2.16-1.97-.58-.3-.61-1.69l-6.83-2.93c.18-.11.51-.25.49-.13l1.7.05c11.05 1.72 24.21 10.96 32.53 17.79.72-7.78-4.07-19.04-12.66-26.37-7.21-6.16-21.59-11.54-28.44-10.88zm13.21 22.46c.03 1.39-1.55-.28.61 1.69-3.57 1.15-.24-2.04-3.28 1.96-2.19 2.88-7.95 8.71-9.06 11.43-.53 1.29 1.01-.58-.8 2.1 12.46 8.32 28.81 9.03 39.17.63-6.97-6.01-18.85-14.72-26.64-17.81zm-28.58 3.2l-2.52-3.45c.09.04.38-.01.35.09-.03.13.32.11.76.02.79-.17.39.16 1.37-.7 3.01-2.61 14.4-18.13 16.18-18.8 1.25-.47-.54.57 1.55-.4-2.02-1.47-1.61-.57-2.32-2.42-4.4-1.7-25.04-.83-31.83.35-2.07.36-.8-.1-2.57.87 3.1 4.72 13.98 21.89 19.03 24.45zm136-52.85c-2.26.96-1.17.42-2.89 2.97-1.3-2.53.08-.36-.57-1.89-.91-2.17-20.55-15.54-23.91-19.13-1.09-1.17-.68-.7-.92-1.66-.14-.54-.17-.97-.01-.93.12.03.05-.32.09-.44l-4.14 3.26c-.17.06-.27.31-.49.25-.24-.06-.38.19-.49.28-2.7 1.92-6.24 6.5-8.24 9.06-2.64 3.38-5.57 7.39-7.3 10.82 3.39 2.12 1.02.3 2.63.9 3.41 1.26 10.85 8.1 14.5 10.67 5.07 3.57.99-.39 2.57 3.96 2.33-2.76.34-.73 2.06-.83l3.31-8.56c.14.22.32.62.18.6l.01 2.1c-1.63 13.71-12.45 30.36-20.51 40.92 9.63.55 23.31-5.87 31.97-16.78 7.27-9.16 13.28-27.14 12.16-35.57zm-27.12 17.29c-1.72.1.27-1.93-2.06.83-1.58-4.35 2.5-.38-2.57-3.96-3.65-2.57-11.1-9.41-14.5-10.67-1.61-.6.76 1.22-2.63-.9-9.71 15.75-9.86 35.94.97 48.36 7.1-8.87 17.32-23.91 20.79-33.66zm-5.22-35.11l4.14-3.26c-.04.12.03.47-.09.44-.16-.04-.13.39.01.93.25.96-.17.49.92 1.66 3.36 3.59 23 16.96 23.91 19.13.64 1.53-.73-.64.57 1.89 1.72-2.55.63-2.01 2.89-2.97 1.9-5.5-.09-30.93-1.84-39.25-.54-2.54.09-.99-1.19-3.14-5.69 4.03-26.39 18.22-29.31 24.57zm-237.9 263.89c1.39 2.57.62 1.34 3.84 3.1-2.86 1.81-.44-.05-2.18.88-2.48 1.32-16.18 26.09-20.07 30.47-1.27 1.43-.76.88-1.88 1.28-.63.22-1.13.32-1.1.12.02-.15-.39-.03-.53-.06l4.32 4.56c.09.2.4.28.36.56-.05.28.27.43.38.55 2.58 2.99 8.4 6.69 11.66 8.79 4.3 2.76 9.38 5.81 13.64 7.48 2.14-4.26.25-1.24.78-3.22 1.12-4.18 8.42-13.76 11.07-18.38 3.68-6.41-.58-1.14 4.41-3.49-3.52-2.46-.9-.33-1.21-2.35l-10.52-2.99c.25-.19.7-.45.69-.28l2.49-.25c16.44.43 37.39 11.44 50.8 19.84-.41-11.48-9.52-27.01-23.42-36.09-11.67-7.63-33.66-12.78-43.54-10.52zm23.49 30.28c.31 2.02-2.32-.11 1.21 2.35-4.98 2.35-.73-2.93-4.41 3.49-2.65 4.61-9.95 14.2-11.07 18.38-.53 1.97 1.36-1.04-.78 3.22 19.75 9.8 43.73 7.76 57.27-6.45-11.31-7.45-30.27-17.93-42.22-20.98zm-41.09 10.05l-4.32-4.56c.14.04.55-.08.53.06-.03.2.48.11 1.1-.12 1.12-.4.6.15 1.88-1.28 3.89-4.38 17.59-29.15 20.07-30.47 1.74-.93-.68.94 2.18-.88-3.22-1.76-2.46-.53-3.84-3.1-6.74-1.65-36.68 3.5-46.37 6.49-2.95.91-1.18 0-3.59 1.76 5.41 6.31 24.51 29.31 32.36 32.09zm70.51 427.34c.05-2.35.1-1.18-1.45-3.69 2.72-.13.29.21 1.87.25 2.26.07 21.71-11.79 26.18-13.3 1.45-.49.88-.32 1.81-.15.53.09.92.23.82.36-.08.09.26.17.35.26l-1.21-4.91c.02-.17-.17-.35-.03-.53.14-.18-.02-.4-.05-.54-.61-3.12-3.2-8.03-4.65-10.79-1.9-3.64-4.24-7.79-6.55-10.66-3.19 2.12-.67.77-1.83 1.94-2.45 2.47-11.37 6.26-15.07 8.44-5.13 3.02-.05 1.02-4.47.68 1.48 3.13.5.59-.09 2.13l6.16 6.28c-.25.03-.67.04-.59-.08l-1.84-.82c-11.32-6.85-21.58-22.9-27.61-34.12-4.29 8.19-4.11 22.68 1.99 34.57 5.12 9.98 18.44 22.34 26.25 24.7zm-4.35-30.53c.59-1.54 1.57 1 .09-2.13 4.43.35-.65 2.34 4.47-.68 3.69-2.17 12.62-5.96 15.07-8.44 1.16-1.17-1.37.18 1.83-1.94-9.9-14.72-27.48-22.85-42.61-18.31 4.94 9.72 14.02 24.6 21.16 31.49zm32.73 9.35l1.21 4.91c-.08-.08-.42-.16-.35-.26.1-.13-.29-.26-.82-.36-.94-.17-.36-.35-1.81.15-4.47 1.51-23.92 13.37-26.18 13.3-1.58-.04.85-.38-1.87-.25 1.55 2.51 1.5 1.35 1.45 3.69 4.05 3.84 27.04 12.18 35 13.94 2.43.54.83.47 3.21.21-1.27-6.56-5.46-30.26-9.84-35.33zm-135.86-280.26c-3.13 1.19-1.62.5-4.1 3.9-1.64-3.52.12-.49-.68-2.61-1.13-3.01-27.27-22.31-31.67-27.4-1.44-1.66-.89-.99-1.18-2.32-.16-.75-.19-1.34.03-1.28.16.05.09-.44.15-.6l-5.83 4.24c-.24.08-.38.41-.69.32-.32-.09-.52.25-.68.35-3.79 2.49-8.88 8.56-11.75 11.95-3.78 4.48-8.01 9.8-10.55 14.4 4.52 3.08 1.38.47 3.55 1.37 4.58 1.9 14.4 11.64 19.26 15.35 6.74 5.14 1.37-.49 3.3 5.54 3.33-3.64.5-.97 2.85-1.03l4.98-11.52c.18.31.41.86.21.82l-.09 2.87c-2.95 18.64-18.61 40.84-30.17 54.84 13.12 1.25 32.16-6.8 44.57-21.25 10.42-12.14 19.57-36.39 18.48-47.97zm-37.97 22.2c-2.35.05.48-2.62-2.85 1.03-1.93-6.03 3.44-.39-3.3-5.54-4.86-3.7-14.67-13.45-19.26-15.35-2.17-.9.98 1.71-3.55-1.37-14.1 21.01-15.37 48.6-1.22 66.13 10.17-11.75 24.93-31.77 30.18-44.91zm-5.29-48.26l5.83-4.24c-.06.16.01.64-.15.6-.22-.06-.19.53-.03 1.28.28 1.33-.26.66 1.18 2.32 4.4 5.08 30.54 24.38 31.67 27.4.8 2.12-.96-.91.68 2.61 2.48-3.4.97-2.71 4.1-3.9 2.89-7.42 1.51-42.27-.45-53.74-.6-3.49.18-1.34-1.46-4.35-7.98 5.21-37.02 23.52-41.35 32.03zm-44.04-48.64c-2.83 1.78-1.48.82-3.24 4.64-2.31-3.12.02-.5-1.18-2.42-1.71-2.73-31.15-16.47-36.47-20.58-1.74-1.34-1.07-.79-1.61-2.04-.31-.7-.45-1.28-.22-1.26.17.01 0-.45.03-.61l-4.88 5.31c-.22.12-.28.48-.61.45-.33-.03-.47.34-.6.48-3.22 3.19-7 10.14-9.14 14.04-2.82 5.14-5.91 11.2-7.49 16.2 5.04 2.12 1.44.19 3.74.64 4.87.95 16.42 8.56 21.91 11.23 7.64 3.71 1.25-.75 4.34 4.78 2.54-4.23.3-1.05 2.6-1.57l2.59-12.28c.24.27.57.76.37.77l.48 2.84c.8 18.86-10.16 43.71-18.71 59.73 13.11-1.37 30.18-13.03 39.48-29.66 7.81-13.96 11.97-39.55 8.61-50.67zm-32.83 29.28c-2.29.52-.05-2.67-2.6 1.57-3.08-5.52 3.3-1.07-4.34-4.78-5.49-2.67-17.04-10.27-21.91-11.23-2.3-.45 1.3 1.48-3.74-.64-9.66 23.39-5.45 50.68 11.89 65.07 7.64-13.53 18.14-36.08 20.7-49.99zm-14.74-46.25l4.88-5.31c-.03.16.14.62-.03.61-.23-.02-.09.56.22 1.26.54 1.25-.13.7 1.61 2.04 5.32 4.11 34.76 17.85 36.47 20.58 1.2 1.92-1.13-.7 1.18 2.42 1.76-3.82.41-2.85 3.24-4.64 1.36-7.84-6.89-41.73-11.08-52.58-1.28-3.3-.09-1.35-2.29-3.97-6.79 6.69-31.63 30.38-34.19 39.58zm-11.33-69.08c-2.76 1.89-1.45.87-3.06 4.76-2.43-3.04 0-.5-1.27-2.38-1.81-2.67-31.76-15.26-37.23-19.16-1.79-1.27-1.1-.75-1.69-1.98-.33-.69-.5-1.26-.27-1.25.17.01-.02-.45.01-.61l-4.67 5.49c-.21.13-.27.49-.59.47-.33-.02-.45.36-.58.5-3.1 3.31-6.61 10.41-8.6 14.38-2.62 5.24-5.47 11.42-6.86 16.48 5.12 1.92 1.45.13 3.77.49 4.9.77 16.74 7.92 22.33 10.38 7.77 3.41 1.22-.8 4.52 4.61 2.38-4.32.26-1.06 2.53-1.67l2.12-12.37c.25.26.6.74.39.75l.59 2.82c1.53 18.81-8.46 44.07-16.4 60.41 13.05-1.88 29.65-14.18 38.3-31.16 7.27-14.26 10.44-39.98 6.66-50.97zm-31.68 30.52c-2.27.6-.15-2.66-2.53 1.67-3.3-5.4 3.25-1.2-4.52-4.61-5.59-2.45-17.43-9.61-22.33-10.38-2.32-.36 1.35 1.43-3.77-.49-8.75 23.74-3.49 50.86 14.4 64.56 7.11-13.82 16.74-36.75 18.75-50.75zm-16.51-45.65l4.67-5.49c-.02.16.16.62-.01.61-.23-.01-.06.56.27 1.25.59 1.23-.1.71 1.69 1.98 5.47 3.9 35.42 16.5 37.23 19.16 1.27 1.87-1.16-.66 1.27 2.38 1.61-3.89.3-2.87 3.06-4.76 1.05-7.89-8.49-41.43-13.1-52.12-1.4-3.25-.14-1.35-2.45-3.88-6.53 6.95-30.43 31.58-32.64 40.87zm-35.26-64.18c-2.33 1.82-1.23.85-2.44 4.37-2.3-2.54-.02-.44-1.25-2.02-1.75-2.25-28.85-11.68-33.9-14.82-1.64-1.02-1.01-.6-1.6-1.65-.33-.58-.51-1.08-.3-1.08.15 0-.04-.39-.03-.54l-3.81 5.1c-.18.13-.21.45-.5.45-.29.01-.38.35-.48.48-2.55 3.09-5.25 9.54-6.78 13.16-2.02 4.77-4.19 10.37-5.13 14.91 4.62 1.41 1.29.04 3.35.23 4.37.4 15.2 6.05 20.27 7.9 7.04 2.57 1.03-.77 4.24 3.81 1.85-3.95.17-.95 2.14-1.61l1.18-11.02c.23.22.57.62.39.64l.68 2.45c2.39 16.5-5.01 39.33-11.09 54.17 11.4-2.38 25.35-14.16 32.04-29.61 5.61-12.97 6.98-35.82 3.03-45.31zm-26.22 28.67c-1.97.66-.28-2.33-2.14 1.61-3.21-4.58 2.8-1.23-4.24-3.81-5.06-1.85-15.9-7.5-20.27-7.9-2.06-.19 1.27 1.18-3.35-.23-6.39 21.42-.24 45.03 16.29 56.11 5.5-12.58 12.71-33.33 13.7-45.79zm-17.1-39.32l3.81-5.1c-.02.15.17.54.03.54-.21 0-.03.5.3 1.08.59 1.05-.05.63 1.6 1.65 5.05 3.14 32.15 12.57 33.9 14.82 1.23 1.58-1.06-.52 1.25 2.02 1.2-3.52.11-2.54 2.44-4.37.49-7.02-9.8-36.05-14.45-45.21-1.42-2.79-.21-1.18-2.37-3.29-5.37 6.49-25.07 29.53-26.5 37.85zm-26.23-39.58c-2.08 1.58-1.1.74-2.2 3.82-2-2.27-.02-.39-1.08-1.8-1.51-2-25.29-10.66-29.69-13.49-1.44-.92-.88-.54-1.39-1.47-.28-.52-.44-.96-.25-.96.13 0-.03-.35-.02-.48l-3.42 4.45c-.16.11-.19.39-.44.39-.26 0-.34.3-.44.42-2.28 2.69-4.74 8.35-6.14 11.52-1.84 4.18-3.82 9.09-4.71 13.08 4.05 1.3 1.13.05 2.95.24 3.84.41 13.33 5.52 17.76 7.22 6.17 2.36.92-.67 3.69 3.41 1.68-3.45.16-.84 1.91-1.39l1.18-9.7c.2.19.49.55.33.57l.57 2.17c1.91 14.57-4.9 34.6-10.45 47.61 10.08-1.96 22.53-12.16 28.61-25.7 5.11-11.36 6.59-31.5 3.23-39.9zm-23.47 24.96c-1.74.55-.22-2.06-1.91 1.39-2.77-4.08 2.48-1.05-3.69-3.41-4.44-1.7-13.92-6.81-17.76-7.22-1.82-.19 1.1 1.06-2.95-.24-5.9 18.8-.77 39.69 13.66 49.67 5-11.02 11.62-29.23 12.65-40.19zm-14.59-34.88l3.42-4.45c-.02.13.15.48.02.48-.18 0-.03.44.25.96.5.93-.05.55 1.39 1.47 4.4 2.83 28.18 11.48 29.69 13.49 1.06 1.4-.92-.47 1.08 1.8 1.1-3.08.13-2.24 2.2-3.82.52-6.18-8.19-31.9-12.18-40.04-1.21-2.48-.16-1.04-2.05-2.93-4.81 5.65-22.46 25.73-23.83 33.04zm83.91 575.54l4.69-1.81c-1.76 4.48-.36.74-.68 8.13l20.09 18.96 4.86-1.75-2.71 5.36c1.66-.36 3.27-.7 4.24-1.23 1.47-.81.98-.71 1.86-1.3l2.05-1.28c-1.06 3.64-.91 3.15-4.31 5.6 6.71.48 26.81-10.22 32.23-16.61l3.8-4.09c-.29.09-1.03 0-.94.29l-8.05 3.67c-1.89.01-2.34-.99-2.47-2.3-.24-2.41 1.51-4.04 1.64-5.76l-12.77-12.09c-1.7.37-.62-.48-2.86 1.06-.85.58-1.76 1.61-2.51 2.35 3.61-5.36 1.08-2.33 1.29-4.96l-4.46 1.98 8.12-10.97-2.24-3.43c-10.95-10.37-14.17-10.46-13.26-16.38-5.69 5.13-8.61 10.45-13.27 11.24-6.69 8.12-13.91 18.66-14.34 25.32zm62.32 14.07c21.96-7.79 32.67-45.06 25.1-58.55-7.4 3.48-18.06 10.4-25.95 16.01-7.31 5.19-21.76 20.05-26.48 22.69l4.46-1.98c-.21 2.63 2.32-.4-1.29 4.96.75-.75 1.66-1.77 2.51-2.35 2.25-1.54 1.17-.69 2.86-1.06l12.77 12.09c-.13 1.72-1.88 3.34-1.64 5.76.13 1.31.58 2.31 2.47 2.3l8.05-3.67c-.09-.29.65-.2.94-.29l-3.8 4.09zm-32.23 16.61c3.39-2.45 3.25-1.96 4.31-5.6l-2.05 1.28c-.88.58-.4.49-1.86 1.3-.97.53-2.58.87-4.24 1.23l2.71-5.36-4.86 1.75-20.09-18.96c.32-7.4-1.08-3.66.68-8.13l-4.69 1.81c-6.62 6.23-13.4 34.55-15.86 42.5 7.66 2.41 40.84-7.45 45.95-11.82zm13.02-47.43c23.4-25.7 32.84-24.58 40.91-32.1-27.11-9.1-57.73 3.06-69.68 23.52 4.67-.79 7.59-6.11 13.27-11.24-.91 5.92 2.31 6.01 13.26 16.38l2.24 3.43zm-13.79 508.23l110.58-50.86 269.71-752.35 179.09-118.73-152.17 53.23 81.54-237.05-272.02 493.17-422.4-431.25 331.73 442.3-126.06 601.53z"/><path fill="#F7D417" d="M1940 3212.92c-1.26-4.39-2.41-8.78-3.43-13.15-4.76-20.51-8.27-48.55 8.64-64.7 13.74-13.14 33.35-11.55 50.17-6.45 25.43 7.72 55.15 53.41 69.09 75.04 15.89 24.64 30.36 49.97 44.64 75.54 13.74 24.61 27.45 49.24 40.93 73.99 13.77 25.27 27.57 50.81 40.18 76.68 7.76 15.92 15.42 33.18 24.79 48.16l11.52 18.43-20.44 7.4c-11.78 4.27-23.74 1-35.67.05-13.9-1.1-28.8-3.6-42.59-5.81-11.02-1.76-42.12-6.01-50.59-12.46-.49-.37-.98-.8-1.48-1.29l.07.24-27.38-4.31c-24.82-3.91-52.92-14.35-76.38-23.4-21.46-8.27-42.68-17.25-63.71-26.56-8.56-3.79-17-7.74-23.84-14.3-4.18-4.01-7.37-8.58-10.22-13.47l3.37 13.27-34.77-18.07c-42.25-21.95-85.68-48.6-123.45-77.61-24.41-18.74-85.33-72.69-98.44-98.4-24.06-47.18-51.87-106.57-60.51-158.84-1.21-7.3-2.08-14.63-1.89-22.04.59-22.85 12.09-40.95 36.06-44.4 12.56-1.81 24.93-.36 36.68 4.45 31.38 12.84 50.5 45.54 68.48 72.54 20.38 30.62 39.39 62.11 57.4 94.18-4.09-10.37-7.91-20.81-11.34-31.26-7.34-22.37-16.92-56.61-8.69-79.65 13.06-36.56 62.84-33.96 88.21-12.9 11.87 9.86 23.03 24.29 32.17 36.69 12.11 16.42 23.4 33.61 34.27 50.87 16.75 26.59 32.92 53.96 48.15 81.54zm292.14-13.17c31.12 10.85 62.46 21.33 94.31 29.86 60.67 16.25 122.63 31.09 185.08 38.46 149.65 17.67 280.58 99.42 375 215.15 42.43 52.01 73.07 106.15 101.35 166.53l.23.49 25.87 65.45 33.93 130.95.09.45c1.5 7.33 2.78 14.64 3.94 22.03 1.23 7.84 3.71 15.08 4.64 23.16l5.05 43.9c1.18 7.44 1.69 14.98 2.29 22.48 1.23 15.42 1.81 31.07 2.37 46.52.79 22.14 1.3 44.31 1.5 66.46.21 22.76.14 45.62-.75 68.37-.6 15.27-1.29 34.42-4.94 49.24l-8.48 34.52-22.27-27.7c-6.71-8.34-10.54-17.57-16.28-26.34-89.62-137.03-235.52-228.42-386.63-284.28-41.56-15.36-83.75-27.86-126.94-37.74-38.26-8.76-76.82-15.37-115.56-21.6-33.41-5.38-66.84-10.55-100.11-16.76-36.81-6.86-73.24-14.98-109.33-24.95-172.73-47.71-342.03-136.28-475.2-256.68-95.64-86.47-206.27-221.01-246.23-344.69-3.74-11.58-8.24-24.77-8.72-37.03-.25-6.34-.28-11.88-1.05-18.29l-.78-6.63 12.22-17.56 6.77-1.46c8.08-1.74 15.72-4.43 24.07-4.89 15.91-.87 28.74 6.54 40.83 16.09 18.05 14.26 32.78 33.27 46.19 51.81 16.33 22.56 31.74 45.61 48.65 67.8 50.95 66.84 108.75 118.14 180.17 162.67 126.63 78.95 269.81 132.23 420.03 137.07 55.52 1.79 111.23-3.17 165.52-14.97 8.14-1.77 16.3-1.9 24.31-3.49 7.82-1.56 15.68-4.45 22.81-8.01 8.81-4.4 28.03-16.7 28.66-27.94.28-5.1-5.01-9.94-8.6-12.73-13.37-10.4-35.36-17.17-51.51-21.28-24.81-6.3-49.91-9.84-75-14.66-52.72-10.14-91.74-26.09-134.9-58.89-31.56-23.98-57.27-55.69-72.5-92.41-13.47-32.48-18.57-69.02-10.66-103.56l4.53-19.79 116.03 44.85zm796.88 1004.79l43.47 66.91-68.01-43.11c-7.35-4.66-16.85-15.46-22.91-21.97-5.42-5.83-10.82-11.97-16.45-17.57-12.85-12.78-26.23-25.01-39.96-36.83-132.8-114.42-303.1-178.02-477-191.14-53.51-4.04-105.49-3.57-159.01-2.92-31.72.38-63.29.39-94.98-1.15-38.8-1.89-77.28-6.01-115.67-11.93-183.46-28.33-358.2-100.71-486.69-238.45-18.8-20.16-55.77-61.78-65.07-86.51l-24.29-64.56 52.22 45.07c12.2 10.53 22.94 22.69 34.02 34.37 14.53 15.33 29.41 29.36 45.85 42.67 32.09 25.97 65.78 48.8 101.79 68.98 151.14 84.7 302.67 107.45 473.12 112.27 45.49 1.29 91.32-3.33 136.88-3.74 16.03-.14 32.12.09 48.11 1.18 43.06 2.95 86.01 7.1 128.56 14.46 57.23 9.91 111.57 25.54 165.46 47.19 75.11 30.17 144.92 70.67 207.27 122.43 40.24 33.41 84.13 78.32 111.75 122.76 1.41 2.27 2.78 4.58 4.11 6.9 4.25 7.43 8.14 15.07 11.85 22.78 1.88 3.9 3.64 8.05 5.6 11.91z"/><path fill="#009846" d="M1462.76 3125.65l4.46-6.4c19.31-4.16 27-10.6 50.31 7.81 60.75 48 91.73 168.13 276.61 283.41 187.86 117.14 394.97 168.59 598.58 124.35 8.18-1.77 15.93-1.82 24.01-3.43 50.95-10.14 121.47-71.38-7.75-104.21-71.43-18.15-126.17-11.68-203.59-70.51-62.88-47.78-89.96-119.95-76.67-178.07l97.37 37.64c31.81 11.09 63.87 21.79 95.83 30.34 63.79 17.08 126.5 31.73 187.56 38.93 138.43 16.34 267.09 90.72 363.45 208.81 44.39 54.41 72.57 106.33 99.06 162.88l25.27 63.94 33.54 129.46c1.56 7.62 2.58 13.49 3.8 21.23 1.27 8.14 3.62 14.22 4.54 22.45l5.09 44.29c1.09 6.7 1.57 13.82 2.19 21.49 3.12 39.02 7.55 188.72-1.36 225-5.87-7.3-9.8-16.58-15.26-24.94-91.94-140.58-240.98-234.12-395.24-291.14-172.72-63.85-287.68-55.75-453.35-101.51-162.66-44.93-332.14-129.87-468.09-252.78-92.76-83.86-202.41-216.71-241.3-337.06-11.56-35.78-6.09-27.07-9.04-51.98zm1551.13 1087.84c-6.54-4.15-28.19-29.02-36.38-37.17-13.12-13.05-26.77-25.53-40.87-37.69-136.98-118.02-311.42-182.09-487.15-195.35-140.61-10.61-211.02 8.44-368.3-15.85-177.86-27.46-349.91-97.35-476.53-233.07-17.65-18.93-53.86-60.47-61.47-80.71 22.27 19.22 38.3 43.4 80.3 77.39 33.27 26.92 66.92 49.73 104.26 70.65 156.08 87.47 311.05 109.69 481.21 114.51 43.56 1.23 91.91-3.32 137.53-3.73 14.78-.13 31.05.06 46.75 1.14 102.5 7.04 187.05 19.61 288.68 60.43 72.41 29.09 140.57 68.16 202.6 119.65 38.51 31.96 82.13 76.8 108.04 118.51 10.96 17.64 20.22 39.55 21.34 41.28zm-962.69-750.57c-35.23-5.55-99.59-32.69-135.71-48.67-24.69-10.93-21.52-12.64-42.8-52.63-34.96-65.7-137.22-247.82-118.94-299 8.4-23.51 43.85-19.06 60.43-5.3 32.85 27.28 94.91 135.51 114.99 172.37 21.34 39.18 42.65 76.41 62.75 116.02 6.85 13.48 55.89 105.62 59.28 117.2zm-200.19-80.76c-39.75-20.65-85.09-48.5-120.85-75.95-22.72-17.44-82.65-71.19-93.49-92.45-22.43-43.97-50.72-104.63-58.83-153.73-2.5-15.11-5.76-42.58 19.34-46.19 42.29-6.09 66.8 37.45 88.04 69.34 21.66 32.54 41.43 65.59 59.89 98.75 11.26 20.22 100.98 180.8 105.91 200.23zm349.12 105.17c-7.08 2.56-18.6-.17-28.29-.95-13.6-1.08-78.67-10.72-83.94-14.73-4.58-3.49-49.14-86.65-55.58-98.91-20.77-39.53-144.39-258.39-42.04-227.33 29.94 9.09 88.88 116.16 103.5 142.34 22.69 40.62 60.53 108.51 80.66 149.8 7.74 15.87 17.04 35.95 25.69 49.78z"/><path fill="#F7D117" d="M4249.07 3473.88c-.5.49-1 .93-1.49 1.3-8.47 6.44-39.56 10.69-50.59 12.45-13.79 2.2-28.69 4.7-42.59 5.81-11.93.95-23.88 4.22-35.66-.05l-20.44-7.4 11.52-18.44c9.37-14.98 17.03-32.24 24.79-48.16 12.61-25.87 26.41-51.41 40.18-76.68 13.48-24.75 27.18-49.38 40.93-73.99 14.29-25.57 28.76-50.9 44.64-75.54 13.95-21.63 43.67-67.32 69.09-75.04 16.82-5.11 36.42-6.69 50.17 6.45 16.9 16.15 13.4 44.19 8.64 64.7-1.01 4.37-2.16 8.76-3.43 13.15 15.23-27.57 31.4-54.94 48.15-81.54 10.87-17.26 22.16-34.45 34.27-50.87 9.14-12.4 20.3-26.83 32.17-36.69 25.36-21.06 75.14-23.66 88.2 12.9 8.23 23.04-1.36 57.28-8.69 79.65-3.43 10.45-7.24 20.89-11.34 31.26 18.01-32.07 37.02-63.56 57.4-94.18 6.28-9.42 12.31-18.98 18.91-28.18 20.87-29.12 47.56-54.38 86.25-48.81 11.9 1.71 22.18 7.45 28.74 17.7 9.24 14.43 8.1 32.61 5.43 48.75-8.64 52.27-36.45 111.67-60.51 158.84-13.11 25.71-74.03 79.66-98.44 98.4-37.78 29-81.2 55.65-123.45 77.61l-34.77 18.07 3.37-13.27c-2.86 4.89-6.05 9.46-10.22 13.47-6.84 6.56-15.28 10.51-23.84 14.3-21.03 9.31-42.25 18.28-63.71 26.56-23.46 9.05-51.57 19.49-76.38 23.4l-27.39 4.31.07-.24zm-985.86 451.83l5.05-43.9c.93-8.08 3.42-15.32 4.64-23.16 1.16-7.38 2.45-14.7 3.94-22.03l.09-.45 33.93-130.95 25.87-65.45.23-.49c28.28-60.38 58.92-114.52 101.35-166.53 94.43-115.73 225.36-197.49 375-215.15 62.45-7.37 124.41-22.21 185.08-38.46 31.85-8.53 63.19-19.01 94.32-29.86l116.03-44.85 4.53 19.79c7.9 34.53 2.8 71.08-10.67 103.56-15.22 36.72-40.94 68.43-72.5 92.41-43.16 32.8-82.18 48.75-134.9 58.89-25.09 4.82-50.18 8.36-74.99 14.66-16.15 4.1-38.15 10.87-51.52 21.28-3.59 2.79-8.88 7.64-8.59 12.73.63 11.23 19.84 23.54 28.66 27.94 7.12 3.56 14.99 6.45 22.81 8.01 8.01 1.59 16.17 1.72 24.31 3.49 54.3 11.8 110 16.76 165.53 14.97 150.22-4.84 293.4-58.11 420.02-137.07 71.42-44.53 129.23-95.83 180.17-162.67 16.91-22.19 32.32-45.23 48.65-67.8 13.41-18.54 28.14-37.54 46.19-51.8 12.08-9.55 24.92-16.97 40.83-16.09 8.35.46 15.99 3.15 24.07 4.89l6.77 1.46 12.22 17.56-.78 6.63c-.76 6.41-.8 11.94-1.05 18.29-.48 12.26-4.98 25.45-8.72 37.03-39.97 123.68-150.59 258.22-246.23 344.69-133.17 120.4-302.47 208.97-475.2 256.68-36.09 9.97-72.52 18.09-109.33 24.95-33.27 6.21-66.7 11.38-100.11 16.76-38.73 6.23-77.3 12.84-115.56 21.6-43.19 9.89-85.38 22.38-126.94 37.74-151.11 55.86-297.02 147.25-386.63 284.28-5.74 8.77-9.57 17.99-16.28 26.34l-22.27 27.7-8.48-34.52c-3.64-14.81-4.34-33.96-4.94-49.24-.89-22.75-.95-45.61-.75-68.37.2-22.15.7-44.32 1.5-66.46.56-15.46 1.14-31.11 2.38-46.52.6-7.5 1.11-15.04 2.29-22.48zm32.61 268.36c1.96-3.85 3.72-8 5.6-11.91 3.7-7.71 7.6-15.36 11.85-22.78 1.33-2.32 2.7-4.63 4.11-6.9 27.61-44.44 71.51-89.35 111.75-122.76 62.35-51.76 132.16-92.26 207.27-122.43 53.89-21.65 108.23-37.29 165.46-47.19 42.55-7.36 85.5-11.5 128.56-14.46 15.99-1.1 32.08-1.33 48.11-1.18 45.56.41 91.38 5.03 136.88 3.74 170.45-4.83 321.98-27.57 473.12-112.27 36.01-20.18 69.7-43.01 101.79-68.98 16.44-13.3 31.32-27.34 45.85-42.67 11.08-11.68 21.82-23.84 34.02-34.37l52.22-45.07-24.29 64.56c-9.31 24.73-46.27 66.35-65.07 86.51-128.49 137.74-303.24 210.12-486.69 238.45-38.39 5.93-76.86 10.04-115.66 11.93-31.69 1.55-63.27 1.53-94.98 1.15-53.52-.65-105.5-1.12-159.01 2.92-173.9 13.12-344.2 76.72-477 191.14-13.72 11.83-27.11 24.06-39.96 36.83-5.63 5.6-11.03 11.74-16.45 17.57-6.06 6.51-15.56 17.31-22.91 21.97l-68.01 43.11 43.46-66.91z"/><path fill="#009846" d="M4862.09 3115.18l-4.46-6.4c-19.31-4.16-27-10.6-50.31 7.81-60.75 48-91.73 168.13-276.6 283.41-187.87 117.14-394.97 168.59-598.58 124.36-8.18-1.78-15.93-1.83-24.01-3.44-50.95-10.14-121.47-71.38 7.75-104.21 71.43-18.15 126.17-11.68 203.59-70.51 62.88-47.78 89.96-119.95 76.67-178.07l-97.37 37.64c-31.81 11.09-63.87 21.79-95.83 30.35-63.79 17.08-126.5 31.72-187.56 38.93-138.43 16.34-267.09 90.72-363.45 208.81-44.39 54.41-72.57 106.33-99.06 162.88l-25.27 63.94-33.54 129.46c-1.55 7.61-2.58 13.49-3.8 21.23-1.27 8.14-3.62 14.22-4.54 22.45l-5.09 44.29c-1.09 6.7-1.57 13.82-2.18 21.49-3.12 39.02-7.56 188.72 1.36 225 5.87-7.3 9.8-16.58 15.26-24.94 91.94-140.58 240.98-234.12 395.24-291.14 172.72-63.85 287.68-55.75 453.35-101.51 162.66-44.93 332.14-129.87 468.09-252.78 92.76-83.86 202.41-216.72 241.3-337.06 11.56-35.78 6.09-27.07 9.04-51.98zM3310.96 4203.02c6.53-4.14 28.18-29.01 36.38-37.17 13.12-13.05 26.77-25.53 40.87-37.69 136.98-118.01 311.42-182.09 487.15-195.35 140.61-10.61 211.02 8.44 368.3-15.85 177.86-27.46 349.91-97.35 476.53-233.07 17.65-18.93 53.86-60.47 61.47-80.71-22.27 19.22-38.29 43.4-80.3 77.39-33.27 26.92-66.92 49.72-104.26 70.65-156.08 87.47-311.05 109.69-481.21 114.51-43.56 1.23-91.9-3.32-137.53-3.73-14.78-.13-31.05.06-46.75 1.14-102.5 7.04-187.05 19.61-288.68 60.43-72.41 29.09-140.57 68.16-202.6 119.65-38.51 31.97-82.13 76.8-108.04 118.51-10.96 17.64-20.22 39.55-21.34 41.28zm962.69-750.57c35.23-5.55 99.59-32.68 135.71-48.67 24.69-10.93 21.52-12.64 42.8-52.63 34.96-65.7 137.22-247.82 118.94-299-8.4-23.51-43.85-19.06-60.43-5.3-32.85 27.28-94.91 135.51-114.99 172.37-21.34 39.18-42.64 76.41-62.75 116.02-6.84 13.48-55.89 105.62-59.28 117.2zm200.19-80.75c39.75-20.66 85.09-48.5 120.85-75.96 22.72-17.44 82.65-71.19 93.49-92.45 22.43-43.97 50.72-104.64 58.83-153.73 2.5-15.11 5.76-42.58-19.34-46.19-42.29-6.09-66.8 37.44-88.03 69.34-21.66 32.53-41.43 65.59-59.89 98.74-11.26 20.22-100.98 180.8-105.91 200.24zm-349.12 105.17c7.08 2.56 18.6-.17 28.29-.95 13.6-1.08 78.66-10.72 83.93-14.73 4.58-3.49 49.14-86.65 55.58-98.91 20.77-39.53 144.39-258.39 42.04-227.33-29.94 9.09-88.88 116.16-103.5 142.34-22.69 40.62-60.53 108.51-80.66 149.8-7.74 15.87-17.04 35.95-25.69 49.78z"/><path fill="#2A2925" d="M2763.17 2369.91c-7.43 5.62-15.38 9.73-23.79 11.54l-12.17 2.62-9.68-7.84c-22.4-18.15-47-32.89-73.32-44.61-108.09-48.14-247.14-45.64-363.82-50.85-79.81-3.56-160.86-9.83-237.91-32.19-27.22-7.9-53.32-18.92-78.27-32.32-47.14-25.33-89.43-58.65-129.28-94.14-43.79-39-84.8-81.08-128.86-119.72-36.75-32.23-78.48-64.5-124.72-81.65-29.59-10.98-59.34-20.78-89.51-30-22.76-6.96-45.7-13.63-68.05-21.83-48.3-17.73-88.61-42.43-130.21-72.46-46.41-33.5-89.16-74.84-128.65-116.15-44.52-46.57-86.76-95.47-128.69-144.36-58.72-68.47-117.5-139.2-181.45-202.81-36.08-35.9-90-85.76-140.76-105.55-2.07 2.21-3.93 4.46-5.27 6.62-4.86 7.81-8.9 15.12-14.31 22.79l-9.74 13.82-16.58-3.29c-31.22-6.18-46.49-12.84-69.61-13.15 2 3.41 4.05 6.69 6.01 9.74 11.33 17.64 23.98 34.53 35.66 51.98 32.4 48.43 55.02 96.38 60.18 155.31l2.45 28-103.74 1.04c16.42 22.76 38.04 42.55 57.74 61.35 13.46 12.84 28.78 24.8 43.08 36.77 16.32 13.66 35.51 29.57 48.71 46.22l29.69 37.45-98.78 9.56c29.31 24.16 74.26 44.74 98.52 54.67 31.19 12.76 63.98 23.6 96.7 31.69l19.83 4.9-.22 86.64c8.83 2.65 17.7 5.3 25.86 8.65 13.5 5.54 24.74 13.74 36.01 22.88l17.94 14.53-12.29 19.54c-5.58 8.87-11.65 17-18.61 24.83-2.55 2.86-6.38 6.57-8.46 9.72-1.34 2.02-1.94 6.85-2.18 11.86 33.21 18.04 85.94 26.38 119.74 35.89l30.31 8.53-14.09 28.16c-5.66 11.31-11.78 24.29-20.86 33.28-3.48 3.45-7.41 6.46-11.05 9.75-4.59 4.15-8.99 8.62-13.23 13.19 3.9 2.89 7.98 5.55 12.23 8.01 21.93 12.67 47.67 19.69 72.17 25.43 36.52 8.54 75.31 14.86 109.42 30.97l34.93 16.49-28.41 26.17c-17.41 16.04-34.5 24.99-54.85 36.14-5.4 2.96-10.41 5.88-15.15 9.07 25.61 17.74 67.44 36.44 85.68 44.36 63.79 27.72 130.68 51.16 196.59 73.36 55.27 18.62 110.84 36.33 166.46 53.87 42.09 13.27 84.46 26.24 126.25 40.4 4.65 1.58 9.75 3.09 14.27 5 4.5 1.91 8.97 4.07 13.49 6.01 1.28.55 2.35 1.12 3.33 1.7 6.16 1.13 11.53 4.65 17.01 9.01l84.12 50.39-99.16-2.64c-151.38-4.04-314.67-58.92-455.17-112.19-64.7-24.53-129.69-48.05-194.28-72.99-41.72-16.11-83.53-32.49-124.66-50.06-18.34-7.84-60.69-25.1-74.63-38.66l-25.3-24.63 31.01-16.87c11.73-6.38 22.32-11 33.89-14.73-14.5-2.72-28.99-5.48-43.45-8.39-25.46-5.11-51.06-10.58-76.13-17.37-18.78-5.08-41.67-11.8-58.43-21.75-9.63-5.71-20.74-10.96-26.3-21.17-2.14-3.94-2.62-7.06-5-11l-16.91-28.09 75.98-24.57c-70.65-10.44-148.18-24.03-181.07-56.65l-21.99-21.82 25.29-17.9c27.61-19.53 76.42-28.3 109.54-34.29 4.6-.83 9.21-1.64 13.82-2.45-3.56-.44-7.19-.87-10.93-1.37-94.78-12.51-242.06-15.35-285.55-117.8l-15.7-36.98 209.04 4.17c-2.55-1.11-4.74-2.07-6.47-2.83-59.94-26.38-119.99-51.97-178.54-81.42-89.59-45.07-244.64-130.41-246.28-246.14l-.39-28 27.95 1.66c45.31 2.69 88.26 23.73 127.49 45.06 25.63 13.95 64.34 38.05 99.55 48.98-7.19-5.76-14.46-11.42-21.73-17.04-22.25-17.16-45.13-33.81-66.98-51.45-12.41-10.02-24.64-20.25-36.71-30.68-78.24-67.63-152.84-146.05-213.57-229.87-42.73-58.98-93.69-141.91-103.65-215.27L.05 787.62l180.23 253.42c50.83 50.62 103.17 100.28 157.48 147.14 17.23 14.86 34.81 29.6 52.75 43.86-128.32-152.7-292.42-365.77-300.59-487.53l-.03-.47-11.01-357.38 50.31-3.15 2.38 25.09c1.58 16.68 8.9 38.03 14.47 53.79 10.35 29.3 22.67 58.25 35.45 86.57 33.54 74.32 72.11 147.61 112.96 218.15C336.08 839 382.36 912.59 434.2 977.57c9.68 12.13 27.05 33.14 46.2 52.39-.51-1.01-1.02-2.02-1.52-3.02-17.13-33.97-35.7-67.28-53.66-100.82-24.29-45.37-50.23-94.34-66.5-143.2-45.34-136.13-57.86-323.9-11.94-461.32l65.8-228.62 16.29 123.71c25.64 194.77 72.4 380.49 145.79 562.91 6.02 14.96 12.69 29.64 19.58 44.22-.8-12.15-1.6-24.29-2.35-36.44-3.21-52.46-5.58-105.05-5.65-157.62-.08-70.23 2.62-202.71 47.81-259.51l39.78-50.01 6.47 63.57c16.06 157.97 61.18 309.74 127.37 453.86l.29.63.25.65c130.12 328.36 324.13 596.04 597.51 819.94 74.11 60.69 151.49 117.24 232.51 168.38 164.21 103.65 338.5 181.57 524.67 236.64 217.1 64.22 443.01 95.83 668.67 108.63l34.7 1.97-11.67 32.74c-10.3 28.88-22.45 58.1-36.18 85.5-7.29 14.56-17.38 33.65-29.87 50.47 11.61-11.43 23.48-22.59 34.8-34.44 22.85-23.94 45.12-48.78 68.44-72.22 16.83-16.91 34.39-32.83 55.33-44.53 41.36-23.13 95.99-27.41 142.38-31.34 417.77-35.42 793.81-174.69 1136.34-413.89 74.96-52.35 146.04-109.5 212.86-171.92 110.95-103.63 207.37-219.32 296.07-342.3 59.46-82.44 109.67-174.31 152.2-266.52 35.9-77.83 67.34-158.38 93.29-240.08 9.35-29.42 19.06-58.7 28.03-88.25 5.53-18.2 10.85-36.53 15.48-54.99 3.41-13.58 6.89-28.28 8.33-42.22l29.26-282.47 92.17 215.56.29.83c7.21 20.59 12.57 41.77 16.31 63.26 11.67 66.96 7.57 135.7-.64 202.8-3.14 25.64-6.98 51.28-10.83 76.92 29.79-68.94 49.69-146.87 67.46-211.89 16.14-59.05 33.57-117.74 50.68-176.51 8.88-30.48 13.45-67.89 16.44-99.49 2.52-26.73 4.27-55.11 2.87-81.93l-4.12-78.81 103.31 125.42 47.83 106.99.43 1.34c39.2 121.28-6.37 265.73-53.47 378.61-25.51 61.11-54.82 120.44-84.33 179.69-4.37 8.78-8.83 17.64-13.31 26.57 43.33-50.85 85.89-110.95 109.06-144.39 27.18-39.22 52.4-80.65 77.63-121.17 24.16-38.81 48.25-78.1 73.9-115.93 8.91-13.14 18.33-26.8 28.61-38.9 11.35-13.36 26.97-27.2 46.01-18.3 12.24 5.72 17.23 17.82 16.96 30.57-3.08 142.01-41.31 274.4-109.89 398.23l-.75 1.36-189.59 262.77c49.19-36.96 99.24-81.76 125.49-107.07 53.43-51.51 104.33-105.23 151.77-162.32 14.18-17.07 27.96-34.4 41.79-51.76 9.19-11.53 18.67-23.71 28.94-34.29l38.23-39.37 6.28 54.52c9.35 81.13-1.94 157.95-38.11 231.41-43.44 88.21-116.53 159.07-191.31 221.1-72.9 60.47-150.28 115.28-223.83 175.02 14.01-3.58 27.82-8.64 41.73-15.41 29.75-14.47 56.02-34.67 85.25-50.02 31.66-16.63 63.13-25.03 99.09-23.96l25.33.75-.09 25.34c-.37 112.71-122.51 203.53-207.82 258.49-62.73 40.4-127.98 74.36-192.74 111.04-1.33.75-2.65 1.49-3.98 2.22l135.55 6.07-4.8 28.94c-1.57 9.47-4.71 18.51-9.37 26.91-29.52 53.24-116.63 69.24-170.69 85.72-29.98 9.14-61.14 15.72-91.58 23.31l-1.68.42c34.08.56 69.21-.21 99.24 18.37l27.57 17.05-22.62 23.22c-47.96 49.25-124.74 60.67-189.76 69.79-16.64 2.33-36.01 4.71-55.83 8 27.42 4.38 55.35 10.29 79.33 20.68l40.49 17.55-34.96 26.93c-24.12 18.58-58.12 26.68-87.65 31.58-34.73 5.76-70.26 8.28-105.28 11.8-33.85 3.39-84.16 8.48-121.42 23.71 8.61 4 18.17 6.58 28.06 9.81 22.6 7.37 45.76 14.15 67.93 22.66l30.15 11.58-17.73 26.99c-34.71 52.86-233.78 140.48-297.96 163.92-130.64 47.72-255.49 57.95-393.92 56.36l-80.76-.92 66.12-46.39c3.65-2.56 7.75-4.97 11.72-6.99l.41-.21 27.37-13.31 1.02-.39c12.32-4.76 26.38-7.82 39.17-11.45 88.34-25.04 170.7-58.46 249.01-106.55 24.33-14.94 47.61-31.03 71.33-46.86 12.69-8.46 25.93-17.13 39.69-24.37l-16.32-96.53 28.77-1.88c25.42-1.66 54.55-4.19 79.16-11.06 4.11-1.15 16.55-5.11 20.87-8.8-1.21-4.4-6.63-12.89-8.48-15.74-5.32-8.25-11.03-16.38-15.18-25.31l-11.98-25.82 26.79-9.62c20.79-7.47 41.89-13.74 62.73-20.95 24-8.31 44.88-17.87 65.95-30.31-1.24-4.45-2.74-8.83-4.54-13.32-4.25-10.57-8.49-19.81-5.88-31.66 4.71-21.47 29.56-30.78 47.37-39.22 31.77-15.05 62.96-30.4 94-46.54l-31.34-38.46 26.09-15.38c72.14-42.52 145.71-83.59 217.06-127.64-14.82-3.94-30.39-6.22-43.48-8.71l-37.57-7.17 20.46-32.31c14.91-23.53 34.04-41.44 55.37-58.95 16.04-13.17 34.08-26.44 47.56-42.26 13.05-15.32 19.48-31.43 21.52-49.19l-162.95 34.84 27.89-50.09c4.27-7.67 8.91-15.11 13.81-22.39 37.94-56.41 86.09-96.84 89.42-165.79-66.39-1.62-129.9 11.09-190.69 40.02-56.66 26.96-104.93 64.82-151.49 106.34-45.9 40.92-91.51 81.57-132.16 127.88-19.39 22.09-39.27 45.95-54.8 70.98-8.42 13.57-14.38 26.64-21.03 41.03-6.31 13.68-13.03 25.96-21.69 38.34-15.17 21.67-43.67 39.55-66.39 52.42-33.71 19.11-69.84 35.57-105.2 51.38-91.29 40.81-183.4 78.7-272.88 123.61-80.35 40.32-165.8 88.91-232.41 149.76-23.27 21.26-46.32 43.31-70.25 63.78-16.67 14.26-33.84 27.44-53.73 36.94-30.04 14.35-64.61 19.1-97.33 23.25-25.87 3.28-51.83 6.07-77.74 9.09-37.72 4.38-75.38 9.07-113.01 14.2-19.32 2.63-38.66 5.12-58 7.57-123.65 15.65-261 29.8-376.36 78.83-31.33 13.31-57.67 27.27-83.41 49.66-21.86 19.01-41.84 39.44-64.28 58.15-31.57 26.32-65.68 50.34-100.07 72.82-38.81 25.37-78.79 49.12-119.35 71.57-18.67 10.33-37.6 20.5-56.74 30.4 12.89-1.96 25.81-3.68 38.74-5.19 16.82-1.97 34.5-3.94 51.44-4.5l57.23-1.89-36.22 44.35c-4.54 5.57-9.28 11.97-14.45 16.94-6.11 5.87-14.3 11.57-20.97 16.95-3.87 3.12-7.75 6.22-11.66 9.29 4.94 4.63 10.57 7.29 13.83 17.81 5.04 16.23-4.59 28.29-14.36 39.65-5.71 6.64-11.47 13.23-17.24 19.81 7.47 2.26 14.82 3.8 21.22 3.82 7.82.02 16.26-1.53 23.96-2.8 15.4-2.56 30.62-4.94 46.14-6.69 18.43-2.09 35.58-1.29 53.76 2.26 24.27 4.74 46.72 12.33 71.59 15.95 32.13 4.68 63.98 7.15 96.44 7.33 25.64.14 51.19-1.2 76.81-1.52 14.55-.18 29.07.03 43.6.98l2.86.19 176.69 51.62-116.1 17.76c-32.92 5.03-71.49 4.69-104.83 4.56-47.96-.18-96-1.66-143.93-3.24-40.28-1.34-80.55-2.85-120.83-4.08-31.72-.97-63.66-1.94-95.39-1.65-61.34.57-122.63.86-183.92 3.8-42.1 2.02-84.48 5.17-126.23 11.09-34.34 4.88-70.7 11.82-103.28 23.93l-9.45 3.51-9.34-3.76c-7.16-2.89-15-6.13-21.6-10.16-4.34-2.65-8.1-6.02-10.91-9.93-1.47.54-2.95 1.07-4.46 1.58-9.03 3.04-13.62 5.91-21.11 11.43-11.07 8.16-20.64 13.17-33.9 17.28l-27.38 8.48-5.79-28.07c-9.84-47.7-8.13-96.7 28.67-132.64 11.22-10.95 23.78-18.93 37.08-27.01 6.45-3.93 16.61-9.68 21.57-15.37 1.09-1.25 2.15-2.78 3.11-4.14 10.07-14.31 11.96-24.8 18.61-39.99 10.74-24.53 30.01-38.29 52.91-50.78 19.25-10.5 39.99-19.34 60.29-27.55 32.64-13.21 65.92-25.21 99.15-36.87 142.54-50.01 274.88-104.15 370.15-226.92l.28-.36.29-.35c1.15-1.37 2.3-2.73 3.47-4.08zm27.77 834.72h-79.47l12.3-10.65-10.75-89.79c-33.1 22.05-71.68 41.35-104.75 54.07-40.43 15.56-87.5 27.34-131.04 22.47l-26.83-3.01 4-26.7c4.94-32.94 16.84-63.36 36.83-90.09 52.21-69.82 147.22-97.73 229.3-111.79 51.22-8.77 103.52-13.2 155.38-15.97 55.44-2.97 111.01-3.98 166.52-4.81 90.45-1.35 182.31-1.51 272.4-9.87 63.2-5.86 143.71-17.29 199.52-49.14 6.37-3.63 44.97-24.89 48.26-30.79.71-1.95.28-9.08.16-11.15-.68-12.56-1.73-24.9-2.04-37.5l-.52-21.26 20.73-4.74c75.63-17.31 45.01-22.66 83.81-77.93l6.88-9.81 11.93-1.14c62.62-6.01 125.98-7.5 188.86-6.8 67.45.74 134.92 4.11 202.2 8.83 116.83 8.2 233.22 20.71 349.64 33.21l20.13 2.16 2.86 20.04c12.59 88.38-36.35 149.98-121.53 168.97-35.21 7.85-70.74 9.68-105.53-1.15-24.25-7.54-42.6-19.56-64.41-31.53-2.75-1.51-5.5-2.96-8.27-4.33-6.56 57.96-24.14 132.56-82.47 145.37-35.23 7.74-71.78-10.46-101.86-26.89-12.63-6.89-33.66-19.73-50.76-26.39-8.68 11.98-15.36 24.65-21.81 38.6-8.47 18.31-16.04 36.94-28.98 52.72-21.32 26-50.53 35.77-83.11 38.81l-11.69 1.09-8.55-8.05c-19.64-18.48-28.02-30.27-35.44-47.09-7.37 6.26-12.77 13.99-19.1 25.61-14.01 25.71-25.84 41.35-51.9 56.6-30.61 17.91-64.54 28.05-97.88 10.75-14.48-7.51-25.7-18.51-37.04-29.96-3.42-3.45-6.97-7.1-10.7-10.59l-38.06 39.74c-35.45 37.01-67.16 42.95-117.83 37.75l-14.9-1.53-28.83-63.92c-7.67 10.32-14.97 20.92-22.67 31.21-18.85 25.22-41.37 51.05-71.99 61.7-28.76 10-57.21 3.97-83.09-10.82l-2.21-1.26-1.92-1.67c-2.27-1.96-4.36-4.12-6.27-6.43-17.61-21.36-16.11-51.97-12.96-77.85-4.38 4.16-8.31 9.03-12.05 13.71-6.22 7.79-12.27 15.57-18.85 23.06-12.33 14.04-24.79 25.32-39.64 36.56-13.9 10.52-26.55 19.96-39.22 32.15l-7.56 7.27h-197.21z"/><path fill="#FDC50D" d="M2779.68 2390.66c-96.94 124.93-227.74 181.36-382.1 235.52-241.53 84.74-176.39 86.07-218.29 145.61-1.33 1.9-3.23 4.49-4.77 6.25-27.31 31.34-105.77 34.85-81.45 152.67 27.54-8.53 25.8-18.89 54.4-28.52 22.83-7.68 10.08-6.92 27.08-1.34 32.27 10.61-20.11 1.03 27.9 20.37 106.83-39.72 293.24-39.26 422.25-40.46 111.63-1.03 381.31 16.94 461.29 4.71l-61.21-17.88c-65.7-4.29-117.46 7.76-218.9-7.01-52.09-7.57-73.89-23.16-118.68-18.11-75.29 8.53-68.76 20.31-138.09-9.3 72.03-84.9 51.6-48.81 33.6-82.36-8.65-16.14-28.54 6.53 23.33-35.32 23.43-18.9 15.85-10.81 31.61-30.1-35.08 1.16-219.55 20.32-245.13 64.8-1.01 1.75-2.29 10.77-9.3 23.27-28.4 50.68-105.68 31.3-151.09 12.28l18.1-9.34c52.8-22.93 46.53-13.7 77.75.1 1.66-2.58 2.63-10.13 3.26-8.49 2.66 6.83-9.46-27.83 57.04-54.47 132.72-53.13 316.07-154.4 417.83-239.24 60.97-50.83 69.15-75.64 154.18-111.77 130.33-55.4 287.8-67.35 441.03-88.23 306.97-41.83 252.32-7.59 398.01-140.68 202.42-184.93 615-289.82 673.11-372.87 31.34-44.77 16.8-58.64 99.29-152.6 42.99-48.97 89.68-90.26 134.4-130.14 88.3-78.73 203.72-165.12 384.94-151.73 9.23 105.49-65.9 153.73-105.94 225.63l138.13-29.53c11.27 114.38-81.97 123.32-128.28 196.44 37.51 7.16 67.9 11.2 92.24 31.25-76.13 48.99-176.67 105.45-257.48 153.08l32.26 39.59c-204.57 109.99-154.15 51.74-142.01 135.1-58.97 38.35-93.47 43.26-149.03 63.22 16.36 35.26 85.44 85.86-98.29 97.84l14.83 87.68c-66.72 26.05-142.98 119.84-381.9 187.57-9.75 2.76-28.71 7.52-36.88 10.68l-26.39 12.84c-2.22 1.13-5.86 3.2-8.57 5.1 147.5 1.69 262.67-10.22 384.7-54.79 62.23-22.72 256.16-109.63 285.14-153.76-18.52-7.11-43.66-14.71-66.66-22.21-30.86-10.05-48.77-15.57-64.47-39 80-63.83 276.84-32.3 342.95-83.24-47.38-20.54-121.22-22.9-180.01-35.49 88.12-57.2 260.74-25.7 337.98-105-26.41-16.34-60.26-13.53-97.73-14.76l-68.89-6.87c-33.02-9.8-15.88-5.62-23.64-10.33 48.08-26.74 134.98-40.27 190.38-57.15 68.72-20.94 152.68-35.94 161.98-92l-171.24-7.68c19.86-31.64 20.4-27.04 57.31-47.94 130.4-73.84 386.87-197.41 387.37-346.96-114.71-3.41-141.11 102.72-297.31 95.97 1.68-2.54 4.69-9.1 5.73-7.21 1.01 1.85 4.39-5.47 5.82-6.92 10.42-10.6 2.71-4.28 18.39-17.45 230.06-193.48 504-325.93 469.48-625.56-29.18 30.05-81.46 112.44-223.1 248.98-41.31 39.83-168.57 153.05-235.94 171.92L5511.97 965c65.55-118.36 103.59-246.23 106.64-386.19 1.06-48.65-128.54 182.2-195.7 279.12-46.3 66.83-143.96 202.08-207.49 235.35 59.82-157.91 272.42-469.14 203.4-682.65L5373 308.13l-50.9-61.79c2.9 55.65-7.86 147.31-20.31 190.05-15.4 52.89-34.52 117.42-50.56 176.1-32.15 117.66-65.5 244.47-134.08 326.17 11.52-144.46 63.05-310.01 12.13-455.53l-52.37-122.47-18.92 182.64c-4.98 45.7-36.8 139.89-52.93 190.65-55.51 174.72-144.73 369.11-249.19 513.93-155.01 214.93-310.87 377.67-515.14 520.33-332.06 231.89-708.71 381.15-1149.04 418.49-144.67 12.27-140.51 25.91-249.53 140.13-24.74 25.92-42.72 40.2-62.44 63.84zM38.77 887.08l12.52 99.16c16.22 119.34 165.6 314.66 344.49 459.07 36.61 29.56 113.83 83.58 138.31 113.9-87.29 35.99-189.84-87.03-294.52-93.23 2.55 179.9 463.28 304.93 512.74 358.92l-276.85-5.52c36.54 86.08 166.84 89.22 265 102.17 16.8 2.21 29.12 2.77 48.23 8.48l46.32 26.12c-45.57 17.28-155.97 22.68-195.34 50.54 42.91 42.56 198.17 48.55 271.94 67.16l-145.98 47.2c9.91 16.46-1.81 8.92 22.28 23.22 43.96 26.09 203.48 48.59 253.14 60.68-11 9.4-5.46 6.86-23.38 15.43-38.48 18.36-47.45 10.13-86.47 31.36 25.86 25.17 351.99 143.66 384.66 156.03 125.5 47.59 295.6 106.48 446.63 110.51-2.63-1.57-6.73-6.63-8.14-4.35-1.4 2.25-6.19-3.35-8.16-4.2-18.98-8.18-7.6-4.1-25.8-10.27-135.13-45.79-551.41-163.44-605.51-237.06 28.7-32.36 59.09-34.3 91.26-63.92-65.98-31.17-162.97-23.91-218.31-85.24l10.21-13.43c35.97-40.33 28.14-18.9 47.27-57.13-41.14-11.58-102.9-20.55-138.77-46.63-1.1-49.41 9.38-36.54 33.31-74.57-28.76-23.31-32.26-18.95-71.56-32.72l.22-85.3c-86.1-21.28-214.82-73.26-238.79-132.94l98.51-9.54c-18.76-23.67-66.37-58.41-89.35-80.33-28.38-27.08-66.3-60.89-83.29-105.75l118.88-1.2c-10.43-119.19-100.82-181.83-113.3-241.85 53.58-9.42 66.82 1.21 112.04 10.17 16.86-23.93 8.98-20.9 34.24-44.06 171.25 47.97 400.52 432.42 601.39 577.41 112.44 81.15 143.19 69.68 281.6 121 156.21 57.94 268.29 271.82 459.33 327.25 228.34 66.26 504.9-12.84 684.18 132.43 39.5-8.49 84.22-124.02 96.12-157.42-641.5-36.39-1066.11-212.58-1440.86-519.5-277.47-227.24-473.24-497.44-605.22-830.49-68.61-149.4-113.44-303.14-129.61-462.09-70.36 88.45-31.6 434.32-30.7 497.21l-7.28 33.63c-.42-1.56-2.37 5.61-4.11 8.14-15.34-38.75-42.06-85.86-61.8-136.12-81.1-200.39-123.58-387.91-147.45-569.23L371.6 329.42C326.44 464 340.96 647.4 383.38 774.79c34.29 102.96 133.95 246.52 153.03 323.66-128.68-24.09-419.92-572.79-430.76-687.31l10.21 331.71c10.1 150.52 289.85 468.42 403.96 599.62-97.31-29.78-280.05-205.29-359.48-284.47L38.81 887.11zm2709.37 2291.54h33.11l72.71-62.98c60.01-58.59 33.98-56.74 73.95-60.93l3.2 123.91h46.57c32.58-31.33 48.69-34.49 77.34-67.12 27.36-31.15 34.03-53.1 81.48-60.16-1.16 31.42-17.98 85.05 5.23 105.17 89.46 51.12 126.49-70.98 172.21-106.46l39.02 86.53c51.61 5.3 71.75-4.32 96.39-29.86l54.11-56.49c43.33 25.13 57.58 87.5 135.22 42.09 53.88-31.52 30.55-68.32 97.54-97.39 11.35 31.21 13.21 40.68 39.87 65.78 91.37-8.52 70.66-70.83 126.8-133.85 73.1 11.17 203.01 174.55 221.61-97.82 63.29 11.99 86 71.41 195.56 46.99 70.62-15.74 112.27-63.86 101.43-139.9-224.32-24.06-515.63-56.27-735.44-35.2-35.28 50.25-9.91 67.89-99.3 88.34 1.66 67.55 16.56 59.29-59.5 102.68-250.79 143.1-999.15-57.38-1047.12 262.94 88.62 9.93 210.22-60.51 253.33-98.85l14.68 122.59zm33.11 0h149.86l-3.2-123.91c-39.97 4.19-13.94 2.34-73.95 60.93l-72.71 62.98z"/><path fill="#FDC50D" fill-rule="nonzero" d="M2252.06 4572.72l122-233.74h81.21l-187.54 335.55c-12.68 21.34-24.5 36.55-35.45 45.52-10.82 8.88-23.63 15.77-38.43 20.4-14.67 4.72-33.08 7.08-55.09 7.08-19.28 0-31.47-.85-36.81-2.46l2.11-42.31 33.21 1.14c25.49 0 44.4-9.26 56.84-27.86l9.08-14.36 13.8-24.56-180.7-298.15h78.35l137.43 233.74zm615.98-190.11h-255.82v359.25h-70.27v-402.89h326.08v43.63zm469.61 170.84c0 39.47-8.71 73.95-26.24 103.41-17.41 29.47-42.16 51.94-74.25 67.43-32.09 15.49-69.52 23.24-112.3 23.24-41.79 0-78.73-7.84-111.06-23.42-32.34-15.58-57.46-37.78-75.24-66.68-17.91-28.9-26.99-62.33-27.48-100.39v-29.09c0-38.72 8.83-73 26.61-102.75 17.66-29.66 42.78-52.42 75.24-68.19 32.33-15.77 69.52-23.71 111.31-23.71 42.41 0 79.96 7.84 112.3 23.42 32.46 15.58 57.45 38.16 74.87 67.81 17.54 29.65 26.24 64.12 26.24 103.41v25.5zm-69.52-26.07c0-47.69-12.68-84.33-37.93-109.83-25.25-25.59-60.57-38.35-105.96-38.35-44.28 0-79.1 12.75-104.47 38.35-25.37 25.5-38.43 60.91-39.18 106.24v29.66c0 46.28 12.81 82.63 38.43 109.08 25.62 26.44 60.94 39.67 105.83 39.67 45.27 0 80.22-12.46 104.96-37.49 24.75-24.93 37.56-60.73 38.31-107.38v-29.94zm564.74 86.79c-6.59 42.59-27.24 75.46-62.18 98.6-34.82 23.14-81.09 34.75-138.92 34.75-62.68 0-112.92-17.09-150.73-51.19-37.68-34.19-56.58-79.9-56.58-137.13v-38.72c0-37.49 8.71-70.45 26.37-98.88 17.66-28.43 42.53-50.24 74.87-65.45s69.77-22.86 112.18-22.86c56.46 0 101.61 11.9 135.56 35.79 34.08 23.89 53.85 56.95 59.45 99.26h-70.39c-5.97-32.21-19.15-55.44-39.42-69.79-20.4-14.45-48.75-21.63-85.19-21.63-44.65 0-79.72 12.56-105.09 37.68-25.37 25.03-38.05 60.82-38.05 107.1v39c0 43.82 12.06 78.58 36.06 104.45 24.13 25.78 57.71 38.72 100.99 38.72 38.8 0 68.65-6.7 89.42-20.02 20.77-13.31 34.58-36.55 41.29-69.7h70.39zm503.43-60.72c0 39.47-8.71 73.95-26.24 103.41-17.41 29.47-42.16 51.94-74.25 67.43-32.09 15.49-69.52 23.24-112.3 23.24-41.79 0-78.73-7.84-111.06-23.42-32.34-15.58-57.46-37.78-75.24-66.68-17.91-28.9-26.99-62.33-27.48-100.39v-29.09c0-38.72 8.83-73 26.61-102.75 17.66-29.66 42.78-52.42 75.24-68.19 32.33-15.77 69.52-23.71 111.31-23.71 42.41 0 79.96 7.84 112.3 23.42 32.46 15.58 57.46 38.16 74.87 67.81 17.54 29.65 26.24 64.12 26.24 103.41v25.5zm-69.52-26.07c0-47.69-12.68-84.33-37.93-109.83-25.25-25.59-60.57-38.35-105.96-38.35-44.28 0-79.1 12.75-104.47 38.35-25.37 25.5-38.43 60.91-39.18 106.24v29.66c0 46.28 12.81 82.63 38.43 109.08 25.62 26.44 60.94 39.67 105.83 39.67 45.27 0 80.22-12.46 104.96-37.49 24.75-24.93 37.56-60.73 38.31-107.38v-29.94z"/></svg>