<svg xmlns="http://www.w3.org/2000/svg" width="97.75" height="97.75"><path d="M25.676 52.482h3.875v20.973h3.666V52.482h3.947v-3.435H25.676zm30.998 2.564c-1.212 0-2.343.662-3.406 1.972v-7.972h-3.295v24.409h3.295v-1.762c1.103 1.361 2.233 2.013 3.406 2.013 1.311 0 2.193-.69 2.633-2.044.221-.771.334-1.982.334-3.665v-7.242c0-1.722-.113-2.924-.334-3.655-.439-1.364-1.323-2.054-2.633-2.054zm-.33 13.209c0 1.644-.482 2.454-1.434 2.454-.541 0-1.092-.259-1.643-.811V58.814c.551-.545 1.102-.803 1.643-.803.951 0 1.434.842 1.434 2.482v7.762zm-12.52.912c-.731 1.033-1.422 1.542-2.084 1.542-.44 0-.691-.259-.771-.771-.03-.106-.03-.508-.03-1.28v-13.39h-3.296v14.379c0 1.285.111 2.153.291 2.705.331.922 1.063 1.354 2.123 1.354 1.213 0 2.457-.732 3.767-2.234v1.984h3.298V55.268h-3.298v13.899zm2.829-30.701c1.073 0 1.588-.851 1.588-2.551v-7.731c0-1.701-.515-2.548-1.588-2.548-1.074 0-1.59.848-1.59 2.548v7.731c0 1.701.516 2.551 1.59 2.551z"/><path d="M48.875 0C21.882 0 0 21.882 0 48.875S21.882 97.75 48.875 97.75 97.75 75.868 97.75 48.875 75.868 0 48.875 0zm5.436 22.86h3.321v13.532c0 .781 0 1.186.04 1.295.073.516.335.78.781.78.666 0 1.365-.516 2.104-1.559V22.86h3.33v18.379h-3.33v-2.004c-1.326 1.52-2.59 2.257-3.805 2.257-1.072 0-1.812-.435-2.146-1.365-.184-.557-.295-1.436-.295-2.733V22.86zm-12.578 5.993c0-1.965.334-3.401 1.042-4.33.921-1.257 2.218-1.885 3.878-1.885 1.668 0 2.964.628 3.885 1.885.698.928 1.032 2.365 1.032 4.33v6.436c0 1.954-.334 3.403-1.032 4.322-.921 1.254-2.217 1.881-3.885 1.881-1.66 0-2.957-.627-3.878-1.881-.708-.919-1.042-2.369-1.042-4.322v-6.436zm-8.906-12.277l2.622 9.685 2.519-9.685h3.735L37.26 31.251v9.989h-3.692v-9.989c-.335-1.77-1.074-4.363-2.259-7.803-.778-2.289-1.589-4.585-2.367-6.872h3.885zm42.359 58.485c-.668 2.899-3.039 5.039-5.894 5.358-6.763.755-13.604.759-20.42.755-6.813.004-13.658 0-20.419-.755-2.855-.319-5.227-2.458-5.893-5.358-.951-4.129-.951-8.638-.951-12.89s.012-8.76.962-12.89c.667-2.9 3.037-5.04 5.892-5.358 6.762-.755 13.606-.759 20.421-.755 6.813-.004 13.657 0 20.419.755 2.855.319 5.227 2.458 5.896 5.358.948 4.13.942 8.638.942 12.89s-.004 8.761-.955 12.89z"/><path d="M67.17 55.046c-1.686 0-2.995.619-3.947 1.864-.699.92-1.018 2.342-1.018 4.285v6.371c0 1.933.357 3.365 1.059 4.276.951 1.242 2.264 1.863 3.988 1.863 1.721 0 3.072-.651 3.984-1.972.4-.584.66-1.245.77-1.975a25.5 25.5 0 0 0 .07-2.124v-.479h-3.361c0 1.32-.043 2.053-.072 2.232-.188.881-.662 1.321-1.473 1.321-1.132 0-1.686-.84-1.686-2.522V64.96h6.592v-3.767c0-1.943-.329-3.365-1.02-4.285-.921-1.242-2.232-1.862-3.886-1.862zm1.612 7.172h-3.296v-1.683c0-1.682.553-2.523 1.654-2.523 1.09 0 1.642.842 1.642 2.523v1.683z"/></svg>