<svg xmlns="http://www.w3.org/2000/svg" width="40" height="37" viewBox="0 0 40 37"><path fill-rule="evenodd" d="M17.658 21.197l-8.222-8.292-4.58 4.58L0 12.593 4.58 7.98 3.434 6.904l3.4-3.4L7.91 4.579 12.454 0l4.857 4.926-4.51 4.58 8.188 8.291L29.21 9.54l-4.545-4.614L29.558 0l4.544 4.614 1.076-1.11 3.365 3.4-1.11 1.075c1.156 1.85 2.012 6.037 2.567 12.559l-7.424-7.633-8.187 8.327 4.37 4.405 7.876 6.696-4.545 4.58-6.66-7.91-4.441-4.406-4.371 4.406-6.661 7.91-4.545-4.58 7.806-6.696 4.44-4.44z"/></svg>