<svg xmlns="http://www.w3.org/2000/svg" width="44" height="45" viewBox="0 0 44 45"><path fill-rule="evenodd" d="M36.435 3.982c.185-1.348.597-2.348 1.235-3.002.638-.653 1.503-.98 2.594-.98 1.09 0 1.986.383 2.686 1.149S44 2.91 44 4.135c0 1.185-.35 2.334-1.05 3.447-.7 1.113-1.719 2.16-3.057 3.14a14.415 14.415 0 0 1-3.782 1.99c-1.348.47-2.64.705-3.875.705-.741 0-1.56-.112-2.455-.337-.895-.224-1.847-.571-2.856-1.041a302.91 302.91 0 0 1-1.945 4.288 951.413 951.413 0 0 1-1.73 3.707l-.37-1.47c.412-1.185.839-2.374 1.281-3.57.443-1.194.901-2.383 1.374-3.568-5.722-3.512-9.582-5.728-11.579-6.647C11.96 3.859 10.354 3.4 9.14 3.4c-1.585 0-2.96.536-4.122 1.609C3.854 6.08 3.273 7.342 3.273 8.792c0 .53.139 1.092.417 1.685.278.592.684 1.204 1.22 1.837-.206.777-.525 1.364-.958 1.762-.432.398-.957.597-1.574.597-.7 0-1.272-.265-1.714-.796C.22 13.346 0 12.65 0 11.794c0-1.164.309-2.37.926-3.615.618-1.246 1.503-2.44 2.656-3.584C4.755 3.431 5.97 2.543 7.225 1.93c1.256-.613 2.47-.92 3.644-.92 1.153 0 2.398.297 3.736.89 1.338.591 2.81 1.51 4.415 2.756l-.772-2.144c.66-.858 1.349-1.49 2.07-1.9C21.037.205 21.85 0 22.755 0c1.524 0 2.841.628 3.953 1.884 1.111 1.256 1.667 2.782 1.667 4.58a9.58 9.58 0 0 1-.17 1.7 19.294 19.294 0 0 1-.51 2.067c1.174.552 2.234.96 3.181 1.226.947.265 1.801.398 2.563.398 1.482 0 2.717-.378 3.705-1.133.988-.756 1.482-1.695 1.482-2.819 0-.694-.164-1.337-.494-1.93-.329-.592-.895-1.256-1.698-1.99zM23.19 21.902c.988-1.919 2.146-3.359 3.473-4.319 1.328-.96 2.826-1.44 4.493-1.44 2.223 0 4.055.751 5.496 2.252 1.441 1.501 2.162 3.426 2.162 5.775 0 2.042-.608 3.85-1.822 5.422-1.215 1.572-3.16 3.042-5.836 4.41-.432.225-1.08.552-1.945.981-3.767 1.838-5.65 3.543-5.65 5.116 0 .96.36 1.761 1.08 2.404.72.644 1.606.965 2.655.965 1.4 0 2.538-.51 3.412-1.531.875-1.021 1.405-2.45 1.59-4.289.33-.245.654-.434.973-.567.32-.132.654-.199 1.004-.199.761 0 1.405.24 1.93.72.524.48.787 1.057.787 1.73 0 1.533-.962 2.86-2.887 3.983C32.179 44.438 29.827 45 27.048 45c-2.717 0-5.259-.48-7.626-1.44-2.368-.96-4.508-2.369-6.423-4.227-1.894-1.818-3.345-3.9-4.353-6.25a18.59 18.59 0 0 1-1.513-7.412c0-3.411.802-6.158 2.408-8.24 1.606-2.084 3.716-3.125 6.33-3.125 1.914 0 3.407.633 4.477 1.899 1.07 1.266 1.626 3.043 1.667 5.33l1.174.368zm2.9-12.435c.103-.47.185-.904.247-1.302.062-.399.093-.73.093-.996 0-1.43-.376-2.614-1.127-3.553-.751-.94-1.683-1.41-2.795-1.41-.617 0-1.121.205-1.513.613-.39.409-.586.94-.586 1.593 0 .858.463 1.7 1.39 2.527.926.827 2.356 1.67 4.291 2.528z"/></svg>