<svg xmlns="http://www.w3.org/2000/svg" width="44" height="27" viewBox="0 0 44 27"><path fill-rule="evenodd" d="M44 3.011c-.505 0-.994.18-1.466.541-.472.36-1.087 1.27-1.845 2.728-1.028 1.974-1.963 3.23-2.805 3.771-.842.54-1.744.81-2.704.81-.944 0-1.837-.27-2.68-.81-.842-.54-1.777-1.797-2.804-3.77-.775-1.46-1.395-2.369-1.858-2.729-.463-.36-.948-.54-1.453-.54-.506 0-.99.18-1.453.54-.464.36-1.074 1.27-1.833 2.728-1.027 1.974-1.967 3.23-2.818 3.771-.85.54-1.748.81-2.691.81-.944 0-1.837-.27-2.679-.81-.842-.54-1.786-1.797-2.83-3.77-.759-1.46-1.37-2.369-1.833-2.729-.463-.36-.948-.54-1.453-.54-.506 0-.99.18-1.453.54-.464.36-1.083 1.27-1.858 2.728-1.028 1.974-1.963 3.23-2.805 3.771-.843.54-1.735.81-2.679.81v-3.01c.505 0 .99-.18 1.453-.541.464-.36 1.074-1.27 1.832-2.728C4.313 2.608 5.253 1.352 6.103.81 6.954.27 7.851 0 8.795 0c.943 0 1.836.27 2.679.81.842.541 1.786 1.798 2.83 3.772.759 1.458 1.37 2.367 1.833 2.728.463.36.947.54 1.453.54.505 0 .99-.18 1.453-.54.463-.36 1.083-1.27 1.858-2.728 1.027-1.974 1.962-3.23 2.805-3.771C24.548.27 25.44 0 26.385 0c.96 0 1.862.27 2.704.81.842.541 1.778 1.798 2.805 3.772.759 1.458 1.373 2.367 1.845 2.728.472.36.952.54 1.44.54.506 0 .995-.18 1.467-.54.471-.36 1.086-1.27 1.845-2.728 1.027-1.974 1.962-3.23 2.805-3.771A4.915 4.915 0 0 1 44 0v3.011zm0 16.139c-.505 0-.994.18-1.466.54-.472.36-1.087 1.27-1.845 2.728-1.028 1.974-1.963 3.23-2.805 3.771-.842.54-1.744.811-2.704.811-.944 0-1.837-.27-2.68-.81-.842-.541-1.777-1.798-2.804-3.772-.775-1.458-1.395-2.367-1.858-2.728-.463-.36-.948-.54-1.453-.54-.506 0-.99.18-1.453.54-.464.36-1.074 1.27-1.833 2.728-1.027 1.974-1.967 3.23-2.818 3.771-.85.54-1.748.811-2.691.811-.944 0-1.837-.27-2.679-.81-.842-.541-1.786-1.798-2.83-3.772-.759-1.458-1.37-2.367-1.833-2.728-.463-.36-.948-.54-1.453-.54-.506 0-.99.18-1.453.54-.464.36-1.083 1.27-1.858 2.728-1.028 1.974-1.963 3.23-2.805 3.771C1.836 26.73.944 27 0 27v-3.011c.505 0 .99-.18 1.453-.541.464-.36 1.074-1.27 1.832-2.728 1.028-1.974 1.968-3.23 2.818-3.771.851-.54 1.748-.81 2.692-.81.943 0 1.836.27 2.679.81.842.54 1.786 1.797 2.83 3.77.759 1.46 1.37 2.369 1.833 2.729.463.36.947.54 1.453.54.505 0 .99-.18 1.453-.54.463-.36 1.083-1.27 1.858-2.728 1.027-1.974 1.962-3.23 2.805-3.771.842-.54 1.735-.81 2.679-.81.96 0 1.862.27 2.704.81.842.54 1.778 1.797 2.805 3.77.759 1.46 1.373 2.369 1.845 2.729.472.36.952.54 1.44.54.506 0 .995-.18 1.467-.54.471-.36 1.086-1.27 1.845-2.728 1.027-1.974 1.962-3.23 2.805-3.771a4.922 4.922 0 0 1 2.704-.81v3.01z"/></svg>