<svg xmlns="http://www.w3.org/2000/svg" width="44" height="51" viewBox="0 0 44 51"><path fill-rule="evenodd" d="M9.661 9.774h.075c-.524 3.62-1.585 5.43-3.183 5.43h-.15c-1.023-.175-1.535-.575-1.535-1.199v-.037c0-.974 1.598-2.372 4.793-4.194zm10.897-6.591h.038c-.5 3.595-1.56 5.392-3.183 5.392h-.15c-.999-.125-1.498-.499-1.498-1.123v-.075c0-.949 1.598-2.347 4.793-4.194zM29.958 0h.074c-.524 3.62-1.585 5.43-3.183 5.43h-.187c-.998-.15-1.498-.537-1.498-1.161v-.075c0-.949 1.598-2.347 4.793-4.194zm1.685 7.64h.074c-.524 3.594-1.585 5.391-3.183 5.391h-.15c-1.023-.124-1.535-.499-1.535-1.123v-.075c0-.973 1.598-2.371 4.794-4.194zm9.399-5.506h.112c-.524 3.595-1.598 5.393-3.22 5.393h-.15c-1.024-.125-1.535-.5-1.535-1.124V6.33c0-.974 1.597-2.372 4.793-4.195zm2.92 5.505H44c-.474 3.595-1.523 5.392-3.146 5.392h-.187c-.998-.1-1.498-.474-1.498-1.123v-.075c0-.948 1.598-2.346 4.794-4.194zm-2.396 8.912h.075c-.524 3.62-1.598 5.43-3.22 5.43h-.15c-.999-.15-1.498-.536-1.498-1.16v-.038c0-.999 1.597-2.41 4.793-4.232zm-20.446-1.31h1.535l.15.15v2.92h.038c7.689 0 13.98 3.77 18.873 11.31.749 1.323 1.123 2.096 1.123 2.321v.187h-.037c-.4-.224-.762-.699-1.086-1.423-.624-.374-1.423-.561-2.397-.561h-1.16c-2.622 0-4.919.774-6.89 2.321v1.236c0 .225-.063.35-.188.375l-.861-1.536c-2.647-.948-5.156-1.423-7.527-1.423v15.953c0 1.572-.924 2.546-2.771 2.92l-.787.038c-1.597 0-2.72-.749-3.37-2.247l-.037-.636v-.6l.15-.15H17l.15.15v.263c.174 1.572.811 2.359 1.91 2.359h.262c.948 0 1.597-.45 1.947-1.348l.15-.937V31.118c-3.67 0-6.254.475-7.752 1.423-.3.899-.574 1.348-.824 1.348l-.187-.15v-.299l.187-1.198h-.112c-1.173-.974-3.47-1.673-6.89-2.097h-1.76c-1.748 0-2.909.474-3.483 1.423l-.524.412H0v-.038c.999-2.247 3.17-5.055 6.516-8.425 4.194-3.47 9.012-5.206 14.454-5.206v-2.92l.15-.15z"/></svg>