<svg id="Element" xmlns="http://www.w3.org/2000/svg" xmlns:xlink="http://www.w3.org/1999/xlink" viewBox="0 0 47.22 52.21">
  <defs>
    <style>
      .cls-1 {
        fill: url(#Безымянный_градиент_9);
      }

      .cls-2 {
        fill: none;
        stroke: #fff;
        stroke-miterlimit: 10;
        stroke-width: 0.75px;
      }
    </style>
    <linearGradient id="Безымянный_градиент_9" data-name="Безымянный градиент 9" y1="26.1" x2="47.22" y2="26.1" gradientUnits="userSpaceOnUse">
      <stop offset="0" stop-color="#47a5f0"/>
      <stop offset="0" stop-color="#3298ec"/>
      <stop offset="0" stop-color="#1687e8"/>
      <stop offset="0" stop-color="#067de5"/>
      <stop offset="0" stop-color="#0079e4"/>
      <stop offset="1" stop-color="#1852d3"/>
    </linearGradient>
  </defs>
  <title>11</title>
  <g>
    <polygon class="cls-1" points="0 39.15 23.61 52.21 47.22 39.15 47.22 13.05 23.61 0 0 13.05 0 39.15"/>
    <path class="cls-2" d="M482.08,1021.16a1.63,1.63,0,0,0,1.63-1.63,1.54,1.54,0,0,0-.09-0.46c2.08-1.68,5.76-4.64,7.44-5.94a1.48,1.48,0,0,0,1.7.09l4.22,3.58a1.75,1.75,0,0,0-.06.28,1.64,1.64,0,0,0,3.27,0,1.56,1.56,0,0,0-.09-0.45l4.22-3.8a1.58,1.58,0,0,0,.74.2,1.63,1.63,0,1,0-1.62-1.63,1.59,1.59,0,0,0,.12.61l-4.12,3.72a1.63,1.63,0,0,0-.87-0.28,1.61,1.61,0,0,0-1,.38l-4.06-3.45a1.51,1.51,0,0,0,.11-0.56,1.63,1.63,0,1,0-3.25,0,1.51,1.51,0,0,0,.11.56l-7.48,5.82a1.62,1.62,0,1,0-.9,3h0Zm0,0" transform="translate(-464 -991.91)"/>
    <path class="cls-2" d="M492.08,1029a1.63,1.63,0,1,0-.9-3l-7.48-5.82a1.51,1.51,0,0,0,.11-0.56,1.63,1.63,0,1,0-3.25,0,1.51,1.51,0,0,0,.11.56l-4.06,3.45a1.61,1.61,0,0,0-1-.38,1.63,1.63,0,0,0-.87.28l-4.12-3.72a1.59,1.59,0,0,0,.12-0.61,1.63,1.63,0,1,0-1.62,1.63,1.58,1.58,0,0,0,.74-0.2l4.22,3.8a1.56,1.56,0,0,0-.09.45,1.64,1.64,0,0,0,3.27,0,1.75,1.75,0,0,0-.06-0.28l4.22-3.58a1.48,1.48,0,0,0,1.7-.09c1.68,1.3,5.36,4.25,7.44,5.94a1.54,1.54,0,0,0-.09.46,1.63,1.63,0,0,0,1.63,1.63h0Zm0,0" transform="translate(-464 -991.91)"/>
  </g>
</svg>
