<svg id="Element" xmlns="http://www.w3.org/2000/svg" xmlns:xlink="http://www.w3.org/1999/xlink" viewBox="0 0 47.22 52.21">
  <defs>
    <style>
      .cls-1 {
        fill: url(#Безымянный_градиент_9);
      }

      .cls-2 {
        fill: none;
        stroke: #fff;
        stroke-miterlimit: 10;
        stroke-width: 0.75px;
      }
    </style>
    <linearGradient id="Безымянный_градиент_9" data-name="Безымянный градиент 9" y1="26.1" x2="47.22" y2="26.1" gradientUnits="userSpaceOnUse">
      <stop offset="0" stop-color="#47a5f0"/>
      <stop offset="0" stop-color="#3298ec"/>
      <stop offset="0" stop-color="#1687e8"/>
      <stop offset="0" stop-color="#067de5"/>
      <stop offset="0" stop-color="#0079e4"/>
      <stop offset="1" stop-color="#1852d3"/>
    </linearGradient>
  </defs>
  <title>12</title>
  <g>
    <polygon class="cls-1" points="0 39.15 23.61 52.21 47.22 39.15 47.22 13.05 23.61 0 0 13.05 0 39.15"/>
    <path class="cls-2" d="M499.94,1089.67h-7V1088a1.59,1.59,0,0,0-1.59-1.59h-6.11a1.59,1.59,0,0,0-1.59,1.59v1.66h-7.26a1.59,1.59,0,0,0-1.59,1.59V1105a1.59,1.59,0,0,0,1.59,1.6h23.55a1.59,1.59,0,0,0,1.59-1.6v-13.72A1.59,1.59,0,0,0,499.94,1089.67ZM484.71,1088a0.53,0.53,0,0,1,.53-0.53h6.11a0.53,0.53,0,0,1,.53.53v1.66h-7.17V1088Zm7.26,10.76h-2.5a0.14,0.14,0,0,0-.14.14v2.5a0.14,0.14,0,0,1-.14.14H487.4a0.14,0.14,0,0,1-.14-0.14v-2.5a0.14,0.14,0,0,0-.14-0.14h-2.5a0.14,0.14,0,0,1-.14-0.14v-1.8a0.14,0.14,0,0,1,.14-0.14h2.5a0.14,0.14,0,0,0,.14-0.14v-2.5a0.14,0.14,0,0,1,.14-0.14h1.79a0.14,0.14,0,0,1,.14.14v2.5a0.14,0.14,0,0,0,.14.14H492a0.14,0.14,0,0,1,.14.14v1.8A0.14,0.14,0,0,1,492,1098.77Z" transform="translate(-464 -1070.87)"/>
  </g>
</svg>
