<svg id="Element" xmlns="http://www.w3.org/2000/svg" xmlns:xlink="http://www.w3.org/1999/xlink" viewBox="0 0 47.22 52.21">
  <defs>
    <style>
      .cls-1 {
        fill: url(#Безымянный_градиент_9);
      }

      .cls-2 {
        fill: none;
        stroke: #fff;
        stroke-miterlimit: 10;
        stroke-width: 0.75px;
      }
    </style>
    <linearGradient id="Безымянный_градиент_9" data-name="Безымянный градиент 9" y1="26.1" x2="47.22" y2="26.1" gradientUnits="userSpaceOnUse">
      <stop offset="0" stop-color="#47a5f0"/>
      <stop offset="0" stop-color="#3298ec"/>
      <stop offset="0" stop-color="#1687e8"/>
      <stop offset="0" stop-color="#067de5"/>
      <stop offset="0" stop-color="#0079e4"/>
      <stop offset="1" stop-color="#1852d3"/>
    </linearGradient>
  </defs>
  <title>13</title>
  <g>
    <polygon class="cls-1" points="0 39.15 23.61 52.21 47.22 39.15 47.22 13.05 23.61 0 0 13.05 0 39.15"/>
    <g>
      <path class="cls-2" d="M760.5,1107.54l1.81,0.94a1,1,0,0,0,1-.75l7.84-7.74,1.67,0.86a1.41,1.41,0,0,0,1.61-1l0-.07a1.41,1.41,0,0,0-.14-1.87l-2.83-1.46,3.61-7a1,1,0,1,0-1.8-.93l-3.61,7-6.11-3.15,3.61-7a1,1,0,0,0-1.8-.93l-3.61,7-3.13-1.62a1.41,1.41,0,0,0-1.61,1l0,0.07a1.41,1.41,0,0,0,.14,1.87l1.67,0.86-1.77,10.88a1,1,0,0,0,0,1.25l1.66,0.86Z" transform="translate(-741.67 -1070.87)"/>
      <rect class="cls-2" x="755.01" y="1108.17" width="6.12" height="3.11" transform="translate(-1317.39 203.62) rotate(-62.7)"/>
    </g>
  </g>
</svg>
