<svg id="Element" xmlns="http://www.w3.org/2000/svg" xmlns:xlink="http://www.w3.org/1999/xlink" viewBox="0 0 47.22 52.21">
  <defs>
    <style>
      .cls-1 {
        fill: url(#Безымянный_градиент_9);
      }

      .cls-2 {
        fill: none;
        stroke: #fff;
        stroke-miterlimit: 10;
        stroke-width: 0.75px;
        fill-rule: evenodd;
      }
    </style>
    <linearGradient id="Безымянный_градиент_9" data-name="Безымянный градиент 9" y1="26.1" x2="47.22" y2="26.1" gradientUnits="userSpaceOnUse">
      <stop offset="0" stop-color="#47a5f0"/>
      <stop offset="0" stop-color="#3298ec"/>
      <stop offset="0" stop-color="#1687e8"/>
      <stop offset="0" stop-color="#067de5"/>
      <stop offset="0" stop-color="#0079e4"/>
      <stop offset="1" stop-color="#1852d3"/>
    </linearGradient>
  </defs>
  <title>15</title>
  <g>
    <polygon class="cls-1" points="0 39.15 23.61 52.21 47.22 39.15 47.22 13.05 23.61 0 0 13.05 0 39.15"/>
    <path class="cls-2" d="M764.79,939.45h0v-4.84a0.48,0.48,0,0,1,.51-0.41,0.47,0.47,0,0,1,.5.41v4.82a1.56,1.56,0,0,1-.5,3.06,1.52,1.52,0,0,1-1.51-1.52,1.57,1.57,0,0,1,1-1.52h0Zm7.13-6.52h0a1.32,1.32,0,0,0-1.37,1.27,1.34,1.34,0,0,0,1.37,1.35,1.39,1.39,0,0,0,1.32-1.35,1.36,1.36,0,0,0-1.32-1.27h0Zm4.31,4.56h0a1.34,1.34,0,0,0-1.36,1.36,1.32,1.32,0,0,0,1.36,1.35,1.34,1.34,0,0,0,1.35-1.35,1.35,1.35,0,0,0-1.35-1.36h0Zm-10.76-6.85h0a1.41,1.41,0,0,1,1.36,1.36,1.39,1.39,0,0,1-1.36,1.27,1.31,1.31,0,0,1-1.35-1.27,1.34,1.34,0,0,1,1.35-1.36h0ZM759,932.93h0a1.28,1.28,0,0,1,1.27,1.27,1.31,1.31,0,0,1-1.27,1.35,1.35,1.35,0,0,1-1.35-1.35,1.33,1.33,0,0,1,1.35-1.27h0Zm-4.39,4.56h0a1.35,1.35,0,0,1,1.35,1.36,1.36,1.36,0,1,1-1.35-1.36h0Zm26.14,7.71H750.08a0.48,0.48,0,0,1-.43-0.52,15.8,15.8,0,0,1,27-11.16,15.66,15.66,0,0,1,4.64,11.16,0.54,0.54,0,0,1-.49.52h0Z" transform="translate(-741.67 -911.64)"/>
  </g>
</svg>
