<svg id="Element" xmlns="http://www.w3.org/2000/svg" xmlns:xlink="http://www.w3.org/1999/xlink" viewBox="0 0 47.22 52.21">
  <defs>
    <style>
      .cls-1 {
        fill: url(#Безымянный_градиент_9);
      }

      .cls-2 {
        fill: none;
        stroke: #fff;
        stroke-miterlimit: 10;
        stroke-width: 0.75px;
        fill-rule: evenodd;
      }
    </style>
    <linearGradient id="Безымянный_градиент_9" data-name="Безымянный градиент 9" y1="26.1" x2="47.22" y2="26.1" gradientUnits="userSpaceOnUse">
      <stop offset="0" stop-color="#47a5f0"/>
      <stop offset="0" stop-color="#3298ec"/>
      <stop offset="0" stop-color="#1687e8"/>
      <stop offset="0" stop-color="#067de5"/>
      <stop offset="0" stop-color="#0079e4"/>
      <stop offset="1" stop-color="#1852d3"/>
    </linearGradient>
  </defs>
  <title>18</title>
  <g>
    <polygon class="cls-1" points="0 39.15 23.61 52.21 47.22 39.15 47.22 13.05 23.61 0 0 13.05 0 39.15"/>
    <path class="cls-2" d="M752.66,701.24h0.64c1.5,0.81,5.54.91,10.3,0.91v0.08a8,8,0,0,0,1.72,4.94c-0.56,0-1.13,0-1.72,0-6,0-10.94-1.15-10.94-2.3a0.15,0.15,0,0,1,0-.06h0v-3.61Zm0-6h0.64c1.5,0.81,5.54,1.45,10.3,1.45,0.79,0,1.54,0,2.28-.06a8,8,0,0,0-2.13,4H763.6c-6,0-10.94-.62-10.94-1.76a0.15,0.15,0,0,1,0-.06h0v-3.61Zm19.54-1c-0.22,0-.43,0-0.65,0a7.9,7.9,0,0,0-3.21.69c-1.44.14-3,.23-4.74,0.23-6,0-10.94-1.07-10.94-2.22a0.14,0.14,0,0,1,0-.06h0v-2.24h0a0.42,0.42,0,0,1,0-.07c0-1.14,4.9-2.3,10.94-2.3s10.94,1.15,10.94,2.3a0.49,0.49,0,0,1,0,.07h0v2.24h0a0.13,0.13,0,0,1,0,.06C774.54,693.46,773.67,693.93,772.2,694.31Zm2,5.06-3.46,3.39a0.11,0.11,0,0,1-.15,0l-1.66-1.61a0.16,0.16,0,0,0-.22,0l-1,1a0.13,0.13,0,0,0,0,.19l1.74,1.7,1.11,1.08a0.17,0.17,0,0,0,.24,0l1.1-1.08,3.54-3.45a0.18,0.18,0,0,0,0-.26l-1-.94A0.19,0.19,0,0,0,774.18,699.37Zm-1.25,8.68a6,6,0,1,1,4.45-4.45A6,6,0,0,1,772.93,708.05Z" transform="translate(-741.67 -672.79)"/>
  </g>
</svg>
