<svg id="Element" xmlns="http://www.w3.org/2000/svg" xmlns:xlink="http://www.w3.org/1999/xlink" viewBox="0 0 47.22 52.21">
  <defs>
    <style>
      .cls-1 {
        fill: url(#Безымянный_градиент_9);
      }

      .cls-2 {
        fill: none;
        stroke: #fff;
        stroke-miterlimit: 10;
        stroke-width: 0.75px;
      }
    </style>
    <linearGradient id="Безымянный_градиент_9" data-name="Безымянный градиент 9" y1="26.1" x2="47.22" y2="26.1" gradientUnits="userSpaceOnUse">
      <stop offset="0" stop-color="#47a5f0"/>
      <stop offset="0" stop-color="#3298ec"/>
      <stop offset="0" stop-color="#1687e8"/>
      <stop offset="0" stop-color="#067de5"/>
      <stop offset="0" stop-color="#0079e4"/>
      <stop offset="1" stop-color="#1852d3"/>
    </linearGradient>
  </defs>
  <title>2</title>
  <g>
    <polygon class="cls-1" points="0 39.15 23.61 52.21 47.22 39.15 47.22 13.05 23.61 0 0 13.05 0 39.15"/>
    <path class="cls-2" d="M211.23,771.42a2.33,2.33,0,1,0,1.64,4h0A2.33,2.33,0,0,0,211.23,771.42Z" transform="translate(-187.43 -752.4)"/>
    <path class="cls-2" d="M208.51,794.07a0.66,0.66,0,0,1-1.12-.46v-5.36a0.66,0.66,0,0,1,1.31,0v5.36A0.65,0.65,0,0,1,208.51,794.07Z" transform="translate(-187.43 -752.4)"/>
    <path class="cls-2" d="M214.84,794.08a0.66,0.66,0,0,1-1.12-.46v-5.36a0.66,0.66,0,0,1,1.31,0v5.36A0.65,0.65,0,0,1,214.84,794.08Z" transform="translate(-187.43 -752.4)"/>
    <path class="cls-2" d="M211.24,763.07a0.66,0.66,0,0,0-.53.27,24.23,24.23,0,0,0-2.2,4,26.56,26.56,0,0,0-1.51,4.29,21.63,21.63,0,0,0-.69,5.18L203.48,781a0.66,0.66,0,0,0-.11.37l0,6.33a0.66,0.66,0,0,0,1.12.47l0.08-.1,2.88-4.27q0.34,1,.77,2.08a0.66,0.66,0,0,0,.6.4h1.75v1.63a0.66,0.66,0,0,0,1.31,0v-1.63h1.75a0.65,0.65,0,0,0,.61-0.4q0.44-1,.77-2.07l2.88,4.27a0.66,0.66,0,0,0,1.2-.37v-6.33A0.66,0.66,0,0,0,219,781l-2.81-4.18a21.63,21.63,0,0,0-.68-5.18,26.6,26.6,0,0,0-1.5-4.3,24.27,24.27,0,0,0-2.2-4A0.66,0.66,0,0,0,211.24,763.07Zm-6.57,22.45v-4l1.73-2.56a22.42,22.42,0,0,0,.56,3.14Zm13.09-4v4l-2.29-3.4A22.36,22.36,0,0,0,216,779Z" transform="translate(-187.43 -752.4)"/>
    <path class="cls-2" d="M211.67,796.16a0.66,0.66,0,0,1-1.12-.46v-5.36a0.66,0.66,0,0,1,1.31,0v5.36A0.65,0.65,0,0,1,211.67,796.16Z" transform="translate(-187.43 -752.4)"/>
  </g>
</svg>
