<svg id="Element" xmlns="http://www.w3.org/2000/svg" xmlns:xlink="http://www.w3.org/1999/xlink" viewBox="0 0 47.22 52.21">
  <defs>
    <style>
      .cls-1 {
        fill: url(#Безымянный_градиент_9);
      }

      .cls-2, .cls-3 {
        fill: none;
        stroke: #fff;
        stroke-miterlimit: 10;
      }

      .cls-2 {
        stroke-width: 0.75px;
      }

      .cls-3 {
        stroke-width: 0.5px;
      }
    </style>
    <linearGradient id="Безымянный_градиент_9" data-name="Безымянный градиент 9" y1="26.1" x2="47.22" y2="26.1" gradientUnits="userSpaceOnUse">
      <stop offset="0" stop-color="#47a5f0"/>
      <stop offset="0" stop-color="#3298ec"/>
      <stop offset="0" stop-color="#1687e8"/>
      <stop offset="0" stop-color="#067de5"/>
      <stop offset="0" stop-color="#0079e4"/>
      <stop offset="1" stop-color="#1852d3"/>
    </linearGradient>
  </defs>
  <title>3</title>
  <g>
    <polygon class="cls-1" points="0 39.15 23.61 52.21 47.22 39.15 47.22 13.05 23.61 0 0 13.05 0 39.15"/>
    <path class="cls-2" d="M215.16,852.65a7.35,7.35,0,0,0-9.09-.32l2.23,1.88a0.81,0.81,0,0,1-.42,1.49l-5.16.43-0.49,0-0.5,0-1,.08a0.5,0.5,0,0,1-.54-0.45l-0.59-7.09a0.79,0.79,0,0,1,1.37-.67l2.22,1.85a11,11,0,0,1,18.21,7.89l-3.67.3a7.31,7.31,0,0,0-2.58-5.47" transform="translate(-187.43 -832.02)"/>
    <path class="cls-3" d="M199.21,862.06L198,863.32l-1.35-1.4,2.95-2.9h2.06v8.44h-2.4v-5.39Z" transform="translate(-187.43 -832.02)"/>
    <path class="cls-3" d="M217,868.73c4.31-3.57,4.72-4,4.72-4.82a1,1,0,0,0-1.14-.91,3,3,0,0,0-2.26,1.06l-1.73-1.94a5.24,5.24,0,0,1,4.07-1.79c2.48,0,4.11,1.42,4.11,3.54,0,1.46-.8,2.61-3.41,4.66h3.49v2.64H217v-2.43Z" transform="translate(-187.43 -832.02)"/>
  </g>
</svg>
