<svg id="Element" xmlns="http://www.w3.org/2000/svg" xmlns:xlink="http://www.w3.org/1999/xlink" viewBox="0 0 47.22 52.21">
  <defs>
    <style>
      .cls-1 {
        fill: url(#Безымянный_градиент_9);
      }

      .cls-2 {
        fill: none;
        stroke: #fff;
        stroke-miterlimit: 10;
        stroke-width: 0.75px;
      }

      .cls-3 {
        fill: #fff;
      }
    </style>
    <linearGradient id="Безымянный_градиент_9" data-name="Безымянный градиент 9" y1="26.1" x2="47.22" y2="26.1" gradientUnits="userSpaceOnUse">
      <stop offset="0" stop-color="#47a5f0"/>
      <stop offset="0" stop-color="#3298ec"/>
      <stop offset="0" stop-color="#1687e8"/>
      <stop offset="0" stop-color="#067de5"/>
      <stop offset="0" stop-color="#0079e4"/>
      <stop offset="1" stop-color="#1852d3"/>
    </linearGradient>
  </defs>
  <title>4</title>
  <g>
    <polygon class="cls-1" points="0 39.15 23.61 52.21 47.22 39.15 47.22 13.05 23.61 0 0 13.05 0 39.15"/>
    <g>
      <path class="cls-2" d="M215.78,923.42l-13.93.29a0.25,0.25,0,0,0-.24.25v28.58a0.25,0.25,0,0,0,.26.25l20.59-.43a0.25,0.25,0,0,0,.24-0.25V930.23a0.25,0.25,0,0,0-.07-0.18L216,923.49A0.25,0.25,0,0,0,215.78,923.42Z" transform="translate(-187.43 -911.64)"/>
      <path class="cls-2" d="M215.88,924.23v5.62a0.41,0.41,0,0,0,.42.41l5.6-.12a0.33,0.33,0,0,0,.23-0.57L216.46,924A0.34,0.34,0,0,0,215.88,924.23Z" transform="translate(-187.43 -911.64)"/>
    </g>
    <g>
      <path class="cls-3" d="M204.36,939.09l5.49-2.29-0.23,1.05-3.79,1.51a0.27,0.27,0,0,0,0,.5l3,1.46-0.22,1L204.15,940Z" transform="translate(-187.43 -911.64)"/>
      <path class="cls-3" d="M213.12,935h1l-4.54,9.19h-1Z" transform="translate(-187.43 -911.64)"/>
      <path class="cls-3" d="M213.08,941.24l4-1.58a0.17,0.17,0,0,0,0-.31l-3.26-1.59,0.21-1,4.47,2.29-0.21.92-5.49,2.28Z" transform="translate(-187.43 -911.64)"/>
    </g>
  </g>
</svg>
