<svg id="Element" xmlns="http://www.w3.org/2000/svg" xmlns:xlink="http://www.w3.org/1999/xlink" viewBox="0 0 45.94 52.21">
  <defs>
    <style>
      .cls-1 {
        fill: url(#Безымянный_градиент_9);
      }

      .cls-2 {
        fill: none;
        stroke: #fff;
        stroke-miterlimit: 10;
        stroke-width: 0.75px;
      }
    </style>
    <linearGradient id="Безымянный_градиент_9" data-name="Безымянный градиент 9" y1="26.1" x2="45.94" y2="26.1" gradientUnits="userSpaceOnUse">
      <stop offset="0" stop-color="#47a5f0"/>
      <stop offset="0" stop-color="#3298ec"/>
      <stop offset="0" stop-color="#1687e8"/>
      <stop offset="0" stop-color="#067de5"/>
      <stop offset="0" stop-color="#0079e4"/>
      <stop offset="1" stop-color="#1852d3"/>
    </linearGradient>
  </defs>
  <title>8</title>
  <g>
    <polygon class="cls-1" points="0 39.15 22.97 52.21 45.94 39.15 45.94 13.05 22.97 0 0 13.05 0 39.15"/>
    <g>
      <path class="cls-2" d="M491.58,782.62a3.54,3.54,0,0,0-1.69,1l-7.72-2.9a3.61,3.61,0,0,0,0-.57c0-.09,0-0.18-0.06-0.26l8.68-6.07a3.54,3.54,0,0,0,2.66.61,3.59,3.59,0,1,0-4.11-2.95c0,0.05,0,.1,0,0.15l-8.75,6.11a3.54,3.54,0,0,0-2.56-.55,3.59,3.59,0,0,0,1.18,7.09,3.55,3.55,0,0,0,2.06-1.14l7.68,2.88a3.62,3.62,0,0,0,.11,1A3.57,3.57,0,1,0,491.58,782.62Z" transform="translate(-464 -752.4)"/>
      <line class="cls-2" x1="29.39" y1="22.05" x2="28.99" y2="30.14"/>
    </g>
  </g>
</svg>
