<svg id="Element" xmlns="http://www.w3.org/2000/svg" viewBox="0 0 25.24 28.36">
  <defs>
    <style>
      .cls-1 {
        fill: #ffcb31;
      }
    </style>
  </defs>
  <title>19</title>
  <g>
    <path class="cls-1" d="M753.14,669.76l-10.32-6a2.54,2.54,0,0,0-2.29,0l-10.33,6a2.55,2.55,0,0,0-1.15,2v11.92a2.55,2.55,0,0,0,1.15,2l10.32,6a2.55,2.55,0,0,0,2.29,0l10.32-6a2.54,2.54,0,0,0,1.15-2V671.74A2.54,2.54,0,0,0,753.14,669.76Z" transform="translate(-729.05 -663.52)"/>
    <g>
      <path d="M733.28,675.25a1.7,1.7,0,0,1,1.38.58l-0.53.74a0.9,0.9,0,0,0-.73-0.37,1.12,1.12,0,0,0-1,1.31,1.14,1.14,0,0,0,1,1.33,0.91,0.91,0,0,0,.73-0.38l0.53,0.75a1.67,1.67,0,0,1-1.38.58A2.3,2.3,0,0,1,733.28,675.25Z" transform="translate(-729.05 -663.52)"/>
      <path d="M736.83,678l-0.46.64v1.06h-1.08v-4.35h1.08v2l1.32-2H739l-1.38,2L739,679.7h-1.27Z" transform="translate(-729.05 -663.52)"/>
      <path d="M739.14,677.52a2,2,0,1,1,2,2.29A2,2,0,0,1,739.14,677.52Zm2.82,0a0.93,0.93,0,1,0-1.7,0,1.1,1.1,0,0,0,.85,1.33C741.7,678.86,742,678.24,742,677.52Z" transform="translate(-729.05 -663.52)"/>
      <path d="M743.82,681.36v-6h1.08v0.55a1.3,1.3,0,0,1,1.1-.65c1,0,1.6.85,1.6,2.27s-0.62,2.29-1.6,2.29a1.27,1.27,0,0,1-1.1-.66v2.21h-1.08Zm1.83-5.15a0.91,0.91,0,0,0-.75.5v1.63a0.94,0.94,0,0,0,.75.51c0.56,0,.85-0.57.85-1.33S746.21,676.21,745.65,676.21Z" transform="translate(-729.05 -663.52)"/>
      <path d="M748.13,677.52a2,2,0,1,1,2,2.29A2,2,0,0,1,748.13,677.52Zm2.82,0a0.93,0.93,0,1,0-1.7,0,1.1,1.1,0,0,0,.85,1.33C750.68,678.86,750.94,678.24,750.94,677.52Z" transform="translate(-729.05 -663.52)"/>
    </g>
  </g>
</svg>
