<svg id="Element" xmlns="http://www.w3.org/2000/svg" viewBox="0 0 25.24 28.36">
  <defs>
    <style>
      .cls-1 {
        fill: #ffcb31;
      }
    </style>
  </defs>
  <title>скоро1</title>
  <g>
    <path class="cls-1" d="M759.33,669.76l-10.32-6a2.54,2.54,0,0,0-2.29,0l-10.33,6a2.55,2.55,0,0,0-1.15,2v11.92a2.55,2.55,0,0,0,1.15,2l10.32,6a2.55,2.55,0,0,0,2.29,0l10.32-6a2.54,2.54,0,0,0,1.15-2V671.74A2.54,2.54,0,0,0,759.33,669.76Z" transform="translate(-735.23 -663.52)"/>
    <g>
      <path d="M739.4,677.29l1.32,0.15a1.85,1.85,0,0,1-.36.72,1.66,1.66,0,0,1-.64.47,2.49,2.49,0,0,1-1,.17,3.65,3.65,0,0,1-1-.11,1.69,1.69,0,0,1-.66-0.35,1.75,1.75,0,0,1-.43-0.57,2,2,0,0,1-.16-0.86,2,2,0,0,1,.19-0.93,1.69,1.69,0,0,1,.38-0.49,1.76,1.76,0,0,1,.5-0.32,2.77,2.77,0,0,1,1-.17,2.4,2.4,0,0,1,1.35.32,1.68,1.68,0,0,1,.65.93l-1.31.17a0.61,0.61,0,0,0-.22-0.35,0.73,0.73,0,0,0-.44-0.12,0.7,0.7,0,0,0-.56.25,1.12,1.12,0,0,0-.21.75,1,1,0,0,0,.21.68,0.7,0.7,0,0,0,.54.23,0.75,0.75,0,0,0,.46-0.14A0.84,0.84,0,0,0,739.4,677.29Z" transform="translate(-735.23 -663.52)"/>
      <path d="M745.4,678.71h-1.57l-0.53-1a0.69,0.69,0,0,0-.25-0.3,0.66,0.66,0,0,0-.3-0.06v1.36h-1.39v-3.63h1.39v1.31a0.37,0.37,0,0,0,.25-0.11,2.26,2.26,0,0,0,.24-0.42,2.49,2.49,0,0,1,.28-0.48,0.77,0.77,0,0,1,.31-0.23,1.65,1.65,0,0,1,.48-0.1l0.85,0v1H745.1a2.94,2.94,0,0,0-.43,0,0.48,0.48,0,0,0-.24.09,1,1,0,0,0-.21.29,1.78,1.78,0,0,1-.19.31,0.4,0.4,0,0,1-.23.12,1.06,1.06,0,0,1,.45.13,2.18,2.18,0,0,1,.48.63Z" transform="translate(-735.23 -663.52)"/>
      <path d="M745.68,676.91a1.82,1.82,0,0,1,.56-1.37,2.43,2.43,0,0,1,3.16.09,2,2,0,0,1-.11,2.63,2.13,2.13,0,0,1-1.54.54,2.16,2.16,0,0,1-1.42-.44A1.78,1.78,0,0,1,745.68,676.91Zm1.39,0a1.09,1.09,0,0,0,.2.72,0.64,0.64,0,0,0,1,0,1.13,1.13,0,0,0,.19-0.74,1.07,1.07,0,0,0-.19-0.7,0.61,0.61,0,0,0-.48-0.23,0.63,0.63,0,0,0-.5.23A1.08,1.08,0,0,0,747.08,676.9Z" transform="translate(-735.23 -663.52)"/>
      <path d="M750.53,680.09v-5h1.3v0.54a1.74,1.74,0,0,1,.5-0.46A1.43,1.43,0,0,1,753,675a1.3,1.3,0,0,1,1.13.56,2.31,2.31,0,0,1,.4,1.38,2,2,0,0,1-.43,1.38,1.42,1.42,0,0,1-1.1.48,1.53,1.53,0,0,1-.59-0.11,1.4,1.4,0,0,1-.47-0.33v1.73h-1.4Zm1.39-3.19a1,1,0,0,0,.18.64,0.58,0.58,0,0,0,.46.21,0.51,0.51,0,0,0,.41-0.2,1.08,1.08,0,0,0,.16-0.68,1,1,0,0,0-.17-0.65,0.52,0.52,0,0,0-.42-0.21,0.56,0.56,0,0,0-.44.21A1,1,0,0,0,751.92,676.91Z" transform="translate(-735.23 -663.52)"/>
      <path d="M755,676.91a1.82,1.82,0,0,1,.56-1.37,2.43,2.43,0,0,1,3.16.09,2,2,0,0,1-.11,2.63,2.13,2.13,0,0,1-1.54.54,2.16,2.16,0,0,1-1.42-.44A1.78,1.78,0,0,1,755,676.91Zm1.39,0a1.09,1.09,0,0,0,.2.72,0.64,0.64,0,0,0,1,0,1.13,1.13,0,0,0,.19-0.74,1.07,1.07,0,0,0-.19-0.7,0.61,0.61,0,0,0-.48-0.23,0.63,0.63,0,0,0-.5.23A1.08,1.08,0,0,0,756.41,676.9Z" transform="translate(-735.23 -663.52)"/>
    </g>
  </g>
</svg>
