<svg xmlns="http://www.w3.org/2000/svg" width="20" height="12" viewBox="0 0 20 12"><path fill="#fff" fill-rule="evenodd" d="M19.219 5.66c-1.516.711-2.71 1.526-3.58 2.444a7.077 7.077 0 0 0-1.764 3.205c-.578-.414-1.004-.858-1.277-1.33a3.046 3.046 0 0 1-.41-1.553c0-.578.124-1.072.374-1.483.25-.41.645-.763 1.184-1.06h-.164c-1.195 0-2.219.14-3.07.422-.852.28-1.66.746-2.426 1.394l-.586.516C6.32 9.27 5.285 9.797 4.395 9.797c-.688 0-1.239-.152-1.653-.457-.414-.305-.816-.883-1.207-1.735-.031-.07-.078-.171-.14-.304C.957 6.309.492 5.76 0 5.66c.5-.095.973-.641 1.418-1.641.086-.211.156-.375.21-.493.329-.71.704-1.216 1.126-1.517.422-.301.969-.451 1.64-.451.891 0 1.926.527 3.106 1.582.258.226.453.394.586.504.766.648 1.576 1.115 2.432 1.4.855.285 1.884.428 3.087.428h.165c-.54-.274-.938-.62-1.196-1.037-.258-.418-.386-.92-.386-1.506 0-.57.138-1.096.416-1.576.277-.481.7-.932 1.271-1.354.305 1.227.89 2.3 1.758 3.223.867.922 2.062 1.734 3.586 2.437z"/></svg>