<svg xmlns="http://www.w3.org/2000/svg" width="973" height="388" viewBox="0 0 973 388"><defs><filter id="a" width="102.6%" height="107.2%" x="-1.3%" y="-3.6%" filterUnits="objectBoundingBox"><feGaussianBlur in="SourceGraphic" stdDeviation="3.968"/></filter></defs><g fill="none" fill-rule="evenodd" stroke-linecap="round" stroke-linejoin="round"><path stroke="#FFF" d="M685.04 346c-24.993 0-47.55-14.848-57.462-37.831l-.45-1.05a64.717 64.717 0 0 1-2.002-5.706c-12.5-33.51-48.843-112.665-117.411-127.144a108.74 108.74 0 0 0-21.177-2.314 84.173 84.173 0 0 0-7.858.627c-58.68 7.518-97.542 74.662-119.81 129.67a62.483 62.483 0 0 1-57.66 38.229c-29.159 0-54.856-20.68-61.092-49.163l-1.082-4.94-.493.623c-3.927-11.149-9.262-21.498-15.895-30.826-37.08-52.191-104.442-59.502-131.681-60.221l-1.542.077c-.508 0-1.006-.039-1.504-.072l-1.245-.072h-.637l-1.188-.091C42.881 193.396 10 158.597 10 116.569 10 72.758 45.63 37.11 89.425 37.11c37.416 0 70.11 26.563 77.739 63.163l1.005 4.839.154-.182c3.86 19.035 15.784 56.268 51.878 83.324 31.004 23.251 64.052 26.902 80.996 27.008 17.58-.03 51.768-3.891 83.47-29.423 31.028-24.986 42.364-57.317 46.372-74.513l.335.508.843-6.08c5.11-25.825 27.939-44.568 54.283-44.568 22.771 0 43.541 14.33 51.678 35.666l1.518 3.972.095-.125c37.613 92.24 95.19 113.13 118.431 117.835a117.306 117.306 0 0 0 26.89 2.247l.943.057c11.178 0 21.67-1.705 31.358-5.078 66.275-23.041 83.429-114.955 87.106-142.582.072-.761.163-1.418.254-2.074 0 0 .206-1.615.24-1.902l.225-1.246C811.382 29.157 844.33 1 883.58 1 927.375 1 963 36.647 963 80.457c0 36.47-24.716 68.131-60.11 76.995l-1.84.46a85.433 85.433 0 0 1-3.769.738c-27.033 5.701-66.446 19.778-101.17 54.581-29.99 30.055-44.098 63.483-50.654 86.237C738.16 326.883 713.32 346 685.04 346"/><path stroke="#FFF" stroke-dasharray="2" d="M685.04 359c-24.993 0-47.55-14.848-57.462-37.831l-.45-1.05a64.717 64.717 0 0 1-2.002-5.706c-12.5-33.51-48.843-112.665-117.411-127.144a108.74 108.74 0 0 0-21.177-2.314 84.173 84.173 0 0 0-7.858.627c-58.68 7.518-97.542 74.662-119.81 129.67a62.483 62.483 0 0 1-57.66 38.229c-29.159 0-54.856-20.68-61.092-49.163l-1.082-4.94-.493.623c-3.927-11.149-9.262-21.498-15.895-30.826-37.08-52.191-104.442-59.502-131.681-60.221l-1.542.077c-.508 0-1.006-.039-1.504-.072l-1.245-.072h-.637l-1.188-.091C42.881 206.396 10 171.597 10 129.569 10 85.758 45.63 50.11 89.425 50.11c37.416 0 70.11 26.563 77.739 63.163l1.005 4.839.154-.182c3.86 19.035 15.784 56.268 51.878 83.324 31.004 23.251 64.052 26.902 80.996 27.008 17.58-.03 51.768-3.891 83.47-29.423 31.028-24.986 42.364-57.317 46.372-74.513l.335.508.843-6.08c5.11-25.825 27.939-44.568 54.283-44.568 22.771 0 43.541 14.33 51.678 35.666l1.518 3.972.095-.125c37.613 92.24 95.19 113.13 118.431 117.835a117.306 117.306 0 0 0 26.89 2.247l.943.057c11.178 0 21.67-1.705 31.358-5.078 66.275-23.041 83.429-114.955 87.106-142.582.072-.761.163-1.418.254-2.074 0 0 .206-1.615.24-1.902l.225-1.246C811.382 42.157 844.33 14 883.58 14 927.375 14 963 49.647 963 93.457c0 36.47-24.716 68.131-60.11 76.995l-1.84.46a85.433 85.433 0 0 1-3.769.738c-27.033 5.701-66.446 19.778-101.17 54.581-29.99 30.055-44.098 63.483-50.654 86.237C738.16 339.883 713.32 359 685.04 359"/><path stroke="#CEFF23" stroke-dasharray="2" d="M685.04 370c-24.993 0-47.55-14.848-57.462-37.831l-.45-1.05a64.717 64.717 0 0 1-2.002-5.706c-12.5-33.51-48.843-112.665-117.411-127.144a108.74 108.74 0 0 0-21.177-2.314 84.173 84.173 0 0 0-7.858.627c-58.68 7.518-97.542 74.662-119.81 129.67a62.483 62.483 0 0 1-57.66 38.229c-29.159 0-54.856-20.68-61.092-49.163l-1.082-4.94-.493.623c-3.927-11.149-9.262-21.498-15.895-30.826-37.08-52.191-104.442-59.502-131.681-60.221l-1.542.077c-.508 0-1.006-.039-1.504-.072l-1.245-.072h-.637l-1.188-.091C42.881 217.396 10 182.597 10 140.569 10 96.758 45.63 61.11 89.425 61.11c37.416 0 70.11 26.563 77.739 63.163l1.005 4.839.154-.182c3.86 19.035 15.784 56.268 51.878 83.324 31.004 23.251 64.052 26.902 80.996 27.008 17.58-.03 51.768-3.891 83.47-29.423 31.028-24.986 42.364-57.317 46.372-74.513l.335.508.843-6.08c5.11-25.825 27.939-44.568 54.283-44.568 22.771 0 43.541 14.33 51.678 35.666l1.518 3.972.095-.125c37.613 92.24 95.19 113.13 118.431 117.835a117.306 117.306 0 0 0 26.89 2.247l.943.057c11.178 0 21.67-1.705 31.358-5.078 66.275-23.041 83.429-114.955 87.106-142.582.072-.761.163-1.418.254-2.074 0 0 .206-1.615.24-1.902l.225-1.246C811.382 53.157 844.33 25 883.58 25 927.375 25 963 60.647 963 104.457c0 36.47-24.716 68.131-60.11 76.995l-1.84.46a85.433 85.433 0 0 1-3.769.738c-27.033 5.701-66.446 19.778-101.17 54.581-29.99 30.055-44.098 63.483-50.654 86.237C738.16 350.883 713.32 370 685.04 370"/><path stroke="#CEFF23" stroke-dasharray="2" d="M675.04 377c-24.993 0-47.55-14.848-57.462-37.831l-.45-1.05a64.717 64.717 0 0 1-2.002-5.706c-12.5-33.51-48.843-112.665-117.411-127.144a108.74 108.74 0 0 0-21.177-2.314 84.173 84.173 0 0 0-7.858.627c-58.68 7.518-97.542 74.662-119.81 129.67a62.483 62.483 0 0 1-57.66 38.229c-29.159 0-54.856-20.68-61.092-49.163l-1.082-4.94-.493.623c-3.927-11.149-9.262-21.498-15.895-30.826-37.08-52.191-104.442-59.502-131.681-60.221l-1.542.077c-.508 0-1.006-.039-1.504-.072l-1.245-.072h-.637l-1.188-.091C32.881 224.396 0 189.597 0 147.569 0 103.758 35.63 68.11 79.425 68.11c37.416 0 70.11 26.563 77.739 63.163l1.005 4.839.154-.182c3.86 19.035 15.784 56.268 51.878 83.324 31.004 23.251 64.052 26.902 80.996 27.008 17.58-.03 51.768-3.891 83.47-29.423 31.028-24.986 42.364-57.317 46.372-74.513l.335.508.843-6.08c5.11-25.825 27.939-44.568 54.283-44.568 22.771 0 43.541 14.33 51.678 35.666l1.518 3.972.095-.125c37.613 92.24 95.19 113.13 118.431 117.835a117.306 117.306 0 0 0 26.89 2.247l.943.057c11.178 0 21.67-1.705 31.358-5.078 66.275-23.041 83.429-114.955 87.106-142.582.072-.761.163-1.418.254-2.074 0 0 .206-1.615.24-1.902l.225-1.246C801.382 60.157 834.33 32 873.58 32 917.375 32 953 67.647 953 111.457c0 36.47-24.716 68.131-60.11 76.995l-1.84.46a85.433 85.433 0 0 1-3.769.738c-27.033 5.701-66.446 19.778-101.17 54.581-29.99 30.055-44.098 63.483-50.654 86.237C728.16 357.883 703.32 377 675.04 377" filter="url(#a)" transform="translate(10 1)"/></g></svg>