<svg xmlns="http://www.w3.org/2000/svg" width="837" height="344" viewBox="0 0 837 344"><defs><filter id="a" width="107.6%" height="120.9%" x="-3.8%" y="-10.5%" filterUnits="objectBoundingBox"><feGaussianBlur in="SourceGraphic" stdDeviation="10"/></filter></defs><g fill="none" fill-rule="evenodd"><path fill="#CEFF23" d="M558.874 319.034c-20.693 0-39.367-12.328-47.574-31.41l-.373-.872a53.836 53.836 0 0 1-1.657-4.738c-10.348-27.822-40.437-93.543-97.206-105.564a89.781 89.781 0 0 0-17.532-1.921c-2.24.075-4.393.25-6.507.52-48.58 6.242-80.755 61.99-99.192 107.661-8.116 19.27-26.857 31.74-47.736 31.74-24.142 0-45.417-17.168-50.58-40.817l-.895-4.102-.409.517c-3.25-9.256-7.668-17.849-13.159-25.594-30.7-43.332-86.469-49.403-109.02-50l-1.277.064c-.42 0-.833-.032-1.245-.06l-1.031-.06h-.528l-.983-.075C27.222 192.33 0 163.438 0 128.543c0-36.375 29.498-65.971 65.757-65.971 30.977 0 58.045 22.054 64.36 52.442l.833 4.017.127-.15c3.196 15.804 13.068 46.717 42.951 69.18 25.668 19.306 53.03 22.337 67.057 22.425 14.555-.024 42.86-3.23 69.107-24.43 25.688-20.744 35.073-47.588 38.391-61.865l.278.422.698-5.048c4.23-21.442 23.13-37.004 44.941-37.004 18.853 0 36.048 11.898 42.784 29.612l1.257 3.298.08-.103c31.14 76.584 78.808 93.928 98.05 97.835a96.853 96.853 0 0 0 22.262 1.865l.781.048c9.254 0 17.941-1.416 25.962-4.217 54.87-19.13 69.071-95.444 72.116-118.38.06-.633.135-1.178.21-1.723 0 0 .17-1.341.198-1.58l.187-1.034c5.087-32.214 32.365-55.593 64.86-55.593C759.506 32.59 789 62.186 789 98.561c0 30.28-20.462 56.567-49.766 63.926l-1.523.382a70.48 70.48 0 0 1-3.12.613c-22.382 4.733-55.012 16.42-83.761 45.317-24.828 24.954-36.508 52.709-41.936 71.6-6.042 22.762-26.608 38.635-50.02 38.635" filter="url(#a)" transform="translate(24)"/><path fill="#A7E014" d="M582.874 310.457c-20.693 0-39.367-12.327-47.574-31.41l-.373-.871a53.836 53.836 0 0 1-1.657-4.738c-10.348-27.822-40.437-93.543-97.206-105.564a89.781 89.781 0 0 0-17.532-1.922c-2.24.076-4.393.251-6.507.522-48.58 6.241-80.755 61.989-99.192 107.66-8.116 19.27-26.857 31.74-47.736 31.74-24.142 0-45.417-17.168-50.58-40.818l-.895-4.1-.409.516c-3.25-9.257-7.668-17.85-13.159-25.594-30.7-43.333-86.469-49.403-109.02-50l-1.277.064c-.42 0-.833-.032-1.245-.06l-1.031-.06h-.528l-.983-.075C51.222 183.754 24 154.862 24 119.967c0-36.375 29.498-65.972 65.757-65.972 30.977 0 58.045 22.055 64.36 52.443l.833 4.017.127-.15c3.196 15.804 13.068 46.717 42.951 69.18 25.668 19.306 53.03 22.337 67.057 22.425 14.555-.024 42.86-3.23 69.107-24.43 25.688-20.745 35.073-47.588 38.391-61.865l.278.421.698-5.048c4.23-21.441 23.13-37.003 44.941-37.003 18.853 0 36.048 11.898 42.784 29.612l1.257 3.298.08-.103c31.14 76.584 78.808 93.928 98.05 97.835a96.853 96.853 0 0 0 22.262 1.865l.781.048c9.254 0 17.941-1.416 25.962-4.217 54.87-19.13 69.071-95.444 72.116-118.381.06-.633.135-1.178.21-1.723 0 0 .17-1.34.198-1.579l.187-1.034c5.087-32.214 32.365-55.593 64.86-55.593C783.506 24.013 813 53.61 813 89.984c0 30.281-20.462 56.568-49.766 63.927l-1.523.382a70.45 70.45 0 0 1-3.12.612c-22.382 4.734-55.012 16.422-83.761 45.318-24.828 24.954-36.508 52.708-41.936 71.6-6.042 22.762-26.608 38.634-50.02 38.634"/><path fill="#BAF01A" d="M582.874 303.596c-20.693 0-39.367-12.327-47.574-31.41l-.373-.871a53.836 53.836 0 0 1-1.657-4.738c-10.348-27.822-40.437-93.543-97.206-105.564a89.781 89.781 0 0 0-17.532-1.922c-2.24.076-4.393.251-6.507.522-48.58 6.241-80.755 61.989-99.192 107.66-8.116 19.27-26.857 31.74-47.736 31.74-24.142 0-45.417-17.168-50.58-40.818l-.895-4.1-.409.516c-3.25-9.257-7.668-17.849-13.159-25.594-30.7-43.333-86.469-49.403-109.02-50l-1.277.064c-.42 0-.833-.032-1.245-.06l-1.031-.06h-.528l-.983-.075C51.222 176.893 24 148.001 24 113.106c0-36.375 29.498-65.971 65.757-65.971 30.977 0 58.045 22.054 64.36 52.442l.833 4.017.127-.15c3.196 15.804 13.068 46.717 42.951 69.18 25.668 19.306 53.03 22.337 67.057 22.425 14.555-.024 42.86-3.23 69.107-24.43 25.688-20.745 35.073-47.588 38.391-61.865l.278.421.698-5.048c4.23-21.441 23.13-37.003 44.941-37.003 18.853 0 36.048 11.898 42.784 29.612l1.257 3.298.08-.103c31.14 76.584 78.808 93.928 98.05 97.835a96.853 96.853 0 0 0 22.262 1.865l.781.048c9.254 0 17.941-1.416 25.962-4.217 54.87-19.13 69.071-95.444 72.116-118.381.06-.633.135-1.178.21-1.723 0 0 .17-1.34.198-1.579l.187-1.034c5.087-32.214 32.365-55.593 64.86-55.593C783.506 17.152 813 46.75 813 83.124c0 30.28-20.462 56.567-49.766 63.926l-1.523.382a70.48 70.48 0 0 1-3.12.613c-22.382 4.733-55.012 16.42-83.761 45.317-24.828 24.954-36.508 52.709-41.936 71.6-6.042 22.762-26.608 38.634-50.02 38.634"/><path fill="#CEFF23" d="M582.874 293.305c-20.693 0-39.367-12.328-47.574-31.41l-.373-.871a53.836 53.836 0 0 1-1.657-4.738c-10.348-27.822-40.437-93.543-97.206-105.565a89.781 89.781 0 0 0-17.532-1.92c-2.24.075-4.393.25-6.507.52-48.58 6.242-80.755 61.99-99.192 107.66-8.116 19.27-26.857 31.741-47.736 31.741-24.142 0-45.417-17.169-50.58-40.818l-.895-4.101-.409.517c-3.25-9.257-7.668-17.85-13.159-25.595-30.7-43.332-86.469-49.402-109.02-50l-1.277.065c-.42 0-.833-.032-1.245-.06l-1.031-.06h-.528l-.983-.075C51.222 166.602 24 137.709 24 102.815c0-36.376 29.498-65.972 65.757-65.972 30.977 0 58.045 22.054 64.36 52.442l.833 4.018.127-.151c3.196 15.804 13.068 46.717 42.951 69.181 25.668 19.305 53.03 22.337 67.057 22.424 14.555-.024 42.86-3.23 69.107-24.429 25.688-20.745 35.073-47.589 38.391-61.866l.278.422.698-5.048c4.23-21.441 23.13-37.003 44.941-37.003 18.853 0 36.048 11.898 42.784 29.612l1.257 3.298.08-.104c31.14 76.585 78.808 93.929 98.05 97.835a96.853 96.853 0 0 0 22.262 1.866l.781.048c9.254 0 17.941-1.417 25.962-4.217 54.87-19.13 69.071-95.444 72.116-118.381.06-.633.135-1.178.21-1.723 0 0 .17-1.34.198-1.58l.187-1.033c5.087-32.214 32.365-55.593 64.86-55.593C783.506 6.86 813 36.457 813 72.832c0 30.28-20.462 56.567-49.766 63.927l-1.523.382c-1.067.234-2.09.433-3.12.612-22.382 4.734-55.012 16.421-83.761 45.318-24.828 24.954-36.508 52.708-41.936 71.6-6.042 22.762-26.608 38.634-50.02 38.634"/><path fill="#000" d="M582.874 286.444c-20.693 0-39.367-12.328-47.574-31.41l-.373-.871a53.836 53.836 0 0 1-1.657-4.738c-10.348-27.822-40.437-93.543-97.206-105.564a89.781 89.781 0 0 0-17.532-1.922c-2.24.076-4.393.25-6.507.521-48.58 6.242-80.755 61.99-99.192 107.66-8.116 19.27-26.857 31.741-47.736 31.741-24.142 0-45.417-17.169-50.58-40.818l-.895-4.101-.409.517c-3.25-9.257-7.668-17.85-13.159-25.595-30.7-43.332-86.469-49.402-109.02-50l-1.277.065c-.42 0-.833-.032-1.245-.06l-1.031-.06h-.528l-.983-.075C51.222 159.74 24 130.848 24 95.954c0-36.375 29.498-65.972 65.757-65.972 30.977 0 58.045 22.054 64.36 52.442l.833 4.018.127-.151c3.196 15.804 13.068 46.718 42.951 69.181 25.668 19.306 53.03 22.337 67.057 22.424 14.555-.024 42.86-3.23 69.107-24.429 25.688-20.745 35.073-47.588 38.391-61.866l.278.422.698-5.048c4.23-21.441 23.13-37.003 44.941-37.003 18.853 0 36.048 11.898 42.784 29.612l1.257 3.298.08-.104c31.14 76.585 78.808 93.929 98.05 97.835a96.853 96.853 0 0 0 22.262 1.866l.781.048c9.254 0 17.941-1.416 25.962-4.217 54.87-19.13 69.071-95.444 72.116-118.381.06-.633.135-1.178.21-1.723 0 0 .17-1.34.198-1.58l.187-1.033C687.474 23.379 714.752 0 747.247 0 783.506 0 813 29.596 813 65.971c0 30.28-20.462 56.567-49.766 63.927l-1.523.382c-1.067.234-2.09.433-3.12.612-22.382 4.734-55.012 16.421-83.761 45.318-24.828 24.954-36.508 52.708-41.936 71.6-6.042 22.762-26.608 38.634-50.02 38.634"/></g></svg>