<svg xmlns="http://www.w3.org/2000/svg" width="21" height="12" viewBox="0 0 21 12"><path fill-rule="evenodd" d="M20.133 5.668c-1.516.71-2.71 1.525-3.58 2.443a7.077 7.077 0 0 0-1.764 3.205c-.578-.414-1.004-.857-1.277-1.33a3.046 3.046 0 0 1-.41-1.552c0-.579.125-1.073.375-1.483.25-.41.644-.763 1.183-1.06h-.164c-1.195 0-2.219.14-3.07.421-.852.282-1.66.747-2.426 1.395l-.586.516C7.234 9.277 6.2 9.805 5.31 9.805c-.688 0-1.239-.153-1.653-.457-.414-.305-.816-.883-1.207-1.735-.031-.07-.078-.172-.14-.304-.438-.993-.903-1.54-1.395-1.641.5-.094.973-.64 1.418-1.64.086-.212.156-.376.211-.493.328-.71.703-1.217 1.125-1.517.422-.301.969-.452 1.64-.452.891 0 1.926.528 3.106 1.582.258.227.453.395.586.504.766.649 1.576 1.116 2.432 1.4.855.286 1.884.428 3.088.428h.164c-.54-.273-.938-.619-1.196-1.037-.258-.418-.386-.92-.386-1.505 0-.57.138-1.096.416-1.577.277-.48.7-.931 1.271-1.353.305 1.226.89 2.3 1.758 3.222.867.922 2.062 1.735 3.586 2.438z"/></svg>