<?xml version="1.0" standalone="no"?><!DOCTYPE svg PUBLIC "-//W3C//DTD SVG 1.1//EN" "http://www.w3.org/Graphics/SVG/1.1/DTD/svg11.dtd" ><svg xmlns="http://www.w3.org/2000/svg"><metadata></metadata><defs><font id="ParaTypeLtd: Futura PT Demi: 2013" horiz-adv-x="1170"><font-face font-family="Futura PT Demi" font-weight="500" font-stretch="normal" units-per-em="1000" panose-1="2 11 7 2 2 2 4 2 3 3" ascent="982" descent="-300" x-height="3" bbox="-368 -270 1140 960" underline-thickness="50" underline-position="-175" unicode-range="U+0020-fb02" /><missing-glyph horiz-adv-x="233"  /><glyph glyph-name="space" unicode=" " d="" /><glyph glyph-name="exclam" unicode="!" d="M188 203 l-124 0 l0 464 l124 0 l0 -464 ZM70.5 9.5 q-22.5 22.5 -22.5 55.5 q0 33 22.5 55.5 q22.5 22.5 55.5 22.5 q33 0 55.5 -22.5 q22.5 -22.5 22.5 -55.5 q0 -33 -22.5 -55.5 q-22.5 -22.5 -55.5 -22.5 q-33 0 -55.5 22.5 Z" /><glyph glyph-name="quotedbl" unicode="&quot;" d="M172 667 l-23 -268 l-84 0 l-23 268 l130 0 ZM346 667 l-23 -268 l-84 0 l-23 268 l130 0 Z" /><glyph glyph-name="numbersign" unicode="#" d="M420 0 l-122 0 l30 186 l-94 0 l-30 -186 l-122 0 l30 186 l-102 0 l17 104 l102 0 l16 101 l-102 0 l17 104 l102 0 l28 172 l122 0 l-28 -172 l94 0 l28 172 l122 0 l-28 -172 l102 0 l-17 -104 l-102 0 l-16 -101 l102 0 l-17 -104 l-102 0 l-30 -186 ZM345 290 l16 101 l-94 0 l-16 -101 l94 0 Z" /><glyph glyph-name="dollar" unicode="$" d="M248 765 l82 0 l0 -100 q42 -3 82 -23 q41 -22 68 -52 l-66 -84 q-44 54 -105 54 q-45 0 -68 -24 q-19 -19 -19 -47 q0 -28 26 -47 q15 -11 82 -41 q5 -2 23.5 -10 q18.5 -8 27.5 -12.5 q9 -4.5 23.5 -12 q14.5 -7.5 25.5 -16 q11 -8.5 21 -17.5 q51 -48 51 -124 q0 -91 -60 -149 q-45 -45 -112 -58 l0 -112 l-82 0 l0 110 q-70 8 -127 46 q-43 29 -73 73 l75 77 q27 -40 57 -60 q38 -28 91 -28 q49 0 76 26 q25 25 25 62 q0 30 -23 55 q-12 13 -72 39 q-90 36 -133 77 q-47 44 -47 115 q0 71 45 122 q43 47 106 61 l0 100 Z" /><glyph glyph-name="percent" unicode="%" d="M75.5 630.5 q45.5 44.5 122.5 44.5 q77 0 122.5 -44.5 q45.5 -44.5 45.5 -113.5 q0 -69 -45.5 -113.5 q-45.5 -44.5 -122.5 -44.5 q-77 0 -122.5 44.5 q-45.5 44.5 -45.5 113.5 q0 69 45.5 113.5 ZM137.5 455 q23.5 -24 60.5 -24 q37 0 60.5 24 q23.5 24 23.5 62 q0 38 -23.5 62 q-23.5 24 -60.5 24 q-37 0 -60.5 -24 q-23.5 -24 -23.5 -62 q0 -38 23.5 -62 ZM162 3 l397 686 l53 -30 l-397 -687 l-53 31 ZM453.5 261.5 q45.5 44.5 122.5 44.5 q77 0 122.5 -44.5 q45.5 -44.5 45.5 -113.5 q0 -69 -45.5 -113.5 q-45.5 -44.5 -122.5 -44.5 q-77 0 -122.5 44.5 q-45.5 44.5 -45.5 113.5 q0 69 45.5 113.5 ZM515.5 86 q23.5 -24 60.5 -24 q37 0 60.5 24 q23.5 24 23.5 62 q0 38 -23.5 62 q-23.5 24 -60.5 24 q-37 0 -60.5 -24 q-23.5 -24 -23.5 -62 q0 -38 23.5 -62 Z" /><glyph glyph-name="ampersand" unicode="&amp;" d="M578 324 l76 -75 q-36 -45 -72 -81 l-15 -15 l135 -153 l-161 0 l-65 75 q-100 -90 -215 -90 q-97 0 -153 57 q-56 57 -56 134 q0 105 107 169 l52 31 q-67 67 -67 140 q0 68 48 117 q48 49 136 49 q83 0 131 -47 q48 -47 48 -112 q0 -91 -94 -148 l-28 -17 l110 -126 q54 53 83 92 ZM403 157 l-126 145 q-95 -50 -95 -115 q0 -38 28 -63 q28 -25 70 -25 q65 0 123 58 ZM294 463 l29 -36 l30 21 q46 32 46 74 q0 27 -16.5 46.5 q-16.5 19.5 -48.5 19.5 q-33 0 -50.5 -18.5 q-17.5 -18.5 -17.5 -43.5 q0 -29 28 -63 Z" /><glyph glyph-name="quotesingle" unicode="&#39;" d="M172 667 l-23 -268 l-84 0 l-23 268 l130 0 Z" /><glyph glyph-name="parenleft" unicode="(" d="M264 -127 l-97 -53 q-48 90 -74 206 q-25 114 -25 254 q0 131 23 240 q26 119 76 220 l97 -53 q-33 -68 -55 -168 q-25 -122 -25 -239 q0 -128 25 -243 q19 -91 55 -164 Z" /><glyph glyph-name="parenright" unicode=")" d="M153 -180 l-97 53 q36 73 55 164 q25 115 25 243 q0 117 -25 239 q-22 100 -55 168 l97 53 q50 -101 76 -220 q23 -109 23 -240 q0 -140 -25 -254 q-26 -116 -74 -206 Z" /><glyph glyph-name="asterisk" unicode="*" d="M144 681 l114 -58 l-20 126 l92 0 l-20 -126 l114 59 l28 -88 l-127 -20 l91 -90 l-75 -54 l-57 115 l-57 -116 l-75 54 l91 91 l-127 19 l28 88 Z" /><glyph glyph-name="plus" unicode="+" d="M33 283 l0 112 l156 0 l0 156 l122 0 l0 -156 l156 0 l0 -112 l-156 0 l0 -156 l-122 0 l0 156 l-156 0 Z" /><glyph glyph-name="comma" unicode="," d="M4 -131 l106 269 l112 -13 l-141 -265 l-77 9 Z" /><glyph glyph-name="hyphen" unicode="-" d="M50 174 l0 112 l260 0 l0 -112 l-260 0 Z" /><glyph glyph-name="period" unicode="." d="M70.5 9.5 q-22.5 22.5 -22.5 55.5 q0 33 22.5 55.5 q22.5 22.5 55.5 22.5 q33 0 55.5 -22.5 q22.5 -22.5 22.5 -55.5 q0 -33 -22.5 -55.5 q-22.5 -22.5 -55.5 -22.5 q-33 0 -55.5 22.5 Z" /><glyph glyph-name="slash" unicode="/" d="M-20 -170 l525 929 l88 -40 l-525 -929 l-88 40 Z" /><glyph glyph-name="zero" unicode="0" d="M466.5 77.5 q-75.5 -92.5 -182.5 -92.5 q-107 0 -182.5 92.5 q-75.5 92.5 -75.5 256.5 q0 163 75.5 255.5 q75.5 92.5 182.5 92.5 q107 0 182.5 -92.5 q75.5 -92.5 75.5 -256.5 q0 -163 -75.5 -255.5 ZM372.5 511.5 q-39.5 58.5 -88.5 58.5 q-49 0 -88.5 -58.5 q-39.5 -58.5 -39.5 -177.5 q0 -119 39 -178 q39 -59 89 -59 q50 0 89 59 q39 59 39 178 q0 119 -39.5 177.5 Z" /><glyph glyph-name="one" unicode="1" d="M228 0 l0 555 l-96 0 l0 112 l226 0 l0 -667 l-130 0 Z" /><glyph glyph-name="two" unicode="2" d="M18 0 l196 223 q96 112 114 139 q39 58 39 107 q0 45 -28.5 73 q-28.5 28 -70.5 28 q-48 0 -76 -32.5 q-28 -32.5 -30 -78.5 l-134 0 q4 101 69 162 q65 61 165 61 q110 0 172.5 -63 q62.5 -63 62.5 -149 q0 -48 -22 -96 q-22 -48 -42 -72.5 q-20 -24.5 -57 -64.5 l-115 -125 l241 0 l0 -112 l-484 0 Z" /><glyph glyph-name="three" unicode="3" d="M173 493 l-122 0 q9 89 69 139 q60 50 148 50 q96 0 152.5 -50 q56.5 -50 56.5 -134 q0 -97 -77 -140 q102 -42 102 -159 q0 -100 -67.5 -157 q-67.5 -57 -170.5 -57 q-98 0 -165 56.5 q-67 56.5 -75 150.5 l130 0 q6 -43 35 -69 q29 -26 76 -26 q52 0 79.5 31.5 q27.5 31.5 27.5 74.5 q0 42 -27.5 73 q-27.5 31 -83.5 31 l-17 0 l0 94 l18 0 q45 0 68 26.5 q23 26.5 23 64.5 q0 40 -24 64 q-24 24 -64 24 q-37 0 -63.5 -23 q-26.5 -23 -28.5 -64 Z" /><glyph glyph-name="four" unicode="4" d="M470 667 l0 -437 l78 0 l0 -104 l-78 0 l0 -126 l-122 0 l0 126 l-326 0 l0 58 l331 483 l117 0 ZM176 230 l172 0 l0 254 l-172 -254 Z" /><glyph glyph-name="five" unicode="5" d="M472 667 l0 -112 l-222 0 l-24 -105 q26 4 45 4 q107 0 172 -67 q59 -60 59 -160 q0 -106 -68 -174 q-68 -68 -183 -68 q-87 0 -144 28 q-43 21 -81 57 l43 112 q29 -39 69 -60 q46 -25 97 -25 q64 0 102 40 q35 37 35 97 q0 57 -39 92 q-39 34 -104 34 q-72 0 -144 -43 l79 350 l308 0 Z" /><glyph glyph-name="six" unicode="6" d="M310 685 l105 -51 l-162 -211 q36 16 73 16 q88 0 147 -57 q63 -59 63 -160 q0 -95 -61 -161 q-70 -76 -190 -76 q-122 0 -190 68 q-65 65 -65 162 q0 97 84 208 l196 262 ZM283 89 q53 0 87 34 q36 36 36 88 q0 57 -37 92 q-33 32 -86 32 q-53 0 -87 -36 q-36 -37 -36 -87 q0 -56 37 -90 q35 -33 86 -33 Z" /><glyph glyph-name="seven" unicode="7" d="M49 29 l307 526 l-310 0 l0 112 l514 0 l-401 -687 l-110 49 Z" /><glyph glyph-name="eight" unicode="8" d="M397 348 q55 -18 87 -63 q32 -45 32 -103 q0 -85 -63.5 -141 q-63.5 -56 -168.5 -56 q-105 0 -168.5 56 q-63.5 56 -63.5 141 q0 58 32 103 q32 45 87 63 q-42 21 -69 58.5 q-27 37.5 -27 89.5 q0 78 55 132 q55 54 154 54 q99 0 154 -54 q55 -54 55 -132 q0 -52 -27 -89.5 q-27 -37.5 -69 -58.5 ZM217 428 q26 -26 67 -26 q41 0 67 26 q26 26 26 67 q0 41 -26 67 q-26 26 -67 26 q-41 0 -67 -26 q-26 -26 -26 -67 q0 -41 26 -67 ZM211 116.5 q29 -29.5 73 -29.5 q44 0 73 29.5 q29 29.5 29 74.5 q0 45 -29 74.5 q-29 29.5 -73 29.5 q-44 0 -73 -29.5 q-29 -29.5 -29 -74.5 q0 -45 29 -74.5 Z" /><glyph glyph-name="nine" unicode="9" d="M258 -18 l-105 51 l159 208 q-39 -13 -71 -13 q-37 0 -77.5 15 q-40.5 15 -68.5 42 q-63 59 -63 160 q0 95 61 161 q70 76 190 76 q122 0 190 -68 q65 -65 65 -162 q0 -97 -84 -208 l-196 -262 ZM285 578 q-53 0 -87 -34 q-36 -36 -36 -88 q0 -57 37 -92 q33 -32 86 -32 q52 0 87 36 q36 38 36 87 q0 55 -37 90 q-35 33 -86 33 Z" /><glyph glyph-name="colon" unicode=":" d="M70.5 313.5 q-22.5 22.5 -22.5 55.5 q0 33 22.5 55.5 q22.5 22.5 55.5 22.5 q33 0 55.5 -22.5 q22.5 -22.5 22.5 -55.5 q0 -33 -22.5 -55.5 q-22.5 -22.5 -55.5 -22.5 q-33 0 -55.5 22.5 ZM70.5 8.5 q-22.5 22.5 -22.5 55.5 q0 33 22.5 55.5 q22.5 22.5 55.5 22.5 q33 0 55.5 -22.5 q22.5 -22.5 22.5 -55.5 q0 -33 -22.5 -55.5 q-22.5 -22.5 -55.5 -22.5 q-33 0 -55.5 22.5 Z" /><glyph glyph-name="semicolon" unicode=";" d="M106.5 313.5 q-22.5 22.5 -22.5 55.5 q0 33 22.5 55.5 q22.5 22.5 55.5 22.5 q33 0 55.5 -22.5 q22.5 -22.5 22.5 -55.5 q0 -33 -22.5 -55.5 q-22.5 -22.5 -55.5 -22.5 q-33 0 -55.5 22.5 ZM4 -131 l106 269 l112 -13 l-141 -265 l-77 9 Z" /><glyph glyph-name="less" unicode="&lt;" d="M161 334 l306 -150 l0 -120 l-434 218 l0 104 l434 218 l0 -120 l-306 -150 Z" /><glyph glyph-name="equal" unicode="=" d="M33 372 l0 106 l434 0 l0 -106 l-434 0 ZM33 200 l0 106 l434 0 l0 -106 l-434 0 Z" /><glyph glyph-name="greater" unicode="&gt;" d="M339 334 l-306 150 l0 120 l434 -218 l0 -104 l-434 -218 l0 120 l306 150 Z" /><glyph glyph-name="question" unicode="?" d="M283 203 l-124 0 l0 196 q16 -4 39 -4 q60 0 94 34 q26 28 26 67 q0 37 -21 58 q-20 20 -52 20 q-33 0 -51 -18 q-22 -20 -22 -65 l-130 0 q0 81 50 135 q54 56 158 56 q94 0 146 -51 q52 -50 52 -138 q0 -78 -51 -129 q-47 -47 -114 -56 l0 -105 ZM165.5 7.5 q-22.5 22.5 -22.5 55.5 q0 33 22.5 55.5 q22.5 22.5 55.5 22.5 q33 0 55.5 -22.5 q22.5 -22.5 22.5 -55.5 q0 -33 -22.5 -55.5 q-22.5 -22.5 -55.5 -22.5 q-33 0 -55.5 22.5 Z" /><glyph glyph-name="at" unicode="@" d="M468 450 l8 42 l84 0 l-40 -203 q-4 -20 -4 -34 q0 -34 26 -34 q22 0 46 33 q39 53 39 125 q0 90 -61.5 157 q-61.5 67 -177.5 67 q-87 0 -151 -43.5 q-64 -43.5 -93 -104.5 q-29 -61 -29 -128 q0 -83 44 -151.5 q44 -68.5 117 -95.5 q48 -17 111 -17 q96 0 187 33 l19 -76 q-95 -32 -200 -32 q-160 0 -255 88 q-53 49 -79 115.5 q-26 66.5 -26 136.5 q0 155 101.5 252.5 q101.5 97.5 253.5 97.5 q147 0 230 -86 q83 -86 83 -206 q0 -100 -50.5 -166.5 q-50.5 -66.5 -114.5 -66.5 q-28 0 -49.5 14.5 q-21.5 14.5 -27.5 41.5 q-46 -64 -123 -64 q-60 0 -100.5 41.5 q-40.5 41.5 -40.5 115.5 q0 92 53.5 146 q53.5 54 120.5 54 q69 0 99 -52 ZM358 230 q34 0 61 31 q27 31 27 80 q0 31 -16.5 52.5 q-16.5 21.5 -48.5 21.5 q-38 0 -64.5 -31.5 q-26.5 -31.5 -26.5 -77.5 q0 -37 20.5 -56.5 q20.5 -19.5 47.5 -19.5 Z" /><glyph glyph-name="A" unicode="a" d="M530 0 l-59 140 l-269 0 l-59 -140 l-141 0 l287 667 l102 0 l279 -667 l-140 0 ZM243 246 l190 0 l-95 240 l-95 -240 Z" /><glyph glyph-name="B" unicode="b" d="M76 667 l165 0 q109 0 163 -42 q62 -48 62 -138 q0 -89 -75 -131 q51 -8 87 -42 q48 -46 48 -125 q0 -84 -57 -135 q-61 -54 -169 -54 l-224 0 l0 667 ZM206 561 l0 -171 l37 0 q10 0 18.5 0.5 q8.5 0.5 25 5.5 q16.5 5 28 13.5 q11.5 8.5 20.5 26 q9 17.5 9 41.5 q0 43 -28 63.5 q-28 20.5 -72 20.5 l-38 0 ZM206 290 l0 -184 l56 0 q58 0 89 18 q41 24 41 77 q0 54 -49 76 q-28 13 -89 13 l-48 0 Z" /><glyph glyph-name="C" unicode="c" d="M560 176 l0 -152 q-74 -39 -165 -39 q-146 0 -244 93 q-107 103 -107 255 q0 162 107 261 q94 88 245 88 q88 0 164 -41 l0 -152 q-65 75 -161 75 q-98 0 -159.5 -68.5 q-61.5 -68.5 -61.5 -164.5 q0 -105 68 -166.5 q68 -61.5 158 -61.5 q94 0 156 73 Z" /><glyph glyph-name="D" unicode="d" d="M76 667 l174 0 q79 0 138 -13.5 q59 -13.5 110 -51.5 q61 -46 94.5 -116 q33.5 -70 33.5 -153 q0 -175 -134 -269 q-54 -38 -110 -51 q-56 -13 -134 -13 l-172 0 l0 667 ZM206 555 l0 -443 l40 0 q102 0 163 44 q39 28 61 75.5 q22 47.5 22 101.5 q0 53 -21.5 100.5 q-21.5 47.5 -60.5 77.5 q-59 44 -164 44 l-40 0 Z" /><glyph glyph-name="E" unicode="e" d="M446 667 l0 -112 l-240 0 l0 -149 l230 0 l0 -112 l-230 0 l0 -182 l240 0 l0 -112 l-370 0 l0 667 l370 0 Z" /><glyph glyph-name="F" unicode="f" d="M430 667 l0 -112 l-224 0 l0 -149 l210 0 l0 -112 l-210 0 l0 -294 l-130 0 l0 667 l354 0 Z" /><glyph glyph-name="G" unicode="g" d="M414 245 l0 112 l306 0 l0 -8 q0 -179 -98 -276 q-88 -88 -237 -88 q-152 0 -242 90 q-99 99 -99 257 q0 150 98 248 q100 102 263 102 q88 0 154 -35 q77 -39 125 -122 l-113 -61 q-27 52 -78 79 q-42 21 -94 21 q-94 0 -154 -59 q-67 -65 -67 -176 q0 -105 66 -169 q59 -57 148 -57 q78 0 131 40 q48 37 63 102 l-172 0 Z" /><glyph glyph-name="H" unicode="h" d="M206 667 l0 -258 l282 0 l0 258 l130 0 l0 -667 l-130 0 l0 297 l-282 0 l0 -297 l-130 0 l0 667 l130 0 Z" /><glyph glyph-name="I" unicode="i" d="M76 667 l130 0 l0 -667 l-130 0 l0 667 Z" /><glyph glyph-name="J" unicode="j" d="M184 667 l130 0 l0 -450 q0 -149 -78 -202 q-46 -30 -109 -30 q-88 0 -153 62 l79 95 q25 -36 65 -36 q36 0 51 23 q15 22 15 108 l0 430 Z" /><glyph glyph-name="K" unicode="k" d="M206 667 l0 -282 l245 282 l164 0 l-282 -308 l297 -359 l-172 0 l-237 299 l-15 -15 l0 -284 l-130 0 l0 667 l130 0 Z" /><glyph glyph-name="L" unicode="l" d="M76 667 l130 0 l0 -555 l206 0 l0 -112 l-336 0 l0 667 Z" /><glyph glyph-name="M" unicode="m" d="M42 0 l124 667 l94 0 l177 -424 l185 424 l94 0 l112 -667 l-132 0 l-60 411 l-179 -411 l-44 0 l-171 411 l-68 -411 l-132 0 Z" /><glyph glyph-name="N" unicode="n" d="M206 0 l-130 0 l0 667 l90 0 l406 -445 l0 445 l130 0 l0 -667 l-90 0 l-406 446 l0 -446 Z" /><glyph glyph-name="O" unicode="o" d="M143.5 584 q99.5 98 256.5 98 q157 0 256.5 -98 q99.5 -98 99.5 -251 q0 -153 -99.5 -250.5 q-99.5 -97.5 -256.5 -97.5 q-157 0 -256.5 97.5 q-99.5 97.5 -99.5 250.5 q0 153 99.5 251 ZM240 167.5 q62 -64.5 160 -64.5 q98 0 160 64.5 q62 64.5 62 165.5 q0 101 -62.5 166 q-62.5 65 -159.5 65 q-97 0 -159.5 -65 q-62.5 -65 -62.5 -166 q0 -101 62 -165.5 Z" /><glyph glyph-name="P" unicode="p" d="M76 667 l194 0 q62 0 101.5 -10.5 q39.5 -10.5 74.5 -40.5 q68 -60 68 -161 q0 -94 -55 -149 q-59 -59 -169 -59 l-84 0 l0 -247 l-130 0 l0 667 ZM206 555 l0 -196 l53 0 q57 0 85 21 q36 28 36 78 q0 49 -37 76 q-30 21 -92 21 l-45 0 Z" /><glyph glyph-name="Q" unicode="q" d="M645 -26 l-55 59 q-81 -48 -190 -48 q-157 0 -256.5 97.5 q-99.5 97.5 -99.5 250.5 q0 153 99.5 251 q99.5 98 256.5 98 q157 0 256.5 -98 q99.5 -98 99.5 -251 q0 -139 -88 -237 l108 -109 l-131 -13 ZM501 268 l77 -79 q44 59 44 144 q0 101 -62.5 166 q-62.5 65 -159.5 65 q-97 0 -159.5 -65 q-62.5 -65 -62.5 -166 q0 -101 62.5 -165.5 q62.5 -64.5 162.5 -64.5 q55 0 99 22 l-136 132 l135 11 Z" /><glyph glyph-name="R" unicode="r" d="M76 667 l193 0 q110 0 170 -50 q66 -56 66 -150 q0 -104 -78 -157 q-30 -21 -73 -29 l208 -281 l-162 0 l-178 268 l-16 0 l0 -268 l-130 0 l0 667 ZM206 561 l0 -201 l37 0 q16 0 31.5 2.5 q15.5 2.5 40.5 11 q25 8.5 40.5 31 q15.5 22.5 15.5 56.5 q0 34 -15 56.5 q-15 22.5 -40 31 q-25 8.5 -40 10.5 q-15 2 -31 2 l-39 0 Z" /><glyph glyph-name="S" unicode="s" d="M472 604 l-68 -89 q-43 57 -109 57 q-48 0 -70 -23.5 q-22 -23.5 -22 -54.5 q0 -27 21 -45 q16 -15 80 -38 q99 -34 135 -67 q57 -51 57 -140 q0 -98 -64.5 -158.5 q-64.5 -60.5 -167.5 -60.5 q-144 0 -230 126 l85 81 q22 -45 61 -67 q39 -22 79 -22 q45 0 74 25.5 q29 25.5 29 66.5 q0 35 -26 60 q-24 22 -103 49 q-74 25 -111 58 q-53 46 -53 124 q0 81 55 138.5 q55 57.5 159 57.5 q113 0 189 -78 Z" /><glyph glyph-name="T" unicode="t" d="M436 555 l-150 0 l0 -555 l-130 0 l0 555 l-150 0 l0 112 l430 0 l0 -112 Z" /><glyph glyph-name="U" unicode="u" d="M76 667 l130 0 l0 -419 q0 -63 32 -99 q38 -46 106 -46 q68 0 106 46 q32 36 32 99 l0 419 l130 0 l0 -408 q0 -114 -50 -178 q-35 -46 -93.5 -71 q-58.5 -25 -124.5 -25 q-66 0 -124.5 25 q-58.5 25 -93.5 71 q-50 64 -50 178 l0 408 Z" /><glyph glyph-name="V" unicode="v" d="M2 667 l142 0 l178 -448 l178 448 l142 0 l-282 -667 l-78 0 l-280 667 Z" /><glyph glyph-name="W" unicode="w" d="M485 423 l-153 -423 l-98 0 l-232 667 l138 0 l149 -454 l163 460 l72 0 l154 -460 l160 454 l138 0 l-247 -667 l-98 0 l-146 423 Z" /><glyph glyph-name="X" unicode="x" d="M8 0 l236 352 l-199 315 l156 0 l117 -207 l123 207 l156 0 l-205 -315 l228 -352 l-156 0 l-146 244 l-154 -244 l-156 0 Z" /><glyph glyph-name="Y" unicode="y" d="M227 0 l0 305 l-229 362 l154 0 l143 -232 l143 232 l154 0 l-235 -362 l0 -305 l-130 0 Z" /><glyph glyph-name="Z" unicode="z" d="M562 667 l-324 -555 l308 0 l0 -112 l-524 0 l324 555 l-273 0 l0 112 l489 0 Z" /><glyph glyph-name="bracketleft" unicode="[" d="M300 625 l-94 0 l0 -701 l94 0 l0 -104 l-210 0 l0 909 l210 0 l0 -104 Z" /><glyph glyph-name="backslash" unicode="\" d="M673 -170 l-88 -40 l-525 929 l88 40 l525 -929 Z" /><glyph glyph-name="bracketright" unicode="]" d="M50 -76 l94 0 l0 701 l-94 0 l0 104 l210 0 l0 -909 l-210 0 l0 104 Z" /><glyph glyph-name="asciicircum" unicode="^" d="M250 577 l-115 -241 l-127 0 l162 331 l160 0 l162 -331 l-127 0 l-115 241 Z" /><glyph glyph-name="underscore" unicode="_" d="M0 -158 l0 104 l500 0 l0 -104 l-500 0 Z" /><glyph glyph-name="grave" unicode="`" d="M244 510 l-150 134 l88 56 l118 -150 l-56 -40 Z" /><glyph glyph-name="a" unicode="a" d="M390 377 l0 56 l122 0 l0 -433 l-122 0 l0 56 q-49 -70 -133 -70 q-98 0 -159.5 67 q-61.5 67 -61.5 164 q0 98 60 164 q60 66 155 66 q94 0 139 -70 ZM368 304 q-34 35 -86 35 q-52 0 -86 -35 q-34 -35 -34 -87 q0 -52 34 -87.5 q34 -35.5 86 -35.5 q52 0 86 35.5 q34 35.5 34 87.5 q0 52 -34 87 Z" /><glyph glyph-name="b" unicode="b" d="M180 729 l0 -352 q50 70 141 70 q95 0 154 -65 q59 -65 59 -165 q0 -100 -60.5 -165.5 q-60.5 -65.5 -155.5 -65.5 q-87 0 -138 70 l0 -56 l-122 0 l0 729 l122 0 ZM374 304 q-34 35 -86 35 q-52 0 -86 -35 q-34 -35 -34 -87 q0 -52 34 -87.5 q34 -35.5 86 -35.5 q52 0 86 35.5 q34 35.5 34 87.5 q0 52 -34 87 Z" /><glyph glyph-name="c" unicode="c" d="M384 421 l0 -120 q-41 38 -100 38 q-58 0 -90 -35.5 q-32 -35.5 -32 -86.5 q0 -53 35.5 -88 q35.5 -35 90.5 -35 q54 0 96 38 l0 -119 q-54 -27 -112 -27 q-101 0 -167 63 q-69 65 -69 166 q0 110 75 176 q63 56 156 56 q63 0 117 -26 Z" /><glyph glyph-name="d" unicode="d" d="M390 377 l0 352 l122 0 l0 -729 l-122 0 l0 56 q-49 -70 -133 -70 q-98 0 -159.5 67 q-61.5 67 -61.5 164 q0 98 60 164 q60 66 155 66 q94 0 139 -70 ZM368 304 q-34 35 -86 35 q-52 0 -86 -35 q-34 -35 -34 -87 q0 -52 34 -87.5 q34 -35.5 86 -35.5 q52 0 86 35.5 q34 35.5 34 87.5 q0 52 -34 87 Z" /><glyph glyph-name="e" unicode="e" d="M371 139 l112 -18 q-7 -18 -18.5 -35.5 q-11.5 -17.5 -35.5 -43 q-24 -25.5 -65 -41 q-41 -15.5 -94 -15.5 q-102 0 -166 61 q-68 64 -68 169 q0 104 66 170 q62 61 163 61 q110 0 169 -71 q52 -62 52 -170 l0 -10 l-324 0 q0 -44 21 -73 q30 -41 87 -41 q68 0 101 57 ZM166 274 l205 0 q-7 42 -36.5 64.5 q-29.5 22.5 -66.5 22.5 q-36 0 -65.5 -23 q-29.5 -23 -36.5 -64 Z" /><glyph glyph-name="f" unicode="f" d="M294 329 l-112 0 l0 -329 l-122 0 l0 329 l-46 0 l0 104 l46 0 l0 119 q0 106 57 153 q43 36 107 36 q38 0 70 -15 l0 -111 q-24 18 -55 18 q-29 0 -44 -22 q-13 -21 -13 -75 l0 -103 l112 0 l0 -104 Z" /><glyph glyph-name="g" unicode="g" d="M388 377 l0 56 l122 0 l0 -413 q0 -61 -11.5 -106.5 q-11.5 -45.5 -48.5 -82.5 q-61 -61 -171 -61 q-106 0 -162 50 q-53 45 -70 129 l132 0 q8 -33 30 -52 q25 -23 74 -23 q45 0 74 27 q31 30 31 96 l0 61 q-47 -72 -133 -72 q-90 0 -150 59 q-69 69 -69 172 q0 107 67 172 q60 58 149 58 q90 0 136 -70 ZM282 339 q-49 0 -81 -30 q-39 -35 -39 -92 q0 -51 32 -85 q35 -38 88 -38 q48 0 81 30 q39 36 39 93 q0 50 -35 87 q-34 35 -85 35 Z" /><glyph glyph-name="h" unicode="h" d="M58 0 l0 729 l122 0 l0 -352 q50 70 134 70 q85 0 128 -53 q34 -42 34 -122 l0 -272 l-122 0 l0 236 q0 61 -23 85 q-21 22 -57 22 q-50 0 -75 -38 q-19 -30 -19 -84 l0 -221 l-122 0 Z" /><glyph glyph-name="i" unicode="i" d="M58 433 l122 0 l0 -433 l-122 0 l0 433 ZM67.5 564.5 q-21.5 21.5 -21.5 51.5 q0 30 21.5 51.5 q21.5 21.5 51.5 21.5 q30 0 51.5 -21.5 q21.5 -21.5 21.5 -51.5 q0 -30 -21.5 -51.5 q-21.5 -21.5 -51.5 -21.5 q-30 0 -51.5 21.5 Z" /><glyph glyph-name="j" unicode="j" d="M58 433 l122 0 l0 -662 l-122 0 l0 662 ZM67.5 564.5 q-21.5 21.5 -21.5 51.5 q0 30 21.5 51.5 q21.5 21.5 51.5 21.5 q30 0 51.5 -21.5 q21.5 -21.5 21.5 -51.5 q0 -30 -21.5 -51.5 q-21.5 -21.5 -51.5 -21.5 q-30 0 -51.5 21.5 Z" /><glyph glyph-name="k" unicode="k" d="M58 729 l122 0 l0 -454 l162 158 l158 0 l-203 -190 l219 -243 l-162 0 l-161 185 l-13 -12 l0 -173 l-122 0 l0 729 Z" /><glyph glyph-name="l" unicode="l" d="M58 729 l122 0 l0 -729 l-122 0 l0 729 Z" /><glyph glyph-name="m" unicode="m" d="M58 0 l0 433 l122 0 l0 -49 q50 63 129 63 q97 0 137 -79 q49 79 139 79 q76 0 117 -53 q19 -25 24.5 -52 q5.5 -27 5.5 -70 l0 -272 l-122 0 l0 236 q0 61 -20 85 q-18 22 -50 22 q-46 0 -67 -38 q-17 -28 -17 -84 l0 -221 l-122 0 l0 236 q0 61 -20 85 q-18 22 -50 22 q-46 0 -67 -38 q-17 -28 -17 -84 l0 -221 l-122 0 Z" /><glyph glyph-name="n" unicode="n" d="M58 0 l0 433 l122 0 l0 -56 q50 70 134 70 q85 0 128 -53 q34 -42 34 -122 l0 -272 l-122 0 l0 236 q0 61 -23 85 q-21 22 -57 22 q-50 0 -75 -38 q-19 -30 -19 -84 l0 -221 l-122 0 Z" /><glyph glyph-name="o" unicode="o" d="M109 386 q66 61 175 61 q109 0 175 -61 q73 -66 73 -170 q0 -103 -73 -169 q-66 -61 -175 -61 q-109 0 -175 61 q-73 66 -73 169 q0 104 73 170 ZM197 130 q35 -36 87 -36 q52 0 87 36 q35 36 35 86 q0 51 -35 87 q-35 36 -87 36 q-52 0 -87 -36 q-35 -36 -35 -87 q0 -50 35 -86 Z" /><glyph glyph-name="p" unicode="p" d="M180 56 l0 -285 l-122 0 l0 662 l122 0 l0 -56 q49 70 141 70 q90 0 148 -58 q65 -65 65 -172 q0 -110 -68 -175 q-60 -56 -147 -56 q-87 0 -139 70 ZM288 339 q-47 0 -79 -29 q-41 -35 -41 -93 q0 -59 40 -94 q33 -29 80 -29 q49 0 82 31 q38 35 38 92 q0 56 -37 91 q-34 31 -83 31 Z" /><glyph glyph-name="q" unicode="q" d="M390 -229 l0 285 q-52 -70 -139 -70 q-87 0 -147 56 q-68 65 -68 175 q0 107 65 172 q58 58 148 58 q92 0 141 -70 l0 56 l122 0 l0 -662 l-122 0 ZM282 339 q-49 0 -83 -31 q-37 -35 -37 -91 q0 -57 38 -92 q33 -31 82 -31 q47 0 80 29 q40 35 40 94 q0 58 -41 93 q-32 29 -79 29 Z" /><glyph glyph-name="r" unicode="r" d="M58 0 l0 433 l122 0 l0 -65 q22 42 54 60 q30 19 72 19 q24 0 52 -10 l-16 -114 q-23 16 -57 16 q-53 0 -81 -35 q-24 -30 -24 -96 l0 -208 l-122 0 Z" /><glyph glyph-name="s" unicode="s" d="M354 401 l-60 -71 q-31 29 -71 29 q-22 0 -34.5 -9.5 q-12.5 -9.5 -12.5 -25.5 q0 -26 39 -39 l29 -9 q85 -27 110 -62 q22 -30 22 -72 q0 -66 -48 -110 q-50 -46 -130 -46 q-101 0 -168 72 l64 74 q43 -50 96 -50 q26 0 43 12.5 q17 12.5 17 34.5 q0 30 -38 44 l-28 10 q-65 23 -93 52 q-33 35 -33 83 q0 60 45 98 q39 31 113 31 q78 0 138 -46 Z" /><glyph glyph-name="t" unicode="t" d="M264 329 l-84 0 l0 -329 l-122 0 l0 329 l-48 0 l0 104 l48 0 l0 148 l122 0 l0 -148 l84 0 l0 -104 Z" /><glyph glyph-name="u" unicode="u" d="M58 433 l122 0 l0 -245 q0 -52 26 -76 q25 -22 62 -22 q37 0 62 22 q26 24 26 76 l0 245 l122 0 l0 -265 q0 -87 -53 -133 q-56 -49 -157 -49 q-101 0 -157 49 q-53 46 -53 133 l0 265 Z" /><glyph glyph-name="v" unicode="v" d="M2 433 l136 0 l114 -244 l114 244 l136 0 l-218 -433 l-64 0 l-218 433 Z" /><glyph glyph-name="w" unicode="w" d="M396 255 l-114 -255 l-60 0 l-220 433 l136 0 l114 -250 l116 250 l56 0 l116 -250 l114 250 l136 0 l-220 -433 l-60 0 l-114 255 Z" /><glyph glyph-name="x" unicode="x" d="M2 0 l206 236 l-166 197 l154 0 l88 -112 l90 112 l154 0 l-169 -197 l205 -236 l-156 0 l-124 151 l-126 -151 l-156 0 Z" /><glyph glyph-name="y" unicode="y" d="M49 -229 l159 294 l-206 368 l142 0 l134 -246 l120 246 l138 0 l-349 -662 l-138 0 Z" /><glyph glyph-name="z" unicode="z" d="M472 433 l-246 -329 l229 0 l0 -104 l-443 0 l246 329 l-208 0 l0 104 l422 0 Z" /><glyph glyph-name="braceleft" unicode="{" d="M295 562 l0 -163 q0 -51 -12 -76.5 q-12 -25.5 -48 -48.5 q36 -23 48 -48.5 q12 -25.5 12 -76.5 l0 -162 q0 -33 13 -46 q15 -15 68 -15 l24 0 l0 -104 q-32 -2 -64 -2 q-83 0 -118 29 q-18 14 -27 35.5 q-9 21.5 -10.5 37 q-1.5 15.5 -1.5 41.5 l0 181 q0 40 -17 60 q-13 14 -38 18 l0 104 q25 4 38 18 q17 20 17 60 l0 182 q0 26 1.5 41.5 q1.5 15.5 10.5 37 q9 21.5 27 35.5 q35 29 118 29 q32 0 64 -2 l0 -104 l-24 0 q-53 0 -68 -15 q-13 -13 -13 -46 Z" /><glyph glyph-name="bar" unicode="|" d="M189 -250 l0 1000 l122 0 l0 -1000 l-122 0 Z" /><glyph glyph-name="braceright" unicode="}" d="M205 399 l0 163 q0 33 -13 46 q-15 15 -68 15 l-24 0 l0 104 q32 2 64 2 q83 0 118 -29 q18 -14 27 -35.5 q9 -21.5 10.5 -37 q1.5 -15.5 1.5 -41.5 l0 -182 q0 -40 17 -60 q13 -14 38 -18 l0 -104 q-25 -4 -38 -18 q-17 -20 -17 -60 l0 -181 q0 -26 -1.5 -41.5 q-1.5 -15.5 -10.5 -37 q-9 -21.5 -27 -35.5 q-35 -29 -118 -29 q-32 0 -64 2 l0 104 l24 0 q53 0 68 15 q13 13 13 46 l0 162 q0 51 12 76.5 q12 25.5 48 48.5 q-36 23 -48 48.5 q-12 25.5 -12 76.5 Z" /><glyph glyph-name="asciitilde" unicode="~" d="M424 370 l70 -40 q-37 -88 -92 -116 q-30 -15 -59 -15 q-35 0 -106 27 q-67 25 -90 25 q-20 0 -37 -14 q-17 -14 -23.5 -26 q-6.5 -12 -10.5 -23 l-70 40 q30 86 77 119 q28 21 71 21 q35 0 108 -27 q71 -25 88 -25 q46 0 74 54 Z" /><glyph glyph-name="nonbreakingspace" unicode=" " d="" /><glyph glyph-name="exclamdown" unicode="¡" d="M64 234 l124 0 l0 -464 l-124 0 l0 464 ZM181.5 427.5 q22.5 -22.5 22.5 -55.5 q0 -33 -22.5 -55.5 q-22.5 -22.5 -55.5 -22.5 q-33 0 -55.5 22.5 q-22.5 22.5 -22.5 55.5 q0 33 22.5 55.5 q22.5 22.5 55.5 22.5 q33 0 55.5 -22.5 Z" /><glyph glyph-name="cent" unicode="¢" d="M281 655 l82 0 l0 -93 q43 -2 81 -22 l0 -123 q-36 44 -95 44 q-50 0 -84 -32 q-37 -35 -37 -96 q0 -61 37 -95 q31 -29 82 -29 q64 0 97 44 l0 -124 q-39 -19 -81 -21 l0 -95 l-82 0 l0 93 q-72 10 -121 61 q-62 65 -62 167 q0 103 66 169 q49 49 117 61 l0 91 Z" /><glyph glyph-name="sterling" unicode="£" d="M160 246 l-113 0 l0 88 l65 0 q-37 67 -37 128 q0 94 63 154 q68 66 177 66 q109 0 172 -63 q59 -59 59 -167 l0 -12 l-132 0 q1 5 1 17 q0 55 -29 84 q-27 27 -72 27 q-48 0 -77 -29 q-32 -32 -32 -84 q0 -41 23 -89 l16 -32 l148 0 l0 -88 l-120 0 q7 -26 7 -50 q0 -37 -12 -66 l37 -13 q80 -28 106 -28 q48 0 61 54 l89 -19 q-20 -84 -72 -118 q-33 -21 -80 -21 q-45 0 -118 25 q-80 26 -110 26 q-52 0 -68 -45 l-94 17 q14 53 54 90 q36 33 87 40 q11 25 11 49 q0 27 -10 59 Z" /><glyph glyph-name="currency" unicode="¤" d="M90 682 l103 -103 q59 45 141 45 q82 0 141 -45 l103 103 l66 -66 l-103 -103 q45 -57 45 -139 q0 -82 -45 -139 l103 -103 l-66 -66 l-103 103 q-59 -45 -141 -45 q-82 0 -141 45 l-103 -103 l-66 66 l103 103 q-45 57 -45 139 q0 82 45 139 l-103 103 l66 66 ZM233 272.5 q39 -40.5 101 -40.5 q62 0 101 40.5 q39 40.5 39 101.5 q0 61 -39 101.5 q-39 40.5 -101 40.5 q-62 0 -101 -40.5 q-39 -40.5 -39 -101.5 q0 -61 39 -101.5 Z" /><glyph glyph-name="yen" unicode="¥" d="M419 667 l144 0 l-129 -213 l88 0 l0 -90 l-142 0 l-36 -63 l178 0 l0 -90 l-178 0 l0 -211 l-120 0 l0 211 l-178 0 l0 90 l178 0 l-36 63 l-142 0 l0 90 l88 0 l-129 213 l144 0 l135 -234 l135 234 Z" /><glyph glyph-name="brokenbar" unicode="¦" d="M189 390 l0 360 l122 0 l0 -360 l-122 0 ZM189 -250 l0 360 l122 0 l0 -360 l-122 0 Z" /><glyph glyph-name="section" unicode="§" d="M88 10 l122 0 q0 -43 24 -67 q17 -19 48 -19 q32 0 52 20 q17 19 17 45 q0 28 -27 49 q-17 14 -75 37 q-36 14 -54 22 q-18 8 -45 26.5 q-27 18.5 -44 41.5 q-33 45 -33 112 q0 46 20 83 q32 56 95 74 q-42 19 -66 53 q-23 32 -23 80 q0 64 40 107 q53 55 150 55 q93 0 140 -52 q45 -50 45 -128 l-120 0 l0 4 q0 35 -21 58 q-18 18 -47 18 q-30 0 -51 -18 q-19 -17 -19 -42 q0 -31 29 -54 q14 -11 77 -37 q93 -39 128 -75 q45 -48 45 -119 q0 -55 -28 -98 q-32 -48 -85 -70 q35 -17 55 -43 q32 -38 32 -87 q0 -68 -52 -117 q-52 -49 -138 -49 q-89 0 -139 52 q-52 52 -52 138 ZM284 187 q35 0 60 25 q23 23 23 62 q0 39 -27 65 q-22 22 -56 22 q-34 0 -59 -25 q-24 -26 -24 -62 q0 -36 23 -61 q24 -26 60 -26 Z" /><glyph glyph-name="dieresis" unicode="¨" d="M95.5 535.5 q-21.5 21.5 -21.5 50.5 q0 29 21.5 50.5 q21.5 21.5 50.5 21.5 q29 0 50.5 -21.5 q21.5 -21.5 21.5 -50.5 q0 -29 -21.5 -50.5 q-21.5 -21.5 -50.5 -21.5 q-29 0 -50.5 21.5 ZM303.5 535.5 q-21.5 21.5 -21.5 50.5 q0 29 21.5 50.5 q21.5 21.5 50.5 21.5 q29 0 50.5 -21.5 q21.5 -21.5 21.5 -50.5 q0 -29 -21.5 -50.5 q-21.5 -21.5 -50.5 -21.5 q-29 0 -50.5 21.5 Z" /><glyph glyph-name="copyright" unicode="©" d="M133.5 582 q100.5 100 246.5 100 q146 0 246.5 -100 q100.5 -100 100.5 -249 q0 -149 -100.5 -248.5 q-100.5 -99.5 -246.5 -99.5 q-146 0 -246.5 99.5 q-100.5 99.5 -100.5 248.5 q0 149 100.5 249 ZM576.5 536.5 q-80.5 83.5 -196.5 83.5 q-116 0 -196.5 -83.5 q-80.5 -83.5 -80.5 -203.5 q0 -119 80.5 -202.5 q80.5 -83.5 196.5 -83.5 q116 0 196.5 83.5 q80.5 83.5 80.5 202.5 q0 120 -80.5 203.5 ZM511 516 l0 -109 l-11 11 q-42 42 -95 42 q-56 0 -91.5 -36.5 q-35.5 -36.5 -35.5 -91.5 q0 -56 35.5 -91 q35.5 -35 93.5 -35 q52 0 93 41 l11 11 l0 -109 q-48 -25 -107 -25 q-95 0 -158.5 59.5 q-63.5 59.5 -63.5 147.5 q0 82 59 146.5 q59 64.5 160 64.5 q63 0 110 -26 Z" /><glyph glyph-name="ordfeminine" unicode="ª" d="M238 625 l0 34 l74 0 l0 -264 l-74 0 l0 35 q-14 -20 -33 -31 q-23 -13 -53 -13 q-52 0 -88 34 q-42 40 -42 106 q0 65 42 107 q36 34 88 34 q28 0 50 -11 q22 -10 36 -31 ZM173 600 q-33 0 -52 -21 q-22 -22 -22 -52 q0 -31 22 -53 q23 -21 52 -21 q31 0 51 20 q22 22 22 54 q0 33 -23 54 q-21 19 -50 19 ZM35 291 l0 56 l277 0 l0 -56 l-277 0 Z" /><glyph glyph-name="guillemotleft" unicode="«" d="M146 219 l122 -164 l-70 -50 l-158 214 l158 214 l70 -50 l-122 -164 ZM342 219 l122 -164 l-70 -50 l-158 214 l158 214 l70 -50 l-122 -164 Z" /><glyph glyph-name="logicalnot" unicode="¬" d="M467 0 l-122 0 l0 157 l-312 0 l0 112 l434 0 l0 -269 Z" /><glyph glyph-name="uni00AD" unicode="­" d="M50 174 l0 112 l260 0 l0 -112 l-260 0 Z" /><glyph glyph-name="registered" unicode="®" d="M380 682 q145 0 245 -99 q102 -102 102 -251 q0 -143 -94 -242 q-99 -105 -253 -105 q-149 0 -249 101 q-98 98 -98 248 q0 155 107 255 q97 93 240 93 ZM380 620 q-113 0 -192 -80 q-85 -85 -85 -205 q0 -62 23 -117 q23 -55 59 -91 q36 -36 88 -58 q52 -22 107 -22 q110 0 191 79 q86 83 86 205 q0 124 -86 210 q-79 79 -191 79 ZM263 527 l118 0 q65 0 97 -32 q30 -30 30 -83 q0 -45 -26 -72 q-23 -25 -64 -31 l121 -156 l-89 0 l-111 143 l0 -143 l-76 0 l0 374 ZM339 461 l0 -103 l30 0 q31 0 46 15 q14 14 14 38 q0 26 -14 38 q-13 12 -43 12 l-33 0 Z" /><glyph glyph-name="macron" unicode="¯" d="M68 539 l0 80 l364 0 l0 -80 l-364 0 Z" /><glyph glyph-name="degree" unicode="°" d="M141 624.5 q44 42.5 109 42.5 q65 0 109 -42.5 q44 -42.5 44 -107.5 q0 -65 -44 -107.5 q-44 -42.5 -109 -42.5 q-65 0 -109 42.5 q-44 42.5 -44 107.5 q0 65 44 107.5 ZM307 573 q-22 22 -57 22 q-35 0 -57 -22 q-22 -22 -22 -56 q0 -34 22 -56 q22 -22 57 -22 q35 0 57 22 q22 22 22 56 q0 34 -22 56 Z" /><glyph glyph-name="plusminus" unicode="±" d="M33 355 l0 112 l156 0 l0 156 l122 0 l0 -156 l156 0 l0 -112 l-156 0 l0 -156 l-122 0 l0 156 l-156 0 ZM33 52 l0 112 l434 0 l0 -112 l-434 0 Z" /><glyph glyph-name="twosuperior" unicode="²" d="M24 267 l119 134 q64 74 71 84 q23 33 23 64 q0 25 -15 40 q-15 15 -42 15 q-30 0 -47 -17.5 q-17 -17.5 -17 -44.5 l-84 0 q2 61 42 97.5 q40 36.5 102 36.5 q66 0 105.5 -36.5 q39.5 -36.5 39.5 -90.5 q0 -39 -18.5 -70.5 q-18.5 -31.5 -52.5 -69.5 l-62 -70 l136 0 l0 -72 l-300 0 Z" /><glyph glyph-name="threesuperior" unicode="³" d="M123 558 l-78 0 q6 57 42.5 87.5 q36.5 30.5 92.5 30.5 q65 0 98 -32 q33 -32 33 -76 q0 -60 -50 -86 q65 -22 65 -96 q0 -54 -38.5 -91 q-38.5 -37 -109.5 -37 q-61 0 -103 34.5 q-42 34.5 -47 94.5 l84 0 q3 -26 20.5 -41.5 q17.5 -15.5 45.5 -15.5 q32 0 48 17.5 q16 17.5 16 42.5 q0 22 -16 38.5 q-16 16.5 -50 16.5 l-20 0 l0 66 l20 0 q27 0 41 15 q14 15 14 36 q0 19 -13.5 33.5 q-13.5 14.5 -39.5 14.5 q-24 0 -39 -14.5 q-15 -14.5 -16 -37.5 Z" /><glyph glyph-name="acute" unicode="´" d="M318 700 l88 -56 l-150 -134 l-56 40 l118 150 Z" /><glyph glyph-name="mu" unicode="µ&#x3bc;" d="M180 -229 l-122 0 l0 662 l122 0 l0 -209 q0 -15 1 -28 q1 -13 7 -35.5 q6 -22.5 16 -37.5 q10 -15 30 -27 q20 -12 48 -12 q98 0 98 144 l0 205 l122 0 l0 -433 l-122 0 l0 60 q-12 -32 -38.5 -53 q-26.5 -21 -62.5 -21 q-67 0 -99 66 l0 -281 Z" /><glyph glyph-name="paragraph" unicode="¶" d="M322 -93 l-104 0 l0 413 l-13 0 q-79 0 -129 46.5 q-50 46.5 -50 123.5 q0 110 94 155 q47 22 136 22 l326 0 l0 -94 l-70 0 l0 -666 l-104 0 l0 666 l-86 0 l0 -666 Z" /><glyph glyph-name="periodcentered" unicode="·" d="M35 221 q-27 27 -27 65 q0 38 27 65 q27 27 65 27 q38 0 65 -27 q27 -27 27 -65 q0 -38 -27 -65 q-27 -27 -65 -27 q-38 0 -65 27 Z" /><glyph glyph-name="cedilla" unicode="¸" d="M262 -46 l88 -44 l-120 -146 l-64 40 l96 150 Z" /><glyph glyph-name="onesuperior" unicode="¹" d="M166 267 l0 328 l-80 0 l0 72 l164 0 l0 -400 l-84 0 Z" /><glyph glyph-name="ordmasculine" unicode="º" d="M168 386 q-70 0 -110 43 q-37 41 -37 100 q0 55 38 95 q41 43 109 43 q67 0 108 -41 q39 -39 39 -99 q0 -61 -39 -100 q-40 -41 -108 -41 ZM31 347 l274 0 l0 -56 l-274 0 l0 56 ZM219 580 q-20 20 -51 20 q-31 0 -51 -20 q-20 -20 -20 -53 q0 -34 20 -54 q20 -20 51 -20 q31 0 51 20 q20 20 20 54 q0 33 -20 53 Z" /><glyph glyph-name="guillemotright" unicode="»" d="M172 219 l-122 164 l70 50 l158 -214 l-158 -214 l-70 50 l122 164 ZM368 219 l-122 164 l70 50 l158 -214 l-158 -214 l-70 50 l122 164 Z" /><glyph glyph-name="onequarter" unicode="¼" d="M166 267 l0 328 l-80 0 l0 72 l164 0 l0 -400 l-84 0 ZM226 3 l397 686 l53 -30 l-397 -687 l-53 31 ZM783 400 l0 -256 l47 0 l0 -68 l-47 0 l0 -76 l-80 0 l0 76 l-199 0 l0 35 l199 289 l80 0 ZM608 144 l95 0 l0 145 l-95 -145 Z" /><glyph glyph-name="onehalf" unicode="½" d="M166 267 l0 328 l-80 0 l0 72 l164 0 l0 -400 l-84 0 ZM186 3 l397 686 l53 -30 l-397 -687 l-53 31 ZM504 0 l119 134 q64 74 71 84 q23 33 23 64 q0 25 -15 40 q-15 15 -42 15 q-30 0 -47 -17.5 q-17 -17.5 -17 -44.5 l-84 0 q2 61 42 97.5 q40 36.5 102 36.5 q66 0 105.5 -36.5 q39.5 -36.5 39.5 -90.5 q0 -39 -18.5 -70.5 q-18.5 -31.5 -52.5 -69.5 l-62 -70 l136 0 l0 -72 l-300 0 Z" /><glyph glyph-name="threequarters" unicode="¾" d="M123 558 l-78 0 q5 54 42 86 q35 32 93 32 q63 0 97 -31 q34 -32 34 -77 q0 -32 -15 -55 q-14 -21 -35 -31 q22 -7 37 -22 q28 -28 28 -74 q0 -53 -36 -89 q-39 -39 -112 -39 q-68 0 -109 41 q-38 38 -41 88 l84 0 q4 -25 18 -39 q16 -18 48 -18 q31 0 48 17 q16 16 16 40 q0 27 -18 43 q-16 15 -54 15 l-14 0 l0 66 l9 0 q35 0 51 15 q15 15 15 36 q0 22 -16 36 q-14 12 -35 12 q-27 0 -42 -16 q-14 -14 -15 -36 ZM236 3 l397 686 l53 -30 l-397 -687 l-53 31 ZM608 144 l95 0 l0 145 l-95 -145 ZM783 400 l0 -256 l47 0 l0 -68 l-47 0 l0 -76 l-80 0 l0 76 l-199 0 l0 35 l199 289 l80 0 Z" /><glyph glyph-name="questiondown" unicode="¿" d="M207 237 l124 0 l0 -196 q-16 4 -39 4 q-60 0 -94 -34 q-26 -28 -26 -67 q0 -37 21 -58 q20 -20 52 -20 q33 0 51 18 q22 20 22 61 l0 4 l130 0 q0 -81 -50 -135 q-54 -56 -158 -56 q-94 0 -146 51 q-52 50 -52 138 q0 78 51 129 q47 47 114 56 l0 105 ZM324.5 427.5 q22.5 -22.5 22.5 -55.5 q0 -33 -22.5 -55.5 q-22.5 -22.5 -55.5 -22.5 q-33 0 -55.5 22.5 q-22.5 22.5 -22.5 55.5 q0 33 22.5 55.5 q22.5 22.5 55.5 22.5 q33 0 55.5 -22.5 Z" /><glyph glyph-name="Agrave" unicode="à" d="M530 0 l-59 140 l-269 0 l-59 -140 l-141 0 l287 667 l102 0 l279 -667 l-140 0 ZM243 246 l190 0 l-95 240 l-95 -240 ZM360 728 l-174 122 l90 70 l140 -142 l-56 -50 Z" /><glyph glyph-name="Aacute" unicode="á" d="M530 0 l-59 140 l-269 0 l-59 -140 l-141 0 l287 667 l102 0 l279 -667 l-140 0 ZM243 246 l190 0 l-95 240 l-95 -240 ZM312 728 l-56 50 l140 142 l90 -70 l-174 -122 Z" /><glyph glyph-name="Acircumflex" unicode="â" d="M530 0 l-59 140 l-269 0 l-59 -140 l-141 0 l287 667 l102 0 l279 -667 l-140 0 ZM243 246 l190 0 l-95 240 l-95 -240 ZM336 820 l-120 -88 l-60 64 l180 134 l180 -134 l-60 -64 l-120 88 Z" /><glyph glyph-name="Atilde" unicode="ã" d="M530 0 l-59 140 l-269 0 l-59 -140 l-141 0 l287 667 l102 0 l279 -667 l-140 0 ZM243 246 l190 0 l-95 240 l-95 -240 ZM463 869 l65 -48 q-18 -37 -45 -59 q-31 -28 -69 -28 q-26 0 -68 17 l-35 14 q-40 15 -50 15 q-19 0 -34 -15 q-10 -10 -16 -24 l-67 48 q17 32 39 54 q33 33 76 33 q24 0 68 -17 l39 -16 q31 -13 48 -13 q20 0 33 13 q8 8 16 26 Z" /><glyph glyph-name="Adieresis" unicode="ä" d="M530 0 l-59 140 l-269 0 l-59 -140 l-141 0 l287 667 l102 0 l279 -667 l-140 0 ZM243 246 l190 0 l-95 240 l-95 -240 ZM173.5 760.5 q-21.5 21.5 -21.5 50.5 q0 29 21.5 50.5 q21.5 21.5 50.5 21.5 q29 0 50.5 -21.5 q21.5 -21.5 21.5 -50.5 q0 -29 -21.5 -50.5 q-21.5 -21.5 -50.5 -21.5 q-29 0 -50.5 21.5 ZM397.5 760.5 q-21.5 21.5 -21.5 50.5 q0 29 21.5 50.5 q21.5 21.5 50.5 21.5 q29 0 50.5 -21.5 q21.5 -21.5 21.5 -50.5 q0 -29 -21.5 -50.5 q-21.5 -21.5 -50.5 -21.5 q-29 0 -50.5 21.5 Z" /><glyph glyph-name="Aring" unicode="å" d="M530 0 l-59 140 l-269 0 l-59 -140 l-141 0 l287 667 l102 0 l279 -667 l-140 0 ZM243 246 l190 0 l-95 240 l-95 -240 ZM307.5 854.5 q-11.5 -11.5 -11.5 -28.5 q0 -17 11.5 -28.5 q11.5 -11.5 28.5 -11.5 q17 0 28.5 11.5 q11.5 11.5 11.5 28.5 q0 17 -11.5 28.5 q-11.5 11.5 -28.5 11.5 q-17 0 -28.5 -11.5 ZM265.5 755.5 q-28.5 28.5 -28.5 70.5 q0 42 28.5 70.5 q28.5 28.5 70.5 28.5 q42 0 70.5 -28.5 q28.5 -28.5 28.5 -70.5 q0 -42 -28.5 -70.5 q-28.5 -28.5 -70.5 -28.5 q-42 0 -70.5 28.5 Z" /><glyph glyph-name="AE" unicode="æ" d="M533 0 l-59 140 l-269 0 l-59 -140 l-140 0 l289 667 l352 0 l44 -112 l-245 0 l60 -149 l241 0 l46 -112 l-242 0 l73 -182 l246 0 l44 -112 l-381 0 ZM246 246 l190 0 l-92 240 l-98 -240 Z" /><glyph glyph-name="Ccedilla" unicode="ç" d="M560 176 l0 -152 q-74 -39 -165 -39 q-146 0 -244 93 q-107 103 -107 255 q0 162 107 261 q94 88 245 88 q88 0 164 -41 l0 -152 q-65 75 -161 75 q-98 0 -159.5 -68.5 q-61.5 -68.5 -61.5 -164.5 q0 -105 68 -166.5 q68 -61.5 158 -61.5 q94 0 156 73 ZM358 -46 l96 -44 l-122 -154 l-66 36 l92 162 Z" /><glyph glyph-name="Egrave" unicode="è" d="M446 667 l0 -112 l-240 0 l0 -149 l230 0 l0 -112 l-230 0 l0 -182 l240 0 l0 -112 l-370 0 l0 667 l370 0 ZM272 728 l-174 122 l90 70 l140 -142 l-56 -50 Z" /><glyph glyph-name="Eacute" unicode="é" d="M446 667 l0 -112 l-240 0 l0 -149 l230 0 l0 -112 l-230 0 l0 -182 l240 0 l0 -112 l-370 0 l0 667 l370 0 ZM246 728 l-56 50 l140 142 l90 -70 l-174 -122 Z" /><glyph glyph-name="Ecircumflex" unicode="ê" d="M446 667 l0 -112 l-240 0 l0 -149 l230 0 l0 -112 l-230 0 l0 -182 l240 0 l0 -112 l-370 0 l0 667 l370 0 ZM260 820 l-120 -88 l-60 64 l180 134 l180 -134 l-60 -64 l-120 88 Z" /><glyph glyph-name="Edieresis" unicode="ë" d="M446 667 l0 -112 l-240 0 l0 -149 l230 0 l0 -112 l-230 0 l0 -182 l240 0 l0 -112 l-370 0 l0 667 l370 0 ZM97.5 760.5 q-21.5 21.5 -21.5 50.5 q0 29 21.5 50.5 q21.5 21.5 50.5 21.5 q29 0 50.5 -21.5 q21.5 -21.5 21.5 -50.5 q0 -29 -21.5 -50.5 q-21.5 -21.5 -50.5 -21.5 q-29 0 -50.5 21.5 ZM321.5 760.5 q-21.5 21.5 -21.5 50.5 q0 29 21.5 50.5 q21.5 21.5 50.5 21.5 q29 0 50.5 -21.5 q21.5 -21.5 21.5 -50.5 q0 -29 -21.5 -50.5 q-21.5 -21.5 -50.5 -21.5 q-29 0 -50.5 21.5 Z" /><glyph glyph-name="Igrave" unicode="ì" d="M76 667 l130 0 l0 -667 l-130 0 l0 667 ZM158 728 l-168 114 l86 68 l136 -134 l-54 -48 Z" /><glyph glyph-name="Iacute" unicode="í" d="M76 667 l130 0 l0 -667 l-130 0 l0 667 ZM206 910 l86 -68 l-168 -114 l-54 48 l136 134 Z" /><glyph glyph-name="Icircumflex" unicode="î" d="M76 667 l130 0 l0 -667 l-130 0 l0 667 ZM141 822 l-92 -80 l-54 54 l146 124 l146 -124 l-54 -54 l-92 80 Z" /><glyph glyph-name="Idieresis" unicode="ï" d="M76 667 l130 0 l0 -667 l-130 0 l0 667 ZM23 760.5 q-17 21.5 -17 50.5 q0 29 17 50.5 q17 21.5 41 21.5 q24 0 41 -21.5 q17 -21.5 17 -50.5 q0 -29 -17 -50.5 q-17 -21.5 -41 -21.5 q-24 0 -41 21.5 ZM173 760.5 q-17 21.5 -17 50.5 q0 29 17 50.5 q17 21.5 41 21.5 q24 0 41 -21.5 q17 -21.5 17 -50.5 q0 -29 -17 -50.5 q-17 -21.5 -41 -21.5 q-24 0 -41 21.5 Z" /><glyph glyph-name="Eth" unicode="ð" d="M76 667 l174 0 q79 0 138 -13.5 q59 -13.5 110 -51.5 q60 -45 93.5 -115.5 q33.5 -70.5 33.5 -153.5 q0 -173 -133 -269 q-54 -38 -110 -51 q-56 -13 -134 -13 l-172 0 l0 316 l-86 0 l0 100 l86 0 l0 251 ZM206 555 l0 -139 l122 0 l0 -100 l-122 0 l0 -204 l40 0 q101 0 162 44 q39 28 61 75.5 q22 47.5 22 101.5 q0 58 -23.5 104.5 q-23.5 46.5 -58.5 73.5 q-57 44 -163 44 l-40 0 Z" /><glyph glyph-name="Ntilde" unicode="ñ" d="M206 0 l-130 0 l0 667 l90 0 l406 -445 l0 445 l130 0 l0 -667 l-90 0 l-406 446 l0 -446 ZM527 869 l65 -48 q-18 -37 -45 -59 q-31 -28 -69 -28 q-26 0 -68 17 l-35 14 q-40 15 -50 15 q-19 0 -34 -15 q-10 -10 -16 -24 l-67 48 q17 32 39 54 q33 33 76 33 q24 0 68 -17 l39 -16 q31 -13 48 -13 q20 0 33 13 q8 8 16 26 Z" /><glyph glyph-name="Ograve" unicode="ò" d="M143.5 584 q99.5 98 256.5 98 q157 0 256.5 -98 q99.5 -98 99.5 -251 q0 -153 -99.5 -250.5 q-99.5 -97.5 -256.5 -97.5 q-157 0 -256.5 97.5 q-99.5 97.5 -99.5 250.5 q0 153 99.5 251 ZM240 167.5 q62 -64.5 160 -64.5 q98 0 160 64.5 q62 64.5 62 165.5 q0 101 -62.5 166 q-62.5 65 -159.5 65 q-97 0 -159.5 -65 q-62.5 -65 -62.5 -166 q0 -101 62 -165.5 ZM424 728 l-174 122 l90 70 l140 -142 l-56 -50 Z" /><glyph glyph-name="Oacute" unicode="ó" d="M143.5 584 q99.5 98 256.5 98 q157 0 256.5 -98 q99.5 -98 99.5 -251 q0 -153 -99.5 -250.5 q-99.5 -97.5 -256.5 -97.5 q-157 0 -256.5 97.5 q-99.5 97.5 -99.5 250.5 q0 153 99.5 251 ZM240 167.5 q62 -64.5 160 -64.5 q98 0 160 64.5 q62 64.5 62 165.5 q0 101 -62.5 166 q-62.5 65 -159.5 65 q-97 0 -159.5 -65 q-62.5 -65 -62.5 -166 q0 -101 62 -165.5 ZM376 728 l-56 50 l140 142 l90 -70 l-174 -122 Z" /><glyph glyph-name="Ocircumflex" unicode="ô" d="M143.5 584 q99.5 98 256.5 98 q157 0 256.5 -98 q99.5 -98 99.5 -251 q0 -153 -99.5 -250.5 q-99.5 -97.5 -256.5 -97.5 q-157 0 -256.5 97.5 q-99.5 97.5 -99.5 250.5 q0 153 99.5 251 ZM240 167.5 q62 -64.5 160 -64.5 q98 0 160 64.5 q62 64.5 62 165.5 q0 101 -62.5 166 q-62.5 65 -159.5 65 q-97 0 -159.5 -65 q-62.5 -65 -62.5 -166 q0 -101 62 -165.5 ZM400 820 l-120 -88 l-60 64 l180 134 l180 -134 l-60 -64 l-120 88 Z" /><glyph glyph-name="Otilde" unicode="õ" d="M143.5 584 q99.5 98 256.5 98 q157 0 256.5 -98 q99.5 -98 99.5 -251 q0 -153 -99.5 -250.5 q-99.5 -97.5 -256.5 -97.5 q-157 0 -256.5 97.5 q-99.5 97.5 -99.5 250.5 q0 153 99.5 251 ZM240 167.5 q62 -64.5 160 -64.5 q98 0 160 64.5 q62 64.5 62 165.5 q0 101 -62.5 166 q-62.5 65 -159.5 65 q-97 0 -159.5 -65 q-62.5 -65 -62.5 -166 q0 -101 62 -165.5 ZM527 869 l65 -48 q-18 -37 -45 -59 q-31 -28 -69 -28 q-26 0 -68 17 l-35 14 q-40 15 -50 15 q-19 0 -34 -15 q-10 -10 -16 -24 l-67 48 q17 32 39 54 q33 33 76 33 q24 0 68 -17 l39 -16 q31 -13 48 -13 q20 0 33 13 q8 8 16 26 Z" /><glyph glyph-name="Odieresis" unicode="ö" d="M143.5 584 q99.5 98 256.5 98 q157 0 256.5 -98 q99.5 -98 99.5 -251 q0 -153 -99.5 -250.5 q-99.5 -97.5 -256.5 -97.5 q-157 0 -256.5 97.5 q-99.5 97.5 -99.5 250.5 q0 153 99.5 251 ZM240 167.5 q62 -64.5 160 -64.5 q98 0 160 64.5 q62 64.5 62 165.5 q0 101 -62.5 166 q-62.5 65 -159.5 65 q-97 0 -159.5 -65 q-62.5 -65 -62.5 -166 q0 -101 62 -165.5 ZM237.5 760.5 q-21.5 21.5 -21.5 50.5 q0 29 21.5 50.5 q21.5 21.5 50.5 21.5 q29 0 50.5 -21.5 q21.5 -21.5 21.5 -50.5 q0 -29 -21.5 -50.5 q-21.5 -21.5 -50.5 -21.5 q-29 0 -50.5 21.5 ZM461.5 760.5 q-21.5 21.5 -21.5 50.5 q0 29 21.5 50.5 q21.5 21.5 50.5 21.5 q29 0 50.5 -21.5 q21.5 -21.5 21.5 -50.5 q0 -29 -21.5 -50.5 q-21.5 -21.5 -50.5 -21.5 q-29 0 -50.5 21.5 Z" /><glyph glyph-name="multiply" unicode="×" d="M44 215 l124 124 l-124 124 l82 82 l124 -124 l124 124 l82 -82 l-124 -124 l124 -124 l-82 -82 l-124 124 l-124 -124 l-82 82 Z" /><glyph glyph-name="Oslash" unicode="ø" d="M30 31 l88 88 q-68 96 -68 214 q0 151 100 251 q98 98 256 98 q122 0 214 -62 l89 88 l73 -73 l-88 -88 q68 -95 68 -213 q0 -150 -97 -250 q-97 -99 -259 -99 q-126 0 -214 62 l-89 -89 l-73 73 ZM599 453 l-316 -316 q58 -34 123 -34 q97 0 158 63 q64 66 64 167 q0 64 -29 120 ZM213 213 l317 316 q-57 35 -124 35 q-93 0 -154 -59 q-68 -65 -68 -175 q0 -65 29 -117 Z" /><glyph glyph-name="Ugrave" unicode="ù" d="M76 667 l130 0 l0 -419 q0 -63 32 -99 q38 -46 106 -46 q68 0 106 46 q32 36 32 99 l0 419 l130 0 l0 -408 q0 -114 -50 -178 q-35 -46 -93.5 -71 q-58.5 -25 -124.5 -25 q-66 0 -124.5 25 q-58.5 25 -93.5 71 q-50 64 -50 178 l0 408 ZM368 728 l-174 122 l90 70 l140 -142 l-56 -50 Z" /><glyph glyph-name="Uacute" unicode="ú" d="M76 667 l130 0 l0 -419 q0 -63 32 -99 q38 -46 106 -46 q68 0 106 46 q32 36 32 99 l0 419 l130 0 l0 -408 q0 -114 -50 -178 q-35 -46 -93.5 -71 q-58.5 -25 -124.5 -25 q-66 0 -124.5 25 q-58.5 25 -93.5 71 q-50 64 -50 178 l0 408 ZM320 728 l-56 50 l140 142 l90 -70 l-174 -122 Z" /><glyph glyph-name="Ucircumflex" unicode="û" d="M76 667 l130 0 l0 -419 q0 -63 32 -99 q38 -46 106 -46 q68 0 106 46 q32 36 32 99 l0 419 l130 0 l0 -408 q0 -114 -50 -178 q-35 -46 -93.5 -71 q-58.5 -25 -124.5 -25 q-66 0 -124.5 25 q-58.5 25 -93.5 71 q-50 64 -50 178 l0 408 ZM344 820 l-120 -88 l-60 64 l180 134 l180 -134 l-60 -64 l-120 88 Z" /><glyph glyph-name="Udieresis" unicode="ü" d="M76 667 l130 0 l0 -419 q0 -63 32 -99 q38 -46 106 -46 q68 0 106 46 q32 36 32 99 l0 419 l130 0 l0 -408 q0 -114 -50 -178 q-35 -46 -93.5 -71 q-58.5 -25 -124.5 -25 q-66 0 -124.5 25 q-58.5 25 -93.5 71 q-50 64 -50 178 l0 408 ZM181.5 760.5 q-21.5 21.5 -21.5 50.5 q0 29 21.5 50.5 q21.5 21.5 50.5 21.5 q29 0 50.5 -21.5 q21.5 -21.5 21.5 -50.5 q0 -29 -21.5 -50.5 q-21.5 -21.5 -50.5 -21.5 q-29 0 -50.5 21.5 ZM405.5 760.5 q-21.5 21.5 -21.5 50.5 q0 29 21.5 50.5 q21.5 21.5 50.5 21.5 q29 0 50.5 -21.5 q21.5 -21.5 21.5 -50.5 q0 -29 -21.5 -50.5 q-21.5 -21.5 -50.5 -21.5 q-29 0 -50.5 21.5 Z" /><glyph glyph-name="Yacute" unicode="ý" d="M227 0 l0 305 l-229 362 l154 0 l143 -232 l143 232 l154 0 l-235 -362 l0 -305 l-130 0 ZM271 728 l-56 50 l140 142 l90 -70 l-174 -122 Z" /><glyph glyph-name="Thorn" unicode="þ" d="M76 667 l130 0 l0 -90 l64 0 q62 0 101.5 -10.5 q39.5 -10.5 74.5 -40.5 q68 -60 68 -161 q0 -94 -55 -149 q-59 -59 -169 -59 l-84 0 l0 -157 l-130 0 l0 667 ZM206 465 l0 -196 l53 0 q57 0 85 21 q36 28 36 78 q0 49 -37 76 q-30 21 -92 21 l-45 0 Z" /><glyph glyph-name="germandbls" unicode="ß" d="M180 0 l-122 0 l0 524 q0 105 57 162 q55 55 155 55 q98 0 155 -56 q55 -54 55 -130 q0 -51 -27 -90 q-17 -29 -56 -51 q43 -12 78 -48 q57 -57 57 -150 q0 -43 -17.5 -88.5 q-17.5 -45.5 -48.5 -75.5 q-68 -66 -196 -66 l-12 0 l0 108 q72 2 114 45 q34 37 34 86 q0 75 -61 107 q-37 20 -87 20 l0 104 q48 0 77 27 q27 25 27 64 q0 41 -24 63 q-25 23 -65 23 q-40 0 -65 -25 q-28 -29 -28 -103 l0 -505 Z" /><glyph glyph-name="agrave" unicode="à" d="M390 377 l0 56 l122 0 l0 -433 l-122 0 l0 56 q-49 -70 -133 -70 q-98 0 -159.5 67 q-61.5 67 -61.5 164 q0 98 60 164 q60 66 155 66 q94 0 139 -70 ZM368 304 q-34 35 -86 35 q-52 0 -86 -35 q-34 -35 -34 -87 q0 -52 34 -87.5 q34 -35.5 86 -35.5 q52 0 86 35.5 q34 35.5 34 87.5 q0 52 -34 87 ZM309 510 l-150 134 l88 56 l118 -150 l-56 -40 Z" /><glyph glyph-name="aacute" unicode="á" d="M390 377 l0 56 l122 0 l0 -433 l-122 0 l0 56 q-49 -70 -133 -70 q-98 0 -159.5 67 q-61.5 67 -61.5 164 q0 98 60 164 q60 66 155 66 q94 0 139 -70 ZM368 304 q-34 35 -86 35 q-52 0 -86 -35 q-34 -35 -34 -87 q0 -52 34 -87.5 q34 -35.5 86 -35.5 q52 0 86 35.5 q34 35.5 34 87.5 q0 52 -34 87 ZM353 700 l88 -56 l-150 -134 l-56 40 l118 150 Z" /><glyph glyph-name="acircumflex" unicode="â" d="M390 377 l0 56 l122 0 l0 -433 l-122 0 l0 56 q-49 -70 -133 -70 q-98 0 -159.5 67 q-61.5 67 -61.5 164 q0 98 60 164 q60 66 155 66 q94 0 139 -70 ZM368 304 q-34 35 -86 35 q-52 0 -86 -35 q-34 -35 -34 -87 q0 -52 34 -87.5 q34 -35.5 86 -35.5 q52 0 86 35.5 q34 35.5 34 87.5 q0 52 -34 87 ZM285 602 l-110 -92 l-60 60 l170 138 l170 -138 l-60 -60 l-110 92 Z" /><glyph glyph-name="atilde" unicode="ã" d="M390 377 l0 56 l122 0 l0 -433 l-122 0 l0 56 q-49 -70 -133 -70 q-98 0 -159.5 67 q-61.5 67 -61.5 164 q0 98 60 164 q60 66 155 66 q94 0 139 -70 ZM368 304 q-34 35 -86 35 q-52 0 -86 -35 q-34 -35 -34 -87 q0 -52 34 -87.5 q34 -35.5 86 -35.5 q52 0 86 35.5 q34 35.5 34 87.5 q0 52 -34 87 ZM424 647 l59 -48 q-15 -30 -38 -53 q-29 -26 -66 -26 q-34 0 -71 16 l-34 14 q-29 12 -46 12 q-17 0 -31 -14 q-11 -11 -17 -25 l-61 48 q17 32 35 50 q29 29 72 29 q28 0 61 -13 l38 -15 q35 -14 50 -14 q20 0 31 11 q10 10 18 28 Z" /><glyph glyph-name="adieresis" unicode="ä" d="M390 377 l0 56 l122 0 l0 -433 l-122 0 l0 56 q-49 -70 -133 -70 q-98 0 -159.5 67 q-61.5 67 -61.5 164 q0 98 60 164 q60 66 155 66 q94 0 139 -70 ZM368 304 q-34 35 -86 35 q-52 0 -86 -35 q-34 -35 -34 -87 q0 -52 34 -87.5 q34 -35.5 86 -35.5 q52 0 86 35.5 q34 35.5 34 87.5 q0 52 -34 87 ZM147.5 535.5 q-21.5 21.5 -21.5 50.5 q0 29 21.5 50.5 q21.5 21.5 50.5 21.5 q29 0 50.5 -21.5 q21.5 -21.5 21.5 -50.5 q0 -29 -21.5 -50.5 q-21.5 -21.5 -50.5 -21.5 q-29 0 -50.5 21.5 ZM355.5 535.5 q-21.5 21.5 -21.5 50.5 q0 29 21.5 50.5 q21.5 21.5 50.5 21.5 q29 0 50.5 -21.5 q21.5 -21.5 21.5 -50.5 q0 -29 -21.5 -50.5 q-21.5 -21.5 -50.5 -21.5 q-29 0 -50.5 21.5 Z" /><glyph glyph-name="aring" unicode="å" d="M390 377 l0 56 l122 0 l0 -433 l-122 0 l0 56 q-49 -70 -133 -70 q-98 0 -159.5 67 q-61.5 67 -61.5 164 q0 98 60 164 q60 66 155 66 q94 0 139 -70 ZM368 304 q-34 35 -86 35 q-52 0 -86 -35 q-34 -35 -34 -87 q0 -52 34 -87.5 q34 -35.5 86 -35.5 q52 0 86 35.5 q34 35.5 34 87.5 q0 52 -34 87 ZM217 534 q-28 28 -28 66 q0 38 28 66 q28 28 66 28 q38 0 66 -28 q28 -28 28 -66 q0 -38 -28 -66 q-28 -28 -66 -28 q-38 0 -66 28 ZM255 628 q-11 -11 -11 -28 q0 -17 11 -28 q11 -11 28 -11 q17 0 28 11 q11 11 11 28 q0 17 -11 28 q-11 11 -28 11 q-17 0 -28 -11 Z" /><glyph glyph-name="ae" unicode="æ" d="M657 139 l112 -18 q-18 -46 -49.5 -76 q-31.5 -30 -66.5 -41 q-35 -11 -56 -14.5 q-21 -3.5 -41 -3.5 q-113 0 -168 82 q-62 -82 -174 -82 q-85 0 -131.5 40.5 q-46.5 40.5 -46.5 99.5 q0 61 44 100 q51 45 139 45 q59 0 112 -30 l1 21 q3 45 -37 71 q-28 18 -81 18 q-51 0 -111 -17 l0 97 q71 16 120 16 q33 0 57.5 -3.5 q24.5 -3.5 56 -20.5 q31.5 -17 51.5 -49 q58 73 164 73 q109 0 168 -71 q52 -62 52 -170 l0 -10 l-324 0 q-2 -43 21 -73 q30 -41 87 -41 q68 0 101 57 ZM154 131 q0 -22 21 -40.5 q21 -18.5 64 -18.5 q46 0 69 19.5 q23 19.5 23 41.5 q0 20 -22 36 q-22 16 -71 16 q-44 0 -64 -16.5 q-20 -16.5 -20 -37.5 ZM452 274 l205 0 q-7 42 -36.5 64.5 q-29.5 22.5 -66.5 22.5 q-36 0 -65.5 -23 q-29.5 -23 -36.5 -64 Z" /><glyph glyph-name="ccedilla" unicode="ç" d="M384 421 l0 -120 q-41 38 -100 38 q-58 0 -90 -35.5 q-32 -35.5 -32 -86.5 q0 -53 35.5 -88 q35.5 -35 90.5 -35 q54 0 96 38 l0 -119 q-54 -27 -112 -27 q-101 0 -167 63 q-69 65 -69 166 q0 110 75 176 q63 56 156 56 q63 0 117 -26 ZM222 -46 l88 -44 l-120 -146 l-64 40 l96 150 Z" /><glyph glyph-name="egrave" unicode="è" d="M371 139 l112 -18 q-7 -18 -18.5 -35.5 q-11.5 -17.5 -35.5 -43 q-24 -25.5 -65 -41 q-41 -15.5 -94 -15.5 q-102 0 -166 61 q-68 64 -68 169 q0 104 66 170 q62 61 163 61 q110 0 169 -71 q52 -62 52 -170 l0 -10 l-324 0 q0 -44 21 -73 q30 -41 87 -41 q68 0 101 57 ZM166 274 l205 0 q-7 42 -36.5 64.5 q-29.5 22.5 -66.5 22.5 q-36 0 -65.5 -23 q-29.5 -23 -36.5 -64 ZM284 510 l-150 134 l88 56 l118 -150 l-56 -40 Z" /><glyph glyph-name="eacute" unicode="é" d="M371 139 l112 -18 q-7 -18 -18.5 -35.5 q-11.5 -17.5 -35.5 -43 q-24 -25.5 -65 -41 q-41 -15.5 -94 -15.5 q-102 0 -166 61 q-68 64 -68 169 q0 104 66 170 q62 61 163 61 q110 0 169 -71 q52 -62 52 -170 l0 -10 l-324 0 q0 -44 21 -73 q30 -41 87 -41 q68 0 101 57 ZM166 274 l205 0 q-7 42 -36.5 64.5 q-29.5 22.5 -66.5 22.5 q-36 0 -65.5 -23 q-29.5 -23 -36.5 -64 ZM328 700 l88 -56 l-150 -134 l-56 40 l118 150 Z" /><glyph glyph-name="ecircumflex" unicode="ê" d="M371 139 l112 -18 q-7 -18 -18.5 -35.5 q-11.5 -17.5 -35.5 -43 q-24 -25.5 -65 -41 q-41 -15.5 -94 -15.5 q-102 0 -166 61 q-68 64 -68 169 q0 104 66 170 q62 61 163 61 q110 0 169 -71 q52 -62 52 -170 l0 -10 l-324 0 q0 -44 21 -73 q30 -41 87 -41 q68 0 101 57 ZM166 274 l205 0 q-7 42 -36.5 64.5 q-29.5 22.5 -66.5 22.5 q-36 0 -65.5 -23 q-29.5 -23 -36.5 -64 ZM264 602 l-110 -92 l-60 60 l170 138 l170 -138 l-60 -60 l-110 92 Z" /><glyph glyph-name="edieresis" unicode="ë" d="M371 139 l112 -18 q-7 -18 -18.5 -35.5 q-11.5 -17.5 -35.5 -43 q-24 -25.5 -65 -41 q-41 -15.5 -94 -15.5 q-102 0 -166 61 q-68 64 -68 169 q0 104 66 170 q62 61 163 61 q110 0 169 -71 q52 -62 52 -170 l0 -10 l-324 0 q0 -44 21 -73 q30 -41 87 -41 q68 0 101 57 ZM166 274 l205 0 q-7 42 -36.5 64.5 q-29.5 22.5 -66.5 22.5 q-36 0 -65.5 -23 q-29.5 -23 -36.5 -64 ZM109.5 535.5 q-21.5 21.5 -21.5 50.5 q0 29 21.5 50.5 q21.5 21.5 50.5 21.5 q29 0 50.5 -21.5 q21.5 -21.5 21.5 -50.5 q0 -29 -21.5 -50.5 q-21.5 -21.5 -50.5 -21.5 q-29 0 -50.5 21.5 ZM317.5 535.5 q-21.5 21.5 -21.5 50.5 q0 29 21.5 50.5 q21.5 21.5 50.5 21.5 q29 0 50.5 -21.5 q21.5 -21.5 21.5 -50.5 q0 -29 -21.5 -50.5 q-21.5 -21.5 -50.5 -21.5 q-29 0 -50.5 21.5 Z" /><glyph glyph-name="igrave" unicode="ì" d="M58 433 l122 0 l0 -433 l-122 0 l0 433 ZM112 501 l-110 168 l100 32 l76 -177 l-66 -23 Z" /><glyph glyph-name="iacute" unicode="í" d="M58 433 l122 0 l0 -433 l-122 0 l0 433 ZM136 701 l100 -32 l-110 -168 l-66 23 l76 177 Z" /><glyph glyph-name="icircumflex" unicode="î" d="M58 433 l122 0 l0 -433 l-122 0 l0 433 ZM119 602 l-87 -78 l-56 56 l143 128 l143 -128 l-56 -56 l-87 78 Z" /><glyph glyph-name="idieresis" unicode="ï" d="M58 433 l122 0 l0 -433 l-122 0 l0 433 ZM-35.5 535.5 q-21.5 21.5 -21.5 50.5 q0 29 21.5 50.5 q21.5 21.5 50.5 21.5 q29 0 50.5 -21.5 q21.5 -21.5 21.5 -50.5 q0 -29 -21.5 -50.5 q-21.5 -21.5 -50.5 -21.5 q-29 0 -50.5 21.5 ZM172.5 535.5 q-21.5 21.5 -21.5 50.5 q0 29 21.5 50.5 q21.5 21.5 50.5 21.5 q29 0 50.5 -21.5 q21.5 -21.5 21.5 -50.5 q0 -29 -21.5 -50.5 q-21.5 -21.5 -50.5 -21.5 q-29 0 -50.5 21.5 Z" /><glyph glyph-name="eth" unicode="ð" d="M67 588 l33 94 q134 -10 228 -66 l150 49 l23 -71 l-101 -32 q53 -51 80 -122 q30 -77 30 -173 q0 -145 -81 -222 q-62 -59 -159 -59 q-101 0 -167 64 q-67 67 -67 165 q0 103 67 164 q57 54 143 54 q73 0 123 -50 q-13 95 -94 140 l-196 -73 l-22 64 l139 48 q-65 24 -129 26 ZM270 329 q-44 0 -74 -30 q-34 -32 -34 -89 q0 -53 33 -86 q30 -30 75 -30 q49 0 78 33 q30 33 30 83 q0 54 -31 87 q-30 32 -77 32 Z" /><glyph glyph-name="ntilde" unicode="ñ" d="M58 0 l0 433 l122 0 l0 -56 q50 70 134 70 q85 0 128 -53 q34 -42 34 -122 l0 -272 l-122 0 l0 236 q0 61 -23 85 q-21 22 -57 22 q-50 0 -75 -38 q-19 -30 -19 -84 l0 -221 l-122 0 ZM403 647 l59 -48 q-15 -30 -38 -53 q-29 -26 -66 -26 q-34 0 -71 16 l-34 14 q-29 12 -46 12 q-17 0 -31 -14 q-11 -11 -17 -25 l-61 48 q17 32 35 50 q29 29 72 29 q28 0 61 -13 l38 -15 q35 -14 50 -14 q20 0 31 11 q10 10 18 28 Z" /><glyph glyph-name="ograve" unicode="ò" d="M109 386 q66 61 175 61 q109 0 175 -61 q73 -66 73 -170 q0 -103 -73 -169 q-66 -61 -175 -61 q-109 0 -175 61 q-73 66 -73 169 q0 104 73 170 ZM197 130 q35 -36 87 -36 q52 0 87 36 q35 36 35 86 q0 51 -35 87 q-35 36 -87 36 q-52 0 -87 -36 q-35 -36 -35 -87 q0 -50 35 -86 ZM294 510 l-150 134 l88 56 l118 -150 l-56 -40 Z" /><glyph glyph-name="oacute" unicode="ó" d="M109 386 q66 61 175 61 q109 0 175 -61 q73 -66 73 -170 q0 -103 -73 -169 q-66 -61 -175 -61 q-109 0 -175 61 q-73 66 -73 169 q0 104 73 170 ZM197 130 q35 -36 87 -36 q52 0 87 36 q35 36 35 86 q0 51 -35 87 q-35 36 -87 36 q-52 0 -87 -36 q-35 -36 -35 -87 q0 -50 35 -86 ZM338 700 l88 -56 l-150 -134 l-56 40 l118 150 Z" /><glyph glyph-name="ocircumflex" unicode="ô" d="M109 386 q66 61 175 61 q109 0 175 -61 q73 -66 73 -170 q0 -103 -73 -169 q-66 -61 -175 -61 q-109 0 -175 61 q-73 66 -73 169 q0 104 73 170 ZM197 130 q35 -36 87 -36 q52 0 87 36 q35 36 35 86 q0 51 -35 87 q-35 36 -87 36 q-52 0 -87 -36 q-35 -36 -35 -87 q0 -50 35 -86 ZM284 602 l-110 -92 l-60 60 l170 138 l170 -138 l-60 -60 l-110 92 Z" /><glyph glyph-name="otilde" unicode="õ" d="M109 386 q66 61 175 61 q109 0 175 -61 q73 -66 73 -170 q0 -103 -73 -169 q-66 -61 -175 -61 q-109 0 -175 61 q-73 66 -73 169 q0 104 73 170 ZM197 130 q35 -36 87 -36 q52 0 87 36 q35 36 35 86 q0 51 -35 87 q-35 36 -87 36 q-52 0 -87 -36 q-35 -36 -35 -87 q0 -50 35 -86 ZM407 647 l59 -48 q-15 -30 -38 -53 q-29 -26 -66 -26 q-34 0 -71 16 l-34 14 q-29 12 -46 12 q-17 0 -31 -14 q-11 -11 -17 -25 l-61 48 q17 32 35 50 q29 29 72 29 q28 0 61 -13 l38 -15 q35 -14 50 -14 q20 0 31 11 q10 10 18 28 Z" /><glyph glyph-name="odieresis" unicode="ö" d="M109 386 q66 61 175 61 q109 0 175 -61 q73 -66 73 -170 q0 -103 -73 -169 q-66 -61 -175 -61 q-109 0 -175 61 q-73 66 -73 169 q0 104 73 170 ZM197 130 q35 -36 87 -36 q52 0 87 36 q35 36 35 86 q0 51 -35 87 q-35 36 -87 36 q-52 0 -87 -36 q-35 -36 -35 -87 q0 -50 35 -86 ZM129.5 535.5 q-21.5 21.5 -21.5 50.5 q0 29 21.5 50.5 q21.5 21.5 50.5 21.5 q29 0 50.5 -21.5 q21.5 -21.5 21.5 -50.5 q0 -29 -21.5 -50.5 q-21.5 -21.5 -50.5 -21.5 q-29 0 -50.5 21.5 ZM337.5 535.5 q-21.5 21.5 -21.5 50.5 q0 29 21.5 50.5 q21.5 21.5 50.5 21.5 q29 0 50.5 -21.5 q21.5 -21.5 21.5 -50.5 q0 -29 -21.5 -50.5 q-21.5 -21.5 -50.5 -21.5 q-29 0 -50.5 21.5 Z" /><glyph glyph-name="divide" unicode="÷" d="M200 461 q-21 21 -21 50 q0 29 21 50 q21 21 50 21 q29 0 50 -21 q21 -21 21 -50 q0 -29 -21 -50 q-21 -21 -50 -21 q-29 0 -50 21 ZM200 117 q-21 21 -21 50 q0 29 21 50 q21 21 50 21 q29 0 50 -21 q21 -21 21 -50 q0 -29 -21 -50 q-21 -21 -50 -21 q-29 0 -50 21 ZM33 283 l0 112 l434 0 l0 -112 l-434 0 Z" /><glyph glyph-name="oslash" unicode="ø" d="M24 7 l65 65 q-49 63 -49 144 q0 104 73 170 q68 61 175 61 q81 0 140 -36 l68 68 l56 -51 l-66 -66 q50 -64 50 -146 q0 -103 -73 -169 q-66 -61 -175 -61 q-83 0 -142 37 l-66 -66 l-56 50 ZM396 273 l-165 -165 q27 -14 58 -14 q54 0 87 36 q34 35 34 88 q0 32 -14 55 ZM178 161 l165 165 q-25 13 -52 13 q-55 0 -91 -36 q-34 -34 -34 -88 q0 -26 12 -54 Z" /><glyph glyph-name="ugrave" unicode="ù" d="M58 433 l122 0 l0 -245 q0 -52 26 -76 q25 -22 62 -22 q37 0 62 22 q26 24 26 76 l0 245 l122 0 l0 -265 q0 -87 -53 -133 q-56 -49 -157 -49 q-101 0 -157 49 q-53 46 -53 133 l0 265 ZM262 510 l-150 134 l88 56 l118 -150 l-56 -40 Z" /><glyph glyph-name="uacute" unicode="ú" d="M58 433 l122 0 l0 -245 q0 -52 26 -76 q25 -22 62 -22 q37 0 62 22 q26 24 26 76 l0 245 l122 0 l0 -265 q0 -87 -53 -133 q-56 -49 -157 -49 q-101 0 -157 49 q-53 46 -53 133 l0 265 ZM336 700 l88 -56 l-150 -134 l-56 40 l118 150 Z" /><glyph glyph-name="ucircumflex" unicode="û" d="M58 433 l122 0 l0 -245 q0 -52 26 -76 q25 -22 62 -22 q37 0 62 22 q26 24 26 76 l0 245 l122 0 l0 -265 q0 -87 -53 -133 q-56 -49 -157 -49 q-101 0 -157 49 q-53 46 -53 133 l0 265 ZM268 602 l-110 -92 l-60 60 l170 138 l170 -138 l-60 -60 l-110 92 Z" /><glyph glyph-name="udieresis" unicode="ü" d="M58 433 l122 0 l0 -245 q0 -52 26 -76 q25 -22 62 -22 q37 0 62 22 q26 24 26 76 l0 245 l122 0 l0 -265 q0 -87 -53 -133 q-56 -49 -157 -49 q-101 0 -157 49 q-53 46 -53 133 l0 265 ZM113.5 535.5 q-21.5 21.5 -21.5 50.5 q0 29 21.5 50.5 q21.5 21.5 50.5 21.5 q29 0 50.5 -21.5 q21.5 -21.5 21.5 -50.5 q0 -29 -21.5 -50.5 q-21.5 -21.5 -50.5 -21.5 q-29 0 -50.5 21.5 ZM321.5 535.5 q-21.5 21.5 -21.5 50.5 q0 29 21.5 50.5 q21.5 21.5 50.5 21.5 q29 0 50.5 -21.5 q21.5 -21.5 21.5 -50.5 q0 -29 -21.5 -50.5 q-21.5 -21.5 -50.5 -21.5 q-29 0 -50.5 21.5 Z" /><glyph glyph-name="yacute" unicode="ý" d="M49 -229 l159 294 l-206 368 l142 0 l134 -246 l120 246 l138 0 l-349 -662 l-138 0 ZM337 700 l88 -56 l-150 -134 l-56 40 l118 150 Z" /><glyph glyph-name="thorn" unicode="þ" d="M58 729 l122 0 l0 -352 q50 70 141 70 q95 0 154 -65 q59 -65 59 -165 q0 -100 -60.5 -165.5 q-60.5 -65.5 -155.5 -65.5 q-87 0 -138 70 l0 -286 l-122 0 l0 959 ZM202 129.5 q34 -35.5 86 -35.5 q52 0 86 35.5 q34 35.5 34 87.5 q0 52 -34 87 q-34 35 -86 35 q-52 0 -86 -35 q-34 -35 -34 -87 q0 -52 34 -87.5 Z" /><glyph glyph-name="ydieresis" unicode="ÿ" d="M49 -229 l159 294 l-206 368 l142 0 l134 -246 l120 246 l138 0 l-349 -662 l-138 0 ZM125.5 535.5 q-21.5 21.5 -21.5 50.5 q0 29 21.5 50.5 q21.5 21.5 50.5 21.5 q29 0 50.5 -21.5 q21.5 -21.5 21.5 -50.5 q0 -29 -21.5 -50.5 q-21.5 -21.5 -50.5 -21.5 q-29 0 -50.5 21.5 ZM333.5 535.5 q-21.5 21.5 -21.5 50.5 q0 29 21.5 50.5 q21.5 21.5 50.5 21.5 q29 0 50.5 -21.5 q21.5 -21.5 21.5 -50.5 q0 -29 -21.5 -50.5 q-21.5 -21.5 -50.5 -21.5 q-29 0 -50.5 21.5 Z" /><glyph glyph-name="Amacron" unicode="&#x100;" d="M530 0 l-59 140 l-269 0 l-59 -140 l-141 0 l287 667 l102 0 l279 -667 l-140 0 ZM243 246 l190 0 l-95 240 l-95 -240 ZM153 745 l0 86 l366 0 l0 -86 l-366 0 Z" /><glyph glyph-name="amacron" unicode="&#x101;" d="M390 377 l0 56 l122 0 l0 -433 l-122 0 l0 56 q-49 -70 -133 -70 q-98 0 -159.5 67 q-61.5 67 -61.5 164 q0 98 60 164 q60 66 155 66 q94 0 139 -70 ZM368 304 q-34 35 -86 35 q-52 0 -86 -35 q-34 -35 -34 -87 q0 -52 34 -87.5 q34 -35.5 86 -35.5 q52 0 86 35.5 q34 35.5 34 87.5 q0 52 -34 87 ZM116 539 l0 80 l364 0 l0 -80 l-364 0 Z" /><glyph glyph-name="Abreve" unicode="&#x102;" d="M530 0 l-59 140 l-269 0 l-59 -140 l-141 0 l287 667 l102 0 l279 -667 l-140 0 ZM243 246 l190 0 l-95 240 l-95 -240 ZM416 870 l90 0 q-6 -63 -53 -103.5 q-47 -40.5 -117 -40.5 q-70 0 -117 40.5 q-47 40.5 -53 103.5 l90 0 q12 -60 80 -60 q68 0 80 60 Z" /><glyph glyph-name="abreve" unicode="&#x103;" d="M390 377 l0 56 l122 0 l0 -433 l-122 0 l0 56 q-49 -70 -133 -70 q-98 0 -159.5 67 q-61.5 67 -61.5 164 q0 98 60 164 q60 66 155 66 q94 0 139 -70 ZM368 304 q-34 35 -86 35 q-52 0 -86 -35 q-34 -35 -34 -87 q0 -52 34 -87.5 q34 -35.5 86 -35.5 q52 0 86 35.5 q34 35.5 34 87.5 q0 52 -34 87 ZM364 650 l84 0 q-6 -49 -37 -87 q-47 -54 -127 -54 q-80 0 -127 54 q-31 38 -37 87 l84 0 q5 -26 22 -42 q21 -21 58 -21 q37 0 58 21 q17 16 22 42 Z" /><glyph glyph-name="Aogonek" unicode="&#x104;" d="M202 140 l-59 -140 l-141 0 l287 667 l102 0 l279 -667 l-70 0 q-25 -18 -40 -36 q-18 -23 -18 -47 q0 -15 10 -25 q11 -11 33 -11 q21 0 47 12 l-14 -69 q-33 -17 -67 -17 q-43 0 -71 26 q-24 24 -24 59 q0 34 23 64 q19 24 51 44 l-59 140 l-269 0 ZM243 246 l190 0 l-94 240 l-96 -240 Z" /><glyph glyph-name="aogonek" unicode="&#x105;" d="M390 377 l0 56 l122 0 l0 -433 l-40 0 q-27 -17 -42 -36 q-20 -22 -20 -43 q0 -17 15 -29 q12 -9 31 -9 q24 0 46 12 l-14 -67 q-27 -17 -62 -17 q-44 0 -69 24 q-23 23 -23 57 q0 36 26 68 q19 22 48 40 l-18 0 l0 56 q-49 -70 -133 -70 q-94 0 -156 63 q-65 67 -65 168 q0 106 67 171 q61 59 148 59 q94 0 139 -70 ZM282 339 q-53 0 -86 -35 q-34 -36 -34 -87 q0 -54 34 -88 q35 -35 86 -35 q53 0 86 35 q34 34 34 88 q0 55 -35 88 q-34 34 -85 34 Z" /><glyph glyph-name="Cacute" unicode="&#x106;" d="M560 176 l0 -152 q-74 -39 -165 -39 q-146 0 -244 93 q-107 103 -107 255 q0 162 107 261 q94 88 245 88 q88 0 164 -41 l0 -152 q-65 75 -161 75 q-98 0 -159.5 -68.5 q-61.5 -68.5 -61.5 -164.5 q0 -105 68 -166.5 q68 -61.5 158 -61.5 q94 0 156 73 ZM366 728 l-56 50 l140 142 l90 -70 l-174 -122 Z" /><glyph glyph-name="cacute" unicode="&#x107;" d="M384 421 l0 -120 q-41 38 -100 38 q-58 0 -90 -35.5 q-32 -35.5 -32 -86.5 q0 -53 35.5 -88 q35.5 -35 90.5 -35 q54 0 96 38 l0 -119 q-54 -27 -112 -27 q-101 0 -167 63 q-69 65 -69 166 q0 110 75 176 q63 56 156 56 q63 0 117 -26 ZM318 700 l88 -56 l-150 -134 l-56 40 l118 150 Z" /><glyph glyph-name="Ccircumflex" unicode="&#x108;" d="M560 176 l0 -152 q-74 -39 -165 -39 q-146 0 -244 93 q-107 103 -107 255 q0 162 107 261 q94 88 245 88 q88 0 164 -41 l0 -152 q-65 75 -161 75 q-98 0 -159.5 -68.5 q-61.5 -68.5 -61.5 -164.5 q0 -105 68 -166.5 q68 -61.5 158 -61.5 q94 0 156 73 ZM380 820 l-120 -88 l-60 64 l180 134 l180 -134 l-60 -64 l-120 88 Z" /><glyph glyph-name="ccircumflex" unicode="&#x109;" d="M384 421 l0 -120 q-41 38 -100 38 q-58 0 -90 -35.5 q-32 -35.5 -32 -86.5 q0 -53 35.5 -88 q35.5 -35 90.5 -35 q54 0 96 38 l0 -119 q-54 -27 -112 -27 q-101 0 -167 63 q-69 65 -69 166 q0 110 75 176 q63 56 156 56 q63 0 117 -26 ZM260 602 l-110 -92 l-60 60 l170 138 l170 -138 l-60 -60 l-110 92 Z" /><glyph glyph-name="Cdotaccent" unicode="&#x10a;" d="M560 176 l0 -152 q-74 -39 -165 -39 q-146 0 -244 93 q-107 103 -107 255 q0 162 107 261 q94 88 245 88 q88 0 164 -41 l0 -152 q-65 75 -161 75 q-98 0 -159.5 -68.5 q-61.5 -68.5 -61.5 -164.5 q0 -105 68 -166.5 q68 -61.5 158 -61.5 q94 0 156 73 ZM341.5 761.5 q-22.5 22.5 -22.5 55.5 q0 33 22.5 55.5 q22.5 22.5 55.5 22.5 q33 0 55.5 -22.5 q22.5 -22.5 22.5 -55.5 q0 -33 -22.5 -55.5 q-22.5 -22.5 -55.5 -22.5 q-33 0 -55.5 22.5 Z" /><glyph glyph-name="cdotaccent" unicode="&#x10b;" d="M384 421 l0 -120 q-41 38 -100 38 q-58 0 -90 -35.5 q-32 -35.5 -32 -86.5 q0 -53 35.5 -88 q35.5 -35 90.5 -35 q54 0 96 38 l0 -119 q-54 -27 -112 -27 q-101 0 -167 63 q-69 65 -69 166 q0 110 75 176 q63 56 156 56 q63 0 117 -26 ZM218 536 q-22 22 -22 54 q0 32 22 54 q22 22 54 22 q32 0 54 -22 q22 -22 22 -54 q0 -32 -22 -54 q-22 -22 -54 -22 q-32 0 -54 22 Z" /><glyph glyph-name="Ccaron" unicode="&#x10c;" d="M560 176 l0 -152 q-74 -39 -165 -39 q-146 0 -244 93 q-107 103 -107 255 q0 162 107 261 q94 88 245 88 q88 0 164 -41 l0 -152 q-65 75 -161 75 q-98 0 -159.5 -68.5 q-61.5 -68.5 -61.5 -164.5 q0 -105 68 -166.5 q68 -61.5 158 -61.5 q94 0 156 73 ZM380 842 l120 88 l60 -64 l-180 -134 l-180 134 l60 64 l120 -88 Z" /><glyph glyph-name="ccaron" unicode="&#x10d;" d="M384 421 l0 -120 q-41 38 -100 38 q-58 0 -90 -35.5 q-32 -35.5 -32 -86.5 q0 -53 35.5 -88 q35.5 -35 90.5 -35 q54 0 96 38 l0 -119 q-54 -27 -112 -27 q-101 0 -167 63 q-69 65 -69 166 q0 110 75 176 q63 56 156 56 q63 0 117 -26 ZM260 616 l110 92 l60 -60 l-170 -138 l-170 138 l60 60 l110 -92 Z" /><glyph glyph-name="Dcaron" unicode="&#x10e;" d="M76 667 l174 0 q79 0 138 -13.5 q59 -13.5 110 -51.5 q61 -46 94.5 -116 q33.5 -70 33.5 -153 q0 -175 -134 -269 q-54 -38 -110 -51 q-56 -13 -134 -13 l-172 0 l0 667 ZM206 555 l0 -443 l40 0 q102 0 163 44 q39 28 61 75.5 q22 47.5 22 101.5 q0 53 -21.5 100.5 q-21.5 47.5 -60.5 77.5 q-59 44 -164 44 l-40 0 ZM290 842 l120 88 l60 -64 l-180 -134 l-180 134 l60 64 l120 -88 Z" /><glyph glyph-name="dcaron" unicode="&#x10f;" d="M390 377 l0 352 l122 0 l0 -729 l-122 0 l0 56 q-49 -70 -133 -70 q-98 0 -159.5 67 q-61.5 67 -61.5 164 q0 98 60 164 q60 66 155 66 q94 0 139 -70 ZM368 304 q-34 35 -86 35 q-52 0 -86 -35 q-34 -35 -34 -87 q0 -52 34 -87.5 q34 -35.5 86 -35.5 q52 0 86 35.5 q34 35.5 34 87.5 q0 52 -34 87 ZM560 478 l66 212 l114 -20 l-96 -208 l-84 16 Z" /><glyph glyph-name="Dcroat" unicode="&#x110;" d="M76 667 l174 0 q79 0 138 -13.5 q59 -13.5 110 -51.5 q60 -45 93.5 -115.5 q33.5 -70.5 33.5 -153.5 q0 -173 -133 -269 q-54 -38 -110 -51 q-56 -13 -134 -13 l-172 0 l0 316 l-86 0 l0 100 l86 0 l0 251 ZM206 555 l0 -139 l122 0 l0 -100 l-122 0 l0 -204 l40 0 q101 0 162 44 q39 28 61 75.5 q22 47.5 22 101.5 q0 58 -23.5 104.5 q-23.5 46.5 -58.5 73.5 q-57 44 -163 44 l-40 0 Z" /><glyph glyph-name="dcroat" unicode="&#x111;" d="M390 377 l0 182 l-220 0 l0 78 l220 0 l0 92 l122 0 l0 -92 l78 0 l0 -78 l-78 0 l0 -559 l-122 0 l0 56 q-49 -70 -133 -70 q-98 0 -159.5 67 q-61.5 67 -61.5 164 q0 98 60 164 q60 66 155 66 q94 0 139 -70 ZM368 304 q-34 35 -86 35 q-52 0 -86 -35 q-34 -35 -34 -87 q0 -52 34 -87.5 q34 -35.5 86 -35.5 q52 0 86 35.5 q34 35.5 34 87.5 q0 52 -34 87 Z" /><glyph glyph-name="Emacron" unicode="&#x112;" d="M446 667 l0 -112 l-240 0 l0 -149 l230 0 l0 -112 l-230 0 l0 -182 l240 0 l0 -112 l-370 0 l0 667 l370 0 ZM77 745 l0 86 l366 0 l0 -86 l-366 0 Z" /><glyph glyph-name="emacron" unicode="&#x113;" d="M371 139 l112 -18 q-7 -18 -18.5 -35.5 q-11.5 -17.5 -35.5 -43 q-24 -25.5 -65 -41 q-41 -15.5 -94 -15.5 q-102 0 -166 61 q-68 64 -68 169 q0 104 66 170 q62 61 163 61 q110 0 169 -71 q52 -62 52 -170 l0 -10 l-324 0 q0 -44 21 -73 q30 -41 87 -41 q68 0 101 57 ZM166 274 l205 0 q-7 42 -36.5 64.5 q-29.5 22.5 -66.5 22.5 q-36 0 -65.5 -23 q-29.5 -23 -36.5 -64 ZM78 539 l0 80 l364 0 l0 -80 l-364 0 Z" /><glyph glyph-name="Edotaccent" unicode="&#x116;" d="M446 667 l0 -112 l-240 0 l0 -149 l230 0 l0 -112 l-230 0 l0 -182 l240 0 l0 -112 l-370 0 l0 667 l370 0 ZM204.5 761.5 q-22.5 22.5 -22.5 55.5 q0 33 22.5 55.5 q22.5 22.5 55.5 22.5 q33 0 55.5 -22.5 q22.5 -22.5 22.5 -55.5 q0 -33 -22.5 -55.5 q-22.5 -22.5 -55.5 -22.5 q-33 0 -55.5 22.5 Z" /><glyph glyph-name="edotaccent" unicode="&#x117;" d="M371 139 l112 -18 q-7 -18 -18.5 -35.5 q-11.5 -17.5 -35.5 -43 q-24 -25.5 -65 -41 q-41 -15.5 -94 -15.5 q-102 0 -166 61 q-68 64 -68 169 q0 104 66 170 q62 61 163 61 q110 0 169 -71 q52 -62 52 -170 l0 -10 l-324 0 q0 -44 21 -73 q30 -41 87 -41 q68 0 101 57 ZM166 274 l205 0 q-7 42 -36.5 64.5 q-29.5 22.5 -66.5 22.5 q-36 0 -65.5 -23 q-29.5 -23 -36.5 -64 ZM212 536 q-22 22 -22 54 q0 32 22 54 q22 22 54 22 q32 0 54 -22 q22 -22 22 -54 q0 -32 -22 -54 q-22 -22 -54 -22 q-32 0 -54 22 Z" /><glyph glyph-name="Eogonek" unicode="&#x118;" d="M446 667 l0 -112 l-240 0 l0 -149 l230 0 l0 -112 l-230 0 l0 -182 l240 0 l0 -112 l-40 0 q-25 -18 -40 -36 q-18 -23 -18 -47 q0 -15 10 -25 q11 -11 33 -11 q21 0 47 12 l-14 -69 q-33 -17 -67 -17 q-43 0 -71 26 q-24 24 -24 59 q0 34 23 64 q19 24 51 44 l-260 0 l0 667 l370 0 Z" /><glyph glyph-name="eogonek" unicode="&#x119;" d="M371 139 l112 -18 q-15 -40 -39.5 -63 q-24.5 -23 -69.5 -51 q-38 -23 -55 -43 q-20 -25 -20 -43 q0 -17 15 -29 q12 -9 31 -9 q24 0 46 12 l-14 -67 q-29 -17 -61 -17 q-46 0 -70 24 q-23 21 -23 57 q0 32 18 57 q11 17 36 37 q-108 0 -173 61 q-68 64 -68 166 q0 107 66 173 q62 61 162 61 q111 0 170 -71 q52 -61 52 -170 l0 -10 l-324 0 q-2 -42 21 -73 q32 -41 87 -41 q38 0 67 19 q23 16 34 38 ZM166 274 l205 0 q-7 40 -36 64 q-28 23 -67 23 q-39 0 -66 -23 q-30 -23 -36 -64 Z" /><glyph glyph-name="Ecaron" unicode="&#x11a;" d="M446 667 l0 -112 l-240 0 l0 -149 l230 0 l0 -112 l-230 0 l0 -182 l240 0 l0 -112 l-370 0 l0 667 l370 0 ZM260 842 l120 88 l60 -64 l-180 -134 l-180 134 l60 64 l120 -88 Z" /><glyph glyph-name="ecaron" unicode="&#x11b;" d="M371 139 l112 -18 q-7 -18 -18.5 -35.5 q-11.5 -17.5 -35.5 -43 q-24 -25.5 -65 -41 q-41 -15.5 -94 -15.5 q-102 0 -166 61 q-68 64 -68 169 q0 104 66 170 q62 61 163 61 q110 0 169 -71 q52 -62 52 -170 l0 -10 l-324 0 q0 -44 21 -73 q30 -41 87 -41 q68 0 101 57 ZM166 274 l205 0 q-7 42 -36.5 64.5 q-29.5 22.5 -66.5 22.5 q-36 0 -65.5 -23 q-29.5 -23 -36.5 -64 ZM264 616 l110 92 l60 -60 l-170 -138 l-170 138 l60 60 l110 -92 Z" /><glyph glyph-name="Gcircumflex" unicode="&#x11c;" d="M414 245 l0 112 l306 0 l0 -8 q0 -179 -98 -276 q-88 -88 -237 -88 q-152 0 -242 90 q-99 99 -99 257 q0 150 98 248 q100 102 263 102 q88 0 154 -35 q77 -39 125 -122 l-113 -61 q-27 52 -78 79 q-42 21 -94 21 q-94 0 -154 -59 q-67 -65 -67 -176 q0 -105 66 -169 q59 -57 148 -57 q78 0 131 40 q48 37 63 102 l-172 0 ZM390 820 l-120 -88 l-60 64 l180 134 l180 -134 l-60 -64 l-120 88 Z" /><glyph glyph-name="gcircumflex" unicode="&#x11d;" d="M388 377 l0 56 l122 0 l0 -413 q0 -61 -11.5 -106.5 q-11.5 -45.5 -48.5 -82.5 q-61 -61 -171 -61 q-106 0 -162 50 q-53 45 -70 129 l132 0 q8 -33 30 -52 q25 -23 74 -23 q45 0 74 27 q31 30 31 96 l0 61 q-47 -72 -133 -72 q-90 0 -150 59 q-69 69 -69 172 q0 107 67 172 q60 58 149 58 q90 0 136 -70 ZM282 339 q-49 0 -81 -30 q-39 -35 -39 -92 q0 -51 32 -85 q35 -38 88 -38 q48 0 81 30 q39 36 39 93 q0 50 -35 87 q-34 35 -85 35 ZM270 602 l-110 -92 l-60 60 l170 138 l170 -138 l-60 -60 l-110 92 Z" /><glyph glyph-name="Gbreve" unicode="&#x11e;" d="M414 245 l0 112 l306 0 l0 -8 q0 -179 -98 -276 q-88 -88 -237 -88 q-152 0 -242 90 q-99 99 -99 257 q0 150 98 248 q100 102 263 102 q88 0 154 -35 q77 -39 125 -122 l-113 -61 q-27 52 -78 79 q-42 21 -94 21 q-94 0 -154 -59 q-67 -65 -67 -176 q0 -105 66 -169 q59 -57 148 -57 q78 0 131 40 q48 37 63 102 l-172 0 ZM474 870 l90 0 q-6 -63 -53 -103.5 q-47 -40.5 -117 -40.5 q-70 0 -117 40.5 q-47 40.5 -53 103.5 l90 0 q12 -60 80 -60 q68 0 80 60 Z" /><glyph glyph-name="gbreve" unicode="&#x11f;" d="M388 377 l0 56 l122 0 l0 -413 q0 -61 -11.5 -106.5 q-11.5 -45.5 -48.5 -82.5 q-61 -61 -171 -61 q-106 0 -162 50 q-53 45 -70 129 l132 0 q8 -33 30 -52 q25 -23 74 -23 q45 0 74 27 q31 30 31 96 l0 61 q-47 -72 -133 -72 q-90 0 -150 59 q-69 69 -69 172 q0 107 67 172 q60 58 149 58 q90 0 136 -70 ZM282 339 q-49 0 -81 -30 q-39 -35 -39 -92 q0 -51 32 -85 q35 -38 88 -38 q48 0 81 30 q39 36 39 93 q0 50 -35 87 q-34 35 -85 35 ZM350 650 l84 0 q-6 -49 -37 -87 q-47 -54 -127 -54 q-80 0 -127 54 q-31 38 -37 87 l84 0 q5 -26 22 -42 q21 -21 58 -21 q37 0 58 21 q17 16 22 42 Z" /><glyph glyph-name="Gdotaccent" unicode="&#x120;" d="M414 245 l0 112 l306 0 l0 -8 q0 -179 -98 -276 q-88 -88 -237 -88 q-152 0 -242 90 q-99 99 -99 257 q0 150 98 248 q100 102 263 102 q88 0 154 -35 q77 -39 125 -122 l-113 -61 q-27 52 -78 79 q-42 21 -94 21 q-94 0 -154 -59 q-67 -65 -67 -176 q0 -105 66 -169 q59 -57 148 -57 q78 0 131 40 q48 37 63 102 l-172 0 ZM351.5 761.5 q-22.5 22.5 -22.5 55.5 q0 33 22.5 55.5 q22.5 22.5 55.5 22.5 q33 0 55.5 -22.5 q22.5 -22.5 22.5 -55.5 q0 -33 -22.5 -55.5 q-22.5 -22.5 -55.5 -22.5 q-33 0 -55.5 22.5 Z" /><glyph glyph-name="gdotaccent" unicode="&#x121;" d="M388 377 l0 56 l122 0 l0 -413 q0 -61 -11.5 -106.5 q-11.5 -45.5 -48.5 -82.5 q-61 -61 -171 -61 q-106 0 -162 50 q-53 45 -70 129 l132 0 q8 -33 30 -52 q25 -23 74 -23 q45 0 74 27 q31 30 31 96 l0 61 q-47 -72 -133 -72 q-90 0 -150 59 q-69 69 -69 172 q0 107 67 172 q60 58 149 58 q90 0 136 -70 ZM282 339 q-49 0 -81 -30 q-39 -35 -39 -92 q0 -51 32 -85 q35 -38 88 -38 q48 0 81 30 q39 36 39 93 q0 50 -35 87 q-34 35 -85 35 ZM216 536 q-22 22 -22 54 q0 32 22 54 q22 22 54 22 q32 0 54 -22 q22 -22 22 -54 q0 -32 -22 -54 q-22 -22 -54 -22 q-32 0 -54 22 Z" /><glyph glyph-name="Gcommaaccent" unicode="&#x122;" d="M414 245 l0 112 l306 0 l0 -8 q0 -179 -98 -276 q-88 -88 -237 -88 q-152 0 -242 90 q-99 99 -99 257 q0 150 98 248 q100 102 263 102 q88 0 154 -35 q77 -39 125 -122 l-113 -61 q-27 52 -78 79 q-42 21 -94 21 q-94 0 -154 -59 q-67 -65 -67 -176 q0 -105 66 -169 q59 -57 148 -57 q78 0 131 40 q48 37 63 102 l-172 0 ZM280 -258 l68 208 l112 -16 l-100 -204 l-80 12 Z" /><glyph glyph-name="gcommaaccent" unicode="&#x123;" d="M388 377 l0 56 l122 0 l0 -413 q0 -61 -11.5 -106.5 q-11.5 -45.5 -48.5 -82.5 q-61 -61 -171 -61 q-106 0 -162 50 q-53 45 -70 129 l132 0 q8 -33 30 -52 q25 -23 74 -23 q45 0 74 27 q31 30 31 96 l0 61 q-47 -72 -133 -72 q-90 0 -150 59 q-69 69 -69 172 q0 107 67 172 q60 58 149 58 q90 0 136 -70 ZM282 339 q-49 0 -81 -30 q-39 -35 -39 -92 q0 -51 32 -85 q35 -38 88 -38 q48 0 81 30 q39 36 39 93 q0 50 -35 87 q-34 35 -85 35 ZM374 690 l-68 -208 l-112 16 l100 204 l80 -12 Z" /><glyph glyph-name="Hcircumflex" unicode="&#x124;" d="M206 667 l0 -258 l282 0 l0 258 l130 0 l0 -667 l-130 0 l0 297 l-282 0 l0 -297 l-130 0 l0 667 l130 0 ZM347 820 l-120 -88 l-60 64 l180 134 l180 -134 l-60 -64 l-120 88 Z" /><glyph glyph-name="hcircumflex" unicode="&#x125;" d="M58 0 l0 729 l122 0 l0 -352 q50 70 134 70 q85 0 128 -53 q34 -42 34 -122 l0 -272 l-122 0 l0 236 q0 61 -23 85 q-21 22 -57 22 q-50 0 -75 -38 q-19 -30 -19 -84 l0 -221 l-122 0 ZM130 852 l-110 -92 l-60 60 l170 138 l170 -138 l-60 -60 l-110 92 Z" /><glyph glyph-name="Hbar" unicode="&#x126;" d="M206 667 l0 -53 l282 0 l0 53 l130 0 l0 -53 l60 0 l0 -96 l-60 0 l0 -518 l-130 0 l0 297 l-282 0 l0 -297 l-130 0 l0 518 l-60 0 l0 96 l60 0 l0 53 l130 0 ZM488 518 l-282 0 l0 -109 l282 0 l0 109 Z" /><glyph glyph-name="hbar" unicode="&#x127;" d="M68 0 l0 559 l-78 0 l0 78 l78 0 l0 92 l122 0 l0 -92 l200 0 l0 -78 l-200 0 l0 -182 q50 70 134 70 q85 0 128 -53 q34 -42 34 -122 l0 -272 l-122 0 l0 236 q0 61 -23 85 q-21 22 -57 22 q-50 0 -75 -38 q-19 -30 -19 -84 l0 -221 l-122 0 Z" /><glyph glyph-name="Imacron" unicode="&#x12a;" d="M76 667 l130 0 l0 -667 l-130 0 l0 667 ZM1 745 l0 86 l280 0 l0 -86 l-280 0 Z" /><glyph glyph-name="imacron" unicode="&#x12b;" d="M58 433 l122 0 l0 -433 l-122 0 l0 433 ZM-3 539 l0 80 l244 0 l0 -80 l-244 0 Z" /><glyph glyph-name="Iogonek" unicode="&#x12e;" d="M76 667 l130 0 l0 -667 q-25 -18 -40 -36 q-18 -23 -18 -47 q0 -15 10 -25 q11 -11 33 -11 q21 0 47 12 l-14 -69 q-33 -17 -67 -17 q-43 0 -71 26 q-24 24 -24 59 q0 34 23 64 q19 24 51 44 l-60 0 l0 667 Z" /><glyph glyph-name="iogonek" unicode="&#x12f;" d="M58 433 l122 0 l0 -433 q-27 -17 -42 -36 q-20 -22 -20 -43 q0 -17 15 -29 q12 -9 31 -9 q24 0 46 12 l-14 -67 q-27 -17 -62 -17 q-44 0 -69 24 q-23 23 -23 57 q0 36 26 68 q19 22 48 40 l-58 0 l0 433 ZM67.5 564.5 q-21.5 21.5 -21.5 51.5 q0 30 21.5 51.5 q21.5 21.5 51.5 21.5 q30 0 51.5 -21.5 q21.5 -21.5 21.5 -51.5 q0 -30 -21.5 -51.5 q-21.5 -21.5 -51.5 -21.5 q-30 0 -51.5 21.5 Z" /><glyph glyph-name="Idotaccent" unicode="&#x130;" d="M76 667 l130 0 l0 -667 l-130 0 l0 667 ZM85.5 761.5 q-22.5 22.5 -22.5 55.5 q0 33 22.5 55.5 q22.5 22.5 55.5 22.5 q33 0 55.5 -22.5 q22.5 -22.5 22.5 -55.5 q0 -33 -22.5 -55.5 q-22.5 -22.5 -55.5 -22.5 q-33 0 -55.5 22.5 Z" /><glyph glyph-name="dotlessi" unicode="&#x131;" d="M58 433 l122 0 l0 -433 l-122 0 l0 433 Z" /><glyph glyph-name="Jcircumflex" unicode="&#x134;" d="M184 667 l130 0 l0 -450 q0 -149 -78 -202 q-46 -30 -109 -30 q-88 0 -153 62 l79 95 q25 -36 65 -36 q36 0 51 23 q15 22 15 108 l0 430 ZM240 820 l-120 -88 l-60 64 l180 134 l180 -134 l-60 -64 l-120 88 Z" /><glyph glyph-name="jcircumflex" unicode="&#x135;" d="M58 433 l122 0 l0 -662 l-122 0 l0 662 ZM119 602 l-87 -78 l-56 56 l143 128 l143 -128 l-56 -56 l-87 78 Z" /><glyph glyph-name="Kcommaaccent" unicode="&#x136;" d="M206 667 l0 -282 l245 282 l164 0 l-282 -308 l297 -359 l-172 0 l-237 299 l-15 -15 l0 -284 l-130 0 l0 667 l130 0 ZM211 -258 l68 208 l112 -16 l-100 -204 l-80 12 Z" /><glyph glyph-name="kcommaaccent" unicode="&#x137;" d="M58 729 l122 0 l0 -454 l162 158 l158 0 l-203 -190 l219 -243 l-162 0 l-161 185 l-13 -12 l0 -173 l-122 0 l0 729 ZM150 -258 l68 208 l112 -16 l-100 -204 l-80 12 Z" /><glyph glyph-name="Lacute" unicode="&#x139;" d="M76 667 l130 0 l0 -555 l206 0 l0 -112 l-336 0 l0 667 ZM176 728 l-56 50 l140 142 l90 -70 l-174 -122 Z" /><glyph glyph-name="lacute" unicode="&#x13a;" d="M58 729 l122 0 l0 -729 l-122 0 l0 729 ZM187 960 l88 -56 l-150 -134 l-56 40 l118 150 Z" /><glyph glyph-name="Lcommaaccent" unicode="&#x13b;" d="M76 667 l130 0 l0 -555 l206 0 l0 -112 l-336 0 l0 667 ZM130 -258 l68 208 l112 -16 l-100 -204 l-80 12 Z" /><glyph glyph-name="lcommaaccent" unicode="&#x13c;" d="M58 729 l122 0 l0 -729 l-122 0 l0 729 ZM10 -258 l68 208 l112 -16 l-100 -204 l-80 12 Z" /><glyph glyph-name="Lcaron" unicode="&#x13d;" d="M76 667 l130 0 l0 -555 l206 0 l0 -112 l-336 0 l0 667 ZM260 468 l66 212 l114 -20 l-96 -208 l-84 16 Z" /><glyph glyph-name="lcaron" unicode="&#x13e;" d="M58 729 l122 0 l0 -729 l-122 0 l0 729 ZM228 478 l66 212 l114 -20 l-96 -208 l-84 16 Z" /><glyph glyph-name="Ldot" unicode="&#x13f;" d="M76 667 l130 0 l0 -555 l206 0 l0 -112 l-336 0 l0 667 ZM296.5 279.5 q-22.5 22.5 -22.5 55.5 q0 33 22.5 55.5 q22.5 22.5 55.5 22.5 q33 0 55.5 -22.5 q22.5 -22.5 22.5 -55.5 q0 -33 -22.5 -55.5 q-22.5 -22.5 -55.5 -22.5 q-33 0 -55.5 22.5 Z" /><glyph glyph-name="ldot" unicode="&#x140;" d="M58 729 l122 0 l0 -729 l-122 0 l0 729 ZM258 311.5 q-22 22.5 -22 53.5 q0 31 22 53.5 q22 22.5 54 22.5 q32 0 54 -22.5 q22 -22.5 22 -53.5 q0 -31 -22 -53.5 q-22 -22.5 -54 -22.5 q-32 0 -54 22.5 Z" /><glyph glyph-name="Lslash" unicode="&#x141;" d="M76 667 l130 0 l0 -226 l102 65 l0 -100 l-102 -65 l0 -229 l206 0 l0 -112 l-336 0 l0 278 l-86 -55 l0 100 l86 55 l0 289 Z" /><glyph glyph-name="lslash" unicode="&#x142;" d="M58 729 l122 0 l0 -209 l74 54 l0 -90 l-74 -54 l0 -430 l-122 0 l0 364 l-74 -54 l0 90 l74 54 l0 275 Z" /><glyph glyph-name="Nacute" unicode="&#x143;" d="M206 0 l-130 0 l0 667 l90 0 l406 -445 l0 445 l130 0 l0 -667 l-90 0 l-406 446 l0 -446 ZM365 728 l-56 50 l140 142 l90 -70 l-174 -122 Z" /><glyph glyph-name="nacute" unicode="&#x144;" d="M58 0 l0 433 l122 0 l0 -56 q50 70 134 70 q85 0 128 -53 q34 -42 34 -122 l0 -272 l-122 0 l0 236 q0 61 -23 85 q-21 22 -57 22 q-50 0 -75 -38 q-19 -30 -19 -84 l0 -221 l-122 0 ZM335 700 l88 -56 l-150 -134 l-56 40 l118 150 Z" /><glyph glyph-name="Ncommaaccent" unicode="&#x145;" d="M206 0 l-130 0 l0 667 l90 0 l406 -445 l0 445 l130 0 l0 -667 l-90 0 l-406 446 l0 -446 ZM279 -258 l68 208 l112 -16 l-100 -204 l-80 12 Z" /><glyph glyph-name="ncommaaccent" unicode="&#x146;" d="M58 0 l0 433 l122 0 l0 -56 q50 70 134 70 q85 0 128 -53 q34 -42 34 -122 l0 -272 l-122 0 l0 236 q0 61 -23 85 q-21 22 -57 22 q-50 0 -75 -38 q-19 -30 -19 -84 l0 -221 l-122 0 ZM160 -258 l68 208 l112 -16 l-100 -204 l-80 12 Z" /><glyph glyph-name="Ncaron" unicode="&#x147;" d="M206 0 l-130 0 l0 667 l90 0 l406 -445 l0 445 l130 0 l0 -667 l-90 0 l-406 446 l0 -446 ZM389 842 l120 88 l60 -64 l-180 -134 l-180 134 l60 64 l120 -88 Z" /><glyph glyph-name="ncaron" unicode="&#x148;" d="M58 0 l0 433 l122 0 l0 -56 q50 70 134 70 q85 0 128 -53 q34 -42 34 -122 l0 -272 l-122 0 l0 236 q0 61 -23 85 q-21 22 -57 22 q-50 0 -75 -38 q-19 -30 -19 -84 l0 -221 l-122 0 ZM290 616 l110 92 l60 -60 l-170 -138 l-170 138 l60 60 l110 -92 Z" /><glyph glyph-name="Omacron" unicode="&#x14c;" d="M143.5 584 q99.5 98 256.5 98 q157 0 256.5 -98 q99.5 -98 99.5 -251 q0 -153 -99.5 -250.5 q-99.5 -97.5 -256.5 -97.5 q-157 0 -256.5 97.5 q-99.5 97.5 -99.5 250.5 q0 153 99.5 251 ZM240 167.5 q62 -64.5 160 -64.5 q98 0 160 64.5 q62 64.5 62 165.5 q0 101 -62.5 166 q-62.5 65 -159.5 65 q-97 0 -159.5 -65 q-62.5 -65 -62.5 -166 q0 -101 62 -165.5 ZM217 745 l0 86 l366 0 l0 -86 l-366 0 Z" /><glyph glyph-name="omacron" unicode="&#x14d;" d="M109 386 q66 61 175 61 q109 0 175 -61 q73 -66 73 -170 q0 -103 -73 -169 q-66 -61 -175 -61 q-109 0 -175 61 q-73 66 -73 169 q0 104 73 170 ZM197 130 q35 -36 87 -36 q52 0 87 36 q35 36 35 86 q0 51 -35 87 q-35 36 -87 36 q-52 0 -87 -36 q-35 -36 -35 -87 q0 -50 35 -86 ZM102 539 l0 80 l364 0 l0 -80 l-364 0 Z" /><glyph glyph-name="Obreve" unicode="&#x14e;" d="M143.5 584 q99.5 98 256.5 98 q157 0 256.5 -98 q99.5 -98 99.5 -251 q0 -153 -99.5 -250.5 q-99.5 -97.5 -256.5 -97.5 q-157 0 -256.5 97.5 q-99.5 97.5 -99.5 250.5 q0 153 99.5 251 ZM240 167.5 q62 -64.5 160 -64.5 q98 0 160 64.5 q62 64.5 62 165.5 q0 101 -62.5 166 q-62.5 65 -159.5 65 q-97 0 -159.5 -65 q-62.5 -65 -62.5 -166 q0 -101 62 -165.5 ZM480 870 l90 0 q-6 -63 -53 -103.5 q-47 -40.5 -117 -40.5 q-70 0 -117 40.5 q-47 40.5 -53 103.5 l90 0 q12 -60 80 -60 q68 0 80 60 Z" /><glyph glyph-name="obreve" unicode="&#x14f;" d="M109 386 q66 61 175 61 q109 0 175 -61 q73 -66 73 -170 q0 -103 -73 -169 q-66 -61 -175 -61 q-109 0 -175 61 q-73 66 -73 169 q0 104 73 170 ZM197 130 q35 -36 87 -36 q52 0 87 36 q35 36 35 86 q0 51 -35 87 q-35 36 -87 36 q-52 0 -87 -36 q-35 -36 -35 -87 q0 -50 35 -86 ZM364 650 l84 0 q-6 -49 -37 -87 q-47 -54 -127 -54 q-80 0 -127 54 q-31 38 -37 87 l84 0 q5 -26 22 -42 q21 -21 58 -21 q37 0 58 21 q17 16 22 42 Z" /><glyph glyph-name="Ohungarumlaut" unicode="&#x150;" d="M143.5 584 q99.5 98 256.5 98 q157 0 256.5 -98 q99.5 -98 99.5 -251 q0 -153 -99.5 -250.5 q-99.5 -97.5 -256.5 -97.5 q-157 0 -256.5 97.5 q-99.5 97.5 -99.5 250.5 q0 153 99.5 251 ZM240 167.5 q62 -64.5 160 -64.5 q98 0 160 64.5 q62 64.5 62 165.5 q0 101 -62.5 166 q-62.5 65 -159.5 65 q-97 0 -159.5 -65 q-62.5 -65 -62.5 -166 q0 -101 62 -165.5 ZM348 921 l90 -59 l-144 -134 l-56 40 l110 153 ZM548 920 l90 -58 l-144 -134 l-56 40 l110 152 Z" /><glyph glyph-name="ohungarumlaut" unicode="&#x151;" d="M109 386 q66 61 175 61 q109 0 175 -61 q73 -66 73 -170 q0 -103 -73 -169 q-66 -61 -175 -61 q-109 0 -175 61 q-73 66 -73 169 q0 104 73 170 ZM197 130 q35 -36 87 -36 q52 0 87 36 q35 36 35 86 q0 51 -35 87 q-35 36 -87 36 q-52 0 -87 -36 q-35 -36 -35 -87 q0 -50 35 -86 ZM238 690 l82 -58 l-132 -134 l-50 40 l100 152 ZM426 689 l82 -57 l-132 -134 l-50 40 l100 151 Z" /><glyph glyph-name="OE" unicode="&#x152;" d="M988 667 l0 -112 l-234 0 l0 -149 l224 0 l0 -112 l-224 0 l0 -182 l234 0 l0 -112 l-364 0 l0 90 q-86 -105 -230 -105 q-153 0 -251.5 98.5 q-98.5 98.5 -98.5 249.5 q0 150 98.5 249.5 q98.5 99.5 249.5 99.5 q91 0 165 -45 q40 -24 67 -60 l0 90 l364 0 ZM239 167.5 q61 -64.5 156 -64.5 q95 0 156 64.5 q61 64.5 61 165.5 q0 101 -61 166 q-61 65 -156 65 q-96 0 -156.5 -65 q-60.5 -65 -60.5 -166 q0 -101 61 -165.5 Z" /><glyph glyph-name="oe" unicode="&#x153;" d="M729 139 l112 -18 q-7 -17 -18 -34.5 q-11 -17.5 -35 -43 q-24 -25.5 -65.5 -41.5 q-41.5 -16 -94.5 -16 q-113 0 -170 84 q-19 -24 -50 -46 q-57 -38 -129 -38 q-102 0 -171 61 q-72 66 -72 169 q0 104 72 170 q67 61 171 61 q114 0 178 -79 q57 79 166 79 q108 0 169 -71 q52 -62 52 -170 l0 -10 l-324 0 q-2 -43 21 -73 q30 -41 87 -41 q68 0 101 57 ZM198 127 q36 -33 81 -33 q45 0 81 33 q36 33 36 89 q0 51 -33 87 q-33 36 -84 36 q-51 0 -84 -36 q-33 -36 -33 -87 q0 -56 36 -89 ZM524 274 l205 0 q-7 42 -36.5 64.5 q-29.5 22.5 -66.5 22.5 q-36 0 -65.5 -23 q-29.5 -23 -36.5 -64 Z" /><glyph glyph-name="Racute" unicode="&#x154;" d="M76 667 l193 0 q110 0 170 -50 q66 -56 66 -150 q0 -104 -78 -157 q-30 -21 -73 -29 l208 -281 l-162 0 l-178 268 l-16 0 l0 -268 l-130 0 l0 667 ZM206 561 l0 -201 l37 0 q16 0 31.5 2.5 q15.5 2.5 40.5 11 q25 8.5 40.5 31 q15.5 22.5 15.5 56.5 q0 34 -15 56.5 q-15 22.5 -40 31 q-25 8.5 -40 10.5 q-15 2 -31 2 l-39 0 ZM263 728 l-56 50 l140 142 l90 -70 l-174 -122 Z" /><glyph glyph-name="racute" unicode="&#x155;" d="M58 0 l0 433 l122 0 l0 -65 q22 42 54 60 q30 19 72 19 q24 0 52 -10 l-16 -114 q-23 16 -57 16 q-53 0 -81 -35 q-24 -30 -24 -96 l0 -208 l-122 0 ZM258 700 l88 -56 l-150 -134 l-56 40 l118 150 Z" /><glyph glyph-name="Rcommaaccent" unicode="&#x156;" d="M76 667 l193 0 q110 0 170 -50 q66 -56 66 -150 q0 -104 -78 -157 q-30 -21 -73 -29 l208 -281 l-162 0 l-178 268 l-16 0 l0 -268 l-130 0 l0 667 ZM206 561 l0 -201 l37 0 q16 0 31.5 2.5 q15.5 2.5 40.5 11 q25 8.5 40.5 31 q15.5 22.5 15.5 56.5 q0 34 -15 56.5 q-15 22.5 -40 31 q-25 8.5 -40 10.5 q-15 2 -31 2 l-39 0 ZM180 -258 l68 208 l112 -16 l-100 -204 l-80 12 Z" /><glyph glyph-name="rcommaaccent" unicode="&#x157;" d="M58 0 l0 433 l122 0 l0 -65 q22 42 54 60 q30 19 72 19 q24 0 52 -10 l-16 -114 q-23 16 -57 16 q-53 0 -81 -35 q-24 -30 -24 -96 l0 -208 l-122 0 ZM90 -258 l68 208 l112 -16 l-100 -204 l-80 12 Z" /><glyph glyph-name="Rcaron" unicode="&#x158;" d="M76 667 l193 0 q110 0 170 -50 q66 -56 66 -150 q0 -104 -78 -157 q-30 -21 -73 -29 l208 -281 l-162 0 l-178 268 l-16 0 l0 -268 l-130 0 l0 667 ZM206 561 l0 -201 l37 0 q16 0 31.5 2.5 q15.5 2.5 40.5 11 q25 8.5 40.5 31 q15.5 22.5 15.5 56.5 q0 34 -15 56.5 q-15 22.5 -40 31 q-25 8.5 -40 10.5 q-15 2 -31 2 l-39 0 ZM270 842 l120 88 l60 -64 l-180 -134 l-180 134 l60 64 l120 -88 Z" /><glyph glyph-name="rcaron" unicode="&#x159;" d="M58 0 l0 433 l122 0 l0 -65 q22 42 54 60 q30 19 72 19 q24 0 52 -10 l-16 -114 q-23 16 -57 16 q-53 0 -81 -35 q-24 -30 -24 -96 l0 -208 l-122 0 ZM210 616 l110 92 l60 -60 l-170 -138 l-170 138 l60 60 l110 -92 Z" /><glyph glyph-name="Sacute" unicode="&#x15a;" d="M472 604 l-68 -89 q-43 57 -109 57 q-48 0 -70 -23.5 q-22 -23.5 -22 -54.5 q0 -27 21 -45 q16 -15 80 -38 q99 -34 135 -67 q57 -51 57 -140 q0 -98 -64.5 -158.5 q-64.5 -60.5 -167.5 -60.5 q-144 0 -230 126 l85 81 q22 -45 61 -67 q39 -22 79 -22 q45 0 74 25.5 q29 25.5 29 66.5 q0 35 -26 60 q-24 22 -103 49 q-74 25 -111 58 q-53 46 -53 124 q0 81 55 138.5 q55 57.5 159 57.5 q113 0 189 -78 ZM266 728 l-56 50 l140 142 l90 -70 l-174 -122 Z" /><glyph glyph-name="sacute" unicode="&#x15b;" d="M354 401 l-60 -71 q-31 29 -71 29 q-22 0 -34.5 -9.5 q-12.5 -9.5 -12.5 -25.5 q0 -26 39 -39 l29 -9 q85 -27 110 -62 q22 -30 22 -72 q0 -66 -48 -110 q-50 -46 -130 -46 q-101 0 -168 72 l64 74 q43 -50 96 -50 q26 0 43 12.5 q17 12.5 17 34.5 q0 30 -38 44 l-28 10 q-65 23 -93 52 q-33 35 -33 83 q0 60 45 98 q39 31 113 31 q78 0 138 -46 ZM270 700 l88 -56 l-150 -134 l-56 40 l118 150 Z" /><glyph glyph-name="Scircumflex" unicode="&#x15c;" d="M472 604 l-68 -89 q-43 57 -109 57 q-48 0 -70 -23.5 q-22 -23.5 -22 -54.5 q0 -27 21 -45 q16 -15 80 -38 q99 -34 135 -67 q57 -51 57 -140 q0 -98 -64.5 -158.5 q-64.5 -60.5 -167.5 -60.5 q-144 0 -230 126 l85 81 q22 -45 61 -67 q39 -22 79 -22 q45 0 74 25.5 q29 25.5 29 66.5 q0 35 -26 60 q-24 22 -103 49 q-74 25 -111 58 q-53 46 -53 124 q0 81 55 138.5 q55 57.5 159 57.5 q113 0 189 -78 ZM280 820 l-120 -88 l-60 64 l180 134 l180 -134 l-60 -64 l-120 88 Z" /><glyph glyph-name="scircumflex" unicode="&#x15d;" d="M354 401 l-60 -71 q-31 29 -71 29 q-22 0 -34.5 -9.5 q-12.5 -9.5 -12.5 -25.5 q0 -26 39 -39 l29 -9 q85 -27 110 -62 q22 -30 22 -72 q0 -66 -48 -110 q-50 -46 -130 -46 q-101 0 -168 72 l64 74 q43 -50 96 -50 q26 0 43 12.5 q17 12.5 17 34.5 q0 30 -38 44 l-28 10 q-65 23 -93 52 q-33 35 -33 83 q0 60 45 98 q39 31 113 31 q78 0 138 -46 ZM210 602 l-110 -92 l-60 60 l170 138 l170 -138 l-60 -60 l-110 92 Z" /><glyph glyph-name="Scedilla" unicode="&#x15e;" d="M472 604 l-68 -89 q-43 57 -109 57 q-48 0 -70 -23.5 q-22 -23.5 -22 -54.5 q0 -27 21 -45 q16 -15 80 -38 q99 -34 135 -67 q57 -51 57 -140 q0 -98 -64.5 -158.5 q-64.5 -60.5 -167.5 -60.5 q-144 0 -230 126 l85 81 q22 -45 61 -67 q39 -22 79 -22 q45 0 74 25.5 q29 25.5 29 66.5 q0 35 -26 60 q-24 22 -103 49 q-74 25 -111 58 q-53 46 -53 124 q0 81 55 138.5 q55 57.5 159 57.5 q113 0 189 -78 ZM244 -46 l96 -44 l-122 -154 l-66 36 l92 162 Z" /><glyph glyph-name="scedilla" unicode="&#x15f;" d="M354 401 l-60 -71 q-31 29 -71 29 q-22 0 -34.5 -9.5 q-12.5 -9.5 -12.5 -25.5 q0 -26 39 -39 l29 -9 q85 -27 110 -62 q22 -30 22 -72 q0 -66 -48 -110 q-50 -46 -130 -46 q-101 0 -168 72 l64 74 q43 -50 96 -50 q26 0 43 12.5 q17 12.5 17 34.5 q0 30 -38 44 l-28 10 q-65 23 -93 52 q-33 35 -33 83 q0 60 45 98 q39 31 113 31 q78 0 138 -46 ZM182 -46 l88 -44 l-120 -146 l-64 40 l96 150 Z" /><glyph glyph-name="Scaron" unicode="&#x160;" d="M472 604 l-68 -89 q-43 57 -109 57 q-48 0 -70 -23.5 q-22 -23.5 -22 -54.5 q0 -27 21 -45 q16 -15 80 -38 q99 -34 135 -67 q57 -51 57 -140 q0 -98 -64.5 -158.5 q-64.5 -60.5 -167.5 -60.5 q-144 0 -230 126 l85 81 q22 -45 61 -67 q39 -22 79 -22 q45 0 74 25.5 q29 25.5 29 66.5 q0 35 -26 60 q-24 22 -103 49 q-74 25 -111 58 q-53 46 -53 124 q0 81 55 138.5 q55 57.5 159 57.5 q113 0 189 -78 ZM280 842 l120 88 l60 -64 l-180 -134 l-180 134 l60 64 l120 -88 Z" /><glyph glyph-name="scaron" unicode="&#x161;" d="M354 401 l-60 -71 q-31 29 -71 29 q-22 0 -34.5 -9.5 q-12.5 -9.5 -12.5 -25.5 q0 -26 39 -39 l29 -9 q85 -27 110 -62 q22 -30 22 -72 q0 -66 -48 -110 q-50 -46 -130 -46 q-101 0 -168 72 l64 74 q43 -50 96 -50 q26 0 43 12.5 q17 12.5 17 34.5 q0 30 -38 44 l-28 10 q-65 23 -93 52 q-33 35 -33 83 q0 60 45 98 q39 31 113 31 q78 0 138 -46 ZM210 616 l110 92 l60 -60 l-170 -138 l-170 138 l60 60 l110 -92 Z" /><glyph glyph-name="Tcedilla" unicode="&#x162;" d="M436 555 l-150 0 l0 -555 l-130 0 l0 555 l-150 0 l0 112 l430 0 l0 -112 ZM194 -46 l96 -44 l-122 -154 l-66 36 l92 162 Z" /><glyph glyph-name="tcedilla" unicode="&#x163;" d="M264 329 l-84 0 l0 -329 l-122 0 l0 329 l-48 0 l0 104 l48 0 l0 148 l122 0 l0 -148 l84 0 l0 -104 ZM102 -46 l88 -44 l-120 -146 l-64 40 l96 150 Z" /><glyph glyph-name="Tcaron" unicode="&#x164;" d="M436 555 l-150 0 l0 -555 l-130 0 l0 555 l-150 0 l0 112 l430 0 l0 -112 ZM221 842 l120 88 l60 -64 l-180 -134 l-180 134 l60 64 l120 -88 Z" /><glyph glyph-name="tcaron" unicode="&#x165;" d="M264 329 l-84 0 l0 -329 l-122 0 l0 329 l-48 0 l0 104 l48 0 l0 148 l122 0 l0 -148 l84 0 l0 -104 ZM220 478 l66 212 l114 -20 l-96 -208 l-84 16 Z" /><glyph glyph-name="Utilde" unicode="&#x168;" d="M76 667 l130 0 l0 -419 q0 -63 32 -99 q38 -46 106 -46 q68 0 106 46 q32 36 32 99 l0 419 l130 0 l0 -408 q0 -114 -50 -178 q-35 -46 -93.5 -71 q-58.5 -25 -124.5 -25 q-66 0 -124.5 25 q-58.5 25 -93.5 71 q-50 64 -50 178 l0 408 ZM471 869 l65 -48 q-18 -37 -45 -59 q-31 -28 -69 -28 q-26 0 -68 17 l-35 14 q-40 15 -50 15 q-19 0 -34 -15 q-10 -10 -16 -24 l-67 48 q17 32 39 54 q33 33 76 33 q24 0 68 -17 l39 -16 q31 -13 48 -13 q20 0 33 13 q8 8 16 26 Z" /><glyph glyph-name="utilde" unicode="&#x169;" d="M58 433 l122 0 l0 -245 q0 -52 26 -76 q25 -22 62 -22 q37 0 62 22 q26 24 26 76 l0 245 l122 0 l0 -265 q0 -87 -53 -133 q-56 -49 -157 -49 q-101 0 -157 49 q-53 46 -53 133 l0 265 ZM391 647 l59 -48 q-15 -30 -38 -53 q-29 -26 -66 -26 q-34 0 -71 16 l-34 14 q-29 12 -46 12 q-17 0 -31 -14 q-11 -11 -17 -25 l-61 48 q17 32 35 50 q29 29 72 29 q28 0 61 -13 l38 -15 q35 -14 50 -14 q20 0 31 11 q10 10 18 28 Z" /><glyph glyph-name="Umacron" unicode="&#x16a;" d="M76 667 l130 0 l0 -419 q0 -63 32 -99 q38 -46 106 -46 q68 0 106 46 q32 36 32 99 l0 419 l130 0 l0 -408 q0 -114 -50 -178 q-35 -46 -93.5 -71 q-58.5 -25 -124.5 -25 q-66 0 -124.5 25 q-58.5 25 -93.5 71 q-50 64 -50 178 l0 408 ZM161 745 l0 86 l366 0 l0 -86 l-366 0 Z" /><glyph glyph-name="umacron" unicode="&#x16b;" d="M58 433 l122 0 l0 -245 q0 -52 26 -76 q25 -22 62 -22 q37 0 62 22 q26 24 26 76 l0 245 l122 0 l0 -265 q0 -87 -53 -133 q-56 -49 -157 -49 q-101 0 -157 49 q-53 46 -53 133 l0 265 ZM86 539 l0 80 l364 0 l0 -80 l-364 0 Z" /><glyph glyph-name="Ubreve" unicode="&#x16c;" d="M76 667 l130 0 l0 -419 q0 -63 32 -99 q38 -46 106 -46 q68 0 106 46 q32 36 32 99 l0 419 l130 0 l0 -408 q0 -114 -50 -178 q-35 -46 -93.5 -71 q-58.5 -25 -124.5 -25 q-66 0 -124.5 25 q-58.5 25 -93.5 71 q-50 64 -50 178 l0 408 ZM424 870 l90 0 q-6 -63 -53 -103.5 q-47 -40.5 -117 -40.5 q-70 0 -117 40.5 q-47 40.5 -53 103.5 l90 0 q12 -60 80 -60 q68 0 80 60 Z" /><glyph glyph-name="ubreve" unicode="&#x16d;" d="M58 433 l122 0 l0 -245 q0 -52 26 -76 q25 -22 62 -22 q37 0 62 22 q26 24 26 76 l0 245 l122 0 l0 -265 q0 -87 -53 -133 q-56 -49 -157 -49 q-101 0 -157 49 q-53 46 -53 133 l0 265 ZM348 650 l84 0 q-6 -49 -37 -87 q-47 -54 -127 -54 q-80 0 -127 54 q-31 38 -37 87 l84 0 q5 -26 22 -42 q21 -21 58 -21 q37 0 58 21 q17 16 22 42 Z" /><glyph glyph-name="Uring" unicode="&#x16e;" d="M76 667 l130 0 l0 -419 q0 -63 32 -99 q38 -46 106 -46 q68 0 106 46 q32 36 32 99 l0 419 l130 0 l0 -408 q0 -114 -50 -178 q-35 -46 -93.5 -71 q-58.5 -25 -124.5 -25 q-66 0 -124.5 25 q-58.5 25 -93.5 71 q-50 64 -50 178 l0 408 ZM315.5 854.5 q-11.5 -11.5 -11.5 -28.5 q0 -17 11.5 -28.5 q11.5 -11.5 28.5 -11.5 q17 0 28.5 11.5 q11.5 11.5 11.5 28.5 q0 17 -11.5 28.5 q-11.5 11.5 -28.5 11.5 q-17 0 -28.5 -11.5 ZM273.5 755.5 q-28.5 28.5 -28.5 70.5 q0 42 28.5 70.5 q28.5 28.5 70.5 28.5 q42 0 70.5 -28.5 q28.5 -28.5 28.5 -70.5 q0 -42 -28.5 -70.5 q-28.5 -28.5 -70.5 -28.5 q-42 0 -70.5 28.5 Z" /><glyph glyph-name="uring" unicode="&#x16f;" d="M58 433 l122 0 l0 -245 q0 -52 26 -76 q25 -22 62 -22 q37 0 62 22 q26 24 26 76 l0 245 l122 0 l0 -265 q0 -87 -53 -133 q-56 -49 -157 -49 q-101 0 -157 49 q-53 46 -53 133 l0 265 ZM202 534 q-28 28 -28 66 q0 38 28 66 q28 28 66 28 q38 0 66 -28 q28 -28 28 -66 q0 -38 -28 -66 q-28 -28 -66 -28 q-38 0 -66 28 ZM240 628 q-11 -11 -11 -28 q0 -17 11 -28 q11 -11 28 -11 q17 0 28 11 q11 11 11 28 q0 17 -11 28 q-11 11 -28 11 q-17 0 -28 -11 Z" /><glyph glyph-name="Uhungarumlaut" unicode="&#x170;" d="M76 667 l130 0 l0 -419 q0 -63 32 -99 q38 -46 106 -46 q68 0 106 46 q32 36 32 99 l0 419 l130 0 l0 -408 q0 -114 -50 -178 q-35 -46 -93.5 -71 q-58.5 -25 -124.5 -25 q-66 0 -124.5 25 q-58.5 25 -93.5 71 q-50 64 -50 178 l0 408 ZM292 921 l90 -59 l-144 -134 l-56 40 l110 153 ZM492 920 l90 -58 l-144 -134 l-56 40 l110 152 Z" /><glyph glyph-name="uhungarumlaut" unicode="&#x171;" d="M58 433 l122 0 l0 -245 q0 -52 26 -76 q25 -22 62 -22 q37 0 62 22 q26 24 26 76 l0 245 l122 0 l0 -265 q0 -87 -53 -133 q-56 -49 -157 -49 q-101 0 -157 49 q-53 46 -53 133 l0 265 ZM222 690 l82 -58 l-132 -134 l-50 40 l100 152 ZM410 689 l82 -57 l-132 -134 l-50 40 l100 151 Z" /><glyph glyph-name="Uogonek" unicode="&#x172;" d="M76 667 l130 0 l0 -419 q0 -63 32 -99 q38 -46 106 -46 q68 0 106 46 q32 36 32 99 l0 419 l130 0 l0 -408 q0 -113 -50 -178 q-28 -36 -94 -72 q-45 -25 -61 -43 q-20 -23 -20 -49 q0 -15 10 -25 q11 -11 33 -11 q21 0 47 12 l-14 -69 q-33 -17 -67 -17 q-43 0 -71 26 q-24 22 -24 59 q0 30 15 53 q13 20 37 40 q-153 0 -227 96 q-50 64 -50 178 l0 408 Z" /><glyph glyph-name="uogonek" unicode="&#x173;" d="M58 433 l122 0 l0 -245 q0 -52 26 -76 q25 -22 62 -22 q37 0 62 22 q26 24 26 76 l0 245 l122 0 l0 -265 q0 -80 -44 -124 q-16 -16 -58 -41 q-39 -24 -52 -38 q-21 -21 -21 -44 q0 -18 15 -29 q12 -9 31 -9 q25 0 46 12 l-14 -67 q-30 -17 -62 -17 q-45 0 -69 24 q-23 21 -23 57 q0 29 16 54 q14 21 38 40 q-114 0 -170 49 q-53 46 -53 133 l0 265 Z" /><glyph glyph-name="Ydieresis" unicode="&#x178;" d="M227 0 l0 305 l-229 362 l154 0 l143 -232 l143 232 l154 0 l-235 -362 l0 -305 l-130 0 ZM132.5 760.5 q-21.5 21.5 -21.5 50.5 q0 29 21.5 50.5 q21.5 21.5 50.5 21.5 q29 0 50.5 -21.5 q21.5 -21.5 21.5 -50.5 q0 -29 -21.5 -50.5 q-21.5 -21.5 -50.5 -21.5 q-29 0 -50.5 21.5 ZM356.5 760.5 q-21.5 21.5 -21.5 50.5 q0 29 21.5 50.5 q21.5 21.5 50.5 21.5 q29 0 50.5 -21.5 q21.5 -21.5 21.5 -50.5 q0 -29 -21.5 -50.5 q-21.5 -21.5 -50.5 -21.5 q-29 0 -50.5 21.5 Z" /><glyph glyph-name="Zacute" unicode="&#x179;" d="M562 667 l-324 -555 l308 0 l0 -112 l-524 0 l324 555 l-273 0 l0 112 l489 0 ZM286 728 l-56 50 l140 142 l90 -70 l-174 -122 Z" /><glyph glyph-name="zacute" unicode="&#x17a;" d="M472 433 l-246 -329 l229 0 l0 -104 l-443 0 l246 329 l-208 0 l0 104 l422 0 ZM310 700 l88 -56 l-150 -134 l-56 40 l118 150 Z" /><glyph glyph-name="Zdotaccent" unicode="&#x17b;" d="M562 667 l-324 -555 l308 0 l0 -112 l-524 0 l324 555 l-273 0 l0 112 l489 0 ZM254.5 761.5 q-22.5 22.5 -22.5 55.5 q0 33 22.5 55.5 q22.5 22.5 55.5 22.5 q33 0 55.5 -22.5 q22.5 -22.5 22.5 -55.5 q0 -33 -22.5 -55.5 q-22.5 -22.5 -55.5 -22.5 q-33 0 -55.5 22.5 Z" /><glyph glyph-name="zdotaccent" unicode="&#x17c;" d="M472 433 l-246 -329 l229 0 l0 -104 l-443 0 l246 329 l-208 0 l0 104 l422 0 ZM196 536 q-22 22 -22 54 q0 32 22 54 q22 22 54 22 q32 0 54 -22 q22 -22 22 -54 q0 -32 -22 -54 q-22 -22 -54 -22 q-32 0 -54 22 Z" /><glyph glyph-name="Zcaron" unicode="&#x17d;" d="M562 667 l-324 -555 l308 0 l0 -112 l-524 0 l324 555 l-273 0 l0 112 l489 0 ZM310 842 l120 88 l60 -64 l-180 -134 l-180 134 l60 64 l120 -88 Z" /><glyph glyph-name="zcaron" unicode="&#x17e;" d="M472 433 l-246 -329 l229 0 l0 -104 l-443 0 l246 329 l-208 0 l0 104 l422 0 ZM250 616 l110 92 l60 -60 l-170 -138 l-170 138 l60 60 l110 -92 Z" /><glyph glyph-name="uni018F" unicode="&#x18f;" d="M44 377 l538 0 q-12 82 -71 134.5 q-59 52.5 -140 52.5 q-111 0 -178 -90 l-113 61 q55 72 131.5 109.5 q76.5 37.5 162.5 37.5 q151 0 247.5 -97 q96.5 -97 96.5 -252 q0 -155 -96 -251.5 q-96 -96.5 -247 -96.5 q-174 0 -263 130 q-68 98 -68 225 l0 37 ZM581 277 l-390 0 q4 -64 42 -110 q54 -64 144 -64 q85 0 143 57 q47 47 61 117 Z" /><glyph glyph-name="florin" unicode="&#x192;" d="M222 347 l-60 0 l16 86 l60 0 l24 130 q16 87 58 129 q46 48 124 48 q49 0 87 -19 l-20 -107 q-27 15 -55 15 q-26 0 -45 -17 q-19 -18 -26 -60 l-23 -119 l108 0 l-16 -86 l-108 0 l-46 -266 q-14 -77 -30 -123.5 q-16 -46.5 -50 -79.5 q-59 -58 -174 -58 q-26 0 -49 4 l19 112 q16 -3 32 -3 q51 0 80 26 q32 28 51 141 l43 247 Z" /><glyph glyph-name="uni01CF" unicode="&#x1cf;" d="M76 667 l130 0 l0 -667 l-130 0 l0 667 ZM141 840 l92 80 l54 -54 l-146 -124 l-146 124 l54 54 l92 -80 Z" /><glyph glyph-name="uni01D0" unicode="&#x1d0;" d="M58 433 l122 0 l0 -433 l-122 0 l0 433 ZM119 630 l87 78 l56 -56 l-143 -128 l-143 128 l56 56 l87 -78 Z" /><glyph glyph-name="uni01DD" unicode="&#x1dd;" d="M159 298 l-112 18 q55 131 209 131 q98 0 162 -61 q68 -65 68 -169 q0 -104 -66 -170 q-62 -61 -163 -61 q-110 0 -169 71 q-52 62 -52 170 l0 20 l324 0 q-1 37 -21 63 q-29 41 -83 41 q-67 0 -97 -53 ZM358 169 l-209 0 q7 -46 36 -71.5 q29 -25.5 69 -25.5 q40 0 69 26 q29 26 35 71 Z" /><glyph glyph-name="Gcaron" unicode="&#x1e6;" d="M414 245 l0 112 l306 0 l0 -8 q0 -179 -98 -276 q-88 -88 -237 -88 q-152 0 -242 90 q-99 99 -99 257 q0 150 98 248 q100 102 263 102 q88 0 154 -35 q77 -39 125 -122 l-113 -61 q-27 52 -78 79 q-42 21 -94 21 q-94 0 -154 -59 q-67 -65 -67 -176 q0 -105 66 -169 q59 -57 148 -57 q78 0 131 40 q48 37 63 102 l-172 0 ZM382 842 l120 88 l60 -64 l-180 -134 l-180 134 l60 64 l120 -88 Z" /><glyph glyph-name="gcaron" unicode="&#x1e7;" d="M388 377 l0 56 l122 0 l0 -413 q0 -61 -11.5 -106.5 q-11.5 -45.5 -48.5 -82.5 q-61 -61 -171 -61 q-106 0 -162 50 q-53 45 -70 129 l132 0 q8 -33 30 -52 q25 -23 74 -23 q45 0 74 27 q31 30 31 96 l0 61 q-47 -72 -133 -72 q-90 0 -150 59 q-69 69 -69 172 q0 107 67 172 q60 58 149 58 q90 0 136 -70 ZM282 339 q-49 0 -81 -30 q-39 -35 -39 -92 q0 -51 32 -85 q35 -38 88 -38 q48 0 81 30 q39 36 39 93 q0 50 -35 87 q-34 35 -85 35 ZM284 616 l110 92 l60 -60 l-170 -138 l-170 138 l60 60 l110 -92 Z" /><glyph glyph-name="AEacute" unicode="&#x1fc;" d="M533 0 l-59 140 l-269 0 l-59 -140 l-140 0 l289 667 l352 0 l44 -112 l-245 0 l60 -149 l241 0 l46 -112 l-242 0 l73 -182 l246 0 l44 -112 l-381 0 ZM246 246 l190 0 l-92 240 l-98 -240 ZM436 728 l-56 50 l140 142 l90 -70 l-174 -122 Z" /><glyph glyph-name="aeacute" unicode="&#x1fd;" d="M657 139 l112 -18 q-18 -46 -49.5 -76 q-31.5 -30 -66.5 -41 q-35 -11 -56 -14.5 q-21 -3.5 -41 -3.5 q-113 0 -168 82 q-62 -82 -174 -82 q-85 0 -131.5 40.5 q-46.5 40.5 -46.5 99.5 q0 61 44 100 q51 45 139 45 q59 0 112 -30 l1 21 q3 45 -37 71 q-28 18 -81 18 q-51 0 -111 -17 l0 97 q71 16 120 16 q33 0 57.5 -3.5 q24.5 -3.5 56 -20.5 q31.5 -17 51.5 -49 q58 73 164 73 q109 0 168 -71 q52 -62 52 -170 l0 -10 l-324 0 q-2 -43 21 -73 q30 -41 87 -41 q68 0 101 57 ZM154 131 q0 -22 21 -40.5 q21 -18.5 64 -18.5 q46 0 69 19.5 q23 19.5 23 41.5 q0 20 -22 36 q-22 16 -71 16 q-44 0 -64 -16.5 q-20 -16.5 -20 -37.5 ZM452 274 l205 0 q-7 42 -36.5 64.5 q-29.5 22.5 -66.5 22.5 q-36 0 -65.5 -23 q-29.5 -23 -36.5 -64 ZM472 700 l88 -56 l-150 -134 l-56 40 l118 150 Z" /><glyph glyph-name="Scommaaccent" unicode="&#x218;" d="M472 604 l-68 -89 q-43 57 -109 57 q-48 0 -70 -23.5 q-22 -23.5 -22 -54.5 q0 -27 21 -45 q16 -15 80 -38 q99 -34 135 -67 q57 -51 57 -140 q0 -98 -64.5 -158.5 q-64.5 -60.5 -167.5 -60.5 q-144 0 -230 126 l85 81 q22 -45 61 -67 q39 -22 79 -22 q45 0 74 25.5 q29 25.5 29 66.5 q0 35 -26 60 q-24 22 -103 49 q-74 25 -111 58 q-53 46 -53 124 q0 81 55 138.5 q55 57.5 159 57.5 q113 0 189 -78 ZM160 -258 l68 208 l112 -16 l-100 -204 l-80 12 Z" /><glyph glyph-name="scommaaccent" unicode="&#x219;" d="M354 401 l-60 -71 q-31 29 -71 29 q-22 0 -34.5 -9.5 q-12.5 -9.5 -12.5 -25.5 q0 -26 39 -39 l29 -9 q85 -27 110 -62 q22 -30 22 -72 q0 -66 -48 -110 q-50 -46 -130 -46 q-101 0 -168 72 l64 74 q43 -50 96 -50 q26 0 43 12.5 q17 12.5 17 34.5 q0 30 -38 44 l-28 10 q-65 23 -93 52 q-33 35 -33 83 q0 60 45 98 q39 31 113 31 q78 0 138 -46 ZM90 -258 l68 208 l112 -16 l-100 -204 l-80 12 Z" /><glyph glyph-name="Tcommaaccent" unicode="&#x21a;" d="M436 555 l-150 0 l0 -555 l-130 0 l0 555 l-150 0 l0 112 l430 0 l0 -112 ZM100 -258 l68 208 l112 -16 l-100 -204 l-80 12 Z" /><glyph glyph-name="tcommaaccent" unicode="&#x21b;" d="M264 329 l-84 0 l0 -329 l-122 0 l0 329 l-48 0 l0 104 l48 0 l0 148 l122 0 l0 -148 l84 0 l0 -104 ZM10 -258 l68 208 l112 -16 l-100 -204 l-80 12 Z" /><glyph glyph-name="uni0228" unicode="&#x228;" d="M446 667 l0 -112 l-240 0 l0 -149 l230 0 l0 -112 l-230 0 l0 -182 l240 0 l0 -112 l-370 0 l0 667 l370 0 ZM252 -46 l96 -44 l-122 -154 l-66 36 l92 162 Z" /><glyph glyph-name="uni0229" unicode="&#x229;" d="M371 139 l112 -18 q-7 -18 -18.5 -35.5 q-11.5 -17.5 -35.5 -43 q-24 -25.5 -65 -41 q-41 -15.5 -94 -15.5 q-102 0 -166 61 q-68 64 -68 169 q0 104 66 170 q62 61 163 61 q110 0 169 -71 q52 -62 52 -170 l0 -10 l-324 0 q0 -44 21 -73 q30 -41 87 -41 q68 0 101 57 ZM166 274 l205 0 q-7 42 -36.5 64.5 q-29.5 22.5 -66.5 22.5 q-36 0 -65.5 -23 q-29.5 -23 -36.5 -64 ZM273 -46 l88 -44 l-120 -146 l-64 40 l96 150 Z" /><glyph glyph-name="uni0237" unicode="&#x237;" d="M58 433 l122 0 l0 -662 l-122 0 l0 662 Z" /><glyph glyph-name="uni0259" unicode="&#x259;" d="M159 298 l-112 18 q55 131 209 131 q98 0 162 -61 q68 -65 68 -169 q0 -104 -66 -170 q-62 -61 -163 -61 q-110 0 -169 71 q-52 62 -52 170 l0 20 l324 0 q-1 37 -21 63 q-29 41 -83 41 q-67 0 -97 -53 ZM358 169 l-209 0 q7 -46 36 -71.5 q29 -25.5 69 -25.5 q40 0 69 26 q29 26 35 71 Z" /><glyph glyph-name="afii57929" unicode="&#x2bc;" d="M160 478 l66 212 l114 -20 l-96 -208 l-84 16 Z" /><glyph glyph-name="circumflex" unicode="&#x2c6;" d="M250 602 l-110 -92 l-60 60 l170 138 l170 -138 l-60 -60 l-110 92 Z" /><glyph glyph-name="caron" unicode="&#x2c7;" d="M250 616 l110 92 l60 -60 l-170 -138 l-170 138 l60 60 l110 -92 Z" /><glyph glyph-name="uni02C9" unicode="&#x2c9;" d="M68 539 l0 80 l364 0 l0 -80 l-364 0 Z" /><glyph glyph-name="breve" unicode="&#x2d8;" d="M330 650 l84 0 q-6 -49 -37 -87 q-47 -54 -127 -54 q-80 0 -127 54 q-31 38 -37 87 l84 0 q5 -26 22 -42 q21 -21 58 -21 q37 0 58 21 q17 16 22 42 Z" /><glyph glyph-name="dotaccent" unicode="&#x2d9;" d="M196 536 q-22 22 -22 54 q0 32 22 54 q22 22 54 22 q32 0 54 -22 q22 -22 22 -54 q0 -32 -22 -54 q-22 -22 -54 -22 q-32 0 -54 22 Z" /><glyph glyph-name="ring" unicode="&#x2da;" d="M184 534 q-28 28 -28 66 q0 38 28 66 q28 28 66 28 q38 0 66 -28 q28 -28 28 -66 q0 -38 -28 -66 q-28 -28 -66 -28 q-38 0 -66 28 ZM222 628 q-11 -11 -11 -28 q0 -17 11 -28 q11 -11 28 -11 q17 0 28 11 q11 11 11 28 q0 17 -11 28 q-11 11 -28 11 q-17 0 -28 -11 Z" /><glyph glyph-name="ogonek" unicode="&#x2db;" d="M280 0 l58 0 q-24 -16 -36 -30 q-20 -22 -20 -43 q0 -16 11.5 -28 q11.5 -12 33.5 -12 q21 0 47 12 l-14 -67 q-27 -17 -63 -17 q-43 0 -67 23.5 q-24 23.5 -24 56.5 q0 34 26 65 q21 24 48 40 Z" /><glyph glyph-name="tilde" unicode="&#x2dc;" d="M373 647 l59 -48 q-15 -30 -38 -53 q-29 -26 -66 -26 q-34 0 -71 16 l-34 14 q-29 12 -46 12 q-17 0 -31 -14 q-11 -11 -17 -25 l-61 48 q17 32 35 50 q29 29 72 29 q28 0 61 -13 l38 -15 q35 -14 50 -14 q20 0 31 11 q10 10 18 28 Z" /><glyph glyph-name="hungarumlaut" unicode="&#x2dd;" d="M204 690 l82 -58 l-132 -134 l-50 40 l100 152 ZM392 689 l82 -57 l-132 -134 l-50 40 l100 151 Z" /><glyph glyph-name="acutecomb" unicode="&#x301;" d="M-180 700 l88 -56 l-150 -134 l-56 40 l118 150 Z" /><glyph glyph-name="Delta" unicode="&#x394;&#x2206;" d="M650 0 l-632 0 l248 667 l132 0 l252 -667 ZM333 518 l-139 -406 l278 0 l-139 406 Z" /><glyph glyph-name="Omega" unicode="&#x3a9;&#x2126;" d="M30 0 l0 112 l142 0 q-46 28 -71 54 q-75 77 -75 200 q0 132 83.5 224 q83.5 92 224.5 92 q141 0 224.5 -92 q83.5 -92 83.5 -224 q0 -123 -75 -200 q-25 -26 -71 -54 l142 0 l0 -112 l-268 0 l0 112 q64 31 99 88 q39 66 39 155 q0 97 -51.5 153 q-51.5 56 -122.5 56 q-71 0 -122.5 -56 q-51.5 -56 -51.5 -153 q0 -89 39 -155 q35 -57 99 -88 l0 -112 l-268 0 Z" /><glyph glyph-name="pi" unicode="&#x3c0;" d="M234 0 l-122 0 l0 329 l-76 0 l0 104 l562 0 l0 -104 l-76 0 l0 -329 l-122 0 l0 329 l-166 0 l0 -329 Z" /><glyph glyph-name="afii10023" unicode="&#x401;" d="M446 667 l0 -112 l-240 0 l0 -149 l230 0 l0 -112 l-230 0 l0 -182 l240 0 l0 -112 l-370 0 l0 667 l370 0 ZM97.5 760.5 q-21.5 21.5 -21.5 50.5 q0 29 21.5 50.5 q21.5 21.5 50.5 21.5 q29 0 50.5 -21.5 q21.5 -21.5 21.5 -50.5 q0 -29 -21.5 -50.5 q-21.5 -21.5 -50.5 -21.5 q-29 0 -50.5 21.5 ZM321.5 760.5 q-21.5 21.5 -21.5 50.5 q0 29 21.5 50.5 q21.5 21.5 50.5 21.5 q29 0 50.5 -21.5 q21.5 -21.5 21.5 -50.5 q0 -29 -21.5 -50.5 q-21.5 -21.5 -50.5 -21.5 q-29 0 -50.5 21.5 Z" /><glyph glyph-name="afii10051" unicode="&#x402;" d="M496 555 l-220 0 l0 -170 q65 23 137 23 q85 0 136 -30 q91 -52 91 -175 q0 -121 -76 -172 q-53 -37 -147 -37 q-31 0 -67 6 l0 112 q33 -6 64 -6 q42 0 63 18 q29 24 29 74 q0 61 -41 84 q-24 14 -69 14 q-60 0 -120 -23 l0 -273 l-130 0 l0 555 l-140 0 l0 112 l490 0 l0 -112 Z" /><glyph glyph-name="afii10052" unicode="&#x403;" d="M430 667 l0 -112 l-224 0 l0 -555 l-130 0 l0 667 l354 0 ZM256 728 l-56 50 l140 142 l90 -70 l-174 -122 Z" /><glyph glyph-name="afii10053" unicode="&#x404;" d="M567 176 l0 -152 q-81 -39 -175 -39 q-156 0 -249 93 q-99 96 -99 255 q0 76 26.5 145.5 q26.5 69.5 73.5 115.5 q92 88 249 88 q94 0 174 -41 l0 -152 q-67 75 -175 75 q-83 0 -141 -49.5 q-58 -49.5 -73 -123.5 l319 0 l0 -112 l-319 0 q15 -83 78.5 -129.5 q63.5 -46.5 142.5 -46.5 q101 0 168 73 Z" /><glyph glyph-name="afii10054" unicode="&#x405;" d="M472 604 l-68 -89 q-43 57 -109 57 q-48 0 -70 -23.5 q-22 -23.5 -22 -54.5 q0 -27 21 -45 q16 -15 80 -38 q99 -34 135 -67 q57 -51 57 -140 q0 -98 -64.5 -158.5 q-64.5 -60.5 -167.5 -60.5 q-144 0 -230 126 l85 81 q22 -45 61 -67 q39 -22 79 -22 q45 0 74 25.5 q29 25.5 29 66.5 q0 35 -26 60 q-24 22 -103 49 q-74 25 -111 58 q-53 46 -53 124 q0 81 55 138.5 q55 57.5 159 57.5 q113 0 189 -78 Z" /><glyph glyph-name="afii10055" unicode="&#x406;" d="M76 667 l130 0 l0 -667 l-130 0 l0 667 Z" /><glyph glyph-name="afii10056" unicode="&#x407;" d="M76 667 l130 0 l0 -667 l-130 0 l0 667 ZM23 760.5 q-17 21.5 -17 50.5 q0 29 17 50.5 q17 21.5 41 21.5 q24 0 41 -21.5 q17 -21.5 17 -50.5 q0 -29 -17 -50.5 q-17 -21.5 -41 -21.5 q-24 0 -41 21.5 ZM173 760.5 q-17 21.5 -17 50.5 q0 29 17 50.5 q17 21.5 41 21.5 q24 0 41 -21.5 q17 -21.5 17 -50.5 q0 -29 -17 -50.5 q-17 -21.5 -41 -21.5 q-24 0 -41 21.5 Z" /><glyph glyph-name="afii10057" unicode="&#x408;" d="M184 667 l130 0 l0 -450 q0 -149 -78 -202 q-46 -30 -109 -30 q-88 0 -153 62 l79 95 q25 -36 65 -36 q36 0 51 23 q15 22 15 108 l0 430 Z" /><glyph glyph-name="afii10058" unicode="&#x409;" d="M140 667 l454 0 l0 -261 l104 0 q104 0 164 -55 q62 -57 62 -149 q0 -68 -36 -120 q-56 -82 -189 -82 l-235 0 l0 555 l-194 0 l0 -296 q0 -38 -1 -57 q-1 -19 -7 -54 q-6 -35 -22 -61.5 q-16 -26.5 -42 -48.5 q-52 -44 -133 -44 q-28 0 -55 6 l0 112 q20 -6 37 -6 q36 0 60 24 q16 16 23.5 44 q7.5 28 8.5 48 q1 20 1 63 l0 382 ZM594 294 l0 -182 l76 0 q120 0 120 90 q0 38 -26.5 65 q-26.5 27 -91.5 27 l-78 0 Z" /><glyph glyph-name="afii10059" unicode="&#x40a;" d="M206 667 l0 -258 l282 0 l0 258 l130 0 l0 -261 l104 0 q104 0 164 -55 q62 -57 62 -149 q0 -68 -36 -120 q-56 -82 -189 -82 l-235 0 l0 297 l-282 0 l0 -297 l-130 0 l0 667 l130 0 ZM618 294 l0 -182 l76 0 q120 0 120 90 q0 38 -26.5 65 q-26.5 27 -91.5 27 l-78 0 Z" /><glyph glyph-name="afii10060" unicode="&#x40b;" d="M476 555 l-200 0 l0 -154 q68 7 119 7 q121 0 178 -43 q67 -50 67 -160 l0 -205 l-130 0 l0 182 q0 66 -33 92 q-29 22 -95 22 q-57 0 -106 -7 l0 -289 l-130 0 l0 555 l-140 0 l0 112 l470 0 l0 -112 Z" /><glyph glyph-name="afii10061" unicode="&#x40c;" d="M206 667 l0 -282 l245 282 l164 0 l-282 -308 l297 -359 l-172 0 l-237 299 l-15 -15 l0 -284 l-130 0 l0 667 l130 0 ZM294 728 l-56 50 l140 142 l90 -70 l-174 -122 Z" /><glyph glyph-name="afii10062" unicode="&#x40e;" d="M2 667 l152 0 l169 -336 l143 336 l142 0 l-309 -667 l-142 0 l93 186 l-248 481 ZM130 844 l90 36 q22 -58 90 -58 q68 0 90 58 l90 -36 q-20 -52 -66.5 -82 q-46.5 -30 -113.5 -30 q-67 0 -113.5 30 q-46.5 30 -66.5 82 Z" /><glyph glyph-name="afii10145" unicode="&#x40f;" d="M76 0 l0 667 l130 0 l0 -555 l264 0 l0 555 l130 0 l0 -667 l-202 0 l0 -166 l-120 0 l0 166 l-202 0 Z" /><glyph glyph-name="afii10017" unicode="&#x410;" d="M530 0 l-59 140 l-269 0 l-59 -140 l-141 0 l287 667 l102 0 l279 -667 l-140 0 ZM243 246 l190 0 l-95 240 l-95 -240 Z" /><glyph glyph-name="afii10018" unicode="&#x411;" d="M76 0 l0 667 l386 0 l0 -112 l-256 0 l0 -153 l90 0 q106 0 167 -54 q63 -56 63 -148 q0 -66 -37 -119 q-57 -81 -192 -81 l-221 0 ZM206 290 l0 -178 l62 0 q124 0 124 87 q0 38 -27.5 64.5 q-27.5 26.5 -94.5 26.5 l-64 0 Z" /><glyph glyph-name="afii10019" unicode="&#x412;" d="M76 667 l165 0 q109 0 163 -42 q62 -48 62 -138 q0 -89 -75 -131 q51 -8 87 -42 q48 -46 48 -125 q0 -84 -57 -135 q-61 -54 -169 -54 l-224 0 l0 667 ZM206 561 l0 -171 l37 0 q10 0 18.5 0.5 q8.5 0.5 25 5.5 q16.5 5 28 13.5 q11.5 8.5 20.5 26 q9 17.5 9 41.5 q0 43 -28 63.5 q-28 20.5 -72 20.5 l-38 0 ZM206 290 l0 -184 l56 0 q58 0 89 18 q41 24 41 77 q0 54 -49 76 q-28 13 -89 13 l-48 0 Z" /><glyph glyph-name="afii10020" unicode="&#x413;" d="M430 667 l0 -112 l-224 0 l0 -555 l-130 0 l0 667 l354 0 Z" /><glyph glyph-name="afii10021" unicode="&#x414;" d="M140 667 l450 0 l0 -555 l70 0 l0 -262 l-120 0 l0 150 l-410 0 l0 -150 l-120 0 l0 262 q34 -1 62 24.5 q28 25.5 44 65.5 q24 61 24 175 l0 290 ZM266 555 l0 -178 q0 -125 -23 -186 q-18 -46 -52 -79 l269 0 l0 443 l-194 0 Z" /><glyph glyph-name="afii10022" unicode="&#x415;" d="M446 667 l0 -112 l-240 0 l0 -149 l230 0 l0 -112 l-230 0 l0 -182 l240 0 l0 -112 l-370 0 l0 667 l370 0 Z" /><glyph glyph-name="afii10024" unicode="&#x416;" d="M385 667 l124 0 l0 -282 l222 282 l148 0 l-255 -308 l264 -359 l-150 0 l-214 299 l-15 -15 l0 -284 l-124 0 l0 284 l-15 15 l-214 -299 l-150 0 l264 359 l-255 308 l148 0 l222 -282 l0 282 Z" /><glyph glyph-name="afii10025" unicode="&#x417;" d="M158 515 l-68 89 q87 78 205 78 q101 0 160 -47.5 q59 -47.5 59 -126.5 q0 -95 -82 -141 q60 -15 92 -62 q32 -47 32 -110 q0 -94 -74 -152 q-74 -58 -191 -58 q-173 0 -251 126 l85 81 q22 -50 69.5 -74.5 q47.5 -24.5 99.5 -24.5 q63 0 95.5 29 q32.5 29 32.5 70 q0 102 -146 102 l-60 0 l0 112 l60 0 q51 0 81 22.5 q30 22.5 30 62.5 q0 37 -24 57 q-24 20 -71 20 q-86 0 -134 -53 Z" /><glyph glyph-name="afii10026" unicode="&#x418;" d="M76 667 l130 0 l0 -444 l366 444 l92 0 l0 -667 l-130 0 l0 446 l-366 -446 l-92 0 l0 667 Z" /><glyph glyph-name="afii10027" unicode="&#x419;" d="M76 667 l130 0 l0 -444 l366 444 l92 0 l0 -667 l-130 0 l0 446 l-366 -446 l-92 0 l0 667 ZM190 844 l90 36 q22 -58 90 -58 q68 0 90 58 l90 -36 q-20 -52 -66.5 -82 q-46.5 -30 -113.5 -30 q-67 0 -113.5 30 q-46.5 30 -66.5 82 Z" /><glyph glyph-name="afii10028" unicode="&#x41a;" d="M206 667 l0 -282 l245 282 l164 0 l-282 -308 l297 -359 l-172 0 l-237 299 l-15 -15 l0 -284 l-130 0 l0 667 l130 0 Z" /><glyph glyph-name="afii10029" unicode="&#x41b;" d="M140 667 l454 0 l0 -667 l-130 0 l0 555 l-194 0 l0 -296 q0 -38 -1 -57 q-1 -19 -7 -54 q-6 -35 -22 -61.5 q-16 -26.5 -42 -48.5 q-52 -44 -133 -44 q-28 0 -55 6 l0 112 q20 -6 37 -6 q36 0 60 24 q16 16 23.5 44 q7.5 28 8.5 48 q1 20 1 63 l0 382 Z" /><glyph glyph-name="afii10030" unicode="&#x41c;" d="M42 0 l124 667 l94 0 l177 -424 l185 424 l94 0 l112 -667 l-132 0 l-60 411 l-179 -411 l-44 0 l-171 411 l-68 -411 l-132 0 Z" /><glyph glyph-name="afii10031" unicode="&#x41d;" d="M206 667 l0 -258 l282 0 l0 258 l130 0 l0 -667 l-130 0 l0 297 l-282 0 l0 -297 l-130 0 l0 667 l130 0 Z" /><glyph glyph-name="afii10032" unicode="&#x41e;" d="M143.5 584 q99.5 98 256.5 98 q157 0 256.5 -98 q99.5 -98 99.5 -251 q0 -153 -99.5 -250.5 q-99.5 -97.5 -256.5 -97.5 q-157 0 -256.5 97.5 q-99.5 97.5 -99.5 250.5 q0 153 99.5 251 ZM240 167.5 q62 -64.5 160 -64.5 q98 0 160 64.5 q62 64.5 62 165.5 q0 101 -62.5 166 q-62.5 65 -159.5 65 q-97 0 -159.5 -65 q-62.5 -65 -62.5 -166 q0 -101 62 -165.5 Z" /><glyph glyph-name="afii10033" unicode="&#x41f;" d="M76 667 l528 0 l0 -667 l-130 0 l0 555 l-268 0 l0 -555 l-130 0 l0 667 Z" /><glyph glyph-name="afii10034" unicode="&#x420;" d="M76 667 l194 0 q62 0 101.5 -10.5 q39.5 -10.5 74.5 -40.5 q68 -60 68 -161 q0 -94 -55 -149 q-59 -59 -169 -59 l-84 0 l0 -247 l-130 0 l0 667 ZM206 555 l0 -196 l53 0 q57 0 85 21 q36 28 36 78 q0 49 -37 76 q-30 21 -92 21 l-45 0 Z" /><glyph glyph-name="afii10035" unicode="&#x421;" d="M560 176 l0 -152 q-74 -39 -165 -39 q-146 0 -244 93 q-107 103 -107 255 q0 162 107 261 q94 88 245 88 q88 0 164 -41 l0 -152 q-65 75 -161 75 q-98 0 -159.5 -68.5 q-61.5 -68.5 -61.5 -164.5 q0 -105 68 -166.5 q68 -61.5 158 -61.5 q94 0 156 73 Z" /><glyph glyph-name="afii10036" unicode="&#x422;" d="M436 555 l-150 0 l0 -555 l-130 0 l0 555 l-150 0 l0 112 l430 0 l0 -112 Z" /><glyph glyph-name="afii10037" unicode="&#x423;" d="M2 667 l152 0 l169 -336 l143 336 l142 0 l-309 -667 l-142 0 l93 186 l-248 481 Z" /><glyph glyph-name="afii10038" unicode="&#x424;" d="M350 0 l0 92 l-18 0 q-117 0 -188 50 q-100 71 -100 212 q0 141 100 212 q71 50 188 50 l18 0 l0 78 l130 0 l0 -78 l18 0 q117 0 188 -50 q100 -71 100 -212 q0 -141 -100 -212 q-71 -50 -188 -50 l-18 0 l0 -92 l-130 0 ZM350 204 l0 300 l-20 0 q-60 0 -98 -28 q-54 -40 -54 -122 q0 -79 54 -122 q36 -28 98 -28 l20 0 ZM480 504 l0 -300 l20 0 q63 0 99 28 q53 41 53 122 q0 83 -53 122 q-38 28 -99 28 l-20 0 Z" /><glyph glyph-name="afii10039" unicode="&#x425;" d="M8 0 l236 352 l-199 315 l156 0 l117 -207 l123 207 l156 0 l-205 -315 l228 -352 l-156 0 l-146 244 l-154 -244 l-156 0 Z" /><glyph glyph-name="afii10040" unicode="&#x426;" d="M76 0 l0 667 l130 0 l0 -555 l264 0 l0 555 l130 0 l0 -555 l80 0 l0 -262 l-120 0 l0 150 l-484 0 Z" /><glyph glyph-name="afii10041" unicode="&#x427;" d="M414 0 l0 266 q-68 -7 -119 -7 q-121 0 -178 43 q-67 50 -67 160 l0 205 l130 0 l0 -182 q0 -66 33 -92 q29 -22 95 -22 q57 0 106 7 l0 289 l130 0 l0 -667 l-130 0 Z" /><glyph glyph-name="afii10042" unicode="&#x428;" d="M76 0 l0 667 l130 0 l0 -555 l214 0 l0 555 l130 0 l0 -555 l214 0 l0 555 l130 0 l0 -667 l-818 0 Z" /><glyph glyph-name="afii10043" unicode="&#x429;" d="M76 0 l0 667 l130 0 l0 -555 l214 0 l0 555 l130 0 l0 -555 l214 0 l0 555 l130 0 l0 -555 l80 0 l0 -262 l-120 0 l0 150 l-778 0 Z" /><glyph glyph-name="afii10044" unicode="&#x42a;" d="M146 0 l0 555 l-140 0 l0 112 l270 0 l0 -261 l104 0 q104 0 164 -55 q62 -57 62 -149 q0 -68 -36 -120 q-56 -82 -189 -82 l-235 0 ZM276 294 l0 -182 l76 0 q120 0 120 90 q0 38 -26.5 65 q-26.5 27 -91.5 27 l-78 0 Z" /><glyph glyph-name="afii10045" unicode="&#x42b;" d="M76 0 l0 667 l130 0 l0 -261 l104 0 q104 0 164 -55 q62 -57 62 -149 q0 -68 -36 -120 q-56 -82 -189 -82 l-235 0 ZM206 294 l0 -182 l76 0 q120 0 120 90 q0 38 -26.5 65 q-26.5 27 -91.5 27 l-78 0 ZM594 667 l130 0 l0 -667 l-130 0 l0 667 Z" /><glyph glyph-name="afii10046" unicode="&#x42c;" d="M76 0 l0 667 l130 0 l0 -261 l104 0 q104 0 164 -55 q62 -57 62 -149 q0 -68 -36 -120 q-56 -82 -189 -82 l-235 0 ZM206 294 l0 -182 l76 0 q120 0 120 90 q0 38 -26.5 65 q-26.5 27 -91.5 27 l-78 0 Z" /><glyph glyph-name="afii10047" unicode="&#x42d;" d="M44 24 l0 152 q72 -73 176 -73 q78 0 138.5 46 q60.5 46 74.5 130 l-299 0 l0 112 l297 0 q-14 82 -73 127.5 q-59 45.5 -133 45.5 q-107 0 -181 -75 l0 152 q80 41 174 41 q157 0 249 -88 q47 -46 73.5 -115.5 q26.5 -69.5 26.5 -145.5 q0 -159 -99 -255 q-93 -93 -249 -93 q-94 0 -175 39 Z" /><glyph glyph-name="afii10048" unicode="&#x42e;" d="M206 409 l92 0 q17 98 84 171 q94 102 256 102 q153 0 248.5 -98 q95.5 -98 95.5 -251 q0 -152 -95.5 -250 q-95.5 -98 -248.5 -98 q-151 0 -243 89 q-92 89 -101 223 l-88 0 l0 -297 l-130 0 l0 667 l130 0 l0 -258 ZM486 167 q58 -64 152 -64 q94 0 152 64 q58 64 58 166 q0 112 -63.5 171.5 q-63.5 59.5 -146.5 59.5 q-83 0 -146.5 -59.5 q-63.5 -59.5 -63.5 -171.5 q0 -102 58 -166 Z" /><glyph glyph-name="afii10049" unicode="&#x42f;" d="M492 667 l0 -667 l-130 0 l0 258 l-24 0 l-170 -258 l-156 0 l198 270 q-40 6 -73 30 q-75 54 -75 161 q0 97 66 155 q58 51 171 51 l193 0 ZM362 561 l-40 0 q-16 0 -31 -2 q-15 -2 -40 -10.5 q-25 -8.5 -40 -31 q-15 -22.5 -15 -56.5 q0 -101 128 -101 l38 0 l0 201 Z" /><glyph glyph-name="afii10065" unicode="&#x430;" d="M390 377 l0 56 l122 0 l0 -433 l-122 0 l0 56 q-49 -70 -133 -70 q-98 0 -159.5 67 q-61.5 67 -61.5 164 q0 98 60 164 q60 66 155 66 q94 0 139 -70 ZM368 304 q-34 35 -86 35 q-52 0 -86 -35 q-34 -35 -34 -87 q0 -52 34 -87.5 q34 -35.5 86 -35.5 q52 0 86 35.5 q34 35.5 34 87.5 q0 52 -34 87 Z" /><glyph glyph-name="afii10066" unicode="&#x431;" d="M404 720 l112 0 q-20 -120 -142 -156 l-45 -13 q-5 -1 -28.5 -7.5 q-23.5 -6.5 -35 -10.5 q-11.5 -4 -29.5 -13 q-18 -9 -30 -21 q-44 -41 -49 -111 l2 0 q23 30 65 44.5 q42 14.5 87 14.5 q100 0 162 -61 q67 -64 67 -168 q0 -104 -73 -171 q-67 -61 -172 -61 q-110 0 -173 57 q-78 70 -78 219 q0 201 66 292 q26 36 65 59.5 q39 23.5 64 31 q25 7.5 66 15.5 q48 10 69.5 23.5 q21.5 13.5 29.5 36.5 ZM204.5 129 q34.5 -35 87.5 -35 q53 0 87.5 35 q34.5 35 34.5 87 q0 53 -34 88 q-34 35 -88 35 q-54 0 -88 -35 q-34 -35 -34 -88 q0 -52 34.5 -87 Z" /><glyph glyph-name="afii10067" unicode="&#x432;" d="M58 433 l191 0 q69 0 103 -26 q42 -32 42 -85 q0 -28 -15.5 -52.5 q-15.5 -24.5 -44.5 -36.5 q32 -6 57 -28 q33 -30 33 -81 q0 -61 -46 -96 q-38 -28 -97 -28 l-223 0 l0 433 ZM180 261 l56 0 q19 0 32 8 q16 10 16 30 q0 21 -14 31 q-10 7 -36 7 l-54 0 l0 -76 ZM180 96 l57 0 q31 0 45 11 q16 12 16 35 q0 21 -16 31 q-14 10 -42 10 l-60 0 l0 -87 Z" /><glyph glyph-name="afii10068" unicode="&#x433;" d="M58 0 l0 433 l276 0 l0 -104 l-154 0 l0 -329 l-122 0 Z" /><glyph glyph-name="afii10069" unicode="&#x434;" d="M98 433 l360 0 l0 -329 l64 0 l0 -230 l-110 0 l0 126 l-298 0 l0 -126 l-110 0 l0 230 q51 3 77 55 q17 37 17 111 l0 163 ZM336 104 l0 225 l-128 0 l0 -96 q0 -88 -48 -129 l176 0 Z" /><glyph glyph-name="afii10070" unicode="&#x435;" d="M371 139 l112 -18 q-7 -18 -18.5 -35.5 q-11.5 -17.5 -35.5 -43 q-24 -25.5 -65 -41 q-41 -15.5 -94 -15.5 q-102 0 -166 61 q-68 64 -68 169 q0 104 66 170 q62 61 163 61 q110 0 169 -71 q52 -62 52 -170 l0 -10 l-324 0 q0 -44 21 -73 q30 -41 87 -41 q68 0 101 57 ZM166 274 l205 0 q-7 42 -36.5 64.5 q-29.5 22.5 -66.5 22.5 q-36 0 -65.5 -23 q-29.5 -23 -36.5 -64 Z" /><glyph glyph-name="afii10072" unicode="&#x436;" d="M279 433 l110 0 l0 -168 l130 168 l142 0 l-165 -197 l174 -236 l-148 0 l-117 170 l-16 -18 l0 -152 l-110 0 l0 152 l-16 18 l-117 -170 l-148 0 l174 236 l-165 197 l142 0 l130 -168 l0 168 Z" /><glyph glyph-name="afii10073" unicode="&#x437;" d="M102 317 l-56 76 q68 54 164 54 q73 0 115 -29 q49 -33 49 -92 q0 -60 -60 -93 q32 -8 57 -29 q33 -30 33 -80 q0 -63 -50 -100 q-50 -38 -142 -38 q-116 0 -186 72 l60 74 q49 -46 116 -46 q42 0 59 15 q17 15 17 34 q0 24 -23 36 q-16 8 -52 8 l-51 0 l0 88 l49 0 q33 0 48 10 q15 10 15 30 q0 44 -66 44 q-56 0 -96 -34 Z" /><glyph glyph-name="afii10074" unicode="&#x438;" d="M58 433 l122 0 l0 -267 l200 267 l122 0 l0 -433 l-122 0 l0 267 l-200 -267 l-122 0 l0 433 Z" /><glyph glyph-name="afii10075" unicode="&#x439;" d="M58 433 l122 0 l0 -267 l200 267 l122 0 l0 -433 l-122 0 l0 267 l-200 -267 l-122 0 l0 433 ZM364 650 l80 -38 q-20 -56 -67 -79.5 q-47 -23.5 -97 -23.5 q-50 0 -97 23.5 q-47 23.5 -67 79.5 l80 38 q6 -27 29.5 -45 q23.5 -18 54.5 -18 q29 0 53 16 q24 16 31 47 Z" /><glyph glyph-name="afii10076" unicode="&#x43a;" d="M58 433 l122 0 l0 -168 l162 168 l152 0 l-196 -193 l206 -240 l-156 0 l-150 179 l-18 -18 l0 -161 l-122 0 l0 433 Z" /><glyph glyph-name="afii10077" unicode="&#x43b;" d="M442 433 l0 -433 l-122 0 l0 329 l-118 0 l0 -159 q0 -84 -41 -128 q-41 -46 -117 -46 q-20 0 -36 4 l0 104 q12 -2 19 -2 q33 0 50 21 q15 18 15 55 l0 255 l350 0 Z" /><glyph glyph-name="afii10078" unicode="&#x43c;" d="M12 0 l79 433 l90 0 l119 -249 l119 249 l90 0 l79 -433 l-122 0 l-36 235 l-108 -235 l-44 0 l-108 235 l-36 -235 l-122 0 Z" /><glyph glyph-name="afii10079" unicode="&#x43d;" d="M58 0 l0 433 l122 0 l0 -153 l170 0 l0 153 l122 0 l0 -433 l-122 0 l0 176 l-170 0 l0 -176 l-122 0 Z" /><glyph glyph-name="afii10080" unicode="&#x43e;" d="M109 386 q66 61 175 61 q109 0 175 -61 q73 -66 73 -170 q0 -103 -73 -169 q-66 -61 -175 -61 q-109 0 -175 61 q-73 66 -73 169 q0 104 73 170 ZM197 130 q35 -36 87 -36 q52 0 87 36 q35 36 35 86 q0 51 -35 87 q-35 36 -87 36 q-52 0 -87 -36 q-35 -36 -35 -87 q0 -50 35 -86 Z" /><glyph glyph-name="afii10081" unicode="&#x43f;" d="M58 433 l410 0 l0 -433 l-122 0 l0 329 l-166 0 l0 -329 l-122 0 l0 433 Z" /><glyph glyph-name="afii10082" unicode="&#x440;" d="M180 56 l0 -285 l-122 0 l0 662 l122 0 l0 -56 q49 70 141 70 q90 0 148 -58 q65 -65 65 -172 q0 -110 -68 -175 q-60 -56 -147 -56 q-87 0 -139 70 ZM288 339 q-47 0 -79 -29 q-41 -35 -41 -93 q0 -59 40 -94 q33 -29 80 -29 q49 0 82 31 q38 35 38 92 q0 56 -37 91 q-34 31 -83 31 Z" /><glyph glyph-name="afii10083" unicode="&#x441;" d="M384 421 l0 -120 q-41 38 -100 38 q-58 0 -90 -35.5 q-32 -35.5 -32 -86.5 q0 -53 35.5 -88 q35.5 -35 90.5 -35 q54 0 96 38 l0 -119 q-54 -27 -112 -27 q-101 0 -167 63 q-69 65 -69 166 q0 110 75 176 q63 56 156 56 q63 0 117 -26 Z" /><glyph glyph-name="afii10084" unicode="&#x442;" d="M368 329 l-120 0 l0 -329 l-122 0 l0 329 l-120 0 l0 104 l362 0 l0 -104 Z" /><glyph glyph-name="afii10085" unicode="&#x443;" d="M49 -229 l159 294 l-206 368 l142 0 l134 -246 l120 246 l138 0 l-349 -662 l-138 0 Z" /><glyph glyph-name="afii10086" unicode="&#x444;" d="M284 -229 l0 223 l-10 0 q-92 0 -152 43 q-86 60 -86 180 q0 118 86 180 q60 42 152 42 l10 0 l0 228 l122 0 l0 -228 l10 0 q93 0 152 -42 q86 -62 86 -180 q0 -120 -86 -180 q-60 -43 -152 -43 l-10 0 l0 -223 l-122 0 ZM284 102 l0 229 q-45 2 -77 -20 q-45 -31 -45 -94 q0 -65 44 -94 q30 -21 78 -21 ZM406 331 l0 -229 q48 0 78 21 q44 29 44 94 q0 63 -45 94 q-32 22 -77 20 Z" /><glyph glyph-name="afii10087" unicode="&#x445;" d="M2 0 l206 236 l-166 197 l154 0 l88 -112 l90 112 l154 0 l-169 -197 l205 -236 l-156 0 l-124 151 l-126 -151 l-156 0 Z" /><glyph glyph-name="afii10088" unicode="&#x446;" d="M58 0 l0 433 l122 0 l0 -329 l162 0 l0 329 l122 0 l0 -329 l70 0 l0 -230 l-110 0 l0 126 l-366 0 Z" /><glyph glyph-name="afii10089" unicode="&#x447;" d="M304 0 l0 148 q-52 -10 -102 -10 q-79 0 -121 40 q-39 37 -39 102 l0 153 l122 0 l0 -128 q0 -33 15 -47 q17 -16 62 -16 q30 0 63 6 l0 185 l122 0 l0 -433 l-122 0 Z" /><glyph glyph-name="afii10090" unicode="&#x448;" d="M58 0 l0 433 l122 0 l0 -329 l140 0 l0 329 l122 0 l0 -329 l140 0 l0 329 l122 0 l0 -433 l-646 0 Z" /><glyph glyph-name="afii10091" unicode="&#x449;" d="M58 0 l0 433 l122 0 l0 -329 l140 0 l0 329 l122 0 l0 -329 l140 0 l0 329 l122 0 l0 -329 l70 0 l0 -230 l-110 0 l0 126 l-606 0 Z" /><glyph glyph-name="afii10092" unicode="&#x44a;" d="M6 433 l228 0 l0 -154 l95 0 q76 0 116 -44 q33 -35 33 -93 q0 -71 -46 -110 q-37 -32 -97 -32 l-223 0 l0 329 l-106 0 l0 104 ZM234 96 l57 0 q31 0 45 11 q16 12 16 35 q0 21 -16 31 q-14 10 -42 10 l-60 0 l0 -87 Z" /><glyph glyph-name="afii10093" unicode="&#x44b;" d="M58 433 l122 0 l0 -154 l95 0 q76 0 116 -44 q33 -35 33 -93 q0 -71 -46 -110 q-37 -32 -97 -32 l-223 0 l0 433 ZM180 96 l57 0 q31 0 45 11 q16 12 16 35 q0 21 -16 31 q-14 10 -42 10 l-60 0 l0 -87 ZM470 433 l122 0 l0 -433 l-122 0 l0 433 Z" /><glyph glyph-name="afii10094" unicode="&#x44c;" d="M58 433 l122 0 l0 -154 l95 0 q76 0 116 -44 q33 -35 33 -93 q0 -71 -46 -110 q-37 -32 -97 -32 l-223 0 l0 433 ZM180 96 l57 0 q31 0 45 11 q16 12 16 35 q0 21 -16 31 q-14 10 -42 10 l-60 0 l0 -87 Z" /><glyph glyph-name="afii10095" unicode="&#x44d;" d="M34 9 l0 118 q52 -42 126 -42 q52 0 80 24 q27 24 29 66 l-179 0 l0 88 l179 0 q-6 39 -33 61 q-30 27 -77 27 q-69 0 -123 -37 l0 106 q65 27 132 27 q108 0 169 -65 q61 -63 61 -166 q0 -107 -64 -169 q-62 -62 -166 -62 q-78 0 -134 24 Z" /><glyph glyph-name="afii10096" unicode="&#x44e;" d="M180 270 l59 0 q11 67 62 116 q64 61 169 61 q106 0 172 -61 q72 -65 72 -170 q0 -102 -72 -169 q-66 -61 -172 -61 q-104 0 -169 61 q-51 49 -62 119 l-59 0 l0 -166 l-122 0 l0 433 l122 0 l0 -163 ZM385.5 129.5 q33.5 -35.5 84.5 -35.5 q51 0 84.5 35.5 q33.5 35.5 33.5 86.5 q0 52 -33.5 87.5 q-33.5 35.5 -84.5 35.5 q-51 0 -84.5 -35.5 q-33.5 -35.5 -33.5 -87.5 q0 -51 33.5 -86.5 Z" /><glyph glyph-name="afii10097" unicode="&#x44f;" d="M20 0 l128 162 q-42 6 -70 34 q-34 34 -34 92 q0 67 52 109 q46 36 134 36 l172 0 l0 -433 l-122 0 l0 152 l-14 0 l-106 -152 l-140 0 ZM280 240 l0 97 l-53 0 q-28 0 -41 -12 q-16 -15 -16 -38 q0 -24 16 -36 q14 -11 41 -11 l53 0 Z" /><glyph glyph-name="afii10071" unicode="&#x451;" d="M371 139 l112 -18 q-7 -18 -18.5 -35.5 q-11.5 -17.5 -35.5 -43 q-24 -25.5 -65 -41 q-41 -15.5 -94 -15.5 q-102 0 -166 61 q-68 64 -68 169 q0 104 66 170 q62 61 163 61 q110 0 169 -71 q52 -62 52 -170 l0 -10 l-324 0 q0 -44 21 -73 q30 -41 87 -41 q68 0 101 57 ZM166 274 l205 0 q-7 42 -36.5 64.5 q-29.5 22.5 -66.5 22.5 q-36 0 -65.5 -23 q-29.5 -23 -36.5 -64 ZM111.5 535.5 q-21.5 21.5 -21.5 50.5 q0 29 21.5 50.5 q21.5 21.5 50.5 21.5 q29 0 50.5 -21.5 q21.5 -21.5 21.5 -50.5 q0 -29 -21.5 -50.5 q-21.5 -21.5 -50.5 -21.5 q-29 0 -50.5 21.5 ZM319.5 535.5 q-21.5 21.5 -21.5 50.5 q0 29 21.5 50.5 q21.5 21.5 50.5 21.5 q29 0 50.5 -21.5 q21.5 -21.5 21.5 -50.5 q0 -29 -21.5 -50.5 q-21.5 -21.5 -50.5 -21.5 q-29 0 -50.5 21.5 Z" /><glyph glyph-name="afii10099" unicode="&#x452;" d="M68 0 l0 519 l-78 0 l0 78 l78 0 l0 132 l122 0 l0 -132 l200 0 l0 -78 l-200 0 l0 -182 q50 70 134 70 q85 0 128 -53 q34 -42 34 -122 l0 -318 q0 -82 -49 -117 q-38 -27 -106 -27 q-38 0 -69 9 l0 108 q24 -9 47 -9 q33 0 46 22 q9 15 9 60 l0 236 q0 61 -23 85 q-21 22 -57 22 q-50 0 -75 -38 q-19 -30 -19 -84 l0 -181 l-122 0 Z" /><glyph glyph-name="afii10100" unicode="&#x453;" d="M58 0 l0 433 l276 0 l0 -104 l-154 0 l0 -329 l-122 0 ZM258 700 l88 -56 l-150 -134 l-56 40 l118 150 Z" /><glyph glyph-name="afii10101" unicode="&#x454;" d="M400 124 l0 -118 q-47 -20 -116 -20 q-113 0 -178 58 q-33 30 -51.5 76 q-18.5 46 -18.5 93 q0 101 67 166 q68 68 178 68 q68 0 117 -30 l0 -106 q-52 40 -113 40 q-48 0 -82 -29 q-31 -25 -41 -62 l192 0 l0 -88 l-192 0 q4 -43 40 -66 q30 -20 92 -20 q65 0 106 38 Z" /><glyph glyph-name="afii10102" unicode="&#x455;" d="M354 401 l-60 -71 q-31 29 -71 29 q-22 0 -34.5 -9.5 q-12.5 -9.5 -12.5 -25.5 q0 -26 39 -39 l29 -9 q85 -27 110 -62 q22 -30 22 -72 q0 -66 -48 -110 q-50 -46 -130 -46 q-101 0 -168 72 l64 74 q43 -50 96 -50 q26 0 43 12.5 q17 12.5 17 34.5 q0 30 -38 44 l-28 10 q-65 23 -93 52 q-33 35 -33 83 q0 60 45 98 q39 31 113 31 q78 0 138 -46 Z" /><glyph glyph-name="afii10103" unicode="&#x456;" d="M58 433 l122 0 l0 -433 l-122 0 l0 433 ZM67.5 564.5 q-21.5 21.5 -21.5 51.5 q0 30 21.5 51.5 q21.5 21.5 51.5 21.5 q30 0 51.5 -21.5 q21.5 -21.5 21.5 -51.5 q0 -30 -21.5 -51.5 q-21.5 -21.5 -51.5 -21.5 q-30 0 -51.5 21.5 Z" /><glyph glyph-name="afii10104" unicode="&#x457;" d="M76 433 l122 0 l0 -433 l-122 0 l0 433 ZM25 566.5 q-17 21.5 -17 50.5 q0 29 17 50.5 q17 21.5 41 21.5 q22 0 39.5 -20 q17.5 -20 17.5 -52 q0 -32 -17.5 -52 q-17.5 -20 -39.5 -20 q-24 0 -41 21.5 ZM168.5 565 q-17.5 20 -17.5 52 q0 32 17.5 52 q17.5 20 39.5 20 q24 0 41 -21.5 q17 -21.5 17 -50.5 q0 -29 -17 -50.5 q-17 -21.5 -41 -21.5 q-22 0 -39.5 20 Z" /><glyph glyph-name="afii10105" unicode="&#x458;" d="M58 433 l122 0 l0 -662 l-122 0 l0 662 ZM67.5 564.5 q-21.5 21.5 -21.5 51.5 q0 30 21.5 51.5 q21.5 21.5 51.5 21.5 q30 0 51.5 -21.5 q21.5 -21.5 21.5 -51.5 q0 -30 -21.5 -51.5 q-21.5 -21.5 -51.5 -21.5 q-30 0 -51.5 21.5 Z" /><glyph glyph-name="afii10106" unicode="&#x459;" d="M442 433 l0 -154 l95 0 q76 0 116 -44 q33 -35 33 -93 q0 -71 -46 -110 q-37 -32 -97 -32 l-223 0 l0 329 l-118 0 l0 -159 q0 -84 -41 -128 q-41 -46 -117 -46 q-20 0 -36 4 l0 104 q12 -2 19 -2 q33 0 50 21 q15 18 15 55 l0 255 l350 0 ZM442 96 l57 0 q31 0 45 11 q16 12 16 35 q0 21 -16 31 q-14 10 -42 10 l-60 0 l0 -87 Z" /><glyph glyph-name="afii10107" unicode="&#x45a;" d="M58 0 l0 433 l122 0 l0 -153 l170 0 l0 153 l122 0 l0 -154 l95 0 q76 0 116 -44 q33 -35 33 -93 q0 -71 -46 -110 q-37 -32 -97 -32 l-223 0 l0 176 l-170 0 l0 -176 l-122 0 ZM472 96 l57 0 q31 0 45 11 q16 12 16 35 q0 21 -16 31 q-14 10 -42 10 l-60 0 l0 -87 Z" /><glyph glyph-name="afii10108" unicode="&#x45b;" d="M68 0 l0 519 l-78 0 l0 78 l78 0 l0 132 l122 0 l0 -132 l200 0 l0 -78 l-200 0 l0 -182 q50 70 134 70 q85 0 128 -53 q34 -42 34 -122 l0 -232 l-122 0 l0 196 q0 61 -23 85 q-21 22 -57 22 q-50 0 -75 -38 q-19 -30 -19 -84 l0 -181 l-122 0 Z" /><glyph glyph-name="afii10109" unicode="&#x45c;" d="M58 433 l122 0 l0 -168 l162 168 l152 0 l-196 -193 l206 -240 l-156 0 l-150 179 l-18 -18 l0 -161 l-122 0 l0 433 ZM318 700 l88 -56 l-150 -134 l-56 40 l118 150 Z" /><glyph glyph-name="afii10110" unicode="&#x45e;" d="M49 -229 l159 294 l-206 368 l142 0 l134 -246 l120 246 l138 0 l-349 -662 l-138 0 ZM358 650 l80 -38 q-20 -56 -67 -79.5 q-47 -23.5 -97 -23.5 q-50 0 -97 23.5 q-47 23.5 -67 79.5 l80 38 q6 -27 29.5 -45 q23.5 -18 54.5 -18 q29 0 53 16 q24 16 31 47 Z" /><glyph glyph-name="afii10193" unicode="&#x45f;" d="M58 0 l0 433 l122 0 l0 -329 l162 0 l0 329 l122 0 l0 -433 l-148 0 l0 -136 l-110 0 l0 136 l-148 0 Z" /><glyph glyph-name="afii10146" unicode="&#x462;" d="M140 0 l0 497 l-150 0 l0 100 l150 0 l0 97 l130 0 l0 -97 l200 0 l0 -100 l-200 0 l0 -107 l104 0 q104 0 164 -52 q62 -54 62 -139 q0 -68 -36 -119 q-57 -80 -189 -80 l-235 0 ZM270 290 l0 -184 l76 0 q120 0 120 92 q0 38 -26.5 65 q-26.5 27 -91.5 27 l-78 0 Z" /><glyph glyph-name="afii10194" unicode="&#x463;" d="M234 271 l95 0 q78 0 117 -44 q32 -36 32 -89 q0 -68 -46 -107 q-37 -31 -97 -31 l-223 0 l0 345 l-106 0 l0 88 l106 0 l0 234 l122 0 l0 -234 l140 0 l0 -88 l-140 0 l0 -74 ZM234 96 l57 0 q31 0 45 11 q16 12 16 35 q0 21 -16 31 q-14 10 -42 10 l-60 0 l0 -87 Z" /><glyph glyph-name="afii10147" unicode="&#x472;" d="M143 584 q99 98 256 98 q157 0 256 -98 q99 -98 99 -251 q0 -152 -99.5 -250 q-99.5 -98 -255.5 -98 q-156 0 -255.5 98 q-99.5 98 -99.5 250 q0 153 99 251 ZM618 289 l-438 0 q12 -79 71.5 -132.5 q59.5 -53.5 147.5 -53.5 q88 0 147.5 53.5 q59.5 53.5 71.5 132.5 ZM182 389 l434 0 q-16 80 -77 127.5 q-61 47.5 -140 47.5 q-79 0 -140 -47.5 q-61 -47.5 -77 -127.5 Z" /><glyph glyph-name="afii10195" unicode="&#x473;" d="M109 386 q66 61 175 61 q109 0 175 -61 q73 -66 73 -170 q0 -103 -73 -169 q-66 -61 -175 -61 q-109 0 -175 61 q-73 66 -73 169 q0 104 73 170 ZM406 184 l-244 0 q7 -45 42 -73.5 q35 -28.5 80 -28.5 q45 0 80 28.5 q35 28.5 42 73.5 ZM166 262 l236 0 q-9 41 -43 65 q-34 24 -75 24 q-41 0 -75 -24 q-34 -24 -43 -65 Z" /><glyph glyph-name="afii10148" unicode="&#x474;" d="M2 667 l142 0 l178 -448 l178 448 l142 0 l-282 -667 l-78 0 l-280 667 Z" /><glyph glyph-name="afii10196" unicode="&#x475;" d="M2 433 l136 0 l114 -244 l114 244 l136 0 l-218 -433 l-64 0 l-218 433 Z" /><glyph glyph-name="afii10050" unicode="&#x490;" d="M76 0 l0 667 l274 0 l0 150 l120 0 l0 -262 l-264 0 l0 -555 l-130 0 Z" /><glyph glyph-name="afii10098" unicode="&#x491;" d="M58 0 l0 433 l206 0 l0 126 l110 0 l0 -230 l-194 0 l0 -329 l-122 0 Z" /><glyph glyph-name="uni0492" unicode="&#x492;" d="M76 0 l0 308 l-96 0 l0 100 l96 0 l0 259 l354 0 l0 -112 l-224 0 l0 -147 l160 0 l0 -100 l-160 0 l0 -308 l-130 0 Z" /><glyph glyph-name="uni0493" unicode="&#x493;" d="M58 0 l0 158 l-68 0 l0 86 l68 0 l0 189 l276 0 l0 -104 l-154 0 l0 -85 l100 0 l0 -86 l-100 0 l0 -158 l-122 0 Z" /><glyph glyph-name="uni0494" unicode="&#x494;" d="M426 555 l-220 0 l0 -170 q65 23 137 23 q85 0 136 -30 q91 -52 91 -175 q0 -121 -76 -172 q-53 -37 -147 -37 q-31 0 -67 6 l0 112 q33 -6 64 -6 q42 0 63 18 q29 24 29 74 q0 61 -41 84 q-25 14 -69 14 q-60 0 -120 -23 l0 -273 l-130 0 l0 667 l350 0 l0 -112 Z" /><glyph glyph-name="uni0495" unicode="&#x495;" d="M58 0 l0 433 l276 0 l0 -104 l-154 0 l0 -93 l18 0 q90 0 141 -33 q81 -51 81 -168 q0 -95 -67 -163 q-69 -69 -173 -80 l0 108 q45 6 75 36 q39 37 39 97 q0 46 -26 72 q-27 27 -80 27 l-8 0 l0 -132 l-122 0 Z" /><glyph glyph-name="uni0496" unicode="&#x496;" d="M385 667 l124 0 l0 -282 l222 282 l148 0 l-255 -308 l181 -247 l83 0 l0 -262 l-120 0 l0 150 l-30 0 l-214 299 l-15 -15 l0 -284 l-124 0 l0 284 l-15 15 l-214 -299 l-150 0 l264 359 l-255 308 l148 0 l222 -282 l0 282 Z" /><glyph glyph-name="uni0497" unicode="&#x497;" d="M279 433 l110 0 l0 -168 l130 168 l142 0 l-165 -197 l97 -132 l75 0 l0 -230 l-110 0 l0 126 l-36 0 l-117 170 l-16 -18 l0 -152 l-110 0 l0 152 l-16 18 l-117 -170 l-148 0 l174 236 l-165 197 l142 0 l130 -168 l0 168 Z" /><glyph glyph-name="uni0498" unicode="&#x498;" d="M158 515 l-68 89 q41 36 87 56 q54 22 122 22 q109 0 170 -61 q45 -45 45 -114 q0 -49 -22 -87 q-20 -35 -60 -53 q62 -17 94 -64 q30 -43 30 -103 q0 -82 -56 -141 q-56 -58 -142 -67 l0 -158 l-120 0 l0 155 q-59 3 -113 38 q-49 31 -85 84 l85 81 q20 -40 58 -67 q45 -32 111 -32 q63 0 98 31 q30 27 30 68 q0 44 -29 71 q-33 31 -117 31 l-60 0 l0 112 l60 0 q55 0 84 25 q27 23 27 58 q0 36 -22 56 q-24 23 -77 23 q-71 0 -130 -53 Z" /><glyph glyph-name="uni0499" unicode="&#x499;" d="M102 317 l-56 76 q30 23 66 38 q44 16 98 16 q73 0 115 -29 q49 -32 49 -91 q0 -39 -21 -64 q-15 -18 -39 -30 q32 -8 57 -29 q33 -31 33 -79 q0 -56 -41 -94 q-41 -37 -96 -40 l0 -127 l-110 0 l0 128 q-76 9 -131 66 l60 74 q22 -21 50 -32 q35 -14 66 -14 q35 0 54 12 q22 14 22 37 q0 25 -23 36 q-16 8 -52 8 l-51 0 l0 88 l49 0 q33 0 48 10 q15 10 15 30 q0 22 -19 34 q-16 10 -47 10 q-24 0 -50 -8 q-25 -8 -46 -26 Z" /><glyph glyph-name="uni049A" unicode="&#x49a;" d="M76 667 l130 0 l0 -282 l245 282 l164 0 l-282 -308 l204 -247 l93 0 l0 -262 l-120 0 l0 150 l-52 0 l-237 299 l-15 -15 l0 -284 l-130 0 l0 667 Z" /><glyph glyph-name="uni049B" unicode="&#x49b;" d="M58 433 l122 0 l0 -168 l162 168 l152 0 l-196 -193 l117 -136 l85 0 l0 -230 l-110 0 l0 126 l-42 0 l-150 179 l-18 -18 l0 -161 l-122 0 l0 433 Z" /><glyph glyph-name="uni049C" unicode="&#x49c;" d="M76 667 l130 0 l0 -268 l69 0 l0 160 l96 0 l0 -160 l190 268 l144 0 l-228 -308 l237 -359 l-152 0 l-191 299 l0 -170 l-96 0 l0 170 l-69 0 l0 -299 l-130 0 l0 667 Z" /><glyph glyph-name="uni049D" unicode="&#x49d;" d="M58 433 l122 0 l0 -165 l48 0 l0 100 l80 0 l0 -100 l124 165 l136 0 l-154 -193 l154 -240 l-140 0 l-120 190 l0 -120 l-80 0 l0 120 l-48 0 l0 -190 l-122 0 l0 433 Z" /><glyph glyph-name="uni04A0" unicode="&#x4a0;" d="M146 0 l0 555 l-140 0 l0 112 l270 0 l0 -282 l245 282 l164 0 l-282 -308 l297 -359 l-172 0 l-237 299 l-15 -15 l0 -284 l-130 0 Z" /><glyph glyph-name="uni04A1" unicode="&#x4a1;" d="M112 0 l0 329 l-106 0 l0 104 l228 0 l0 -168 l162 168 l152 0 l-196 -193 l206 -240 l-156 0 l-150 179 l-18 -18 l0 -161 l-122 0 Z" /><glyph glyph-name="uni04A2" unicode="&#x4a2;" d="M76 0 l0 667 l130 0 l0 -258 l282 0 l0 258 l130 0 l0 -555 l80 0 l0 -262 l-120 0 l0 150 l-90 0 l0 297 l-282 0 l0 -297 l-130 0 Z" /><glyph glyph-name="uni04A3" unicode="&#x4a3;" d="M58 0 l0 433 l122 0 l0 -153 l170 0 l0 153 l122 0 l0 -329 l70 0 l0 -230 l-110 0 l0 126 l-82 0 l0 176 l-170 0 l0 -176 l-122 0 Z" /><glyph glyph-name="uni04A4" unicode="&#x4a4;" d="M76 0 l0 667 l130 0 l0 -258 l282 0 l0 258 l354 0 l0 -112 l-224 0 l0 -555 l-130 0 l0 297 l-282 0 l0 -297 l-130 0 Z" /><glyph glyph-name="uni04A5" unicode="&#x4a5;" d="M58 0 l0 433 l122 0 l0 -153 l170 0 l0 153 l276 0 l0 -104 l-154 0 l0 -329 l-122 0 l0 176 l-170 0 l0 -176 l-122 0 Z" /><glyph glyph-name="uni04AA" unicode="&#x4aa;" d="M560 176 l0 -152 q-45 -27 -104 -34 l0 -156 l-120 0 l0 155 q-113 14 -194 98 q-98 101 -98 246 q0 160 107 261 q94 88 245 88 q88 0 164 -41 l0 -152 q-65 75 -161 75 q-89 0 -148 -57 q-73 -70 -73 -176 q0 -100 65 -165 q63 -63 161 -63 q94 0 156 73 Z" /><glyph glyph-name="uni04AB" unicode="&#x4ab;" d="M384 421 l0 -120 q-42 38 -100 38 q-51 0 -88 -34 q-34 -34 -34 -87 q0 -56 37 -91 q35 -33 89 -33 q53 0 96 38 l0 -119 q-24 -14 -59 -22 l0 -127 l-110 0 l0 129 q-65 13 -110 56 q-69 65 -69 167 q0 109 75 175 q64 56 160 56 q61 0 113 -26 Z" /><glyph glyph-name="uni04AE" unicode="&#x4ae;" d="M227 0 l0 305 l-229 362 l154 0 l143 -232 l143 232 l154 0 l-235 -362 l0 -305 l-130 0 Z" /><glyph glyph-name="uni04AF" unicode="&#x4af;" d="M2 433 l136 0 l114 -244 l114 244 l136 0 l-189 -376 l0 -286 l-122 0 l0 286 l-189 376 Z" /><glyph glyph-name="uni04B0" unicode="&#x4b0;" d="M227 0 l0 205 l-180 0 l0 100 l180 0 l-229 362 l154 0 l143 -232 l143 232 l154 0 l-235 -362 l180 0 l0 -100 l-180 0 l0 -205 l-130 0 Z" /><glyph glyph-name="uni04B1" unicode="&#x4b1;" d="M2 433 l136 0 l114 -244 l114 244 l136 0 l-189 -376 l0 -37 l140 0 l0 -96 l-140 0 l0 -153 l-122 0 l0 153 l-140 0 l0 96 l140 0 l0 37 l-189 376 Z" /><glyph glyph-name="uni04B2" unicode="&#x4b2;" d="M8 0 l236 352 l-199 315 l156 0 l117 -207 l123 207 l156 0 l-205 -315 l155 -240 l73 0 l0 -262 l-120 0 l0 150 l-36 0 l-146 244 l-154 -244 l-156 0 Z" /><glyph glyph-name="uni04B3" unicode="&#x4b3;" d="M2 0 l206 236 l-166 197 l154 0 l88 -112 l90 112 l154 0 l-169 -197 l114 -132 l89 0 l0 -230 l-110 0 l0 126 l-44 0 l-124 151 l-126 -151 l-156 0 Z" /><glyph glyph-name="uni04B6" unicode="&#x4b6;" d="M414 0 l0 266 q-68 -7 -119 -7 q-121 0 -178 43 q-67 50 -67 160 l0 205 l130 0 l0 -182 q0 -66 33 -92 q29 -22 95 -22 q57 0 106 7 l0 289 l130 0 l0 -555 l80 0 l0 -262 l-120 0 l0 150 l-90 0 Z" /><glyph glyph-name="uni04B7" unicode="&#x4b7;" d="M304 0 l0 148 q-52 -10 -102 -10 q-79 0 -121 40 q-39 37 -39 102 l0 153 l122 0 l0 -128 q0 -33 15 -47 q17 -16 62 -16 q30 0 63 6 l0 185 l122 0 l0 -329 l70 0 l0 -230 l-110 0 l0 126 l-82 0 Z" /><glyph glyph-name="uni04B8" unicode="&#x4b8;" d="M454 0 l0 278 q-51 -4 -82 -5 l0 -150 l-96 0 l0 150 q-102 0 -159 41 q-67 48 -67 148 l0 205 l130 0 l0 -182 q0 -67 33 -93 q25 -19 63 -19 l0 180 l96 0 l0 -180 q35 0 82 5 l0 289 l130 0 l0 -667 l-130 0 Z" /><glyph glyph-name="uni04B9" unicode="&#x4b9;" d="M360 0 l0 160 q-26 -4 -54 -6 l0 -90 l-80 0 l0 90 q-90 0 -139 37 q-45 35 -45 103 l0 139 l122 0 l0 -128 q0 -33 20 -49 q17 -12 42 -14 l0 106 l80 0 l0 -108 q27 0 54 8 l0 185 l122 0 l0 -433 l-122 0 Z" /><glyph glyph-name="uni04BA" unicode="&#x4ba;" d="M206 667 l0 -246 q68 7 119 7 q121 0 178 -43 q67 -50 67 -160 l0 -225 l-130 0 l0 202 q0 66 -33 92 q-29 22 -95 22 q-57 0 -106 -7 l0 -309 l-130 0 l0 667 l130 0 Z" /><glyph glyph-name="uni04BB" unicode="&#x4bb;" d="M58 0 l0 729 l122 0 l0 -352 q50 70 134 70 q85 0 128 -53 q34 -42 34 -122 l0 -272 l-122 0 l0 236 q0 61 -23 85 q-21 22 -57 22 q-50 0 -75 -38 q-19 -30 -19 -84 l0 -221 l-122 0 Z" /><glyph glyph-name="uni04C0" unicode="&#x4c0;" d="M76 667 l130 0 l0 -667 l-130 0 l0 667 Z" /><glyph glyph-name="uni04C1" unicode="&#x4c1;" d="M385 667 l124 0 l0 -282 l222 282 l148 0 l-255 -308 l264 -359 l-150 0 l-214 299 l-15 -15 l0 -284 l-124 0 l0 284 l-15 15 l-214 -299 l-150 0 l264 359 l-255 308 l148 0 l222 -282 l0 282 ZM267 844 l90 36 q22 -58 90 -58 q68 0 90 58 l90 -36 q-20 -52 -66.5 -82 q-46.5 -30 -113.5 -30 q-67 0 -113.5 30 q-46.5 30 -66.5 82 Z" /><glyph glyph-name="uni04C2" unicode="&#x4c2;" d="M279 433 l110 0 l0 -168 l130 168 l142 0 l-165 -197 l174 -236 l-148 0 l-117 170 l-16 -18 l0 -152 l-110 0 l0 152 l-16 18 l-117 -170 l-148 0 l174 236 l-165 197 l142 0 l130 -168 l0 168 ZM418 650 l80 -38 q-20 -56 -67 -79.5 q-47 -23.5 -97 -23.5 q-50 0 -97 23.5 q-47 23.5 -67 79.5 l80 38 q6 -27 29.5 -45 q23.5 -18 54.5 -18 q29 0 53 16 q24 16 31 47 Z" /><glyph glyph-name="uni04C3" unicode="&#x4c3;" d="M76 667 l130 0 l0 -282 l245 282 l164 0 l-243 -264 q106 0 164 -58 q54 -55 54 -151 q0 -94 -57 -152 q-52 -53 -141 -53 q-68 0 -128 30 l34 103 q35 -21 75 -21 q37 0 59 22 q24 24 24 65 q0 49 -27 76 q-32 32 -108 32 q-52 0 -115 -7 l0 -289 l-130 0 l0 667 Z" /><glyph glyph-name="uni04C4" unicode="&#x4c4;" d="M58 433 l122 0 l0 -181 l148 181 l152 0 l-189 -203 q60 -11 98 -47 q56 -53 56 -148 q0 -96 -67 -163 q-69 -69 -173 -80 l0 108 q43 6 75 36 q39 38 39 106 q0 49 -29 75 q-29 25 -84 25 l-26 0 l0 -142 l-122 0 l0 433 Z" /><glyph glyph-name="uni04C7" unicode="&#x4c7;" d="M76 0 l0 667 l130 0 l0 -258 l282 0 l0 258 l130 0 l0 -753 q0 -69 -36 -106 q-37 -38 -111 -38 q-46 0 -85 9 l0 112 q23 -9 46 -9 q27 0 41 14 q15 16 15 68 l0 333 l-282 0 l0 -297 l-130 0 Z" /><glyph glyph-name="uni04C8" unicode="&#x4c8;" d="M58 0 l0 433 l122 0 l0 -153 l170 0 l0 153 l122 0 l0 -519 q0 -82 -49 -117 q-38 -27 -106 -27 q-38 0 -69 9 l0 108 q24 -9 47 -9 q33 0 46 22 q9 15 9 60 l0 216 l-170 0 l0 -176 l-122 0 Z" /><glyph glyph-name="uni04D0" unicode="&#x4d0;" d="M530 0 l-59 140 l-269 0 l-59 -140 l-141 0 l287 667 l102 0 l279 -667 l-140 0 ZM243 246 l190 0 l-95 240 l-95 -240 ZM156 844 l90 36 q22 -58 90 -58 q68 0 90 58 l90 -36 q-20 -52 -66.5 -82 q-46.5 -30 -113.5 -30 q-67 0 -113.5 30 q-46.5 30 -66.5 82 Z" /><glyph glyph-name="uni04D1" unicode="&#x4d1;" d="M390 377 l0 56 l122 0 l0 -433 l-122 0 l0 56 q-49 -70 -133 -70 q-98 0 -159.5 67 q-61.5 67 -61.5 164 q0 98 60 164 q60 66 155 66 q94 0 139 -70 ZM368 304 q-34 35 -86 35 q-52 0 -86 -35 q-34 -35 -34 -87 q0 -52 34 -87.5 q34 -35.5 86 -35.5 q52 0 86 35.5 q34 35.5 34 87.5 q0 52 -34 87 ZM369 650 l80 -38 q-20 -56 -67 -79.5 q-47 -23.5 -97 -23.5 q-50 0 -97 23.5 q-47 23.5 -67 79.5 l80 38 q6 -27 29.5 -45 q23.5 -18 54.5 -18 q29 0 53 16 q24 16 31 47 Z" /><glyph glyph-name="uni04D2" unicode="&#x4d2;" d="M530 0 l-59 140 l-269 0 l-59 -140 l-141 0 l287 667 l102 0 l279 -667 l-140 0 ZM243 246 l190 0 l-95 240 l-95 -240 ZM173.5 760.5 q-21.5 21.5 -21.5 50.5 q0 29 21.5 50.5 q21.5 21.5 50.5 21.5 q29 0 50.5 -21.5 q21.5 -21.5 21.5 -50.5 q0 -29 -21.5 -50.5 q-21.5 -21.5 -50.5 -21.5 q-29 0 -50.5 21.5 ZM397.5 760.5 q-21.5 21.5 -21.5 50.5 q0 29 21.5 50.5 q21.5 21.5 50.5 21.5 q29 0 50.5 -21.5 q21.5 -21.5 21.5 -50.5 q0 -29 -21.5 -50.5 q-21.5 -21.5 -50.5 -21.5 q-29 0 -50.5 21.5 Z" /><glyph glyph-name="uni04D3" unicode="&#x4d3;" d="M390 377 l0 56 l122 0 l0 -433 l-122 0 l0 56 q-49 -70 -133 -70 q-98 0 -159.5 67 q-61.5 67 -61.5 164 q0 98 60 164 q60 66 155 66 q94 0 139 -70 ZM368 304 q-34 35 -86 35 q-52 0 -86 -35 q-34 -35 -34 -87 q0 -52 34 -87.5 q34 -35.5 86 -35.5 q52 0 86 35.5 q34 35.5 34 87.5 q0 52 -34 87 ZM130.5 535.5 q-21.5 21.5 -21.5 50.5 q0 29 21.5 50.5 q21.5 21.5 50.5 21.5 q29 0 50.5 -21.5 q21.5 -21.5 21.5 -50.5 q0 -29 -21.5 -50.5 q-21.5 -21.5 -50.5 -21.5 q-29 0 -50.5 21.5 ZM338.5 535.5 q-21.5 21.5 -21.5 50.5 q0 29 21.5 50.5 q21.5 21.5 50.5 21.5 q29 0 50.5 -21.5 q21.5 -21.5 21.5 -50.5 q0 -29 -21.5 -50.5 q-21.5 -21.5 -50.5 -21.5 q-29 0 -50.5 21.5 Z" /><glyph glyph-name="uni04D4" unicode="&#x4d4;" d="M533 0 l-59 140 l-269 0 l-59 -140 l-140 0 l289 667 l352 0 l44 -112 l-245 0 l60 -149 l241 0 l46 -112 l-242 0 l73 -182 l246 0 l44 -112 l-381 0 ZM246 246 l190 0 l-92 240 l-98 -240 Z" /><glyph glyph-name="uni04D5" unicode="&#x4d5;" d="M657 139 l112 -18 q-18 -46 -49.5 -76 q-31.5 -30 -66.5 -41 q-35 -11 -56 -14.5 q-21 -3.5 -41 -3.5 q-113 0 -168 82 q-62 -82 -174 -82 q-85 0 -131.5 40.5 q-46.5 40.5 -46.5 99.5 q0 61 44 100 q51 45 139 45 q59 0 112 -30 l1 21 q3 45 -37 71 q-28 18 -81 18 q-51 0 -111 -17 l0 97 q71 16 120 16 q33 0 57.5 -3.5 q24.5 -3.5 56 -20.5 q31.5 -17 51.5 -49 q58 73 164 73 q109 0 168 -71 q52 -62 52 -170 l0 -10 l-324 0 q-2 -43 21 -73 q30 -41 87 -41 q68 0 101 57 ZM154 131 q0 -22 21 -40.5 q21 -18.5 64 -18.5 q46 0 69 19.5 q23 19.5 23 41.5 q0 20 -22 36 q-22 16 -71 16 q-44 0 -64 -16.5 q-20 -16.5 -20 -37.5 ZM452 274 l205 0 q-7 42 -36.5 64.5 q-29.5 22.5 -66.5 22.5 q-36 0 -65.5 -23 q-29.5 -23 -36.5 -64 Z" /><glyph glyph-name="uni04D6" unicode="&#x4d6;" d="M446 667 l0 -112 l-240 0 l0 -149 l230 0 l0 -112 l-230 0 l0 -182 l240 0 l0 -112 l-370 0 l0 667 l370 0 ZM80 844 l90 36 q22 -58 90 -58 q68 0 90 58 l90 -36 q-20 -52 -66.5 -82 q-46.5 -30 -113.5 -30 q-67 0 -113.5 30 q-46.5 30 -66.5 82 Z" /><glyph glyph-name="uni04D7" unicode="&#x4d7;" d="M371 139 l112 -18 q-7 -18 -18.5 -35.5 q-11.5 -17.5 -35.5 -43 q-24 -25.5 -65 -41 q-41 -15.5 -94 -15.5 q-102 0 -166 61 q-68 64 -68 169 q0 104 66 170 q62 61 163 61 q110 0 169 -71 q52 -62 52 -170 l0 -10 l-324 0 q0 -44 21 -73 q30 -41 87 -41 q68 0 101 57 ZM166 274 l205 0 q-7 42 -36.5 64.5 q-29.5 22.5 -66.5 22.5 q-36 0 -65.5 -23 q-29.5 -23 -36.5 -64 ZM350 650 l80 -38 q-20 -56 -67 -79.5 q-47 -23.5 -97 -23.5 q-50 0 -97 23.5 q-47 23.5 -67 79.5 l80 38 q6 -27 29.5 -45 q23.5 -18 54.5 -18 q29 0 53 16 q24 16 31 47 Z" /><glyph glyph-name="uni04D8" unicode="&#x4d8;" d="M44 377 l538 0 q-12 82 -71 134.5 q-59 52.5 -140 52.5 q-111 0 -178 -90 l-113 61 q55 72 131.5 109.5 q76.5 37.5 162.5 37.5 q151 0 247.5 -97 q96.5 -97 96.5 -252 q0 -155 -96 -251.5 q-96 -96.5 -247 -96.5 q-174 0 -263 130 q-68 98 -68 225 l0 37 ZM581 277 l-390 0 q4 -64 42 -110 q54 -64 144 -64 q85 0 143 57 q47 47 61 117 Z" /><glyph glyph-name="afii10846" unicode="&#x4d9;" d="M159 298 l-112 18 q55 131 209 131 q98 0 162 -61 q68 -65 68 -169 q0 -104 -66 -170 q-62 -61 -163 -61 q-110 0 -169 71 q-52 62 -52 170 l0 20 l324 0 q-1 37 -21 63 q-29 41 -83 41 q-67 0 -97 -53 ZM358 169 l-209 0 q7 -46 36 -71.5 q29 -25.5 69 -25.5 q40 0 69 26 q29 26 35 71 Z" /><glyph glyph-name="uni04DA" unicode="&#x4da;" d="M44 377 l538 0 q-12 82 -71 134.5 q-59 52.5 -140 52.5 q-111 0 -178 -90 l-113 61 q55 72 131.5 109.5 q76.5 37.5 162.5 37.5 q151 0 247.5 -97 q96.5 -97 96.5 -252 q0 -155 -96 -251.5 q-96 -96.5 -247 -96.5 q-174 0 -263 130 q-68 98 -68 225 l0 37 ZM581 277 l-390 0 q4 -64 42 -110 q54 -64 144 -64 q85 0 143 57 q47 47 61 117 ZM219.5 760.5 q-21.5 21.5 -21.5 50.5 q0 29 21.5 50.5 q21.5 21.5 50.5 21.5 q29 0 50.5 -21.5 q21.5 -21.5 21.5 -50.5 q0 -29 -21.5 -50.5 q-21.5 -21.5 -50.5 -21.5 q-29 0 -50.5 21.5 ZM443.5 760.5 q-21.5 21.5 -21.5 50.5 q0 29 21.5 50.5 q21.5 21.5 50.5 21.5 q29 0 50.5 -21.5 q21.5 -21.5 21.5 -50.5 q0 -29 -21.5 -50.5 q-21.5 -21.5 -50.5 -21.5 q-29 0 -50.5 21.5 Z" /><glyph glyph-name="uni04DB" unicode="&#x4db;" d="M159 298 l-112 18 q55 131 209 131 q98 0 162 -61 q68 -65 68 -169 q0 -104 -66 -170 q-62 -61 -163 -61 q-110 0 -169 71 q-52 62 -52 170 l0 20 l324 0 q-1 37 -21 63 q-29 41 -83 41 q-67 0 -97 -53 ZM358 169 l-209 0 q7 -46 36 -71.5 q29 -25.5 69 -25.5 q40 0 69 26 q29 26 35 71 ZM105.5 535.5 q-21.5 21.5 -21.5 50.5 q0 29 21.5 50.5 q21.5 21.5 50.5 21.5 q29 0 50.5 -21.5 q21.5 -21.5 21.5 -50.5 q0 -29 -21.5 -50.5 q-21.5 -21.5 -50.5 -21.5 q-29 0 -50.5 21.5 ZM313.5 535.5 q-21.5 21.5 -21.5 50.5 q0 29 21.5 50.5 q21.5 21.5 50.5 21.5 q29 0 50.5 -21.5 q21.5 -21.5 21.5 -50.5 q0 -29 -21.5 -50.5 q-21.5 -21.5 -50.5 -21.5 q-29 0 -50.5 21.5 Z" /><glyph glyph-name="uni04DC" unicode="&#x4dc;" d="M385 667 l124 0 l0 -282 l222 282 l148 0 l-255 -308 l264 -359 l-150 0 l-214 299 l-15 -15 l0 -284 l-124 0 l0 284 l-15 15 l-214 -299 l-150 0 l264 359 l-255 308 l148 0 l222 -282 l0 282 ZM284.5 760.5 q-21.5 21.5 -21.5 50.5 q0 29 21.5 50.5 q21.5 21.5 50.5 21.5 q29 0 50.5 -21.5 q21.5 -21.5 21.5 -50.5 q0 -29 -21.5 -50.5 q-21.5 -21.5 -50.5 -21.5 q-29 0 -50.5 21.5 ZM508.5 760.5 q-21.5 21.5 -21.5 50.5 q0 29 21.5 50.5 q21.5 21.5 50.5 21.5 q29 0 50.5 -21.5 q21.5 -21.5 21.5 -50.5 q0 -29 -21.5 -50.5 q-21.5 -21.5 -50.5 -21.5 q-29 0 -50.5 21.5 Z" /><glyph glyph-name="uni04DD" unicode="&#x4dd;" d="M279 433 l110 0 l0 -168 l130 168 l142 0 l-165 -197 l174 -236 l-148 0 l-117 170 l-16 -18 l0 -152 l-110 0 l0 152 l-16 18 l-117 -170 l-148 0 l174 236 l-165 197 l142 0 l130 -168 l0 168 ZM179.5 535.5 q-21.5 21.5 -21.5 50.5 q0 29 21.5 50.5 q21.5 21.5 50.5 21.5 q29 0 50.5 -21.5 q21.5 -21.5 21.5 -50.5 q0 -29 -21.5 -50.5 q-21.5 -21.5 -50.5 -21.5 q-29 0 -50.5 21.5 ZM387.5 535.5 q-21.5 21.5 -21.5 50.5 q0 29 21.5 50.5 q21.5 21.5 50.5 21.5 q29 0 50.5 -21.5 q21.5 -21.5 21.5 -50.5 q0 -29 -21.5 -50.5 q-21.5 -21.5 -50.5 -21.5 q-29 0 -50.5 21.5 Z" /><glyph glyph-name="uni04DE" unicode="&#x4de;" d="M158 515 l-68 89 q87 78 205 78 q101 0 160 -47.5 q59 -47.5 59 -126.5 q0 -95 -82 -141 q60 -15 92 -62 q32 -47 32 -110 q0 -94 -74 -152 q-74 -58 -191 -58 q-173 0 -251 126 l85 81 q22 -50 69.5 -74.5 q47.5 -24.5 99.5 -24.5 q63 0 95.5 29 q32.5 29 32.5 70 q0 102 -146 102 l-60 0 l0 112 l60 0 q51 0 81 22.5 q30 22.5 30 62.5 q0 37 -24 57 q-24 20 -71 20 q-86 0 -134 -53 ZM137.5 760.5 q-21.5 21.5 -21.5 50.5 q0 29 21.5 50.5 q21.5 21.5 50.5 21.5 q29 0 50.5 -21.5 q21.5 -21.5 21.5 -50.5 q0 -29 -21.5 -50.5 q-21.5 -21.5 -50.5 -21.5 q-29 0 -50.5 21.5 ZM361.5 760.5 q-21.5 21.5 -21.5 50.5 q0 29 21.5 50.5 q21.5 21.5 50.5 21.5 q29 0 50.5 -21.5 q21.5 -21.5 21.5 -50.5 q0 -29 -21.5 -50.5 q-21.5 -21.5 -50.5 -21.5 q-29 0 -50.5 21.5 Z" /><glyph glyph-name="uni04DF" unicode="&#x4df;" d="M102 317 l-56 76 q68 54 164 54 q73 0 115 -29 q49 -33 49 -92 q0 -60 -60 -93 q32 -8 57 -29 q33 -30 33 -80 q0 -63 -50 -100 q-50 -38 -142 -38 q-116 0 -186 72 l60 74 q49 -46 116 -46 q42 0 59 15 q17 15 17 34 q0 24 -23 36 q-16 8 -52 8 l-51 0 l0 88 l49 0 q33 0 48 10 q15 10 15 30 q0 44 -66 44 q-56 0 -96 -34 ZM59.5 535.5 q-21.5 21.5 -21.5 50.5 q0 29 21.5 50.5 q21.5 21.5 50.5 21.5 q29 0 50.5 -21.5 q21.5 -21.5 21.5 -50.5 q0 -29 -21.5 -50.5 q-21.5 -21.5 -50.5 -21.5 q-29 0 -50.5 21.5 ZM267.5 535.5 q-21.5 21.5 -21.5 50.5 q0 29 21.5 50.5 q21.5 21.5 50.5 21.5 q29 0 50.5 -21.5 q21.5 -21.5 21.5 -50.5 q0 -29 -21.5 -50.5 q-21.5 -21.5 -50.5 -21.5 q-29 0 -50.5 21.5 Z" /><glyph glyph-name="uni04E2" unicode="&#x4e2;" d="M76 667 l130 0 l0 -444 l366 444 l92 0 l0 -667 l-130 0 l0 446 l-366 -446 l-92 0 l0 667 ZM197 745 l0 86 l366 0 l0 -86 l-366 0 Z" /><glyph glyph-name="uni04E3" unicode="&#x4e3;" d="M58 433 l122 0 l0 -267 l200 267 l122 0 l0 -433 l-122 0 l0 267 l-200 -267 l-122 0 l0 433 ZM98 539 l0 80 l364 0 l0 -80 l-364 0 Z" /><glyph glyph-name="uni04E4" unicode="&#x4e4;" d="M76 667 l130 0 l0 -444 l366 444 l92 0 l0 -667 l-130 0 l0 446 l-366 -446 l-92 0 l0 667 ZM217.5 760.5 q-21.5 21.5 -21.5 50.5 q0 29 21.5 50.5 q21.5 21.5 50.5 21.5 q29 0 50.5 -21.5 q21.5 -21.5 21.5 -50.5 q0 -29 -21.5 -50.5 q-21.5 -21.5 -50.5 -21.5 q-29 0 -50.5 21.5 ZM441.5 760.5 q-21.5 21.5 -21.5 50.5 q0 29 21.5 50.5 q21.5 21.5 50.5 21.5 q29 0 50.5 -21.5 q21.5 -21.5 21.5 -50.5 q0 -29 -21.5 -50.5 q-21.5 -21.5 -50.5 -21.5 q-29 0 -50.5 21.5 Z" /><glyph glyph-name="uni04E5" unicode="&#x4e5;" d="M58 433 l122 0 l0 -267 l200 267 l122 0 l0 -433 l-122 0 l0 267 l-200 -267 l-122 0 l0 433 ZM125.5 535.5 q-21.5 21.5 -21.5 50.5 q0 29 21.5 50.5 q21.5 21.5 50.5 21.5 q29 0 50.5 -21.5 q21.5 -21.5 21.5 -50.5 q0 -29 -21.5 -50.5 q-21.5 -21.5 -50.5 -21.5 q-29 0 -50.5 21.5 ZM333.5 535.5 q-21.5 21.5 -21.5 50.5 q0 29 21.5 50.5 q21.5 21.5 50.5 21.5 q29 0 50.5 -21.5 q21.5 -21.5 21.5 -50.5 q0 -29 -21.5 -50.5 q-21.5 -21.5 -50.5 -21.5 q-29 0 -50.5 21.5 Z" /><glyph glyph-name="uni04E6" unicode="&#x4e6;" d="M143.5 584 q99.5 98 256.5 98 q157 0 256.5 -98 q99.5 -98 99.5 -251 q0 -153 -99.5 -250.5 q-99.5 -97.5 -256.5 -97.5 q-157 0 -256.5 97.5 q-99.5 97.5 -99.5 250.5 q0 153 99.5 251 ZM240 167.5 q62 -64.5 160 -64.5 q98 0 160 64.5 q62 64.5 62 165.5 q0 101 -62.5 166 q-62.5 65 -159.5 65 q-97 0 -159.5 -65 q-62.5 -65 -62.5 -166 q0 -101 62 -165.5 ZM237.5 760.5 q-21.5 21.5 -21.5 50.5 q0 29 21.5 50.5 q21.5 21.5 50.5 21.5 q29 0 50.5 -21.5 q21.5 -21.5 21.5 -50.5 q0 -29 -21.5 -50.5 q-21.5 -21.5 -50.5 -21.5 q-29 0 -50.5 21.5 ZM461.5 760.5 q-21.5 21.5 -21.5 50.5 q0 29 21.5 50.5 q21.5 21.5 50.5 21.5 q29 0 50.5 -21.5 q21.5 -21.5 21.5 -50.5 q0 -29 -21.5 -50.5 q-21.5 -21.5 -50.5 -21.5 q-29 0 -50.5 21.5 Z" /><glyph glyph-name="uni04E7" unicode="&#x4e7;" d="M109 386 q66 61 175 61 q109 0 175 -61 q73 -66 73 -170 q0 -103 -73 -169 q-66 -61 -175 -61 q-109 0 -175 61 q-73 66 -73 169 q0 104 73 170 ZM197 130 q35 -36 87 -36 q52 0 87 36 q35 36 35 86 q0 51 -35 87 q-35 36 -87 36 q-52 0 -87 -36 q-35 -36 -35 -87 q0 -50 35 -86 ZM129.5 535.5 q-21.5 21.5 -21.5 50.5 q0 29 21.5 50.5 q21.5 21.5 50.5 21.5 q29 0 50.5 -21.5 q21.5 -21.5 21.5 -50.5 q0 -29 -21.5 -50.5 q-21.5 -21.5 -50.5 -21.5 q-29 0 -50.5 21.5 ZM337.5 535.5 q-21.5 21.5 -21.5 50.5 q0 29 21.5 50.5 q21.5 21.5 50.5 21.5 q29 0 50.5 -21.5 q21.5 -21.5 21.5 -50.5 q0 -29 -21.5 -50.5 q-21.5 -21.5 -50.5 -21.5 q-29 0 -50.5 21.5 Z" /><glyph glyph-name="uni04E8" unicode="&#x4e8;" d="M143 584 q99 98 256 98 q157 0 256 -98 q99 -98 99 -251 q0 -152 -99.5 -250 q-99.5 -98 -255.5 -98 q-156 0 -255.5 98 q-99.5 98 -99.5 250 q0 153 99 251 ZM618 289 l-438 0 q12 -79 71.5 -132.5 q59.5 -53.5 147.5 -53.5 q88 0 147.5 53.5 q59.5 53.5 71.5 132.5 ZM182 389 l434 0 q-16 80 -77 127.5 q-61 47.5 -140 47.5 q-79 0 -140 -47.5 q-61 -47.5 -77 -127.5 Z" /><glyph glyph-name="uni04E9" unicode="&#x4e9;" d="M109 386 q66 61 175 61 q109 0 175 -61 q73 -66 73 -170 q0 -103 -73 -169 q-66 -61 -175 -61 q-109 0 -175 61 q-73 66 -73 169 q0 104 73 170 ZM406 184 l-244 0 q7 -45 42 -73.5 q35 -28.5 80 -28.5 q45 0 80 28.5 q35 28.5 42 73.5 ZM166 262 l236 0 q-9 41 -43 65 q-34 24 -75 24 q-41 0 -75 -24 q-34 -24 -43 -65 Z" /><glyph glyph-name="uni04EA" unicode="&#x4ea;" d="M143 584 q99 98 256 98 q157 0 256 -98 q99 -98 99 -251 q0 -152 -99.5 -250 q-99.5 -98 -255.5 -98 q-156 0 -255.5 98 q-99.5 98 -99.5 250 q0 153 99 251 ZM618 289 l-438 0 q12 -79 71.5 -132.5 q59.5 -53.5 147.5 -53.5 q88 0 147.5 53.5 q59.5 53.5 71.5 132.5 ZM182 389 l434 0 q-16 80 -77 127.5 q-61 47.5 -140 47.5 q-79 0 -140 -47.5 q-61 -47.5 -77 -127.5 ZM237.5 760.5 q-21.5 21.5 -21.5 50.5 q0 29 21.5 50.5 q21.5 21.5 50.5 21.5 q29 0 50.5 -21.5 q21.5 -21.5 21.5 -50.5 q0 -29 -21.5 -50.5 q-21.5 -21.5 -50.5 -21.5 q-29 0 -50.5 21.5 ZM461.5 760.5 q-21.5 21.5 -21.5 50.5 q0 29 21.5 50.5 q21.5 21.5 50.5 21.5 q29 0 50.5 -21.5 q21.5 -21.5 21.5 -50.5 q0 -29 -21.5 -50.5 q-21.5 -21.5 -50.5 -21.5 q-29 0 -50.5 21.5 Z" /><glyph glyph-name="uni04EB" unicode="&#x4eb;" d="M109 386 q66 61 175 61 q109 0 175 -61 q73 -66 73 -170 q0 -103 -73 -169 q-66 -61 -175 -61 q-109 0 -175 61 q-73 66 -73 169 q0 104 73 170 ZM406 184 l-244 0 q7 -45 42 -73.5 q35 -28.5 80 -28.5 q45 0 80 28.5 q35 28.5 42 73.5 ZM166 262 l236 0 q-9 41 -43 65 q-34 24 -75 24 q-41 0 -75 -24 q-34 -24 -43 -65 ZM129.5 535.5 q-21.5 21.5 -21.5 50.5 q0 29 21.5 50.5 q21.5 21.5 50.5 21.5 q29 0 50.5 -21.5 q21.5 -21.5 21.5 -50.5 q0 -29 -21.5 -50.5 q-21.5 -21.5 -50.5 -21.5 q-29 0 -50.5 21.5 ZM337.5 535.5 q-21.5 21.5 -21.5 50.5 q0 29 21.5 50.5 q21.5 21.5 50.5 21.5 q29 0 50.5 -21.5 q21.5 -21.5 21.5 -50.5 q0 -29 -21.5 -50.5 q-21.5 -21.5 -50.5 -21.5 q-29 0 -50.5 21.5 Z" /><glyph glyph-name="uni04EE" unicode="&#x4ee;" d="M2 667 l152 0 l169 -336 l143 336 l142 0 l-309 -667 l-142 0 l93 186 l-248 481 ZM127 745 l0 86 l366 0 l0 -86 l-366 0 Z" /><glyph glyph-name="uni04EF" unicode="&#x4ef;" d="M49 -229 l159 294 l-206 368 l142 0 l134 -246 l120 246 l138 0 l-349 -662 l-138 0 ZM87 539 l0 80 l364 0 l0 -80 l-364 0 Z" /><glyph glyph-name="uni04F0" unicode="&#x4f0;" d="M2 667 l152 0 l169 -336 l143 336 l142 0 l-309 -667 l-142 0 l93 186 l-248 481 ZM157.5 760.5 q-21.5 21.5 -21.5 50.5 q0 29 21.5 50.5 q21.5 21.5 50.5 21.5 q29 0 50.5 -21.5 q21.5 -21.5 21.5 -50.5 q0 -29 -21.5 -50.5 q-21.5 -21.5 -50.5 -21.5 q-29 0 -50.5 21.5 ZM381.5 760.5 q-21.5 21.5 -21.5 50.5 q0 29 21.5 50.5 q21.5 21.5 50.5 21.5 q29 0 50.5 -21.5 q21.5 -21.5 21.5 -50.5 q0 -29 -21.5 -50.5 q-21.5 -21.5 -50.5 -21.5 q-29 0 -50.5 21.5 Z" /><glyph glyph-name="uni04F1" unicode="&#x4f1;" d="M49 -229 l159 294 l-206 368 l142 0 l134 -246 l120 246 l138 0 l-349 -662 l-138 0 ZM114.5 535.5 q-21.5 21.5 -21.5 50.5 q0 29 21.5 50.5 q21.5 21.5 50.5 21.5 q29 0 50.5 -21.5 q21.5 -21.5 21.5 -50.5 q0 -29 -21.5 -50.5 q-21.5 -21.5 -50.5 -21.5 q-29 0 -50.5 21.5 ZM322.5 535.5 q-21.5 21.5 -21.5 50.5 q0 29 21.5 50.5 q21.5 21.5 50.5 21.5 q29 0 50.5 -21.5 q21.5 -21.5 21.5 -50.5 q0 -29 -21.5 -50.5 q-21.5 -21.5 -50.5 -21.5 q-29 0 -50.5 21.5 Z" /><glyph glyph-name="uni04F2" unicode="&#x4f2;" d="M2 667 l152 0 l169 -336 l143 336 l142 0 l-309 -667 l-142 0 l93 186 l-248 481 ZM268 921 l90 -59 l-144 -134 l-56 40 l110 153 ZM468 920 l90 -58 l-144 -134 l-56 40 l110 152 Z" /><glyph glyph-name="uni04F3" unicode="&#x4f3;" d="M49 -229 l159 294 l-206 368 l142 0 l134 -246 l120 246 l138 0 l-349 -662 l-138 0 ZM223 690 l82 -58 l-132 -134 l-50 40 l100 152 ZM411 689 l82 -57 l-132 -134 l-50 40 l100 151 Z" /><glyph glyph-name="uni04F4" unicode="&#x4f4;" d="M414 0 l0 266 q-68 -7 -119 -7 q-121 0 -178 43 q-67 50 -67 160 l0 205 l130 0 l0 -182 q0 -66 33 -92 q29 -22 95 -22 q57 0 106 7 l0 289 l130 0 l0 -667 l-130 0 ZM141.5 760.5 q-21.5 21.5 -21.5 50.5 q0 29 21.5 50.5 q21.5 21.5 50.5 21.5 q29 0 50.5 -21.5 q21.5 -21.5 21.5 -50.5 q0 -29 -21.5 -50.5 q-21.5 -21.5 -50.5 -21.5 q-29 0 -50.5 21.5 ZM365.5 760.5 q-21.5 21.5 -21.5 50.5 q0 29 21.5 50.5 q21.5 21.5 50.5 21.5 q29 0 50.5 -21.5 q21.5 -21.5 21.5 -50.5 q0 -29 -21.5 -50.5 q-21.5 -21.5 -50.5 -21.5 q-29 0 -50.5 21.5 Z" /><glyph glyph-name="uni04F5" unicode="&#x4f5;" d="M304 0 l0 148 q-52 -10 -102 -10 q-79 0 -121 40 q-39 37 -39 102 l0 153 l122 0 l0 -128 q0 -33 15 -47 q17 -16 62 -16 q30 0 63 6 l0 185 l122 0 l0 -433 l-122 0 ZM81.5 535.5 q-21.5 21.5 -21.5 50.5 q0 29 21.5 50.5 q21.5 21.5 50.5 21.5 q29 0 50.5 -21.5 q21.5 -21.5 21.5 -50.5 q0 -29 -21.5 -50.5 q-21.5 -21.5 -50.5 -21.5 q-29 0 -50.5 21.5 ZM289.5 535.5 q-21.5 21.5 -21.5 50.5 q0 29 21.5 50.5 q21.5 21.5 50.5 21.5 q29 0 50.5 -21.5 q21.5 -21.5 21.5 -50.5 q0 -29 -21.5 -50.5 q-21.5 -21.5 -50.5 -21.5 q-29 0 -50.5 21.5 Z" /><glyph glyph-name="uni04F8" unicode="&#x4f8;" d="M76 0 l0 667 l130 0 l0 -261 l104 0 q104 0 164 -55 q62 -57 62 -149 q0 -68 -36 -120 q-56 -82 -189 -82 l-235 0 ZM206 294 l0 -182 l76 0 q120 0 120 90 q0 38 -26.5 65 q-26.5 27 -91.5 27 l-78 0 ZM594 667 l130 0 l0 -667 l-130 0 l0 667 ZM237.5 760.5 q-21.5 21.5 -21.5 50.5 q0 29 21.5 50.5 q21.5 21.5 50.5 21.5 q29 0 50.5 -21.5 q21.5 -21.5 21.5 -50.5 q0 -29 -21.5 -50.5 q-21.5 -21.5 -50.5 -21.5 q-29 0 -50.5 21.5 ZM461.5 760.5 q-21.5 21.5 -21.5 50.5 q0 29 21.5 50.5 q21.5 21.5 50.5 21.5 q29 0 50.5 -21.5 q21.5 -21.5 21.5 -50.5 q0 -29 -21.5 -50.5 q-21.5 -21.5 -50.5 -21.5 q-29 0 -50.5 21.5 Z" /><glyph glyph-name="uni04F9" unicode="&#x4f9;" d="M58 433 l122 0 l0 -154 l95 0 q76 0 116 -44 q33 -35 33 -93 q0 -71 -46 -110 q-37 -32 -97 -32 l-223 0 l0 433 ZM180 96 l57 0 q31 0 45 11 q16 12 16 35 q0 21 -16 31 q-14 10 -42 10 l-60 0 l0 -87 ZM470 433 l122 0 l0 -433 l-122 0 l0 433 ZM170.5 535.5 q-21.5 21.5 -21.5 50.5 q0 29 21.5 50.5 q21.5 21.5 50.5 21.5 q29 0 50.5 -21.5 q21.5 -21.5 21.5 -50.5 q0 -29 -21.5 -50.5 q-21.5 -21.5 -50.5 -21.5 q-29 0 -50.5 21.5 ZM378.5 535.5 q-21.5 21.5 -21.5 50.5 q0 29 21.5 50.5 q21.5 21.5 50.5 21.5 q29 0 50.5 -21.5 q21.5 -21.5 21.5 -50.5 q0 -29 -21.5 -50.5 q-21.5 -21.5 -50.5 -21.5 q-29 0 -50.5 21.5 Z" /><glyph glyph-name="uni1E9E" unicode="&#x1e9e;" d="M288 396 l76 94 q0 47 -24 68 q-21 18 -53 18 q-37 0 -58 -23 q-23 -25 -23 -74 l0 -479 l-130 0 l0 468 q0 98 60 158 q56 56 149 56 q80 0 129 -35 q78 -55 78 -163 l-99 -107 q69 -19 104 -69 q33 -46 33 -121 q0 -33 -17 -73 q-17 -40 -48 -67 q-65 -58 -177 -61 l0 106 q51 3 79 28 q29 27 29 79 q0 46 -31 75 q-25 24 -77 29 l0 93 Z" /><glyph glyph-name="uni2010" unicode="&#x2010;" d="M50 174 l0 112 l260 0 l0 -112 l-260 0 Z" /><glyph glyph-name="uni2011" unicode="&#x2011;" d="M50 174 l0 112 l260 0 l0 -112 l-260 0 Z" /><glyph glyph-name="figuredash" unicode="&#x2012;" d="M70 289 l0 104 l500 0 l0 -104 l-500 0 Z" /><glyph glyph-name="endash" unicode="&#x2013;" d="M70 178 l0 104 l500 0 l0 -104 l-500 0 Z" /><glyph glyph-name="emdash" unicode="&#x2014;" d="M70 178 l0 104 l700 0 l0 -104 l-700 0 Z" /><glyph glyph-name="afii00208" unicode="&#x2015;" d="M70 178 l0 104 l700 0 l0 -104 l-700 0 Z" /><glyph glyph-name="quoteleft" unicode="&#x2018;" d="M260 667 l-106 -269 l-112 13 l141 265 l77 -9 Z" /><glyph glyph-name="quoteright" unicode="&#x2019;" d="M42 411 l106 269 l112 -13 l-141 -265 l-77 9 Z" /><glyph glyph-name="quotesinglbase" unicode="&#x201a;" d="M42 -131 l106 269 l112 -13 l-141 -265 l-77 9 Z" /><glyph glyph-name="quotedblleft" unicode="&#x201c;" d="M448 667 l-106 -269 l-112 13 l141 265 l77 -9 ZM260 667 l-106 -269 l-112 13 l141 265 l77 -9 Z" /><glyph glyph-name="quotedblright" unicode="&#x201d;" d="M42 411 l106 269 l112 -13 l-141 -265 l-77 9 ZM230 411 l106 269 l112 -13 l-141 -265 l-77 9 Z" /><glyph glyph-name="quotedblbase" unicode="&#x201e;" d="M42 -131 l106 269 l112 -13 l-141 -265 l-77 9 ZM230 -131 l106 269 l112 -13 l-141 -265 l-77 9 Z" /><glyph glyph-name="dagger" unicode="&#x2020;" d="M226 521 l0 208 l116 0 l0 -208 l158 0 l0 -104 l-158 0 l0 -597 l-116 0 l0 597 l-158 0 l0 104 l158 0 Z" /><glyph glyph-name="daggerdbl" unicode="&#x2021;" d="M226 521 l0 208 l116 0 l0 -208 l158 0 l0 -104 l-158 0 l0 -241 l158 0 l0 -104 l-158 0 l0 -252 l-116 0 l0 252 l-158 0 l0 104 l158 0 l0 241 l-158 0 l0 104 l158 0 Z" /><glyph glyph-name="bullet" unicode="&#x2022;" d="M401 241 q-41 41 -41 99 q0 58 41 99 q41 41 99 41 q58 0 99 -41 q41 -41 41 -99 q0 -58 -41 -99 q-41 -41 -99 -41 q-58 0 -99 41 Z" /><glyph glyph-name="ellipsis" unicode="&#x2026;" d="M85.5 9.5 q-22.5 22.5 -22.5 55.5 q0 33 22.5 55.5 q22.5 22.5 55.5 22.5 q33 0 55.5 -22.5 q22.5 -22.5 22.5 -55.5 q0 -33 -22.5 -55.5 q-22.5 -22.5 -55.5 -22.5 q-33 0 -55.5 22.5 ZM367.5 9.5 q-22.5 22.5 -22.5 55.5 q0 33 22.5 55.5 q22.5 22.5 55.5 22.5 q33 0 55.5 -22.5 q22.5 -22.5 22.5 -55.5 q0 -33 -22.5 -55.5 q-22.5 -22.5 -55.5 -22.5 q-33 0 -55.5 22.5 ZM649.5 9.5 q-22.5 22.5 -22.5 55.5 q0 33 22.5 55.5 q22.5 22.5 55.5 22.5 q33 0 55.5 -22.5 q22.5 -22.5 22.5 -55.5 q0 -33 -22.5 -55.5 q-22.5 -22.5 -55.5 -22.5 q-33 0 -55.5 22.5 Z" /><glyph glyph-name="perthousand" unicode="&#x2030;" d="M75.5 630.5 q45.5 44.5 122.5 44.5 q77 0 122.5 -44.5 q45.5 -44.5 45.5 -113.5 q0 -69 -45.5 -113.5 q-45.5 -44.5 -122.5 -44.5 q-77 0 -122.5 44.5 q-45.5 44.5 -45.5 113.5 q0 69 45.5 113.5 ZM137.5 455 q23.5 -24 60.5 -24 q37 0 60.5 24 q23.5 24 23.5 62 q0 38 -23.5 62 q-23.5 24 -60.5 24 q-37 0 -60.5 -24 q-23.5 -24 -23.5 -62 q0 -38 23.5 -62 ZM162 3 l397 686 l53 -30 l-397 -687 l-53 31 ZM453.5 261.5 q45.5 44.5 122.5 44.5 q77 0 122.5 -44.5 q45.5 -44.5 45.5 -113.5 q0 -69 -45.5 -113.5 q-45.5 -44.5 -122.5 -44.5 q-77 0 -122.5 44.5 q-45.5 44.5 -45.5 113.5 q0 69 45.5 113.5 ZM515.5 86 q23.5 -24 60.5 -24 q37 0 60.5 24 q23.5 24 23.5 62 q0 38 -23.5 62 q-23.5 24 -60.5 24 q-37 0 -60.5 -24 q-23.5 -24 -23.5 -62 q0 -38 23.5 -62 ZM849.5 261.5 q45.5 44.5 122.5 44.5 q77 0 122.5 -44.5 q45.5 -44.5 45.5 -113.5 q0 -69 -45.5 -113.5 q-45.5 -44.5 -122.5 -44.5 q-77 0 -122.5 44.5 q-45.5 44.5 -45.5 113.5 q0 69 45.5 113.5 ZM911.5 86 q23.5 -24 60.5 -24 q37 0 60.5 24 q23.5 24 23.5 62 q0 38 -23.5 62 q-23.5 24 -60.5 24 q-37 0 -60.5 -24 q-23.5 -24 -23.5 -62 q0 -38 23.5 -62 Z" /><glyph glyph-name="guilsinglleft" unicode="&#x2039;" d="M146 219 l122 -164 l-70 -50 l-158 214 l158 214 l70 -50 l-122 -164 Z" /><glyph glyph-name="guilsinglright" unicode="&#x203a;" d="M172 219 l-122 164 l70 50 l158 -214 l-158 -214 l-70 50 l122 164 Z" /><glyph glyph-name="fraction" unicode="&#x2044;" d="M-100 3 l397 686 l53 -30 l-397 -687 l-53 31 Z" /><glyph glyph-name="uni2080" unicode="&#x2080;" d="M304 46 q-48 -55 -114 -55 q-66 0 -114 55 q-48 55 -48 154 q0 99 48 154 q48 55 114 55 q66 0 114 -55 q48 -55 48 -154 q0 -99 -48 -154 ZM244.5 303.5 q-23.5 33.5 -54.5 33.5 q-31 0 -54.5 -33.5 q-23.5 -33.5 -23.5 -103.5 q0 -76 25.5 -106.5 q25.5 -30.5 52.5 -30.5 q27 0 52.5 30.5 q25.5 30.5 25.5 106.5 q0 70 -23.5 103.5 Z" /><glyph glyph-name="uni2081" unicode="&#x2081;" d="M166 0 l0 328 l-80 0 l0 72 l164 0 l0 -400 l-84 0 Z" /><glyph glyph-name="uni2082" unicode="&#x2082;" d="M24 0 l119 134 q64 74 71 84 q23 33 23 64 q0 25 -15 40 q-15 15 -42 15 q-30 0 -47 -17.5 q-17 -17.5 -17 -44.5 l-84 0 q2 61 42 97.5 q40 36.5 102 36.5 q66 0 105.5 -36.5 q39.5 -36.5 39.5 -90.5 q0 -39 -18.5 -70.5 q-18.5 -31.5 -52.5 -69.5 l-62 -70 l136 0 l0 -72 l-300 0 Z" /><glyph glyph-name="uni2083" unicode="&#x2083;" d="M123 291 l-78 0 q6 57 42.5 87.5 q36.5 30.5 92.5 30.5 q65 0 98 -32 q33 -32 33 -76 q0 -60 -50 -86 q65 -22 65 -96 q0 -54 -38.5 -91 q-38.5 -37 -109.5 -37 q-61 0 -103 34.5 q-42 34.5 -47 94.5 l84 0 q3 -26 20.5 -41.5 q17.5 -15.5 45.5 -15.5 q32 0 48 17.5 q16 17.5 16 42.5 q0 22 -16 38.5 q-16 16.5 -50 16.5 l-20 0 l0 66 l20 0 q27 0 41 15 q14 15 14 36 q0 19 -13.5 33.5 q-13.5 14.5 -39.5 14.5 q-24 0 -39 -14.5 q-15 -14.5 -16 -37.5 Z" /><glyph glyph-name="uni2084" unicode="&#x2084;" d="M303 407 l0 -268 l47 0 l0 -68 l-47 0 l0 -71 l-80 0 l0 71 l-199 0 l0 35 l199 301 l80 0 ZM124 139 l99 0 l0 153 l-99 -153 Z" /><glyph glyph-name="uni2085" unicode="&#x2085;" d="M306 400 l0 -72 l-135 0 l-13 -58 q16 2 27 2 q67 0 103 -39 q36 -39 36 -96 q0 -62 -41.5 -104 q-41.5 -42 -121.5 -42 q-77 0 -129 51 l26 72 q42 -51 101 -51 q39 0 60 22 q21 22 21 51 q0 31 -23.5 52.5 q-23.5 21.5 -67.5 21.5 q-43 0 -77 -26 l-5 0 l48 216 l191 0 Z" /><glyph glyph-name="uni2086" unicode="&#x2086;" d="M204 422 l62 -47 l-95 -121 q23 9 47 9 q53 0 91.5 -34.5 q38.5 -34.5 38.5 -95.5 q0 -59 -40.5 -100.5 q-40.5 -41.5 -117.5 -41.5 q-74 0 -116 40 q-42 40 -42 98 q0 58 49 125 l123 168 ZM137.5 77 q21.5 -20 52.5 -20 q31 0 52.5 20 q21.5 20 21.5 50 q0 30 -21.5 50 q-21.5 20 -52.5 20 q-31 0 -52.5 -20 q-21.5 -20 -21.5 -50 q0 -30 21.5 -50 Z" /><glyph glyph-name="uni2087" unicode="&#x2087;" d="M56 26 l181 302 l-203 0 l0 72 l336 0 l-243 -411 l-71 37 Z" /><glyph glyph-name="uni2088" unicode="&#x2088;" d="M116 209 q-57 26 -57 89 q0 47 34.5 79 q34.5 32 96.5 32 q62 0 96.5 -32 q34.5 -32 34.5 -79 q0 -63 -57 -89 q36 -12 53.5 -40 q17.5 -28 17.5 -60 q0 -51 -40 -84.5 q-40 -33.5 -105 -33.5 q-65 0 -105 33.5 q-40 33.5 -40 84.5 q0 32 17.5 60 q17.5 28 53.5 40 ZM228.5 329.5 q-17.5 13.5 -38.5 13.5 q-21 0 -38.5 -13.5 q-17.5 -13.5 -17.5 -38.5 q0 -25 17.5 -38.5 q17.5 -13.5 38.5 -13.5 q21 0 38.5 13.5 q17.5 13.5 17.5 38.5 q0 25 -17.5 38.5 ZM233.5 156 q-17.5 17 -43.5 17 q-26 0 -43.5 -17 q-17.5 -17 -17.5 -41 q0 -25 17.5 -41.5 q17.5 -16.5 43.5 -16.5 q26 0 43.5 16.5 q17.5 16.5 17.5 41.5 q0 24 -17.5 41 Z" /><glyph glyph-name="uni2089" unicode="&#x2089;" d="M176 -22 l-62 47 l95 121 q-23 -9 -47 -9 q-53 0 -91.5 34.5 q-38.5 34.5 -38.5 95.5 q0 59 40.5 100.5 q40.5 41.5 117.5 41.5 q74 0 116 -40 q42 -40 42 -98 q0 -62 -47 -125 l-125 -168 ZM242.5 323 q-21.5 20 -52.5 20 q-31 0 -52.5 -20 q-21.5 -20 -21.5 -50 q0 -30 21.5 -50 q21.5 -20 52.5 -20 q31 0 52.5 20 q21.5 20 21.5 50 q0 30 -21.5 50 Z" /><glyph glyph-name="Euro" unicode="&#x20ac;" d="M534 172 l0 -146 q-76 -41 -184 -41 q-150 0 -230 87 q-54 58 -65 139 l-75 0 l36 90 l30 0 q-4 33 0 63 l-66 0 l36 90 l42 0 q19 85 80 143 q88 85 233 85 q97 0 173 -44 l-51 -109 q-55 35 -130 35 q-42 0 -74 -11.5 q-32 -11.5 -50 -30.5 q-18 -19 -27.5 -35 q-9.5 -16 -14.5 -33 l268 0 l-36 -90 l-249 0 q-4 -36 0 -63 l231 0 l-36 -90 l-176 0 q13 -55 59.5 -81.5 q46.5 -26.5 105.5 -26.5 q107 0 170 69 Z" /><glyph glyph-name="uni20B4" unicode="&#x20b4;" d="M143 515 l-68 89 q37 31 83 52 q60 26 127 26 q97 0 146 -46 q44 -43 44 -102 q0 -43 -26 -80 l70 0 l0 -90 l-142 0 l-65 -63 l207 0 l0 -90 l-277 0 q-18 -21 -18 -48 q0 -29 24 -46 q20 -14 53 -14 q44 0 78 24 q29 20 50 53 l80 -88 q-36 -45 -90 -75 q-61 -32 -140 -32 q-84 0 -132 41 q-50 42 -50 104 q0 47 21 81 l-74 0 l0 90 l138 0 l65 63 l-203 0 l0 90 l276 0 q24 23 24 53 q0 31 -22 49 q-21 17 -52 17 q-41 0 -80 -23 q-27 -15 -47 -35 Z" /><glyph glyph-name="uni20B6" unicode="&#x20b6;&#x20b7;&#x20b9;&#x20ba;&#x20bb;&#x20bc;&#x20bd;&#x20be;&#x20bf;&#x20c0;&#x20c1;&#x20c2;&#x20c3;&#x20c4;&#x20c5;&#x20c6;&#x20c7;&#x20c8;&#x20c9;&#x20ca;&#x20cb;&#x20cc;&#x20cd;&#x20ce;&#x20cf;" d="M295 667 q62 0 101.5 -10.5 q39.5 -10.5 74.5 -40.5 q68 -60 68 -163 q0 -89 -55 -144 q-61 -59 -169 -59 l-84 0 l0 -63 l184 0 l0 -90 l-184 0 l0 -97 l-130 0 l0 97 l-70 0 l0 90 l70 0 l0 63 l-70 0 l0 109 l70 0 l0 308 l194 0 ZM231 555 l0 -196 l53 0 q57 0 85 21 q36 28 36 78 q0 49 -37 76 q-30 21 -92 21 l-45 0 Z" /><glyph glyph-name="uni20B8" unicode="&#x20b8;" d="M499 418 l-150 0 l0 -418 l-130 0 l0 418 l-150 0 l0 112 l430 0 l0 -112 ZM499 575 l-430 0 l0 92 l430 0 l0 -92 Z" /><glyph glyph-name="afii61352" unicode="&#x2116;" d="M206 0 l-130 0 l0 667 l130 0 l306 -449 l0 449 l130 0 l0 -667 l-130 0 l-306 449 l0 -449 ZM747.5 622.5 q45.5 44.5 122.5 44.5 q77 0 122.5 -44.5 q45.5 -44.5 45.5 -113.5 q0 -69 -45.5 -113.5 q-45.5 -44.5 -122.5 -44.5 q-77 0 -122.5 44.5 q-45.5 44.5 -45.5 113.5 q0 69 45.5 113.5 ZM930.5 571 q-23.5 24 -60.5 24 q-37 0 -60.5 -24 q-23.5 -24 -23.5 -62 q0 -38 23.5 -62 q23.5 -24 60.5 -24 q37 0 60.5 24 q23.5 24 23.5 62 q0 38 -23.5 62 ZM722 197 l0 86 l296 0 l0 -86 l-296 0 Z" /><glyph glyph-name="uni2117" unicode="&#x2117;" d="M380 682 q145 0 245 -99 q102 -102 102 -251 q0 -143 -94 -242 q-99 -105 -253 -105 q-149 0 -249 101 q-98 98 -98 248 q0 155 107 255 q97 93 240 93 ZM380 620 q-113 0 -192 -80 q-85 -85 -85 -205 q0 -62 23 -117 q23 -55 59 -91 q36 -36 88 -58 q52 -22 107 -22 q110 0 191 79 q86 83 86 205 q0 124 -86 210 q-79 79 -191 79 ZM263 527 l121 0 q62 0 94 -32 q30 -30 30 -84 q0 -53 -27 -83 q-30 -32 -101 -32 l-41 0 l0 -143 l-76 0 l0 374 ZM339 461 l0 -103 l30 0 q31 0 46 15 q14 14 14 38 q0 26 -14 38 q-13 12 -43 12 l-33 0 Z" /><glyph glyph-name="trademark" unicode="&#x2122;" d="M247 591 l-82 0 l0 -304 l-85 0 l0 304 l-82 0 l0 76 l249 0 l0 -76 ZM345 287 l-85 0 l68 387 l62 0 l93 -231 l98 231 l62 0 l61 -387 l-85 0 l-29 209 l-90 -214 l-34 0 l-88 214 l-33 -209 Z" /><glyph glyph-name="partialdiff" unicode="&#x2202;" d="M84 568 l16 105 q87 -5 169 -38.5 q82 -33.5 137 -87.5 q104 -103 104 -272 q0 -155 -82 -232 q-62 -57 -158 -57 q-101 0 -167 64 q-67 64 -67 165 q0 99 65 162 q58 56 143 56 q74 0 125 -50 q-27 88 -116 137 q-72 40 -169 48 ZM341 303 q-27 26 -71 26 q-44 0 -74 -30 q-34 -34 -34 -89 q0 -55 34 -87 q31 -29 74 -29 q48 0 79 34 q29 33 29 82 q0 24 -10.5 50.5 q-10.5 26.5 -26.5 42.5 Z" /><glyph glyph-name="product" unicode="&#x220f;" d="M40 638 l0 112 l650 0 l0 -112 l-82 0 l0 -776 l82 0 l0 -112 l-284 0 l0 112 l80 0 l0 776 l-242 0 l0 -776 l80 0 l0 -112 l-284 0 l0 112 l82 0 l0 776 l-82 0 Z" /><glyph glyph-name="summation" unicode="&#x2211;" d="M22 750 l595 0 l0 -244 l-112 0 l-10 132 l-333 0 l248 -371 l-248 -405 l342 0 l10 135 l112 0 l0 -247 l-604 0 l0 122 l244 395 l-244 361 l0 122 Z" /><glyph glyph-name="minus" unicode="&#x2212;" d="M33 283 l0 112 l434 0 l0 -112 l-434 0 Z" /><glyph glyph-name="fraction" unicode="&#x2215;" d="M-20 -170 l525 929 l88 -40 l-525 -929 l-88 40 Z" /><glyph glyph-name="periodcentered" unicode="&#x2219;" d="M35 221 q-27 27 -27 65 q0 38 27 65 q27 27 65 27 q38 0 65 -27 q27 -27 27 -65 q0 -38 -27 -65 q-27 -27 -65 -27 q-38 0 -65 27 Z" /><glyph glyph-name="radical" unicode="&#x221a;" d="M381 827 l287 0 l0 -110 l-181 0 l-173 -717 l-160 0 l-60 274 l-94 0 l0 110 l194 0 l21 -91 q8 -37 10 -71 l5 -61 l0 -12 l11 0 q13 142 49 297 l91 381 Z" /><glyph glyph-name="infinity" unicode="&#x221e;" d="M337 260 q-66 -82 -159 -82 q-70 0 -115.5 45 q-45.5 45 -45.5 116 q0 71 45 116.5 q45 45.5 114 45.5 q92 0 156 -82 q67 82 157 82 q71 0 116.5 -45 q45.5 -45 45.5 -116 q0 -71 -45.5 -116.5 q-45.5 -45.5 -114.5 -45.5 q-94 0 -154 82 ZM470 392 q-43 0 -76 -53 q35 -52 76 -52 q26 0 40.5 16 q14.5 16 14.5 37 q0 23 -16.5 37.5 q-16.5 14.5 -38.5 14.5 ZM198 287 q22 0 42.5 15.5 q20.5 15.5 33.5 36.5 q-30 53 -76 53 q-26 0 -40.5 -16 q-14.5 -16 -14.5 -37 q0 -22 16 -37 q16 -15 39 -15 Z" /><glyph glyph-name="integral" unicode="&#x222b;" d="M53 -240 l23 109 q29 -10 51 -10 q30 0 44 15 q17 18 17 73 l0 606 q0 92 34 139 q42 58 139 58 q39 0 86 -10 l-23 -109 q-29 10 -51 10 q-30 0 -44 -15 q-17 -18 -17 -73 l0 -606 q0 -92 -34 -139 q-42 -58 -139 -58 q-39 0 -86 10 Z" /><glyph glyph-name="approxequal" unicode="&#x2248;" d="M424 523 l70 -40 q-37 -88 -92 -116 q-30 -15 -59 -15 q-35 0 -106 27 q-67 25 -90 25 q-20 0 -37 -14 q-17 -14 -23.5 -26 q-6.5 -12 -10.5 -23 l-70 40 q30 86 77 119 q28 21 71 21 q35 0 108 -27 q71 -25 88 -25 q46 0 74 54 ZM424 325 l70 -40 q-37 -88 -92 -116 q-30 -15 -59 -15 q-35 0 -106 27 q-67 25 -90 25 q-20 0 -37 -14 q-17 -14 -23.5 -26 q-6.5 -12 -10.5 -23 l-70 40 q30 86 77 119 q28 21 71 21 q35 0 108 -27 q71 -25 88 -25 q46 0 74 54 Z" /><glyph glyph-name="notequal" unicode="&#x2260;" d="M33 374 l0 106 l237 0 l49 104 l96 0 l-49 -104 l101 0 l0 -106 l-151 0 l-33 -70 l184 0 l0 -106 l-234 0 l-52 -110 l-96 0 l52 110 l-104 0 l0 106 l154 0 l33 70 l-187 0 Z" /><glyph glyph-name="lessequal" unicode="&#x2264;" d="M153 393 l314 -134 l0 -114 l-434 197 l0 102 l434 209 l0 -114 l-314 -146 ZM33 118 l434 0 l0 -110 l-434 0 l0 110 Z" /><glyph glyph-name="greaterequal" unicode="&#x2265;" d="M347 393 l-314 146 l0 114 l434 -209 l0 -102 l-434 -197 l0 114 l314 134 ZM467 118 l0 -110 l-434 0 l0 110 l434 0 Z" /><glyph glyph-name="dotmath" unicode="&#x22c5;" d="M35 221 q-27 27 -27 65 q0 38 27 65 q27 27 65 27 q38 0 65 -27 q27 -27 27 -65 q0 -38 -27 -65 q-27 -27 -65 -27 q-38 0 -65 27 Z" /><glyph glyph-name="lozenge" unicode="&#x25ca;" d="M90 334 l260 360 l260 -360 l-260 -360 l-260 360 ZM468 334 l-118 162 l-118 -162 l118 -162 l118 162 Z" /><glyph glyph-name="openbullet" unicode="&#x25e6;" d="M141 619.5 q44 42.5 109 42.5 q65 0 109 -42.5 q44 -42.5 44 -107.5 q0 -65 -44 -107.5 q-44 -42.5 -109 -42.5 q-65 0 -109 42.5 q-44 42.5 -44 107.5 q0 65 44 107.5 ZM307 568 q-22 22 -57 22 q-35 0 -57 -22 q-22 -22 -22 -56 q0 -34 22 -56 q22 -22 57 -22 q35 0 57 22 q22 22 22 56 q0 34 -22 56 Z" /><glyph glyph-name="uniF400" unicode="&#xf400;" d="M-180 700 l88 -56 l-150 -134 l-56 40 l118 150 Z" /><glyph glyph-name="uniF401" unicode="&#xf401;" d="M-312 728 l-56 50 l140 142 l90 -70 l-174 -122 Z" /><glyph glyph-name="uniF406" unicode="&#xf406;" d="M330 870 l90 0 q-6 -63 -53 -103.5 q-47 -40.5 -117 -40.5 q-70 0 -117 40.5 q-47 40.5 -53 103.5 l90 0 q12 -60 80 -60 q68 0 80 60 Z" /><glyph glyph-name="uniF407" unicode="&#xf407;" d="M254 -46 l96 -44 l-122 -154 l-66 36 l92 162 Z" /><glyph glyph-name="uniF408" unicode="&#xf408;" d="M250 820 l-120 -88 l-60 64 l180 134 l180 -134 l-60 -64 l-120 88 Z" /><glyph glyph-name="uniF409" unicode="&#xf409;" d="M160 -258 l68 208 l112 -16 l-100 -204 l-80 12 Z" /><glyph glyph-name="uniF40A" unicode="&#xf40a;" d="M160 468 l66 212 l114 -20 l-96 -208 l-84 16 Z" /><glyph glyph-name="uniF40B" unicode="&#xf40b;" d="M194.5 761.5 q-22.5 22.5 -22.5 55.5 q0 33 22.5 55.5 q22.5 22.5 55.5 22.5 q33 0 55.5 -22.5 q22.5 -22.5 22.5 -55.5 q0 -33 -22.5 -55.5 q-22.5 -22.5 -55.5 -22.5 q-33 0 -55.5 22.5 Z" /><glyph glyph-name="uniF40C" unicode="&#xf40c;" d="M221.5 854.5 q-11.5 -11.5 -11.5 -28.5 q0 -17 11.5 -28.5 q11.5 -11.5 28.5 -11.5 q17 0 28.5 11.5 q11.5 11.5 11.5 28.5 q0 17 -11.5 28.5 q-11.5 11.5 -28.5 11.5 q-17 0 -28.5 -11.5 ZM179.5 755.5 q-28.5 28.5 -28.5 70.5 q0 42 28.5 70.5 q28.5 28.5 70.5 28.5 q42 0 70.5 -28.5 q28.5 -28.5 28.5 -70.5 q0 -42 -28.5 -70.5 q-28.5 -28.5 -70.5 -28.5 q-42 0 -70.5 28.5 Z" /><glyph glyph-name="uniF40D" unicode="&#xf40d;" d="M377 869 l65 -48 q-18 -37 -45 -59 q-31 -28 -69 -28 q-26 0 -68 17 l-35 14 q-40 15 -50 15 q-19 0 -34 -15 q-10 -10 -16 -24 l-67 48 q17 32 39 54 q33 33 76 33 q24 0 68 -17 l39 -16 q31 -13 48 -13 q20 0 33 13 q8 8 16 26 Z" /><glyph glyph-name="uniF40E" unicode="&#xf40e;" d="M274 0 l66 0 q-24 -16 -36 -30 q-20 -22 -20 -43 q0 -18 11.5 -30.5 q11.5 -12.5 33.5 -12.5 q21 0 47 12 l-14 -69 q-28 -17 -67 -17 q-45 0 -70 25 q-25 25 -25 60 q0 34 26 65 q21 24 48 40 Z" /><glyph glyph-name="afii10017.var.accented" unicode="&#xf460;" d="M530 0 l-59 140 l-269 0 l-59 -140 l-141 0 l287 667 l102 0 l279 -667 l-140 0 ZM243 246 l190 0 l-95 240 l-95 -240 ZM312 728 l-56 50 l140 142 l90 -70 l-174 -122 Z" /><glyph glyph-name="afii10022.var.accented" unicode="&#xf461;" d="M446 667 l0 -112 l-240 0 l0 -149 l230 0 l0 -112 l-230 0 l0 -182 l240 0 l0 -112 l-370 0 l0 667 l370 0 ZM224 728 l-56 50 l140 142 l90 -70 l-174 -122 Z" /><glyph glyph-name="afii10026.var.accented" unicode="&#xf462;" d="M76 667 l130 0 l0 -444 l366 444 l92 0 l0 -667 l-130 0 l0 446 l-366 -446 l-92 0 l0 667 ZM346 728 l-56 50 l140 142 l90 -70 l-174 -122 Z" /><glyph glyph-name="afii10032.var.accented" unicode="&#xf463;" d="M143.5 584 q99.5 98 256.5 98 q157 0 256.5 -98 q99.5 -98 99.5 -251 q0 -153 -99.5 -250.5 q-99.5 -97.5 -256.5 -97.5 q-157 0 -256.5 97.5 q-99.5 97.5 -99.5 250.5 q0 153 99.5 251 ZM240 167.5 q62 -64.5 160 -64.5 q98 0 160 64.5 q62 64.5 62 165.5 q0 101 -62.5 166 q-62.5 65 -159.5 65 q-97 0 -159.5 -65 q-62.5 -65 -62.5 -166 q0 -101 62 -165.5 ZM376 728 l-56 50 l140 142 l90 -70 l-174 -122 Z" /><glyph glyph-name="afii10037.var.accented" unicode="&#xf464;" d="M2 667 l152 0 l169 -336 l143 336 l142 0 l-309 -667 l-142 0 l93 186 l-248 481 ZM281 728 l-56 50 l140 142 l90 -70 l-174 -122 Z" /><glyph glyph-name="afii10045.var.accented" unicode="&#xf465;" d="M76 0 l0 667 l130 0 l0 -261 l104 0 q104 0 164 -55 q62 -57 62 -149 q0 -68 -36 -120 q-56 -82 -189 -82 l-235 0 ZM206 294 l0 -182 l76 0 q120 0 120 90 q0 38 -26.5 65 q-26.5 27 -91.5 27 l-78 0 ZM594 667 l130 0 l0 -667 l-130 0 l0 667 ZM376 728 l-56 50 l140 142 l90 -70 l-174 -122 Z" /><glyph glyph-name="afii10047.var.accented" unicode="&#xf466;" d="M44 24 l0 152 q72 -73 176 -73 q78 0 138.5 46 q60.5 46 74.5 130 l-299 0 l0 112 l297 0 q-14 82 -73 127.5 q-59 45.5 -133 45.5 q-107 0 -181 -75 l0 152 q80 41 174 41 q157 0 249 -88 q47 -46 73.5 -115.5 q26.5 -69.5 26.5 -145.5 q0 -159 -99 -255 q-93 -93 -249 -93 q-94 0 -175 39 ZM231 728 l-56 50 l140 142 l90 -70 l-174 -122 Z" /><glyph glyph-name="afii10048.var.accented" unicode="&#xf467;" d="M206 409 l92 0 q17 98 84 171 q94 102 256 102 q153 0 248.5 -98 q95.5 -98 95.5 -251 q0 -152 -95.5 -250 q-95.5 -98 -248.5 -98 q-151 0 -243 89 q-92 89 -101 223 l-88 0 l0 -297 l-130 0 l0 667 l130 0 l0 -258 ZM486 167 q58 -64 152 -64 q94 0 152 64 q58 64 58 166 q0 112 -63.5 171.5 q-63.5 59.5 -146.5 59.5 q-83 0 -146.5 -59.5 q-63.5 -59.5 -63.5 -171.5 q0 -102 58 -166 ZM489 728 l-56 50 l140 142 l90 -70 l-174 -122 Z" /><glyph glyph-name="afii10049.var.accented" unicode="&#xf468;" d="M492 667 l0 -667 l-130 0 l0 258 l-24 0 l-170 -258 l-156 0 l198 270 q-40 6 -73 30 q-75 54 -75 161 q0 97 66 155 q58 51 171 51 l193 0 ZM362 561 l-40 0 q-16 0 -31 -2 q-15 -2 -40 -10.5 q-25 -8.5 -40 -31 q-15 -22.5 -15 -56.5 q0 -101 128 -101 l38 0 l0 201 ZM260 728 l-56 50 l140 142 l90 -70 l-174 -122 Z" /><glyph glyph-name="afii10023.var.accented" unicode="&#xf469;" d="M446 667 l0 -112 l-240 0 l0 -149 l230 0 l0 -112 l-230 0 l0 -182 l240 0 l0 -112 l-370 0 l0 667 l370 0 ZM206 743 l-35 33 l112 144 l62 -57 l-139 -120 ZM49 823 q0 21 17 40.5 q17 19.5 43 19.5 q26 0 43.5 -18 q17.5 -18 17.5 -42 q0 -23 -18 -42 q-18 -19 -43 -19 q-23 0 -41.5 18.5 q-18.5 18.5 -18.5 42.5 ZM351 823 q0 21 17 40.5 q17 19.5 44 19.5 q27 0 44 -19.5 q17 -19.5 17 -40.5 q0 -23 -19 -42 q-19 -19 -42 -19 q-23 0 -42 19 q-19 19 -19 42 Z" /><glyph glyph-name="afii10065.var.accented" unicode="&#xf46a;" d="M390 377 l0 56 l122 0 l0 -433 l-122 0 l0 56 q-49 -70 -133 -70 q-98 0 -159.5 67 q-61.5 67 -61.5 164 q0 98 60 164 q60 66 155 66 q94 0 139 -70 ZM368 304 q-34 35 -86 35 q-52 0 -86 -35 q-34 -35 -34 -87 q0 -52 34 -87.5 q34 -35.5 86 -35.5 q52 0 86 35.5 q34 35.5 34 87.5 q0 52 -34 87 ZM353 700 l88 -56 l-150 -134 l-56 40 l118 150 Z" /><glyph glyph-name="afii10070.var.accented" unicode="&#xf46b;" d="M371 139 l112 -18 q-7 -18 -18.5 -35.5 q-11.5 -17.5 -35.5 -43 q-24 -25.5 -65 -41 q-41 -15.5 -94 -15.5 q-102 0 -166 61 q-68 64 -68 169 q0 104 66 170 q62 61 163 61 q110 0 169 -71 q52 -62 52 -170 l0 -10 l-324 0 q0 -44 21 -73 q30 -41 87 -41 q68 0 101 57 ZM166 274 l205 0 q-7 42 -36.5 64.5 q-29.5 22.5 -66.5 22.5 q-36 0 -65.5 -23 q-29.5 -23 -36.5 -64 ZM329 700 l88 -56 l-150 -134 l-56 40 l118 150 Z" /><glyph glyph-name="afii10074.var.accented" unicode="&#xf46c;" d="M58 433 l122 0 l0 -267 l200 267 l122 0 l0 -433 l-122 0 l0 267 l-200 -267 l-122 0 l0 433 ZM348 700 l88 -56 l-150 -134 l-56 40 l118 150 Z" /><glyph glyph-name="afii10080.var.accented" unicode="&#xf46d;" d="M109 386 q66 61 175 61 q109 0 175 -61 q73 -66 73 -170 q0 -103 -73 -169 q-66 -61 -175 -61 q-109 0 -175 61 q-73 66 -73 169 q0 104 73 170 ZM197 130 q35 -36 87 -36 q52 0 87 36 q35 36 35 86 q0 51 -35 87 q-35 36 -87 36 q-52 0 -87 -36 q-35 -36 -35 -87 q0 -50 35 -86 ZM352 700 l88 -56 l-150 -134 l-56 40 l118 150 Z" /><glyph glyph-name="afii10085.var.accented" unicode="&#xf46e;" d="M49 -229 l159 294 l-206 368 l142 0 l134 -246 l120 246 l138 0 l-349 -662 l-138 0 ZM337 700 l88 -56 l-150 -134 l-56 40 l118 150 Z" /><glyph glyph-name="afii10093.var.accented" unicode="&#xf46f;" d="M58 433 l122 0 l0 -154 l95 0 q76 0 116 -44 q33 -35 33 -93 q0 -71 -46 -110 q-37 -32 -97 -32 l-223 0 l0 433 ZM180 96 l57 0 q31 0 45 11 q16 12 16 35 q0 21 -16 31 q-14 10 -42 10 l-60 0 l0 -87 ZM470 433 l122 0 l0 -433 l-122 0 l0 433 ZM393 700 l88 -56 l-150 -134 l-56 40 l118 150 Z" /><glyph glyph-name="afii10095.var.accented" unicode="&#xf470;" d="M34 9 l0 118 q52 -42 126 -42 q52 0 80 24 q27 24 29 66 l-179 0 l0 88 l179 0 q-6 39 -33 61 q-30 27 -77 27 q-69 0 -123 -37 l0 106 q65 27 132 27 q108 0 169 -65 q61 -63 61 -166 q0 -107 -64 -169 q-62 -62 -166 -62 q-78 0 -134 24 ZM241 700 l88 -56 l-150 -134 l-56 40 l118 150 Z" /><glyph glyph-name="afii10096.var.accented" unicode="&#xf471;" d="M180 270 l59 0 q11 67 62 116 q64 61 169 61 q106 0 172 -61 q72 -65 72 -170 q0 -102 -72 -169 q-66 -61 -172 -61 q-104 0 -169 61 q-51 49 -62 119 l-59 0 l0 -166 l-122 0 l0 433 l122 0 l0 -163 ZM385.5 129.5 q33.5 -35.5 84.5 -35.5 q51 0 84.5 35.5 q33.5 35.5 33.5 86.5 q0 52 -33.5 87.5 q-33.5 35.5 -84.5 35.5 q-51 0 -84.5 -35.5 q-33.5 -35.5 -33.5 -87.5 q0 -51 33.5 -86.5 ZM443 700 l88 -56 l-150 -134 l-56 40 l118 150 Z" /><glyph glyph-name="afii10097.var.accented" unicode="&#xf472;" d="M20 0 l128 162 q-42 6 -70 34 q-34 34 -34 92 q0 67 52 109 q46 36 134 36 l172 0 l0 -433 l-122 0 l0 152 l-14 0 l-106 -152 l-140 0 ZM280 240 l0 97 l-53 0 q-28 0 -41 -12 q-16 -15 -16 -38 q0 -24 16 -36 q14 -11 41 -11 l53 0 ZM298 700 l88 -56 l-150 -134 l-56 40 l118 150 Z" /><glyph glyph-name="afii10071.var.accented" unicode="&#xf473;" d="M371 139 l112 -18 q-7 -18 -18.5 -35.5 q-11.5 -17.5 -35.5 -43 q-24 -25.5 -65 -41 q-41 -15.5 -94 -15.5 q-102 0 -166 61 q-68 64 -68 169 q0 104 66 170 q62 61 163 61 q110 0 169 -71 q52 -62 52 -170 l0 -10 l-324 0 q0 -44 21 -73 q30 -41 87 -41 q68 0 101 57 ZM166 274 l205 0 q-7 42 -36.5 64.5 q-29.5 22.5 -66.5 22.5 q-36 0 -65.5 -23 q-29.5 -23 -36.5 -64 ZM293 700 l67 -41 l-135 -137 l-40 28 l108 150 ZM52 593 q0 27 19 46 q19 19 45 19 q27 0 46 -19 q19 -19 19 -46 q0 -26 -19 -45 q-19 -19 -46 -19 q-26 0 -45 19 q-19 19 -19 45 ZM367 548 q-19 19 -19 45 q0 26 19 45.5 q19 19.5 46 19.5 q26 0 45.5 -19 q19.5 -19 19.5 -46 q0 -26 -19.5 -45 q-19.5 -19 -45.5 -19 q-27 0 -46 19 Z" /><glyph glyph-name="uniF4C6" unicode="&#xf4c6;" d="M180 667 l0 -182 q0 -66 33 -92 q29 -22 95 -22 q57 0 106 7 l0 289 l130 0 l0 -750 q0 -71 -36 -108 q-37 -38 -111 -38 q-46 0 -85 9 l0 112 q24 -9 46 -9 q27 0 41 14 q15 16 15 68 l0 301 q-68 -7 -119 -7 q-121 0 -178 43 q-67 50 -67 160 l0 205 l130 0 Z" /><glyph glyph-name="uniF4C7" unicode="&#xf4c7;" d="M42 433 l122 0 l0 -128 q0 -33 15 -47 q17 -16 62 -16 q30 0 63 6 l0 185 l122 0 l0 -519 q0 -82 -49 -117 q-38 -27 -106 -27 q-38 0 -69 9 l0 108 q24 -9 47 -9 q33 0 46 22 q9 15 9 60 l0 188 q-52 -10 -102 -10 q-79 0 -121 40 q-39 37 -39 102 l0 153 Z" /><glyph glyph-name="uniF4CC" unicode="&#xf4cc;" d="M2 667 l152 0 l169 -336 l143 336 l142 0 l-309 -667 l-142 0 l93 186 l-248 481 ZM281 728 l-56 50 l140 142 l90 -70 l-174 -122 Z" /><glyph glyph-name="uniF4CD" unicode="&#xf4cd;" d="M49 -229 l159 294 l-206 368 l142 0 l134 -246 l120 246 l138 0 l-349 -662 l-138 0 ZM337 700 l88 -56 l-150 -134 l-56 40 l118 150 Z" /><glyph glyph-name="dollar.fitted" unicode="&#xf5f5;" d="M212 765 l82 0 l0 -100 q42 -3 82 -23 q41 -22 68 -52 l-66 -84 q-44 54 -105 54 q-45 0 -68 -24 q-19 -19 -19 -47 q0 -28 26 -47 q15 -11 82 -41 q5 -2 23.5 -10 q18.5 -8 27.5 -12.5 q9 -4.5 23.5 -12 q14.5 -7.5 25.5 -16 q11 -8.5 21 -17.5 q51 -48 51 -124 q0 -91 -60 -149 q-45 -45 -112 -58 l0 -112 l-82 0 l0 110 q-70 8 -127 46 q-43 29 -73 73 l75 77 q27 -40 57 -60 q38 -28 91 -28 q49 0 76 26 q25 25 25 62 q0 34 -23 55 q-13 13 -72 39 q-97 43 -133 77 q-47 44 -47 115 q0 71 45 122 q43 47 106 61 l0 100 Z" /><glyph glyph-name="Euro.fitted" unicode="&#xf5f6;" d="M573 172 l0 -146 q-76 -41 -184 -41 q-150 0 -230 87 q-54 58 -65 139 l-75 0 l36 90 l30 0 q-5 33 0 63 l-66 0 l36 90 l42 0 q19 85 80 143 q88 85 233 85 q97 0 173 -44 l-51 -109 q-55 35 -130 35 q-42 0 -74 -11.5 q-32 -11.5 -50 -30.5 q-18 -19 -27.5 -35 q-9.5 -16 -14.5 -33 l268 0 l-36 -90 l-249 0 q-4 -36 0 -63 l231 0 l-36 -90 l-176 0 q13 -55 59.5 -81.5 q46.5 -26.5 105.5 -26.5 q107 0 170 69 Z" /><glyph glyph-name="cent.fitted" unicode="&#xf5f7;" d="M197 655 l82 0 l0 -93 q43 -2 81 -22 l0 -123 q-36 44 -95 44 q-50 0 -84 -32 q-37 -35 -37 -96 q0 -61 37 -95 q31 -29 82 -29 q64 0 97 44 l0 -124 q-39 -19 -81 -21 l0 -95 l-82 0 l0 93 q-72 10 -121 61 q-62 65 -62 167 q0 103 66 169 q49 49 117 61 l0 91 Z" /><glyph glyph-name="sterling.fitted" unicode="&#xf5f8;" d="M168 246 l-113 0 l0 88 l65 0 q-37 67 -37 128 q0 94 63 154 q68 66 177 66 q109 0 172 -63 q59 -59 59 -167 l0 -12 l-132 0 q1 5 1 17 q0 55 -29 84 q-27 27 -72 27 q-48 0 -77 -29 q-32 -32 -32 -84 q0 -41 23 -89 l16 -32 l148 0 l0 -88 l-120 0 q7 -26 7 -50 q0 -37 -12 -66 l37 -13 q80 -28 106 -28 q48 0 61 54 l89 -19 q-20 -84 -72 -118 q-33 -21 -80 -21 q-45 0 -118 25 q-80 26 -110 26 q-52 0 -68 -45 l-94 17 q14 53 54 90 q36 33 87 40 q11 25 11 49 q0 27 -10 59 Z" /><glyph glyph-name="yen.fitted" unicode="&#xf5f9;" d="M432 667 l144 0 l-129 -213 l88 0 l0 -90 l-142 0 l-36 -63 l178 0 l0 -90 l-178 0 l0 -211 l-120 0 l0 211 l-178 0 l0 90 l178 0 l-36 63 l-142 0 l0 90 l88 0 l-129 213 l144 0 l135 -234 l135 234 Z" /><glyph glyph-name="florin.fitted" unicode="&#xf5fa;" d="M233 347 l-60 0 l16 86 l60 0 l24 130 q16 87 58 129 q46 48 124 48 q49 0 87 -19 l-20 -107 q-27 15 -55 15 q-26 0 -45 -17 q-19 -18 -26 -60 l-23 -119 l108 0 l-16 -86 l-108 0 l-46 -266 q-14 -77 -30 -123.5 q-16 -46.5 -50 -79.5 q-59 -58 -174 -58 q-26 0 -49 4 l19 112 q16 -3 32 -3 q51 0 80 26 q32 28 51 141 l43 247 Z" /><glyph glyph-name="uni20B4.fitted" unicode="&#xf5fb;" d="M120 515 l-68 89 q37 31 83 52 q60 26 127 26 q97 0 146 -46 q44 -43 44 -102 q0 -43 -26 -80 l70 0 l0 -90 l-142 0 l-65 -63 l207 0 l0 -90 l-277 0 q-18 -21 -18 -48 q0 -29 24 -46 q20 -14 53 -14 q44 0 78 24 q29 20 50 53 l80 -88 q-36 -45 -90 -75 q-61 -32 -140 -32 q-84 0 -132 41 q-50 42 -50 104 q0 47 21 81 l-74 0 l0 90 l138 0 l65 63 l-203 0 l0 90 l276 0 q24 23 24 53 q0 31 -22 49 q-21 17 -52 17 q-41 0 -80 -23 q-27 -15 -47 -35 Z" /><glyph glyph-name="uni20B6.fitted" unicode="&#xf5fc;" d="M287 667 q62 0 101.5 -10.5 q39.5 -10.5 74.5 -40.5 q68 -60 68 -163 q0 -89 -55 -144 q-61 -59 -169 -59 l-84 0 l0 -63 l184 0 l0 -90 l-184 0 l0 -97 l-130 0 l0 97 l-70 0 l0 90 l70 0 l0 63 l-70 0 l0 109 l70 0 l0 308 l194 0 ZM223 555 l0 -196 l53 0 q57 0 85 21 q36 28 36 78 q0 49 -37 76 q-30 21 -92 21 l-45 0 Z" /><glyph glyph-name="uni20B8.fitted" unicode="&#xf5fd;" d="M444 418 l-150 0 l0 -418 l-130 0 l0 418 l-150 0 l0 112 l430 0 l0 -112 ZM444 575 l-430 0 l0 92 l430 0 l0 -92 Z" /><glyph glyph-name="uniF639" unicode="&#xf639;" d="M469.5 77.5 q-75.5 -92.5 -182.5 -92.5 q-107 0 -182.5 92.5 q-75.5 92.5 -75.5 256.5 q0 163 75.5 255.5 q75.5 92.5 182.5 92.5 q107 0 182.5 -92.5 q75.5 -92.5 75.5 -256.5 q0 -163 -75.5 -255.5 ZM375.5 511.5 q-39.5 58.5 -88.5 58.5 q-49 0 -88.5 -58.5 q-39.5 -58.5 -39.5 -177.5 q0 -119 39 -178 q39 -59 89 -59 q50 0 89 59 q39 59 39 178 q0 119 -39.5 177.5 Z" /><glyph glyph-name="uniF63A" unicode="&#xf63a;" d="M26 0 l196 223 q96 112 114 139 q39 58 39 107 q0 45 -28.5 73 q-28.5 28 -70.5 28 q-48 0 -76 -32.5 q-28 -32.5 -30 -78.5 l-134 0 q4 101 69 162 q65 61 165 61 q110 0 172.5 -63 q62.5 -63 62.5 -149 q0 -48 -22 -96 q-22 -48 -42 -72.5 q-20 -24.5 -57 -64.5 l-115 -125 l241 0 l0 -112 l-484 0 Z" /><glyph glyph-name="uniF63B" unicode="&#xf63b;" d="M172 493 l-122 0 q9 89 69 139 q60 50 148 50 q96 0 152.5 -50 q56.5 -50 56.5 -134 q0 -97 -77 -140 q102 -42 102 -159 q0 -100 -67.5 -157 q-67.5 -57 -170.5 -57 q-98 0 -165 56.5 q-67 56.5 -75 150.5 l130 0 q6 -43 35 -69 q29 -26 76 -26 q52 0 79.5 31.5 q27.5 31.5 27.5 74.5 q0 42 -27.5 73 q-27.5 31 -83.5 31 l-17 0 l0 94 l18 0 q45 0 68 26.5 q23 26.5 23 64.5 q0 40 -24 64 q-24 24 -64 24 q-37 0 -63.5 -23 q-26.5 -23 -28.5 -64 Z" /><glyph glyph-name="uniF63C" unicode="&#xf63c;" d="M454 667 l0 -437 l78 0 l0 -104 l-78 0 l0 -126 l-122 0 l0 126 l-326 0 l0 58 l331 483 l117 0 ZM160 230 l172 0 l0 254 l-172 -254 Z" /><glyph glyph-name="uniF63D" unicode="&#xf63d;" d="M467 667 l0 -112 l-222 0 l-24 -105 q26 4 45 4 q107 0 172 -67 q59 -60 59 -160 q0 -106 -68 -174 q-68 -68 -183 -68 q-87 0 -144 28 q-43 21 -81 57 l43 112 q29 -39 69 -60 q46 -25 97 -25 q64 0 102 40 q35 37 35 97 q0 57 -39 92 q-39 34 -104 34 q-72 0 -144 -43 l79 350 l308 0 Z" /><glyph glyph-name="uniF63E" unicode="&#xf63e;" d="M299 685 l105 -51 l-162 -211 q36 16 73 16 q39 0 79 -15 q40 -15 68 -42 q63 -59 63 -160 q0 -95 -61 -161 q-70 -76 -190 -76 q-122 0 -190 68 q-65 65 -65 162 q0 97 84 208 l196 262 ZM272 89 q53 0 87 34 q36 36 36 88 q0 57 -37 92 q-33 32 -86 32 q-53 0 -87 -36 q-36 -37 -36 -87 q0 -56 37 -90 q35 -33 86 -33 Z" /><glyph glyph-name="uniF63F" unicode="&#xf63f;" d="M39 29 l307 526 l-310 0 l0 112 l514 0 l-401 -687 l-110 49 Z" /><glyph glyph-name="uniF640" unicode="&#xf640;" d="M374 348 q55 -18 87 -63 q32 -45 32 -103 q0 -85 -63.5 -141 q-63.5 -56 -168.5 -56 q-105 0 -168.5 56 q-63.5 56 -63.5 141 q0 58 32 103 q32 45 87 63 q-42 21 -69 58.5 q-27 37.5 -27 89.5 q0 78 55 132 q55 54 154 54 q99 0 154 -54 q55 -54 55 -132 q0 -52 -27 -89.5 q-27 -37.5 -69 -58.5 ZM194 428 q26 -26 67 -26 q41 0 67 26 q26 26 26 67 q0 41 -26 67 q-26 26 -67 26 q-41 0 -67 -26 q-26 -26 -26 -67 q0 -41 26 -67 ZM188 116.5 q29 -29.5 73 -29.5 q44 0 73 29.5 q29 29.5 29 74.5 q0 45 -29 74.5 q-29 29.5 -73 29.5 q-44 0 -73 -29.5 q-29 -29.5 -29 -74.5 q0 -45 29 -74.5 Z" /><glyph glyph-name="uniF641" unicode="&#xf641;" d="M248 -18 l-105 51 l159 208 q-39 -13 -71 -13 q-37 0 -77.5 15 q-40.5 15 -68.5 42 q-63 59 -63 160 q0 95 61 161 q70 76 190 76 q122 0 190 -68 q65 -65 65 -162 q0 -97 -84 -208 l-196 -262 ZM275 578 q-53 0 -87 -34 q-36 -36 -36 -88 q0 -57 37 -92 q33 -32 86 -32 q52 0 87 36 q36 38 36 87 q0 55 -37 90 q-35 33 -86 33 Z" /><glyph glyph-name="uniF6BA" unicode="&#xf6ba;" d="M50 285 l0 112 l260 0 l0 -112 l-260 0 Z" /><glyph glyph-name="uniF6BB" unicode="&#xf6bb;" d="M70 289 l0 104 l500 0 l0 -104 l-500 0 Z" /><glyph glyph-name="uniF6BC" unicode="&#xf6bc;" d="M70 289 l0 104 l700 0 l0 -104 l-700 0 Z" /><glyph glyph-name="uniF6C3" unicode="&#xf6c3;" d="M160 -258 l68 208 l112 -16 l-100 -204 l-80 12 Z" /><glyph glyph-name="uniF6C9" unicode="&#xf6c9;" d="M226 728 l-56 50 l140 142 l90 -70 l-174 -122 Z" /><glyph glyph-name="uniF6CA" unicode="&#xf6ca;" d="M250 842 l120 88 l60 -64 l-180 -134 l-180 134 l60 64 l120 -88 Z" /><glyph glyph-name="uniF6CB" unicode="&#xf6cb;" d="M87.5 760.5 q-21.5 21.5 -21.5 50.5 q0 29 21.5 50.5 q21.5 21.5 50.5 21.5 q29 0 50.5 -21.5 q21.5 -21.5 21.5 -50.5 q0 -29 -21.5 -50.5 q-21.5 -21.5 -50.5 -21.5 q-29 0 -50.5 21.5 ZM311.5 760.5 q-21.5 21.5 -21.5 50.5 q0 29 21.5 50.5 q21.5 21.5 50.5 21.5 q29 0 50.5 -21.5 q21.5 -21.5 21.5 -50.5 q0 -29 -21.5 -50.5 q-21.5 -21.5 -50.5 -21.5 q-29 0 -50.5 21.5 Z" /><glyph glyph-name="uniF6CE" unicode="&#xf6ce;" d="M274 728 l-174 122 l90 70 l140 -142 l-56 -50 Z" /><glyph glyph-name="uniF6CF" unicode="&#xf6cf;" d="M198 921 l90 -59 l-144 -134 l-56 40 l110 153 ZM398 920 l90 -58 l-144 -134 l-56 40 l110 152 Z" /><glyph glyph-name="uniF6D0" unicode="&#xf6d0;" d="M67 745 l0 86 l366 0 l0 -86 l-366 0 Z" /><glyph glyph-name="uniF6D1" unicode="&#xf6d1;" d="M70 844 l90 36 q22 -58 90 -58 q68 0 90 58 l90 -36 q-20 -52 -66.5 -82 q-46.5 -30 -113.5 -30 q-67 0 -113.5 30 q-46.5 30 -66.5 82 Z" /><glyph glyph-name="uniF6D4" unicode="&#xf6d4;" d="M334 650 l80 -38 q-20 -56 -67 -79.5 q-47 -23.5 -97 -23.5 q-50 0 -97 23.5 q-47 23.5 -67 79.5 l80 38 q6 -27 29.5 -45 q23.5 -18 54.5 -18 q29 0 53 16 q24 16 31 47 Z" /><glyph glyph-name="uniF6DC" unicode="&#xf6dc;" d="M112 0 l0 555 l-96 0 l0 112 l226 0 l0 -667 l-130 0 Z" /><glyph glyph-name="uniF6DE" unicode="&#xf6de;" d="M52 178 l0 104 l525 0 l0 -104 l-525 0 Z" /><glyph glyph-name="fi" unicode="&#xfb01;" d="M294 329 l-112 0 l0 -329 l-122 0 l0 329 l-46 0 l0 104 l46 0 l0 108 q0 31 1 45 q1 14 8.5 38 q7.5 24 22.5 45 q54 72 173 72 q127 0 175 -72 q5 -8 9.5 -16 q4.5 -8 7.5 -16.5 q3 -8.5 5.5 -15 q2.5 -6.5 3.5 -16 q1 -9.5 2 -14 q1 -4.5 1.5 -14.5 q0.5 -10 0.5 -12.5 q0 -2.5 0 -12.5 l0 -11 l0 -29 l-122 0 l0 26 q0 39 -13 60 q-21 33 -70 33 q-48 0 -69 -33 q-14 -22 -14 -60 l0 -105 l112 0 l0 -104 ZM348 433 l122 0 l0 -433 l-122 0 l0 433 Z" /><glyph glyph-name="fl" unicode="&#xfb02;" d="M294 329 l-112 0 l0 -329 l-122 0 l0 329 l-46 0 l0 104 l46 0 l0 108 q0 31 1 45 q1 14 8.5 38 q7.5 24 22.5 45 q54 72 173 72 q127 0 175 -72 q5 -8 9.5 -16 q4.5 -8 7.5 -16.5 q3 -8.5 5.5 -15 q2.5 -6.5 3.5 -16 q1 -9.5 2 -14 q1 -4.5 1.5 -14.5 q0.5 -10 0.5 -12.5 q0 -2.5 0 -12.5 l0 -11 l0 -541 l-122 0 l0 538 q0 39 -13 60 q-21 33 -70 33 q-48 0 -69 -33 q-14 -22 -14 -60 l0 -105 l112 0 l0 -104 Z" /></font>
</defs>
</svg>
