<?xml version="1.0" standalone="no"?><!DOCTYPE svg PUBLIC "-//W3C//DTD SVG 1.1//EN" "http://www.w3.org/Graphics/SVG/1.1/DTD/svg11.dtd" ><svg xmlns="http://www.w3.org/2000/svg"><metadata></metadata><defs><font id="ParaTypeLtd: Futura PT Cond Book: 2013" horiz-adv-x="1000"><font-face font-family="Futura PT Cond Book" font-weight="400" font-stretch="normal" units-per-em="1000" panose-1="2 11 4 6 2 2 4 2 2 3" ascent="982" descent="-300" x-height="3" bbox="-219 -250 750 913" underline-thickness="50" underline-position="-175" unicode-range="U+0020-fb02" /><missing-glyph horiz-adv-x="233"  /><glyph glyph-name="space" unicode=" " d="" /><glyph glyph-name="exclam" unicode="!" d="M148 167 l-60 0 l0 500 l60 0 l0 -500 ZM150 70 q13 -13 13 -32 q0 -19 -13 -32 q-13 -13 -32 -13 q-18 0 -31.5 13.5 q-13.5 13.5 -13.5 31.5 q0 19 13 32 q13 13 32 13 q19 0 32 -13 Z" /><glyph glyph-name="quotedbl" unicode="&quot;" d="M248 667 l-10 -269 l-42 0 l-10 269 l62 0 ZM119 667 l-10 -269 l-42 0 l-10 269 l62 0 Z" /><glyph glyph-name="numbersign" unicode="#" d="M569 466 l-8 -52 l-111 0 l-23 -148 l112 0 l-8 -52 l-112 0 l-32 -214 l-59 0 l33 214 l-149 0 l-32 -214 l-58 0 l32 214 l-114 0 l8 52 l114 0 l23 148 l-114 0 l7 52 l115 0 l30 201 l58 0 l-31 -201 l149 0 l31 201 l58 0 l-30 -201 l111 0 ZM391 414 l-149 0 l-22 -148 l149 0 l22 148 Z" /><glyph glyph-name="dollar" unicode="$" d="M306 636 l-31 -47 q-46 30 -88 30 q-44 0 -71 -28.5 q-27 -28.5 -27 -73.5 q0 -36 13.5 -63.5 q13.5 -27.5 35 -45.5 q21.5 -18 48 -34 q26.5 -16 52.5 -33 q26 -17 47.5 -37.5 q21.5 -20.5 35 -53 q13.5 -32.5 13.5 -74.5 q0 -70 -35.5 -120.5 q-35.5 -50.5 -96.5 -61.5 l0 -85 l-49 0 l0 83 q-64 10 -112 57 l36 43 q54 -44 97 -44 q46 0 74 36 q28 36 28 89 q0 37 -18 65.5 q-18 28.5 -45.5 45.5 q-27.5 17 -59 38.5 q-31.5 21.5 -59 43 q-27.5 21.5 -45.5 59.5 q-18 38 -18 88 q0 130 122 160 l0 78 l49 0 l0 -76 q50 -3 104 -39 Z" /><glyph glyph-name="percent" unicode="%" d="M425 667 l-289 -667 l-46 0 l289 667 l46 0 ZM410 286 q-9 10 -24 10 q-15 0 -24 -10 q-17 -18 -17 -119 q0 -102 17 -120 q9 -10 24 -10 q15 0 24 10 q17 18 17 120 q0 101 -17 119 ZM468 261 q6 -36 6 -95 q0 -59 -6 -95 q-6 -36 -26 -56 q-20 -20 -56 -20 q-35 0 -55 20 q-20 20 -26 56 q-6 36 -6 95 q0 59 6 95 q6 36 26 56 q20 20 55 20 q36 0 56 -20 q20 -20 26 -56 ZM151 620 q-9 10 -24 10 q-15 0 -24 -10 q-17 -18 -17 -119 q0 -102 17 -120 q9 -10 24 -10 q15 0 24 10 q17 18 17 120 q0 101 -17 119 ZM209 595 q6 -36 6 -95 q0 -59 -6 -95 q-6 -36 -26 -56 q-20 -20 -56 -20 q-35 0 -55 20 q-20 20 -26 56 q-6 36 -6 95 q0 59 6 95 q6 36 26 56 q20 20 55 20 q36 0 56 -20 q20 -20 26 -56 Z" /><glyph glyph-name="ampersand" unicode="&amp;" d="M386 192 l41 -42 q-25 -34 -59 -69 l41 -81 l-65 0 l-20 37 q-51 -46 -110 -46 q-71 0 -116 54.5 q-45 54.5 -45 126.5 q0 58 25 102.5 q25 44.5 74 89.5 q-61 108 -61 180 q0 56 38.5 94 q38.5 38 93.5 38 q52 0 86 -36 q34 -36 34 -88 q0 -43 -20 -83 q-20 -40 -41 -62 q-21 -22 -57 -53 l115 -218 q26 28 46 56 ZM283 554 q0 28 -18 48 q-18 20 -45 20 q-31 0 -51.5 -22.5 q-20.5 -22.5 -20.5 -53.5 q0 -28 8.5 -57 q8.5 -29 16.5 -44.5 q8 -15.5 24 -43.5 q86 70 86 153 ZM296 90 l-117 220 q-68 -72 -68 -139 q0 -45 28 -82.5 q28 -37.5 72 -37.5 q40 0 85 39 Z" /><glyph glyph-name="quotesingle" unicode="&#39;" d="M119 667 l-10 -269 l-42 0 l-10 269 l62 0 Z" /><glyph glyph-name="parenleft" unicode="(" d="M220 -158 l-48 -23 q-56 98 -87.5 221.5 q-31.5 123.5 -31.5 237.5 q0 114 31.5 237.5 q31.5 123.5 87.5 221.5 l48 -23 q-110 -253 -110 -436 q0 -183 110 -436 Z" /><glyph glyph-name="parenright" unicode=")" d="M40 714 l49 23 q56 -99 87 -220.5 q31 -121.5 31 -238.5 q0 -117 -31 -238.5 q-31 -121.5 -87 -220.5 l-49 23 q110 215 110 436 q0 221 -110 436 Z" /><glyph glyph-name="asterisk" unicode="*" d="M326 613 l-114 -37 l70 -97 l-29 -21 l-70 97 l-70 -97 l-29 21 l71 97 l-114 37 l11 34 l114 -37 l0 119 l35 0 l0 -119 l114 37 l11 -34 Z" /><glyph glyph-name="plus" unicode="+" d="M467 305 l-189 0 l0 -176 l-56 0 l0 176 l-189 0 l0 53 l189 0 l0 175 l56 0 l0 -175 l189 0 l0 -53 Z" /><glyph glyph-name="comma" unicode="," d="M137 55 l-88 -197 l-43 20 l69 205 l62 -28 Z" /><glyph glyph-name="hyphen" unicode="-" d="M188 233 l-138 0 l0 58 l138 0 l0 -58 Z" /><glyph glyph-name="period" unicode="." d="M120 70 q13 -13 13 -32 q0 -19 -13 -32 q-13 -13 -32 -13 q-18 0 -31.5 13.5 q-13.5 13.5 -13.5 31.5 q0 19 13 32 q13 13 32 13 q19 0 32 -13 Z" /><glyph glyph-name="slash" unicode="/" d="M409 729 l-390 -902 l-58 0 l391 902 l57 0 Z" /><glyph glyph-name="zero" unicode="0" d="M333 356 q0 -365 -151 -365 q-40 0 -69 25.5 q-29 25.5 -44 60.5 q-15 35 -23.5 85 q-8.5 50 -10.5 84.5 q-2 34.5 -2 72.5 q0 33 1.5 64 q1.5 31 6.5 75 q5 44 16.5 80 q11.5 36 28.5 68.5 q17 32.5 44.5 51 q27.5 18.5 63.5 18.5 q28 0 51 -13.5 q23 -13.5 37 -32.5 q14 -19 24.5 -50.5 q10.5 -31.5 15.5 -57 q5 -25.5 7.5 -62 q2.5 -36.5 3 -56 q0.5 -19.5 0.5 -48.5 ZM273 378 q0 241 -82 241 q-26 0 -45 -25.5 q-19 -25.5 -29 -59.5 q-10 -34 -15.5 -80 q-5.5 -46 -7 -75 q-1.5 -29 -1.5 -56 q0 -147 29 -219 q23 -56 64 -56 q38 0 57 50 q30 78 30 280 Z" /><glyph glyph-name="one" unicode="1" d="M224 0 l-62 0 l0 609 l-86 0 l0 58 l148 0 l0 -667 Z" /><glyph glyph-name="two" unicode="2" d="M47 485 q0 40 5.5 71 q5.5 31 19 60 q13.5 29 41.5 44.5 q28 15.5 69 15.5 q64 0 100 -41.5 q36 -41.5 36 -106.5 q0 -46 -15.5 -98 q-15.5 -52 -28.5 -80.5 q-13 -28.5 -44 -89.5 l-102 -201 l182 0 l0 -59 l-273 0 l137 282 q57 115 70 167 q11 42 11 79 q0 38 -17 64.5 q-17 26.5 -53 26.5 q-77 0 -77 -122 l0 -12 l-61 0 Z" /><glyph glyph-name="three" unicode="3" d="M107 511 l-57 0 q1 71 31 118 q30 47 96 47 q68 0 100.5 -42 q32.5 -42 32.5 -112 q0 -117 -76 -153 q27 -12 45.5 -32.5 q18.5 -20.5 26.5 -48.5 q8 -28 10.5 -52.5 q2.5 -24.5 2.5 -56.5 q0 -188 -139 -188 q-138 0 -138 165 l0 27 l61 0 q0 -28 2 -45.5 q2 -17.5 8.5 -40.5 q6.5 -23 23.5 -34.5 q17 -11.5 44 -11.5 q78 0 78 140 q0 147 -112 147 l-30 0 l0 55 l26 0 q30 0 48 5 q18 5 34 24 q25 30 25 96 q0 98 -73 98 q-22 0 -37 -9 q-15 -9 -21.5 -26 q-6.5 -17 -9 -32.5 q-2.5 -15.5 -2.5 -37.5 Z" /><glyph glyph-name="four" unicode="4" d="M323 179 l-50 0 l0 -179 l-61 0 l0 179 l-175 0 l0 63 l175 425 l61 0 l0 -431 l50 0 l0 -57 ZM95 236 l117 0 q0 22 -0.5 67 q-0.5 45 -0.5 68 q0 110 8 198 q-14 -53 -38 -115 l-86 -218 Z" /><glyph glyph-name="five" unicode="5" d="M155 609 l-24 -204 q18 3 35 3 q53 0 89 -34 q36 -34 49.5 -79.5 q13.5 -45.5 13.5 -97.5 q0 -84 -41 -145 q-41 -61 -125 -61 q-59 0 -104 33 l17 61 q44 -34 90 -34 q37 0 60.5 26 q23.5 26 31.5 56.5 q8 30.5 8 64.5 q0 62 -25.5 106 q-25.5 44 -86.5 44 q-27 0 -82 -12 l39 331 l199 0 l0 -58 l-144 0 Z" /><glyph glyph-name="six" unicode="6" d="M264 667 l-87 -205 q-44 -102 -46 -107 q31 23 65 23 q45 0 76 -29 q48 -46 48 -169 q0 -112 -46 -156 q-33 -33 -89 -33 q-52 0 -86 32 q-53 51 -53 176 q0 65 17 130 q9 35 41 112 l95 226 l65 0 ZM106 185 q0 -88 33 -120 q20 -20 49 -20 q28 0 47 21 q25 28 25 118 q0 89 -30 121 q-20 20 -47 20 q-28 0 -47 -21 q-30 -33 -30 -119 Z" /><glyph glyph-name="seven" unicode="7" d="M329 667 l-205 -667 l-65 0 l188 609 l-192 0 l0 58 l274 0 Z" /><glyph glyph-name="eight" unicode="8" d="M323 188 q0 -39 -7 -71.5 q-7 -32.5 -22 -62 q-15 -29.5 -44.5 -46.5 q-29.5 -17 -70.5 -17 q-52 0 -84.5 32.5 q-32.5 32.5 -42.5 74 q-10 41.5 -10 92.5 q0 145 85 179 q-70 44 -70 143 q0 70 33.5 117 q33.5 47 100.5 47 q65 0 95.5 -48 q30.5 -48 30.5 -117 q0 -102 -70 -142 q45 -25 60.5 -71 q15.5 -46 15.5 -110 ZM257 507 q0 112 -71 112 q-69 0 -69 -103 q0 -119 71 -119 q69 0 69 110 ZM263 197 q0 144 -80 144 q-25 0 -42 -15.5 q-17 -15.5 -24.5 -41 q-7.5 -25.5 -10.5 -47.5 q-3 -22 -3 -46 q0 -33 4.5 -61.5 q4.5 -28.5 23.5 -55 q19 -26.5 51 -26.5 q27 0 45 14.5 q18 14.5 25 40.5 q7 26 9 46 q2 20 2 48 Z" /><glyph glyph-name="nine" unicode="9" d="M102 0 l130 312 q-33 -23 -66 -23 q-36 0 -61 19.5 q-25 19.5 -37 52 q-12 32.5 -17 63.5 q-5 31 -5 65 q0 187 133 187 q75 0 108 -56 q33 -56 33 -137 q0 -115 -53 -241 l-101 -242 l-64 0 ZM260 482 q0 23 -3 45 q-3 22 -11.5 45 q-8.5 23 -25.5 37 q-17 14 -42 14 q-22 0 -37.5 -15.5 q-15.5 -15.5 -22.5 -40 q-7 -24.5 -10 -46 q-3 -21.5 -3 -43.5 q0 -136 78 -136 q77 0 77 140 Z" /><glyph glyph-name="colon" unicode=":" d="M120 441 q13 -13 13 -32 q0 -19 -13 -32 q-13 -13 -32 -13 q-18 0 -31.5 13.5 q-13.5 13.5 -13.5 31.5 q0 19 13 32 q13 13 32 13 q19 0 32 -13 ZM120 70 q13 -13 13 -32 q0 -19 -13 -32 q-13 -13 -32 -13 q-18 0 -31.5 13.5 q-13.5 13.5 -13.5 31.5 q0 19 13 32 q13 13 32 13 q19 0 32 -13 Z" /><glyph glyph-name="semicolon" unicode=";" d="M124 441 q13 -13 13 -32 q0 -19 -13 -32 q-13 -13 -32 -13 q-19 0 -32 13 q-13 13 -13 32 q0 19 13 32 q13 13 32 13 q19 0 32 -13 ZM137 55 l-88 -197 l-43 20 l69 205 l62 -28 Z" /><glyph glyph-name="less" unicode="&lt;" d="M467 106 l-434 198 l0 50 l434 198 l0 -57 l-372 -166 l372 -166 l0 -57 Z" /><glyph glyph-name="equal" unicode="=" d="M467 390 l-434 0 l0 51 l434 0 l0 -51 ZM467 243 l-434 0 l0 51 l434 0 l0 -51 Z" /><glyph glyph-name="greater" unicode="&gt;" d="M467 304 l-434 -198 l0 57 l372 166 l-372 166 l0 57 l434 -198 l0 -50 Z" /><glyph glyph-name="question" unicode="?" d="M53 498 l0 47 q0 131 115 131 q60 0 88 -39 q23 -32 23 -116 q0 -28 -1 -45 q-1 -17 -4 -43 q-3 -26 -10.5 -41.5 q-7.5 -15.5 -19.5 -31.5 q-12 -16 -32.5 -24 q-20.5 -8 -48.5 -9 l0 -160 l-59 0 l0 214 q6 0 17 -0.5 q11 -0.5 16 -0.5 q35 0 51 9 q5 3 9.5 8.5 q4.5 5.5 8 13.5 q3.5 8 5.5 15.5 q2 7.5 3.5 18 q1.5 10.5 2.5 18 q1 7.5 1 19 q0 11.5 0 17.5 q0 6 0 16.5 q0 10.5 0 13.5 q0 93 -52 93 q-13 0 -22.5 -4 q-9.5 -4 -15 -13.5 q-5.5 -9.5 -9 -17.5 q-3.5 -8 -5 -23 q-1.5 -15 -2 -22.5 q-0.5 -7.5 0 -24 q0.5 -16.5 0.5 -19.5 l-60 0 ZM168 70 q13 -13 13 -32 q0 -19 -13 -32 q-13 -13 -32 -13 q-18 0 -31.5 13.5 q-13.5 13.5 -13.5 31.5 q0 19 13 32 q13 13 32 13 q19 0 32 -13 Z" /><glyph glyph-name="at" unicode="@" d="M607 77 l13 -38 q-108 -52 -229 -52 q-155 0 -256.5 95.5 q-101.5 95.5 -101.5 249.5 q0 145 100.5 244 q100.5 99 245.5 99 q132 0 224 -82.5 q92 -82.5 92 -213.5 q0 -49 -15 -95 q-17 -56 -56.5 -99 q-39.5 -43 -91.5 -43 q-31 0 -50.5 19.5 q-19.5 19.5 -21.5 50.5 q-45 -73 -125 -73 q-64 0 -102 47.5 q-38 47.5 -38 113.5 q0 80 49 142 q49 62 126 62 q87 0 114 -84 l14 71 l42 0 l-41 -216 q-7 -37 -7 -47 q0 -21 11 -35.5 q11 -14.5 32 -14.5 q38 0 67 37.5 q29 37.5 42 82.5 q11 41 11 80 q0 116 -79.5 186.5 q-79.5 70.5 -196.5 70.5 q-128 0 -216 -88 q-88 -88 -88 -216 q0 -126 83 -214 q86 -91 232 -91 q107 0 217 51 ZM466 356 q0 45 -24 75 q-24 30 -68 30 q-58 0 -94.5 -49.5 q-36.5 -49.5 -36.5 -109.5 q0 -49 26 -84.5 q26 -35.5 74 -35.5 q60 0 91.5 54.5 q31.5 54.5 31.5 119.5 Z" /><glyph glyph-name="A" unicode="a" d="M324 0 l-66 0 l-25 137 l-141 0 l-25 -137 l-66 0 l132 667 l58 0 l133 -667 ZM223 191 l-44 235 q-14 75 -19 157 q-7 -104 -58 -392 l121 0 Z" /><glyph glyph-name="B" unicode="b" d="M55 667 l97 0 q67 0 98 -23 q51 -38 51 -147 q0 -56 -18 -94.5 q-18 -38.5 -64 -60.5 q59 -16 78.5 -55.5 q19.5 -39.5 19.5 -108.5 q0 -107 -55 -150 q-36 -28 -105 -28 l-102 0 l0 667 ZM117 372 l33 0 q55 0 71.5 31 q16.5 31 16.5 91 q0 29 -2 46 q-2 17 -9 36 q-7 19 -25 28 q-18 9 -46 9 l-39 0 l0 -241 ZM117 53 l33 0 q59 0 81 32 q22 32 22 95 q0 137 -100 137 l-36 0 l0 -264 Z" /><glyph glyph-name="C" unicode="c" d="M302 81 l0 -62 q-43 -28 -87 -28 q-72 0 -120 65 q-57 78 -57 260 q0 360 184 360 q46 0 80 -21 l0 -68 q-44 29 -77 29 q-124 0 -124 -280 q0 -181 44 -244 q28 -41 75 -41 q37 0 82 30 Z" /><glyph glyph-name="D" unicode="d" d="M55 667 l78 0 q93 0 134.5 -40 q41.5 -40 56.5 -134 q9 -63 9 -170 q0 -57 -2 -94.5 q-2 -37.5 -15 -91.5 q-13 -54 -38 -84 q-45 -53 -141 -53 l-82 0 l0 667 ZM117 57 l29 0 q29 0 50.5 9.5 q21.5 9.5 34.5 29 q13 19.5 21.5 39 q8.5 19.5 11.5 49 q3 29.5 4 49 q1 19.5 1 48.5 q0 113 -5 173 q-2 28 -5.5 47.5 q-3.5 19.5 -12 41.5 q-8.5 22 -20.5 35.5 q-12 13.5 -33.5 22.5 q-21.5 9 -49.5 9 l-26 0 l0 -553 Z" /><glyph glyph-name="E" unicode="e" d="M263 0 l-208 0 l0 667 l208 0 l0 -57 l-146 0 l0 -235 l142 0 l0 -57 l-142 0 l0 -261 l146 0 l0 -57 Z" /><glyph glyph-name="F" unicode="f" d="M267 610 l-150 0 l0 -235 l142 0 l0 -57 l-142 0 l0 -318 l-62 0 l0 667 l212 0 l0 -57 Z" /><glyph glyph-name="G" unicode="g" d="M336 352 l0 -134 q0 -65 -5 -97 q-9 -60 -44 -95 q-35 -35 -93 -35 q-78 0 -115 64 q-41 71 -41 295 q0 32 0.5 54.5 q0.5 22.5 4 59.5 q3.5 37 9.5 63 q6 26 18 56 q12 30 28.5 49 q16.5 19 42.5 31.5 q26 12.5 59 12.5 q57 0 88 -33 q31 -33 47 -93 l-61 -24 q-17 90 -74 90 q-99 0 -99 -243 q0 -196 21 -257 q22 -65 76 -65 q26 0 42.5 13 q16.5 13 23 37 q6.5 24 8.5 42.5 q2 18.5 2 45.5 l0 106 l-91 0 l0 57 l153 0 Z" /><glyph glyph-name="H" unicode="h" d="M331 0 l-62 0 l0 344 l-152 0 l0 -344 l-62 0 l0 667 l62 0 l0 -266 l152 0 l0 266 l62 0 l0 -667 Z" /><glyph glyph-name="I" unicode="i" d="M117 0 l-62 0 l0 667 l62 0 l0 -667 Z" /><glyph glyph-name="J" unicode="j" d="M169 667 l0 -571 q0 -19 -1 -29 q-7 -77 -95 -77 q-34 0 -72 18 l0 64 q33 -28 62 -28 q20 0 30.5 11.5 q10.5 11.5 12 23 q1.5 11.5 1.5 32.5 l0 556 l62 0 Z" /><glyph glyph-name="K" unicode="k" d="M321 0 l-70 0 l-134 336 l0 -336 l-62 0 l0 667 l62 0 l0 -303 l134 303 l69 0 l-144 -318 l145 -349 Z" /><glyph glyph-name="L" unicode="l" d="M261 0 l-206 0 l0 667 l62 0 l0 -610 l144 0 l0 -57 Z" /><glyph glyph-name="M" unicode="m" d="M478 0 l-61 0 l-47 433 q-2 18 -3 38 q-1 20 -1.5 45 q-0.5 25 -1.5 38 q-3 -57 -14 -121 l-74 -433 l-51 0 q-8 49 -26.5 155 q-18.5 106 -31 187 q-12.5 81 -21.5 156 q-1 10 -2 28.5 q-1 18.5 -2 27.5 l0 -23 q0 -49 -6 -97 l-54 -434 l-61 0 l94 667 l53 0 l72 -458 q12 -82 13 -105 q3 52 12 103 l78 460 l53 0 l82 -667 Z" /><glyph glyph-name="N" unicode="n" d="M332 0 l-54 0 l-148 440 q-16 48 -27 94 q6 -52 6 -105 l0 -429 l-54 0 l0 667 l54 0 l151 -453 q5 -15 14 -44.5 q9 -29.5 10 -34.5 q-6 41 -6 82 l0 450 l54 0 l0 -667 Z" /><glyph glyph-name="O" unicode="o" d="M366 336 q0 -38 -1 -65.5 q-1 -27.5 -5.5 -72.5 q-4.5 -45 -15.5 -77.5 q-11 -32.5 -28 -64 q-17 -31.5 -46 -48.5 q-29 -17 -67 -17 q-165 0 -165 342 q0 343 164 343 q164 0 164 -340 ZM303 358 q0 258 -100 258 q-102 0 -102 -282 q0 -283 102 -283 q80 0 94 155 q6 60 6 152 Z" /><glyph glyph-name="P" unicode="p" d="M55 667 l80 0 q97 0 133 -43 q36 -43 36 -142 q0 -88 -37 -125.5 q-37 -37.5 -125 -37.5 l-25 0 l0 -319 l-62 0 l0 667 ZM117 376 l41 0 q28 0 45.5 9 q17.5 9 25.5 27.5 q8 18.5 10 36 q2 17.5 2 45.5 q0 59 -19 87.5 q-19 28.5 -75 28.5 l-30 0 l0 -234 Z" /><glyph glyph-name="Q" unicode="q" d="M366 -18 l-49 -31 l-40 62 q-32 -22 -76 -22 q-163 0 -163 342 q0 343 164 343 q164 0 164 -336 q0 -202 -49 -282 l49 -76 ZM234 188 l46 -72 q23 78 23 213 q0 73 -5 126 q-14 161 -95 161 q-102 0 -102 -282 q0 -23 0 -33.5 q0 -10.5 1 -40.5 q1 -30 4 -48 q3 -18 7 -46 q4 -28 12 -45.5 q8 -17.5 18.5 -35 q10.5 -17.5 26 -26 q15.5 -8.5 34.5 -8.5 q24 0 40 13 l-59 92 l49 32 Z" /><glyph glyph-name="R" unicode="r" d="M353 0 l-71 0 l-155 326 l0 -326 l-68 0 l0 667 l84 0 q80 0 115 -19 q72 -38 72 -160 q0 -158 -132 -168 l155 -320 ZM127 375 l41 0 q56 0 74.5 29 q18.5 29 18.5 88 q0 63 -20.5 90.5 q-20.5 27.5 -80.5 27.5 l-33 0 l0 -235 Z" /><glyph glyph-name="S" unicode="s" d="M278 640 l0 -78 q-46 54 -99 54 q-44 0 -70 -32 q-26 -32 -26 -77 q0 -42 23.5 -74.5 q23.5 -32.5 57 -55.5 q33.5 -23 67 -47 q33.5 -24 57 -62.5 q23.5 -38.5 23.5 -89.5 q0 -75 -46.5 -131.5 q-46.5 -56.5 -120.5 -56.5 q-57 0 -105 35 l0 80 q52 -54 108 -54 q46 0 73.5 35.5 q27.5 35.5 27.5 83.5 q0 42 -23.5 74 q-23.5 32 -57 54.5 q-33.5 22.5 -67 47 q-33.5 24.5 -57 63 q-23.5 38.5 -23.5 90.5 q0 72 42 124.5 q42 52.5 112 52.5 q54 0 104 -36 Z" /><glyph glyph-name="T" unicode="t" d="M263 610 l-100 0 l0 -610 l-62 0 l0 610 l-100 0 l0 57 l262 0 l0 -57 Z" /><glyph glyph-name="U" unicode="u" d="M335 667 l0 -491 q0 -58 -9 -92 q-12 -45 -47 -69 q-35 -24 -84 -24 q-48 0 -83 24 q-35 24 -48 69 q-9 30 -9 93 l0 490 l62 0 l0 -499 q0 -34 4 -56.5 q4 -22.5 22.5 -41.5 q18.5 -19 51.5 -19 q14 0 25.5 3 q11.5 3 19.5 10 q8 7 14 13 q6 6 9.5 18.5 q3.5 12.5 5.5 19.5 q2 7 3 23 q1 16 1 22.5 q0 6.5 0 24 q0 17.5 0 20.5 l0 462 l62 0 Z" /><glyph glyph-name="V" unicode="v" d="M325 667 l-135 -667 l-55 0 l-134 667 l64 0 l84 -442 q6 -33 15 -134 q7 77 17 132 l80 444 l64 0 Z" /><glyph glyph-name="W" unicode="w" d="M504 667 l-117 -667 l-57 0 l-65 433 q-9 61 -12 124 q0 -1 -3 -38 q-1 -30 -11 -88 l-75 -431 l-56 0 l-107 667 l64 0 l60 -420 q4 -25 8 -75 q2 -41 4 -50 q3 30 19 130 l71 415 l54 0 l62 -422 q2 -11 3.5 -23 q1.5 -12 3 -27 q1.5 -15 2.5 -23 q4 -31 7 -50 q5 42 17 126 l65 419 l63 0 Z" /><glyph glyph-name="X" unicode="x" d="M317 0 l-66 0 l-66 189 q-17 49 -26 95 q-9 -41 -28 -97 l-63 -187 l-67 0 l130 339 l-130 328 l67 0 l59 -165 q22 -60 32 -117 q6 39 32 113 l60 169 l66 0 l-127 -328 l127 -339 Z" /><glyph glyph-name="Y" unicode="y" d="M315 667 l-122 -378 l0 -289 l-62 0 l0 289 l-130 378 l67 0 l62 -191 q18 -56 32 -123 q8 53 29 122 l57 192 l67 0 Z" /><glyph glyph-name="Z" unicode="z" d="M271 667 l-187 -610 l169 0 l0 -57 l-245 0 l185 610 l-167 0 l0 57 l245 0 Z" /><glyph glyph-name="bracketleft" unicode="[" d="M234 -173 l-161 0 l0 902 l161 0 l0 -46 l-102 0 l0 -810 l102 0 l0 -46 Z" /><glyph glyph-name="backslash" unicode="\" d="M-1 729 l57 0 l391 -902 l-58 0 l-390 902 Z" /><glyph glyph-name="bracketright" unicode="]" d="M194 -173 l-161 0 l0 46 l102 0 l0 810 l-102 0 l0 46 l161 0 l0 -902 Z" /><glyph glyph-name="asciicircum" unicode="^" d="M469 372 l-64 0 l-156 250 l-155 -250 l-63 0 l182 295 l74 0 l182 -295 Z" /><glyph glyph-name="underscore" unicode="_" d="M500 -124 l-500 0 l0 50 l500 0 l0 -50 Z" /><glyph glyph-name="grave" unicode="`" d="M285 533 l-35 -26 l-115 103 l54 43 l96 -120 Z" /><glyph glyph-name="a" unicode="a" d="M277 0 l-57 0 l0 36 q-32 -43 -76 -43 q-29 0 -50 16.5 q-21 16.5 -31.5 38 q-10.5 21.5 -16 56 q-5.5 34.5 -6.5 57 q-1 22.5 -1 54.5 q0 36 1 60.5 q1 24.5 7 61.5 q6 37 17 60 q11 23 32.5 40 q21.5 17 52.5 17 q41 0 71 -37 l0 30 l57 0 l0 -447 ZM226 226 q0 40 -2 67.5 q-2 27.5 -7.5 56.5 q-5.5 29 -19 44 q-13.5 15 -34.5 15 q-66 0 -66 -159 q0 -72 3 -108 q2 -22 4.5 -34 q2.5 -12 8.5 -31 q6 -19 18.5 -28.5 q12.5 -9.5 30.5 -9.5 q22 0 36 15 q28 28 28 172 Z" /><glyph glyph-name="b" unicode="b" d="M106 729 l0 -312 q30 37 72 37 q38 0 62.5 -21.5 q24.5 -21.5 33.5 -62 q9 -40.5 11.5 -68 q2.5 -27.5 2.5 -70.5 q0 -48 -2.5 -80 q-2.5 -32 -11.5 -73.5 q-9 -41.5 -32 -63.5 q-23 -22 -59 -22 q-42 0 -77 43 l0 -36 l-56 0 l0 729 l56 0 ZM230 247 q0 162 -66 162 q-21 0 -34.5 -15 q-13.5 -15 -19 -44 q-5.5 -29 -7.5 -56.5 q-2 -27.5 -2 -67.5 q0 -144 28 -172 q14 -15 36 -15 q18 0 30.5 9.5 q12.5 9.5 18.5 28.5 q6 19 8.5 31 q2.5 12 4.5 34 q3 35 3 105 Z" /><glyph glyph-name="c" unicode="c" d="M226 86 l0 -70 q-30 -23 -64 -23 q-37 0 -64 23 q-27 23 -40 59.5 q-13 36.5 -19 71.5 q-6 35 -6 69 q0 38 5 74 q5 36 18 76 q13 40 41 64 q28 24 68 24 q32 0 61 -17 l0 -66 q-29 31 -56 31 q-25 0 -42 -20 q-17 -20 -24 -52.5 q-7 -32.5 -9.5 -58 q-2.5 -25.5 -2.5 -50.5 q0 -23 3 -48.5 q3 -25.5 10 -56.5 q7 -31 23.5 -50.5 q16.5 -19.5 40.5 -19.5 q30 0 57 40 Z" /><glyph glyph-name="d" unicode="d" d="M271 0 l-56 0 l0 36 q-32 -43 -77 -43 q-25 0 -43.5 10.5 q-18.5 10.5 -29.5 31.5 q-11 21 -18 41.5 q-7 20.5 -10 50.5 q-3 30 -3.5 48.5 q-0.5 18.5 -0.5 44.5 q0 31 0.5 48.5 q0.5 17.5 3.5 50 q3 32.5 10 52 q7 19.5 18.5 41 q11.5 21.5 31.5 32 q20 10.5 47 10.5 q41 0 71 -37 l0 312 l56 0 l0 -729 ZM220 223 q0 88 -12 137 q-12 49 -51 49 q-65 0 -65 -159 q0 -72 3 -108 q2 -20 4 -33.5 q2 -13.5 8 -32 q6 -18.5 18.5 -28 q12.5 -9.5 30.5 -9.5 q23 0 37 15 q27 27 27 169 Z" /><glyph glyph-name="e" unicode="e" d="M219 152 l57 0 q-7 -159 -113 -159 q-130 0 -130 229 q0 37 5 71.5 q5 34.5 17 73.5 q12 39 39 63 q27 24 65 24 q37 0 63 -21.5 q26 -21.5 37.5 -57 q11.5 -35.5 16 -68 q4.5 -32.5 4.5 -67.5 q0 -4 -0.5 -14 q-0.5 -10 -0.5 -14 l-189 0 l0 -10 q0 -22 2.5 -44 q2.5 -22 9 -50 q6.5 -28 22 -45 q15.5 -17 37.5 -17 q55 0 58 106 ZM91 260 l133 0 q-7 142 -64 142 q-62 0 -69 -142 Z" /><glyph glyph-name="f" unicode="f" d="M200 395 l-77 0 l0 -395 l-56 0 l0 395 l-51 0 l0 52 l51 0 l0 179 q0 114 83 114 q27 0 50 -10 l0 -62 q-24 20 -41 20 q-36 0 -36 -55 l0 -186 l77 0 l0 -52 Z" /><glyph glyph-name="g" unicode="g" d="M281 447 l0 -496 q0 -131 -117 -131 q-57 0 -86.5 33 q-29.5 33 -29.5 91 q0 12 1 17 l57 0 q0 -42 11.5 -65 q11.5 -23 49.5 -23 q20 0 32 7 q12 7 17 21 q5 14 6.5 26.5 q1.5 12.5 1.5 32.5 l0 72 q-29 -32 -71 -32 q-27 0 -47.5 11 q-20.5 11 -32.5 32.5 q-12 21.5 -19.5 42 q-7.5 20.5 -10.5 52 q-3 31.5 -3.5 49.5 q-0.5 18 -0.5 46 q0 221 111 221 q44 0 74 -38 l0 31 l57 0 ZM230 250 q0 158 -68 158 q-40 0 -52.5 -53 q-12.5 -53 -12.5 -143 q0 -166 70 -166 q52 0 60 96 q3 37 3 108 Z" /><glyph glyph-name="h" unicode="h" d="M280 0 l-56 0 l0 325 q0 18 -1 29 q-1 11 -5.5 25.5 q-4.5 14.5 -15.5 21.5 q-11 7 -28 7 q-35 0 -53 -29 q-15 -23 -15 -78 l0 -301 l-56 0 l0 729 l56 0 l0 -318 q38 43 87 43 q50 0 68.5 -30.5 q18.5 -30.5 18.5 -84.5 l0 -339 Z" /><glyph glyph-name="i" unicode="i" d="M106 0 l-57 0 l0 447 l57 0 l0 -447 ZM107 617 q12 -13 12 -30 q0 -17 -12 -29 q-12 -12 -29 -12 q-17 0 -29.5 12 q-12.5 12 -12.5 29 q0 18 12 30.5 q12 12.5 30 12.5 q17 0 29 -13 Z" /><glyph glyph-name="j" unicode="j" d="M110 -180 l-58 0 l0 627 l58 0 l0 -627 ZM123 587 q0 -17 -12.5 -29 q-12.5 -12 -29.5 -12 q-17 0 -29.5 12 q-12.5 12 -12.5 29 q0 18 12 30.5 q12 12.5 30 12.5 q18 0 30 -12.5 q12 -12.5 12 -30.5 Z" /><glyph glyph-name="k" unicode="k" d="M316 0 l-71 0 l-139 214 l0 -214 l-56 0 l0 729 l56 0 l0 -464 l112 182 l63 0 l-128 -200 l163 -247 Z" /><glyph glyph-name="l" unicode="l" d="M107 0 l-57 0 l0 729 l57 0 l0 -729 Z" /><glyph glyph-name="m" unicode="m" d="M458 343 l0 -343 l-56 0 l0 331 q0 77 -52 77 q-19 0 -32 -8.5 q-13 -8.5 -20 -20 q-7 -11.5 -10.5 -30 q-3.5 -18.5 -4.5 -31.5 q-1 -13 -1 -32 l0 -286 l-57 0 l0 330 q0 78 -47 78 q-25 0 -40.5 -12 q-15.5 -12 -22 -35 q-6.5 -23 -8 -40.5 q-1.5 -17.5 -1.5 -43.5 l0 -277 l-56 0 l0 447 l56 0 l0 -37 q42 44 87 44 q55 0 82 -52 q39 52 92 52 q51 0 71 -29 q20 -29 20 -82 Z" /><glyph glyph-name="n" unicode="n" d="M280 0 l-56 0 l0 325 q0 18 -1 29 q-1 11 -5.5 25.5 q-4.5 14.5 -15.5 21.5 q-11 7 -28 7 q-35 0 -53 -29 q-15 -22 -15 -78 l0 -301 l-56 0 l0 447 l56 0 l0 -36 q38 43 87 43 q51 0 69 -33.5 q18 -33.5 18 -89.5 l0 -331 Z" /><glyph glyph-name="o" unicode="o" d="M289 221 q0 -228 -125 -228 q-41 0 -69 23 q-28 23 -40.5 61 q-12.5 38 -17 73 q-4.5 35 -4.5 74 q0 30 2.5 57.5 q2.5 27.5 10.5 60.5 q8 33 22 56.5 q14 23.5 38.5 39.5 q24.5 16 57.5 16 q125 0 125 -233 ZM163 46 q68 0 68 178 q0 178 -68 178 q-71 0 -71 -183 q0 -173 71 -173 Z" /><glyph glyph-name="p" unicode="p" d="M106 447 l0 -30 q28 37 71 37 q26 0 46 -10 q20 -10 31.5 -30.5 q11.5 -20.5 19 -39.5 q7.5 -19 10.5 -49 q3 -30 3.5 -47.5 q0.5 -17.5 0.5 -45.5 q0 -48 -2.5 -80 q-2.5 -32 -11.5 -73.5 q-9 -41.5 -32 -63.5 q-23 -22 -59 -22 q-42 0 -77 43 l0 -216 l-56 0 l0 627 l56 0 ZM230 247 q0 162 -66 162 q-21 0 -34.5 -15 q-13.5 -15 -19 -44 q-5.5 -29 -7.5 -56.5 q-2 -27.5 -2 -67.5 q0 -144 28 -172 q14 -15 36 -15 q18 0 30.5 9.5 q12.5 9.5 18.5 28.5 q6 19 8.5 31 q2.5 12 4.5 34 q3 35 3 105 Z" /><glyph glyph-name="q" unicode="q" d="M277 -180 l-57 0 l0 216 q-32 -43 -76 -43 q-29 0 -50 16.5 q-21 16.5 -31.5 38 q-10.5 21.5 -16 56 q-5.5 34.5 -6.5 57 q-1 22.5 -1 54.5 q0 32 0.5 50.5 q0.5 18.5 3.5 51.5 q3 33 10 53 q7 20 18.5 41.5 q11.5 21.5 31.5 32 q20 10.5 46 10.5 q41 0 71 -37 l0 30 l57 0 l0 -627 ZM226 226 q0 41 -2 69 q-2 28 -8 56.5 q-6 28.5 -19.5 43 q-13.5 14.5 -33.5 14.5 q-66 0 -66 -159 q0 -72 3 -108 q2 -22 4.5 -34 q2.5 -12 8.5 -31 q6 -19 18.5 -28.5 q12.5 -9.5 30.5 -9.5 q22 0 36 15 q28 28 28 172 Z" /><glyph glyph-name="r" unicode="r" d="M182 454 l0 -65 q-22 0 -37 -7.5 q-15 -7.5 -22.5 -17 q-7.5 -9.5 -11.5 -27.5 q-4 -18 -4.5 -30.5 q-0.5 -12.5 -0.5 -35.5 l0 -271 l-56 0 l0 447 l56 0 l0 -58 q28 63 76 65 Z" /><glyph glyph-name="s" unicode="s" d="M219 425 l0 -69 q-38 46 -77 46 q-24 0 -39.5 -17 q-15.5 -17 -15.5 -42 q0 -24 15 -44.5 q15 -20.5 36 -37.5 q21 -17 42 -35.5 q21 -18.5 36 -46 q15 -27.5 15 -60.5 q0 -53 -34 -89.5 q-34 -36.5 -86 -36.5 q-44 0 -83 31 l0 66 q42 -44 79 -44 q29 0 47 20 q18 20 18 49 q0 24 -15 46.5 q-15 22.5 -36 40.5 q-21 18 -42 37.5 q-21 19.5 -36 45.5 q-15 26 -15 56 q0 49 31 81 q31 32 80 32 q40 0 80 -29 Z" /><glyph glyph-name="t" unicode="t" d="M198 395 l-75 0 l0 -395 l-56 0 l0 395 l-48 0 l0 52 l48 0 l0 127 l56 0 l0 -127 l75 0 l0 -52 Z" /><glyph glyph-name="u" unicode="u" d="M282 447 l0 -338 q0 -54 -31.5 -85 q-31.5 -31 -84.5 -31 q-53 0 -84.5 31 q-31.5 31 -31.5 85 l0 338 l56 0 l0 -303 q0 -22 1.5 -35.5 q1.5 -13.5 7 -30 q5.5 -16.5 19 -24.5 q13.5 -8 34.5 -8 q21 0 33.5 9 q12.5 9 17.5 27.5 q5 18.5 6 31.5 q1 13 1 36 l0 297 l56 0 Z" /><glyph glyph-name="v" unicode="v" d="M269 447 l-99 -447 l-61 0 l-102 447 l58 0 l59 -267 q9 -43 16 -96 q11 68 16 94 l55 269 l58 0 Z" /><glyph glyph-name="w" unicode="w" d="M429 447 l-98 -447 l-58 0 l-57 372 q-2 -12 -4.5 -35 q-2.5 -23 -4.5 -35 l-49 -302 l-58 0 l-90 447 l57 0 l50 -271 q8 -40 13 -94 q1 19 13 92 l45 273 l58 0 q6 -35 19 -113.5 q13 -78.5 22 -137.5 q9 -59 15 -114 q1 6 6 41 q5 35 9 54 l55 270 l57 0 Z" /><glyph glyph-name="x" unicode="x" d="M272 0 l-63 0 l-49 127 q-19 51 -22 66 q-4 -24 -20 -67 l-48 -126 l-63 0 l102 229 l-91 218 l62 0 q5 -13 21.5 -57 q16.5 -44 26 -73.5 q9.5 -29.5 15.5 -58.5 q4 19 9 38 q5 19 13 40.5 q8 21.5 13 35 q5 13.5 16 40 q11 26.5 15 35.5 l63 0 l-100 -218 l100 -229 Z" /><glyph glyph-name="y" unicode="y" d="M283 447 l-160 -627 l-60 0 l50 192 l-106 435 l57 0 l56 -248 q13 -54 21 -112 q3 23 18 84 l65 276 l59 0 Z" /><glyph glyph-name="z" unicode="z" d="M266 447 l-180 -395 l151 0 l0 -52 l-232 0 l176 395 l-153 0 l0 52 l238 0 Z" /><glyph glyph-name="braceleft" unicode="{" d="M361 -173 l-17 0 q-76 0 -105 35.5 q-29 35.5 -29 113.5 l0 185 q0 40 -11.5 63 q-11.5 23 -46.5 32 l0 45 q34 9 46 31.5 q12 22.5 12 60.5 l0 200 q0 79 35.5 107.5 q35.5 28.5 115.5 28.5 l0 -48 q-54 -1 -74.5 -20 q-20.5 -19 -20.5 -72 l0 -199 q0 -44 -12 -70 q-12 -26 -49 -43 q36 -18 48.5 -45 q12.5 -27 12.5 -71 l0 -190 q0 -55 20 -75.5 q20 -20.5 75 -20.5 l0 -48 Z" /><glyph glyph-name="bar" unicode="|" d="M278 -250 l-56 0 l0 1000 l56 0 l0 -1000 Z" /><glyph glyph-name="braceright" unicode="}" d="M164 -173 l-17 0 l0 48 q55 0 75 20.5 q20 20.5 20 75.5 l0 190 q0 44 12.5 71 q12.5 27 48.5 45 q-37 17 -49 43 q-12 26 -12 70 l0 199 q0 53 -20.5 72 q-20.5 19 -74.5 20 l0 48 q80 0 115.5 -28.5 q35.5 -28.5 35.5 -107.5 l0 -200 q0 -38 12 -60.5 q12 -22.5 46 -31.5 l0 -45 q-35 -9 -46.5 -32 q-11.5 -23 -11.5 -63 l0 -185 q0 -78 -29 -113.5 q-29 -35.5 -105 -35.5 Z" /><glyph glyph-name="asciitilde" unicode="~" d="M537 721 l36 -21 q-53 -106 -138 -106 q-38 0 -108 35 q-70 35 -104 35 q-52 0 -94 -75 l-35 22 q25 51 55 79.5 q30 28.5 78 28.5 q40 0 110.5 -35 q70.5 -35 103.5 -35 q33 0 54.5 19 q21.5 19 41.5 53 Z" /><glyph glyph-name="nonbreakingspace" unicode=" " d="" /><glyph glyph-name="exclamdown" unicode="¡" d="M150 441 q13 -13 13 -32 q0 -19 -13 -32 q-13 -13 -32 -13 q-18 0 -31.5 13.5 q-13.5 13.5 -13.5 31.5 q0 19 13 32 q13 13 32 13 q19 0 32 -13 ZM148 -220 l-60 0 l0 500 l60 0 l0 -500 Z" /><glyph glyph-name="cent" unicode="¢" d="M278 206 l0 -70 q-17 -14 -41 -19 l0 -92 l-49 0 l0 92 q-104 39 -104 219 q0 119 40 184 q23 37 64 50 l0 83 l49 0 l0 -82 q19 -3 41 -13 l0 -67 q-28 30 -57 30 q-25 0 -42 -20 q-17 -20 -23.5 -52.5 q-6.5 -32.5 -9 -57.5 q-2.5 -25 -2.5 -51 q0 -23 2.5 -48 q2.5 -25 10 -56 q7.5 -31 24 -50.5 q16.5 -19.5 39.5 -19.5 q29 0 58 40 Z" /><glyph glyph-name="sterling" unicode="£" d="M292 89 l52 -17 q-3 -44 -30 -69 q-24 -22 -56 -22 q-28 0 -56 18 l-34 22 q-30 19 -45 19 q-14 0 -26 -12 q-11 -11 -16 -28 l-52 30 q13 28 35 48 q21 21 51 21 q6 0 16 -2 q26 39 26 80 q0 56 -48 121 l-79 0 l0 42 l59 0 q-19 37 -29 66 q-17 47 -17 99 q0 83 47 130 q41 41 106 41 q57 0 94 -37 q43 -41 44 -108 l-58 -12 q-2 50 -28 76 q-21 21 -55 21 q-34 0 -57 -21 q-30 -30 -30 -87 q0 -40 17 -88 q12 -33 36 -80 l105 0 l0 -42 l-84 0 q37 -54 37 -108 q0 -35 -12 -66 q-8 -21 -25 -43 l43 -30 q18 -11 34 -11 q17 0 26 17 q7 13 9 32 Z" /><glyph glyph-name="currency" unicode="¤" d="M103 355 q0 74 52 142 l-93 93 l33 33 l93 -93 q70 54 145 54 q78 0 145 -53 l92 91 l33 -32 l-92 -92 q52 -69 52 -144 q0 -74 -52 -142 l93 -93 l-32 -33 l-93 93 q-69 -53 -145 -53 q-74 0 -144 52 l-92 -92 l-33 33 l92 92 q-54 67 -54 144 ZM208 480.5 q-52 -52.5 -52 -125.5 q0 -73 52 -125.5 q52 -52.5 125 -52.5 q73 0 125.5 52.5 q52.5 52.5 52.5 125.5 q0 73 -52.5 125.5 q-52.5 52.5 -125.5 52.5 q-73 0 -125 -52.5 Z" /><glyph glyph-name="yen" unicode="¥" d="M350 269 l-135 0 l0 -269 l-57 0 l0 269 l-142 0 l0 42 l136 0 l-23 65 l-113 0 l0 42 l99 0 l-86 249 l64 0 l63 -195 q19 -58 30 -119 q9 51 30 122 l57 192 l64 0 l-81 -249 l94 0 l0 -42 l-108 0 l-21 -65 l129 0 l0 -42 Z" /><glyph glyph-name="brokenbar" unicode="¦" d="M278 345 l-56 0 l0 405 l56 0 l0 -405 ZM278 -250 l-56 0 l0 405 l56 0 l0 -405 Z" /><glyph glyph-name="section" unicode="§" d="M312 603 l-60 0 q-8 84 -67 84 q-33 0 -50.5 -26.5 q-17.5 -26.5 -17.5 -61.5 q0 -37 21.5 -65.5 q21.5 -28.5 49.5 -43.5 q28 -15 60.5 -38 q32.5 -23 47.5 -47 q29 -47 29 -128 q0 -144 -92 -173 q75 -46 75 -143 q0 -59 -33.5 -100 q-33.5 -41 -90.5 -41 q-37 0 -67 19.5 q-30 19.5 -45 54.5 q-11 26 -15 74 l58 0 q4 -94 68 -94 q34 0 51.5 27 q17.5 27 17.5 63 q0 36 -15.5 61 q-15.5 25 -39 37 q-23.5 12 -50.5 29 q-27 17 -50.5 35.5 q-23.5 18.5 -39 59 q-15.5 40.5 -15.5 97.5 q0 62 23.5 110.5 q23.5 48.5 77.5 63.5 q-83 55 -83 146 q0 58 34.5 97.5 q34.5 39.5 91.5 39.5 q71 0 106 -60 q16 -28 20 -77 ZM268 269 q0 151 -85 151 q-25 0 -42.5 -13.5 q-17.5 -13.5 -26 -36 q-8.5 -22.5 -12 -44.5 q-3.5 -22 -3.5 -45 q0 -140 84 -140 q85 0 85 128 Z" /><glyph glyph-name="dieresis" unicode="¨" d="M344.5 587.5 q12.5 -12.5 12.5 -30.5 q0 -18 -12.5 -31 q-12.5 -13 -30.5 -13 q-18 0 -30.5 13 q-12.5 13 -12.5 31 q0 18 12.5 30.5 q12.5 12.5 30.5 12.5 q18 0 30.5 -12.5 ZM216.5 587.5 q12.5 -12.5 12.5 -30.5 q0 -18 -12.5 -31 q-12.5 -13 -30.5 -13 q-18 0 -30.5 13 q-12.5 13 -12.5 31 q0 18 12.5 30.5 q12.5 12.5 30.5 12.5 q18 0 30.5 -12.5 Z" /><glyph glyph-name="copyright" unicode="©" d="M723 333 q0 -143 -101.5 -244 q-101.5 -101 -243.5 -101 q-142 0 -243.5 101 q-101.5 101 -101.5 244 q0 143 101.5 244.5 q101.5 101.5 244.5 101.5 q142 0 243 -102 q101 -102 101 -244 ZM594 115 q89 91 89 218 q0 127 -88.5 218.5 q-88.5 91.5 -215.5 91.5 q-128 0 -217 -91 q-89 -91 -89 -219 q0 -127 89.5 -218 q89.5 -91 215.5 -91 q127 0 216 91 ZM434 199 l0 -52 q-28 -19 -61 -19 q-48 0 -81 41 q-37 47 -37 160 q0 210 122 210 q9 0 16 -1.5 q7 -1.5 11.5 -3 q4.5 -1.5 12.5 -4.5 q8 -3 14 -5 l3 -1 l0 -55 q-32 22 -54 22 q-72 0 -72 -156 q0 -159 68 -159 q22 0 58 23 Z" /><glyph glyph-name="ordfeminine" unicode="ª" d="M193 372 l-43 0 l0 18 q-19 -22 -47 -22 q-25 0 -41 15.5 q-16 15.5 -22 44 q-6 28.5 -7.5 47 q-1.5 18.5 -1.5 47.5 q0 23 0.5 37 q0.5 14 4.5 38 q4 24 11.5 38 q7.5 14 22.5 25 q15 11 37 11 q27 0 43 -19 l0 15 l43 0 l0 -295 ZM193 297 l-158 0 l0 33 l158 0 l0 -33 ZM153 519 q0 25 -1 40.5 q-1 15.5 -4 36 q-3 20.5 -11.5 30.5 q-8.5 10 -21.5 10 q-40 0 -40 -119 q0 -114 39 -114 q12 0 23 9 q16 17 16 107 Z" /><glyph glyph-name="guillemotleft" unicode="«" d="M292 66 l-39 -23 l-108 194 l108 188 l39 -21 l-95 -167 l95 -171 ZM180 66 l-38 -23 l-109 194 l109 188 l38 -21 l-95 -167 l95 -171 Z" /><glyph glyph-name="logicalnot" unicode="¬" d="M467 0 l-57 0 l0 215 l-377 0 l0 52 l434 0 l0 -267 Z" /><glyph glyph-name="uni00AD" unicode="­" d="M188 233 l-138 0 l0 58 l138 0 l0 -58 Z" /><glyph glyph-name="registered" unicode="®" d="M482 131 l-51 0 l-85 176 l0 -176 l-49 0 l0 405 l53 0 q63 0 90 -24.5 q27 -24.5 27 -87.5 q0 -43 -18 -72 q-18 -29 -58 -32 l91 -189 ZM346 363 l21 0 q30 0 39.5 15.5 q9.5 15.5 9.5 48.5 q0 35 -10.5 50 q-10.5 15 -44.5 15 l-15 0 l0 -129 ZM594 115 q89 91 89 218 q0 127 -88.5 218.5 q-88.5 91.5 -215.5 91.5 q-128 0 -217 -91 q-89 -91 -89 -219 q0 -127 89.5 -218 q89.5 -91 215.5 -91 q127 0 216 91 ZM723 333 q0 -143 -101.5 -244 q-101.5 -101 -243.5 -101 q-142 0 -243.5 101 q-101.5 101 -101.5 244 q0 143 101.5 244.5 q101.5 101.5 244.5 101.5 q142 0 243 -102 q101 -102 101 -244 Z" /><glyph glyph-name="macron" unicode="¯" d="M362 520 l-224 0 l0 55 l224 0 l0 -55 Z" /><glyph glyph-name="degree" unicode="°" d="M388 537 q0 -56 -41 -95.5 q-41 -39.5 -97 -39.5 q-56 0 -97 39.5 q-41 39.5 -41 95.5 q0 57 40.5 96 q40.5 39 97.5 39 q57 0 97.5 -39 q40.5 -39 40.5 -96 ZM349 537 q0 41 -29 69 q-29 28 -70 28 q-41 0 -70 -28 q-29 -28 -29 -69 q0 -40 29.5 -68.5 q29.5 -28.5 69.5 -28.5 q40 0 69.5 28.5 q29.5 28.5 29.5 68.5 Z" /><glyph glyph-name="plusminus" unicode="±" d="M467 342 l-189 0 l0 -176 l-56 0 l0 176 l-189 0 l0 53 l189 0 l0 176 l56 0 l0 -176 l189 0 l0 -53 ZM467 71 l-434 0 l0 53 l434 0 l0 -53 Z" /><glyph glyph-name="twosuperior" unicode="²" d="M83 553 l-44 0 q0 55 17.5 87.5 q17.5 32.5 68.5 32.5 q43 0 66 -25.5 q23 -25.5 23 -68.5 q0 -26 -9.5 -56.5 q-9.5 -30.5 -18.5 -49 q-9 -18.5 -27 -51.5 l-62 -115 l112 0 l0 -41 l-179 0 l88 172 q1 2 9.5 18 q8.5 16 10.5 21 q2 5 9 19 q7 14 9.5 22 q2.5 8 6 20 q3.5 12 5 22.5 q1.5 10.5 1.5 20.5 q0 52 -42 52 q-45 0 -45 -72 q0 -5 1 -8 Z" /><glyph glyph-name="threesuperior" unicode="³" d="M82 569 l-42 0 q0 45 19.5 74.5 q19.5 29.5 62.5 29.5 q42 0 64.5 -25 q22.5 -25 22.5 -68 q0 -34 -8.5 -54.5 q-8.5 -20.5 -34.5 -37.5 q48 -27 48 -108 q0 -55 -20 -86.5 q-20 -31.5 -71 -31.5 q-52 0 -70 31.5 q-18 31.5 -18 87.5 l44 0 q0 -18 1 -27.5 q1 -9.5 4.5 -23.5 q3.5 -14 13 -20.5 q9.5 -6.5 25.5 -6.5 q47 0 47 77 q0 87 -67 87 l-21 0 l0 38 q47 0 65 12 q18 12 18 57 q0 57 -42 57 q-14 0 -23 -4.5 q-9 -4.5 -12.5 -14.5 q-3.5 -10 -4.5 -19 q-1 -9 -1 -24 Z" /><glyph glyph-name="acute" unicode="´" d="M365 610 l-115 -103 l-35 26 l96 120 l54 -43 Z" /><glyph glyph-name="mu" unicode="µ&#x3bc;" d="M445 0 l-56 0 l0 94 q-24 -53 -58.5 -80 q-34.5 -27 -88.5 -27 q-86 0 -134 77 l0 -244 l-56 0 l0 627 l56 0 l0 -244 q0 -71 19 -106 q17 -31 49 -48 q32 -17 68 -17 q73 0 117 68 q28 45 28 114 l0 233 l56 0 l0 -447 Z" /><glyph glyph-name="paragraph" unicode="¶" d="M487 621 l-56 0 l0 -721 l-50 0 l0 721 l-111 0 l0 -721 l-51 0 l0 413 l-16 0 q-79 0 -131.5 48.5 q-52.5 48.5 -52.5 126.5 q0 92 61 135.5 q61 43.5 157 43.5 l250 0 l0 -46 Z" /><glyph glyph-name="periodcentered" unicode="·" d="M143 384.5 q17 -17.5 17 -41.5 q0 -24 -17 -41 q-17 -17 -41 -17 q-24 0 -41.5 17 q-17.5 17 -17.5 41 q0 25 17 42 q17 17 42 17 q24 0 41 -17.5 Z" /><glyph glyph-name="cedilla" unicode="¸" d="M303 -62 l-77 -123 l-36 21 l67 127 l46 -25 Z" /><glyph glyph-name="onesuperior" unicode="¹" d="M155 267 l-45 0 l0 359 l-55 0 l0 41 l100 0 l0 -400 Z" /><glyph glyph-name="ordmasculine" unicode="º" d="M207 518 q0 -150 -85 -150 q-88 0 -88 152 q0 26 3.5 49 q3.5 23 12 47.5 q8.5 24.5 27 39.5 q18.5 15 45.5 15 q85 0 85 -153 ZM204 297 l-167 0 l0 33 l167 0 l0 -33 ZM121 407 q42 0 42 112 q0 112 -42 112 q-44 0 -44 -115 q0 -109 44 -109 Z" /><glyph glyph-name="guillemotright" unicode="»" d="M292 237 l-108 -194 l-39 23 l95 171 l-95 167 l39 21 l108 -188 ZM180 237 l-108 -194 l-39 23 l95 171 l-95 167 l39 21 l108 -188 Z" /><glyph glyph-name="onequarter" unicode="¼" d="M587 106 l-31 0 l0 -106 l-45 0 l0 106 l-109 0 l0 40 l110 254 l44 0 l0 -255 l31 0 l0 -39 ZM156 267 l-45 0 l0 359 l-55 0 l0 41 l100 0 l0 -400 ZM446 145 l65 0 q0 108 2 165 q-12 -33 -37 -93 q-25 -60 -30 -72 ZM480 667 l-289 -667 l-46 0 l289 667 l46 0 Z" /><glyph glyph-name="onehalf" unicode="½" d="M452 287 l-44 0 q0 43 6 63 q17 56 80 56 q43 0 66 -25.5 q23 -25.5 23 -68.5 q0 -54 -52 -150 l-65 -121 l112 0 l0 -41 l-179 0 l88 172 q1 2 9.5 18 q8.5 16 10.5 21 q2 5 9 19 q7 14 9.5 22 q2.5 8 6 20 q3.5 12 5 22.5 q1.5 10.5 1.5 20.5 q0 52 -42 52 q-45 0 -45 -72 q0 -5 1 -8 ZM480 667 l-289 -667 l-46 0 l289 667 l46 0 ZM156 267 l-45 0 l0 359 l-55 0 l0 41 l100 0 l0 -400 Z" /><glyph glyph-name="threequarters" unicode="¾" d="M585 106 l-30 0 l0 -106 l-45 0 l0 106 l-110 0 l0 40 l111 254 l44 0 l0 -255 l30 0 l0 -39 ZM82 569 l-42 0 q0 45 19.5 74.5 q19.5 29.5 62.5 29.5 q42 0 64.5 -25 q22.5 -25 22.5 -68 q0 -34 -8.5 -54.5 q-8.5 -20.5 -34.5 -37.5 q48 -27 48 -108 q0 -55 -20 -86.5 q-20 -31.5 -71 -31.5 q-52 0 -70 31.5 q-18 31.5 -18 87.5 l44 0 q0 -18 1 -27.5 q1 -9.5 4.5 -23.5 q3.5 -14 13 -20.5 q9.5 -6.5 25.5 -6.5 q47 0 47 77 q0 87 -67 87 l-21 0 l0 38 q47 0 65 12 q18 12 18 57 q0 57 -42 57 q-14 0 -23 -4.5 q-9 -4.5 -12.5 -14.5 q-3.5 -10 -4.5 -19 q-1 -9 -1 -24 ZM444 145 l66 0 q0 110 2 165 q-9 -23 -68 -165 ZM480 667 l-289 -667 l-46 0 l289 667 l46 0 Z" /><glyph glyph-name="questiondown" unicode="¿" d="M227 441 q13 -13 13 -32 q0 -19 -13 -32 q-13 -13 -32 -13 q-19 0 -32 13 q-13 13 -13 32 q0 19 13 32 q13 13 32 13 q19 0 32 -13 ZM278 -51 l0 -47 q0 -60 -28 -95.5 q-28 -35.5 -87 -35.5 q-58 0 -87 39 q-23 32 -23 116 q0 35 1 54.5 q1 19.5 7 49.5 q6 30 17.5 46.5 q11.5 16.5 34 29.5 q22.5 13 55.5 14 l0 161 l59 0 l0 -215 q-5 0 -16 0.5 q-11 0.5 -17 0.5 q-35 0 -51 -9 q-5 -3 -9.5 -8.5 q-4.5 -5.5 -8 -13 q-3.5 -7.5 -5.5 -15 q-2 -7.5 -3.5 -18 q-1.5 -10.5 -2.5 -18 q-1 -7.5 -1 -19 q0 -11.5 0 -17.5 q0 -6 0 -16.5 q0 -10.5 0 -13.5 q0 -94 53 -94 q53 0 53 91 l0 33 l59 0 Z" /><glyph glyph-name="Agrave" unicode="à" d="M324 0 l-66 0 l-25 137 l-141 0 l-25 -137 l-66 0 l132 667 l58 0 l133 -667 ZM223 191 l-44 235 q-14 75 -19 157 q-7 -104 -58 -392 l121 0 ZM205 740 l-35 -26 l-115 103 l54 43 l96 -120 Z" /><glyph glyph-name="Aacute" unicode="á" d="M324 0 l-66 0 l-25 137 l-141 0 l-25 -137 l-66 0 l132 667 l58 0 l133 -667 ZM223 191 l-44 235 q-14 75 -19 157 q-7 -104 -58 -392 l121 0 ZM278 817 l-115 -103 l-35 26 l96 120 l54 -43 Z" /><glyph glyph-name="Acircumflex" unicode="â" d="M324 0 l-66 0 l-25 137 l-141 0 l-25 -137 l-66 0 l132 667 l58 0 l133 -667 ZM223 191 l-44 235 q-14 75 -19 157 q-7 -104 -58 -392 l121 0 ZM276 752 l-40 -38 l-74 69 l-74 -69 l-38 38 l112 107 l114 -107 Z" /><glyph glyph-name="Atilde" unicode="ã" d="M324 0 l-66 0 l-25 137 l-141 0 l-25 -137 l-66 0 l132 667 l58 0 l133 -667 ZM223 191 l-44 235 q-14 75 -19 157 q-7 -104 -58 -392 l121 0 ZM221 802 l57 0 q-2 -33 -19.5 -57.5 q-17.5 -24.5 -48.5 -24.5 q-19 0 -49.5 17 q-30.5 17 -40.5 17 q-16 0 -16 -25 l-56 0 q3 33 21 55 q18 22 49 22 q17 0 47 -16 q30 -16 39 -16 q17 0 17 28 Z" /><glyph glyph-name="Adieresis" unicode="ä" d="M324 0 l-66 0 l-25 137 l-141 0 l-25 -137 l-66 0 l132 667 l58 0 l133 -667 ZM223 191 l-44 235 q-14 75 -19 157 q-7 -104 -58 -392 l121 0 ZM254.5 794.5 q12.5 -12.5 12.5 -30.5 q0 -18 -12.5 -31 q-12.5 -13 -30.5 -13 q-18 0 -30.5 13 q-12.5 13 -12.5 31 q0 18 12.5 30.5 q12.5 12.5 30.5 12.5 q18 0 30.5 -12.5 ZM126.5 794.5 q12.5 -12.5 12.5 -30.5 q0 -18 -12.5 -31 q-12.5 -13 -30.5 -13 q-18 0 -30.5 13 q-12.5 13 -12.5 31 q0 18 12.5 30.5 q12.5 12.5 30.5 12.5 q18 0 30.5 -12.5 Z" /><glyph glyph-name="Aring" unicode="å" d="M324 0 l-66 0 l-25 137 l-141 0 l-25 -137 l-66 0 l132 667 l58 0 l133 -667 ZM223 191 l-44 235 q-14 75 -19 157 q-7 -104 -58 -392 l121 0 ZM219.5 850.5 q23.5 -23.5 23.5 -56.5 q0 -33 -23.5 -56.5 q-23.5 -23.5 -56.5 -23.5 q-33 0 -56.5 23.5 q-23.5 23.5 -23.5 56.5 q0 33 23.5 56.5 q23.5 23.5 56.5 23.5 q33 0 56.5 -23.5 ZM191.5 766 q11.5 12 11.5 28 q0 16 -11.5 28 q-11.5 12 -28.5 12 q-17 0 -28.5 -12 q-11.5 -12 -11.5 -28 q0 -16 11.5 -28 q11.5 -12 28.5 -12 q17 0 28.5 12 Z" /><glyph glyph-name="AE" unicode="æ" d="M471 0 l-207 0 l-22 137 l-151 0 l-24 -137 l-66 0 l131 667 l222 0 l11 -57 l-143 0 l42 -235 l135 0 l11 -57 l-136 0 l47 -261 l141 0 l9 -57 ZM233 190 l-47 282 q-13 74 -15 123 q-4 -20 -9.5 -60.5 q-5.5 -40.5 -9.5 -61.5 l-51 -283 l132 0 Z" /><glyph glyph-name="Ccedilla" unicode="ç" d="M302 81 l0 -62 q-43 -28 -87 -28 q-72 0 -120 65 q-57 78 -57 260 q0 360 184 360 q46 0 80 -21 l0 -68 q-44 29 -77 29 q-124 0 -124 -280 q0 -181 44 -244 q28 -41 75 -41 q37 0 82 30 ZM262 -62 l-77 -123 l-36 21 l67 127 l46 -25 Z" /><glyph glyph-name="Egrave" unicode="è" d="M263 0 l-208 0 l0 667 l208 0 l0 -57 l-146 0 l0 -235 l142 0 l0 -57 l-142 0 l0 -261 l146 0 l0 -57 ZM215 740 l-35 -26 l-115 103 l54 43 l96 -120 Z" /><glyph glyph-name="Eacute" unicode="é" d="M263 0 l-208 0 l0 667 l208 0 l0 -57 l-146 0 l0 -235 l142 0 l0 -57 l-142 0 l0 -261 l146 0 l0 -57 ZM261 817 l-115 -103 l-35 26 l96 120 l54 -43 Z" /><glyph glyph-name="Ecircumflex" unicode="ê" d="M263 0 l-208 0 l0 667 l208 0 l0 -57 l-146 0 l0 -235 l142 0 l0 -57 l-142 0 l0 -261 l146 0 l0 -57 ZM278 752 l-40 -38 l-74 69 l-74 -69 l-38 38 l112 107 l114 -107 Z" /><glyph glyph-name="Edieresis" unicode="ë" d="M263 0 l-208 0 l0 667 l208 0 l0 -57 l-146 0 l0 -235 l142 0 l0 -57 l-142 0 l0 -261 l146 0 l0 -57 ZM259.5 794.5 q12.5 -12.5 12.5 -30.5 q0 -18 -12.5 -31 q-12.5 -13 -30.5 -13 q-18 0 -30.5 13 q-12.5 13 -12.5 31 q0 18 12.5 30.5 q12.5 12.5 30.5 12.5 q18 0 30.5 -12.5 ZM131.5 794.5 q12.5 -12.5 12.5 -30.5 q0 -18 -12.5 -31 q-12.5 -13 -30.5 -13 q-18 0 -30.5 13 q-12.5 13 -12.5 31 q0 18 12.5 30.5 q12.5 12.5 30.5 12.5 q18 0 30.5 -12.5 Z" /><glyph glyph-name="Igrave" unicode="ì" d="M117 0 l-62 0 l0 667 l62 0 l0 -667 ZM121 740 l-35 -26 l-115 103 l54 43 l96 -120 Z" /><glyph glyph-name="Iacute" unicode="í" d="M117 0 l-62 0 l0 667 l62 0 l0 -667 ZM201 817 l-115 -103 l-35 26 l96 120 l54 -43 Z" /><glyph glyph-name="Icircumflex" unicode="î" d="M117 0 l-62 0 l0 667 l62 0 l0 -667 ZM199 752 l-40 -38 l-74 69 l-74 -69 l-38 38 l112 107 l114 -107 Z" /><glyph glyph-name="Idieresis" unicode="ï" d="M117 0 l-62 0 l0 667 l62 0 l0 -667 ZM180.5 794.5 q12.5 -12.5 12.5 -30.5 q0 -18 -12.5 -31 q-12.5 -13 -30.5 -13 q-18 0 -30.5 13 q-12.5 13 -12.5 31 q0 18 12.5 30.5 q12.5 12.5 30.5 12.5 q18 0 30.5 -12.5 ZM52.5 794.5 q12.5 -12.5 12.5 -30.5 q0 -18 -12.5 -31 q-12.5 -13 -30.5 -13 q-18 0 -30.5 13 q-12.5 13 -12.5 31 q0 18 12.5 30.5 q12.5 12.5 30.5 12.5 q18 0 30.5 -12.5 Z" /><glyph glyph-name="Eth" unicode="ð" d="M55 667 l78 0 q90 0 132.5 -38 q42.5 -38 57.5 -128 q10 -60 10 -166 q0 -151 -18 -210 q-21 -68 -63 -96.5 q-42 -28.5 -115 -28.5 l-82 0 l0 321 l-47 0 l0 50 l47 0 l0 296 ZM117 57 l29 0 q50 0 77 28 q21 22 32.5 63.5 q11.5 41.5 13 72 q1.5 30.5 1.5 79.5 q0 169 -18 229 q-14 43 -38.5 62 q-24.5 19 -69.5 19 l-27 0 l0 -239 l90 0 l0 -50 l-90 0 l0 -264 Z" /><glyph glyph-name="Ntilde" unicode="ñ" d="M332 0 l-54 0 l-148 440 q-16 48 -27 94 q6 -52 6 -105 l0 -429 l-54 0 l0 667 l54 0 l151 -453 q5 -15 14 -44.5 q9 -29.5 10 -34.5 q-6 41 -6 82 l0 450 l54 0 l0 -667 ZM252 802 l57 0 q-2 -33 -19.5 -57.5 q-17.5 -24.5 -48.5 -24.5 q-19 0 -49.5 17 q-30.5 17 -40.5 17 q-16 0 -16 -25 l-56 0 q3 33 21 55 q18 22 49 22 q17 0 47 -16 q30 -16 39 -16 q17 0 17 28 Z" /><glyph glyph-name="Ograve" unicode="ò" d="M366 336 q0 -38 -1 -65.5 q-1 -27.5 -5.5 -72.5 q-4.5 -45 -15.5 -77.5 q-11 -32.5 -28 -64 q-17 -31.5 -46 -48.5 q-29 -17 -67 -17 q-165 0 -165 342 q0 343 164 343 q164 0 164 -340 ZM303 358 q0 258 -100 258 q-102 0 -102 -282 q0 -283 102 -283 q80 0 94 155 q6 60 6 152 ZM255 740 l-35 -26 l-115 103 l54 43 l96 -120 Z" /><glyph glyph-name="Oacute" unicode="ó" d="M366 336 q0 -38 -1 -65.5 q-1 -27.5 -5.5 -72.5 q-4.5 -45 -15.5 -77.5 q-11 -32.5 -28 -64 q-17 -31.5 -46 -48.5 q-29 -17 -67 -17 q-165 0 -165 342 q0 343 164 343 q164 0 164 -340 ZM303 358 q0 258 -100 258 q-102 0 -102 -282 q0 -283 102 -283 q80 0 94 155 q6 60 6 152 ZM317 817 l-115 -103 l-35 26 l96 120 l54 -43 Z" /><glyph glyph-name="Ocircumflex" unicode="ô" d="M366 336 q0 -38 -1 -65.5 q-1 -27.5 -5.5 -72.5 q-4.5 -45 -15.5 -77.5 q-11 -32.5 -28 -64 q-17 -31.5 -46 -48.5 q-29 -17 -67 -17 q-165 0 -165 342 q0 343 164 343 q164 0 164 -340 ZM303 358 q0 258 -100 258 q-102 0 -102 -282 q0 -283 102 -283 q80 0 94 155 q6 60 6 152 ZM315 752 l-40 -38 l-74 69 l-74 -69 l-38 38 l112 107 l114 -107 Z" /><glyph glyph-name="Otilde" unicode="õ" d="M366 336 q0 -38 -1 -65.5 q-1 -27.5 -5.5 -72.5 q-4.5 -45 -15.5 -77.5 q-11 -32.5 -28 -64 q-17 -31.5 -46 -48.5 q-29 -17 -67 -17 q-165 0 -165 342 q0 343 164 343 q164 0 164 -340 ZM303 358 q0 258 -100 258 q-102 0 -102 -282 q0 -283 102 -283 q80 0 94 155 q6 60 6 152 ZM260 802 l57 0 q-2 -33 -19.5 -57.5 q-17.5 -24.5 -48.5 -24.5 q-19 0 -49.5 17 q-30.5 17 -40.5 17 q-16 0 -16 -25 l-56 0 q3 33 21 55 q18 22 49 22 q17 0 47 -16 q30 -16 39 -16 q17 0 17 28 Z" /><glyph glyph-name="Odieresis" unicode="ö" d="M366 336 q0 -38 -1 -65.5 q-1 -27.5 -5.5 -72.5 q-4.5 -45 -15.5 -77.5 q-11 -32.5 -28 -64 q-17 -31.5 -46 -48.5 q-29 -17 -67 -17 q-165 0 -165 342 q0 343 164 343 q164 0 164 -340 ZM303 358 q0 258 -100 258 q-102 0 -102 -282 q0 -283 102 -283 q80 0 94 155 q6 60 6 152 ZM296.5 794.5 q12.5 -12.5 12.5 -30.5 q0 -18 -12.5 -31 q-12.5 -13 -30.5 -13 q-18 0 -30.5 13 q-12.5 13 -12.5 31 q0 18 12.5 30.5 q12.5 12.5 30.5 12.5 q18 0 30.5 -12.5 ZM168.5 794.5 q12.5 -12.5 12.5 -30.5 q0 -18 -12.5 -31 q-12.5 -13 -30.5 -13 q-18 0 -30.5 13 q-12.5 13 -12.5 31 q0 18 12.5 30.5 q12.5 12.5 30.5 12.5 q18 0 30.5 -12.5 Z" /><glyph glyph-name="multiply" unicode="×" d="M422 466 l-135 -135 l135 -134 l-37 -38 l-135 135 l-135 -135 l-37 38 l135 134 l-135 135 l37 38 l135 -135 l135 135 l37 -38 Z" /><glyph glyph-name="Oslash" unicode="ø" d="M390 656 l-42 -89 q30 -80 30 -235 q0 -31 -0.5 -55 q-0.5 -24 -4 -61.5 q-3.5 -37.5 -10 -65.5 q-6.5 -28 -18.5 -59.5 q-12 -31.5 -29 -52 q-17 -20.5 -43 -34 q-26 -13.5 -58 -13.5 q-70 0 -109 60 l-29 -59 l-39 19 l43 89 q-31 83 -31 236 q0 340 163 340 q74 0 110 -60 l28 59 l39 -19 ZM123 180 l167 373 q-22 63 -75 63 q-102 0 -102 -271 q0 -96 10 -165 ZM306 486 l-166 -372 q24 -63 74 -63 q83 0 97 168 q4 52 4 119 q0 74 -9 148 Z" /><glyph glyph-name="Ugrave" unicode="ù" d="M335 667 l0 -491 q0 -58 -9 -92 q-12 -45 -47 -69 q-35 -24 -84 -24 q-48 0 -83 24 q-35 24 -48 69 q-9 30 -9 93 l0 490 l62 0 l0 -499 q0 -34 4 -56.5 q4 -22.5 22.5 -41.5 q18.5 -19 51.5 -19 q14 0 25.5 3 q11.5 3 19.5 10 q8 7 14 13 q6 6 9.5 18.5 q3.5 12.5 5.5 19.5 q2 7 3 23 q1 16 1 22.5 q0 6.5 0 24 q0 17.5 0 20.5 l0 462 l62 0 ZM230 740 l-35 -26 l-115 103 l54 43 l96 -120 Z" /><glyph glyph-name="Uacute" unicode="ú" d="M335 667 l0 -491 q0 -58 -9 -92 q-12 -45 -47 -69 q-35 -24 -84 -24 q-48 0 -83 24 q-35 24 -48 69 q-9 30 -9 93 l0 490 l62 0 l0 -499 q0 -34 4 -56.5 q4 -22.5 22.5 -41.5 q18.5 -19 51.5 -19 q14 0 25.5 3 q11.5 3 19.5 10 q8 7 14 13 q6 6 9.5 18.5 q3.5 12.5 5.5 19.5 q2 7 3 23 q1 16 1 22.5 q0 6.5 0 24 q0 17.5 0 20.5 l0 462 l62 0 ZM310 817 l-115 -103 l-35 26 l96 120 l54 -43 Z" /><glyph glyph-name="Ucircumflex" unicode="û" d="M335 667 l0 -491 q0 -58 -9 -92 q-12 -45 -47 -69 q-35 -24 -84 -24 q-48 0 -83 24 q-35 24 -48 69 q-9 30 -9 93 l0 490 l62 0 l0 -499 q0 -34 4 -56.5 q4 -22.5 22.5 -41.5 q18.5 -19 51.5 -19 q14 0 25.5 3 q11.5 3 19.5 10 q8 7 14 13 q6 6 9.5 18.5 q3.5 12.5 5.5 19.5 q2 7 3 23 q1 16 1 22.5 q0 6.5 0 24 q0 17.5 0 20.5 l0 462 l62 0 ZM308 752 l-40 -38 l-74 69 l-74 -69 l-38 38 l112 107 l114 -107 Z" /><glyph glyph-name="Udieresis" unicode="ü" d="M335 667 l0 -491 q0 -58 -9 -92 q-12 -45 -47 -69 q-35 -24 -84 -24 q-48 0 -83 24 q-35 24 -48 69 q-9 30 -9 93 l0 490 l62 0 l0 -499 q0 -34 4 -56.5 q4 -22.5 22.5 -41.5 q18.5 -19 51.5 -19 q14 0 25.5 3 q11.5 3 19.5 10 q8 7 14 13 q6 6 9.5 18.5 q3.5 12.5 5.5 19.5 q2 7 3 23 q1 16 1 22.5 q0 6.5 0 24 q0 17.5 0 20.5 l0 462 l62 0 ZM289.5 794.5 q12.5 -12.5 12.5 -30.5 q0 -18 -12.5 -31 q-12.5 -13 -30.5 -13 q-18 0 -30.5 13 q-12.5 13 -12.5 31 q0 18 12.5 30.5 q12.5 12.5 30.5 12.5 q18 0 30.5 -12.5 ZM161.5 794.5 q12.5 -12.5 12.5 -30.5 q0 -18 -12.5 -31 q-12.5 -13 -30.5 -13 q-18 0 -30.5 13 q-12.5 13 -12.5 31 q0 18 12.5 30.5 q12.5 12.5 30.5 12.5 q18 0 30.5 -12.5 Z" /><glyph glyph-name="Yacute" unicode="ý" d="M315 667 l-122 -378 l0 -289 l-62 0 l0 289 l-130 378 l67 0 l62 -191 q18 -56 32 -123 q8 53 29 122 l57 192 l67 0 ZM265 817 l-115 -103 l-35 26 l96 120 l54 -43 Z" /><glyph glyph-name="Thorn" unicode="þ" d="M117 667 l0 -117 q104 0 145.5 -37.5 q41.5 -37.5 41.5 -141.5 q0 -91 -35.5 -129.5 q-35.5 -38.5 -125.5 -38.5 l-26 0 l0 -203 l-62 0 l0 667 l62 0 ZM117 260 l41 0 q50 0 66.5 28 q16.5 28 16.5 83 q0 62 -18 92 q-18 30 -75 30 l-31 0 l0 -233 Z" /><glyph glyph-name="germandbls" unicode="ß" d="M55 447 l0 117 q0 37 4 63.5 q4 26.5 15 54.5 q11 28 36 43 q25 15 63 15 q121 0 121 -172 q0 -122 -64 -150 q16 -6 27 -16 q45 -37 45 -199 q0 -203 -126 -203 l-21 0 l0 56 l17 0 q20 0 33.5 9 q13.5 9 20.5 25.5 q7 16.5 10 31 q3 14.5 5 34.5 q3 32 3 84 q0 149 -71 149 l-18 0 l0 58 l17 0 q39 0 51.5 28.5 q12.5 28.5 12.5 82.5 q0 130 -64 130 q-21 0 -34 -11 q-13 -11 -18 -33 q-5 -22 -6 -36 q-1 -14 -1 -37 l0 -571 l-58 0 l0 389 l-51 0 l0 58 l51 0 Z" /><glyph glyph-name="agrave" unicode="à" d="M277 0 l-57 0 l0 36 q-32 -43 -76 -43 q-29 0 -50 16.5 q-21 16.5 -31.5 38 q-10.5 21.5 -16 56 q-5.5 34.5 -6.5 57 q-1 22.5 -1 54.5 q0 36 1 60.5 q1 24.5 7 61.5 q6 37 17 60 q11 23 32.5 40 q21.5 17 52.5 17 q41 0 71 -37 l0 30 l57 0 l0 -447 ZM226 226 q0 40 -2 67.5 q-2 27.5 -7.5 56.5 q-5.5 29 -19 44 q-13.5 15 -34.5 15 q-66 0 -66 -159 q0 -72 3 -108 q2 -22 4.5 -34 q2.5 -12 8.5 -31 q6 -19 18.5 -28.5 q12.5 -9.5 30.5 -9.5 q22 0 36 15 q28 28 28 172 ZM215 533 l-35 -26 l-115 103 l54 43 l96 -120 Z" /><glyph glyph-name="aacute" unicode="á" d="M277 0 l-57 0 l0 36 q-32 -43 -76 -43 q-29 0 -50 16.5 q-21 16.5 -31.5 38 q-10.5 21.5 -16 56 q-5.5 34.5 -6.5 57 q-1 22.5 -1 54.5 q0 36 1 60.5 q1 24.5 7 61.5 q6 37 17 60 q11 23 32.5 40 q21.5 17 52.5 17 q41 0 71 -37 l0 30 l57 0 l0 -447 ZM226 226 q0 40 -2 67.5 q-2 27.5 -7.5 56.5 q-5.5 29 -19 44 q-13.5 15 -34.5 15 q-66 0 -66 -159 q0 -72 3 -108 q2 -22 4.5 -34 q2.5 -12 8.5 -31 q6 -19 18.5 -28.5 q12.5 -9.5 30.5 -9.5 q22 0 36 15 q28 28 28 172 ZM265 610 l-115 -103 l-35 26 l96 120 l54 -43 Z" /><glyph glyph-name="acircumflex" unicode="â" d="M277 0 l-57 0 l0 36 q-32 -43 -76 -43 q-29 0 -50 16.5 q-21 16.5 -31.5 38 q-10.5 21.5 -16 56 q-5.5 34.5 -6.5 57 q-1 22.5 -1 54.5 q0 36 1 60.5 q1 24.5 7 61.5 q6 37 17 60 q11 23 32.5 40 q21.5 17 52.5 17 q41 0 71 -37 l0 30 l57 0 l0 -447 ZM226 226 q0 40 -2 67.5 q-2 27.5 -7.5 56.5 q-5.5 29 -19 44 q-13.5 15 -34.5 15 q-66 0 -66 -159 q0 -72 3 -108 q2 -22 4.5 -34 q2.5 -12 8.5 -31 q6 -19 18.5 -28.5 q12.5 -9.5 30.5 -9.5 q22 0 36 15 q28 28 28 172 ZM273 545 l-40 -38 l-74 69 l-74 -69 l-38 38 l112 107 l114 -107 Z" /><glyph glyph-name="atilde" unicode="ã" d="M277 0 l-57 0 l0 36 q-32 -43 -76 -43 q-29 0 -50 16.5 q-21 16.5 -31.5 38 q-10.5 21.5 -16 56 q-5.5 34.5 -6.5 57 q-1 22.5 -1 54.5 q0 36 1 60.5 q1 24.5 7 61.5 q6 37 17 60 q11 23 32.5 40 q21.5 17 52.5 17 q41 0 71 -37 l0 30 l57 0 l0 -447 ZM226 226 q0 40 -2 67.5 q-2 27.5 -7.5 56.5 q-5.5 29 -19 44 q-13.5 15 -34.5 15 q-66 0 -66 -159 q0 -72 3 -108 q2 -22 4.5 -34 q2.5 -12 8.5 -31 q6 -19 18.5 -28.5 q12.5 -9.5 30.5 -9.5 q22 0 36 15 q28 28 28 172 ZM218 595 l57 0 q-2 -33 -19.5 -57.5 q-17.5 -24.5 -48.5 -24.5 q-19 0 -49.5 17 q-30.5 17 -40.5 17 q-16 0 -16 -25 l-56 0 q3 33 21 55 q18 22 49 22 q17 0 47 -16 q30 -16 39 -16 q17 0 17 28 Z" /><glyph glyph-name="adieresis" unicode="ä" d="M277 0 l-57 0 l0 36 q-32 -43 -76 -43 q-29 0 -50 16.5 q-21 16.5 -31.5 38 q-10.5 21.5 -16 56 q-5.5 34.5 -6.5 57 q-1 22.5 -1 54.5 q0 36 1 60.5 q1 24.5 7 61.5 q6 37 17 60 q11 23 32.5 40 q21.5 17 52.5 17 q41 0 71 -37 l0 30 l57 0 l0 -447 ZM226 226 q0 40 -2 67.5 q-2 27.5 -7.5 56.5 q-5.5 29 -19 44 q-13.5 15 -34.5 15 q-66 0 -66 -159 q0 -72 3 -108 q2 -22 4.5 -34 q2.5 -12 8.5 -31 q6 -19 18.5 -28.5 q12.5 -9.5 30.5 -9.5 q22 0 36 15 q28 28 28 172 ZM254.5 587.5 q12.5 -12.5 12.5 -30.5 q0 -18 -12.5 -31 q-12.5 -13 -30.5 -13 q-18 0 -30.5 13 q-12.5 13 -12.5 31 q0 18 12.5 30.5 q12.5 12.5 30.5 12.5 q18 0 30.5 -12.5 ZM126.5 587.5 q12.5 -12.5 12.5 -30.5 q0 -18 -12.5 -31 q-12.5 -13 -30.5 -13 q-18 0 -30.5 13 q-12.5 13 -12.5 31 q0 18 12.5 30.5 q12.5 12.5 30.5 12.5 q18 0 30.5 -12.5 Z" /><glyph glyph-name="aring" unicode="å" d="M277 0 l-57 0 l0 36 q-32 -43 -76 -43 q-29 0 -50 16.5 q-21 16.5 -31.5 38 q-10.5 21.5 -16 56 q-5.5 34.5 -6.5 57 q-1 22.5 -1 54.5 q0 36 1 60.5 q1 24.5 7 61.5 q6 37 17 60 q11 23 32.5 40 q21.5 17 52.5 17 q41 0 71 -37 l0 30 l57 0 l0 -447 ZM226 226 q0 40 -2 67.5 q-2 27.5 -7.5 56.5 q-5.5 29 -19 44 q-13.5 15 -34.5 15 q-66 0 -66 -159 q0 -72 3 -108 q2 -22 4.5 -34 q2.5 -12 8.5 -31 q6 -19 18.5 -28.5 q12.5 -9.5 30.5 -9.5 q22 0 36 15 q28 28 28 172 ZM211.5 643.5 q23.5 -23.5 23.5 -56.5 q0 -33 -23.5 -56.5 q-23.5 -23.5 -56.5 -23.5 q-33 0 -56.5 23.5 q-23.5 23.5 -23.5 56.5 q0 33 23.5 56.5 q23.5 23.5 56.5 23.5 q33 0 56.5 -23.5 ZM183.5 558.5 q11.5 11.5 11.5 28.5 q0 17 -11.5 28.5 q-11.5 11.5 -28.5 11.5 q-17 0 -28.5 -11.5 q-11.5 -11.5 -11.5 -28.5 q0 -17 11.5 -28.5 q11.5 -11.5 28.5 -11.5 q17 0 28.5 11.5 Z" /><glyph glyph-name="ae" unicode="æ" d="M474 214 l-197 0 q0 -24 3 -48 q3 -24 10 -54 q7 -30 24 -48.5 q17 -18.5 41 -18.5 q57 0 60 110 l53 0 q-1 -38 -12 -73 q-11 -35 -38 -62 q-27 -27 -66 -27 q-62 0 -97 74 q-15 -34 -43.5 -54 q-28.5 -20 -64.5 -20 q-58 0 -86 47 q-28 47 -28 110 q0 61 27 104.5 q27 43.5 85 43.5 q51 0 80 -37 l0 13 q0 128 -87 128 q-34 0 -78 -36 l0 62 q37 26 81 26 q80 0 114 -75 q13 32 38.5 53.5 q25.5 21.5 57.5 21.5 q120 0 123 -240 ZM279 261 l139 0 q0 20 -3 41.5 q-3 21.5 -10 45 q-7 23.5 -22 39 q-15 15.5 -36 15.5 q-26 0 -42.5 -28 q-16.5 -28 -21 -57 q-4.5 -29 -4.5 -56 ZM226 145 q0 42 -16.5 74.5 q-16.5 32.5 -54.5 32.5 q-67 0 -67 -102 q0 -41 15 -72.5 q15 -31.5 52 -31.5 q37 0 54 30 q17 30 17 69 Z" /><glyph glyph-name="ccedilla" unicode="ç" d="M226 86 l0 -70 q-30 -23 -64 -23 q-37 0 -64 23 q-27 23 -40 59.5 q-13 36.5 -19 71.5 q-6 35 -6 69 q0 38 5 74 q5 36 18 76 q13 40 41 64 q28 24 68 24 q32 0 61 -17 l0 -66 q-29 31 -56 31 q-25 0 -42 -20 q-17 -20 -24 -52.5 q-7 -32.5 -9.5 -58 q-2.5 -25.5 -2.5 -50.5 q0 -23 3 -48.5 q3 -25.5 10 -56.5 q7 -31 23.5 -50.5 q16.5 -19.5 40.5 -19.5 q30 0 57 40 ZM210 -62 l-77 -123 l-36 21 l67 127 l46 -25 Z" /><glyph glyph-name="egrave" unicode="è" d="M219 152 l57 0 q-7 -159 -113 -159 q-130 0 -130 229 q0 37 5 71.5 q5 34.5 17 73.5 q12 39 39 63 q27 24 65 24 q37 0 63 -21.5 q26 -21.5 37.5 -57 q11.5 -35.5 16 -68 q4.5 -32.5 4.5 -67.5 q0 -4 -0.5 -14 q-0.5 -10 -0.5 -14 l-189 0 l0 -10 q0 -22 2.5 -44 q2.5 -22 9 -50 q6.5 -28 22 -45 q15.5 -17 37.5 -17 q55 0 58 106 ZM91 260 l133 0 q-7 142 -64 142 q-62 0 -69 -142 ZM215 533 l-35 -26 l-115 103 l54 43 l96 -120 Z" /><glyph glyph-name="eacute" unicode="é" d="M219 152 l57 0 q-7 -159 -113 -159 q-130 0 -130 229 q0 37 5 71.5 q5 34.5 17 73.5 q12 39 39 63 q27 24 65 24 q37 0 63 -21.5 q26 -21.5 37.5 -57 q11.5 -35.5 16 -68 q4.5 -32.5 4.5 -67.5 q0 -4 -0.5 -14 q-0.5 -10 -0.5 -14 l-189 0 l0 -10 q0 -22 2.5 -44 q2.5 -22 9 -50 q6.5 -28 22 -45 q15.5 -17 37.5 -17 q55 0 58 106 ZM91 260 l133 0 q-7 142 -64 142 q-62 0 -69 -142 ZM265 610 l-115 -103 l-35 26 l96 120 l54 -43 Z" /><glyph glyph-name="ecircumflex" unicode="ê" d="M219 152 l57 0 q-7 -159 -113 -159 q-130 0 -130 229 q0 37 5 71.5 q5 34.5 17 73.5 q12 39 39 63 q27 24 65 24 q37 0 63 -21.5 q26 -21.5 37.5 -57 q11.5 -35.5 16 -68 q4.5 -32.5 4.5 -67.5 q0 -4 -0.5 -14 q-0.5 -10 -0.5 -14 l-189 0 l0 -10 q0 -22 2.5 -44 q2.5 -22 9 -50 q6.5 -28 22 -45 q15.5 -17 37.5 -17 q55 0 58 106 ZM91 260 l133 0 q-7 142 -64 142 q-62 0 -69 -142 ZM272 545 l-40 -38 l-74 69 l-74 -69 l-38 38 l112 107 l114 -107 Z" /><glyph glyph-name="edieresis" unicode="ë" d="M219 152 l57 0 q-7 -159 -113 -159 q-130 0 -130 229 q0 37 5 71.5 q5 34.5 17 73.5 q12 39 39 63 q27 24 65 24 q37 0 63 -21.5 q26 -21.5 37.5 -57 q11.5 -35.5 16 -68 q4.5 -32.5 4.5 -67.5 q0 -4 -0.5 -14 q-0.5 -10 -0.5 -14 l-189 0 l0 -10 q0 -22 2.5 -44 q2.5 -22 9 -50 q6.5 -28 22 -45 q15.5 -17 37.5 -17 q55 0 58 106 ZM91 260 l133 0 q-7 142 -64 142 q-62 0 -69 -142 ZM253.5 587.5 q12.5 -12.5 12.5 -30.5 q0 -18 -12.5 -31 q-12.5 -13 -30.5 -13 q-18 0 -30.5 13 q-12.5 13 -12.5 31 q0 18 12.5 30.5 q12.5 12.5 30.5 12.5 q18 0 30.5 -12.5 ZM125.5 587.5 q12.5 -12.5 12.5 -30.5 q0 -18 -12.5 -31 q-12.5 -13 -30.5 -13 q-18 0 -30.5 13 q-12.5 13 -12.5 31 q0 18 12.5 30.5 q12.5 12.5 30.5 12.5 q18 0 30.5 -12.5 Z" /><glyph glyph-name="igrave" unicode="ì" d="M106 0 l-57 0 l0 447 l57 0 l0 -447 ZM114 533 l-35 -26 l-115 103 l54 43 l96 -120 Z" /><glyph glyph-name="iacute" unicode="í" d="M106 0 l-57 0 l0 447 l57 0 l0 -447 ZM194 610 l-115 -103 l-35 26 l96 120 l54 -43 Z" /><glyph glyph-name="icircumflex" unicode="î" d="M106 0 l-57 0 l0 447 l57 0 l0 -447 ZM192 545 l-40 -38 l-74 69 l-74 -69 l-38 38 l112 107 l114 -107 Z" /><glyph glyph-name="idieresis" unicode="ï" d="M106 0 l-57 0 l0 447 l57 0 l0 -447 ZM173.5 587.5 q12.5 -12.5 12.5 -30.5 q0 -18 -12.5 -31 q-12.5 -13 -30.5 -13 q-18 0 -30.5 13 q-12.5 13 -12.5 31 q0 18 12.5 30.5 q12.5 12.5 30.5 12.5 q18 0 30.5 -12.5 ZM45.5 587.5 q12.5 -12.5 12.5 -30.5 q0 -18 -12.5 -31 q-12.5 -13 -30.5 -13 q-18 0 -30.5 13 q-12.5 13 -12.5 31 q0 18 12.5 30.5 q12.5 12.5 30.5 12.5 q18 0 30.5 -12.5 Z" /><glyph glyph-name="eth" unicode="ð" d="M267 688 l-57 -35 q40 -49 57 -113 q22 -109 22 -316 q0 -121 -32 -176 q-33 -55 -92 -55 q-41 0 -69 22.5 q-28 22.5 -41 61 q-13 38.5 -17.5 73 q-4.5 34.5 -4.5 74.5 q0 38 4.5 72 q4.5 34 17 73 q12.5 39 40 62 q27.5 23 66.5 23 q42 0 62 -34 q-5 79 -15.5 123 q-10.5 44 -39.5 82 l-65 -44 l-24 38 l56 37 q-36 30 -85 49 l23 35 q52 -17 104 -56 l66 41 l24 -37 ZM231 224 q0 178 -70 178 q-70 0 -70 -178 q0 -179 72 -179 q31 0 48 38 q20 47 20 141 Z" /><glyph glyph-name="ntilde" unicode="ñ" d="M280 0 l-56 0 l0 325 q0 18 -1 29 q-1 11 -5.5 25.5 q-4.5 14.5 -15.5 21.5 q-11 7 -28 7 q-35 0 -53 -29 q-15 -22 -15 -78 l0 -301 l-56 0 l0 447 l56 0 l0 -36 q38 43 87 43 q51 0 69 -33.5 q18 -33.5 18 -89.5 l0 -331 ZM233 595 l57 0 q-2 -33 -19.5 -57.5 q-17.5 -24.5 -48.5 -24.5 q-19 0 -49.5 17 q-30.5 17 -40.5 17 q-16 0 -16 -25 l-56 0 q3 33 21 55 q18 22 49 22 q17 0 47 -16 q30 -16 39 -16 q17 0 17 28 Z" /><glyph glyph-name="ograve" unicode="ò" d="M289 221 q0 -228 -125 -228 q-41 0 -69 23 q-28 23 -40.5 61 q-12.5 38 -17 73 q-4.5 35 -4.5 74 q0 30 2.5 57.5 q2.5 27.5 10.5 60.5 q8 33 22 56.5 q14 23.5 38.5 39.5 q24.5 16 57.5 16 q125 0 125 -233 ZM163 46 q68 0 68 178 q0 178 -68 178 q-71 0 -71 -183 q0 -173 71 -173 ZM215 533 l-35 -26 l-115 103 l54 43 l96 -120 Z" /><glyph glyph-name="oacute" unicode="ó" d="M289 221 q0 -228 -125 -228 q-41 0 -69 23 q-28 23 -40.5 61 q-12.5 38 -17 73 q-4.5 35 -4.5 74 q0 30 2.5 57.5 q2.5 27.5 10.5 60.5 q8 33 22 56.5 q14 23.5 38.5 39.5 q24.5 16 57.5 16 q125 0 125 -233 ZM163 46 q68 0 68 178 q0 178 -68 178 q-71 0 -71 -183 q0 -173 71 -173 ZM269 610 l-115 -103 l-35 26 l96 120 l54 -43 Z" /><glyph glyph-name="ocircumflex" unicode="ô" d="M289 221 q0 -228 -125 -228 q-41 0 -69 23 q-28 23 -40.5 61 q-12.5 38 -17 73 q-4.5 35 -4.5 74 q0 30 2.5 57.5 q2.5 27.5 10.5 60.5 q8 33 22 56.5 q14 23.5 38.5 39.5 q24.5 16 57.5 16 q125 0 125 -233 ZM163 46 q68 0 68 178 q0 178 -68 178 q-71 0 -71 -183 q0 -173 71 -173 ZM277 545 l-40 -38 l-74 69 l-74 -69 l-38 38 l112 107 l114 -107 Z" /><glyph glyph-name="otilde" unicode="õ" d="M289 221 q0 -228 -125 -228 q-41 0 -69 23 q-28 23 -40.5 61 q-12.5 38 -17 73 q-4.5 35 -4.5 74 q0 30 2.5 57.5 q2.5 27.5 10.5 60.5 q8 33 22 56.5 q14 23.5 38.5 39.5 q24.5 16 57.5 16 q125 0 125 -233 ZM163 46 q68 0 68 178 q0 178 -68 178 q-71 0 -71 -183 q0 -173 71 -173 ZM222 595 l57 0 q-2 -33 -19.5 -57.5 q-17.5 -24.5 -48.5 -24.5 q-19 0 -49.5 17 q-30.5 17 -40.5 17 q-16 0 -16 -25 l-56 0 q3 33 21 55 q18 22 49 22 q17 0 47 -16 q30 -16 39 -16 q17 0 17 28 Z" /><glyph glyph-name="odieresis" unicode="ö" d="M289 221 q0 -228 -125 -228 q-41 0 -69 23 q-28 23 -40.5 61 q-12.5 38 -17 73 q-4.5 35 -4.5 74 q0 30 2.5 57.5 q2.5 27.5 10.5 60.5 q8 33 22 56.5 q14 23.5 38.5 39.5 q24.5 16 57.5 16 q125 0 125 -233 ZM163 46 q68 0 68 178 q0 178 -68 178 q-71 0 -71 -183 q0 -173 71 -173 ZM258.5 587.5 q12.5 -12.5 12.5 -30.5 q0 -18 -12.5 -31 q-12.5 -13 -30.5 -13 q-18 0 -30.5 13 q-12.5 13 -12.5 31 q0 18 12.5 30.5 q12.5 12.5 30.5 12.5 q18 0 30.5 -12.5 ZM130.5 587.5 q12.5 -12.5 12.5 -30.5 q0 -18 -12.5 -31 q-12.5 -13 -30.5 -13 q-18 0 -30.5 13 q-12.5 13 -12.5 31 q0 18 12.5 30.5 q12.5 12.5 30.5 12.5 q18 0 30.5 -12.5 Z" /><glyph glyph-name="divide" unicode="÷" d="M279.5 546.5 q12.5 -12.5 12.5 -29.5 q0 -17 -12.5 -30 q-12.5 -13 -29.5 -13 q-17 0 -29.5 13 q-12.5 13 -12.5 30 q0 17 12.5 29.5 q12.5 12.5 29.5 12.5 q17 0 29.5 -12.5 ZM467 305 l-434 0 l0 53 l434 0 l0 -53 ZM279.5 175.5 q12.5 -12.5 12.5 -29.5 q0 -17 -12.5 -30 q-12.5 -13 -29.5 -13 q-17 0 -29.5 13 q-12.5 13 -12.5 30 q0 17 12.5 29.5 q12.5 12.5 29.5 12.5 q17 0 29.5 -12.5 Z" /><glyph glyph-name="oslash" unicode="ø" d="M318 435 l-35 -60 q21 -57 21 -154 q0 -228 -125 -228 q-57 0 -90 44 l-25 -40 l-31 18 l36 62 q-21 60 -21 146 q0 39 4.5 73.5 q4.5 34.5 17 73 q12.5 38.5 40.5 61.5 q28 23 68 23 q52 0 85 -42 l24 42 l31 -19 ZM111 141 l116 218 q-18 43 -50 43 q-71 0 -71 -180 q0 -36 5 -81 ZM240 304 l-116 -214 q17 -44 53 -44 q69 0 69 174 q0 28 -6 84 Z" /><glyph glyph-name="ugrave" unicode="ù" d="M282 447 l0 -338 q0 -54 -31.5 -85 q-31.5 -31 -84.5 -31 q-53 0 -84.5 31 q-31.5 31 -31.5 85 l0 338 l56 0 l0 -303 q0 -22 1.5 -35.5 q1.5 -13.5 7 -30 q5.5 -16.5 19 -24.5 q13.5 -8 34.5 -8 q21 0 33.5 9 q12.5 9 17.5 27.5 q5 18.5 6 31.5 q1 13 1 36 l0 297 l56 0 ZM215 533 l-35 -26 l-115 103 l54 43 l96 -120 Z" /><glyph glyph-name="uacute" unicode="ú" d="M282 447 l0 -338 q0 -54 -31.5 -85 q-31.5 -31 -84.5 -31 q-53 0 -84.5 31 q-31.5 31 -31.5 85 l0 338 l56 0 l0 -303 q0 -22 1.5 -35.5 q1.5 -13.5 7 -30 q5.5 -16.5 19 -24.5 q13.5 -8 34.5 -8 q21 0 33.5 9 q12.5 9 17.5 27.5 q5 18.5 6 31.5 q1 13 1 36 l0 297 l56 0 ZM275 610 l-115 -103 l-35 26 l96 120 l54 -43 Z" /><glyph glyph-name="ucircumflex" unicode="û" d="M282 447 l0 -338 q0 -54 -31.5 -85 q-31.5 -31 -84.5 -31 q-53 0 -84.5 31 q-31.5 31 -31.5 85 l0 338 l56 0 l0 -303 q0 -22 1.5 -35.5 q1.5 -13.5 7 -30 q5.5 -16.5 19 -24.5 q13.5 -8 34.5 -8 q21 0 33.5 9 q12.5 9 17.5 27.5 q5 18.5 6 31.5 q1 13 1 36 l0 297 l56 0 ZM281 545 l-40 -38 l-74 69 l-74 -69 l-38 38 l112 107 l114 -107 Z" /><glyph glyph-name="udieresis" unicode="ü" d="M282 447 l0 -338 q0 -54 -31.5 -85 q-31.5 -31 -84.5 -31 q-53 0 -84.5 31 q-31.5 31 -31.5 85 l0 338 l56 0 l0 -303 q0 -22 1.5 -35.5 q1.5 -13.5 7 -30 q5.5 -16.5 19 -24.5 q13.5 -8 34.5 -8 q21 0 33.5 9 q12.5 9 17.5 27.5 q5 18.5 6 31.5 q1 13 1 36 l0 297 l56 0 ZM262.5 587.5 q12.5 -12.5 12.5 -30.5 q0 -18 -12.5 -31 q-12.5 -13 -30.5 -13 q-18 0 -30.5 13 q-12.5 13 -12.5 31 q0 18 12.5 30.5 q12.5 12.5 30.5 12.5 q18 0 30.5 -12.5 ZM134.5 587.5 q12.5 -12.5 12.5 -30.5 q0 -18 -12.5 -31 q-12.5 -13 -30.5 -13 q-18 0 -30.5 13 q-12.5 13 -12.5 31 q0 18 12.5 30.5 q12.5 12.5 30.5 12.5 q18 0 30.5 -12.5 Z" /><glyph glyph-name="yacute" unicode="ý" d="M283 447 l-160 -627 l-60 0 l50 192 l-106 435 l57 0 l56 -248 q13 -54 21 -112 q3 23 18 84 l65 276 l59 0 ZM257 610 l-115 -103 l-35 26 l96 120 l54 -43 Z" /><glyph glyph-name="thorn" unicode="þ" d="M106 729 l0 -312 q28 37 71 37 q26 0 46 -10 q20 -10 31.5 -30.5 q11.5 -20.5 19 -39.5 q7.5 -19 10.5 -49 q3 -30 3.5 -47.5 q0.5 -17.5 0.5 -45.5 q0 -48 -2.5 -80 q-2.5 -32 -11.5 -73.5 q-9 -41.5 -32 -63.5 q-23 -22 -59 -22 q-42 0 -77 43 l0 -216 l-56 0 l0 909 l56 0 ZM230 247 q0 162 -66 162 q-20 0 -33.5 -14.5 q-13.5 -14.5 -19.5 -43 q-6 -28.5 -8 -56.5 q-2 -28 -2 -69 q0 -144 28 -172 q14 -15 36 -15 q18 0 30.5 9.5 q12.5 9.5 18.5 28.5 q6 19 8.5 31 q2.5 12 4.5 34 q3 35 3 105 Z" /><glyph glyph-name="ydieresis" unicode="ÿ" d="M283 447 l-160 -627 l-60 0 l50 192 l-106 435 l57 0 l56 -248 q13 -54 21 -112 q3 23 18 84 l65 276 l59 0 ZM248.5 587.5 q12.5 -12.5 12.5 -30.5 q0 -18 -12.5 -31 q-12.5 -13 -30.5 -13 q-18 0 -30.5 13 q-12.5 13 -12.5 31 q0 18 12.5 30.5 q12.5 12.5 30.5 12.5 q18 0 30.5 -12.5 ZM120.5 587.5 q12.5 -12.5 12.5 -30.5 q0 -18 -12.5 -31 q-12.5 -13 -30.5 -13 q-18 0 -30.5 13 q-12.5 13 -12.5 31 q0 18 12.5 30.5 q12.5 12.5 30.5 12.5 q18 0 30.5 -12.5 Z" /><glyph glyph-name="Amacron" unicode="&#x100;" d="M324 0 l-66 0 l-25 137 l-141 0 l-25 -137 l-66 0 l132 667 l58 0 l133 -667 ZM223 191 l-44 235 q-14 75 -19 157 q-7 -104 -58 -392 l121 0 ZM275 727 l-224 0 l0 55 l224 0 l0 -55 Z" /><glyph glyph-name="amacron" unicode="&#x101;" d="M277 0 l-57 0 l0 36 q-32 -43 -76 -43 q-29 0 -50 16.5 q-21 16.5 -31.5 38 q-10.5 21.5 -16 56 q-5.5 34.5 -6.5 57 q-1 22.5 -1 54.5 q0 36 1 60.5 q1 24.5 7 61.5 q6 37 17 60 q11 23 32.5 40 q21.5 17 52.5 17 q41 0 71 -37 l0 30 l57 0 l0 -447 ZM226 226 q0 40 -2 67.5 q-2 27.5 -7.5 56.5 q-5.5 29 -19 44 q-13.5 15 -34.5 15 q-66 0 -66 -159 q0 -72 3 -108 q2 -22 4.5 -34 q2.5 -12 8.5 -31 q6 -19 18.5 -28.5 q12.5 -9.5 30.5 -9.5 q22 0 36 15 q28 28 28 172 ZM278 520 l-224 0 l0 55 l224 0 l0 -55 Z" /><glyph glyph-name="Abreve" unicode="&#x102;" d="M324 0 l-66 0 l-25 137 l-141 0 l-25 -137 l-66 0 l132 667 l58 0 l133 -667 ZM223 191 l-44 235 q-14 75 -19 157 q-7 -104 -58 -392 l121 0 ZM238 810 l48 0 q-5 -46 -40 -69 q-35 -23 -83 -23 q-48 0 -83 23 q-35 23 -40 69 l48 0 q17 -41 75 -41 q58 0 75 41 Z" /><glyph glyph-name="abreve" unicode="&#x103;" d="M277 0 l-57 0 l0 36 q-32 -43 -76 -43 q-29 0 -50 16.5 q-21 16.5 -31.5 38 q-10.5 21.5 -16 56 q-5.5 34.5 -6.5 57 q-1 22.5 -1 54.5 q0 36 1 60.5 q1 24.5 7 61.5 q6 37 17 60 q11 23 32.5 40 q21.5 17 52.5 17 q41 0 71 -37 l0 30 l57 0 l0 -447 ZM226 226 q0 40 -2 67.5 q-2 27.5 -7.5 56.5 q-5.5 29 -19 44 q-13.5 15 -34.5 15 q-66 0 -66 -159 q0 -72 3 -108 q2 -22 4.5 -34 q2.5 -12 8.5 -31 q6 -19 18.5 -28.5 q12.5 -9.5 30.5 -9.5 q22 0 36 15 q28 28 28 172 ZM232 599 l48 0 q-5 -46 -40 -69 q-35 -23 -83 -23 q-48 0 -83 23 q-35 23 -40 69 l48 0 q17 -41 75 -41 q58 0 75 41 Z" /><glyph glyph-name="Aogonek" unicode="&#x104;" d="M133 667 l58 0 l133 -667 l-20 0 q-24 -24 -34 -39 q-14 -19 -14 -36 q0 -12 9 -21 q9 -7 23 -7 q15 0 30 8 l0 -48 q-20 -9 -40 -9 q-35 0 -54 20 q-17 18 -17 45 q0 25 17 48 q15 20 34 39 l-25 137 l-141 0 l-25 -137 l-66 0 l132 667 ZM223 191 l-44 235 q-13 65 -19 157 q-10 -131 -36 -271 l-22 -121 l121 0 Z" /><glyph glyph-name="aogonek" unicode="&#x105;" d="M217 447 l58 0 l0 -447 l-13 0 q0 -1 -5.5 -6 q-5.5 -5 -13.5 -13.5 q-8 -8.5 -13 -16.5 q-13 -22 -13 -35 q0 -13 10 -23 q10 -8 23 -8 q17 0 35 10 l0 -47 q-21 -11 -44 -11 q-31 0 -49 14 q-23 18 -23 48 q0 20 16 47 q11 19 32 41 l0 36 q-25 -43 -76 -43 q-44 0 -70 36 q-35 47 -35 193 l0 6 q0 153 43 198 q26 28 68 28 q46 0 70 -37 l0 30 ZM223 226 l0 12 q0 44 -1 66.5 q-1 22.5 -8 50 q-7 27.5 -22 41.5 q-14 13 -32 13 q-19 0 -33 -14 q-33 -36 -33 -145 l0 -39 q0 -124 30 -157 q14 -15 35 -15 q24 0 37 15 q27 27 27 172 Z" /><glyph glyph-name="Cacute" unicode="&#x106;" d="M302 81 l0 -62 q-43 -28 -87 -28 q-72 0 -120 65 q-57 78 -57 260 q0 360 184 360 q46 0 80 -21 l0 -68 q-44 29 -77 29 q-124 0 -124 -280 q0 -181 44 -244 q28 -41 75 -41 q37 0 82 30 ZM335 817 l-115 -103 l-35 26 l96 120 l54 -43 Z" /><glyph glyph-name="cacute" unicode="&#x107;" d="M226 86 l0 -70 q-30 -23 -64 -23 q-37 0 -64 23 q-27 23 -40 59.5 q-13 36.5 -19 71.5 q-6 35 -6 69 q0 38 5 74 q5 36 18 76 q13 40 41 64 q28 24 68 24 q32 0 61 -17 l0 -66 q-29 31 -56 31 q-25 0 -42 -20 q-17 -20 -24 -52.5 q-7 -32.5 -9.5 -58 q-2.5 -25.5 -2.5 -50.5 q0 -23 3 -48.5 q3 -25.5 10 -56.5 q7 -31 23.5 -50.5 q16.5 -19.5 40.5 -19.5 q30 0 57 40 ZM275 610 l-115 -103 l-35 26 l96 120 l54 -43 Z" /><glyph glyph-name="Ccircumflex" unicode="&#x108;" d="M302 81 l0 -62 q-43 -28 -87 -28 q-72 0 -120 65 q-57 78 -57 260 q0 360 184 360 q46 0 80 -21 l0 -68 q-44 29 -77 29 q-124 0 -124 -280 q0 -181 44 -244 q28 -41 75 -41 q37 0 82 30 ZM333 752 l-40 -38 l-74 69 l-74 -69 l-38 38 l112 107 l114 -107 Z" /><glyph glyph-name="ccircumflex" unicode="&#x109;" d="M226 86 l0 -70 q-30 -23 -64 -23 q-37 0 -64 23 q-27 23 -40 59.5 q-13 36.5 -19 71.5 q-6 35 -6 69 q0 38 5 74 q5 36 18 76 q13 40 41 64 q28 24 68 24 q32 0 61 -17 l0 -66 q-29 31 -56 31 q-25 0 -42 -20 q-17 -20 -24 -52.5 q-7 -32.5 -9.5 -58 q-2.5 -25.5 -2.5 -50.5 q0 -23 3 -48.5 q3 -25.5 10 -56.5 q7 -31 23.5 -50.5 q16.5 -19.5 40.5 -19.5 q30 0 57 40 ZM273 545 l-40 -38 l-74 69 l-74 -69 l-38 38 l112 107 l114 -107 Z" /><glyph glyph-name="Cdotaccent" unicode="&#x10a;" d="M302 81 l0 -62 q-43 -28 -87 -28 q-72 0 -120 65 q-57 78 -57 260 q0 360 184 360 q46 0 80 -21 l0 -68 q-44 29 -77 29 q-124 0 -124 -280 q0 -181 44 -244 q28 -41 75 -41 q37 0 82 30 ZM244.5 798 q13.5 -13 13.5 -32 q0 -19 -13.5 -32.5 q-13.5 -13.5 -32.5 -13.5 q-19 0 -32 13.5 q-13 13.5 -13 32.5 q0 19 13 32 q13 13 32 13 q19 0 32.5 -13 Z" /><glyph glyph-name="cdotaccent" unicode="&#x10b;" d="M226 86 l0 -70 q-30 -23 -64 -23 q-37 0 -64 23 q-27 23 -40 59.5 q-13 36.5 -19 71.5 q-6 35 -6 69 q0 38 5 74 q5 36 18 76 q13 40 41 64 q28 24 68 24 q32 0 61 -17 l0 -66 q-29 31 -56 31 q-25 0 -42 -20 q-17 -20 -24 -52.5 q-7 -32.5 -9.5 -58 q-2.5 -25.5 -2.5 -50.5 q0 -23 3 -48.5 q3 -25.5 10 -56.5 q7 -31 23.5 -50.5 q16.5 -19.5 40.5 -19.5 q30 0 57 40 ZM189.5 591 q13.5 -13 13.5 -32 q0 -19 -13.5 -32.5 q-13.5 -13.5 -32.5 -13.5 q-19 0 -32 13.5 q-13 13.5 -13 32.5 q0 19 13 32 q13 13 32 13 q19 0 32.5 -13 Z" /><glyph glyph-name="Ccaron" unicode="&#x10c;" d="M302 81 l0 -62 q-43 -28 -87 -28 q-72 0 -120 65 q-57 78 -57 260 q0 360 184 360 q46 0 80 -21 l0 -68 q-44 29 -77 29 q-124 0 -124 -280 q0 -181 44 -244 q28 -41 75 -41 q37 0 82 30 ZM333 821 l-114 -107 l-112 107 l38 38 l74 -69 l74 69 l40 -38 Z" /><glyph glyph-name="ccaron" unicode="&#x10d;" d="M226 86 l0 -70 q-30 -23 -64 -23 q-37 0 -64 23 q-27 23 -40 59.5 q-13 36.5 -19 71.5 q-6 35 -6 69 q0 38 5 74 q5 36 18 76 q13 40 41 64 q28 24 68 24 q32 0 61 -17 l0 -66 q-29 31 -56 31 q-25 0 -42 -20 q-17 -20 -24 -52.5 q-7 -32.5 -9.5 -58 q-2.5 -25.5 -2.5 -50.5 q0 -23 3 -48.5 q3 -25.5 10 -56.5 q7 -31 23.5 -50.5 q16.5 -19.5 40.5 -19.5 q30 0 57 40 ZM273 614 l-114 -107 l-112 107 l38 38 l74 -69 l74 69 l40 -38 Z" /><glyph glyph-name="Dcaron" unicode="&#x10e;" d="M55 667 l78 0 q93 0 134.5 -40 q41.5 -40 56.5 -134 q9 -63 9 -170 q0 -57 -2 -94.5 q-2 -37.5 -15 -91.5 q-13 -54 -38 -84 q-45 -53 -141 -53 l-82 0 l0 667 ZM117 57 l29 0 q29 0 50.5 9.5 q21.5 9.5 34.5 29 q13 19.5 21.5 39 q8.5 19.5 11.5 49 q3 29.5 4 49 q1 19.5 1 48.5 q0 113 -5 173 q-2 28 -5.5 47.5 q-3.5 19.5 -12 41.5 q-8.5 22 -20.5 35.5 q-12 13.5 -33.5 22.5 q-21.5 9 -49.5 9 l-26 0 l0 -553 ZM273 821 l-114 -107 l-112 107 l38 38 l74 -69 l74 69 l40 -38 Z" /><glyph glyph-name="dcaron" unicode="&#x10f;" d="M271 0 l-56 0 l0 36 q-32 -43 -77 -43 q-25 0 -43.5 10.5 q-18.5 10.5 -29.5 31.5 q-11 21 -18 41.5 q-7 20.5 -10 50.5 q-3 30 -3.5 48.5 q-0.5 18.5 -0.5 44.5 q0 31 0.5 48.5 q0.5 17.5 3.5 50 q3 32.5 10 52 q7 19.5 18.5 41 q11.5 21.5 31.5 32 q20 10.5 47 10.5 q41 0 71 -37 l0 312 l56 0 l0 -729 ZM220 223 q0 88 -12 137 q-12 49 -51 49 q-65 0 -65 -159 q0 -72 3 -108 q2 -20 4 -33.5 q2 -13.5 8 -32 q6 -18.5 18.5 -28 q12.5 -9.5 30.5 -9.5 q23 0 37 15 q27 27 27 169 ZM432 648 l-74 -164 l-39 19 l55 173 l58 -28 Z" /><glyph glyph-name="Dcroat" unicode="&#x110;" d="M55 667 l78 0 q90 0 132.5 -38 q42.5 -38 57.5 -128 q10 -60 10 -166 q0 -151 -18 -210 q-21 -68 -63 -96.5 q-42 -28.5 -115 -28.5 l-82 0 l0 321 l-47 0 l0 50 l47 0 l0 296 ZM117 57 l29 0 q50 0 77 28 q21 22 32.5 63.5 q11.5 41.5 13 72 q1.5 30.5 1.5 79.5 q0 169 -18 229 q-14 43 -38.5 62 q-24.5 19 -69.5 19 l-27 0 l0 -239 l90 0 l0 -50 l-90 0 l0 -264 Z" /><glyph glyph-name="dcroat" unicode="&#x111;" d="M272 0 l-57 0 l0 36 q-30 -43 -76 -43 q-30 0 -51 17 q-21 17 -31.5 39.5 q-10.5 22.5 -16 58 q-5.5 35.5 -6.5 58 q-1 22.5 -1 54.5 q0 23 0.5 38 q0.5 15 3.5 43.5 q3 28.5 10 47.5 q7 19 18.5 39.5 q11.5 20.5 31.5 31 q20 10.5 47 10.5 q43 0 71 -37 l0 139 l-103 0 l0 52 l103 0 l0 145 l57 0 l0 -145 l49 0 l0 -52 l-49 0 l0 -532 ZM220 223 q0 33 -1 53 q-1 20 -6.5 49.5 q-5.5 29.5 -19.5 44.5 q-14 15 -36 15 q-65 0 -65 -153 q0 -54 3 -90 q2 -20 4 -33.5 q2 -13.5 8 -32 q6 -18.5 18.5 -28 q12.5 -9.5 30.5 -9.5 q23 0 38 15 q26 28 26 169 Z" /><glyph glyph-name="Emacron" unicode="&#x112;" d="M263 0 l-208 0 l0 667 l208 0 l0 -57 l-146 0 l0 -235 l142 0 l0 -57 l-142 0 l0 -261 l146 0 l0 -57 ZM274 727 l-224 0 l0 55 l224 0 l0 -55 Z" /><glyph glyph-name="emacron" unicode="&#x113;" d="M219 152 l57 0 q-7 -159 -113 -159 q-130 0 -130 229 q0 37 5 71.5 q5 34.5 17 73.5 q12 39 39 63 q27 24 65 24 q37 0 63 -21.5 q26 -21.5 37.5 -57 q11.5 -35.5 16 -68 q4.5 -32.5 4.5 -67.5 q0 -4 -0.5 -14 q-0.5 -10 -0.5 -14 l-189 0 l0 -10 q0 -22 2.5 -44 q2.5 -22 9 -50 q6.5 -28 22 -45 q15.5 -17 37.5 -17 q55 0 58 106 ZM91 260 l133 0 q-7 142 -64 142 q-62 0 -69 -142 ZM271 520 l-224 0 l0 55 l224 0 l0 -55 Z" /><glyph glyph-name="Edotaccent" unicode="&#x116;" d="M263 0 l-208 0 l0 667 l208 0 l0 -57 l-146 0 l0 -235 l142 0 l0 -57 l-142 0 l0 -261 l146 0 l0 -57 ZM194.5 798 q13.5 -13 13.5 -32 q0 -19 -13.5 -32.5 q-13.5 -13.5 -32.5 -13.5 q-19 0 -32 13.5 q-13 13.5 -13 32.5 q0 19 13 32 q13 13 32 13 q19 0 32.5 -13 Z" /><glyph glyph-name="edotaccent" unicode="&#x117;" d="M219 152 l57 0 q-7 -159 -113 -159 q-130 0 -130 229 q0 37 5 71.5 q5 34.5 17 73.5 q12 39 39 63 q27 24 65 24 q37 0 63 -21.5 q26 -21.5 37.5 -57 q11.5 -35.5 16 -68 q4.5 -32.5 4.5 -67.5 q0 -4 -0.5 -14 q-0.5 -10 -0.5 -14 l-189 0 l0 -10 q0 -22 2.5 -44 q2.5 -22 9 -50 q6.5 -28 22 -45 q15.5 -17 37.5 -17 q55 0 58 106 ZM91 260 l133 0 q-7 142 -64 142 q-62 0 -69 -142 ZM191.5 591 q13.5 -13 13.5 -32 q0 -19 -13.5 -32.5 q-13.5 -13.5 -32.5 -13.5 q-19 0 -32 13.5 q-13 13.5 -13 32.5 q0 19 13 32 q13 13 32 13 q19 0 32.5 -13 Z" /><glyph glyph-name="Eogonek" unicode="&#x118;" d="M259 318 l-142 0 l0 -261 l146 0 l0 -57 l-14 0 q-12 -10 -35 -33 q-17 -19 -17 -38 q0 -14 9 -23 q9 -9 26 -9 q16 0 31 8 l0 -48 q-20 -9 -44 -9 q-35 0 -54 20 q-17 17 -17 44 q0 26 18 51 q12 16 37 37 l-148 0 l0 667 l208 0 l0 -57 l-146 0 l0 -235 l142 0 l0 -57 Z" /><glyph glyph-name="eogonek" unicode="&#x119;" d="M219 152 l57 0 q-1 -69 -32 -119 q-8 -13 -24.5 -32.5 q-16.5 -19.5 -22.5 -27.5 q-19 -25 -19 -43 q0 -15 10 -24 q10 -8 23 -8 q17 0 35 10 l0 -47 q-20 -11 -46 -11 q-27 0 -47 14 q-23 17 -23 47 q0 23 15 46 q3 6 14.5 20 q11.5 14 12.5 16 q-55 0 -87 33 q-52 53 -52 191 q0 152 58 209 q28 28 70 28 q39 0 68 -29 q52 -52 52 -171 q0 -16 -2 -42 l-189 0 l0 -4 q0 -48 8 -88 q9 -41 26 -58 q16 -16 39 -16 q19 0 31 14 q25 28 25 92 ZM91 260 l133 0 q-1 35 -9.5 74.5 q-8.5 39.5 -23.5 54.5 q-13 13 -31 13 q-17 0 -32 -13 q-17 -15 -26.5 -54 q-9.5 -39 -10.5 -75 Z" /><glyph glyph-name="Ecaron" unicode="&#x11a;" d="M263 0 l-208 0 l0 667 l208 0 l0 -57 l-146 0 l0 -235 l142 0 l0 -57 l-142 0 l0 -261 l146 0 l0 -57 ZM278 821 l-114 -107 l-112 107 l38 38 l74 -69 l74 69 l40 -38 Z" /><glyph glyph-name="ecaron" unicode="&#x11b;" d="M219 152 l57 0 q-7 -159 -113 -159 q-130 0 -130 229 q0 37 5 71.5 q5 34.5 17 73.5 q12 39 39 63 q27 24 65 24 q37 0 63 -21.5 q26 -21.5 37.5 -57 q11.5 -35.5 16 -68 q4.5 -32.5 4.5 -67.5 q0 -4 -0.5 -14 q-0.5 -10 -0.5 -14 l-189 0 l0 -10 q0 -22 2.5 -44 q2.5 -22 9 -50 q6.5 -28 22 -45 q15.5 -17 37.5 -17 q55 0 58 106 ZM91 260 l133 0 q-7 142 -64 142 q-62 0 -69 -142 ZM272 614 l-114 -107 l-112 107 l38 38 l74 -69 l74 69 l40 -38 Z" /><glyph glyph-name="Gcircumflex" unicode="&#x11c;" d="M336 352 l0 -134 q0 -65 -5 -97 q-9 -60 -44 -95 q-35 -35 -93 -35 q-78 0 -115 64 q-41 71 -41 295 q0 32 0.5 54.5 q0.5 22.5 4 59.5 q3.5 37 9.5 63 q6 26 18 56 q12 30 28.5 49 q16.5 19 42.5 31.5 q26 12.5 59 12.5 q57 0 88 -33 q31 -33 47 -93 l-61 -24 q-17 90 -74 90 q-99 0 -99 -243 q0 -196 21 -257 q22 -65 76 -65 q26 0 42.5 13 q16.5 13 23 37 q6.5 24 8.5 42.5 q2 18.5 2 45.5 l0 106 l-91 0 l0 57 l153 0 ZM313 752 l-40 -38 l-74 69 l-74 -69 l-38 38 l112 107 l114 -107 Z" /><glyph glyph-name="gcircumflex" unicode="&#x11d;" d="M281 447 l0 -496 q0 -131 -117 -131 q-57 0 -86.5 33 q-29.5 33 -29.5 91 q0 12 1 17 l57 0 q0 -42 11.5 -65 q11.5 -23 49.5 -23 q20 0 32 7 q12 7 17 21 q5 14 6.5 26.5 q1.5 12.5 1.5 32.5 l0 72 q-29 -32 -71 -32 q-27 0 -47.5 11 q-20.5 11 -32.5 32.5 q-12 21.5 -19.5 42 q-7.5 20.5 -10.5 52 q-3 31.5 -3.5 49.5 q-0.5 18 -0.5 46 q0 221 111 221 q44 0 74 -38 l0 31 l57 0 ZM230 250 q0 158 -68 158 q-40 0 -52.5 -53 q-12.5 -53 -12.5 -143 q0 -166 70 -166 q52 0 60 96 q3 37 3 108 ZM281 545 l-40 -38 l-74 69 l-74 -69 l-38 38 l112 107 l114 -107 Z" /><glyph glyph-name="Gbreve" unicode="&#x11e;" d="M336 352 l0 -134 q0 -65 -5 -97 q-9 -60 -44 -95 q-35 -35 -93 -35 q-78 0 -115 64 q-41 71 -41 295 q0 32 0.5 54.5 q0.5 22.5 4 59.5 q3.5 37 9.5 63 q6 26 18 56 q12 30 28.5 49 q16.5 19 42.5 31.5 q26 12.5 59 12.5 q57 0 88 -33 q31 -33 47 -93 l-61 -24 q-17 90 -74 90 q-99 0 -99 -243 q0 -196 21 -257 q22 -65 76 -65 q26 0 42.5 13 q16.5 13 23 37 q6.5 24 8.5 42.5 q2 18.5 2 45.5 l0 106 l-91 0 l0 57 l153 0 ZM275 810 l48 0 q-5 -46 -40 -69 q-35 -23 -83 -23 q-48 0 -83 23 q-35 23 -40 69 l48 0 q17 -41 75 -41 q58 0 75 41 Z" /><glyph glyph-name="gbreve" unicode="&#x11f;" d="M281 447 l0 -496 q0 -131 -117 -131 q-57 0 -86.5 33 q-29.5 33 -29.5 91 q0 12 1 17 l57 0 q0 -42 11.5 -65 q11.5 -23 49.5 -23 q20 0 32 7 q12 7 17 21 q5 14 6.5 26.5 q1.5 12.5 1.5 32.5 l0 72 q-29 -32 -71 -32 q-27 0 -47.5 11 q-20.5 11 -32.5 32.5 q-12 21.5 -19.5 42 q-7.5 20.5 -10.5 52 q-3 31.5 -3.5 49.5 q-0.5 18 -0.5 46 q0 221 111 221 q44 0 74 -38 l0 31 l57 0 ZM230 250 q0 158 -68 158 q-40 0 -52.5 -53 q-12.5 -53 -12.5 -143 q0 -166 70 -166 q52 0 60 96 q3 37 3 108 ZM243 599 l48 0 q-5 -46 -40 -69 q-35 -23 -83 -23 q-48 0 -83 23 q-35 23 -40 69 l48 0 q17 -41 75 -41 q58 0 75 41 Z" /><glyph glyph-name="Gdotaccent" unicode="&#x120;" d="M336 352 l0 -134 q0 -65 -5 -97 q-9 -60 -44 -95 q-35 -35 -93 -35 q-78 0 -115 64 q-41 71 -41 295 q0 32 0.5 54.5 q0.5 22.5 4 59.5 q3.5 37 9.5 63 q6 26 18 56 q12 30 28.5 49 q16.5 19 42.5 31.5 q26 12.5 59 12.5 q57 0 88 -33 q31 -33 47 -93 l-61 -24 q-17 90 -74 90 q-99 0 -99 -243 q0 -196 21 -257 q22 -65 76 -65 q26 0 42.5 13 q16.5 13 23 37 q6.5 24 8.5 42.5 q2 18.5 2 45.5 l0 106 l-91 0 l0 57 l153 0 ZM226.5 798 q13.5 -13 13.5 -32 q0 -19 -13.5 -32.5 q-13.5 -13.5 -32.5 -13.5 q-19 0 -32 13.5 q-13 13.5 -13 32.5 q0 19 13 32 q13 13 32 13 q19 0 32.5 -13 Z" /><glyph glyph-name="gdotaccent" unicode="&#x121;" d="M281 447 l0 -496 q0 -131 -117 -131 q-57 0 -86.5 33 q-29.5 33 -29.5 91 q0 12 1 17 l57 0 q0 -42 11.5 -65 q11.5 -23 49.5 -23 q20 0 32 7 q12 7 17 21 q5 14 6.5 26.5 q1.5 12.5 1.5 32.5 l0 72 q-29 -32 -71 -32 q-27 0 -47.5 11 q-20.5 11 -32.5 32.5 q-12 21.5 -19.5 42 q-7.5 20.5 -10.5 52 q-3 31.5 -3.5 49.5 q-0.5 18 -0.5 46 q0 221 111 221 q44 0 74 -38 l0 31 l57 0 ZM230 250 q0 158 -68 158 q-40 0 -52.5 -53 q-12.5 -53 -12.5 -143 q0 -166 70 -166 q52 0 60 96 q3 37 3 108 ZM186.5 591 q13.5 -13 13.5 -32 q0 -19 -13.5 -32.5 q-13.5 -13.5 -32.5 -13.5 q-19 0 -32 13.5 q-13 13.5 -13 32.5 q0 19 13 32 q13 13 32 13 q19 0 32.5 -13 Z" /><glyph glyph-name="Gcommaaccent" unicode="&#x122;" d="M336 352 l0 -134 q0 -65 -5 -97 q-9 -60 -44 -95 q-35 -35 -93 -35 q-78 0 -115 64 q-41 71 -41 295 q0 32 0.5 54.5 q0.5 22.5 4 59.5 q3.5 37 9.5 63 q6 26 18 56 q12 30 28.5 49 q16.5 19 42.5 31.5 q26 12.5 59 12.5 q57 0 88 -33 q31 -33 47 -93 l-61 -24 q-17 90 -74 90 q-99 0 -99 -243 q0 -196 21 -257 q22 -65 76 -65 q26 0 42.5 13 q16.5 13 23 37 q6.5 24 8.5 42.5 q2 18.5 2 45.5 l0 106 l-91 0 l0 57 l153 0 ZM245 -77 l-72 -154 l-39 19 l53 163 l58 -28 Z" /><glyph glyph-name="gcommaaccent" unicode="&#x123;" d="M281 447 l0 -496 q0 -131 -117 -131 q-57 0 -86.5 33 q-29.5 33 -29.5 91 q0 12 1 17 l57 0 q0 -42 11.5 -65 q11.5 -23 49.5 -23 q20 0 32 7 q12 7 17 21 q5 14 6.5 26.5 q1.5 12.5 1.5 32.5 l0 72 q-29 -32 -71 -32 q-27 0 -47.5 11 q-20.5 11 -32.5 32.5 q-12 21.5 -19.5 42 q-7.5 20.5 -10.5 52 q-3 31.5 -3.5 49.5 q-0.5 18 -0.5 46 q0 221 111 221 q44 0 74 -38 l0 31 l57 0 ZM230 250 q0 158 -68 158 q-40 0 -52.5 -53 q-12.5 -53 -12.5 -143 q0 -166 70 -166 q52 0 60 96 q3 37 3 108 ZM109 530 l72 154 l39 -19 l-53 -163 l-58 28 Z" /><glyph glyph-name="Hcircumflex" unicode="&#x124;" d="M331 0 l-62 0 l0 344 l-152 0 l0 -344 l-62 0 l0 667 l62 0 l0 -266 l152 0 l0 266 l62 0 l0 -667 ZM306 752 l-40 -38 l-74 69 l-74 -69 l-38 38 l112 107 l114 -107 Z" /><glyph glyph-name="hcircumflex" unicode="&#x125;" d="M280 0 l-56 0 l0 325 q0 18 -1 29 q-1 11 -5.5 25.5 q-4.5 14.5 -15.5 21.5 q-11 7 -28 7 q-35 0 -53 -29 q-15 -23 -15 -78 l0 -301 l-56 0 l0 729 l56 0 l0 -318 q38 43 87 43 q50 0 68.5 -30.5 q18.5 -30.5 18.5 -84.5 l0 -339 ZM193 775 l-40 -38 l-74 69 l-74 -69 l-38 38 l112 107 l114 -107 Z" /><glyph glyph-name="Hbar" unicode="&#x126;" d="M331 0 l-62 0 l0 344 l-152 0 l0 -344 l-62 0 l0 562 l-50 0 l0 47 l50 0 l0 58 l62 0 l0 -58 l152 0 l0 58 l62 0 l0 -58 l50 0 l0 -47 l-50 0 l0 -562 ZM269 562 l-152 0 l0 -161 l152 0 l0 161 Z" /><glyph glyph-name="hbar" unicode="&#x127;" d="M290 0 l-56 0 l0 297 q0 20 -1 30 q-1 10 -5 26 q-4 16 -15 23.5 q-11 7.5 -29 7.5 q-35 0 -54 -29 q-15 -23 -15 -78 l0 -277 l-56 0 l0 532 l-49 0 l0 52 l49 0 l0 145 l56 0 l0 -145 l104 0 l0 -52 l-104 0 l0 -145 q40 43 87 43 q50 0 69 -30.5 q19 -30.5 19 -84.5 l0 -315 Z" /><glyph glyph-name="Imacron" unicode="&#x12a;" d="M117 0 l-62 0 l0 667 l62 0 l0 -667 ZM196 727 l-224 0 l0 55 l224 0 l0 -55 Z" /><glyph glyph-name="imacron" unicode="&#x12b;" d="M106 0 l-57 0 l0 447 l57 0 l0 -447 ZM191 520 l-224 0 l0 55 l224 0 l0 -55 Z" /><glyph glyph-name="Iogonek" unicode="&#x12e;" d="M55 667 l62 0 l0 -667 q-12 -10 -35 -33 q-17 -19 -17 -38 q0 -14 9 -23 q9 -9 26 -9 q16 0 31 8 l0 -48 q-20 -9 -44 -9 q-35 0 -54 20 q-17 17 -17 44 q0 26 18 51 q12 16 37 37 l-16 0 l0 667 Z" /><glyph glyph-name="iogonek" unicode="&#x12f;" d="M50 447 l56 0 l0 -447 q-18 -17 -31 -35 q-14 -21 -14 -37 q0 -14 10 -22 q10 -8 23 -8 q17 0 35 10 l0 -47 q-21 -11 -44 -11 q-31 0 -49 14 q-23 18 -23 48 q0 20 16 47 q11 19 32 41 l-11 0 l0 447 ZM48 559 q-12 13 -12 29 q0 16 12 29 q12 13 29 13 q18 0 30.5 -12.5 q12.5 -12.5 12.5 -29.5 q0 -17 -12.5 -29.5 q-12.5 -12.5 -30.5 -12.5 q-17 0 -29 13 Z" /><glyph glyph-name="Idotaccent" unicode="&#x130;" d="M117 0 l-62 0 l0 667 l62 0 l0 -667 ZM118.5 798 q13.5 -13 13.5 -32 q0 -19 -13.5 -32.5 q-13.5 -13.5 -32.5 -13.5 q-19 0 -32 13.5 q-13 13.5 -13 32.5 q0 19 13 32 q13 13 32 13 q19 0 32.5 -13 Z" /><glyph glyph-name="dotlessi" unicode="&#x131;" d="M106 0 l-57 0 l0 447 l57 0 l0 -447 Z" /><glyph glyph-name="Jcircumflex" unicode="&#x134;" d="M169 667 l0 -571 q0 -19 -1 -29 q-7 -77 -95 -77 q-34 0 -72 18 l0 64 q33 -28 62 -28 q20 0 30.5 11.5 q10.5 11.5 12 23 q1.5 11.5 1.5 32.5 l0 556 l62 0 ZM246 752 l-40 -38 l-74 69 l-74 -69 l-38 38 l112 107 l114 -107 Z" /><glyph glyph-name="jcircumflex" unicode="&#x135;" d="M110 -180 l-58 0 l0 627 l58 0 l0 -627 ZM194 545 l-40 -38 l-74 69 l-74 -69 l-38 38 l112 107 l114 -107 Z" /><glyph glyph-name="Kcommaaccent" unicode="&#x136;" d="M321 0 l-70 0 l-134 336 l0 -336 l-62 0 l0 667 l62 0 l0 -303 l134 303 l69 0 l-144 -318 l145 -349 ZM231 -77 l-72 -154 l-39 19 l53 163 l58 -28 Z" /><glyph glyph-name="kcommaaccent" unicode="&#x137;" d="M316 0 l-71 0 l-139 214 l0 -214 l-56 0 l0 729 l56 0 l0 -464 l112 182 l63 0 l-128 -200 l163 -247 ZM221 -77 l-72 -154 l-39 19 l53 163 l58 -28 Z" /><glyph glyph-name="Lacute" unicode="&#x139;" d="M261 0 l-206 0 l0 667 l62 0 l0 -610 l144 0 l0 -57 ZM215 817 l-115 -103 l-35 26 l96 120 l54 -43 Z" /><glyph glyph-name="lacute" unicode="&#x13a;" d="M107 0 l-57 0 l0 729 l57 0 l0 -729 ZM194 870 l-115 -103 l-35 26 l96 120 l54 -43 Z" /><glyph glyph-name="Lcommaaccent" unicode="&#x13b;" d="M261 0 l-206 0 l0 667 l62 0 l0 -610 l144 0 l0 -57 ZM206 -77 l-72 -154 l-39 19 l53 163 l58 -28 Z" /><glyph glyph-name="lcommaaccent" unicode="&#x13c;" d="M107 0 l-57 0 l0 729 l57 0 l0 -729 ZM127 -77 l-72 -154 l-39 19 l53 163 l58 -28 Z" /><glyph glyph-name="Lcaron" unicode="&#x13d;" d="M261 0 l-206 0 l0 667 l62 0 l0 -610 l144 0 l0 -57 ZM282 648 l-83 -186 l-39 19 l64 195 l58 -28 Z" /><glyph glyph-name="lcaron" unicode="&#x13e;" d="M107 0 l-57 0 l0 729 l57 0 l0 -729 ZM252 648 l-74 -164 l-39 19 l55 173 l58 -28 Z" /><glyph glyph-name="Ldot" unicode="&#x13f;" d="M261 0 l-206 0 l0 667 l62 0 l0 -610 l144 0 l0 -57 ZM244.5 366 q13.5 -13 13.5 -32 q0 -19 -13.5 -32.5 q-13.5 -13.5 -32.5 -13.5 q-19 0 -32 13.5 q-13 13.5 -13 32.5 q0 19 13 32 q13 13 32 13 q19 0 32.5 -13 Z" /><glyph glyph-name="ldot" unicode="&#x140;" d="M107 0 l-57 0 l0 729 l57 0 l0 -729 ZM224.5 397 q13.5 -13 13.5 -32 q0 -19 -13.5 -32.5 q-13.5 -13.5 -32.5 -13.5 q-19 0 -32 13.5 q-13 13.5 -13 32.5 q0 19 13 32 q13 13 32 13 q19 0 32.5 -13 Z" /><glyph glyph-name="Lslash" unicode="&#x141;" d="M262 0 l-206 0 l0 280 l-49 -70 l0 64 l49 70 l0 323 l62 0 l0 -273 l86 104 l0 -64 l-86 -104 l0 -273 l144 0 l0 -57 Z" /><glyph glyph-name="lslash" unicode="&#x142;" d="M164 458 l-50 -69 l0 -389 l-57 0 l0 335 l-50 -70 l0 66 l50 69 l0 329 l57 0 l0 -275 l50 69 l0 -65 Z" /><glyph glyph-name="Nacute" unicode="&#x143;" d="M332 0 l-54 0 l-148 440 q-16 48 -27 94 q6 -52 6 -105 l0 -429 l-54 0 l0 667 l54 0 l151 -453 q5 -15 14 -44.5 q9 -29.5 10 -34.5 q-6 41 -6 82 l0 450 l54 0 l0 -667 ZM299 817 l-115 -103 l-35 26 l96 120 l54 -43 Z" /><glyph glyph-name="nacute" unicode="&#x144;" d="M280 0 l-56 0 l0 325 q0 18 -1 29 q-1 11 -5.5 25.5 q-4.5 14.5 -15.5 21.5 q-11 7 -28 7 q-35 0 -53 -29 q-15 -22 -15 -78 l0 -301 l-56 0 l0 447 l56 0 l0 -36 q38 43 87 43 q51 0 69 -33.5 q18 -33.5 18 -89.5 l0 -331 ZM282 610 l-115 -103 l-35 26 l96 120 l54 -43 Z" /><glyph glyph-name="Ncommaaccent" unicode="&#x145;" d="M332 0 l-54 0 l-148 440 q-16 48 -27 94 q6 -52 6 -105 l0 -429 l-54 0 l0 667 l54 0 l151 -453 q5 -15 14 -44.5 q9 -29.5 10 -34.5 q-6 41 -6 82 l0 450 l54 0 l0 -667 ZM241 -77 l-72 -154 l-39 19 l53 163 l58 -28 Z" /><glyph glyph-name="ncommaaccent" unicode="&#x146;" d="M280 0 l-56 0 l0 325 q0 18 -1 29 q-1 11 -5.5 25.5 q-4.5 14.5 -15.5 21.5 q-11 7 -28 7 q-35 0 -53 -29 q-15 -22 -15 -78 l0 -301 l-56 0 l0 447 l56 0 l0 -36 q38 43 87 43 q51 0 69 -33.5 q18 -33.5 18 -89.5 l0 -331 ZM215 -77 l-72 -154 l-39 19 l53 163 l58 -28 Z" /><glyph glyph-name="Ncaron" unicode="&#x147;" d="M332 0 l-54 0 l-148 440 q-16 48 -27 94 q6 -52 6 -105 l0 -429 l-54 0 l0 667 l54 0 l151 -453 q5 -15 14 -44.5 q9 -29.5 10 -34.5 q-6 41 -6 82 l0 450 l54 0 l0 -667 ZM307 821 l-114 -107 l-112 107 l38 38 l74 -69 l74 69 l40 -38 Z" /><glyph glyph-name="ncaron" unicode="&#x148;" d="M280 0 l-56 0 l0 325 q0 18 -1 29 q-1 11 -5.5 25.5 q-4.5 14.5 -15.5 21.5 q-11 7 -28 7 q-35 0 -53 -29 q-15 -22 -15 -78 l0 -301 l-56 0 l0 447 l56 0 l0 -36 q38 43 87 43 q51 0 69 -33.5 q18 -33.5 18 -89.5 l0 -331 ZM288 614 l-114 -107 l-112 107 l38 38 l74 -69 l74 69 l40 -38 Z" /><glyph glyph-name="Omacron" unicode="&#x14c;" d="M366 336 q0 -38 -1 -65.5 q-1 -27.5 -5.5 -72.5 q-4.5 -45 -15.5 -77.5 q-11 -32.5 -28 -64 q-17 -31.5 -46 -48.5 q-29 -17 -67 -17 q-165 0 -165 342 q0 343 164 343 q164 0 164 -340 ZM303 358 q0 258 -100 258 q-102 0 -102 -282 q0 -283 102 -283 q80 0 94 155 q6 60 6 152 ZM314 727 l-224 0 l0 55 l224 0 l0 -55 Z" /><glyph glyph-name="omacron" unicode="&#x14d;" d="M289 221 q0 -228 -125 -228 q-41 0 -69 23 q-28 23 -40.5 61 q-12.5 38 -17 73 q-4.5 35 -4.5 74 q0 30 2.5 57.5 q2.5 27.5 10.5 60.5 q8 33 22 56.5 q14 23.5 38.5 39.5 q24.5 16 57.5 16 q125 0 125 -233 ZM163 46 q68 0 68 178 q0 178 -68 178 q-71 0 -71 -183 q0 -173 71 -173 ZM276 520 l-224 0 l0 55 l224 0 l0 -55 Z" /><glyph glyph-name="Obreve" unicode="&#x14e;" d="M366 336 q0 -38 -1 -65.5 q-1 -27.5 -5.5 -72.5 q-4.5 -45 -15.5 -77.5 q-11 -32.5 -28 -64 q-17 -31.5 -46 -48.5 q-29 -17 -67 -17 q-165 0 -165 342 q0 343 164 343 q164 0 164 -340 ZM303 358 q0 258 -100 258 q-102 0 -102 -282 q0 -283 102 -283 q80 0 94 155 q6 60 6 152 ZM277 810 l48 0 q-5 -46 -40 -69 q-35 -23 -83 -23 q-48 0 -83 23 q-35 23 -40 69 l48 0 q17 -41 75 -41 q58 0 75 41 Z" /><glyph glyph-name="obreve" unicode="&#x14f;" d="M289 221 q0 -228 -125 -228 q-41 0 -69 23 q-28 23 -40.5 61 q-12.5 38 -17 73 q-4.5 35 -4.5 74 q0 30 2.5 57.5 q2.5 27.5 10.5 60.5 q8 33 22 56.5 q14 23.5 38.5 39.5 q24.5 16 57.5 16 q125 0 125 -233 ZM163 46 q68 0 68 178 q0 178 -68 178 q-71 0 -71 -183 q0 -173 71 -173 ZM239 599 l48 0 q-5 -46 -40 -69 q-35 -23 -83 -23 q-48 0 -83 23 q-35 23 -40 69 l48 0 q17 -41 75 -41 q58 0 75 41 Z" /><glyph glyph-name="Ohungarumlaut" unicode="&#x150;" d="M366 336 q0 -38 -1 -65.5 q-1 -27.5 -5.5 -72.5 q-4.5 -45 -15.5 -77.5 q-11 -32.5 -28 -64 q-17 -31.5 -46 -48.5 q-29 -17 -67 -17 q-165 0 -165 342 q0 343 164 343 q164 0 164 -340 ZM303 358 q0 258 -100 258 q-102 0 -102 -282 q0 -283 102 -283 q80 0 94 155 q6 60 6 152 ZM333 830 l-70 -116 l-37 13 l51 125 l56 -22 ZM230 830 l-69 -116 l-37 13 l50 125 l56 -22 Z" /><glyph glyph-name="ohungarumlaut" unicode="&#x151;" d="M289 221 q0 -228 -125 -228 q-41 0 -69 23 q-28 23 -40.5 61 q-12.5 38 -17 73 q-4.5 35 -4.5 74 q0 30 2.5 57.5 q2.5 27.5 10.5 60.5 q8 33 22 56.5 q14 23.5 38.5 39.5 q24.5 16 57.5 16 q125 0 125 -233 ZM163 46 q68 0 68 178 q0 178 -68 178 q-71 0 -71 -183 q0 -173 71 -173 ZM288 623 l-70 -116 l-37 13 l51 125 l56 -22 ZM185 623 l-69 -116 l-37 13 l50 125 l56 -22 Z" /><glyph glyph-name="OE" unicode="&#x152;" d="M503 0 l-206 0 l0 69 q-33 -79 -106 -79 q-153 0 -153 350 q0 336 158 336 q64 0 101 -69 l0 60 l206 0 l0 -57 l-147 0 l0 -235 l143 0 l0 -57 l-143 0 l0 -261 l147 0 l0 -57 ZM295 302 q0 99 -9 174 q-16 140 -87 140 q-40 0 -62 -43 q-36 -69 -36 -268 q0 -254 97 -254 q97 0 97 251 Z" /><glyph glyph-name="oe" unicode="&#x153;" d="M469 214 l-192 0 q3 -168 77 -168 q53 0 53 108 l52 0 q1 -9 1 -27 q0 -52 -29.5 -93 q-29.5 -41 -79.5 -41 q-39 0 -64.5 27 q-25.5 27 -36.5 68 q-9 -41 -33 -68 q-24 -27 -62 -27 q-37 0 -63 24.5 q-26 24.5 -38 64 q-12 39.5 -16.5 74.5 q-4.5 35 -4.5 71 q0 35 5 69.5 q5 34.5 17 72.5 q12 38 37.5 61.5 q25.5 23.5 62.5 23.5 q38 0 62 -27 q24 -27 33 -67 q9 40 36 67 q27 27 66 27 q117 0 117 -240 ZM415 261 l0 8 q0 18 -3 38.5 q-3 20.5 -10 43 q-7 22.5 -21.5 37 q-14.5 14.5 -33.5 14.5 q-21 0 -35.5 -15.5 q-14.5 -15.5 -21.5 -39.5 q-7 -24 -9.5 -45 q-2.5 -21 -2.5 -41 l137 0 ZM224 220 q0 24 -2 48 q-2 24 -8 58 q-6 34 -21 55 q-15 21 -37 21 q-22 0 -37 -20 q-15 -20 -21 -51 q-6 -31 -8.5 -55 q-2.5 -24 -2.5 -46 q0 -23 2 -48.5 q2 -25.5 8.5 -59 q6.5 -33.5 22 -55 q15.5 -21.5 37.5 -21.5 q21 0 35.5 20.5 q14.5 20.5 20.5 52 q6 31.5 8.5 55.5 q2.5 24 2.5 46 Z" /><glyph glyph-name="Racute" unicode="&#x154;" d="M353 0 l-71 0 l-155 326 l0 -326 l-68 0 l0 667 l84 0 q80 0 115 -19 q72 -38 72 -160 q0 -158 -132 -168 l155 -320 ZM127 375 l41 0 q56 0 74.5 29 q18.5 29 18.5 88 q0 63 -20.5 90.5 q-20.5 27.5 -80.5 27.5 l-33 0 l0 -235 ZM285 817 l-115 -103 l-35 26 l96 120 l54 -43 Z" /><glyph glyph-name="racute" unicode="&#x155;" d="M182 454 l0 -65 q-22 0 -37 -7.5 q-15 -7.5 -22.5 -17 q-7.5 -9.5 -11.5 -27.5 q-4 -18 -4.5 -30.5 q-0.5 -12.5 -0.5 -35.5 l0 -271 l-56 0 l0 447 l56 0 l0 -58 q28 63 76 65 ZM225 610 l-115 -103 l-35 26 l96 120 l54 -43 Z" /><glyph glyph-name="Rcommaaccent" unicode="&#x156;" d="M353 0 l-71 0 l-155 326 l0 -326 l-68 0 l0 667 l84 0 q80 0 115 -19 q72 -38 72 -160 q0 -158 -132 -168 l155 -320 ZM127 375 l41 0 q56 0 74.5 29 q18.5 29 18.5 88 q0 63 -20.5 90.5 q-20.5 27.5 -80.5 27.5 l-33 0 l0 -235 ZM251 -77 l-72 -154 l-39 19 l53 163 l58 -28 Z" /><glyph glyph-name="rcommaaccent" unicode="&#x157;" d="M182 454 l0 -65 q-22 0 -37 -7.5 q-15 -7.5 -22.5 -17 q-7.5 -9.5 -11.5 -27.5 q-4 -18 -4.5 -30.5 q-0.5 -12.5 -0.5 -35.5 l0 -271 l-56 0 l0 447 l56 0 l0 -58 q28 63 76 65 ZM141 -77 l-72 -154 l-39 19 l53 163 l58 -28 Z" /><glyph glyph-name="Rcaron" unicode="&#x158;" d="M353 0 l-71 0 l-155 326 l0 -326 l-68 0 l0 667 l84 0 q80 0 115 -19 q72 -38 72 -160 q0 -158 -132 -168 l155 -320 ZM127 375 l41 0 q56 0 74.5 29 q18.5 29 18.5 88 q0 63 -20.5 90.5 q-20.5 27.5 -80.5 27.5 l-33 0 l0 -235 ZM283 821 l-114 -107 l-112 107 l38 38 l74 -69 l74 69 l40 -38 Z" /><glyph glyph-name="rcaron" unicode="&#x159;" d="M182 454 l0 -65 q-22 0 -37 -7.5 q-15 -7.5 -22.5 -17 q-7.5 -9.5 -11.5 -27.5 q-4 -18 -4.5 -30.5 q-0.5 -12.5 -0.5 -35.5 l0 -271 l-56 0 l0 447 l56 0 l0 -58 q28 63 76 65 ZM223 614 l-114 -107 l-112 107 l38 38 l74 -69 l74 69 l40 -38 Z" /><glyph glyph-name="Sacute" unicode="&#x15a;" d="M278 640 l0 -78 q-46 54 -99 54 q-44 0 -70 -32 q-26 -32 -26 -77 q0 -42 23.5 -74.5 q23.5 -32.5 57 -55.5 q33.5 -23 67 -47 q33.5 -24 57 -62.5 q23.5 -38.5 23.5 -89.5 q0 -75 -46.5 -131.5 q-46.5 -56.5 -120.5 -56.5 q-57 0 -105 35 l0 80 q52 -54 108 -54 q46 0 73.5 35.5 q27.5 35.5 27.5 83.5 q0 42 -23.5 74 q-23.5 32 -57 54.5 q-33.5 22.5 -67 47 q-33.5 24.5 -57 63 q-23.5 38.5 -23.5 90.5 q0 72 42 124.5 q42 52.5 112 52.5 q54 0 104 -36 ZM290 817 l-115 -103 l-35 26 l96 120 l54 -43 Z" /><glyph glyph-name="sacute" unicode="&#x15b;" d="M219 425 l0 -69 q-38 46 -77 46 q-24 0 -39.5 -17 q-15.5 -17 -15.5 -42 q0 -24 15 -44.5 q15 -20.5 36 -37.5 q21 -17 42 -35.5 q21 -18.5 36 -46 q15 -27.5 15 -60.5 q0 -53 -34 -89.5 q-34 -36.5 -86 -36.5 q-44 0 -83 31 l0 66 q42 -44 79 -44 q29 0 47 20 q18 20 18 49 q0 24 -15 46.5 q-15 22.5 -36 40.5 q-21 18 -42 37.5 q-21 19.5 -36 45.5 q-15 26 -15 56 q0 49 31 81 q31 32 80 32 q40 0 80 -29 ZM241 610 l-115 -103 l-35 26 l96 120 l54 -43 Z" /><glyph glyph-name="Scircumflex" unicode="&#x15c;" d="M278 640 l0 -78 q-46 54 -99 54 q-44 0 -70 -32 q-26 -32 -26 -77 q0 -42 23.5 -74.5 q23.5 -32.5 57 -55.5 q33.5 -23 67 -47 q33.5 -24 57 -62.5 q23.5 -38.5 23.5 -89.5 q0 -75 -46.5 -131.5 q-46.5 -56.5 -120.5 -56.5 q-57 0 -105 35 l0 80 q52 -54 108 -54 q46 0 73.5 35.5 q27.5 35.5 27.5 83.5 q0 42 -23.5 74 q-23.5 32 -57 54.5 q-33.5 22.5 -67 47 q-33.5 24.5 -57 63 q-23.5 38.5 -23.5 90.5 q0 72 42 124.5 q42 52.5 112 52.5 q54 0 104 -36 ZM286 752 l-40 -38 l-74 69 l-74 -69 l-38 38 l112 107 l114 -107 Z" /><glyph glyph-name="scircumflex" unicode="&#x15d;" d="M219 425 l0 -69 q-38 46 -77 46 q-24 0 -39.5 -17 q-15.5 -17 -15.5 -42 q0 -24 15 -44.5 q15 -20.5 36 -37.5 q21 -17 42 -35.5 q21 -18.5 36 -46 q15 -27.5 15 -60.5 q0 -53 -34 -89.5 q-34 -36.5 -86 -36.5 q-44 0 -83 31 l0 66 q42 -44 79 -44 q29 0 47 20 q18 20 18 49 q0 24 -15 46.5 q-15 22.5 -36 40.5 q-21 18 -42 37.5 q-21 19.5 -36 45.5 q-15 26 -15 56 q0 49 31 81 q31 32 80 32 q40 0 80 -29 ZM253 545 l-40 -38 l-74 69 l-74 -69 l-38 38 l112 107 l114 -107 Z" /><glyph glyph-name="Scedilla" unicode="&#x15e;" d="M278 640 l0 -78 q-46 54 -99 54 q-44 0 -70 -32 q-26 -32 -26 -77 q0 -42 23.5 -74.5 q23.5 -32.5 57 -55.5 q33.5 -23 67 -47 q33.5 -24 57 -62.5 q23.5 -38.5 23.5 -89.5 q0 -75 -46.5 -131.5 q-46.5 -56.5 -120.5 -56.5 q-57 0 -105 35 l0 80 q52 -54 108 -54 q46 0 73.5 35.5 q27.5 35.5 27.5 83.5 q0 42 -23.5 74 q-23.5 32 -57 54.5 q-33.5 22.5 -67 47 q-33.5 24.5 -57 63 q-23.5 38.5 -23.5 90.5 q0 72 42 124.5 q42 52.5 112 52.5 q54 0 104 -36 ZM190 -62 l-77 -123 l-36 21 l67 127 l46 -25 Z" /><glyph glyph-name="scedilla" unicode="&#x15f;" d="M219 425 l0 -69 q-38 46 -77 46 q-24 0 -39.5 -17 q-15.5 -17 -15.5 -42 q0 -24 15 -44.5 q15 -20.5 36 -37.5 q21 -17 42 -35.5 q21 -18.5 36 -46 q15 -27.5 15 -60.5 q0 -53 -34 -89.5 q-34 -36.5 -86 -36.5 q-44 0 -83 31 l0 66 q42 -44 79 -44 q29 0 47 20 q18 20 18 49 q0 24 -15 46.5 q-15 22.5 -36 40.5 q-21 18 -42 37.5 q-21 19.5 -36 45.5 q-15 26 -15 56 q0 49 31 81 q31 32 80 32 q40 0 80 -29 ZM159 -62 l-77 -123 l-36 21 l67 127 l46 -25 Z" /><glyph glyph-name="Scaron" unicode="&#x160;" d="M278 640 l0 -78 q-46 54 -99 54 q-44 0 -70 -32 q-26 -32 -26 -77 q0 -42 23.5 -74.5 q23.5 -32.5 57 -55.5 q33.5 -23 67 -47 q33.5 -24 57 -62.5 q23.5 -38.5 23.5 -89.5 q0 -75 -46.5 -131.5 q-46.5 -56.5 -120.5 -56.5 q-57 0 -105 35 l0 80 q52 -54 108 -54 q46 0 73.5 35.5 q27.5 35.5 27.5 83.5 q0 42 -23.5 74 q-23.5 32 -57 54.5 q-33.5 22.5 -67 47 q-33.5 24.5 -57 63 q-23.5 38.5 -23.5 90.5 q0 72 42 124.5 q42 52.5 112 52.5 q54 0 104 -36 ZM286 821 l-114 -107 l-112 107 l38 38 l74 -69 l74 69 l40 -38 Z" /><glyph glyph-name="scaron" unicode="&#x161;" d="M219 425 l0 -69 q-38 46 -77 46 q-24 0 -39.5 -17 q-15.5 -17 -15.5 -42 q0 -24 15 -44.5 q15 -20.5 36 -37.5 q21 -17 42 -35.5 q21 -18.5 36 -46 q15 -27.5 15 -60.5 q0 -53 -34 -89.5 q-34 -36.5 -86 -36.5 q-44 0 -83 31 l0 66 q42 -44 79 -44 q29 0 47 20 q18 20 18 49 q0 24 -15 46.5 q-15 22.5 -36 40.5 q-21 18 -42 37.5 q-21 19.5 -36 45.5 q-15 26 -15 56 q0 49 31 81 q31 32 80 32 q40 0 80 -29 ZM253 614 l-114 -107 l-112 107 l38 38 l74 -69 l74 69 l40 -38 Z" /><glyph glyph-name="Tcedilla" unicode="&#x162;" d="M263 610 l-100 0 l0 -610 l-62 0 l0 610 l-100 0 l0 57 l262 0 l0 -57 ZM182 -62 l-77 -123 l-36 21 l67 127 l46 -25 Z" /><glyph glyph-name="tcedilla" unicode="&#x163;" d="M198 395 l-75 0 l0 -395 l-56 0 l0 395 l-48 0 l0 52 l48 0 l0 127 l56 0 l0 -127 l75 0 l0 -52 ZM142 -62 l-77 -123 l-36 21 l67 127 l46 -25 Z" /><glyph glyph-name="Tcaron" unicode="&#x164;" d="M263 610 l-100 0 l0 -610 l-62 0 l0 610 l-100 0 l0 57 l262 0 l0 -57 ZM246 821 l-114 -107 l-112 107 l38 38 l74 -69 l74 69 l40 -38 Z" /><glyph glyph-name="tcaron" unicode="&#x165;" d="M198 395 l-75 0 l0 -395 l-56 0 l0 395 l-48 0 l0 52 l48 0 l0 127 l56 0 l0 -127 l75 0 l0 -52 ZM272 648 l-74 -164 l-39 19 l55 173 l58 -28 Z" /><glyph glyph-name="Utilde" unicode="&#x168;" d="M335 667 l0 -491 q0 -58 -9 -92 q-12 -45 -47 -69 q-35 -24 -84 -24 q-48 0 -83 24 q-35 24 -48 69 q-9 30 -9 93 l0 490 l62 0 l0 -499 q0 -34 4 -56.5 q4 -22.5 22.5 -41.5 q18.5 -19 51.5 -19 q14 0 25.5 3 q11.5 3 19.5 10 q8 7 14 13 q6 6 9.5 18.5 q3.5 12.5 5.5 19.5 q2 7 3 23 q1 16 1 22.5 q0 6.5 0 24 q0 17.5 0 20.5 l0 462 l62 0 ZM253 802 l57 0 q-2 -33 -19.5 -57.5 q-17.5 -24.5 -48.5 -24.5 q-19 0 -49.5 17 q-30.5 17 -40.5 17 q-16 0 -16 -25 l-56 0 q3 33 21 55 q18 22 49 22 q17 0 47 -16 q30 -16 39 -16 q17 0 17 28 Z" /><glyph glyph-name="utilde" unicode="&#x169;" d="M282 447 l0 -338 q0 -54 -31.5 -85 q-31.5 -31 -84.5 -31 q-53 0 -84.5 31 q-31.5 31 -31.5 85 l0 338 l56 0 l0 -303 q0 -22 1.5 -35.5 q1.5 -13.5 7 -30 q5.5 -16.5 19 -24.5 q13.5 -8 34.5 -8 q21 0 33.5 9 q12.5 9 17.5 27.5 q5 18.5 6 31.5 q1 13 1 36 l0 297 l56 0 ZM226 595 l57 0 q-2 -33 -19.5 -57.5 q-17.5 -24.5 -48.5 -24.5 q-19 0 -49.5 17 q-30.5 17 -40.5 17 q-16 0 -16 -25 l-56 0 q3 33 21 55 q18 22 49 22 q17 0 47 -16 q30 -16 39 -16 q17 0 17 28 Z" /><glyph glyph-name="Umacron" unicode="&#x16a;" d="M335 667 l0 -491 q0 -58 -9 -92 q-12 -45 -47 -69 q-35 -24 -84 -24 q-48 0 -83 24 q-35 24 -48 69 q-9 30 -9 93 l0 490 l62 0 l0 -499 q0 -34 4 -56.5 q4 -22.5 22.5 -41.5 q18.5 -19 51.5 -19 q14 0 25.5 3 q11.5 3 19.5 10 q8 7 14 13 q6 6 9.5 18.5 q3.5 12.5 5.5 19.5 q2 7 3 23 q1 16 1 22.5 q0 6.5 0 24 q0 17.5 0 20.5 l0 462 l62 0 ZM307 727 l-224 0 l0 55 l224 0 l0 -55 Z" /><glyph glyph-name="umacron" unicode="&#x16b;" d="M282 447 l0 -338 q0 -54 -31.5 -85 q-31.5 -31 -84.5 -31 q-53 0 -84.5 31 q-31.5 31 -31.5 85 l0 338 l56 0 l0 -303 q0 -22 1.5 -35.5 q1.5 -13.5 7 -30 q5.5 -16.5 19 -24.5 q13.5 -8 34.5 -8 q21 0 33.5 9 q12.5 9 17.5 27.5 q5 18.5 6 31.5 q1 13 1 36 l0 297 l56 0 ZM280 520 l-224 0 l0 55 l224 0 l0 -55 Z" /><glyph glyph-name="Ubreve" unicode="&#x16c;" d="M335 667 l0 -491 q0 -58 -9 -92 q-12 -45 -47 -69 q-35 -24 -84 -24 q-48 0 -83 24 q-35 24 -48 69 q-9 30 -9 93 l0 490 l62 0 l0 -499 q0 -34 4 -56.5 q4 -22.5 22.5 -41.5 q18.5 -19 51.5 -19 q14 0 25.5 3 q11.5 3 19.5 10 q8 7 14 13 q6 6 9.5 18.5 q3.5 12.5 5.5 19.5 q2 7 3 23 q1 16 1 22.5 q0 6.5 0 24 q0 17.5 0 20.5 l0 462 l62 0 ZM270 810 l48 0 q-5 -46 -40 -69 q-35 -23 -83 -23 q-48 0 -83 23 q-35 23 -40 69 l48 0 q17 -41 75 -41 q58 0 75 41 Z" /><glyph glyph-name="ubreve" unicode="&#x16d;" d="M282 447 l0 -338 q0 -54 -31.5 -85 q-31.5 -31 -84.5 -31 q-53 0 -84.5 31 q-31.5 31 -31.5 85 l0 338 l56 0 l0 -303 q0 -22 1.5 -35.5 q1.5 -13.5 7 -30 q5.5 -16.5 19 -24.5 q13.5 -8 34.5 -8 q21 0 33.5 9 q12.5 9 17.5 27.5 q5 18.5 6 31.5 q1 13 1 36 l0 297 l56 0 ZM243 599 l48 0 q-5 -46 -40 -69 q-35 -23 -83 -23 q-48 0 -83 23 q-35 23 -40 69 l48 0 q17 -41 75 -41 q58 0 75 41 Z" /><glyph glyph-name="Uring" unicode="&#x16e;" d="M335 667 l0 -491 q0 -58 -9 -92 q-12 -45 -47 -69 q-35 -24 -84 -24 q-48 0 -83 24 q-35 24 -48 69 q-9 30 -9 93 l0 490 l62 0 l0 -499 q0 -34 4 -56.5 q4 -22.5 22.5 -41.5 q18.5 -19 51.5 -19 q14 0 25.5 3 q11.5 3 19.5 10 q8 7 14 13 q6 6 9.5 18.5 q3.5 12.5 5.5 19.5 q2 7 3 23 q1 16 1 22.5 q0 6.5 0 24 q0 17.5 0 20.5 l0 462 l62 0 ZM252.5 850.5 q23.5 -23.5 23.5 -56.5 q0 -33 -23.5 -56.5 q-23.5 -23.5 -56.5 -23.5 q-33 0 -56.5 23.5 q-23.5 23.5 -23.5 56.5 q0 33 23.5 56.5 q23.5 23.5 56.5 23.5 q33 0 56.5 -23.5 ZM224 766 q12 12 12 28 q0 16 -12 28 q-12 12 -28 12 q-16 0 -28 -12 q-12 -12 -12 -28 q0 -16 12 -28 q12 -12 28 -12 q16 0 28 12 Z" /><glyph glyph-name="uring" unicode="&#x16f;" d="M282 447 l0 -338 q0 -54 -31.5 -85 q-31.5 -31 -84.5 -31 q-53 0 -84.5 31 q-31.5 31 -31.5 85 l0 338 l56 0 l0 -303 q0 -22 1.5 -35.5 q1.5 -13.5 7 -30 q5.5 -16.5 19 -24.5 q13.5 -8 34.5 -8 q21 0 33.5 9 q12.5 9 17.5 27.5 q5 18.5 6 31.5 q1 13 1 36 l0 297 l56 0 ZM225.5 643.5 q23.5 -23.5 23.5 -56.5 q0 -33 -23.5 -56.5 q-23.5 -23.5 -56.5 -23.5 q-33 0 -56.5 23.5 q-23.5 23.5 -23.5 56.5 q0 33 23.5 56.5 q23.5 23.5 56.5 23.5 q33 0 56.5 -23.5 ZM197.5 558.5 q11.5 11.5 11.5 28.5 q0 17 -11.5 28.5 q-11.5 11.5 -28.5 11.5 q-17 0 -28.5 -11.5 q-11.5 -11.5 -11.5 -28.5 q0 -17 11.5 -28.5 q11.5 -11.5 28.5 -11.5 q17 0 28.5 11.5 Z" /><glyph glyph-name="Uhungarumlaut" unicode="&#x170;" d="M335 667 l0 -491 q0 -58 -9 -92 q-12 -45 -47 -69 q-35 -24 -84 -24 q-48 0 -83 24 q-35 24 -48 69 q-9 30 -9 93 l0 490 l62 0 l0 -499 q0 -34 4 -56.5 q4 -22.5 22.5 -41.5 q18.5 -19 51.5 -19 q14 0 25.5 3 q11.5 3 19.5 10 q8 7 14 13 q6 6 9.5 18.5 q3.5 12.5 5.5 19.5 q2 7 3 23 q1 16 1 22.5 q0 6.5 0 24 q0 17.5 0 20.5 l0 462 l62 0 ZM323 830 l-70 -116 l-37 13 l51 125 l56 -22 ZM220 830 l-69 -116 l-37 13 l50 125 l56 -22 Z" /><glyph glyph-name="uhungarumlaut" unicode="&#x171;" d="M282 447 l0 -338 q0 -54 -31.5 -85 q-31.5 -31 -84.5 -31 q-53 0 -84.5 31 q-31.5 31 -31.5 85 l0 338 l56 0 l0 -303 q0 -22 1.5 -35.5 q1.5 -13.5 7 -30 q5.5 -16.5 19 -24.5 q13.5 -8 34.5 -8 q21 0 33.5 9 q12.5 9 17.5 27.5 q5 18.5 6 31.5 q1 13 1 36 l0 297 l56 0 ZM294 623 l-70 -116 l-37 13 l51 125 l56 -22 ZM191 623 l-69 -116 l-37 13 l50 125 l56 -22 Z" /><glyph glyph-name="Uogonek" unicode="&#x172;" d="M335 667 l0 -491 q0 -84 -20 -121 q-15 -27 -49 -55 q-27 -22 -36 -33 q-16 -18 -16 -38 q0 -14 9 -23 q9 -9 26 -9 q16 0 31 8 l0 -48 q-20 -9 -44 -9 q-35 0 -54 20 q-17 17 -17 44 q0 27 18 51 q1 1 3.5 4 q2.5 3 8 9.5 q5.5 6.5 13.5 14.5 q-74 0 -110 35 q-28 26 -35.5 61 q-7.5 35 -7.5 89 l0 491 l62 0 l0 -488 q0 -87 27 -111 q20 -17 51 -17 q31 0 51 17 q27 24 27 111 l0 488 l62 0 Z" /><glyph glyph-name="uogonek" unicode="&#x173;" d="M282 447 l0 -332 q0 -49 -23 -82 q-7 -11 -23 -27 q-16 -16 -29 -31 q-22 -25 -22 -45 q0 -15 10 -24 q10 -8 23 -8 q17 0 35 10 l0 -47 q-20 -11 -46 -11 q-27 0 -47 14 q-23 17 -23 47 q0 19 15 45 q8 14 27 37 q-66 0 -99 33 q-30 30 -30 95 l0 326 l56 0 l0 -306 q0 -60 19 -80 q14 -15 41 -15 q27 0 41 15 q19 20 19 80 l0 306 l56 0 Z" /><glyph glyph-name="Ydieresis" unicode="&#x178;" d="M315 667 l-122 -378 l0 -289 l-62 0 l0 289 l-130 378 l67 0 l62 -191 q18 -56 32 -123 q8 53 29 122 l57 192 l67 0 ZM256.5 794.5 q12.5 -12.5 12.5 -30.5 q0 -18 -12.5 -31 q-12.5 -13 -30.5 -13 q-18 0 -30.5 13 q-12.5 13 -12.5 31 q0 18 12.5 30.5 q12.5 12.5 30.5 12.5 q18 0 30.5 -12.5 ZM128.5 794.5 q12.5 -12.5 12.5 -30.5 q0 -18 -12.5 -31 q-12.5 -13 -30.5 -13 q-18 0 -30.5 13 q-12.5 13 -12.5 31 q0 18 12.5 30.5 q12.5 12.5 30.5 12.5 q18 0 30.5 -12.5 Z" /><glyph glyph-name="Zacute" unicode="&#x179;" d="M271 667 l-187 -610 l169 0 l0 -57 l-245 0 l185 610 l-167 0 l0 57 l245 0 ZM255 817 l-115 -103 l-35 26 l96 120 l54 -43 Z" /><glyph glyph-name="zacute" unicode="&#x17a;" d="M266 447 l-180 -395 l151 0 l0 -52 l-232 0 l176 395 l-153 0 l0 52 l238 0 ZM253 610 l-115 -103 l-35 26 l96 120 l54 -43 Z" /><glyph glyph-name="Zdotaccent" unicode="&#x17b;" d="M271 667 l-187 -610 l169 0 l0 -57 l-245 0 l185 610 l-167 0 l0 57 l245 0 ZM172.5 798 q13.5 -13 13.5 -32 q0 -19 -13.5 -32.5 q-13.5 -13.5 -32.5 -13.5 q-19 0 -32 13.5 q-13 13.5 -13 32.5 q0 19 13 32 q13 13 32 13 q19 0 32.5 -13 Z" /><glyph glyph-name="zdotaccent" unicode="&#x17c;" d="M266 447 l-180 -395 l151 0 l0 -52 l-232 0 l176 395 l-153 0 l0 52 l238 0 ZM178.5 591 q13.5 -13 13.5 -32 q0 -19 -13.5 -32.5 q-13.5 -13.5 -32.5 -13.5 q-19 0 -32 13.5 q-13 13.5 -13 32.5 q0 19 13 32 q13 13 32 13 q19 0 32.5 -13 Z" /><glyph glyph-name="Zcaron" unicode="&#x17d;" d="M271 667 l-187 -610 l169 0 l0 -57 l-245 0 l185 610 l-167 0 l0 57 l245 0 ZM263 821 l-114 -107 l-112 107 l38 38 l74 -69 l74 69 l40 -38 Z" /><glyph glyph-name="zcaron" unicode="&#x17e;" d="M266 447 l-180 -395 l151 0 l0 -52 l-232 0 l176 395 l-153 0 l0 52 l238 0 ZM263 614 l-114 -107 l-112 107 l38 38 l74 -69 l74 69 l40 -38 Z" /><glyph glyph-name="uni018F" unicode="&#x18f;" d="M38 352 l235 0 l0 21 q0 172 -48 221 q-21 22 -51 22 q-30 0 -49 -24 q-20 -25 -26 -71 l-61 24 q14 62 51 99 q32 32 85 32 q58 0 94 -36 q30 -30 46 -83 q16 -53 19 -96 q3 -43 3 -111 q0 -110 -8 -179 q-12 -103 -53 -144 q-35 -36 -95 -36 q-58 0 -92 34 q-50 50 -50 199 l0 128 ZM272 295 l-172 0 l0 -85 q0 -107 30 -139 q20 -20 50 -20 q31 0 51 18 q25 23 34 94 q7 63 7 132 Z" /><glyph glyph-name="florin" unicode="&#x192;" d="M364 729 l-10 -59 q-19 17 -38 17 q-16 0 -26.5 -10.5 q-10.5 -10.5 -13.5 -19.5 q-3 -9 -7 -29 l-36 -181 l77 0 l-9 -42 l-76 0 l-83 -424 q-11 -55 -33 -84.5 q-22 -29.5 -71 -29.5 q-21 0 -50 11 l11 59 q19 -17 39 -17 q35 0 46 59 l84 426 l-73 0 l8 42 l73 0 q27 147 35 179 q7 29 12.5 44.5 q5.5 15.5 17 34 q11.5 18.5 29.5 27 q18 8.5 44 8.5 q29 0 50 -11 Z" /><glyph glyph-name="uni01CF" unicode="&#x1cf;" d="M117 0 l-62 0 l0 667 l62 0 l0 -667 ZM199 821 l-114 -107 l-112 107 l38 38 l74 -69 l74 69 l40 -38 Z" /><glyph glyph-name="uni01D0" unicode="&#x1d0;" d="M106 0 l-57 0 l0 447 l57 0 l0 -447 ZM192 614 l-114 -107 l-112 107 l38 38 l74 -69 l74 69 l40 -38 Z" /><glyph glyph-name="uni01DD" unicode="&#x1dd;" d="M36 235 l189 0 l0 10 q0 106 -33 140 q-15 16 -40 16 q-21 0 -37 -17 q-20 -20 -28 -78 l-54 22 q9 55 40 91 q30 35 78 35 q47 0 79 -33 q52 -55 52 -190 q0 -153 -58 -210 q-29 -28 -70 -28 q-39 0 -68 29 q-30 30 -42 91 q-12 61 -8 122 ZM224 187 l-133 0 q1 -35 9.5 -74.5 q8.5 -39.5 23.5 -54.5 q13 -13 31 -13 q17 0 32 13 q17 15 26.5 54 q9.5 39 10.5 75 Z" /><glyph glyph-name="Gcaron" unicode="&#x1e6;" d="M336 352 l0 -134 q0 -65 -5 -97 q-9 -60 -44 -95 q-35 -35 -93 -35 q-78 0 -115 64 q-41 71 -41 295 q0 32 0.5 54.5 q0.5 22.5 4 59.5 q3.5 37 9.5 63 q6 26 18 56 q12 30 28.5 49 q16.5 19 42.5 31.5 q26 12.5 59 12.5 q57 0 88 -33 q31 -33 47 -93 l-61 -24 q-17 90 -74 90 q-99 0 -99 -243 q0 -196 21 -257 q22 -65 76 -65 q26 0 42.5 13 q16.5 13 23 37 q6.5 24 8.5 42.5 q2 18.5 2 45.5 l0 106 l-91 0 l0 57 l153 0 ZM313 821 l-114 -107 l-112 107 l38 38 l74 -69 l74 69 l40 -38 Z" /><glyph glyph-name="gcaron" unicode="&#x1e7;" d="M281 447 l0 -496 q0 -131 -117 -131 q-57 0 -86.5 33 q-29.5 33 -29.5 91 q0 12 1 17 l57 0 q0 -42 11.5 -65 q11.5 -23 49.5 -23 q20 0 32 7 q12 7 17 21 q5 14 6.5 26.5 q1.5 12.5 1.5 32.5 l0 72 q-29 -32 -71 -32 q-27 0 -47.5 11 q-20.5 11 -32.5 32.5 q-12 21.5 -19.5 42 q-7.5 20.5 -10.5 52 q-3 31.5 -3.5 49.5 q-0.5 18 -0.5 46 q0 221 111 221 q44 0 74 -38 l0 31 l57 0 ZM230 250 q0 158 -68 158 q-40 0 -52.5 -53 q-12.5 -53 -12.5 -143 q0 -166 70 -166 q52 0 60 96 q3 37 3 108 ZM281 614 l-114 -107 l-112 107 l38 38 l74 -69 l74 69 l40 -38 Z" /><glyph glyph-name="AEacute" unicode="&#x1fc;" d="M471 0 l-207 0 l-22 137 l-151 0 l-24 -137 l-66 0 l131 667 l222 0 l11 -57 l-143 0 l42 -235 l135 0 l11 -57 l-136 0 l47 -261 l141 0 l9 -57 ZM233 190 l-47 282 q-13 74 -15 123 q-4 -20 -9.5 -60.5 q-5.5 -40.5 -9.5 -61.5 l-51 -283 l132 0 ZM346 817 l-115 -103 l-35 26 l96 120 l54 -43 Z" /><glyph glyph-name="aeacute" unicode="&#x1fd;" d="M474 214 l-197 0 q0 -24 3 -48 q3 -24 10 -54 q7 -30 24 -48.5 q17 -18.5 41 -18.5 q57 0 60 110 l53 0 q-1 -38 -12 -73 q-11 -35 -38 -62 q-27 -27 -66 -27 q-62 0 -97 74 q-15 -34 -43.5 -54 q-28.5 -20 -64.5 -20 q-58 0 -86 47 q-28 47 -28 110 q0 61 27 104.5 q27 43.5 85 43.5 q51 0 80 -37 l0 13 q0 128 -87 128 q-34 0 -78 -36 l0 62 q37 26 81 26 q80 0 114 -75 q13 32 38.5 53.5 q25.5 21.5 57.5 21.5 q120 0 123 -240 ZM279 261 l139 0 q0 20 -3 41.5 q-3 21.5 -10 45 q-7 23.5 -22 39 q-15 15.5 -36 15.5 q-26 0 -42.5 -28 q-16.5 -28 -21 -57 q-4.5 -29 -4.5 -56 ZM226 145 q0 42 -16.5 74.5 q-16.5 32.5 -54.5 32.5 q-67 0 -67 -102 q0 -41 15 -72.5 q15 -31.5 52 -31.5 q37 0 54 30 q17 30 17 69 ZM369 610 l-115 -103 l-35 26 l96 120 l54 -43 Z" /><glyph glyph-name="Scommaaccent" unicode="&#x218;" d="M278 640 l0 -78 q-46 54 -99 54 q-44 0 -70 -32 q-26 -32 -26 -77 q0 -42 23.5 -74.5 q23.5 -32.5 57 -55.5 q33.5 -23 67 -47 q33.5 -24 57 -62.5 q23.5 -38.5 23.5 -89.5 q0 -75 -46.5 -131.5 q-46.5 -56.5 -120.5 -56.5 q-57 0 -105 35 l0 80 q52 -54 108 -54 q46 0 73.5 35.5 q27.5 35.5 27.5 83.5 q0 42 -23.5 74 q-23.5 32 -57 54.5 q-33.5 22.5 -67 47 q-33.5 24.5 -57 63 q-23.5 38.5 -23.5 90.5 q0 72 42 124.5 q42 52.5 112 52.5 q54 0 104 -36 ZM210 -77 l-72 -154 l-39 19 l53 163 l58 -28 Z" /><glyph glyph-name="scommaaccent" unicode="&#x219;" d="M219 425 l0 -69 q-38 46 -77 46 q-24 0 -39.5 -17 q-15.5 -17 -15.5 -42 q0 -24 15 -44.5 q15 -20.5 36 -37.5 q21 -17 42 -35.5 q21 -18.5 36 -46 q15 -27.5 15 -60.5 q0 -53 -34 -89.5 q-34 -36.5 -86 -36.5 q-44 0 -83 31 l0 66 q42 -44 79 -44 q29 0 47 20 q18 20 18 49 q0 24 -15 46.5 q-15 22.5 -36 40.5 q-21 18 -42 37.5 q-21 19.5 -36 45.5 q-15 26 -15 56 q0 49 31 81 q31 32 80 32 q40 0 80 -29 ZM184 -77 l-72 -154 l-39 19 l53 163 l58 -28 Z" /><glyph glyph-name="Tcommaaccent" unicode="&#x21a;" d="M263 610 l-100 0 l0 -610 l-62 0 l0 610 l-100 0 l0 57 l262 0 l0 -57 ZM181 -77 l-72 -154 l-39 19 l53 163 l58 -28 Z" /><glyph glyph-name="tcommaaccent" unicode="&#x21b;" d="M198 395 l-75 0 l0 -395 l-56 0 l0 395 l-48 0 l0 52 l48 0 l0 127 l56 0 l0 -127 l75 0 l0 -52 ZM146 -77 l-72 -154 l-39 19 l53 163 l58 -28 Z" /><glyph glyph-name="uni0228" unicode="&#x228;" d="M263 0 l-208 0 l0 667 l208 0 l0 -57 l-146 0 l0 -235 l142 0 l0 -57 l-142 0 l0 -261 l146 0 l0 -57 ZM204 -62 l-77 -123 l-36 21 l67 127 l46 -25 Z" /><glyph glyph-name="uni0229" unicode="&#x229;" d="M219 152 l57 0 q-7 -159 -113 -159 q-130 0 -130 229 q0 37 5 71.5 q5 34.5 17 73.5 q12 39 39 63 q27 24 65 24 q37 0 63 -21.5 q26 -21.5 37.5 -57 q11.5 -35.5 16 -68 q4.5 -32.5 4.5 -67.5 q0 -4 -0.5 -14 q-0.5 -10 -0.5 -14 l-189 0 l0 -10 q0 -22 2.5 -44 q2.5 -22 9 -50 q6.5 -28 22 -45 q15.5 -17 37.5 -17 q55 0 58 106 ZM91 260 l133 0 q-7 142 -64 142 q-62 0 -69 -142 ZM211 -62 l-77 -123 l-36 21 l67 127 l46 -25 Z" /><glyph glyph-name="uni0237" unicode="&#x237;" d="M110 -180 l-58 0 l0 627 l58 0 l0 -627 Z" /><glyph glyph-name="uni0259" unicode="&#x259;" d="M36 235 l189 0 l0 10 q0 106 -33 140 q-15 16 -40 16 q-21 0 -37 -17 q-20 -20 -28 -78 l-54 22 q9 55 40 91 q30 35 78 35 q47 0 79 -33 q52 -55 52 -190 q0 -153 -58 -210 q-29 -28 -70 -28 q-39 0 -68 29 q-30 30 -42 91 q-12 61 -8 122 ZM224 187 l-133 0 q1 -35 9.5 -74.5 q8.5 -39.5 23.5 -54.5 q13 -13 31 -13 q17 0 32 13 q17 15 26.5 54 q9.5 39 10.5 75 Z" /><glyph glyph-name="afii57929" unicode="&#x2bc;" d="M162 648 l-74 -164 l-39 19 l55 173 l58 -28 Z" /><glyph glyph-name="circumflex" unicode="&#x2c6;" d="M363 545 l-40 -38 l-74 69 l-74 -69 l-38 38 l112 107 l114 -107 Z" /><glyph glyph-name="caron" unicode="&#x2c7;" d="M363 614 l-114 -107 l-112 107 l38 38 l74 -69 l74 69 l40 -38 Z" /><glyph glyph-name="uni02C9" unicode="&#x2c9;" d="M362 520 l-224 0 l0 55 l224 0 l0 -55 Z" /><glyph glyph-name="breve" unicode="&#x2d8;" d="M325 599 l48 0 q-5 -46 -40 -69 q-35 -23 -83 -23 q-48 0 -83 23 q-35 23 -40 69 l48 0 q17 -41 75 -41 q58 0 75 41 Z" /><glyph glyph-name="dotaccent" unicode="&#x2d9;" d="M282.5 591 q13.5 -13 13.5 -32 q0 -19 -13.5 -32.5 q-13.5 -13.5 -32.5 -13.5 q-19 0 -32 13.5 q-13 13.5 -13 32.5 q0 19 13 32 q13 13 32 13 q19 0 32.5 -13 Z" /><glyph glyph-name="ring" unicode="&#x2da;" d="M306.5 643.5 q23.5 -23.5 23.5 -56.5 q0 -33 -23.5 -56.5 q-23.5 -23.5 -56.5 -23.5 q-33 0 -56.5 23.5 q-23.5 23.5 -23.5 56.5 q0 33 23.5 56.5 q23.5 23.5 56.5 23.5 q33 0 56.5 -23.5 ZM278 558.5 q12 11.5 12 28.5 q0 17 -12 28.5 q-12 11.5 -28 11.5 q-16 0 -28 -11.5 q-12 -11.5 -12 -28.5 q0 -17 12 -28.5 q12 -11.5 28 -11.5 q16 0 28 11.5 Z" /><glyph glyph-name="ogonek" unicode="&#x2db;" d="M330 -95 l0 -48 q-21 -9 -45 -9 q-36 0 -60 22 q-18 18 -18 44 q0 22 11 46 q10 21 24 40 l45 0 q-11 -16 -21 -34 q-10 -22 -10 -37 q0 -15 10 -24 q9 -8 26 -8 q22 0 38 8 Z" /><glyph glyph-name="tilde" unicode="&#x2dc;" d="M308 595 l57 0 q-2 -33 -19.5 -57.5 q-17.5 -24.5 -48.5 -24.5 q-19 0 -49.5 17 q-30.5 17 -40.5 17 q-16 0 -16 -25 l-56 0 q3 33 21 55 q18 22 49 22 q17 0 47 -16 q30 -16 39 -16 q17 0 17 28 Z" /><glyph glyph-name="hungarumlaut" unicode="&#x2dd;" d="M388 623 l-70 -116 l-37 13 l51 125 l56 -22 ZM285 623 l-69 -116 l-37 13 l50 125 l56 -22 Z" /><glyph glyph-name="acutecomb" unicode="&#x301;" d="M-59 610 l-115 -103 l-35 26 l96 120 l54 -43 Z" /><glyph glyph-name="Delta" unicode="&#x394;&#x2206;" d="M636 0 l-605 0 l271 667 l61 0 l273 -667 ZM554 52 l-221 546 l-221 -546 l442 0 Z" /><glyph glyph-name="Omega" unicode="&#x3a9;&#x2126;" d="M638 0 l-258 0 l0 47 q200 111 200 309 q0 109 -69 192.5 q-69 83.5 -176 83.5 q-111 0 -179.5 -82 q-68.5 -82 -68.5 -195 q0 -197 200 -308 l0 -47 l-259 0 l0 51 l191 0 q-191 111 -191 310 q0 133 86.5 227.5 q86.5 94.5 218.5 94.5 q132 0 218.5 -94.5 q86.5 -94.5 86.5 -227.5 q0 -201 -191 -310 l191 0 l0 -51 Z" /><glyph glyph-name="pi" unicode="&#x3c0;" d="M531 396 l-72 0 l0 -396 l-57 0 l0 396 l-246 0 l0 -396 l-57 0 l0 396 l-74 0 l0 51 l506 0 l0 -51 Z" /><glyph glyph-name="afii10023" unicode="&#x401;" d="M261 0 l-208 0 l0 667 l208 0 l0 -57 l-146 0 l0 -235 l142 0 l0 -57 l-142 0 l0 -261 l146 0 l0 -57 ZM258 753 q0 -18 -12.5 -30.5 q-12.5 -12.5 -29.5 -12.5 q-17 0 -29.5 12.5 q-12.5 12.5 -12.5 30.5 q0 17 12.5 29 q12.5 12 29.5 12 q17 0 29.5 -12 q12.5 -12 12.5 -29 ZM138 753 q0 -18 -12.5 -30.5 q-12.5 -12.5 -29.5 -12.5 q-17 0 -29.5 12.5 q-12.5 12.5 -12.5 30.5 q0 17 12.5 29 q12.5 12 29.5 12 q17 0 29.5 -12 q12.5 -12 12.5 -29 Z" /><glyph glyph-name="afii10051" unicode="&#x402;" d="M340 610 l-158 0 l0 -219 q38 14 75 14 q62 0 103 -39 q51 -51 51 -171 q0 -131 -53 -179 q-30 -28 -79 -28 q-37 0 -70 18 l19 59 q21 -17 46 -17 q29 0 45 18 q29 32 29 122 q0 104 -36 138 q-24 22 -63 22 q-35 0 -67 -17 l0 -331 l-62 0 l0 610 l-100 0 l0 57 l320 0 l0 -57 Z" /><glyph glyph-name="afii10052" unicode="&#x403;" d="M267 610 l-150 0 l0 -610 l-62 0 l0 667 l212 0 l0 -57 ZM270 817 l-115 -103 l-35 26 l96 120 l54 -43 Z" /><glyph glyph-name="afii10053" unicode="&#x404;" d="M314 100 l0 -76 q-39 -33 -92 -33 q-61 0 -100 36 q-47 45 -67 140 q-17 75 -17 182 q0 205 75 282 q43 45 106 45 q50 0 95 -32 l0 -77 q-36 49 -85 49 q-39 0 -66 -27 q-33 -33 -48 -102 q-12 -53 -12 -112 l168 0 l0 -57 l-169 0 q2 -77 15 -137 q18 -76 46 -105 q24 -25 60 -25 q52 0 91 49 Z" /><glyph glyph-name="afii10054" unicode="&#x405;" d="M278 640 l0 -78 q-46 54 -99 54 q-44 0 -70 -32 q-26 -32 -26 -77 q0 -42 23.5 -74.5 q23.5 -32.5 57 -55.5 q33.5 -23 67 -47 q33.5 -24 57 -62.5 q23.5 -38.5 23.5 -89.5 q0 -75 -46.5 -131.5 q-46.5 -56.5 -120.5 -56.5 q-57 0 -105 35 l0 80 q52 -54 108 -54 q46 0 73.5 35.5 q27.5 35.5 27.5 83.5 q0 42 -23.5 74 q-23.5 32 -57 54.5 q-33.5 22.5 -67 47 q-33.5 24.5 -57 63 q-23.5 38.5 -23.5 90.5 q0 72 42 124.5 q42 52.5 112 52.5 q54 0 104 -36 Z" /><glyph glyph-name="afii10055" unicode="&#x406;" d="M117 0 l-62 0 l0 667 l62 0 l0 -667 Z" /><glyph glyph-name="afii10056" unicode="&#x407;" d="M117 0 l-62 0 l0 667 l62 0 l0 -667 ZM150.5 794.5 q9.5 -12.5 9.5 -30.5 q0 -18 -9.5 -31 q-9.5 -13 -22.5 -13 q-13 0 -21.5 13 q-8.5 13 -8.5 31 q0 18 8.5 30.5 q8.5 12.5 21.5 12.5 q13 0 22.5 -12.5 ZM65 794.5 q9 -12.5 9 -30.5 q0 -18 -9 -31 q-9 -13 -22 -13 q-13 0 -22.5 13 q-9.5 13 -9.5 31 q0 18 9.5 30.5 q9.5 12.5 22.5 12.5 q13 0 22 -12.5 Z" /><glyph glyph-name="afii10057" unicode="&#x408;" d="M169 667 l0 -571 q0 -19 -1 -29 q-7 -77 -95 -77 q-34 0 -72 18 l0 64 q33 -28 62 -28 q20 0 30.5 11.5 q10.5 11.5 12 23 q1.5 11.5 1.5 32.5 l0 556 l62 0 Z" /><glyph glyph-name="afii10058" unicode="&#x409;" d="M352 378 l37 0 q73 0 114 -40 q49 -48 49 -149 q0 -116 -56 -161 q-35 -28 -107 -28 l-99 0 l0 610 l-134 0 l0 -344 q0 -98 -6 -147 q-9 -69 -39 -100 q-25 -25 -65 -25 q-24 0 -42 10 l0 65 q16 -15 36 -15 q21 0 34 16 q16 19 20 69 q4 52 4 101 l0 427 l254 0 l0 -289 ZM352 53 l33 0 q50 0 73 23 q30 30 30 103 q0 88 -35 119 q-25 23 -71 23 l-30 0 l0 -268 Z" /><glyph glyph-name="afii10059" unicode="&#x40a;" d="M327 667 l0 -284 l37 0 q73 0 114 -40 q49 -48 49 -149 q0 -122 -56 -166 q-35 -28 -107 -28 l-99 0 l0 326 l-148 0 l0 -326 l-62 0 l0 667 l62 0 l0 -284 l148 0 l0 284 l62 0 ZM327 53 l33 0 q50 0 73 23 q30 30 30 108 q0 86 -35 119 q-25 23 -71 23 l-30 0 l0 -273 Z" /><glyph glyph-name="afii10060" unicode="&#x40b;" d="M120 0 l0 610 l-100 0 l0 57 l320 0 l0 -57 l-158 0 l0 -219 q42 14 78 14 q64 0 99 -28 q25 -21 32.5 -52.5 q7.5 -31.5 7.5 -81.5 l0 -243 l-63 0 l0 240 q0 70 -23 90 q-21 18 -62 18 q-37 0 -69 -17 l0 -331 l-62 0 Z" /><glyph glyph-name="afii10061" unicode="&#x40c;" d="M321 0 l-70 0 l-134 336 l0 -336 l-62 0 l0 667 l62 0 l0 -303 l134 303 l69 0 l-144 -318 l145 -349 ZM280 817 l-115 -103 l-35 26 l96 120 l54 -43 Z" /><glyph glyph-name="afii10062" unicode="&#x40e;" d="M8 667 l68 0 l64 -211 q24 -77 39 -143 q12 62 34 145 l56 209 l64 0 l-188 -667 l-62 0 l64 224 l-139 443 ZM240 806 l53 -22 q-12 -39 -46 -62 q-30 -19 -73 -19 q-44 0 -73 19 q-36 23 -46 62 l53 22 q6 -24 24 -37 q15 -12 42 -12 q26 0 42 12 q16 12 24 37 Z" /><glyph glyph-name="afii10145" unicode="&#x40f;" d="M327 667 l0 -667 l-105 0 l0 -130 l-62 0 l0 130 l-105 0 l0 667 l62 0 l0 -610 l148 0 l0 610 l62 0 Z" /><glyph glyph-name="afii10017" unicode="&#x410;" d="M324 0 l-66 0 l-25 137 l-141 0 l-25 -137 l-66 0 l132 667 l58 0 l133 -667 ZM223 191 l-44 235 q-14 75 -19 157 q-7 -104 -58 -392 l121 0 Z" /><glyph glyph-name="afii10018" unicode="&#x411;" d="M55 667 l224 0 l0 -57 l-162 0 l0 -232 l40 0 q70 0 109 -39 q48 -48 48 -150 q0 -117 -56 -161 q-35 -28 -107 -28 l-96 0 l0 667 ZM117 53 l30 0 q49 0 73 23 q30 29 30 106 q0 84 -33 116 q-23 23 -72 23 l-28 0 l0 -268 Z" /><glyph glyph-name="afii10019" unicode="&#x412;" d="M55 667 l97 0 q67 0 98 -23 q51 -38 51 -147 q0 -56 -18 -94.5 q-18 -38.5 -64 -60.5 q59 -16 78.5 -55.5 q19.5 -39.5 19.5 -108.5 q0 -107 -55 -150 q-36 -28 -105 -28 l-102 0 l0 667 ZM117 372 l33 0 q55 0 71.5 31 q16.5 31 16.5 91 q0 29 -2 46 q-2 17 -9 36 q-7 19 -25 28 q-18 9 -46 9 l-39 0 l0 -241 ZM117 53 l33 0 q59 0 81 32 q22 32 22 95 q0 137 -100 137 l-36 0 l0 -264 Z" /><glyph glyph-name="afii10020" unicode="&#x413;" d="M267 610 l-150 0 l0 -610 l-62 0 l0 667 l212 0 l0 -57 Z" /><glyph glyph-name="afii10021" unicode="&#x414;" d="M96 667 l249 0 l0 -610 l52 0 l0 -187 l-62 0 l0 130 l-273 0 l0 -130 l-58 0 l0 187 q39 24 62 64 q14 25 21 60 q7 35 8 59 q1 24 1 68 l0 359 ZM154 610 l0 -259 q0 -143 -17 -202 q-17 -54 -53 -92 l199 0 l0 553 l-129 0 Z" /><glyph glyph-name="afii10022" unicode="&#x415;" d="M263 0 l-208 0 l0 667 l208 0 l0 -57 l-146 0 l0 -235 l142 0 l0 -57 l-142 0 l0 -261 l146 0 l0 -57 Z" /><glyph glyph-name="afii10024" unicode="&#x416;" d="M462 0 l-66 0 l-132 336 l0 -336 l-62 0 l0 336 l-132 -336 l-66 0 l143 349 l-138 318 l65 0 l128 -303 l0 303 l62 0 l0 -303 l128 303 l65 0 l-138 -318 l143 -349 Z" /><glyph glyph-name="afii10025" unicode="&#x417;" d="M101 370 l17 0 q51 0 78 26 q31 29 31 92 q0 64 -27 96 q-26 30 -68 30 q-34 0 -59 -19 q-19 -14 -35 -38 l0 85 q45 34 104 34 q68 0 106 -42 q44 -47 44 -132 q0 -68 -23 -105 q-20 -34 -59 -50 q42 -7 69 -37 q36 -40 36 -110 q0 -110 -56 -166 q-43 -43 -113 -43 q-68 0 -116 37 l0 87 q41 -62 109 -62 q50 0 78 34 q30 36 30 101 q0 66 -35 98 q-29 27 -91 27 l-20 0 l0 57 Z" /><glyph glyph-name="afii10026" unicode="&#x418;" d="M55 0 l0 667 l62 0 l0 -452 q0 -29 -6 -84 q5 18 10 35.5 q5 17.5 8 27 q3 9.5 6 18.5 l142 455 l62 0 l0 -667 l-62 0 l0 431 q0 27 6 105 q-13 -51 -27 -94 l-139 -442 l-62 0 Z" /><glyph glyph-name="afii10027" unicode="&#x419;" d="M55 0 l0 667 l62 0 l0 -452 q0 -29 -6 -84 q5 18 10 35.5 q5 17.5 8 27 q3 9.5 6 18.5 l142 455 l62 0 l0 -667 l-62 0 l0 431 q0 27 6 105 q-13 -51 -27 -94 l-139 -442 l-62 0 ZM263 807 l53 -22 q-12 -39 -46 -62 q-30 -19 -73 -19 q-44 0 -73 19 q-36 23 -46 62 l53 22 q6 -24 24 -37 q15 -12 42 -12 q26 0 42 12 q16 12 24 37 Z" /><glyph glyph-name="afii10028" unicode="&#x41a;" d="M321 0 l-70 0 l-134 336 l0 -336 l-62 0 l0 667 l62 0 l0 -303 l134 303 l69 0 l-144 -318 l145 -349 Z" /><glyph glyph-name="afii10029" unicode="&#x41b;" d="M98 667 l256 0 l0 -667 l-62 0 l0 610 l-136 0 l0 -344 q0 -98 -6 -147 q-9 -69 -39 -100 q-25 -25 -65 -25 q-24 0 -42 10 l0 65 q16 -15 36 -15 q21 0 34 16 q16 19 20 69 q4 52 4 101 l0 427 Z" /><glyph glyph-name="afii10030" unicode="&#x41c;" d="M478 0 l-61 0 l-47 433 q-2 18 -3 38 q-1 20 -1.5 45 q-0.5 25 -1.5 38 q-3 -57 -14 -121 l-74 -433 l-51 0 q-8 49 -26.5 155 q-18.5 106 -31 187 q-12.5 81 -21.5 156 q-1 10 -2 28.5 q-1 18.5 -2 27.5 l0 -23 q0 -49 -6 -97 l-54 -434 l-61 0 l94 667 l53 0 l72 -458 q12 -82 13 -105 q3 52 12 103 l78 460 l53 0 l82 -667 Z" /><glyph glyph-name="afii10031" unicode="&#x41d;" d="M331 0 l-62 0 l0 344 l-152 0 l0 -344 l-62 0 l0 667 l62 0 l0 -266 l152 0 l0 266 l62 0 l0 -667 Z" /><glyph glyph-name="afii10032" unicode="&#x41e;" d="M366 336 q0 -38 -1 -65.5 q-1 -27.5 -5.5 -72.5 q-4.5 -45 -15.5 -77.5 q-11 -32.5 -28 -64 q-17 -31.5 -46 -48.5 q-29 -17 -67 -17 q-165 0 -165 342 q0 343 164 343 q164 0 164 -340 ZM303 358 q0 258 -100 258 q-102 0 -102 -282 q0 -283 102 -283 q80 0 94 155 q6 60 6 152 Z" /><glyph glyph-name="afii10033" unicode="&#x41f;" d="M325 0 l-62 0 l0 610 l-146 0 l0 -610 l-62 0 l0 667 l270 0 l0 -667 Z" /><glyph glyph-name="afii10034" unicode="&#x420;" d="M55 667 l80 0 q97 0 133 -43 q36 -43 36 -142 q0 -88 -37 -125.5 q-37 -37.5 -125 -37.5 l-25 0 l0 -319 l-62 0 l0 667 ZM117 376 l41 0 q28 0 45.5 9 q17.5 9 25.5 27.5 q8 18.5 10 36 q2 17.5 2 45.5 q0 59 -19 87.5 q-19 28.5 -75 28.5 l-30 0 l0 -234 Z" /><glyph glyph-name="afii10035" unicode="&#x421;" d="M302 81 l0 -62 q-43 -28 -87 -28 q-72 0 -120 65 q-57 78 -57 260 q0 360 184 360 q46 0 80 -21 l0 -68 q-44 29 -77 29 q-124 0 -124 -280 q0 -181 44 -244 q28 -41 75 -41 q37 0 82 30 Z" /><glyph glyph-name="afii10036" unicode="&#x422;" d="M263 610 l-100 0 l0 -610 l-62 0 l0 610 l-100 0 l0 57 l262 0 l0 -57 Z" /><glyph glyph-name="afii10037" unicode="&#x423;" d="M8 667 l68 0 l64 -211 q24 -77 39 -143 q12 62 34 145 l56 209 l64 0 l-188 -667 l-62 0 l64 224 l-139 443 Z" /><glyph glyph-name="afii10038" unicode="&#x424;" d="M224 0 l0 84 q-76 4 -126 53 q-68 66 -68 220 q0 148 69 215 q49 48 125 52 l0 70 l62 0 l0 -70 q76 -4 125 -52 q69 -65 69 -209 q0 -156 -68 -224 q-50 -48 -126 -55 l0 -84 l-62 0 ZM284 567 l0 -426 q54 2 88 37 q48 48 48 181 q0 123 -51 173 q-32 32 -85 35 ZM226 141 l0 426 q-53 -3 -85 -35 q-51 -50 -51 -174 q0 -127 48 -179 q33 -37 88 -38 Z" /><glyph glyph-name="afii10039" unicode="&#x425;" d="M317 0 l-66 0 l-66 189 q-17 49 -26 95 q-9 -41 -28 -97 l-63 -187 l-67 0 l130 339 l-130 328 l67 0 l59 -165 q22 -60 32 -117 q6 39 32 113 l60 169 l66 0 l-127 -328 l127 -339 Z" /><glyph glyph-name="afii10040" unicode="&#x426;" d="M327 667 l0 -610 l54 0 l0 -187 l-62 0 l0 130 l-264 0 l0 667 l62 0 l0 -610 l148 0 l0 610 l62 0 Z" /><glyph glyph-name="afii10041" unicode="&#x427;" d="M320 667 l0 -667 l-62 0 l0 337 q-35 -8 -74 -8 q-66 0 -99 28 q-25 21 -32.5 52.5 q-7.5 31.5 -7.5 81.5 l0 176 l63 0 l0 -169 q0 -75 22 -95 q19 -17 66 -17 q33 0 62 7 l0 274 l62 0 Z" /><glyph glyph-name="afii10042" unicode="&#x428;" d="M55 667 l62 0 l0 -610 l144 0 l0 610 l62 0 l0 -610 l144 0 l0 610 l62 0 l0 -667 l-474 0 l0 667 Z" /><glyph glyph-name="afii10043" unicode="&#x429;" d="M55 667 l62 0 l0 -610 l144 0 l0 610 l62 0 l0 -610 l144 0 l0 610 l62 0 l0 -610 l60 0 l0 -187 l-62 0 l0 130 l-472 0 l0 667 Z" /><glyph glyph-name="afii10044" unicode="&#x42a;" d="M150 667 l0 -289 l37 0 q73 0 114 -40 q49 -48 49 -149 q0 -116 -56 -161 q-35 -28 -107 -28 l-99 0 l0 610 l-86 0 l0 57 l148 0 ZM150 53 l33 0 q50 0 73 23 q30 30 30 103 q0 88 -35 119 q-25 23 -71 23 l-30 0 l0 -268 Z" /><glyph glyph-name="afii10045" unicode="&#x42b;" d="M429 0 l-62 0 l0 667 l62 0 l0 -667 ZM117 667 l0 -289 l37 0 q73 0 114 -40 q49 -48 49 -149 q0 -116 -56 -161 q-35 -28 -107 -28 l-99 0 l0 667 l62 0 ZM117 53 l33 0 q50 0 73 23 q30 30 30 103 q0 88 -35 119 q-25 23 -71 23 l-30 0 l0 -268 Z" /><glyph glyph-name="afii10046" unicode="&#x42c;" d="M117 667 l0 -289 l37 0 q73 0 114 -40 q49 -48 49 -149 q0 -116 -56 -161 q-35 -28 -107 -28 l-99 0 l0 667 l62 0 ZM117 53 l33 0 q50 0 73 23 q30 30 30 103 q0 88 -35 119 q-25 23 -71 23 l-30 0 l0 -268 Z" /><glyph glyph-name="afii10047" unicode="&#x42d;" d="M18 24 l0 76 q39 -49 91 -49 q36 0 60 25 q28 29 46 105 q13 60 15 137 l-169 0 l0 57 l168 0 q0 59 -12 112 q-15 69 -48 102 q-27 27 -66 27 q-49 0 -85 -49 l0 77 q45 32 95 32 q63 0 106 -45 q75 -77 75 -280 q0 -104 -17 -182 q-21 -99 -67 -142 q-39 -36 -100 -36 q-53 0 -92 33 Z" /><glyph glyph-name="afii10048" unicode="&#x42e;" d="M202 344 l-85 0 l0 -344 l-62 0 l0 667 l62 0 l0 -266 l87 0 q0 60 15.5 130 q15.5 70 56.5 109 q38 36 90 36 q52 0 90 -36 q74 -72 74 -306 q0 -235 -74 -307 q-38 -36 -90 -36 q-52 0 -90 36 q-74 72 -74 307 l0 10 ZM267 431.5 q-2 -38.5 -2 -98.5 q0 -60 2 -98 q2 -38 13.5 -88.5 q11.5 -50.5 34.5 -73.5 q22 -22 51 -22 q29 0 51 22 q50 52 50 260 q0 209 -50 261 q-22 22 -51 22 q-29 0 -51 -22 q-23 -23 -34.5 -73.5 q-11.5 -50.5 -13.5 -89 Z" /><glyph glyph-name="afii10049" unicode="&#x42f;" d="M16 0 l148 314 q-53 0 -90 36 q-42 40 -42 133 q0 101 43 144 q39 40 128 40 l100 0 l0 -667 l-68 0 l0 320 l-148 -320 l-71 0 ZM235 369 l0 241 l-36 0 q-52 0 -74 -22 q-27 -27 -27 -103 q0 -69 30 -96 q22 -20 63 -20 l44 0 Z" /><glyph glyph-name="afii10065" unicode="&#x430;" d="M277 0 l-57 0 l0 36 q-32 -43 -76 -43 q-29 0 -50 16.5 q-21 16.5 -31.5 38 q-10.5 21.5 -16 56 q-5.5 34.5 -6.5 57 q-1 22.5 -1 54.5 q0 36 1 60.5 q1 24.5 7 61.5 q6 37 17 60 q11 23 32.5 40 q21.5 17 52.5 17 q41 0 71 -37 l0 30 l57 0 l0 -447 ZM226 226 q0 40 -2 67.5 q-2 27.5 -7.5 56.5 q-5.5 29 -19 44 q-13.5 15 -34.5 15 q-66 0 -66 -159 q0 -72 3 -108 q2 -22 4.5 -34 q2.5 -12 8.5 -31 q6 -19 18.5 -28.5 q12.5 -9.5 30.5 -9.5 q22 0 36 15 q28 28 28 172 Z" /><glyph glyph-name="afii10066" unicode="&#x431;" d="M98 398 q11 26 33 41 q22 15 49 15 q37 0 67 -28 q51 -48 51 -206 q0 -148 -53 -199 q-29 -28 -75 -28 q-46 0 -75 28 q-34 33 -44.5 91 q-10.5 58 -10.5 150 q0 90 8 175 q9 90 36 131 q26 41 88 67 q51 21 60 29 q15 12 15 36 l53 0 q0 -49 -27 -76 q-21 -21 -69 -40 q-44 -17 -62 -37 q-44 -45 -44 -149 ZM170 401 q-18 0 -34 -14 q-36 -34 -36 -164 q0 -128 36 -163 q14 -14 34 -14 q20 0 34 14 q36 35 36 163 q0 122 -31 159 q-16 19 -39 19 Z" /><glyph glyph-name="afii10067" unicode="&#x432;" d="M50 447 l89 0 q63 0 92 -30 q29 -29 29 -85 q0 -48 -29 -76 q-12 -12 -33 -22 q30 -7 48 -25 q28 -27 28 -84 q0 -63 -30 -93 q-32 -32 -91 -32 l-103 0 l0 447 ZM106 259 l23 0 q42 0 58 16 q15 15 15 53 q0 39 -15 53 q-15 14 -49 14 l-32 0 l0 -136 ZM106 52 l27 0 q45 0 62 16 q19 17 19 56 q0 42 -21 63 q-20 19 -60 19 l-27 0 l0 -154 Z" /><glyph glyph-name="afii10068" unicode="&#x433;" d="M50 0 l0 447 l181 0 l0 -52 l-125 0 l0 -395 l-56 0 Z" /><glyph glyph-name="afii10069" unicode="&#x434;" d="M74 447 l209 0 l0 -395 l41 0 l0 -156 l-53 0 l0 104 l-216 0 l0 -104 l-53 0 l0 156 q38 19 56 60 q16 36 16 110 l0 225 ZM227 52 l0 343 l-101 0 l0 -169 q0 -67 -9 -100 q-11 -42 -43 -74 l153 0 Z" /><glyph glyph-name="afii10070" unicode="&#x435;" d="M219 152 l57 0 q-7 -159 -113 -159 q-130 0 -130 229 q0 37 5 71.5 q5 34.5 17 73.5 q12 39 39 63 q27 24 65 24 q37 0 63 -21.5 q26 -21.5 37.5 -57 q11.5 -35.5 16 -68 q4.5 -32.5 4.5 -67.5 q0 -4 -0.5 -14 q-0.5 -10 -0.5 -14 l-189 0 l0 -10 q0 -22 2.5 -44 q2.5 -22 9 -50 q6.5 -28 22 -45 q15.5 -17 37.5 -17 q55 0 58 106 ZM91 260 l133 0 q-7 142 -64 142 q-62 0 -69 -142 Z" /><glyph glyph-name="afii10072" unicode="&#x436;" d="M419 0 l-65 0 l-115 205 l0 -205 l-57 0 l0 205 l-115 -205 l-65 0 l135 233 l-127 214 l61 0 l111 -195 l0 195 l57 0 l0 -195 l111 195 l61 0 l-127 -214 l135 -233 Z" /><glyph glyph-name="afii10073" unicode="&#x437;" d="M176 231 q27 -7 46 -25 q32 -29 32 -83 q0 -59 -41 -98 q-35 -32 -89 -32 q-54 0 -94 35 l0 72 q18 -23 37 -38 q23 -16 49 -16 q37 0 56 21 q20 22 20 55 q0 43 -24 62 q-19 16 -66 16 l-17 0 l0 54 l19 0 q35 0 56 16 q21 17 21 55 q0 38 -18 57 q-17 19 -48 19 q-27 0 -48 -18 q-16 -14 -32 -37 l0 72 q36 36 87 36 q52 0 83 -31 q33 -34 33 -90 q0 -43 -19 -69 q-16 -21 -43 -33 Z" /><glyph glyph-name="afii10074" unicode="&#x438;" d="M286 0 l-56 0 l0 278 q0 19 2 64 q-7 -31 -21 -67 l-105 -275 l-56 0 l0 447 l56 0 l0 -276 q0 -37 -2 -69 q9 33 21 66 l105 279 l56 0 l0 -447 Z" /><glyph glyph-name="afii10075" unicode="&#x439;" d="M286 0 l-56 0 l0 278 q0 19 2 64 q-7 -31 -21 -67 l-105 -275 l-56 0 l0 447 l56 0 l0 -276 q0 -37 -2 -69 q9 33 21 66 l105 279 l56 0 l0 -447 ZM228 597 l47 -23 q-12 -36 -41 -56 q-25 -18 -66 -18 q-41 0 -66 18 q-29 20 -41 56 l47 23 q4 -22 21 -36 q13 -11 40 -11 q25 0 38 11 q16 12 21 36 Z" /><glyph glyph-name="afii10076" unicode="&#x43a;" d="M106 447 l0 -195 l119 195 l65 0 l-135 -215 l149 -232 l-69 0 l-129 205 l0 -205 l-56 0 l0 447 l56 0 Z" /><glyph glyph-name="afii10077" unicode="&#x43b;" d="M290 447 l0 -447 l-56 0 l0 395 l-103 0 l0 -190 q0 -49 -4 -93 q-6 -64 -35 -93 q-24 -23 -59 -23 q-13 0 -29 4 l0 58 q9 -9 24 -9 q16 0 27 11 q23 24 23 123 l0 264 l212 0 Z" /><glyph glyph-name="afii10078" unicode="&#x43c;" d="M229 0 l-50 0 l-58 270 q-7 29 -12 70 q-1 -24 -7 -72 l-31 -268 l-53 0 l62 447 l50 0 l61 -283 q10 -45 13 -80 q3 35 13 80 l61 283 l50 0 l62 -447 l-53 0 l-31 268 q-6 48 -7 72 q-3 -32 -12 -70 l-58 -270 Z" /><glyph glyph-name="afii10079" unicode="&#x43d;" d="M280 0 l-56 0 l0 209 l-118 0 l0 -209 l-56 0 l0 447 l56 0 l0 -186 l118 0 l0 186 l56 0 l0 -447 Z" /><glyph glyph-name="afii10080" unicode="&#x43e;" d="M289 221 q0 -228 -125 -228 q-41 0 -69 23 q-28 23 -40.5 61 q-12.5 38 -17 73 q-4.5 35 -4.5 74 q0 30 2.5 57.5 q2.5 27.5 10.5 60.5 q8 33 22 56.5 q14 23.5 38.5 39.5 q24.5 16 57.5 16 q125 0 125 -233 ZM163 46 q68 0 68 178 q0 178 -68 178 q-71 0 -71 -183 q0 -173 71 -173 Z" /><glyph glyph-name="afii10081" unicode="&#x43f;" d="M276 0 l-56 0 l0 395 l-114 0 l0 -395 l-56 0 l0 447 l226 0 l0 -447 Z" /><glyph glyph-name="afii10082" unicode="&#x440;" d="M106 447 l0 -30 q28 37 71 37 q26 0 46 -10 q20 -10 31.5 -30.5 q11.5 -20.5 19 -39.5 q7.5 -19 10.5 -49 q3 -30 3.5 -47.5 q0.5 -17.5 0.5 -45.5 q0 -48 -2.5 -80 q-2.5 -32 -11.5 -73.5 q-9 -41.5 -32 -63.5 q-23 -22 -59 -22 q-42 0 -77 43 l0 -216 l-56 0 l0 627 l56 0 ZM230 247 q0 162 -66 162 q-21 0 -34.5 -15 q-13.5 -15 -19 -44 q-5.5 -29 -7.5 -56.5 q-2 -27.5 -2 -67.5 q0 -144 28 -172 q14 -15 36 -15 q18 0 30.5 9.5 q12.5 9.5 18.5 28.5 q6 19 8.5 31 q2.5 12 4.5 34 q3 35 3 105 Z" /><glyph glyph-name="afii10083" unicode="&#x441;" d="M226 86 l0 -70 q-30 -23 -64 -23 q-37 0 -64 23 q-27 23 -40 59.5 q-13 36.5 -19 71.5 q-6 35 -6 69 q0 38 5 74 q5 36 18 76 q13 40 41 64 q28 24 68 24 q32 0 61 -17 l0 -66 q-29 31 -56 31 q-25 0 -42 -20 q-17 -20 -24 -52.5 q-7 -32.5 -9.5 -58 q-2.5 -25.5 -2.5 -50.5 q0 -23 3 -48.5 q3 -25.5 10 -56.5 q7 -31 23.5 -50.5 q16.5 -19.5 40.5 -19.5 q30 0 57 40 Z" /><glyph glyph-name="afii10084" unicode="&#x442;" d="M237 395 l-86 0 l0 -395 l-57 0 l0 395 l-86 0 l0 52 l229 0 l0 -52 Z" /><glyph glyph-name="afii10085" unicode="&#x443;" d="M283 447 l-160 -627 l-60 0 l50 192 l-106 435 l57 0 l56 -248 q13 -54 21 -112 q3 23 18 84 l65 276 l59 0 Z" /><glyph glyph-name="afii10086" unicode="&#x444;" d="M178 -180 l0 173 q-52 2 -91 41 q-59 59 -59 194 q0 128 55 183 q38 38 95 43 l0 213 l57 0 l0 -213 q56 -4 95 -43 q55 -54 55 -183 q0 -69 -13 -113.5 q-13 -44.5 -46 -78.5 q-39 -40 -91 -43 l0 -173 l-57 0 ZM233 402 l0 -356 q36 1 58 25 q40 40 40 160 q0 109 -38 146 q-24 24 -60 25 ZM180 46 l0 356 q-36 -1 -60 -25 q-38 -37 -38 -150 q0 -117 42 -158 q24 -23 56 -23 Z" /><glyph glyph-name="afii10087" unicode="&#x445;" d="M272 0 l-63 0 l-49 127 q-19 51 -22 66 q-4 -24 -20 -67 l-48 -126 l-63 0 l102 229 l-91 218 l62 0 q5 -13 21.5 -57 q16.5 -44 26 -73.5 q9.5 -29.5 15.5 -58.5 q4 19 9 38 q5 19 13 40.5 q8 21.5 13 35 q5 13.5 16 40 q11 26.5 15 35.5 l63 0 l-100 -218 l100 -229 Z" /><glyph glyph-name="afii10088" unicode="&#x446;" d="M277 447 l0 -395 l50 0 l0 -156 l-56 0 l0 104 l-221 0 l0 447 l56 0 l0 -395 l115 0 l0 395 l56 0 Z" /><glyph glyph-name="afii10089" unicode="&#x447;" d="M202 0 l0 211 q-27 -9 -61 -9 q-52 0 -81 25 q-30 27 -30 103 l0 117 l56 0 l0 -123 q0 -41 15 -55 q15 -14 48 -14 q25 0 53 8 l0 184 l56 0 l0 -447 l-56 0 Z" /><glyph glyph-name="afii10090" unicode="&#x448;" d="M279 447 l0 -395 l116 0 l0 395 l56 0 l0 -447 l-401 0 l0 447 l56 0 l0 -395 l116 0 l0 395 l57 0 Z" /><glyph glyph-name="afii10091" unicode="&#x449;" d="M279 447 l0 -395 l116 0 l0 395 l57 0 l0 -395 l54 0 l0 -156 l-56 0 l0 104 l-400 0 l0 447 l56 0 l0 -395 l117 0 l0 395 l56 0 Z" /><glyph glyph-name="afii10092" unicode="&#x44a;" d="M97 0 l0 395 l-89 0 l0 52 l145 0 l0 -171 l20 0 q71 0 109 -36 q39 -37 39 -109 q0 -65 -32 -98 q-32 -33 -96 -33 l-96 0 ZM153 52 l32 0 q41 0 58 16 q21 19 21 66 q0 43 -20 66 q-22 26 -66 26 l-25 0 l0 -174 Z" /><glyph glyph-name="afii10093" unicode="&#x44b;" d="M375 0 l-56 0 l0 447 l56 0 l0 -447 ZM50 0 l0 447 l56 0 l0 -171 l20 0 q72 0 110 -36 q38 -36 38 -110 q0 -65 -31 -97 q-32 -33 -97 -33 l-96 0 ZM106 52 l32 0 q41 0 58 16 q21 19 21 68 q0 41 -20 64 q-22 26 -66 26 l-25 0 l0 -174 Z" /><glyph glyph-name="afii10094" unicode="&#x44c;" d="M50 0 l0 447 l56 0 l0 -171 l19 0 q72 0 110 -36 q38 -36 38 -109 q0 -66 -31 -98 q-32 -33 -97 -33 l-95 0 ZM106 52 l31 0 q42 0 59 16 q20 19 20 69 q0 41 -19 63 q-22 26 -67 26 l-24 0 l0 -174 Z" /><glyph glyph-name="afii10095" unicode="&#x44d;" d="M36 19 l0 72 q11 -20 28 -32 q17 -13 40 -13 q26 0 43 19 q38 40 38 144 l-117 0 l0 52 l116 0 q-5 92 -38 123 q-18 18 -44 18 q-21 0 -39 -14 q-17 -13 -27 -29 l0 70 q32 25 74 25 q47 0 79 -32 q57 -56 57 -189 q0 -152 -62 -211 q-32 -29 -76 -29 q-39 0 -72 26 Z" /><glyph glyph-name="afii10096" unicode="&#x44e;" d="M107 261 l57 0 q5 118 52 165 q29 28 75 28 q45 0 74 -28 q54 -52 54 -202 q0 -150 -54 -203 q-29 -28 -73 -28 q-47 0 -76 28 q-53 52 -53 189 l-56 0 l0 -210 l-57 0 l0 447 l57 0 l0 -186 ZM290 402 q-19 0 -33 -14 q-37 -37 -37 -164 q0 -127 37 -164 q14 -14 33 -14 q20 0 34 14 q36 41 36 164 q0 123 -36 164 q-14 14 -34 14 Z" /><glyph glyph-name="afii10097" unicode="&#x44f;" d="M20 0 l110 187 q-45 2 -76 31 q-32 32 -32 90 q0 66 38 104 q36 35 110 35 l76 0 l0 -447 l-56 0 l0 185 l-104 -185 l-66 0 ZM190 234 l0 161 l-29 0 q-40 0 -58 -18 q-21 -21 -21 -67 q0 -39 20 -59 q18 -17 56 -17 l32 0 Z" /><glyph glyph-name="afii10071" unicode="&#x451;" d="M219 152 l57 0 q-7 -159 -113 -159 q-130 0 -130 229 q0 37 5 71.5 q5 34.5 17 73.5 q12 39 39 63 q27 24 65 24 q37 0 63 -21.5 q26 -21.5 37.5 -57 q11.5 -35.5 16 -68 q4.5 -32.5 4.5 -67.5 q0 -4 -0.5 -14 q-0.5 -10 -0.5 -14 l-189 0 l0 -10 q0 -22 2.5 -44 q2.5 -22 9 -50 q6.5 -28 22 -45 q15.5 -17 37.5 -17 q55 0 58 106 ZM91 260 l133 0 q-7 142 -64 142 q-62 0 -69 -142 ZM263 558 q0 -18 -12.5 -31 q-12.5 -13 -30.5 -13 q-18 0 -30 13 q-12 13 -12 31 q0 17 12 29.5 q12 12.5 30 12.5 q18 0 30.5 -12.5 q12.5 -12.5 12.5 -29.5 ZM136 558 q0 -18 -12 -31 q-12 -13 -30 -13 q-18 0 -30.5 13 q-12.5 13 -12.5 31 q0 17 12.5 29.5 q12.5 12.5 30.5 12.5 q18 0 30 -12.5 q12 -12.5 12 -29.5 Z" /><glyph glyph-name="afii10099" unicode="&#x452;" d="M59 729 l56 0 l0 -145 l104 0 l0 -52 l-104 0 l0 -145 q16 17 36 29 q25 14 54 14 q37 0 60 -23 q25 -27 25 -92 l0 -357 q0 -85 -35 -117 q-23 -21 -59 -21 q-23 0 -43 10 l0 57 q15 -11 33 -11 q20 0 32 10 q16 14 16 72 l0 341 q0 53 -14 70 q-13 15 -35 15 q-28 0 -47 -19 q-23 -24 -23 -88 l0 -277 l-56 0 l0 532 l-49 0 l0 52 l49 0 l0 145 Z" /><glyph glyph-name="afii10100" unicode="&#x453;" d="M50 0 l0 447 l181 0 l0 -52 l-125 0 l0 -395 l-56 0 ZM239 610 l-115 -103 l-35 26 l96 120 l54 -43 Z" /><glyph glyph-name="afii10101" unicode="&#x454;" d="M244 91 l0 -72 q-33 -26 -72 -26 q-44 0 -76 29 q-62 58 -62 203 q0 141 57 197 q32 32 79 32 q42 0 74 -25 l0 -70 q-10 16 -27 29 q-18 14 -39 14 q-26 0 -44 -18 q-38 -38 -38 -123 l116 0 l0 -52 l-117 0 q0 -103 38 -144 q17 -19 43 -19 q23 0 40 13 q17 12 28 32 Z" /><glyph glyph-name="afii10102" unicode="&#x455;" d="M219 425 l0 -69 q-38 46 -77 46 q-24 0 -39.5 -17 q-15.5 -17 -15.5 -42 q0 -24 15 -44.5 q15 -20.5 36 -37.5 q21 -17 42 -35.5 q21 -18.5 36 -46 q15 -27.5 15 -60.5 q0 -53 -34 -89.5 q-34 -36.5 -86 -36.5 q-44 0 -83 31 l0 66 q42 -44 79 -44 q29 0 47 20 q18 20 18 49 q0 24 -15 46.5 q-15 22.5 -36 40.5 q-21 18 -42 37.5 q-21 19.5 -36 45.5 q-15 26 -15 56 q0 49 31 81 q31 32 80 32 q40 0 80 -29 Z" /><glyph glyph-name="afii10103" unicode="&#x456;" d="M107 617 q12 -13 12 -30 q0 -17 -12 -29 q-12 -12 -29 -12 q-17 0 -29.5 12 q-12.5 12 -12.5 29 q0 18 12 30.5 q12 12.5 30 12.5 q17 0 29 -13 ZM106 0 l-57 0 l0 447 l57 0 l0 -447 Z" /><glyph glyph-name="afii10104" unicode="&#x457;" d="M106 0 l-57 0 l0 447 l57 0 l0 -447 ZM139 618 q8 -12 8 -30 q0 -18 -8 -31 q-8 -13 -21 -13 q-12 0 -20 13 q-8 13 -8 31 q0 17 8 29.5 q8 12.5 20 12.5 q13 0 21 -12 ZM66 588 q0 -18 -8.5 -31 q-8.5 -13 -19.5 -13 q-13 0 -21.5 13 q-8.5 13 -8.5 31 q0 17 8.5 29.5 q8.5 12.5 21.5 12.5 q11 0 19.5 -12.5 q8.5 -12.5 8.5 -29.5 Z" /><glyph glyph-name="afii10105" unicode="&#x458;" d="M110 -180 l-58 0 l0 627 l58 0 l0 -627 ZM123 587 q0 -17 -12.5 -29 q-12.5 -12 -29.5 -12 q-17 0 -29.5 12 q-12.5 12 -12.5 29 q0 18 12 30.5 q12 12.5 30 12.5 q18 0 30 -12.5 q12 -12.5 12 -30.5 Z" /><glyph glyph-name="afii10106" unicode="&#x459;" d="M234 0 l0 395 l-103 0 l0 -190 q0 -50 -4 -93 q-6 -65 -35 -93 q-24 -23 -59 -23 q-13 0 -29 4 l0 58 q9 -9 24 -9 q17 0 27 11 q23 24 23 117 l0 270 l212 0 l0 -171 l20 0 q71 0 109 -36 q39 -37 39 -109 q0 -65 -32 -98 q-32 -33 -96 -33 l-96 0 ZM290 52 l32 0 q41 0 58 16 q21 19 21 69 q0 39 -20 63 q-22 26 -66 26 l-25 0 l0 -174 Z" /><glyph glyph-name="afii10107" unicode="&#x45a;" d="M224 0 l0 221 l-118 0 l0 -221 l-56 0 l0 447 l56 0 l0 -174 l118 0 l0 174 l57 0 l0 -174 l19 0 q73 0 110 -36 q38 -37 38 -108 q0 -64 -31 -96 q-32 -33 -97 -33 l-96 0 ZM281 52 l31 0 q41 0 58 16 q21 19 21 62 q0 47 -25 72 q-19 19 -59 19 l-26 0 l0 -169 Z" /><glyph glyph-name="afii10108" unicode="&#x45b;" d="M290 0 l-56 0 l0 301 q0 18 -1 29 q-1 11 -5.5 25.5 q-4.5 14.5 -15.5 21.5 q-11 7 -28 7 q-35 0 -54 -29 q-15 -23 -15 -78 l0 -277 l-56 0 l0 532 l-49 0 l0 52 l49 0 l0 145 l56 0 l0 -145 l104 0 l0 -52 l-104 0 l0 -145 q40 43 87 43 q50 0 69 -30.5 q19 -30.5 19 -84.5 l0 -315 Z" /><glyph glyph-name="afii10109" unicode="&#x45c;" d="M106 447 l0 -195 l119 195 l65 0 l-135 -215 l149 -232 l-69 0 l-129 205 l0 -205 l-56 0 l0 447 l56 0 ZM275 610 l-115 -103 l-35 26 l96 120 l54 -43 Z" /><glyph glyph-name="afii10110" unicode="&#x45e;" d="M283 447 l-160 -627 l-60 0 l50 192 l-106 435 l57 0 l56 -248 q13 -54 21 -112 q3 23 18 84 l65 276 l59 0 ZM207 597 l47 -23 q-12 -36 -41 -56 q-25 -18 -66 -18 q-41 0 -66 18 q-29 20 -41 56 l47 23 q4 -22 21 -36 q13 -11 40 -11 q25 0 38 11 q16 12 21 36 Z" /><glyph glyph-name="afii10193" unicode="&#x45f;" d="M276 447 l0 -447 l-85 0 l0 -104 l-57 0 l0 104 l-84 0 l0 447 l56 0 l0 -395 l114 0 l0 395 l56 0 Z" /><glyph glyph-name="afii10146" unicode="&#x462;" d="M177 542 l0 -164 l37 0 q73 0 114 -40 q49 -48 49 -149 q0 -116 -56 -161 q-35 -28 -107 -28 l-99 0 l0 542 l-100 0 l0 57 l98 0 l0 95 l64 0 l0 -95 l134 0 l0 -57 l-134 0 ZM177 53 l33 0 q50 0 73 23 q30 30 30 103 q0 88 -35 119 q-25 23 -71 23 l-30 0 l0 -268 Z" /><glyph glyph-name="afii10194" unicode="&#x463;" d="M77 0 l0 395 l-67 0 l0 52 l67 0 l0 220 l56 0 l0 -220 l105 0 l0 -52 l-105 0 l0 -119 l20 0 q72 0 110 -36 q38 -36 38 -109 q0 -65 -32 -98 q-32 -33 -96 -33 l-96 0 ZM133 52 l32 0 q41 0 58 16 q21 19 21 69 q0 39 -20 63 q-22 26 -66 26 l-25 0 l0 -174 Z" /><glyph glyph-name="afii10147" unicode="&#x472;" d="M366 334 q0 -235 -74 -307 q-38 -36 -90 -36 q-52 0 -90 36 q-74 72 -74 307 q0 234 74 306 q38 36 90 36 q52 0 90 -36 q74 -72 74 -306 ZM253 594 q-22 22 -51 22 q-29 0 -51 -22 q-50 -52 -50 -211 l202 0 q-3 163 -50 211 ZM303 326 l-202 0 q-1 -27 0 -65 q1 -38 13 -100 q12 -62 37 -88 q22 -22 51 -22 q29 0 51 22 q32 33 42.5 109.5 q10.5 76.5 7.5 143.5 Z" /><glyph glyph-name="afii10195" unicode="&#x473;" d="M289 224 q0 -152 -53 -203 q-29 -28 -75 -28 q-46 0 -75 28 q-53 51 -53 203 q0 151 53 202 q29 28 75 28 q46 0 75 -28 q53 -51 53 -202 ZM195 388 q-14 14 -34 14 q-20 0 -34 -14 q-31 -31 -35 -127 l138 0 q-4 96 -35 127 ZM231 209 l-140 0 q0 -113 36 -149 q14 -14 34 -14 q20 0 34 14 q36 36 36 149 Z" /><glyph glyph-name="afii10148" unicode="&#x474;" d="M325 667 l-135 -667 l-55 0 l-134 667 l64 0 l84 -442 q6 -33 15 -134 q7 77 17 132 l80 444 l64 0 Z" /><glyph glyph-name="afii10196" unicode="&#x475;" d="M269 447 l-99 -447 l-61 0 l-102 447 l58 0 l59 -267 q9 -43 16 -96 q11 68 16 94 l55 269 l58 0 Z" /><glyph glyph-name="afii10050" unicode="&#x490;" d="M55 0 l0 667 l168 0 l0 121 l62 0 l0 -178 l-168 0 l0 -610 l-62 0 Z" /><glyph glyph-name="afii10098" unicode="&#x491;" d="M50 0 l0 447 l139 0 l0 99 l57 0 l0 -151 l-139 0 l0 -395 l-57 0 Z" /><glyph glyph-name="uni0492" unicode="&#x492;" d="M290 610 l-150 0 l0 -234 l116 0 l0 -57 l-116 0 l0 -319 l-62 0 l0 319 l-58 0 l0 57 l58 0 l0 291 l212 0 l0 -57 Z" /><glyph glyph-name="uni0493" unicode="&#x493;" d="M67 0 l0 193 l-47 0 l0 52 l47 0 l0 202 l180 0 l0 -52 l-124 0 l0 -150 l105 0 l0 -52 l-105 0 l0 -193 l-56 0 Z" /><glyph glyph-name="uni0494" unicode="&#x494;" d="M281 610 l-164 0 l0 -219 q39 14 75 14 q62 0 103 -39 q51 -51 51 -171 q0 -131 -53 -179 q-30 -28 -79 -28 q-37 0 -70 18 l19 59 q21 -17 46 -17 q29 0 45 18 q29 32 29 122 q0 104 -36 138 q-24 22 -63 22 q-35 0 -67 -17 l0 -331 l-62 0 l0 667 l226 0 l0 -57 Z" /><glyph glyph-name="uni0495" unicode="&#x495;" d="M50 0 l0 447 l180 0 l0 -52 l-124 0 l0 -134 l19 0 q65 0 99 -32 q49 -46 49 -162 q0 -143 -66 -208 q-30 -28 -72 -39 l0 63 q17 3 34 18 q45 44 45 166 q0 91 -30 120 q-19 19 -59 19 l-19 0 l0 -206 l-56 0 Z" /><glyph glyph-name="uni0496" unicode="&#x496;" d="M392 667 l65 0 l-138 -318 l114 -292 l48 0 l0 -187 l-62 0 l0 130 l-27 0 l-128 336 l0 -336 l-62 0 l0 336 l-132 -336 l-66 0 l143 349 l-138 318 l65 0 l128 -303 l0 303 l62 0 l0 -303 l128 303 Z" /><glyph glyph-name="uni0497" unicode="&#x497;" d="M350 447 l61 0 l-127 -214 l101 -181 l50 0 l0 -156 l-56 0 l0 104 l-29 0 l-111 205 l0 -205 l-57 0 l0 205 l-115 -205 l-65 0 l135 233 l-127 214 l61 0 l111 -195 l0 195 l57 0 l0 -195 l111 195 Z" /><glyph glyph-name="uni0498" unicode="&#x498;" d="M101 370 l17 0 q51 0 78 26 q31 29 31 92 q0 64 -27 96 q-26 30 -68 30 q-34 0 -59 -19 q-19 -14 -35 -38 l0 85 q45 34 104 34 q68 0 106 -42 q44 -47 44 -132 q0 -68 -23 -105 q-20 -34 -59 -50 q42 -7 69 -37 q36 -40 36 -110 q0 -108 -56 -166 q-34 -36 -81 -40 l0 -124 l-62 0 l0 124 q-48 3 -86 34 l0 87 q41 -62 109 -62 q50 0 78 34 q30 36 30 101 q0 66 -35 98 q-29 27 -91 27 l-20 0 l0 57 Z" /><glyph glyph-name="uni0499" unicode="&#x499;" d="M176 231 q27 -7 46 -25 q32 -28 32 -83 q0 -52 -32 -89 q-24 -30 -66 -38 l0 -100 l-56 0 l0 100 q-39 4 -70 32 l0 72 q18 -23 37 -38 q23 -16 49 -16 q37 0 56 21 q20 22 20 55 q0 43 -24 62 q-19 16 -66 16 l-17 0 l0 54 l19 0 q35 0 56 16 q21 17 21 55 q0 38 -18 57 q-17 19 -48 19 q-27 0 -48 -18 q-16 -14 -32 -37 l0 72 q36 36 87 36 q52 0 83 -31 q33 -34 33 -90 q0 -43 -19 -69 q-16 -21 -43 -33 Z" /><glyph glyph-name="uni049A" unicode="&#x49a;" d="M55 667 l62 0 l0 -303 l134 303 l69 0 l-144 -318 l118 -292 l48 0 l0 -187 l-62 0 l0 130 l-32 0 l-131 336 l0 -336 l-62 0 l0 667 Z" /><glyph glyph-name="uni049B" unicode="&#x49b;" d="M106 447 l0 -195 l119 195 l66 0 l-136 -215 l112 -180 l50 0 l0 -156 l-56 0 l0 104 l-30 0 l-125 205 l0 -205 l-56 0 l0 447 l56 0 Z" /><glyph glyph-name="uni049C" unicode="&#x49c;" d="M117 321 l0 -321 l-62 0 l0 667 l62 0 l0 -288 l41 0 l0 137 l56 0 l0 -152 l134 303 l66 0 l-144 -318 l145 -349 l-67 0 l-134 336 l0 -176 l-56 0 l0 161 l-41 0 Z" /><glyph glyph-name="uni049D" unicode="&#x49d;" d="M106 202 l0 -202 l-56 0 l0 447 l56 0 l0 -195 l32 0 l0 93 l47 0 l0 -93 l100 195 l62 0 l-113 -210 l123 -237 l-66 0 l-106 205 l0 -116 l-47 0 l0 113 l-32 0 Z" /><glyph glyph-name="uni04A0" unicode="&#x4a0;" d="M381 0 l-70 0 l-134 336 l0 -336 l-62 0 l0 610 l-100 0 l0 57 l162 0 l0 -303 l134 303 l69 0 l-144 -318 l145 -349 Z" /><glyph glyph-name="uni04A1" unicode="&#x4a1;" d="M161 252 l120 195 l65 0 l-135 -215 l149 -232 l-69 0 l-130 205 l0 -205 l-56 0 l0 395 l-95 0 l0 52 l151 0 l0 -195 Z" /><glyph glyph-name="uni04A2" unicode="&#x4a2;" d="M55 667 l62 0 l0 -266 l152 0 l0 266 l62 0 l0 -610 l54 0 l0 -187 l-62 0 l0 130 l-54 0 l0 344 l-152 0 l0 -344 l-62 0 l0 667 Z" /><glyph glyph-name="uni04A3" unicode="&#x4a3;" d="M50 447 l56 0 l0 -186 l119 0 l0 186 l56 0 l0 -395 l50 0 l0 -156 l-56 0 l0 104 l-50 0 l0 209 l-119 0 l0 -209 l-56 0 l0 447 Z" /><glyph glyph-name="uni04A4" unicode="&#x4a4;" d="M331 610 l0 -610 l-62 0 l0 344 l-152 0 l0 -344 l-62 0 l0 667 l62 0 l0 -266 l152 0 l0 266 l188 0 l0 -57 l-126 0 Z" /><glyph glyph-name="uni04A5" unicode="&#x4a5;" d="M225 0 l0 209 l-118 0 l0 -209 l-57 0 l0 447 l57 0 l0 -186 l118 0 l0 186 l169 0 l0 -52 l-113 0 l0 -395 l-56 0 Z" /><glyph glyph-name="uni04AA" unicode="&#x4aa;" d="M302 81 l0 -62 q-24 -18 -51 -24 l0 -125 l-62 0 l0 125 q-45 9 -76 40 q-75 75 -75 282 q0 237 81 317 q42 42 105 42 q41 0 78 -21 l0 -68 q-41 29 -77 29 q-38 0 -65 -27 q-59 -59 -59 -237 q0 -219 57 -276 q25 -25 62 -25 q41 0 82 30 Z" /><glyph glyph-name="uni04AB" unicode="&#x4ab;" d="M226 86 l0 -70 q-15 -14 -31 -18 l0 -102 l-56 0 l0 100 q-37 7 -60 40 q-46 63 -46 186 q0 134 54 196 q31 36 78 36 q33 0 61 -17 l0 -66 q-26 31 -58 31 q-17 0 -31 -12 q-45 -39 -45 -167 q0 -51 9.5 -90 q9.5 -39 16 -50.5 q6.5 -11.5 12.5 -17.5 q18 -19 39 -19 q30 0 57 40 Z" /><glyph glyph-name="uni04AE" unicode="&#x4ae;" d="M315 667 l-122 -378 l0 -289 l-62 0 l0 289 l-130 378 l67 0 l62 -191 q18 -56 32 -123 q8 53 29 122 l57 192 l67 0 Z" /><glyph glyph-name="uni04AF" unicode="&#x4af;" d="M8 447 l59 0 l47 -172 q27 -102 33 -135 q12 62 34 140 l46 167 l59 0 l-110 -378 l0 -249 l-58 0 l0 249 l-110 378 Z" /><glyph glyph-name="uni04B0" unicode="&#x4b0;" d="M315 667 l-122 -378 l0 -30 l102 0 l0 -54 l-102 0 l0 -205 l-62 0 l0 205 l-102 0 l0 54 l102 0 l0 30 l-130 378 l67 0 l62 -191 q18 -56 32 -123 q8 53 29 122 l57 192 l67 0 Z" /><glyph glyph-name="uni04B1" unicode="&#x4b1;" d="M8 447 l59 0 l47 -172 q27 -102 33 -135 q12 62 34 140 l46 167 l59 0 l-110 -370 l0 -25 l75 0 l0 -52 l-75 0 l0 -180 l-58 0 l0 180 l-75 0 l0 52 l75 0 l0 25 l-110 370 Z" /><glyph glyph-name="uni04B2" unicode="&#x4b2;" d="M68 667 l59 -165 q22 -60 32 -117 q6 39 32 113 l60 169 l66 0 l-127 -328 l104 -282 l42 0 l0 -187 l-62 0 l0 130 l-23 0 l-66 189 q-17 49 -26 95 q-9 -41 -28 -97 l-63 -187 l-67 0 l130 339 l-130 328 l67 0 Z" /><glyph glyph-name="uni04B3" unicode="&#x4b3;" d="M18 447 l62 0 q53 -143 63 -189 q5 23 13 50 q8 27 15 45 q7 18 20 49 q13 31 18 45 l63 0 l-100 -218 l77 -177 l47 0 l0 -156 l-53 0 l0 104 l-34 0 l-49 127 q-19 51 -22 66 q-4 -24 -20 -67 l-48 -126 l-63 0 l103 229 l-92 218 Z" /><glyph glyph-name="uni04B6" unicode="&#x4b6;" d="M320 667 l0 -610 l54 0 l0 -187 l-62 0 l0 130 l-54 0 l0 337 q-35 -8 -74 -8 q-66 0 -99 28 q-25 21 -32.5 52.5 q-7.5 31.5 -7.5 81.5 l0 176 l63 0 l0 -169 q0 -75 22 -95 q19 -17 66 -17 q33 0 62 7 l0 274 l62 0 Z" /><glyph glyph-name="uni04B7" unicode="&#x4b7;" d="M253 0 l-50 0 l0 211 q-27 -9 -62 -9 q-55 0 -81 25 q-30 28 -30 103 l0 117 l56 0 l0 -123 q0 -41 15 -55 q15 -14 48 -14 q30 0 54 8 l0 184 l56 0 l0 -395 l50 0 l0 -156 l-56 0 l0 104 Z" /><glyph glyph-name="uni04B8" unicode="&#x4b8;" d="M335 667 l0 -667 l-62 0 l0 337 q-24 -6 -41 -6 l0 -152 l-56 0 l0 151 q-59 0 -91 27 q-25 21 -32.5 52.5 q-7.5 31.5 -7.5 81.5 l0 176 l63 0 l0 -171 q0 -72 18 -91 q17 -18 50 -18 l0 141 l56 0 l0 -141 q22 0 41 6 l0 274 l62 0 Z" /><glyph glyph-name="uni04B9" unicode="&#x4b9;" d="M210 0 l0 211 q-12 -5 -31 -7 l0 -105 l-48 0 l0 105 q-47 0 -73 26 q-28 28 -28 91 l0 126 l56 0 l0 -123 q0 -37 11 -50 q11 -14 34 -16 l0 95 l48 0 l0 -96 q14 0 31 6 l0 184 l56 0 l0 -447 l-56 0 Z" /><glyph glyph-name="uni04BA" unicode="&#x4ba;" d="M55 0 l0 667 l62 0 l0 -276 q42 14 78 14 q64 0 99 -28 q25 -21 32.5 -52.5 q7.5 -31.5 7.5 -81.5 l0 -243 l-63 0 l0 236 q0 73 -23 94 q-21 18 -62 18 q-37 0 -69 -17 l0 -331 l-62 0 Z" /><glyph glyph-name="uni04BB" unicode="&#x4bb;" d="M280 0 l-56 0 l0 321 q0 20 -1 30 q-1 10 -5 26 q-4 16 -15 23.5 q-11 7.5 -29 7.5 q-35 0 -53 -29 q-15 -23 -15 -78 l0 -301 l-56 0 l0 729 l56 0 l0 -318 q38 43 87 43 q50 0 68.5 -30.5 q18.5 -30.5 18.5 -84.5 l0 -339 Z" /><glyph glyph-name="uni04C0" unicode="&#x4c0;" d="M107 0 l-57 0 l0 667 l57 0 l0 -667 Z" /><glyph glyph-name="uni04C1" unicode="&#x4c1;" d="M462 0 l-66 0 l-132 336 l0 -336 l-62 0 l0 336 l-132 -336 l-66 0 l143 349 l-138 318 l65 0 l128 -303 l0 303 l62 0 l0 -303 l128 303 l65 0 l-138 -318 l143 -349 ZM299 806 l53 -22 q-12 -39 -46 -62 q-30 -19 -73 -19 q-44 0 -73 19 q-36 23 -46 62 l53 22 q6 -24 24 -37 q15 -12 42 -12 q26 0 42 12 q16 12 24 37 Z" /><glyph glyph-name="uni04C2" unicode="&#x4c2;" d="M419 0 l-65 0 l-115 205 l0 -205 l-57 0 l0 205 l-115 -205 l-65 0 l135 233 l-127 214 l61 0 l111 -195 l0 195 l57 0 l0 -195 l111 195 l61 0 l-127 -214 l135 -233 ZM272 597 l47 -23 q-12 -36 -41 -56 q-25 -18 -66 -18 q-41 0 -66 18 q-29 20 -41 56 l47 23 q4 -22 21 -36 q13 -11 40 -11 q25 0 38 11 q16 12 21 36 Z" /><glyph glyph-name="uni04C3" unicode="&#x4c3;" d="M55 667 l62 0 l0 -303 l138 303 l69 0 l-126 -266 q54 0 93 -35 q24 -22 36.5 -60.5 q12.5 -38.5 14 -67.5 q1.5 -29 1.5 -84 l0 -83 q0 -155 -53 -203 q-31 -28 -79 -28 q-37 0 -70 18 l19 59 q22 -17 46 -17 q28 0 45 18 q29 32 29 147 l0 87 q0 69 -6.5 109 q-6.5 40 -27.5 60 q-23 23 -65 23 q-29 0 -64 -13 l0 -331 l-62 0 l0 667 Z" /><glyph glyph-name="uni04C4" unicode="&#x4c4;" d="M106 447 l0 -195 l119 195 l65 0 l-121 -193 q39 -7 64 -34 q41 -45 41 -152 q0 -142 -64 -206 q-31 -31 -75 -42 l0 63 q17 3 34 18 q45 44 45 152 q0 103 -28 131 q-21 21 -68 21 l-12 0 l0 -205 l-56 0 l0 447 l56 0 Z" /><glyph glyph-name="uni04C7" unicode="&#x4c7;" d="M269 667 l62 0 l0 -741 q0 -19 -1 -29 q-7 -77 -95 -77 q-34 0 -72 18 l0 64 q33 -28 62 -28 q28 0 36 19 q8 19 8 60 l0 391 l-152 0 l0 -344 l-62 0 l0 667 l62 0 l0 -266 l152 0 l0 266 Z" /><glyph glyph-name="uni04C8" unicode="&#x4c8;" d="M50 447 l56 0 l0 -186 l118 0 l0 186 l56 0 l0 -489 q0 -80 -31 -112 q-25 -26 -63 -26 q-23 0 -43 10 l0 57 q15 -11 35 -11 q19 0 29 8 q17 15 17 74 l0 251 l-118 0 l0 -209 l-56 0 l0 447 Z" /><glyph glyph-name="uni04D0" unicode="&#x4d0;" d="M324 0 l-66 0 l-25 137 l-141 0 l-25 -137 l-66 0 l132 667 l58 0 l133 -667 ZM223 191 l-44 235 q-14 75 -19 157 q-7 -104 -58 -392 l121 0 ZM229 806 l53 -22 q-12 -39 -46 -62 q-30 -19 -73 -19 q-44 0 -73 19 q-36 23 -46 62 l53 22 q6 -24 24 -37 q15 -12 42 -12 q26 0 42 12 q16 12 24 37 Z" /><glyph glyph-name="uni04D1" unicode="&#x4d1;" d="M277 0 l-57 0 l0 36 q-32 -43 -76 -43 q-29 0 -50 16.5 q-21 16.5 -31.5 38 q-10.5 21.5 -16 56 q-5.5 34.5 -6.5 57 q-1 22.5 -1 54.5 q0 36 1 60.5 q1 24.5 7 61.5 q6 37 17 60 q11 23 32.5 40 q21.5 17 52.5 17 q41 0 71 -37 l0 30 l57 0 l0 -447 ZM226 226 q0 40 -2 67.5 q-2 27.5 -7.5 56.5 q-5.5 29 -19 44 q-13.5 15 -34.5 15 q-66 0 -66 -159 q0 -72 3 -108 q2 -22 4.5 -34 q2.5 -12 8.5 -31 q6 -19 18.5 -28.5 q12.5 -9.5 30.5 -9.5 q22 0 36 15 q28 28 28 172 ZM217 597 l47 -23 q-12 -36 -41 -56 q-25 -18 -66 -18 q-41 0 -66 18 q-29 20 -41 56 l47 23 q4 -22 21 -36 q13 -11 40 -11 q25 0 38 11 q16 12 21 36 Z" /><glyph glyph-name="uni04D2" unicode="&#x4d2;" d="M324 0 l-66 0 l-25 137 l-141 0 l-25 -137 l-66 0 l132 667 l58 0 l133 -667 ZM223 191 l-44 235 q-14 75 -19 157 q-7 -104 -58 -392 l121 0 ZM257.5 794.5 q12.5 -12.5 12.5 -30.5 q0 -18 -12.5 -31 q-12.5 -13 -30.5 -13 q-18 0 -30.5 13 q-12.5 13 -12.5 31 q0 18 12.5 30.5 q12.5 12.5 30.5 12.5 q18 0 30.5 -12.5 ZM129.5 794.5 q12.5 -12.5 12.5 -30.5 q0 -18 -12.5 -31 q-12.5 -13 -30.5 -13 q-18 0 -30.5 13 q-12.5 13 -12.5 31 q0 18 12.5 30.5 q12.5 12.5 30.5 12.5 q18 0 30.5 -12.5 Z" /><glyph glyph-name="uni04D3" unicode="&#x4d3;" d="M277 0 l-57 0 l0 36 q-32 -43 -76 -43 q-29 0 -50 16.5 q-21 16.5 -31.5 38 q-10.5 21.5 -16 56 q-5.5 34.5 -6.5 57 q-1 22.5 -1 54.5 q0 36 1 60.5 q1 24.5 7 61.5 q6 37 17 60 q11 23 32.5 40 q21.5 17 52.5 17 q41 0 71 -37 l0 30 l57 0 l0 -447 ZM226 226 q0 40 -2 67.5 q-2 27.5 -7.5 56.5 q-5.5 29 -19 44 q-13.5 15 -34.5 15 q-66 0 -66 -159 q0 -72 3 -108 q2 -22 4.5 -34 q2.5 -12 8.5 -31 q6 -19 18.5 -28.5 q12.5 -9.5 30.5 -9.5 q22 0 36 15 q28 28 28 172 ZM260.5 587.5 q12.5 -12.5 12.5 -30.5 q0 -18 -12.5 -31 q-12.5 -13 -30.5 -13 q-18 0 -30.5 13 q-12.5 13 -12.5 31 q0 18 12.5 30.5 q12.5 12.5 30.5 12.5 q18 0 30.5 -12.5 ZM132.5 587.5 q12.5 -12.5 12.5 -30.5 q0 -18 -12.5 -31 q-12.5 -13 -30.5 -13 q-18 0 -30.5 13 q-12.5 13 -12.5 31 q0 18 12.5 30.5 q12.5 12.5 30.5 12.5 q18 0 30.5 -12.5 Z" /><glyph glyph-name="uni04D4" unicode="&#x4d4;" d="M471 0 l-207 0 l-22 137 l-151 0 l-24 -137 l-66 0 l131 667 l222 0 l11 -57 l-143 0 l42 -235 l135 0 l11 -57 l-136 0 l47 -261 l141 0 l9 -57 ZM233 190 l-47 282 q-13 74 -15 123 q-4 -20 -9.5 -60.5 q-5.5 -40.5 -9.5 -61.5 l-51 -283 l132 0 Z" /><glyph glyph-name="uni04D5" unicode="&#x4d5;" d="M474 214 l-197 0 q0 -24 3 -48 q3 -24 10 -54 q7 -30 24 -48.5 q17 -18.5 41 -18.5 q57 0 60 110 l53 0 q-1 -38 -12 -73 q-11 -35 -38 -62 q-27 -27 -66 -27 q-62 0 -97 74 q-15 -34 -43.5 -54 q-28.5 -20 -64.5 -20 q-58 0 -86 47 q-28 47 -28 110 q0 61 27 104.5 q27 43.5 85 43.5 q51 0 80 -37 l0 13 q0 128 -87 128 q-34 0 -78 -36 l0 62 q37 26 81 26 q80 0 114 -75 q13 32 38.5 53.5 q25.5 21.5 57.5 21.5 q120 0 123 -240 ZM279 261 l139 0 q0 20 -3 41.5 q-3 21.5 -10 45 q-7 23.5 -22 39 q-15 15.5 -36 15.5 q-26 0 -42.5 -28 q-16.5 -28 -21 -57 q-4.5 -29 -4.5 -56 ZM226 145 q0 42 -16.5 74.5 q-16.5 32.5 -54.5 32.5 q-67 0 -67 -102 q0 -41 15 -72.5 q15 -31.5 52 -31.5 q37 0 54 30 q17 30 17 69 Z" /><glyph glyph-name="uni04D6" unicode="&#x4d6;" d="M263 0 l-208 0 l0 667 l208 0 l0 -57 l-146 0 l0 -235 l142 0 l0 -57 l-142 0 l0 -261 l146 0 l0 -57 ZM225 806 l53 -22 q-12 -39 -46 -62 q-30 -19 -73 -19 q-44 0 -73 19 q-36 23 -46 62 l53 22 q6 -24 24 -37 q15 -12 42 -12 q26 0 42 12 q16 12 24 37 Z" /><glyph glyph-name="uni04D7" unicode="&#x4d7;" d="M219 152 l57 0 q-7 -159 -113 -159 q-130 0 -130 229 q0 37 5 71.5 q5 34.5 17 73.5 q12 39 39 63 q27 24 65 24 q37 0 63 -21.5 q26 -21.5 37.5 -57 q11.5 -35.5 16 -68 q4.5 -32.5 4.5 -67.5 q0 -4 -0.5 -14 q-0.5 -10 -0.5 -14 l-189 0 l0 -10 q0 -22 2.5 -44 q2.5 -22 9 -50 q6.5 -28 22 -45 q15.5 -17 37.5 -17 q55 0 58 106 ZM91 260 l133 0 q-7 142 -64 142 q-62 0 -69 -142 ZM217 597 l47 -23 q-12 -36 -41 -56 q-25 -18 -66 -18 q-41 0 -66 18 q-29 20 -41 56 l47 23 q4 -22 21 -36 q13 -11 40 -11 q25 0 38 11 q16 12 21 36 Z" /><glyph glyph-name="uni04D8" unicode="&#x4d8;" d="M38 352 l235 0 l0 12 l0 9 q0 172 -48 221 q-21 22 -51 22 q-30 0 -49 -24 q-20 -25 -26 -71 l-61 24 q14 62 51 99 q32 32 85 32 q58 0 94 -36 q30 -30 46 -83 q16 -53 19 -96 q3 -43 3 -111 q0 -110 -8 -179 q-12 -103 -53 -144 q-35 -36 -95 -36 q-58 0 -92 34 q-50 50 -50 199 l0 128 ZM272 295 l-172 0 l0 -85 q0 -107 30 -139 q20 -20 50 -20 q31 0 51 18 q25 23 34 94 q7 63 7 132 Z" /><glyph glyph-name="afii10846" unicode="&#x4d9;" d="M36 235 l189 0 l0 10 q0 106 -33 140 q-15 16 -40 16 q-21 0 -37 -17 q-20 -20 -28 -78 l-54 22 q9 55 40 91 q30 35 78 35 q47 0 79 -33 q52 -55 52 -190 q0 -153 -58 -210 q-29 -28 -70 -28 q-39 0 -68 29 q-30 30 -42 91 q-12 61 -8 122 ZM224 187 l-133 0 q1 -35 9.5 -74.5 q8.5 -39.5 23.5 -54.5 q13 -13 31 -13 q17 0 32 13 q17 15 26.5 54 q9.5 39 10.5 75 Z" /><glyph glyph-name="uni04DA" unicode="&#x4da;" d="M38 352 l235 0 l0 12 l0 9 q0 172 -48 221 q-21 22 -51 22 q-30 0 -49 -24 q-20 -25 -26 -71 l-61 24 q14 62 51 99 q32 32 85 32 q58 0 94 -36 q30 -30 46 -83 q16 -53 19 -96 q3 -43 3 -111 q0 -110 -8 -179 q-12 -103 -53 -144 q-35 -36 -95 -36 q-58 0 -92 34 q-50 50 -50 199 l0 128 ZM272 295 l-172 0 l0 -85 q0 -107 30 -139 q20 -20 50 -20 q31 0 51 18 q25 23 34 94 q7 63 7 132 ZM269.5 794.5 q12.5 -12.5 12.5 -30.5 q0 -18 -12.5 -31 q-12.5 -13 -30.5 -13 q-18 0 -30.5 13 q-12.5 13 -12.5 31 q0 18 12.5 30.5 q12.5 12.5 30.5 12.5 q18 0 30.5 -12.5 ZM141.5 794.5 q12.5 -12.5 12.5 -30.5 q0 -18 -12.5 -31 q-12.5 -13 -30.5 -13 q-18 0 -30.5 13 q-12.5 13 -12.5 31 q0 18 12.5 30.5 q12.5 12.5 30.5 12.5 q18 0 30.5 -12.5 Z" /><glyph glyph-name="uni04DB" unicode="&#x4db;" d="M36 235 l189 0 l0 10 q0 106 -33 140 q-15 16 -40 16 q-21 0 -37 -17 q-20 -20 -28 -78 l-54 22 q9 55 40 91 q30 35 78 35 q47 0 79 -33 q52 -55 52 -190 q0 -153 -58 -210 q-29 -28 -70 -28 q-39 0 -68 29 q-30 30 -42 91 q-12 61 -8 122 ZM224 187 l-133 0 q1 -35 9.5 -74.5 q8.5 -39.5 23.5 -54.5 q13 -13 31 -13 q17 0 32 13 q17 15 26.5 54 q9.5 39 10.5 75 ZM249.5 587.5 q12.5 -12.5 12.5 -30.5 q0 -18 -12.5 -31 q-12.5 -13 -30.5 -13 q-18 0 -30.5 13 q-12.5 13 -12.5 31 q0 18 12.5 30.5 q12.5 12.5 30.5 12.5 q18 0 30.5 -12.5 ZM121.5 587.5 q12.5 -12.5 12.5 -30.5 q0 -18 -12.5 -31 q-12.5 -13 -30.5 -13 q-18 0 -30.5 13 q-12.5 13 -12.5 31 q0 18 12.5 30.5 q12.5 12.5 30.5 12.5 q18 0 30.5 -12.5 Z" /><glyph glyph-name="uni04DC" unicode="&#x4dc;" d="M462 0 l-66 0 l-132 336 l0 -336 l-62 0 l0 336 l-132 -336 l-66 0 l143 349 l-138 318 l65 0 l128 -303 l0 303 l62 0 l0 -303 l128 303 l65 0 l-138 -318 l143 -349 ZM327.5 794.5 q12.5 -12.5 12.5 -30.5 q0 -18 -12.5 -31 q-12.5 -13 -30.5 -13 q-18 0 -30.5 13 q-12.5 13 -12.5 31 q0 18 12.5 30.5 q12.5 12.5 30.5 12.5 q18 0 30.5 -12.5 ZM199.5 794.5 q12.5 -12.5 12.5 -30.5 q0 -18 -12.5 -31 q-12.5 -13 -30.5 -13 q-18 0 -30.5 13 q-12.5 13 -12.5 31 q0 18 12.5 30.5 q12.5 12.5 30.5 12.5 q18 0 30.5 -12.5 Z" /><glyph glyph-name="uni04DD" unicode="&#x4dd;" d="M419 0 l-65 0 l-115 205 l0 -205 l-57 0 l0 205 l-115 -205 l-65 0 l135 233 l-127 214 l61 0 l111 -195 l0 195 l57 0 l0 -195 l111 195 l61 0 l-127 -214 l135 -233 ZM308.5 587.5 q12.5 -12.5 12.5 -30.5 q0 -18 -12.5 -31 q-12.5 -13 -30.5 -13 q-18 0 -30.5 13 q-12.5 13 -12.5 31 q0 18 12.5 30.5 q12.5 12.5 30.5 12.5 q18 0 30.5 -12.5 ZM180.5 587.5 q12.5 -12.5 12.5 -30.5 q0 -18 -12.5 -31 q-12.5 -13 -30.5 -13 q-18 0 -30.5 13 q-12.5 13 -12.5 31 q0 18 12.5 30.5 q12.5 12.5 30.5 12.5 q18 0 30.5 -12.5 Z" /><glyph glyph-name="uni04DE" unicode="&#x4de;" d="M101 370 l17 0 q51 0 78 26 q31 29 31 92 q0 64 -27 96 q-26 30 -68 30 q-34 0 -59 -19 q-19 -14 -35 -38 l0 85 q45 34 104 34 q68 0 106 -42 q44 -47 44 -132 q0 -68 -23 -105 q-20 -34 -59 -50 q42 -7 69 -37 q36 -40 36 -110 q0 -110 -56 -166 q-43 -43 -113 -43 q-68 0 -116 37 l0 87 q41 -62 109 -62 q50 0 78 34 q30 36 30 101 q0 66 -35 98 q-29 27 -91 27 l-20 0 l0 57 ZM244.5 794.5 q12.5 -12.5 12.5 -30.5 q0 -18 -12.5 -31 q-12.5 -13 -30.5 -13 q-18 0 -30.5 13 q-12.5 13 -12.5 31 q0 18 12.5 30.5 q12.5 12.5 30.5 12.5 q18 0 30.5 -12.5 ZM116.5 794.5 q12.5 -12.5 12.5 -30.5 q0 -18 -12.5 -31 q-12.5 -13 -30.5 -13 q-18 0 -30.5 13 q-12.5 13 -12.5 31 q0 18 12.5 30.5 q12.5 12.5 30.5 12.5 q18 0 30.5 -12.5 Z" /><glyph glyph-name="uni04DF" unicode="&#x4df;" d="M176 231 q27 -7 46 -25 q32 -29 32 -83 q0 -59 -41 -98 q-35 -32 -89 -32 q-54 0 -94 35 l0 72 q18 -23 37 -38 q23 -16 49 -16 q37 0 56 21 q20 22 20 55 q0 43 -24 62 q-19 16 -66 16 l-17 0 l0 54 l19 0 q35 0 56 16 q21 17 21 55 q0 38 -18 57 q-17 19 -48 19 q-27 0 -48 -18 q-16 -14 -32 -37 l0 72 q36 36 87 36 q52 0 83 -31 q33 -34 33 -90 q0 -43 -19 -69 q-16 -21 -43 -33 ZM224.5 587.5 q12.5 -12.5 12.5 -30.5 q0 -18 -12.5 -31 q-12.5 -13 -30.5 -13 q-18 0 -30.5 13 q-12.5 13 -12.5 31 q0 18 12.5 30.5 q12.5 12.5 30.5 12.5 q18 0 30.5 -12.5 ZM96.5 587.5 q12.5 -12.5 12.5 -30.5 q0 -18 -12.5 -31 q-12.5 -13 -30.5 -13 q-18 0 -30.5 13 q-12.5 13 -12.5 31 q0 18 12.5 30.5 q12.5 12.5 30.5 12.5 q18 0 30.5 -12.5 Z" /><glyph glyph-name="uni04E2" unicode="&#x4e2;" d="M55 0 l0 667 l62 0 l0 -452 q0 -29 -6 -84 q5 18 10 35.5 q5 17.5 8 27 q3 9.5 6 18.5 l142 455 l62 0 l0 -667 l-62 0 l0 431 q0 27 6 105 q-13 -51 -27 -94 l-139 -442 l-62 0 ZM309 727 l-224 0 l0 55 l224 0 l0 -55 Z" /><glyph glyph-name="uni04E3" unicode="&#x4e3;" d="M286 0 l-56 0 l0 278 q0 19 2 64 q-7 -31 -21 -67 l-105 -275 l-56 0 l0 447 l56 0 l0 -276 q0 -37 -2 -69 q9 33 21 66 l105 279 l56 0 l0 -447 ZM282 520 l-224 0 l0 55 l224 0 l0 -55 Z" /><glyph glyph-name="uni04E4" unicode="&#x4e4;" d="M55 0 l0 667 l62 0 l0 -452 q0 -29 -6 -84 q5 18 10 35.5 q5 17.5 8 27 q3 9.5 6 18.5 l142 455 l62 0 l0 -667 l-62 0 l0 431 q0 27 6 105 q-13 -51 -27 -94 l-139 -442 l-62 0 ZM291.5 794.5 q12.5 -12.5 12.5 -30.5 q0 -18 -12.5 -31 q-12.5 -13 -30.5 -13 q-18 0 -30.5 13 q-12.5 13 -12.5 31 q0 18 12.5 30.5 q12.5 12.5 30.5 12.5 q18 0 30.5 -12.5 ZM163.5 794.5 q12.5 -12.5 12.5 -30.5 q0 -18 -12.5 -31 q-12.5 -13 -30.5 -13 q-18 0 -30.5 13 q-12.5 13 -12.5 31 q0 18 12.5 30.5 q12.5 12.5 30.5 12.5 q18 0 30.5 -12.5 Z" /><glyph glyph-name="uni04E5" unicode="&#x4e5;" d="M286 0 l-56 0 l0 278 q0 19 2 64 q-7 -31 -21 -67 l-105 -275 l-56 0 l0 447 l56 0 l0 -276 q0 -37 -2 -69 q9 33 21 66 l105 279 l56 0 l0 -447 ZM264.5 587.5 q12.5 -12.5 12.5 -30.5 q0 -18 -12.5 -31 q-12.5 -13 -30.5 -13 q-18 0 -30.5 13 q-12.5 13 -12.5 31 q0 18 12.5 30.5 q12.5 12.5 30.5 12.5 q18 0 30.5 -12.5 ZM136.5 587.5 q12.5 -12.5 12.5 -30.5 q0 -18 -12.5 -31 q-12.5 -13 -30.5 -13 q-18 0 -30.5 13 q-12.5 13 -12.5 31 q0 18 12.5 30.5 q12.5 12.5 30.5 12.5 q18 0 30.5 -12.5 Z" /><glyph glyph-name="uni04E6" unicode="&#x4e6;" d="M366 336 q0 -38 -1 -65.5 q-1 -27.5 -5.5 -72.5 q-4.5 -45 -15.5 -77.5 q-11 -32.5 -28 -64 q-17 -31.5 -46 -48.5 q-29 -17 -67 -17 q-165 0 -165 342 q0 343 164 343 q164 0 164 -340 ZM303 358 q0 258 -100 258 q-102 0 -102 -282 q0 -283 102 -283 q80 0 94 155 q6 60 6 152 ZM296.5 794.5 q12.5 -12.5 12.5 -30.5 q0 -18 -12.5 -31 q-12.5 -13 -30.5 -13 q-18 0 -30.5 13 q-12.5 13 -12.5 31 q0 18 12.5 30.5 q12.5 12.5 30.5 12.5 q18 0 30.5 -12.5 ZM168.5 794.5 q12.5 -12.5 12.5 -30.5 q0 -18 -12.5 -31 q-12.5 -13 -30.5 -13 q-18 0 -30.5 13 q-12.5 13 -12.5 31 q0 18 12.5 30.5 q12.5 12.5 30.5 12.5 q18 0 30.5 -12.5 Z" /><glyph glyph-name="uni04E7" unicode="&#x4e7;" d="M289 221 q0 -228 -125 -228 q-41 0 -69 23 q-28 23 -40.5 61 q-12.5 38 -17 73 q-4.5 35 -4.5 74 q0 30 2.5 57.5 q2.5 27.5 10.5 60.5 q8 33 22 56.5 q14 23.5 38.5 39.5 q24.5 16 57.5 16 q125 0 125 -233 ZM163 46 q68 0 68 178 q0 178 -68 178 q-71 0 -71 -183 q0 -173 71 -173 ZM258.5 587.5 q12.5 -12.5 12.5 -30.5 q0 -18 -12.5 -31 q-12.5 -13 -30.5 -13 q-18 0 -30.5 13 q-12.5 13 -12.5 31 q0 18 12.5 30.5 q12.5 12.5 30.5 12.5 q18 0 30.5 -12.5 ZM130.5 587.5 q12.5 -12.5 12.5 -30.5 q0 -18 -12.5 -31 q-12.5 -13 -30.5 -13 q-18 0 -30.5 13 q-12.5 13 -12.5 31 q0 18 12.5 30.5 q12.5 12.5 30.5 12.5 q18 0 30.5 -12.5 Z" /><glyph glyph-name="uni04E8" unicode="&#x4e8;" d="M366 334 q0 -235 -74 -307 q-38 -36 -90 -36 q-52 0 -90 36 q-74 72 -74 307 q0 234 74 306 q38 36 90 36 q52 0 90 -36 q74 -72 74 -306 ZM253 594 q-22 22 -51 22 q-29 0 -51 -22 q-50 -52 -50 -211 l202 0 q-3 163 -50 211 ZM303 326 l-202 0 q-1 -27 0 -65 q1 -38 13 -100 q12 -62 37 -88 q22 -22 51 -22 q29 0 51 22 q32 33 42.5 109.5 q10.5 76.5 7.5 143.5 Z" /><glyph glyph-name="uni04E9" unicode="&#x4e9;" d="M289 224 q0 -152 -53 -203 q-29 -28 -75 -28 q-46 0 -75 28 q-53 51 -53 203 q0 151 53 202 q29 28 75 28 q46 0 75 -28 q53 -51 53 -202 ZM195 388 q-14 14 -34 14 q-20 0 -34 -14 q-31 -31 -35 -127 l138 0 q-4 96 -35 127 ZM231 209 l-140 0 q-1 -37 7.5 -83 q8.5 -46 28.5 -66 q14 -14 34 -14 q20 0 34 14 q36 36 36 149 Z" /><glyph glyph-name="uni04EA" unicode="&#x4ea;" d="M366 334 q0 -235 -74 -307 q-38 -36 -90 -36 q-52 0 -90 36 q-74 72 -74 307 q0 234 74 306 q38 36 90 36 q52 0 90 -36 q74 -72 74 -306 ZM253 594 q-22 22 -51 22 q-29 0 -51 -22 q-50 -52 -50 -211 l202 0 q-3 163 -50 211 ZM303 326 l-202 0 q-1 -27 0 -65 q1 -38 13 -100 q12 -62 37 -88 q22 -22 51 -22 q29 0 51 22 q32 33 42.5 109.5 q10.5 76.5 7.5 143.5 ZM296.5 794.5 q12.5 -12.5 12.5 -30.5 q0 -18 -12.5 -31 q-12.5 -13 -30.5 -13 q-18 0 -30.5 13 q-12.5 13 -12.5 31 q0 18 12.5 30.5 q12.5 12.5 30.5 12.5 q18 0 30.5 -12.5 ZM168.5 794.5 q12.5 -12.5 12.5 -30.5 q0 -18 -12.5 -31 q-12.5 -13 -30.5 -13 q-18 0 -30.5 13 q-12.5 13 -12.5 31 q0 18 12.5 30.5 q12.5 12.5 30.5 12.5 q18 0 30.5 -12.5 Z" /><glyph glyph-name="uni04EB" unicode="&#x4eb;" d="M289 224 q0 -152 -53 -203 q-29 -28 -75 -28 q-46 0 -75 28 q-53 51 -53 203 q0 151 53 202 q29 28 75 28 q46 0 75 -28 q53 -51 53 -202 ZM195 388 q-14 14 -34 14 q-20 0 -34 -14 q-31 -31 -35 -127 l138 0 q-4 96 -35 127 ZM231 209 l-140 0 q-1 -37 7.5 -83 q8.5 -46 28.5 -66 q14 -14 34 -14 q20 0 34 14 q36 36 36 149 ZM258.5 587.5 q12.5 -12.5 12.5 -30.5 q0 -18 -12.5 -31 q-12.5 -13 -30.5 -13 q-18 0 -30.5 13 q-12.5 13 -12.5 31 q0 18 12.5 30.5 q12.5 12.5 30.5 12.5 q18 0 30.5 -12.5 ZM130.5 587.5 q12.5 -12.5 12.5 -30.5 q0 -18 -12.5 -31 q-12.5 -13 -30.5 -13 q-18 0 -30.5 13 q-12.5 13 -12.5 31 q0 18 12.5 30.5 q12.5 12.5 30.5 12.5 q18 0 30.5 -12.5 Z" /><glyph glyph-name="uni04EE" unicode="&#x4ee;" d="M8 667 l68 0 l64 -211 q24 -77 39 -143 q12 62 34 145 l56 209 l64 0 l-188 -667 l-62 0 l64 224 l-139 443 ZM287 727 l-224 0 l0 55 l224 0 l0 -55 Z" /><glyph glyph-name="uni04EF" unicode="&#x4ef;" d="M283 447 l-160 -627 l-60 0 l50 192 l-106 435 l57 0 l56 -248 q13 -54 21 -112 q3 23 18 84 l65 276 l59 0 ZM259 520 l-224 0 l0 55 l224 0 l0 -55 Z" /><glyph glyph-name="uni04F0" unicode="&#x4f0;" d="M8 667 l68 0 l64 -211 q24 -77 39 -143 q12 62 34 145 l56 209 l64 0 l-188 -667 l-62 0 l64 224 l-139 443 ZM274.5 794.5 q12.5 -12.5 12.5 -30.5 q0 -18 -12.5 -31 q-12.5 -13 -30.5 -13 q-18 0 -30.5 13 q-12.5 13 -12.5 31 q0 18 12.5 30.5 q12.5 12.5 30.5 12.5 q18 0 30.5 -12.5 ZM146.5 794.5 q12.5 -12.5 12.5 -30.5 q0 -18 -12.5 -31 q-12.5 -13 -30.5 -13 q-18 0 -30.5 13 q-12.5 13 -12.5 31 q0 18 12.5 30.5 q12.5 12.5 30.5 12.5 q18 0 30.5 -12.5 Z" /><glyph glyph-name="uni04F1" unicode="&#x4f1;" d="M283 447 l-160 -627 l-60 0 l50 192 l-106 435 l57 0 l56 -248 q13 -54 21 -112 q3 23 18 84 l65 276 l59 0 ZM248.5 587.5 q12.5 -12.5 12.5 -30.5 q0 -18 -12.5 -31 q-12.5 -13 -30.5 -13 q-18 0 -30.5 13 q-12.5 13 -12.5 31 q0 18 12.5 30.5 q12.5 12.5 30.5 12.5 q18 0 30.5 -12.5 ZM120.5 587.5 q12.5 -12.5 12.5 -30.5 q0 -18 -12.5 -31 q-12.5 -13 -30.5 -13 q-18 0 -30.5 13 q-12.5 13 -12.5 31 q0 18 12.5 30.5 q12.5 12.5 30.5 12.5 q18 0 30.5 -12.5 Z" /><glyph glyph-name="uni04F2" unicode="&#x4f2;" d="M8 667 l68 0 l64 -211 q24 -77 39 -143 q12 62 34 145 l56 209 l64 0 l-188 -667 l-62 0 l64 224 l-139 443 ZM298 830 l-70 -116 l-37 13 l51 125 l56 -22 ZM195 830 l-69 -116 l-37 13 l50 125 l56 -22 Z" /><glyph glyph-name="uni04F3" unicode="&#x4f3;" d="M283 447 l-160 -627 l-60 0 l50 192 l-106 435 l57 0 l56 -248 q13 -54 21 -112 q3 23 18 84 l65 276 l59 0 ZM274 623 l-70 -116 l-37 13 l51 125 l56 -22 ZM171 623 l-69 -116 l-37 13 l50 125 l56 -22 Z" /><glyph glyph-name="uni04F4" unicode="&#x4f4;" d="M320 667 l0 -667 l-62 0 l0 337 q-35 -8 -74 -8 q-66 0 -99 28 q-25 21 -32.5 52.5 q-7.5 31.5 -7.5 81.5 l0 176 l63 0 l0 -169 q0 -75 22 -95 q19 -17 66 -17 q33 0 62 7 l0 274 l62 0 ZM281.5 794.5 q12.5 -12.5 12.5 -30.5 q0 -18 -12.5 -31 q-12.5 -13 -30.5 -13 q-18 0 -30.5 13 q-12.5 13 -12.5 31 q0 18 12.5 30.5 q12.5 12.5 30.5 12.5 q18 0 30.5 -12.5 ZM153.5 794.5 q12.5 -12.5 12.5 -30.5 q0 -18 -12.5 -31 q-12.5 -13 -30.5 -13 q-18 0 -30.5 13 q-12.5 13 -12.5 31 q0 18 12.5 30.5 q12.5 12.5 30.5 12.5 q18 0 30.5 -12.5 Z" /><glyph glyph-name="uni04F5" unicode="&#x4f5;" d="M202 0 l0 211 q-27 -9 -61 -9 q-52 0 -81 25 q-30 27 -30 103 l0 117 l56 0 l0 -123 q0 -41 15 -55 q15 -14 48 -14 q25 0 53 8 l0 184 l56 0 l0 -447 l-56 0 ZM239.5 587.5 q12.5 -12.5 12.5 -30.5 q0 -18 -12.5 -31 q-12.5 -13 -30.5 -13 q-18 0 -30.5 13 q-12.5 13 -12.5 31 q0 18 12.5 30.5 q12.5 12.5 30.5 12.5 q18 0 30.5 -12.5 ZM111.5 587.5 q12.5 -12.5 12.5 -30.5 q0 -18 -12.5 -31 q-12.5 -13 -30.5 -13 q-18 0 -30.5 13 q-12.5 13 -12.5 31 q0 18 12.5 30.5 q12.5 12.5 30.5 12.5 q18 0 30.5 -12.5 Z" /><glyph glyph-name="uni04F8" unicode="&#x4f8;" d="M429 0 l-62 0 l0 667 l62 0 l0 -667 ZM117 667 l0 -289 l37 0 q73 0 114 -40 q49 -48 49 -149 q0 -116 -56 -161 q-35 -28 -107 -28 l-99 0 l0 667 l62 0 ZM117 53 l33 0 q50 0 73 23 q30 30 30 103 q0 88 -35 119 q-25 23 -71 23 l-30 0 l0 -268 ZM336.5 794.5 q12.5 -12.5 12.5 -30.5 q0 -18 -12.5 -31 q-12.5 -13 -30.5 -13 q-18 0 -30.5 13 q-12.5 13 -12.5 31 q0 18 12.5 30.5 q12.5 12.5 30.5 12.5 q18 0 30.5 -12.5 ZM208.5 794.5 q12.5 -12.5 12.5 -30.5 q0 -18 -12.5 -31 q-12.5 -13 -30.5 -13 q-18 0 -30.5 13 q-12.5 13 -12.5 31 q0 18 12.5 30.5 q12.5 12.5 30.5 12.5 q18 0 30.5 -12.5 Z" /><glyph glyph-name="uni04F9" unicode="&#x4f9;" d="M375 0 l-56 0 l0 447 l56 0 l0 -447 ZM50 0 l0 447 l56 0 l0 -171 l20 0 q72 0 110 -36 q38 -36 38 -110 q0 -65 -31 -97 q-32 -33 -97 -33 l-96 0 ZM106 52 l32 0 q41 0 58 16 q21 19 21 68 q0 41 -20 64 q-22 26 -66 26 l-25 0 l0 -174 ZM309.5 587.5 q12.5 -12.5 12.5 -30.5 q0 -18 -12.5 -31 q-12.5 -13 -30.5 -13 q-18 0 -30.5 13 q-12.5 13 -12.5 31 q0 18 12.5 30.5 q12.5 12.5 30.5 12.5 q18 0 30.5 -12.5 ZM181.5 587.5 q12.5 -12.5 12.5 -30.5 q0 -18 -12.5 -31 q-12.5 -13 -30.5 -13 q-18 0 -30.5 13 q-12.5 13 -12.5 31 q0 18 12.5 30.5 q12.5 12.5 30.5 12.5 q18 0 30.5 -12.5 Z" /><glyph glyph-name="uni1E9E" unicode="&#x1e9e;" d="M55 0 l0 510 q0 84 35 124 q37 42 93 42 q61 0 94 -38 q31 -35 36 -105 l0 -26 l-86 -113 q53 -13 78 -69 q20 -45 20 -117 q0 -120 -40 -167 q-21 -25 -45 -33 q-24 -8 -65 -8 l-6 0 l0 53 l5 0 q42 0 59 19 q28 32 28 138 q0 78 -19 109 q-19 32 -60 32 l-13 0 l0 45 l79 112 l0 24 q-1 41 -13 62 q-17 28 -51 28 q-32 0 -51 -28 q-16 -25 -16 -78 l0 -516 l-62 0 Z" /><glyph glyph-name="uni2010" unicode="&#x2010;" d="M188 233 l-138 0 l0 58 l138 0 l0 -58 Z" /><glyph glyph-name="uni2011" unicode="&#x2011;" d="M188 233 l-138 0 l0 58 l138 0 l0 -58 Z" /><glyph glyph-name="figuredash" unicode="&#x2012;" d="M504 313 l-434 0 l0 50 l434 0 l0 -50 Z" /><glyph glyph-name="endash" unicode="&#x2013;" d="M504 237 l-434 0 l0 50 l434 0 l0 -50 Z" /><glyph glyph-name="emdash" unicode="&#x2014;" d="M750 287 l0 -50 l-680 0 l0 50 l680 0 Z" /><glyph glyph-name="afii00208" unicode="&#x2015;" d="M750 287 l0 -50 l-680 0 l0 50 l680 0 Z" /><glyph glyph-name="quoteleft" unicode="&#x2018;" d="M171 655 l-69 -205 l-62 29 l88 197 l43 -21 Z" /><glyph glyph-name="quoteright" unicode="&#x2019;" d="M171 647 l-88 -197 l-43 20 l69 206 l62 -29 Z" /><glyph glyph-name="quotesinglbase" unicode="&#x201a;" d="M165 55 l-89 -197 l-43 20 l69 205 l63 -28 Z" /><glyph glyph-name="quotedblleft" unicode="&#x201c;" d="M289 655 l-69 -205 l-62 29 l88 197 l43 -21 ZM171 655 l-69 -205 l-62 29 l88 197 l43 -21 Z" /><glyph glyph-name="quotedblright" unicode="&#x201d;" d="M289 647 l-88 -197 l-43 20 l69 206 l62 -29 ZM171 647 l-88 -197 l-43 20 l69 206 l62 -29 Z" /><glyph glyph-name="quotedblbase" unicode="&#x201e;" d="M283 55 l-89 -197 l-43 20 l69 205 l63 -28 ZM165 55 l-89 -197 l-43 20 l69 205 l63 -28 Z" /><glyph glyph-name="dagger" unicode="&#x2020;" d="M303 473 l-93 0 l0 -646 l-53 0 l0 646 l-94 0 l0 46 l94 0 l0 210 l53 0 l0 -210 l93 0 l0 -46 Z" /><glyph glyph-name="daggerdbl" unicode="&#x2021;" d="M303 136 l-93 0 l0 -309 l-53 0 l0 309 l-94 0 l0 47 l94 0 l0 290 l-94 0 l0 46 l94 0 l0 210 l53 0 l0 -210 l93 0 l0 -46 l-93 0 l0 -290 l93 0 l0 -47 Z" /><glyph glyph-name="bullet" unicode="&#x2022;" d="M598 438.5 q40 -41.5 40 -98.5 q0 -57 -40 -98.5 q-40 -41.5 -97 -41.5 q-57 0 -97.5 41.5 q-40.5 41.5 -40.5 98.5 q0 57 40.5 98.5 q40.5 41.5 97.5 41.5 q57 0 97 -41.5 Z" /><glyph glyph-name="ellipsis" unicode="&#x2026;" d="M440 70 q13 -13 13 -32 q0 -19 -13 -32 q-13 -13 -32 -13 q-18 0 -31.5 13.5 q-13.5 13.5 -13.5 31.5 q0 19 13 32 q13 13 32 13 q19 0 32 -13 ZM277 70 q13 -13 13 -32 q0 -19 -13 -32 q-13 -13 -32 -13 q-18 0 -31.5 13.5 q-13.5 13.5 -13.5 31.5 q0 19 13 32 q13 13 32 13 q19 0 32 -13 ZM114 70 q13 -13 13 -32 q0 -19 -13 -32 q-13 -13 -32 -13 q-18 0 -31.5 13.5 q-13.5 13.5 -13.5 31.5 q0 19 13 32 q13 13 32 13 q19 0 32 -13 Z" /><glyph glyph-name="perthousand" unicode="&#x2030;" d="M209 595 q6 -36 6 -95 q0 -59 -6 -95 q-6 -36 -26 -56 q-20 -20 -56 -20 q-35 0 -55 20 q-20 20 -26 56 q-6 36 -6 95 q0 59 6 95 q6 36 26 56 q20 20 55 20 q36 0 56 -20 q20 -20 26 -56 ZM151 620 q-9 10 -24 10 q-15 0 -24 -10 q-17 -18 -17 -119 q0 -102 17 -120 q9 -10 24 -10 q15 0 24 10 q17 18 17 120 q0 101 -17 119 ZM425 667 l-289 -667 l-46 0 l289 667 l46 0 ZM468 261 q6 -36 6 -95 q0 -59 -6 -95 q-6 -36 -26 -56 q-20 -20 -56 -20 q-35 0 -55 20 q-20 20 -26 56 q-6 36 -6 95 q0 59 6 95 q6 36 26 56 q20 20 55 20 q36 0 56 -20 q20 -20 26 -56 ZM410 286 q-9 10 -24 10 q-15 0 -24 -10 q-17 -18 -17 -119 q0 -102 17 -120 q9 -10 24 -10 q15 0 24 10 q17 18 17 120 q0 101 -17 119 ZM702 261 q6 -36 6 -95 q0 -59 -6 -95 q-6 -36 -26 -56 q-20 -20 -56 -20 q-35 0 -55 20 q-20 20 -26 56 q-6 36 -6 95 q0 59 6 95 q6 36 26 56 q20 20 55 20 q36 0 56 -20 q20 -20 26 -56 ZM644 286 q-9 10 -24 10 q-15 0 -24 -10 q-17 -18 -17 -119 q0 -102 17 -120 q9 -10 24 -10 q15 0 24 10 q17 18 17 120 q0 101 -17 119 Z" /><glyph glyph-name="guilsinglleft" unicode="&#x2039;" d="M180 66 l-38 -23 l-109 194 l109 188 l38 -21 l-95 -167 l95 -171 Z" /><glyph glyph-name="guilsinglright" unicode="&#x203a;" d="M180 237 l-108 -194 l-39 23 l95 171 l-95 167 l39 21 l108 -188 Z" /><glyph glyph-name="fraction" unicode="&#x2044;" d="M228 667 l-289 -667 l-46 0 l289 667 l46 0 Z" /><glyph glyph-name="Euro" unicode="&#x20ac;" d="M332 19 q-43 -28 -87 -28 q-72 0 -120 65 q-50 68 -56 213 l-59 0 l18 42 l40 0 q0 43 1 65 l-53 0 l17 42 l39 0 q24 258 180 258 q46 0 80 -21 l0 -68 q-46 29 -77 29 q-34 0 -59 -19.5 q-25 -19.5 -37.5 -52 q-12.5 -32.5 -18 -63.5 q-5.5 -31 -6.5 -63 l183 0 l-17 -42 l-168 0 q-1 -11 -1 -34 l0 -31 l141 0 l-18 -42 l-121 0 q0 -39 5.5 -74 q5.5 -35 17.5 -69 q12 -34 36.5 -54.5 q24.5 -20.5 57.5 -20.5 q35 0 82 30 l0 -62 Z" /><glyph glyph-name="uni20B4" unicode="&#x20b4;" d="M60 570 l0 70 q21 13 47 23 q35 13 74 13 q63 0 98 -35 q39 -39 39 -117 q0 -58 -34 -106 l59 0 l0 -42 l-87 0 l-62 -65 l149 0 l0 -42 l-179 0 q-53 -50 -53 -122 q0 -49 31 -76 q23 -21 62 -21 q33 0 64 14 q29 12 49 31 l0 -70 q-35 -19 -52 -24 q-33 -11 -70 -11 q-67 0 -107 37 q-43 40 -43 114 q0 73 45 128 l-62 0 l0 42 l92 0 l62 65 l-154 0 l0 42 l184 0 q40 39 40 103 q0 48 -22 72 q-21 23 -54 23 q-34 0 -70 -16 q-26 -12 -46 -30 Z" /><glyph glyph-name="uni20B6" unicode="&#x20b6;&#x20b7;&#x20b9;&#x20ba;&#x20bb;&#x20bc;&#x20bd;&#x20be;&#x20bf;&#x20c0;&#x20c1;&#x20c2;&#x20c3;&#x20c4;&#x20c5;&#x20c6;&#x20c7;&#x20c8;&#x20c9;&#x20ca;&#x20cb;&#x20cc;&#x20cd;&#x20ce;&#x20cf;" d="M151 216 l0 -216 l-62 0 l0 216 l-59 0 l0 42 l59 0 l0 65 l-59 0 l0 53 l59 0 l0 291 l73 0 q96 0 135 -38 q41 -40 41 -146 q0 -82 -34 -119 q-38 -41 -128 -41 l-25 0 l0 -65 l100 0 l0 -42 l-100 0 ZM151 376 l41 0 q39 0 58 18 q25 23 25 93 q0 76 -24 100 q-23 23 -70 23 l-30 0 l0 -234 Z" /><glyph glyph-name="uni20B8" unicode="&#x20b8;" d="M314 520 l-100 0 l0 -520 l-62 0 l0 520 l-100 0 l0 57 l262 0 l0 -57 ZM314 615 l-262 0 l0 52 l262 0 l0 -52 Z" /><glyph glyph-name="afii61352" unicode="&#x2116;" d="M332 0 l-54 0 l-148 440 q-16 48 -27 94 q6 -52 6 -105 l0 -429 l-54 0 l0 667 l54 0 l151 -453 q5 -15 14 -44.5 q9 -29.5 10 -34.5 q-6 41 -6 82 l0 450 l54 0 l0 -667 ZM563 518 q0 -150 -85 -150 q-88 0 -88 152 q0 26 3.5 49 q3.5 23 12 47.5 q8.5 24.5 27 39.5 q18.5 15 45.5 15 q85 0 85 -153 ZM560 290 l-167 0 l0 40 l167 0 l0 -40 ZM477 407 q42 0 42 112 q0 112 -42 112 q-44 0 -44 -115 q0 -109 44 -109 Z" /><glyph glyph-name="uni2117" unicode="&#x2117;" d="M297 536 l53 0 q73 0 99 -35 q18 -24 18 -78 q0 -62 -30 -88 q-23 -20 -69 -20 l-22 0 l0 -184 l-49 0 l0 405 ZM346 359 l18 0 q26 0 38 11 q14 14 14 55 q0 42 -16 56 q-12 11 -40 11 l-14 0 l0 -133 ZM723 334 q0 -144 -101 -245 q-45 -45 -109.5 -73 q-64.5 -28 -134.5 -28 q-70 0 -134.5 28 q-64.5 28 -109.5 73 q-101 101 -101 245 q0 65 25.5 129.5 q25.5 64.5 75.5 114.5 q45 45 109.5 73 q64.5 28 134.5 28 q70 0 134.5 -28 q64.5 -28 109.5 -73 q50 -50 75.5 -114.5 q25.5 -64.5 25.5 -129.5 ZM593 553 q-90 90 -215 90 q-125 0 -215 -90 q-90 -92 -90 -219 q0 -130 90 -220 q90 -90 215 -90 q125 0 215 90 q90 90 90 220 q0 127 -90 219 Z" /><glyph glyph-name="trademark" unicode="&#x2122;" d="M433 287 l-41 0 l-28 260 l-45 -260 l-34 0 l-42 256 l-32 -256 l-41 0 l53 380 l36 0 l44 -281 l48 281 l36 0 l46 -380 ZM164 628 l-56 0 l0 -341 l-41 0 l0 341 l-56 0 l0 39 l153 0 l0 -39 Z" /><glyph glyph-name="partialdiff" unicode="&#x2202;" d="M81 613 l7 50 q75 -11 131.5 -34 q56.5 -23 105.5 -70 q63 -60 96 -145.5 q33 -85.5 33 -177.5 q0 -104 -57 -175.5 q-57 -71.5 -158 -71.5 q-89 0 -151.5 66 q-62.5 66 -62.5 156 q0 89 59 154 q59 65 147 65 q98 0 152 -81 q-16 49 -32 79 q-38 76 -110 124 q-72 48 -160 61 ZM351.5 91.5 q42.5 52.5 42.5 123.5 q0 71 -41 119 q-41 48 -111 48 q-69 0 -114.5 -51.5 q-45.5 -51.5 -45.5 -121.5 q0 -69 45.5 -119.5 q45.5 -50.5 112.5 -50.5 q69 0 111.5 52.5 Z" /><glyph glyph-name="product" unicode="&#x220f;" d="M654 -250 l-219 0 l0 51 l83 0 l0 898 l-347 0 l0 -898 l82 0 l0 -51 l-217 0 l0 51 l78 0 l0 898 l-78 0 l0 51 l618 0 l0 -51 l-78 0 l0 -898 l78 0 l0 -51 Z" /><glyph glyph-name="summation" unicode="&#x2211;" d="M601 -250 l-571 0 l0 59 l250 462 l-250 422 l0 57 l562 0 l0 -221 l-52 0 l-5 170 l-441 0 l253 -429 l-255 -469 l453 0 l2 169 l54 0 l0 -220 Z" /><glyph glyph-name="minus" unicode="&#x2212;" d="M467 305 l-434 0 l0 53 l434 0 l0 -53 Z" /><glyph glyph-name="fraction" unicode="&#x2215;" d="M435 729 l-390 -902 l-58 0 l391 902 l57 0 Z" /><glyph glyph-name="periodcentered" unicode="&#x2219;" d="M143 384.5 q17 -17.5 17 -41.5 q0 -24 -17 -41 q-17 -17 -41 -17 q-24 0 -41.5 17 q-17.5 17 -17.5 41 q0 25 17 42 q17 17 42 17 q24 0 41 -17.5 Z" /><glyph glyph-name="radical" unicode="&#x221a;" d="M667 775 l-202 0 l-229 -775 l-67 0 l-89 307 l-80 0 l0 51 l126 0 l42 -139 q1 -4 15 -62 q3 -13 9 -37 q6 -24 9 -37 l4 0 q9 32 25 96 q16 64 25 96 l162 552 l250 0 l0 -52 Z" /><glyph glyph-name="infinity" unicode="&#x221e;" d="M648 339 q0 -65 -41 -107.5 q-41 -42.5 -106 -42.5 q-92 0 -167 112 q-75 -111 -166 -111 q-67 0 -108 42.5 q-41 42.5 -41 109.5 q0 65 42 107 q42 42 107 42 q91 0 164 -112 q75 112 169 112 q66 0 106.5 -43 q40.5 -43 40.5 -109 ZM590 340 q0 43 -27 71.5 q-27 28.5 -69 28.5 q-68 0 -132 -100 q30 -46 60.5 -73 q30.5 -27 72.5 -27 q42 0 68.5 29 q26.5 29 26.5 71 ZM305 340 q-30 46 -60.5 73 q-30.5 27 -72.5 27 q-43 0 -69 -28.5 q-26 -28.5 -26 -71.5 q0 -42 26.5 -71 q26.5 -29 68.5 -29 q29 0 56 17 q27 17 41.5 34.5 q14.5 17.5 35.5 48.5 Z" /><glyph glyph-name="integral" unicode="&#x222b;" d="M392 739 l-14 -50 q-25 10 -43 10 q-35 0 -45.5 -21.5 q-10.5 -21.5 -10.5 -60.5 l0 -728 q0 -65 -17 -92 q-30 -46 -103 -46 q-25 0 -51 10 l14 50 q23 -10 43 -10 q14 0 24 3.5 q10 3.5 16 12 q6 8.5 10 15.5 q4 7 5 21 q1 14 1.5 21.5 q0.5 7.5 0 23 q-0.5 15.5 -0.5 20.5 l0 684 q0 60 8 84 q10 31 38.5 47.5 q28.5 16.5 63.5 16.5 q30 0 61 -11 Z" /><glyph glyph-name="approxequal" unicode="&#x2248;" d="M454 478 l36 -21 q-55 -107 -139 -107 q-38 0 -108 35 q-70 35 -103 35 q-53 0 -94 -75 l-36 23 q52 108 134 108 q39 0 109 -35 q70 -35 104 -35 q33 0 54.5 18.5 q21.5 18.5 42.5 53.5 ZM454 321 l36 -21 q-55 -107 -139 -107 q-38 0 -109 35.5 q-71 35.5 -102 35.5 q-53 0 -94 -76 l-36 23 q52 108 134 108 q40 0 110.5 -35 q70.5 -35 103.5 -35 q33 0 54.5 19 q21.5 19 41.5 53 Z" /><glyph glyph-name="notequal" unicode="&#x2260;" d="M467 234 l-238 0 l-56 -119 l-48 0 l56 119 l-147 0 l0 51 l170 0 l47 99 l-218 0 l0 51 l242 0 l55 114 l48 0 l-55 -114 l143 0 l0 -51 l-166 0 l-47 -99 l214 0 l0 -51 Z" /><glyph glyph-name="lessequal" unicode="&#x2264;" d="M467 151 l-434 193 l0 51 l434 193 l0 -55 l-372 -164 l371 -164 l1 -54 ZM467 69 l-434 0 l0 52 l434 0 l0 -52 Z" /><glyph glyph-name="greaterequal" unicode="&#x2265;" d="M467 344 l-434 -193 l0 54 l372 164 l-371 164 l-1 55 l434 -194 l0 -50 ZM467 69 l-434 0 l0 52 l434 0 l0 -52 Z" /><glyph glyph-name="dotmath" unicode="&#x22c5;" d="M143 384.5 q17 -17.5 17 -41.5 q0 -24 -17 -41 q-17 -17 -41 -17 q-24 0 -41.5 17 q-17.5 17 -17.5 41 q0 25 17 42 q17 17 42 17 q24 0 41 -17.5 Z" /><glyph glyph-name="lozenge" unicode="&#x25ca;" d="M593 334 l-260 -360 l-259 360 l259 359 l260 -359 ZM527 334 l-194 266 l-194 -266 l194 -267 l194 267 Z" /><glyph glyph-name="openbullet" unicode="&#x25e6;" d="M388 537 q0 -56 -41 -95.5 q-41 -39.5 -97 -39.5 q-56 0 -97 39.5 q-41 39.5 -41 95.5 q0 57 40.5 96 q40.5 39 97.5 39 q57 0 97.5 -39 q40.5 -39 40.5 -96 ZM349 537 q0 41 -29 69 q-29 28 -70 28 q-41 0 -70 -28 q-29 -28 -29 -69 q0 -40 29.5 -68.5 q29.5 -28.5 69.5 -28.5 q40 0 69.5 28.5 q29.5 28.5 29.5 68.5 Z" /><glyph glyph-name="uniF400" unicode="&#xf400;" d="M-59 610 l-115 -103 l-35 26 l96 120 l54 -43 Z" /><glyph glyph-name="uniF401" unicode="&#xf401;" d="M-69 817 l-115 -103 l-35 26 l96 120 l54 -43 Z" /><glyph glyph-name="uniF406" unicode="&#xf406;" d="M325 810 l48 0 q-5 -46 -40 -69 q-35 -23 -83 -23 q-48 0 -83 23 q-35 23 -40 69 l48 0 q17 -41 75 -41 q58 0 75 41 Z" /><glyph glyph-name="uniF407" unicode="&#xf407;" d="M310 -62 l-77 -123 l-36 21 l67 127 l46 -25 Z" /><glyph glyph-name="uniF408" unicode="&#xf408;" d="M363 752 l-40 -38 l-74 69 l-74 -69 l-38 38 l112 107 l114 -107 Z" /><glyph glyph-name="uniF409" unicode="&#xf409;" d="M151 -77 l-72 -154 l-39 19 l53 163 l58 -28 Z" /><glyph glyph-name="uniF40A" unicode="&#xf40a;" d="M162 648 l-83 -186 l-39 19 l64 195 l58 -28 Z" /><glyph glyph-name="uniF40B" unicode="&#xf40b;" d="M282.5 798 q13.5 -13 13.5 -32 q0 -19 -13.5 -32.5 q-13.5 -13.5 -32.5 -13.5 q-19 0 -32 13.5 q-13 13.5 -13 32.5 q0 19 13 32 q13 13 32 13 q19 0 32.5 -13 Z" /><glyph glyph-name="uniF40C" unicode="&#xf40c;" d="M306.5 850.5 q23.5 -23.5 23.5 -56.5 q0 -33 -23.5 -56.5 q-23.5 -23.5 -56.5 -23.5 q-33 0 -56.5 23.5 q-23.5 23.5 -23.5 56.5 q0 33 23.5 56.5 q23.5 23.5 56.5 23.5 q33 0 56.5 -23.5 ZM278 766 q12 12 12 28 q0 16 -12 28 q-12 12 -28 12 q-16 0 -28 -12 q-12 -12 -12 -28 q0 -16 12 -28 q12 -12 28 -12 q16 0 28 12 Z" /><glyph glyph-name="uniF40D" unicode="&#xf40d;" d="M308 802 l57 0 q-2 -33 -19.5 -57.5 q-17.5 -24.5 -48.5 -24.5 q-19 0 -49.5 17 q-30.5 17 -40.5 17 q-16 0 -16 -25 l-56 0 q3 33 21 55 q18 22 49 22 q17 0 47 -16 q30 -16 39 -16 q17 0 17 28 Z" /><glyph glyph-name="uniF40E" unicode="&#xf40e;" d="M333 -95 l0 -48 q-24 -9 -45 -9 q-34 0 -57.5 17 q-23.5 17 -23.5 49 q0 41 47 86 l46 0 q-44 -37 -44 -72 q0 -31 37 -31 q23 0 40 8 Z" /><glyph glyph-name="afii10017.var.accented" unicode="&#xf460;" d="M324 0 l-66 0 l-25 137 l-141 0 l-25 -137 l-66 0 l132 667 l58 0 l133 -667 ZM223 191 l-44 235 q-14 75 -19 157 q-7 -104 -58 -392 l121 0 ZM277 817 l-115 -103 l-35 26 l96 120 l54 -43 Z" /><glyph glyph-name="afii10022.var.accented" unicode="&#xf461;" d="M263 0 l-208 0 l0 667 l208 0 l0 -57 l-146 0 l0 -235 l142 0 l0 -57 l-142 0 l0 -261 l146 0 l0 -57 ZM265 817 l-115 -103 l-35 26 l96 120 l54 -43 Z" /><glyph glyph-name="afii10026.var.accented" unicode="&#xf462;" d="M55 0 l0 667 l62 0 l0 -452 q0 -29 -6 -84 q5 18 10 35.5 q5 17.5 8 27 q3 9.5 6 18.5 l142 455 l62 0 l0 -667 l-62 0 l0 431 q0 27 6 105 q-13 -51 -27 -94 l-139 -442 l-62 0 ZM311 817 l-115 -103 l-35 26 l96 120 l54 -43 Z" /><glyph glyph-name="afii10032.var.accented" unicode="&#xf463;" d="M366 336 q0 -38 -1 -65.5 q-1 -27.5 -5.5 -72.5 q-4.5 -45 -15.5 -77.5 q-11 -32.5 -28 -64 q-17 -31.5 -46 -48.5 q-29 -17 -67 -17 q-165 0 -165 342 q0 343 164 343 q164 0 164 -340 ZM303 358 q0 258 -100 258 q-102 0 -102 -282 q0 -283 102 -283 q80 0 94 155 q6 60 6 152 ZM317 817 l-115 -103 l-35 26 l96 120 l54 -43 Z" /><glyph glyph-name="afii10037.var.accented" unicode="&#xf464;" d="M8 667 l68 0 l64 -211 q24 -77 39 -143 q12 62 34 145 l56 209 l64 0 l-188 -667 l-62 0 l64 224 l-139 443 ZM285 817 l-115 -103 l-35 26 l96 120 l54 -43 Z" /><glyph glyph-name="afii10045.var.accented" unicode="&#xf465;" d="M429 0 l-62 0 l0 667 l62 0 l0 -667 ZM117 667 l0 -289 l37 0 q73 0 114 -40 q49 -48 49 -149 q0 -116 -56 -161 q-35 -28 -107 -28 l-99 0 l0 667 l62 0 ZM117 53 l33 0 q50 0 73 23 q30 30 30 103 q0 88 -35 119 q-25 23 -71 23 l-30 0 l0 -268 ZM356 817 l-115 -103 l-35 26 l96 120 l54 -43 Z" /><glyph glyph-name="afii10047.var.accented" unicode="&#xf466;" d="M18 24 l0 76 q39 -49 91 -49 q36 0 60 25 q28 29 46 105 q13 60 15 137 l-169 0 l0 57 l168 0 q0 59 -12 112 q-15 69 -48 102 q-27 27 -66 27 q-49 0 -85 -49 l0 77 q45 32 95 32 q63 0 106 -45 q75 -77 75 -280 q0 -104 -17 -182 q-21 -99 -67 -142 q-39 -36 -100 -36 q-53 0 -92 33 ZM231 817 l-115 -103 l-35 26 l96 120 l54 -43 Z" /><glyph glyph-name="afii10048.var.accented" unicode="&#xf467;" d="M202 344 l-85 0 l0 -344 l-62 0 l0 667 l62 0 l0 -266 l87 0 q0 60 15.5 130 q15.5 70 56.5 109 q38 36 90 36 q52 0 90 -36 q74 -72 74 -306 q0 -235 -74 -307 q-38 -36 -90 -36 q-52 0 -90 36 q-74 72 -74 307 l0 10 ZM267 431.5 q-2 -38.5 -2 -98.5 q0 -60 2 -98 q2 -38 13.5 -88.5 q11.5 -50.5 34.5 -73.5 q22 -22 51 -22 q29 0 51 22 q50 52 50 260 q0 209 -50 261 q-22 22 -51 22 q-29 0 -51 -22 q-23 -23 -34.5 -73.5 q-11.5 -50.5 -13.5 -89 ZM399 817 l-115 -103 l-35 26 l96 120 l54 -43 Z" /><glyph glyph-name="afii10049.var.accented" unicode="&#xf468;" d="M16 0 l148 314 q-53 0 -90 36 q-42 40 -42 133 q0 101 43 144 q39 40 128 40 l100 0 l0 -667 l-68 0 l0 320 l-148 -320 l-71 0 ZM235 369 l0 241 l-36 0 q-52 0 -74 -22 q-27 -27 -27 -103 q0 -69 30 -96 q22 -20 63 -20 l44 0 ZM293 817 l-115 -103 l-35 26 l96 120 l54 -43 Z" /><glyph glyph-name="afii10023.var.accented" unicode="&#xf469;" d="M263 0 l-208 0 l0 667 l208 0 l0 -57 l-146 0 l0 -235 l142 0 l0 -57 l-142 0 l0 -261 l146 0 l0 -57 ZM222 832 l-84 -109 l-21 14 l69 123 l36 -28 ZM104 797 q10 -10 10 -24 q0 -14 -10 -24 q-10 -10 -24 -10 q-14 0 -23.5 10 q-9.5 10 -9.5 24 q0 14 9.5 24 q9.5 10 23.5 10 q14 0 24 -10 ZM261.5 797 q9.5 -10 9.5 -24 q0 -14 -9.5 -24 q-9.5 -10 -23.5 -10 q-14 0 -24 10.5 q-10 10.5 -10 23.5 q0 13 10 23.5 q10 10.5 24 10.5 q14 0 23.5 -10 Z" /><glyph glyph-name="afii10065.var.accented" unicode="&#xf46a;" d="M277 0 l-57 0 l0 36 q-32 -43 -76 -43 q-29 0 -50 16.5 q-21 16.5 -31.5 38 q-10.5 21.5 -16 56 q-5.5 34.5 -6.5 57 q-1 22.5 -1 54.5 q0 36 1 60.5 q1 24.5 7 61.5 q6 37 17 60 q11 23 32.5 40 q21.5 17 52.5 17 q41 0 71 -37 l0 30 l57 0 l0 -447 ZM226 226 q0 40 -2 67.5 q-2 27.5 -7.5 56.5 q-5.5 29 -19 44 q-13.5 15 -34.5 15 q-66 0 -66 -159 q0 -72 3 -108 q2 -22 4.5 -34 q2.5 -12 8.5 -31 q6 -19 18.5 -28.5 q12.5 -9.5 30.5 -9.5 q22 0 36 15 q28 28 28 172 ZM280 610 l-115 -103 l-35 26 l96 120 l54 -43 Z" /><glyph glyph-name="afii10070.var.accented" unicode="&#xf46b;" d="M219 152 l57 0 q-7 -159 -113 -159 q-130 0 -130 229 q0 37 5 71.5 q5 34.5 17 73.5 q12 39 39 63 q27 24 65 24 q37 0 63 -21.5 q26 -21.5 37.5 -57 q11.5 -35.5 16 -68 q4.5 -32.5 4.5 -67.5 q0 -4 -0.5 -14 q-0.5 -10 -0.5 -14 l-189 0 l0 -10 q0 -22 2.5 -44 q2.5 -22 9 -50 q6.5 -28 22 -45 q15.5 -17 37.5 -17 q55 0 58 106 ZM91 260 l133 0 q-7 142 -64 142 q-62 0 -69 -142 ZM273 610 l-115 -103 l-35 26 l96 120 l54 -43 Z" /><glyph glyph-name="afii10074.var.accented" unicode="&#xf46c;" d="M286 0 l-56 0 l0 278 q0 19 2 64 q-7 -31 -21 -67 l-105 -275 l-56 0 l0 447 l56 0 l0 -276 q0 -37 -2 -69 q9 33 21 66 l105 279 l56 0 l0 -447 ZM285 610 l-115 -103 l-35 26 l96 120 l54 -43 Z" /><glyph glyph-name="afii10080.var.accented" unicode="&#xf46d;" d="M289 221 q0 -228 -125 -228 q-41 0 -69 23 q-28 23 -40.5 61 q-12.5 38 -17 73 q-4.5 35 -4.5 74 q0 30 2.5 57.5 q2.5 27.5 10.5 60.5 q8 33 22 56.5 q14 23.5 38.5 39.5 q24.5 16 57.5 16 q125 0 125 -233 ZM163 46 q68 0 68 178 q0 178 -68 178 q-71 0 -71 -183 q0 -173 71 -173 ZM278 610 l-115 -103 l-35 26 l96 120 l54 -43 Z" /><glyph glyph-name="afii10085.var.accented" unicode="&#xf46e;" d="M283 447 l-160 -627 l-60 0 l50 192 l-106 435 l57 0 l56 -248 q13 -54 21 -112 q3 23 18 84 l65 276 l59 0 ZM261 610 l-115 -103 l-35 26 l96 120 l54 -43 Z" /><glyph glyph-name="afii10093.var.accented" unicode="&#xf46f;" d="M375 0 l-56 0 l0 447 l56 0 l0 -447 ZM50 0 l0 447 l56 0 l0 -171 l20 0 q72 0 110 -36 q38 -36 38 -110 q0 -65 -31 -97 q-32 -33 -97 -33 l-96 0 ZM106 52 l32 0 q41 0 58 16 q21 19 21 68 q0 41 -20 64 q-22 26 -66 26 l-25 0 l0 -174 ZM329 610 l-115 -103 l-35 26 l96 120 l54 -43 Z" /><glyph glyph-name="afii10095.var.accented" unicode="&#xf470;" d="M36 19 l0 72 q11 -20 28 -32 q17 -13 40 -13 q26 0 43 19 q38 40 38 144 l-117 0 l0 52 l116 0 q-5 92 -38 123 q-18 18 -44 18 q-21 0 -39 -14 q-17 -13 -27 -29 l0 70 q32 25 74 25 q47 0 79 -32 q57 -56 57 -189 q0 -152 -62 -211 q-32 -29 -76 -29 q-39 0 -72 26 ZM226 610 l-115 -103 l-35 26 l96 120 l54 -43 Z" /><glyph glyph-name="afii10096.var.accented" unicode="&#xf471;" d="M107 261 l57 0 q5 118 52 165 q29 28 75 28 q45 0 74 -28 q54 -52 54 -202 q0 -150 -54 -203 q-29 -28 -73 -28 q-47 0 -76 28 q-53 52 -53 189 l-56 0 l0 -210 l-57 0 l0 447 l57 0 l0 -186 ZM290 402 q-19 0 -33 -14 q-37 -37 -37 -164 q0 -127 37 -164 q14 -14 33 -14 q20 0 34 14 q36 41 36 164 q0 123 -36 164 q-14 14 -34 14 ZM343 610 l-115 -103 l-35 26 l96 120 l54 -43 Z" /><glyph glyph-name="afii10097.var.accented" unicode="&#xf472;" d="M20 0 l110 187 q-45 2 -76 31 q-32 32 -32 90 q0 66 38 104 q36 35 110 35 l76 0 l0 -447 l-56 0 l0 185 l-104 -185 l-66 0 ZM190 234 l0 161 l-29 0 q-40 0 -58 -18 q-21 -21 -21 -67 q0 -39 20 -59 q18 -17 56 -17 l32 0 ZM265 610 l-115 -103 l-35 26 l96 120 l54 -43 Z" /><glyph glyph-name="afii10071.var.accented" unicode="&#xf473;" d="M219 152 l57 0 q-7 -159 -113 -159 q-130 0 -130 229 q0 37 5 71.5 q5 34.5 17 73.5 q12 39 39 63 q27 24 65 24 q37 0 63 -21.5 q26 -21.5 37.5 -57 q11.5 -35.5 16 -68 q4.5 -32.5 4.5 -67.5 q0 -4 -0.5 -14 q-0.5 -10 -0.5 -14 l-189 0 l0 -10 q0 -22 2.5 -44 q2.5 -22 9 -50 q6.5 -28 22 -45 q15.5 -17 37.5 -17 q55 0 58 106 ZM91 260 l133 0 q-7 95 -29 123 q-14 19 -35 19 q-62 0 -69 -142 ZM223 618 l-90 -103 l-22 18 l71 120 l41 -35 ZM107 563 q0 -15 -10.5 -26 q-10.5 -11 -26.5 -11 q-16 0 -26.5 11 q-10.5 11 -10.5 26 q0 16 10.5 26.5 q10.5 10.5 26.5 10.5 q16 0 26.5 -10.5 q10.5 -10.5 10.5 -26.5 ZM280 563 q0 -15 -10.5 -26 q-10.5 -11 -26.5 -11 q-16 0 -26.5 11 q-10.5 11 -10.5 26 q0 16 10.5 26.5 q10.5 10.5 26.5 10.5 q16 0 26.5 -10.5 q10.5 -10.5 10.5 -26.5 Z" /><glyph glyph-name="uniF4C6" unicode="&#xf4c6;" d="M320 667 l0 -741 l-1 -29 q-1 -7 -2 -19 q-1 -12 -2 -16 q-1 -4 -2.5 -12 q-1.5 -8 -3.5 -10 q-2 -2 -5 -7 q-3 -5 -8 -6 q-5 -1 -11 -3 q-6 -2 -15.5 -2.5 q-9.5 -0.5 -19.5 -1 q-10 -0.5 -26 -0.5 l-12 0 q-6 0 -9 0 q-3 0 -7 0.5 q-4 0.5 -5.5 1 q-1.5 0.5 -6.5 2.5 q-5 2 -7.5 3 q-2.5 1 -10.5 4.5 q-8 3.5 -14 6.5 l0 64 l18 -16 q8 -8 15 -10 q7 -2 29 -2 l48 0 l-2 22 q0 9 -0.5 14.5 q-0.5 5.5 -0.5 8 q0 2.5 -0.5 6 q-0.5 3.5 -0.5 10 q0 6.5 0 18.5 l0 384 q-35 -8 -74 -8 q-66 0 -99 28 q-25 21 -32.5 52.5 q-7.5 31.5 -7.5 81.5 l0 176 l63 0 l0 -169 q0 -75 22 -95 q19 -17 66 -17 q33 0 62 7 l0 274 l62 0 Z" /><glyph glyph-name="uniF4C7" unicode="&#xf4c7;" d="M202 -42 l0 253 q-27 -9 -61 -9 q-52 0 -81 25 q-30 27 -30 103 l0 117 l56 0 l0 -123 q0 -41 15 -55 q15 -14 48 -14 q25 0 53 8 l0 184 l56 0 l0 -489 q0 -79 -31 -112 q-25 -26 -63 -26 q-23 0 -43 10 l0 57 q15 -11 35 -11 q19 0 29 8 q17 15 17 74 Z" /><glyph glyph-name="uniF4CC" unicode="&#xf4cc;" d="M8 667 l68 0 l64 -211 q24 -77 39 -143 q12 62 34 145 l56 209 l64 0 l-188 -667 l-62 0 l64 224 l-139 443 ZM285 817 l-115 -103 l-35 26 l96 120 l54 -43 Z" /><glyph glyph-name="uniF4CD" unicode="&#xf4cd;" d="M283 447 l-160 -627 l-60 0 l50 192 l-106 435 l57 0 l56 -248 q13 -54 21 -112 q3 23 18 84 l65 276 l59 0 ZM255 610 l-115 -103 l-35 26 l96 120 l54 -43 Z" /><glyph glyph-name="dollar.fitted" unicode="&#xf5f5;" d="M284 636 l-31 -47 q-46 30 -88 30 q-44 0 -71 -28.5 q-27 -28.5 -27 -73.5 q0 -36 13.5 -63.5 q13.5 -27.5 35 -45.5 q21.5 -18 47.5 -34 q26 -16 52.5 -33 q26.5 -17 48 -37.5 q21.5 -20.5 35 -53 q13.5 -32.5 13.5 -74.5 q0 -70 -35.5 -120.5 q-35.5 -50.5 -96.5 -61.5 l0 -85 l-49 0 l0 83 q-64 10 -112 57 l36 43 q54 -44 97 -44 q46 0 74 36 q28 36 28 89 q0 37 -18 65.5 q-18 28.5 -45.5 45.5 q-27.5 17 -59 38.5 q-31.5 21.5 -59 43 q-27.5 21.5 -45.5 59.5 q-18 38 -18 88 q0 130 122 160 l0 78 l49 0 l0 -76 q50 -3 104 -39 Z" /><glyph glyph-name="Euro.fitted" unicode="&#xf5f6;" d="M329 19 q-43 -28 -87 -28 q-72 0 -120 65 q-50 68 -56 213 l-59 0 l18 42 l40 0 q0 43 1 65 l-53 0 l17 42 l39 0 q24 258 180 258 q46 0 80 -21 l0 -68 q-46 29 -77 29 q-34 0 -59 -19.5 q-25 -19.5 -37.5 -52 q-12.5 -32.5 -18 -63.5 q-5.5 -31 -6.5 -63 l183 0 l-17 -42 l-168 0 q-1 -11 -1 -34 l0 -31 l141 0 l-18 -42 l-121 0 q0 -39 5.5 -74 q5.5 -35 17.5 -69 q12 -34 36.5 -54.5 q24.5 -20.5 57.5 -20.5 q35 0 82 30 l0 -62 Z" /><glyph glyph-name="cent.fitted" unicode="&#xf5f7;" d="M202 206 l0 -70 q-17 -14 -41 -19 l0 -92 l-49 0 l0 92 q-104 39 -104 219 q0 119 40 184 q23 37 64 50 l0 83 l49 0 l0 -82 q19 -3 41 -13 l0 -67 q-28 30 -57 30 q-25 0 -42 -20 q-17 -20 -23.5 -52.5 q-6.5 -32.5 -9 -57.5 q-2.5 -25 -2.5 -51 q0 -23 2.5 -48 q2.5 -25 10 -56 q7.5 -31 24 -50.5 q16.5 -19.5 39.5 -19.5 q29 0 58 40 Z" /><glyph glyph-name="sterling.fitted" unicode="&#xf5f8;" d="M278 89 l52 -17 q-3 -44 -30 -69 q-24 -22 -56 -22 q-28 0 -56 18 l-34 22 q-30 19 -45 19 q-14 0 -26 -12 q-11 -11 -16 -28 l-52 30 q13 28 35 48 q30 30 67 19 q26 39 26 80 q0 56 -48 121 l-79 0 l0 42 l59 0 q-19 37 -29 66 q-17 47 -17 99 q0 83 47 130 q41 41 106 41 q57 0 94 -37 q43 -41 44 -108 l-58 -12 q-2 50 -28 76 q-21 21 -55 21 q-34 0 -57 -21 q-30 -30 -30 -87 q0 -40 17 -88 q12 -33 36 -80 l105 0 l0 -42 l-84 0 q37 -54 37 -108 q0 -35 -12 -66 q-8 -21 -25 -43 l43 -30 q18 -11 34 -11 q17 0 26 17 q7 13 9 32 Z" /><glyph glyph-name="yen.fitted" unicode="&#xf5f9;" d="M342 269 l-135 0 l0 -269 l-57 0 l0 269 l-142 0 l0 42 l136 0 l-23 65 l-113 0 l0 42 l99 0 l-86 249 l64 0 l63 -195 q19 -58 30 -119 q9 51 30 122 l57 192 l64 0 l-81 -249 l94 0 l0 -42 l-108 0 l-21 -65 l129 0 l0 -42 Z" /><glyph glyph-name="florin.fitted" unicode="&#xf5fa;" d="M379 729 l-10 -59 q-19 17 -38 17 q-16 0 -26.5 -10.5 q-10.5 -10.5 -13.5 -19.5 q-3 -9 -7 -29 l-36 -181 l77 0 l-9 -42 l-76 0 l-83 -424 q-11 -55 -33 -84.5 q-22 -29.5 -71 -29.5 q-21 0 -50 11 l11 59 q19 -17 39 -17 q35 0 46 59 l84 426 l-73 0 l8 42 l73 0 q27 147 35 179 q7 29 12.5 44.5 q5.5 15.5 17 34 q11.5 18.5 29.5 27 q18 8.5 44 8.5 q29 0 50 -11 Z" /><glyph glyph-name="uni20B4.fitted" unicode="&#xf5fb;" d="M53 570 l0 70 q21 13 47 23 q35 13 74 13 q63 0 98 -35 q39 -39 39 -117 q0 -58 -34 -106 l59 0 l0 -42 l-87 0 l-62 -65 l149 0 l0 -42 l-179 0 q-53 -50 -53 -122 q0 -49 31 -76 q23 -21 62 -21 q33 0 64 14 q29 12 49 31 l0 -70 q-35 -19 -52 -24 q-33 -11 -70 -11 q-67 0 -107 37 q-43 40 -43 114 q0 73 45 128 l-62 0 l0 42 l92 0 l62 65 l-154 0 l0 42 l184 0 q40 39 40 103 q0 48 -22 72 q-21 23 -54 23 q-34 0 -70 -16 q-26 -12 -46 -30 Z" /><glyph glyph-name="uni20B6.fitted" unicode="&#xf5fc;" d="M138 216 l0 -216 l-62 0 l0 216 l-59 0 l0 42 l59 0 l0 65 l-59 0 l0 53 l59 0 l0 291 l73 0 q96 0 135 -38 q41 -40 41 -146 q0 -82 -34 -119 q-38 -41 -128 -41 l-25 0 l0 -65 l100 0 l0 -42 l-100 0 ZM138 376 l41 0 q39 0 58 18 q25 23 25 93 q0 76 -24 100 q-23 23 -70 23 l-30 0 l0 -234 Z" /><glyph glyph-name="uni20B8.fitted" unicode="&#xf5fd;" d="M269 520 l-100 0 l0 -520 l-62 0 l0 520 l-100 0 l0 57 l262 0 l0 -57 ZM269 615 l-262 0 l0 52 l262 0 l0 -52 Z" /><glyph glyph-name="uniF639" unicode="&#xf639;" d="M317 356 q0 -365 -151 -365 q-40 0 -69 25.5 q-29 25.5 -44 60.5 q-15 35 -23.5 85 q-8.5 50 -10.5 84.5 q-2 34.5 -2 72.5 q0 33 1.5 64 q1.5 31 6.5 75 q5 44 16.5 80 q11.5 36 28.5 68.5 q17 32.5 44.5 51 q27.5 18.5 63.5 18.5 q28 0 51 -13.5 q23 -13.5 37 -32.5 q14 -19 24.5 -50.5 q10.5 -31.5 15.5 -57 q5 -25.5 7.5 -62 q2.5 -36.5 3 -56 q0.5 -19.5 0.5 -48.5 ZM257 378 q0 241 -82 241 q-26 0 -45 -25.5 q-19 -25.5 -29 -59.5 q-10 -34 -15.5 -80 q-5.5 -46 -7 -75 q-1.5 -29 -1.5 -56 q0 -147 29 -219 q23 -56 64 -56 q38 0 57 50 q30 78 30 280 Z" /><glyph glyph-name="uniF63A" unicode="&#xf63a;" d="M25 485 q0 40 5.5 71 q5.5 31 19 60 q13.5 29 41.5 44.5 q28 15.5 69 15.5 q64 0 100 -41.5 q36 -41.5 36 -106.5 q0 -46 -15.5 -98 q-15.5 -52 -28.5 -80.5 q-13 -28.5 -44 -89.5 l-102 -201 l182 0 l0 -59 l-273 0 l137 282 q57 115 70 167 q11 42 11 79 q0 38 -17 64.5 q-17 26.5 -53 26.5 q-77 0 -77 -122 l0 -12 l-61 0 Z" /><glyph glyph-name="uniF63B" unicode="&#xf63b;" d="M81 511 l-57 0 q1 71 31 118 q30 47 96 47 q68 0 100.5 -42 q32.5 -42 32.5 -112 q0 -117 -76 -153 q27 -12 45.5 -32.5 q18.5 -20.5 26.5 -48.5 q8 -28 10.5 -52.5 q2.5 -24.5 2.5 -56.5 q0 -188 -139 -188 q-138 0 -138 165 l0 27 l61 0 q0 -28 2 -45.5 q2 -17.5 8.5 -40.5 q6.5 -23 23.5 -34.5 q17 -11.5 44 -11.5 q78 0 78 140 q0 147 -112 147 l-30 0 l0 55 l26 0 q30 0 48 5 q18 5 34 24 q25 30 25 96 q0 98 -73 98 q-22 0 -37 -9 q-15 -9 -21.5 -26 q-6.5 -17 -9 -32.5 q-2.5 -15.5 -2.5 -37.5 Z" /><glyph glyph-name="uniF63C" unicode="&#xf63c;" d="M289 179 l-50 0 l0 -179 l-61 0 l0 179 l-175 0 l0 63 l175 425 l61 0 l0 -431 l50 0 l0 -57 ZM61 236 l117 0 q0 22 -0.5 67 q-0.5 45 -0.5 68 q0 110 8 198 q-14 -53 -38 -115 l-86 -218 Z" /><glyph glyph-name="uniF63D" unicode="&#xf63d;" d="M121 609 l-24 -204 q18 3 35 3 q53 0 89 -34 q36 -34 49.5 -79.5 q13.5 -45.5 13.5 -97.5 q0 -84 -41 -145 q-41 -61 -125 -61 q-59 0 -104 33 l17 61 q44 -34 90 -34 q37 0 60.5 26 q23.5 26 31.5 56.5 q8 30.5 8 64.5 q0 62 -25.5 106 q-25.5 44 -86.5 44 q-27 0 -82 -12 l39 331 l199 0 l0 -58 l-144 0 Z" /><glyph glyph-name="uniF63E" unicode="&#xf63e;" d="M229 667 l-87 -205 q-44 -102 -46 -107 q31 23 65 23 q45 0 76 -29 q48 -46 48 -169 q0 -112 -46 -156 q-33 -33 -89 -33 q-52 0 -86 32 q-53 51 -53 176 q0 65 17 130 q9 35 41 112 l95 226 l65 0 ZM71 185 q0 -88 33 -120 q20 -20 49 -20 q28 0 47 21 q25 28 25 118 q0 89 -30 121 q-20 20 -47 20 q-28 0 -47 -21 q-30 -33 -30 -119 Z" /><glyph glyph-name="uniF63F" unicode="&#xf63f;" d="M286 667 l-205 -667 l-65 0 l188 609 l-192 0 l0 58 l274 0 Z" /><glyph glyph-name="uniF640" unicode="&#xf640;" d="M298 188 q0 -39 -7 -71.5 q-7 -32.5 -22 -62 q-15 -29.5 -44.5 -46.5 q-29.5 -17 -70.5 -17 q-52 0 -84.5 32.5 q-32.5 32.5 -42.5 74 q-10 41.5 -10 92.5 q0 145 85 179 q-70 44 -70 143 q0 70 33.5 117 q33.5 47 100.5 47 q65 0 95.5 -48 q30.5 -48 30.5 -117 q0 -102 -70 -142 q45 -25 60.5 -71 q15.5 -46 15.5 -110 ZM232 507 q0 112 -71 112 q-69 0 -69 -103 q0 -119 71 -119 q69 0 69 110 ZM238 197 q0 144 -80 144 q-25 0 -42 -15.5 q-17 -15.5 -24.5 -41 q-7.5 -25.5 -10.5 -47.5 q-3 -22 -3 -46 q0 -33 4.5 -61.5 q4.5 -28.5 23.5 -55 q19 -26.5 51 -26.5 q27 0 45 14.5 q18 14.5 25 40.5 q7 26 9 46 q2 20 2 48 Z" /><glyph glyph-name="uniF641" unicode="&#xf641;" d="M69 0 l130 312 q-33 -23 -66 -23 q-36 0 -61 19.5 q-25 19.5 -37 52 q-12 32.5 -17 63.5 q-5 31 -5 65 q0 187 133 187 q75 0 108 -56 q33 -56 33 -137 q0 -115 -53 -241 l-101 -242 l-64 0 ZM227 482 q0 23 -3 45 q-3 22 -11.5 45 q-8.5 23 -25.5 37 q-17 14 -42 14 q-22 0 -37.5 -15.5 q-15.5 -15.5 -22.5 -40 q-7 -24.5 -10 -46 q-3 -21.5 -3 -43.5 q0 -136 78 -136 q77 0 77 140 Z" /><glyph glyph-name="uniF6BA" unicode="&#xf6ba;" d="M188 309 l-138 0 l0 58 l138 0 l0 -58 Z" /><glyph glyph-name="uniF6BB" unicode="&#xf6bb;" d="M504 313 l-434 0 l0 50 l434 0 l0 -50 Z" /><glyph glyph-name="uniF6BC" unicode="&#xf6bc;" d="M750 363 l0 -50 l-680 0 l0 50 l680 0 Z" /><glyph glyph-name="uniF6C3" unicode="&#xf6c3;" d="M151 -77 l-72 -154 l-39 19 l53 163 l58 -28 Z" /><glyph glyph-name="uniF6C9" unicode="&#xf6c9;" d="M365 817 l-115 -103 l-35 26 l96 120 l54 -43 Z" /><glyph glyph-name="uniF6CA" unicode="&#xf6ca;" d="M363 821 l-114 -107 l-112 107 l38 38 l74 -69 l74 69 l40 -38 Z" /><glyph glyph-name="uniF6CB" unicode="&#xf6cb;" d="M344.5 794.5 q12.5 -12.5 12.5 -30.5 q0 -18 -12.5 -31 q-12.5 -13 -30.5 -13 q-18 0 -30.5 13 q-12.5 13 -12.5 31 q0 18 12.5 30.5 q12.5 12.5 30.5 12.5 q18 0 30.5 -12.5 ZM216.5 794.5 q12.5 -12.5 12.5 -30.5 q0 -18 -12.5 -31 q-12.5 -13 -30.5 -13 q-18 0 -30.5 13 q-12.5 13 -12.5 31 q0 18 12.5 30.5 q12.5 12.5 30.5 12.5 q18 0 30.5 -12.5 Z" /><glyph glyph-name="uniF6CE" unicode="&#xf6ce;" d="M285 740 l-35 -26 l-115 103 l54 43 l96 -120 Z" /><glyph glyph-name="uniF6CF" unicode="&#xf6cf;" d="M388 830 l-70 -116 l-37 13 l51 125 l56 -22 ZM285 830 l-69 -116 l-37 13 l50 125 l56 -22 Z" /><glyph glyph-name="uniF6D0" unicode="&#xf6d0;" d="M362 727 l-224 0 l0 55 l224 0 l0 -55 Z" /><glyph glyph-name="uniF6D1" unicode="&#xf6d1;" d="M240 806 l53 -22 q-12 -39 -46 -62 q-30 -19 -73 -19 q-44 0 -73 19 q-36 23 -46 62 l53 22 q6 -24 24 -37 q15 -12 42 -12 q26 0 42 12 q16 12 24 37 Z" /><glyph glyph-name="uniF6D4" unicode="&#xf6d4;" d="M217 597 l47 -23 q-12 -36 -41 -56 q-25 -18 -66 -18 q-41 0 -66 18 q-29 20 -41 56 l47 23 q4 -22 21 -36 q13 -11 40 -11 q25 0 38 11 q16 12 21 36 Z" /><glyph glyph-name="uniF6DC" unicode="&#xf6dc;" d="M150 0 l-62 0 l0 609 l-86 0 l0 58 l148 0 l0 -667 Z" /><glyph glyph-name="uniF6DE" unicode="&#xf6de;" d="M562 287 l0 -50 l-510 0 l0 50 l510 0 Z" /><glyph glyph-name="fi" unicode="&#xfb01;" d="M200 395 l-77 0 l0 -395 l-56 0 l0 395 l-51 0 l0 52 l51 0 l0 179 q0 114 83 114 q27 0 50 -10 l0 -62 q-24 20 -41 20 q-36 0 -36 -55 l0 -186 l77 0 l0 -52 ZM298 0 l-57 0 l0 447 l57 0 l0 -447 ZM299 617 q12 -13 12 -30 q0 -17 -12 -29 q-12 -12 -29 -12 q-17 0 -29.5 12 q-12.5 12 -12.5 29 q0 18 12 30.5 q12 12.5 30 12.5 q17 0 29 -13 Z" /><glyph glyph-name="fl" unicode="&#xfb02;" d="M200 395 l-77 0 l0 -395 l-56 0 l0 395 l-51 0 l0 52 l51 0 l0 179 q0 114 83 114 q27 0 50 -10 l0 -62 q-24 20 -41 20 q-36 0 -36 -55 l0 -186 l77 0 l0 -52 ZM298 0 l-57 0 l0 729 l57 0 l0 -729 Z" /></font>
</defs>
</svg>
