<?xml version="1.0" standalone="no"?><!DOCTYPE svg PUBLIC "-//W3C//DTD SVG 1.1//EN" "http://www.w3.org/Graphics/SVG/1.1/DTD/svg11.dtd" ><svg xmlns="http://www.w3.org/2000/svg"><metadata></metadata><defs><font id="ParaTypeLtd: Futura PT Cond Bold: 2013" horiz-adv-x="1053"><font-face font-family="Futura PT Cond Bold" font-weight="700" font-stretch="normal" units-per-em="1000" panose-1="2 11 8 6 2 2 4 2 2 3" ascent="982" descent="-300" x-height="3" bbox="-279 -250 1020 911" underline-thickness="50" underline-position="-175" unicode-range="U+0020-fb02" /><missing-glyph horiz-adv-x="233"  /><glyph glyph-name="space" unicode=" " d="" /><glyph glyph-name="exclam" unicode="!" d="M210 200 l-131 0 l0 467 l131 0 l0 -467 ZM203.5 132.5 q24.5 -24.5 24.5 -59.5 q0 -35 -24.5 -59.5 q-24.5 -24.5 -59.5 -24.5 q-34 0 -59 24.5 q-25 24.5 -25 59.5 q0 35 25 59.5 q25 24.5 59 24.5 q35 0 59.5 -24.5 Z" /><glyph glyph-name="quotedbl" unicode="&quot;" d="M364 667 l-24 -268 l-92 0 l-23 268 l139 0 ZM180 667 l-23 -268 l-92 0 l-23 268 l138 0 Z" /><glyph glyph-name="numbersign" unicode="#" d="M603 496 l-17 -112 l-100 0 l-14 -88 l102 0 l-17 -112 l-103 0 l-29 -184 l-128 0 l29 184 l-88 0 l-30 -184 l-127 0 l30 184 l-103 0 l18 112 l102 0 l14 88 l-102 0 l18 112 l101 0 l27 171 l127 0 l-27 -171 l89 0 l27 171 l128 0 l-27 -171 l100 0 ZM357 384 l-88 0 l-14 -88 l89 0 l13 88 Z" /><glyph glyph-name="dollar" unicode="$" d="M398 599 l-73 -79 q-47 50 -101 50 q-34 0 -54.5 -17.5 q-20.5 -17.5 -20.5 -51.5 q0 -34 17 -51 q17 -17 52 -32 q34 -15 46 -20 q12 -5 41 -19.5 q29 -14.5 40 -24 q11 -9.5 30.5 -27.5 q19.5 -18 27.5 -35 q8 -17 14.5 -41.5 q6.5 -24.5 6.5 -52.5 q0 -77 -45 -135.5 q-45 -58.5 -118 -73.5 l0 -80 l-72 0 l0 80 q-53 9 -90.5 26 q-37.5 17 -74.5 52 l62 98 q70 -66 130 -66 q38 0 61 23 q23 23 23 61 q0 36 -22.5 55.5 q-22.5 19.5 -72.5 42.5 q-47 22 -70 35 q-23 13 -54 38.5 q-31 25.5 -44.5 58.5 q-13.5 33 -13.5 78 q0 78 44.5 125 q44.5 47 121.5 61 l0 74 l72 0 l0 -74 q45 -9 76.5 -26 q31.5 -17 60.5 -52 Z" /><glyph glyph-name="percent" unicode="%" d="M556 667 l-289 -667 l-87 0 l291 667 l85 0 ZM303 504 q0 -44 -10.5 -80.5 q-10.5 -36.5 -42.5 -65.5 q-32 -29 -82 -29 q-38 0 -65.5 16 q-27.5 16 -42 43 q-14.5 27 -21 55.5 q-6.5 28.5 -6.5 58.5 q0 40 10.5 75.5 q10.5 35.5 42.5 64.5 q32 29 82 29 q38 0 66 -16 q28 -16 42 -42.5 q14 -26.5 20.5 -53.5 q6.5 -27 6.5 -55 ZM202 505 q0 76 -32 76 q-31 0 -31 -76 q0 -85 31 -85 q32 0 32 85 ZM597 169 q0 76 -32 76 q-31 0 -31 -76 q0 -85 31 -85 q32 0 32 85 ZM698 168 q0 -44 -10.5 -80.5 q-10.5 -36.5 -42.5 -65.5 q-32 -29 -82 -29 q-38 0 -65.5 16 q-27.5 16 -42 43 q-14.5 27 -21 55.5 q-6.5 28.5 -6.5 58.5 q0 40 10.5 75.5 q10.5 35.5 42.5 64.5 q32 29 82 29 q38 0 66 -16 q28 -16 42 -42.5 q14 -26.5 20.5 -53.5 q6.5 -27 6.5 -55 Z" /><glyph glyph-name="ampersand" unicode="&amp;" d="M449 276 l69 -100 q-34 -41 -73 -70 l70 -106 l-140 0 l-26 39 q-54 -48 -124 -48 q-75 0 -126 54 q-56 59 -56 142 q0 107 96 187 q-20 32 -31 64 q-16 46 -16 90 q0 67 42 106 q45 43 114 43 q71 0 115 -42 q38 -37 38 -94 q0 -63 -33 -114 q-30 -46 -77 -77 l88 -144 q37 29 70 70 ZM235 449 q23 17 34 37 q12 21 12 46 q0 24 -11 34 q-9 9 -23 9 q-20 0 -29 -11 q-11 -11 -11 -35 q0 -41 28 -80 ZM287 134 l-84 140 q-32 -31 -32 -73 q0 -39 27 -65 q19 -19 47 -19 q22 0 42 17 Z" /><glyph glyph-name="quotesingle" unicode="&#39;" d="M180 667 l-23 -268 l-92 0 l-23 268 l138 0 Z" /><glyph glyph-name="parenleft" unicode="(" d="M274 -171 l-123 -30 q-98 222 -98 465 q0 258 98 473 l123 -27 q-89 -222 -89 -446 q0 -215 89 -435 Z" /><glyph glyph-name="parenright" unicode=")" d="M156 -201 l-123 30 q89 220 89 435 q0 224 -89 446 l123 27 q98 -215 98 -473 q0 -243 -98 -465 Z" /><glyph glyph-name="asterisk" unicode="*" d="M374 595 l-108 -31 l68 -91 l-50 -36 l-63 91 l-65 -92 l-51 37 l69 90 l-108 32 l19 60 l106 -37 l-3 111 l64 0 l-4 -111 l107 37 l19 -60 Z" /><glyph glyph-name="plus" unicode="+" d="M467 282 l-154 0 l0 -155 l-125 0 l0 155 l-155 0 l0 115 l155 0 l0 155 l125 0 l0 -155 l154 0 l0 -115 Z" /><glyph glyph-name="comma" unicode="," d="M228 121 l-133 -270 l-88 0 l88 270 l133 0 Z" /><glyph glyph-name="hyphen" unicode="-" d="M218 191 l-168 0 l0 108 l168 0 l0 -108 Z" /><glyph glyph-name="period" unicode="." d="M184.5 132.5 q24.5 -24.5 24.5 -59.5 q0 -35 -24.5 -60 q-24.5 -25 -59.5 -25 q-34 0 -59 25 q-25 25 -25 60 q0 35 24.5 59.5 q24.5 24.5 59.5 24.5 q35 0 59.5 -24.5 Z" /><glyph glyph-name="slash" unicode="/" d="M449 729 l-367 -922 l-112 0 l370 922 l109 0 Z" /><glyph glyph-name="zero" unicode="0" d="M404 336 q0 -55 -7 -107 q-7 -52 -25.5 -110.5 q-18.5 -58.5 -58.5 -94 q-40 -35.5 -98 -35.5 q-46 0 -81 25.5 q-35 25.5 -54 62.5 q-19 37 -31 87 q-12 50 -15.5 91 q-3.5 41 -3.5 83 q0 54 7.5 105.5 q7.5 51.5 26.5 108 q19 56.5 59 91 q40 34.5 97 34.5 q55 0 94 -35.5 q39 -35.5 57 -92.5 q18 -57 25.5 -108.5 q7.5 -51.5 7.5 -104.5 ZM276 300 l0 60 q0 199 -60 199 q-59 0 -59 -194 l0 -70 q0 -23 1.5 -46.5 q1.5 -23.5 6.5 -58.5 q5 -35 18.5 -57 q13.5 -22 32.5 -22 q60 0 60 189 Z" /><glyph glyph-name="one" unicode="1" d="M295 0 l-128 0 l0 551 l-64 0 l0 116 l192 0 l0 -667 Z" /><glyph glyph-name="two" unicode="2" d="M167 435 l-121 0 q-2 24 -2 36 q0 101 38.5 153.5 q38.5 52.5 136.5 52.5 q84 0 131.5 -43 q47.5 -43 47.5 -127 q0 -13 -1 -25.5 q-1 -12.5 -4 -25.5 q-3 -13 -5 -22.5 q-2 -9.5 -7.5 -23.5 q-5.5 -14 -8 -21 q-2.5 -7 -10.5 -22.5 q-8 -15.5 -10.5 -20.5 q-2.5 -5 -12 -23 q-9.5 -18 -11.5 -22 l-97 -186 l155 0 l0 -115 l-350 0 l155 285 q81 149 81 216 q0 33 -11.5 58.5 q-11.5 25.5 -40.5 25.5 q-54 0 -54 -109 q0 -27 1 -41 Z" /><glyph glyph-name="three" unicode="3" d="M58 479 l0 7 q0 72 18 113 q35 78 139 78 q79 0 123.5 -46.5 q44.5 -46.5 44.5 -126.5 q0 -122 -83 -159 q103 -33 103 -160 q0 -91 -52.5 -143.5 q-52.5 -52.5 -143.5 -52.5 q-86 0 -131.5 49.5 q-45.5 49.5 -45.5 136.5 l124 0 q0 -3 -0.5 -9.5 q-0.5 -6.5 -0.5 -9.5 q0 -26 13 -44.5 q13 -18.5 38 -18.5 q56 0 56 104 q0 58 -20.5 77 q-20.5 19 -79.5 19 l0 112 q56 0 79 17 q23 17 23 71 q0 75 -46 75 q-44 0 -44 -89 l-114 0 Z" /><glyph glyph-name="four" unicode="4" d="M404 157 l-54 0 l0 -157 l-128 0 l0 157 l-193 0 l0 103 l177 407 l144 0 l0 -396 l54 0 l0 -114 ZM222 271 l0 244 l-98 -244 l98 0 Z" /><glyph glyph-name="five" unicode="5" d="M209 553 l-18 -109 q61 -6 94 -21 q106 -48 106 -199 q0 -110 -56 -172.5 q-56 -62.5 -164 -62.5 q-61 0 -128 31 l22 115 q40 -32 82 -32 q50 0 76.5 35.5 q26.5 35.5 26.5 86.5 q0 60 -36 89 q-36 29 -97 29 q-24 0 -52 -5 l52 329 l255 0 l0 -114 l-163 0 Z" /><glyph glyph-name="six" unicode="6" d="M308 667 l-126 -263 q39 37 83 37 q37 0 65 -20 q28 -20 42.5 -52.5 q14.5 -32.5 21.5 -66.5 q7 -34 7 -68 q0 -46 -10 -87.5 q-10 -41.5 -30.5 -78 q-20.5 -36.5 -57 -58 q-36.5 -21.5 -85.5 -21.5 q-95 0 -140.5 67.5 q-45.5 67.5 -45.5 167.5 q0 39 7.5 81.5 q7.5 42.5 15 71 q7.5 28.5 28.5 78.5 q21 50 29 68 q8 18 36.5 76 q28.5 58 33.5 68 l126 0 ZM272 220 q0 15 -2 30.5 q-2 15.5 -7 33 q-5 17.5 -16.5 29 q-11.5 11.5 -26.5 11.5 q-22 0 -36 -22 q-14 -22 -18 -45.5 q-4 -23.5 -4 -46.5 q0 -20 4 -42 q4 -22 17 -43.5 q13 -21.5 32 -21.5 q57 0 57 117 Z" /><glyph glyph-name="seven" unicode="7" d="M410 667 l-250 -667 l-137 0 l207 552 l-179 0 l0 115 l359 0 Z" /><glyph glyph-name="eight" unicode="8" d="M408 184 q0 -84 -54 -139.5 q-54 -55.5 -137 -55.5 q-83 0 -137 55.5 q-54 55.5 -54 139.5 q0 80 38 126 q22 27 77 49 q-91 39 -91 142 q0 74 46 125 q46 51 120 51 q74 0 120 -50.5 q46 -50.5 46 -125.5 q0 -104 -90 -142 q54 -22 77 -49 q39 -46 39 -126 ZM252 502 q0 71 -38 71 q-38 0 -38 -70 q0 -76 38 -76 q38 0 38 75 ZM258.5 134.5 q13.5 31.5 13.5 64.5 q0 33 -13.5 64.5 q-13.5 31.5 -42.5 31.5 q-21 0 -34.5 -17.5 q-13.5 -17.5 -17.5 -37.5 q-4 -20 -4 -41 q0 -21 4 -41 q4 -20 17.5 -37.5 q13.5 -17.5 34.5 -17.5 q29 0 42.5 31.5 Z" /><glyph glyph-name="nine" unicode="9" d="M124 0 l127 262 q-42 -37 -83 -37 q-37 0 -65 20 q-28 20 -42.5 53 q-14.5 33 -21.5 67 q-7 34 -7 68 q0 46 10 87.5 q10 41.5 30.5 77.5 q20.5 36 57.5 57.5 q37 21.5 86 21.5 q95 0 140 -67 q45 -67 45 -167 q0 -130 -71 -279 q-3 -6 -10 -19.5 q-7 -13.5 -10 -20.5 l-59 -124 l-127 0 ZM270 457 q0 14 -2.5 30 q-2.5 16 -7.5 34 q-5 18 -16 30 q-11 12 -26 12 q-56 0 -56 -116 q0 -22 3 -43 q3 -21 15.5 -41.5 q12.5 -20.5 33.5 -20.5 q30 0 43 38.5 q13 38.5 13 76.5 Z" /><glyph glyph-name="colon" unicode=":" d="M184.5 430.5 q24.5 -24.5 24.5 -59.5 q0 -35 -24.5 -59.5 q-24.5 -24.5 -59.5 -24.5 q-35 0 -59.5 24.5 q-24.5 24.5 -24.5 59.5 q0 35 24.5 59.5 q24.5 24.5 59.5 24.5 q35 0 59.5 -24.5 ZM209 76 q0 -35 -24.5 -60 q-24.5 -25 -59.5 -25 q-34 0 -59 25 q-25 25 -25 60 q0 34 24.5 59 q24.5 25 59.5 25 q35 0 59.5 -25 q24.5 -25 24.5 -59 Z" /><glyph glyph-name="semicolon" unicode=";" d="M229 374 q0 -35 -25 -60 q-25 -25 -60 -25 q-34 0 -59 25 q-25 25 -25 60 q0 34 25 59 q25 25 59 25 q35 0 60 -25 q25 -25 25 -59 ZM228 121 l-133 -270 l-88 0 l88 270 l133 0 Z" /><glyph glyph-name="less" unicode="&lt;" d="M467 62 l-434 219 l0 105 l434 219 l0 -123 l-302 -149 l301 -148 l1 -123 Z" /><glyph glyph-name="equal" unicode="=" d="M467 371 l-434 0 l0 109 l434 0 l0 -109 ZM467 200 l-434 0 l0 109 l434 0 l0 -109 Z" /><glyph glyph-name="greater" unicode="&gt;" d="M467 281 l-434 -219 l0 123 l302 149 l-301 148 l-1 123 l434 -219 l0 -105 Z" /><glyph glyph-name="question" unicode="?" d="M154 482 l-124 0 q0 57 10 88 q16 51 59.5 78.5 q43.5 27.5 99.5 27.5 q85 0 135.5 -55.5 q50.5 -55.5 50.5 -141.5 q0 -73 -33 -127 q-25 -41 -75 -58 l0 -86 l-130 0 l0 164 q14 -2 20 -2 q40 0 58 31 q18 31 18 74 q0 19 -3 36.5 q-3 17.5 -14.5 33.5 q-11.5 16 -29.5 16 q-45 0 -42 -79 ZM271 132.5 q25 -24.5 25 -59.5 q0 -35 -25 -59.5 q-25 -24.5 -59 -24.5 q-35 0 -60 24.5 q-25 24.5 -25 59.5 q0 34 25 59 q25 25 60 25 q34 0 59 -24.5 Z" /><glyph glyph-name="at" unicode="@" d="M572 97 l20 -78 q-89 -31 -205 -31 q-77 0 -137 21 q-98 34 -157.5 123.5 q-59.5 89.5 -59.5 195.5 q0 147 102 248.5 q102 101.5 249 101.5 q132 0 224 -82 q92 -82 92 -212 q0 -50 -17 -99 q-20 -53 -58.5 -92.5 q-38.5 -39.5 -88.5 -39.5 q-27 0 -49 14.5 q-22 14.5 -29 40.5 q-21 -30 -54.5 -46.5 q-33.5 -16.5 -69.5 -16.5 q-62 0 -101.5 47 q-39.5 47 -39.5 110 q0 76 50.5 138 q50.5 62 124.5 62 q66 0 98 -50 l8 40 l86 -1 l-37 -191 q-7 -33 -7 -43 q0 -34 24 -34 q11 0 25 10 q29 22 44 65.5 q15 43.5 15 85.5 q0 99 -67.5 158 q-67.5 59 -168.5 59 q-115 0 -193 -79.5 q-78 -79.5 -78 -194.5 q0 -115 74 -191 q70 -71 196 -71 q95 0 185 32 ZM444 345 q0 28 -18 48 q-18 20 -46 20 q-38 0 -63.5 -33.5 q-25.5 -33.5 -25.5 -73.5 q0 -31 18 -52.5 q18 -21.5 48 -21.5 q40 0 63.5 35.5 q23.5 35.5 23.5 77.5 Z" /><glyph glyph-name="A" unicode="a" d="M457 0 l-140 0 l-25 112 l-133 0 l-24 -112 l-132 0 l156 667 l138 0 l160 -667 ZM179 215 l93 0 q-29 130 -38 192 q-8 55 -11 88 q-6 -94 -44 -280 Z" /><glyph glyph-name="B" unicode="b" d="M52 667 l141 0 q92 0 140 -47 q55 -53 55 -144 q0 -58 -31 -95 q-23 -27 -53 -39 q46 -17 72 -59 q23 -39 23 -94 q0 -82 -50 -132 q-57 -57 -157 -57 l-140 0 l0 667 ZM184 558 l0 -165 q37 2 58 23 q21 21 21 62 q0 39 -21 60 q-20 20 -58 20 ZM184 291 l0 -177 q38 0 60 21 q25 23 25 65 q0 46 -26 70 q-24 21 -59 21 Z" /><glyph glyph-name="C" unicode="c" d="M376 152 l0 -138 q-38 -21 -91 -21 q-98 0 -158 60 q-90 90 -90 270 q0 187 96 284 q67 67 160 67 q42 0 83 -19 l0 -136 q-32 29 -73 29 q-43 0 -73 -30 q-55 -55 -55 -191 q0 -123 47 -175 q28 -32 75 -32 q44 0 79 32 Z" /><glyph glyph-name="D" unicode="d" d="M52 667 l111 0 q86 0 135 -23 q56 -25 92 -79.5 q36 -54.5 48.5 -111.5 q12.5 -57 12.5 -123 q0 -71 -14 -128 q-14 -57 -44.5 -104 q-30.5 -47 -84.5 -72.5 q-54 -25.5 -127 -25.5 l-129 0 l0 667 ZM184 122 l4 0 q37 0 64.5 20 q27.5 20 41 53.5 q13.5 33.5 19.5 67 q6 33.5 6 68.5 q0 140 -68 196 q-25 21 -67 23 l0 -428 Z" /><glyph glyph-name="E" unicode="e" d="M319 0 l-267 0 l0 667 l265 0 l0 -124 l-133 0 l0 -144 l117 0 l0 -126 l-117 0 l0 -150 l135 0 l0 -123 Z" /><glyph glyph-name="F" unicode="f" d="M318 544 l-134 0 l0 -142 l121 0 l0 -127 l-121 0 l0 -275 l-132 0 l0 667 l266 0 l0 -123 Z" /><glyph glyph-name="G" unicode="g" d="M273 371 l214 0 q1 -17 1 -51 q0 -86 -12 -141 q-18 -83 -70 -136.5 q-52 -53.5 -132 -53.5 q-64 0 -112.5 32 q-48.5 32 -74 84.5 q-25.5 52.5 -38 109 q-12.5 56.5 -12.5 116.5 q0 49 6.5 95 q6.5 46 23.5 92.5 q17 46.5 42.5 81 q25.5 34.5 68 56 q42.5 21.5 96.5 21.5 q74 0 124 -42.5 q50 -42.5 72 -115.5 l-128 -50 q-3 19 -6.5 31.5 q-3.5 12.5 -10.5 28.5 q-7 16 -19.5 24 q-12.5 8 -30.5 8 q-31 0 -52.5 -25.5 q-21.5 -25.5 -30 -66.5 q-8.5 -41 -11.5 -72 q-3 -31 -3 -64 q0 -224 98 -224 q78 0 81 144 l-84 0 l0 118 Z" /><glyph glyph-name="H" unicode="h" d="M449 0 l-132 0 l0 295 l-133 0 l0 -295 l-132 0 l0 667 l132 0 l0 -247 l133 0 l0 247 l132 0 l0 -667 Z" /><glyph glyph-name="I" unicode="i" d="M184 0 l-132 0 l0 667 l132 0 l0 -667 Z" /><glyph glyph-name="J" unicode="j" d="M258 667 l0 -469 q0 -68 -14 -109 q-16 -47 -56 -73.5 q-40 -26.5 -90 -26.5 q-59 0 -98 21 l0 132 q30 -37 70 -37 q20 0 32.5 8.5 q12.5 8.5 17 27 q4.5 18.5 5.5 30 q1 11.5 1 34.5 l0 462 l132 0 Z" /><glyph glyph-name="K" unicode="k" d="M445 0 l-138 0 l-123 339 l0 -339 l-132 0 l0 667 l132 0 l0 -298 l111 298 l135 0 l-123 -308 l138 -359 Z" /><glyph glyph-name="L" unicode="l" d="M322 0 l-270 0 l0 667 l132 0 l0 -542 l138 0 l0 -125 Z" /><glyph glyph-name="M" unicode="m" d="M624 0 l-135 0 l-33 480 q-3 -60 -20 -154 l-59 -326 l-101 0 l-62 302 q-14 66 -17 100 l-8 78 l-21 -480 l-141 0 l58 667 l174 0 l65 -394 l53 394 l178 0 l69 -667 Z" /><glyph glyph-name="N" unicode="n" d="M465 0 l-124 0 l-164 402 q7 -35 7 -76 l0 -326 l-132 0 l0 667 l125 0 l164 -403 q-10 50 -10 90 l0 313 l134 0 l0 -667 Z" /><glyph glyph-name="O" unicode="o" d="M505 333 q0 -165 -60 -250 q-30 -42 -76.5 -68 q-46.5 -26 -97.5 -26 q-50 0 -96.5 26 q-46.5 26 -77.5 68 q-60 82 -60 250 q0 166 60 251 q29 42 76 67.5 q47 25.5 98 25.5 q51 0 97 -25.5 q46 -25.5 77 -67.5 q60 -82 60 -251 ZM362 274 q3 30 3 62 q0 32 -3 62 q-3 30 -11 69.5 q-8 39.5 -29 64 q-21 24.5 -51 24.5 q-30 0 -51 -24.5 q-21 -24.5 -29 -64 q-8 -39.5 -11 -69.5 q-3 -30 -3 -62 q0 -32 3 -62 q3 -30 11 -69.5 q8 -39.5 29 -64 q21 -24.5 51 -24.5 q30 0 51 24.5 q21 24.5 29 64 q8 39.5 11 69.5 Z" /><glyph glyph-name="P" unicode="p" d="M52 667 l160 0 q73 0 112 -22 q44 -25 67.5 -73 q23.5 -48 23.5 -103 q0 -102 -64 -152.5 q-64 -50.5 -167 -42.5 l0 -274 l-132 0 l0 667 ZM184 385 l8 0 q47 0 69.5 19.5 q22.5 19.5 22.5 65.5 q0 90 -77 90 l-23 0 l0 -175 Z" /><glyph glyph-name="Q" unicode="q" d="M431 -57 l-54 75 q-38 -29 -93 -29 q-97 0 -162 66 q-85 86 -85 281 q0 193 85 278 q61 63 148 63 q87 0 151 -66 q85 -87 85 -284 q0 -148 -61 -241 l63 -88 l-77 -55 ZM319 256 l36 -54 q12 56 12 131 q0 146 -48 201 q-21 23 -46 23 q-26 0 -45 -19 q-31 -30 -40.5 -79.5 q-9.5 -49.5 -9.5 -118.5 q0 -151 46 -202 q20 -22 49 -22 q16 0 28 9 l-55 77 l73 54 Z" /><glyph glyph-name="R" unicode="r" d="M440 0 l-139 0 l-117 307 l0 -307 l-132 0 l0 667 l143 0 q97 0 145 -32 q38 -25 58.5 -69 q20.5 -44 20.5 -93 q0 -112 -95 -170 l116 -303 ZM184 563 l0 -183 q7 -1 22 -1 q41 0 63 25.5 q22 25.5 22 67.5 q0 91 -82 91 l-25 0 Z" /><glyph glyph-name="S" unicode="s" d="M327 645 l0 -129 q-50 43 -95 43 q-29 0 -47.5 -18 q-18.5 -18 -18.5 -47 q0 -27 15 -49.5 q15 -22.5 37 -38 q22 -15.5 48 -35.5 q26 -20 48 -41 q22 -21 37 -56 q15 -35 15 -79 q0 -89 -51 -147.5 q-51 -58.5 -139 -58.5 q-65 0 -115 34 l0 126 q54 -36 98 -36 q34 0 56 20 q22 20 22 54 q0 19 -7 34 q-3 6 -8.5 12.5 q-5.5 6.5 -10.5 11 q-5 4.5 -13.5 11 q-8.5 6.5 -13 10 q-4.5 3.5 -14 9.5 q-9.5 6 -11.5 8 q-63 44 -93 86.5 q-30 42.5 -30 110.5 q0 83 46.5 140 q46.5 57 127.5 57 q60 0 117 -32 Z" /><glyph glyph-name="T" unicode="t" d="M338 545 l-103 0 l0 -545 l-132 0 l0 545 l-103 0 l0 122 l338 0 l0 -122 Z" /><glyph glyph-name="U" unicode="u" d="M447 667 l0 -497 q0 -65 -22 -102 q-47 -79 -177 -79 q-87 0 -141.5 43 q-54.5 43 -54.5 128 l0 507 l132 0 l0 -443 q0 -23 0.5 -32.5 q0.5 -9.5 3.5 -29 q3 -19.5 9.5 -28.5 q6.5 -9 19.5 -17 q13 -8 33 -8 q19 0 32.5 7.5 q13.5 7.5 19.5 15.5 q6 8 9 27 q3 19 3.5 28 q0.5 9 0.5 31 l0 449 l132 0 Z" /><glyph glyph-name="V" unicode="v" d="M486 667 l-185 -667 l-108 0 l-193 667 l142 0 l71 -258 q21 -78 33 -181 q9 112 29 181 l73 258 l138 0 Z" /><glyph glyph-name="W" unicode="w" d="M691 667 l-138 -667 l-115 0 q-45 195 -65 277 q-17 70 -23 197 q-9 -110 -34 -212 l-63 -262 l-115 0 l-135 667 l135 0 l54 -293 q17 -94 17 -168 q10 87 25 161 l62 300 l104 0 l68 -335 q14 -74 19 -126 q0 98 18 194 l48 267 l138 0 Z" /><glyph glyph-name="X" unicode="x" d="M443 0 l-153 0 q-6 16 -20.5 49.5 q-14.5 33.5 -22.5 53 q-8 19.5 -17 49 q-9 29.5 -13 54.5 q-12 -57 -69 -206 l-148 0 l141 344 l-141 323 l148 0 q4 -10 19 -44.5 q15 -34.5 22.5 -54 q7.5 -19.5 16.5 -48 q9 -28.5 11 -49.5 q5 24 14.5 52.5 q9.5 28.5 16.5 46 q7 17.5 22 51.5 q15 34 20 46 l142 0 l-142 -323 l153 -344 Z" /><glyph glyph-name="Y" unicode="y" d="M447 667 l-155 -382 l0 -285 l-132 0 l0 285 l-160 382 l145 0 l49 -145 q18 -54 30 -99 q9 37 29 100 l46 144 l148 0 Z" /><glyph glyph-name="Z" unicode="z" d="M438 667 l-228 -542 l209 0 l0 -125 l-401 0 l222 541 l-194 0 l0 126 l392 0 Z" /><glyph glyph-name="bracketleft" unicode="[" d="M333 -193 l-266 0 l0 922 l265 0 l0 -123 l-133 0 l0 -677 l134 0 l0 -122 Z" /><glyph glyph-name="backslash" unicode="\" d="M23 729 l109 0 l370 -922 l-112 0 l-367 922 Z" /><glyph glyph-name="bracketright" unicode="]" d="M33 -193 l0 122 l134 0 l0 677 l-133 0 l0 123 l265 0 l0 -922 l-266 0 Z" /><glyph glyph-name="asciicircum" unicode="^" d="M494 334 l-131 0 l-113 234 l-113 -234 l-131 0 l162 333 l164 0 l162 -333 Z" /><glyph glyph-name="underscore" unicode="_" d="M500 -148 l-500 0 l0 100 l500 0 l0 -100 Z" /><glyph glyph-name="grave" unicode="`" d="M298 553 l-61 -36 l-114 122 l90 42 l85 -128 Z" /><glyph glyph-name="a" unicode="a" d="M356 0 l-125 0 l0 51 q-33 -60 -83 -60 q-36 0 -62 25 q-26 25 -37.5 64.5 q-11.5 39.5 -16.5 75 q-5 35.5 -5 69.5 q0 36 4.5 70 q4.5 34 16 73 q11.5 39 37 63 q25.5 24 62.5 24 q55 0 84 -63 l0 55 l125 0 l0 -447 ZM198 103 q42 0 42 120 q0 120 -43 120 q-44 0 -44 -120 q0 -120 45 -120 Z" /><glyph glyph-name="b" unicode="b" d="M165 729 l0 -337 q29 63 84 63 q37 0 62.5 -24 q25.5 -24 37 -63 q11.5 -39 16 -73 q4.5 -34 4.5 -70 q0 -34 -5 -69.5 q-5 -35.5 -16.5 -75 q-11.5 -39.5 -37.5 -64.5 q-26 -25 -62 -25 q-50 0 -83 60 l0 -51 l-125 0 l0 729 l125 0 ZM243 223 q0 120 -45 120 q-42 0 -42 -120 q0 -120 43 -120 q14 0 23.5 14 q9.5 14 13.5 36 q4 22 5.5 38.5 q1.5 16.5 1.5 31.5 Z" /><glyph glyph-name="c" unicode="c" d="M261 121 l0 -114 q-36 -16 -71 -16 q-43 0 -76 21 q-33 21 -51 55 q-18 34 -27 72.5 q-9 38.5 -9 78.5 q0 60 14.5 111 q14.5 51 55 89 q40.5 38 101.5 38 q31 0 63 -13 l0 -110 q-15 15 -35 15 q-28 0 -45.5 -22 q-17.5 -22 -22.5 -46.5 q-5 -24.5 -5 -52.5 q0 -119 71 -119 q19 0 37 13 Z" /><glyph glyph-name="d" unicode="d" d="M356 0 l-125 0 l0 51 q-33 -60 -83 -60 q-36 0 -62 25 q-26 25 -37.5 64.5 q-11.5 39.5 -16.5 75 q-5 35.5 -5 69.5 q0 36 4.5 70 q4.5 34 16 73 q11.5 39 37 63 q25.5 24 62.5 24 q55 0 84 -63 l0 337 l125 0 l0 -729 ZM198 103 q42 0 42 120 q0 120 -43 120 q-44 0 -44 -120 q0 -120 45 -120 Z" /><glyph glyph-name="e" unicode="e" d="M233 154 l106 0 q-2 -80 -48 -128 q-35 -35 -97 -35 q-67 0 -107 40 q-61 61 -61 181 q0 137 65 202 q41 41 102 41 q58 0 96 -36 q58 -55 58 -174 q0 -21 -3 -44 l-198 0 q-1 -7 -1 -25 q0 -60 18 -79 q11 -12 26 -12 q15 0 25 8 q16 13 19 61 ZM148 278 l90 0 q0 56 -20 73 q-10 9 -23 9 q-16 0 -28 -12 q-19 -20 -19 -70 Z" /><glyph glyph-name="f" unicode="f" d="M236 343 l-57 0 l0 -343 l-125 0 l0 343 l-46 0 l0 104 l46 0 l0 151 q0 54 13 81 q15 30 47 45 q32 15 68 15 q24 0 54 -10 l0 -120 q-12 7 -22 7 q-35 0 -35 -55 l0 -114 l57 0 l0 -104 Z" /><glyph glyph-name="g" unicode="g" d="M361 447 l0 -475 q0 -54 -13 -85 q-20 -47 -63 -70 q-43 -23 -97 -23 q-144 0 -157 155 l110 0 q5 -54 46 -54 q48 0 48 95 l0 66 q-13 -21 -21.5 -32.5 q-8.5 -11.5 -25.5 -22 q-17 -10.5 -37 -10.5 q-36 0 -62 24 q-26 24 -39 62 q-13 38 -18.5 73.5 q-5.5 35.5 -5.5 68.5 q0 36 4.5 70.5 q4.5 34.5 16 75 q11.5 40.5 37 65.5 q25.5 25 62.5 25 q54 0 89 -62 l0 54 l126 0 ZM239 180 q2 23 2 44 q0 21 -2 44 q-2 23 -12.5 49 q-10.5 26 -28.5 26 q-45 0 -45 -119 q0 -119 45 -119 q18 0 28.5 26 q10.5 26 12.5 49 Z" /><glyph glyph-name="h" unicode="h" d="M354 0 l-125 0 l0 274 q0 56 -30 56 q-13 0 -20.5 -6.5 q-7.5 -6.5 -10 -21 q-2.5 -14.5 -3 -21 q-0.5 -6.5 -0.5 -22.5 l0 -259 l-125 0 l0 729 l125 0 l0 -352 q40 78 106 78 q27 0 45 -11.5 q18 -11.5 25.5 -33 q7.5 -21.5 10 -40.5 q2.5 -19 2.5 -47 l0 -323 Z" /><glyph glyph-name="i" unicode="i" d="M161 649 q23 -23 23 -56 q0 -33 -23 -56 q-23 -23 -56 -23 q-33 0 -56 23 q-23 23 -23 56 q0 33 23 56 q23 23 56 23 q33 0 56 -23 ZM167 0 l-125 0 l0 447 l125 0 l0 -447 Z" /><glyph glyph-name="j" unicode="j" d="M161 649 q23 -23 23 -56 q0 -33 -23 -56 q-23 -23 -56 -23 q-33 0 -56 23 q-23 23 -23 56 q0 33 23 56 q23 23 56 23 q33 0 56 -23 ZM167 -206 l-125 0 l0 653 l125 0 l0 -653 Z" /><glyph glyph-name="k" unicode="k" d="M392 0 l-132 0 l-95 231 l0 -231 l-125 0 l0 729 l125 0 l0 -454 l74 172 l130 0 l-98 -187 l121 -260 Z" /><glyph glyph-name="l" unicode="l" d="M165 0 l-125 0 l0 729 l125 0 l0 -729 Z" /><glyph glyph-name="m" unicode="m" d="M543 0 l-125 0 l0 268 q0 63 -32 63 q-8 0 -13.5 -2.5 q-5.5 -2.5 -9 -9 q-3.5 -6.5 -5.5 -11 q-2 -4.5 -3 -14.5 q-1 -10 -1 -14 q0 -4 0 -15 q0 -11 0 -12 l0 -253 l-125 0 l0 277 q0 52 -29 52 q-35 0 -35 -68 l0 -261 l-125 0 l0 447 l125 0 l0 -72 q47 80 111 80 q60 0 78 -76 q17 32 45 54 q28 22 61 22 q83 0 83 -123 l0 -332 Z" /><glyph glyph-name="n" unicode="n" d="M354 0 l-125 0 l0 274 q0 56 -30 56 q-13 0 -20.5 -6.5 q-7.5 -6.5 -10 -21 q-2.5 -14.5 -3 -21 q-0.5 -6.5 -0.5 -22.5 l0 -259 l-125 0 l0 447 l125 0 l0 -70 q40 78 106 78 q27 0 45 -11.5 q18 -11.5 25.5 -33 q7.5 -21.5 10 -40.5 q2.5 -19 2.5 -47 l0 -323 Z" /><glyph glyph-name="o" unicode="o" d="M357 306.5 q8 -38.5 8 -83.5 q0 -45 -8 -83.5 q-8 -38.5 -26 -73.5 q-18 -35 -52.5 -55 q-34.5 -20 -81.5 -20 q-46 0 -80.5 20.5 q-34.5 20.5 -53 55.5 q-18.5 35 -27.5 74 q-9 39 -9 82 q0 43 9 82 q9 39 27.5 74 q18.5 35 53 55.5 q34.5 20.5 80.5 20.5 q48 0 82 -20 q34 -20 52 -55 q18 -35 26 -73.5 ZM197 103 q42 0 42 120 q0 120 -42 120 q-44 0 -44 -120 q0 -120 44 -120 Z" /><glyph glyph-name="p" unicode="p" d="M165 447 l0 -55 q29 63 84 63 q37 0 62.5 -24 q25.5 -24 37 -63 q11.5 -39 16 -73 q4.5 -34 4.5 -70 q0 -34 -5 -69.5 q-5 -35.5 -16.5 -75 q-11.5 -39.5 -37.5 -64.5 q-26 -25 -62 -25 q-50 0 -83 60 l0 -257 l-125 0 l0 653 l125 0 ZM243 223 q0 120 -45 120 q-42 0 -42 -120 q0 -120 43 -120 q14 0 23.5 14 q9.5 14 13.5 36 q4 22 5.5 38.5 q1.5 16.5 1.5 31.5 Z" /><glyph glyph-name="q" unicode="q" d="M356 -206 l-125 0 l0 257 q-33 -60 -83 -60 q-36 0 -62 25 q-26 25 -37.5 64.5 q-11.5 39.5 -16.5 75 q-5 35.5 -5 69.5 q0 36 4.5 70 q4.5 34 16 73 q11.5 39 37 63 q25.5 24 62.5 24 q55 0 84 -63 l0 55 l125 0 l0 -653 ZM198 103 q42 0 42 120 q0 120 -43 120 q-44 0 -44 -120 q0 -120 45 -120 Z" /><glyph glyph-name="r" unicode="r" d="M268 463 l0 -121 q-12 2 -18 2 q-52 0 -68.5 -26 q-16.5 -26 -16.5 -81 l0 -237 l-125 0 l0 447 l125 0 l0 -55 q23 33 45 49 q22 16 58 22 Z" /><glyph glyph-name="s" unicode="s" d="M299 417 l-50 -91 q-32 30 -59 30 q-14 0 -23 -9 q-9 -9 -9 -23 q0 -17 22 -32 q22 -15 48 -26.5 q26 -11.5 48 -42.5 q22 -31 22 -77 q0 -66 -38 -110.5 q-38 -44.5 -103 -44.5 q-70 0 -136 51 l55 89 q34 -28 61 -28 q17 0 28.5 10 q11.5 10 11.5 27 q0 18 -23 33.5 q-23 15.5 -50 28 q-27 12.5 -50 44 q-23 31.5 -23 77.5 q0 62 43 97 q43 35 106 35 q66 0 119 -38 Z" /><glyph glyph-name="t" unicode="t" d="M228 343 l-51 0 l0 -343 l-125 0 l0 343 l-43 0 l0 104 l43 0 l0 127 l125 0 l0 -127 l51 0 l0 -104 Z" /><glyph glyph-name="u" unicode="u" d="M353 447 l0 -302 q0 -52 -21 -85 q-21 -33 -58.5 -51 q-37.5 -18 -78.5 -18 q-41 0 -79 18.5 q-38 18.5 -58 51.5 q-18 30 -18 77 l0 309 l125 0 l0 -275 q0 -65 31 -65 q8 0 13.5 3 q5.5 3 9 9.5 q3.5 6.5 5.5 13 q2 6.5 2.5 16 q0.5 9.5 1 15.5 q0.5 6 0 15 q-0.5 9 -0.5 12 l0 256 l126 0 Z" /><glyph glyph-name="v" unicode="v" d="M370 447 l-130 -447 l-115 0 l-128 447 l123 0 q52 -208 61 -253 q2 11 7 30.5 q5 19.5 6 24.5 l46 198 l130 0 Z" /><glyph glyph-name="w" unicode="w" d="M583 447 l-123 -447 l-103 0 q-5 18 -18.5 67 q-13.5 49 -20.5 74.5 q-7 25.5 -15.5 65.5 q-8.5 40 -13.5 73 q-10 -78 -62 -280 l-104 0 l-126 447 l121 0 q50 -198 61 -263 l59 263 l107 0 q47 -207 57 -263 q12 61 63 263 l118 0 Z" /><glyph glyph-name="x" unicode="x" d="M389 0 l-132 0 l-41 78 q-16 30 -24 57 q-13 -36 -26 -60 l-41 -75 l-128 0 l128 240 l-111 207 l129 0 l24 -47 q15 -28 25 -65 q7 30 27 68 l23 44 l129 0 l-114 -207 l132 -240 Z" /><glyph glyph-name="y" unicode="y" d="M369 447 l-188 -653 l-123 0 l69 215 l-130 438 l125 0 l43 -163 q16 -59 20 -92 l59 255 l125 0 Z" /><glyph glyph-name="z" unicode="z" d="M327 447 l-138 -344 l124 0 l0 -103 l-300 0 l142 343 l-127 0 l0 104 l299 0 Z" /><glyph glyph-name="braceleft" unicode="{" d="M401 -80 l0 -110 q-72 -3 -73 -3 q-80 0 -115.5 32.5 q-35.5 32.5 -35.5 112.5 l0 180 q0 36 -11.5 58 q-11.5 22 -43.5 28 l0 106 q55 12 55 77 l0 184 q0 83 37.5 113.5 q37.5 30.5 122.5 30.5 q11 0 32 -1 q21 -1 32 -1 l0 -110 l-10 0 q-60 0 -75 -13.5 q-15 -13.5 -15 -77.5 q0 -20 0.5 -54.5 q0.5 -34.5 0.5 -56.5 q0 -67 -12 -98 q-10 -25 -49 -51 q37 -23 48.5 -50.5 q11.5 -27.5 11.5 -75.5 q0 -16 -0.5 -56 q-0.5 -40 -0.5 -68 q0 -28 1.5 -42 q1.5 -14 7.5 -29 q6 -15 20.5 -21 q14.5 -6 38.5 -6 q11 0 33 2 Z" /><glyph glyph-name="bar" unicode="|" d="M312 -250 l-125 0 l0 1000 l125 0 l0 -1000 Z" /><glyph glyph-name="braceright" unicode="}" d="M121 -190 l0 110 q22 -2 33 -2 q25 0 39.5 6 q14.5 6 20.5 22 q6 16 7 29.5 q1 13.5 1 43.5 q0 23 -0.5 61 q-0.5 38 -0.5 60 q0 48 11.5 75.5 q11.5 27.5 48.5 50.5 q-39 26 -49 51 q-12 31 -12 98 q0 22 0.5 56.5 q0.5 34.5 0.5 54.5 q0 64 -15 77.5 q-15 13.5 -75 13.5 l-10 0 l0 110 q11 0 32 1 q21 1 32 1 q85 0 122.5 -30.5 q37.5 -30.5 37.5 -113.5 l0 -184 q0 -65 55 -77 l0 -106 q-32 -6 -43.5 -28 q-11.5 -22 -11.5 -58 l0 -180 q0 -80 -35.5 -112.5 q-35.5 -32.5 -115.5 -32.5 q-1 0 -73 3 Z" /><glyph glyph-name="asciitilde" unicode="~" d="M505 746 l71 -41 q-30 -64 -64.5 -98 q-34.5 -34 -93.5 -34 q-33 0 -93 25.5 q-60 25.5 -92 25.5 q-28 0 -43.5 -16 q-15.5 -16 -30.5 -46 l-69 45 q4 8 10.5 23 q6.5 15 9.5 21 q45 93 131 93 q36 0 99 -25.5 q63 -25.5 92 -25.5 q26 0 42 13 q16 13 31 40 Z" /><glyph glyph-name="nonbreakingspace" unicode=" " d="" /><glyph glyph-name="exclamdown" unicode="¡" d="M228 370 q0 -34 -25 -59 q-25 -25 -59 -25 q-34 0 -59 25 q-25 25 -25 59 q0 35 25 60 q25 25 59 25 q35 0 59.5 -25 q24.5 -25 24.5 -60 ZM210 -223 l-131 0 l0 466 l131 0 l0 -466 Z" /><glyph glyph-name="cent" unicode="¢" d="M333 228 l0 -112 q-18 -8 -48 -17 l0 -76 l-72 0 l0 80 q-112 41 -112 215 q0 83 25.5 152 q25.5 69 86.5 91 l0 92 l72 0 l0 -86 q16 0 48 -13 l0 -112 q-19 13 -33 13 q-26 0 -43 -24 q-17 -24 -22.5 -51 q-5.5 -27 -5.5 -53 q0 -42 15 -76 q15 -34 52 -34 q20 0 37 11 Z" /><glyph glyph-name="sterling" unicode="£" d="M413 514 l-112 -33 q-3 53 -15 69 q-13 19 -40 19 q-28 0 -44 -18 q-18 -20 -18 -66 q0 -38 17 -117 l112 0 l0 -80 l-102 0 q7 -30 7 -49 q0 -59 -41 -108 q28 0 69 -23 q30 -16 59 -16 q36 0 56 35 l68 -55 q-13 -38 -45 -62 q-28 -21 -73 -21 q-44 0 -91 18 q-53 21 -88 21 q-38 0 -76 -28 l-53 72 q39 30 78 42 q18 37 18 86 q0 50 -15 88 l-75 0 l0 80 l60 0 q-17 58 -17 117 q0 88 51 140 q51 52 142 52 q80 0 123 -47 q40 -45 45 -116 Z" /><glyph glyph-name="currency" unicode="¤" d="M644 137 l-67 -69 l-102 102 q-67 -45 -142 -45 q-71 0 -140 45 l-102 -101 l-68 67 l102 102 q-44 67 -44 138 q0 74 45 138 l-104 103 l68 68 l104 -103 q67 44 140 44 q74 0 138 -43 l102 101 l68 -67 l-102 -102 q46 -67 46 -139 q0 -69 -44 -137 l102 -102 ZM431.5 277.5 q40.5 41.5 40.5 98.5 q0 57 -40.5 98 q-40.5 41 -97.5 41 q-58 0 -98.5 -40.5 q-40.5 -40.5 -40.5 -98.5 q0 -58 40.5 -99 q40.5 -41 98.5 -41 q57 0 97.5 41.5 Z" /><glyph glyph-name="yen" unicode="¥" d="M440 667 l-101 -228 l81 0 l0 -68 l-111 0 l-24 -55 l135 0 l0 -68 l-135 0 l0 -248 l-132 0 l0 248 l-140 0 l0 68 l140 0 l-24 55 l-116 0 l0 68 l84 0 l-104 228 l145 0 l67 -175 q7 -20 12 -39 q16 51 76 214 l147 0 Z" /><glyph glyph-name="brokenbar" unicode="¦" d="M312 335 l-125 0 l0 415 l125 0 l0 -415 ZM312 -250 l-125 0 l0 415 l125 0 l0 -415 Z" /><glyph glyph-name="section" unicode="§" d="M375 562 l-114 0 q-6 79 -43 79 q-20 0 -30 -18 q-10 -18 -10 -39 q0 -44 33 -76 q33 -32 79.5 -61 q46.5 -29 62.5 -52 q33 -46 33 -134 q0 -114 -70 -167 q54 -45 54 -142 q0 -68 -42.5 -113 q-42.5 -45 -110.5 -45 q-43 0 -80 22 q-37 22 -56 61 q-16 31 -22 105 l116 0 l1 -18 q0 -3 1 -13 q1 -10 1.5 -14.5 q0.5 -4.5 2 -13 q1.5 -8.5 4.5 -12.5 q3 -4 7 -9 q4 -5 10.5 -7 q6.5 -2 14.5 -2 q20 0 30 17.5 q10 17.5 10 34.5 q0 35 -15.5 59.5 q-15.5 24.5 -39 37.5 q-23.5 13 -50.5 31 q-27 18 -50.5 38 q-23.5 20 -39 60 q-15.5 40 -15.5 96 q0 112 77 169 q-32 31 -45 63 q-13 32 -13 87 q0 67 43 110.5 q43 43.5 110 43.5 q68 0 108.5 -41 q40.5 -41 45.5 -110 l2 -27 ZM273 253 q0 117 -57 117 q-56 0 -56 -106 q0 -107 56 -107 q57 0 57 96 Z" /><glyph glyph-name="dieresis" unicode="¨" d="M372.5 629.5 q19.5 -19.5 19.5 -46.5 q0 -27 -19.5 -46.5 q-19.5 -19.5 -46.5 -19.5 q-27 0 -46.5 19.5 q-19.5 19.5 -19.5 46.5 q0 27 19.5 46.5 q19.5 19.5 46.5 19.5 q27 0 46.5 -19.5 ZM195.5 629.5 q19.5 -19.5 19.5 -46.5 q0 -27 -19.5 -46.5 q-19.5 -19.5 -46.5 -19.5 q-27 0 -46.5 19.5 q-19.5 19.5 -19.5 46.5 q0 27 19.5 46.5 q19.5 19.5 46.5 19.5 q27 0 46.5 -19.5 Z" /><glyph glyph-name="copyright" unicode="©" d="M627 579 q101 -102 101 -246 q0 -144 -101 -246 q-101 -102 -245 -102 q-144 0 -246 102 q-102 102 -102 246 q0 144 102 246 q102 102 246 102 q144 0 245 -102 ZM660 333 q0 118 -80.5 203 q-80.5 85 -197.5 85 q-118 0 -199 -84.5 q-81 -84.5 -81 -202.5 q0 -118 81.5 -203 q81.5 -85 198.5 -85 q116 0 197 85 q81 85 81 202 ZM459 219 l0 -82 q-22 -8 -44 -8 q-85 0 -138.5 60.5 q-53.5 60.5 -53.5 146.5 q0 81 53.5 141.5 q53.5 60.5 133.5 60.5 q23 0 49 -8 l0 -80 q-20 5 -36 5 q-49 0 -76 -34.5 q-27 -34.5 -27 -84.5 q0 -48 27.5 -86 q27.5 -38 73.5 -38 q17 0 38 7 Z" /><glyph glyph-name="ordfeminine" unicode="ª" d="M245 372 l-87 0 l0 20 q-20 -25 -48 -25 q-44 0 -62.5 46.5 q-18.5 46.5 -18.5 108.5 q0 151 80 151 q28 0 49 -26 l0 20 l87 0 l0 -295 ZM245 297 l-212 0 l0 44 l212 0 l0 -44 ZM141 441 q23 0 23 80 q0 80 -24 80 q-24 0 -24 -80 q0 -80 25 -80 Z" /><glyph glyph-name="guillemotleft" unicode="«" d="M366 66 l-67 -38 l-116 206 l116 206 l67 -34 l-90 -172 l90 -168 ZM213 66 l-68 -38 l-115 206 l115 206 l68 -34 l-91 -172 l91 -168 Z" /><glyph glyph-name="logicalnot" unicode="¬" d="M467 0 l-125 0 l0 154 l-309 0 l0 113 l434 0 l0 -267 Z" /><glyph glyph-name="uni00AD" unicode="­" d="M218 191 l-168 0 l0 108 l168 0 l0 -108 Z" /><glyph glyph-name="registered" unicode="®" d="M525 145 l-97 0 l-64 169 l0 -169 l-90 0 l0 390 l94 0 q62 0 102 -26 q40 -26 40 -86 q0 -72 -60 -101 l75 -177 ZM364 370 l6 0 q27 0 38 12.5 q11 12.5 11 41.5 q0 22 -10 32.5 q-10 10.5 -37 10.5 l-8 0 l0 -97 ZM666 333 q0 118 -80.5 203 q-80.5 85 -197.5 85 q-118 0 -199 -84.5 q-81 -84.5 -81 -202.5 q0 -118 81.5 -203 q81.5 -85 198.5 -85 q116 0 197 85 q81 85 81 202 ZM633 579 q101 -102 101 -246 q0 -144 -101 -246 q-101 -102 -245 -102 q-144 0 -246 102 q-102 102 -102 246 q0 144 102 246 q102 102 246 102 q144 0 245 -102 Z" /><glyph glyph-name="macron" unicode="¯" d="M393 531 l-286 0 l0 80 l286 0 l0 -80 Z" /><glyph glyph-name="degree" unicode="°" d="M358 617.5 q45 -43.5 45 -106.5 q0 -63 -45 -107 q-45 -44 -108 -44 q-63 0 -108 44 q-45 44 -45 107 q0 63 45 106.5 q45 43.5 108 43.5 q63 0 108 -43.5 ZM328 510 q0 32 -23 54.5 q-23 22.5 -55 22.5 q-32 0 -55 -22 q-23 -22 -23 -54 q0 -32 23 -55 q23 -23 55 -23 q32 0 55 23 q23 23 23 54 Z" /><glyph glyph-name="plusminus" unicode="±" d="M467 356 l-154 0 l0 -155 l-125 0 l0 155 l-155 0 l0 115 l155 0 l0 155 l125 0 l0 -155 l154 0 l0 -115 ZM467 51 l-434 0 l0 116 l434 0 l0 -116 Z" /><glyph glyph-name="twosuperior" unicode="²" d="M112 523 l-83 0 q-1 9 -1 26 q0 65 26.5 95 q26.5 30 90.5 30 q51 0 81.5 -27 q30.5 -27 30.5 -78 q0 -10 -1 -19.5 q-1 -9.5 -4.5 -20 q-3.5 -10.5 -5 -16 q-1.5 -5.5 -7.5 -18 q-6 -12.5 -7.5 -15.5 q-1.5 -3 -9.5 -18 q-8 -15 -9 -16 l-58 -105 l95 0 l0 -74 l-229 0 l100 173 q51 87 51 126 q0 46 -30 46 q-37 0 -30 -89 Z" /><glyph glyph-name="threesuperior" unicode="³" d="M120 549 l-80 0 q0 62 22.5 93 q22.5 31 82.5 31 q48 0 77.5 -29 q29.5 -29 29.5 -77 q0 -70 -46 -93 q59 -20 59 -98 q0 -53 -35.5 -84 q-35.5 -31 -88.5 -31 q-118 0 -118 116 l85 0 q0 -3 -0.5 -8 q-0.5 -5 -0.5 -7 q0 -34 28 -34 q33 0 33 59 q0 35 -13 44 q-13 9 -50 9 l0 72 q25 0 36.5 2 q11.5 2 19.5 13 q8 11 8 34 q0 41 -25 41 q-17 0 -22 -17.5 q-5 -17.5 -2 -35.5 Z" /><glyph glyph-name="acute" unicode="´" d="M378 639 l-115 -122 l-60 36 l85 128 l90 -42 Z" /><glyph glyph-name="mu" unicode="µ&#x3bc;" d="M473 0 l-124 0 l0 58 q-34 -68 -99 -68 q-62 0 -97 62 l0 -258 l-125 0 l0 653 l125 0 l0 -227 q0 -61 17 -88 q28 -44 83 -44 q30 0 55 19 q41 31 41 122 l0 218 l124 0 l0 -447 Z" /><glyph glyph-name="paragraph" unicode="¶" d="M586 570 l-72 0 l0 -670 l-106 0 l0 670 l-85 0 l0 -670 l-106 0 l0 421 q-4 -1 -11 -1 q-78 0 -128.5 46.5 q-50.5 46.5 -50.5 123.5 q0 177 230 177 l329 0 l0 -97 Z" /><glyph glyph-name="periodcentered" unicode="·" d="M213.5 405.5 q29.5 -29.5 29.5 -71.5 q0 -42 -29.5 -71.5 q-29.5 -29.5 -71.5 -29.5 q-42 0 -71.5 29.5 q-29.5 29.5 -29.5 71.5 q0 42 29.5 71.5 q29.5 29.5 71.5 29.5 q42 0 71.5 -29.5 Z" /><glyph glyph-name="cedilla" unicode="¸" d="M332 -78 l-97 -123 l-59 33 l73 126 l83 -36 Z" /><glyph glyph-name="onesuperior" unicode="¹" d="M192 267 l-87 0 l0 325 l-40 0 l0 75 l127 0 l0 -400 Z" /><glyph glyph-name="ordmasculine" unicode="º" d="M253 522 q0 -155 -110 -155 q-57 0 -84.5 42.5 q-27.5 42.5 -27.5 109.5 q0 69 27.5 111.5 q27.5 42.5 83.5 42.5 q111 0 111 -151 ZM249 297 l-215 0 l0 44 l215 0 l0 -44 ZM166 517 q0 82 -24 82 q-25 0 -25 -84 q0 -74 25 -74 q24 0 24 76 Z" /><glyph glyph-name="guillemotright" unicode="»" d="M366 234 l-115 -206 l-68 38 l91 168 l-91 172 l68 34 l115 -206 ZM213 234 l-116 -206 l-67 38 l91 168 l-91 172 l67 34 l116 -206 Z" /><glyph glyph-name="onequarter" unicode="¼" d="M695 92 l-34 0 l0 -92 l-87 0 l0 92 l-122 0 l0 65 l113 243 l96 0 l0 -234 l34 0 l0 -74 ZM550 667 l-317 -667 l-77 0 l317 667 l77 0 ZM192 267 l-87 0 l0 325 l-40 0 l0 75 l127 0 l0 -400 ZM574 166 l0 125 l-54 -125 l54 0 Z" /><glyph glyph-name="onehalf" unicode="½" d="M545 257 l-83 0 q-1 9 -1 26 q0 65 26.5 94.5 q26.5 29.5 90.5 29.5 q52 0 82 -26.5 q30 -26.5 30 -77.5 q0 -46 -44 -124 l-58 -105 l95 0 l0 -74 l-229 0 l100 173 q51 87 51 127 q0 46 -30 46 q-37 0 -30 -89 ZM550 667 l-317 -667 l-77 0 l317 667 l77 0 ZM192 267 l-87 0 l0 325 l-40 0 l0 75 l127 0 l0 -400 Z" /><glyph glyph-name="threequarters" unicode="¾" d="M696 92 l-34 0 l0 -92 l-87 0 l0 92 l-122 0 l0 65 l113 243 l96 0 l0 -234 l34 0 l0 -74 ZM551 667 l-317 -667 l-77 0 l317 667 l77 0 ZM120 549 l-80 0 q0 62 22.5 93 q22.5 31 82.5 31 q48 0 77.5 -29 q29.5 -29 29.5 -77 q0 -70 -46 -93 q59 -20 59 -98 q0 -53 -35.5 -84 q-35.5 -31 -88.5 -31 q-118 0 -118 116 l85 0 q0 -3 -0.5 -8 q-0.5 -5 -0.5 -7 q0 -34 28 -34 q33 0 33 59 q0 35 -13 44 q-13 9 -50 9 l0 72 q25 0 36.5 2 q11.5 2 19.5 13 q8 11 8 34 q0 41 -25 41 q-17 0 -22 -17.5 q-5 -17.5 -2 -35.5 ZM575 166 l0 125 l-54 -125 l54 0 Z" /><glyph glyph-name="questiondown" unicode="¿" d="M287 370 q0 -34 -25 -59 q-25 -25 -60 -25 q-34 0 -59 25 q-25 25 -25 59 q0 35 25 60 q25 25 59 25 q35 0 60 -25 q25 -25 25 -60 ZM260 -39 l124 0 q0 -57 -10 -88 q-15 -51 -59 -78.5 q-44 -27.5 -100 -27.5 q-85 0 -135 56 q-50 56 -50 142 q0 72 32 127 q24 40 75 57 l0 86 l130 0 l0 -163 q-7 1 -20 1 q-40 0 -58 -30.5 q-18 -30.5 -18 -73.5 q0 -19 3 -36.5 q3 -17.5 14.5 -33.5 q11.5 -16 29.5 -16 q42 0 42 78 Z" /><glyph glyph-name="Agrave" unicode="à" d="M457 0 l-140 0 l-25 112 l-133 0 l-24 -112 l-132 0 l156 667 l138 0 l160 -667 ZM179 215 l93 0 q-29 130 -38 192 q-8 55 -11 88 q-6 -94 -44 -280 ZM278 760 l-61 -36 l-114 122 l90 42 l85 -128 Z" /><glyph glyph-name="Aacute" unicode="á" d="M457 0 l-140 0 l-25 112 l-133 0 l-24 -112 l-132 0 l156 667 l138 0 l160 -667 ZM179 215 l93 0 q-29 130 -38 192 q-8 55 -11 88 q-6 -94 -44 -280 ZM353 846 l-115 -122 l-60 36 l85 128 l90 -42 Z" /><glyph glyph-name="Acircumflex" unicode="â" d="M457 0 l-140 0 l-25 112 l-133 0 l-24 -112 l-132 0 l156 667 l138 0 l160 -667 ZM179 215 l93 0 q-29 130 -38 192 q-8 55 -11 88 q-6 -94 -44 -280 ZM358 779 l-54 -55 l-75 62 l-78 -62 l-49 62 l127 100 l129 -107 Z" /><glyph glyph-name="Atilde" unicode="ã" d="M457 0 l-140 0 l-25 112 l-133 0 l-24 -112 l-132 0 l156 667 l138 0 l160 -667 ZM179 215 l93 0 q-29 130 -38 192 q-8 55 -11 88 q-6 -94 -44 -280 ZM308 846 l66 -4 q-4 -24 -8.5 -40.5 q-4.5 -16.5 -13.5 -36.5 q-9 -20 -25.5 -30.5 q-16.5 -10.5 -39.5 -10.5 q-21 0 -57 15.5 q-36 15.5 -51 15.5 q-23 0 -28 -28 l-65 0 q4 35 9.5 56.5 q5.5 21.5 24.5 41.5 q19 20 51 20 q22 0 55 -17 q33 -17 50 -17 q10 0 16 3.5 q6 3.5 8 6.5 q2 3 4.5 13 q2.5 10 3.5 12 Z" /><glyph glyph-name="Adieresis" unicode="ä" d="M457 0 l-140 0 l-25 112 l-133 0 l-24 -112 l-132 0 l156 667 l138 0 l160 -667 ZM179 215 l93 0 q-29 130 -38 192 q-8 55 -11 88 q-6 -94 -44 -280 ZM360.5 836.5 q19.5 -19.5 19.5 -46.5 q0 -27 -19.5 -46.5 q-19.5 -19.5 -46.5 -19.5 q-27 0 -46.5 19.5 q-19.5 19.5 -19.5 46.5 q0 27 19.5 46.5 q19.5 19.5 46.5 19.5 q27 0 46.5 -19.5 ZM190.5 836.5 q19.5 -19.5 19.5 -46.5 q0 -27 -19.5 -46.5 q-19.5 -19.5 -46.5 -19.5 q-27 0 -46.5 19.5 q-19.5 19.5 -19.5 46.5 q0 27 19.5 46.5 q19.5 19.5 46.5 19.5 q27 0 46.5 -19.5 Z" /><glyph glyph-name="Aring" unicode="å" d="M457 0 l-140 0 l-25 112 l-133 0 l-24 -112 l-132 0 l156 667 l138 0 l160 -667 ZM179 215 l93 0 q-29 130 -38 192 q-8 55 -11 88 q-6 -94 -44 -280 ZM157 742 q-28 28 -28 68 q0 40 28 68 q28 28 68 28 q40 0 68 -28 q28 -28 28 -68 q0 -40 -28 -68 q-28 -28 -68 -28 q-40 0 -68 28 ZM195.5 839.5 q-11.5 -11.5 -11.5 -29.5 q0 -18 11.5 -29.5 q11.5 -11.5 29.5 -11.5 q18 0 29.5 11.5 q11.5 11.5 11.5 29.5 q0 18 -11.5 29.5 q-11.5 11.5 -29.5 11.5 q-18 0 -29.5 -11.5 Z" /><glyph glyph-name="AE" unicode="æ" d="M585 0 l-267 0 l-25 111 l-138 0 l-20 -111 l-132 0 l152 667 l272 0 l28 -124 l-132 0 l34 -138 l132 0 l30 -126 l-130 0 l38 -154 l127 0 l31 -125 ZM177 216 l94 0 q-5 23 -15.5 70 q-10.5 47 -15.5 71 q-12 52 -19 137 q-6 -86 -44 -278 Z" /><glyph glyph-name="Ccedilla" unicode="ç" d="M376 152 l0 -138 q-38 -21 -91 -21 q-98 0 -158 60 q-90 90 -90 270 q0 187 96 284 q67 67 160 67 q42 0 83 -19 l0 -136 q-32 29 -73 29 q-43 0 -73 -30 q-55 -55 -55 -191 q0 -123 47 -175 q28 -32 75 -32 q44 0 79 32 ZM338 -80 l-100 -125 l-61 35 l76 128 l85 -38 Z" /><glyph glyph-name="Egrave" unicode="è" d="M319 0 l-267 0 l0 667 l265 0 l0 -124 l-133 0 l0 -144 l117 0 l0 -126 l-117 0 l0 -150 l135 0 l0 -123 ZM248 760 l-61 -36 l-114 122 l90 42 l85 -128 Z" /><glyph glyph-name="Eacute" unicode="é" d="M319 0 l-267 0 l0 667 l265 0 l0 -124 l-133 0 l0 -144 l117 0 l0 -126 l-117 0 l0 -150 l135 0 l0 -123 ZM298 846 l-115 -122 l-60 36 l85 128 l90 -42 Z" /><glyph glyph-name="Ecircumflex" unicode="ê" d="M319 0 l-267 0 l0 667 l265 0 l0 -124 l-133 0 l0 -144 l117 0 l0 -126 l-117 0 l0 -150 l135 0 l0 -123 ZM318 779 l-54 -55 l-75 62 l-78 -62 l-49 62 l127 100 l129 -107 Z" /><glyph glyph-name="Edieresis" unicode="ë" d="M319 0 l-267 0 l0 667 l265 0 l0 -124 l-133 0 l0 -144 l117 0 l0 -126 l-117 0 l0 -150 l135 0 l0 -123 ZM315.5 836.5 q19.5 -19.5 19.5 -46.5 q0 -27 -19.5 -46.5 q-19.5 -19.5 -46.5 -19.5 q-27 0 -46.5 19.5 q-19.5 19.5 -19.5 46.5 q0 27 19.5 46.5 q19.5 19.5 46.5 19.5 q27 0 46.5 -19.5 ZM145.5 836.5 q19.5 -19.5 19.5 -46.5 q0 -27 -19.5 -46.5 q-19.5 -19.5 -46.5 -19.5 q-27 0 -46.5 19.5 q-19.5 19.5 -19.5 46.5 q0 27 19.5 46.5 q19.5 19.5 46.5 19.5 q27 0 46.5 -19.5 Z" /><glyph glyph-name="Igrave" unicode="ì" d="M184 0 l-132 0 l0 667 l132 0 l0 -667 ZM188 760 l-61 -36 l-114 122 l90 42 l85 -128 Z" /><glyph glyph-name="Iacute" unicode="í" d="M184 0 l-132 0 l0 667 l132 0 l0 -667 ZM238 846 l-115 -122 l-60 36 l85 128 l90 -42 Z" /><glyph glyph-name="Icircumflex" unicode="î" d="M184 0 l-132 0 l0 667 l132 0 l0 -667 ZM246 779 l-54 -55 l-75 62 l-78 -62 l-49 62 l127 100 l129 -107 Z" /><glyph glyph-name="Idieresis" unicode="ï" d="M184 0 l-132 0 l0 667 l132 0 l0 -667 ZM250.5 836.5 q19.5 -19.5 19.5 -46.5 q0 -27 -19.5 -46.5 q-19.5 -19.5 -46.5 -19.5 q-27 0 -46.5 19.5 q-19.5 19.5 -19.5 46.5 q0 27 19.5 46.5 q19.5 19.5 46.5 19.5 q27 0 46.5 -19.5 ZM80.5 836.5 q19.5 -19.5 19.5 -46.5 q0 -27 -19.5 -46.5 q-19.5 -19.5 -46.5 -19.5 q-27 0 -46.5 19.5 q-19.5 19.5 -19.5 46.5 q0 27 19.5 46.5 q19.5 19.5 46.5 19.5 q27 0 46.5 -19.5 Z" /><glyph glyph-name="Eth" unicode="ð" d="M52 667 l111 0 q69 0 116 -15 q47 -15 88 -58 q85 -89 85 -264 q0 -96 -24.5 -167 q-24.5 -71 -87 -117 q-62.5 -46 -159.5 -46 l-129 0 l0 283 l-53 0 l0 107 l53 0 l0 277 ZM184 283 l0 -162 q53 1 84 35 q51 55 51 173 q0 127 -54 185 q-31 33 -81 36 l0 -160 l67 0 l0 -107 l-67 0 Z" /><glyph glyph-name="Ntilde" unicode="ñ" d="M465 0 l-124 0 l-164 402 q7 -35 7 -76 l0 -326 l-132 0 l0 667 l125 0 l164 -403 q-10 50 -10 90 l0 313 l134 0 l0 -667 ZM336 846 l66 -4 q-4 -24 -8.5 -40.5 q-4.5 -16.5 -13.5 -36.5 q-9 -20 -25.5 -30.5 q-16.5 -10.5 -39.5 -10.5 q-21 0 -57 15.5 q-36 15.5 -51 15.5 q-23 0 -28 -28 l-65 0 q4 35 9.5 56.5 q5.5 21.5 24.5 41.5 q19 20 51 20 q22 0 55 -17 q33 -17 50 -17 q10 0 16 3.5 q6 3.5 8 6.5 q2 3 4.5 13 q2.5 10 3.5 12 Z" /><glyph glyph-name="Ograve" unicode="ò" d="M505 333 q0 -165 -60 -250 q-30 -42 -76.5 -68 q-46.5 -26 -97.5 -26 q-50 0 -96.5 26 q-46.5 26 -77.5 68 q-60 82 -60 250 q0 166 60 251 q29 42 76 67.5 q47 25.5 98 25.5 q51 0 97 -25.5 q46 -25.5 77 -67.5 q60 -82 60 -251 ZM362 274 q3 30 3 62 q0 32 -3 62 q-3 30 -11 69.5 q-8 39.5 -29 64 q-21 24.5 -51 24.5 q-30 0 -51 -24.5 q-21 -24.5 -29 -64 q-8 -39.5 -11 -69.5 q-3 -30 -3 -62 q0 -32 3 -62 q3 -30 11 -69.5 q8 -39.5 29 -64 q21 -24.5 51 -24.5 q30 0 51 24.5 q21 24.5 29 64 q8 39.5 11 69.5 ZM328 760 l-61 -36 l-114 122 l90 42 l85 -128 Z" /><glyph glyph-name="Oacute" unicode="ó" d="M505 333 q0 -165 -60 -250 q-30 -42 -76.5 -68 q-46.5 -26 -97.5 -26 q-50 0 -96.5 26 q-46.5 26 -77.5 68 q-60 82 -60 250 q0 166 60 251 q29 42 76 67.5 q47 25.5 98 25.5 q51 0 97 -25.5 q46 -25.5 77 -67.5 q60 -82 60 -251 ZM362 274 q3 30 3 62 q0 32 -3 62 q-3 30 -11 69.5 q-8 39.5 -29 64 q-21 24.5 -51 24.5 q-30 0 -51 -24.5 q-21 -24.5 -29 -64 q-8 -39.5 -11 -69.5 q-3 -30 -3 -62 q0 -32 3 -62 q3 -30 11 -69.5 q8 -39.5 29 -64 q21 -24.5 51 -24.5 q30 0 51 24.5 q21 24.5 29 64 q8 39.5 11 69.5 ZM399 846 l-115 -122 l-60 36 l85 128 l90 -42 Z" /><glyph glyph-name="Ocircumflex" unicode="ô" d="M505 333 q0 -165 -60 -250 q-30 -42 -76.5 -68 q-46.5 -26 -97.5 -26 q-50 0 -96.5 26 q-46.5 26 -77.5 68 q-60 82 -60 250 q0 166 60 251 q29 42 76 67.5 q47 25.5 98 25.5 q51 0 97 -25.5 q46 -25.5 77 -67.5 q60 -82 60 -251 ZM362 274 q3 30 3 62 q0 32 -3 62 q-3 30 -11 69.5 q-8 39.5 -29 64 q-21 24.5 -51 24.5 q-30 0 -51 -24.5 q-21 -24.5 -29 -64 q-8 -39.5 -11 -69.5 q-3 -30 -3 -62 q0 -32 3 -62 q3 -30 11 -69.5 q8 -39.5 29 -64 q21 -24.5 51 -24.5 q30 0 51 24.5 q21 24.5 29 64 q8 39.5 11 69.5 ZM399 779 l-54 -55 l-75 62 l-78 -62 l-49 62 l127 100 l129 -107 Z" /><glyph glyph-name="Otilde" unicode="õ" d="M505 333 q0 -165 -60 -250 q-30 -42 -76.5 -68 q-46.5 -26 -97.5 -26 q-50 0 -96.5 26 q-46.5 26 -77.5 68 q-60 82 -60 250 q0 166 60 251 q29 42 76 67.5 q47 25.5 98 25.5 q51 0 97 -25.5 q46 -25.5 77 -67.5 q60 -82 60 -251 ZM362 274 q3 30 3 62 q0 32 -3 62 q-3 30 -11 69.5 q-8 39.5 -29 64 q-21 24.5 -51 24.5 q-30 0 -51 -24.5 q-21 -24.5 -29 -64 q-8 -39.5 -11 -69.5 q-3 -30 -3 -62 q0 -32 3 -62 q3 -30 11 -69.5 q8 -39.5 29 -64 q21 -24.5 51 -24.5 q30 0 51 24.5 q21 24.5 29 64 q8 39.5 11 69.5 ZM343 846 l66 -4 q-4 -24 -8.5 -40.5 q-4.5 -16.5 -13.5 -36.5 q-9 -20 -25.5 -30.5 q-16.5 -10.5 -39.5 -10.5 q-21 0 -57 15.5 q-36 15.5 -51 15.5 q-23 0 -28 -28 l-65 0 q4 35 9.5 56.5 q5.5 21.5 24.5 41.5 q19 20 51 20 q22 0 55 -17 q33 -17 50 -17 q10 0 16 3.5 q6 3.5 8 6.5 q2 3 4.5 13 q2.5 10 3.5 12 Z" /><glyph glyph-name="Odieresis" unicode="ö" d="M505 333 q0 -165 -60 -250 q-30 -42 -76.5 -68 q-46.5 -26 -97.5 -26 q-50 0 -96.5 26 q-46.5 26 -77.5 68 q-60 82 -60 250 q0 166 60 251 q29 42 76 67.5 q47 25.5 98 25.5 q51 0 97 -25.5 q46 -25.5 77 -67.5 q60 -82 60 -251 ZM362 274 q3 30 3 62 q0 32 -3 62 q-3 30 -11 69.5 q-8 39.5 -29 64 q-21 24.5 -51 24.5 q-30 0 -51 -24.5 q-21 -24.5 -29 -64 q-8 -39.5 -11 -69.5 q-3 -30 -3 -62 q0 -32 3 -62 q3 -30 11 -69.5 q8 -39.5 29 -64 q21 -24.5 51 -24.5 q30 0 51 24.5 q21 24.5 29 64 q8 39.5 11 69.5 ZM400.5 836.5 q19.5 -19.5 19.5 -46.5 q0 -27 -19.5 -46.5 q-19.5 -19.5 -46.5 -19.5 q-27 0 -46.5 19.5 q-19.5 19.5 -19.5 46.5 q0 27 19.5 46.5 q19.5 19.5 46.5 19.5 q27 0 46.5 -19.5 ZM230.5 836.5 q19.5 -19.5 19.5 -46.5 q0 -27 -19.5 -46.5 q-19.5 -19.5 -46.5 -19.5 q-27 0 -46.5 19.5 q-19.5 19.5 -19.5 46.5 q0 27 19.5 46.5 q19.5 19.5 46.5 19.5 q27 0 46.5 -19.5 Z" /><glyph glyph-name="multiply" unicode="×" d="M363 145 l-113 113 l-113 -113 l-81 82 l113 113 l-113 112 l81 82 l113 -113 l113 113 l81 -82 l-113 -112 l113 -113 l-81 -82 Z" /><glyph glyph-name="Oslash" unicode="ø" d="M503 641 l-47 -75 q49 -85 49 -236 q0 -151 -51 -235 q-29 -47 -78 -76.5 q-49 -29.5 -104 -29.5 q-73 0 -144 56 l-33 -51 l-50 33 l43 68 q-51 91 -51 238 q0 156 56 244 q29 46 77.5 73 q48.5 27 102.5 27 q82 0 144 -60 l36 54 l50 -30 ZM183 243 l158 256 q-26 59 -70 59 q-92 0 -92 -222 q0 -52 4 -93 ZM361 414 l-156 -252 q27 -49 68 -49 q29 0 49 23 q20 23 28.5 60 q8.5 37 11.5 67 q3 30 3 58 q0 31 -4 93 Z" /><glyph glyph-name="Ugrave" unicode="ù" d="M447 667 l0 -497 q0 -65 -22 -102 q-47 -79 -177 -79 q-87 0 -141.5 43 q-54.5 43 -54.5 128 l0 507 l132 0 l0 -443 q0 -23 0.5 -32.5 q0.5 -9.5 3.5 -29 q3 -19.5 9.5 -28.5 q6.5 -9 19.5 -17 q13 -8 33 -8 q19 0 32.5 7.5 q13.5 7.5 19.5 15.5 q6 8 9 27 q3 19 3.5 28 q0.5 9 0.5 31 l0 449 l132 0 ZM298 760 l-61 -36 l-114 122 l90 42 l85 -128 Z" /><glyph glyph-name="Uacute" unicode="ú" d="M447 667 l0 -497 q0 -65 -22 -102 q-47 -79 -177 -79 q-87 0 -141.5 43 q-54.5 43 -54.5 128 l0 507 l132 0 l0 -443 q0 -23 0.5 -32.5 q0.5 -9.5 3.5 -29 q3 -19.5 9.5 -28.5 q6.5 -9 19.5 -17 q13 -8 33 -8 q19 0 32.5 7.5 q13.5 7.5 19.5 15.5 q6 8 9 27 q3 19 3.5 28 q0.5 9 0.5 31 l0 449 l132 0 ZM378 846 l-115 -122 l-60 36 l85 128 l90 -42 Z" /><glyph glyph-name="Ucircumflex" unicode="û" d="M447 667 l0 -497 q0 -65 -22 -102 q-47 -79 -177 -79 q-87 0 -141.5 43 q-54.5 43 -54.5 128 l0 507 l132 0 l0 -443 q0 -23 0.5 -32.5 q0.5 -9.5 3.5 -29 q3 -19.5 9.5 -28.5 q6.5 -9 19.5 -17 q13 -8 33 -8 q19 0 32.5 7.5 q13.5 7.5 19.5 15.5 q6 8 9 27 q3 19 3.5 28 q0.5 9 0.5 31 l0 449 l132 0 ZM378 779 l-54 -55 l-75 62 l-78 -62 l-49 62 l127 100 l129 -107 Z" /><glyph glyph-name="Udieresis" unicode="ü" d="M447 667 l0 -497 q0 -65 -22 -102 q-47 -79 -177 -79 q-87 0 -141.5 43 q-54.5 43 -54.5 128 l0 507 l132 0 l0 -443 q0 -23 0.5 -32.5 q0.5 -9.5 3.5 -29 q3 -19.5 9.5 -28.5 q6.5 -9 19.5 -17 q13 -8 33 -8 q19 0 32.5 7.5 q13.5 7.5 19.5 15.5 q6 8 9 27 q3 19 3.5 28 q0.5 9 0.5 31 l0 449 l132 0 ZM385.5 836.5 q19.5 -19.5 19.5 -46.5 q0 -27 -19.5 -46.5 q-19.5 -19.5 -46.5 -19.5 q-27 0 -46.5 19.5 q-19.5 19.5 -19.5 46.5 q0 27 19.5 46.5 q19.5 19.5 46.5 19.5 q27 0 46.5 -19.5 ZM215.5 836.5 q19.5 -19.5 19.5 -46.5 q0 -27 -19.5 -46.5 q-19.5 -19.5 -46.5 -19.5 q-27 0 -46.5 19.5 q-19.5 19.5 -19.5 46.5 q0 27 19.5 46.5 q19.5 19.5 46.5 19.5 q27 0 46.5 -19.5 Z" /><glyph glyph-name="Yacute" unicode="ý" d="M447 667 l-155 -382 l0 -285 l-132 0 l0 285 l-160 382 l145 0 l49 -145 q18 -54 30 -99 q9 37 29 100 l46 144 l148 0 ZM348 846 l-115 -122 l-60 36 l85 128 l90 -42 Z" /><glyph glyph-name="Thorn" unicode="þ" d="M184 667 l0 -94 q4 0 18 0 q14 0 18.5 0 q4.5 0 17 -0.5 q12.5 -0.5 18.5 -1 q6 -0.5 17 -2.5 q11 -2 18 -4 q7 -2 16 -5.5 q9 -3.5 17 -8.5 q44 -25 67.5 -73 q23.5 -48 23.5 -103 q0 -91 -54.5 -143.5 q-54.5 -52.5 -146.5 -52.5 q-20 0 -30 2 l0 -181 l-132 0 l0 667 l132 0 ZM184 467 l0 -176 q52 0 76 18.5 q24 18.5 24 68.5 q0 43 -19 67 q-18 22 -61 22 l-20 0 Z" /><glyph glyph-name="germandbls" unicode="ß" d="M66 0 l0 343 l-56 0 l0 104 l56 0 l0 132 q0 37 16 74 q36 87 149 87 q83 0 120.5 -54 q37.5 -54 37.5 -141 q0 -55 -13.5 -91 q-13.5 -36 -55.5 -54 q48 -28 65.5 -73 q17.5 -45 17.5 -110 q0 -222 -144 -222 q-18 0 -40 5 l0 112 q28 3 37 24 q11 23 11 89 q0 64 -15 94 q-11 20 -33 24 l0 111 q24 4 32 25 q7 19 7 63 q0 87 -35 87 q-13 0 -20.5 -7.5 q-7.5 -7.5 -9 -14 q-1.5 -6.5 -2 -22 q-0.5 -15.5 -0.5 -16.5 l0 -569 l-125 0 Z" /><glyph glyph-name="agrave" unicode="à" d="M356 0 l-125 0 l0 51 q-33 -60 -83 -60 q-36 0 -62 25 q-26 25 -37.5 64.5 q-11.5 39.5 -16.5 75 q-5 35.5 -5 69.5 q0 36 4.5 70 q4.5 34 16 73 q11.5 39 37 63 q25.5 24 62.5 24 q55 0 84 -63 l0 55 l125 0 l0 -447 ZM198 103 q42 0 42 120 q0 120 -43 120 q-44 0 -44 -120 q0 -120 45 -120 ZM278 553 l-61 -36 l-114 122 l90 42 l85 -128 Z" /><glyph glyph-name="aacute" unicode="á" d="M356 0 l-125 0 l0 51 q-33 -60 -83 -60 q-36 0 -62 25 q-26 25 -37.5 64.5 q-11.5 39.5 -16.5 75 q-5 35.5 -5 69.5 q0 36 4.5 70 q4.5 34 16 73 q11.5 39 37 63 q25.5 24 62.5 24 q55 0 84 -63 l0 55 l125 0 l0 -447 ZM198 103 q42 0 42 120 q0 120 -43 120 q-44 0 -44 -120 q0 -120 45 -120 ZM313 639 l-115 -122 l-60 36 l85 128 l90 -42 Z" /><glyph glyph-name="acircumflex" unicode="â" d="M356 0 l-125 0 l0 51 q-33 -60 -83 -60 q-36 0 -62 25 q-26 25 -37.5 64.5 q-11.5 39.5 -16.5 75 q-5 35.5 -5 69.5 q0 36 4.5 70 q4.5 34 16 73 q11.5 39 37 63 q25.5 24 62.5 24 q55 0 84 -63 l0 55 l125 0 l0 -447 ZM198 103 q42 0 42 120 q0 120 -43 120 q-44 0 -44 -120 q0 -120 45 -120 ZM326 572 l-54 -55 l-75 62 l-78 -62 l-49 62 l127 100 l129 -107 Z" /><glyph glyph-name="atilde" unicode="ã" d="M356 0 l-125 0 l0 51 q-33 -60 -83 -60 q-36 0 -62 25 q-26 25 -37.5 64.5 q-11.5 39.5 -16.5 75 q-5 35.5 -5 69.5 q0 36 4.5 70 q4.5 34 16 73 q11.5 39 37 63 q25.5 24 62.5 24 q55 0 84 -63 l0 55 l125 0 l0 -447 ZM198 103 q42 0 42 120 q0 120 -43 120 q-44 0 -44 -120 q0 -120 45 -120 ZM283 639 l66 -4 q-4 -24 -8.5 -40.5 q-4.5 -16.5 -13.5 -36.5 q-9 -20 -25.5 -30.5 q-16.5 -10.5 -39.5 -10.5 q-21 0 -57 15.5 q-36 15.5 -51 15.5 q-23 0 -28 -28 l-65 0 q4 35 9.5 56.5 q5.5 21.5 24.5 41.5 q19 20 51 20 q22 0 55 -17 q33 -17 50 -17 q10 0 16 3.5 q6 3.5 8 6.5 q2 3 4.5 13 q2.5 10 3.5 12 Z" /><glyph glyph-name="adieresis" unicode="ä" d="M356 0 l-125 0 l0 51 q-33 -60 -83 -60 q-36 0 -62 25 q-26 25 -37.5 64.5 q-11.5 39.5 -16.5 75 q-5 35.5 -5 69.5 q0 36 4.5 70 q4.5 34 16 73 q11.5 39 37 63 q25.5 24 62.5 24 q55 0 84 -63 l0 55 l125 0 l0 -447 ZM198 103 q42 0 42 120 q0 120 -43 120 q-44 0 -44 -120 q0 -120 45 -120 ZM333.5 629.5 q19.5 -19.5 19.5 -46.5 q0 -27 -19.5 -46.5 q-19.5 -19.5 -46.5 -19.5 q-27 0 -46.5 19.5 q-19.5 19.5 -19.5 46.5 q0 27 19.5 46.5 q19.5 19.5 46.5 19.5 q27 0 46.5 -19.5 ZM156.5 629.5 q19.5 -19.5 19.5 -46.5 q0 -27 -19.5 -46.5 q-19.5 -19.5 -46.5 -19.5 q-27 0 -46.5 19.5 q-19.5 19.5 -19.5 46.5 q0 27 19.5 46.5 q19.5 19.5 46.5 19.5 q27 0 46.5 -19.5 Z" /><glyph glyph-name="aring" unicode="å" d="M356 0 l-125 0 l0 51 q-33 -60 -83 -60 q-36 0 -62 25 q-26 25 -37.5 64.5 q-11.5 39.5 -16.5 75 q-5 35.5 -5 69.5 q0 36 4.5 70 q4.5 34 16 73 q11.5 39 37 63 q25.5 24 62.5 24 q55 0 84 -63 l0 55 l125 0 l0 -447 ZM198 103 q42 0 42 120 q0 120 -43 120 q-44 0 -44 -120 q0 -120 45 -120 ZM130 551 q-28 28 -28 68 q0 40 28 68 q28 28 68 28 q40 0 68 -28 q28 -28 28 -68 q0 -40 -28 -68 q-28 -28 -68 -28 q-40 0 -68 28 ZM168.5 648.5 q-11.5 -11.5 -11.5 -29.5 q0 -18 11.5 -29.5 q11.5 -11.5 29.5 -11.5 q18 0 29.5 11.5 q11.5 11.5 11.5 29.5 q0 18 -11.5 29.5 q-11.5 11.5 -29.5 11.5 q-18 0 -29.5 -11.5 Z" /><glyph glyph-name="ae" unicode="æ" d="M544 192 l-205 0 q3 -109 56 -109 q40 0 40 54 l102 0 q-2 -67 -38 -106.5 q-36 -39.5 -102 -39.5 q-68 0 -111 55 q-52 -55 -114 -55 q-64 0 -104.5 38 q-40.5 38 -40.5 102 q0 61 36.5 99 q36.5 38 96.5 38 q41 0 66 -16 l0 2 q0 25 -2 40 q-2 15 -9 30 q-7 15 -22 21.5 q-15 6.5 -40 6.5 q-38 0 -88 -23 l0 107 q60 20 101 20 q45 0 74 -14.5 q29 -14.5 50 -51.5 q38 65 110 65 q33 0 58 -12 q25 -12 39.5 -35 q14.5 -23 24.5 -46.5 q10 -23.5 14.5 -58.5 q4.5 -35 5.5 -56.5 q1 -21.5 2 -54.5 ZM340 269 l93 0 q0 95 -46 95 q-47 0 -47 -95 ZM220 98 q14 14 14 33 q0 19 -14 33 q-14 14 -33 14 q-19 0 -33 -14 q-14 -14 -14 -33 q0 -19 14 -33 q14 -14 33 -14 q19 0 33 14 Z" /><glyph glyph-name="ccedilla" unicode="ç" d="M261 121 l0 -114 q-36 -16 -71 -16 q-43 0 -76 21 q-33 21 -51 55 q-18 34 -27 72.5 q-9 38.5 -9 78.5 q0 60 14.5 111 q14.5 51 55 89 q40.5 38 101.5 38 q31 0 63 -13 l0 -110 q-15 15 -35 15 q-28 0 -45.5 -22 q-17.5 -22 -22.5 -46.5 q-5 -24.5 -5 -52.5 q0 -119 71 -119 q19 0 37 13 ZM245 -78 l-97 -123 l-59 33 l73 126 l83 -36 Z" /><glyph glyph-name="egrave" unicode="è" d="M233 154 l106 0 q-2 -80 -48 -128 q-35 -35 -97 -35 q-67 0 -107 40 q-61 61 -61 181 q0 137 65 202 q41 41 102 41 q58 0 96 -36 q58 -55 58 -174 q0 -21 -3 -44 l-198 0 q-1 -7 -1 -25 q0 -60 18 -79 q11 -12 26 -12 q15 0 25 8 q16 13 19 61 ZM148 278 l90 0 q0 56 -20 73 q-10 9 -23 9 q-16 0 -28 -12 q-19 -20 -19 -70 ZM255 553 l-61 -36 l-114 122 l90 42 l85 -128 Z" /><glyph glyph-name="eacute" unicode="é" d="M233 154 l106 0 q-2 -80 -48 -128 q-35 -35 -97 -35 q-67 0 -107 40 q-61 61 -61 181 q0 137 65 202 q41 41 102 41 q58 0 96 -36 q58 -55 58 -174 q0 -21 -3 -44 l-198 0 q-1 -7 -1 -25 q0 -60 18 -79 q11 -12 26 -12 q15 0 25 8 q16 13 19 61 ZM148 278 l90 0 q0 56 -20 73 q-10 9 -23 9 q-16 0 -28 -12 q-19 -20 -19 -70 ZM315 639 l-115 -122 l-60 36 l85 128 l90 -42 Z" /><glyph glyph-name="ecircumflex" unicode="ê" d="M233 154 l106 0 q-2 -80 -48 -128 q-35 -35 -97 -35 q-67 0 -107 40 q-61 61 -61 181 q0 137 65 202 q41 41 102 41 q58 0 96 -36 q58 -55 58 -174 q0 -21 -3 -44 l-198 0 q-1 -7 -1 -25 q0 -60 18 -79 q11 -12 26 -12 q15 0 25 8 q16 13 19 61 ZM148 278 l90 0 q0 56 -20 73 q-10 9 -23 9 q-16 0 -28 -12 q-19 -20 -19 -70 ZM315 572 l-54 -55 l-75 62 l-78 -62 l-49 62 l127 100 l129 -107 Z" /><glyph glyph-name="edieresis" unicode="ë" d="M233 154 l106 0 q-2 -80 -48 -128 q-35 -35 -97 -35 q-67 0 -107 40 q-61 61 -61 181 q0 137 65 202 q41 41 102 41 q58 0 96 -36 q58 -55 58 -174 q0 -21 -3 -44 l-198 0 q-1 -7 -1 -25 q0 -60 18 -79 q11 -12 26 -12 q15 0 25 8 q16 13 19 61 ZM148 278 l90 0 q0 56 -20 73 q-10 9 -23 9 q-16 0 -28 -12 q-19 -20 -19 -70 ZM321.5 629.5 q19.5 -19.5 19.5 -46.5 q0 -27 -19.5 -46.5 q-19.5 -19.5 -46.5 -19.5 q-27 0 -46.5 19.5 q-19.5 19.5 -19.5 46.5 q0 27 19.5 46.5 q19.5 19.5 46.5 19.5 q27 0 46.5 -19.5 ZM144.5 629.5 q19.5 -19.5 19.5 -46.5 q0 -27 -19.5 -46.5 q-19.5 -19.5 -46.5 -19.5 q-27 0 -46.5 19.5 q-19.5 19.5 -19.5 46.5 q0 27 19.5 46.5 q19.5 19.5 46.5 19.5 q27 0 46.5 -19.5 Z" /><glyph glyph-name="igrave" unicode="ì" d="M165 0 l-125 0 l0 447 l125 0 l0 -447 ZM163 553 l-61 -36 l-114 122 l90 42 l85 -128 Z" /><glyph glyph-name="iacute" unicode="í" d="M165 0 l-125 0 l0 447 l125 0 l0 -447 ZM223 639 l-115 -122 l-60 36 l85 128 l90 -42 Z" /><glyph glyph-name="icircumflex" unicode="î" d="M165 0 l-125 0 l0 447 l125 0 l0 -447 ZM231 572 l-54 -55 l-75 62 l-78 -62 l-49 62 l127 100 l129 -107 Z" /><glyph glyph-name="idieresis" unicode="ï" d="M165 0 l-125 0 l0 447 l125 0 l0 -447 ZM237.5 629.5 q19.5 -19.5 19.5 -46.5 q0 -27 -19.5 -46.5 q-19.5 -19.5 -46.5 -19.5 q-27 0 -46.5 19.5 q-19.5 19.5 -19.5 46.5 q0 27 19.5 46.5 q19.5 19.5 46.5 19.5 q27 0 46.5 -19.5 ZM60.5 629.5 q19.5 -19.5 19.5 -46.5 q0 -27 -19.5 -46.5 q-19.5 -19.5 -46.5 -19.5 q-27 0 -46.5 19.5 q-19.5 19.5 -19.5 46.5 q0 27 19.5 46.5 q19.5 19.5 46.5 19.5 q27 0 46.5 -19.5 Z" /><glyph glyph-name="eth" unicode="ð" d="M324 673 l-77 -54 q119 -146 119 -396 q0 -44 -8 -82.5 q-8 -38.5 -26 -73.5 q-18 -35 -51.5 -55.5 q-33.5 -20.5 -80.5 -20.5 q-48 0 -83 20 q-35 20 -54 54 q-19 34 -27.5 73.5 q-8.5 39.5 -8.5 84.5 q0 98 37 161 q20 32 54.5 52 q34.5 20 71.5 20 q2 0 7 -0.5 q5 -0.5 8 -0.5 q-14 63 -40 103 l-84 -58 l-46 68 l75 56 q-33 29 -73 50 l58 66 q62 -32 93 -62 l88 63 l48 -68 ZM239 223 q0 13 -1 29 q-1 16 -5 39 q-4 23 -13 37.5 q-9 14.5 -22 14.5 q-44 0 -44 -120 q0 -120 44 -120 q24 0 32.5 41 q8.5 41 8.5 79 Z" /><glyph glyph-name="ntilde" unicode="ñ" d="M354 0 l-125 0 l0 274 q0 56 -30 56 q-13 0 -20.5 -6.5 q-7.5 -6.5 -10 -21 q-2.5 -14.5 -3 -21 q-0.5 -6.5 -0.5 -22.5 l0 -259 l-125 0 l0 447 l125 0 l0 -70 q40 78 106 78 q27 0 45 -11.5 q18 -11.5 25.5 -33 q7.5 -21.5 10 -40.5 q2.5 -19 2.5 -47 l0 -323 ZM280 639 l66 -4 q-4 -24 -8.5 -40.5 q-4.5 -16.5 -13.5 -36.5 q-9 -20 -25.5 -30.5 q-16.5 -10.5 -39.5 -10.5 q-21 0 -57 15.5 q-36 15.5 -51 15.5 q-23 0 -28 -28 l-65 0 q4 35 9.5 56.5 q5.5 21.5 24.5 41.5 q19 20 51 20 q22 0 55 -17 q33 -17 50 -17 q10 0 16 3.5 q6 3.5 8 6.5 q2 3 4.5 13 q2.5 10 3.5 12 Z" /><glyph glyph-name="ograve" unicode="ò" d="M357 306.5 q8 -38.5 8 -83.5 q0 -45 -8 -83.5 q-8 -38.5 -26 -73.5 q-18 -35 -52.5 -55 q-34.5 -20 -81.5 -20 q-46 0 -80.5 20.5 q-34.5 20.5 -53 55.5 q-18.5 35 -27.5 74 q-9 39 -9 82 q0 43 9 82 q9 39 27.5 74 q18.5 35 53 55.5 q34.5 20.5 80.5 20.5 q48 0 82 -20 q34 -20 52 -55 q18 -35 26 -73.5 ZM197 103 q42 0 42 120 q0 120 -42 120 q-44 0 -44 -120 q0 -120 44 -120 ZM268 553 l-61 -36 l-114 122 l90 42 l85 -128 Z" /><glyph glyph-name="oacute" unicode="ó" d="M357 306.5 q8 -38.5 8 -83.5 q0 -45 -8 -83.5 q-8 -38.5 -26 -73.5 q-18 -35 -52.5 -55 q-34.5 -20 -81.5 -20 q-46 0 -80.5 20.5 q-34.5 20.5 -53 55.5 q-18.5 35 -27.5 74 q-9 39 -9 82 q0 43 9 82 q9 39 27.5 74 q18.5 35 53 55.5 q34.5 20.5 80.5 20.5 q48 0 82 -20 q34 -20 52 -55 q18 -35 26 -73.5 ZM197 103 q42 0 42 120 q0 120 -42 120 q-44 0 -44 -120 q0 -120 44 -120 ZM318 639 l-115 -122 l-60 36 l85 128 l90 -42 Z" /><glyph glyph-name="ocircumflex" unicode="ô" d="M357 306.5 q8 -38.5 8 -83.5 q0 -45 -8 -83.5 q-8 -38.5 -26 -73.5 q-18 -35 -52.5 -55 q-34.5 -20 -81.5 -20 q-46 0 -80.5 20.5 q-34.5 20.5 -53 55.5 q-18.5 35 -27.5 74 q-9 39 -9 82 q0 43 9 82 q9 39 27.5 74 q18.5 35 53 55.5 q34.5 20.5 80.5 20.5 q48 0 82 -20 q34 -20 52 -55 q18 -35 26 -73.5 ZM197 103 q42 0 42 120 q0 120 -42 120 q-44 0 -44 -120 q0 -120 44 -120 ZM328 572 l-54 -55 l-75 62 l-78 -62 l-49 62 l127 100 l129 -107 Z" /><glyph glyph-name="otilde" unicode="õ" d="M357 306.5 q8 -38.5 8 -83.5 q0 -45 -8 -83.5 q-8 -38.5 -26 -73.5 q-18 -35 -52.5 -55 q-34.5 -20 -81.5 -20 q-46 0 -80.5 20.5 q-34.5 20.5 -53 55.5 q-18.5 35 -27.5 74 q-9 39 -9 82 q0 43 9 82 q9 39 27.5 74 q18.5 35 53 55.5 q34.5 20.5 80.5 20.5 q48 0 82 -20 q34 -20 52 -55 q18 -35 26 -73.5 ZM197 103 q42 0 42 120 q0 120 -42 120 q-44 0 -44 -120 q0 -120 44 -120 ZM274 639 l66 -4 q-4 -24 -8.5 -40.5 q-4.5 -16.5 -13.5 -36.5 q-9 -20 -25.5 -30.5 q-16.5 -10.5 -39.5 -10.5 q-21 0 -57 15.5 q-36 15.5 -51 15.5 q-23 0 -28 -28 l-65 0 q4 35 9.5 56.5 q5.5 21.5 24.5 41.5 q19 20 51 20 q22 0 55 -17 q33 -17 50 -17 q10 0 16 3.5 q6 3.5 8 6.5 q2 3 4.5 13 q2.5 10 3.5 12 Z" /><glyph glyph-name="odieresis" unicode="ö" d="M357 306.5 q8 -38.5 8 -83.5 q0 -45 -8 -83.5 q-8 -38.5 -26 -73.5 q-18 -35 -52.5 -55 q-34.5 -20 -81.5 -20 q-46 0 -80.5 20.5 q-34.5 20.5 -53 55.5 q-18.5 35 -27.5 74 q-9 39 -9 82 q0 43 9 82 q9 39 27.5 74 q18.5 35 53 55.5 q34.5 20.5 80.5 20.5 q48 0 82 -20 q34 -20 52 -55 q18 -35 26 -73.5 ZM197 103 q42 0 42 120 q0 120 -42 120 q-44 0 -44 -120 q0 -120 44 -120 ZM331.5 629.5 q19.5 -19.5 19.5 -46.5 q0 -27 -19.5 -46.5 q-19.5 -19.5 -46.5 -19.5 q-27 0 -46.5 19.5 q-19.5 19.5 -19.5 46.5 q0 27 19.5 46.5 q19.5 19.5 46.5 19.5 q27 0 46.5 -19.5 ZM154.5 629.5 q19.5 -19.5 19.5 -46.5 q0 -27 -19.5 -46.5 q-19.5 -19.5 -46.5 -19.5 q-27 0 -46.5 19.5 q-19.5 19.5 -19.5 46.5 q0 27 19.5 46.5 q19.5 19.5 46.5 19.5 q27 0 46.5 -19.5 Z" /><glyph glyph-name="divide" unicode="÷" d="M322 510 q0 -29 -21.5 -50.5 q-21.5 -21.5 -50.5 -21.5 q-30 0 -51 21 q-21 21 -21 51 q0 30 21 51 q21 21 51 21 q30 0 51 -21 q21 -21 21 -51 ZM467 282 l-434 0 l0 115 l434 0 l0 -115 ZM322 168 q0 -29 -21.5 -50.5 q-21.5 -21.5 -50.5 -21.5 q-30 0 -51 21 q-21 21 -21 51 q0 30 21 51 q21 21 51 21 q30 0 51 -21 q21 -21 21 -51 Z" /><glyph glyph-name="oslash" unicode="ø" d="M359 441 l-32 -51 q39 -71 39 -165 q0 -45 -8 -84 q-8 -39 -26.5 -74 q-18.5 -35 -53 -55.5 q-34.5 -20.5 -81.5 -20.5 q-50 0 -96 32 l-24 -39 l-46 30 l32 53 q-36 68 -36 159 q0 43 8.5 82.5 q8.5 39.5 27 74.5 q18.5 35 53 56 q34.5 21 80.5 21 q55 0 94 -29 l24 38 l45 -28 ZM239 223 q0 22 -2 45 q-2 23 -12.5 49.5 q-10.5 26.5 -28.5 26.5 q-43 0 -43 -119 q0 -122 45 -122 q13 0 22 14.5 q9 14.5 13 37 q4 22.5 5 38 q1 15.5 1 30.5 Z" /><glyph glyph-name="ugrave" unicode="ù" d="M353 447 l0 -302 q0 -52 -21 -85 q-21 -33 -58.5 -51 q-37.5 -18 -78.5 -18 q-41 0 -79 18.5 q-38 18.5 -58 51.5 q-18 30 -18 77 l0 309 l125 0 l0 -275 q0 -65 31 -65 q8 0 13.5 3 q5.5 3 9 9.5 q3.5 6.5 5.5 13 q2 6.5 2.5 16 q0.5 9.5 1 15.5 q0.5 6 0 15 q-0.5 9 -0.5 12 l0 256 l126 0 ZM258 553 l-61 -36 l-114 122 l90 42 l85 -128 Z" /><glyph glyph-name="uacute" unicode="ú" d="M353 447 l0 -302 q0 -52 -21 -85 q-21 -33 -58.5 -51 q-37.5 -18 -78.5 -18 q-41 0 -79 18.5 q-38 18.5 -58 51.5 q-18 30 -18 77 l0 309 l125 0 l0 -275 q0 -65 31 -65 q8 0 13.5 3 q5.5 3 9 9.5 q3.5 6.5 5.5 13 q2 6.5 2.5 16 q0.5 9.5 1 15.5 q0.5 6 0 15 q-0.5 9 -0.5 12 l0 256 l126 0 ZM313 639 l-115 -122 l-60 36 l85 128 l90 -42 Z" /><glyph glyph-name="ucircumflex" unicode="û" d="M353 447 l0 -302 q0 -52 -21 -85 q-21 -33 -58.5 -51 q-37.5 -18 -78.5 -18 q-41 0 -79 18.5 q-38 18.5 -58 51.5 q-18 30 -18 77 l0 309 l125 0 l0 -275 q0 -65 31 -65 q8 0 13.5 3 q5.5 3 9 9.5 q3.5 6.5 5.5 13 q2 6.5 2.5 16 q0.5 9.5 1 15.5 q0.5 6 0 15 q-0.5 9 -0.5 12 l0 256 l126 0 ZM325 572 l-54 -55 l-75 62 l-78 -62 l-49 62 l127 100 l129 -107 Z" /><glyph glyph-name="udieresis" unicode="ü" d="M353 447 l0 -302 q0 -52 -21 -85 q-21 -33 -58.5 -51 q-37.5 -18 -78.5 -18 q-41 0 -79 18.5 q-38 18.5 -58 51.5 q-18 30 -18 77 l0 309 l125 0 l0 -275 q0 -65 31 -65 q8 0 13.5 3 q5.5 3 9 9.5 q3.5 6.5 5.5 13 q2 6.5 2.5 16 q0.5 9.5 1 15.5 q0.5 6 0 15 q-0.5 9 -0.5 12 l0 256 l126 0 ZM331.5 629.5 q19.5 -19.5 19.5 -46.5 q0 -27 -19.5 -46.5 q-19.5 -19.5 -46.5 -19.5 q-27 0 -46.5 19.5 q-19.5 19.5 -19.5 46.5 q0 27 19.5 46.5 q19.5 19.5 46.5 19.5 q27 0 46.5 -19.5 ZM154.5 629.5 q19.5 -19.5 19.5 -46.5 q0 -27 -19.5 -46.5 q-19.5 -19.5 -46.5 -19.5 q-27 0 -46.5 19.5 q-19.5 19.5 -19.5 46.5 q0 27 19.5 46.5 q19.5 19.5 46.5 19.5 q27 0 46.5 -19.5 Z" /><glyph glyph-name="yacute" unicode="ý" d="M369 447 l-188 -653 l-123 0 l69 215 l-130 438 l125 0 l43 -163 q16 -59 20 -92 l59 255 l125 0 ZM311 639 l-115 -122 l-60 36 l85 128 l90 -42 Z" /><glyph glyph-name="thorn" unicode="þ" d="M165 729 l0 -337 q29 64 85 64 q37 0 62.5 -24.5 q25.5 -24.5 37 -64.5 q11.5 -40 15.5 -74 q4 -34 4 -69 q0 -33 -5 -68 q-5 -35 -17 -74.5 q-12 -39.5 -37.5 -65 q-25.5 -25.5 -60.5 -25.5 q-50 0 -84 60 l0 -257 l-125 0 l0 935 l125 0 ZM242 224 q0 120 -44 120 q-42 0 -42 -121 q0 -14 1.5 -30 q1.5 -16 5 -38.5 q3.5 -22.5 12.5 -37 q9 -14.5 23 -14.5 q44 0 44 121 Z" /><glyph glyph-name="ydieresis" unicode="ÿ" d="M369 447 l-188 -653 l-123 0 l69 215 l-130 438 l125 0 l43 -163 q16 -59 20 -92 l59 255 l125 0 ZM322.5 629.5 q19.5 -19.5 19.5 -46.5 q0 -27 -19.5 -46.5 q-19.5 -19.5 -46.5 -19.5 q-27 0 -46.5 19.5 q-19.5 19.5 -19.5 46.5 q0 27 19.5 46.5 q19.5 19.5 46.5 19.5 q27 0 46.5 -19.5 ZM145.5 629.5 q19.5 -19.5 19.5 -46.5 q0 -27 -19.5 -46.5 q-19.5 -19.5 -46.5 -19.5 q-27 0 -46.5 19.5 q-19.5 19.5 -19.5 46.5 q0 27 19.5 46.5 q19.5 19.5 46.5 19.5 q27 0 46.5 -19.5 Z" /><glyph glyph-name="Amacron" unicode="&#x100;" d="M457 0 l-140 0 l-25 112 l-133 0 l-24 -112 l-132 0 l156 667 l138 0 l160 -667 ZM179 215 l93 0 q-29 130 -38 192 q-8 55 -11 88 q-6 -94 -44 -280 ZM368 738 l-286 0 l0 80 l286 0 l0 -80 Z" /><glyph glyph-name="amacron" unicode="&#x101;" d="M356 0 l-125 0 l0 51 q-33 -60 -83 -60 q-36 0 -62 25 q-26 25 -37.5 64.5 q-11.5 39.5 -16.5 75 q-5 35.5 -5 69.5 q0 36 4.5 70 q4.5 34 16 73 q11.5 39 37 63 q25.5 24 62.5 24 q55 0 84 -63 l0 55 l125 0 l0 -447 ZM198 103 q42 0 42 120 q0 120 -43 120 q-44 0 -44 -120 q0 -120 45 -120 ZM348 531 l-286 0 l0 80 l286 0 l0 -80 Z" /><glyph glyph-name="Abreve" unicode="&#x102;" d="M457 0 l-140 0 l-25 112 l-133 0 l-24 -112 l-132 0 l156 667 l138 0 l160 -667 ZM179 215 l93 0 q-29 130 -38 192 q-8 55 -11 88 q-6 -94 -44 -280 ZM289 838 l66 0 q-4 -54 -38 -88 q-32 -32 -92 -32 q-60 0 -92 32 q-33 33 -38 88 l66 0 q3 -18 16 -29 q15 -13 48 -13 q33 0 48 13 q13 11 16 29 Z" /><glyph glyph-name="abreve" unicode="&#x103;" d="M356 0 l-125 0 l0 51 q-33 -60 -83 -60 q-36 0 -62 25 q-26 25 -37.5 64.5 q-11.5 39.5 -16.5 75 q-5 35.5 -5 69.5 q0 36 4.5 70 q4.5 34 16 73 q11.5 39 37 63 q25.5 24 62.5 24 q55 0 84 -63 l0 55 l125 0 l0 -447 ZM198 103 q42 0 42 120 q0 120 -43 120 q-44 0 -44 -120 q0 -120 45 -120 ZM262 637 l66 0 q-4 -54 -38 -88 q-32 -32 -92 -32 q-60 0 -92 32 q-33 33 -38 88 l66 0 q3 -18 16 -29 q15 -13 48 -13 q33 0 48 13 q13 11 16 29 Z" /><glyph glyph-name="Aogonek" unicode="&#x104;" d="M159 667 l138 0 l160 -667 l-77 0 q-10 -9 -24 -29 q-12 -20 -12 -34 q0 -14 9 -23 q9 -9 26 -9 q18 0 34 10 l-14 -75 q-20 -10 -48 -10 q-43 0 -66 22 q-22 22 -22 55 q0 32 17 56 q14 20 37 37 l-25 112 l-133 0 l-24 -112 l-132 0 l156 667 ZM179 215 l93 0 l-2 9 q-21 96 -25 120 q-19 120 -22 151 q-3 -53 -17 -137 q-4 -25 -25 -133 l-2 -10 Z" /><glyph glyph-name="aogonek" unicode="&#x105;" d="M231 447 l125 0 l0 -447 l-38 0 q-16 -18 -24 -30 q-12 -17 -12 -35 q0 -16 10 -25 q9 -9 26 -9 q17 0 33 10 l-14 -71 q-22 -10 -45 -10 q-41 0 -65 22 q-22 22 -22 56 q0 27 17 51 q16 22 38 41 l-29 0 l0 51 q-14 -26 -32 -41 q-22 -19 -50 -19 q-38 0 -66 29 q-56 60 -56 205 q0 148 55 203 q27 27 64 27 q31 0 55 -21 q17 -15 30 -42 l0 55 ZM153 225 q0 -86 24 -112 q9 -10 21 -10 q10 0 18 8 q24 25 24 112 q0 88 -26 113 q-7 7 -17 7 q-11 0 -20 -9 q-24 -24 -24 -109 Z" /><glyph glyph-name="Cacute" unicode="&#x106;" d="M376 152 l0 -138 q-38 -21 -91 -21 q-98 0 -158 60 q-90 90 -90 270 q0 187 96 284 q67 67 160 67 q42 0 83 -19 l0 -136 q-32 29 -73 29 q-43 0 -73 -30 q-55 -55 -55 -191 q0 -123 47 -175 q28 -32 75 -32 q44 0 79 32 ZM408 846 l-115 -122 l-60 36 l85 128 l90 -42 Z" /><glyph glyph-name="cacute" unicode="&#x107;" d="M261 121 l0 -114 q-36 -16 -71 -16 q-43 0 -76 21 q-33 21 -51 55 q-18 34 -27 72.5 q-9 38.5 -9 78.5 q0 60 14.5 111 q14.5 51 55 89 q40.5 38 101.5 38 q31 0 63 -13 l0 -110 q-15 15 -35 15 q-28 0 -45.5 -22 q-17.5 -22 -22.5 -46.5 q-5 -24.5 -5 -52.5 q0 -119 71 -119 q19 0 37 13 ZM308 639 l-115 -122 l-60 36 l85 128 l90 -42 Z" /><glyph glyph-name="Ccircumflex" unicode="&#x108;" d="M376 152 l0 -138 q-38 -21 -91 -21 q-98 0 -158 60 q-90 90 -90 270 q0 187 96 284 q67 67 160 67 q42 0 83 -19 l0 -136 q-32 29 -73 29 q-43 0 -73 -30 q-55 -55 -55 -191 q0 -123 47 -175 q28 -32 75 -32 q44 0 79 32 ZM448 779 l-54 -55 l-75 62 l-78 -62 l-49 62 l127 100 l129 -107 Z" /><glyph glyph-name="ccircumflex" unicode="&#x109;" d="M261 121 l0 -114 q-36 -16 -71 -16 q-43 0 -76 21 q-33 21 -51 55 q-18 34 -27 72.5 q-9 38.5 -9 78.5 q0 60 14.5 111 q14.5 51 55 89 q40.5 38 101.5 38 q31 0 63 -13 l0 -110 q-15 15 -35 15 q-28 0 -45.5 -22 q-17.5 -22 -22.5 -46.5 q-5 -24.5 -5 -52.5 q0 -119 71 -119 q19 0 37 13 ZM328 572 l-54 -55 l-75 62 l-78 -62 l-49 62 l127 100 l129 -107 Z" /><glyph glyph-name="Cdotaccent" unicode="&#x10a;" d="M376 152 l0 -138 q-38 -21 -91 -21 q-98 0 -158 60 q-90 90 -90 270 q0 187 96 284 q67 67 160 67 q42 0 83 -19 l0 -136 q-32 29 -73 29 q-43 0 -73 -30 q-55 -55 -55 -191 q0 -123 47 -175 q28 -32 75 -32 q44 0 79 32 ZM360 790 q0 -27 -20 -46.5 q-20 -19.5 -47 -19.5 q-27 0 -46.5 19.5 q-19.5 19.5 -19.5 46.5 q0 28 19 47.5 q19 19.5 47 19.5 q28 0 47.5 -19.5 q19.5 -19.5 19.5 -47.5 Z" /><glyph glyph-name="cdotaccent" unicode="&#x10b;" d="M261 121 l0 -114 q-36 -16 -71 -16 q-43 0 -76 21 q-33 21 -51 55 q-18 34 -27 72.5 q-9 38.5 -9 78.5 q0 60 14.5 111 q14.5 51 55 89 q40.5 38 101.5 38 q31 0 63 -13 l0 -110 q-15 15 -35 15 q-28 0 -45.5 -22 q-17.5 -22 -22.5 -46.5 q-5 -24.5 -5 -52.5 q0 -119 71 -119 q19 0 37 13 ZM265 583 q0 -27 -20 -46.5 q-20 -19.5 -47 -19.5 q-27 0 -46.5 19.5 q-19.5 19.5 -19.5 46.5 q0 28 19 47.5 q19 19.5 47 19.5 q28 0 47.5 -19.5 q19.5 -19.5 19.5 -47.5 Z" /><glyph glyph-name="Ccaron" unicode="&#x10c;" d="M376 152 l0 -138 q-38 -21 -91 -21 q-98 0 -158 60 q-90 90 -90 270 q0 187 96 284 q67 67 160 67 q42 0 83 -19 l0 -136 q-32 29 -73 29 q-43 0 -73 -30 q-55 -55 -55 -191 q0 -123 47 -175 q28 -32 75 -32 q44 0 79 32 ZM448 824 l-127 -100 l-129 107 l55 55 l74 -62 l78 62 l49 -62 Z" /><glyph glyph-name="ccaron" unicode="&#x10d;" d="M261 121 l0 -114 q-36 -16 -71 -16 q-43 0 -76 21 q-33 21 -51 55 q-18 34 -27 72.5 q-9 38.5 -9 78.5 q0 60 14.5 111 q14.5 51 55 89 q40.5 38 101.5 38 q31 0 63 -13 l0 -110 q-15 15 -35 15 q-28 0 -45.5 -22 q-17.5 -22 -22.5 -46.5 q-5 -24.5 -5 -52.5 q0 -119 71 -119 q19 0 37 13 ZM328 617 l-127 -100 l-129 107 l55 55 l74 -62 l78 62 l49 -62 Z" /><glyph glyph-name="Dcaron" unicode="&#x10e;" d="M52 667 l111 0 q86 0 135 -23 q56 -25 92 -79.5 q36 -54.5 48.5 -111.5 q12.5 -57 12.5 -123 q0 -71 -14 -128 q-14 -57 -44.5 -104 q-30.5 -47 -84.5 -72.5 q-54 -25.5 -127 -25.5 l-129 0 l0 667 ZM184 122 l4 0 q37 0 64.5 20 q27.5 20 41 53.5 q13.5 33.5 19.5 67 q6 33.5 6 68.5 q0 140 -68 196 q-25 21 -67 23 l0 -428 ZM348 824 l-127 -100 l-129 107 l55 55 l74 -62 l78 62 l49 -62 Z" /><glyph glyph-name="dcaron" unicode="&#x10f;" d="M356 0 l-125 0 l0 51 q-33 -60 -83 -60 q-36 0 -62 25 q-26 25 -37.5 64.5 q-11.5 39.5 -16.5 75 q-5 35.5 -5 69.5 q0 36 4.5 70 q4.5 34 16 73 q11.5 39 37 63 q25.5 24 62.5 24 q55 0 84 -63 l0 337 l125 0 l0 -729 ZM198 103 q42 0 42 120 q0 120 -43 120 q-44 0 -44 -120 q0 -120 45 -120 ZM545 667 l-85 -204 l-70 0 l52 204 l103 0 Z" /><glyph glyph-name="Dcroat" unicode="&#x110;" d="M52 667 l111 0 q69 0 116 -15 q47 -15 88 -58 q85 -89 85 -264 q0 -96 -24.5 -167 q-24.5 -71 -87 -117 q-62.5 -46 -159.5 -46 l-129 0 l0 283 l-53 0 l0 107 l53 0 l0 277 ZM184 283 l0 -162 q53 1 84 35 q51 55 51 173 q0 127 -54 185 q-31 33 -81 36 l0 -160 l67 0 l0 -107 l-67 0 Z" /><glyph glyph-name="dcroat" unicode="&#x111;" d="M356 507 l0 -507 l-125 0 l0 51 q-33 -60 -83 -60 q-36 0 -62 24.5 q-26 24.5 -37.5 62.5 q-11.5 38 -16.5 69 q-5 31 -5 58 q0 36 4.5 70 q4.5 34 16 73 q11.5 39 37 63 q25.5 24 62.5 24 q55 0 84 -63 l0 135 l-108 0 l0 88 l108 0 l0 134 l125 0 l0 -134 l50 0 l0 -88 l-50 0 ZM240 204 q0 119 -43 119 q-44 0 -44 -121 q0 -8 1.5 -20 q1.5 -12 5 -32 q3.5 -20 13.5 -33.5 q10 -13.5 25 -13.5 q13 0 22.5 14 q9.5 14 13 34.5 q3.5 20.5 5 33 q1.5 12.5 1.5 19.5 Z" /><glyph glyph-name="Emacron" unicode="&#x112;" d="M319 0 l-267 0 l0 667 l265 0 l0 -124 l-133 0 l0 -144 l117 0 l0 -126 l-117 0 l0 -150 l135 0 l0 -123 ZM328 738 l-286 0 l0 80 l286 0 l0 -80 Z" /><glyph glyph-name="emacron" unicode="&#x113;" d="M233 154 l106 0 q-2 -80 -48 -128 q-35 -35 -97 -35 q-67 0 -107 40 q-61 61 -61 181 q0 137 65 202 q41 41 102 41 q58 0 96 -36 q58 -55 58 -174 q0 -21 -3 -44 l-198 0 q-1 -7 -1 -25 q0 -60 18 -79 q11 -12 26 -12 q15 0 25 8 q16 13 19 61 ZM148 278 l90 0 q0 56 -20 73 q-10 9 -23 9 q-16 0 -28 -12 q-19 -20 -19 -70 ZM330 531 l-286 0 l0 80 l286 0 l0 -80 Z" /><glyph glyph-name="Edotaccent" unicode="&#x116;" d="M319 0 l-267 0 l0 667 l265 0 l0 -124 l-133 0 l0 -144 l117 0 l0 -126 l-117 0 l0 -150 l135 0 l0 -123 ZM252 790 q0 -27 -20 -46.5 q-20 -19.5 -47 -19.5 q-27 0 -46.5 19.5 q-19.5 19.5 -19.5 46.5 q0 28 19 47.5 q19 19.5 47 19.5 q28 0 47.5 -19.5 q19.5 -19.5 19.5 -47.5 Z" /><glyph glyph-name="edotaccent" unicode="&#x117;" d="M233 154 l106 0 q-2 -80 -48 -128 q-35 -35 -97 -35 q-67 0 -107 40 q-61 61 -61 181 q0 137 65 202 q41 41 102 41 q58 0 96 -36 q58 -55 58 -174 q0 -21 -3 -44 l-198 0 q-1 -7 -1 -25 q0 -60 18 -79 q11 -12 26 -12 q15 0 25 8 q16 13 19 61 ZM148 278 l90 0 q0 56 -20 73 q-10 9 -23 9 q-16 0 -28 -12 q-19 -20 -19 -70 ZM254 583 q0 -27 -20 -46.5 q-20 -19.5 -47 -19.5 q-27 0 -46.5 19.5 q-19.5 19.5 -19.5 46.5 q0 28 19 47.5 q19 19.5 47 19.5 q28 0 47.5 -19.5 q19.5 -19.5 19.5 -47.5 Z" /><glyph glyph-name="Eogonek" unicode="&#x118;" d="M52 667 l265 0 l0 -124 l-133 0 l0 -144 l117 0 l0 -126 l-117 0 l0 -150 l135 0 l0 -123 l-33 0 q-10 -9 -24 -29 q-12 -20 -12 -34 q0 -14 9 -23 q9 -9 26 -9 q18 0 34 10 l-14 -75 q-20 -10 -48 -10 q-43 0 -66 22 q-22 22 -22 55 q0 32 17 56 q14 20 37 37 l-171 0 l0 667 Z" /><glyph glyph-name="eogonek" unicode="&#x119;" d="M233 138 l106 0 q-9 -66 -53 -118 q-9 -11 -22 -25 q-13 -14 -17 -20 q-16 -21 -16 -40 q0 -16 10 -25 q9 -9 24 -9 q21 0 35 10 l-14 -71 q-20 -10 -45 -10 q-39 0 -65 24 q-22 22 -22 52 q0 28 18 54 q12 18 31 31 q-76 0 -120 45 q-57 59 -57 177 q0 136 65 201 q41 41 103 41 q58 0 95 -36 q58 -58 58 -177 q0 -28 -3 -52 l-198 0 l0 -9 q0 -65 23 -87 q11 -9 25 -9 q16 0 25 9 q14 13 14 37 l0 7 ZM148 267 l90 0 q0 62 -18 81 q-12 12 -27 12 q-15 0 -25 -10 q-20 -19 -20 -71 l0 -12 Z" /><glyph glyph-name="Ecaron" unicode="&#x11a;" d="M319 0 l-267 0 l0 667 l265 0 l0 -124 l-133 0 l0 -144 l117 0 l0 -126 l-117 0 l0 -150 l135 0 l0 -123 ZM318 824 l-127 -100 l-129 107 l55 55 l74 -62 l78 62 l49 -62 Z" /><glyph glyph-name="ecaron" unicode="&#x11b;" d="M233 154 l106 0 q-2 -80 -48 -128 q-35 -35 -97 -35 q-67 0 -107 40 q-61 61 -61 181 q0 137 65 202 q41 41 102 41 q58 0 96 -36 q58 -55 58 -174 q0 -21 -3 -44 l-198 0 q-1 -7 -1 -25 q0 -60 18 -79 q11 -12 26 -12 q15 0 25 8 q16 13 19 61 ZM148 278 l90 0 q0 56 -20 73 q-10 9 -23 9 q-16 0 -28 -12 q-19 -20 -19 -70 ZM315 617 l-127 -100 l-129 107 l55 55 l74 -62 l78 62 l49 -62 Z" /><glyph glyph-name="Gcircumflex" unicode="&#x11c;" d="M273 371 l214 0 q1 -17 1 -51 q0 -86 -12 -141 q-18 -83 -70 -136.5 q-52 -53.5 -132 -53.5 q-64 0 -112.5 32 q-48.5 32 -74 84.5 q-25.5 52.5 -38 109 q-12.5 56.5 -12.5 116.5 q0 49 6.5 95 q6.5 46 23.5 92.5 q17 46.5 42.5 81 q25.5 34.5 68 56 q42.5 21.5 96.5 21.5 q74 0 124 -42.5 q50 -42.5 72 -115.5 l-128 -50 q-3 19 -6.5 31.5 q-3.5 12.5 -10.5 28.5 q-7 16 -19.5 24 q-12.5 8 -30.5 8 q-31 0 -52.5 -25.5 q-21.5 -25.5 -30 -66.5 q-8.5 -41 -11.5 -72 q-3 -31 -3 -64 q0 -224 98 -224 q78 0 81 144 l-84 0 l0 118 ZM403 779 l-54 -55 l-75 62 l-78 -62 l-49 62 l127 100 l129 -107 Z" /><glyph glyph-name="gcircumflex" unicode="&#x11d;" d="M361 447 l0 -475 q0 -54 -13 -85 q-20 -47 -63 -70 q-43 -23 -97 -23 q-144 0 -157 155 l110 0 q5 -54 46 -54 q48 0 48 95 l0 66 q-13 -21 -21.5 -32.5 q-8.5 -11.5 -25.5 -22 q-17 -10.5 -37 -10.5 q-36 0 -62 24 q-26 24 -39 62 q-13 38 -18.5 73.5 q-5.5 35.5 -5.5 68.5 q0 36 4.5 70.5 q4.5 34.5 16 75 q11.5 40.5 37 65.5 q25.5 25 62.5 25 q54 0 89 -62 l0 54 l126 0 ZM239 180 q2 23 2 44 q0 21 -2 44 q-2 23 -12.5 49 q-10.5 26 -28.5 26 q-45 0 -45 -119 q0 -119 45 -119 q18 0 28.5 26 q10.5 26 12.5 49 ZM333 572 l-54 -55 l-75 62 l-78 -62 l-49 62 l127 100 l129 -107 Z" /><glyph glyph-name="Gbreve" unicode="&#x11e;" d="M273 371 l214 0 q1 -17 1 -51 q0 -86 -12 -141 q-18 -83 -70 -136.5 q-52 -53.5 -132 -53.5 q-64 0 -112.5 32 q-48.5 32 -74 84.5 q-25.5 52.5 -38 109 q-12.5 56.5 -12.5 116.5 q0 49 6.5 95 q6.5 46 23.5 92.5 q17 46.5 42.5 81 q25.5 34.5 68 56 q42.5 21.5 96.5 21.5 q74 0 124 -42.5 q50 -42.5 72 -115.5 l-128 -50 q-3 19 -6.5 31.5 q-3.5 12.5 -10.5 28.5 q-7 16 -19.5 24 q-12.5 8 -30.5 8 q-31 0 -52.5 -25.5 q-21.5 -25.5 -30 -66.5 q-8.5 -41 -11.5 -72 q-3 -31 -3 -64 q0 -224 98 -224 q78 0 81 144 l-84 0 l0 118 ZM339 838 l66 0 q-4 -54 -38 -88 q-32 -32 -92 -32 q-60 0 -92 32 q-33 33 -38 88 l66 0 q3 -18 16 -29 q15 -13 48 -13 q33 0 48 13 q13 11 16 29 Z" /><glyph glyph-name="gbreve" unicode="&#x11f;" d="M361 447 l0 -475 q0 -54 -13 -85 q-20 -47 -63 -70 q-43 -23 -97 -23 q-144 0 -157 155 l110 0 q5 -54 46 -54 q48 0 48 95 l0 66 q-13 -21 -21.5 -32.5 q-8.5 -11.5 -25.5 -22 q-17 -10.5 -37 -10.5 q-36 0 -62 24 q-26 24 -39 62 q-13 38 -18.5 73.5 q-5.5 35.5 -5.5 68.5 q0 36 4.5 70.5 q4.5 34.5 16 75 q11.5 40.5 37 65.5 q25.5 25 62.5 25 q54 0 89 -62 l0 54 l126 0 ZM239 180 q2 23 2 44 q0 21 -2 44 q-2 23 -12.5 49 q-10.5 26 -28.5 26 q-45 0 -45 -119 q0 -119 45 -119 q18 0 28.5 26 q10.5 26 12.5 49 ZM265 637 l66 0 q-4 -54 -38 -88 q-32 -32 -92 -32 q-60 0 -92 32 q-33 33 -38 88 l66 0 q3 -18 16 -29 q15 -13 48 -13 q33 0 48 13 q13 11 16 29 Z" /><glyph glyph-name="Gdotaccent" unicode="&#x120;" d="M273 371 l214 0 q1 -17 1 -51 q0 -86 -12 -141 q-18 -83 -70 -136.5 q-52 -53.5 -132 -53.5 q-64 0 -112.5 32 q-48.5 32 -74 84.5 q-25.5 52.5 -38 109 q-12.5 56.5 -12.5 116.5 q0 49 6.5 95 q6.5 46 23.5 92.5 q17 46.5 42.5 81 q25.5 34.5 68 56 q42.5 21.5 96.5 21.5 q74 0 124 -42.5 q50 -42.5 72 -115.5 l-128 -50 q-3 19 -6.5 31.5 q-3.5 12.5 -10.5 28.5 q-7 16 -19.5 24 q-12.5 8 -30.5 8 q-31 0 -52.5 -25.5 q-21.5 -25.5 -30 -66.5 q-8.5 -41 -11.5 -72 q-3 -31 -3 -64 q0 -224 98 -224 q78 0 81 144 l-84 0 l0 118 ZM341 790 q0 -27 -20 -46.5 q-20 -19.5 -47 -19.5 q-27 0 -46.5 19.5 q-19.5 19.5 -19.5 46.5 q0 28 19 47.5 q19 19.5 47 19.5 q28 0 47.5 -19.5 q19.5 -19.5 19.5 -47.5 Z" /><glyph glyph-name="gdotaccent" unicode="&#x121;" d="M361 447 l0 -475 q0 -54 -13 -85 q-20 -47 -63 -70 q-43 -23 -97 -23 q-144 0 -157 155 l110 0 q5 -54 46 -54 q48 0 48 95 l0 66 q-13 -21 -21.5 -32.5 q-8.5 -11.5 -25.5 -22 q-17 -10.5 -37 -10.5 q-36 0 -62 24 q-26 24 -39 62 q-13 38 -18.5 73.5 q-5.5 35.5 -5.5 68.5 q0 36 4.5 70.5 q4.5 34.5 16 75 q11.5 40.5 37 65.5 q25.5 25 62.5 25 q54 0 89 -62 l0 54 l126 0 ZM239 180 q2 23 2 44 q0 21 -2 44 q-2 23 -12.5 49 q-10.5 26 -28.5 26 q-45 0 -45 -119 q0 -119 45 -119 q18 0 28.5 26 q10.5 26 12.5 49 ZM261 583 q0 -27 -20 -46.5 q-20 -19.5 -47 -19.5 q-27 0 -46.5 19.5 q-19.5 19.5 -19.5 46.5 q0 28 19 47.5 q19 19.5 47 19.5 q28 0 47.5 -19.5 q19.5 -19.5 19.5 -47.5 Z" /><glyph glyph-name="Gcommaaccent" unicode="&#x122;" d="M273 371 l214 0 q1 -17 1 -51 q0 -86 -12 -141 q-18 -83 -70 -136.5 q-52 -53.5 -132 -53.5 q-64 0 -112.5 32 q-48.5 32 -74 84.5 q-25.5 52.5 -38 109 q-12.5 56.5 -12.5 116.5 q0 49 6.5 95 q6.5 46 23.5 92.5 q17 46.5 42.5 81 q25.5 34.5 68 56 q42.5 21.5 96.5 21.5 q74 0 124 -42.5 q50 -42.5 72 -115.5 l-128 -50 q-3 19 -6.5 31.5 q-3.5 12.5 -10.5 28.5 q-7 16 -19.5 24 q-12.5 8 -30.5 8 q-31 0 -52.5 -25.5 q-21.5 -25.5 -30 -66.5 q-8.5 -41 -11.5 -72 q-3 -31 -3 -64 q0 -224 98 -224 q78 0 81 144 l-84 0 l0 118 ZM333 -46 l-84 -168 l-70 0 l51 168 l103 0 Z" /><glyph glyph-name="gcommaaccent" unicode="&#x123;" d="M361 447 l0 -475 q0 -54 -13 -85 q-20 -47 -63 -70 q-43 -23 -97 -23 q-144 0 -157 155 l110 0 q5 -54 46 -54 q48 0 48 95 l0 66 q-13 -21 -21.5 -32.5 q-8.5 -11.5 -25.5 -22 q-17 -10.5 -37 -10.5 q-36 0 -62 24 q-26 24 -39 62 q-13 38 -18.5 73.5 q-5.5 35.5 -5.5 68.5 q0 36 4.5 70.5 q4.5 34.5 16 75 q11.5 40.5 37 65.5 q25.5 25 62.5 25 q54 0 89 -62 l0 54 l126 0 ZM239 180 q2 23 2 44 q0 21 -2 44 q-2 23 -12.5 49 q-10.5 26 -28.5 26 q-45 0 -45 -119 q0 -119 45 -119 q18 0 28.5 26 q10.5 26 12.5 49 ZM123 495 l92 182 l70 0 l-59 -182 l-103 0 Z" /><glyph glyph-name="Hcircumflex" unicode="&#x124;" d="M449 0 l-132 0 l0 295 l-133 0 l0 -295 l-132 0 l0 667 l132 0 l0 -247 l133 0 l0 247 l132 0 l0 -667 ZM378 779 l-54 -55 l-75 62 l-78 -62 l-49 62 l127 100 l129 -107 Z" /><glyph glyph-name="hcircumflex" unicode="&#x125;" d="M354 0 l-125 0 l0 274 q0 56 -30 56 q-13 0 -20.5 -6.5 q-7.5 -6.5 -10 -21 q-2.5 -14.5 -3 -21 q-0.5 -6.5 -0.5 -22.5 l0 -259 l-125 0 l0 729 l125 0 l0 -352 q40 78 106 78 q27 0 45 -11.5 q18 -11.5 25.5 -33 q7.5 -21.5 10 -40.5 q2.5 -19 2.5 -47 l0 -323 ZM233 792 l-54 -55 l-75 62 l-78 -62 l-49 62 l127 100 l129 -107 Z" /><glyph glyph-name="Hbar" unicode="&#x126;" d="M449 0 l-132 0 l0 295 l-133 0 l0 -295 l-132 0 l0 517 l-50 0 l0 97 l50 0 l0 53 l132 0 l0 -53 l133 0 l0 53 l132 0 l0 -53 l50 0 l0 -97 l-50 0 l0 -517 ZM317 517 l-133 0 l0 -97 l133 0 l0 97 Z" /><glyph glyph-name="hbar" unicode="&#x127;" d="M379 0 l-125 0 l0 254 q0 56 -30 56 q-13 0 -20.5 -6.5 q-7.5 -6.5 -10 -21 q-2.5 -14.5 -3 -21 q-0.5 -6.5 -0.5 -22.5 l0 -239 l-125 0 l0 507 l-55 0 l0 88 l55 0 l0 134 l125 0 l0 -134 l108 0 l0 -88 l-108 0 l0 -150 q40 78 106 78 q27 0 45 -11.5 q18 -11.5 25.5 -33 q7.5 -21.5 10 -40.5 q2.5 -19 2.5 -47 l0 -303 Z" /><glyph glyph-name="Imacron" unicode="&#x12a;" d="M184 0 l-132 0 l0 667 l132 0 l0 -667 ZM261 738 l-286 0 l0 80 l286 0 l0 -80 Z" /><glyph glyph-name="imacron" unicode="&#x12b;" d="M165 0 l-125 0 l0 447 l125 0 l0 -447 ZM246 531 l-286 0 l0 80 l286 0 l0 -80 Z" /><glyph glyph-name="Iogonek" unicode="&#x12e;" d="M52 667 l132 0 l0 -667 q-10 -9 -24 -29 q-12 -20 -12 -34 q0 -14 9 -23 q9 -9 26 -9 q18 0 34 10 l-14 -75 q-20 -10 -48 -10 q-43 0 -66 22 q-22 22 -22 55 q0 32 17 56 q14 20 37 37 l-69 0 l0 667 Z" /><glyph glyph-name="iogonek" unicode="&#x12f;" d="M39 447 l125 0 l0 -447 q-19 -19 -27 -30 q-14 -19 -14 -37 q0 -13 8 -21 q9 -11 27 -11 q14 0 32 10 l-14 -71 q-20 -10 -46 -10 q-40 0 -63 23 q-21 21 -21 55 q0 26 20 54 q15 20 39 38 l-66 0 l0 447 ZM48.5 523.5 q-23.5 23.5 -23.5 55.5 q0 32 23.5 55.5 q23.5 23.5 55.5 23.5 q32 0 55.5 -23.5 q23.5 -23.5 23.5 -55.5 q0 -32 -23.5 -55.5 q-23.5 -23.5 -55.5 -23.5 q-32 0 -55.5 23.5 Z" /><glyph glyph-name="Idotaccent" unicode="&#x130;" d="M184 0 l-132 0 l0 667 l132 0 l0 -667 ZM185 790 q0 -27 -20 -46.5 q-20 -19.5 -47 -19.5 q-27 0 -46.5 19.5 q-19.5 19.5 -19.5 46.5 q0 28 19 47.5 q19 19.5 47 19.5 q28 0 47.5 -19.5 q19.5 -19.5 19.5 -47.5 Z" /><glyph glyph-name="dotlessi" unicode="&#x131;" d="M165 0 l-125 0 l0 447 l125 0 l0 -447 Z" /><glyph glyph-name="Jcircumflex" unicode="&#x134;" d="M258 667 l0 -469 q0 -68 -14 -109 q-16 -47 -56 -73.5 q-40 -26.5 -90 -26.5 q-59 0 -98 21 l0 132 q30 -37 70 -37 q20 0 32.5 8.5 q12.5 8.5 17 27 q4.5 18.5 5.5 30 q1 11.5 1 34.5 l0 462 l132 0 ZM318 779 l-54 -55 l-75 62 l-78 -62 l-49 62 l127 100 l129 -107 Z" /><glyph glyph-name="jcircumflex" unicode="&#x135;" d="M165 -215 l-125 0 l0 662 l125 0 l0 -662 ZM231 572 l-54 -55 l-75 62 l-78 -62 l-49 62 l127 100 l129 -107 Z" /><glyph glyph-name="Kcommaaccent" unicode="&#x136;" d="M445 0 l-138 0 l-123 339 l0 -339 l-132 0 l0 667 l132 0 l0 -298 l111 298 l135 0 l-123 -308 l138 -359 ZM303 -46 l-84 -168 l-70 0 l51 168 l103 0 Z" /><glyph glyph-name="kcommaaccent" unicode="&#x137;" d="M392 0 l-132 0 l-95 231 l0 -231 l-125 0 l0 729 l125 0 l0 -454 l74 172 l130 0 l-98 -187 l121 -260 ZM263 -46 l-92 -182 l-70 0 l59 182 l103 0 Z" /><glyph glyph-name="Lacute" unicode="&#x139;" d="M322 0 l-270 0 l0 667 l132 0 l0 -542 l138 0 l0 -125 ZM248 846 l-115 -122 l-60 36 l85 128 l90 -42 Z" /><glyph glyph-name="lacute" unicode="&#x13a;" d="M165 0 l-125 0 l0 729 l125 0 l0 -729 ZM223 869 l-115 -122 l-60 36 l85 128 l90 -42 Z" /><glyph glyph-name="Lcommaaccent" unicode="&#x13b;" d="M322 0 l-270 0 l0 667 l132 0 l0 -542 l138 0 l0 -125 ZM252 -46 l-84 -168 l-70 0 l51 168 l103 0 Z" /><glyph glyph-name="lcommaaccent" unicode="&#x13c;" d="M165 0 l-125 0 l0 729 l125 0 l0 -729 ZM158 -46 l-92 -182 l-70 0 l59 182 l103 0 Z" /><glyph glyph-name="Lcaron" unicode="&#x13d;" d="M322 0 l-270 0 l0 667 l132 0 l0 -542 l138 0 l0 -125 ZM388 667 l-85 -198 l-70 0 l51 198 l104 0 Z" /><glyph glyph-name="lcaron" unicode="&#x13e;" d="M165 0 l-125 0 l0 729 l125 0 l0 -729 ZM355 667 l-85 -204 l-70 0 l52 204 l103 0 Z" /><glyph glyph-name="Ldot" unicode="&#x13f;" d="M322 0 l-270 0 l0 667 l132 0 l0 -542 l138 0 l0 -125 ZM347 334 q0 -27 -20 -46.5 q-20 -19.5 -47 -19.5 q-27 0 -46.5 19.5 q-19.5 19.5 -19.5 46.5 q0 28 19 47.5 q19 19.5 47 19.5 q28 0 47.5 -19.5 q19.5 -19.5 19.5 -47.5 Z" /><glyph glyph-name="ldot" unicode="&#x140;" d="M165 0 l-125 0 l0 729 l125 0 l0 -729 ZM330 365 q0 -27 -20 -46.5 q-20 -19.5 -47 -19.5 q-27 0 -46.5 19.5 q-19.5 19.5 -19.5 46.5 q0 28 19 47.5 q19 19.5 47 19.5 q28 0 47.5 -19.5 q19.5 -19.5 19.5 -47.5 Z" /><glyph glyph-name="Lslash" unicode="&#x141;" d="M322 0 l-270 0 l0 202 l-52 -58 l0 112 l52 58 l0 353 l132 0 l0 -240 l118 131 l0 -112 l-118 -131 l0 -190 l138 0 l0 -125 Z" /><glyph glyph-name="lslash" unicode="&#x142;" d="M165 729 l0 -240 l48 49 l0 -100 l-48 -49 l0 -389 l-125 0 l0 277 l-49 -50 l0 100 l49 50 l0 352 l125 0 Z" /><glyph glyph-name="Nacute" unicode="&#x143;" d="M465 0 l-124 0 l-164 402 q7 -35 7 -76 l0 -326 l-132 0 l0 667 l125 0 l164 -403 q-10 50 -10 90 l0 313 l134 0 l0 -667 ZM378 846 l-115 -122 l-60 36 l85 128 l90 -42 Z" /><glyph glyph-name="nacute" unicode="&#x144;" d="M354 0 l-125 0 l0 274 q0 56 -30 56 q-13 0 -20.5 -6.5 q-7.5 -6.5 -10 -21 q-2.5 -14.5 -3 -21 q-0.5 -6.5 -0.5 -22.5 l0 -259 l-125 0 l0 447 l125 0 l0 -70 q40 78 106 78 q27 0 45 -11.5 q18 -11.5 25.5 -33 q7.5 -21.5 10 -40.5 q2.5 -19 2.5 -47 l0 -323 ZM318 639 l-115 -122 l-60 36 l85 128 l90 -42 Z" /><glyph glyph-name="Ncommaaccent" unicode="&#x145;" d="M465 0 l-124 0 l-164 402 q7 -35 7 -76 l0 -326 l-132 0 l0 667 l125 0 l164 -403 q-10 50 -10 90 l0 313 l134 0 l0 -667 ZM323 -46 l-84 -168 l-70 0 l51 168 l103 0 Z" /><glyph glyph-name="ncommaaccent" unicode="&#x146;" d="M354 0 l-125 0 l0 274 q0 56 -30 56 q-13 0 -20.5 -6.5 q-7.5 -6.5 -10 -21 q-2.5 -14.5 -3 -21 q-0.5 -6.5 -0.5 -22.5 l0 -259 l-125 0 l0 447 l125 0 l0 -70 q40 78 106 78 q27 0 45 -11.5 q18 -11.5 25.5 -33 q7.5 -21.5 10 -40.5 q2.5 -19 2.5 -47 l0 -323 ZM253 -46 l-92 -182 l-70 0 l59 182 l103 0 Z" /><glyph glyph-name="Ncaron" unicode="&#x147;" d="M465 0 l-124 0 l-164 402 q7 -35 7 -76 l0 -326 l-132 0 l0 667 l125 0 l164 -403 q-10 50 -10 90 l0 313 l134 0 l0 -667 ZM386 824 l-127 -100 l-129 107 l55 55 l74 -62 l78 62 l49 -62 Z" /><glyph glyph-name="ncaron" unicode="&#x148;" d="M354 0 l-125 0 l0 274 q0 56 -30 56 q-13 0 -20.5 -6.5 q-7.5 -6.5 -10 -21 q-2.5 -14.5 -3 -21 q-0.5 -6.5 -0.5 -22.5 l0 -259 l-125 0 l0 447 l125 0 l0 -70 q40 78 106 78 q27 0 45 -11.5 q18 -11.5 25.5 -33 q7.5 -21.5 10 -40.5 q2.5 -19 2.5 -47 l0 -323 ZM330 617 l-127 -100 l-129 107 l55 55 l74 -62 l78 62 l49 -62 Z" /><glyph glyph-name="Omacron" unicode="&#x14c;" d="M505 333 q0 -165 -60 -250 q-30 -42 -76.5 -68 q-46.5 -26 -97.5 -26 q-50 0 -96.5 26 q-46.5 26 -77.5 68 q-60 82 -60 250 q0 166 60 251 q29 42 76 67.5 q47 25.5 98 25.5 q51 0 97 -25.5 q46 -25.5 77 -67.5 q60 -82 60 -251 ZM362 274 q3 30 3 62 q0 32 -3 62 q-3 30 -11 69.5 q-8 39.5 -29 64 q-21 24.5 -51 24.5 q-30 0 -51 -24.5 q-21 -24.5 -29 -64 q-8 -39.5 -11 -69.5 q-3 -30 -3 -62 q0 -32 3 -62 q3 -30 11 -69.5 q8 -39.5 29 -64 q21 -24.5 51 -24.5 q30 0 51 24.5 q21 24.5 29 64 q8 39.5 11 69.5 ZM414 738 l-286 0 l0 80 l286 0 l0 -80 Z" /><glyph glyph-name="omacron" unicode="&#x14d;" d="M357 306.5 q8 -38.5 8 -83.5 q0 -45 -8 -83.5 q-8 -38.5 -26 -73.5 q-18 -35 -52.5 -55 q-34.5 -20 -81.5 -20 q-46 0 -80.5 20.5 q-34.5 20.5 -53 55.5 q-18.5 35 -27.5 74 q-9 39 -9 82 q0 43 9 82 q9 39 27.5 74 q18.5 35 53 55.5 q34.5 20.5 80.5 20.5 q48 0 82 -20 q34 -20 52 -55 q18 -35 26 -73.5 ZM197 103 q42 0 42 120 q0 120 -42 120 q-44 0 -44 -120 q0 -120 44 -120 ZM339 531 l-286 0 l0 80 l286 0 l0 -80 Z" /><glyph glyph-name="Obreve" unicode="&#x14e;" d="M505 333 q0 -165 -60 -250 q-30 -42 -76.5 -68 q-46.5 -26 -97.5 -26 q-50 0 -96.5 26 q-46.5 26 -77.5 68 q-60 82 -60 250 q0 166 60 251 q29 42 76 67.5 q47 25.5 98 25.5 q51 0 97 -25.5 q46 -25.5 77 -67.5 q60 -82 60 -251 ZM362 274 q3 30 3 62 q0 32 -3 62 q-3 30 -11 69.5 q-8 39.5 -29 64 q-21 24.5 -51 24.5 q-30 0 -51 -24.5 q-21 -24.5 -29 -64 q-8 -39.5 -11 -69.5 q-3 -30 -3 -62 q0 -32 3 -62 q3 -30 11 -69.5 q8 -39.5 29 -64 q21 -24.5 51 -24.5 q30 0 51 24.5 q21 24.5 29 64 q8 39.5 11 69.5 ZM335 838 l66 0 q-4 -54 -38 -88 q-32 -32 -92 -32 q-60 0 -92 32 q-33 33 -38 88 l66 0 q3 -18 16 -29 q15 -13 48 -13 q33 0 48 13 q13 11 16 29 Z" /><glyph glyph-name="obreve" unicode="&#x14f;" d="M357 306.5 q8 -38.5 8 -83.5 q0 -45 -8 -83.5 q-8 -38.5 -26 -73.5 q-18 -35 -52.5 -55 q-34.5 -20 -81.5 -20 q-46 0 -80.5 20.5 q-34.5 20.5 -53 55.5 q-18.5 35 -27.5 74 q-9 39 -9 82 q0 43 9 82 q9 39 27.5 74 q18.5 35 53 55.5 q34.5 20.5 80.5 20.5 q48 0 82 -20 q34 -20 52 -55 q18 -35 26 -73.5 ZM197 103 q42 0 42 120 q0 120 -42 120 q-44 0 -44 -120 q0 -120 44 -120 ZM260 637 l66 0 q-4 -54 -38 -88 q-32 -32 -92 -32 q-60 0 -92 32 q-33 33 -38 88 l66 0 q3 -18 16 -29 q15 -13 48 -13 q33 0 48 13 q13 11 16 29 Z" /><glyph glyph-name="Ohungarumlaut" unicode="&#x150;" d="M505 333 q0 -165 -60 -250 q-30 -42 -76.5 -68 q-46.5 -26 -97.5 -26 q-50 0 -96.5 26 q-46.5 26 -77.5 68 q-60 82 -60 250 q0 166 60 251 q29 42 76 67.5 q47 25.5 98 25.5 q51 0 97 -25.5 q46 -25.5 77 -67.5 q60 -82 60 -251 ZM362 274 q3 30 3 62 q0 32 -3 62 q-3 30 -11 69.5 q-8 39.5 -29 64 q-21 24.5 -51 24.5 q-30 0 -51 -24.5 q-21 -24.5 -29 -64 q-8 -39.5 -11 -69.5 q-3 -30 -3 -62 q0 -32 3 -62 q3 -30 11 -69.5 q8 -39.5 29 -64 q21 -24.5 51 -24.5 q30 0 51 24.5 q21 24.5 29 64 q8 39.5 11 69.5 ZM433 846 l-85 -122 l-57 36 l60 128 l82 -42 ZM296 846 l-86 -122 l-57 36 l60 128 l83 -42 Z" /><glyph glyph-name="ohungarumlaut" unicode="&#x151;" d="M357 306.5 q8 -38.5 8 -83.5 q0 -45 -8 -83.5 q-8 -38.5 -26 -73.5 q-18 -35 -52.5 -55 q-34.5 -20 -81.5 -20 q-46 0 -80.5 20.5 q-34.5 20.5 -53 55.5 q-18.5 35 -27.5 74 q-9 39 -9 82 q0 43 9 82 q9 39 27.5 74 q18.5 35 53 55.5 q34.5 20.5 80.5 20.5 q48 0 82 -20 q34 -20 52 -55 q18 -35 26 -73.5 ZM197 103 q42 0 42 120 q0 120 -42 120 q-44 0 -44 -120 q0 -120 44 -120 ZM359 639 l-85 -122 l-57 36 l60 128 l82 -42 ZM222 639 l-86 -122 l-57 36 l60 128 l83 -42 Z" /><glyph glyph-name="OE" unicode="&#x152;" d="M638 0 l-274 0 l0 52 q-46 -63 -118 -63 q-61 0 -104.5 33.5 q-43.5 33.5 -65 88 q-21.5 54.5 -30.5 108 q-9 53.5 -9 110.5 q0 58 9.5 113.5 q9.5 55.5 32 111 q22.5 55.5 67.5 89.5 q45 34 107 34 q70 0 111 -48 l0 38 l273 0 l0 -123 l-143 0 l0 -139 l128 0 l0 -128 l-128 0 l0 -152 l144 0 l0 -125 ZM364 335 q0 226 -92 226 q-31 0 -51.5 -25 q-20.5 -25 -29 -66 q-8.5 -41 -11 -71 q-2.5 -30 -2.5 -63 q0 -32 3 -62.5 q3 -30.5 11 -71 q8 -40.5 29 -65.5 q21 -25 51 -25 q92 0 92 223 Z" /><glyph glyph-name="oe" unicode="&#x153;" d="M444 139 l106 0 q-5 -69 -42.5 -108.5 q-37.5 -39.5 -105.5 -39.5 q-67 0 -116 49 q-38 -49 -98 -49 q-57 0 -95.5 36 q-38.5 36 -52.5 84 q-14 48 -14 104 q0 58 15.5 110 q15.5 52 55.5 91 q40 39 100 39 q56 0 98 -44 q45 44 103 44 q57 0 94.5 -32.5 q37.5 -32.5 51 -78 q13.5 -45.5 13.5 -101.5 q0 -18 -2 -54 l-200 0 l0 -10 q0 -93 49 -93 q20 0 30 16 q10 16 10 37 ZM444 266 l0 2 q0 89 -43 89 q-44 0 -44 -91 l87 0 ZM197 103 q42 0 42 120 q0 120 -42 120 q-44 0 -44 -119 q0 -121 44 -121 Z" /><glyph glyph-name="Racute" unicode="&#x154;" d="M440 0 l-139 0 l-117 307 l0 -307 l-132 0 l0 667 l143 0 q97 0 145 -32 q38 -25 58.5 -69 q20.5 -44 20.5 -93 q0 -112 -95 -170 l116 -303 ZM184 563 l0 -183 q7 -1 22 -1 q41 0 63 25.5 q22 25.5 22 67.5 q0 91 -82 91 l-25 0 ZM348 846 l-115 -122 l-60 36 l85 128 l90 -42 Z" /><glyph glyph-name="racute" unicode="&#x155;" d="M268 463 l0 -121 q-12 2 -18 2 q-52 0 -68.5 -26 q-16.5 -26 -16.5 -81 l0 -237 l-125 0 l0 447 l125 0 l0 -55 q23 33 45 49 q22 16 58 22 ZM278 639 l-115 -122 l-60 36 l85 128 l90 -42 Z" /><glyph glyph-name="Rcommaaccent" unicode="&#x156;" d="M440 0 l-139 0 l-117 307 l0 -307 l-132 0 l0 667 l143 0 q97 0 145 -32 q38 -25 58.5 -69 q20.5 -44 20.5 -93 q0 -112 -95 -170 l116 -303 ZM184 563 l0 -183 q7 -1 22 -1 q41 0 63 25.5 q22 25.5 22 67.5 q0 91 -82 91 l-25 0 ZM298 -46 l-84 -168 l-70 0 l51 168 l103 0 Z" /><glyph glyph-name="rcommaaccent" unicode="&#x157;" d="M268 463 l0 -121 q-12 2 -18 2 q-52 0 -68.5 -26 q-16.5 -26 -16.5 -81 l0 -237 l-125 0 l0 447 l125 0 l0 -55 q23 33 45 49 q22 16 58 22 ZM216 -46 l-92 -182 l-70 0 l59 182 l103 0 Z" /><glyph glyph-name="Rcaron" unicode="&#x158;" d="M440 0 l-139 0 l-117 307 l0 -307 l-132 0 l0 667 l143 0 q97 0 145 -32 q38 -25 58.5 -69 q20.5 -44 20.5 -93 q0 -112 -95 -170 l116 -303 ZM184 563 l0 -183 q7 -1 22 -1 q41 0 63 25.5 q22 25.5 22 67.5 q0 91 -82 91 l-25 0 ZM348 824 l-127 -100 l-129 107 l55 55 l74 -62 l78 62 l49 -62 Z" /><glyph glyph-name="rcaron" unicode="&#x159;" d="M268 463 l0 -121 q-12 2 -18 2 q-52 0 -68.5 -26 q-16.5 -26 -16.5 -81 l0 -237 l-125 0 l0 447 l125 0 l0 -55 q23 33 45 49 q22 16 58 22 ZM280 617 l-127 -100 l-129 107 l55 55 l74 -62 l78 62 l49 -62 Z" /><glyph glyph-name="Sacute" unicode="&#x15a;" d="M327 645 l0 -129 q-50 43 -95 43 q-29 0 -47.5 -18 q-18.5 -18 -18.5 -47 q0 -27 15 -49.5 q15 -22.5 37 -38 q22 -15.5 48 -35.5 q26 -20 48 -41 q22 -21 37 -56 q15 -35 15 -79 q0 -89 -51 -147.5 q-51 -58.5 -139 -58.5 q-65 0 -115 34 l0 126 q54 -36 98 -36 q34 0 56 20 q22 20 22 54 q0 19 -7 34 q-3 6 -8.5 12.5 q-5.5 6.5 -10.5 11 q-5 4.5 -13.5 11 q-8.5 6.5 -13 10 q-4.5 3.5 -14 9.5 q-9.5 6 -11.5 8 q-63 44 -93 86.5 q-30 42.5 -30 110.5 q0 83 46.5 140 q46.5 57 127.5 57 q60 0 117 -32 ZM338 846 l-115 -122 l-60 36 l85 128 l90 -42 Z" /><glyph glyph-name="sacute" unicode="&#x15b;" d="M299 417 l-50 -91 q-32 30 -59 30 q-14 0 -23 -9 q-9 -9 -9 -23 q0 -17 22 -32 q22 -15 48 -26.5 q26 -11.5 48 -42.5 q22 -31 22 -77 q0 -66 -38 -110.5 q-38 -44.5 -103 -44.5 q-70 0 -136 51 l55 89 q34 -28 61 -28 q17 0 28.5 10 q11.5 10 11.5 27 q0 18 -23 33.5 q-23 15.5 -50 28 q-27 12.5 -50 44 q-23 31.5 -23 77.5 q0 62 43 97 q43 35 106 35 q66 0 119 -38 ZM308 639 l-115 -122 l-60 36 l85 128 l90 -42 Z" /><glyph glyph-name="Scircumflex" unicode="&#x15c;" d="M327 645 l0 -129 q-50 43 -95 43 q-29 0 -47.5 -18 q-18.5 -18 -18.5 -47 q0 -27 15 -49.5 q15 -22.5 37 -38 q22 -15.5 48 -35.5 q26 -20 48 -41 q22 -21 37 -56 q15 -35 15 -79 q0 -89 -51 -147.5 q-51 -58.5 -139 -58.5 q-65 0 -115 34 l0 126 q54 -36 98 -36 q34 0 56 20 q22 20 22 54 q0 19 -7 34 q-3 6 -8.5 12.5 q-5.5 6.5 -10.5 11 q-5 4.5 -13.5 11 q-8.5 6.5 -13 10 q-4.5 3.5 -14 9.5 q-9.5 6 -11.5 8 q-63 44 -93 86.5 q-30 42.5 -30 110.5 q0 83 46.5 140 q46.5 57 127.5 57 q60 0 117 -32 ZM338 779 l-54 -55 l-75 62 l-78 -62 l-49 62 l127 100 l129 -107 Z" /><glyph glyph-name="scircumflex" unicode="&#x15d;" d="M299 417 l-50 -91 q-32 30 -59 30 q-14 0 -23 -9 q-9 -9 -9 -23 q0 -17 22 -32 q22 -15 48 -26.5 q26 -11.5 48 -42.5 q22 -31 22 -77 q0 -66 -38 -110.5 q-38 -44.5 -103 -44.5 q-70 0 -136 51 l55 89 q34 -28 61 -28 q17 0 28.5 10 q11.5 10 11.5 27 q0 18 -23 33.5 q-23 15.5 -50 28 q-27 12.5 -50 44 q-23 31.5 -23 77.5 q0 62 43 97 q43 35 106 35 q66 0 119 -38 ZM308 572 l-54 -55 l-75 62 l-78 -62 l-49 62 l127 100 l129 -107 Z" /><glyph glyph-name="Scedilla" unicode="&#x15e;" d="M327 645 l0 -129 q-50 43 -95 43 q-29 0 -47.5 -18 q-18.5 -18 -18.5 -47 q0 -27 15 -49.5 q15 -22.5 37 -38 q22 -15.5 48 -35.5 q26 -20 48 -41 q22 -21 37 -56 q15 -35 15 -79 q0 -89 -51 -147.5 q-51 -58.5 -139 -58.5 q-65 0 -115 34 l0 126 q54 -36 98 -36 q34 0 56 20 q22 20 22 54 q0 19 -7 34 q-3 6 -8.5 12.5 q-5.5 6.5 -10.5 11 q-5 4.5 -13.5 11 q-8.5 6.5 -13 10 q-4.5 3.5 -14 9.5 q-9.5 6 -11.5 8 q-63 44 -93 86.5 q-30 42.5 -30 110.5 q0 83 46.5 140 q46.5 57 127.5 57 q60 0 117 -32 ZM262 -80 l-100 -125 l-61 35 l76 128 l85 -38 Z" /><glyph glyph-name="scedilla" unicode="&#x15f;" d="M299 417 l-50 -91 q-32 30 -59 30 q-14 0 -23 -9 q-9 -9 -9 -23 q0 -17 22 -32 q22 -15 48 -26.5 q26 -11.5 48 -42.5 q22 -31 22 -77 q0 -66 -38 -110.5 q-38 -44.5 -103 -44.5 q-70 0 -136 51 l55 89 q34 -28 61 -28 q17 0 28.5 10 q11.5 10 11.5 27 q0 18 -23 33.5 q-23 15.5 -50 28 q-27 12.5 -50 44 q-23 31.5 -23 77.5 q0 62 43 97 q43 35 106 35 q66 0 119 -38 ZM234 -78 l-97 -123 l-59 33 l73 126 l83 -36 Z" /><glyph glyph-name="Scaron" unicode="&#x160;" d="M327 645 l0 -129 q-50 43 -95 43 q-29 0 -47.5 -18 q-18.5 -18 -18.5 -47 q0 -27 15 -49.5 q15 -22.5 37 -38 q22 -15.5 48 -35.5 q26 -20 48 -41 q22 -21 37 -56 q15 -35 15 -79 q0 -89 -51 -147.5 q-51 -58.5 -139 -58.5 q-65 0 -115 34 l0 126 q54 -36 98 -36 q34 0 56 20 q22 20 22 54 q0 19 -7 34 q-3 6 -8.5 12.5 q-5.5 6.5 -10.5 11 q-5 4.5 -13.5 11 q-8.5 6.5 -13 10 q-4.5 3.5 -14 9.5 q-9.5 6 -11.5 8 q-63 44 -93 86.5 q-30 42.5 -30 110.5 q0 83 46.5 140 q46.5 57 127.5 57 q60 0 117 -32 ZM338 824 l-127 -100 l-129 107 l55 55 l74 -62 l78 62 l49 -62 Z" /><glyph glyph-name="scaron" unicode="&#x161;" d="M299 417 l-50 -91 q-32 30 -59 30 q-14 0 -23 -9 q-9 -9 -9 -23 q0 -17 22 -32 q22 -15 48 -26.5 q26 -11.5 48 -42.5 q22 -31 22 -77 q0 -66 -38 -110.5 q-38 -44.5 -103 -44.5 q-70 0 -136 51 l55 89 q34 -28 61 -28 q17 0 28.5 10 q11.5 10 11.5 27 q0 18 -23 33.5 q-23 15.5 -50 28 q-27 12.5 -50 44 q-23 31.5 -23 77.5 q0 62 43 97 q43 35 106 35 q66 0 119 -38 ZM308 617 l-127 -100 l-129 107 l55 55 l74 -62 l78 62 l49 -62 Z" /><glyph glyph-name="Tcedilla" unicode="&#x162;" d="M338 545 l-103 0 l0 -545 l-132 0 l0 545 l-103 0 l0 122 l338 0 l0 -122 ZM246 -80 l-100 -125 l-61 35 l76 128 l85 -38 Z" /><glyph glyph-name="tcedilla" unicode="&#x163;" d="M228 343 l-51 0 l0 -343 l-125 0 l0 343 l-43 0 l0 104 l43 0 l0 127 l125 0 l0 -127 l51 0 l0 -104 ZM197 -78 l-97 -123 l-59 33 l73 126 l83 -36 Z" /><glyph glyph-name="Tcaron" unicode="&#x164;" d="M235 545 l103 0 l0 122 l-338 0 l0 -122 l103 0 l0 -545 l132 0 l0 545 ZM298 824 l-127 -100 l-129 107 l55 55 l74 -62 l78 62 l49 -62 Z" /><glyph glyph-name="tcaron" unicode="&#x165;" d="M228 343 l-51 0 l0 -343 l-125 0 l0 343 l-43 0 l0 104 l43 0 l0 127 l125 0 l0 -127 l51 0 l0 -104 ZM365 702 l-85 -204 l-70 0 l52 204 l103 0 Z" /><glyph glyph-name="Utilde" unicode="&#x168;" d="M447 667 l0 -497 q0 -65 -22 -102 q-47 -79 -177 -79 q-87 0 -141.5 43 q-54.5 43 -54.5 128 l0 507 l132 0 l0 -443 q0 -23 0.5 -32.5 q0.5 -9.5 3.5 -29 q3 -19.5 9.5 -28.5 q6.5 -9 19.5 -17 q13 -8 33 -8 q19 0 32.5 7.5 q13.5 7.5 19.5 15.5 q6 8 9 27 q3 19 3.5 28 q0.5 9 0.5 31 l0 449 l132 0 ZM327 846 l66 -4 q-4 -24 -8.5 -40.5 q-4.5 -16.5 -13.5 -36.5 q-9 -20 -25.5 -30.5 q-16.5 -10.5 -39.5 -10.5 q-21 0 -57 15.5 q-36 15.5 -51 15.5 q-23 0 -28 -28 l-65 0 q4 35 9.5 56.5 q5.5 21.5 24.5 41.5 q19 20 51 20 q22 0 55 -17 q33 -17 50 -17 q10 0 16 3.5 q6 3.5 8 6.5 q2 3 4.5 13 q2.5 10 3.5 12 Z" /><glyph glyph-name="utilde" unicode="&#x169;" d="M353 447 l0 -302 q0 -52 -21 -85 q-21 -33 -58.5 -51 q-37.5 -18 -78.5 -18 q-41 0 -79 18.5 q-38 18.5 -58 51.5 q-18 30 -18 77 l0 309 l125 0 l0 -275 q0 -65 31 -65 q8 0 13.5 3 q5.5 3 9 9.5 q3.5 6.5 5.5 13 q2 6.5 2.5 16 q0.5 9.5 1 15.5 q0.5 6 0 15 q-0.5 9 -0.5 12 l0 256 l126 0 ZM274 639 l66 -4 q-4 -24 -8.5 -40.5 q-4.5 -16.5 -13.5 -36.5 q-9 -20 -25.5 -30.5 q-16.5 -10.5 -39.5 -10.5 q-21 0 -57 15.5 q-36 15.5 -51 15.5 q-23 0 -28 -28 l-65 0 q4 35 9.5 56.5 q5.5 21.5 24.5 41.5 q19 20 51 20 q22 0 55 -17 q33 -17 50 -17 q10 0 16 3.5 q6 3.5 8 6.5 q2 3 4.5 13 q2.5 10 3.5 12 Z" /><glyph glyph-name="Umacron" unicode="&#x16a;" d="M447 667 l0 -497 q0 -65 -22 -102 q-47 -79 -177 -79 q-87 0 -141.5 43 q-54.5 43 -54.5 128 l0 507 l132 0 l0 -443 q0 -23 0.5 -32.5 q0.5 -9.5 3.5 -29 q3 -19.5 9.5 -28.5 q6.5 -9 19.5 -17 q13 -8 33 -8 q19 0 32.5 7.5 q13.5 7.5 19.5 15.5 q6 8 9 27 q3 19 3.5 28 q0.5 9 0.5 31 l0 449 l132 0 ZM388 738 l-286 0 l0 80 l286 0 l0 -80 Z" /><glyph glyph-name="umacron" unicode="&#x16b;" d="M353 447 l0 -302 q0 -52 -21 -85 q-21 -33 -58.5 -51 q-37.5 -18 -78.5 -18 q-41 0 -79 18.5 q-38 18.5 -58 51.5 q-18 30 -18 77 l0 309 l125 0 l0 -275 q0 -65 31 -65 q8 0 13.5 3 q5.5 3 9 9.5 q3.5 6.5 5.5 13 q2 6.5 2.5 16 q0.5 9.5 1 15.5 q0.5 6 0 15 q-0.5 9 -0.5 12 l0 256 l126 0 ZM340 531 l-286 0 l0 80 l286 0 l0 -80 Z" /><glyph glyph-name="Ubreve" unicode="&#x16c;" d="M447 667 l0 -497 q0 -65 -22 -102 q-47 -79 -177 -79 q-87 0 -141.5 43 q-54.5 43 -54.5 128 l0 507 l132 0 l0 -443 q0 -23 0.5 -32.5 q0.5 -9.5 3.5 -29 q3 -19.5 9.5 -28.5 q6.5 -9 19.5 -17 q13 -8 33 -8 q19 0 32.5 7.5 q13.5 7.5 19.5 15.5 q6 8 9 27 q3 19 3.5 28 q0.5 9 0.5 31 l0 449 l132 0 ZM314 838 l66 0 q-4 -54 -38 -88 q-32 -32 -92 -32 q-60 0 -92 32 q-33 33 -38 88 l66 0 q3 -18 16 -29 q15 -13 48 -13 q33 0 48 13 q13 11 16 29 Z" /><glyph glyph-name="ubreve" unicode="&#x16d;" d="M353 447 l0 -302 q0 -52 -21 -85 q-21 -33 -58.5 -51 q-37.5 -18 -78.5 -18 q-41 0 -79 18.5 q-38 18.5 -58 51.5 q-18 30 -18 77 l0 309 l125 0 l0 -275 q0 -65 31 -65 q8 0 13.5 3 q5.5 3 9 9.5 q3.5 6.5 5.5 13 q2 6.5 2.5 16 q0.5 9.5 1 15.5 q0.5 6 0 15 q-0.5 9 -0.5 12 l0 256 l126 0 ZM261 637 l66 0 q-4 -54 -38 -88 q-32 -32 -92 -32 q-60 0 -92 32 q-33 33 -38 88 l66 0 q3 -18 16 -29 q15 -13 48 -13 q33 0 48 13 q13 11 16 29 Z" /><glyph glyph-name="Uring" unicode="&#x16e;" d="M447 667 l0 -497 q0 -65 -22 -102 q-47 -79 -177 -79 q-87 0 -141.5 43 q-54.5 43 -54.5 128 l0 507 l132 0 l0 -443 q0 -23 0.5 -32.5 q0.5 -9.5 3.5 -29 q3 -19.5 9.5 -28.5 q6.5 -9 19.5 -17 q13 -8 33 -8 q19 0 32.5 7.5 q13.5 7.5 19.5 15.5 q6 8 9 27 q3 19 3.5 28 q0.5 9 0.5 31 l0 449 l132 0 ZM182 742 q-28 28 -28 68 q0 40 28 68 q28 28 68 28 q40 0 68 -28 q28 -28 28 -68 q0 -40 -28 -68 q-28 -28 -68 -28 q-40 0 -68 28 ZM220.5 839.5 q-11.5 -11.5 -11.5 -29.5 q0 -18 11.5 -29.5 q11.5 -11.5 29.5 -11.5 q18 0 29.5 11.5 q11.5 11.5 11.5 29.5 q0 18 -11.5 29.5 q-11.5 11.5 -29.5 11.5 q-18 0 -29.5 -11.5 Z" /><glyph glyph-name="uring" unicode="&#x16f;" d="M353 447 l0 -302 q0 -52 -21 -85 q-21 -33 -58.5 -51 q-37.5 -18 -78.5 -18 q-41 0 -79 18.5 q-38 18.5 -58 51.5 q-18 30 -18 77 l0 309 l125 0 l0 -275 q0 -65 31 -65 q8 0 13.5 3 q5.5 3 9 9.5 q3.5 6.5 5.5 13 q2 6.5 2.5 16 q0.5 9.5 1 15.5 q0.5 6 0 15 q-0.5 9 -0.5 12 l0 256 l126 0 ZM129 551 q-28 28 -28 68 q0 40 28 68 q28 28 68 28 q40 0 68 -28 q28 -28 28 -68 q0 -40 -28 -68 q-28 -28 -68 -28 q-40 0 -68 28 ZM167.5 648.5 q-11.5 -11.5 -11.5 -29.5 q0 -18 11.5 -29.5 q11.5 -11.5 29.5 -11.5 q18 0 29.5 11.5 q11.5 11.5 11.5 29.5 q0 18 -11.5 29.5 q-11.5 11.5 -29.5 11.5 q-18 0 -29.5 -11.5 Z" /><glyph glyph-name="Uhungarumlaut" unicode="&#x170;" d="M447 667 l0 -497 q0 -65 -22 -102 q-47 -79 -177 -79 q-87 0 -141.5 43 q-54.5 43 -54.5 128 l0 507 l132 0 l0 -443 q0 -23 0.5 -32.5 q0.5 -9.5 3.5 -29 q3 -19.5 9.5 -28.5 q6.5 -9 19.5 -17 q13 -8 33 -8 q19 0 32.5 7.5 q13.5 7.5 19.5 15.5 q6 8 9 27 q3 19 3.5 28 q0.5 9 0.5 31 l0 449 l132 0 ZM403 846 l-85 -122 l-57 36 l60 128 l82 -42 ZM266 846 l-86 -122 l-57 36 l60 128 l83 -42 Z" /><glyph glyph-name="uhungarumlaut" unicode="&#x171;" d="M353 447 l0 -302 q0 -52 -21 -85 q-21 -33 -58.5 -51 q-37.5 -18 -78.5 -18 q-41 0 -79 18.5 q-38 18.5 -58 51.5 q-18 30 -18 77 l0 309 l125 0 l0 -275 q0 -65 31 -65 q8 0 13.5 3 q5.5 3 9 9.5 q3.5 6.5 5.5 13 q2 6.5 2.5 16 q0.5 9.5 1 15.5 q0.5 6 0 15 q-0.5 9 -0.5 12 l0 256 l126 0 ZM353 639 l-85 -122 l-57 36 l60 128 l82 -42 ZM216 639 l-86 -122 l-57 36 l60 128 l83 -42 Z" /><glyph glyph-name="Uogonek" unicode="&#x172;" d="M447 667 l0 -487 q0 -90 -48 -138 q-15 -16 -54 -40 q-27 -17 -39 -31 q-12 -15 -12 -33 q0 -15 9 -24 q9 -9 26 -9 q18 0 34 10 l-14 -75 q-20 -10 -48 -10 q-43 0 -66 22 q-22 22 -22 55 q0 49 42 82 q-108 0 -161 55 q-42 44 -42 116 l0 507 l132 0 l0 -454 q0 -65 18 -85 q17 -19 48 -19 q33 0 48 19 q17 20 17 76 l0 463 l132 0 Z" /><glyph glyph-name="uogonek" unicode="&#x173;" d="M353 447 l0 -295 q0 -83 -39 -124 q-12 -12 -32 -28 q-20 -16 -24 -19 q-24 -22 -24 -49 q0 -12 10 -22 q9 -9 24 -9 q21 0 35 10 l-14 -71 q-20 -10 -45 -10 q-39 0 -65 24 q-22 22 -22 53 q0 27 18 53 q12 18 31 31 q-83 0 -129 46 q-37 37 -37 101 l0 309 l125 0 l0 -275 q0 -42 11 -55 q7 -10 20 -10 q12 0 18 6 q13 11 13 53 l0 281 l126 0 Z" /><glyph glyph-name="Ydieresis" unicode="&#x178;" d="M447 667 l-155 -382 l0 -285 l-132 0 l0 285 l-160 382 l145 0 l49 -145 q18 -54 30 -99 q9 37 29 100 l46 144 l148 0 ZM355.5 836.5 q19.5 -19.5 19.5 -46.5 q0 -27 -19.5 -46.5 q-19.5 -19.5 -46.5 -19.5 q-27 0 -46.5 19.5 q-19.5 19.5 -19.5 46.5 q0 27 19.5 46.5 q19.5 19.5 46.5 19.5 q27 0 46.5 -19.5 ZM185.5 836.5 q19.5 -19.5 19.5 -46.5 q0 -27 -19.5 -46.5 q-19.5 -19.5 -46.5 -19.5 q-27 0 -46.5 19.5 q-19.5 19.5 -19.5 46.5 q0 27 19.5 46.5 q19.5 19.5 46.5 19.5 q27 0 46.5 -19.5 Z" /><glyph glyph-name="Zacute" unicode="&#x179;" d="M438 667 l-228 -542 l209 0 l0 -125 l-401 0 l222 541 l-194 0 l0 126 l392 0 ZM356 846 l-115 -122 l-60 36 l85 128 l90 -42 Z" /><glyph glyph-name="zacute" unicode="&#x17a;" d="M327 447 l-138 -344 l124 0 l0 -103 l-300 0 l142 343 l-127 0 l0 104 l299 0 ZM299 639 l-115 -122 l-60 36 l85 128 l90 -42 Z" /><glyph glyph-name="Zdotaccent" unicode="&#x17b;" d="M438 667 l-228 -542 l209 0 l0 -125 l-401 0 l222 541 l-194 0 l0 126 l392 0 ZM308 790 q0 -27 -20 -46.5 q-20 -19.5 -47 -19.5 q-27 0 -46.5 19.5 q-19.5 19.5 -19.5 46.5 q0 28 19 47.5 q19 19.5 47 19.5 q28 0 47.5 -19.5 q19.5 -19.5 19.5 -47.5 Z" /><glyph glyph-name="zdotaccent" unicode="&#x17c;" d="M327 447 l-138 -344 l124 0 l0 -103 l-300 0 l142 343 l-127 0 l0 104 l299 0 ZM246 583 q0 -27 -20 -46.5 q-20 -19.5 -47 -19.5 q-27 0 -46.5 19.5 q-19.5 19.5 -19.5 46.5 q0 28 19 47.5 q19 19.5 47 19.5 q28 0 47.5 -19.5 q19.5 -19.5 19.5 -47.5 Z" /><glyph glyph-name="Zcaron" unicode="&#x17d;" d="M438 667 l-228 -542 l209 0 l0 -125 l-401 0 l222 541 l-194 0 l0 126 l392 0 ZM368 824 l-127 -100 l-129 107 l55 55 l74 -62 l78 62 l49 -62 Z" /><glyph glyph-name="zcaron" unicode="&#x17e;" d="M327 447 l-138 -344 l124 0 l0 -103 l-300 0 l142 343 l-127 0 l0 104 l299 0 ZM299 617 l-127 -100 l-129 107 l55 55 l74 -62 l78 62 l49 -62 Z" /><glyph glyph-name="uni018F" unicode="&#x18f;" d="M38 371 l308 0 q-1 48 -13 98 q-12 50 -36 72 q-21 20 -50 20 q-25 0 -42 -17 q-25 -24 -29 -75 l-128 50 q17 62 57 102 q55 56 144 56 q93 0 152 -59 q87 -87 87 -282 q0 -92 -24 -167 q-24 -75 -66 -119 q-58 -61 -147 -61 q-81 0 -134 55 q-80 83 -80 276 q0 31 1 51 ZM168 253 l0 -5 q0 -85 32 -118 q20 -21 49 -21 q30 0 49 19 q19 17 31.5 55 q12.5 38 13.5 70 l-175 0 Z" /><glyph glyph-name="florin" unicode="&#x192;" d="M422 728 l-23 -118 q-12 6 -25 6 q-7 0 -13 -2 q-6 -2 -10.5 -7 q-4.5 -5 -7.5 -9.5 q-3 -4.5 -5.5 -13 q-2.5 -8.5 -3.5 -12.5 q-1 -4 -2.5 -14 q-1.5 -10 -2.5 -13 l-19 -98 l70 0 l-13 -68 l-70 0 l-53 -262 q-2 -10 -8 -40.5 q-6 -30.5 -9 -44.5 q-3 -14 -10.5 -40.5 q-7.5 -26.5 -14.5 -40 q-7 -13.5 -20 -32.5 q-13 -19 -28 -28.5 q-15 -9.5 -36.5 -16.5 q-21.5 -7 -47.5 -7 q-25 0 -61 9 l23 118 q14 -7 27 -7 q7 0 12.5 2 q5.5 2 10 6.5 q4.5 4.5 7.5 8 q3 3.5 5.5 11.5 q2.5 8 4 11.5 q1.5 3.5 4 12.5 q2.5 9 2.5 11 q5 20 16 76 l50 253 l-66 0 l13 68 l66 0 q20 97 26 128 q16 89 46 121 q41 44 106 44 q28 0 60 -12 Z" /><glyph glyph-name="uni01CF" unicode="&#x1cf;" d="M184 0 l-132 0 l0 667 l132 0 l0 -667 ZM246 824 l-127 -100 l-129 107 l55 55 l74 -62 l78 62 l49 -62 Z" /><glyph glyph-name="uni01D0" unicode="&#x1d0;" d="M165 0 l-125 0 l0 447 l125 0 l0 -447 ZM230 617 l-127 -100 l-129 107 l55 55 l74 -62 l78 62 l49 -62 Z" /><glyph glyph-name="uni01DD" unicode="&#x1dd;" d="M135 308 l-102 20 q8 55 43 90 q37 37 102 37 q70 0 113 -43 q55 -55 55 -175 q0 -142 -65 -207 q-38 -39 -98 -39 q-63 0 -100 36 q-57 56 -57 178 q0 9 1 28.5 q1 19.5 1 22.5 l198 0 l0 4 q0 73 -23 92 q-10 9 -28 9 q-16 0 -26 -10 q-14 -16 -14 -43 ZM224 179 l-90 0 q-3 -19 1.5 -44 q4.5 -25 16.5 -37 q12 -12 27 -12 q15 0 25 10 q20 19 20 71 l0 12 Z" /><glyph glyph-name="Gcaron" unicode="&#x1e6;" d="M273 371 l214 0 q1 -17 1 -51 q0 -86 -12 -141 q-18 -83 -70 -136.5 q-52 -53.5 -132 -53.5 q-64 0 -112.5 32 q-48.5 32 -74 84.5 q-25.5 52.5 -38 109 q-12.5 56.5 -12.5 116.5 q0 49 6.5 95 q6.5 46 23.5 92.5 q17 46.5 42.5 81 q25.5 34.5 68 56 q42.5 21.5 96.5 21.5 q74 0 124 -42.5 q50 -42.5 72 -115.5 l-128 -50 q-3 19 -6.5 31.5 q-3.5 12.5 -10.5 28.5 q-7 16 -19.5 24 q-12.5 8 -30.5 8 q-31 0 -52.5 -25.5 q-21.5 -25.5 -30 -66.5 q-8.5 -41 -11.5 -72 q-3 -31 -3 -64 q0 -224 98 -224 q78 0 81 144 l-84 0 l0 118 ZM403 824 l-127 -100 l-129 107 l55 55 l74 -62 l78 62 l49 -62 Z" /><glyph glyph-name="gcaron" unicode="&#x1e7;" d="M361 447 l0 -475 q0 -54 -13 -85 q-20 -47 -63 -70 q-43 -23 -97 -23 q-144 0 -157 155 l110 0 q5 -54 46 -54 q48 0 48 95 l0 66 q-13 -21 -21.5 -32.5 q-8.5 -11.5 -25.5 -22 q-17 -10.5 -37 -10.5 q-36 0 -62 24 q-26 24 -39 62 q-13 38 -18.5 73.5 q-5.5 35.5 -5.5 68.5 q0 36 4.5 70.5 q4.5 34.5 16 75 q11.5 40.5 37 65.5 q25.5 25 62.5 25 q54 0 89 -62 l0 54 l126 0 ZM239 180 q2 23 2 44 q0 21 -2 44 q-2 23 -12.5 49 q-10.5 26 -28.5 26 q-45 0 -45 -119 q0 -119 45 -119 q18 0 28.5 26 q10.5 26 12.5 49 ZM327 617 l-127 -100 l-129 107 l55 55 l74 -62 l78 62 l49 -62 Z" /><glyph glyph-name="AEacute" unicode="&#x1fc;" d="M585 0 l-267 0 l-25 111 l-138 0 l-20 -111 l-132 0 l152 667 l272 0 l28 -124 l-132 0 l34 -138 l132 0 l30 -126 l-130 0 l38 -154 l127 0 l31 -125 ZM177 216 l94 0 q-5 23 -15.5 70 q-10.5 47 -15.5 71 q-12 52 -19 137 q-6 -86 -44 -278 ZM424 846 l-115 -122 l-60 36 l85 128 l90 -42 Z" /><glyph glyph-name="aeacute" unicode="&#x1fd;" d="M544 192 l-205 0 q3 -109 56 -109 q40 0 40 54 l102 0 q-2 -67 -38 -106.5 q-36 -39.5 -102 -39.5 q-68 0 -111 55 q-52 -55 -114 -55 q-64 0 -104.5 38 q-40.5 38 -40.5 102 q0 61 36.5 99 q36.5 38 96.5 38 q41 0 66 -16 l0 2 q0 25 -2 40 q-2 15 -9 30 q-7 15 -22 21.5 q-15 6.5 -40 6.5 q-38 0 -88 -23 l0 107 q60 20 101 20 q45 0 74 -14.5 q29 -14.5 50 -51.5 q38 65 110 65 q33 0 58 -12 q25 -12 39.5 -35 q14.5 -23 24.5 -46.5 q10 -23.5 14.5 -58.5 q4.5 -35 5.5 -56.5 q1 -21.5 2 -54.5 ZM340 269 l93 0 q0 95 -46 95 q-47 0 -47 -95 ZM220 98 q14 14 14 33 q0 19 -14 33 q-14 14 -33 14 q-19 0 -33 -14 q-14 -14 -14 -33 q0 -19 14 -33 q14 -14 33 -14 q19 0 33 14 ZM413 639 l-115 -122 l-60 36 l85 128 l90 -42 Z" /><glyph glyph-name="Scommaaccent" unicode="&#x218;" d="M327 645 l0 -129 q-50 43 -95 43 q-29 0 -47.5 -18 q-18.5 -18 -18.5 -47 q0 -27 15 -49.5 q15 -22.5 37 -38 q22 -15.5 48 -35.5 q26 -20 48 -41 q22 -21 37 -56 q15 -35 15 -79 q0 -89 -51 -147.5 q-51 -58.5 -139 -58.5 q-65 0 -115 34 l0 126 q54 -36 98 -36 q34 0 56 20 q22 20 22 54 q0 19 -7 34 q-3 6 -8.5 12.5 q-5.5 6.5 -10.5 11 q-5 4.5 -13.5 11 q-8.5 6.5 -13 10 q-4.5 3.5 -14 9.5 q-9.5 6 -11.5 8 q-63 44 -93 86.5 q-30 42.5 -30 110.5 q0 83 46.5 140 q46.5 57 127.5 57 q60 0 117 -32 ZM258 -46 l-84 -168 l-70 0 l51 168 l103 0 Z" /><glyph glyph-name="scommaaccent" unicode="&#x219;" d="M299 417 l-50 -91 q-32 30 -59 30 q-14 0 -23 -9 q-9 -9 -9 -23 q0 -17 22 -32 q22 -15 48 -26.5 q26 -11.5 48 -42.5 q22 -31 22 -77 q0 -66 -38 -110.5 q-38 -44.5 -103 -44.5 q-70 0 -136 51 l55 89 q34 -28 61 -28 q17 0 28.5 10 q11.5 10 11.5 27 q0 18 -23 33.5 q-23 15.5 -50 28 q-27 12.5 -50 44 q-23 31.5 -23 77.5 q0 62 43 97 q43 35 106 35 q66 0 119 -38 ZM218 -46 l-92 -182 l-70 0 l59 182 l103 0 Z" /><glyph glyph-name="Tcommaaccent" unicode="&#x21a;" d="M338 545 l-103 0 l0 -545 l-132 0 l0 545 l-103 0 l0 122 l338 0 l0 -122 ZM228 -46 l-84 -168 l-70 0 l51 168 l103 0 Z" /><glyph glyph-name="tcommaaccent" unicode="&#x21b;" d="M228 343 l-51 0 l0 -343 l-125 0 l0 343 l-43 0 l0 104 l43 0 l0 127 l125 0 l0 -127 l51 0 l0 -104 ZM168 -46 l-92 -182 l-70 0 l59 182 l103 0 Z" /><glyph glyph-name="uni0228" unicode="&#x228;" d="M319 0 l-267 0 l0 667 l265 0 l0 -124 l-133 0 l0 -144 l117 0 l0 -126 l-117 0 l0 -150 l135 0 l0 -123 ZM263 -80 l-100 -125 l-61 35 l76 128 l85 -38 Z" /><glyph glyph-name="uni0229" unicode="&#x229;" d="M233 154 l106 0 q-2 -80 -48 -128 q-35 -35 -97 -35 q-67 0 -107 40 q-61 61 -61 181 q0 137 65 202 q41 41 102 41 q58 0 96 -36 q58 -55 58 -174 q0 -21 -3 -44 l-198 0 q-1 -7 -1 -25 q0 -60 18 -79 q11 -12 26 -12 q15 0 25 8 q16 13 19 61 ZM148 278 l90 0 q0 56 -20 73 q-10 9 -23 9 q-16 0 -28 -12 q-19 -20 -19 -70 ZM263 -78 l-97 -123 l-59 33 l73 126 l83 -36 Z" /><glyph glyph-name="uni0237" unicode="&#x237;" d="M165 -215 l-125 0 l0 662 l125 0 l0 -662 Z" /><glyph glyph-name="uni0259" unicode="&#x259;" d="M135 308 l-102 20 q8 55 43 90 q37 37 102 37 q70 0 113 -43 q55 -55 55 -175 q0 -142 -65 -207 q-38 -39 -98 -39 q-63 0 -100 36 q-57 56 -57 178 q0 9 1 28.5 q1 19.5 1 22.5 l198 0 l0 4 q0 73 -23 92 q-10 9 -28 9 q-16 0 -26 -10 q-14 -16 -14 -43 ZM224 179 l-90 0 q-3 -19 1.5 -44 q4.5 -25 16.5 -37 q12 -12 27 -12 q15 0 25 10 q20 19 20 71 l0 12 Z" /><glyph glyph-name="afii57929" unicode="&#x2bc;" d="M195 667 l-85 -204 l-70 0 l52 204 l103 0 Z" /><glyph glyph-name="circumflex" unicode="&#x2c6;" d="M378 572 l-54 -55 l-75 62 l-78 -62 l-49 62 l127 100 l129 -107 Z" /><glyph glyph-name="caron" unicode="&#x2c7;" d="M378 617 l-127 -100 l-129 107 l55 55 l74 -62 l78 62 l49 -62 Z" /><glyph glyph-name="uni02C9" unicode="&#x2c9;" d="M393 531 l-286 0 l0 80 l286 0 l0 -80 Z" /><glyph glyph-name="breve" unicode="&#x2d8;" d="M314 637 l66 0 q-4 -54 -38 -88 q-32 -32 -92 -32 q-60 0 -92 32 q-33 33 -38 88 l66 0 q3 -18 16 -29 q15 -13 48 -13 q33 0 48 13 q13 11 16 29 Z" /><glyph glyph-name="dotaccent" unicode="&#x2d9;" d="M317 583 q0 -27 -20 -46.5 q-20 -19.5 -47 -19.5 q-27 0 -46.5 19.5 q-19.5 19.5 -19.5 46.5 q0 28 19 47.5 q19 19.5 47 19.5 q28 0 47.5 -19.5 q19.5 -19.5 19.5 -47.5 Z" /><glyph glyph-name="ring" unicode="&#x2da;" d="M182 551 q-28 28 -28 68 q0 40 28 68 q28 28 68 28 q40 0 68 -28 q28 -28 28 -68 q0 -40 -28 -68 q-28 -28 -68 -28 q-40 0 -68 28 ZM220.5 648.5 q-11.5 -11.5 -11.5 -29.5 q0 -18 11.5 -29.5 q11.5 -11.5 29.5 -11.5 q18 0 29.5 11.5 q11.5 11.5 11.5 29.5 q0 18 -11.5 29.5 q-11.5 11.5 -29.5 11.5 q-18 0 -29.5 -11.5 Z" /><glyph glyph-name="ogonek" unicode="&#x2db;" d="M324 -97 l-14 -71 q-19 -17 -46 -17 q-40 0 -66 26 q-22 21 -22 53 q0 31 18 60 q18 28 36 46 l59 0 q0 -1 -4 -6 q-4 -5 -9.5 -13.5 q-5.5 -8.5 -9.5 -15.5 q-13 -22 -13 -39 q0 -17 11 -28 q12 -12 29 -12 q17 0 31 17 Z" /><glyph glyph-name="tilde" unicode="&#x2dc;" d="M328 639 l66 -4 q-4 -24 -8.5 -40.5 q-4.5 -16.5 -13.5 -36.5 q-9 -20 -25.5 -30.5 q-16.5 -10.5 -39.5 -10.5 q-21 0 -57 15.5 q-36 15.5 -51 15.5 q-23 0 -28 -28 l-65 0 q4 35 9.5 56.5 q5.5 21.5 24.5 41.5 q19 20 51 20 q22 0 55 -17 q33 -17 50 -17 q10 0 16 3.5 q6 3.5 8 6.5 q2 3 4.5 13 q2.5 10 3.5 12 Z" /><glyph glyph-name="hungarumlaut" unicode="&#x2dd;" d="M423 639 l-85 -122 l-57 36 l60 128 l82 -42 ZM286 639 l-86 -122 l-57 36 l60 128 l83 -42 Z" /><glyph glyph-name="acutecomb" unicode="&#x301;" d="M-79 639 l-115 -122 l-60 36 l85 128 l90 -42 Z" /><glyph glyph-name="Delta" unicode="&#x394;&#x2206;" d="M649 0 l-632 0 l246 667 l136 0 l250 -667 ZM468 113 l-136 401 l-136 -401 l272 0 Z" /><glyph glyph-name="Omega" unicode="&#x3a9;&#x2126;" d="M638 0 l-269 0 l0 100 q139 76 139 252 q0 86 -46 152.5 q-46 66.5 -128 66.5 q-82 0 -128.5 -66.5 q-46.5 -66.5 -46.5 -152.5 q0 -177 139 -252 l0 -100 l-269 0 l0 112 l140 0 q-73 46 -107 107 q-34 61 -34 147 q0 135 85.5 226 q85.5 91 219.5 91 q134 0 219.5 -91 q85.5 -91 85.5 -226 q0 -87 -33 -147.5 q-33 -60.5 -106 -106.5 l139 0 l0 -112 Z" /><glyph glyph-name="pi" unicode="&#x3c0;" d="M622 335 l-75 0 l0 -335 l-125 0 l0 335 l-184 0 l0 -335 l-125 0 l0 335 l-76 0 l0 112 l585 0 l0 -112 Z" /><glyph glyph-name="afii10023" unicode="&#x401;" d="M325 0 l-267 0 l0 667 l265 0 l0 -124 l-133 0 l0 -144 l117 0 l0 -126 l-117 0 l0 -150 l135 0 l0 -123 ZM174 775 q0 -26 -18 -44 q-18 -18 -43 -18 q-25 0 -43 18 q-18 18 -18 44 q0 25 18 43 q18 18 43 18 q25 0 43 -18 q18 -18 18 -43 ZM329 775 q0 -26 -18 -44 q-18 -18 -43 -18 q-25 0 -43 18.5 q-18 18.5 -18 43.5 q0 25 18 43 q18 18 43 18 q25 0 43 -18 q18 -18 18 -43 Z" /><glyph glyph-name="afii10051" unicode="&#x402;" d="M404 544 l-154 0 l0 -147 q45 10 81 10 q89 0 138 -47 q56 -55 56 -167 q0 -109 -55 -162 q-42 -42 -107 -42 q-46 0 -88 22 l29 112 q14 -12 33 -12 q26 0 41 19 q15 20 15 60 q0 44 -20 69 q-21 26 -61 26 q-27 0 -62 -11 l0 -274 l-132 0 l0 545 l-103 0 l0 122 l389 0 l0 -123 Z" /><glyph glyph-name="afii10052" unicode="&#x403;" d="M318 544 l-134 0 l0 -544 l-132 0 l0 667 l266 0 l0 -123 ZM302 846 l-115 -122 l-60 36 l85 128 l90 -42 Z" /><glyph glyph-name="afii10053" unicode="&#x404;" d="M376 152 l0 -138 q-39 -21 -89 -21 q-99 0 -160 60 q-90 90 -90 270 q0 187 96 284 q67 67 160 67 q42 0 83 -19 l0 -136 q-33 29 -78 29 q-50 0 -81 -39 q-36 -45 -41 -110 l172 0 l0 -118 l-177 0 q0 -89 44 -132 q29 -29 77 -29 q50 0 84 32 Z" /><glyph glyph-name="afii10054" unicode="&#x405;" d="M327 645 l0 -129 q-50 43 -95 43 q-29 0 -47.5 -18 q-18.5 -18 -18.5 -47 q0 -27 15 -49.5 q15 -22.5 37 -38 q22 -15.5 48 -35.5 q26 -20 48 -41 q22 -21 37 -56 q15 -35 15 -79 q0 -89 -51 -147.5 q-51 -58.5 -139 -58.5 q-65 0 -115 34 l0 126 q54 -36 98 -36 q34 0 56 20 q22 20 22 54 q0 19 -7 34 q-3 6 -8.5 12.5 q-5.5 6.5 -10.5 11 q-5 4.5 -13.5 11 q-8.5 6.5 -13 10 q-4.5 3.5 -14 9.5 q-9.5 6 -11.5 8 q-63 44 -93 86.5 q-30 42.5 -30 110.5 q0 83 46.5 140 q46.5 57 127.5 57 q60 0 117 -32 Z" /><glyph glyph-name="afii10055" unicode="&#x406;" d="M184 0 l-132 0 l0 667 l132 0 l0 -667 Z" /><glyph glyph-name="afii10056" unicode="&#x407;" d="M184 0 l-132 0 l0 667 l132 0 l0 -667 ZM208.5 836.5 q13.5 -19.5 13.5 -46.5 q0 -27 -13.5 -46.5 q-13.5 -19.5 -32.5 -19.5 q-19 0 -32 19.5 q-13 19.5 -13 46.5 q0 27 13 46.5 q13 19.5 32 19.5 q19 0 32.5 -19.5 ZM92.5 836.5 q13.5 -19.5 13.5 -46.5 q0 -27 -13.5 -46.5 q-13.5 -19.5 -32.5 -19.5 q-19 0 -32.5 19.5 q-13.5 19.5 -13.5 46.5 q0 27 13.5 46.5 q13.5 19.5 32.5 19.5 q19 0 32.5 -19.5 Z" /><glyph glyph-name="afii10057" unicode="&#x408;" d="M258 667 l0 -469 q0 -68 -14 -109 q-16 -47 -56 -73.5 q-40 -26.5 -90 -26.5 q-59 0 -98 21 l0 132 q30 -37 70 -37 q20 0 32.5 8.5 q12.5 8.5 17 27 q4.5 18.5 5.5 30 q1 11.5 1 34.5 l0 462 l132 0 Z" /><glyph glyph-name="afii10058" unicode="&#x409;" d="M462 406 l7 0 q109 0 165 -54 q56 -54 56 -155 q0 -92 -53 -144 q-54 -53 -162 -53 l-143 0 l0 542 l-104 0 l0 -276 q0 -53 -2.5 -87 q-2.5 -34 -16 -79.5 q-13.5 -45.5 -39.5 -70.5 q-39 -38 -103 -38 q-30 0 -63 8 l0 134 q14 -14 36 -14 q24 0 38 14 q24 24 24 120 l0 414 l360 0 l0 -261 ZM462 292 l0 -178 l4 0 q49 0 71 21 q23 23 23 66 q0 46 -25 69 q-24 22 -66 22 l-7 0 Z" /><glyph glyph-name="afii10059" unicode="&#x40a;" d="M313 667 l132 0 l0 -261 l7 0 q109 0 165 -54 q56 -54 56 -155 q0 -92 -53 -144 q-54 -53 -162 -53 l-145 0 l0 292 l-129 0 l0 -292 l-132 0 l0 667 l132 0 l0 -261 l129 0 l0 261 ZM445 292 l0 -178 l4 0 q49 0 71 21 q23 23 23 66 q0 46 -25 69 q-24 22 -66 22 l-7 0 Z" /><glyph glyph-name="afii10060" unicode="&#x40b;" d="M118 0 l0 545 l-103 0 l0 122 l389 0 l0 -123 l-154 0 l0 -149 q41 11 86 11 q69 0 110 -29 q36 -25 47 -62.5 q11 -37.5 11 -91.5 l0 -223 l-132 0 l0 211 q0 39 -16 55 q-15 15 -51 15 q-31 0 -55 -9 l0 -272 l-132 0 Z" /><glyph glyph-name="afii10061" unicode="&#x40c;" d="M445 0 l-138 0 l-123 339 l0 -339 l-132 0 l0 667 l132 0 l0 -298 l111 298 l135 0 l-123 -308 l138 -359 ZM354 846 l-115 -122 l-60 36 l85 128 l90 -42 Z" /><glyph glyph-name="afii10062" unicode="&#x40e;" d="M8 667 l142 0 l52 -162 q19 -57 28 -115 q19 88 29 118 l50 159 l140 0 l-232 -667 l-132 0 l76 230 l-153 437 ZM294 852 l99 -32 q-14 -55 -58 -85 q-41 -27 -107 -27 q-66 0 -107 27 q-44 30 -58 85 l99 32 q6 -28 22 -41 q16 -14 44 -14 q28 0 44 14 q16 13 22 41 Z" /><glyph glyph-name="afii10145" unicode="&#x40f;" d="M52 667 l132 0 l0 -542 l125 0 l0 542 l132 0 l0 -667 l-134 0 l0 -130 l-120 0 l0 130 l-135 0 l0 667 Z" /><glyph glyph-name="afii10017" unicode="&#x410;" d="M457 0 l-140 0 l-25 112 l-133 0 l-24 -112 l-132 0 l156 667 l138 0 l160 -667 ZM179 215 l93 0 q-29 130 -38 192 q-8 55 -11 88 q-6 -94 -44 -280 Z" /><glyph glyph-name="afii10018" unicode="&#x411;" d="M52 667 l303 0 l0 -123 l-171 0 l0 -138 l3 0 q103 0 161 -56 q56 -55 56 -156 q0 -91 -52 -141 q-56 -53 -164 -53 l-136 0 l0 667 ZM184 292 l0 -178 l4 0 q39 0 62 20 q24 20 24 66 q0 45 -25 70 q-22 22 -62 22 l-3 0 Z" /><glyph glyph-name="afii10019" unicode="&#x412;" d="M52 667 l141 0 q92 0 140 -47 q55 -53 55 -144 q0 -58 -31 -95 q-23 -27 -53 -39 q46 -17 72 -59 q23 -39 23 -94 q0 -82 -50 -132 q-57 -57 -157 -57 l-140 0 l0 667 ZM184 558 l0 -165 q37 2 58 23 q21 21 21 62 q0 39 -21 60 q-20 20 -58 20 ZM184 291 l0 -177 q38 0 60 21 q25 23 25 65 q0 46 -26 70 q-24 21 -59 21 Z" /><glyph glyph-name="afii10020" unicode="&#x413;" d="M318 544 l-134 0 l0 -544 l-132 0 l0 667 l266 0 l0 -123 Z" /><glyph glyph-name="afii10021" unicode="&#x414;" d="M89 667 l360 0 l0 -542 l54 0 l0 -255 l-120 0 l0 130 l-257 0 l0 -130 l-120 0 l0 255 q34 12 53 39 q20 26 25 65.5 q5 39.5 5 109.5 l0 328 ZM217 542 l0 -189 q0 -118 -16 -165 q-13 -37 -44 -63 l160 0 l0 417 l-100 0 Z" /><glyph glyph-name="afii10022" unicode="&#x415;" d="M319 0 l-267 0 l0 667 l265 0 l0 -124 l-133 0 l0 -144 l117 0 l0 -126 l-117 0 l0 -150 l135 0 l0 -123 Z" /><glyph glyph-name="afii10024" unicode="&#x416;" d="M608 0 l-134 0 l-103 335 l0 -335 l-126 0 l0 335 l-103 -335 l-134 0 l120 362 l-121 305 l131 0 l107 -302 l0 302 l126 0 l0 -302 l107 302 l131 0 l-121 -305 l120 -362 Z" /><glyph glyph-name="afii10025" unicode="&#x417;" d="M47 496 l0 137 q58 44 132 44 q87 0 136 -51 q48 -49 48 -130 q0 -57 -23 -95 q-23 -38 -63 -52 q43 -12 71 -45 q35 -42 35 -106 q0 -99 -61 -158 q-53 -51 -143 -51 q-80 0 -134 42 l0 136 q22 -26 47 -39 q27 -15 59 -15 q41 0 63 22 q24 23 24 63 q0 40 -21 61 q-25 24 -82 24 l-18 0 l0 118 l14 0 q51 0 74 19 q24 19 24 60 q0 33 -22 55 q-23 20 -56 20 q-32 0 -60 -18 q-26 -17 -44 -41 Z" /><glyph glyph-name="afii10026" unicode="&#x418;" d="M47 0 l0 667 l130 0 l0 -290 q0 -59 -11 -120 l152 410 l122 0 l0 -667 l-130 0 l0 292 q0 60 9 123 l-150 -415 l-122 0 Z" /><glyph glyph-name="afii10027" unicode="&#x419;" d="M47 0 l0 667 l130 0 l0 -290 q0 -59 -11 -120 l152 410 l122 0 l0 -667 l-130 0 l0 292 q0 60 9 123 l-150 -415 l-122 0 ZM310 852 l99 -32 q-14 -55 -58 -85 q-41 -27 -107 -27 q-66 0 -107 27 q-44 30 -58 85 l99 32 q6 -28 22 -41 q16 -14 44 -14 q28 0 44 14 q16 13 22 41 Z" /><glyph glyph-name="afii10028" unicode="&#x41a;" d="M445 0 l-138 0 l-123 339 l0 -339 l-132 0 l0 667 l132 0 l0 -298 l111 298 l135 0 l-123 -308 l138 -359 Z" /><glyph glyph-name="afii10029" unicode="&#x41b;" d="M102 667 l362 0 l0 -667 l-132 0 l0 542 l-104 0 l0 -276 q0 -53 -2.5 -87 q-2.5 -34 -16 -79.5 q-13.5 -45.5 -39.5 -70.5 q-39 -38 -103 -38 q-30 0 -63 8 l0 134 q14 -14 36 -14 q24 0 38 14 q24 24 24 120 l0 414 Z" /><glyph glyph-name="afii10030" unicode="&#x41c;" d="M624 0 l-135 0 l-33 480 q-3 -60 -20 -154 l-59 -326 l-101 0 l-62 302 q-14 66 -17 100 l-8 78 l-21 -480 l-141 0 l58 667 l174 0 l65 -394 l53 394 l178 0 l69 -667 Z" /><glyph glyph-name="afii10031" unicode="&#x41d;" d="M449 0 l-132 0 l0 295 l-133 0 l0 -295 l-132 0 l0 667 l132 0 l0 -247 l133 0 l0 247 l132 0 l0 -667 Z" /><glyph glyph-name="afii10032" unicode="&#x41e;" d="M423 610 q82 -86 82 -277 q0 -191 -82 -277 q-63 -67 -152 -67 q-89 0 -152 67 q-82 86 -82 277 q0 191 82 277 q63 67 152 67 q89 0 152 -67 ZM319 534 q-21 22 -48 22 q-27 0 -48 -22 q-46 -46 -46 -198 q0 -152 46 -198 q21 -22 48 -22 q27 0 48 22 q46 46 46 198 q0 152 -46 198 Z" /><glyph glyph-name="afii10033" unicode="&#x41f;" d="M441 0 l-132 0 l0 542 l-125 0 l0 -542 l-132 0 l0 667 l389 0 l0 -667 Z" /><glyph glyph-name="afii10034" unicode="&#x420;" d="M52 667 l160 0 q73 0 112 -22 q44 -25 67.5 -73 q23.5 -48 23.5 -103 q0 -102 -64 -152.5 q-64 -50.5 -167 -42.5 l0 -274 l-132 0 l0 667 ZM184 385 l8 0 q47 0 69.5 19.5 q22.5 19.5 22.5 65.5 q0 90 -77 90 l-23 0 l0 -175 Z" /><glyph glyph-name="afii10035" unicode="&#x421;" d="M376 152 l0 -138 q-38 -21 -91 -21 q-98 0 -158 60 q-90 90 -90 270 q0 187 96 284 q67 67 160 67 q42 0 83 -19 l0 -136 q-32 29 -73 29 q-43 0 -73 -30 q-55 -55 -55 -191 q0 -123 47 -175 q28 -32 75 -32 q44 0 79 32 Z" /><glyph glyph-name="afii10036" unicode="&#x422;" d="M338 545 l-103 0 l0 -545 l-132 0 l0 545 l-103 0 l0 122 l338 0 l0 -122 Z" /><glyph glyph-name="afii10037" unicode="&#x423;" d="M8 667 l142 0 l52 -162 q19 -57 28 -115 q19 88 29 118 l50 159 l140 0 l-232 -667 l-132 0 l76 230 l-153 437 Z" /><glyph glyph-name="afii10038" unicode="&#x424;" d="M244 0 l0 78 q-84 4 -141 58 q-73 68 -73 216 q0 140 69 210 q59 59 145 64 l0 70 l132 0 l0 -70 q88 -6 146 -64 q68 -68 68 -210 q0 -148 -72 -216 q-8 -8 -21 -17.5 q-13 -9.5 -48 -23.5 q-35 -14 -73 -17 l0 -78 l-132 0 ZM366 508 l0 -312 q37 3 59 25 q35 35 35 131 q0 99 -37 134 q-24 22 -57 22 ZM254 196 l0 312 q-33 0 -57 -22 q-37 -35 -37 -134 q0 -96 35 -131 q22 -22 59 -25 Z" /><glyph glyph-name="afii10039" unicode="&#x425;" d="M443 0 l-153 0 q-6 16 -20.5 49.5 q-14.5 33.5 -22.5 53 q-8 19.5 -17 49 q-9 29.5 -13 54.5 q-12 -57 -69 -206 l-148 0 l141 344 l-141 323 l148 0 q4 -10 19 -44.5 q15 -34.5 22.5 -54 q7.5 -19.5 16.5 -48 q9 -28.5 11 -49.5 q5 24 14.5 52.5 q9.5 28.5 16.5 46 q7 17.5 22 51.5 q15 34 20 46 l142 0 l-142 -323 l153 -344 Z" /><glyph glyph-name="afii10040" unicode="&#x426;" d="M52 667 l132 0 l0 -542 l125 0 l0 542 l132 0 l0 -542 l69 0 l0 -255 l-120 0 l0 130 l-338 0 l0 667 Z" /><glyph glyph-name="afii10041" unicode="&#x427;" d="M299 0 l0 292 q-41 -11 -86 -11 q-69 0 -110 29 q-36 25 -47 62.5 q-11 37.5 -11 91.5 l0 203 l132 0 l0 -191 q0 -39 16 -55 q15 -15 51 -15 q31 0 55 9 l0 252 l132 0 l0 -667 l-132 0 Z" /><glyph glyph-name="afii10042" unicode="&#x428;" d="M52 667 l130 0 l0 -542 l115 0 l0 542 l130 0 l0 -542 l115 0 l0 542 l130 0 l0 -667 l-620 0 l0 667 Z" /><glyph glyph-name="afii10043" unicode="&#x429;" d="M52 667 l130 0 l0 -542 l115 0 l0 542 l130 0 l0 -542 l115 0 l0 542 l130 0 l0 -542 l75 0 l0 -255 l-120 0 l0 130 l-575 0 l0 667 Z" /><glyph glyph-name="afii10044" unicode="&#x42a;" d="M93 0 l0 545 l-83 0 l0 122 l215 0 l0 -261 l7 0 q109 0 165 -54 q56 -54 56 -155 q0 -92 -53 -144 q-54 -53 -162 -53 l-145 0 ZM225 292 l0 -178 l4 0 q49 0 71 21 q23 23 23 66 q0 46 -25 69 q-24 22 -66 22 l-7 0 Z" /><glyph glyph-name="afii10045" unicode="&#x42b;" d="M579 0 l-132 0 l0 667 l132 0 l0 -667 ZM52 667 l132 0 l0 -261 l4 0 q107 0 163 -55 q57 -55 57 -156 q0 -94 -50 -143 q-53 -52 -162 -52 l-144 0 l0 667 ZM184 292 l0 -178 l4 0 q51 0 72 20 q22 22 22 66 q0 45 -25 69 q-25 23 -70 23 l-3 0 Z" /><glyph glyph-name="afii10046" unicode="&#x42c;" d="M52 667 l132 0 l0 -261 l7 0 q109 0 165 -54 q56 -54 56 -155 q0 -92 -53 -144 q-54 -53 -162 -53 l-145 0 l0 667 ZM184 292 l0 -178 l4 0 q49 0 71 21 q23 23 23 66 q0 46 -25 69 q-24 22 -66 22 l-7 0 Z" /><glyph glyph-name="afii10047" unicode="&#x42d;" d="M45 14 l0 138 q36 -32 82 -32 q42 0 71 29 q20 20 33 58 q13 38 13 74 l-159 0 l0 118 l155 0 q-1 31 -12 66.5 q-11 35.5 -30 54.5 q-26 28 -71 28 q-46 0 -82 -29 l0 136 q45 19 100 19 q94 0 153 -59 q86 -85 86 -279 q0 -196 -86 -283 q-60 -60 -159 -60 q-56 0 -94 21 Z" /><glyph glyph-name="afii10048" unicode="&#x42e;" d="M714 334 q0 -195 -82 -281 q-61 -64 -150 -64 q-94 0 -153 59 q-72 74 -76 233 l-69 0 l0 -281 l-132 0 l0 667 l132 0 l0 -261 l71 0 q5 140 78 212 q59 59 147 59 q91 0 152 -66 q50 -53 66 -121.5 q16 -68.5 16 -155.5 ZM528 534 q-21 22 -48 22 q-27 0 -48 -22 q-46 -46 -46 -198 q0 -152 46 -198 q21 -22 48 -22 q27 0 48 22 q46 46 46 198 q0 152 -46 198 Z" /><glyph glyph-name="afii10049" unicode="&#x42f;" d="M33 0 l121 284 q-41 12 -68 41 q-44 46 -44 129 q0 105 55 160 q53 53 173 53 l143 0 l0 -667 l-132 0 l0 276 l-106 -276 l-142 0 ZM281 559 l-25 0 q-39 0 -59 -21 q-23 -25 -23 -73 q0 -47 25 -70 q23 -21 68 -21 l14 0 l0 185 Z" /><glyph glyph-name="afii10065" unicode="&#x430;" d="M356 0 l-125 0 l0 51 q-33 -60 -83 -60 q-36 0 -62 25 q-26 25 -37.5 64.5 q-11.5 39.5 -16.5 75 q-5 35.5 -5 69.5 q0 36 4.5 70 q4.5 34 16 73 q11.5 39 37 63 q25.5 24 62.5 24 q55 0 84 -63 l0 55 l125 0 l0 -447 ZM198 103 q42 0 42 120 q0 120 -43 120 q-44 0 -44 -120 q0 -120 45 -120 Z" /><glyph glyph-name="afii10066" unicode="&#x431;" d="M262 548 l-31 -13 q-37 -15 -57 -34 q-40 -40 -40 -116 q9 28 31 48 q26 22 65 22 q53 0 87 -33 q56 -55 56 -196 q0 -136 -63 -196 q-41 -39 -107 -39 q-67 0 -106 39 q-27 26 -41.5 72.5 q-14.5 46.5 -17.5 84 q-3 37.5 -3 90.5 q0 122 15 195 q15 73 56 114 q32 32 84 52 q8 3 23 8.5 q15 5.5 21.5 8.5 q6.5 3 14 7.5 q7.5 4.5 12.5 10.5 q11 13 9 27 l99 0 q0 -70 -37 -109 q-20 -22 -70 -43 ZM227 330 q-9 13 -23 13 q-14 0 -23 -13 q-20 -29 -20 -107 q0 -78 20 -107 q9 -13 23 -13 q14 0 23 13 q20 29 20 107 q0 78 -20 107 Z" /><glyph glyph-name="afii10067" unicode="&#x432;" d="M40 447 l151 0 q76 0 114 -37 q33 -33 33 -89 q0 -38 -17 -60 q-17 -23 -45 -31 q31 -7 49 -27 q28 -28 28 -75 q0 -58 -37 -92 q-39 -36 -113 -36 l-163 0 l0 447 ZM165 266 q30 0 46 13 q15 13 15 37 q0 21 -14 34 q-13 12 -41 12 l-6 0 l0 -96 ZM165 85 q32 0 47 12 q17 13 17 40 q0 26 -17 40 q-16 13 -47 13 l0 -105 Z" /><glyph glyph-name="afii10068" unicode="&#x433;" d="M271 343 l-106 0 l0 -343 l-125 0 l0 447 l231 0 l0 -104 Z" /><glyph glyph-name="afii10069" unicode="&#x434;" d="M74 447 l292 0 l0 -343 l45 0 l0 -208 l-102 0 l0 104 l-203 0 l0 -104 l-102 0 l0 208 q23 8 38 23 q32 31 32 121 l0 199 ZM246 104 l0 239 l-62 0 l0 -104 q0 -50 -8 -79 q-9 -31 -34 -56 l104 0 Z" /><glyph glyph-name="afii10070" unicode="&#x435;" d="M233 154 l106 0 q-2 -80 -48 -128 q-35 -35 -97 -35 q-67 0 -107 40 q-61 61 -61 181 q0 137 65 202 q41 41 102 41 q58 0 96 -36 q58 -55 58 -174 q0 -21 -3 -44 l-198 0 q-1 -7 -1 -25 q0 -60 18 -79 q11 -12 26 -12 q15 0 25 8 q16 13 19 61 ZM148 278 l90 0 q0 56 -20 73 q-10 9 -23 9 q-16 0 -28 -12 q-19 -20 -19 -70 Z" /><glyph glyph-name="afii10072" unicode="&#x436;" d="M506 0 l-127 0 l-66 206 l0 -206 l-117 0 l0 206 l-66 -206 l-127 0 l94 234 l-95 213 l128 0 l66 -206 l0 206 l117 0 l0 -206 l66 206 l128 0 l-94 -213 l93 -234 Z" /><glyph glyph-name="afii10073" unicode="&#x437;" d="M256 234 q34 -11 52 -30 q27 -27 27 -69 q0 -61 -43 -102 q-43 -42 -117 -42 q-50 0 -88 15 q-27 10 -62 37 l54 93 q14 -16 33 -26 q17 -9 42 -9 q25 0 38 11 q13 12 13 29 q0 18 -13 27 q-16 11 -55 11 l-22 0 l0 94 l19 0 q27 0 42 7 q21 10 21 32 q0 16 -13 27 q-13 10 -36 10 q-24 0 -43 -13 q-16 -10 -29 -27 l-46 98 q26 18 53 31 q37 17 86 17 q80 0 121 -43 q31 -33 31 -83 q0 -37 -19 -62 q-17 -22 -46 -33 Z" /><glyph glyph-name="afii10074" unicode="&#x438;" d="M40 447 l118 0 l0 -159 q0 -52 -9 -117 q13 47 32 94 l73 182 l111 0 l0 -447 l-118 0 l0 166 q0 44 8 114 q-14 -59 -35 -111 l-69 -169 l-111 0 l0 447 Z" /><glyph glyph-name="afii10075" unicode="&#x439;" d="M40 447 l118 0 l0 -159 q0 -52 -9 -117 q13 47 32 94 l73 182 l111 0 l0 -447 l-118 0 l0 166 q0 44 8 114 q-14 -59 -35 -111 l-69 -169 l-111 0 l0 447 ZM260 642 l89 -29 q-11 -49 -51 -78 q-35 -25 -92 -25 q-57 0 -92 25 q-40 29 -51 78 l89 29 q2 -27 17 -40 q12 -12 37 -12 q25 0 37 12 q15 13 17 40 Z" /><glyph glyph-name="afii10076" unicode="&#x43a;" d="M373 0 l-132 0 l-76 204 l0 -204 l-125 0 l0 447 l125 0 l0 -204 l66 204 l128 0 l-91 -212 l105 -235 Z" /><glyph glyph-name="afii10077" unicode="&#x43b;" d="M378 447 l0 -447 l-125 0 l0 343 l-62 0 l0 -134 q0 -142 -45 -187 q-31 -31 -91 -31 q-27 0 -51 8 l0 106 q10 -7 25 -7 q17 0 28 11 q20 20 20 95 l0 243 l301 0 Z" /><glyph glyph-name="afii10078" unicode="&#x43c;" d="M301 0 l-87 0 l-37 161 q-15 63 -22 131 q-1 -8 -4.5 -60 q-3.5 -52 -4.5 -71 l-10 -161 l-122 0 l54 447 l130 0 l42 -189 q8 -37 17 -106 q9 69 17 106 l42 189 l130 0 l54 -447 l-121 0 l-11 161 q-1 14 -8 131 q-4 -46 -23 -132 l-36 -160 Z" /><glyph glyph-name="afii10079" unicode="&#x43d;" d="M165 447 l0 -157 l68 0 l0 157 l125 0 l0 -447 l-125 0 l0 186 l-68 0 l0 -186 l-125 0 l0 447 l125 0 Z" /><glyph glyph-name="afii10080" unicode="&#x43e;" d="M304 416 q61 -59 61 -193 q0 -134 -61 -193 q-41 -39 -108 -39 q-67 0 -108 39 q-61 59 -61 193 q0 134 61 193 q41 39 108 39 q67 0 108 -39 ZM219 330 q-9 13 -23 13 q-14 0 -23 -13 q-20 -29 -20 -107 q0 -78 20 -107 q9 -13 23 -13 q14 0 23 13 q20 29 20 107 q0 78 -20 107 Z" /><glyph glyph-name="afii10081" unicode="&#x43f;" d="M40 447 l310 0 l0 -447 l-125 0 l0 343 l-60 0 l0 -343 l-125 0 l0 447 Z" /><glyph glyph-name="afii10082" unicode="&#x440;" d="M165 447 l0 -55 q29 63 84 63 q37 0 62.5 -24 q25.5 -24 37 -63 q11.5 -39 16 -73 q4.5 -34 4.5 -70 q0 -34 -5 -69.5 q-5 -35.5 -16.5 -75 q-11.5 -39.5 -37.5 -64.5 q-26 -25 -62 -25 q-50 0 -83 60 l0 -257 l-125 0 l0 653 l125 0 ZM243 223 q0 120 -45 120 q-42 0 -42 -120 q0 -120 43 -120 q14 0 23.5 14 q9.5 14 13.5 36 q4 22 5.5 38.5 q1.5 16.5 1.5 31.5 Z" /><glyph glyph-name="afii10083" unicode="&#x441;" d="M261 121 l0 -114 q-36 -16 -71 -16 q-43 0 -76 21 q-33 21 -51 55 q-18 34 -27 72.5 q-9 38.5 -9 78.5 q0 60 14.5 111 q14.5 51 55 89 q40.5 38 101.5 38 q31 0 63 -13 l0 -110 q-15 15 -35 15 q-28 0 -45.5 -22 q-17.5 -22 -22.5 -46.5 q-5 -24.5 -5 -52.5 q0 -119 71 -119 q19 0 37 13 Z" /><glyph glyph-name="afii10084" unicode="&#x442;" d="M293 343 l-80 0 l0 -343 l-125 0 l0 343 l-80 0 l0 104 l285 0 l0 -104 Z" /><glyph glyph-name="afii10085" unicode="&#x443;" d="M369 447 l-188 -653 l-123 0 l69 215 l-130 438 l125 0 l43 -163 q16 -59 20 -92 l59 255 l125 0 Z" /><glyph glyph-name="afii10086" unicode="&#x444;" d="M202 -206 l0 200 q-74 6 -121 55 q-56 58 -56 180 q0 112 58 170 q48 47 119 54 l0 214 l124 0 l0 -214 q73 -9 119 -55 q58 -58 58 -172 q0 -119 -56 -179 q-48 -50 -121 -53 l0 -200 l-124 0 ZM315 347 l0 -247 q29 2 46 20 q26 26 26 103 q0 82 -29 108 q-18 16 -43 16 ZM213 100 l0 247 q-25 0 -43 -16 q-29 -27 -29 -108 q0 -77 26 -103 q17 -18 46 -20 Z" /><glyph glyph-name="afii10087" unicode="&#x445;" d="M389 0 l-132 0 l-41 78 q-16 30 -24 57 q-13 -36 -26 -60 l-41 -75 l-128 0 l128 240 l-111 207 l129 0 l24 -47 q15 -28 25 -65 q7 30 27 68 l23 44 l129 0 l-114 -207 l132 -240 Z" /><glyph glyph-name="afii10088" unicode="&#x446;" d="M302 0 l-262 0 l0 447 l125 0 l0 -343 l68 0 l0 343 l125 0 l0 -343 l48 0 l0 -208 l-104 0 l0 104 Z" /><glyph glyph-name="afii10089" unicode="&#x447;" d="M222 0 l0 184 q-30 -10 -63 -10 q-63 0 -95 32 q-34 34 -34 106 l0 135 l122 0 l0 -126 q0 -24 10 -34 q11 -9 29 -9 q15 0 31 6 l0 163 l125 0 l0 -447 l-125 0 Z" /><glyph glyph-name="afii10090" unicode="&#x448;" d="M344 104 l64 0 l0 343 l120 0 l0 -447 l-488 0 l0 447 l120 0 l0 -343 l64 0 l0 343 l120 0 l0 -343 Z" /><glyph glyph-name="afii10091" unicode="&#x449;" d="M344 104 l64 0 l0 343 l120 0 l0 -343 l58 0 l0 -208 l-104 0 l0 104 l-442 0 l0 447 l120 0 l0 -343 l64 0 l0 343 l120 0 l0 -343 Z" /><glyph glyph-name="afii10092" unicode="&#x44a;" d="M209 283 l33 0 q78 0 119 -41 q39 -37 39 -103 q0 -66 -39 -103 q-38 -36 -114 -36 l-163 0 l0 343 l-70 0 l0 104 l195 0 l0 -164 ZM209 88 l6 0 q29 0 43 11 q17 13 17 42 q0 25 -14 39 q-15 15 -50 15 l-2 0 l0 -107 Z" /><glyph glyph-name="afii10093" unicode="&#x44b;" d="M507 0 l-125 0 l0 447 l125 0 l0 -447 ZM40 447 l125 0 l0 -164 l28 0 q78 0 119 -41 q39 -37 39 -103 q0 -66 -39 -103 q-38 -36 -114 -36 l-158 0 l0 447 ZM165 88 l6 0 q29 0 43 11 q17 13 17 42 q0 25 -14 39 q-15 15 -50 15 l-2 0 l0 -107 Z" /><glyph glyph-name="afii10094" unicode="&#x44c;" d="M40 447 l125 0 l0 -164 l33 0 q78 0 119 -41 q39 -37 39 -103 q0 -66 -39 -103 q-38 -36 -114 -36 l-163 0 l0 447 ZM165 88 l6 0 q29 0 43 11 q17 13 17 42 q0 25 -14 39 q-15 15 -50 15 l-2 0 l0 -107 Z" /><glyph glyph-name="afii10095" unicode="&#x44d;" d="M30 12 l0 118 q24 -27 63 -27 q33 0 51 18 q21 21 23 61 l-102 0 l0 92 l102 0 q-2 32 -20 53 q-18 21 -53 21 q-36 0 -64 -30 l0 115 q39 23 88 23 q70 0 114 -42 q61 -59 61 -187 q0 -135 -61 -196 q-40 -40 -111 -40 q-53 0 -91 21 Z" /><glyph glyph-name="afii10096" unicode="&#x44e;" d="M484 416 q61 -59 61 -193 q0 -134 -61 -193 q-41 -39 -111 -39 q-66 0 -105 37 q-54 50 -56 148 l-47 0 l0 -176 l-125 0 l0 447 l125 0 l0 -167 l48 0 q4 88 54 136 q40 39 106 39 q70 0 111 -39 ZM399 330 q-9 13 -23 13 q-14 0 -23 -13 q-20 -29 -20 -107 q0 -78 20 -107 q9 -13 23 -13 q14 0 23 13 q20 29 20 107 q0 78 -20 107 Z" /><glyph glyph-name="afii10097" unicode="&#x44f;" d="M20 0 l85 167 q-34 12 -55 40 q-23 31 -23 82 q0 75 43 116 q44 42 142 42 l134 0 l0 -447 l-125 0 l0 169 l-71 -169 l-130 0 ZM221 238 l0 115 l-4 0 q-32 0 -48 -14 q-18 -16 -18 -47 q0 -29 17 -42 q15 -12 50 -12 l3 0 Z" /><glyph glyph-name="afii10071" unicode="&#x451;" d="M233 154 l106 0 q-2 -80 -48 -128 q-35 -35 -97 -35 q-67 0 -107 40 q-61 61 -61 181 q0 137 65 202 q41 41 102 41 q58 0 96 -36 q58 -55 58 -174 q0 -21 -3 -44 l-198 0 q-1 -7 -1 -25 q0 -60 18 -79 q11 -12 26 -12 q15 0 25 8 q16 13 19 61 ZM148 278 l90 0 q0 56 -20 73 q-10 9 -23 9 q-16 0 -28 -12 q-19 -20 -19 -70 ZM229 526 q-18 18 -18 45 q0 27 18 45 q18 18 45 18 q27 0 45 -18 q18 -18 18 -45 q0 -27 -18 -45 q-18 -18 -45 -18 q-27 0 -45 18 ZM66 526 q-18 18 -18 45 q0 27 18 45 q18 18 45 18 q27 0 45 -18 q18 -18 18 -45 q0 -27 -18 -45 q-18 -18 -45 -18 q-27 0 -45 18 Z" /><glyph glyph-name="afii10099" unicode="&#x452;" d="M190 729 l0 -134 l108 0 l0 -88 l-108 0 l0 -150 q14 28 32 46 q32 32 74 32 q35 0 56 -21 q27 -27 27 -111 l0 -361 q0 -80 -39 -117 q-33 -31 -92 -31 q-36 0 -68 11 l0 110 q12 -9 28 -9 q18 0 29 10 q17 15 17 51 l0 287 q0 36 -11 48 q-7 8 -19 8 q-13 0 -21 -8 q-13 -12 -13 -59 l0 -243 l-125 0 l0 507 l-55 0 l0 88 l55 0 l0 134 l125 0 Z" /><glyph glyph-name="afii10100" unicode="&#x453;" d="M271 343 l-106 0 l0 -343 l-125 0 l0 447 l231 0 l0 -104 ZM271 639 l-115 -122 l-60 36 l85 128 l90 -42 Z" /><glyph glyph-name="afii10101" unicode="&#x454;" d="M283 130 l0 -118 q-38 -21 -91 -21 q-71 0 -111 40 q-61 61 -61 196 q0 128 61 187 q44 42 114 42 q49 0 88 -23 l0 -115 q-27 30 -66 30 q-34 0 -51 -21 q-18 -21 -20 -53 l102 0 l0 -92 l-102 0 q2 -39 24 -61 q19 -18 51 -18 q38 0 62 27 Z" /><glyph glyph-name="afii10102" unicode="&#x455;" d="M299 417 l-50 -91 q-32 30 -59 30 q-14 0 -23 -9 q-9 -9 -9 -23 q0 -17 22 -32 q22 -15 48 -26.5 q26 -11.5 48 -42.5 q22 -31 22 -77 q0 -66 -38 -110.5 q-38 -44.5 -103 -44.5 q-70 0 -136 51 l55 89 q34 -28 61 -28 q17 0 28.5 10 q11.5 10 11.5 27 q0 18 -23 33.5 q-23 15.5 -50 28 q-27 12.5 -50 44 q-23 31.5 -23 77.5 q0 62 43 97 q43 35 106 35 q66 0 119 -38 Z" /><glyph glyph-name="afii10103" unicode="&#x456;" d="M161 649 q23 -23 23 -56 q0 -33 -23 -56 q-23 -23 -56 -23 q-33 0 -56 23 q-23 23 -23 56 q0 33 23 56 q23 23 56 23 q33 0 56 -23 ZM167 0 l-125 0 l0 447 l125 0 l0 -447 Z" /><glyph glyph-name="afii10104" unicode="&#x457;" d="M165 0 l-125 0 l0 447 l125 0 l0 -447 ZM184.5 629.5 q11.5 -19.5 11.5 -46.5 q0 -27 -11.5 -46.5 q-11.5 -19.5 -27.5 -19.5 q-16 0 -28 19.5 q-12 19.5 -12 46.5 q0 27 12 46.5 q12 19.5 28 19.5 q16 0 27.5 -19.5 ZM78 629.5 q12 -19.5 12 -46.5 q0 -27 -12 -46.5 q-12 -19.5 -28 -19.5 q-16 0 -28 19.5 q-12 19.5 -12 46.5 q0 27 12 46.5 q12 19.5 28 19.5 q16 0 28 -19.5 Z" /><glyph glyph-name="afii10105" unicode="&#x458;" d="M161 649 q23 -23 23 -56 q0 -33 -23 -56 q-23 -23 -56 -23 q-33 0 -56 23 q-23 23 -23 56 q0 33 23 56 q23 23 56 23 q33 0 56 -23 ZM167 -206 l-125 0 l0 653 l125 0 l0 -653 Z" /><glyph glyph-name="afii10106" unicode="&#x459;" d="M374 447 l0 -164 l33 0 q78 0 119 -41 q39 -37 39 -103 q0 -66 -39 -103 q-38 -36 -114 -36 l-159 0 l0 343 l-62 0 l0 -134 q0 -142 -45 -187 q-31 -31 -91 -31 q-27 0 -51 8 l0 106 q10 -7 25 -7 q17 0 28 11 q20 20 20 95 l0 243 l297 0 ZM374 88 l6 0 q29 0 43 11 q17 13 17 42 q0 25 -14 39 q-15 15 -50 15 l-2 0 l0 -107 Z" /><glyph glyph-name="afii10107" unicode="&#x45a;" d="M233 447 l123 0 l0 -164 l33 0 q78 0 119 -41 q39 -37 39 -103 q0 -66 -39 -103 q-38 -36 -114 -36 l-161 0 l0 189 l-68 0 l0 -189 l-125 0 l0 447 l125 0 l0 -157 l68 0 l0 157 ZM356 88 l6 0 q29 0 43 11 q17 13 17 42 q0 25 -14 39 q-15 15 -52 15 l0 -107 Z" /><glyph glyph-name="afii10108" unicode="&#x45b;" d="M379 0 l-125 0 l0 254 q0 56 -30 56 q-34 0 -34 -71 l0 -239 l-125 0 l0 507 l-55 0 l0 88 l55 0 l0 134 l125 0 l0 -134 l108 0 l0 -88 l-108 0 l0 -150 q40 78 106 78 q27 0 45 -11.5 q18 -11.5 25.5 -33 q7.5 -21.5 10 -40.5 q2.5 -19 2.5 -47 l0 -303 Z" /><glyph glyph-name="afii10109" unicode="&#x45c;" d="M373 0 l-132 0 l-76 204 l0 -204 l-125 0 l0 447 l125 0 l0 -204 l66 204 l128 0 l-91 -212 l105 -235 ZM328 639 l-115 -122 l-60 36 l85 128 l90 -42 Z" /><glyph glyph-name="afii10110" unicode="&#x45e;" d="M369 447 l-188 -653 l-123 0 l69 215 l-130 438 l125 0 l43 -163 q16 -59 20 -92 l59 255 l125 0 ZM240 642 l89 -29 q-11 -49 -51 -78 q-35 -25 -92 -25 q-57 0 -92 25 q-40 29 -51 78 l89 29 q2 -27 17 -40 q12 -12 37 -12 q25 0 37 12 q15 13 17 40 Z" /><glyph glyph-name="afii10193" unicode="&#x45f;" d="M147 0 l-107 0 l0 447 l125 0 l0 -343 l68 0 l0 343 l125 0 l0 -447 l-107 0 l0 -104 l-104 0 l0 104 Z" /><glyph glyph-name="afii10146" unicode="&#x462;" d="M97 0 l0 498 l-77 0 l0 114 l77 0 l0 84 l132 0 l0 -84 l114 0 l0 -114 l-114 0 l0 -92 l7 0 q109 0 165 -54 q56 -54 56 -155 q0 -92 -53 -144 q-54 -53 -162 -53 l-145 0 ZM229 292 l0 -178 l4 0 q49 0 71 21 q23 23 23 66 q0 46 -25 69 q-24 22 -66 22 l-7 0 Z" /><glyph glyph-name="afii10194" unicode="&#x463;" d="M69 0 l0 343 l-54 0 l0 104 l54 0 l0 220 l125 0 l0 -220 l90 0 l0 -104 l-90 0 l0 -60 l33 0 q78 0 119 -41 q39 -37 39 -103 q0 -66 -39 -103 q-38 -36 -114 -36 l-163 0 ZM194 88 l6 0 q29 0 43 11 q17 13 17 42 q0 25 -14 39 q-15 15 -52 15 l0 -107 Z" /><glyph glyph-name="afii10147" unicode="&#x472;" d="M423 610 q82 -86 82 -277 q0 -191 -82 -277 q-63 -67 -152 -67 q-89 0 -152 67 q-82 86 -82 277 q0 191 82 277 q63 67 152 67 q89 0 152 -67 ZM181 400 l180 0 q0 36 -11 75.5 q-11 39.5 -31 59.5 q-21 21 -48 21 q-27 0 -48 -21 q-42 -41 -42 -135 ZM363 283 l-184 0 q3 -104 44 -146 q20 -21 48 -21 q28 0 48 21 q40 43 44 146 Z" /><glyph glyph-name="afii10195" unicode="&#x473;" d="M304 416 q61 -59 61 -193 q0 -134 -61 -193 q-41 -39 -108 -39 q-67 0 -108 39 q-61 59 -61 193 q0 134 61 193 q41 39 108 39 q67 0 108 -39 ZM157 268 l78 0 q0 45 -16 68 q-9 13 -23 13 q-14 0 -23 -13 q-16 -23 -16 -68 ZM156 184 q0 -55 20 -78 q8 -9 20 -9 q12 0 20 9 q20 23 20 78 l-80 0 Z" /><glyph glyph-name="afii10148" unicode="&#x474;" d="M486 667 l-185 -667 l-108 0 l-193 667 l142 0 l71 -258 q21 -78 33 -181 q9 112 29 181 l73 258 l138 0 Z" /><glyph glyph-name="afii10196" unicode="&#x475;" d="M370 447 l-130 -447 l-115 0 l-128 447 l123 0 q52 -208 61 -253 q2 11 7 30.5 q5 19.5 6 24.5 l46 198 l130 0 Z" /><glyph glyph-name="afii10050" unicode="&#x490;" d="M52 667 l180 0 l0 125 l120 0 l0 -248 l-168 0 l0 -544 l-132 0 l0 667 Z" /><glyph glyph-name="afii10098" unicode="&#x491;" d="M165 0 l-125 0 l0 447 l166 0 l0 100 l104 0 l0 -204 l-145 0 l0 -343 Z" /><glyph glyph-name="uni0492" unicode="&#x492;" d="M351 544 l-134 0 l0 -142 l121 0 l0 -127 l-121 0 l0 -275 l-132 0 l0 275 l-65 0 l0 127 l65 0 l0 265 l266 0 l0 -123 Z" /><glyph glyph-name="uni0493" unicode="&#x493;" d="M297 343 l-106 0 l0 -83 l84 0 l0 -104 l-84 0 l0 -156 l-125 0 l0 156 l-51 0 l0 104 l51 0 l0 187 l231 0 l0 -104 Z" /><glyph glyph-name="uni0494" unicode="&#x494;" d="M338 544 l-154 0 l0 -147 q45 10 81 10 q89 0 138 -47 q56 -55 56 -167 q0 -109 -55 -162 q-42 -42 -107 -42 q-46 0 -88 22 l29 112 q14 -12 33 -12 q26 0 41 19 q15 20 15 60 q0 44 -20 69 q-21 26 -61 26 q-27 0 -62 -11 l0 -274 l-132 0 l0 667 l286 0 l0 -123 Z" /><glyph glyph-name="uni0495" unicode="&#x495;" d="M281 343 l-116 0 l0 -83 l9 0 q89 0 136 -44 q55 -51 55 -164 q0 -154 -87 -218 q-49 -36 -113 -40 l0 108 q24 4 40 20 q34 33 34 122 q0 72 -28 97 q-17 15 -42 15 l-4 0 l0 -156 l-125 0 l0 447 l241 0 l0 -104 Z" /><glyph glyph-name="uni0496" unicode="&#x496;" d="M7 667 l131 0 l107 -302 l0 302 l126 0 l0 -302 l107 302 l131 0 l-121 -305 l75 -237 l69 0 l0 -255 l-120 0 l0 130 l-42 0 l-99 335 l0 -335 l-126 0 l0 335 l-103 -335 l-134 0 l120 362 l-121 305 Z" /><glyph glyph-name="uni0497" unicode="&#x497;" d="M2 447 l128 0 l66 -206 l0 206 l117 0 l0 -206 l66 206 l128 0 l-94 -213 l52 -130 l48 0 l0 -208 l-104 0 l0 104 l-30 0 l-66 206 l0 -206 l-117 0 l0 206 l-66 -206 l-127 0 l94 234 l-95 213 Z" /><glyph glyph-name="uni0498" unicode="&#x498;" d="M47 496 l0 137 q58 44 132 44 q87 0 136 -51 q48 -49 48 -130 q0 -57 -23 -95 q-23 -38 -63 -52 q42 -12 71 -45 q35 -42 35 -102 q0 -99 -61 -162 q-35 -36 -78 -42 l0 -128 l-120 0 l0 126 q-44 6 -79 35 l0 136 q22 -26 47 -39 q27 -15 59 -15 q41 0 63 22 q24 23 24 63 q0 40 -21 61 q-25 24 -82 24 l-18 0 l0 118 l14 0 q51 0 74 19 q24 19 24 60 q0 33 -22 55 q-23 20 -56 20 q-32 0 -60 -18 q-26 -17 -44 -41 Z" /><glyph glyph-name="uni0499" unicode="&#x499;" d="M262 234 q31 -8 50 -31 q23 -28 23 -66 q0 -62 -37 -101 q-26 -28 -69 -37 l0 -103 l-104 0 l0 100 q-50 8 -100 47 l54 93 q14 -16 33 -26 q17 -9 42 -9 q25 0 38 11 q13 12 13 29 q0 18 -13 27 q-16 11 -55 11 l-22 0 l0 94 l19 0 q27 0 42 7 q21 10 21 32 q0 16 -13 27 q-13 10 -36 10 q-24 0 -43 -13 q-16 -10 -29 -27 l-46 98 q26 18 53 31 q37 17 86 17 q80 0 121 -43 q31 -33 31 -84 q0 -37 -18 -63 q-16 -22 -41 -31 Z" /><glyph glyph-name="uni049A" unicode="&#x49a;" d="M52 667 l132 0 l0 -298 l111 298 l135 0 l-123 -308 l86 -234 l69 0 l0 -255 l-120 0 l0 130 l-39 0 l-119 339 l0 -339 l-132 0 l0 667 Z" /><glyph glyph-name="uni049B" unicode="&#x49b;" d="M40 447 l125 0 l0 -204 l66 204 l128 0 l-91 -212 l59 -131 l48 0 l0 -208 l-104 0 l0 104 l-30 0 l-76 204 l0 -204 l-125 0 l0 447 Z" /><glyph glyph-name="uni049C" unicode="&#x49c;" d="M184 281 l0 -281 l-132 0 l0 667 l132 0 l0 -261 l50 0 l0 153 l76 0 l0 -192 l97 300 l135 0 l-114 -309 l119 -358 l-138 0 l-99 337 l0 -208 l-76 0 l0 152 l-50 0 Z" /><glyph glyph-name="uni049D" unicode="&#x49d;" d="M165 182 l0 -182 l-125 0 l0 447 l125 0 l0 -182 l32 0 l0 111 l70 0 l0 -132 l62 203 l130 0 l-84 -215 l93 -232 l-133 0 l-68 205 l0 -127 l-70 0 l0 104 l-32 0 Z" /><glyph glyph-name="uni04A0" unicode="&#x4a0;" d="M522 0 l-138 0 l-123 339 l0 -339 l-132 0 l0 544 l-114 0 l0 123 l246 0 l0 -298 l111 298 l135 0 l-123 -308 l138 -359 Z" /><glyph glyph-name="uni04A1" unicode="&#x4a1;" d="M433 0 l-132 0 l-76 204 l0 -204 l-125 0 l0 343 l-90 0 l0 104 l215 0 l0 -204 l66 204 l128 0 l-91 -212 l105 -235 Z" /><glyph glyph-name="uni04A2" unicode="&#x4a2;" d="M317 667 l132 0 l0 -542 l69 0 l0 -255 l-120 0 l0 130 l-81 0 l0 295 l-133 0 l0 -295 l-132 0 l0 667 l132 0 l0 -247 l133 0 l0 247 Z" /><glyph glyph-name="uni04A3" unicode="&#x4a3;" d="M165 447 l0 -157 l68 0 l0 157 l125 0 l0 -343 l48 0 l0 -208 l-104 0 l0 104 l-69 0 l0 186 l-68 0 l0 -186 l-125 0 l0 447 l125 0 Z" /><glyph glyph-name="uni04A4" unicode="&#x4a4;" d="M569 544 l-120 0 l0 -544 l-132 0 l0 295 l-133 0 l0 -295 l-132 0 l0 667 l132 0 l0 -247 l133 0 l0 247 l252 0 l0 -123 Z" /><glyph glyph-name="uni04A5" unicode="&#x4a5;" d="M165 447 l0 -157 l68 0 l0 157 l219 0 l0 -104 l-94 0 l0 -343 l-125 0 l0 186 l-68 0 l0 -186 l-125 0 l0 447 l125 0 Z" /><glyph glyph-name="uni04AA" unicode="&#x4aa;" d="M376 152 l0 -138 q-19 -10 -38 -16 l0 -128 l-120 0 l0 132 q-60 12 -102 62 q-79 93 -79 258 q0 189 96 285 q67 67 160 67 q42 0 83 -19 l0 -136 q-32 29 -73 29 q-43 0 -73 -30 q-55 -55 -55 -191 q0 -123 47 -175 q28 -32 75 -32 q44 0 79 32 Z" /><glyph glyph-name="uni04AB" unicode="&#x4ab;" d="M261 121 l0 -114 q-12 -7 -22 -7 l0 -104 l-104 0 l0 106 q-29 12 -49 32 q-59 59 -59 187 q0 59 16.5 110.5 q16.5 51.5 46.5 81.5 q43 43 108 43 q30 0 63 -13 l0 -110 q-14 15 -35 15 q-25 0 -42 -17 q-31 -29 -31 -104 q0 -73 29 -102 q17 -17 42 -17 q11 0 37 13 Z" /><glyph glyph-name="uni04AE" unicode="&#x4ae;" d="M447 667 l-155 -382 l0 -285 l-132 0 l0 285 l-160 382 l145 0 l49 -145 q18 -54 30 -99 q9 37 29 100 l46 144 l148 0 Z" /><glyph glyph-name="uni04AF" unicode="&#x4af;" d="M-3 453 l127 0 l36 -129 q21 -73 29 -132 q8 54 30 134 l34 127 l127 0 l-131 -414 l0 -245 l-120 0 l0 245 l-132 414 Z" /><glyph glyph-name="uni04B0" unicode="&#x4b0;" d="M447 667 l-155 -382 l0 -15 l106 0 l0 -120 l-106 0 l0 -150 l-132 0 l0 150 l-106 0 l0 120 l106 0 l0 15 l-160 382 l145 0 l49 -145 q18 -54 30 -99 q9 37 29 100 l46 144 l148 0 Z" /><glyph glyph-name="uni04B1" unicode="&#x4b1;" d="M-2 453 l126 0 l36 -129 q21 -73 29 -132 q8 54 30 134 l34 127 l127 0 l-131 -394 l0 -17 l108 0 l0 -88 l-108 0 l0 -160 l-120 0 l0 160 l-108 0 l0 88 l108 0 l0 17 l-131 394 Z" /><glyph glyph-name="uni04B2" unicode="&#x4b2;" d="M148 667 q4 -10 19 -44.5 q15 -34.5 22.5 -54 q7.5 -19.5 16.5 -48 q9 -28.5 11 -49.5 q5 24 14.5 52.5 q9.5 28.5 16.5 46 q7 17.5 22 51.5 q15 34 20 46 l142 0 l-142 -323 l96 -219 l65 0 l0 -255 l-120 0 l0 130 l-43 0 q-6 17 -25 62.5 q-19 45.5 -30 78.5 q-11 33 -16 65 q-12 -57 -69 -206 l-148 0 l141 344 l-141 323 l148 0 Z" /><glyph glyph-name="uni04B3" unicode="&#x4b3;" d="M14 447 l129 0 l24 -47 q15 -28 25 -65 q7 30 27 68 l23 44 l129 0 l-114 -207 l75 -136 l54 0 l0 -208 l-104 0 l0 104 l-25 0 l-41 78 q-16 30 -24 57 q-13 -36 -26 -60 l-41 -75 l-128 0 l128 240 l-111 207 Z" /><glyph glyph-name="uni04B6" unicode="&#x4b6;" d="M380 0 l-81 0 l0 292 q-41 -11 -86 -11 q-69 0 -110 29 q-36 25 -47 62.5 q-11 37.5 -11 91.5 l0 203 l132 0 l0 -191 q0 -39 16 -55 q15 -15 51 -15 q31 0 55 9 l0 252 l132 0 l0 -542 l69 0 l0 -255 l-120 0 l0 130 Z" /><glyph glyph-name="uni04B7" unicode="&#x4b7;" d="M30 447 l122 0 l0 -126 q0 -24 10 -34 q11 -9 29 -9 q15 0 31 6 l0 163 l125 0 l0 -343 l48 0 l0 -208 l-104 0 l0 104 l-69 0 l0 184 q-30 -10 -63 -10 q-63 0 -95 32 q-34 34 -34 106 l0 135 Z" /><glyph glyph-name="uni04B8" unicode="&#x4b8;" d="M359 0 l0 294 q-24 -8 -50 -10 l0 -147 l-76 0 l0 144 l-5 0 q-78 0 -119 26 q-28 18 -43.5 47.5 q-15.5 29.5 -18 52.5 q-2.5 23 -2.5 57 l0 203 l132 0 l0 -191 q0 -40 16 -55 q14 -14 40 -14 l0 156 l76 0 l0 -157 q26 0 50 11 l0 250 l132 0 l0 -667 l-132 0 Z" /><glyph glyph-name="uni04B9" unicode="&#x4b9;" d="M246 373 l0 -100 q12 0 30 7 l0 167 l125 0 l0 -447 l-125 0 l0 184 q-2 0 -13 -3 q-11 -3 -17 -4 l0 -91 l-58 0 l0 87 q-88 0 -124 36 q-34 34 -34 101 l0 137 l120 0 l0 -120 q0 -31 10 -41 q9 -10 28 -12 l0 99 l58 0 Z" /><glyph glyph-name="uni04BA" unicode="&#x4ba;" d="M184 667 l0 -272 q41 11 86 11 q69 0 110 -29 q36 -25 47 -62.5 q11 -37.5 11 -91.5 l0 -223 l-132 0 l0 211 q0 39 -16 55 q-15 15 -51 15 q-31 0 -55 -9 l0 -272 l-132 0 l0 667 l132 0 Z" /><glyph glyph-name="uni04BB" unicode="&#x4bb;" d="M354 0 l-125 0 l0 274 q0 56 -30 56 q-13 0 -20.5 -6.5 q-7.5 -6.5 -10 -21 q-2.5 -14.5 -3 -21 q-0.5 -6.5 -0.5 -22.5 l0 -259 l-125 0 l0 729 l125 0 l0 -352 q40 78 106 78 q27 0 45 -11.5 q18 -11.5 25.5 -33 q7.5 -21.5 10 -40.5 q2.5 -19 2.5 -47 l0 -323 Z" /><glyph glyph-name="uni04C0" unicode="&#x4c0;" d="M165 0 l-125 0 l0 667 l125 0 l0 -667 Z" /><glyph glyph-name="uni04C1" unicode="&#x4c1;" d="M608 0 l-134 0 l-103 335 l0 -335 l-126 0 l0 335 l-103 -335 l-134 0 l120 362 l-121 305 l131 0 l107 -302 l0 302 l126 0 l0 -302 l107 302 l131 0 l-121 -305 l120 -362 ZM374 852 l99 -32 q-14 -55 -58 -85 q-41 -27 -107 -27 q-66 0 -107 27 q-44 30 -58 85 l99 32 q6 -28 22 -41 q16 -14 44 -14 q28 0 44 14 q16 13 22 41 Z" /><glyph glyph-name="uni04C2" unicode="&#x4c2;" d="M506 0 l-127 0 l-66 206 l0 -206 l-117 0 l0 206 l-66 -206 l-127 0 l94 234 l-95 213 l128 0 l66 -206 l0 206 l117 0 l0 -206 l66 206 l128 0 l-94 -213 l93 -234 ZM308 642 l89 -29 q-11 -49 -51 -78 q-35 -25 -92 -25 q-57 0 -92 25 q-40 29 -51 78 l89 29 q2 -27 17 -40 q12 -12 37 -12 q25 0 37 12 q15 13 17 40 Z" /><glyph glyph-name="uni04C3" unicode="&#x4c3;" d="M52 667 l132 0 l0 -298 l111 298 l135 0 l-111 -275 q67 -8 104 -69 q34 -56 34 -154 l0 -62 q0 -166 -58 -225 q-42 -42 -105 -42 q-44 0 -83 22 l29 112 q14 -12 30 -12 q22 0 36 19 q19 29 19 123 l0 50 q0 71 -24 101 q-23 28 -64 28 q-24 0 -53 -9 l0 -274 l-132 0 l0 667 Z" /><glyph glyph-name="uni04C4" unicode="&#x4c4;" d="M40 447 l125 0 l0 -182 l66 182 l134 0 l-92 -212 q45 -17 69 -57 q26 -43 26 -127 q0 -138 -67 -204 q-55 -53 -136 -53 l0 108 q23 0 41 17 q33 32 33 123 q0 73 -28 98 q-18 16 -41 16 l-5 0 l0 -156 l-125 0 l0 447 Z" /><glyph glyph-name="uni04C7" unicode="&#x4c7;" d="M52 667 l132 0 l0 -247 l133 0 l0 247 l132 0 l0 -664 q0 -68 -14 -109 q-16 -47 -55.5 -73.5 q-39.5 -26.5 -90.5 -26.5 q-59 0 -98 21 l0 132 q30 -37 70 -37 q16 0 27 7 q11 7 16.5 15.5 q5.5 8.5 8.5 24.5 q3 16 3.5 26 q0.5 10 0.5 27 l0 285 l-133 0 l0 -295 l-132 0 l0 667 Z" /><glyph glyph-name="uni04C8" unicode="&#x4c8;" d="M165 447 l0 -157 l68 0 l0 157 l125 0 l0 -505 q0 -80 -39 -117 q-33 -31 -92 -31 q-36 0 -68 11 l0 110 q12 -9 28 -9 q18 0 29 10 q17 15 17 51 l0 219 l-68 0 l0 -186 l-125 0 l0 447 l125 0 Z" /><glyph glyph-name="uni04D0" unicode="&#x4d0;" d="M457 0 l-140 0 l-25 112 l-133 0 l-24 -112 l-132 0 l156 667 l138 0 l160 -667 ZM179 215 l93 0 q-29 130 -38 192 q-8 55 -11 88 q-6 -94 -44 -280 ZM292 852 l99 -32 q-14 -55 -58 -85 q-41 -27 -107 -27 q-66 0 -107 27 q-44 30 -58 85 l99 32 q6 -28 22 -41 q16 -14 44 -14 q28 0 44 14 q16 13 22 41 Z" /><glyph glyph-name="uni04D1" unicode="&#x4d1;" d="M356 0 l-125 0 l0 51 q-33 -60 -83 -60 q-36 0 -62 25 q-26 25 -37.5 64.5 q-11.5 39.5 -16.5 75 q-5 35.5 -5 69.5 q0 36 4.5 70 q4.5 34 16 73 q11.5 39 37 63 q25.5 24 62.5 24 q55 0 84 -63 l0 55 l125 0 l0 -447 ZM198 103 q42 0 42 120 q0 120 -43 120 q-44 0 -44 -120 q0 -120 45 -120 ZM256 642 l89 -29 q-11 -49 -51 -78 q-35 -25 -92 -25 q-57 0 -92 25 q-40 29 -51 78 l89 29 q2 -27 17 -40 q12 -12 37 -12 q25 0 37 12 q15 13 17 40 Z" /><glyph glyph-name="uni04D2" unicode="&#x4d2;" d="M457 0 l-140 0 l-25 112 l-133 0 l-24 -112 l-132 0 l156 667 l138 0 l160 -667 ZM179 215 l93 0 q-29 130 -38 192 q-8 55 -11 88 q-6 -94 -44 -280 ZM353.5 836.5 q19.5 -19.5 19.5 -46.5 q0 -27 -19.5 -46.5 q-19.5 -19.5 -46.5 -19.5 q-27 0 -46.5 19.5 q-19.5 19.5 -19.5 46.5 q0 27 19.5 46.5 q19.5 19.5 46.5 19.5 q27 0 46.5 -19.5 ZM183.5 836.5 q19.5 -19.5 19.5 -46.5 q0 -27 -19.5 -46.5 q-19.5 -19.5 -46.5 -19.5 q-27 0 -46.5 19.5 q-19.5 19.5 -19.5 46.5 q0 27 19.5 46.5 q19.5 19.5 46.5 19.5 q27 0 46.5 -19.5 Z" /><glyph glyph-name="uni04D3" unicode="&#x4d3;" d="M356 0 l-125 0 l0 51 q-33 -60 -83 -60 q-36 0 -62 25 q-26 25 -37.5 64.5 q-11.5 39.5 -16.5 75 q-5 35.5 -5 69.5 q0 36 4.5 70 q4.5 34 16 73 q11.5 39 37 63 q25.5 24 62.5 24 q55 0 84 -63 l0 55 l125 0 l0 -447 ZM198 103 q42 0 42 120 q0 120 -43 120 q-44 0 -44 -120 q0 -120 45 -120 ZM332.5 629.5 q19.5 -19.5 19.5 -46.5 q0 -27 -19.5 -46.5 q-19.5 -19.5 -46.5 -19.5 q-27 0 -46.5 19.5 q-19.5 19.5 -19.5 46.5 q0 27 19.5 46.5 q19.5 19.5 46.5 19.5 q27 0 46.5 -19.5 ZM155.5 629.5 q19.5 -19.5 19.5 -46.5 q0 -27 -19.5 -46.5 q-19.5 -19.5 -46.5 -19.5 q-27 0 -46.5 19.5 q-19.5 19.5 -19.5 46.5 q0 27 19.5 46.5 q19.5 19.5 46.5 19.5 q27 0 46.5 -19.5 Z" /><glyph glyph-name="uni04D4" unicode="&#x4d4;" d="M585 0 l-267 0 l-25 111 l-138 0 l-20 -111 l-132 0 l152 667 l272 0 l28 -124 l-132 0 l34 -138 l132 0 l30 -126 l-130 0 l38 -154 l127 0 l31 -125 ZM177 216 l94 0 q-5 23 -15.5 70 q-10.5 47 -15.5 71 q-12 52 -19 137 q-6 -86 -44 -278 Z" /><glyph glyph-name="uni04D5" unicode="&#x4d5;" d="M544 192 l-205 0 q3 -109 56 -109 q40 0 40 54 l102 0 q-2 -67 -38 -106.5 q-36 -39.5 -102 -39.5 q-68 0 -111 55 q-52 -55 -114 -55 q-64 0 -104.5 38 q-40.5 38 -40.5 102 q0 61 36.5 99 q36.5 38 96.5 38 q41 0 66 -16 l0 2 q0 25 -2 40 q-2 15 -9 30 q-7 15 -22 21.5 q-15 6.5 -40 6.5 q-38 0 -88 -23 l0 107 q60 20 101 20 q45 0 74 -14.5 q29 -14.5 50 -51.5 q38 65 110 65 q33 0 58 -12 q25 -12 39.5 -35 q14.5 -23 24.5 -46.5 q10 -23.5 14.5 -58.5 q4.5 -35 5.5 -56.5 q1 -21.5 2 -54.5 ZM340 269 l93 0 q0 95 -46 95 q-47 0 -47 -95 ZM220 98 q14 14 14 33 q0 19 -14 33 q-14 14 -33 14 q-19 0 -33 -14 q-14 -14 -14 -33 q0 -19 14 -33 q14 -14 33 -14 q19 0 33 14 Z" /><glyph glyph-name="uni04D6" unicode="&#x4d6;" d="M319 0 l-267 0 l0 667 l265 0 l0 -124 l-133 0 l0 -144 l117 0 l0 -126 l-117 0 l0 -150 l135 0 l0 -123 ZM244 852 l99 -32 q-14 -55 -58 -85 q-41 -27 -107 -27 q-66 0 -107 27 q-44 30 -58 85 l99 32 q6 -28 22 -41 q16 -14 44 -14 q28 0 44 14 q16 13 22 41 Z" /><glyph glyph-name="uni04D7" unicode="&#x4d7;" d="M233 154 l106 0 q-2 -80 -48 -128 q-35 -35 -97 -35 q-67 0 -107 40 q-61 61 -61 181 q0 137 65 202 q41 41 102 41 q58 0 96 -36 q58 -55 58 -174 q0 -21 -3 -44 l-198 0 q-1 -7 -1 -25 q0 -60 18 -79 q11 -12 26 -12 q15 0 25 8 q16 13 19 61 ZM148 278 l90 0 q0 56 -20 73 q-10 9 -23 9 q-16 0 -28 -12 q-19 -20 -19 -70 ZM249 642 l89 -29 q-11 -49 -51 -78 q-35 -25 -92 -25 q-57 0 -92 25 q-40 29 -51 78 l89 29 q2 -27 17 -40 q12 -12 37 -12 q25 0 37 12 q15 13 17 40 Z" /><glyph glyph-name="uni04D8" unicode="&#x4d8;" d="M38 371 l308 0 q-1 48 -13 98 q-12 50 -36 72 q-21 20 -50 20 q-25 0 -42 -17 q-25 -24 -29 -75 l-128 50 q17 62 57 102 q55 56 144 56 q93 0 152 -59 q87 -87 87 -282 q0 -92 -24 -167 q-24 -75 -66 -119 q-58 -61 -147 -61 q-81 0 -134 55 q-80 83 -80 276 q0 31 1 51 ZM168 253 l0 -5 q0 -85 32 -118 q20 -21 49 -21 q30 0 49 19 q19 17 31.5 55 q12.5 38 13.5 70 l-175 0 Z" /><glyph glyph-name="afii10846" unicode="&#x4d9;" d="M135 308 l-102 20 q8 55 43 90 q37 37 102 37 q70 0 113 -43 q55 -55 55 -175 q0 -142 -65 -207 q-38 -39 -98 -39 q-63 0 -100 36 q-57 56 -57 178 q0 9 1 28.5 q1 19.5 1 22.5 l198 0 l0 4 q0 73 -23 92 q-10 9 -28 9 q-16 0 -26 -10 q-14 -16 -14 -43 ZM224 179 l-90 0 q-3 -19 1.5 -44 q4.5 -25 16.5 -37 q12 -12 27 -12 q15 0 25 10 q20 19 20 71 l0 12 Z" /><glyph glyph-name="uni04DA" unicode="&#x4da;" d="M38 371 l308 0 q-1 48 -13 98 q-12 50 -36 72 q-21 20 -50 20 q-25 0 -42 -17 q-25 -24 -29 -75 l-128 50 q17 62 57 102 q55 56 144 56 q93 0 152 -59 q87 -87 87 -282 q0 -92 -24 -167 q-24 -75 -66 -119 q-58 -61 -147 -61 q-81 0 -134 55 q-80 83 -80 276 q0 31 1 51 ZM168 253 l0 -5 q0 -85 32 -118 q20 -21 49 -21 q30 0 49 19 q19 17 31.5 55 q12.5 38 13.5 70 l-175 0 ZM379.5 836.5 q19.5 -19.5 19.5 -46.5 q0 -27 -19.5 -46.5 q-19.5 -19.5 -46.5 -19.5 q-27 0 -46.5 19.5 q-19.5 19.5 -19.5 46.5 q0 27 19.5 46.5 q19.5 19.5 46.5 19.5 q27 0 46.5 -19.5 ZM209.5 836.5 q19.5 -19.5 19.5 -46.5 q0 -27 -19.5 -46.5 q-19.5 -19.5 -46.5 -19.5 q-27 0 -46.5 19.5 q-19.5 19.5 -19.5 46.5 q0 27 19.5 46.5 q19.5 19.5 46.5 19.5 q27 0 46.5 -19.5 Z" /><glyph glyph-name="uni04DB" unicode="&#x4db;" d="M135 308 l-102 20 q8 55 43 90 q37 37 102 37 q70 0 113 -43 q55 -55 55 -175 q0 -142 -65 -207 q-38 -39 -98 -39 q-63 0 -100 36 q-57 56 -57 178 q0 9 1 28.5 q1 19.5 1 22.5 l198 0 l0 4 q0 73 -23 92 q-10 9 -28 9 q-16 0 -26 -10 q-14 -16 -14 -43 ZM224 179 l-90 0 q-3 -19 1.5 -44 q4.5 -25 16.5 -37 q12 -12 27 -12 q15 0 25 10 q20 19 20 71 l0 12 ZM321.5 629.5 q19.5 -19.5 19.5 -46.5 q0 -27 -19.5 -46.5 q-19.5 -19.5 -46.5 -19.5 q-27 0 -46.5 19.5 q-19.5 19.5 -19.5 46.5 q0 27 19.5 46.5 q19.5 19.5 46.5 19.5 q27 0 46.5 -19.5 ZM144.5 629.5 q19.5 -19.5 19.5 -46.5 q0 -27 -19.5 -46.5 q-19.5 -19.5 -46.5 -19.5 q-27 0 -46.5 19.5 q-19.5 19.5 -19.5 46.5 q0 27 19.5 46.5 q19.5 19.5 46.5 19.5 q27 0 46.5 -19.5 Z" /><glyph glyph-name="uni04DC" unicode="&#x4dc;" d="M608 0 l-134 0 l-103 335 l0 -335 l-126 0 l0 335 l-103 -335 l-134 0 l120 362 l-121 305 l131 0 l107 -302 l0 302 l126 0 l0 -302 l107 302 l131 0 l-121 -305 l120 -362 ZM435.5 836.5 q19.5 -19.5 19.5 -46.5 q0 -27 -19.5 -46.5 q-19.5 -19.5 -46.5 -19.5 q-27 0 -46.5 19.5 q-19.5 19.5 -19.5 46.5 q0 27 19.5 46.5 q19.5 19.5 46.5 19.5 q27 0 46.5 -19.5 ZM265.5 836.5 q19.5 -19.5 19.5 -46.5 q0 -27 -19.5 -46.5 q-19.5 -19.5 -46.5 -19.5 q-27 0 -46.5 19.5 q-19.5 19.5 -19.5 46.5 q0 27 19.5 46.5 q19.5 19.5 46.5 19.5 q27 0 46.5 -19.5 Z" /><glyph glyph-name="uni04DD" unicode="&#x4dd;" d="M506 0 l-127 0 l-66 206 l0 -206 l-117 0 l0 206 l-66 -206 l-127 0 l94 234 l-95 213 l128 0 l66 -206 l0 206 l117 0 l0 -206 l66 206 l128 0 l-94 -213 l93 -234 ZM384.5 629.5 q19.5 -19.5 19.5 -46.5 q0 -27 -19.5 -46.5 q-19.5 -19.5 -46.5 -19.5 q-27 0 -46.5 19.5 q-19.5 19.5 -19.5 46.5 q0 27 19.5 46.5 q19.5 19.5 46.5 19.5 q27 0 46.5 -19.5 ZM207.5 629.5 q19.5 -19.5 19.5 -46.5 q0 -27 -19.5 -46.5 q-19.5 -19.5 -46.5 -19.5 q-27 0 -46.5 19.5 q-19.5 19.5 -19.5 46.5 q0 27 19.5 46.5 q19.5 19.5 46.5 19.5 q27 0 46.5 -19.5 Z" /><glyph glyph-name="uni04DE" unicode="&#x4de;" d="M47 496 l0 137 q58 44 132 44 q87 0 136 -51 q48 -49 48 -130 q0 -57 -23 -95 q-23 -38 -63 -52 q43 -12 71 -45 q35 -42 35 -106 q0 -99 -61 -158 q-53 -51 -143 -51 q-80 0 -134 42 l0 136 q22 -26 47 -39 q27 -15 59 -15 q41 0 63 22 q24 23 24 63 q0 40 -21 61 q-25 24 -82 24 l-18 0 l0 118 l14 0 q51 0 74 19 q24 19 24 60 q0 33 -22 55 q-23 20 -56 20 q-32 0 -60 -18 q-26 -17 -44 -41 ZM319.5 836.5 q19.5 -19.5 19.5 -46.5 q0 -27 -19.5 -46.5 q-19.5 -19.5 -46.5 -19.5 q-27 0 -46.5 19.5 q-19.5 19.5 -19.5 46.5 q0 27 19.5 46.5 q19.5 19.5 46.5 19.5 q27 0 46.5 -19.5 ZM149.5 836.5 q19.5 -19.5 19.5 -46.5 q0 -27 -19.5 -46.5 q-19.5 -19.5 -46.5 -19.5 q-27 0 -46.5 19.5 q-19.5 19.5 -19.5 46.5 q0 27 19.5 46.5 q19.5 19.5 46.5 19.5 q27 0 46.5 -19.5 Z" /><glyph glyph-name="uni04DF" unicode="&#x4df;" d="M256 234 q34 -11 52 -30 q27 -27 27 -69 q0 -61 -43 -102 q-43 -42 -117 -42 q-50 0 -88 15 q-27 10 -62 37 l54 93 q14 -16 33 -26 q17 -9 42 -9 q25 0 38 11 q13 12 13 29 q0 18 -13 27 q-16 11 -55 11 l-22 0 l0 94 l19 0 q27 0 42 7 q21 10 21 32 q0 16 -13 27 q-13 10 -36 10 q-24 0 -43 -13 q-16 -10 -29 -27 l-46 98 q26 18 53 31 q37 17 86 17 q80 0 121 -43 q31 -33 31 -83 q0 -37 -19 -62 q-17 -22 -46 -33 ZM311.5 629.5 q19.5 -19.5 19.5 -46.5 q0 -27 -19.5 -46.5 q-19.5 -19.5 -46.5 -19.5 q-27 0 -46.5 19.5 q-19.5 19.5 -19.5 46.5 q0 27 19.5 46.5 q19.5 19.5 46.5 19.5 q27 0 46.5 -19.5 ZM134.5 629.5 q19.5 -19.5 19.5 -46.5 q0 -27 -19.5 -46.5 q-19.5 -19.5 -46.5 -19.5 q-27 0 -46.5 19.5 q-19.5 19.5 -19.5 46.5 q0 27 19.5 46.5 q19.5 19.5 46.5 19.5 q27 0 46.5 -19.5 Z" /><glyph glyph-name="uni04E2" unicode="&#x4e2;" d="M47 0 l0 667 l130 0 l0 -290 q0 -59 -11 -120 l152 410 l122 0 l0 -667 l-130 0 l0 292 q0 60 9 123 l-150 -415 l-122 0 ZM383 738 l-286 0 l0 80 l286 0 l0 -80 Z" /><glyph glyph-name="uni04E3" unicode="&#x4e3;" d="M40 447 l118 0 l0 -159 q0 -52 -9 -117 q13 47 32 94 l73 182 l111 0 l0 -447 l-118 0 l0 166 q0 44 8 114 q-14 -59 -35 -111 l-69 -169 l-111 0 l0 447 ZM346 531 l-286 0 l0 80 l286 0 l0 -80 Z" /><glyph glyph-name="uni04E4" unicode="&#x4e4;" d="M47 0 l0 667 l130 0 l0 -290 q0 -59 -11 -120 l152 410 l122 0 l0 -667 l-130 0 l0 292 q0 60 9 123 l-150 -415 l-122 0 ZM371.5 836.5 q19.5 -19.5 19.5 -46.5 q0 -27 -19.5 -46.5 q-19.5 -19.5 -46.5 -19.5 q-27 0 -46.5 19.5 q-19.5 19.5 -19.5 46.5 q0 27 19.5 46.5 q19.5 19.5 46.5 19.5 q27 0 46.5 -19.5 ZM201.5 836.5 q19.5 -19.5 19.5 -46.5 q0 -27 -19.5 -46.5 q-19.5 -19.5 -46.5 -19.5 q-27 0 -46.5 19.5 q-19.5 19.5 -19.5 46.5 q0 27 19.5 46.5 q19.5 19.5 46.5 19.5 q27 0 46.5 -19.5 Z" /><glyph glyph-name="uni04E5" unicode="&#x4e5;" d="M40 447 l118 0 l0 -159 q0 -52 -9 -117 q13 47 32 94 l73 182 l111 0 l0 -447 l-118 0 l0 166 q0 44 8 114 q-14 -59 -35 -111 l-69 -169 l-111 0 l0 447 ZM337.5 629.5 q19.5 -19.5 19.5 -46.5 q0 -27 -19.5 -46.5 q-19.5 -19.5 -46.5 -19.5 q-27 0 -46.5 19.5 q-19.5 19.5 -19.5 46.5 q0 27 19.5 46.5 q19.5 19.5 46.5 19.5 q27 0 46.5 -19.5 ZM160.5 629.5 q19.5 -19.5 19.5 -46.5 q0 -27 -19.5 -46.5 q-19.5 -19.5 -46.5 -19.5 q-27 0 -46.5 19.5 q-19.5 19.5 -19.5 46.5 q0 27 19.5 46.5 q19.5 19.5 46.5 19.5 q27 0 46.5 -19.5 Z" /><glyph glyph-name="uni04E6" unicode="&#x4e6;" d="M423 610 q82 -86 82 -277 q0 -191 -82 -277 q-63 -67 -152 -67 q-89 0 -152 67 q-82 86 -82 277 q0 191 82 277 q63 67 152 67 q89 0 152 -67 ZM319 534 q-21 22 -48 22 q-27 0 -48 -22 q-46 -46 -46 -198 q0 -152 46 -198 q21 -22 48 -22 q27 0 48 22 q46 46 46 198 q0 152 -46 198 ZM400.5 836.5 q19.5 -19.5 19.5 -46.5 q0 -27 -19.5 -46.5 q-19.5 -19.5 -46.5 -19.5 q-27 0 -46.5 19.5 q-19.5 19.5 -19.5 46.5 q0 27 19.5 46.5 q19.5 19.5 46.5 19.5 q27 0 46.5 -19.5 ZM230.5 836.5 q19.5 -19.5 19.5 -46.5 q0 -27 -19.5 -46.5 q-19.5 -19.5 -46.5 -19.5 q-27 0 -46.5 19.5 q-19.5 19.5 -19.5 46.5 q0 27 19.5 46.5 q19.5 19.5 46.5 19.5 q27 0 46.5 -19.5 Z" /><glyph glyph-name="uni04E7" unicode="&#x4e7;" d="M304 416 q61 -59 61 -193 q0 -134 -61 -193 q-41 -39 -108 -39 q-67 0 -108 39 q-61 59 -61 193 q0 134 61 193 q41 39 108 39 q67 0 108 -39 ZM219 330 q-9 13 -23 13 q-14 0 -23 -13 q-20 -29 -20 -107 q0 -78 20 -107 q9 -13 23 -13 q14 0 23 13 q20 29 20 107 q0 78 -20 107 ZM326.5 629.5 q19.5 -19.5 19.5 -46.5 q0 -27 -19.5 -46.5 q-19.5 -19.5 -46.5 -19.5 q-27 0 -46.5 19.5 q-19.5 19.5 -19.5 46.5 q0 27 19.5 46.5 q19.5 19.5 46.5 19.5 q27 0 46.5 -19.5 ZM149.5 629.5 q19.5 -19.5 19.5 -46.5 q0 -27 -19.5 -46.5 q-19.5 -19.5 -46.5 -19.5 q-27 0 -46.5 19.5 q-19.5 19.5 -19.5 46.5 q0 27 19.5 46.5 q19.5 19.5 46.5 19.5 q27 0 46.5 -19.5 Z" /><glyph glyph-name="uni04E8" unicode="&#x4e8;" d="M423 610 q82 -86 82 -277 q0 -191 -82 -277 q-63 -67 -152 -67 q-89 0 -152 67 q-82 86 -82 277 q0 191 82 277 q63 67 152 67 q89 0 152 -67 ZM181 400 l180 0 q0 36 -11 75.5 q-11 39.5 -31 59.5 q-21 21 -48 21 q-27 0 -48 -21 q-42 -41 -42 -135 ZM363 283 l-184 0 q3 -104 44 -146 q20 -21 48 -21 q28 0 48 21 q40 43 44 146 Z" /><glyph glyph-name="uni04E9" unicode="&#x4e9;" d="M304 416 q61 -59 61 -193 q0 -134 -61 -193 q-41 -39 -108 -39 q-67 0 -108 39 q-61 59 -61 193 q0 134 61 193 q41 39 108 39 q67 0 108 -39 ZM157 268 l78 0 q0 45 -16 68 q-9 13 -23 13 q-14 0 -23 -13 q-16 -23 -16 -68 ZM156 184 q0 -55 20 -78 q8 -9 20 -9 q12 0 20 9 q20 23 20 78 l-80 0 Z" /><glyph glyph-name="uni04EA" unicode="&#x4ea;" d="M423 610 q82 -86 82 -277 q0 -191 -82 -277 q-63 -67 -152 -67 q-89 0 -152 67 q-82 86 -82 277 q0 191 82 277 q63 67 152 67 q89 0 152 -67 ZM181 400 l180 0 q0 36 -11 75.5 q-11 39.5 -31 59.5 q-21 21 -48 21 q-27 0 -48 -21 q-42 -41 -42 -135 ZM363 283 l-184 0 q3 -104 44 -146 q20 -21 48 -21 q28 0 48 21 q40 43 44 146 ZM402.5 836.5 q19.5 -19.5 19.5 -46.5 q0 -27 -19.5 -46.5 q-19.5 -19.5 -46.5 -19.5 q-27 0 -46.5 19.5 q-19.5 19.5 -19.5 46.5 q0 27 19.5 46.5 q19.5 19.5 46.5 19.5 q27 0 46.5 -19.5 ZM232.5 836.5 q19.5 -19.5 19.5 -46.5 q0 -27 -19.5 -46.5 q-19.5 -19.5 -46.5 -19.5 q-27 0 -46.5 19.5 q-19.5 19.5 -19.5 46.5 q0 27 19.5 46.5 q19.5 19.5 46.5 19.5 q27 0 46.5 -19.5 Z" /><glyph glyph-name="uni04EB" unicode="&#x4eb;" d="M304 416 q61 -59 61 -193 q0 -134 -61 -193 q-41 -39 -108 -39 q-67 0 -108 39 q-61 59 -61 193 q0 134 61 193 q41 39 108 39 q67 0 108 -39 ZM157 268 l78 0 q0 45 -16 68 q-9 13 -23 13 q-14 0 -23 -13 q-16 -23 -16 -68 ZM156 184 q0 -55 20 -78 q8 -9 20 -9 q12 0 20 9 q20 23 20 78 l-80 0 ZM331.5 629.5 q19.5 -19.5 19.5 -46.5 q0 -27 -19.5 -46.5 q-19.5 -19.5 -46.5 -19.5 q-27 0 -46.5 19.5 q-19.5 19.5 -19.5 46.5 q0 27 19.5 46.5 q19.5 19.5 46.5 19.5 q27 0 46.5 -19.5 ZM154.5 629.5 q19.5 -19.5 19.5 -46.5 q0 -27 -19.5 -46.5 q-19.5 -19.5 -46.5 -19.5 q-27 0 -46.5 19.5 q-19.5 19.5 -19.5 46.5 q0 27 19.5 46.5 q19.5 19.5 46.5 19.5 q27 0 46.5 -19.5 Z" /><glyph glyph-name="uni04EE" unicode="&#x4ee;" d="M8 667 l142 0 l52 -162 q19 -57 28 -115 q19 88 29 118 l50 159 l140 0 l-232 -667 l-132 0 l76 230 l-153 437 ZM372 738 l-286 0 l0 80 l286 0 l0 -80 Z" /><glyph glyph-name="uni04EF" unicode="&#x4ef;" d="M369 447 l-188 -653 l-123 0 l69 215 l-130 438 l125 0 l43 -163 q16 -59 20 -92 l59 255 l125 0 ZM326 531 l-286 0 l0 80 l286 0 l0 -80 Z" /><glyph glyph-name="uni04F0" unicode="&#x4f0;" d="M8 667 l142 0 l52 -162 q19 -57 28 -115 q19 88 29 118 l50 159 l140 0 l-232 -667 l-132 0 l76 230 l-153 437 ZM360.5 836.5 q19.5 -19.5 19.5 -46.5 q0 -27 -19.5 -46.5 q-19.5 -19.5 -46.5 -19.5 q-27 0 -46.5 19.5 q-19.5 19.5 -19.5 46.5 q0 27 19.5 46.5 q19.5 19.5 46.5 19.5 q27 0 46.5 -19.5 ZM190.5 836.5 q19.5 -19.5 19.5 -46.5 q0 -27 -19.5 -46.5 q-19.5 -19.5 -46.5 -19.5 q-27 0 -46.5 19.5 q-19.5 19.5 -19.5 46.5 q0 27 19.5 46.5 q19.5 19.5 46.5 19.5 q27 0 46.5 -19.5 Z" /><glyph glyph-name="uni04F1" unicode="&#x4f1;" d="M369 447 l-188 -653 l-123 0 l69 215 l-130 438 l125 0 l43 -163 q16 -59 20 -92 l59 255 l125 0 ZM319.5 629.5 q19.5 -19.5 19.5 -46.5 q0 -27 -19.5 -46.5 q-19.5 -19.5 -46.5 -19.5 q-27 0 -46.5 19.5 q-19.5 19.5 -19.5 46.5 q0 27 19.5 46.5 q19.5 19.5 46.5 19.5 q27 0 46.5 -19.5 ZM142.5 629.5 q19.5 -19.5 19.5 -46.5 q0 -27 -19.5 -46.5 q-19.5 -19.5 -46.5 -19.5 q-27 0 -46.5 19.5 q-19.5 19.5 -19.5 46.5 q0 27 19.5 46.5 q19.5 19.5 46.5 19.5 q27 0 46.5 -19.5 Z" /><glyph glyph-name="uni04F2" unicode="&#x4f2;" d="M8 667 l142 0 l52 -162 q19 -57 28 -115 q19 88 29 118 l50 159 l140 0 l-232 -667 l-132 0 l76 230 l-153 437 ZM395 846 l-85 -122 l-57 36 l60 128 l82 -42 ZM258 846 l-86 -122 l-57 36 l60 128 l83 -42 Z" /><glyph glyph-name="uni04F3" unicode="&#x4f3;" d="M369 447 l-188 -653 l-123 0 l69 215 l-130 438 l125 0 l43 -163 q16 -59 20 -92 l59 255 l125 0 ZM333 639 l-85 -122 l-57 36 l60 128 l82 -42 ZM196 639 l-86 -122 l-57 36 l60 128 l83 -42 Z" /><glyph glyph-name="uni04F4" unicode="&#x4f4;" d="M299 0 l0 292 q-41 -11 -86 -11 q-69 0 -110 29 q-36 25 -47 62.5 q-11 37.5 -11 91.5 l0 203 l132 0 l0 -191 q0 -39 16 -55 q15 -15 51 -15 q31 0 55 9 l0 252 l132 0 l0 -667 l-132 0 ZM370.5 836.5 q19.5 -19.5 19.5 -46.5 q0 -27 -19.5 -46.5 q-19.5 -19.5 -46.5 -19.5 q-27 0 -46.5 19.5 q-19.5 19.5 -19.5 46.5 q0 27 19.5 46.5 q19.5 19.5 46.5 19.5 q27 0 46.5 -19.5 ZM200.5 836.5 q19.5 -19.5 19.5 -46.5 q0 -27 -19.5 -46.5 q-19.5 -19.5 -46.5 -19.5 q-27 0 -46.5 19.5 q-19.5 19.5 -19.5 46.5 q0 27 19.5 46.5 q19.5 19.5 46.5 19.5 q27 0 46.5 -19.5 Z" /><glyph glyph-name="uni04F5" unicode="&#x4f5;" d="M222 0 l0 184 q-30 -10 -63 -10 q-63 0 -95 32 q-34 34 -34 106 l0 135 l122 0 l0 -126 q0 -24 10 -34 q11 -9 29 -9 q15 0 31 6 l0 163 l125 0 l0 -447 l-125 0 ZM323.5 629.5 q19.5 -19.5 19.5 -46.5 q0 -27 -19.5 -46.5 q-19.5 -19.5 -46.5 -19.5 q-27 0 -46.5 19.5 q-19.5 19.5 -19.5 46.5 q0 27 19.5 46.5 q19.5 19.5 46.5 19.5 q27 0 46.5 -19.5 ZM146.5 629.5 q19.5 -19.5 19.5 -46.5 q0 -27 -19.5 -46.5 q-19.5 -19.5 -46.5 -19.5 q-27 0 -46.5 19.5 q-19.5 19.5 -19.5 46.5 q0 27 19.5 46.5 q19.5 19.5 46.5 19.5 q27 0 46.5 -19.5 Z" /><glyph glyph-name="uni04F8" unicode="&#x4f8;" d="M579 0 l-132 0 l0 667 l132 0 l0 -667 ZM52 667 l132 0 l0 -261 l4 0 q107 0 163 -55 q57 -55 57 -156 q0 -94 -50 -143 q-53 -52 -162 -52 l-144 0 l0 667 ZM184 292 l0 -178 l4 0 q51 0 72 20 q22 22 22 66 q0 45 -25 69 q-25 23 -70 23 l-3 0 ZM440.5 836.5 q19.5 -19.5 19.5 -46.5 q0 -27 -19.5 -46.5 q-19.5 -19.5 -46.5 -19.5 q-27 0 -46.5 19.5 q-19.5 19.5 -19.5 46.5 q0 27 19.5 46.5 q19.5 19.5 46.5 19.5 q27 0 46.5 -19.5 ZM270.5 836.5 q19.5 -19.5 19.5 -46.5 q0 -27 -19.5 -46.5 q-19.5 -19.5 -46.5 -19.5 q-27 0 -46.5 19.5 q-19.5 19.5 -19.5 46.5 q0 27 19.5 46.5 q19.5 19.5 46.5 19.5 q27 0 46.5 -19.5 Z" /><glyph glyph-name="uni04F9" unicode="&#x4f9;" d="M507 0 l-125 0 l0 447 l125 0 l0 -447 ZM40 447 l125 0 l0 -164 l28 0 q78 0 119 -41 q39 -37 39 -103 q0 -66 -39 -103 q-38 -36 -114 -36 l-158 0 l0 447 ZM165 88 l6 0 q29 0 43 11 q17 13 17 42 q0 25 -14 39 q-15 15 -50 15 l-2 0 l0 -107 ZM403.5 629.5 q19.5 -19.5 19.5 -46.5 q0 -27 -19.5 -46.5 q-19.5 -19.5 -46.5 -19.5 q-27 0 -46.5 19.5 q-19.5 19.5 -19.5 46.5 q0 27 19.5 46.5 q19.5 19.5 46.5 19.5 q27 0 46.5 -19.5 ZM226.5 629.5 q19.5 -19.5 19.5 -46.5 q0 -27 -19.5 -46.5 q-19.5 -19.5 -46.5 -19.5 q-27 0 -46.5 19.5 q-19.5 19.5 -19.5 46.5 q0 27 19.5 46.5 q19.5 19.5 46.5 19.5 q27 0 46.5 -19.5 Z" /><glyph glyph-name="uni1E9E" unicode="&#x1e9e;" d="M184 507 l0 -507 l-132 0 l0 491 q0 90 51 140 q47 46 118 46 q79 0 124 -42 q47 -45 49 -132 q0 -22 -1 -31 l-72 -91 q40 -18 61 -57 q22 -39 22 -105 q0 -110 -45 -173 q-6 -8 -12.5 -15 q-6.5 -7 -12 -12 q-5.5 -5 -12 -9 q-6.5 -4 -11.5 -6.5 q-5 -2.5 -12 -4 q-7 -1.5 -10.5 -2.5 q-3.5 -1 -10 -1.5 q-6.5 -0.5 -9 -0.5 q-2.5 0 -8.5 0 q-6 0 -7 0 q-22 0 -37 5 l0 112 q25 0 37 13 q20 21 20 95 q0 52 -15 75 q-13 18 -42 20 l0 88 l51 71 q1 4 1 23 q0 37 -8 52 q-11 19 -34 19 q-22 0 -33 -16 q-10 -15 -10 -45 Z" /><glyph glyph-name="uni2010" unicode="&#x2010;" d="M218 191 l-168 0 l0 108 l168 0 l0 -108 Z" /><glyph glyph-name="uni2011" unicode="&#x2011;" d="M218 191 l-168 0 l0 108 l168 0 l0 -108 Z" /><glyph glyph-name="figuredash" unicode="&#x2012;" d="M504 288 l-434 0 l0 100 l434 0 l0 -100 Z" /><glyph glyph-name="endash" unicode="&#x2013;" d="M504 195 l-434 0 l0 100 l434 0 l0 -100 Z" /><glyph glyph-name="emdash" unicode="&#x2014;" d="M750 295 l0 -100 l-680 0 l0 100 l680 0 Z" /><glyph glyph-name="afii00208" unicode="&#x2015;" d="M750 295 l0 -100 l-680 0 l0 100 l680 0 Z" /><glyph glyph-name="quoteleft" unicode="&#x2018;" d="M30 443 l133 270 l88 0 l-88 -270 l-133 0 Z" /><glyph glyph-name="quoteright" unicode="&#x2019;" d="M251 713 l-133 -270 l-88 0 l88 270 l133 0 Z" /><glyph glyph-name="quotesinglbase" unicode="&#x201a;" d="M228 121 l-133 -270 l-88 0 l88 270 l133 0 Z" /><glyph glyph-name="quotedblleft" unicode="&#x201c;" d="M418 713 l-88 -270 l-133 0 l133 270 l88 0 ZM251 713 l-88 -270 l-133 0 l133 270 l88 0 Z" /><glyph glyph-name="quotedblright" unicode="&#x201d;" d="M418 713 l-133 -270 l-88 0 l88 270 l133 0 ZM251 713 l-133 -270 l-88 0 l88 270 l133 0 Z" /><glyph glyph-name="quotedblbase" unicode="&#x201e;" d="M244 121 l-133 -270 l-88 0 l88 270 l133 0 ZM417 121 l-133 -270 l-88 0 l88 270 l133 0 Z" /><glyph glyph-name="dagger" unicode="&#x2020;" d="M390 439 l-111 0 l0 -632 l-125 0 l0 632 l-111 0 l0 117 l111 0 l0 173 l125 0 l0 -173 l111 0 l0 -117 Z" /><glyph glyph-name="daggerdbl" unicode="&#x2021;" d="M390 100 l-111 0 l0 -293 l-125 0 l0 293 l-111 0 l0 117 l111 0 l0 222 l-111 0 l0 117 l111 0 l0 173 l125 0 l0 -173 l111 0 l0 -117 l-111 0 l0 -222 l111 0 l0 -117 Z" /><glyph glyph-name="bullet" unicode="&#x2022;" d="M598 438.5 q40 -41.5 40 -98.5 q0 -57 -40 -98.5 q-40 -41.5 -97 -41.5 q-57 0 -97.5 41.5 q-40.5 41.5 -40.5 98.5 q0 57 40.5 98.5 q40.5 41.5 97.5 41.5 q57 0 97 -41.5 Z" /><glyph glyph-name="ellipsis" unicode="&#x2026;" d="M680 134 q23 -23 23 -55 q0 -32 -23 -55.5 q-23 -23.5 -55 -23.5 q-32 0 -55.5 23.5 q-23.5 23.5 -23.5 55.5 q0 32 23.5 55 q23.5 23 55.5 23 q32 0 55 -23 ZM430 134 q23 -23 23 -55 q0 -32 -23 -55.5 q-23 -23.5 -55 -23.5 q-32 0 -55.5 23.5 q-23.5 23.5 -23.5 55.5 q0 32 23.5 55 q23.5 23 55.5 23 q32 0 55 -23 ZM180 134 q23 -23 23 -55 q0 -32 -23 -55.5 q-23 -23.5 -55 -23.5 q-32 0 -55.5 23.5 q-23.5 23.5 -23.5 55.5 q0 32 23.5 55 q23.5 23 55.5 23 q32 0 55 -23 Z" /><glyph glyph-name="perthousand" unicode="&#x2030;" d="M556 667 l-289 -667 l-87 0 l291 667 l85 0 ZM303 504 q0 -44 -10.5 -80.5 q-10.5 -36.5 -42.5 -65.5 q-32 -29 -82 -29 q-38 0 -65.5 16 q-27.5 16 -42 43 q-14.5 27 -21 55.5 q-6.5 28.5 -6.5 58.5 q0 40 10.5 75.5 q10.5 35.5 42.5 64.5 q32 29 82 29 q38 0 66 -16 q28 -16 42 -42.5 q14 -26.5 20.5 -53.5 q6.5 -27 6.5 -55 ZM202 505 q0 76 -32 76 q-31 0 -31 -76 q0 -85 31 -85 q32 0 32 85 ZM597 169 q0 76 -32 76 q-31 0 -31 -76 q0 -85 31 -85 q32 0 32 85 ZM698 168 q0 -44 -10.5 -80.5 q-10.5 -36.5 -42.5 -65.5 q-32 -29 -82 -29 q-38 0 -65.5 16 q-27.5 16 -42 43 q-14.5 27 -21 55.5 q-6.5 28.5 -6.5 58.5 q0 40 10.5 75.5 q10.5 35.5 42.5 64.5 q32 29 82 29 q38 0 66 -16 q28 -16 42 -42.5 q14 -26.5 20.5 -53.5 q6.5 -27 6.5 -55 ZM919 169 q0 76 -32 76 q-31 0 -31 -76 q0 -85 31 -85 q32 0 32 85 ZM1020 168 q0 -44 -10.5 -80.5 q-10.5 -36.5 -42.5 -65.5 q-32 -29 -82 -29 q-38 0 -65.5 16 q-27.5 16 -42 43 q-14.5 27 -21 55.5 q-6.5 28.5 -6.5 58.5 q0 40 10.5 75.5 q10.5 35.5 42.5 64.5 q32 29 82 29 q38 0 66 -16 q28 -16 42 -42.5 q14 -26.5 20.5 -53.5 q6.5 -27 6.5 -55 Z" /><glyph glyph-name="guilsinglleft" unicode="&#x2039;" d="M213 66 l-68 -38 l-115 206 l115 206 l68 -34 l-91 -172 l91 -168 Z" /><glyph glyph-name="guilsinglright" unicode="&#x203a;" d="M213 234 l-116 -206 l-67 38 l91 168 l-91 172 l67 34 l116 -206 Z" /><glyph glyph-name="fraction" unicode="&#x2044;" d="M264 667 l-318 -667 l-77 0 l318 667 l77 0 Z" /><glyph glyph-name="Euro" unicode="&#x20ac;" d="M407 152 l0 -138 q-38 -21 -91 -21 q-98 0 -158 60 q-69 68 -86 195 l-83 0 l29 68 l52 0 l0 55 l-81 0 l29 68 l61 0 q18 99 85 168 q67 67 160 67 q42 0 83 -19 l0 -136 q-32 29 -73 29 q-43 0 -73 -30 q-28 -28 -41 -79 l193 0 l-29 -68 l-177 0 q-1 -9 -1 -27 q0 -19 1 -28 l157 0 l-29 -68 l-123 0 q12 -63 41 -96 q28 -32 75 -32 q44 0 79 32 Z" /><glyph glyph-name="uni20B4" unicode="&#x20b4;" d="M92 516 l0 129 q32 14 54 20 q38 11 85 11 q70 0 109 -33 q43 -37 43 -102 q0 -60 -34 -102 l70 0 l0 -68 l-105 0 l-46 -55 l151 0 l0 -68 l-198 0 q-34 -39 -34 -77 q0 -31 22 -46 q18 -12 51 -12 q29 0 58 11 q24 10 45 25 l0 -126 q-9 -9 -57 -22 q-38 -11 -77 -11 q-74 0 -121 37 q-50 39 -50 114 q0 61 35 107 l-68 0 l0 68 l109 0 l46 55 l-155 0 l0 68 l200 0 q28 27 28 59 q0 29 -17 45 q-17 16 -48 16 q-28 0 -56 -15 q-25 -14 -40 -28 Z" /><glyph glyph-name="uni20B6" unicode="&#x20b6;&#x20b7;&#x20b9;&#x20ba;&#x20bb;&#x20bc;&#x20bd;&#x20be;&#x20bf;&#x20c0;&#x20c1;&#x20c2;&#x20c3;&#x20c4;&#x20c5;&#x20c6;&#x20c7;&#x20c8;&#x20c9;&#x20ca;&#x20cb;&#x20cc;&#x20cd;&#x20ce;&#x20cf;" d="M227 667 q73 0 112 -22 q44 -25 67.5 -73 q23.5 -48 23.5 -103 q0 -98 -56.5 -142.5 q-56.5 -44.5 -174.5 -44.5 l0 -55 l110 0 l0 -68 l-110 0 l0 -159 l-132 0 l0 159 l-64 0 l0 68 l64 0 l0 55 l-64 0 l0 90 l64 0 l0 295 l160 0 ZM199 372 l8 0 q47 0 69.5 22 q22.5 22 22.5 76 q0 90 -77 90 l-23 0 l0 -188 Z" /><glyph glyph-name="uni20B8" unicode="&#x20b8;" d="M386 415 l-104 0 l0 -415 l-132 0 l0 415 l-103 0 l0 112 l339 0 l0 -112 ZM386 575 l-339 0 l0 92 l339 0 l0 -92 Z" /><glyph glyph-name="afii61352" unicode="&#x2116;" d="M465 0 l-124 0 l-164 402 q7 -35 7 -76 l0 -326 l-132 0 l0 667 l125 0 l164 -403 q-10 50 -10 90 l0 313 l134 0 l0 -667 ZM761 520 q0 -68 -30 -112.5 q-30 -44.5 -95 -44.5 q-64 0 -95.5 45.5 q-31.5 45.5 -31.5 111.5 q0 66 31.5 111.5 q31.5 45.5 94.5 45.5 q66 0 96 -44 q30 -44 30 -113 ZM750 227 l-223 0 l0 80 l223 0 l0 -80 ZM635 446 q27 0 27 74 q0 74 -27 74 q-28 0 -28 -74 q0 -74 28 -74 Z" /><glyph glyph-name="uni2117" unicode="&#x2117;" d="M633 578 q101 -102 101 -245 q0 -143 -101 -245 q-101 -103 -246 -103 q-145 0 -246 103 q-101 102 -101 245 q0 143 101 245 q101 103 246 103 q145 0 246 -103 ZM576 545 q-79 76 -189 76 q-110 0 -189 -76 q-90 -87 -90 -211 q0 -125 90 -212 q79 -76 189 -76 q110 0 189 76 q90 87 90 212 q0 124 -90 211 ZM291 535 l98 0 q73 0 105 -31 q31 -31 31 -87 q0 -57 -30 -85 q-30 -30 -95 -30 l-19 0 l0 -157 l-90 0 l0 390 ZM381 370 l6 0 q29 0 40 12 q13 13 13 38 q0 25 -11 36 q-11 11 -34 11 l-14 0 l0 -97 Z" /><glyph glyph-name="trademark" unicode="&#x2122;" d="M592 287 l-89 0 l-17 230 l-45 -230 l-68 0 l-49 225 l-11 -225 l-93 0 l36 380 l112 0 l37 -203 l30 203 l114 0 l43 -380 ZM211 591 l-64 0 l0 -304 l-87 0 l0 304 l-63 0 l0 76 l214 0 l0 -76 Z" /><glyph glyph-name="partialdiff" unicode="&#x2202;" d="M57 556 l16 109 q185 -20 285 -106 q127 -109 127 -292 q0 -119 -63.5 -197.5 q-63.5 -78.5 -180.5 -78.5 q-96 0 -163.5 66 q-67.5 66 -67.5 162 q0 89 59 151 q59 62 148 62 q76 0 124 -47 q-71 153 -284 171 ZM320 136.5 q30 33.5 30 80.5 q0 47 -30 79 q-30 32 -77 32 q-45 0 -74.5 -33 q-29.5 -33 -29.5 -78 q0 -47 29 -80.5 q29 -33.5 76 -33.5 q46 0 76 33.5 Z" /><glyph glyph-name="product" unicode="&#x220f;" d="M691 -250 l-289 0 l0 112 l80 0 l0 776 l-234 0 l0 -776 l79 0 l0 -112 l-287 0 l0 112 l83 0 l0 776 l-83 0 l0 112 l651 0 l0 -112 l-82 0 l0 -776 l82 0 l0 -112 Z" /><glyph glyph-name="summation" unicode="&#x2211;" d="M627 -250 l-606 0 l0 125 l244 392 l-244 358 l0 125 l597 0 l0 -245 l-112 0 l-13 133 l-331 0 l250 -371 l-250 -405 l340 0 l8 136 l117 0 l0 -248 Z" /><glyph glyph-name="minus" unicode="&#x2212;" d="M467 282 l-434 0 l0 115 l434 0 l0 -115 Z" /><glyph glyph-name="fraction" unicode="&#x2215;" d="M449 729 l-367 -922 l-112 0 l370 922 l109 0 Z" /><glyph glyph-name="periodcentered" unicode="&#x2219;" d="M213.5 405.5 q29.5 -29.5 29.5 -71.5 q0 -42 -29.5 -71.5 q-29.5 -29.5 -71.5 -29.5 q-42 0 -71.5 29.5 q-29.5 29.5 -29.5 71.5 q0 42 29.5 71.5 q29.5 29.5 71.5 29.5 q42 0 71.5 -29.5 Z" /><glyph glyph-name="radical" unicode="&#x221a;" d="M667 714 l-180 0 l-170 -714 l-165 0 l-59 273 l-93 0 l0 112 l197 0 l19 -88 q11 -54 15 -145 l10 0 q10 138 47 295 l90 380 l289 0 l0 -113 Z" /><glyph glyph-name="infinity" unicode="&#x221e;" d="M604 456 q46 -45 46 -116 q0 -71 -45.5 -117 q-45.5 -46 -115.5 -46 q-85 0 -153 81 q-71 -81 -157 -81 q-71 0 -116.5 46 q-45.5 46 -45.5 117 q0 70 45.5 115.5 q45.5 45.5 115.5 45.5 q83 0 153 -80 q66 80 156 80 q71 0 117 -45 ZM521 340 q0 20 -16 34.5 q-16 14.5 -37 14.5 q-39 0 -73 -50 q37 -50 73 -50 q22 0 37.5 14.5 q15.5 14.5 15.5 36.5 ZM272 339 q-38 50 -73 50 q-21 0 -37 -14.5 q-16 -14.5 -16 -35.5 q0 -21 16 -35.5 q16 -14.5 37 -14.5 q38 0 73 50 Z" /><glyph glyph-name="integral" unicode="&#x222b;" d="M449 740 l-23 -112 q-33 11 -55 11 q-57 0 -57 -71 l0 -550 q0 -10 0.5 -29 q0.5 -19 0.5 -29 q0 -106 -36 -152 q-45 -58 -137 -58 q-41 0 -91 10 l22 112 q33 -11 56 -11 q20 0 32 7 q12 7 17 22 q5 15 6.5 27.5 q1.5 12.5 1.5 32.5 q0 99 -0.5 297 q-0.5 198 -0.5 298 q0 65 11 100 q16 53 60 79 q44 26 103 26 q40 0 90 -10 Z" /><glyph glyph-name="approxequal" unicode="&#x2248;" d="M422 524 l71 -41 q-29 -63 -64 -97.5 q-35 -34.5 -94 -34.5 q-33 0 -93 25.5 q-60 25.5 -92 25.5 q-28 0 -43.5 -15.5 q-15.5 -15.5 -30.5 -46.5 l-69 45 q27 66 59 101.5 q32 35.5 92 35.5 q34 0 96 -25 q62 -25 94 -25 q28 0 43 12 q15 12 31 40 ZM422 324 l71 -41 q-29 -63 -64 -97.5 q-35 -34.5 -94 -34.5 q-33 0 -93 25.5 q-60 25.5 -92 25.5 q-28 0 -43.5 -15.5 q-15.5 -15.5 -30.5 -46.5 l-69 45 q27 67 59 102 q32 35 91 35 q34 0 96.5 -25 q62.5 -25 94.5 -25 q28 0 43 12 q15 12 31 40 Z" /><glyph glyph-name="notequal" unicode="&#x2260;" d="M467 176 l-241 0 l-49 -98 l-99 0 l48 98 l-92 0 l0 112 l143 0 l35 69 l-178 0 l0 112 l229 0 l55 108 l98 0 l-54 -108 l105 0 l0 -112 l-155 0 l-35 -69 l190 0 l0 -112 Z" /><glyph glyph-name="lessequal" unicode="&#x2264;" d="M467 145 l-434 207 l0 105 l434 207 l0 -117 l-302 -143 l301 -142 l1 -117 ZM467 5 l-434 0 l0 112 l434 0 l0 -112 Z" /><glyph glyph-name="greaterequal" unicode="&#x2265;" d="M467 352 l-434 -207 l0 117 l302 143 l-301 142 l-1 117 l434 -207 l0 -105 ZM467 5 l-434 0 l0 112 l434 0 l0 -112 Z" /><glyph glyph-name="dotmath" unicode="&#x22c5;" d="M213.5 405.5 q29.5 -29.5 29.5 -71.5 q0 -42 -29.5 -71.5 q-29.5 -29.5 -71.5 -29.5 q-42 0 -71.5 29.5 q-29.5 29.5 -29.5 71.5 q0 42 29.5 71.5 q29.5 29.5 71.5 29.5 q42 0 71.5 -29.5 Z" /><glyph glyph-name="lozenge" unicode="&#x25ca;" d="M593 334 l-260 -360 l-259 360 l259 359 l260 -359 ZM447 334 l-114 156 l-113 -156 l113 -156 l114 156 Z" /><glyph glyph-name="openbullet" unicode="&#x25e6;" d="M358 617.5 q45 -43.5 45 -106.5 q0 -63 -45 -107 q-45 -44 -108 -44 q-63 0 -108 44 q-45 44 -45 107 q0 63 45 106.5 q45 43.5 108 43.5 q63 0 108 -43.5 ZM328 510 q0 32 -23 54.5 q-23 22.5 -55 22.5 q-32 0 -55 -22 q-23 -22 -23 -54 q0 -32 23 -55 q23 -23 55 -23 q32 0 55 23 q23 23 23 54 Z" /><glyph glyph-name="uniF400" unicode="&#xf400;" d="M-79 639 l-115 -122 l-60 36 l85 128 l90 -42 Z" /><glyph glyph-name="uniF401" unicode="&#xf401;" d="M-104 846 l-115 -122 l-60 36 l85 128 l90 -42 Z" /><glyph glyph-name="uniF406" unicode="&#xf406;" d="M314 838 l66 0 q-4 -54 -38 -88 q-32 -32 -92 -32 q-60 0 -92 32 q-33 33 -38 88 l66 0 q3 -18 16 -29 q15 -13 48 -13 q33 0 48 13 q13 11 16 29 Z" /><glyph glyph-name="uniF407" unicode="&#xf407;" d="M335 -80 l-100 -125 l-61 35 l76 128 l85 -38 Z" /><glyph glyph-name="uniF408" unicode="&#xf408;" d="M378 779 l-54 -55 l-75 62 l-78 -62 l-49 62 l127 100 l129 -107 Z" /><glyph glyph-name="uniF409" unicode="&#xf409;" d="M198 -46 l-84 -168 l-70 0 l51 168 l103 0 Z" /><glyph glyph-name="uniF40A" unicode="&#xf40a;" d="M193 667 l-85 -198 l-70 0 l51 198 l104 0 Z" /><glyph glyph-name="uniF40B" unicode="&#xf40b;" d="M317 790 q0 -27 -20 -46.5 q-20 -19.5 -47 -19.5 q-27 0 -46.5 19.5 q-19.5 19.5 -19.5 46.5 q0 28 19 47.5 q19 19.5 47 19.5 q28 0 47.5 -19.5 q19.5 -19.5 19.5 -47.5 Z" /><glyph glyph-name="uniF40C" unicode="&#xf40c;" d="M182 742 q-28 28 -28 68 q0 40 28 68 q28 28 68 28 q40 0 68 -28 q28 -28 28 -68 q0 -40 -28 -68 q-28 -28 -68 -28 q-40 0 -68 28 ZM220.5 839.5 q-11.5 -11.5 -11.5 -29.5 q0 -18 11.5 -29.5 q11.5 -11.5 29.5 -11.5 q18 0 29.5 11.5 q11.5 11.5 11.5 29.5 q0 18 -11.5 29.5 q-11.5 11.5 -29.5 11.5 q-18 0 -29.5 -11.5 Z" /><glyph glyph-name="uniF40D" unicode="&#xf40d;" d="M328 846 l66 -4 q-4 -24 -8.5 -40.5 q-4.5 -16.5 -13.5 -36.5 q-9 -20 -25.5 -30.5 q-16.5 -10.5 -39.5 -10.5 q-21 0 -57 15.5 q-36 15.5 -51 15.5 q-23 0 -28 -28 l-65 0 q4 35 9.5 56.5 q5.5 21.5 24.5 41.5 q19 20 51 20 q22 0 55 -17 q33 -17 50 -17 q10 0 16 3.5 q6 3.5 8 6.5 q2 3 4.5 13 q2.5 10 3.5 12 Z" /><glyph glyph-name="uniF40E" unicode="&#xf40e;" d="M324 -97 l-14 -71 q-18 -17 -47 -17 q-34 0 -60.5 22 q-26.5 22 -26.5 55 q0 59 74 108 l59 0 q-56 -38 -56 -74 q0 -16 11.5 -28 q11.5 -12 28.5 -12 q17 0 31 17 Z" /><glyph glyph-name="afii10017.var.accented" unicode="&#xf460;" d="M457 0 l-140 0 l-25 112 l-133 0 l-24 -112 l-132 0 l156 667 l138 0 l160 -667 ZM179 215 l93 0 q-29 130 -38 192 q-8 55 -11 88 q-6 -94 -44 -280 ZM358 846 l-115 -122 l-60 36 l85 128 l90 -42 Z" /><glyph glyph-name="afii10022.var.accented" unicode="&#xf461;" d="M319 0 l-267 0 l0 667 l265 0 l0 -124 l-133 0 l0 -144 l117 0 l0 -126 l-117 0 l0 -150 l135 0 l0 -123 ZM305 846 l-115 -122 l-60 36 l85 128 l90 -42 Z" /><glyph glyph-name="afii10026.var.accented" unicode="&#xf462;" d="M47 0 l0 667 l130 0 l0 -290 q0 -59 -11 -120 l152 410 l122 0 l0 -667 l-130 0 l0 292 q0 60 9 123 l-150 -415 l-122 0 ZM371 846 l-115 -122 l-60 36 l85 128 l90 -42 Z" /><glyph glyph-name="afii10032.var.accented" unicode="&#xf463;" d="M423 610 q82 -86 82 -277 q0 -191 -82 -277 q-63 -67 -152 -67 q-89 0 -152 67 q-82 86 -82 277 q0 191 82 277 q63 67 152 67 q89 0 152 -67 ZM319 534 q-21 22 -48 22 q-27 0 -48 -22 q-46 -46 -46 -198 q0 -152 46 -198 q21 -22 48 -22 q27 0 48 22 q46 46 46 198 q0 152 -46 198 ZM399 846 l-115 -122 l-60 36 l85 128 l90 -42 Z" /><glyph glyph-name="afii10037.var.accented" unicode="&#xf464;" d="M8 667 l142 0 l52 -162 q19 -57 28 -115 q19 88 29 118 l50 159 l140 0 l-232 -667 l-132 0 l76 230 l-153 437 ZM356 846 l-115 -122 l-60 36 l85 128 l90 -42 Z" /><glyph glyph-name="afii10045.var.accented" unicode="&#xf465;" d="M579 0 l-132 0 l0 667 l132 0 l0 -667 ZM52 667 l132 0 l0 -261 l4 0 q107 0 163 -55 q57 -55 57 -156 q0 -94 -50 -143 q-53 -52 -162 -52 l-144 0 l0 667 ZM184 292 l0 -178 l4 0 q51 0 72 20 q22 22 22 66 q0 45 -25 69 q-25 23 -70 23 l-3 0 ZM443 846 l-115 -122 l-60 36 l85 128 l90 -42 Z" /><glyph glyph-name="afii10047.var.accented" unicode="&#xf466;" d="M45 14 l0 138 q36 -32 82 -32 q42 0 71 29 q20 20 33 58 q13 38 13 74 l-159 0 l0 118 l155 0 q-1 31 -12 66.5 q-11 35.5 -30 54.5 q-26 28 -71 28 q-46 0 -82 -29 l0 136 q45 19 100 19 q94 0 153 -59 q86 -85 86 -279 q0 -196 -86 -283 q-60 -60 -159 -60 q-56 0 -94 21 ZM292 846 l-115 -122 l-60 36 l85 128 l90 -42 Z" /><glyph glyph-name="afii10048.var.accented" unicode="&#xf467;" d="M714 334 q0 -195 -82 -281 q-61 -64 -150 -64 q-94 0 -153 59 q-72 74 -76 233 l-69 0 l0 -281 l-132 0 l0 667 l132 0 l0 -261 l71 0 q5 140 78 212 q59 59 147 59 q91 0 152 -66 q50 -53 66 -121.5 q16 -68.5 16 -155.5 ZM528 534 q-21 22 -48 22 q-27 0 -48 -22 q-46 -46 -46 -198 q0 -152 46 -198 q21 -22 48 -22 q27 0 48 22 q46 46 46 198 q0 152 -46 198 ZM503 846 l-115 -122 l-60 36 l85 128 l90 -42 Z" /><glyph glyph-name="afii10049.var.accented" unicode="&#xf468;" d="M33 0 l121 284 q-41 12 -68 41 q-44 46 -44 129 q0 105 55 160 q53 53 173 53 l143 0 l0 -667 l-132 0 l0 276 l-106 -276 l-142 0 ZM281 559 l-25 0 q-39 0 -59 -21 q-23 -25 -23 -73 q0 -47 25 -70 q23 -21 68 -21 l14 0 l0 185 ZM360 846 l-115 -122 l-60 36 l85 128 l90 -42 Z" /><glyph glyph-name="afii10023.var.accented" unicode="&#xf469;" d="M319 0 l-267 0 l0 667 l265 0 l0 -124 l-133 0 l0 -144 l117 0 l0 -126 l-117 0 l0 -150 l135 0 l0 -123 ZM262 858 l-107 -122 l-39 24 l77 128 l69 -30 ZM119 806 q0 -21 -15 -36 q-15 -15 -35 -15 q-22 0 -37 15 q-15 15 -15 36 q0 20 15 35 q15 15 37 15 q20 0 35 -15 q15 -15 15 -35 ZM352 806 q0 -21 -15 -36 q-15 -15 -37 -15 q-20 0 -35 15 q-15 15 -15 36 q0 20 15 35 q15 15 35 15 q22 0 37 -15 q15 -15 15 -35 Z" /><glyph glyph-name="afii10065.var.accented" unicode="&#xf46a;" d="M356 0 l-125 0 l0 51 q-33 -60 -83 -60 q-36 0 -62 25 q-26 25 -37.5 64.5 q-11.5 39.5 -16.5 75 q-5 35.5 -5 69.5 q0 36 4.5 70 q4.5 34 16 73 q11.5 39 37 63 q25.5 24 62.5 24 q55 0 84 -63 l0 55 l125 0 l0 -447 ZM198 103 q42 0 42 120 q0 120 -43 120 q-44 0 -44 -120 q0 -120 45 -120 ZM326 639 l-115 -122 l-60 36 l85 128 l90 -42 Z" /><glyph glyph-name="afii10070.var.accented" unicode="&#xf46b;" d="M233 154 l106 0 q-2 -80 -48 -128 q-35 -35 -97 -35 q-67 0 -107 40 q-61 61 -61 181 q0 137 65 202 q41 41 102 41 q58 0 96 -36 q58 -55 58 -174 q0 -21 -3 -44 l-198 0 q-1 -7 -1 -25 q0 -60 18 -79 q11 -12 26 -12 q15 0 25 8 q16 13 19 61 ZM148 278 l90 0 q0 56 -20 73 q-10 9 -23 9 q-16 0 -28 -12 q-19 -20 -19 -70 ZM314 639 l-115 -122 l-60 36 l85 128 l90 -42 Z" /><glyph glyph-name="afii10074.var.accented" unicode="&#xf46c;" d="M40 447 l118 0 l0 -159 q0 -52 -9 -117 q13 47 32 94 l73 182 l111 0 l0 -447 l-118 0 l0 166 q0 44 8 114 q-14 -59 -35 -111 l-69 -169 l-111 0 l0 447 ZM330 639 l-115 -122 l-60 36 l85 128 l90 -42 Z" /><glyph glyph-name="afii10080.var.accented" unicode="&#xf46d;" d="M304 416 q61 -59 61 -193 q0 -134 -61 -193 q-41 -39 -108 -39 q-67 0 -108 39 q-61 59 -61 193 q0 134 61 193 q41 39 108 39 q67 0 108 -39 ZM219 330 q-9 13 -23 13 q-14 0 -23 -13 q-20 -29 -20 -107 q0 -78 20 -107 q9 -13 23 -13 q14 0 23 13 q20 29 20 107 q0 78 -20 107 ZM324 639 l-115 -122 l-60 36 l85 128 l90 -42 Z" /><glyph glyph-name="afii10085.var.accented" unicode="&#xf46e;" d="M369 447 l-188 -653 l-123 0 l69 215 l-130 438 l125 0 l43 -163 q16 -59 20 -92 l59 255 l125 0 ZM311 639 l-115 -122 l-60 36 l85 128 l90 -42 Z" /><glyph glyph-name="afii10093.var.accented" unicode="&#xf46f;" d="M507 0 l-125 0 l0 447 l125 0 l0 -447 ZM40 447 l125 0 l0 -164 l28 0 q78 0 119 -41 q39 -37 39 -103 q0 -66 -39 -103 q-38 -36 -114 -36 l-158 0 l0 447 ZM165 88 l6 0 q29 0 43 11 q17 13 17 42 q0 25 -14 39 q-15 15 -50 15 l-2 0 l0 -107 ZM401 639 l-115 -122 l-60 36 l85 128 l90 -42 Z" /><glyph glyph-name="afii10095.var.accented" unicode="&#xf470;" d="M30 12 l0 118 q24 -27 63 -27 q33 0 51 18 q21 21 23 61 l-102 0 l0 92 l102 0 q-2 32 -20 53 q-18 21 -53 21 q-36 0 -64 -30 l0 115 q39 23 88 23 q70 0 114 -42 q61 -59 61 -187 q0 -135 -61 -196 q-40 -40 -111 -40 q-53 0 -91 21 ZM258 639 l-115 -122 l-60 36 l85 128 l90 -42 Z" /><glyph glyph-name="afii10096.var.accented" unicode="&#xf471;" d="M484 416 q61 -59 61 -193 q0 -134 -61 -193 q-41 -39 -111 -39 q-66 0 -105 37 q-54 50 -56 148 l-47 0 l0 -176 l-125 0 l0 447 l125 0 l0 -167 l48 0 q4 88 54 136 q40 39 106 39 q70 0 111 -39 ZM399 330 q-9 13 -23 13 q-14 0 -23 -13 q-20 -29 -20 -107 q0 -78 20 -107 q9 -13 23 -13 q14 0 23 13 q20 29 20 107 q0 78 -20 107 ZM414 639 l-115 -122 l-60 36 l85 128 l90 -42 Z" /><glyph glyph-name="afii10097.var.accented" unicode="&#xf472;" d="M20 0 l85 167 q-34 12 -55 40 q-23 31 -23 82 q0 75 43 116 q44 42 142 42 l134 0 l0 -447 l-125 0 l0 169 l-71 -169 l-130 0 ZM221 238 l0 115 l-4 0 q-32 0 -48 -14 q-18 -16 -18 -47 q0 -29 17 -42 q15 -12 50 -12 l3 0 ZM321 639 l-115 -122 l-60 36 l85 128 l90 -42 Z" /><glyph glyph-name="afii10071.var.accented" unicode="&#xf473;" d="M233 154 l106 0 q-2 -80 -48 -128 q-35 -35 -97 -35 q-67 0 -107 40 q-61 61 -61 181 q0 137 65 202 q41 41 102 41 q58 0 96 -36 q58 -55 58 -174 q0 -21 -3 -44 l-198 0 q-7 -77 17 -104 q11 -12 26 -12 q15 0 25 8 q16 13 19 61 ZM148 278 l90 0 q2 20 -4 42 q-6 22 -16 31 q-10 9 -23 9 q-16 0 -28 -12 q-21 -23 -19 -70 ZM257 641 l-108 -118 l-33 30 l85 128 l56 -40 ZM40 567 q-14 14 -14 34 q0 20 14 34 q14 14 34 14 q20 0 34 -14 q14 -14 14 -34 q0 -20 -14 -34 q-14 -14 -34 -14 q-20 0 -34 14 ZM265 567 q-14 14 -14 34 q0 20 14 34 q14 14 34 14 q20 0 34 -14 q14 -14 14 -34 q0 -20 -14 -34 q-14 -14 -34 -14 q-20 0 -34 14 Z" /><glyph glyph-name="uniF4C6" unicode="&#xf4c6;" d="M299 667 l132 0 l0 -720 q0 -13 -14 -53 q-4 -11 -10 -29.5 q-6 -18.5 -7 -23.5 q-1 -5 -7.5 -16.5 q-6.5 -11.5 -8 -13.5 q-1.5 -2 -11.5 -7.5 q-10 -5.5 -15 -5.5 q-5 0 -21.5 -2 q-16.5 -2 -28 -2 q-11.5 0 -37.5 0 q-14 0 -23.5 0 q-9.5 0 -18 1.5 q-8.5 1.5 -13 2 q-4.5 0.5 -11.5 3 q-7 2.5 -9 3.5 q-2 1 -10.5 5 q-8.5 4 -12.5 6 l0 132 q2 -2 7.5 -9 q5.5 -7 7 -8.5 q1.5 -1.5 7 -6 q5.5 -4.5 9 -6 q3.5 -1.5 9.5 -4 q6 -2.5 13.5 -3 q7.5 -0.5 16.5 -0.5 l57 0 q0 5 -0.5 14.5 q-0.5 9.5 -0.5 14.5 l0 353 q-41 -11 -86 -11 q-69 0 -110 29 q-36 25 -47 62.5 q-11 37.5 -11 91.5 l0 203 l132 0 l0 -191 q0 -39 16 -55 q15 -15 51 -15 q31 0 55 9 l0 252 Z" /><glyph glyph-name="uniF4C7" unicode="&#xf4c7;" d="M30 447 l122 0 l0 -126 q0 -24 10 -34 q11 -9 29 -9 q15 0 31 6 l0 163 l125 0 l0 -505 q0 -80 -39 -117 q-33 -31 -92 -31 q-36 0 -68 11 l0 110 q12 -9 28 -9 q18 0 29 10 q17 15 17 51 l0 217 q-30 -10 -63 -10 q-63 0 -95 32 q-34 34 -34 106 l0 135 Z" /><glyph glyph-name="uniF4CC" unicode="&#xf4cc;" d="M8 667 l142 0 l52 -162 q19 -57 28 -115 q19 88 29 118 l50 159 l140 0 l-232 -667 l-132 0 l76 230 l-153 437 ZM357 846 l-115 -122 l-60 36 l85 128 l90 -42 Z" /><glyph glyph-name="uniF4CD" unicode="&#xf4cd;" d="M369 447 l-188 -653 l-123 0 l69 215 l-130 438 l125 0 l43 -163 q16 -59 20 -92 l59 255 l125 0 ZM311 639 l-115 -122 l-60 36 l85 128 l90 -42 Z" /><glyph glyph-name="dollar.fitted" unicode="&#xf5f5;" d="M389 599 l-73 -79 q-47 50 -101 50 q-34 0 -54.5 -17.5 q-20.5 -17.5 -20.5 -51.5 q0 -34 17 -51 q17 -17 52 -32 q34 -15 46 -20 q12 -5 41 -19.5 q29 -14.5 40 -24 q11 -9.5 30.5 -27.5 q19.5 -18 27.5 -35 q8 -17 14.5 -41.5 q6.5 -24.5 6.5 -52.5 q0 -77 -45 -135.5 q-45 -58.5 -118 -73.5 l0 -80 l-72 0 l0 80 q-53 9 -90.5 26 q-37.5 17 -74.5 52 l62 98 q70 -66 130 -66 q38 0 61 23 q23 23 23 61 q0 36 -22.5 55.5 q-22.5 19.5 -72.5 42.5 q-47 22 -70 35 q-23 13 -54 38.5 q-31 25.5 -44.5 58.5 q-13.5 33 -13.5 78 q0 78 44.5 125 q44.5 47 121.5 61 l0 74 l72 0 l0 -74 q45 -9 76.5 -26 q31.5 -17 60.5 -52 Z" /><glyph glyph-name="Euro.fitted" unicode="&#xf5f6;" d="M427 152 l0 -138 q-38 -21 -91 -21 q-98 0 -158 60 q-69 68 -86 195 l-83 0 l29 68 l52 0 l0 55 l-81 0 l29 68 l61 0 q18 99 85 168 q67 67 160 67 q42 0 83 -19 l0 -136 q-32 29 -73 29 q-43 0 -73 -30 q-28 -28 -41 -79 l193 0 l-29 -68 l-177 0 q-1 -9 -1 -27 q0 -19 1 -28 l157 0 l-29 -68 l-123 0 q12 -63 41 -96 q28 -32 75 -32 q44 0 79 32 Z" /><glyph glyph-name="cent.fitted" unicode="&#xf5f7;" d="M243 228 l0 -112 q-18 -8 -48 -17 l0 -76 l-72 0 l0 80 q-112 41 -112 215 q0 83 25.5 152 q25.5 69 86.5 91 l0 92 l72 0 l0 -86 q16 0 48 -13 l0 -112 q-19 13 -33 13 q-26 0 -43 -24 q-17 -24 -22.5 -51 q-5.5 -27 -5.5 -53 q0 -42 15 -76 q15 -34 52 -34 q20 0 37 11 Z" /><glyph glyph-name="sterling.fitted" unicode="&#xf5f8;" d="M428 514 l-112 -33 q-3 53 -15 69 q-13 19 -40 19 q-28 0 -44 -18 q-18 -20 -18 -66 q0 -38 17 -117 l112 0 l0 -80 l-102 0 q7 -30 7 -49 q0 -59 -41 -108 q28 0 69 -23 q30 -16 59 -16 q36 0 56 35 l68 -55 q-13 -38 -45 -62 q-28 -21 -73 -21 q-44 0 -91 18 q-53 21 -88 21 q-38 0 -76 -28 l-53 72 q39 30 78 42 q18 37 18 86 q0 50 -15 88 l-75 0 l0 80 l60 0 q-17 58 -17 117 q0 88 51 140 q51 52 142 52 q80 0 123 -47 q40 -45 45 -116 Z" /><glyph glyph-name="yen.fitted" unicode="&#xf5f9;" d="M461 667 l-101 -228 l81 0 l0 -68 l-111 0 l-24 -55 l135 0 l0 -68 l-135 0 l0 -248 l-132 0 l0 248 l-140 0 l0 68 l140 0 l-24 55 l-116 0 l0 68 l84 0 l-104 228 l145 0 l67 -175 q8 -20 12 -39 q16 51 76 214 l147 0 Z" /><glyph glyph-name="florin.fitted" unicode="&#xf5fa;" d="M420 728 l-23 -118 q-12 6 -25 6 q-7 0 -13 -2 q-6 -2 -10.5 -7 q-4.5 -5 -7.5 -9.5 q-3 -4.5 -5.5 -13 q-2.5 -8.5 -3.5 -12.5 q-1 -4 -2.5 -14 q-1.5 -10 -2.5 -13 l-19 -98 l70 0 l-13 -68 l-70 0 l-53 -262 q-2 -10 -8 -40.5 q-6 -30.5 -9 -44.5 q-3 -14 -10.5 -40.5 q-7.5 -26.5 -14.5 -40 q-7 -13.5 -20 -32.5 q-13 -19 -28 -28.5 q-15 -9.5 -36.5 -16.5 q-21.5 -7 -47.5 -7 q-25 0 -61 9 l23 118 q14 -7 27 -7 q7 0 12.5 2 q5.5 2 10 6.5 q4.5 4.5 7.5 8 q3 3.5 5.5 11.5 q2.5 8 4 11.5 q1.5 3.5 4 12.5 q2.5 9 2.5 11 q5 20 16 76 l50 253 l-66 0 l13 68 l66 0 q20 97 26 128 q16 89 46 121 q41 44 106 44 q28 0 60 -12 Z" /><glyph glyph-name="uni20B4.fitted" unicode="&#xf5fb;" d="M87 516 l0 129 q31 14 54 20 q39 11 85 11 q70 0 109 -33 q43 -37 43 -102 q0 -60 -34 -102 l70 0 l0 -68 l-105 0 l-46 -55 l151 0 l0 -68 l-198 0 q-34 -39 -34 -77 q0 -31 22 -46 q18 -12 51 -12 q29 0 58 11 q24 10 45 25 l0 -126 q-9 -9 -57 -22 q-38 -11 -77 -11 q-74 0 -121 37 q-50 39 -50 114 q0 61 35 107 l-68 0 l0 68 l109 0 l46 55 l-155 0 l0 68 l200 0 q28 27 28 59 q0 29 -17 45 q-17 16 -48 16 q-27 0 -56 -15 q-26 -14 -40 -28 Z" /><glyph glyph-name="uni20B6.fitted" unicode="&#xf5fc;" d="M245 667 q73 0 112 -22 q44 -25 67.5 -73 q23.5 -48 23.5 -103 q0 -98 -56.5 -142.5 q-56.5 -44.5 -174.5 -44.5 l0 -55 l110 0 l0 -68 l-110 0 l0 -159 l-132 0 l0 159 l-64 0 l0 68 l64 0 l0 55 l-64 0 l0 90 l64 0 l0 295 l160 0 ZM217 372 l8 0 q47 0 69.5 22 q22.5 22 22.5 76 q0 90 -77 90 l-23 0 l0 -188 Z" /><glyph glyph-name="uni20B8.fitted" unicode="&#xf5fd;" d="M355 415 l-104 0 l0 -415 l-132 0 l0 415 l-103 0 l0 112 l339 0 l0 -112 ZM355 575 l-339 0 l0 92 l339 0 l0 -92 Z" /><glyph glyph-name="uniF639" unicode="&#xf639;" d="M396 336 q0 -55 -7 -107 q-7 -52 -25.5 -110.5 q-18.5 -58.5 -58.5 -94 q-40 -35.5 -98 -35.5 q-46 0 -81 25.5 q-35 25.5 -54 62.5 q-19 37 -31 87 q-12 50 -15.5 91 q-3.5 41 -3.5 83 q0 54 7.5 105.5 q7.5 51.5 26.5 108 q19 56.5 59 91 q40 34.5 97 34.5 q55 0 94 -35.5 q39 -35.5 57 -92.5 q18 -57 25.5 -108.5 q7.5 -51.5 7.5 -104.5 ZM268 300 l0 60 q0 199 -60 199 q-59 0 -59 -194 l0 -70 q0 -23 1.5 -46.5 q1.5 -23.5 6.5 -58.5 q5 -35 18.5 -57 q13.5 -22 32.5 -22 q60 0 60 189 Z" /><glyph glyph-name="uniF63A" unicode="&#xf63a;" d="M153 435 l-121 0 q-2 24 -2 36 q0 101 38.5 153.5 q38.5 52.5 136.5 52.5 q84 0 131.5 -43 q47.5 -43 47.5 -127 q0 -13 -1 -25.5 q-1 -12.5 -4 -25.5 q-3 -13 -5 -22.5 q-2 -9.5 -7.5 -23.5 q-5.5 -14 -8 -21 q-2.5 -7 -10.5 -22.5 q-8 -15.5 -10.5 -20.5 q-2.5 -5 -12 -23 q-9.5 -18 -11.5 -22 l-97 -186 l155 0 l0 -115 l-350 0 l155 285 q81 149 81 216 q0 33 -11.5 58.5 q-11.5 25.5 -40.5 25.5 q-54 0 -54 -109 q0 -27 1 -41 Z" /><glyph glyph-name="uniF63B" unicode="&#xf63b;" d="M47 479 l0 7 q0 72 18 113 q35 78 139 78 q79 0 123.5 -46.5 q44.5 -46.5 44.5 -126.5 q0 -122 -83 -159 q103 -33 103 -160 q0 -91 -52.5 -143.5 q-52.5 -52.5 -143.5 -52.5 q-86 0 -131.5 49.5 q-45.5 49.5 -45.5 136.5 l124 0 q0 -3 -0.5 -9.5 q-0.5 -6.5 -0.5 -9.5 q0 -26 13 -44.5 q13 -18.5 38 -18.5 q56 0 56 104 q0 58 -20.5 77 q-20.5 19 -79.5 19 l0 112 q56 0 79 17 q23 17 23 71 q0 75 -46 75 q-44 0 -44 -89 l-114 0 Z" /><glyph glyph-name="uniF63C" unicode="&#xf63c;" d="M383 157 l-54 0 l0 -157 l-128 0 l0 157 l-193 0 l0 103 l177 407 l144 0 l0 -396 l54 0 l0 -114 ZM201 271 l0 244 l-98 -244 l98 0 Z" /><glyph glyph-name="uniF63D" unicode="&#xf63d;" d="M186 553 l-18 -109 q61 -6 94 -21 q106 -48 106 -199 q0 -110 -56 -172.5 q-56 -62.5 -164 -62.5 q-61 0 -128 31 l22 115 q40 -32 82 -32 q50 0 76.5 35.5 q26.5 35.5 26.5 86.5 q0 60 -36 89 q-36 29 -97 29 q-24 0 -52 -5 l52 329 l255 0 l0 -114 l-163 0 Z" /><glyph glyph-name="uniF63E" unicode="&#xf63e;" d="M294 667 l-126 -263 q39 37 83 37 q37 0 65 -20 q28 -20 42.5 -52.5 q14.5 -32.5 21.5 -66.5 q7 -34 7 -68 q0 -46 -10 -87.5 q-10 -41.5 -30.5 -78 q-20.5 -36.5 -57 -58 q-36.5 -21.5 -85.5 -21.5 q-95 0 -140.5 67.5 q-45.5 67.5 -45.5 167.5 q0 39 7.5 81.5 q7.5 42.5 15 71 q7.5 28.5 28.5 78.5 q21 50 29 68 q8 18 36.5 76 q28.5 58 33.5 68 l126 0 ZM258 220 q0 15 -2 30.5 q-2 15.5 -7 33 q-5 17.5 -16.5 29 q-11.5 11.5 -26.5 11.5 q-22 0 -36 -22 q-14 -22 -18 -45.5 q-4 -23.5 -4 -46.5 q0 -20 4 -42 q4 -22 17 -43.5 q13 -21.5 32 -21.5 q57 0 57 117 Z" /><glyph glyph-name="uniF63F" unicode="&#xf63f;" d="M411 667 l-250 -667 l-137 0 l207 552 l-179 0 l0 115 l359 0 Z" /><glyph glyph-name="uniF640" unicode="&#xf640;" d="M403 184 q0 -84 -54 -139.5 q-54 -55.5 -137 -55.5 q-83 0 -137 55.5 q-54 55.5 -54 139.5 q0 80 38 126 q22 27 77 49 q-91 39 -91 142 q0 74 46 125 q46 51 120 51 q74 0 120 -50.5 q46 -50.5 46 -125.5 q0 -104 -90 -142 q54 -22 77 -49 q39 -46 39 -126 ZM247 502 q0 71 -38 71 q-38 0 -38 -70 q0 -76 38 -76 q38 0 38 75 ZM253.5 134.5 q13.5 31.5 13.5 64.5 q0 33 -13.5 64.5 q-13.5 31.5 -42.5 31.5 q-21 0 -34.5 -17.5 q-13.5 -17.5 -17.5 -37.5 q-4 -20 -4 -41 q0 -21 4 -41 q4 -20 17.5 -37.5 q13.5 -17.5 34.5 -17.5 q29 0 42.5 31.5 Z" /><glyph glyph-name="uniF641" unicode="&#xf641;" d="M108 0 l127 262 q-42 -37 -83 -37 q-37 0 -65 20 q-28 20 -42.5 53 q-14.5 33 -21.5 67 q-7 34 -7 68 q0 46 10 87.5 q10 41.5 30.5 77.5 q20.5 36 57.5 57.5 q37 21.5 86 21.5 q95 0 140 -67 q45 -67 45 -167 q0 -130 -71 -279 q-3 -6 -10 -19.5 q-7 -13.5 -10 -20.5 l-59 -124 l-127 0 ZM254 457 q0 14 -2.5 30 q-2.5 16 -7.5 34 q-5 18 -16 30 q-11 12 -26 12 q-56 0 -56 -116 q0 -22 3 -43 q3 -21 15.5 -41.5 q12.5 -20.5 33.5 -20.5 q30 0 43 38.5 q13 38.5 13 76.5 Z" /><glyph glyph-name="uniF6BA" unicode="&#xf6ba;" d="M218 284 l-168 0 l0 108 l168 0 l0 -108 Z" /><glyph glyph-name="uniF6BB" unicode="&#xf6bb;" d="M504 288 l-434 0 l0 100 l434 0 l0 -100 Z" /><glyph glyph-name="uniF6BC" unicode="&#xf6bc;" d="M750 388 l0 -100 l-680 0 l0 100 l680 0 Z" /><glyph glyph-name="uniF6C3" unicode="&#xf6c3;" d="M198 -46 l-92 -182 l-70 0 l59 182 l103 0 Z" /><glyph glyph-name="uniF6C9" unicode="&#xf6c9;" d="M378 846 l-115 -122 l-60 36 l85 128 l90 -42 Z" /><glyph glyph-name="uniF6CA" unicode="&#xf6ca;" d="M378 824 l-127 -100 l-129 107 l55 55 l74 -62 l78 62 l49 -62 Z" /><glyph glyph-name="uniF6CB" unicode="&#xf6cb;" d="M365.5 836.5 q19.5 -19.5 19.5 -46.5 q0 -27 -19.5 -46.5 q-19.5 -19.5 -46.5 -19.5 q-27 0 -46.5 19.5 q-19.5 19.5 -19.5 46.5 q0 27 19.5 46.5 q19.5 19.5 46.5 19.5 q27 0 46.5 -19.5 ZM195.5 836.5 q19.5 -19.5 19.5 -46.5 q0 -27 -19.5 -46.5 q-19.5 -19.5 -46.5 -19.5 q-27 0 -46.5 19.5 q-19.5 19.5 -19.5 46.5 q0 27 19.5 46.5 q19.5 19.5 46.5 19.5 q27 0 46.5 -19.5 Z" /><glyph glyph-name="uniF6CE" unicode="&#xf6ce;" d="M298 760 l-61 -36 l-114 122 l90 42 l85 -128 Z" /><glyph glyph-name="uniF6CF" unicode="&#xf6cf;" d="M423 846 l-85 -122 l-57 36 l60 128 l82 -42 ZM286 846 l-86 -122 l-57 36 l60 128 l83 -42 Z" /><glyph glyph-name="uniF6D0" unicode="&#xf6d0;" d="M393 738 l-286 0 l0 80 l286 0 l0 -80 Z" /><glyph glyph-name="uniF6D1" unicode="&#xf6d1;" d="M278 852 l99 -32 q-14 -55 -58 -85 q-41 -27 -107 -27 q-66 0 -107 27 q-44 30 -58 85 l99 32 q6 -28 22 -41 q16 -14 44 -14 q28 0 44 14 q16 13 22 41 Z" /><glyph glyph-name="uniF6D4" unicode="&#xf6d4;" d="M244 642 l89 -29 q-11 -49 -51 -78 q-35 -25 -92 -25 q-57 0 -92 25 q-40 29 -51 78 l89 29 q2 -27 17 -40 q12 -12 37 -12 q25 0 37 12 q15 13 17 40 Z" /><glyph glyph-name="uniF6DC" unicode="&#xf6dc;" d="M207 0 l-128 0 l0 551 l-64 0 l0 116 l192 0 l0 -667 Z" /><glyph glyph-name="uniF6DE" unicode="&#xf6de;" d="M562 295 l0 -100 l-510 0 l0 100 l510 0 Z" /><glyph glyph-name="fi" unicode="&#xfb01;" d="M236 343 l-57 0 l0 -343 l-125 0 l0 343 l-46 0 l0 104 l46 0 l0 151 q0 54 13 81 q15 30 47 45 q32 15 68 15 q24 0 54 -10 l0 -120 q-12 7 -22 7 q-35 0 -35 -55 l0 -114 l57 0 l0 -104 ZM402 649 q23 -23 23 -56 q0 -33 -23 -56 q-23 -23 -56 -23 q-33 0 -56 23 q-23 23 -23 56 q0 33 23 56 q23 23 56 23 q33 0 56 -23 ZM408 0 l-125 0 l0 447 l125 0 l0 -447 Z" /><glyph glyph-name="fl" unicode="&#xfb02;" d="M236 343 l-57 0 l0 -343 l-125 0 l0 343 l-46 0 l0 104 l46 0 l0 151 q0 54 13 81 q15 30 47 45 q32 15 68 15 q24 0 54 -10 l0 -120 q-12 7 -22 7 q-35 0 -35 -55 l0 -114 l57 0 l0 -104 ZM406 0 l-125 0 l0 729 l125 0 l0 -729 Z" /></font>
</defs>
</svg>
