<?xml version="1.0" standalone="no"?><!DOCTYPE svg PUBLIC "-//W3C//DTD SVG 1.1//EN" "http://www.w3.org/Graphics/SVG/1.1/DTD/svg11.dtd" ><svg xmlns="http://www.w3.org/2000/svg"><metadata></metadata><defs><font id="1.001;UKWN;RFDewiExpanded-Bold" horiz-adv-x="1628"><font-face font-family="RF Dewi Expanded" font-weight="700" font-stretch="normal" units-per-em="1000" panose-1="0 0 8 5 0 0 0 0 0 0" ascent="1000" descent="-200" x-height="0" bbox="-239 -237 1602 954" underline-thickness="50" underline-position="-75" unicode-range="U+0020-277e" /><missing-glyph horiz-adv-x="600"  /><glyph glyph-name="space" unicode=" " d="" /><glyph glyph-name="A" unicode="a" d="M686 157 l-442 0 l-73 -157 l-155 0 l332 700 l239 0 l332 -700 l-160 0 l-73 157 ZM632 274 l-167 360 l-167 -360 l334 0 Z" /><glyph glyph-name="Aacute" unicode="á" d="M504 760 l-117 0 l122 122 l153 0 l-158 -122 ZM686 157 l-442 0 l-73 -157 l-155 0 l332 700 l239 0 l332 -700 l-160 0 l-73 157 ZM632 274 l-167 360 l-167 -360 l334 0 Z" /><glyph glyph-name="Abreve" unicode="&#x102;" d="M468 756 q-102 0 -153.5 38 q-51.5 38 -55.5 105 l87 0 q4 -25 32.5 -41.5 q28.5 -16.5 89.5 -16.5 q62 0 90 16.5 q28 16.5 32 41.5 l88 0 q-4 -67 -55.5 -105 q-51.5 -38 -154.5 -38 ZM686 157 l-442 0 l-73 -157 l-155 0 l332 700 l239 0 l332 -700 l-160 0 l-73 157 ZM632 274 l-167 360 l-167 -360 l334 0 Z" /><glyph glyph-name="Acircumflex" unicode="â" d="M358 762 l-115 0 l141 122 l169 0 l140 -122 l-115 0 l-110 83 l-110 -83 ZM686 157 l-442 0 l-73 -157 l-155 0 l332 700 l239 0 l332 -700 l-160 0 l-73 157 ZM632 274 l-167 360 l-167 -360 l334 0 Z" /><glyph glyph-name="Adieresis" unicode="ä" d="M408 761 l-148 0 l0 114 l148 0 l0 -114 ZM677 761 l-148 0 l0 114 l148 0 l0 -114 ZM686 157 l-442 0 l-73 -157 l-155 0 l332 700 l239 0 l332 -700 l-160 0 l-73 157 ZM632 274 l-167 360 l-167 -360 l334 0 Z" /><glyph glyph-name="Agrave" unicode="à" d="M432 760 l-158 122 l153 0 l123 -122 l-118 0 ZM686 157 l-442 0 l-73 -157 l-155 0 l332 700 l239 0 l332 -700 l-160 0 l-73 157 ZM632 274 l-167 360 l-167 -360 l334 0 Z" /><glyph glyph-name="Amacron" unicode="&#x100;" d="M690 765 l-443 0 l0 101 l443 0 l0 -101 ZM686 157 l-442 0 l-73 -157 l-155 0 l332 700 l239 0 l332 -700 l-160 0 l-73 157 ZM632 274 l-167 360 l-167 -360 l334 0 Z" /><glyph glyph-name="Aogonek" unicode="&#x104;" d="M940 -115 q-12 -41 -50 -65 q-38 -24 -96 -24 q-54 0 -87.5 22 q-33.5 22 -33.5 61 q0 81 162 121 l-76 0 l-73 157 l-442 0 l-73 -157 l-155 0 l332 700 l239 0 l332 -700 q-71 -31 -110.5 -57 q-39.5 -26 -39.5 -56 q0 -16 12 -24.5 q12 -8.5 33 -8.5 q28 0 44.5 13 q16.5 13 22.5 33 l59 -15 ZM632 274 l-167 360 l-167 -360 l334 0 Z" /><glyph glyph-name="Aring" unicode="å" d="M467 744 q-61 0 -102.5 27 q-41.5 27 -41.5 77 q0 51 41.5 78.5 q41.5 27.5 102.5 27.5 q62 0 104 -27.5 q42 -27.5 42 -78.5 q0 -50 -42 -77 q-42 -27 -104 -27 ZM467 894 q-33 0 -53.5 -12.5 q-20.5 -12.5 -20.5 -33.5 q0 -20 20.5 -32 q20.5 -12 53.5 -12 q34 0 55 12 q21 12 21 32 q0 21 -21 33.5 q-21 12.5 -55 12.5 ZM686 157 l-442 0 l-73 -157 l-155 0 l332 700 l239 0 l332 -700 l-160 0 l-73 157 ZM632 274 l-167 360 l-167 -360 l334 0 Z" /><glyph glyph-name="Atilde" unicode="ã" d="M382 804 q-23 0 -35 -11 q-12 -11 -12 -29 l-78 0 q0 120 115 120 q33 0 59 -7.5 q26 -7.5 55 -21.5 q22 -10 37.5 -15 q15.5 -5 31.5 -5 q22 0 34 11 q12 11 12 29 l79 0 q0 -53 -25 -86.5 q-25 -33.5 -90 -33.5 q-33 0 -57 7 q-24 7 -59 22 q-21 10 -36 15 q-15 5 -31 5 ZM686 157 l-442 0 l-73 -157 l-155 0 l332 700 l239 0 l332 -700 l-160 0 l-73 157 ZM632 274 l-167 360 l-167 -360 l334 0 Z" /><glyph glyph-name="AE" unicode="æ" d="M1361 122 l0 -122 l-697 0 l0 157 l-363 0 l-110 -157 l-180 0 l509 700 l821 0 l0 -122 l-521 0 l0 -165 l410 0 l0 -114 l-410 0 l0 -177 l541 0 ZM664 274 l0 304 l-69 0 l-212 -304 l281 0 Z" /><glyph glyph-name="B" unicode="b" d="M648 358 q213 -20 213 -169 q0 -89 -75 -139 q-75 -50 -218 -50 l-477 0 l0 700 l478 0 q80 0 140 -23 q60 -23 92 -65 q32 -42 32 -96 q0 -68 -50.5 -107.5 q-50.5 -39.5 -134.5 -50.5 ZM247 412 l314 0 q52 0 84 22.5 q32 22.5 32 61.5 q0 40 -31.5 61.5 q-31.5 21.5 -84.5 21.5 l-314 0 l0 -167 ZM553 121 q77 0 114.5 20.5 q37.5 20.5 37.5 67.5 q0 47 -37 67 q-37 20 -105 20 l-316 0 l0 -175 l306 0 Z" /><glyph glyph-name="C" unicode="c" d="M888 240 q-20 -120 -121.5 -186 q-101.5 -66 -277.5 -66 q-140 0 -239.5 44.5 q-99.5 44.5 -150.5 126 q-51 81.5 -51 191.5 q0 109 50.5 191 q50.5 82 147 126.5 q96.5 44.5 232.5 44.5 q109 0 194 -29.5 q85 -29.5 137.5 -83.5 q52.5 -54 66.5 -126 l-150 -10 q-16 55 -84.5 88.5 q-68.5 33.5 -163.5 33.5 q-88 0 -149.5 -30 q-61.5 -30 -93 -83.5 q-31.5 -53.5 -31.5 -121.5 q0 -69 32.5 -122 q32.5 -53 96.5 -83 q64 -30 156 -30 q103 0 167.5 37.5 q64.5 37.5 80.5 95.5 l151 -8 Z" /><glyph glyph-name="Cacute" unicode="&#x106;" d="M490 760 l-117 0 l122 122 l153 0 l-158 -122 ZM888 240 q-20 -120 -121.5 -186 q-101.5 -66 -277.5 -66 q-140 0 -239.5 44.5 q-99.5 44.5 -150.5 126 q-51 81.5 -51 191.5 q0 109 50.5 191 q50.5 82 147 126.5 q96.5 44.5 232.5 44.5 q109 0 194 -29.5 q85 -29.5 137.5 -83.5 q52.5 -54 66.5 -126 l-150 -10 q-16 55 -84.5 88.5 q-68.5 33.5 -163.5 33.5 q-88 0 -149.5 -30 q-61.5 -30 -93 -83.5 q-31.5 -53.5 -31.5 -121.5 q0 -69 32.5 -122 q32.5 -53 96.5 -83 q64 -30 156 -30 q103 0 167.5 37.5 q64.5 37.5 80.5 95.5 l151 -8 Z" /><glyph glyph-name="Ccaron" unicode="&#x10c;" d="M378 759 l-140 122 l114 0 l111 -83 l110 83 l114 0 l-140 -122 l-169 0 ZM888 240 q-20 -120 -121.5 -186 q-101.5 -66 -277.5 -66 q-140 0 -239.5 44.5 q-99.5 44.5 -150.5 126 q-51 81.5 -51 191.5 q0 109 50.5 191 q50.5 82 147 126.5 q96.5 44.5 232.5 44.5 q109 0 194 -29.5 q85 -29.5 137.5 -83.5 q52.5 -54 66.5 -126 l-150 -10 q-16 55 -84.5 88.5 q-68.5 33.5 -163.5 33.5 q-88 0 -149.5 -30 q-61.5 -30 -93 -83.5 q-31.5 -53.5 -31.5 -121.5 q0 -69 32.5 -122 q32.5 -53 96.5 -83 q64 -30 156 -30 q103 0 167.5 37.5 q64.5 37.5 80.5 95.5 l151 -8 Z" /><glyph glyph-name="Ccedilla" unicode="ç" d="M466 -12 l-36 -49 q35 13 68 13 q45 0 80.5 -20 q35.5 -20 35.5 -62 q0 -46 -41.5 -67 q-41.5 -21 -100.5 -21 q-59 0 -97.5 20 q-38.5 20 -46.5 58 l67 3 q11 -28 63 -28 q29 0 45.5 9 q16.5 9 16.5 26 q0 17 -15.5 26 q-15.5 9 -39.5 9 q-29 0 -59 -11 l-56 23 l57 75 q-173 19 -266 114 q-93 95 -93 244 q0 109 50.5 191 q50.5 82 147 126.5 q96.5 44.5 232.5 44.5 q109 0 194 -29.5 q85 -29.5 137.5 -83.5 q52.5 -54 66.5 -126 l-150 -10 q-16 55 -84.5 88.5 q-68.5 33.5 -163.5 33.5 q-88 0 -149.5 -30 q-61.5 -30 -93 -83.5 q-31.5 -53.5 -31.5 -121.5 q0 -69 32.5 -122 q32.5 -53 96.5 -83 q64 -30 156 -30 q103 0 167.5 37.5 q64.5 37.5 80.5 95.5 l151 -8 q-20 -120 -121.5 -186 q-101.5 -66 -277.5 -66 l-23 0 Z" /><glyph glyph-name="Cdotaccent" unicode="&#x10a;" d="M545 758 l-165 0 l0 117 l165 0 l0 -117 ZM888 240 q-20 -120 -121.5 -186 q-101.5 -66 -277.5 -66 q-140 0 -239.5 44.5 q-99.5 44.5 -150.5 126 q-51 81.5 -51 191.5 q0 109 50.5 191 q50.5 82 147 126.5 q96.5 44.5 232.5 44.5 q109 0 194 -29.5 q85 -29.5 137.5 -83.5 q52.5 -54 66.5 -126 l-150 -10 q-16 55 -84.5 88.5 q-68.5 33.5 -163.5 33.5 q-88 0 -149.5 -30 q-61.5 -30 -93 -83.5 q-31.5 -53.5 -31.5 -121.5 q0 -69 32.5 -122 q32.5 -53 96.5 -83 q64 -30 156 -30 q103 0 167.5 37.5 q64.5 37.5 80.5 95.5 l151 -8 Z" /><glyph glyph-name="D" unicode="d" d="M463 700 q135 0 232.5 -42 q97.5 -42 149.5 -120.5 q52 -78.5 52 -187.5 q0 -109 -52 -187.5 q-52 -78.5 -149.5 -120.5 q-97.5 -42 -232.5 -42 l-372 0 l0 700 l372 0 ZM447 128 q143 0 218.5 59 q75.5 59 75.5 163 q0 104 -75.5 163 q-75.5 59 -218.5 59 l-200 0 l0 -444 l200 0 Z" /><glyph glyph-name="Eth" unicode="ð" d="M497 700 q135 0 233 -42 q98 -42 150 -120.5 q52 -78.5 52 -187.5 q0 -109 -52 -187.5 q-52 -78.5 -150 -120.5 q-98 -42 -233 -42 l-371 0 l0 295 l-94 0 l0 110 l94 0 l0 295 l371 0 ZM482 128 q143 0 218.5 59 q75.5 59 75.5 163 q0 104 -75.5 163 q-75.5 59 -218.5 59 l-200 0 l0 -167 l255 0 l0 -110 l-255 0 l0 -167 l200 0 Z" /><glyph glyph-name="Dcaron" unicode="&#x10e;" d="M388 759 l-140 122 l114 0 l110 -83 l111 83 l114 0 l-140 -122 l-169 0 ZM463 700 q135 0 232.5 -42 q97.5 -42 149.5 -120.5 q52 -78.5 52 -187.5 q0 -109 -52 -187.5 q-52 -78.5 -149.5 -120.5 q-97.5 -42 -232.5 -42 l-372 0 l0 700 l372 0 ZM447 128 q143 0 218.5 59 q75.5 59 75.5 163 q0 104 -75.5 163 q-75.5 59 -218.5 59 l-200 0 l0 -444 l200 0 Z" /><glyph glyph-name="Dcroat" unicode="&#x110;" d="M497 700 q135 0 233 -42 q98 -42 150 -120.5 q52 -78.5 52 -187.5 q0 -109 -52 -187.5 q-52 -78.5 -150 -120.5 q-98 -42 -233 -42 l-371 0 l0 295 l-94 0 l0 110 l94 0 l0 295 l371 0 ZM482 128 q143 0 218.5 59 q75.5 59 75.5 163 q0 104 -75.5 163 q-75.5 59 -218.5 59 l-200 0 l0 -167 l255 0 l0 -110 l-255 0 l0 -167 l200 0 Z" /><glyph glyph-name="E" unicode="e" d="M91 700 l677 0 l0 -122 l-521 0 l0 -164 l410 0 l0 -116 l-410 0 l0 -176 l540 0 l0 -122 l-696 0 l0 700 Z" /><glyph glyph-name="Eacute" unicode="é" d="M450 882 l153 0 l-158 -122 l-117 0 l122 122 ZM91 700 l677 0 l0 -122 l-521 0 l0 -164 l410 0 l0 -116 l-410 0 l0 -176 l540 0 l0 -122 l-696 0 l0 700 Z" /><glyph glyph-name="Ecaron" unicode="&#x11a;" d="M333 759 l-140 122 l114 0 l111 -83 l110 83 l114 0 l-140 -122 l-169 0 ZM787 122 l0 -122 l-696 0 l0 700 l677 0 l0 -122 l-521 0 l0 -164 l410 0 l0 -116 l-410 0 l0 -176 l540 0 Z" /><glyph glyph-name="Ecircumflex" unicode="ê" d="M307 762 l-114 0 l140 122 l169 0 l140 -122 l-114 0 l-110 83 l-111 -83 ZM787 122 l0 -122 l-696 0 l0 700 l677 0 l0 -122 l-521 0 l0 -164 l410 0 l0 -116 l-410 0 l0 -176 l540 0 Z" /><glyph glyph-name="Edieresis" unicode="ë" d="M209 875 l148 0 l0 -114 l-148 0 l0 114 ZM478 875 l148 0 l0 -114 l-148 0 l0 114 ZM91 700 l677 0 l0 -122 l-521 0 l0 -164 l410 0 l0 -116 l-410 0 l0 -176 l540 0 l0 -122 l-696 0 l0 700 Z" /><glyph glyph-name="Edotaccent" unicode="&#x116;" d="M335 875 l165 0 l0 -117 l-165 0 l0 117 ZM91 700 l677 0 l0 -122 l-521 0 l0 -164 l410 0 l0 -116 l-410 0 l0 -176 l540 0 l0 -122 l-696 0 l0 700 Z" /><glyph glyph-name="Egrave" unicode="è" d="M390 760 l-158 122 l153 0 l123 -122 l-118 0 ZM91 700 l677 0 l0 -122 l-521 0 l0 -164 l410 0 l0 -116 l-410 0 l0 -176 l540 0 l0 -122 l-696 0 l0 700 Z" /><glyph glyph-name="Emacron" unicode="&#x112;" d="M196 866 l443 0 l0 -101 l-443 0 l0 101 ZM91 700 l677 0 l0 -122 l-521 0 l0 -164 l410 0 l0 -116 l-410 0 l0 -176 l540 0 l0 -122 l-696 0 l0 700 Z" /><glyph glyph-name="Eogonek" unicode="&#x118;" d="M763 0 q-71 -31 -110.5 -57 q-39.5 -26 -39.5 -56 q0 -16 12.5 -24.5 q12.5 -8.5 33.5 -8.5 q28 0 44.5 13 q16.5 13 22.5 33 l58 -15 q-12 -41 -50 -65 q-38 -24 -95 -24 q-55 0 -88.5 22 q-33.5 22 -33.5 61 q0 81 162 121 l-588 0 l0 700 l677 0 l0 -122 l-521 0 l0 -164 l410 0 l0 -116 l-410 0 l0 -176 l540 0 l0 -122 l-24 0 Z" /><glyph glyph-name="F" unicode="f" d="M91 700 l659 0 l0 -128 l-503 0 l0 -169 l405 0 l0 -124 l-405 0 l0 -279 l-156 0 l0 700 Z" /><glyph glyph-name="G" unicode="g" d="M891 374 l0 -317 q-182 -69 -375 -69 q-148 0 -253.5 44 q-105.5 44 -160 125.5 q-54.5 81.5 -54.5 192.5 q0 109 50 191 q50 82 147 126.5 q97 44.5 232 44.5 q159 0 263.5 -60 q104.5 -60 131.5 -163 l-151 -10 q-23 48 -89 77 q-66 29 -155 29 q-87 0 -148.5 -30 q-61.5 -30 -93 -83.5 q-31.5 -53.5 -31.5 -121.5 q0 -70 35.5 -123 q35.5 -53 106.5 -82.5 q71 -29.5 174 -29.5 q52 0 112.5 7.5 q60.5 7.5 115.5 20.5 l0 127 l-258 0 l0 104 l401 0 Z" /><glyph glyph-name="Gbreve" unicode="&#x11e;" d="M481 756 q-103 0 -154 38 q-51 38 -55 105 l87 0 q4 -25 32 -41.5 q28 -16.5 90 -16.5 q62 0 90 16.5 q28 16.5 32 41.5 l87 0 q-4 -67 -55 -105 q-51 -38 -154 -38 ZM891 374 l0 -317 q-182 -69 -375 -69 q-148 0 -253.5 44 q-105.5 44 -160 125.5 q-54.5 81.5 -54.5 192.5 q0 109 50 191 q50 82 147 126.5 q97 44.5 232 44.5 q159 0 263.5 -60 q104.5 -60 131.5 -163 l-151 -10 q-23 48 -89 77 q-66 29 -155 29 q-87 0 -148.5 -30 q-61.5 -30 -93 -83.5 q-31.5 -53.5 -31.5 -121.5 q0 -70 35.5 -123 q35.5 -53 106.5 -82.5 q71 -29.5 174 -29.5 q52 0 112.5 7.5 q60.5 7.5 115.5 20.5 l0 127 l-258 0 l0 104 l401 0 Z" /><glyph glyph-name="Gcommaaccent" unicode="&#x122;" d="M891 374 l0 -317 q-182 -69 -375 -69 q-148 0 -253.5 44 q-105.5 44 -160 125.5 q-54.5 81.5 -54.5 192.5 q0 109 50 191 q50 82 147 126.5 q97 44.5 232 44.5 q159 0 263.5 -60 q104.5 -60 131.5 -163 l-151 -10 q-23 48 -89 77 q-66 29 -155 29 q-87 0 -148.5 -30 q-61.5 -30 -93 -83.5 q-31.5 -53.5 -31.5 -121.5 q0 -70 35.5 -123 q35.5 -53 106.5 -82.5 q71 -29.5 174 -29.5 q52 0 112.5 7.5 q60.5 7.5 115.5 20.5 l0 127 l-258 0 l0 104 l401 0 ZM407 -50 l132 0 l0 -80 l-70 -107 l-62 0 l0 187 Z" /><glyph glyph-name="Gdotaccent" unicode="&#x120;" d="M564 758 l-166 0 l0 117 l166 0 l0 -117 ZM891 374 l0 -317 q-182 -69 -375 -69 q-148 0 -253.5 44 q-105.5 44 -160 125.5 q-54.5 81.5 -54.5 192.5 q0 109 50 191 q50 82 147 126.5 q97 44.5 232 44.5 q159 0 263.5 -60 q104.5 -60 131.5 -163 l-151 -10 q-23 48 -89 77 q-66 29 -155 29 q-87 0 -148.5 -30 q-61.5 -30 -93 -83.5 q-31.5 -53.5 -31.5 -121.5 q0 -70 35.5 -123 q35.5 -53 106.5 -82.5 q71 -29.5 174 -29.5 q52 0 112.5 7.5 q60.5 7.5 115.5 20.5 l0 127 l-258 0 l0 104 l401 0 Z" /><glyph glyph-name="H" unicode="h" d="M875 700 l0 -700 l-156 0 l0 292 l-472 0 l0 -292 l-156 0 l0 700 l156 0 l0 -280 l472 0 l0 280 l156 0 Z" /><glyph glyph-name="Hbar" unicode="&#x126;" d="M969 518 l-94 0 l0 -518 l-156 0 l0 292 l-472 0 l0 -292 l-156 0 l0 518 l-94 0 l0 89 l94 0 l0 93 l156 0 l0 -93 l472 0 l0 93 l156 0 l0 -93 l94 0 l0 -89 ZM719 518 l-472 0 l0 -98 l472 0 l0 98 Z" /><glyph glyph-name="I" unicode="i" d="M91 700 l156 0 l0 -700 l-156 0 l0 700 Z" /><glyph glyph-name="Iacute" unicode="í" d="M204 882 l153 0 l-142 -122 l-113 0 l102 122 ZM91 700 l156 0 l0 -700 l-156 0 l0 700 Z" /><glyph glyph-name="Icircumflex" unicode="î" d="M393 762 l-114 0 l-110 83 l-111 -83 l-114 0 l141 122 l169 0 l139 -122 ZM91 700 l156 0 l0 -700 l-156 0 l0 700 Z" /><glyph glyph-name="Idieresis" unicode="ï" d="M-12 875 l134 0 l0 -114 l-134 0 l0 114 ZM216 875 l134 0 l0 -114 l-134 0 l0 114 ZM91 700 l156 0 l0 -700 l-156 0 l0 700 Z" /><glyph glyph-name="Idotaccent" unicode="&#x130;" d="M86 875 l166 0 l0 -117 l-166 0 l0 117 ZM91 700 l156 0 l0 -700 l-156 0 l0 700 Z" /><glyph glyph-name="Igrave" unicode="ì" d="M123 760 l-142 122 l153 0 l102 -122 l-113 0 ZM91 700 l156 0 l0 -700 l-156 0 l0 700 Z" /><glyph glyph-name="Imacron" unicode="&#x12a;" d="M-23 866 l383 0 l0 -101 l-383 0 l0 101 ZM91 700 l156 0 l0 -700 l-156 0 l0 700 Z" /><glyph glyph-name="Iogonek" unicode="&#x12e;" d="M276 -115 q-11 -41 -48.5 -65 q-37.5 -24 -93.5 -24 q-53 0 -86.5 22 q-33.5 22 -33.5 62 q0 44 41 73.5 q41 29.5 107 46.5 l-71 0 l0 700 l156 0 l0 -700 q-137 -62 -137 -112 q0 -17 12 -25.5 q12 -8.5 32 -8.5 q26 0 42 13 q16 13 22 33 l58 -15 Z" /><glyph glyph-name="J" unicode="j" d="M684 700 l0 -448 q0 -132 -85 -198 q-85 -66 -237 -66 q-155 0 -237.5 64 q-82.5 64 -82.5 182 l0 59 l145 0 l0 -56 q0 -60 45 -90.5 q45 -30.5 125 -30.5 q171 0 171 145 l0 439 l156 0 Z" /><glyph glyph-name="K" unicode="k" d="M697 0 l-304 292 l-146 0 l0 -292 l-156 0 l0 700 l156 0 l0 -288 l144 0 l288 288 l189 0 l-353 -338 l382 -362 l-200 0 Z" /><glyph glyph-name="Kcommaaccent" unicode="&#x136;" d="M897 0 l-200 0 l-304 292 l-146 0 l0 -292 l-156 0 l0 700 l156 0 l0 -288 l144 0 l288 288 l189 0 l-353 -338 l382 -362 ZM392 -50 l132 0 l0 -80 l-70 -107 l-62 0 l0 187 Z" /><glyph glyph-name="L" unicode="l" d="M91 700 l156 0 l0 -572 l469 0 l0 -128 l-625 0 l0 700 Z" /><glyph glyph-name="Lacute" unicode="&#x139;" d="M224 882 l153 0 l-158 -122 l-117 0 l122 122 ZM91 700 l156 0 l0 -572 l469 0 l0 -128 l-625 0 l0 700 Z" /><glyph glyph-name="Lcaron" unicode="&#x13d;" d="M91 700 l156 0 l0 -572 l469 0 l0 -128 l-625 0 l0 700 ZM367 700 l110 0 l0 -73 l-55 -105 l-55 0 l0 178 Z" /><glyph glyph-name="Lcommaaccent" unicode="&#x13b;" d="M91 700 l156 0 l0 -572 l469 0 l0 -128 l-625 0 l0 700 ZM337 -50 l133 0 l0 -80 l-70 -107 l-63 0 l0 187 Z" /><glyph glyph-name="Ldot" unicode="&#x13f;" d="M91 700 l156 0 l0 -572 l469 0 l0 -128 l-625 0 l0 700 ZM375 449 l166 0 l0 -156 l-166 0 l0 156 Z" /><glyph glyph-name="Lslash" unicode="&#x141;" d="M743 128 l0 -128 l-625 0 l0 284 l-86 -29 l0 101 l86 29 l0 315 l156 0 l0 -262 l269 92 l0 -101 l-269 -91 l0 -210 l469 0 Z" /><glyph glyph-name="M" unicode="m" d="M1147 700 l-1 -700 l-150 0 l0 620 l-272 -620 l-212 0 l-271 620 l0 -620 l-150 0 l0 700 l273 0 l256 -615 l254 615 l273 0 Z" /><glyph glyph-name="N" unicode="n" d="M892 700 l0 -700 l-266 0 l-385 617 l0 -617 l-150 0 l0 700 l266 0 l385 -617 l0 617 l150 0 Z" /><glyph glyph-name="Nacute" unicode="&#x143;" d="M519 760 l-117 0 l122 122 l153 0 l-158 -122 ZM892 700 l0 -700 l-266 0 l-385 617 l0 -617 l-150 0 l0 700 l266 0 l385 -617 l0 617 l150 0 Z" /><glyph glyph-name="Ncaron" unicode="&#x147;" d="M407 759 l-140 122 l114 0 l111 -83 l110 83 l114 0 l-140 -122 l-169 0 ZM892 700 l0 -700 l-266 0 l-385 617 l0 -617 l-150 0 l0 700 l266 0 l385 -617 l0 617 l150 0 Z" /><glyph glyph-name="Ncommaaccent" unicode="&#x145;" d="M892 700 l0 -700 l-266 0 l-385 617 l0 -617 l-150 0 l0 700 l266 0 l385 -617 l0 617 l150 0 ZM425 -50 l133 0 l0 -80 l-70 -107 l-63 0 l0 187 Z" /><glyph glyph-name="Eng" unicode="&#x14a;" d="M892 700 l0 -724 q0 -109 -72.5 -151 q-72.5 -42 -198.5 -42 q-55 0 -107 6 l0 122 q48 -4 89 -4 q138 0 138 78 l0 15 l-115 0 l-385 616 l0 -616 l-150 0 l0 700 l266 0 l385 -616 l0 616 l150 0 Z" /><glyph glyph-name="Ntilde" unicode="ñ" d="M405 804 q-22 0 -34.5 -11 q-12.5 -11 -12.5 -29 l-78 0 q0 120 115 120 q33 0 59.5 -7.5 q26.5 -7.5 55.5 -21.5 q21 -10 36.5 -15 q15.5 -5 31.5 -5 q22 0 34.5 11 q12.5 11 12.5 29 l78 0 q0 -53 -25 -86.5 q-25 -33.5 -90 -33.5 q-33 0 -59.5 7.5 q-26.5 7.5 -55.5 21.5 q-21 10 -36.5 15 q-15.5 5 -31.5 5 ZM892 700 l0 -700 l-266 0 l-385 617 l0 -617 l-150 0 l0 700 l266 0 l385 -617 l0 617 l150 0 Z" /><glyph glyph-name="O" unicode="o" d="M48 350 q0 109 52.5 191 q52.5 82 153.5 126.5 q101 44.5 242 44.5 q141 0 242 -44.5 q101 -44.5 154 -126.5 q53 -82 53 -191 q0 -109 -53 -191 q-53 -82 -154 -126.5 q-101 -44.5 -242 -44.5 q-141 0 -242 44.5 q-101 44.5 -153.5 126.5 q-52.5 82 -52.5 191 ZM204 350 q0 -68 33.5 -121.5 q33.5 -53.5 99.5 -83.5 q66 -30 159 -30 q93 0 159 30 q66 30 100 83.5 q34 53.5 34 121.5 q0 68 -34 121.5 q-34 53.5 -100 83.5 q-66 30 -159 30 q-93 0 -159 -30 q-66 -30 -99.5 -83.5 q-33.5 -53.5 -33.5 -121.5 Z" /><glyph glyph-name="Oacute" unicode="ó" d="M529 882 l153 0 l-159 -122 l-117 0 l123 122 ZM48 350 q0 109 52.5 191 q52.5 82 153.5 126.5 q101 44.5 242 44.5 q141 0 242 -44.5 q101 -44.5 154 -126.5 q53 -82 53 -191 q0 -109 -53 -191 q-53 -82 -154 -126.5 q-101 -44.5 -242 -44.5 q-141 0 -242 44.5 q-101 44.5 -153.5 126.5 q-52.5 82 -52.5 191 ZM204 350 q0 -68 33.5 -121.5 q33.5 -53.5 99.5 -83.5 q66 -30 159 -30 q93 0 159 30 q66 30 100 83.5 q34 53.5 34 121.5 q0 68 -34 121.5 q-34 53.5 -100 83.5 q-66 30 -159 30 q-93 0 -159 -30 q-66 -30 -99.5 -83.5 q-33.5 -53.5 -33.5 -121.5 Z" /><glyph glyph-name="Ocircumflex" unicode="ô" d="M386 762 l-115 0 l141 122 l169 0 l140 -122 l-115 0 l-110 83 l-110 -83 ZM496 712 q141 0 242 -44.5 q101 -44.5 154 -126.5 q53 -82 53 -191 q0 -109 -53 -191 q-53 -82 -154 -126.5 q-101 -44.5 -242 -44.5 q-141 0 -242 44.5 q-101 44.5 -153.5 126.5 q-52.5 82 -52.5 191 q0 109 52.5 191 q52.5 82 153.5 126.5 q101 44.5 242 44.5 ZM496 115 q93 0 159 30 q66 30 100 83.5 q34 53.5 34 121.5 q0 68 -34 121.5 q-34 53.5 -100 83.5 q-66 30 -159 30 q-93 0 -159 -30 q-66 -30 -99.5 -83.5 q-33.5 -53.5 -33.5 -121.5 q0 -68 33.5 -121.5 q33.5 -53.5 99.5 -83.5 q66 -30 159 -30 Z" /><glyph glyph-name="Odieresis" unicode="ö" d="M288 875 l148 0 l0 -114 l-148 0 l0 114 ZM557 875 l148 0 l0 -114 l-148 0 l0 114 ZM48 350 q0 109 52.5 191 q52.5 82 153.5 126.5 q101 44.5 242 44.5 q141 0 242 -44.5 q101 -44.5 154 -126.5 q53 -82 53 -191 q0 -109 -53 -191 q-53 -82 -154 -126.5 q-101 -44.5 -242 -44.5 q-141 0 -242 44.5 q-101 44.5 -153.5 126.5 q-52.5 82 -52.5 191 ZM204 350 q0 -68 33.5 -121.5 q33.5 -53.5 99.5 -83.5 q66 -30 159 -30 q93 0 159 30 q66 30 100 83.5 q34 53.5 34 121.5 q0 68 -34 121.5 q-34 53.5 -100 83.5 q-66 30 -159 30 q-93 0 -159 -30 q-66 -30 -99.5 -83.5 q-33.5 -53.5 -33.5 -121.5 Z" /><glyph glyph-name="Ograve" unicode="ò" d="M469 760 l-158 122 l153 0 l122 -122 l-117 0 ZM48 350 q0 109 52.5 191 q52.5 82 153.5 126.5 q101 44.5 242 44.5 q141 0 242 -44.5 q101 -44.5 154 -126.5 q53 -82 53 -191 q0 -109 -53 -191 q-53 -82 -154 -126.5 q-101 -44.5 -242 -44.5 q-141 0 -242 44.5 q-101 44.5 -153.5 126.5 q-52.5 82 -52.5 191 ZM204 350 q0 -68 33.5 -121.5 q33.5 -53.5 99.5 -83.5 q66 -30 159 -30 q93 0 159 30 q66 30 100 83.5 q34 53.5 34 121.5 q0 68 -34 121.5 q-34 53.5 -100 83.5 q-66 30 -159 30 q-93 0 -159 -30 q-66 -30 -99.5 -83.5 q-33.5 -53.5 -33.5 -121.5 Z" /><glyph glyph-name="Ohungarumlaut" unicode="&#x150;" d="M409 882 l130 0 l-120 -122 l-118 0 l108 122 ZM645 882 l130 0 l-120 -122 l-118 0 l108 122 ZM48 350 q0 109 52.5 191 q52.5 82 153.5 126.5 q101 44.5 242 44.5 q141 0 242 -44.5 q101 -44.5 154 -126.5 q53 -82 53 -191 q0 -109 -53 -191 q-53 -82 -154 -126.5 q-101 -44.5 -242 -44.5 q-141 0 -242 44.5 q-101 44.5 -153.5 126.5 q-52.5 82 -52.5 191 ZM204 350 q0 -68 33.5 -121.5 q33.5 -53.5 99.5 -83.5 q66 -30 159 -30 q93 0 159 30 q66 30 100 83.5 q34 53.5 34 121.5 q0 68 -34 121.5 q-34 53.5 -100 83.5 q-66 30 -159 30 q-93 0 -159 -30 q-66 -30 -99.5 -83.5 q-33.5 -53.5 -33.5 -121.5 Z" /><glyph glyph-name="Omacron" unicode="&#x14c;" d="M275 866 l443 0 l0 -101 l-443 0 l0 101 ZM48 350 q0 109 52.5 191 q52.5 82 153.5 126.5 q101 44.5 242 44.5 q141 0 242 -44.5 q101 -44.5 154 -126.5 q53 -82 53 -191 q0 -109 -53 -191 q-53 -82 -154 -126.5 q-101 -44.5 -242 -44.5 q-141 0 -242 44.5 q-101 44.5 -153.5 126.5 q-52.5 82 -52.5 191 ZM204 350 q0 -68 33.5 -121.5 q33.5 -53.5 99.5 -83.5 q66 -30 159 -30 q93 0 159 30 q66 30 100 83.5 q34 53.5 34 121.5 q0 68 -34 121.5 q-34 53.5 -100 83.5 q-66 30 -159 30 q-93 0 -159 -30 q-66 -30 -99.5 -83.5 q-33.5 -53.5 -33.5 -121.5 Z" /><glyph glyph-name="Oslash" unicode="ø" d="M837 605 q53 -47 80.5 -112 q27.5 -65 27.5 -143 q0 -109 -53 -191 q-53 -82 -154 -126.5 q-101 -44.5 -242 -44.5 q-152 0 -260 53 l-82 -76 l-71 63 l72 68 q-52 46 -79.5 111 q-27.5 65 -27.5 143 q0 109 52.5 191 q52.5 82 153.5 126.5 q101 44.5 242 44.5 q152 0 260 -53 l81 76 l72 -63 l-72 -67 ZM204 350 q0 -92 59 -153 l385 361 q-67 27 -152 27 q-93 0 -159 -30 q-66 -30 -99.5 -83.5 q-33.5 -53.5 -33.5 -121.5 ZM496 115 q93 0 159 30 q66 30 100 83.5 q34 53.5 34 121.5 q0 93 -60 154 l-385 -362 q65 -27 152 -27 Z" /><glyph glyph-name="Otilde" unicode="õ" d="M708 875 q0 -53 -25 -86.5 q-25 -33.5 -91 -33.5 q-33 0 -57 7.5 q-24 7.5 -57 21.5 q-22 10 -37 15 q-15 5 -31 5 q-23 0 -35 -11 q-12 -11 -12 -29 l-78 0 q0 120 115 120 q33 0 57 -7.5 q24 -7.5 57 -21.5 q22 -10 37 -15 q15 -5 31 -5 q23 0 35 11 q12 11 12 29 l79 0 ZM48 350 q0 109 52.5 191 q52.5 82 153.5 126.5 q101 44.5 242 44.5 q141 0 242 -44.5 q101 -44.5 154 -126.5 q53 -82 53 -191 q0 -109 -53 -191 q-53 -82 -154 -126.5 q-101 -44.5 -242 -44.5 q-141 0 -242 44.5 q-101 44.5 -153.5 126.5 q-52.5 82 -52.5 191 ZM204 350 q0 -68 33.5 -121.5 q33.5 -53.5 99.5 -83.5 q66 -30 159 -30 q93 0 159 30 q66 30 100 83.5 q34 53.5 34 121.5 q0 68 -34 121.5 q-34 53.5 -100 83.5 q-66 30 -159 30 q-93 0 -159 -30 q-66 -30 -99.5 -83.5 q-33.5 -53.5 -33.5 -121.5 Z" /><glyph glyph-name="OE" unicode="&#x152;" d="M1369 122 l0 -122 l-696 0 l-191 0 q-135 0 -232.5 42 q-97.5 42 -149.5 120.5 q-52 78.5 -52 187.5 q0 109 52 187.5 q52 78.5 149.5 120.5 q97.5 42 232.5 42 l282 0 l586 0 l0 -122 l-521 0 l0 -165 l410 0 l0 -114 l-410 0 l0 -177 l540 0 ZM673 127 l0 446 l-175 0 q-143 0 -218.5 -59.5 q-75.5 -59.5 -75.5 -163.5 q0 -104 75.5 -163.5 q75.5 -59.5 218.5 -59.5 l175 0 Z" /><glyph glyph-name="P" unicode="p" d="M560 700 q121 0 196.5 -57 q75.5 -57 75.5 -168 q0 -112 -73.5 -165.5 q-73.5 -53.5 -198.5 -53.5 l-313 0 l0 -256 l-156 0 l0 700 l156 0 l313 0 ZM552 377 q58 0 91 25 q33 25 33 73 q0 48 -33 72.5 q-33 24.5 -91 24.5 l-305 0 l0 -195 l305 0 Z" /><glyph glyph-name="Thorn" unicode="þ" d="M560 592 q120 0 195.5 -56.5 q75.5 -56.5 75.5 -165.5 q0 -110 -73 -162.5 q-73 -52.5 -198 -52.5 l-313 0 l0 -155 l-156 0 l0 700 l156 0 l0 -108 l313 0 ZM552 275 q57 0 90 24.5 q33 24.5 33 70.5 q0 46 -33 70 q-33 24 -90 24 l-305 0 l0 -189 l305 0 Z" /><glyph glyph-name="Q" unicode="q" d="M945 350 q0 -98 -42.5 -174 q-42.5 -76 -123.5 -123 l80 -85 l-103 -66 l-98 104 q-73 -18 -162 -18 q-141 0 -242 44.5 q-101 44.5 -153.5 126.5 q-52.5 82 -52.5 191 q0 109 52.5 191 q52.5 82 153.5 126.5 q101 44.5 242 44.5 q141 0 242 -44.5 q101 -44.5 154 -126.5 q53 -82 53 -191 ZM496 115 q29 0 56 3 l-54 57 l103 66 l79 -83 q53 30 81 80 q28 50 28 112 q0 68 -34 121.5 q-34 53.5 -100 83.5 q-66 30 -159 30 q-93 0 -159 -30 q-66 -30 -99.5 -83.5 q-33.5 -53.5 -33.5 -121.5 q0 -68 33.5 -121.5 q33.5 -53.5 99.5 -83.5 q66 -30 159 -30 Z" /><glyph glyph-name="R" unicode="r" d="M428 266 l-181 0 l0 -266 l-156 0 l0 700 l156 0 l325 0 q121 0 196.5 -56.5 q75.5 -56.5 75.5 -165.5 q0 -101 -63.5 -152.5 q-63.5 -51.5 -173.5 -58.5 l276 -267 l-199 0 l-256 266 ZM247 384 l317 0 q57 0 90.5 24.5 q33.5 24.5 33.5 69.5 q0 46 -34 71.5 q-34 25.5 -90 25.5 l-317 0 l0 -191 Z" /><glyph glyph-name="Racute" unicode="&#x154;" d="M477 760 l-117 0 l122 122 l153 0 l-158 -122 ZM428 266 l-181 0 l0 -266 l-156 0 l0 700 l156 0 l325 0 q121 0 196.5 -56.5 q75.5 -56.5 75.5 -165.5 q0 -101 -63.5 -152.5 q-63.5 -51.5 -173.5 -58.5 l276 -267 l-199 0 l-256 266 ZM247 384 l317 0 q57 0 90.5 24.5 q33.5 24.5 33.5 69.5 q0 46 -34 71.5 q-34 25.5 -90 25.5 l-317 0 l0 -191 Z" /><glyph glyph-name="Rcaron" unicode="&#x158;" d="M366 759 l-141 122 l115 0 l110 -83 l110 83 l115 0 l-140 -122 l-169 0 ZM428 266 l-181 0 l0 -266 l-156 0 l0 700 l156 0 l325 0 q121 0 196.5 -56.5 q75.5 -56.5 75.5 -165.5 q0 -101 -63.5 -152.5 q-63.5 -51.5 -173.5 -58.5 l276 -267 l-199 0 l-256 266 ZM247 384 l317 0 q57 0 90.5 24.5 q33.5 24.5 33.5 69.5 q0 46 -34 71.5 q-34 25.5 -90 25.5 l-317 0 l0 -191 Z" /><glyph glyph-name="Rcommaaccent" unicode="&#x156;" d="M883 0 l-199 0 l-256 266 l-181 0 l0 -266 l-156 0 l0 700 l156 0 l325 0 q121 0 196.5 -56.5 q75.5 -56.5 75.5 -165.5 q0 -101 -63.5 -152.5 q-63.5 -51.5 -173.5 -58.5 l276 -267 ZM247 384 l317 0 q57 0 90.5 24.5 q33.5 24.5 33.5 69.5 q0 46 -34 71.5 q-34 25.5 -90 25.5 l-317 0 l0 -191 ZM384 -50 l132 0 l0 -80 l-70 -107 l-62 0 l0 187 Z" /><glyph glyph-name="S" unicode="s" d="M180 232 q7 -56 69 -92.5 q62 -36.5 177 -36.5 q91 0 154.5 20 q63.5 20 63.5 63 q0 28 -29 47.5 q-29 19.5 -89 32.5 l-249 56 q-111 25 -160 73 q-49 48 -49 115 q0 101 95 151.5 q95 50.5 240 50.5 q155 0 255 -57.5 q100 -57.5 112 -163.5 l-147 -6 q-8 47 -66.5 79.5 q-58.5 32.5 -159.5 32.5 q-76 0 -124.5 -20.5 q-48.5 -20.5 -48.5 -57.5 q0 -54 113 -78 l233 -51 q118 -26 174 -69.5 q56 -43.5 56 -121.5 q0 -106 -99.5 -158.5 q-99.5 -52.5 -274.5 -52.5 q-185 0 -284 61 q-99 61 -109 179 l147 4 Z" /><glyph glyph-name="Sacute" unicode="&#x15a;" d="M453 882 l153 0 l-158 -122 l-117 0 l122 122 ZM180 232 q7 -56 69 -92.5 q62 -36.5 177 -36.5 q91 0 154.5 20 q63.5 20 63.5 63 q0 28 -29 47.5 q-29 19.5 -89 32.5 l-249 56 q-111 25 -160 73 q-49 48 -49 115 q0 101 95 151.5 q95 50.5 240 50.5 q155 0 255 -57.5 q100 -57.5 112 -163.5 l-147 -6 q-8 47 -66.5 79.5 q-58.5 32.5 -159.5 32.5 q-76 0 -124.5 -20.5 q-48.5 -20.5 -48.5 -57.5 q0 -54 113 -78 l233 -51 q118 -26 174 -69.5 q56 -43.5 56 -121.5 q0 -106 -99.5 -158.5 q-99.5 -52.5 -274.5 -52.5 q-185 0 -284 61 q-99 61 -109 179 l147 4 Z" /><glyph glyph-name="Scaron" unicode="&#x160;" d="M337 759 l-140 122 l114 0 l110 -83 l111 83 l114 0 l-140 -122 l-169 0 ZM570 390 q118 -26 174 -69.5 q56 -43.5 56 -121.5 q0 -106 -99.5 -158.5 q-99.5 -52.5 -274.5 -52.5 q-185 0 -284 61 q-99 61 -109 179 l147 4 q7 -56 69 -92.5 q62 -36.5 177 -36.5 q91 0 154.5 20 q63.5 20 63.5 63 q0 28 -29 47.5 q-29 19.5 -89 32.5 l-249 56 q-111 25 -160 73 q-49 48 -49 115 q0 101 95 151.5 q95 50.5 240 50.5 q155 0 255 -57.5 q100 -57.5 112 -163.5 l-147 -6 q-8 47 -66.5 79.5 q-58.5 32.5 -159.5 32.5 q-76 0 -124.5 -20.5 q-48.5 -20.5 -48.5 -57.5 q0 -54 113 -78 l233 -51 Z" /><glyph glyph-name="Scedilla" unicode="&#x15e;" d="M424 -12 l-35 -49 q35 13 68 13 q45 0 80 -20 q35 -20 35 -62 q0 -46 -41.5 -67 q-41.5 -21 -100.5 -21 q-59 0 -97 20 q-38 20 -47 58 l67 3 q13 -28 64 -28 q29 0 45.5 9 q16.5 9 16.5 26 q0 17 -16 26 q-16 9 -40 9 q-30 0 -58 -11 l-56 23 l55 73 q-155 10 -238.5 70 q-83.5 60 -92.5 168 l147 4 q7 -56 69 -92.5 q62 -36.5 177 -36.5 q91 0 154.5 20 q63.5 20 63.5 63 q0 28 -29 47.5 q-29 19.5 -89 32.5 l-249 56 q-111 25 -160 73 q-49 48 -49 115 q0 101 95 151.5 q95 50.5 240 50.5 q155 0 255 -57.5 q100 -57.5 112 -163.5 l-147 -6 q-8 47 -66.5 79.5 q-58.5 32.5 -159.5 32.5 q-76 0 -124.5 -20.5 q-48.5 -20.5 -48.5 -57.5 q0 -54 113 -78 l233 -51 q118 -26 174 -69.5 q56 -43.5 56 -121.5 q0 -106 -99.5 -158.5 q-99.5 -52.5 -274.5 -52.5 l-2 0 Z" /><glyph glyph-name="Scommaaccent" unicode="&#x218;" d="M180 232 q7 -56 69 -92.5 q62 -36.5 177 -36.5 q91 0 154.5 20 q63.5 20 63.5 63 q0 28 -29 47.5 q-29 19.5 -89 32.5 l-249 56 q-111 25 -160 73 q-49 48 -49 115 q0 101 95 151.5 q95 50.5 240 50.5 q155 0 255 -57.5 q100 -57.5 112 -163.5 l-147 -6 q-8 47 -66.5 79.5 q-58.5 32.5 -159.5 32.5 q-76 0 -124.5 -20.5 q-48.5 -20.5 -48.5 -57.5 q0 -54 113 -78 l233 -51 q118 -26 174 -69.5 q56 -43.5 56 -121.5 q0 -106 -99.5 -158.5 q-99.5 -52.5 -274.5 -52.5 q-185 0 -284 61 q-99 61 -109 179 l147 4 ZM355 -50 l132 0 l0 -80 l-70 -107 l-62 0 l0 187 Z" /><glyph glyph-name="uni1E9E" unicode="&#x1e9e;" d="M544 406 q139 -7 224 -57.5 q85 -50.5 85 -150.5 q0 -102 -89.5 -154 q-89.5 -52 -239.5 -52 q-55 0 -115 8 l0 119 q50 -6 88 -6 q95 0 147.5 26.5 q52.5 26.5 52.5 75.5 q0 48 -52 72 q-52 24 -146 24 q-52 0 -102 -6 l0 114 l181 160 l-167 0 q-88 0 -131 -31 q-43 -31 -43 -99 l0 -449 l-156 0 l0 473 q0 124 86 175.5 q86 51.5 256 51.5 l354 0 l0 -101 l-233 -193 Z" /><glyph glyph-name="T" unicode="t" d="M26 700 l765 0 l0 -128 l-304 0 l0 -572 l-156 0 l0 572 l-305 0 l0 128 Z" /><glyph glyph-name="Tbar" unicode="&#x166;" d="M487 572 l0 -134 l204 0 l0 -89 l-204 0 l0 -349 l-156 0 l0 349 l-205 0 l0 89 l205 0 l0 134 l-305 0 l0 128 l765 0 l0 -128 l-304 0 Z" /><glyph glyph-name="Tcaron" unicode="&#x164;" d="M324 759 l-140 122 l114 0 l111 -83 l110 83 l114 0 l-140 -122 l-169 0 ZM791 700 l0 -128 l-304 0 l0 -572 l-156 0 l0 572 l-305 0 l0 128 l765 0 Z" /><glyph glyph-name="uni0162" unicode="&#x162;" d="M424 0 l-45 -61 q35 13 68 13 q45 0 80 -20 q35 -20 35 -62 q0 -46 -41 -67 q-41 -21 -100 -21 q-59 0 -97.5 20 q-38.5 20 -47.5 58 l67 3 q13 -28 64 -28 q29 0 45.5 9 q16.5 9 16.5 26 q0 17 -16 26 q-16 9 -40 9 q-28 0 -58 -11 l-56 23 l63 83 l-31 0 l0 572 l-305 0 l0 128 l765 0 l0 -128 l-304 0 l0 -572 l-63 0 Z" /><glyph glyph-name="uni021A" unicode="&#x21a;" d="M26 700 l765 0 l0 -128 l-304 0 l0 -572 l-156 0 l0 572 l-305 0 l0 128 ZM342 -50 l132 0 l0 -80 l-70 -107 l-62 0 l0 187 Z" /><glyph glyph-name="U" unicode="u" d="M880 700 l0 -408 q0 -145 -99.5 -224.5 q-99.5 -79.5 -294.5 -79.5 q-195 0 -295 79.5 q-100 79.5 -100 224.5 l0 408 l156 0 l0 -393 q0 -92 59 -141.5 q59 -49.5 180 -49.5 q120 0 179 49.5 q59 49.5 59 141.5 l0 393 l156 0 Z" /><glyph glyph-name="Uacute" unicode="ú" d="M513 760 l-117 0 l122 122 l153 0 l-158 -122 ZM880 700 l0 -408 q0 -145 -99.5 -224.5 q-99.5 -79.5 -294.5 -79.5 q-195 0 -295 79.5 q-100 79.5 -100 224.5 l0 408 l156 0 l0 -393 q0 -92 59 -141.5 q59 -49.5 180 -49.5 q120 0 179 49.5 q59 49.5 59 141.5 l0 393 l156 0 Z" /><glyph glyph-name="Ucircumflex" unicode="û" d="M375 762 l-114 0 l140 122 l169 0 l140 -122 l-114 0 l-110 83 l-111 -83 ZM880 700 l0 -408 q0 -145 -99.5 -224.5 q-99.5 -79.5 -294.5 -79.5 q-195 0 -295 79.5 q-100 79.5 -100 224.5 l0 408 l156 0 l0 -393 q0 -92 59 -141.5 q59 -49.5 180 -49.5 q120 0 179 49.5 q59 49.5 59 141.5 l0 393 l156 0 Z" /><glyph glyph-name="Udieresis" unicode="ü" d="M425 761 l-148 0 l0 114 l148 0 l0 -114 ZM694 761 l-148 0 l0 114 l148 0 l0 -114 ZM880 700 l0 -408 q0 -145 -99.5 -224.5 q-99.5 -79.5 -294.5 -79.5 q-195 0 -295 79.5 q-100 79.5 -100 224.5 l0 408 l156 0 l0 -393 q0 -92 59 -141.5 q59 -49.5 180 -49.5 q120 0 179 49.5 q59 49.5 59 141.5 l0 393 l156 0 Z" /><glyph glyph-name="Ugrave" unicode="ù" d="M459 760 l-159 122 l153 0 l123 -122 l-117 0 ZM880 700 l0 -408 q0 -145 -99.5 -224.5 q-99.5 -79.5 -294.5 -79.5 q-195 0 -295 79.5 q-100 79.5 -100 224.5 l0 408 l156 0 l0 -393 q0 -92 59 -141.5 q59 -49.5 180 -49.5 q120 0 179 49.5 q59 49.5 59 141.5 l0 393 l156 0 Z" /><glyph glyph-name="Uhungarumlaut" unicode="&#x170;" d="M408 760 l-118 0 l108 122 l131 0 l-121 -122 ZM526 760 l108 122 l131 0 l-121 -122 l-118 0 ZM880 700 l0 -408 q0 -145 -99.5 -224.5 q-99.5 -79.5 -294.5 -79.5 q-195 0 -295 79.5 q-100 79.5 -100 224.5 l0 408 l156 0 l0 -393 q0 -92 59 -141.5 q59 -49.5 180 -49.5 q120 0 179 49.5 q59 49.5 59 141.5 l0 393 l156 0 Z" /><glyph glyph-name="Umacron" unicode="&#x16a;" d="M707 765 l-443 0 l0 101 l443 0 l0 -101 ZM880 700 l0 -408 q0 -145 -99.5 -224.5 q-99.5 -79.5 -294.5 -79.5 q-195 0 -295 79.5 q-100 79.5 -100 224.5 l0 408 l156 0 l0 -393 q0 -92 59 -141.5 q59 -49.5 180 -49.5 q120 0 179 49.5 q59 49.5 59 141.5 l0 393 l156 0 Z" /><glyph glyph-name="Uogonek" unicode="&#x172;" d="M880 700 l0 -408 q0 -118 -67 -193.5 q-67 -75.5 -198 -99.5 q-70 -31 -108.5 -57 q-38.5 -26 -38.5 -55 q0 -16 12 -24.5 q12 -8.5 33 -8.5 q28 0 44.5 13 q16.5 13 22.5 33 l59 -15 q-12 -41 -50 -65 q-38 -24 -96 -24 q-54 0 -87.5 22 q-33.5 22 -33.5 61 q0 71 119 109 l-5 0 q-195 0 -295 79.5 q-100 79.5 -100 224.5 l0 408 l156 0 l0 -393 q0 -92 59 -141.5 q59 -49.5 180 -49.5 q120 0 179 49.5 q59 49.5 59 141.5 l0 393 l156 0 Z" /><glyph glyph-name="Uring" unicode="&#x16e;" d="M485 744 q-62 0 -103.5 27 q-41.5 27 -41.5 77 q0 51 41.5 78.5 q41.5 27.5 103.5 27.5 q61 0 103 -27.5 q42 -27.5 42 -78.5 q0 -50 -42 -77 q-42 -27 -103 -27 ZM485 894 q-34 0 -54.5 -12.5 q-20.5 -12.5 -20.5 -33.5 q0 -20 20.5 -32 q20.5 -12 54.5 -12 q33 0 54 12 q21 12 21 32 q0 21 -21 33.5 q-21 12.5 -54 12.5 ZM880 700 l0 -408 q0 -145 -99.5 -224.5 q-99.5 -79.5 -294.5 -79.5 q-195 0 -295 79.5 q-100 79.5 -100 224.5 l0 408 l156 0 l0 -393 q0 -92 59 -141.5 q59 -49.5 180 -49.5 q120 0 179 49.5 q59 49.5 59 141.5 l0 393 l156 0 Z" /><glyph glyph-name="V" unicode="v" d="M881 700 l-316 -700 l-233 0 l-314 700 l165 0 l267 -624 l271 624 l160 0 Z" /><glyph glyph-name="W" unicode="w" d="M1317 700 l-234 -700 l-232 0 l-180 599 l-183 -599 l-233 0 l-230 700 l167 0 l186 -599 l185 599 l220 0 l182 -599 l190 599 l162 0 Z" /><glyph glyph-name="Wacute" unicode="&#x1e82;" d="M699 760 l-118 0 l123 122 l153 0 l-158 -122 ZM1317 700 l-234 -700 l-232 0 l-180 599 l-183 -599 l-233 0 l-230 700 l167 0 l186 -599 l185 599 l220 0 l182 -599 l190 599 l162 0 Z" /><glyph glyph-name="Wcircumflex" unicode="&#x174;" d="M561 762 l-114 0 l140 122 l169 0 l140 -122 l-114 0 l-111 83 l-110 -83 ZM1317 700 l-234 -700 l-232 0 l-180 599 l-183 -599 l-233 0 l-230 700 l167 0 l186 -599 l185 599 l220 0 l182 -599 l190 599 l162 0 Z" /><glyph glyph-name="Wdieresis" unicode="&#x1e84;" d="M611 761 l-148 0 l0 114 l148 0 l0 -114 ZM880 761 l-148 0 l0 114 l148 0 l0 -114 ZM1317 700 l-234 -700 l-232 0 l-180 599 l-183 -599 l-233 0 l-230 700 l167 0 l186 -599 l185 599 l220 0 l182 -599 l190 599 l162 0 Z" /><glyph glyph-name="Wgrave" unicode="&#x1e80;" d="M644 760 l-158 122 l153 0 l122 -122 l-117 0 ZM1317 700 l-234 -700 l-232 0 l-180 599 l-183 -599 l-233 0 l-230 700 l167 0 l186 -599 l185 599 l220 0 l182 -599 l190 599 l162 0 Z" /><glyph glyph-name="X" unicode="x" d="M690 0 l-244 266 l-247 -266 l-176 0 l333 357 l-310 343 l186 0 l215 -251 l224 251 l177 0 l-307 -339 l335 -361 l-186 0 Z" /><glyph glyph-name="Y" unicode="y" d="M906 700 l-367 -426 l0 -274 l-156 0 l0 274 l-368 426 l187 0 l262 -317 l262 317 l180 0 Z" /><glyph glyph-name="Yacute" unicode="ý" d="M488 760 l-117 0 l122 122 l153 0 l-158 -122 ZM906 700 l-367 -426 l0 -274 l-156 0 l0 274 l-368 426 l187 0 l262 -317 l262 317 l180 0 Z" /><glyph glyph-name="Ycircumflex" unicode="&#x176;" d="M350 762 l-114 0 l140 122 l169 0 l140 -122 l-114 0 l-110 83 l-111 -83 ZM906 700 l-367 -426 l0 -274 l-156 0 l0 274 l-368 426 l187 0 l262 -317 l262 317 l180 0 Z" /><glyph glyph-name="Ydieresis" unicode="&#x178;" d="M400 761 l-148 0 l0 114 l148 0 l0 -114 ZM669 761 l-148 0 l0 114 l148 0 l0 -114 ZM906 700 l-367 -426 l0 -274 l-156 0 l0 274 l-368 426 l187 0 l262 -317 l262 317 l180 0 Z" /><glyph glyph-name="Ygrave" unicode="&#x1ef2;" d="M434 760 l-158 122 l153 0 l122 -122 l-117 0 ZM906 700 l-367 -426 l0 -274 l-156 0 l0 274 l-368 426 l187 0 l262 -317 l262 317 l180 0 Z" /><glyph glyph-name="Z" unicode="z" d="M782 128 l0 -128 l-760 0 l0 108 l524 464 l-492 0 l0 128 l714 0 l0 -108 l-524 -464 l538 0 Z" /><glyph glyph-name="Zacute" unicode="&#x179;" d="M432 760 l-117 0 l122 122 l153 0 l-158 -122 ZM782 128 l0 -128 l-760 0 l0 108 l524 464 l-492 0 l0 128 l714 0 l0 -108 l-524 -464 l538 0 Z" /><glyph glyph-name="Zcaron" unicode="&#x17d;" d="M320 759 l-140 122 l114 0 l111 -83 l110 83 l114 0 l-140 -122 l-169 0 ZM782 128 l0 -128 l-760 0 l0 108 l524 464 l-492 0 l0 128 l714 0 l0 -108 l-524 -464 l538 0 Z" /><glyph glyph-name="Zdotaccent" unicode="&#x17b;" d="M487 758 l-165 0 l0 117 l165 0 l0 -117 ZM782 128 l0 -128 l-760 0 l0 108 l524 464 l-492 0 l0 128 l714 0 l0 -108 l-524 -464 l538 0 Z" /><glyph glyph-name="a" unicode="a" d="M382 536 q152 0 232.5 -59 q80.5 -59 80.5 -179 l0 -298 l-138 0 l0 111 q-39 -58 -108.5 -90.5 q-69.5 -32.5 -165.5 -32.5 q-118 0 -178.5 43.5 q-60.5 43.5 -60.5 113.5 q0 78 73.5 115.5 q73.5 37.5 221.5 46.5 l207 13 l0 9 q0 48 -39.5 76.5 q-39.5 28.5 -119.5 28.5 q-67 0 -109 -18 q-42 -18 -55 -54 l-140 0 q11 91 93.5 132.5 q82.5 41.5 205.5 41.5 ZM323 90 q68 0 118.5 17.5 q50.5 17.5 77.5 47 q27 29.5 27 63.5 l0 18 l-188 -13 q-84 -5 -125 -21.5 q-41 -16.5 -41 -48.5 q0 -29 33 -46 q33 -17 98 -17 Z" /><glyph glyph-name="aacute" unicode="á" d="M423 588 l-115 0 l108 147 l154 0 l-147 -147 ZM382 536 q152 0 232.5 -59 q80.5 -59 80.5 -179 l0 -298 l-138 0 l0 111 q-39 -58 -108.5 -90.5 q-69.5 -32.5 -165.5 -32.5 q-118 0 -178.5 43.5 q-60.5 43.5 -60.5 113.5 q0 78 73.5 115.5 q73.5 37.5 221.5 46.5 l207 13 l0 9 q0 48 -39.5 76.5 q-39.5 28.5 -119.5 28.5 q-67 0 -109 -18 q-42 -18 -55 -54 l-140 0 q11 91 93.5 132.5 q82.5 41.5 205.5 41.5 ZM323 90 q68 0 118.5 17.5 q50.5 17.5 77.5 47 q27 29.5 27 63.5 l0 18 l-188 -13 q-84 -5 -125 -21.5 q-41 -16.5 -41 -48.5 q0 -29 33 -46 q33 -17 98 -17 Z" /><glyph glyph-name="abreve" unicode="&#x103;" d="M394 586 q-100 0 -151.5 42 q-51.5 42 -54.5 110 l86 0 q3 -30 31.5 -49 q28.5 -19 88.5 -19 q60 0 88.5 19 q28.5 19 31.5 49 l86 0 q-3 -68 -54.5 -110 q-51.5 -42 -151.5 -42 ZM382 536 q152 0 232.5 -59 q80.5 -59 80.5 -179 l0 -298 l-138 0 l0 111 q-39 -58 -108.5 -90.5 q-69.5 -32.5 -165.5 -32.5 q-118 0 -178.5 43.5 q-60.5 43.5 -60.5 113.5 q0 78 73.5 115.5 q73.5 37.5 221.5 46.5 l207 13 l0 9 q0 48 -39.5 76.5 q-39.5 28.5 -119.5 28.5 q-67 0 -109 -18 q-42 -18 -55 -54 l-140 0 q11 91 93.5 132.5 q82.5 41.5 205.5 41.5 ZM323 90 q68 0 118.5 17.5 q50.5 17.5 77.5 47 q27 29.5 27 63.5 l0 18 l-188 -13 q-84 -5 -125 -21.5 q-41 -16.5 -41 -48.5 q0 -29 33 -46 q33 -17 98 -17 Z" /><glyph glyph-name="acircumflex" unicode="â" d="M288 588 l-105 0 l133 147 l155 0 l134 -147 l-106 0 l-105 106 l-106 -106 ZM382 536 q152 0 232.5 -59 q80.5 -59 80.5 -179 l0 -298 l-138 0 l0 111 q-39 -58 -108.5 -90.5 q-69.5 -32.5 -165.5 -32.5 q-118 0 -178.5 43.5 q-60.5 43.5 -60.5 113.5 q0 78 73.5 115.5 q73.5 37.5 221.5 46.5 l207 13 l0 9 q0 48 -39.5 76.5 q-39.5 28.5 -119.5 28.5 q-67 0 -109 -18 q-42 -18 -55 -54 l-140 0 q11 91 93.5 132.5 q82.5 41.5 205.5 41.5 ZM323 90 q68 0 118.5 17.5 q50.5 17.5 77.5 47 q27 29.5 27 63.5 l0 18 l-188 -13 q-84 -5 -125 -21.5 q-41 -16.5 -41 -48.5 q0 -29 33 -46 q33 -17 98 -17 Z" /><glyph glyph-name="adieresis" unicode="ä" d="M341 598 l-133 0 l0 118 l133 0 l0 -118 ZM580 598 l-133 0 l0 118 l133 0 l0 -118 ZM382 536 q152 0 232.5 -59 q80.5 -59 80.5 -179 l0 -298 l-138 0 l0 111 q-39 -58 -108.5 -90.5 q-69.5 -32.5 -165.5 -32.5 q-118 0 -178.5 43.5 q-60.5 43.5 -60.5 113.5 q0 78 73.5 115.5 q73.5 37.5 221.5 46.5 l207 13 l0 9 q0 48 -39.5 76.5 q-39.5 28.5 -119.5 28.5 q-67 0 -109 -18 q-42 -18 -55 -54 l-140 0 q11 91 93.5 132.5 q82.5 41.5 205.5 41.5 ZM323 90 q68 0 118.5 17.5 q50.5 17.5 77.5 47 q27 29.5 27 63.5 l0 18 l-188 -13 q-84 -5 -125 -21.5 q-41 -16.5 -41 -48.5 q0 -29 33 -46 q33 -17 98 -17 Z" /><glyph glyph-name="agrave" unicode="à" d="M365 588 l-147 147 l154 0 l108 -147 l-115 0 ZM382 536 q152 0 232.5 -59 q80.5 -59 80.5 -179 l0 -298 l-138 0 l0 111 q-39 -58 -108.5 -90.5 q-69.5 -32.5 -165.5 -32.5 q-118 0 -178.5 43.5 q-60.5 43.5 -60.5 113.5 q0 78 73.5 115.5 q73.5 37.5 221.5 46.5 l207 13 l0 9 q0 48 -39.5 76.5 q-39.5 28.5 -119.5 28.5 q-67 0 -109 -18 q-42 -18 -55 -54 l-140 0 q11 91 93.5 132.5 q82.5 41.5 205.5 41.5 ZM323 90 q68 0 118.5 17.5 q50.5 17.5 77.5 47 q27 29.5 27 63.5 l0 18 l-188 -13 q-84 -5 -125 -21.5 q-41 -16.5 -41 -48.5 q0 -29 33 -46 q33 -17 98 -17 Z" /><glyph glyph-name="amacron" unicode="&#x101;" d="M604 611 l-420 0 l0 94 l420 0 l0 -94 ZM382 536 q152 0 232.5 -59 q80.5 -59 80.5 -179 l0 -298 l-138 0 l0 111 q-39 -58 -108.5 -90.5 q-69.5 -32.5 -165.5 -32.5 q-118 0 -178.5 43.5 q-60.5 43.5 -60.5 113.5 q0 78 73.5 115.5 q73.5 37.5 221.5 46.5 l207 13 l0 9 q0 48 -39.5 76.5 q-39.5 28.5 -119.5 28.5 q-67 0 -109 -18 q-42 -18 -55 -54 l-140 0 q11 91 93.5 132.5 q82.5 41.5 205.5 41.5 ZM323 90 q68 0 118.5 17.5 q50.5 17.5 77.5 47 q27 29.5 27 63.5 l0 18 l-188 -13 q-84 -5 -125 -21.5 q-41 -16.5 -41 -48.5 q0 -29 33 -46 q33 -17 98 -17 Z" /><glyph glyph-name="aogonek" unicode="&#x105;" d="M716 -115 q-12 -41 -50 -65 q-38 -24 -96 -24 q-54 0 -87.5 22 q-33.5 22 -33.5 61 q0 81 162 121 l-54 0 l0 111 q-39 -58 -108.5 -90.5 q-69.5 -32.5 -165.5 -32.5 q-118 0 -178.5 43.5 q-60.5 43.5 -60.5 113.5 q0 78 73.5 115.5 q73.5 37.5 221.5 46.5 l207 13 l0 9 q0 48 -39.5 76.5 q-39.5 28.5 -119.5 28.5 q-67 0 -109 -18 q-42 -18 -55 -54 l-140 0 q11 91 93.5 132.5 q82.5 41.5 205.5 41.5 q152 0 232.5 -59 q80.5 -59 80.5 -179 l0 -298 q-71 -31 -110.5 -57 q-39.5 -26 -39.5 -56 q0 -16 12 -24.5 q12 -8.5 33 -8.5 q52 0 68 46 l58 -15 ZM323 90 q68 0 118.5 17.5 q50.5 17.5 77.5 47 q27 29.5 27 63.5 l0 18 l-188 -13 q-84 -5 -125 -21.5 q-41 -16.5 -41 -48.5 q0 -29 33 -46 q33 -17 98 -17 Z" /><glyph glyph-name="aring" unicode="å" d="M394 582 q-62 0 -105 28 q-43 28 -43 77 q0 50 43 77.5 q43 27.5 105 27.5 q62 0 105 -27.5 q43 -27.5 43 -77.5 q0 -49 -43 -77 q-43 -28 -105 -28 ZM394 734 q-33 0 -53.5 -12.5 q-20.5 -12.5 -20.5 -34.5 q0 -21 20.5 -34 q20.5 -13 53.5 -13 q33 0 53.5 13 q20.5 13 20.5 34 q0 22 -20.5 34.5 q-20.5 12.5 -53.5 12.5 ZM382 536 q152 0 232.5 -59 q80.5 -59 80.5 -179 l0 -298 l-138 0 l0 111 q-39 -58 -108.5 -90.5 q-69.5 -32.5 -165.5 -32.5 q-118 0 -178.5 43.5 q-60.5 43.5 -60.5 113.5 q0 78 73.5 115.5 q73.5 37.5 221.5 46.5 l207 13 l0 9 q0 48 -39.5 76.5 q-39.5 28.5 -119.5 28.5 q-67 0 -109 -18 q-42 -18 -55 -54 l-140 0 q11 91 93.5 132.5 q82.5 41.5 205.5 41.5 ZM323 90 q68 0 118.5 17.5 q50.5 17.5 77.5 47 q27 29.5 27 63.5 l0 18 l-188 -13 q-84 -5 -125 -21.5 q-41 -16.5 -41 -48.5 q0 -29 33 -46 q33 -17 98 -17 Z" /><glyph glyph-name="atilde" unicode="ã" d="M304 638 q-23 0 -35.5 -11.5 q-12.5 -11.5 -12.5 -31.5 l-82 0 q0 52 27.5 85.5 q27.5 33.5 92.5 33.5 q35 0 62 -8 q27 -8 57 -23 q26 -11 40 -16 q14 -5 31 -5 q24 0 36.5 11.5 q12.5 11.5 12.5 31.5 l82 0 q0 -52 -27.5 -85.5 q-27.5 -33.5 -93.5 -33.5 q-34 0 -60.5 8 q-26.5 8 -58.5 23 q-23 11 -38.5 16 q-15.5 5 -32.5 5 ZM382 536 q152 0 232.5 -59 q80.5 -59 80.5 -179 l0 -298 l-138 0 l0 111 q-39 -58 -108.5 -90.5 q-69.5 -32.5 -165.5 -32.5 q-118 0 -178.5 43.5 q-60.5 43.5 -60.5 113.5 q0 78 73.5 115.5 q73.5 37.5 221.5 46.5 l207 13 l0 9 q0 48 -39.5 76.5 q-39.5 28.5 -119.5 28.5 q-67 0 -109 -18 q-42 -18 -55 -54 l-140 0 q11 91 93.5 132.5 q82.5 41.5 205.5 41.5 ZM323 90 q68 0 118.5 17.5 q50.5 17.5 77.5 47 q27 29.5 27 63.5 l0 18 l-188 -13 q-84 -5 -125 -21.5 q-41 -16.5 -41 -48.5 q0 -29 33 -46 q33 -17 98 -17 Z" /><glyph glyph-name="ae" unicode="æ" d="M1225 218 l-529 0 q14 -65 69 -96.5 q55 -31.5 139 -31.5 q57 0 99.5 15.5 q42.5 15.5 66.5 43.5 l145 -6 q-29 -74 -108.5 -114.5 q-79.5 -40.5 -196.5 -40.5 q-106 0 -182.5 32 q-76.5 32 -115.5 95 q-93 -127 -314 -127 q-128 0 -191 43 q-63 43 -63 114 q0 156 295 164 l207 5 l0 14 q0 49 -39 77.5 q-39 28.5 -120 28.5 q-67 0 -109 -18 q-42 -18 -55 -54 l-140 0 q11 91 92 132.5 q81 41.5 200 41.5 q192 0 256 -101 q42 51 111 76 q69 25 159 25 q156 0 240 -74 q84 -74 84 -228 l0 -16 ZM894 434 q-77 0 -130 -31 q-53 -31 -67 -94 l382 0 q-5 58 -54.5 91.5 q-49.5 33.5 -130.5 33.5 ZM323 90 q68 0 118.5 17.5 q50.5 17.5 77.5 47 q27 29.5 27 63.5 l0 10 l-188 -4 q-80 -2 -123 -20 q-43 -18 -43 -51 q0 -29 33 -46 q33 -17 98 -17 Z" /><glyph glyph-name="b" unicode="b" d="M460 536 q90 0 159.5 -32.5 q69.5 -32.5 109 -94.5 q39.5 -62 39.5 -147 q0 -85 -39 -147 q-39 -62 -108.5 -94.5 q-69.5 -32.5 -158.5 -32.5 q-84 0 -150.5 29.5 q-66.5 29.5 -103.5 88.5 l0 -106 l-137 0 l0 736 l149 0 l0 -301 q37 51 99.5 76 q62.5 25 140.5 25 ZM417 101 q94 0 149 44 q55 44 55 117 q0 73 -55 117 q-55 44 -149 44 q-94 0 -149 -44 q-55 -44 -55 -117 q0 -73 55 -117 q55 -44 149 -44 Z" /><glyph glyph-name="c" unicode="c" d="M724 189 q-18 -95 -107.5 -148 q-89.5 -53 -222.5 -53 q-164 0 -258 71 q-94 71 -94 203 q0 131 93.5 202.5 q93.5 71.5 253.5 71.5 q130 0 219.5 -51.5 q89.5 -51.5 106.5 -143.5 l-144 -8 q-17 43 -66 66.5 q-49 23.5 -116 23.5 q-90 0 -144.5 -43.5 q-54.5 -43.5 -54.5 -117.5 q0 -74 55.5 -117.5 q55.5 -43.5 148.5 -43.5 q70 0 119 25.5 q49 25.5 66 69.5 l145 -7 Z" /><glyph glyph-name="cacute" unicode="&#x107;" d="M413 735 l154 0 l-146 -147 l-116 0 l108 147 ZM724 189 q-18 -95 -107.5 -148 q-89.5 -53 -222.5 -53 q-164 0 -258 71 q-94 71 -94 203 q0 131 93.5 202.5 q93.5 71.5 253.5 71.5 q130 0 219.5 -51.5 q89.5 -51.5 106.5 -143.5 l-144 -8 q-17 43 -66 66.5 q-49 23.5 -116 23.5 q-90 0 -144.5 -43.5 q-54.5 -43.5 -54.5 -117.5 q0 -74 55.5 -117.5 q55.5 -43.5 148.5 -43.5 q70 0 119 25.5 q49 25.5 66 69.5 l145 -7 Z" /><glyph glyph-name="ccaron" unicode="&#x10d;" d="M314 585 l-134 147 l106 0 l105 -105 l105 105 l106 0 l-134 -147 l-154 0 ZM724 189 q-18 -95 -107.5 -148 q-89.5 -53 -222.5 -53 q-164 0 -258 71 q-94 71 -94 203 q0 131 93.5 202.5 q93.5 71.5 253.5 71.5 q130 0 219.5 -51.5 q89.5 -51.5 106.5 -143.5 l-144 -8 q-17 43 -66 66.5 q-49 23.5 -116 23.5 q-90 0 -144.5 -43.5 q-54.5 -43.5 -54.5 -117.5 q0 -74 55.5 -117.5 q55.5 -43.5 148.5 -43.5 q70 0 119 25.5 q49 25.5 66 69.5 l145 -7 Z" /><glyph glyph-name="ccedilla" unicode="ç" d="M724 189 q-18 -95 -107.5 -148 q-89.5 -53 -221.5 -53 l-36 -49 q35 13 68 13 q45 0 80 -20 q35 -20 35 -62 q0 -46 -41 -67 q-41 -21 -100 -21 q-59 0 -97.5 20 q-38.5 20 -47.5 58 l67 3 q13 -28 64 -28 q29 0 45.5 9 q16.5 9 16.5 26 q0 17 -16 26 q-16 9 -40 9 q-30 0 -58 -11 l-56 23 l56 74 q-138 12 -215.5 82 q-77.5 70 -77.5 189 q0 131 93.5 202.5 q93.5 71.5 253.5 71.5 q130 0 219.5 -51.5 q89.5 -51.5 106.5 -143.5 l-144 -8 q-17 43 -66 66.5 q-49 23.5 -116 23.5 q-90 0 -144.5 -43.5 q-54.5 -43.5 -54.5 -117.5 q0 -74 55.5 -117.5 q55.5 -43.5 148.5 -43.5 q70 0 119 25.5 q49 25.5 66 69.5 l145 -7 Z" /><glyph glyph-name="cdotaccent" unicode="&#x10b;" d="M312 729 l158 0 l0 -135 l-158 0 l0 135 ZM724 189 q-18 -95 -107.5 -148 q-89.5 -53 -222.5 -53 q-164 0 -258 71 q-94 71 -94 203 q0 131 93.5 202.5 q93.5 71.5 253.5 71.5 q130 0 219.5 -51.5 q89.5 -51.5 106.5 -143.5 l-144 -8 q-17 43 -66 66.5 q-49 23.5 -116 23.5 q-90 0 -144.5 -43.5 q-54.5 -43.5 -54.5 -117.5 q0 -74 55.5 -117.5 q55.5 -43.5 148.5 -43.5 q70 0 119 25.5 q49 25.5 66 69.5 l145 -7 Z" /><glyph glyph-name="d" unicode="d" d="M740 736 l0 -736 l-138 0 l0 106 q-36 -59 -102 -88.5 q-66 -29.5 -151 -29.5 q-89 0 -159 32.5 q-70 32.5 -109 94.5 q-39 62 -39 147 q0 85 39.5 147 q39.5 62 109 94.5 q69.5 32.5 159.5 32.5 q79 0 141 -25 q62 -25 100 -76 l0 301 l149 0 ZM394 101 q94 0 149 44 q55 44 55 117 q0 73 -55 117 q-55 44 -149 44 q-94 0 -149 -44 q-55 -44 -55 -117 q0 -73 55 -117 q55 -44 149 -44 Z" /><glyph glyph-name="eth" unicode="ð" d="M552 659 q101 -55 153 -139 q52 -84 52 -204 q0 -168 -98 -248 q-98 -80 -263 -80 q-109 0 -188.5 31.5 q-79.5 31.5 -122.5 89.5 q-43 58 -43 137 q0 78 41.5 136 q41.5 58 115.5 89 q74 31 169 31 q103 0 174.5 -36 q71.5 -36 103.5 -102 q-19 88 -77 143.5 q-58 55.5 -164 87.5 l-168 -74 l-29 52 l104 45 q-65 14 -170 26 l26 119 q193 -24 313 -71 l129 56 l28 -51 l-86 -38 ZM398 101 q99 0 155.5 40 q56.5 40 56.5 105 q0 65 -56.5 105 q-56.5 40 -155.5 40 q-98 0 -153 -40 q-55 -40 -55 -105 q0 -65 55 -105 q55 -40 153 -40 Z" /><glyph glyph-name="dcaron" unicode="&#x10f;" d="M591 736 l149 0 l0 -736 l-138 0 l0 106 q-36 -59 -102 -88.5 q-66 -29.5 -151 -29.5 q-89 0 -159 32.5 q-70 32.5 -109 94.5 q-39 62 -39 147 q0 85 39.5 147 q39.5 62 109 94.5 q69.5 32.5 159.5 32.5 q79 0 141 -25 q62 -25 100 -76 l0 301 ZM924 736 l0 -73 l-55 -105 l-54 0 l0 178 l109 0 ZM394 101 q94 0 149 44 q55 44 55 117 q0 73 -55 117 q-55 44 -149 44 q-94 0 -149 -44 q-55 -44 -55 -117 q0 -73 55 -117 q55 -44 149 -44 Z" /><glyph glyph-name="dcroat" unicode="&#x111;" d="M823 590 l-83 0 l0 -590 l-138 0 l0 106 q-36 -59 -102 -88.5 q-66 -29.5 -151 -29.5 q-89 0 -159 32.5 q-70 32.5 -109 94.5 q-39 62 -39 147 q0 85 39.5 147 q39.5 62 109 94.5 q69.5 32.5 159.5 32.5 q79 0 141 -25 q62 -25 100 -76 l0 155 l-259 0 l0 68 l259 0 l0 78 l149 0 l0 -78 l83 0 l0 -68 ZM394 101 q94 0 149 44 q55 44 55 117 q0 73 -55 117 q-55 44 -149 44 q-94 0 -149 -44 q-55 -44 -55 -117 q0 -73 55 -117 q55 -44 149 -44 Z" /><glyph glyph-name="e" unicode="e" d="M741 218 l-548 0 q15 -65 71 -96.5 q56 -31.5 145 -31.5 q64 0 108.5 15.5 q44.5 15.5 67.5 43.5 l145 -6 q-29 -74 -111 -114.5 q-82 -40.5 -210 -40.5 q-170 0 -268.5 68 q-98.5 68 -98.5 206 q0 136 97.5 205 q97.5 69 260.5 69 q167 0 254 -73.5 q87 -73.5 87 -228.5 l0 -16 ZM400 434 q-83 0 -137.5 -30.5 q-54.5 -30.5 -68.5 -94.5 l400 0 q-5 58 -55.5 91.5 q-50.5 33.5 -138.5 33.5 Z" /><glyph glyph-name="eacute" unicode="é" d="M427 588 l-115 0 l108 147 l154 0 l-147 -147 ZM741 218 l-548 0 q15 -65 71 -96.5 q56 -31.5 145 -31.5 q64 0 108.5 15.5 q44.5 15.5 67.5 43.5 l145 -6 q-29 -74 -111 -114.5 q-82 -40.5 -210 -40.5 q-170 0 -268.5 68 q-98.5 68 -98.5 206 q0 136 97.5 205 q97.5 69 260.5 69 q167 0 254 -73.5 q87 -73.5 87 -228.5 l0 -16 ZM400 434 q-83 0 -137.5 -30.5 q-54.5 -30.5 -68.5 -94.5 l400 0 q-5 58 -55.5 91.5 q-50.5 33.5 -138.5 33.5 Z" /><glyph glyph-name="ecaron" unicode="&#x11b;" d="M320 585 l-133 147 l105 0 l106 -105 l105 105 l106 0 l-134 -147 l-155 0 ZM741 218 l-548 0 q15 -65 71 -96.5 q56 -31.5 145 -31.5 q64 0 108.5 15.5 q44.5 15.5 67.5 43.5 l145 -6 q-29 -74 -111 -114.5 q-82 -40.5 -210 -40.5 q-170 0 -268.5 68 q-98.5 68 -98.5 206 q0 136 97.5 205 q97.5 69 260.5 69 q167 0 254 -73.5 q87 -73.5 87 -228.5 l0 -16 ZM400 434 q-83 0 -137.5 -30.5 q-54.5 -30.5 -68.5 -94.5 l400 0 q-5 58 -55.5 91.5 q-50.5 33.5 -138.5 33.5 Z" /><glyph glyph-name="ecircumflex" unicode="ê" d="M292 588 l-105 0 l133 147 l155 0 l134 -147 l-106 0 l-105 106 l-106 -106 ZM741 218 l-548 0 q15 -65 71 -96.5 q56 -31.5 145 -31.5 q64 0 108.5 15.5 q44.5 15.5 67.5 43.5 l145 -6 q-29 -74 -111 -114.5 q-82 -40.5 -210 -40.5 q-170 0 -268.5 68 q-98.5 68 -98.5 206 q0 136 97.5 205 q97.5 69 260.5 69 q167 0 254 -73.5 q87 -73.5 87 -228.5 l0 -16 ZM400 434 q-83 0 -137.5 -30.5 q-54.5 -30.5 -68.5 -94.5 l400 0 q-5 58 -55.5 91.5 q-50.5 33.5 -138.5 33.5 Z" /><glyph glyph-name="edieresis" unicode="ë" d="M345 598 l-133 0 l0 118 l133 0 l0 -118 ZM584 598 l-133 0 l0 118 l133 0 l0 -118 ZM741 218 l-548 0 q15 -65 71 -96.5 q56 -31.5 145 -31.5 q64 0 108.5 15.5 q44.5 15.5 67.5 43.5 l145 -6 q-29 -74 -111 -114.5 q-82 -40.5 -210 -40.5 q-170 0 -268.5 68 q-98.5 68 -98.5 206 q0 136 97.5 205 q97.5 69 260.5 69 q167 0 254 -73.5 q87 -73.5 87 -228.5 l0 -16 ZM400 434 q-83 0 -137.5 -30.5 q-54.5 -30.5 -68.5 -94.5 l400 0 q-5 58 -55.5 91.5 q-50.5 33.5 -138.5 33.5 Z" /><glyph glyph-name="edotaccent" unicode="&#x117;" d="M477 594 l-158 0 l0 135 l158 0 l0 -135 ZM741 218 l-548 0 q15 -65 71 -96.5 q56 -31.5 145 -31.5 q64 0 108.5 15.5 q44.5 15.5 67.5 43.5 l145 -6 q-29 -74 -111 -114.5 q-82 -40.5 -210 -40.5 q-170 0 -268.5 68 q-98.5 68 -98.5 206 q0 136 97.5 205 q97.5 69 260.5 69 q167 0 254 -73.5 q87 -73.5 87 -228.5 l0 -16 ZM400 434 q-83 0 -137.5 -30.5 q-54.5 -30.5 -68.5 -94.5 l400 0 q-5 58 -55.5 91.5 q-50.5 33.5 -138.5 33.5 Z" /><glyph glyph-name="egrave" unicode="è" d="M369 588 l-147 147 l154 0 l108 -147 l-115 0 ZM741 218 l-548 0 q15 -65 71 -96.5 q56 -31.5 145 -31.5 q64 0 108.5 15.5 q44.5 15.5 67.5 43.5 l145 -6 q-29 -74 -111 -114.5 q-82 -40.5 -210 -40.5 q-170 0 -268.5 68 q-98.5 68 -98.5 206 q0 136 97.5 205 q97.5 69 260.5 69 q167 0 254 -73.5 q87 -73.5 87 -228.5 l0 -16 ZM400 434 q-83 0 -137.5 -30.5 q-54.5 -30.5 -68.5 -94.5 l400 0 q-5 58 -55.5 91.5 q-50.5 33.5 -138.5 33.5 Z" /><glyph glyph-name="emacron" unicode="&#x113;" d="M608 611 l-420 0 l0 94 l420 0 l0 -94 ZM741 218 l-548 0 q15 -65 71 -96.5 q56 -31.5 145 -31.5 q64 0 108.5 15.5 q44.5 15.5 67.5 43.5 l145 -6 q-29 -74 -111 -114.5 q-82 -40.5 -210 -40.5 q-170 0 -268.5 68 q-98.5 68 -98.5 206 q0 136 97.5 205 q97.5 69 260.5 69 q167 0 254 -73.5 q87 -73.5 87 -228.5 l0 -16 ZM400 434 q-83 0 -137.5 -30.5 q-54.5 -30.5 -68.5 -94.5 l400 0 q-5 58 -55.5 91.5 q-50.5 33.5 -138.5 33.5 Z" /><glyph glyph-name="eogonek" unicode="&#x119;" d="M741 218 l-548 0 q15 -65 71 -96.5 q56 -31.5 145 -31.5 q64 0 108.5 15.5 q44.5 15.5 67.5 43.5 l145 -6 q-31 -82 -130 -123 q-100 -47 -142.5 -75.5 q-42.5 -28.5 -42.5 -57.5 q0 -16 12.5 -24.5 q12.5 -8.5 33.5 -8.5 q28 0 44.5 13 q16.5 13 22.5 33 l58 -15 q-12 -41 -50 -65 q-38 -24 -95 -24 q-55 0 -88.5 22 q-33.5 22 -33.5 61 q0 69 121 110 q-10 -1 -31 -1 q-170 0 -268.5 68 q-98.5 68 -98.5 206 q0 136 97.5 205 q97.5 69 260.5 69 q167 0 254 -73.5 q87 -73.5 87 -228.5 l0 -16 ZM400 434 q-83 0 -137.5 -30.5 q-54.5 -30.5 -68.5 -94.5 l400 0 q-5 58 -55.5 91.5 q-50.5 33.5 -138.5 33.5 Z" /><glyph glyph-name="f" unicode="f" d="M415 632 q-60 0 -83.5 -21 q-23.5 -21 -23.5 -67 l0 -20 l162 0 l0 -112 l-162 0 l0 -412 l-149 0 l0 412 l-137 0 l0 112 l137 0 l0 29 q0 74 24 117 q24 43 72 60.5 q48 17.5 124 17.5 q54 0 108 -6 l0 -114 q-60 4 -72 4 Z" /><glyph glyph-name="g" unicode="g" d="M735 524 l0 -424 q0 -164 -80.5 -238 q-80.5 -74 -252.5 -74 q-134 0 -216 46 q-82 46 -95 137 l142 0 q14 -34 57.5 -52 q43.5 -18 111.5 -18 q98 0 141.5 39.5 q43.5 39.5 43.5 121.5 l0 52 q-39 -48 -100.5 -72 q-61.5 -24 -137.5 -24 q-92 0 -161.5 32 q-69.5 32 -107.5 90.5 q-38 58.5 -38 136.5 q0 78 38 136.5 q38 58.5 108 90.5 q70 32 162 32 q83 0 147 -27 q64 -27 101 -82 l0 97 l137 0 ZM394 122 q62 0 108 19.5 q46 19.5 71 54 q25 34.5 25 76.5 q0 43 -25 77 q-25 34 -71 54 q-46 20 -108 20 q-62 0 -108 -20 q-46 -20 -71 -54 q-25 -34 -25 -77 q0 -42 25 -76.5 q25 -34.5 71 -54 q46 -19.5 108 -19.5 Z" /><glyph glyph-name="gbreve" unicode="&#x11f;" d="M410 586 q-99 0 -150.5 42 q-51.5 42 -54.5 110 l85 0 q3 -30 32 -49 q29 -19 88 -19 q60 0 88.5 19 q28.5 19 31.5 49 l86 0 q-3 -68 -54.5 -110 q-51.5 -42 -151.5 -42 ZM735 524 l0 -424 q0 -164 -80.5 -238 q-80.5 -74 -252.5 -74 q-134 0 -216 46 q-82 46 -95 137 l142 0 q14 -34 57.5 -52 q43.5 -18 111.5 -18 q98 0 141.5 39.5 q43.5 39.5 43.5 121.5 l0 52 q-39 -48 -100.5 -72 q-61.5 -24 -137.5 -24 q-92 0 -161.5 32 q-69.5 32 -107.5 90.5 q-38 58.5 -38 136.5 q0 78 38 136.5 q38 58.5 108 90.5 q70 32 162 32 q83 0 147 -27 q64 -27 101 -82 l0 97 l137 0 ZM394 122 q62 0 108 19.5 q46 19.5 71 54 q25 34.5 25 76.5 q0 43 -25 77 q-25 34 -71 54 q-46 20 -108 20 q-62 0 -108 -20 q-46 -20 -71 -54 q-25 -34 -25 -77 q0 -42 25 -76.5 q25 -34.5 71 -54 q46 -19.5 108 -19.5 Z" /><glyph glyph-name="gcommaaccent" unicode="&#x123;" d="M476 603 l-132 0 l0 80 l70 106 l62 0 l0 -186 ZM735 524 l0 -424 q0 -164 -80.5 -238 q-80.5 -74 -252.5 -74 q-134 0 -216 46 q-82 46 -95 137 l142 0 q14 -34 57.5 -52 q43.5 -18 111.5 -18 q98 0 141.5 39.5 q43.5 39.5 43.5 121.5 l0 52 q-39 -48 -100.5 -72 q-61.5 -24 -137.5 -24 q-92 0 -161.5 32 q-69.5 32 -107.5 90.5 q-38 58.5 -38 136.5 q0 78 38 136.5 q38 58.5 108 90.5 q70 32 162 32 q83 0 147 -27 q64 -27 101 -82 l0 97 l137 0 ZM394 122 q62 0 108 19.5 q46 19.5 71 54 q25 34.5 25 76.5 q0 43 -25 77 q-25 34 -71 54 q-46 20 -108 20 q-62 0 -108 -20 q-46 -20 -71 -54 q-25 -34 -25 -77 q0 -42 25 -76.5 q25 -34.5 71 -54 q46 -19.5 108 -19.5 Z" /><glyph glyph-name="gdotaccent" unicode="&#x121;" d="M489 594 l-158 0 l0 135 l158 0 l0 -135 ZM735 524 l0 -424 q0 -164 -80.5 -238 q-80.5 -74 -252.5 -74 q-134 0 -216 46 q-82 46 -95 137 l142 0 q14 -34 57.5 -52 q43.5 -18 111.5 -18 q98 0 141.5 39.5 q43.5 39.5 43.5 121.5 l0 52 q-39 -48 -100.5 -72 q-61.5 -24 -137.5 -24 q-92 0 -161.5 32 q-69.5 32 -107.5 90.5 q-38 58.5 -38 136.5 q0 78 38 136.5 q38 58.5 108 90.5 q70 32 162 32 q83 0 147 -27 q64 -27 101 -82 l0 97 l137 0 ZM394 122 q62 0 108 19.5 q46 19.5 71 54 q25 34.5 25 76.5 q0 43 -25 77 q-25 34 -71 54 q-46 20 -108 20 q-62 0 -108 -20 q-46 -20 -71 -54 q-25 -34 -25 -77 q0 -42 25 -76.5 q25 -34.5 71 -54 q46 -19.5 108 -19.5 Z" /><glyph glyph-name="h" unicode="h" d="M467 536 q123 0 187 -63 q64 -63 64 -185 l0 -288 l-149 0 l0 242 q0 85 -37 128 q-37 43 -119 43 q-93 0 -143 -52.5 q-50 -52.5 -50 -143.5 l0 -217 l-149 0 l0 736 l149 0 l0 -318 q37 58 100 88 q63 30 147 30 Z" /><glyph glyph-name="hbar" unicode="&#x127;" d="M487 536 q122 0 186.5 -63 q64.5 -63 64.5 -185 l0 -288 l-149 0 l0 242 q0 85 -37.5 128 q-37.5 43 -119.5 43 q-93 0 -143 -52.5 q-50 -52.5 -50 -143.5 l0 -217 l-149 0 l0 590 l-83 0 l0 68 l83 0 l0 78 l149 0 l0 -78 l259 0 l0 -68 l-259 0 l0 -172 q37 58 100 88 q63 30 148 30 Z" /><glyph glyph-name="i" unicode="i" d="M66 729 l158 0 l0 -135 l-158 0 l0 135 ZM71 524 l149 0 l0 -524 l-149 0 l0 524 Z" /><glyph glyph-name="dotlessi" unicode="&#x131;" d="M71 524 l149 0 l0 -524 l-149 0 l0 524 Z" /><glyph glyph-name="iacute" unicode="í" d="M166 735 l155 0 l-123 -147 l-116 0 l84 147 ZM71 524 l149 0 l0 -524 l-149 0 l0 524 Z" /><glyph glyph-name="icircumflex" unicode="î" d="M329 588 l-102 0 l-82 102 l-81 -102 l-103 0 l109 147 l151 0 l108 -147 ZM71 524 l149 0 l0 -524 l-149 0 l0 524 Z" /><glyph glyph-name="idieresis" unicode="ï" d="M-25 716 l128 0 l0 -118 l-128 0 l0 118 ZM187 716 l128 0 l0 -118 l-128 0 l0 118 ZM71 524 l149 0 l0 -524 l-149 0 l0 524 Z" /><glyph glyph-name="igrave" unicode="ì" d="M92 588 l-123 147 l156 0 l83 -147 l-116 0 ZM71 524 l149 0 l0 -524 l-149 0 l0 524 Z" /><glyph glyph-name="imacron" unicode="&#x12b;" d="M-24 701 l338 0 l0 -90 l-338 0 l0 90 ZM71 524 l149 0 l0 -524 l-149 0 l0 524 Z" /><glyph glyph-name="iogonek" unicode="&#x12f;" d="M224 594 l-158 0 l0 135 l158 0 l0 -135 ZM249 -115 q-12 -41 -49.5 -65 q-37.5 -24 -93.5 -24 q-53 0 -86 22 q-33 22 -33 62 q0 44 41 73.5 q41 29.5 107 46.5 l-64 0 l0 524 l149 0 l0 -524 q-137 -62 -137 -112 q0 -17 11.5 -25.5 q11.5 -8.5 32.5 -8.5 q26 0 42 13 q16 13 22 33 l58 -15 Z" /><glyph glyph-name="j" unicode="j" d="M224 729 l0 -135 l-157 0 l0 135 l157 0 ZM71 524 l149 0 l0 -555 q0 -98 -40.5 -139.5 q-40.5 -41.5 -134.5 -41.5 q-31 0 -89 5 l0 120 q15 -2 38 -2 q40 0 58.5 17.5 q18.5 17.5 18.5 72.5 l0 523 Z" /><glyph glyph-name="k" unicode="k" d="M547 0 l-229 206 l-98 0 l0 -206 l-149 0 l0 736 l149 0 l0 -414 l101 0 l220 202 l184 0 l-295 -248 l314 -276 l-197 0 Z" /><glyph glyph-name="kcommaaccent" unicode="&#x137;" d="M744 0 l-197 0 l-229 206 l-98 0 l0 -206 l-149 0 l0 736 l149 0 l0 -414 l101 0 l220 202 l184 0 l-295 -248 l314 -276 ZM309 -50 l132 0 l0 -80 l-70 -107 l-62 0 l0 187 Z" /><glyph glyph-name="l" unicode="l" d="M220 736 l0 -736 l-149 0 l0 736 l149 0 Z" /><glyph glyph-name="lacute" unicode="&#x13a;" d="M178 918 l144 0 l-127 -122 l-117 0 l100 122 ZM220 736 l0 -736 l-149 0 l0 736 l149 0 Z" /><glyph glyph-name="lcaron" unicode="&#x13e;" d="M220 736 l0 -736 l-149 0 l0 736 l149 0 ZM294 736 l110 0 l0 -73 l-55 -105 l-55 0 l0 178 Z" /><glyph glyph-name="lcommaaccent" unicode="&#x13c;" d="M220 736 l0 -736 l-149 0 l0 736 l149 0 ZM79 -50 l133 0 l0 -80 l-70 -107 l-63 0 l0 187 Z" /><glyph glyph-name="ldot" unicode="&#x140;" d="M220 736 l0 -736 l-149 0 l0 736 l149 0 ZM296 390 l166 0 l0 -156 l-166 0 l0 156 Z" /><glyph glyph-name="lslash" unicode="&#x142;" d="M317 434 l-74 -58 l0 -376 l-149 0 l0 259 l-74 -59 l0 102 l74 58 l0 376 l149 0 l0 -259 l74 59 l0 -102 Z" /><glyph glyph-name="m" unicode="m" d="M904 536 q109 0 170.5 -62 q61.5 -62 61.5 -175 l0 -299 l-149 0 l0 261 q0 70 -35 111 q-35 41 -103 41 q-79 0 -125 -51.5 q-46 -51.5 -46 -144.5 l0 -217 l-149 0 l0 261 q0 70 -35 111 q-35 41 -104 41 q-78 0 -124 -51.5 q-46 -51.5 -46 -144.5 l0 -217 l-149 0 l0 524 l137 0 l0 -123 q34 66 95.5 100.5 q61.5 34.5 141.5 34.5 q83 0 139.5 -36.5 q56.5 -36.5 79.5 -104.5 q33 69 95 105 q62 36 145 36 Z" /><glyph glyph-name="n" unicode="n" d="M467 536 q123 0 187 -63 q64 -63 64 -185 l0 -288 l-149 0 l0 242 q0 85 -37 128 q-37 43 -119 43 q-93 0 -143 -52.5 q-50 -52.5 -50 -143.5 l0 -217 l-149 0 l0 524 l137 0 l0 -126 q35 67 101.5 102.5 q66.5 35.5 157.5 35.5 Z" /><glyph glyph-name="nacute" unicode="&#x144;" d="M429 588 l-115 0 l108 147 l154 0 l-147 -147 ZM467 536 q123 0 187 -63 q64 -63 64 -185 l0 -288 l-149 0 l0 242 q0 85 -37 128 q-37 43 -119 43 q-93 0 -143 -52.5 q-50 -52.5 -50 -143.5 l0 -217 l-149 0 l0 524 l137 0 l0 -126 q35 67 101.5 102.5 q66.5 35.5 157.5 35.5 Z" /><glyph glyph-name="ncaron" unicode="&#x148;" d="M322 585 l-133 147 l105 0 l106 -105 l105 105 l106 0 l-134 -147 l-155 0 ZM467 536 q123 0 187 -63 q64 -63 64 -185 l0 -288 l-149 0 l0 242 q0 85 -37 128 q-37 43 -119 43 q-93 0 -143 -52.5 q-50 -52.5 -50 -143.5 l0 -217 l-149 0 l0 524 l137 0 l0 -126 q35 67 101.5 102.5 q66.5 35.5 157.5 35.5 Z" /><glyph glyph-name="ncommaaccent" unicode="&#x146;" d="M467 536 q123 0 187 -63 q64 -63 64 -185 l0 -288 l-149 0 l0 242 q0 85 -37 128 q-37 43 -119 43 q-93 0 -143 -52.5 q-50 -52.5 -50 -143.5 l0 -217 l-149 0 l0 524 l137 0 l0 -126 q35 67 101.5 102.5 q66.5 35.5 157.5 35.5 ZM334 -50 l132 0 l0 -80 l-70 -107 l-62 0 l0 187 Z" /><glyph glyph-name="eng" unicode="&#x14b;" d="M467 536 q123 0 187 -63 q64 -63 64 -185 l0 -319 q0 -98 -40.5 -139.5 q-40.5 -41.5 -134.5 -41.5 q-31 0 -89 5 l0 120 q16 -2 38 -2 q40 0 58.5 17.5 q18.5 17.5 18.5 72.5 l0 241 q0 85 -37 128 q-37 43 -119 43 q-93 0 -143 -52.5 q-50 -52.5 -50 -143.5 l0 -217 l-149 0 l0 524 l137 0 l0 -126 q35 67 101.5 102.5 q66.5 35.5 157.5 35.5 Z" /><glyph glyph-name="ntilde" unicode="ñ" d="M310 638 q-23 0 -35.5 -11.5 q-12.5 -11.5 -12.5 -31.5 l-82 0 q0 52 27.5 85.5 q27.5 33.5 92.5 33.5 q35 0 62 -8 q27 -8 57 -23 q26 -11 40 -16 q14 -5 31 -5 q24 0 36.5 11.5 q12.5 11.5 12.5 31.5 l82 0 q0 -52 -27.5 -85.5 q-27.5 -33.5 -93.5 -33.5 q-34 0 -60.5 8 q-26.5 8 -58.5 23 q-23 11 -38.5 16 q-15.5 5 -32.5 5 ZM467 536 q123 0 187 -63 q64 -63 64 -185 l0 -288 l-149 0 l0 242 q0 85 -37 128 q-37 43 -119 43 q-93 0 -143 -52.5 q-50 -52.5 -50 -143.5 l0 -217 l-149 0 l0 524 l137 0 l0 -126 q35 67 101.5 102.5 q66.5 35.5 157.5 35.5 Z" /><glyph glyph-name="o" unicode="o" d="M42 262 q0 86 44.5 147.5 q44.5 61.5 125 94 q80.5 32.5 188.5 32.5 q107 0 187.5 -32.5 q80.5 -32.5 125 -94 q44.5 -61.5 44.5 -147.5 q0 -86 -44.5 -147.5 q-44.5 -61.5 -125 -94 q-80.5 -32.5 -187.5 -32.5 q-108 0 -188.5 32.5 q-80.5 32.5 -125 94 q-44.5 61.5 -44.5 147.5 ZM190 262 q0 -46 25 -82.5 q25 -36.5 72.5 -57.5 q47.5 -21 112.5 -21 q65 0 112.5 21 q47.5 21 72.5 57.5 q25 36.5 25 82.5 q0 46 -25 82.5 q-25 36.5 -72.5 57.5 q-47.5 21 -112.5 21 q-65 0 -112.5 -21 q-47.5 -21 -72.5 -57.5 q-25 -36.5 -25 -82.5 Z" /><glyph glyph-name="oacute" unicode="ó" d="M422 735 l153 0 l-146 -147 l-115 0 l108 147 ZM42 262 q0 86 44.5 147.5 q44.5 61.5 125 94 q80.5 32.5 188.5 32.5 q107 0 187.5 -32.5 q80.5 -32.5 125 -94 q44.5 -61.5 44.5 -147.5 q0 -86 -44.5 -147.5 q-44.5 -61.5 -125 -94 q-80.5 -32.5 -187.5 -32.5 q-108 0 -188.5 32.5 q-80.5 32.5 -125 94 q-44.5 61.5 -44.5 147.5 ZM190 262 q0 -46 25 -82.5 q25 -36.5 72.5 -57.5 q47.5 -21 112.5 -21 q65 0 112.5 21 q47.5 21 72.5 57.5 q25 36.5 25 82.5 q0 46 -25 82.5 q-25 36.5 -72.5 57.5 q-47.5 21 -112.5 21 q-65 0 -112.5 -21 q-47.5 -21 -72.5 -57.5 q-25 -36.5 -25 -82.5 Z" /><glyph glyph-name="ocircumflex" unicode="ô" d="M294 588 l-105 0 l133 147 l155 0 l133 -147 l-105 0 l-106 106 l-105 -106 ZM400 536 q107 0 187.5 -32.5 q80.5 -32.5 125 -94 q44.5 -61.5 44.5 -147.5 q0 -86 -44.5 -147.5 q-44.5 -61.5 -125 -94 q-80.5 -32.5 -187.5 -32.5 q-108 0 -188.5 32.5 q-80.5 32.5 -125 94 q-44.5 61.5 -44.5 147.5 q0 86 44.5 147.5 q44.5 61.5 125 94 q80.5 32.5 188.5 32.5 ZM400 101 q65 0 112.5 21 q47.5 21 72.5 57.5 q25 36.5 25 82.5 q0 46 -25 82.5 q-25 36.5 -72.5 57.5 q-47.5 21 -112.5 21 q-65 0 -112.5 -21 q-47.5 -21 -72.5 -57.5 q-25 -36.5 -25 -82.5 q0 -46 25 -82.5 q25 -36.5 72.5 -57.5 q47.5 -21 112.5 -21 Z" /><glyph glyph-name="odieresis" unicode="ö" d="M213 716 l134 0 l0 -118 l-134 0 l0 118 ZM452 716 l134 0 l0 -118 l-134 0 l0 118 ZM42 262 q0 86 44.5 147.5 q44.5 61.5 125 94 q80.5 32.5 188.5 32.5 q107 0 187.5 -32.5 q80.5 -32.5 125 -94 q44.5 -61.5 44.5 -147.5 q0 -86 -44.5 -147.5 q-44.5 -61.5 -125 -94 q-80.5 -32.5 -187.5 -32.5 q-108 0 -188.5 32.5 q-80.5 32.5 -125 94 q-44.5 61.5 -44.5 147.5 ZM190 262 q0 -46 25 -82.5 q25 -36.5 72.5 -57.5 q47.5 -21 112.5 -21 q65 0 112.5 21 q47.5 21 72.5 57.5 q25 36.5 25 82.5 q0 46 -25 82.5 q-25 36.5 -72.5 57.5 q-47.5 21 -112.5 21 q-65 0 -112.5 -21 q-47.5 -21 -72.5 -57.5 q-25 -36.5 -25 -82.5 Z" /><glyph glyph-name="ograve" unicode="ò" d="M370 588 l-146 147 l154 0 l108 -147 l-116 0 ZM42 262 q0 86 44.5 147.5 q44.5 61.5 125 94 q80.5 32.5 188.5 32.5 q107 0 187.5 -32.5 q80.5 -32.5 125 -94 q44.5 -61.5 44.5 -147.5 q0 -86 -44.5 -147.5 q-44.5 -61.5 -125 -94 q-80.5 -32.5 -187.5 -32.5 q-108 0 -188.5 32.5 q-80.5 32.5 -125 94 q-44.5 61.5 -44.5 147.5 ZM190 262 q0 -46 25 -82.5 q25 -36.5 72.5 -57.5 q47.5 -21 112.5 -21 q65 0 112.5 21 q47.5 21 72.5 57.5 q25 36.5 25 82.5 q0 46 -25 82.5 q-25 36.5 -72.5 57.5 q-47.5 21 -112.5 21 q-65 0 -112.5 -21 q-47.5 -21 -72.5 -57.5 q-25 -36.5 -25 -82.5 Z" /><glyph glyph-name="ohungarumlaut" unicode="&#x151;" d="M322 735 l117 0 l-110 -147 l-108 0 l101 147 ZM533 735 l117 0 l-111 -147 l-107 0 l101 147 ZM42 262 q0 86 44.5 147.5 q44.5 61.5 125 94 q80.5 32.5 188.5 32.5 q107 0 187.5 -32.5 q80.5 -32.5 125 -94 q44.5 -61.5 44.5 -147.5 q0 -86 -44.5 -147.5 q-44.5 -61.5 -125 -94 q-80.5 -32.5 -187.5 -32.5 q-108 0 -188.5 32.5 q-80.5 32.5 -125 94 q-44.5 61.5 -44.5 147.5 ZM190 262 q0 -46 25 -82.5 q25 -36.5 72.5 -57.5 q47.5 -21 112.5 -21 q65 0 112.5 21 q47.5 21 72.5 57.5 q25 36.5 25 82.5 q0 46 -25 82.5 q-25 36.5 -72.5 57.5 q-47.5 21 -112.5 21 q-65 0 -112.5 -21 q-47.5 -21 -72.5 -57.5 q-25 -36.5 -25 -82.5 Z" /><glyph glyph-name="omacron" unicode="&#x14d;" d="M190 705 l419 0 l0 -94 l-419 0 l0 94 ZM42 262 q0 86 44.5 147.5 q44.5 61.5 125 94 q80.5 32.5 188.5 32.5 q107 0 187.5 -32.5 q80.5 -32.5 125 -94 q44.5 -61.5 44.5 -147.5 q0 -86 -44.5 -147.5 q-44.5 -61.5 -125 -94 q-80.5 -32.5 -187.5 -32.5 q-108 0 -188.5 32.5 q-80.5 32.5 -125 94 q-44.5 61.5 -44.5 147.5 ZM190 262 q0 -46 25 -82.5 q25 -36.5 72.5 -57.5 q47.5 -21 112.5 -21 q65 0 112.5 21 q47.5 21 72.5 57.5 q25 36.5 25 82.5 q0 46 -25 82.5 q-25 36.5 -72.5 57.5 q-47.5 21 -112.5 21 q-65 0 -112.5 -21 q-47.5 -21 -72.5 -57.5 q-25 -36.5 -25 -82.5 Z" /><glyph glyph-name="oslash" unicode="ø" d="M662 461 q46 -35 70.5 -85.5 q24.5 -50.5 24.5 -113.5 q0 -86 -44.5 -147.5 q-44.5 -61.5 -125 -94 q-80.5 -32.5 -187.5 -32.5 q-110 0 -193 34 l-62 -59 l-60 49 l52 51 q-46 35 -70.5 85.5 q-24.5 50.5 -24.5 113.5 q0 86 44.5 147.5 q44.5 61.5 125 94 q80.5 32.5 188.5 32.5 q110 0 193 -34 l61 59 l61 -49 l-53 -51 ZM190 262 q0 -64 44 -106 l262 252 q-42 15 -96 15 q-65 0 -112.5 -21 q-47.5 -21 -72.5 -57.5 q-25 -36.5 -25 -82.5 ZM400 101 q65 0 112.5 21 q47.5 21 72.5 57.5 q25 36.5 25 82.5 q0 63 -45 106 l-262 -252 q42 -15 97 -15 Z" /><glyph glyph-name="otilde" unicode="õ" d="M310 638 q-24 0 -36.5 -11.5 q-12.5 -11.5 -12.5 -31.5 l-81 0 q0 52 27.5 85.5 q27.5 33.5 92.5 33.5 q34 0 60.5 -8 q26.5 -8 58.5 -23 q23 -11 38.5 -16 q15.5 -5 32.5 -5 q23 0 35.5 11.5 q12.5 11.5 12.5 31.5 l82 0 q0 -52 -27 -85.5 q-27 -33.5 -93 -33.5 q-35 0 -62 8 q-27 8 -57 23 q-26 11 -40 16 q-14 5 -31 5 ZM400 536 q107 0 187.5 -32.5 q80.5 -32.5 125 -94 q44.5 -61.5 44.5 -147.5 q0 -86 -44.5 -147.5 q-44.5 -61.5 -125 -94 q-80.5 -32.5 -187.5 -32.5 q-108 0 -188.5 32.5 q-80.5 32.5 -125 94 q-44.5 61.5 -44.5 147.5 q0 86 44.5 147.5 q44.5 61.5 125 94 q80.5 32.5 188.5 32.5 ZM400 101 q65 0 112.5 21 q47.5 21 72.5 57.5 q25 36.5 25 82.5 q0 46 -25 82.5 q-25 36.5 -72.5 57.5 q-47.5 21 -112.5 21 q-65 0 -112.5 -21 q-47.5 -21 -72.5 -57.5 q-25 -36.5 -25 -82.5 q0 -46 25 -82.5 q25 -36.5 72.5 -57.5 q47.5 -21 112.5 -21 Z" /><glyph glyph-name="oe" unicode="&#x153;" d="M1308 218 l-548 0 q15 -65 71 -96.5 q56 -31.5 146 -31.5 q63 0 107.5 15.5 q44.5 15.5 67.5 43.5 l145 -6 q-29 -74 -110.5 -114.5 q-81.5 -40.5 -205.5 -40.5 q-108 0 -184.5 31 q-76.5 31 -114.5 94 q-38 -61 -111.5 -93 q-73.5 -32 -175.5 -32 q-105 0 -185 32.5 q-80 32.5 -124 94 q-44 61.5 -44 147.5 q0 86 44 147.5 q44 61.5 124 94 q80 32.5 185 32.5 q102 0 175.5 -32 q73.5 -32 111.5 -93 q38 63 112 94 q74 31 178 31 q336 0 336 -302 l0 -16 ZM967 434 q-83 0 -137.5 -30.5 q-54.5 -30.5 -68.5 -94.5 l400 0 q-5 58 -55.5 91.5 q-50.5 33.5 -138.5 33.5 ZM400 101 q65 0 112.5 21 q47.5 21 72.5 57.5 q25 36.5 25 82.5 q0 46 -25 82.5 q-25 36.5 -72.5 57.5 q-47.5 21 -112.5 21 q-65 0 -112.5 -21 q-47.5 -21 -72.5 -57.5 q-25 -36.5 -25 -82.5 q0 -46 25 -82.5 q25 -36.5 72.5 -57.5 q47.5 -21 112.5 -21 Z" /><glyph glyph-name="p" unicode="p" d="M460 536 q90 0 159.5 -32.5 q69.5 -32.5 109 -94.5 q39.5 -62 39.5 -147 q0 -85 -39 -147 q-39 -62 -108.5 -94.5 q-69.5 -32.5 -158.5 -32.5 q-78 0 -141 25.5 q-63 25.5 -101 75.5 l0 -289 l-149 0 l0 724 l137 0 l0 -105 q36 59 101.5 88 q65.5 29 150.5 29 ZM417 101 q94 0 149 44 q55 44 55 117 q0 73 -55 117 q-55 44 -149 44 q-94 0 -149 -44 q-55 -44 -55 -117 q0 -73 55 -117 q55 -44 149 -44 Z" /><glyph glyph-name="thorn" unicode="þ" d="M460 536 q90 0 159.5 -32.5 q69.5 -32.5 109 -94.5 q39.5 -62 39.5 -147 q0 -85 -39 -147 q-39 -62 -108.5 -94.5 q-69.5 -32.5 -158.5 -32.5 q-78 0 -141 25.5 q-63 25.5 -101 75.5 l0 -289 l-149 0 l0 936 l149 0 l0 -301 q37 51 99.5 76 q62.5 25 140.5 25 ZM417 101 q94 0 149 44 q55 44 55 117 q0 73 -55 117 q-55 44 -149 44 q-94 0 -149 -44 q-55 -44 -55 -117 q0 -73 55 -117 q55 -44 149 -44 Z" /><glyph glyph-name="q" unicode="q" d="M740 524 l0 -724 l-149 0 l0 289 q-38 -50 -101 -75.5 q-63 -25.5 -141 -25.5 q-89 0 -159 32.5 q-70 32.5 -109 94.5 q-39 62 -39 147 q0 85 39.5 147 q39.5 62 109 94.5 q69.5 32.5 159.5 32.5 q85 0 151 -29 q66 -29 101 -88 l0 105 l138 0 ZM394 101 q94 0 149 44 q55 44 55 117 q0 73 -55 117 q-55 44 -149 44 q-94 0 -149 -44 q-55 -44 -55 -117 q0 -73 55 -117 q55 -44 149 -44 Z" /><glyph glyph-name="r" unicode="r" d="M425 536 q44 0 82 -9 l0 -130 q-66 8 -101 8 q-96 0 -141 -52 q-45 -52 -45 -166 l0 -187 l-149 0 l0 524 l138 0 l0 -134 q30 71 85.5 108.5 q55.5 37.5 130.5 37.5 Z" /><glyph glyph-name="racute" unicode="&#x155;" d="M323 588 l-116 0 l108 147 l154 0 l-146 -147 ZM425 536 q44 0 82 -9 l0 -130 q-66 8 -101 8 q-96 0 -141 -52 q-45 -52 -45 -166 l0 -187 l-149 0 l0 524 l138 0 l0 -134 q30 71 85.5 108.5 q55.5 37.5 130.5 37.5 Z" /><glyph glyph-name="rcaron" unicode="&#x159;" d="M216 585 l-134 147 l106 0 l105 -105 l105 105 l106 0 l-134 -147 l-154 0 ZM425 536 q44 0 82 -9 l0 -130 q-66 8 -101 8 q-96 0 -141 -52 q-45 -52 -45 -166 l0 -187 l-149 0 l0 524 l138 0 l0 -134 q30 71 85.5 108.5 q55.5 37.5 130.5 37.5 Z" /><glyph glyph-name="rcommaaccent" unicode="&#x157;" d="M425 536 q44 0 82 -9 l0 -130 q-66 8 -101 8 q-96 0 -141 -52 q-45 -52 -45 -166 l0 -187 l-149 0 l0 524 l138 0 l0 -134 q30 71 85.5 108.5 q55.5 37.5 130.5 37.5 ZM79 -50 l133 0 l0 -80 l-70 -107 l-63 0 l0 187 Z" /><glyph glyph-name="s" unicode="s" d="M504 366 q-11 32 -61 50 q-50 18 -125 18 q-61 0 -91.5 -13 q-30.5 -13 -30.5 -36 q0 -37 80 -53 l189 -35 q96 -18 145.5 -54 q49.5 -36 49.5 -96 q0 -82 -84 -120.5 q-84 -38.5 -233 -38.5 q-298 0 -319 171 l138 4 q9 -36 57.5 -54.5 q48.5 -18.5 136.5 -18.5 q155 0 155 50 q0 36 -90 54 l-200 38 q-87 17 -130.5 55.5 q-43.5 38.5 -43.5 92.5 q0 81 76.5 118.5 q76.5 37.5 202.5 37.5 q131 0 217 -40 q86 -40 99 -125 l-138 -5 Z" /><glyph glyph-name="sacute" unicode="&#x15b;" d="M368 735 l154 0 l-147 -147 l-115 0 l108 147 ZM504 366 q-11 32 -61 50 q-50 18 -125 18 q-61 0 -91.5 -13 q-30.5 -13 -30.5 -36 q0 -37 80 -53 l189 -35 q96 -18 145.5 -54 q49.5 -36 49.5 -96 q0 -82 -84 -120.5 q-84 -38.5 -233 -38.5 q-298 0 -319 171 l138 4 q9 -36 57.5 -54.5 q48.5 -18.5 136.5 -18.5 q155 0 155 50 q0 36 -90 54 l-200 38 q-87 17 -130.5 55.5 q-43.5 38.5 -43.5 92.5 q0 81 76.5 118.5 q76.5 37.5 202.5 37.5 q131 0 217 -40 q86 -40 99 -125 l-138 -5 Z" /><glyph glyph-name="scaron" unicode="&#x161;" d="M268 585 l-133 147 l105 0 l106 -105 l105 105 l105 0 l-133 -147 l-155 0 ZM465 297 q96 -18 145.5 -54 q49.5 -36 49.5 -96 q0 -82 -84 -120.5 q-84 -38.5 -233 -38.5 q-298 0 -319 171 l138 4 q9 -36 57.5 -54.5 q48.5 -18.5 136.5 -18.5 q155 0 155 50 q0 36 -90 54 l-200 38 q-87 17 -130.5 55.5 q-43.5 38.5 -43.5 92.5 q0 81 76.5 118.5 q76.5 37.5 202.5 37.5 q131 0 217 -40 q86 -40 99 -125 l-138 -5 q-11 32 -61 50 q-50 18 -125 18 q-61 0 -91.5 -13 q-30.5 -13 -30.5 -36 q0 -37 80 -53 l189 -35 Z" /><glyph glyph-name="scedilla" unicode="&#x15f;" d="M660 147 q0 -81 -82 -119.5 q-82 -38.5 -229 -39.5 l-36 -49 q37 13 69 13 q44 0 79.5 -20 q35.5 -20 35.5 -62 q0 -46 -41.5 -67 q-41.5 -21 -100.5 -21 q-59 0 -97 20 q-38 20 -47 58 l67 3 q13 -28 64 -28 q29 0 45.5 9 q16.5 9 16.5 26 q0 17 -16 26 q-16 9 -40 9 q-30 0 -58 -11 l-56 23 l54 73 q-245 15 -264 169 l138 4 q9 -36 57.5 -54.5 q48.5 -18.5 136.5 -18.5 q155 0 155 50 q0 36 -90 54 l-200 38 q-87 17 -130.5 55.5 q-43.5 38.5 -43.5 92.5 q0 81 76.5 118.5 q76.5 37.5 202.5 37.5 q131 0 217 -40 q86 -40 99 -125 l-138 -5 q-11 32 -61 50 q-50 18 -125 18 q-61 0 -91.5 -13 q-30.5 -13 -30.5 -36 q0 -37 80 -53 l189 -35 q96 -18 145.5 -54 q49.5 -36 49.5 -96 Z" /><glyph glyph-name="scommaaccent" unicode="&#x219;" d="M504 366 q-11 32 -61 50 q-50 18 -125 18 q-61 0 -91.5 -13 q-30.5 -13 -30.5 -36 q0 -37 80 -53 l189 -35 q96 -18 145.5 -54 q49.5 -36 49.5 -96 q0 -82 -84 -120.5 q-84 -38.5 -233 -38.5 q-298 0 -319 171 l138 4 q9 -36 57.5 -54.5 q48.5 -18.5 136.5 -18.5 q155 0 155 50 q0 36 -90 54 l-200 38 q-87 17 -130.5 55.5 q-43.5 38.5 -43.5 92.5 q0 81 76.5 118.5 q76.5 37.5 202.5 37.5 q131 0 217 -40 q86 -40 99 -125 l-138 -5 ZM280 -50 l132 0 l0 -80 l-70 -107 l-62 0 l0 187 Z" /><glyph glyph-name="germandbls" unicode="ß" d="M480 419 q127 -11 192.5 -63 q65.5 -52 65.5 -143 q0 -108 -87 -163.5 q-87 -55.5 -221 -55.5 q-39 0 -91 6 l0 120 q50 -5 73 -5 q77 0 127 27.5 q50 27.5 50 88.5 q0 61 -55 93.5 q-55 32.5 -163 32.5 l-40 0 l0 114 l33 0 q78 0 118.5 24.5 q40.5 24.5 40.5 68.5 q0 43 -40.5 67 q-40.5 24 -112.5 24 q-75 0 -112.5 -28.5 q-37.5 -28.5 -37.5 -91.5 l0 -535 l-149 0 l0 556 q0 104 77.5 157 q77.5 53 221.5 53 q130 0 216 -44.5 q86 -44.5 86 -140.5 q0 -69 -49 -110 q-49 -41 -143 -52 Z" /><glyph glyph-name="t" unicode="t" d="M322 412 l0 -205 q0 -38 8 -58 q8 -20 28 -29 q20 -9 58 -9 q39 0 82 6 l0 -120 q-54 -9 -113 -9 q-114 0 -163 44.5 q-49 44.5 -49 151.5 l0 228 l-153 0 l0 110 l115 0 q26 0 36.5 9.5 q10.5 9.5 10.5 31.5 l0 88 l140 0 l0 -127 l176 0 l0 -112 l-176 0 Z" /><glyph glyph-name="tbar" unicode="&#x167;" d="M322 412 l0 -100 l159 0 l0 -101 l-159 0 l0 -4 q0 -38 8 -58 q8 -20 28 -29 q20 -9 58 -9 q39 0 82 6 l0 -120 q-54 -9 -113 -9 q-114 0 -163 44.5 q-49 44.5 -49 151.5 l0 27 l-135 0 l0 101 l135 0 l0 100 l-153 0 l0 110 l115 0 q26 0 36.5 9.5 q10.5 9.5 10.5 31.5 l0 88 l140 0 l0 -127 l176 0 l0 -112 l-176 0 Z" /><glyph glyph-name="tcaron" unicode="&#x165;" d="M438 570 l-54 0 l0 166 l109 0 l0 -62 l-55 -104 ZM322 412 l0 -205 q0 -38 8 -58 q8 -20 28 -29 q20 -9 58 -9 q39 0 82 6 l0 -120 q-54 -9 -113 -9 q-114 0 -163 44.5 q-49 44.5 -49 151.5 l0 228 l-153 0 l0 110 l115 0 q26 0 36.5 9.5 q10.5 9.5 10.5 31.5 l0 88 l140 0 l0 -127 l176 0 l0 -112 l-176 0 Z" /><glyph glyph-name="uni0163" unicode="&#x163;" d="M386 -48 q45 0 80 -20 q35 -20 35 -62 q0 -46 -41 -67 q-41 -21 -100 -21 q-59 0 -97.5 20 q-38.5 20 -47.5 58 l67 3 q13 -28 64 -28 q29 0 45.5 9 q16.5 9 16.5 26 q0 17 -16 26 q-16 9 -40 9 q-30 0 -58 -11 l-56 23 l60 79 q-65 15 -95 59.5 q-30 44.5 -30 128.5 l0 228 l-153 0 l0 110 l115 0 q26 0 36.5 9.5 q10.5 9.5 10.5 31.5 l0 88 l140 0 l0 -127 l176 0 l0 -112 l-176 0 l0 -205 q0 -38 8 -58 q8 -20 28 -29 q20 -9 58 -9 q39 0 82 6 l0 -120 q-54 -9 -113 -9 q-21 0 -31 1 l-36 -50 q35 13 68 13 Z" /><glyph glyph-name="uni021B" unicode="&#x21b;" d="M322 412 l0 -205 q0 -38 8 -58 q8 -20 28 -29 q20 -9 58 -9 q39 0 82 6 l0 -120 q-54 -9 -113 -9 q-114 0 -163 44.5 q-49 44.5 -49 151.5 l0 228 l-153 0 l0 110 l115 0 q26 0 36.5 9.5 q10.5 9.5 10.5 31.5 l0 88 l140 0 l0 -127 l176 0 l0 -112 l-176 0 ZM284 -50 l132 0 l0 -80 l-70 -107 l-62 0 l0 187 Z" /><glyph glyph-name="u" unicode="u" d="M713 524 l0 -524 l-138 0 l0 134 q-35 -70 -101 -108 q-66 -38 -157 -38 q-121 0 -186.5 66 q-65.5 66 -65.5 189 l0 281 l149 0 l0 -236 q0 -177 158 -177 q92 0 142 58 q50 58 50 151 l0 204 l149 0 Z" /><glyph glyph-name="uacute" unicode="ú" d="M421 588 l-115 0 l108 147 l154 0 l-147 -147 ZM713 524 l0 -524 l-138 0 l0 134 q-35 -70 -101 -108 q-66 -38 -157 -38 q-121 0 -186.5 66 q-65.5 66 -65.5 189 l0 281 l149 0 l0 -236 q0 -177 158 -177 q92 0 142 58 q50 58 50 151 l0 204 l149 0 Z" /><glyph glyph-name="ucircumflex" unicode="û" d="M286 588 l-105 0 l133 147 l155 0 l134 -147 l-106 0 l-105 106 l-106 -106 ZM713 524 l0 -524 l-138 0 l0 134 q-35 -70 -101 -108 q-66 -38 -157 -38 q-121 0 -186.5 66 q-65.5 66 -65.5 189 l0 281 l149 0 l0 -236 q0 -177 158 -177 q92 0 142 58 q50 58 50 151 l0 204 l149 0 Z" /><glyph glyph-name="udieresis" unicode="ü" d="M339 598 l-133 0 l0 118 l133 0 l0 -118 ZM578 598 l-133 0 l0 118 l133 0 l0 -118 ZM713 524 l0 -524 l-138 0 l0 134 q-35 -70 -101 -108 q-66 -38 -157 -38 q-121 0 -186.5 66 q-65.5 66 -65.5 189 l0 281 l149 0 l0 -236 q0 -177 158 -177 q92 0 142 58 q50 58 50 151 l0 204 l149 0 Z" /><glyph glyph-name="ugrave" unicode="ù" d="M363 588 l-147 147 l154 0 l108 -147 l-115 0 ZM713 524 l0 -524 l-138 0 l0 134 q-35 -70 -101 -108 q-66 -38 -157 -38 q-121 0 -186.5 66 q-65.5 66 -65.5 189 l0 281 l149 0 l0 -236 q0 -177 158 -177 q92 0 142 58 q50 58 50 151 l0 204 l149 0 Z" /><glyph glyph-name="uhungarumlaut" unicode="&#x171;" d="M321 588 l-107 0 l101 147 l116 0 l-110 -147 ZM424 588 l101 147 l117 0 l-110 -147 l-108 0 ZM713 524 l0 -524 l-138 0 l0 134 q-35 -70 -101 -108 q-66 -38 -157 -38 q-121 0 -186.5 66 q-65.5 66 -65.5 189 l0 281 l149 0 l0 -236 q0 -177 158 -177 q92 0 142 58 q50 58 50 151 l0 204 l149 0 Z" /><glyph glyph-name="umacron" unicode="&#x16b;" d="M602 611 l-420 0 l0 94 l420 0 l0 -94 ZM713 524 l0 -524 l-138 0 l0 134 q-35 -70 -101 -108 q-66 -38 -157 -38 q-121 0 -186.5 66 q-65.5 66 -65.5 189 l0 281 l149 0 l0 -236 q0 -177 158 -177 q92 0 142 58 q50 58 50 151 l0 204 l149 0 Z" /><glyph glyph-name="uogonek" unicode="&#x173;" d="M734 -115 q-12 -41 -50 -65 q-38 -24 -96 -24 q-54 0 -87.5 22 q-33.5 22 -33.5 61 q0 81 161 121 l-53 0 l0 134 q-35 -70 -101 -108 q-66 -38 -157 -38 q-121 0 -186.5 66 q-65.5 66 -65.5 189 l0 281 l149 0 l0 -236 q0 -177 158 -177 q92 0 142 58 q50 58 50 151 l0 204 l149 0 l0 -524 l-1 0 q-71 -31 -110 -57 q-39 -26 -39 -56 q0 -16 12 -24.5 q12 -8.5 33 -8.5 q28 0 44.5 13 q16.5 13 22.5 33 l59 -15 Z" /><glyph glyph-name="uring" unicode="&#x16f;" d="M392 582 q-62 0 -105 28 q-43 28 -43 77 q0 50 43 77.5 q43 27.5 105 27.5 q62 0 105 -27.5 q43 -27.5 43 -77.5 q0 -49 -43 -77 q-43 -28 -105 -28 ZM392 734 q-33 0 -53.5 -12.5 q-20.5 -12.5 -20.5 -34.5 q0 -21 20.5 -34 q20.5 -13 53.5 -13 q33 0 53.5 13 q20.5 13 20.5 34 q0 22 -20.5 34.5 q-20.5 12.5 -53.5 12.5 ZM713 524 l0 -524 l-138 0 l0 134 q-35 -70 -101 -108 q-66 -38 -157 -38 q-121 0 -186.5 66 q-65.5 66 -65.5 189 l0 281 l149 0 l0 -236 q0 -177 158 -177 q92 0 142 58 q50 58 50 151 l0 204 l149 0 Z" /><glyph glyph-name="v" unicode="v" d="M743 524 l-256 -524 l-217 0 l-253 524 l164 0 l200 -446 l201 446 l161 0 Z" /><glyph glyph-name="w" unicode="w" d="M1162 524 l-213 -524 l-212 0 l-142 448 l-145 -448 l-216 0 l-211 524 l164 0 l160 -429 l145 429 l209 0 l140 -418 l161 418 l160 0 Z" /><glyph glyph-name="wacute" unicode="&#x1e83;" d="M626 588 l-115 0 l108 147 l153 0 l-146 -147 ZM1162 524 l-213 -524 l-212 0 l-142 448 l-145 -448 l-216 0 l-211 524 l164 0 l160 -429 l145 429 l209 0 l140 -418 l161 418 l160 0 Z" /><glyph glyph-name="wcircumflex" unicode="&#x175;" d="M491 588 l-105 0 l133 147 l155 0 l133 -147 l-105 0 l-106 106 l-105 -106 ZM1162 524 l-213 -524 l-212 0 l-142 448 l-145 -448 l-216 0 l-211 524 l164 0 l160 -429 l145 429 l209 0 l140 -418 l161 418 l160 0 Z" /><glyph glyph-name="wdieresis" unicode="&#x1e85;" d="M544 598 l-134 0 l0 118 l134 0 l0 -118 ZM783 598 l-134 0 l0 118 l134 0 l0 -118 ZM1162 524 l-213 -524 l-212 0 l-142 448 l-145 -448 l-216 0 l-211 524 l164 0 l160 -429 l145 429 l209 0 l140 -418 l161 418 l160 0 Z" /><glyph glyph-name="wgrave" unicode="&#x1e81;" d="M567 588 l-146 147 l154 0 l108 -147 l-116 0 ZM1162 524 l-213 -524 l-212 0 l-142 448 l-145 -448 l-216 0 l-211 524 l164 0 l160 -429 l145 429 l209 0 l140 -418 l161 418 l160 0 Z" /><glyph glyph-name="x" unicode="x" d="M572 0 l-187 190 l-187 -190 l-177 0 l275 269 l-262 255 l183 0 l171 -174 l171 174 l176 0 l-258 -252 l278 -272 l-183 0 Z" /><glyph glyph-name="y" unicode="y" d="M749 524 l-254 -562 q-30 -69 -63.5 -106 q-33.5 -37 -82 -52.5 q-48.5 -15.5 -125.5 -15.5 q-39 0 -89 5 l0 114 q41 -3 79 -3 q59 0 89 15 q30 15 50 58 l10 23 l-64 0 l-281 524 l164 0 l229 -461 l178 461 l160 0 Z" /><glyph glyph-name="yacute" unicode="ý" d="M419 588 l-116 0 l108 147 l154 0 l-146 -147 ZM749 524 l-254 -562 q-30 -69 -63.5 -106 q-33.5 -37 -82 -52.5 q-48.5 -15.5 -125.5 -15.5 q-39 0 -89 5 l0 114 q41 -3 79 -3 q59 0 89 15 q30 15 50 58 l10 23 l-64 0 l-281 524 l164 0 l229 -461 l178 461 l160 0 Z" /><glyph glyph-name="ycircumflex" unicode="&#x177;" d="M284 588 l-106 0 l134 147 l154 0 l134 -147 l-106 0 l-105 106 l-105 -106 ZM749 524 l-254 -562 q-30 -69 -63.5 -106 q-33.5 -37 -82 -52.5 q-48.5 -15.5 -125.5 -15.5 q-39 0 -89 5 l0 114 q41 -3 79 -3 q59 0 89 15 q30 15 50 58 l10 23 l-64 0 l-281 524 l164 0 l229 -461 l178 461 l160 0 Z" /><glyph glyph-name="ydieresis" unicode="ÿ" d="M337 598 l-134 0 l0 118 l134 0 l0 -118 ZM576 598 l-134 0 l0 118 l134 0 l0 -118 ZM749 524 l-254 -562 q-30 -69 -63.5 -106 q-33.5 -37 -82 -52.5 q-48.5 -15.5 -125.5 -15.5 q-39 0 -89 5 l0 114 q41 -3 79 -3 q59 0 89 15 q30 15 50 58 l10 23 l-64 0 l-281 524 l164 0 l229 -461 l178 461 l160 0 Z" /><glyph glyph-name="ygrave" unicode="&#x1ef3;" d="M360 588 l-146 147 l153 0 l108 -147 l-115 0 ZM749 524 l-254 -562 q-30 -69 -63.5 -106 q-33.5 -37 -82 -52.5 q-48.5 -15.5 -125.5 -15.5 q-39 0 -89 5 l0 114 q41 -3 79 -3 q59 0 89 15 q30 15 50 58 l10 23 l-64 0 l-281 524 l164 0 l229 -461 l178 461 l160 0 Z" /><glyph glyph-name="z" unicode="z" d="M649 116 l0 -116 l-629 0 l0 102 l405 306 l-377 0 l0 116 l589 0 l0 -102 l-404 -306 l416 0 Z" /><glyph glyph-name="zacute" unicode="&#x17a;" d="M374 588 l-115 0 l108 147 l154 0 l-147 -147 ZM649 116 l0 -116 l-629 0 l0 102 l405 306 l-377 0 l0 116 l589 0 l0 -102 l-404 -306 l416 0 Z" /><glyph glyph-name="zcaron" unicode="&#x17e;" d="M267 585 l-133 147 l105 0 l106 -105 l105 105 l106 0 l-134 -147 l-155 0 ZM649 116 l0 -116 l-629 0 l0 102 l405 306 l-377 0 l0 116 l589 0 l0 -102 l-404 -306 l416 0 Z" /><glyph glyph-name="zdotaccent" unicode="&#x17c;" d="M424 594 l-158 0 l0 135 l158 0 l0 -135 ZM649 116 l0 -116 l-629 0 l0 102 l405 306 l-377 0 l0 116 l589 0 l0 -102 l-404 -306 l416 0 Z" /><glyph glyph-name="uni0410" unicode="&#x410;" d="M686 157 l-442 0 l-73 -157 l-155 0 l332 700 l239 0 l332 -700 l-160 0 l-73 157 ZM632 274 l-167 360 l-167 -360 l334 0 Z" /><glyph glyph-name="uni0411" unicode="&#x411;" d="M568 427 q123 0 197.5 -54 q74.5 -54 74.5 -159 q0 -107 -74 -160.5 q-74 -53.5 -198 -53.5 l-413 0 l-64 0 l0 700 l156 0 l520 0 l0 -121 l-520 0 l0 -152 l321 0 ZM556 121 q62 0 95 24.5 q33 24.5 33 69.5 q0 44 -33 68.5 q-33 24.5 -95 24.5 l-309 0 l0 -187 l309 0 Z" /><glyph glyph-name="uni0412" unicode="&#x412;" d="M648 358 q213 -20 213 -169 q0 -89 -75 -139 q-75 -50 -218 -50 l-477 0 l0 700 l478 0 q80 0 140 -23 q60 -23 92 -65 q32 -42 32 -96 q0 -68 -50.5 -107.5 q-50.5 -39.5 -134.5 -50.5 ZM247 412 l314 0 q52 0 84 22.5 q32 22.5 32 61.5 q0 40 -31.5 61.5 q-31.5 21.5 -84.5 21.5 l-314 0 l0 -167 ZM553 121 q77 0 114.5 20.5 q37.5 20.5 37.5 67.5 q0 47 -37 67 q-37 20 -105 20 l-316 0 l0 -175 l306 0 Z" /><glyph glyph-name="uni0413" unicode="&#x413;" d="M91 700 l624 0 l0 -128 l-468 0 l0 -572 l-156 0 l0 700 Z" /><glyph glyph-name="uni0490" unicode="&#x490;" d="M91 700 l479 0 l0 167 l145 0 l0 -295 l-468 0 l0 -572 l-156 0 l0 700 Z" /><glyph glyph-name="uni0414" unicode="&#x414;" d="M913 128 l0 -289 l-145 0 l0 161 l-614 0 l0 -161 l-145 0 l0 289 l75 0 q47 54 71.5 187.5 q24.5 133.5 34.5 384.5 l635 0 l0 -572 l88 0 ZM669 572 l-339 0 q-17 -195 -41 -295 q-23 -95 -54 -149 l434 0 l0 444 Z" /><glyph glyph-name="uni0415" unicode="&#x415;" d="M91 700 l677 0 l0 -122 l-521 0 l0 -164 l410 0 l0 -116 l-410 0 l0 -176 l540 0 l0 -122 l-696 0 l0 700 Z" /><glyph glyph-name="uni0401" unicode="&#x401;" d="M209 875 l148 0 l0 -114 l-148 0 l0 114 ZM478 875 l148 0 l0 -114 l-148 0 l0 114 ZM91 700 l677 0 l0 -122 l-521 0 l0 -164 l410 0 l0 -116 l-410 0 l0 -176 l540 0 l0 -122 l-696 0 l0 700 Z" /><glyph glyph-name="uni0416" unicode="&#x416;" d="M1193 0 l-279 291 l-133 0 l0 -291 l-152 0 l0 291 l-132 0 l-279 -291 l-199 0 l358 362 l-343 338 l188 0 l273 -288 l134 0 l0 288 l152 0 l0 -288 l135 0 l272 288 l188 0 l-342 -338 l357 -362 l-198 0 Z" /><glyph glyph-name="uni0417" unicode="&#x417;" d="M536 361 q263 -20 263 -176 q0 -100 -101 -148.5 q-101 -48.5 -274 -48.5 q-181 0 -279 56 q-98 56 -114 173 l149 5 q11 -55 72 -84 q61 -29 172 -29 q105 0 162 25 q57 25 57 70 q0 44 -55.5 69 q-55.5 25 -165.5 25 l-118 0 l0 116 l112 0 q98 0 148.5 23.5 q50.5 23.5 50.5 64.5 q0 42 -51 65.5 q-51 23.5 -139 23.5 q-90 0 -151 -25 q-61 -25 -73 -78 l-148 8 q15 107 114.5 161.5 q99.5 54.5 257.5 54.5 q155 0 250.5 -44.5 q95.5 -44.5 95.5 -138.5 q0 -72 -59 -115 q-59 -43 -176 -53 Z" /><glyph glyph-name="uni0418" unicode="&#x418;" d="M897 700 l0 -700 l-152 0 l0 597 l-414 -597 l-240 0 l0 700 l152 0 l0 -597 l414 597 l240 0 Z" /><glyph glyph-name="uni0419" unicode="&#x419;" d="M495 756 q-206 0 -213 147 l101 0 q7 -65 112 -65 q57 0 82 17.5 q25 17.5 29 47.5 l101 0 q-7 -147 -212 -147 ZM897 700 l0 -700 l-152 0 l0 597 l-414 -597 l-240 0 l0 700 l152 0 l0 -597 l414 597 l240 0 Z" /><glyph glyph-name="uni041A" unicode="&#x41a;" d="M697 0 l-304 292 l-146 0 l0 -292 l-156 0 l0 700 l156 0 l0 -288 l144 0 l288 288 l189 0 l-353 -338 l382 -362 l-200 0 Z" /><glyph glyph-name="uni041B" unicode="&#x41b;" d="M869 700 l0 -700 l-156 0 l0 572 l-362 0 l-6 -103 q-9 -183 -24 -274 q-15 -91 -62.5 -145.5 q-47.5 -54.5 -147.5 -54.5 q-46 0 -90 4 l0 127 q29 -4 50 -4 q56 0 82.5 46 q26.5 46 35 126 q8.5 80 14.5 243 q5 122 7 163 l659 0 Z" /><glyph glyph-name="uni041C" unicode="&#x41c;" d="M1147 700 l-1 -700 l-150 0 l0 621 l-272 -621 l-212 0 l-271 620 l0 -620 l-150 0 l0 700 l273 0 l256 -615 l254 615 l273 0 Z" /><glyph glyph-name="uni041D" unicode="&#x41d;" d="M875 700 l0 -700 l-156 0 l0 292 l-472 0 l0 -292 l-156 0 l0 700 l156 0 l0 -280 l472 0 l0 280 l156 0 Z" /><glyph glyph-name="uni041E" unicode="&#x41e;" d="M48 350 q0 109 52.5 191 q52.5 82 153.5 126.5 q101 44.5 242 44.5 q141 0 242 -44.5 q101 -44.5 154 -126.5 q53 -82 53 -191 q0 -109 -53 -191 q-53 -82 -154 -126.5 q-101 -44.5 -242 -44.5 q-141 0 -242 44.5 q-101 44.5 -153.5 126.5 q-52.5 82 -52.5 191 ZM204 350 q0 -68 33.5 -121.5 q33.5 -53.5 99.5 -83.5 q66 -30 159 -30 q93 0 159 30 q66 30 100 83.5 q34 53.5 34 121.5 q0 68 -34 121.5 q-34 53.5 -100 83.5 q-66 30 -159 30 q-93 0 -159 -30 q-66 -30 -99.5 -83.5 q-33.5 -53.5 -33.5 -121.5 Z" /><glyph glyph-name="uni041F" unicode="&#x41f;" d="M868 0 l-156 0 l0 572 l-465 0 l0 -572 l-156 0 l0 700 l777 0 l0 -700 Z" /><glyph glyph-name="uni0420" unicode="&#x420;" d="M560 700 q121 0 196.5 -57 q75.5 -57 75.5 -168 q0 -112 -73.5 -165.5 q-73.5 -53.5 -198.5 -53.5 l-313 0 l0 -256 l-156 0 l0 700 l156 0 l313 0 ZM552 377 q58 0 91 25 q33 25 33 73 q0 48 -33 72.5 q-33 24.5 -91 24.5 l-305 0 l0 -195 l305 0 Z" /><glyph glyph-name="uni0421" unicode="&#x421;" d="M888 240 q-20 -120 -121.5 -186 q-101.5 -66 -277.5 -66 q-140 0 -239.5 44.5 q-99.5 44.5 -150.5 126 q-51 81.5 -51 191.5 q0 109 50.5 191 q50.5 82 147 126.5 q96.5 44.5 232.5 44.5 q109 0 194 -29.5 q85 -29.5 137.5 -83.5 q52.5 -54 66.5 -126 l-150 -10 q-16 55 -84.5 88.5 q-68.5 33.5 -163.5 33.5 q-88 0 -149.5 -30 q-61.5 -30 -93 -83.5 q-31.5 -53.5 -31.5 -121.5 q0 -69 32.5 -122 q32.5 -53 96.5 -83 q64 -30 156 -30 q103 0 167.5 37.5 q64.5 37.5 80.5 95.5 l151 -8 Z" /><glyph glyph-name="uni0422" unicode="&#x422;" d="M26 700 l765 0 l0 -128 l-304 0 l0 -572 l-156 0 l0 572 l-305 0 l0 128 Z" /><glyph glyph-name="uni0423" unicode="&#x423;" d="M884 700 l-281 -499 q-44 -80 -81 -123.5 q-37 -43.5 -84 -63.5 q-47 -20 -117 -20 q-42 0 -111 7 l0 122 q65 -5 95 -5 q43 0 74 14.5 q31 14.5 53 55.5 l6 11 l-64 0 l-354 501 l174 0 l296 -441 l224 441 l170 0 Z" /><glyph glyph-name="uni040E" unicode="&#x40e;" d="M450 756 q-205 0 -212 147 l101 0 q7 -65 111 -65 q57 0 82.5 17.5 q25.5 17.5 28.5 47.5 l102 0 q-7 -147 -213 -147 ZM884 700 l-281 -499 q-44 -80 -81 -123.5 q-37 -43.5 -84 -63.5 q-47 -20 -117 -20 q-42 0 -111 7 l0 122 q65 -5 95 -5 q43 0 74 14.5 q31 14.5 53 55.5 l6 11 l-64 0 l-354 501 l174 0 l296 -441 l224 441 l170 0 Z" /><glyph glyph-name="uni0424" unicode="&#x424;" d="M734 651 q188 0 287.5 -73.5 q99.5 -73.5 99.5 -211.5 q0 -139 -99.5 -212.5 q-99.5 -73.5 -287.5 -73.5 l-76 0 l0 -80 l-151 0 l0 80 l-75 0 q-189 0 -288.5 73.5 q-99.5 73.5 -99.5 212.5 q0 138 99.5 211.5 q99.5 73.5 288.5 73.5 l75 0 l0 61 l151 0 l0 -61 l76 0 ZM507 202 l0 328 l-66 0 q-241 0 -241 -164 q0 -84 61 -124 q61 -40 180 -40 l66 0 ZM724 202 q119 0 180 40 q61 40 61 124 q0 164 -241 164 l-66 0 l0 -328 l66 0 Z" /><glyph glyph-name="uni0425" unicode="&#x425;" d="M690 0 l-244 266 l-247 -266 l-176 0 l333 357 l-310 343 l186 0 l215 -251 l224 251 l177 0 l-307 -339 l335 -361 l-186 0 Z" /><glyph glyph-name="uni0427" unicode="&#x427;" d="M811 700 l0 -700 l-156 0 l0 276 q-65 -12 -137.5 -19 q-72.5 -7 -131.5 -7 q-159 0 -240 56.5 q-81 56.5 -81 166.5 l0 227 l156 0 l0 -199 q0 -69 50 -96 q50 -27 160 -27 q120 0 224 25 l0 297 l156 0 Z" /><glyph glyph-name="uni0426" unicode="&#x426;" d="M91 700 l156 0 l0 -572 l465 0 l0 572 l156 0 l0 -572 l89 0 l0 -289 l-145 0 l0 161 l-721 0 l0 700 Z" /><glyph glyph-name="uni0428" unicode="&#x428;" d="M91 700 l152 0 l0 -572 l341 0 l0 572 l153 0 l0 -572 l341 0 l0 572 l152 0 l0 -700 l-1139 0 l0 700 Z" /><glyph glyph-name="uni0429" unicode="&#x429;" d="M91 700 l152 0 l0 -572 l341 0 l0 572 l153 0 l0 -572 l341 0 l0 572 l152 0 l0 -572 l90 0 l0 -289 l-145 0 l0 161 l-1084 0 l0 700 Z" /><glyph glyph-name="uni042C" unicode="&#x42c;" d="M551 442 q123 0 197 -55.5 q74 -55.5 74 -166.5 q0 -111 -73.5 -165.5 q-73.5 -54.5 -197.5 -54.5 l-396 0 l-64 0 l0 700 l156 0 l0 -258 l304 0 ZM543 128 q57 0 90 24 q33 24 33 71 q0 47 -33 71 q-33 24 -90 24 l-296 0 l0 -190 l296 0 Z" /><glyph glyph-name="uni042A" unicode="&#x42a;" d="M702 442 q123 0 197 -55.5 q74 -55.5 74 -166.5 q0 -111 -73.5 -165.5 q-73.5 -54.5 -197.5 -54.5 l-396 0 l-64 0 l0 572 l-219 0 l0 128 l374 0 l1 0 l0 -258 l304 0 ZM694 128 q57 0 90 24 q33 24 33 71 q0 47 -33 71 q-33 24 -90 24 l-296 0 l0 -190 l296 0 Z" /><glyph glyph-name="uni042B" unicode="&#x42b;" d="M531 442 q124 0 198 -55.5 q74 -55.5 74 -166.5 q0 -111 -74 -165.5 q-74 -54.5 -198 -54.5 l-376 0 l-64 0 l0 700 l156 0 l0 -258 l284 0 ZM1079 700 l0 -700 l-156 0 l0 700 l156 0 ZM524 128 q57 0 90 24 q33 24 33 71 q0 47 -33 71 q-33 24 -90 24 l-277 0 l0 -190 l277 0 Z" /><glyph glyph-name="uni0404" unicode="&#x404;" d="M890 232 q-22 -116 -123.5 -180 q-101.5 -64 -275.5 -64 q-141 0 -240.5 44.5 q-99.5 44.5 -151 126 q-51.5 81.5 -51.5 191.5 q0 109 50.5 191 q50.5 82 147.5 126.5 q97 44.5 234 44.5 q163 0 268 -62 q105 -62 130 -169 l-151 -9 q-20 52 -87.5 82.5 q-67.5 30.5 -159.5 30.5 q-110 0 -179 -46 q-69 -46 -89 -125 l359 0 l0 -116 l-362 0 q17 -84 89.5 -133.5 q72.5 -49.5 192.5 -49.5 q100 0 164 34.5 q64 34.5 83 89.5 l152 -7 Z" /><glyph glyph-name="uni042D" unicode="&#x42d;" d="M447 712 q137 0 234 -44.5 q97 -44.5 147.5 -126.5 q50.5 -82 50.5 -191 q0 -110 -51.5 -191.5 q-51.5 -81.5 -151 -126 q-99.5 -44.5 -240.5 -44.5 q-174 0 -276 64 q-102 64 -124 180 l152 7 q20 -55 84 -89.5 q64 -34.5 164 -34.5 q120 0 192 49.5 q72 49.5 90 133.5 l-362 0 l0 116 l359 0 q-20 79 -89 125 q-69 46 -179 46 q-93 0 -160 -30.5 q-67 -30.5 -87 -82.5 l-151 9 q25 107 130 169 q105 62 268 62 Z" /><glyph glyph-name="uni0406" unicode="&#x406;" d="M91 700 l156 0 l0 -700 l-156 0 l0 700 Z" /><glyph glyph-name="uni0407" unicode="&#x407;" d="M-12 875 l134 0 l0 -114 l-134 0 l0 114 ZM216 875 l134 0 l0 -114 l-134 0 l0 114 ZM91 700 l156 0 l0 -700 l-156 0 l0 700 Z" /><glyph glyph-name="uni042E" unicode="&#x42e;" d="M846 712 q139 0 237 -45 q98 -45 148.5 -126.5 q50.5 -81.5 50.5 -190.5 q0 -109 -50.5 -190.5 q-50.5 -81.5 -149 -126.5 q-98.5 -45 -236.5 -45 q-126 0 -218.5 37.5 q-92.5 37.5 -146 105.5 q-53.5 68 -66.5 161 l-168 0 l0 -292 l-156 0 l0 700 l156 0 l0 -280 l169 0 q24 136 135 214 q111 78 295 78 ZM846 115 q91 0 154 30.5 q63 30.5 94.5 83.5 q31.5 53 31.5 121 q0 68 -31.5 121 q-31.5 53 -94.5 83.5 q-63 30.5 -154 30.5 q-91 0 -153.5 -30.5 q-62.5 -30.5 -94 -83.5 q-31.5 -53 -31.5 -121 q0 -68 31.5 -121 q31.5 -53 94 -83.5 q62.5 -30.5 153.5 -30.5 Z" /><glyph glyph-name="uni042F" unicode="&#x42f;" d="M809 0 l-156 0 l0 266 l-204 0 l-234 -266 l-198 0 l258 268 q-107 8 -168.5 59.5 q-61.5 51.5 -61.5 150.5 q0 109 75.5 165.5 q75.5 56.5 196.5 56.5 l492 0 l0 -700 ZM653 384 l0 191 l-328 0 q-56 0 -90 -25.5 q-34 -25.5 -34 -71.5 q0 -45 33.5 -69.5 q33.5 -24.5 90.5 -24.5 l328 0 Z" /><glyph glyph-name="uni04C1" unicode="&#x4c1;" d="M706 756 q-206 0 -213 147 l101 0 q9 -65 112 -65 q57 0 82 17.5 q25 17.5 29 47.5 l102 0 q-7 -147 -213 -147 ZM1193 0 l-279 291 l-133 0 l0 -291 l-152 0 l0 291 l-132 0 l-279 -291 l-199 0 l358 362 l-343 338 l188 0 l273 -288 l134 0 l0 288 l152 0 l0 -288 l135 0 l272 288 l188 0 l-342 -338 l357 -362 l-198 0 Z" /><glyph glyph-name="uni0430" unicode="&#x430;" d="M382 536 q152 0 232.5 -59 q80.5 -59 80.5 -179 l0 -298 l-138 0 l0 111 q-39 -58 -108.5 -90.5 q-69.5 -32.5 -165.5 -32.5 q-118 0 -178.5 43.5 q-60.5 43.5 -60.5 113.5 q0 78 73.5 115.5 q73.5 37.5 221.5 46.5 l207 13 l0 9 q0 48 -39.5 76.5 q-39.5 28.5 -119.5 28.5 q-67 0 -109 -18 q-42 -18 -55 -54 l-140 0 q11 91 93.5 132.5 q82.5 41.5 205.5 41.5 ZM323 90 q68 0 118.5 17.5 q50.5 17.5 77.5 47 q27 29.5 27 63.5 l0 18 l-188 -13 q-84 -5 -125 -21.5 q-41 -16.5 -41 -48.5 q0 -29 33 -46 q33 -17 98 -17 Z" /><glyph glyph-name="uni0431" unicode="&#x431;" d="M436 504 q97 0 171.5 -32 q74.5 -32 116 -90.5 q41.5 -58.5 41.5 -135.5 q0 -78 -43 -136 q-43 -58 -124 -90 q-81 -32 -191 -32 q-164 0 -260.5 82 q-96.5 82 -96.5 263 q0 164 67.5 251 q67.5 87 221.5 115 q56 11 168 21 l28 3 q62 7 92.5 11.5 q30.5 4.5 63.5 13.5 l0 -116 q-46 -20 -139 -28 l-138 -10 q-77 -7 -125.5 -24.5 q-48.5 -17.5 -81.5 -65.5 q-33 -48 -44 -138 q32 65 102 101.5 q70 36.5 171 36.5 ZM407 101 q99 0 155 39 q56 39 56 106 q0 67 -56 106 q-56 39 -155 39 q-98 0 -153.5 -39 q-55.5 -39 -55.5 -106 q0 -67 55.5 -106 q55.5 -39 153.5 -39 Z" /><glyph glyph-name="uni0432" unicode="&#x432;" d="M524 273 q89 -9 133.5 -38.5 q44.5 -29.5 44.5 -88.5 q0 -61 -53 -103.5 q-53 -42.5 -191 -42.5 l-387 0 l0 524 l370 0 q125 0 181 -36.5 q56 -36.5 56 -95.5 q0 -98 -154 -119 ZM220 312 l203 0 q106 0 106 54 q0 26 -25.5 40 q-25.5 14 -88.5 14 l-195 0 l0 -108 ZM437 104 q64 0 90 15.5 q26 15.5 26 43.5 q0 29 -28 44 q-28 15 -95 15 l-210 0 l0 -118 l217 0 Z" /><glyph glyph-name="uni0433" unicode="&#x433;" d="M71 524 l506 0 l0 -123 l-357 0 l0 -401 l-149 0 l0 524 Z" /><glyph glyph-name="uni0491" unicode="&#x491;" d="M71 524 l366 0 l0 144 l140 0 l0 -267 l-357 0 l0 -401 l-149 0 l0 524 Z" /><glyph glyph-name="uni0434" unicode="&#x434;" d="M773 123 l0 -261 l-141 0 l0 138 l-478 0 l0 -138 l-141 0 l0 261 l60 0 q29 49 41.5 130 q12.5 81 27.5 271 l542 0 l0 -401 l89 0 ZM536 401 l-271 0 q-12 -115 -22 -172.5 q-10 -57.5 -31 -105.5 l324 0 l0 278 Z" /><glyph glyph-name="uni0435" unicode="&#x435;" d="M741 218 l-548 0 q15 -65 71 -96.5 q56 -31.5 145 -31.5 q64 0 108.5 15.5 q44.5 15.5 67.5 43.5 l145 -6 q-29 -74 -111 -114.5 q-82 -40.5 -210 -40.5 q-170 0 -268.5 68 q-98.5 68 -98.5 206 q0 136 97.5 205 q97.5 69 260.5 69 q167 0 254 -73.5 q87 -73.5 87 -228.5 l0 -16 ZM400 434 q-83 0 -137.5 -30.5 q-54.5 -30.5 -68.5 -94.5 l400 0 q-5 58 -55.5 91.5 q-50.5 33.5 -138.5 33.5 Z" /><glyph glyph-name="uni0451" unicode="&#x451;" d="M345 598 l-133 0 l0 118 l133 0 l0 -118 ZM584 598 l-133 0 l0 118 l133 0 l0 -118 ZM741 218 l-548 0 q15 -65 71 -96.5 q56 -31.5 145 -31.5 q64 0 108.5 15.5 q44.5 15.5 67.5 43.5 l145 -6 q-29 -74 -111 -114.5 q-82 -40.5 -210 -40.5 q-170 0 -268.5 68 q-98.5 68 -98.5 206 q0 136 97.5 205 q97.5 69 260.5 69 q167 0 254 -73.5 q87 -73.5 87 -228.5 l0 -16 ZM400 434 q-83 0 -137.5 -30.5 q-54.5 -30.5 -68.5 -94.5 l400 0 q-5 58 -55.5 91.5 q-50.5 33.5 -138.5 33.5 Z" /><glyph glyph-name="uni0436" unicode="&#x436;" d="M940 0 l-207 206 l-89 0 l0 -206 l-146 0 l0 206 l-90 0 l-207 -206 l-191 0 l287 276 l-276 248 l183 0 l200 -202 l94 0 l0 202 l146 0 l0 -202 l93 0 l201 202 l182 0 l-275 -248 l287 -276 l-192 0 Z" /><glyph glyph-name="uni0437" unicode="&#x437;" d="M493 273 q90 -10 139.5 -39.5 q49.5 -29.5 49.5 -87.5 q0 -68 -74.5 -113 q-74.5 -45 -245.5 -45 q-149 0 -236 44 q-87 44 -98 137 l145 4 q10 -37 59 -57.5 q49 -20.5 130 -20.5 q172 0 172 65 q0 31 -43 46.5 q-43 15.5 -142 15.5 l-85 0 l0 90 l77 0 q84 0 126 15.5 q42 15.5 42 42.5 q0 28 -40.5 43.5 q-40.5 15.5 -105.5 15.5 q-70 0 -113.5 -18.5 q-43.5 -18.5 -53.5 -54.5 l-144 5 q11 89 95 132 q84 43 216 43 q147 0 221 -37.5 q74 -37.5 74 -101.5 q0 -47 -40 -79.5 q-40 -32.5 -125 -44.5 Z" /><glyph glyph-name="uni0438" unicode="&#x438;" d="M742 524 l0 -524 l-143 0 l0 425 l-312 -425 l-216 0 l0 524 l142 0 l0 -425 l312 425 l217 0 Z" /><glyph glyph-name="uni0439" unicode="&#x439;" d="M407 585 q-101 0 -152 41.5 q-51 41.5 -55 113.5 l101 0 q4 -30 28.5 -51.5 q24.5 -21.5 77.5 -21.5 q53 0 77 21.5 q24 21.5 28 51.5 l101 0 q-3 -71 -54.5 -113 q-51.5 -42 -151.5 -42 ZM742 524 l0 -524 l-143 0 l0 425 l-312 -425 l-216 0 l0 524 l142 0 l0 -425 l312 425 l217 0 Z" /><glyph glyph-name="uni043A" unicode="&#x43a;" d="M547 0 l-229 206 l-98 0 l0 -206 l-149 0 l0 524 l149 0 l0 -202 l101 0 l220 202 l184 0 l-295 -248 l314 -276 l-197 0 Z" /><glyph glyph-name="uni043B" unicode="&#x43b;" d="M707 524 l0 -524 l-148 0 l0 401 l-261 0 q-4 -43 -5 -61 q-12 -136 -26 -202.5 q-14 -66.5 -54 -105.5 q-40 -39 -123 -39 q-35 0 -68 4 l0 122 q24 -2 34 -2 q44 0 64.5 31 q20.5 31 28.5 97 q8 66 17 223 l3 56 l538 0 Z" /><glyph glyph-name="uni043C" unicode="&#x43c;" d="M975 524 l0 -524 l-142 0 l0 436 l-213 -436 l-193 0 l-214 436 l0 -436 l-142 0 l0 524 l249 0 l204 -446 l205 446 l246 0 Z" /><glyph glyph-name="uni043D" unicode="&#x43d;" d="M71 524 l149 0 l0 -196 l348 0 l0 196 l149 0 l0 -524 l-149 0 l0 206 l-348 0 l0 -206 l-149 0 l0 524 Z" /><glyph glyph-name="uni043E" unicode="&#x43e;" d="M42 262 q0 86 44.5 147.5 q44.5 61.5 125 94 q80.5 32.5 188.5 32.5 q107 0 187.5 -32.5 q80.5 -32.5 125 -94 q44.5 -61.5 44.5 -147.5 q0 -86 -44.5 -147.5 q-44.5 -61.5 -125 -94 q-80.5 -32.5 -187.5 -32.5 q-108 0 -188.5 32.5 q-80.5 32.5 -125 94 q-44.5 61.5 -44.5 147.5 ZM190 262 q0 -46 25 -82.5 q25 -36.5 72.5 -57.5 q47.5 -21 112.5 -21 q65 0 112.5 21 q47.5 21 72.5 57.5 q25 36.5 25 82.5 q0 46 -25 82.5 q-25 36.5 -72.5 57.5 q-47.5 21 -112.5 21 q-65 0 -112.5 -21 q-47.5 -21 -72.5 -57.5 q-25 -36.5 -25 -82.5 Z" /><glyph glyph-name="uni043F" unicode="&#x43f;" d="M71 524 l638 0 l0 -524 l-149 0 l0 401 l-340 0 l0 -401 l-149 0 l0 524 Z" /><glyph glyph-name="uni0440" unicode="&#x440;" d="M460 536 q90 0 159.5 -32.5 q69.5 -32.5 109 -94.5 q39.5 -62 39.5 -147 q0 -85 -39 -147 q-39 -62 -108.5 -94.5 q-69.5 -32.5 -158.5 -32.5 q-78 0 -141 25.5 q-63 25.5 -101 75.5 l0 -289 l-149 0 l0 724 l137 0 l0 -105 q36 59 101.5 88 q65.5 29 150.5 29 ZM417 101 q94 0 149 44 q55 44 55 117 q0 73 -55 117 q-55 44 -149 44 q-94 0 -149 -44 q-55 -44 -55 -117 q0 -73 55 -117 q55 -44 149 -44 Z" /><glyph glyph-name="uni0441" unicode="&#x441;" d="M724 189 q-18 -95 -107.5 -148 q-89.5 -53 -222.5 -53 q-164 0 -258 71 q-94 71 -94 203 q0 131 93.5 202.5 q93.5 71.5 253.5 71.5 q130 0 219.5 -51.5 q89.5 -51.5 106.5 -143.5 l-144 -8 q-17 43 -66 66.5 q-49 23.5 -116 23.5 q-90 0 -144.5 -43.5 q-54.5 -43.5 -54.5 -117.5 q0 -74 55.5 -117.5 q55.5 -43.5 148.5 -43.5 q70 0 119 25.5 q49 25.5 66 69.5 l145 -7 Z" /><glyph glyph-name="uni0442" unicode="&#x442;" d="M24 524 l640 0 l0 -123 l-246 0 l0 -401 l-149 0 l0 401 l-245 0 l0 123 Z" /><glyph glyph-name="uni0443" unicode="&#x443;" d="M749 524 l-254 -562 q-30 -69 -63.5 -106 q-33.5 -37 -82 -52.5 q-48.5 -15.5 -125.5 -15.5 q-39 0 -89 5 l0 114 q41 -3 79 -3 q59 0 89 15 q30 15 50 58 l10 23 l-64 0 l-281 524 l164 0 l229 -461 l178 461 l160 0 Z" /><glyph glyph-name="uni045E" unicode="&#x45e;" d="M389 585 q-100 0 -151.5 41.5 q-51.5 41.5 -54.5 113.5 l101 0 q3 -30 27.5 -51.5 q24.5 -21.5 77.5 -21.5 q53 0 77 21.5 q24 21.5 29 51.5 l101 0 q-3 -71 -55 -113 q-52 -42 -152 -42 ZM749 524 l-254 -562 q-30 -69 -63.5 -106 q-33.5 -37 -82 -52.5 q-48.5 -15.5 -125.5 -15.5 q-39 0 -89 5 l0 114 q41 -3 79 -3 q59 0 89 15 q30 15 50 58 l10 23 l-64 0 l-281 524 l164 0 l229 -461 l178 461 l160 0 Z" /><glyph glyph-name="uni0444" unicode="&#x444;" d="M617 536 q176 0 269 -72.5 q93 -72.5 93 -201.5 q0 -129 -93 -201.5 q-93 -72.5 -269 -72.5 l-32 0 l0 -188 l-146 0 l0 188 l-32 0 q-176 0 -269 72.5 q-93 72.5 -93 201.5 q0 129 93 201.5 q93 72.5 269 72.5 l32 0 l0 200 l146 0 l0 -200 l32 0 ZM439 101 l0 322 l-27 0 q-110 0 -165.5 -42.5 q-55.5 -42.5 -55.5 -118.5 q0 -76 55.5 -118.5 q55.5 -42.5 165.5 -42.5 l27 0 ZM612 101 q111 0 166.5 42.5 q55.5 42.5 55.5 118.5 q0 76 -55.5 118.5 q-55.5 42.5 -166.5 42.5 l-27 0 l0 -322 l27 0 Z" /><glyph glyph-name="uni0445" unicode="&#x445;" d="M572 0 l-187 190 l-187 -190 l-177 0 l275 269 l-262 255 l183 0 l171 -174 l171 174 l176 0 l-258 -252 l278 -272 l-183 0 Z" /><glyph glyph-name="uni0447" unicode="&#x447;" d="M679 524 l0 -524 l-149 0 l0 195 q-124 -20 -219 -20 q-128 0 -193.5 45.5 q-65.5 45.5 -65.5 151.5 l0 152 l148 0 l0 -136 q0 -50 36 -70 q36 -20 119 -20 q48 0 85.5 4 q37.5 4 89.5 13 l0 209 l149 0 Z" /><glyph glyph-name="uni0446" unicode="&#x446;" d="M71 524 l149 0 l0 -401 l340 0 l0 401 l149 0 l0 -401 l88 0 l0 -261 l-140 0 l0 138 l-586 0 l0 524 Z" /><glyph glyph-name="uni0448" unicode="&#x448;" d="M71 524 l146 0 l0 -401 l272 0 l0 401 l146 0 l0 -401 l271 0 l0 401 l146 0 l0 -524 l-981 0 l0 524 Z" /><glyph glyph-name="uni0449" unicode="&#x449;" d="M71 524 l146 0 l0 -401 l272 0 l0 401 l146 0 l0 -401 l271 0 l0 401 l146 0 l0 -401 l89 0 l0 -261 l-141 0 l0 138 l-929 0 l0 524 Z" /><glyph glyph-name="uni044C" unicode="&#x44c;" d="M426 348 q140 0 201.5 -45.5 q61.5 -45.5 61.5 -128.5 q0 -82 -61.5 -128 q-61.5 -46 -201.5 -46 l-286 0 l-69 0 l0 524 l149 0 l0 -176 l206 0 ZM415 107 q67 0 96 17.5 q29 17.5 29 50.5 q0 33 -29 51 q-29 18 -96 18 l-195 0 l0 -137 l195 0 Z" /><glyph glyph-name="uni044A" unicode="&#x44a;" d="M550 348 q140 0 201.5 -45.5 q61.5 -45.5 61.5 -128.5 q0 -82 -61.5 -128 q-61.5 -46 -201.5 -46 l-286 0 l-70 0 l0 401 l-170 0 l0 123 l319 0 l0 -176 l207 0 ZM539 107 q68 0 97 17.5 q29 17.5 29 50.5 q0 34 -29 51.5 q-29 17.5 -97 17.5 l-196 0 l0 -137 l196 0 Z" /><glyph glyph-name="uni044B" unicode="&#x44b;" d="M410 348 q140 0 201 -45.5 q61 -45.5 61 -128.5 q0 -82 -61 -128 q-61 -46 -201 -46 l-270 0 l-69 0 l0 524 l149 0 l0 -176 l190 0 ZM920 524 l0 -524 l-149 0 l0 524 l149 0 ZM398 107 q68 0 97 17.5 q29 17.5 29 50.5 q0 34 -29 51.5 q-29 17.5 -97 17.5 l-178 0 l0 -137 l178 0 Z" /><glyph glyph-name="uni0454" unicode="&#x454;" d="M722 182 q-20 -92 -109 -143 q-89 -51 -219 -51 q-164 0 -258 71 q-94 71 -94 203 q0 131 93.5 202.5 q93.5 71.5 253.5 71.5 q127 0 216 -49.5 q89 -49.5 109 -138.5 l-148 -6 q-19 39 -66.5 60 q-47.5 21 -110.5 21 q-73 0 -123.5 -29 q-50.5 -29 -67.5 -81 l259 0 l0 -92 l-262 0 q14 -56 67 -88 q53 -32 132 -32 q66 0 113.5 23 q47.5 23 66.5 63 l148 -5 Z" /><glyph glyph-name="uni044D" unicode="&#x44d;" d="M367 536 q160 0 253.5 -71.5 q93.5 -71.5 93.5 -202.5 q0 -132 -94 -203 q-94 -71 -257 -71 q-130 0 -219 51 q-89 51 -110 143 l149 5 q19 -41 66 -63.5 q47 -22.5 114 -22.5 q79 0 131.5 32 q52.5 32 66.5 88 l-261 0 l0 92 l258 0 q-17 52 -67.5 81 q-50.5 29 -123.5 29 q-63 0 -110.5 -21 q-47.5 -21 -66.5 -60 l-147 6 q19 89 108 138.5 q89 49.5 216 49.5 Z" /><glyph glyph-name="uni0456" unicode="&#x456;" d="M66 729 l158 0 l0 -135 l-158 0 l0 135 ZM71 524 l149 0 l0 -524 l-149 0 l0 524 Z" /><glyph glyph-name="uni0457" unicode="&#x457;" d="M-25 716 l128 0 l0 -118 l-128 0 l0 118 ZM187 716 l128 0 l0 -118 l-128 0 l0 118 ZM71 524 l149 0 l0 -524 l-149 0 l0 524 Z" /><glyph glyph-name="uni044E" unicode="&#x44e;" d="M702 536 q104 0 183 -33 q79 -33 122 -94.5 q43 -61.5 43 -146.5 q0 -85 -43 -146.5 q-43 -61.5 -122 -94.5 q-79 -33 -183 -33 q-140 0 -231.5 57.5 q-91.5 57.5 -112.5 160.5 l-138 0 l0 -206 l-149 0 l0 524 l149 0 l0 -196 l141 0 q23 99 113.5 153.5 q90.5 54.5 227.5 54.5 ZM702 101 q95 0 148 44 q53 44 53 117 q0 73 -53 117 q-53 44 -148 44 q-95 0 -148 -44 q-53 -44 -53 -117 q0 -73 53 -117 q53 -44 148 -44 Z" /><glyph glyph-name="uni044F" unicode="&#x44f;" d="M675 0 l-149 0 l0 185 l-156 0 l-160 -185 l-182 0 l190 192 q-164 29 -164 162 q0 79 62.5 124.5 q62.5 45.5 200.5 45.5 l358 0 l0 -524 ZM526 279 l0 138 l-198 0 q-68 0 -97 -18 q-29 -18 -29 -51 q0 -33 29 -51 q29 -18 97 -18 l198 0 Z" /><glyph glyph-name="uni04C2" unicode="&#x4c2;" d="M571 585 q-100 0 -151.5 41.5 q-51.5 41.5 -55.5 113.5 l101 0 q4 -30 28.5 -51.5 q24.5 -21.5 77.5 -21.5 q53 0 77 21.5 q24 21.5 28 51.5 l101 0 q-3 -71 -54.5 -113 q-51.5 -42 -151.5 -42 ZM940 0 l-207 206 l-89 0 l0 -206 l-146 0 l0 206 l-90 0 l-207 -206 l-191 0 l287 276 l-276 248 l183 0 l200 -202 l94 0 l0 202 l146 0 l0 -202 l93 0 l201 202 l182 0 l-275 -248 l287 -276 l-192 0 Z" /><glyph glyph-name="pi" unicode="&#x3c0;" d="M700 412 l0 -236 q0 -33 15.5 -46 q15.5 -13 44.5 -13 q9 0 49 2 l0 -121 q-62 -4 -88 -4 q-86 0 -124.5 34.5 q-38.5 34.5 -38.5 109.5 l0 274 l-273 0 l0 -412 l-145 0 l0 412 l-110 0 l0 112 l781 0 l0 -112 l-111 0 Z" /><glyph glyph-name="zero" unicode="0" d="M54 350 q0 111 45.5 193 q45.5 82 129 125.5 q83.5 43.5 195.5 43.5 q112 0 195.5 -43.5 q83.5 -43.5 128.5 -125.5 q45 -82 45 -193 q0 -111 -45 -193 q-45 -82 -128.5 -125.5 q-83.5 -43.5 -195.5 -43.5 q-112 0 -195.5 43.5 q-83.5 43.5 -129 125.5 q-45.5 82 -45.5 193 ZM204 350 q0 -112 59 -175.5 q59 -63.5 161 -63.5 q102 0 160.5 63.5 q58.5 63.5 58.5 175.5 q0 112 -58.5 175.5 q-58.5 63.5 -160.5 63.5 q-102 0 -161 -63.5 q-59 -63.5 -59 -175.5 Z" /><glyph glyph-name="one" unicode="1" d="M407 700 l0 -700 l-150 0 l0 542 l-214 -104 l0 142 l244 120 l120 0 Z" /><glyph glyph-name="two" unicode="2" d="M703 123 l0 -123 l-688 0 l0 113 l396 251 q61 36 89.5 64.5 q28.5 28.5 28.5 68.5 q0 47 -42 69.5 q-42 22.5 -112 22.5 q-82 0 -132 -33 q-50 -33 -60 -102 l-145 9 q13 126 103.5 187.5 q90.5 61.5 232.5 61.5 q135 0 220 -52.5 q85 -52.5 85 -153.5 q0 -62 -41 -112.5 q-41 -50.5 -140 -110.5 l-247 -160 l452 0 Z" /><glyph glyph-name="three" unicode="3" d="M435 432 q147 -7 221 -60.5 q74 -53.5 74 -150.5 q0 -118 -99 -175.5 q-99 -57.5 -260 -57.5 q-147 0 -240.5 55 q-93.5 55 -108.5 162 l145 7 q12 -51 65 -76 q53 -25 139 -25 q94 0 151.5 28.5 q57.5 28.5 57.5 81.5 q0 48 -52 77.5 q-52 29.5 -153 29.5 q-66 0 -143 -13 l0 100 l258 162 l-421 0 l0 123 l634 0 l0 -110 l-268 -158 Z" /><glyph glyph-name="four" unicode="4" d="M803 273 l0 -123 l-148 0 l0 -150 l-150 0 l0 150 l-481 0 l0 113 l388 437 l243 0 l0 -427 l148 0 ZM505 273 l0 355 l-317 -355 l317 0 Z" /><glyph glyph-name="five" unicode="5" d="M427 471 q91 0 161 -27 q70 -27 109.5 -80.5 q39.5 -53.5 39.5 -128.5 q0 -119 -97 -183 q-97 -64 -257 -64 q-142 0 -239.5 52 q-97.5 52 -117.5 150 l150 8 q16 -43 72 -65 q56 -22 130 -22 q94 0 151.5 32.5 q57.5 32.5 57.5 92.5 q0 59 -57.5 90.5 q-57.5 31.5 -147.5 31.5 q-62 0 -115 -15.5 q-53 -15.5 -86 -45.5 l-132 12 l41 391 l122 0 l471 0 l0 -123 l-485 0 l-20 -187 q43 40 108 60.5 q65 20.5 141 20.5 Z" /><glyph glyph-name="six" unicode="6" d="M466 460 q91 0 163 -27 q72 -27 113 -79.5 q41 -52.5 41 -125.5 q0 -75 -43.5 -129 q-43.5 -54 -123 -82.5 q-79.5 -28.5 -186.5 -28.5 q-186 0 -281 87 q-95 87 -95 266 q0 184 100.5 277.5 q100.5 93.5 278.5 93.5 q137 0 219.5 -51 q82.5 -51 95.5 -148 l-145 -7 q-9 35 -54.5 59 q-45.5 24 -115.5 24 q-105 0 -166 -58 q-61 -58 -63 -170 q37 50 106.5 74.5 q69.5 24.5 155.5 24.5 ZM429 111 q92 0 148 32 q56 32 56 85 q0 53 -55.5 84.5 q-55.5 31.5 -148.5 31.5 q-92 0 -147.5 -31.5 q-55.5 -31.5 -55.5 -84.5 q0 -53 55.5 -85 q55.5 -32 147.5 -32 Z" /><glyph glyph-name="seven" unicode="7" d="M716 700 l0 -104 q-284 -290 -369 -596 l-164 0 q94 305 369 577 l-519 0 l0 123 l683 0 Z" /><glyph glyph-name="eight" unicode="8" d="M566 367 q99 -20 154 -65.5 q55 -45.5 55 -114.5 q0 -65 -49 -110 q-49 -45 -132 -67 q-83 -22 -185 -22 q-103 0 -186 22 q-83 22 -132 67 q-49 45 -49 110 q0 69 56.5 115 q56.5 46 155.5 65 q-89 18 -138 58.5 q-49 40.5 -49 102.5 q0 91 97 137.5 q97 46.5 245 46.5 q148 0 245 -46.5 q97 -46.5 97 -137.5 q0 -61 -48.5 -102 q-48.5 -41 -136.5 -59 ZM213 507 q0 -41 53 -64 q53 -23 143 -23 q89 0 142.5 23 q53.5 23 53.5 64 q0 41 -53.5 64 q-53.5 23 -142.5 23 q-90 0 -143 -23 q-53 -23 -53 -64 ZM409 106 q97 0 158.5 26 q61.5 26 61.5 73 q0 47 -61.5 73 q-61.5 26 -158.5 26 q-97 0 -159 -26 q-62 -26 -62 -73 q0 -47 62 -73 q62 -26 159 -26 Z" /><glyph glyph-name="nine" unicode="9" d="M392 712 q188 0 282.5 -86.5 q94.5 -86.5 94.5 -266.5 q0 -187 -97 -279 q-97 -92 -279 -92 q-138 0 -221 51 q-83 51 -96 147 l144 7 q10 -37 55 -59.5 q45 -22.5 118 -22.5 q107 0 166 58.5 q59 58.5 60 173.5 q-37 -49 -105.5 -73 q-68.5 -24 -157.5 -24 q-90 0 -161.5 27 q-71.5 27 -113 78.5 q-41.5 51.5 -41.5 123.5 q0 73 43.5 126.5 q43.5 53.5 123.5 82 q80 28.5 185 28.5 ZM394 362 q93 0 148 30.5 q55 30.5 55 82.5 q0 53 -55 83.5 q-55 30.5 -148 30.5 q-93 0 -148 -30.5 q-55 -30.5 -55 -83.5 q0 -52 55 -82.5 q55 -30.5 148 -30.5 Z" /><glyph glyph-name="uni24FF" unicode="&#x24ff;" d="M408 -12 q-104 0 -185.5 45 q-81.5 45 -128 127 q-46.5 82 -46.5 190 q0 108 46.5 190 q46.5 82 128 127 q81.5 45 185.5 45 q104 0 185.5 -45 q81.5 -45 128 -127 q46.5 -82 46.5 -190 q0 -108 -46.5 -190 q-46.5 -82 -128 -127 q-81.5 -45 -185.5 -45 ZM252 350 q0 -86 40.5 -135 q40.5 -49 115.5 -49 q74 0 115 49 q41 49 41 135 q0 86 -41 135.5 q-41 49.5 -115 49.5 q-75 0 -115.5 -49 q-40.5 -49 -40.5 -136 ZM334 350 q0 58 20 88 q20 30 54 30 q34 0 53.5 -30 q19.5 -30 19.5 -88 q0 -58 -19.5 -87.5 q-19.5 -29.5 -53.5 -29.5 q-34 0 -54 29.5 q-20 29.5 -20 87.5 Z" /><glyph glyph-name="uni2776" unicode="&#x2776;" d="M408 -12 q-104 0 -185.5 45 q-81.5 45 -128 127 q-46.5 82 -46.5 190 q0 108 46.5 190 q46.5 82 128 127 q81.5 45 185.5 45 q104 0 185.5 -45 q81.5 -45 128 -127 q46.5 -82 46.5 -190 q0 -108 -46.5 -190 q-46.5 -82 -128 -127 q-81.5 -45 -185.5 -45 ZM377 439 l0 -267 l82 0 l0 356 l-66 0 l-87 -49 l0 -81 l71 41 Z" /><glyph glyph-name="uni2777" unicode="&#x2777;" d="M408 -12 q-104 0 -185.5 45 q-81.5 45 -128 127 q-46.5 82 -46.5 190 q0 108 46.5 190 q46.5 82 128 127 q81.5 45 185.5 45 q104 0 185.5 -45 q81.5 -45 128 -127 q46.5 -82 46.5 -190 q0 -108 -46.5 -190 q-46.5 -82 -128 -127 q-81.5 -45 -185.5 -45 ZM552 173 l0 67 l-164 0 l75 65 q44 35 61 62.5 q17 27.5 17 59.5 q0 53 -36 80.5 q-36 27.5 -89 27.5 q-57 0 -93.5 -32 q-36.5 -32 -41.5 -97 l79 -6 q4 35 18.5 51.5 q14.5 16.5 37.5 16.5 q20 0 32 -11 q12 -11 12 -30 q0 -23 -18 -43 q-18 -20 -58 -54 l-112 -96 l0 -61 l280 0 Z" /><glyph glyph-name="uni2778" unicode="&#x2778;" d="M408 -12 q-104 0 -185.5 45 q-81.5 45 -128 127 q-46.5 82 -46.5 190 q0 108 46.5 190 q46.5 82 128 127 q81.5 45 185.5 45 q104 0 185.5 -45 q81.5 -45 128 -127 q46.5 -82 46.5 -190 q0 -108 -46.5 -190 q-46.5 -82 -128 -127 q-81.5 -45 -185.5 -45 ZM262 279 q7 -56 45 -84.5 q38 -28.5 99 -28.5 q64 0 106 29.5 q42 29.5 42 89.5 q0 46 -27.5 73.5 q-27.5 27.5 -81.5 32.5 l98 77 l0 60 l-261 0 l0 -67 l155 0 l-87 -75 l0 -56 q39 7 58 7 q32 0 48 -14 q16 -14 16 -38 q0 -25 -17.5 -38.5 q-17.5 -13.5 -48.5 -13.5 q-57 0 -64 51 l-80 -5 Z" /><glyph glyph-name="uni2779" unicode="&#x2779;" d="M408 -12 q-104 0 -185.5 45 q-81.5 45 -128 127 q-46.5 82 -46.5 190 q0 108 46.5 190 q46.5 82 128 127 q81.5 45 185.5 45 q104 0 185.5 -45 q81.5 -45 128 -127 q46.5 -82 46.5 -190 q0 -108 -46.5 -190 q-46.5 -82 -128 -127 q-81.5 -45 -185.5 -45 ZM428 247 l0 -75 l83 0 l0 75 l59 0 l0 67 l-59 0 l0 214 l-134 0 l-140 -220 l0 -61 l191 0 ZM428 486 l0 -172 l-111 0 l111 172 Z" /><glyph glyph-name="uni277A" unicode="&#x277a;" d="M408 -12 q-104 0 -185.5 45 q-81.5 45 -128 127 q-46.5 82 -46.5 190 q0 108 46.5 190 q46.5 82 128 127 q81.5 45 185.5 45 q104 0 185.5 -45 q81.5 -45 128 -127 q46.5 -82 46.5 -190 q0 -108 -46.5 -190 q-46.5 -82 -128 -127 q-81.5 -45 -185.5 -45 ZM262 272 q8 -52 48.5 -79 q40.5 -27 98.5 -27 q66 0 107 32.5 q41 32.5 41 93.5 q0 57 -34 86.5 q-34 29.5 -89 29.5 q-27 0 -51.5 -8 q-24.5 -8 -40.5 -23 l6 84 l186 0 l0 67 l-247 0 l-16 -200 l73 -6 q10 15 27.5 22.5 q17.5 7.5 36.5 7.5 q29 0 48 -16 q19 -16 19 -44 q0 -27 -18 -43 q-18 -16 -48 -16 q-24 0 -43 11 q-19 11 -24 33 l-80 -5 Z" /><glyph glyph-name="uni277B" unicode="&#x277b;" d="M408 -12 q-104 0 -185.5 45 q-81.5 45 -128 127 q-46.5 82 -46.5 190 q0 108 46.5 190 q46.5 82 128 127 q81.5 45 185.5 45 q104 0 185.5 -45 q81.5 -45 128 -127 q46.5 -82 46.5 -190 q0 -108 -46.5 -190 q-46.5 -82 -128 -127 q-81.5 -45 -185.5 -45 ZM256 347 q0 -91 41 -136 q41 -45 115 -45 q68 0 108 32.5 q40 32.5 40 89.5 q0 55 -35 83.5 q-35 28.5 -91 28.5 q-65 0 -96 -40 q5 109 76 109 q23 0 37 -11.5 q14 -11.5 17 -30.5 l79 5 q-6 50 -41 76.5 q-35 26.5 -92 26.5 q-73 0 -115.5 -47 q-42.5 -47 -42.5 -141 ZM347 288 q0 26 17.5 41 q17.5 15 47.5 15 q30 0 48 -15.5 q18 -15.5 18 -40.5 q0 -25 -18 -40.5 q-18 -15.5 -48 -15.5 q-30 0 -47.5 15 q-17.5 15 -17.5 41 Z" /><glyph glyph-name="uni277C" unicode="&#x277c;" d="M408 -12 q-104 0 -185.5 45 q-81.5 45 -128 127 q-46.5 82 -46.5 190 q0 108 46.5 190 q46.5 82 128 127 q81.5 45 185.5 45 q104 0 185.5 -45 q81.5 -45 128 -127 q46.5 -82 46.5 -190 q0 -108 -46.5 -190 q-46.5 -82 -128 -127 q-81.5 -45 -185.5 -45 ZM468 461 q-110 -144 -140 -289 l88 0 q26 147 134 300 l0 56 l-277 0 l0 -67 l195 0 Z" /><glyph glyph-name="uni277D" unicode="&#x277d;" d="M408 -12 q-104 0 -185.5 45 q-81.5 45 -128 127 q-46.5 82 -46.5 190 q0 108 46.5 190 q46.5 82 128 127 q81.5 45 185.5 45 q104 0 185.5 -45 q81.5 -45 128 -127 q46.5 -82 46.5 -190 q0 -108 -46.5 -190 q-46.5 -82 -128 -127 q-81.5 -45 -185.5 -45 ZM254 267 q0 -49 45 -75 q45 -26 109 -26 q64 0 109 26 q45 26 45 75 q0 35 -24 58.5 q-24 23.5 -64 33.5 q37 9 57 29.5 q20 20.5 20 52.5 q0 46 -41.5 70 q-41.5 24 -101.5 24 q-61 0 -102.5 -24 q-41.5 -24 -41.5 -70 q0 -31 20.5 -52 q20.5 -21 57.5 -30 q-41 -10 -64.5 -33.5 q-23.5 -23.5 -23.5 -58.5 ZM344 429 q0 20 17 31 q17 11 47 11 q30 0 47 -11 q17 -11 17 -31 q0 -19 -17 -30 q-17 -11 -47 -11 q-30 0 -47 11 q-17 11 -17 30 ZM333 278 q0 22 21.5 34 q21.5 12 53.5 12 q32 0 53 -12 q21 -12 21 -34 q0 -23 -21 -35.5 q-21 -12.5 -53 -12.5 q-32 0 -53.5 12.5 q-21.5 12.5 -21.5 35.5 Z" /><glyph glyph-name="uni277E" unicode="&#x277e;" d="M408 -12 q-104 0 -185.5 45 q-81.5 45 -128 127 q-46.5 82 -46.5 190 q0 108 46.5 190 q46.5 82 128 127 q81.5 45 185.5 45 q104 0 185.5 -45 q81.5 -45 128 -127 q46.5 -82 46.5 -190 q0 -108 -46.5 -190 q-46.5 -82 -128 -127 q-81.5 -45 -185.5 -45 ZM255 414 q0 -54 35.5 -82.5 q35.5 -28.5 91.5 -28.5 q31 0 56.5 10 q25.5 10 39.5 31 q-2 -53 -20.5 -82.5 q-18.5 -29.5 -54.5 -29.5 q-23 0 -37.5 11.5 q-14.5 11.5 -17.5 29.5 l-79 -5 q6 -49 41.5 -75.5 q35.5 -26.5 92.5 -26.5 q72 0 115 47 q43 47 43 141 q0 91 -41.5 136 q-41.5 45 -117.5 45 q-66 0 -106.5 -32.5 q-40.5 -32.5 -40.5 -88.5 ZM338 414 q0 24 18 39.5 q18 15.5 48 15.5 q30 0 48 -15.5 q18 -15.5 18 -39.5 q0 -25 -18 -39.5 q-18 -14.5 -48 -14.5 q-30 0 -48 14.5 q-18 14.5 -18 39.5 Z" /><glyph glyph-name="uni24EA" unicode="&#x24ea;" d="M408 -12 q-104 0 -185.5 45 q-81.5 45 -128 127 q-46.5 82 -46.5 190 q0 108 46.5 190 q46.5 82 128 127 q81.5 45 185.5 45 q104 0 185.5 -45 q81.5 -45 128 -127 q46.5 -82 46.5 -190 q0 -108 -46.5 -190 q-46.5 -82 -128 -127 q-81.5 -45 -185.5 -45 ZM408 42 q88 0 156.5 38 q68.5 38 107 108 q38.5 70 38.5 162 q0 92 -38.5 162 q-38.5 70 -107 108 q-68.5 38 -156.5 38 q-88 0 -157 -38 q-69 -38 -107.5 -108 q-38.5 -70 -38.5 -162 q0 -92 38.5 -162 q38.5 -70 107.5 -108 q69 -38 157 -38 ZM252 350 q0 87 40.5 136 q40.5 49 115.5 49 q74 0 115 -49.5 q41 -49.5 41 -135.5 q0 -86 -41 -135 q-41 -49 -115 -49 q-75 0 -115.5 49 q-40.5 49 -40.5 135 ZM334 350 q0 -58 20 -87.5 q20 -29.5 54 -29.5 q34 0 53.5 29.5 q19.5 29.5 19.5 87.5 q0 58 -19.5 88 q-19.5 30 -53.5 30 q-34 0 -54 -30 q-20 -30 -20 -88 Z" /><glyph glyph-name="uni2460" unicode="&#x2460;" d="M408 -12 q-104 0 -185.5 45 q-81.5 45 -128 127 q-46.5 82 -46.5 190 q0 108 46.5 190 q46.5 82 128 127 q81.5 45 185.5 45 q104 0 185.5 -45 q81.5 -45 128 -127 q46.5 -82 46.5 -190 q0 -108 -46.5 -190 q-46.5 -82 -128 -127 q-81.5 -45 -185.5 -45 ZM408 42 q88 0 156.5 38 q68.5 38 107 108 q38.5 70 38.5 162 q0 92 -38.5 162 q-38.5 70 -107 108 q-68.5 38 -156.5 38 q-88 0 -157 -38 q-69 -38 -107.5 -108 q-38.5 -70 -38.5 -162 q0 -92 38.5 -162 q38.5 -70 107.5 -108 q69 -38 157 -38 ZM306 479 l87 49 l66 0 l0 -356 l-82 0 l0 267 l-71 -41 l0 81 Z" /><glyph glyph-name="uni2461" unicode="&#x2461;" d="M408 -12 q-104 0 -185.5 45 q-81.5 45 -128 127 q-46.5 82 -46.5 190 q0 108 46.5 190 q46.5 82 128 127 q81.5 45 185.5 45 q104 0 185.5 -45 q81.5 -45 128 -127 q46.5 -82 46.5 -190 q0 -108 -46.5 -190 q-46.5 -82 -128 -127 q-81.5 -45 -185.5 -45 ZM408 42 q88 0 156.5 38 q68.5 38 107 108 q38.5 70 38.5 162 q0 92 -38.5 162 q-38.5 70 -107 108 q-68.5 38 -156.5 38 q-88 0 -157 -38 q-69 -38 -107.5 -108 q-38.5 -70 -38.5 -162 q0 -92 38.5 -162 q38.5 -70 107.5 -108 q69 -38 157 -38 ZM272 234 l112 96 q40 34 58 54 q18 20 18 43 q0 19 -12 30 q-12 11 -32 11 q-23 0 -37.5 -16.5 q-14.5 -16.5 -18.5 -51.5 l-79 6 q5 65 41.5 97 q36.5 32 93.5 32 q53 0 89 -27.5 q36 -27.5 36 -80.5 q0 -32 -17 -59.5 q-17 -27.5 -61 -62.5 l-75 -65 l164 0 l0 -67 l-280 0 l0 61 Z" /><glyph glyph-name="uni2462" unicode="&#x2462;" d="M408 -12 q-104 0 -185.5 45 q-81.5 45 -128 127 q-46.5 82 -46.5 190 q0 108 46.5 190 q46.5 82 128 127 q81.5 45 185.5 45 q104 0 185.5 -45 q81.5 -45 128 -127 q46.5 -82 46.5 -190 q0 -108 -46.5 -190 q-46.5 -82 -128 -127 q-81.5 -45 -185.5 -45 ZM408 42 q88 0 156.5 38 q68.5 38 107 108 q38.5 70 38.5 162 q0 92 -38.5 162 q-38.5 70 -107 108 q-68.5 38 -156.5 38 q-88 0 -157 -38 q-69 -38 -107.5 -108 q-38.5 -70 -38.5 -162 q0 -92 38.5 -162 q38.5 -70 107.5 -108 q69 -38 157 -38 ZM342 284 q7 -51 64 -51 q31 0 48.5 13.5 q17.5 13.5 17.5 38.5 q0 24 -16 38 q-16 14 -48 14 q-19 0 -58 -7 l0 56 l87 75 l-155 0 l0 67 l261 0 l0 -60 l-98 -77 q54 -5 81.5 -32.5 q27.5 -27.5 27.5 -73.5 q0 -60 -42 -89.5 q-42 -29.5 -106 -29.5 q-61 0 -99 28.5 q-38 28.5 -45 84.5 l80 5 Z" /><glyph glyph-name="uni2463" unicode="&#x2463;" d="M408 -12 q-104 0 -185.5 45 q-81.5 45 -128 127 q-46.5 82 -46.5 190 q0 108 46.5 190 q46.5 82 128 127 q81.5 45 185.5 45 q104 0 185.5 -45 q81.5 -45 128 -127 q46.5 -82 46.5 -190 q0 -108 -46.5 -190 q-46.5 -82 -128 -127 q-81.5 -45 -185.5 -45 ZM408 42 q88 0 156.5 38 q68.5 38 107 108 q38.5 70 38.5 162 q0 92 -38.5 162 q-38.5 70 -107 108 q-68.5 38 -156.5 38 q-88 0 -157 -38 q-69 -38 -107.5 -108 q-38.5 -70 -38.5 -162 q0 -92 38.5 -162 q38.5 -70 107.5 -108 q69 -38 157 -38 ZM237 308 l140 220 l134 0 l0 -214 l59 0 l0 -67 l-59 0 l0 -75 l-83 0 l0 75 l-191 0 l0 61 ZM428 314 l0 172 l-111 -172 l111 0 Z" /><glyph glyph-name="uni2464" unicode="&#x2464;" d="M408 -12 q-104 0 -185.5 45 q-81.5 45 -128 127 q-46.5 82 -46.5 190 q0 108 46.5 190 q46.5 82 128 127 q81.5 45 185.5 45 q104 0 185.5 -45 q81.5 -45 128 -127 q46.5 -82 46.5 -190 q0 -108 -46.5 -190 q-46.5 -82 -128 -127 q-81.5 -45 -185.5 -45 ZM408 42 q88 0 156.5 38 q68.5 38 107 108 q38.5 70 38.5 162 q0 92 -38.5 162 q-38.5 70 -107 108 q-68.5 38 -156.5 38 q-88 0 -157 -38 q-69 -38 -107.5 -108 q-38.5 -70 -38.5 -162 q0 -92 38.5 -162 q38.5 -70 107.5 -108 q69 -38 157 -38 ZM342 277 q5 -22 24 -33 q19 -11 43 -11 q30 0 48 16 q18 16 18 43 q0 28 -19 44 q-19 16 -48 16 q-19 0 -36.5 -7.5 q-17.5 -7.5 -27.5 -22.5 l-73 6 l16 200 l247 0 l0 -67 l-186 0 l-6 -84 q16 15 40.5 23 q24.5 8 51.5 8 q55 0 89 -29.5 q34 -29.5 34 -86.5 q0 -61 -41 -93.5 q-41 -32.5 -107 -32.5 q-58 0 -98.5 27 q-40.5 27 -48.5 79 l80 5 Z" /><glyph glyph-name="uni2465" unicode="&#x2465;" d="M408 -12 q-104 0 -185.5 45 q-81.5 45 -128 127 q-46.5 82 -46.5 190 q0 108 46.5 190 q46.5 82 128 127 q81.5 45 185.5 45 q104 0 185.5 -45 q81.5 -45 128 -127 q46.5 -82 46.5 -190 q0 -108 -46.5 -190 q-46.5 -82 -128 -127 q-81.5 -45 -185.5 -45 ZM408 42 q88 0 156.5 38 q68.5 38 107 108 q38.5 70 38.5 162 q0 92 -38.5 162 q-38.5 70 -107 108 q-68.5 38 -156.5 38 q-88 0 -157 -38 q-69 -38 -107.5 -108 q-38.5 -70 -38.5 -162 q0 -92 38.5 -162 q38.5 -70 107.5 -108 q69 -38 157 -38 ZM256 347 q0 94 42.5 141 q42.5 47 115.5 47 q57 0 92 -26.5 q35 -26.5 41 -76.5 l-79 -5 q-3 19 -17 30.5 q-14 11.5 -37 11.5 q-71 0 -76 -109 q31 40 96 40 q56 0 91 -28.5 q35 -28.5 35 -83.5 q0 -57 -40 -89.5 q-40 -32.5 -108 -32.5 q-74 0 -115 45 q-41 45 -41 136 ZM347 288 q0 -26 17.5 -41 q17.5 -15 47.5 -15 q30 0 48 15.5 q18 15.5 18 40.5 q0 25 -18 40.5 q-18 15.5 -48 15.5 q-30 0 -47.5 -15 q-17.5 -15 -17.5 -41 Z" /><glyph glyph-name="uni2466" unicode="&#x2466;" d="M408 -12 q-104 0 -185.5 45 q-81.5 45 -128 127 q-46.5 82 -46.5 190 q0 108 46.5 190 q46.5 82 128 127 q81.5 45 185.5 45 q104 0 185.5 -45 q81.5 -45 128 -127 q46.5 -82 46.5 -190 q0 -108 -46.5 -190 q-46.5 -82 -128 -127 q-81.5 -45 -185.5 -45 ZM408 42 q88 0 156.5 38 q68.5 38 107 108 q38.5 70 38.5 162 q0 92 -38.5 162 q-38.5 70 -107 108 q-68.5 38 -156.5 38 q-88 0 -157 -38 q-69 -38 -107.5 -108 q-38.5 -70 -38.5 -162 q0 -92 38.5 -162 q38.5 -70 107.5 -108 q69 -38 157 -38 ZM273 528 l277 0 l0 -56 q-108 -153 -134 -300 l-88 0 q30 145 140 289 l-195 0 l0 67 Z" /><glyph glyph-name="uni2467" unicode="&#x2467;" d="M408 -12 q-104 0 -185.5 45 q-81.5 45 -128 127 q-46.5 82 -46.5 190 q0 108 46.5 190 q46.5 82 128 127 q81.5 45 185.5 45 q104 0 185.5 -45 q81.5 -45 128 -127 q46.5 -82 46.5 -190 q0 -108 -46.5 -190 q-46.5 -82 -128 -127 q-81.5 -45 -185.5 -45 ZM409 42 q88 0 157 38 q69 38 107.5 108 q38.5 70 38.5 162 q0 92 -38.5 162 q-38.5 70 -107.5 108 q-69 38 -157 38 q-88 0 -156.5 -38 q-68.5 -38 -107 -108 q-38.5 -70 -38.5 -162 q0 -92 38.5 -162 q38.5 -70 107 -108 q68.5 -38 156.5 -38 ZM254 267 q0 35 23.5 58.5 q23.5 23.5 64.5 33.5 q-37 9 -57.5 30 q-20.5 21 -20.5 52 q0 46 41.5 70 q41.5 24 102.5 24 q60 0 101.5 -24 q41.5 -24 41.5 -70 q0 -32 -20 -52.5 q-20 -20.5 -57 -29.5 q40 -10 64 -33.5 q24 -23.5 24 -58.5 q0 -49 -45 -75 q-45 -26 -109 -26 q-64 0 -109 26 q-45 26 -45 75 ZM344 429 q0 -19 17 -30 q17 -11 47 -11 q30 0 47 11 q17 11 17 30 q0 20 -17 31 q-17 11 -47 11 q-30 0 -47 -11 q-17 -11 -17 -31 ZM333 278 q0 -23 21.5 -35.5 q21.5 -12.5 53.5 -12.5 q32 0 53 12.5 q21 12.5 21 35.5 q0 22 -21 34 q-21 12 -53 12 q-33 0 -54 -12 q-21 -12 -21 -34 Z" /><glyph glyph-name="uni2468" unicode="&#x2468;" d="M408 -12 q-104 0 -185.5 45 q-81.5 45 -128 127 q-46.5 82 -46.5 190 q0 108 46.5 190 q46.5 82 128 127 q81.5 45 185.5 45 q104 0 185.5 -45 q81.5 -45 128 -127 q46.5 -82 46.5 -190 q0 -108 -46.5 -190 q-46.5 -82 -128 -127 q-81.5 -45 -185.5 -45 ZM410 42 q88 0 156.5 38 q68.5 38 107 108 q38.5 70 38.5 162 q0 92 -38.5 162 q-38.5 70 -107 108 q-68.5 38 -156.5 38 q-88 0 -157 -38 q-69 -38 -107.5 -108 q-38.5 -70 -38.5 -162 q0 -92 38.5 -162 q38.5 -70 107.5 -108 q69 -38 157 -38 ZM255 414 q0 56 40.5 88.5 q40.5 32.5 106.5 32.5 q76 0 117.5 -45 q41.5 -45 41.5 -136 q0 -94 -43 -141 q-43 -47 -115 -47 q-57 0 -92.5 26.5 q-35.5 26.5 -41.5 75.5 l79 5 q3 -18 17.5 -29.5 q14.5 -11.5 37.5 -11.5 q36 0 54.5 29.5 q18.5 29.5 20.5 82.5 q-14 -21 -39.5 -31 q-25.5 -10 -56.5 -10 q-56 0 -91.5 28.5 q-35.5 28.5 -35.5 82.5 ZM338 414 q0 -25 18 -39.5 q18 -14.5 48 -14.5 q30 0 48 14.5 q18 14.5 18 39.5 q0 24 -18 39.5 q-18 15.5 -48 15.5 q-30 0 -48 -15.5 q-18 -15.5 -18 -39.5 Z" /><glyph glyph-name="fraction" unicode="&#x2044;" d="M332 700 l105 0 l-570 -700 l-106 0 l571 700 Z" /><glyph glyph-name="onehalf" unicode="½" d="M127 595 l-95 -48 l0 95 l114 58 l77 0 l0 -360 l-96 0 l0 255 ZM742 700 l-571 -700 l-105 0 l571 700 l105 0 ZM872 77 l0 -77 l-352 0 l0 71 l165 102 q42 26 59.5 43 q17.5 17 17.5 37 q0 20 -16.5 31 q-16.5 11 -45.5 11 q-65 0 -74 -64 l-93 7 q6 68 51.5 101 q45.5 33 115.5 33 q68 0 113 -28.5 q45 -28.5 45 -82.5 q0 -35 -20.5 -63.5 q-20.5 -28.5 -75.5 -61.5 l-97 -59 l207 0 Z" /><glyph glyph-name="onequarter" unicode="¼" d="M127 595 l-95 -48 l0 95 l114 58 l77 0 l0 -360 l-96 0 l0 255 ZM742 700 l-571 -700 l-105 0 l571 700 l105 0 ZM865 151 l0 -77 l-74 0 l0 -74 l-96 0 l0 74 l-239 0 l0 70 l175 216 l160 0 l0 -209 l74 0 ZM695 151 l0 169 l-136 -169 l136 0 Z" /><glyph glyph-name="threequarters" unicode="¾" d="M389 449 q0 -62 -53 -91.5 q-53 -29.5 -137 -29.5 q-170 0 -185 118 l95 5 q7 -49 90 -49 q43 0 68.5 13 q25.5 13 25.5 36 q0 21 -23 34.5 q-23 13.5 -69 13.5 q-34 0 -75 -6 l0 62 l119 69 l-207 0 l0 76 l338 0 l0 -69 l-135 -71 q148 -12 148 -111 ZM856 700 l-570 -700 l-106 0 l572 700 l104 0 ZM980 151 l0 -77 l-74 0 l0 -74 l-97 0 l0 74 l-238 0 l0 70 l174 216 l161 0 l0 -209 l74 0 ZM809 151 l0 169 l-136 -169 l136 0 Z" /><glyph glyph-name="oneeighth" unicode="&#x215b;" d="M127 595 l-95 -48 l0 95 l114 58 l77 0 l0 -360 l-96 0 l0 255 ZM742 700 l-571 -700 l-105 0 l571 700 l105 0 ZM826 186 q48 -10 76.5 -33.5 q28.5 -23.5 28.5 -59.5 q0 -52 -55 -78.5 q-55 -26.5 -136 -26.5 q-81 0 -136 26.5 q-55 26.5 -55 78.5 q0 36 28 59.5 q28 23.5 76 33.5 q-44 10 -67.5 31 q-23.5 21 -23.5 53 q0 47 51 71.5 q51 24.5 127 24.5 q76 0 127 -24.5 q51 -24.5 51 -71.5 q0 -32 -24 -53 q-24 -21 -68 -31 ZM740 295 q-39 0 -62 -10 q-23 -10 -23 -29 q0 -20 23 -30 q23 -10 62 -10 q39 0 62 10 q23 10 23 30 q0 19 -23 29 q-23 10 -62 10 ZM740 59 q45 0 71 12 q26 12 26 33 q0 22 -26 34.5 q-26 12.5 -71 12.5 q-45 0 -71.5 -12.5 q-26.5 -12.5 -26.5 -34.5 q0 -21 26.5 -33 q26.5 -12 71.5 -12 Z" /><glyph glyph-name="threeeighths" unicode="&#x215c;" d="M389 449 q0 -62 -53 -91.5 q-53 -29.5 -137 -29.5 q-170 0 -185 118 l95 5 q7 -49 90 -49 q43 0 68.5 13 q25.5 13 25.5 36 q0 21 -23 34.5 q-23 13.5 -69 13.5 q-34 0 -75 -6 l0 62 l119 69 l-207 0 l0 76 l338 0 l0 -69 l-135 -71 q148 -12 148 -111 ZM856 700 l-570 -700 l-106 0 l572 700 l104 0 ZM941 186 q48 -10 76 -33.5 q28 -23.5 28 -59.5 q0 -52 -55 -78.5 q-55 -26.5 -136 -26.5 q-81 0 -136 26.5 q-55 26.5 -55 78.5 q0 36 28 59.5 q28 23.5 76 33.5 q-43 10 -67 31.5 q-24 21.5 -24 52.5 q0 47 51 71.5 q51 24.5 127 24.5 q76 0 127 -24.5 q51 -24.5 51 -71.5 q0 -32 -23.5 -53 q-23.5 -21 -67.5 -31 ZM854 295 q-39 0 -62 -10 q-23 -10 -23 -29 q0 -20 23 -30 q23 -10 62 -10 q39 0 62 10 q23 10 23 30 q0 19 -23 29 q-23 10 -62 10 ZM854 59 q45 0 71.5 12 q26.5 12 26.5 33 q0 22 -26.5 34.5 q-26.5 12.5 -71.5 12.5 q-45 0 -71.5 -12.5 q-26.5 -12.5 -26.5 -34.5 q0 -21 26.5 -33 q26.5 -12 71.5 -12 Z" /><glyph glyph-name="fiveeighths" unicode="&#x215d;" d="M402 460 q0 -64 -51.5 -97.5 q-51.5 -33.5 -135.5 -33.5 q-76 0 -127.5 28 q-51.5 28 -61.5 82 l92 7 q7 -21 33 -32 q26 -11 63 -11 q45 0 68.5 14.5 q23.5 14.5 23.5 41.5 q0 27 -24.5 41.5 q-24.5 14.5 -68.5 14.5 q-28 0 -52.5 -7.5 q-24.5 -7.5 -38.5 -21.5 l-83 8 l20 207 l314 0 l0 -73 l-246 0 l-9 -88 q45 39 127 39 q70 0 113.5 -30.5 q43.5 -30.5 43.5 -88.5 ZM869 700 l-571 -700 l-105 0 l571 700 l105 0 ZM953 186 q48 -10 76.5 -33.5 q28.5 -23.5 28.5 -59.5 q0 -52 -55.5 -78.5 q-55.5 -26.5 -135.5 -26.5 q-81 0 -136 26.5 q-55 26.5 -55 78.5 q0 36 28 59.5 q28 23.5 76 33.5 q-44 10 -67.5 31 q-23.5 21 -23.5 53 q0 47 51 71.5 q51 24.5 127 24.5 q76 0 127 -24.5 q51 -24.5 51 -71.5 q0 -32 -24 -53 q-24 -21 -68 -31 ZM867 295 q-39 0 -62 -10 q-23 -10 -23 -29 q0 -20 23 -30 q23 -10 62 -10 q38 0 61.5 10 q23.5 10 23.5 30 q0 19 -23.5 29 q-23.5 10 -61.5 10 ZM867 59 q45 0 71 12 q26 12 26 33 q0 22 -26 34.5 q-26 12.5 -71 12.5 q-45 0 -71.5 -12.5 q-26.5 -12.5 -26.5 -34.5 q0 -21 26.5 -33 q26.5 -12 71.5 -12 Z" /><glyph glyph-name="seveneighths" unicode="&#x215e;" d="M93 340 q38 146 174 283 l-246 0 l0 77 l348 0 l0 -64 q-136 -142 -174 -296 l-102 0 ZM812 700 l-570 -700 l-106 0 l572 700 l104 0 ZM897 186 q48 -10 76 -33.5 q28 -23.5 28 -59.5 q0 -52 -55 -78.5 q-55 -26.5 -136 -26.5 q-80 0 -135 26.5 q-55 26.5 -55 78.5 q0 36 28 59.5 q28 23.5 76 33.5 q-44 10 -68 31 q-24 21 -24 53 q0 47 51 71.5 q51 24.5 127 24.5 q76 0 127.5 -24.5 q51.5 -24.5 51.5 -71.5 q0 -32 -24 -53 q-24 -21 -68 -31 ZM810 295 q-38 0 -61 -10 q-23 -10 -23 -29 q0 -20 23 -30 q23 -10 61 -10 q39 0 62 10 q23 10 23 30 q0 19 -23 29 q-23 10 -62 10 ZM810 59 q46 0 72 12 q26 12 26 33 q0 22 -26.5 34.5 q-26.5 12.5 -71.5 12.5 q-45 0 -71 -12.5 q-26 -12.5 -26 -34.5 q0 -21 26 -33 q26 -12 71 -12 Z" /><glyph glyph-name="onesuperior" unicode="¹" d="M256 764 l0 -431 l-113 0 l0 313 l-101 -65 l0 107 l121 76 l93 0 Z" /><glyph glyph-name="twosuperior" unicode="²" d="M432 422 l0 -91 l-413 0 l0 83 l196 123 q49 32 69 52 q20 20 20 43 q0 25 -19 38 q-19 13 -53 13 q-79 0 -89 -77 l-110 9 q7 81 61 120 q54 39 138 39 q81 0 133.5 -34 q52.5 -34 52.5 -100 q0 -38 -25 -73 q-25 -35 -91 -74 l-112 -71 l242 0 Z" /><glyph glyph-name="threesuperior" unicode="³" d="M278 595 q76 -7 121 -38 q45 -31 45 -92 q0 -71 -61.5 -105 q-61.5 -34 -156.5 -34 q-89 0 -146.5 35 q-57.5 35 -66.5 103 l110 8 q12 -55 103 -55 q48 0 76.5 15.5 q28.5 15.5 28.5 41.5 q0 26 -26.5 42 q-26.5 16 -77.5 16 q-31 0 -84 -7 l0 61 l140 87 l-241 0 l0 91 l386 0 l0 -81 l-150 -88 Z" /><glyph glyph-name="asterisk" unicode="*" d="M335 496 l56 -32 l-38 -68 l-57 34 l-65 53 l14 -83 l0 -65 l-78 0 l0 65 l14 83 l-64 -53 l-57 -34 l-39 68 l57 32 l80 30 l-80 30 l-57 32 l39 67 l57 -33 l64 -54 l-14 84 l0 66 l78 0 l0 -66 l-14 -84 l65 54 l57 33 l38 -67 l-56 -32 l-81 -30 l81 -30 Z" /><glyph glyph-name="backslash" unicode="\" d="M474 -62 l-134 0 l-304 794 l134 0 l304 -794 Z" /><glyph glyph-name="periodcentered" unicode="·" d="M72 390 l165 0 l0 -156 l-165 0 l0 156 Z" /><glyph glyph-name="bullet" unicode="&#x2022;" d="M218 190 q-55 0 -90.5 35 q-35.5 35 -35.5 90 q0 53 35 88.5 q35 35.5 89 35.5 q56 0 92.5 -35 q36.5 -35 36.5 -89 q0 -55 -35.5 -90 q-35.5 -35 -91.5 -35 Z" /><glyph glyph-name="colon" unicode=":" d="M72 512 l165 0 l0 -156 l-165 0 l0 156 ZM72 156 l165 0 l0 -156 l-165 0 l0 156 Z" /><glyph glyph-name="comma" unicode="," d="M72 156 l165 0 l0 -96 l-98 -192 l-67 0 l0 288 Z" /><glyph glyph-name="ellipsis" unicode="&#x2026;" d="M72 156 l165 0 l0 -156 l-165 0 l0 156 ZM338 156 l166 0 l0 -156 l-166 0 l0 156 ZM605 156 l165 0 l0 -156 l-165 0 l0 156 Z" /><glyph glyph-name="exclam" unicode="!" d="M113 231 l-16 469 l155 0 l-17 -469 l-122 0 ZM92 156 l165 0 l0 -156 l-165 0 l0 156 Z" /><glyph glyph-name="exclamdown" unicode="¡" d="M257 524 l0 -156 l-165 0 l0 156 l165 0 ZM252 -176 l-155 0 l16 469 l122 0 l17 -469 Z" /><glyph glyph-name="numbersign" unicode="#" d="M565 426 l-20 -151 l129 0 l0 -89 l-141 0 l-25 -188 l-119 0 l25 188 l-145 0 l-25 -188 l-119 0 l25 188 l-130 0 l0 89 l142 0 l20 151 l-129 0 l0 89 l141 0 l23 173 l119 0 l-23 -173 l145 0 l23 173 l119 0 l-23 -173 l129 0 l0 -89 l-141 0 ZM446 426 l-145 0 l-20 -151 l145 0 l20 151 Z" /><glyph glyph-name="period" unicode="." d="M72 156 l165 0 l0 -156 l-165 0 l0 156 Z" /><glyph glyph-name="question" unicode="?" d="M20 474 q12 119 103 178.5 q91 59.5 237 59.5 q132 0 217 -47.5 q85 -47.5 85 -141.5 q0 -60 -38.5 -102 q-38.5 -42 -122.5 -83 q-42 -20 -62.5 -33 q-20.5 -13 -29.5 -26.5 q-9 -13.5 -9 -33.5 l0 -10 l-143 0 l0 16 q0 56 25.5 89 q25.5 33 91.5 60 q71 32 105 56.5 q34 24.5 34 56.5 q0 38 -43.5 59 q-43.5 21 -109.5 21 q-84 0 -136 -32.5 q-52 -32.5 -63 -93.5 l-141 7 ZM245 156 l167 0 l0 -156 l-167 0 l0 156 Z" /><glyph glyph-name="questiondown" unicode="¿" d="M452 368 l-166 0 l0 156 l166 0 l0 -156 ZM678 50 q-13 -119 -104 -178.5 q-91 -59.5 -236 -59.5 q-133 0 -217.5 47.5 q-84.5 47.5 -84.5 141.5 q0 60 38.5 102 q38.5 42 122.5 83 q61 30 81 47 q20 17 20 46 l0 10 l142 0 l0 -16 q0 -56 -25.5 -89 q-25.5 -33 -90.5 -60 q-71 -32 -105.5 -56.5 q-34.5 -24.5 -34.5 -56.5 q0 -38 43.5 -59 q43.5 -21 110.5 -21 q84 0 135.5 32.5 q51.5 32.5 63.5 93.5 l141 -7 Z" /><glyph glyph-name="quotedbl" unicode="&quot;" d="M64 700 l128 0 l-12 -258 l-104 0 l-12 258 ZM264 700 l129 0 l-12 -258 l-105 0 l-12 258 Z" /><glyph glyph-name="quotesingle" unicode="&#39;" d="M64 700 l128 0 l-12 -258 l-104 0 l-12 258 Z" /><glyph glyph-name="semicolon" unicode=";" d="M72 512 l165 0 l0 -156 l-165 0 l0 156 ZM72 156 l165 0 l0 -96 l-98 -192 l-67 0 l0 288 Z" /><glyph glyph-name="slash" unicode="/" d="M456 732 l-304 -794 l-135 0 l305 794 l134 0 Z" /><glyph glyph-name="underscore" unicode="_" d="M538 -27 l0 -99 l-524 0 l0 99 l524 0 Z" /><glyph glyph-name="braceleft" unicode="{" d="M275 436 q0 -126 -137 -142 l0 -4 q66 -9 101.5 -43 q35.5 -34 35.5 -100 l0 -107 q0 -49 23.5 -70.5 q23.5 -21.5 72.5 -21.5 l11 0 l0 -102 l-16 0 q-107 0 -162.5 40.5 q-55.5 40.5 -55.5 145.5 l0 100 q0 109 -102 109 l-11 0 l0 101 l11 0 q102 0 102 110 l0 99 q0 105 55.5 145.5 q55.5 40.5 162.5 40.5 l16 0 l0 -101 l-11 0 q-48 0 -72 -22 q-24 -22 -24 -70 l0 -108 Z" /><glyph glyph-name="braceright" unicode="}" d="M369 342 l0 -101 l-10 0 q-102 0 -102 -109 l0 -100 q0 -105 -55.5 -145.5 q-55.5 -40.5 -162.5 -40.5 l-16 0 l0 102 l10 0 q49 0 73 21.5 q24 21.5 24 70.5 l0 107 q0 66 35.5 100 q35.5 34 101.5 43 l0 4 q-137 16 -137 142 l0 108 q0 49 -24 70.5 q-24 21.5 -73 21.5 l-10 0 l0 101 l16 0 q107 0 162.5 -40.5 q55.5 -40.5 55.5 -145.5 l0 -99 q0 -110 102 -110 l10 0 Z" /><glyph glyph-name="bracketleft" unicode="[" d="M232 619 l0 -655 l125 0 l0 -118 l-260 0 l0 891 l260 0 l0 -118 l-125 0 Z" /><glyph glyph-name="bracketright" unicode="]" d="M284 -154 l-259 0 l0 118 l125 0 l0 655 l-125 0 l0 118 l259 0 l0 -891 Z" /><glyph glyph-name="parenleft" unicode="(" d="M398 736 q-92 -79 -142.5 -192.5 q-50.5 -113.5 -50.5 -252.5 q0 -139 50.5 -252.5 q50.5 -113.5 142.5 -192.5 l-126 0 q-85 64 -145 175.5 q-60 111.5 -60 269.5 q0 158 60 269.5 q60 111.5 145 175.5 l126 0 Z" /><glyph glyph-name="parenright" unicode=")" d="M136 736 q85 -64 145 -175.5 q60 -111.5 60 -269.5 q0 -158 -60 -269.5 q-60 -111.5 -145 -175.5 l-127 0 q92 79 143 192.5 q51 113.5 51 252.5 q0 139 -51 252.5 q-51 113.5 -143 192.5 l127 0 Z" /><glyph glyph-name="emdash" unicode="&#x2014;" d="M858 356 l0 -115 l-798 0 l0 115 l798 0 Z" /><glyph glyph-name="endash" unicode="&#x2013;" d="M678 356 l0 -115 l-618 0 l0 115 l618 0 Z" /><glyph glyph-name="hyphen" unicode="-" d="M428 356 l0 -115 l-368 0 l0 115 l368 0 Z" /><glyph glyph-name="guillemotleft" unicode="«" d="M143 280 l206 -187 l-145 0 l-173 160 l0 54 l173 160 l145 0 l-206 -187 ZM407 280 l206 -187 l-145 0 l-173 160 l0 54 l173 160 l145 0 l-206 -187 Z" /><glyph glyph-name="guillemotright" unicode="»" d="M363 253 l-174 -160 l-144 0 l205 187 l-205 187 l144 0 l174 -160 l0 -54 ZM627 307 l0 -54 l-174 -160 l-144 0 l205 187 l-205 187 l144 0 l174 -160 Z" /><glyph glyph-name="guilsinglleft" unicode="&#x2039;" d="M143 280 l206 -187 l-145 0 l-173 160 l0 54 l173 160 l145 0 l-206 -187 Z" /><glyph glyph-name="guilsinglright" unicode="&#x203a;" d="M363 307 l0 -54 l-174 -160 l-144 0 l205 187 l-205 187 l144 0 l174 -160 Z" /><glyph glyph-name="quotedblbase" unicode="&#x201e;" d="M70 156 l146 0 l0 -88 l-82 -166 l-64 0 l0 254 ZM293 156 l145 0 l0 -88 l-82 -166 l-63 0 l0 254 Z" /><glyph glyph-name="quotedblleft" unicode="&#x201c;" d="M203 458 l-145 0 l0 87 l82 167 l63 0 l0 -254 ZM425 458 l-145 0 l0 87 l82 167 l63 0 l0 -254 Z" /><glyph glyph-name="quotedblright" unicode="&#x201d;" d="M70 700 l146 0 l0 -88 l-82 -166 l-64 0 l0 254 ZM293 700 l145 0 l0 -88 l-82 -166 l-63 0 l0 254 Z" /><glyph glyph-name="quoteleft" unicode="&#x2018;" d="M203 458 l-145 0 l0 87 l81 167 l64 0 l0 -254 Z" /><glyph glyph-name="quoteright" unicode="&#x2019;" d="M70 700 l146 0 l0 -88 l-82 -166 l-64 0 l0 254 Z" /><glyph glyph-name="quotesinglbase" unicode="&#x201a;" d="M70 156 l146 0 l0 -88 l-82 -166 l-64 0 l0 254 Z" /><glyph glyph-name="nonbreakingspace" unicode=" " d="" /><glyph glyph-name="cent" unicode="¢" d="M710 183 q-18 -87 -96 -137.5 q-78 -50.5 -195 -56.5 l0 -75 l-70 0 l0 75 q-143 8 -225 79 q-82 71 -82 194 q0 124 82.5 194.5 q82.5 70.5 224.5 78.5 l0 75 l70 0 l0 -75 q112 -7 188.5 -55.5 q76.5 -48.5 93.5 -132.5 l-133 -11 q-15 37 -54 60 q-39 23 -95 29 l0 -326 q60 5 101 29 q41 24 55 64 l135 -9 ZM180 262 q0 -69 45.5 -111.5 q45.5 -42.5 123.5 -50.5 l0 325 q-78 -8 -123.5 -51 q-45.5 -43 -45.5 -112 Z" /><glyph glyph-name="currency" unicode="¤" d="M589 23 l-85 76 q-64 -36 -153 -36 q-87 0 -152 36 l-84 -74 l-77 77 l80 70 q-37 57 -37 133 q0 77 37 132 l-82 73 l77 77 l86 -76 q67 36 152 36 q86 0 152 -36 l84 75 l77 -78 l-79 -71 q37 -55 37 -132 q0 -76 -37 -132 l81 -73 l-77 -77 ZM203 305 q0 -59 40.5 -93 q40.5 -34 107.5 -34 q68 0 108.5 34 q40.5 34 40.5 93 q0 58 -40.5 92.5 q-40.5 34.5 -108.5 34.5 q-67 0 -107.5 -34.5 q-40.5 -34.5 -40.5 -92.5 Z" /><glyph glyph-name="dollar" unicode="$" d="M764 196 q0 -100 -85.5 -151 q-85.5 -51 -238.5 -56 l0 -85 l-74 0 l0 85 q-158 7 -241.5 67.5 q-83.5 60.5 -91.5 171.5 l140 5 q4 -51 52 -87 q48 -36 141 -43 l0 189 l-99 23 q-108 26 -154 73.5 q-46 47.5 -46 115.5 q0 97 83 145 q83 48 216 52 l0 84 l74 0 l0 -86 q128 -10 207 -66 q79 -56 89 -151 l-141 -8 q-4 40 -43 71 q-39 31 -112 40 l0 -173 l105 -24 q112 -27 165.5 -71 q53.5 -44 53.5 -121 ZM366 430 l0 157 q-71 -2 -110 -21 q-39 -19 -39 -51 q0 -27 29 -45 q29 -18 90 -33 l30 -7 ZM440 102 q82 3 128 23.5 q46 20.5 46 56.5 q0 27 -32 47 q-32 20 -97 35 l-45 10 l0 -172 Z" /><glyph glyph-name="Euro" unicode="&#x20ac;" d="M871 215 q-25 -106 -118 -166.5 q-93 -60.5 -248 -60.5 q-164 0 -267.5 69 q-103.5 69 -133.5 190 l-92 0 l0 69 l82 0 q-1 9 -1 28 q0 19 1 28 l-77 0 l0 69 l87 0 q30 120 131 189.5 q101 69.5 259 69.5 q143 0 237.5 -54 q94.5 -54 124.5 -148 l-140 -9 q-23 41 -80.5 64.5 q-57.5 23.5 -135.5 23.5 q-92 0 -152 -36.5 q-60 -36.5 -86 -99.5 l345 0 l0 -69 l-362 0 q-2 -18 -2 -28 q0 -10 2 -28 l358 0 l0 -69 l-341 0 q28 -64 91.5 -100 q63.5 -36 155.5 -36 q88 0 145.5 30.5 q57.5 30.5 76.5 79.5 l140 -6 Z" /><glyph glyph-name="uni20B4" unicode="&#x20b4;" d="M605 381 q-39 -21 -87 -38 l-50 -17 l272 0 l0 -55 l-431 0 q-50 -20 -73 -41.5 q-23 -21.5 -23 -48.5 q0 -41 48 -60.5 q48 -19.5 121 -19.5 q85 0 138.5 24.5 q53.5 24.5 57.5 72.5 l140 -5 q-10 -105 -98 -155 q-88 -50 -237 -50 q-147 0 -233.5 48 q-86.5 48 -86.5 137 q0 57 38 98 l-69 0 l0 55 l146 0 q36 18 81 33 l65 22 l-292 0 l0 55 l446 0 q68 33 68 73 q0 35 -40.5 56.5 q-40.5 21.5 -107.5 21.5 q-59 0 -107 -18 q-48 -18 -55 -57 l-140 8 q12 98 101 139 q89 41 204 41 q129 0 212 -45.5 q83 -45.5 83 -136.5 q0 -46 -26 -82 l70 0 l0 -55 l-135 0 Z" /><glyph glyph-name="uni20BD" unicode="&#x20bd;" d="M270 266 l0 -52 l299 0 l0 -88 l-299 0 l0 -126 l-151 0 l0 126 l-92 0 l0 88 l92 0 l0 52 l-92 0 l0 111 l92 0 l0 311 l411 0 q127 0 199.5 -53.5 q72.5 -53.5 72.5 -160.5 q0 -107 -70.5 -157.5 q-70.5 -50.5 -201.5 -50.5 l-260 0 ZM270 377 l252 0 q62 0 96 26.5 q34 26.5 34 70.5 q0 43 -33.5 66.5 q-33.5 23.5 -96.5 23.5 l-252 0 l0 -187 Z" /><glyph glyph-name="sterling" unicode="£" d="M717 124 l0 -124 l-699 0 l0 108 q134 75 134 165 q0 16 -5 36 l-112 0 l0 82 l86 0 q-9 29 -13.5 51.5 q-4.5 22.5 -4.5 48.5 q0 102 80 155.5 q80 53.5 219 53.5 q137 0 206.5 -54.5 q69.5 -54.5 81.5 -157.5 l-143 -10 q-12 98 -145 98 q-71 0 -109.5 -27 q-38.5 -27 -38.5 -82 q0 -29 15 -76 l267 0 l0 -82 l-240 0 q6 -21 6 -43 q0 -48 -33 -82 q-33 -34 -94 -60 l542 0 Z" /><glyph glyph-name="yen" unicode="¥" d="M510 309 l260 0 l0 -72 l-260 0 l0 -53 l260 0 l0 -72 l-260 0 l0 -112 l-150 0 l0 112 l-260 0 l0 72 l260 0 l0 53 l-260 0 l0 72 l260 0 l0 6 l-345 373 l176 0 l245 -282 l248 282 l171 0 l-345 -375 l0 -4 Z" /><glyph glyph-name="approxequal" unicode="&#x2248;" d="M210 406 q-27 0 -42 -18.5 q-15 -18.5 -15 -47.5 l-81 0 q0 65 30.5 108 q30.5 43 98.5 43 q39 0 68 -12.5 q29 -12.5 64 -35.5 q28 -17 44 -25 q16 -8 35 -8 q27 0 41.5 18 q14.5 18 14.5 47 l81 0 q0 -64 -30 -107 q-30 -43 -98 -43 q-40 0 -68 12 q-28 12 -66 36 q-24 16 -41.5 24.5 q-17.5 8.5 -35.5 8.5 ZM412 229 q27 0 41.5 18 q14.5 18 14.5 48 l81 0 q0 -65 -30 -108 q-30 -43 -98 -43 q-40 0 -68 12 q-28 12 -66 36 q-25 16 -42 24 q-17 8 -35 8 q-28 0 -42.5 -18 q-14.5 -18 -14.5 -48 l-81 0 q0 65 30 108 q30 43 99 43 q38 0 66.5 -12 q28.5 -12 65.5 -35 q25 -17 42.5 -25 q17.5 -8 36.5 -8 Z" /><glyph glyph-name="asciitilde" unicode="~" d="M579 409 q0 -67 -31.5 -112 q-31.5 -45 -104.5 -45 q-41 0 -71 12.5 q-30 12.5 -68 35.5 q-25 16 -43 24 q-18 8 -37 8 q-28 0 -43 -17.5 q-15 -17.5 -15 -47.5 l-88 0 q0 68 31 112.5 q31 44.5 104 44.5 q41 0 72 -12.5 q31 -12.5 68 -34.5 q25 -16 43 -24 q18 -8 37 -8 q28 0 43 17.5 q15 17.5 15 46.5 l88 0 Z" /><glyph glyph-name="divide" unicode="÷" d="M289 434 q-28 0 -47.5 19 q-19.5 19 -19.5 47 q0 26 19.5 45.5 q19.5 19.5 47.5 19.5 q28 0 48 -19.5 q20 -19.5 20 -45.5 q0 -28 -19.5 -47 q-19.5 -19 -48.5 -19 ZM516 379 l0 -99 l-454 0 l0 99 l454 0 ZM289 92 q-28 0 -47.5 19.5 q-19.5 19.5 -19.5 46.5 q0 27 19.5 46 q19.5 19 47.5 19 q28 0 48 -19 q20 -19 20 -46 q0 -27 -20 -46.5 q-20 -19.5 -48 -19.5 Z" /><glyph glyph-name="emptyset" unicode="&#x2205;" d="M553 457 q52 -63 52 -152 q0 -74 -35 -129 q-35 -55 -96.5 -84 q-61.5 -29 -140.5 -29 q-102 0 -173 48 l-79 -70 l-45 44 l77 68 q-51 62 -51 152 q0 74 34.5 129 q34.5 55 96 84 q61.5 29 140.5 29 q103 0 174 -48 l79 70 l44 -45 l-77 -67 ZM184 305 q0 -40 21 -72 l208 184 q-33 15 -80 15 q-69 0 -109 -34 q-40 -34 -40 -93 ZM482 305 q0 42 -20 71 l-208 -183 q33 -15 79 -15 q70 0 109.5 34 q39.5 34 39.5 93 Z" /><glyph glyph-name="equal" unicode="=" d="M516 461 l0 -99 l-454 0 l0 99 l454 0 ZM516 281 l0 -99 l-454 0 l0 99 l454 0 Z" /><glyph glyph-name="greater" unicode="&gt;" d="M507 390 l0 -124 l-429 -151 l0 120 l322 95 l-322 104 l0 120 l429 -164 Z" /><glyph glyph-name="greaterequal" unicode="&#x2265;" d="M507 434 l0 -125 l-429 -120 l0 120 l308 66 l-308 87 l0 120 l429 -148 ZM78 149 l429 0 l0 -99 l-429 0 l0 99 Z" /><glyph glyph-name="infinity" unicode="&#x221e;" d="M523 481 q78 0 123.5 -40.5 q45.5 -40.5 45.5 -117.5 q0 -77 -46 -118.5 q-46 -41.5 -123 -41.5 q-48 0 -87 18.5 q-39 18.5 -77 65.5 q-38 -47 -77 -65.5 q-39 -18.5 -87 -18.5 q-77 0 -122.5 41 q-45.5 41 -45.5 119 q0 77 45.5 117.5 q45.5 40.5 122.5 40.5 q49 0 88.5 -18.5 q39.5 -18.5 75.5 -64.5 q37 46 76 64.5 q39 18.5 88 18.5 ZM204 249 q31 0 57 17 q26 17 54 57 q-28 40 -54 57 q-26 17 -57 17 q-34 0 -56 -18 q-22 -18 -22 -56 q0 -37 22 -55.5 q22 -18.5 56 -18.5 ZM514 249 q34 0 56.5 18.5 q22.5 18.5 22.5 55.5 q0 38 -22.5 56 q-22.5 18 -56.5 18 q-31 0 -57 -17 q-26 -17 -54 -57 q28 -40 54 -57 q26 -17 57 -17 Z" /><glyph glyph-name="integral" unicode="&#x222b;" d="M330 737 q42 0 70 -5 l0 -99 q-27 3 -43 3 q-32 0 -46 -14.5 q-14 -14.5 -14 -52.5 l0 -524 q0 -154 -159 -154 q-36 0 -70 6 l0 99 q27 -3 43 -3 q31 0 45 14.5 q14 14.5 14 52.5 l0 524 q0 153 160 153 Z" /><glyph glyph-name="less" unicode="&lt;" d="M486 434 l-322 -104 l322 -95 l0 -120 l-429 151 l0 124 l429 164 l0 -120 Z" /><glyph glyph-name="lessequal" unicode="&#x2264;" d="M492 462 l-309 -87 l309 -66 l0 -120 l-429 120 l0 125 l429 148 l0 -120 ZM63 149 l429 0 l0 -99 l-429 0 l0 99 Z" /><glyph glyph-name="logicalnot" unicode="¬" d="M511 382 l0 -225 l-108 0 l0 124 l-335 0 l0 101 l443 0 Z" /><glyph glyph-name="minus" unicode="&#x2212;" d="M514 382 l0 -106 l-454 0 l0 106 l454 0 Z" /><glyph glyph-name="multiply" unicode="×" d="M370 329 l151 -132 l-71 -72 l-156 138 l-156 -138 l-71 72 l151 132 l-151 133 l71 72 l156 -138 l156 138 l71 -72 l-151 -133 Z" /><glyph glyph-name="notequal" unicode="&#x2260;" d="M357 362 l-39 -81 l204 0 l0 -99 l-252 0 l-40 -84 l-87 0 l40 84 l-115 0 l0 99 l163 0 l39 81 l-202 0 l0 99 l249 0 l41 85 l87 0 l-41 -85 l118 0 l0 -99 l-165 0 Z" /><glyph glyph-name="partialdiff" unicode="&#x2202;" d="M301 756 q161 0 239 -103 q78 -103 78 -291 q0 -195 -80.5 -284.5 q-80.5 -89.5 -220.5 -89.5 q-83 0 -145.5 30 q-62.5 30 -96 86 q-33.5 56 -33.5 132 q0 73 33.5 130 q33.5 57 93 88 q59.5 31 134.5 31 q101 0 167 -55 q-10 102 -54.5 158.5 q-44.5 56.5 -124.5 56.5 q-43 0 -82.5 -16.5 q-39.5 -16.5 -70.5 -44.5 l-74 91 q41 37 101 59 q60 22 136 22 ZM312 103 q143 0 160 189 q-21 39 -58 58.5 q-37 19.5 -82 19.5 q-67 0 -106 -37 q-39 -37 -39 -96 q0 -65 34.5 -99.5 q34.5 -34.5 90.5 -34.5 Z" /><glyph glyph-name="percent" unicode="%" d="M33 530 q0 53 28.5 92.5 q28.5 39.5 81 61.5 q52.5 22 122.5 22 q106 0 168.5 -48 q62.5 -48 62.5 -128 q0 -81 -62.5 -129 q-62.5 -48 -168.5 -48 q-106 0 -169 48.5 q-63 48.5 -63 128.5 ZM837 700 l99 0 l-669 -700 l-100 0 l670 700 ZM139 530 q0 -44 34.5 -69.5 q34.5 -25.5 91.5 -25.5 q56 0 90.5 25.5 q34.5 25.5 34.5 69.5 q0 44 -34.5 69.5 q-34.5 25.5 -90.5 25.5 q-56 0 -91 -25.5 q-35 -25.5 -35 -69.5 ZM607 170 q0 80 63 128.5 q63 48.5 169 48.5 q106 0 168.5 -48.5 q62.5 -48.5 62.5 -128.5 q0 -53 -28.5 -92.5 q-28.5 -39.5 -80.5 -61.5 q-52 -22 -122 -22 q-70 0 -122.5 22 q-52.5 22 -81 61.5 q-28.5 39.5 -28.5 92.5 ZM713 170 q0 -44 35 -69.5 q35 -25.5 91 -25.5 q55 0 89.5 25.5 q34.5 25.5 34.5 69.5 q0 44 -34 69.5 q-34 25.5 -90 25.5 q-57 0 -91.5 -25.5 q-34.5 -25.5 -34.5 -69.5 Z" /><glyph glyph-name="perthousand" unicode="&#x2030;" d="M33 530 q0 53 28.5 92.5 q28.5 39.5 81 61.5 q52.5 22 122.5 22 q106 0 168.5 -48 q62.5 -48 62.5 -128 q0 -81 -62.5 -129 q-62.5 -48 -168.5 -48 q-106 0 -169 48.5 q-63 48.5 -63 128.5 ZM837 700 l99 0 l-669 -700 l-100 0 l670 700 ZM139 530 q0 -44 34.5 -69.5 q34.5 -25.5 91.5 -25.5 q56 0 90.5 25.5 q34.5 25.5 34.5 69.5 q0 44 -34.5 69.5 q-34.5 25.5 -90.5 25.5 q-56 0 -91 -25.5 q-35 -25.5 -35 -69.5 ZM607 170 q0 80 63 128.5 q63 48.5 169 48.5 q106 0 168.5 -48.5 q62.5 -48.5 62.5 -128.5 q0 -53 -28.5 -92.5 q-28.5 -39.5 -80.5 -61.5 q-52 -22 -122 -22 q-70 0 -122.5 22 q-52.5 22 -81 61.5 q-28.5 39.5 -28.5 92.5 ZM1140 170 q0 81 62.5 129 q62.5 48 168.5 48 q106 0 168.5 -48 q62.5 -48 62.5 -129 q0 -80 -62.5 -128 q-62.5 -48 -168.5 -48 q-106 0 -168.5 48 q-62.5 48 -62.5 128 ZM713 170 q0 -44 35 -69.5 q35 -25.5 91 -25.5 q55 0 89.5 25.5 q34.5 25.5 34.5 69.5 q0 44 -34 69.5 q-34 25.5 -90 25.5 q-57 0 -91.5 -25.5 q-34.5 -25.5 -34.5 -69.5 ZM1245 170 q0 -44 35 -69.5 q35 -25.5 91 -25.5 q56 0 90.5 25.5 q34.5 25.5 34.5 69.5 q0 44 -34.5 69.5 q-34.5 25.5 -90.5 25.5 q-57 0 -91.5 -25.5 q-34.5 -25.5 -34.5 -69.5 Z" /><glyph glyph-name="plus" unicode="+" d="M514 280 l-176 0 l0 -147 l-102 0 l0 147 l-176 0 l0 99 l176 0 l0 146 l102 0 l0 -146 l176 0 l0 -99 Z" /><glyph glyph-name="plusminus" unicode="±" d="M528 437 l0 -99 l-176 0 l0 -119 l-102 0 l0 119 l-176 0 l0 99 l176 0 l0 133 l102 0 l0 -133 l176 0 ZM74 158 l454 0 l0 -99 l-454 0 l0 99 Z" /><glyph glyph-name="product" unicode="&#x220f;" d="M761 -103 l-144 0 l0 685 l-382 0 l0 -685 l-144 0 l0 803 l670 0 l0 -803 Z" /><glyph glyph-name="radical" unicode="&#x221a;" d="M661 712 l-257 -821 l-164 0 l-130 395 l-85 0 l0 106 l178 0 l120 -401 l216 721 l122 0 Z" /><glyph glyph-name="summation" unicode="&#x2211;" d="M666 16 l0 -119 l-626 0 l0 106 l316 309 l-299 283 l0 105 l596 0 l0 -118 l-399 0 l272 -270 l-291 -296 l431 0 Z" /><glyph glyph-name="arrowup" unicode="&#x2191;" d="M623 313 l-221 228 l0 -551 l-118 0 l0 550 l-220 -227 l0 169 l279 278 l280 -279 l0 -168 Z" /><glyph glyph-name="uni2197" unicode="&#x2197;" d="M621 616 l0 -395 l-123 -117 l4 323 l-359 -360 l-79 80 l360 360 l-314 -4 l115 113 l396 0 Z" /><glyph glyph-name="arrowright" unicode="&#x2192;" d="M756 356 l-278 -279 l-164 0 l230 223 l-480 0 l0 112 l480 0 l-230 223 l164 0 l278 -279 Z" /><glyph glyph-name="uni2198" unicode="&#x2198;" d="M621 478 l0 -395 l-396 0 l-115 114 l314 -4 l-360 360 l79 79 l359 -359 l-4 322 l123 -117 Z" /><glyph glyph-name="arrowdown" unicode="&#x2193;" d="M623 387 l0 -168 l-280 -279 l-279 278 l0 169 l220 -227 l0 550 l118 0 l0 -551 l221 228 Z" /><glyph glyph-name="uni2199" unicode="&#x2199;" d="M261 193 l314 4 l-116 -114 l-395 0 l0 395 l122 117 l-4 -322 l359 359 l80 -79 l-360 -360 Z" /><glyph glyph-name="arrowleft" unicode="&#x2190;" d="M756 300 l-480 0 l231 -223 l-165 0 l-278 279 l279 279 l164 0 l-231 -223 l480 0 l0 -112 Z" /><glyph glyph-name="uni2196" unicode="&#x2196;" d="M541 67 l-359 360 l4 -323 l-122 117 l0 395 l395 0 l116 -113 l-314 4 l360 -360 l-80 -80 Z" /><glyph glyph-name="arrowboth" unicode="&#x2194;" d="M1053 356 l-245 -246 l-164 0 l197 190 l-565 0 l197 -190 l-163 0 l-246 246 l246 246 l163 0 l-197 -190 l565 0 l-197 190 l164 0 l245 -246 Z" /><glyph glyph-name="arrowupdn" unicode="&#x2195;" d="M366 609 l0 -522 l188 194 l0 -168 l-246 -246 l-244 243 l0 169 l185 -192 l0 522 l-185 -191 l0 168 l244 243 l246 -246 l0 -168 l-188 194 Z" /><glyph glyph-name="lozenge" unicode="&#x25ca;" d="M556 350 l-186 -350 l-147 0 l-187 350 l187 350 l147 0 l186 -350 ZM436 350 l-140 276 l-140 -276 l140 -276 l140 276 Z" /><glyph glyph-name="bar" unicode="|" d="M200 736 l0 -857 l-109 0 l0 857 l109 0 Z" /><glyph glyph-name="brokenbar" unicode="¦" d="M200 736 l0 -348 l-109 0 l0 348 l109 0 ZM200 243 l0 -364 l-109 0 l0 364 l109 0 Z" /><glyph glyph-name="at" unicode="@" d="M696 466 l0 -237 q0 -46 17 -68 q17 -22 59 -22 q52 0 77.5 35 q25.5 35 25.5 100 q0 91 -45.5 163.5 q-45.5 72.5 -131 114 q-85.5 41.5 -202.5 41.5 q-107 0 -194 -42.5 q-87 -42.5 -136.5 -117.5 q-49.5 -75 -49.5 -169 q0 -103 48 -177 q48 -74 136.5 -113.5 q88.5 -39.5 207.5 -39.5 q133 0 226 47 l36 -48 q-54 -28 -121 -42 q-67 -14 -141 -14 q-139 0 -242 45.5 q-103 45.5 -159 132.5 q-56 87 -56 209 q0 114 58 202 q58 88 159 136 q101 48 228 48 q134 0 234.5 -47.5 q100.5 -47.5 155 -132 q54.5 -84.5 54.5 -193.5 q0 -105 -50 -160 q-50 -55 -142 -55 q-59 0 -96.5 23 q-37.5 23 -53.5 61 q-24 -47 -66 -70.5 q-42 -23.5 -93 -23.5 q-52 0 -95 25.5 q-43 25.5 -68 73.5 q-25 48 -25 113 q0 65 25 112.5 q25 47.5 68.5 73 q43.5 25.5 96.5 25.5 q45 0 82.5 -18.5 q37.5 -18.5 61.5 -56.5 l0 66 l111 0 ZM473 139 q51 0 81.5 34 q30.5 34 30.5 91 q0 56 -30.5 90 q-30.5 34 -81.5 34 q-51 0 -81 -34 q-30 -34 -30 -90 q0 -57 30 -91 q30 -34 81 -34 Z" /><glyph glyph-name="ampersand" unicode="&amp;" d="M708 0 l-74 64 q-107 -76 -276 -76 q-157 0 -236 50 q-79 50 -79 133 q0 47 24.5 81 q24.5 34 65 59 q40.5 25 110.5 58 l28 14 l-11 10 q-62 55 -89.5 91.5 q-27.5 36.5 -27.5 78.5 q0 69 68.5 109 q68.5 40 180.5 40 q117 0 182.5 -43 q65.5 -43 65.5 -120 q0 -51 -34 -88.5 q-34 -37.5 -113 -76.5 l-37 -18 l177 -155 q32 48 44 115 l114 0 q-21 -109 -78 -185 l163 -141 l-168 0 ZM377 434 l40 19 q50 24 72.5 44.5 q22.5 20.5 22.5 44.5 q0 31 -33 49.5 q-33 18.5 -87 18.5 q-50 0 -82 -15 q-32 -15 -32 -44 q0 -21 19 -42.5 q19 -21.5 67 -63.5 l13 -11 ZM366 95 q111 0 186 42 l-202 177 l-59 -29 q-51 -26 -76.5 -50 q-25.5 -24 -25.5 -53 q0 -37 44.5 -62 q44.5 -25 132.5 -25 Z" /><glyph glyph-name="paragraph" unicode="¶" d="M59 502 q0 60 29 104.5 q29 44.5 82.5 69 q53.5 24.5 124.5 24.5 l77 0 l0 -795 l-91 0 l0 399 q-66 0 -116.5 25 q-50.5 25 -78 70 q-27.5 45 -27.5 103 ZM561 700 l0 -795 l-91 0 l0 795 l91 0 Z" /><glyph glyph-name="copyright" unicode="©" d="M410 -12 q-104 0 -186 45 q-82 45 -129 127 q-47 82 -47 190 q0 108 47 190 q47 82 129 127 q82 45 186 45 q104 0 186 -45 q82 -45 129 -127 q47 -82 47 -190 q0 -108 -47 -190 q-47 -82 -129 -127 q-82 -45 -186 -45 ZM410 59 q82 0 146.5 38.5 q64.5 38.5 100 104.5 q35.5 66 35.5 148 q0 82 -35.5 148 q-35.5 66 -100 104.5 q-64.5 38.5 -146.5 38.5 q-82 0 -146.5 -38.5 q-64.5 -38.5 -100.5 -104.5 q-36 -66 -36 -148 q0 -82 36 -148 q36 -66 100.5 -104.5 q64.5 -38.5 146.5 -38.5 ZM236 350 q0 97 47.5 149.5 q47.5 52.5 128.5 52.5 q70 0 116 -37.5 q46 -37.5 54 -105.5 l-98 -9 q-6 36 -25 54 q-19 18 -47 18 q-35 0 -54.5 -32 q-19.5 -32 -19.5 -90 q0 -57 20 -89 q20 -32 57 -32 q62 0 74 75 l97 -6 q-6 -71 -52.5 -110.5 q-46.5 -39.5 -118.5 -39.5 q-83 0 -131 53 q-48 53 -48 149 Z" /><glyph glyph-name="registered" unicode="®" d="M290 712 q69 0 126 -31.5 q57 -31.5 90.5 -88 q33.5 -56.5 33.5 -130.5 q0 -74 -33.5 -130.5 q-33.5 -56.5 -90.5 -88 q-57 -31.5 -126 -31.5 q-69 0 -126.5 31 q-57.5 31 -90.5 88 q-33 57 -33 131 q0 74 33 131 q33 57 90.5 88 q57.5 31 126.5 31 ZM290 262 q58 0 102.5 26 q44.5 26 69 71.5 q24.5 45.5 24.5 102.5 q0 57 -24.5 102.5 q-24.5 45.5 -69 71.5 q-44.5 26 -102.5 26 q-58 0 -103 -26 q-45 -26 -69.5 -71.5 q-24.5 -45.5 -24.5 -102.5 q0 -57 24.5 -102.5 q24.5 -45.5 69.5 -71.5 q45 -26 103 -26 ZM382 515 q0 -33 -12.5 -51.5 q-12.5 -18.5 -33.5 -23.5 l54 -102 l-58 0 l-44 99 l-23 0 l0 -99 l-53 0 l0 260 l95 0 q31 0 53 -21 q22 -21 22 -62 ZM299 477 q14 0 22.5 10 q8.5 10 8.5 28 q0 19 -8 29 q-8 10 -22 10 l-35 0 l0 -77 l34 0 Z" /><glyph glyph-name="section" unicode="§" d="M458 198 q90 -42 90 -135 q0 -82 -66 -122 q-66 -40 -175 -40 q-110 0 -179 43 q-69 43 -76 134 l126 4 q6 -40 39 -61 q33 -21 90 -21 q45 0 75 15 q30 15 30 42 q0 20 -19 34.5 q-19 14.5 -62 25.5 l-146 35 q-71 17 -108.5 56.5 q-37.5 39.5 -37.5 87.5 q0 43 28 74.5 q28 31.5 76 49.5 q-42 23 -63 57.5 q-21 34.5 -21 78.5 q0 80 63.5 118 q63.5 38 159.5 38 q99 0 168.5 -42 q69.5 -42 79.5 -128 l-127 -6 q-7 38 -40.5 57.5 q-33.5 19.5 -80.5 19.5 q-41 0 -64 -14 q-23 -14 -23 -39 q0 -42 83 -62 l126 -31 q73 -18 113.5 -55.5 q40.5 -37.5 40.5 -90.5 q0 -41 -26.5 -72.5 q-26.5 -31.5 -73.5 -50.5 ZM168 321 q0 -46 94 -70 l87 -20 q80 17 80 63 q0 47 -85 68 l-93 24 q-39 -10 -61 -26.5 q-22 -16.5 -22 -38.5 Z" /><glyph glyph-name="trademark" unicode="&#x2122;" d="M19 700 l342 0 l0 -62 l-132 0 l0 -307 l-79 0 l0 307 l-131 0 l0 62 ZM895 700 l0 -369 l-77 0 l0 322 l-105 -322 l-108 0 l-104 317 l0 -317 l-77 0 l0 369 l137 0 l99 -325 l98 325 l137 0 Z" /><glyph glyph-name="degree" unicode="°" d="M221 354 q-54 0 -98 21.5 q-44 21.5 -69.5 62.5 q-25.5 41 -25.5 95 q0 54 25.5 95 q25.5 41 69.5 62.5 q44 21.5 98 21.5 q54 0 98.5 -21.5 q44.5 -21.5 70 -62 q25.5 -40.5 25.5 -95.5 q0 -55 -25.5 -95.5 q-25.5 -40.5 -70 -62 q-44.5 -21.5 -98.5 -21.5 ZM221 444 q44 0 72 25 q28 25 28 64 q0 39 -28.5 64.5 q-28.5 25.5 -71.5 25.5 q-43 0 -71 -25.5 q-28 -25.5 -28 -64.5 q0 -39 28 -64 q28 -25 71 -25 Z" /><glyph glyph-name="uni2116" unicode="&#x2116;" d="M1260 333 q-79 0 -137.5 23.5 q-58.5 23.5 -90 66 q-31.5 42.5 -31.5 100.5 q0 87 70 138 q70 51 189 51 q119 0 188.5 -51 q69.5 -51 69.5 -138 q0 -58 -31.5 -100.5 q-31.5 -42.5 -90 -66 q-58.5 -23.5 -136.5 -23.5 ZM742 700 l150 0 l0 -700 l-266 0 l-385 617 l0 -617 l-150 0 l0 700 l266 0 l385 -617 l0 617 ZM1260 620 q-64 0 -98 -26.5 q-34 -26.5 -34 -70.5 q0 -44 34 -71 q34 -27 98 -27 q63 0 97 27 q34 27 34 71 q0 44 -34 70.5 q-34 26.5 -97 26.5 ZM1020 281 l479 0 l0 -99 l-479 0 l0 99 Z" /><glyph glyph-name="asciicircum" unicode="^" d="M339 451 l-101 196 l-102 -196 l-112 0 l147 249 l134 0 l146 -249 l-112 0 Z" /><glyph glyph-name="dagger" unicode="&#x2020;" d="M464 415 l-138 0 l0 -480 l-139 0 l0 480 l-138 0 l0 109 l138 0 l0 176 l139 0 l0 -176 l138 0 l0 -109 Z" /><glyph glyph-name="daggerdbl" unicode="&#x2021;" d="M330 415 l0 -185 l138 0 l0 -109 l-138 0 l0 -186 l-139 0 l0 186 l-138 0 l0 109 l138 0 l0 185 l-138 0 l0 109 l138 0 l0 176 l139 0 l0 -176 l138 0 l0 -109 l-138 0 Z" /><glyph glyph-name="acute" unicode="´" d="M148 735 l153 0 l-146 -147 l-115 0 l108 147 Z" /><glyph glyph-name="breve" unicode="&#x2d8;" d="M451 738 q-3 -68 -54.5 -110 q-51.5 -42 -150.5 -42 q-100 0 -151.5 42 q-51.5 42 -54.5 110 l86 0 q3 -30 31.5 -49 q28.5 -19 88.5 -19 q59 0 88 19 q29 19 32 49 l85 0 Z" /><glyph glyph-name="caron" unicode="&#x2c7;" d="M462 732 l-134 -147 l-155 0 l-133 147 l105 0 l106 -105 l105 105 l106 0 Z" /><glyph glyph-name="cedilla" unicode="¸" d="M211 -48 q44 0 79.5 -20 q35.5 -20 35.5 -62 q0 -46 -41.5 -67 q-41.5 -21 -100.5 -21 q-59 0 -97 20 q-38 20 -47 58 l67 3 q13 -28 64 -28 q29 0 45.5 9 q16.5 9 16.5 26 q0 17 -16 26 q-16 9 -40 9 q-30 0 -58 -11 l-56 23 l62 83 l62 0 l-45 -61 q37 13 69 13 Z" /><glyph glyph-name="circumflex" unicode="&#x2c6;" d="M356 588 l-105 106 l-106 -106 l-105 0 l133 147 l155 0 l134 -147 l-106 0 Z" /><glyph glyph-name="dieresis" unicode="¨" d="M40 716 l134 0 l0 -118 l-134 0 l0 118 ZM279 716 l134 0 l0 -118 l-134 0 l0 118 Z" /><glyph glyph-name="dotaccent" unicode="&#x2d9;" d="M40 729 l158 0 l0 -135 l-158 0 l0 135 Z" /><glyph glyph-name="grave" unicode="`" d="M186 588 l-146 147 l154 0 l107 -147 l-115 0 Z" /><glyph glyph-name="hungarumlaut" unicode="&#x2dd;" d="M141 735 l117 0 l-111 -147 l-107 0 l101 147 ZM352 735 l116 0 l-110 -147 l-107 0 l101 147 Z" /><glyph glyph-name="macron" unicode="¯" d="M40 705 l420 0 l0 -94 l-420 0 l0 94 Z" /><glyph glyph-name="ogonek" unicode="&#x2db;" d="M40 -121 q0 81 162 121 l84 0 q-71 -31 -110.5 -57 q-39.5 -26 -39.5 -56 q0 -16 12 -24.5 q12 -8.5 33 -8.5 q28 0 45 13 q17 13 23 33 l58 -15 q-12 -41 -50 -65 q-38 -24 -95 -24 q-55 0 -88.5 22 q-33.5 22 -33.5 61 Z" /><glyph glyph-name="ring" unicode="&#x2da;" d="M188 792 q62 0 105 -27.5 q43 -27.5 43 -77.5 q0 -49 -43 -77 q-43 -28 -105 -28 q-62 0 -105 28 q-43 28 -43 77 q0 50 43 77.5 q43 27.5 105 27.5 ZM188 640 q33 0 53.5 13 q20.5 13 20.5 34 q0 22 -20.5 34.5 q-20.5 12.5 -53.5 12.5 q-33 0 -53.5 -12.5 q-20.5 -12.5 -20.5 -34.5 q0 -21 20.5 -34 q20.5 -13 53.5 -13 Z" /><glyph glyph-name="tilde" unicode="&#x2dc;" d="M481 705 q0 -52 -27.5 -85.5 q-27.5 -33.5 -93.5 -33.5 q-34 0 -60.5 8 q-26.5 8 -58.5 23 q-23 11 -38.5 16 q-15.5 5 -32.5 5 q-23 0 -35.5 -11.5 q-12.5 -11.5 -12.5 -31.5 l-82 0 q0 52 27.5 85.5 q27.5 33.5 93.5 33.5 q34 0 61 -8 q27 -8 57 -23 q23 -11 38.5 -16 q15.5 -5 32.5 -5 q24 0 36.5 11.5 q12.5 11.5 12.5 31.5 l82 0 Z" /></font>
</defs>
</svg>
