<svg xmlns="http://www.w3.org/2000/svg" viewBox="0 0 512 512"><path d="M367.709 148.484l107.548 265.412 7.584-3.073 14.774 36.46 14.216-5.76-14.774-36.46 5.787-2.345 6.301-42.744-98.332-242.668a47.75 47.75 0 0 0 4.652-20.508c0-16.715-8.887-32.245-23.004-40.835V24.752C392.462 11.103 381.358 0 367.709 0c-13.648 0-24.752 11.103-24.752 24.752v31.211c-14.117 8.588-23.004 24.119-23.004 40.835 0 7.11 1.611 14.121 4.652 20.508l-60.822 150.1L.169 3.8V512h508.217L303.449 307.071l64.26-158.587zm125.654 213.384l-3.425 23.228-.988 6.703-5.239 2.122-101.908-251.5c.231-.072.456-.159.685-.233a46.06 46.06 0 0 0 2.61-.938c.388-.151.773-.306 1.156-.467.468-.197.931-.406 1.392-.618.374-.173.748-.345 1.119-.527.459-.226.911-.464 1.362-.705l.053-.028c.343-.183.685-.364 1.023-.555.451-.256.894-.525 1.336-.795.341-.208.684-.411 1.02-.628.449-.289.888-.595 1.327-.9.315-.218.634-.43.944-.655.457-.333.9-.684 1.345-1.033.278-.218.561-.427.834-.651.504-.414.992-.848 1.479-1.281.199-.178.406-.346.602-.527l.058-.051 93.215 230.039zM358.296 24.752c0-5.19 4.223-9.414 9.414-9.414s9.414 4.223 9.414 9.414v25.216c-.291-.058-.586-.1-.878-.153-.339-.061-.679-.124-1.021-.178-.504-.08-1.01-.145-1.517-.209-.321-.04-.641-.085-.963-.119a50.027 50.027 0 0 0-1.691-.138c-.272-.019-.542-.046-.815-.06-.839-.043-1.681-.068-2.528-.068s-1.689.025-2.528.068c-.273.014-.544.041-.816.06-.564.039-1.129.08-1.69.138-.323.034-.644.079-.966.12-.506.063-1.011.129-1.513.209-.343.054-.683.118-1.025.179-.291.051-.585.093-.875.151V24.752zm-4.397 42.715a32.13 32.13 0 0 1 13.811-3.086c1.207 0 2.401.064 3.583.194a32.032 32.032 0 0 1 10.228 2.892l.016.008c11.294 5.338 18.591 16.846 18.591 29.324a32.363 32.363 0 0 1-9.081 22.486l-.032.032a32.454 32.454 0 0 1-14.699 8.733 32.25 32.25 0 0 1-5.756 1.034c-2.079.18-3.624.179-5.696.001-10.47-.909-19.889-6.899-25.194-16.025a32.385 32.385 0 0 1-4.378-16.26c-.001-12.486 7.305-24 18.607-29.333zM335.27 131.83l.06.053c.189.174.388.335.58.507.495.442.99.881 1.501 1.302.271.222.552.43.827.646.447.351.893.703 1.351 1.037.311.227.632.44.948.659.438.304.874.607 1.322.896.338.218.684.422 1.027.632.44.268.879.536 1.328.789.338.191.682.373 1.026.556.02.01.041.02.06.032.447.238.895.474 1.35.698.374.184.754.359 1.132.534a41.167 41.167 0 0 0 2.55 1.084c.464.182.93.357 1.4.525.402.143.806.28 1.212.413.225.074.446.159.673.229l-101.91 251.499-5.239-2.122-.988-6.703-3.424-23.23L335.27 131.83zm-69.132 267.318l21.22 21.22H248.71l3.867-9.544 7.584 3.074 5.977-14.75zm43.323-64.375L454.1 479.408l17.255 17.254h-52.812v-18.319h-15.338v18.319h-29.487v-32.888H358.38v32.888h-29.487v-18.319h-15.338v18.319h-29.487v-32.888H268.73v32.888h-29.49v-18.319h-15.338v18.319h-29.129v-32.888h-15.338v32.888h-29.487v-18.319H134.61v18.319h-29.847v-32.888H89.422v32.888H59.934v-18.319H44.596v18.319H15.505v-30.169h18.108v-15.338H15.505v-29.488h32.676v-15.338H15.505V376.84h18.107v-15.338H15.506v-29.487h32.675v-15.338H15.506v-29.488h18.107v-15.338H15.506v-29.13h32.675v-15.338H15.506v-29.487h18.107v-15.338H15.506v-29.846h32.675v-15.338H15.506v-29.487h18.106V92.545H15.506V40.828L32.76 58.082l213.395 213.389 11.373 11.373-9.067 22.377-11.392-11.392L75.05 131.808l-10.845 10.846 166.596 166.597 11.406 11.406-9.478 23.39-11.426-11.426L76.325 187.644v248.062h149.62l-2.357 5.817 14.216 5.76 4.691-11.577h81.893l-40.246-40.246-11.749-11.749 9.478-23.39 11.947 11.947 75.559 75.559 10.845-10.846-80.018-80.018-12.077-12.077 9.067-22.378 12.267 12.265zm-76.887 67.945l5.788 2.345-6.202 15.305H91.664V224.674l134.809 134.809-.199.492 6.3 42.743z"/><path d="M367.709 81.666c-8.344 0-15.133 6.789-15.133 15.132 0 8.344 6.789 15.133 15.133 15.133s15.133-6.789 15.133-15.133c0-8.343-6.789-15.132-15.133-15.132zm-.205 15.132a.206.206 0 0 1 .412 0c-.001.228-.412.228-.412 0z"/></svg>