<svg xmlns="http://www.w3.org/2000/svg" viewBox="0 0 68.8 62"><path d="M41.6 24.7v19.6h-5.3V24.7h-6.8v-4.3h18.9v4.3h-6.8zm20.2 20c-2 0-3.7-.3-5.3-.9-1.6-.6-2.9-1.4-4-2.4-1.1-1.1-2-2.3-2.6-3.9-.6-1.5-.9-3.2-.9-5.1 0-1.9.3-3.6.9-5.1.6-1.5 1.5-2.8 2.6-3.9s2.4-1.9 3.9-2.4c1.5-.6 3.2-.9 5-.9 1.7 0 3.1.1 4.2.4 1.1.3 2 .6 2.5.9l-.7 4.2c-.6-.3-1.4-.6-2.4-.8-.9-.2-2-.4-3.2-.4-2.3 0-4.1.7-5.4 2-1.3 1.3-1.9 3.3-1.9 5.9 0 5.3 2.5 8 7.5 8 1 0 1.9-.1 2.7-.4.8-.2 1.6-.6 2.3-1l1.3 4c-.6.4-1.4.8-2.5 1.1-1.1.5-2.4.7-4 .7z" fill="#FFF"/><path d="M8.9 6.2h1.9c.4 0 .7-.3.7-.7V.7c0-.4-.3-.7-.7-.7H8.9c-.4 0-.8.3-.8.7v4.7c0 .4.4.8.8.8zm4.2 0H15c.4 0 .7-.3.7-.7V.7c0-.4-.4-.7-.7-.7h-1.9c-.4 0-.7.3-.7.7v4.7c-.1.4.3.8.7.8zm9.8 14s-2.1 3.9-6.7 4.6h.3c3.1 0 5.9 2.5 5.9 5.3 0 3.1-2.6 6-5.4 6H8.1v7.5c0 .4.3.7.7.7h1.9c.4 0 .7-.3.7-.7v-1.1h.9v1.1c0 .4.3.7.7.7h2c.4 0 .7-.3.7-.7v-1.1H17c6.4 0 11.8-5.6 11.8-12.3 0-4.2-2.4-7.9-5.9-10z" fill="#F7A817"/><path fill="#FFF" d="M13.6 1.7h-10c-1 0-1.8.8-1.8 1.8V29h-.5c-.7 0-1.2.6-1.2 1.2v.9c0 .7.6 1.2 1.2 1.2h.5v8.4c0 1 .8 1.8 1.8 1.8h4.5v-10h.2c.7 0 1.2-.6 1.2-1.2v-.9c0-.7-.6-1.2-1.2-1.2h-.2V25h8.1c4.6-.8 6.7-4.6 6.7-4.6 1.5-2 2.4-4.5 2.4-7.1.1-6.6-5.1-11.6-11.7-11.6zm.7 16.8H8.1V8h5.4c3.1 0 5.4 2.2 5.4 5.1.1 2.8-2 5-4.6 5.4zm18.9 43.3c-.4 0-.8 0-1.2-.1-.4-.1-.7-.2-1.1-.3l-.9-.3c-.3-.1-.5-.3-.6-.4l.2-1.4c.2.1.4.3.6.4.2.1.5.3.8.4.3.1.6.2 1 .3.4.1.7.1 1.1.1.8 0 1.5-.2 1.9-.5.5-.3.7-.8.7-1.4 0-.3-.1-.6-.2-.8-.1-.2-.3-.4-.5-.5-.2-.1-.5-.3-.8-.4-.3-.1-.7-.2-1.2-.3-.4-.1-.9-.2-1.3-.4-.4-.1-.8-.3-1.2-.6-.3-.2-.6-.5-.8-.9-.2-.4-.3-.8-.3-1.4 0-1 .3-1.7 1-2.3.7-.5 1.7-.8 3-.8.4 0 .8 0 1.1.1.3 0 .6.1.9.2.3.1.5.1.7.2.2.1.3.2.5.2l-.2 1.4c-.4-.2-.8-.4-1.3-.6-.5-.1-1.1-.2-1.7-.2-.5 0-.9 0-1.2.1-.3.1-.6.2-.8.3-.2.1-.3.3-.4.5-.1.2-.1.4-.1.7 0 .3.1.6.2.8.1.2.3.4.6.5.2.1.5.3.8.4.3.1.6.2 1 .3.4.1.9.2 1.3.4.5.1.9.3 1.2.6.4.2.7.6.9.9.2.4.4.9.4 1.5s-.1 1.1-.4 1.5c-.2.4-.5.7-.9 1-.4.3-.8.4-1.3.6-.4.1-.9.2-1.5.2zM44 60.3c-.1.2-.3.4-.4.5-.2.2-.4.3-.6.5-.2.1-.5.3-.8.3-.3.1-.6.1-1 .1-.7 0-1.3-.2-1.8-.6-.4-.4-.7-1-.7-1.8 0-1.8 1.3-2.6 3.9-2.6h1.2v-.6c0-.6-.1-1-.4-1.2-.3-.2-.8-.4-1.5-.4-.5 0-1 .1-1.4.2-.4.1-.8.3-1.1.5l-.3-1.1c.3-.2.7-.3 1.2-.5s1.1-.2 1.7-.2c1 0 1.8.2 2.4.6.5.4.8 1.1.8 2v5.8h-1.3c0-.1 0-.4-.1-.6.2-.5.2-.7.2-.9zm-2.5.3c.3 0 .6 0 .8-.1.2-.1.5-.2.7-.3.2-.1.4-.3.5-.4.2-.2.3-.3.4-.5v-1.4h-1.1c-1 0-1.7.1-2.1.4-.4.3-.6.6-.6 1.1 0 .4.1.7.3.9.3.1.7.3 1.1.3zm9.9-6c-.6 0-1.1.1-1.5.4-.4.3-.7.7-.9 1.1v5.5h-1.4v-8.1h1.3V55c.2-.5.6-.9 1-1.2.5-.3 1.1-.5 1.8-.5.8 0 1.4.2 1.9.6.5.4.7 1.1.7 1.9v5.7H53v-5.6c0-.6-.1-1-.4-1.2-.3 0-.7-.1-1.2-.1zm8.8 7.1c-.3.1-.6.1-.9.1-.4 0-.7-.1-1-.2-.3-.1-.5-.3-.7-.5-.2-.2-.3-.4-.4-.7-.1-.2-.1-.5-.1-.8v-5.1h-1v-1.2h1v-1.7h1.4v1.7h2.3v1.2h-2.3v4.9c0 .3.1.6.3.8.2.2.4.2.8.2.2 0 .4 0 .6-.1.2-.1.4-.1.6-.2l.2 1.2c-.2.2-.5.3-.8.4zm7.2-1.4c-.1.2-.3.4-.4.5-.2.2-.4.3-.6.5-.2.1-.5.3-.8.3-.3.1-.6.1-1 .1-.7 0-1.3-.2-1.8-.6-.4-.4-.7-1-.7-1.8 0-1.8 1.3-2.6 3.9-2.6h1.2v-.6c0-.6-.1-1-.4-1.2-.3-.2-.8-.4-1.5-.4-.5 0-1 .1-1.4.2-.4.1-.8.3-1.1.5l-.3-1.1c.3-.2.7-.3 1.2-.5s1.1-.2 1.7-.2c1 0 1.8.2 2.4.6.5.4.8 1.1.8 2v5.8h-1.3c0-.1 0-.4-.1-.6.2-.5.2-.7.2-.9zm-2.4.3c.3 0 .6 0 .8-.1.2-.1.5-.2.7-.3.2-.1.4-.3.5-.4.2-.2.3-.3.4-.5v-1.4h-1.1c-1 0-1.7.1-2.1.4-.4.3-.6.6-.6 1.1 0 .4.1.7.3.9.2.1.6.3 1.1.3z"/></svg>