<svg xmlns="http://www.w3.org/2000/svg" viewBox="0 0 512.001 512.001"><path d="M375.069 141.931c-1.859-1.86-4.439-2.93-7.069-2.93s-5.21 1.07-7.07 2.93a10.058 10.058 0 0 0-2.93 7.07c0 2.63 1.069 5.21 2.93 7.07 1.861 1.86 4.44 2.93 7.07 2.93s5.21-1.07 7.069-2.93c1.86-1.86 2.931-4.44 2.931-7.07s-1.07-5.21-2.931-7.07zM150 282.001H70c-5.522 0-10 4.477-10 10v80c0 5.523 4.478 10 10 10h80c5.522 0 10-4.477 10-10v-80c0-5.523-4.477-10-10-10zm-10 80H80v-60h60v60zm365.827-152.239a10 10 0 0 0-10.898 2.167L393.031 313.827l-.005.005a.018.018 0 0 0-.004.005L274.238 432.621l-.005.005-.005.005-62.299 62.299A10 10 0 1 0 219 512.001h283c5.522 0 10-4.477 10-10v-283a10 10 0 0 0-6.173-9.239zM492 492.001H243.143l38.161-38.161 9.546 9.546c1.953 1.953 4.512 2.929 7.071 2.929s5.118-.976 7.071-2.929c3.905-3.905 3.905-10.237 0-14.143l-9.546-9.546 25.456-25.456 9.545 9.545c1.953 1.953 4.512 2.929 7.071 2.929s5.118-.977 7.071-2.929c3.905-3.905 3.905-10.237 0-14.142l-9.546-9.546 25.456-25.456 9.546 9.546c1.953 1.953 4.512 2.929 7.071 2.929s5.118-.976 7.071-2.929c3.905-3.905 3.905-10.237 0-14.143l-9.546-9.546 25.455-25.455 9.546 9.546c1.953 1.953 4.512 2.929 7.071 2.929s5.118-.976 7.071-2.929c3.905-3.905 3.905-10.237 0-14.143l-9.546-9.546 25.456-25.456 9.545 9.545a9.968 9.968 0 0 0 7.071 2.929 9.972 9.972 0 0 0 7.071-2.929c3.905-3.905 3.905-10.237 0-14.142l-9.546-9.546L492 243.143v248.858z"/><path d="M455.827 330.473a10 10 0 0 0-10.898 2.167L332.64 444.93a10.002 10.002 0 0 0 7.071 17.071H452c5.522 0 10-4.477 10-10V339.712a10 10 0 0 0-6.173-9.239zM442 442.001h-78.146L442 363.854v78.147zm21.06-292.74a10 10 0 0 0-10.51-2.319l-68.281 25.005a10.011 10.011 0 0 0-3.633 2.319l-19.199 19.199L236.071 68.098a10.003 10.003 0 0 0-14.142 0L71.026 219.001H34.143L229 24.143l106.929 106.929c3.906 3.905 10.236 3.905 14.143 0 3.905-3.905 3.905-10.237 0-14.143l-114-114c-3.906-3.905-10.236-3.905-14.143 0l-219 219A9.999 9.999 0 1 0 10 239.001h10v263c0 5.523 4.478 10 10 10h158.986c5.522 0 10-4.477 10-10s-4.478-10-10-10H40v-253h35.168c2.652 0 5.195-1.054 7.071-2.929L229 89.311l118.294 118.295L199 355.901v-89.9h70c5.522 0 10-4.477 10-10s-4.478-10-10-10h-80c-5.522 0-10 4.477-10 10v116c0 1.167.21 2.281.577 3.322l-8.959 8.959c-15.83 15.83-15.83 41.588 0 57.418 7.916 7.916 18.311 11.874 28.709 11.873 10.396 0 20.795-3.958 28.709-11.872l84.332-84.332c3.905-3.905 3.905-10.237 0-14.142-3.905-3.905-10.235-3.905-14.143 0l-63.892 63.892-29.133-29.133 182.707-182.707 29.133 29.133-69.815 69.816c-3.905 3.905-3.905 10.237 0 14.142 3.906 3.905 10.236 3.905 14.143 0l76.686-76.686a10.005 10.005 0 0 0 2.318-3.632l25.006-68.281a10 10 0 0 0-2.318-10.51zM220.192 421.26l-6.298 6.298c-3.891 3.891-9.063 6.034-14.566 6.034s-10.676-2.143-14.566-6.034c-3.892-3.891-6.034-9.064-6.034-14.566s2.141-10.676 6.033-14.567l6.298-6.298 29.133 29.133zm206.894-215.089l-20.938-20.938 33.038-12.099-12.1 33.037z"/><path d="M336.689 318.901c-1.859-1.86-4.439-2.93-7.069-2.93s-5.21 1.07-7.07 2.93a10.093 10.093 0 0 0-2.93 7.07c0 2.64 1.069 5.21 2.93 7.08 1.86 1.86 4.43 2.92 7.07 2.92 2.63 0 5.21-1.06 7.069-2.92a10.118 10.118 0 0 0 2.931-7.08c0-2.63-1.07-5.2-2.931-7.07zM229 151.001c-20.953 0-38 17.047-38 38s17.047 38 38 38 38-17.047 38-38-17.047-38-38-38zm0 56c-9.925 0-18-8.074-18-18 0-9.925 8.075-18 18-18s18 8.075 18 18-8.075 18-18 18z"/></svg>