<svg height="427pt" viewBox="-2 0 427 427.534" width="427pt" xmlns="http://www.w3.org/2000/svg"><path d="M212.152 427.535a6.815 6.815 0 0 1-4.062-1.344l-205.063-152a6.83 6.83 0 0 1-2.757-5.613 6.8 6.8 0 0 1 2.964-5.504l24.133-16.535a6.838 6.838 0 0 1 9.492 1.774 6.832 6.832 0 0 1-1.777 9.492l-16.23 11.12 193.3 143.282 193.465-143.398-15.988-11.422c-3.063-2.196-3.777-6.457-1.586-9.52 2.191-3.066 6.46-3.781 9.52-1.59l23.62 16.875a6.827 6.827 0 0 1 .098 11.04L216.215 426.187a6.772 6.772 0 0 1-4.063 1.347zm0 0"/><path d="M212.152 393.121a6.815 6.815 0 0 1-4.062-1.344L3.027 239.773a6.842 6.842 0 0 1-2.757-5.617 6.806 6.806 0 0 1 2.964-5.504l22.36-15.312a6.84 6.84 0 0 1 9.492 1.773 6.837 6.837 0 0 1-1.773 9.496l-14.461 9.899 193.3 143.285 193.47-143.406-13.759-9.828a6.824 6.824 0 0 1-1.59-9.52c2.192-3.062 6.465-3.777 9.524-1.586l21.394 15.281a6.816 6.816 0 0 1 2.86 5.493 6.837 6.837 0 0 1-2.762 5.546L216.223 391.777a6.834 6.834 0 0 1-4.07 1.344zM342.813 153.55a6.76 6.76 0 0 1-3.961-1.273l-68.532-48.945a6.824 6.824 0 1 1 7.934-11.105l68.531 48.945a6.824 6.824 0 0 1-3.972 12.379zm0 0"/><path d="M142.34 306.953a6.802 6.802 0 0 1-4.059-1.34l-67.304-49.886c-3.028-2.247-3.66-6.52-1.422-9.555a6.84 6.84 0 0 1 9.554-1.418l67.309 49.887c3.027 2.246 3.656 6.52 1.418 9.55a6.828 6.828 0 0 1-5.496 2.762zm29.433-123.906a6.767 6.767 0 0 1-1.82-.246l-92.71-25.64a6.812 6.812 0 0 1-4.911-5.454 6.837 6.837 0 0 1 2.871-6.762L212.605 50.84a6.821 6.821 0 0 1 7.825.082l57.828 41.305a6.825 6.825 0 0 1 .18 10.976l-102.512 78.438a6.872 6.872 0 0 1-4.153 1.406zm-76.738-35.133l75.29 20.82 92.488-70.765-46.43-33.16zm0 0"/><path d="M75.04 257.07a6.812 6.812 0 0 1-4.063-1.343l-67.95-50.368a6.84 6.84 0 0 1-2.757-5.613 6.808 6.808 0 0 1 2.964-5.508L75.2 144.945c3.121-2.132 7.36-1.32 9.492 1.778a6.832 6.832 0 0 1-1.773 9.492l-64.066 43.879 56.125 41.601 92.652-70.894c2.988-2.29 7.289-1.723 9.57 1.273a6.822 6.822 0 0 1-1.273 9.567L79.19 255.66a6.802 6.802 0 0 1-4.152 1.41zM212.152 358.7a6.807 6.807 0 0 1-4.062-1.34l-69.809-51.747a6.85 6.85 0 0 1-2.761-5.433 6.825 6.825 0 0 1 2.68-5.477l97.21-74.379a6.782 6.782 0 0 1 6.617-.937 6.816 6.816 0 0 1 4.246 5.16l16.653 93.473a6.828 6.828 0 0 1-2.653 6.687l-44.05 32.652a6.83 6.83 0 0 1-4.07 1.34zm-58.457-58.66l58.457 43.331 36.598-27.117-13.95-78.277zm0 0"/><path d="M256.215 326.047a6.794 6.794 0 0 1-5.492-2.762 6.832 6.832 0 0 1 1.418-9.55l153.48-113.762-62.656-44.758-99.262 75.953c-2.98 2.293-7.281 1.727-9.566-1.273a6.819 6.819 0 0 1 1.273-9.567l103.266-79.02a6.804 6.804 0 0 1 8.113-.132l74.402 53.144a6.827 6.827 0 0 1 .098 11.039L260.273 324.707a6.802 6.802 0 0 1-4.058 1.34zM176.676 50.895a6.819 6.819 0 0 1-4.828-2L150.23 27.273a6.82 6.82 0 0 1 0-9.652 6.82 6.82 0 0 1 9.653 0l21.62 21.617a6.832 6.832 0 0 1 0 9.657 6.819 6.819 0 0 1-4.827 2zm79.566 0a6.812 6.812 0 0 1-4.828-2 6.832 6.832 0 0 1 0-9.657l21.621-21.617a6.82 6.82 0 0 1 9.653 0 6.828 6.828 0 0 1 0 9.652l-21.622 21.622a6.803 6.803 0 0 1-4.824 2zm-45.668-9.935a6.825 6.825 0 0 1-6.828-6.827V6.828A6.825 6.825 0 0 1 210.574 0a6.824 6.824 0 0 1 6.824 6.828v27.305a6.82 6.82 0 0 1-6.824 6.828zm0 0"/></svg>