<svg xmlns="http://www.w3.org/2000/svg" viewBox="0 0 108 110.2"><path fill="none" d="M29 10.5c-3 0-5.1 1.5-5.1 3.5 0 1.6 1.3 4 5 6.2 2.8 1.7 11.2 7.1 19.4 7.7-3.1-5.7-12.2-17.4-19.3-17.4zm45.4 0c-7 0-16.1 11.7-19.2 17.4 12.2-.9 22-8.3 23.8-12.1.6-1.2.6-2.2.2-3.1-.5-1-2.1-2.2-4.8-2.2z"/><path fill="none" d="M29 10.5c-3 0-5.1 1.5-5.1 3.5 0 1.6 1.3 4 5 6.2 2.8 1.7 11.2 7.1 19.4 7.7-3.1-5.7-12.2-17.4-19.3-17.4z"/><linearGradient id="a" gradientUnits="userSpaceOnUse" x1="13.478" y1="17.5" x2="89.933" y2="17.5"><stop offset="0" stop-color="#9195c9"/><stop offset="1" stop-color="#c0aad2"/></linearGradient><path fill="url(#a)" d="M89.9 13.2c0-2.1-.4-4.2-1.3-6.1-2.1-4.4-6.6-7-11.9-7-12.1 0-20.8 13.1-25 21.4C47.5 13.2 38.9.2 26.7.2 19 .2 13.4 5.7 13.4 13.1c0 13.2 12.6 21.8 37.8 21.8 25.4 0 38.7-11.1 38.7-21.7zm-61 7c-3.7-2.2-5-4.7-5-6.2 0-2 2.1-3.5 5.1-3.5 7.1 0 16.2 11.7 19.3 17.4-8.2-.6-16.6-6-19.4-7.7zM79 15.9c-1.8 3.7-11.6 11.1-23.8 12 3.1-5.7 12.2-17.4 19.2-17.4 2.7 0 4.3 1.2 4.8 2.3.5.9.4 1.9-.2 3.1z"/><linearGradient id="b" gradientUnits="userSpaceOnUse" x1="7.667" y1="88.524" x2="100.333" y2="88.524"><stop offset="0" stop-color="#9195c9"/><stop offset="1" stop-color="#c0aad2"/></linearGradient><path fill="url(#b)" d="M7.7 98.3c0 6.6 5.4 12 12 12h68.7c6.6 0 12-5.4 12-12V66.8H7.7v31.5z"/><linearGradient id="c" gradientUnits="userSpaceOnUse" x1=".059" y1="48.791" x2="107.941" y2="48.791"><stop offset="0" stop-color="#9195c9"/><stop offset="1" stop-color="#c0aad2"/></linearGradient><path fill="url(#c)" d="M96.9 34.9H11.1C5 34.9.1 39.9.1 46v5.7c0 6.1 5 11.1 11.1 11.1h85.7c6.1 0 11.1-5 11.1-11.1V46c-.1-6.1-5-11.1-11.1-11.1z"/></svg>