<svg xmlns="http://www.w3.org/2000/svg" viewBox="0 0 126 84.2"><path fill="none" d="M110.9 58.2c-.9 0-1.6.7-1.6 1.6V65h-5.2c-.9 0-1.6.7-1.6 1.6 0 .9.7 1.6 1.6 1.6h6.9c.9 0 1.6-.7 1.6-1.6v-6.9c0-.8-.8-1.5-1.7-1.5zM96.4 43.6h-6.9c-.9 0-1.6.7-1.6 1.6v6.9c0 .9.7 1.6 1.6 1.6.9 0 1.6-.7 1.6-1.6v-5.2h5.2c.9 0 1.6-.7 1.6-1.6.1-1-.6-1.7-1.5-1.7zm14.5 0H104c-.9 0-1.6.7-1.6 1.6 0 .9.7 1.6 1.6 1.6h5.2V52c0 .9.7 1.6 1.6 1.6.9 0 1.6-.7 1.6-1.6v-6.9c.2-.8-.6-1.5-1.5-1.5zM81.8 14.5H60.4c-.9 0-1.6.7-1.6 1.6v21.4c0 .9.7 1.6 1.6 1.6h21.4c.9 0 1.6-.7 1.6-1.6V16.1c0-.9-.7-1.6-1.6-1.6zm-1.6 3.8v17.6H62V17.8h18.1v.5zM96.4 65h-5.2v-5.2c0-.9-.7-1.6-1.6-1.6-.9 0-1.6.7-1.6 1.6v6.9c0 .9.7 1.6 1.6 1.6h6.9c.9 0 1.6-.7 1.6-1.6-.1-1-.8-1.7-1.7-1.7zm14.5-50.5H89.5c-.9 0-1.6.7-1.6 1.6v21.4c0 .9.7 1.6 1.6 1.6h21.4c.9 0 1.6-.7 1.6-1.6V16.1c.1-.9-.7-1.6-1.6-1.6zm-1.6 3.8v17.6H91.2V17.8h18.1v.5zM81.8 43.6H60.4c-.9 0-1.6.7-1.6 1.6v21.4c0 .9.7 1.6 1.6 1.6h21.4c.9 0 1.6-.7 1.6-1.6V45.2c0-.9-.7-1.6-1.6-1.6zm-1.6 3.8V65H62V46.9h18.1v.5z"/><path fill="none" d="M75.9 20.5h-9.5c-.9 0-1.6.7-1.6 1.6v9.5c0 .9.7 1.6 1.6 1.6h9.5c.9 0 1.6-.7 1.6-1.6v-9.5c0-.9-.7-1.6-1.6-1.6zm-1.6 3.7V30H68v-6.2h6.2v.4zm30.7-3.7h-9.5c-.9 0-1.6.7-1.6 1.6v9.5c0 .9.7 1.6 1.6 1.6h9.5c.9 0 1.6-.7 1.6-1.6v-9.5c0-.9-.7-1.6-1.6-1.6zm-1.6 3.7V30h-6.2v-6.2h6.2v.4zM75.9 49.6h-9.5c-.9 0-1.6.7-1.6 1.6v9.5c0 .9.7 1.6 1.6 1.6h9.5c.9 0 1.6-.7 1.6-1.6v-9.5c0-.9-.7-1.6-1.6-1.6zm-1.6 3.7V59H68v-6.2h6.2v.5z"/><linearGradient id="a" gradientUnits="userSpaceOnUse" x1="12.152" y1="91.608" x2="130.374" y2="16.719"><stop offset="0" stop-color="#9195c9"/><stop offset="1" stop-color="#c0aad2"/></linearGradient><path fill="url(#a)" d="M71.1 49.5h-.6v6.3h6.3v-6.3h-.5z"/><linearGradient id="b" gradientUnits="userSpaceOnUse" x1="-1.077" y1="70.724" x2="117.145" y2="-4.165"><stop offset="0" stop-color="#9195c9"/><stop offset="1" stop-color="#c0aad2"/></linearGradient><path fill="url(#b)" d="M65.3 14.2h-.5v18.1h18.1V14.2H65.3zM80.2 28c0 .9-.7 1.6-1.6 1.6h-9.5c-.9 0-1.6-.7-1.6-1.6v-9.5c0-.9.7-1.6 1.6-1.6h9.5c.9 0 1.6.7 1.6 1.6V28z"/><linearGradient id="c" gradientUnits="userSpaceOnUse" x1="12.081" y1="91.495" x2="130.303" y2="16.606"><stop offset="0" stop-color="#9195c9"/><stop offset="1" stop-color="#c0aad2"/></linearGradient><path fill="url(#c)" d="M65.3 43.3h-.5v18.1h18.1V43.3H65.3zm14.9 13.8c0 .9-.7 1.6-1.6 1.6h-9.5c-.9 0-1.6-.7-1.6-1.6v-9.5c0-.9.7-1.6 1.6-1.6h9.5c.9 0 1.6.7 1.6 1.6v9.5z"/><linearGradient id="d" gradientUnits="userSpaceOnUse" x1="-1.077" y1="70.724" x2="117.145" y2="-4.165"><stop offset="0" stop-color="#9195c9"/><stop offset="1" stop-color="#c0aad2"/></linearGradient><path fill="url(#d)" d="M71.2 20.1h-.5v6.3H77v-6.3h-.6z"/><linearGradient id="e" gradientUnits="userSpaceOnUse" x1="4.323" y1="79.249" x2="122.546" y2="4.36"><stop offset="0" stop-color="#9195c9"/><stop offset="1" stop-color="#c0aad2"/></linearGradient><path fill="url(#e)" d="M108.8 0H17.2C7.7 0 0 7.7 0 17.2V67c0 9.4 7.7 17.2 17.2 17.2h91.7c9.4 0 17.2-7.7 17.2-17.2V17.2C126 7.7 118.3 0 108.8 0zM22.3 26.8c-1.1.9-2.7 1.3-4.8 1.3h-6.7V10.9h5.9c2.1 0 3.8.4 5 1.2 1.2.8 1.8 2 1.8 3.5 0 .8-.2 1.5-.6 2.2-.4.6-1 1.1-1.8 1.4 1 .2 1.8.7 2.2 1.4.5.7.7 1.5.7 2.4 0 1.7-.6 3-1.7 3.8zm13.3-10H32v11.3h-3.2V16.8h-3.6v-2.5h10.4v2.5zm11.7 2.4h-3.1c0-.9-.2-1.6-.6-2-.4-.4-1-.7-1.8-.7-.7 0-1.3.3-1.7.9-.4.6-.6 1.3-.6 2.3v2.9c0 1 .2 1.7.7 2.3.5.6 1.1.9 1.9.9.8 0 1.3-.2 1.6-.6.3-.4.5-1.1.5-2h3.1v.1c-.1 1.6-.5 2.8-1.4 3.7-.9.9-2.2 1.3-3.9 1.3-1.7 0-3.1-.5-4.2-1.6-1.1-1-1.6-2.4-1.6-4.1v-2.9c0-1.7.5-3 1.5-4.1 1-1.1 2.4-1.6 4-1.6 1.7 0 3.1.4 4 1.3 1 1 1.5 2.3 1.6 3.9zm38.8 43.9c0 .9-.7 1.6-1.6 1.6H63.1c-.9 0-1.6-.7-1.6-1.6V41.7c0-.9.7-1.6 1.6-1.6h21.4c.9 0 1.6.7 1.6 1.6v21.4zm0-29.1c0 .9-.7 1.6-1.6 1.6H63.1c-.9 0-1.6-.7-1.6-1.6V12.6c0-.9.7-1.6 1.6-1.6h21.4c.9 0 1.6.7 1.6 1.6V34zm13 30.7h-6.9c-.9 0-1.6-.7-1.6-1.6v-6.9c0-.9.7-1.6 1.6-1.6.9 0 1.6.7 1.6 1.6v5.2H99c.9 0 1.6.7 1.6 1.6.1 1-.6 1.7-1.5 1.7zm0-21.4h-5.2v5.2c0 .9-.7 1.6-1.6 1.6-.9 0-1.6-.7-1.6-1.6v-6.9c0-.9.7-1.6 1.6-1.6h6.9c.9 0 1.6.7 1.6 1.6-.1 1-.8 1.7-1.7 1.7zm16.1 19.8c0 .9-.7 1.6-1.6 1.6h-6.9c-.9 0-1.6-.7-1.6-1.6 0-.9.7-1.6 1.6-1.6h5.2v-5.2c0-.9.7-1.6 1.6-1.6.9 0 1.6.7 1.6 1.6v6.8zm0-14.6c0 .9-.7 1.6-1.6 1.6-.9 0-1.6-.7-1.6-1.6v-5.2h-5.2c-.9 0-1.6-.7-1.6-1.6 0-.9.7-1.6 1.6-1.6h6.9c.9 0 1.6.7 1.6 1.6v6.8zm0-14.5c0 .9-.7 1.6-1.6 1.6H92.2c-.9 0-1.6-.7-1.6-1.6V12.6c0-.9.7-1.6 1.6-1.6h21.4c.9 0 1.6.7 1.6 1.6V34z"/><linearGradient id="f" gradientUnits="userSpaceOnUse" x1="-20.822" y1="39.554" x2="97.4" y2="-35.335"><stop offset="0" stop-color="#9195c9"/><stop offset="1" stop-color="#c0aad2"/></linearGradient><path fill="url(#f)" d="M18.7 17.6c.4-.3.7-.8.7-1.5s-.2-1.3-.7-1.6c-.5-.3-1.2-.5-2.1-.5h-1.9v4.1h2c.9 0 1.6-.2 2-.5z"/><linearGradient id="g" gradientUnits="userSpaceOnUse" x1="-17.629" y1="44.595" x2="100.593" y2="-30.294"><stop offset="0" stop-color="#9195c9"/><stop offset="1" stop-color="#c0aad2"/></linearGradient><path fill="url(#g)" d="M17.7 20.7h-3V25h2.7c.8 0 1.5-.2 1.9-.5.4-.3.6-.8.6-1.5s-.2-1.3-.5-1.7-.9-.6-1.7-.6z"/><linearGradient id="h" gradientUnits="userSpaceOnUse" x1="7.258" y1="83.882" x2="125.48" y2="8.993"><stop offset="0" stop-color="#9195c9"/><stop offset="1" stop-color="#c0aad2"/></linearGradient><path fill="url(#h)" d="M94.4 14.2h-.5v18.1H112V14.2H94.4zM109.3 28c0 .9-.7 1.6-1.6 1.6h-9.5c-.9 0-1.6-.7-1.6-1.6v-9.5c0-.9.7-1.6 1.6-1.6h9.5c.9 0 1.6.7 1.6 1.6V28z"/><linearGradient id="i" gradientUnits="userSpaceOnUse" x1="7.258" y1="83.882" x2="125.48" y2="8.993"><stop offset="0" stop-color="#9195c9"/><stop offset="1" stop-color="#c0aad2"/></linearGradient><path fill="url(#i)" d="M100.3 20.1h-.5v6.3h6.3v-6.3h-.6z"/></svg>