<svg xmlns="http://www.w3.org/2000/svg" viewBox="0 0 90.2 134"><linearGradient id="a" gradientUnits="userSpaceOnUse" x1="18.424" y1="90.758" x2="90.16" y2="90.758"><stop offset="0" stop-color="#9195c9"/><stop offset="1" stop-color="#c0aad2"/></linearGradient><path fill="url(#a)" d="M90.2 85.9c0-1.7-.7-3.3-1.9-4.5-1.2-1.2-2.8-1.9-4.5-1.9-1.7 0-3.3.7-4.5 1.9-1.2 1.2-1.9 2.8-1.9 4.5h-1.9v-7.6c0-3.5-2.9-6.4-6.4-6.4-3.5 0-6.4 2.9-6.4 6.4v7.6h-1.9V71.6c0-1.7-.7-3.3-1.9-4.5-1.2-1.2-2.8-1.9-4.5-1.9-3.5 0-6.4 2.9-6.4 6.4v14.3h-1.9l.1-31.9c0-3.5-2.9-6.4-6.4-6.4-3.5 0-6.4 2.9-6.4 6.4l-.1 31.9-.1 19.9h-1.9V89c0-3.5-2.9-6.4-6.4-6.4-3.5 0-6.4 2.9-6.4 6.4v21.6c0 12.9 10.5 23.5 23.4 23.5l24.8.1c12.9 0 23.5-10.5 23.5-23.4V85.9z"/><linearGradient id="b" gradientUnits="userSpaceOnUse" y1="23.569" x2="81.778" y2="23.569"><stop offset="0" stop-color="#9195c9"/><stop offset="1" stop-color="#c0aad2"/></linearGradient><path fill="url(#b)" d="M40.9 12.5c15.6 0 28.4 12.7 28.4 28.4 0 3.5 2.8 6.3 6.3 6.3s6.3-2.8 6.3-6.3C81.8 18.3 63.4 0 40.9 0 18.3 0 0 18.3 0 40.9c0 3.5 2.8 6.3 6.3 6.3s6.3-2.8 6.3-6.3c-.1-15.7 12.6-28.4 28.3-28.4z"/><linearGradient id="c" gradientUnits="userSpaceOnUse" x1="21.274" y1="35.833" x2="60.504" y2="35.833"><stop offset="0" stop-color="#9195c9"/><stop offset="1" stop-color="#c0aad2"/></linearGradient><path fill="url(#c)" d="M21.3 44.1c0 1.7 1.3 3 3 3s3-1.3 3-3c0-7.5 6.1-13.6 13.6-13.6s13.6 6.1 13.6 13.6c0 1.7 1.3 3 3 3s3-1.3 3-3c0-10.8-8.8-19.6-19.6-19.6s-19.6 8.8-19.6 19.6z"/></svg>