<svg xmlns="http://www.w3.org/2000/svg" viewBox="0 0 102 106.1"><path fill="none" d="M-15.4 54.3h-11.9v9.3h.4c1.5 0 2.7 1.2 2.7 2.7v1.9c0 1.5-1.2 2.7-2.7 2.7h-.4v8.2h19.5c6.3 0 11.9-6.3 11.9-13.1 0-6.3-6-11.7-12.9-11.7h-6.6zm17-5.7c0 .1-.1.1 0 0-.1.1 0 .1 0 0zm-5.1-20c0-6.4-5.1-11.2-11.9-11.2h-11.9v23h13.4c5.8-.8 10.4-5.8 10.4-11.8zm6.6 18.5c-.4.5-.9 1-1.5 1.6.6-.6 1.1-1.2 1.5-1.6z"/><linearGradient id="a" gradientUnits="userSpaceOnUse" x1="43.912" y1="60.181" x2="62.163" y2="60.181"><stop offset="0" stop-color="#9195ca"/><stop offset="1" stop-color="#c0abd3"/></linearGradient><path fill="url(#a)" d="M54.7 53H44v5.4h.2c.9 0 1.6.7 1.6 1.6v1c0 .9-.7 1.6-1.6 1.6H44v4.8h11.3c3.6 0 6.9-3.6 6.9-7.6 0-3.7-3.5-6.8-7.5-6.8z"/><linearGradient id="b" gradientUnits="userSpaceOnUse" x1="43.912" y1="38.192" x2="57.771" y2="38.192"><stop offset="0" stop-color="#9195ca"/><stop offset="1" stop-color="#c0abd3"/></linearGradient><path fill="url(#b)" d="M57.8 38c0-3.7-3-6.5-6.9-6.5H44v13.4h7.8c3.3-.5 6-3.4 6-6.9z"/><linearGradient id="c" gradientUnits="userSpaceOnUse" y1="53.06" x2="102" y2="53.06"><stop offset="0" stop-color="#9195ca"/><stop offset="1" stop-color="#c0abd3"/></linearGradient><path fill="url(#c)" d="M97.9 14.5L52.7.4c-1.1-.4-2.3-.4-3.5 0L4.1 14.5c-2.4.8-4.1 3-4.1 5.6 0 62.4 31.6 77.4 48.5 85.4.8.4 1.6.6 2.5.6.9 0 1.7-.2 2.5-.6 17-8 48.5-22.9 48.5-85.4 0-2.6-1.7-4.9-4.1-5.6zm-42.7 61h-1.7v1.9c0 .2-.2.4-.4.4h-3.4c-.2 0-.4-.2-.4-.4v-1.9h-1.1v1.9c0 .2-.2.4-.4.4h-3.4c-.2 0-.4-.2-.4-.4v-1.9h-5.8c-1.3 0-2.3-1-2.3-2.3V62.6h-.6c-.9 0-1.6-.7-1.6-1.6v-1.1c0-.9.7-1.6 1.6-1.6h.6V25.7c0-1.3 1-2.3 2.3-2.3h5.7v-1.7c0-.2.2-.4.4-.4h3.4c.2 0 .4.2.4.4v1.7h1.1v-1.7c0-.2.2-.4.4-.4H53c.2 0 .4.2.4.4v1.9c7.1 1.2 12.4 7.1 12.4 14.4 0 3.4-1.2 6.5-3.1 9.1 4.5 2.7 7.5 7.4 7.5 12.7.1 8.5-6.8 15.7-15 15.7z"/><path fill="#FFF" d="M1.5 48.7c-.6.6-1.2 1.1-2 1.7.8-.6 1.4-1.1 2-1.7zm-1.9 1.7zm4.2-4.2c-.2.3-.4.5-.7.8.2-.2.5-.5.7-.8zm-2.2 2.4z"/></svg>