<svg width="20" height="20" viewBox="0 0 20 20" xmlns="http://www.w3.org/2000/svg"><title>Group 2</title><g fill="#AFB3C2"><path d="M10 8.075a1.925 1.925 0 1 0 0 3.85 1.925 1.925 0 0 0 0-3.85z"/><path d="M13.207 4.936H6.793a1.86 1.86 0 0 0-1.857 1.857v6.414a1.86 1.86 0 0 0 1.857 1.857h6.414a1.86 1.86 0 0 0 1.857-1.857V6.793a1.86 1.86 0 0 0-1.857-1.857zM10 13.334a3.334 3.334 0 1 1 0-6.668 3.334 3.334 0 0 1 0 6.668zm3.44-5.979a.789.789 0 1 1 0-1.577.789.789 0 0 1 0 1.577z"/><path d="M17.24 0H.8a.8.8 0 0 0-.8.8v18.4a.8.8 0 0 0 .8.8h18.4a.8.8 0 0 0 .8-.8V.8a.8.8 0 0 0-.8-.8h-1.96zm-.767 13.207a3.27 3.27 0 0 1-3.266 3.266H6.793a3.27 3.27 0 0 1-3.266-3.266V6.793a3.27 3.27 0 0 1 3.266-3.266h6.414a3.27 3.27 0 0 1 3.266 3.266v6.414z"/></g></svg>