<svg width="20" height="20" viewBox="0 0 20 20" xmlns="http://www.w3.org/2000/svg"><title>Group</title><path d="M.8 0h18.4a.8.8 0 0 1 .8.8v18.4a.8.8 0 0 1-.8.8H.8a.8.8 0 0 1-.8-.8V.8A.8.8 0 0 1 .8 0zm3.973 6.689v5.938a.683.683 0 0 1-.182.59L3.18 14.929v.225h4v-.225l-1.412-1.712a.708.708 0 0 1-.194-.59V7.492l3.513 7.662h.409l3.017-7.662V13.6c0 .163 0 .194-.107.3l-1.086 1.054v.225h5.27v-.225l-1.047-1.029a.314.314 0 0 1-.12-.3V6.067a.314.314 0 0 1 .12-.3l1.073-1.03v-.225h-3.714l-2.647 6.603-3.011-6.603H3.349v.225L4.603 6.25a.52.52 0 0 1 .17.439z" fill="#AFB3C2"/></svg>