<svg width="20" height="20" viewBox="0 0 20 20" xmlns="http://www.w3.org/2000/svg"><title>Group 6</title><g fill="#AFB3C2"><path d="M13.212 7.167l-6.075 3.767a.276.276 0 0 0-.12.317l.815 2.626a.053.053 0 0 0 .104-.01l.2-1.76a.276.276 0 0 1 .092-.176l5.143-4.55a.134.134 0 0 0-.16-.214z"/><path d="M18.28 0H.8a.8.8 0 0 0-.8.8v18.4a.8.8 0 0 0 .8.8h18.4a.8.8 0 0 0 .8-.8V.8a.8.8 0 0 0-.8-.8h-.92zm-2.756 6.023l-1.89 9.04a.596.596 0 0 1-.936.36l-2.855-2.095-1.455 1.482a.483.483 0 0 1-.806-.192l-1.05-3.333-2.814-.83a.404.404 0 0 1-.033-.764L14.76 5.376a.57.57 0 0 1 .764.647z"/></g></svg>