<svg width="20" height="20" viewBox="0 0 20 20" xmlns="http://www.w3.org/2000/svg"><title>Group 5</title><path d="M18 0H.8a.8.8 0 0 0-.8.8v18.4a.8.8 0 0 0 .8.8h18.4a.8.8 0 0 0 .8-.8V.8a.8.8 0 0 0-.8-.8H18zm-2.56 7.725a7.99 7.99 0 0 1-7.99 7.99 7.948 7.948 0 0 1-4.27-1.235c2.415.36 4.115-1.176 4.115-1.176-2.151-.168-2.576-1.958-2.576-1.958.76.128 1.236-.052 1.236-.052C3.533 10.727 3.74 8.51 3.74 8.51c.56.335 1.21.36 1.21.36-2.138-1.88-.8-3.71-.8-3.71 2.243 2.715 5.538 2.9 5.755 2.908a2.804 2.804 0 0 1 4.779-2.549 9.733 9.733 0 0 0 1.77-.694c-.136.82-1.147 1.508-1.219 1.556l-.004.003h.005c.784-.08 1.586-.411 1.586-.411-.24.508-1.23 1.3-1.389 1.425.005.107.008.216.008.326z" fill="#AFB3C2"/></svg>