<svg width="20" height="20" viewBox="0 0 20 20" xmlns="http://www.w3.org/2000/svg"><title>Group 4</title><path d="M18.28 0H.8a.8.8 0 0 0-.8.8v18.4a.8.8 0 0 0 .8.8h18.4a.8.8 0 0 0 .8-.8V.8a.8.8 0 0 0-.8-.8h-.92zm-2.85 10.988c.434.448.9.867 1.32 1.327.308.335.586.696.83 1.08.307.483.118.939-.454 1.02-.36.051-2.12 0-2.21 0a1.72 1.72 0 0 1-1.221-.487c-.371-.358-.709-.75-1.065-1.123a2.975 2.975 0 0 0-.346-.314c-.291-.223-.577-.173-.714.169-.116.294-.216 1.066-.221 1.132-.025.345-.244.565-.63.586-1.116.062-2.199-.062-3.204-.602-.853-.456-1.535-1.103-2.125-1.856-.938-1.197-1.68-2.513-2.355-3.867a73.015 73.015 0 0 1-.738-1.595c-.061-.23-.004-.451.191-.527.12-.047 2.38 0 2.417 0 .36.02.606.172.758.546.431 1.066.977 2.07 1.697 2.972.098.121.214.227.343.314.185.127.36.082.435-.13a3.71 3.71 0 0 0 .157-.906c.012-.61 0-1.01-.034-1.62-.021-.39-.16-.733-.734-.836-.177-.032-.194-.178-.08-.323.237-.304.567-.352.925-.37.581-.032 1.164-.006 1.745 0 .238-.001.475.023.708.071.304.067.467.28.517.577.027.154.039.31.036.466-.015.666-.047 1.331-.055 1.997a3.48 3.48 0 0 0 .072.783c.08.355.32.444.566.188a8.68 8.68 0 0 0 .851-1.064c.471-.676.824-1.419 1.126-2.184.157-.395.277-.48.702-.48.799-.002 1.597-.002 2.396 0a1.44 1.44 0 0 1 .424.056c.216.07.303.246.252.47-.12.527-.403.974-.708 1.404-.488.69-1 1.363-1.5 2.045a2.51 2.51 0 0 0-.173.273c-.187.337-.174.526.099.808z" fill="#AFB3C2"/></svg>