<svg width="20" height="20" viewBox="0 0 20 20" xmlns="http://www.w3.org/2000/svg"><title>Group 7</title><g fill="#AFB3C2"><path d="M8.086 11.927a.324.324 0 0 0 .227-.004.307.307 0 0 0 .172-.145.24.24 0 0 0 .027-.207.222.222 0 0 0-.137-.144.313.313 0 0 0-.223.004.308.308 0 0 0-.168.145c-.088.16-.054.278.102.35z"/><path d="M7.813 9.02c-1.161.12-2.123.49-2.886 1.106-.763.618-1.108 1.306-1.035 2.066.045.5.277.943.695 1.328.418.385.96.669 1.629.852a5.944 5.944 0 0 0 2.144.164c1.161-.12 2.123-.489 2.886-1.106.763-.617 1.108-1.305 1.034-2.066-.047-.5-.279-.942-.695-1.328-.417-.385-.96-.669-1.629-.851a5.939 5.939 0 0 0-2.143-.164zm2.012 2.106c.247.471.254.968.02 1.488-.235.532-.647.922-1.235 1.172-.588.25-1.172.281-1.75.094-.557-.177-.941-.507-1.152-.988-.211-.482-.194-.97.052-1.465.245-.484.64-.846 1.184-1.086a2.467 2.467 0 0 1 1.644-.148c.577.15.99.462 1.237.933z"/><path d="M7.485 11.794a.795.795 0 0 0-.57-.007.857.857 0 0 0-.47.36.65.65 0 0 0-.101.535.584.584 0 0 0 .336.394c.177.083.371.09.582.02a.901.901 0 0 0 .488-.371.65.65 0 0 0 .086-.539.584.584 0 0 0-.351-.392z"/><path d="M18.32 0H.8a.8.8 0 0 0-.8.8v18.4a.8.8 0 0 0 .8.8h18.4a.8.8 0 0 0 .8-.8V.8a.8.8 0 0 0-.8-.8h-.88zm-2.968 7.2a2.64 2.64 0 0 0-3.133-2.047.539.539 0 0 1-.566-.816c.077-.12.2-.203.34-.23a3.73 3.73 0 0 1 1.906.09 3.716 3.716 0 0 1 2.504 2.788 3.568 3.568 0 0 1-.105 1.887.527.527 0 0 1-.266.312.503.503 0 0 1-.406.032.544.544 0 0 1-.352-.672c.146-.433.173-.897.078-1.344zm-6.047.508a.097.097 0 0 0 .08.055.334.334 0 0 0 .113-.004.882.882 0 0 0 .105-.027l.047-.016c.724-.307 1.364-.46 1.92-.46.557 0 .955.158 1.196.476.234.328.234.791 0 1.39a.883.883 0 0 1-.036.156.08.08 0 0 0 .036.098.4.4 0 0 0 .093.058c.026.01.07.026.133.047.283.087.553.21.804.367.253.164.466.382.626.637.176.27.268.587.265.91 0 .354-.096.718-.289 1.09a3.878 3.878 0 0 1-.852 1.07c-.4.359-.841.667-1.316.918a7.208 7.208 0 0 1-1.765.647 9.047 9.047 0 0 1-2.113.242 8.83 8.83 0 0 1-2.148-.262 7.63 7.63 0 0 1-1.88-.726 4.012 4.012 0 0 1-1.34-1.18 2.64 2.64 0 0 1-.508-1.56c0-.599.181-1.237.543-1.914.362-.677.876-1.349 1.543-2.015.88-.88 1.77-1.495 2.668-1.844.898-.349 1.54-.33 1.926.059.34.333.391.878.157 1.633-.022.072-.025.124-.008.155zm4.117-.57a.838.838 0 0 0-.836-.273.466.466 0 0 1-.352-.062.404.404 0 0 1-.195-.29.453.453 0 0 1 .063-.347.434.434 0 0 1 .289-.2 1.79 1.79 0 0 1 1.719.554c.215.239.362.532.425.848.066.305.049.622-.05.918a.456.456 0 0 1-.23.265.449.449 0 0 1-.614-.199.448.448 0 0 1-.031-.348.83.83 0 0 0-.188-.866z"/></g></svg>