<svg id="Element" xmlns="http://www.w3.org/2000/svg" viewBox="0 0 23.21 25.78">
  <defs>
    <style>
      .cls-1 {
        fill: none;
        stroke: #fff;
        stroke-miterlimit: 10;
      }

      .cls-2 {
        fill: #fff;
      }

      .cls-3 {
        opacity: 0.06;
      }
    </style>
  </defs>
  <title>27</title>
  <g>
    <g>
      <path class="cls-1" d="M1009.75,2278.5l-8.31-4.8a2.79,2.79,0,0,0-2.79,0l-8.31,4.8a2.79,2.79,0,0,0-1.4,2.42v9.6a2.79,2.79,0,0,0,1.4,2.42l8.31,4.8a2.79,2.79,0,0,0,2.79,0l8.31-4.8a2.79,2.79,0,0,0,1.4-2.42v-9.6A2.79,2.79,0,0,0,1009.75,2278.5Z" transform="translate(-988.44 -2272.83)"/>
      <path class="cls-2" d="M1006.56,2282.86a3.71,3.71,0,0,0-1.48-.14,8.62,8.62,0,0,0-1.48.07,9.19,9.19,0,0,0-.88,1.62c-0.47.9-1,1.76-1.42,1.75s-0.37-1.48-.34-2.56a1.22,1.22,0,0,0-.2-1,4.27,4.27,0,0,0-.94-0.34s-2.06-.16-2.36.74c0.39,0.05,1.07-.07.81,2.7,0,0.13-.32,1.28-1.28-0.27-0.24-.38-1.16-2.69-1.48-2.7a7.31,7.31,0,0,0-2.49.14c-0.34.19,0.46,1.79,1.82,3.91,1.11,1.74,2.29,3.1,4.32,3.44a5,5,0,0,0,1.69-.07c0.21-.1,0-1.61.67-1.75,0.32-.06,1.55,1.57,2,1.75a4.82,4.82,0,0,0,1.55.13c0.69,0,1.47.06,1.55-.4,0.17-1-2.09-2.39-2.16-3,0-.46.83-1.31,1.28-2S1006.9,2283.16,1006.56,2282.86Z" transform="translate(-988.44 -2272.83)"/>
    </g>
    <path class="cls-3" d="M1009.08,2279.66l-8.31-4.8a1.45,1.45,0,0,0-.72-0.19v22.1a1.45,1.45,0,0,0,.72-0.19l8.31-4.8a1.45,1.45,0,0,0,.73-1.26v-9.6A1.46,1.46,0,0,0,1009.08,2279.66Z" transform="translate(-988.44 -2272.83)"/>
  </g>
</svg>
