<svg id="Element" xmlns="http://www.w3.org/2000/svg" viewBox="0 0 23.21 25.78">
  <defs>
    <style>
      .cls-1 {
        opacity: 0.9;
      }

      .cls-2 {
        fill: none;
        stroke: #fff;
        stroke-miterlimit: 10;
      }

      .cls-3 {
        fill: #fff;
      }

      .cls-4 {
        opacity: 0.07;
      }
    </style>
  </defs>
  <title>28</title>
  <g>
    <g class="cls-1">
      <path class="cls-2" d="M1041,2278.5l-8.31-4.8a2.79,2.79,0,0,0-2.79,0l-8.31,4.8a2.79,2.79,0,0,0-1.4,2.42v9.6a2.79,2.79,0,0,0,1.4,2.42l8.31,4.8a2.79,2.79,0,0,0,2.79,0l8.31-4.8a2.79,2.79,0,0,0,1.4-2.42v-9.6A2.79,2.79,0,0,0,1041,2278.5Z" transform="translate(-1019.64 -2272.83)"/>
    </g>
    <path class="cls-3" d="M1034.44,2283.29h-2.18v-1.43a0.58,0.58,0,0,1,.61-0.66h1.54v-2.36h-2.12a2.68,2.68,0,0,0-2.89,2.89v1.57H1028v2.43h1.36v6.88h2.86v-6.88h1.93Z" transform="translate(-1019.64 -2272.83)"/>
    <path class="cls-4" d="M1040.28,2279.66l-8.31-4.8a1.45,1.45,0,0,0-.73-0.19v22.1a1.45,1.45,0,0,0,.73-0.19l8.31-4.8a1.46,1.46,0,0,0,.73-1.26v-9.6A1.46,1.46,0,0,0,1040.28,2279.66Z" transform="translate(-1019.64 -2272.83)"/>
  </g>
</svg>
