<svg id="Element" xmlns="http://www.w3.org/2000/svg" viewBox="0 0 23.21 25.78">
  <defs>
    <style>
      .cls-1 {
        fill: none;
        stroke: #fff;
        stroke-miterlimit: 10;
      }

      .cls-2 {
        fill: #fff;
      }

      .cls-3 {
        opacity: 0.07;
      }
    </style>
  </defs>
  <title>29</title>
  <g>
    <path class="cls-1" d="M1072.15,2278.5l-8.31-4.8a2.79,2.79,0,0,0-2.79,0l-8.31,4.8a2.79,2.79,0,0,0-1.39,2.42v9.6a2.79,2.79,0,0,0,1.39,2.42l8.31,4.8a2.79,2.79,0,0,0,2.79,0l8.31-4.8a2.79,2.79,0,0,0,1.39-2.42v-9.6A2.79,2.79,0,0,0,1072.15,2278.5Z" transform="translate(-1050.84 -2272.83)"/>
    <path class="cls-2" d="M1068.81,2281.77a5.22,5.22,0,0,1-1.5.41,2.62,2.62,0,0,0,1.15-1.45,5.21,5.21,0,0,1-1.66.63,2.61,2.61,0,0,0-4.52,1.79,2.64,2.64,0,0,0,.07.6A7.42,7.42,0,0,1,1057,2281a2.62,2.62,0,0,0,.81,3.49,2.6,2.6,0,0,1-1.18-.33v0a2.61,2.61,0,0,0,2.1,2.56,2.6,2.6,0,0,1-.69.09,2.66,2.66,0,0,1-.49,0,2.62,2.62,0,0,0,2.44,1.81,5.26,5.26,0,0,1-3.87,1.08,7.43,7.43,0,0,0,11.44-6.26c0-.11,0-0.23,0-0.34a5.33,5.33,0,0,0,1.31-1.35h0Z" transform="translate(-1050.84 -2272.83)"/>
    <path class="cls-3" d="M1071.48,2279.66l-8.31-4.8a1.45,1.45,0,0,0-.73-0.19v22.1a1.45,1.45,0,0,0,.73-0.19l8.31-4.8a1.46,1.46,0,0,0,.73-1.26v-9.6A1.46,1.46,0,0,0,1071.48,2279.66Z" transform="translate(-1050.84 -2272.83)"/>
  </g>
</svg>
