<svg id="Element" xmlns="http://www.w3.org/2000/svg" viewBox="0 0 23.21 25.78">
  <defs>
    <style>
      .cls-1 {
        fill: none;
        stroke: #fff;
        stroke-miterlimit: 10;
      }

      .cls-2 {
        fill: #fff;
      }

      .cls-3 {
        opacity: 0.07;
      }
    </style>
  </defs>
  <title>30</title>
  <g>
    <path class="cls-1" d="M1103.35,2278.5l-8.31-4.8a2.79,2.79,0,0,0-2.79,0l-8.31,4.8a2.79,2.79,0,0,0-1.4,2.42v9.6a2.79,2.79,0,0,0,1.4,2.42l8.31,4.8a2.79,2.79,0,0,0,2.79,0l8.31-4.8a2.79,2.79,0,0,0,1.4-2.42v-9.6A2.79,2.79,0,0,0,1103.35,2278.5Z" transform="translate(-1082.04 -2272.83)"/>
    <path class="cls-2" d="M1096.11,2285.73l-4.17,2.45v-4.89ZM1100,2288v-4.55a2.15,2.15,0,0,0-2.19-2.19h-8.34a2.15,2.15,0,0,0-2.19,2.19V2288a2.15,2.15,0,0,0,2.19,2.19h8.34A2.15,2.15,0,0,0,1100,2288" transform="translate(-1082.04 -2272.83)"/>
    <path class="cls-3" d="M1102.68,2279.66l-8.31-4.8a1.45,1.45,0,0,0-.72-0.19v22.1a1.45,1.45,0,0,0,.72-0.19l8.31-4.8a1.46,1.46,0,0,0,.73-1.26v-9.6A1.46,1.46,0,0,0,1102.68,2279.66Z" transform="translate(-1082.04 -2272.83)"/>
  </g>
</svg>
