<svg id="Element" xmlns="http://www.w3.org/2000/svg" viewBox="0 0 23.21 25.78">
  <defs>
    <style>
      .cls-1 {
        fill: none;
        stroke: #fff;
        stroke-miterlimit: 10;
      }

      .cls-2 {
        fill: #fff;
      }

      .cls-3 {
        opacity: 0.1;
      }
    </style>
  </defs>
  <title>31</title>
  <g>
    <g>
      <path class="cls-1" d="M1134.55,2278.5l-8.31-4.8a2.79,2.79,0,0,0-2.79,0l-8.31,4.8a2.79,2.79,0,0,0-1.4,2.42v9.6a2.79,2.79,0,0,0,1.4,2.42l8.31,4.8a2.79,2.79,0,0,0,2.79,0l8.31-4.8a2.79,2.79,0,0,0,1.4-2.42v-9.6A2.79,2.79,0,0,0,1134.55,2278.5Z" transform="translate(-1113.24 -2272.83)"/>
      <g>
        <path class="cls-2" d="M1127.65,2279.09H1122a3.83,3.83,0,0,0-3.83,3.83v5.61a3.83,3.83,0,0,0,3.83,3.83h5.61a3.83,3.83,0,0,0,3.83-3.83v-5.61a3.83,3.83,0,0,0-3.83-3.83m2.61,9.53a2.54,2.54,0,0,1-2.54,2.54H1122a2.54,2.54,0,0,1-2.54-2.54v-5.74a2.54,2.54,0,0,1,2.54-2.54h5.74a2.54,2.54,0,0,1,2.54,2.54v5.74Z" transform="translate(-1113.24 -2272.83)"/>
        <path class="cls-2" d="M1124.84,2282.31a3.44,3.44,0,1,0,3.44,3.44,3.44,3.44,0,0,0-3.44-3.44m0,5.67a2.23,2.23,0,1,1,2.23-2.23,2.23,2.23,0,0,1-2.23,2.23" transform="translate(-1113.24 -2272.83)"/>
        <path class="cls-2" d="M1128.4,2281.38a0.8,0.8,0,1,0,.8.8,0.8,0.8,0,0,0-.8-0.8" transform="translate(-1113.24 -2272.83)"/>
      </g>
    </g>
    <path class="cls-3" d="M1133.88,2279.66l-8.31-4.8a1.45,1.45,0,0,0-.73-0.19v22.1a1.45,1.45,0,0,0,.73-0.19l8.31-4.8a1.46,1.46,0,0,0,.73-1.26v-9.6A1.46,1.46,0,0,0,1133.88,2279.66Z" transform="translate(-1113.24 -2272.83)"/>
  </g>
</svg>
