<svg id="Element" xmlns="http://www.w3.org/2000/svg" viewBox="0 0 544.53 490.7">
  <defs>
    <style>
      .cls-1 {
        opacity: 0.44;
      }

      .cls-2 {
        opacity: 0.31;
      }

      .cls-3, .cls-4 {
        fill: none;
        stroke-miterlimit: 10;
      }

      .cls-3 {
        stroke: #999;
        stroke-width: 0.75px;
      }

      .cls-4 {
        stroke: #666;
      }

      .cls-5 {
        opacity: 0.32;
      }

      .cls-6 {
        fill: #999;
      }
    </style>
  </defs>
  <title>сетка</title>
  <g class="cls-1">
    <g class="cls-2">
      <line class="cls-3" x1="5.4" y1="308.61" x2="5.4" y2="220.6"/>
      <polyline class="cls-3" points="81.61 352.62 157.83 308.61 157.83 220.6 81.61 176.6 5.4 220.6 5.4 308.61"/>
      <polygon class="cls-3" points="310.27 220.6 234.05 176.6 157.83 220.6 157.83 308.61 234.05 352.62 310.27 308.61 310.27 220.6"/>
      <polygon class="cls-3" points="462.71 220.6 386.49 176.6 310.27 220.6 310.27 308.61 386.49 352.62 462.71 308.61 462.71 220.6"/>
      <line class="cls-3" x1="5.4" y1="221.19" x2="81.61" y2="177.19"/>
      <polyline class="cls-3" points="81.61 177.19 157.83 221.19 234.05 177.19 234.05 89.18 157.83 45.17"/>
      <polygon class="cls-3" points="386.49 89.18 310.27 45.17 234.05 89.18 234.05 177.19 310.27 221.19 386.49 177.19 386.49 89.18"/>
      <polygon class="cls-3" points="538.93 89.18 462.71 45.17 386.49 89.18 386.49 177.19 462.71 221.19 538.93 177.19 538.93 89.18"/>
      <path class="cls-3" d="M657,1783.52" transform="translate(-651.6 -1474.38)"/>
      <polyline class="cls-3" points="5.4 485.16 81.61 441.16 81.61 353.15"/>
      <polygon class="cls-3" points="234.05 353.15 157.83 309.14 81.61 353.15 81.61 441.16 157.83 485.16 234.05 441.16 234.05 353.15"/>
      <polygon class="cls-3" points="386.49 353.15 310.27 309.14 234.05 353.15 234.05 441.16 310.27 485.16 386.49 441.16 386.49 353.15"/>
      <polygon class="cls-3" points="538.93 353.15 462.71 309.14 386.49 353.15 386.49 441.16 462.71 485.16 538.93 441.16 538.93 353.15"/>
    </g>
    <g class="cls-2">
      <path class="cls-4" d="M657,1607" transform="translate(-651.6 -1474.38)"/>
      <polyline class="cls-4" points="5.4 132.59 81.61 176.6 157.83 132.59 157.83 44.58"/>
      <polygon class="cls-4" points="310.27 44.58 234.05 0.58 157.83 44.58 157.83 132.59 234.05 176.6 310.27 132.59 310.27 44.58"/>
      <polygon class="cls-4" points="462.71 44.58 386.49 0.58 310.27 44.58 310.27 132.59 386.49 176.6 462.71 132.59 462.71 44.58"/>
      <path class="cls-4" d="M657,1782.93" transform="translate(-651.6 -1474.38)"/>
      <polyline class="cls-4" points="81.61 440.56 157.83 396.56 157.83 308.55 81.61 264.55 5.4 308.55"/>
      <polygon class="cls-4" points="310.27 308.55 234.05 264.55 157.83 308.55 157.83 396.56 234.05 440.56 310.27 396.56 310.27 308.55"/>
      <polygon class="cls-4" points="462.71 308.55 386.49 264.55 310.27 308.55 310.27 396.56 386.49 440.56 462.71 396.56 462.71 308.55"/>
      <polyline class="cls-4" points="5.4 309.14 81.61 265.14 81.61 177.13 5.4 133.12"/>
      <polygon class="cls-4" points="234.05 177.13 157.83 133.12 81.61 177.13 81.61 265.14 157.83 309.14 234.05 265.14 234.05 177.13"/>
      <polygon class="cls-4" points="386.49 177.13 310.27 133.12 234.05 177.13 234.05 265.14 310.27 309.14 386.49 265.14 386.49 177.13"/>
      <polygon class="cls-4" points="538.93 177.13 462.71 133.12 386.49 177.13 386.49 265.14 462.71 309.14 538.93 265.14 538.93 177.13"/>
    </g>
    <g class="cls-5">
      <path class="cls-6" d="M657.25,1690.52a4.65,4.65,0,1,1-4.65,4.65,4.65,4.65,0,0,1,4.65-4.65m0-1a5.65,5.65,0,1,0,5.65,5.65,5.66,5.66,0,0,0-5.65-5.65h0Z" transform="translate(-651.6 -1474.38)"/>
      <path class="cls-6" d="M658.23,1777.19a4.65,4.65,0,1,1-4.65,4.65,4.65,4.65,0,0,1,4.65-4.65m0-1a5.65,5.65,0,1,0,5.65,5.65,5.65,5.65,0,0,0-5.65-5.65h0Z" transform="translate(-651.6 -1474.38)"/>
      <path class="cls-6" d="M657.38,1954.78a4.65,4.65,0,1,1-4.65,4.65,4.65,4.65,0,0,1,4.65-4.65m0-1a5.65,5.65,0,1,0,5.65,5.65,5.66,5.66,0,0,0-5.65-5.65h0Z" transform="translate(-651.6 -1474.38)"/>
      <path class="cls-6" d="M733.31,1646.58a4.65,4.65,0,1,1-4.65,4.65,4.65,4.65,0,0,1,4.65-4.65m0-1a5.65,5.65,0,1,0,5.65,5.65,5.66,5.66,0,0,0-5.65-5.65h0Z" transform="translate(-651.6 -1474.38)"/>
      <path class="cls-6" d="M733.6,1822.5a4.65,4.65,0,1,1-4.65,4.65,4.65,4.65,0,0,1,4.65-4.65m0-1a5.65,5.65,0,1,0,5.65,5.65,5.65,5.65,0,0,0-5.65-5.65h0Z" transform="translate(-651.6 -1474.38)"/>
      <path class="cls-6" d="M733.4,1910.85a4.65,4.65,0,1,1-4.65,4.65,4.65,4.65,0,0,1,4.65-4.65m0-1a5.65,5.65,0,1,0,5.65,5.65,5.66,5.66,0,0,0-5.65-5.65h0Z" transform="translate(-651.6 -1474.38)"/>
      <path class="cls-6" d="M809.49,1690.67a4.65,4.65,0,1,1-4.65,4.65,4.65,4.65,0,0,1,4.65-4.65m0-1a5.65,5.65,0,1,0,5.65,5.65,5.65,5.65,0,0,0-5.65-5.65h0Z" transform="translate(-651.6 -1474.38)"/>
      <path class="cls-6" d="M809.51,1778.54a4.65,4.65,0,1,1-4.65,4.65,4.65,4.65,0,0,1,4.65-4.65m0-1a5.65,5.65,0,1,0,5.65,5.65,5.66,5.66,0,0,0-5.65-5.65h0Z" transform="translate(-651.6 -1474.38)"/>
      <path class="cls-6" d="M809.61,1954.78a4.65,4.65,0,1,1-4.65,4.65,4.65,4.65,0,0,1,4.65-4.65m0-1a5.65,5.65,0,1,0,5.65,5.65,5.66,5.66,0,0,0-5.65-5.65h0Z" transform="translate(-651.6 -1474.38)"/>
      <path class="cls-6" d="M885.76,1646.54a4.65,4.65,0,1,1-4.65,4.65,4.65,4.65,0,0,1,4.65-4.65m0-1a5.65,5.65,0,1,0,5.65,5.65,5.66,5.66,0,0,0-5.65-5.65h0Z" transform="translate(-651.6 -1474.38)"/>
      <path class="cls-6" d="M886,1821.79a4.65,4.65,0,1,1-4.65,4.65,4.65,4.65,0,0,1,4.65-4.65m0-1a5.65,5.65,0,1,0,5.65,5.65,5.66,5.66,0,0,0-5.65-5.65h0Z" transform="translate(-651.6 -1474.38)"/>
      <path class="cls-6" d="M886,1909.73a4.65,4.65,0,1,1-4.65,4.65,4.65,4.65,0,0,1,4.65-4.65m0-1a5.65,5.65,0,1,0,5.65,5.65,5.66,5.66,0,0,0-5.65-5.65h0Z" transform="translate(-651.6 -1474.38)"/>
      <path class="cls-6" d="M961.82,1690.61a4.65,4.65,0,1,1-4.65,4.65,4.65,4.65,0,0,1,4.65-4.65m0-1a5.65,5.65,0,1,0,5.65,5.65,5.65,5.65,0,0,0-5.65-5.65h0Z" transform="translate(-651.6 -1474.38)"/>
      <path class="cls-6" d="M961.82,1778.54a4.65,4.65,0,1,1-4.65,4.65,4.65,4.65,0,0,1,4.65-4.65m0-1a5.65,5.65,0,1,0,5.65,5.65,5.65,5.65,0,0,0-5.65-5.65h0Z" transform="translate(-651.6 -1474.38)"/>
      <path class="cls-6" d="M962.05,1954.71a4.65,4.65,0,1,1-4.65,4.65,4.65,4.65,0,0,1,4.65-4.65m0-1a5.65,5.65,0,1,0,5.65,5.65,5.65,5.65,0,0,0-5.65-5.65h0Z" transform="translate(-651.6 -1474.38)"/>
      <path class="cls-6" d="M1037.56,1646.33a4.65,4.65,0,1,1-4.65,4.65,4.65,4.65,0,0,1,4.65-4.65m0-1a5.65,5.65,0,1,0,5.65,5.65,5.66,5.66,0,0,0-5.65-5.65h0Z" transform="translate(-651.6 -1474.38)"/>
      <path class="cls-6" d="M1038.22,1822.45a4.65,4.65,0,1,1-4.65,4.65,4.65,4.65,0,0,1,4.65-4.65m0-1a5.65,5.65,0,1,0,5.65,5.65,5.66,5.66,0,0,0-5.65-5.65h0Z" transform="translate(-651.6 -1474.38)"/>
      <path class="cls-6" d="M1037.56,1909.73a4.65,4.65,0,1,1-4.65,4.65,4.65,4.65,0,0,1,4.65-4.65m0-1a5.65,5.65,0,1,0,5.65,5.65,5.66,5.66,0,0,0-5.65-5.65h0Z" transform="translate(-651.6 -1474.38)"/>
      <path class="cls-6" d="M1114.27,1690.61a4.65,4.65,0,1,1-4.65,4.65,4.65,4.65,0,0,1,4.65-4.65m0-1a5.65,5.65,0,1,0,5.65,5.65,5.66,5.66,0,0,0-5.65-5.65h0Z" transform="translate(-651.6 -1474.38)"/>
      <path class="cls-6" d="M1114.32,1778.82a4.65,4.65,0,1,1-4.65,4.65,4.65,4.65,0,0,1,4.65-4.65m0-1a5.65,5.65,0,1,0,5.65,5.65,5.65,5.65,0,0,0-5.65-5.65h0Z" transform="translate(-651.6 -1474.38)"/>
      <path class="cls-6" d="M1114.45,1954.66a4.65,4.65,0,1,1-4.65,4.65,4.65,4.65,0,0,1,4.65-4.65m0-1a5.65,5.65,0,1,0,5.65,5.65,5.66,5.66,0,0,0-5.65-5.65h0Z" transform="translate(-651.6 -1474.38)"/>
      <path class="cls-6" d="M1189.11,1646.33a4.65,4.65,0,1,1-4.65,4.65,4.65,4.65,0,0,1,4.65-4.65m0-1a5.65,5.65,0,1,0,5.65,5.65,5.66,5.66,0,0,0-5.65-5.65h0Z" transform="translate(-651.6 -1474.38)"/>
      <path class="cls-6" d="M1190.48,1823a4.65,4.65,0,1,1-4.65,4.65,4.65,4.65,0,0,1,4.65-4.65m0-1a5.65,5.65,0,1,0,5.65,5.65,5.65,5.65,0,0,0-5.65-5.65h0Z" transform="translate(-651.6 -1474.38)"/>
      <path class="cls-6" d="M1189.11,1909.73a4.65,4.65,0,1,1-4.65,4.65,4.65,4.65,0,0,1,4.65-4.65m0-1a5.65,5.65,0,1,0,5.65,5.65,5.66,5.66,0,0,0-5.65-5.65h0Z" transform="translate(-651.6 -1474.38)"/>
    </g>
  </g>
</svg>
