<svg xmlns="http://www.w3.org/2000/svg" viewBox="0 0 488.8 440.32"><defs><style>.cls-1{opacity:0.44;}.cls-2{opacity:0.31;}.cls-3{fill:none;stroke:#fff;stroke-miterlimit:10;stroke-width:0.75px;}.cls-4{opacity:0.32;}.cls-5{fill:#fff;}</style></defs><title>Asset 3</title><g id="Layer_2" data-name="Layer 2"><g id="Element"><g class="cls-1"><g class="cls-2"><line class="cls-3" x1="4.94" y1="276.82" x2="4.94" y2="197.86"/><polyline class="cls-3" points="73.33 316.31 141.72 276.82 141.72 197.86 73.33 158.37 4.95 197.86 4.95 276.82"/><polygon class="cls-3" points="278.5 197.86 210.11 158.37 141.72 197.86 141.72 276.82 210.11 316.31 278.5 276.82 278.5 197.86"/><polygon class="cls-3" points="415.28 197.86 346.89 158.37 278.5 197.86 278.5 276.82 346.89 316.31 415.28 276.82 415.28 197.86"/><line class="cls-3" x1="4.94" y1="198.39" x2="73.33" y2="158.9"/><polyline class="cls-3" points="73.33 158.9 141.72 198.39 210.11 158.9 210.11 79.93 141.72 40.45"/><polygon class="cls-3" points="346.89 79.93 278.5 40.45 210.11 79.93 210.11 158.9 278.5 198.39 346.89 158.9 346.89 79.93"/><polygon class="cls-3" points="483.67 79.93 415.28 40.45 346.89 79.93 346.89 158.9 415.28 198.39 483.67 158.9 483.67 79.93"/><path class="cls-3" d="M4.94,277.3"/><polyline class="cls-3" points="4.95 435.24 73.33 395.75 73.33 316.79"/><polygon class="cls-3" points="210.11 316.79 141.72 277.3 73.33 316.79 73.33 395.75 141.72 435.24 210.11 395.75 210.11 316.79"/><polygon class="cls-3" points="346.89 316.79 278.5 277.3 210.11 316.79 210.11 395.75 278.5 435.24 346.89 395.75 346.89 316.79"/><polygon class="cls-3" points="483.67 316.79 415.28 277.3 346.89 316.79 346.89 395.75 415.28 435.24 483.67 395.75 483.67 316.79"/></g><g class="cls-2"><path class="cls-3" d="M4.94,118.89"/><polyline class="cls-3" points="4.95 118.89 73.33 158.37 141.72 118.89 141.72 39.92"/><polygon class="cls-3" points="278.5 39.92 210.11 0.43 141.72 39.92 141.72 118.89 210.11 158.37 278.5 118.89 278.5 39.92"/><polygon class="cls-3" points="415.28 39.92 346.89 0.43 278.5 39.92 278.5 118.89 346.89 158.37 415.28 118.89 415.28 39.92"/><path class="cls-3" d="M4.94,276.77"/><polyline class="cls-3" points="73.33 395.22 141.72 355.74 141.72 276.77 73.33 237.28 4.95 276.77"/><polygon class="cls-3" points="278.5 276.77 210.11 237.28 141.72 276.77 141.72 355.74 210.11 395.22 278.5 355.74 278.5 276.77"/><polygon class="cls-3" points="415.28 276.77 346.89 237.28 278.5 276.77 278.5 355.74 346.89 395.22 415.28 355.74 415.28 276.77"/><polyline class="cls-3" points="4.95 277.3 73.33 237.82 73.33 158.85 4.95 119.36"/><polygon class="cls-3" points="210.11 158.85 141.72 119.36 73.33 158.85 73.33 237.82 141.72 277.3 210.11 237.82 210.11 158.85"/><polygon class="cls-3" points="346.89 158.85 278.5 119.36 210.11 158.85 210.11 237.82 278.5 277.3 346.89 237.82 346.89 158.85"/><polygon class="cls-3" points="483.67 158.85 415.28 119.36 346.89 158.85 346.89 237.82 415.28 277.3 483.67 237.82 483.67 158.85"/></g><g class="cls-4"><path class="cls-5" d="M5.17,193.85A4.17,4.17,0,1,1,1,198a4.17,4.17,0,0,1,4.17-4.17m0-1A5.17,5.17,0,1,0,10.34,198a5.18,5.18,0,0,0-5.17-5.17Z"/><path class="cls-5" d="M6.05,271.62a4.17,4.17,0,1,1-4.17,4.17,4.17,4.17,0,0,1,4.17-4.17m0-1a5.17,5.17,0,1,0,5.17,5.17,5.18,5.18,0,0,0-5.17-5.17Z"/><path class="cls-5" d="M5.29,431a4.17,4.17,0,1,1-4.17,4.17A4.17,4.17,0,0,1,5.29,431m0-1a5.17,5.17,0,1,0,5.17,5.17A5.18,5.18,0,0,0,5.29,430Z"/><path class="cls-5" d="M73.42,154.43a4.17,4.17,0,1,1-4.17,4.17,4.17,4.17,0,0,1,4.17-4.17m0-1a5.17,5.17,0,1,0,5.17,5.17,5.18,5.18,0,0,0-5.17-5.17Z"/><path class="cls-5" d="M73.67,312.27a4.17,4.17,0,1,1-4.17,4.17,4.17,4.17,0,0,1,4.17-4.17m0-1a5.17,5.17,0,1,0,5.17,5.17,5.18,5.18,0,0,0-5.17-5.17Z"/><path class="cls-5" d="M73.5,391.55a4.17,4.17,0,1,1-4.17,4.17,4.17,4.17,0,0,1,4.17-4.17m0-1a5.17,5.17,0,1,0,5.17,5.17,5.18,5.18,0,0,0-5.17-5.17Z"/><path class="cls-5" d="M141.77,194a4.17,4.17,0,1,1-4.17,4.17,4.17,4.17,0,0,1,4.17-4.17m0-1a5.17,5.17,0,1,0,5.17,5.17,5.18,5.18,0,0,0-5.17-5.17Z"/><path class="cls-5" d="M141.79,272.83a4.17,4.17,0,1,1-4.17,4.17,4.17,4.17,0,0,1,4.17-4.17m0-1A5.17,5.17,0,1,0,147,277a5.18,5.18,0,0,0-5.17-5.17Z"/><path class="cls-5" d="M141.87,431a4.17,4.17,0,1,1-4.17,4.17,4.17,4.17,0,0,1,4.17-4.17m0-1a5.17,5.17,0,1,0,5.17,5.17,5.18,5.18,0,0,0-5.17-5.17Z"/><path class="cls-5" d="M210.21,154.39a4.17,4.17,0,1,1-4.17,4.17,4.17,4.17,0,0,1,4.17-4.17m0-1a5.17,5.17,0,1,0,5.17,5.17,5.18,5.18,0,0,0-5.17-5.17Z"/><path class="cls-5" d="M210.43,311.64a4.17,4.17,0,1,1-4.17,4.17,4.17,4.17,0,0,1,4.17-4.17m0-1a5.17,5.17,0,1,0,5.17,5.17,5.18,5.18,0,0,0-5.17-5.17Z"/><path class="cls-5" d="M210.43,390.55a4.17,4.17,0,1,1-4.17,4.17,4.17,4.17,0,0,1,4.17-4.17m0-1a5.17,5.17,0,1,0,5.17,5.17,5.18,5.18,0,0,0-5.17-5.17Z"/><path class="cls-5" d="M278.46,193.94a4.17,4.17,0,1,1-4.17,4.17,4.17,4.17,0,0,1,4.17-4.17m0-1a5.17,5.17,0,1,0,5.17,5.17,5.18,5.18,0,0,0-5.17-5.17Z"/><path class="cls-5" d="M278.46,272.83a4.17,4.17,0,1,1-4.17,4.17,4.17,4.17,0,0,1,4.17-4.17m0-1a5.17,5.17,0,1,0,5.17,5.17,5.18,5.18,0,0,0-5.17-5.17Z"/><path class="cls-5" d="M278.66,430.91a4.17,4.17,0,1,1-4.17,4.17,4.17,4.17,0,0,1,4.17-4.17m0-1a5.17,5.17,0,1,0,5.17,5.17,5.18,5.18,0,0,0-5.17-5.17Z"/><path class="cls-5" d="M346.41,154.2a4.17,4.17,0,1,1-4.17,4.17,4.17,4.17,0,0,1,4.17-4.17m0-1a5.17,5.17,0,1,0,5.17,5.17,5.18,5.18,0,0,0-5.17-5.17Z"/><path class="cls-5" d="M347,312.23a4.17,4.17,0,1,1-4.17,4.17,4.17,4.17,0,0,1,4.17-4.17m0-1a5.17,5.17,0,1,0,5.17,5.17,5.18,5.18,0,0,0-5.17-5.17Z"/><path class="cls-5" d="M346.41,390.55a4.17,4.17,0,1,1-4.17,4.17,4.17,4.17,0,0,1,4.17-4.17m0-1a5.17,5.17,0,1,0,5.17,5.17,5.18,5.18,0,0,0-5.17-5.17Z"/><path class="cls-5" d="M415.24,193.94a4.17,4.17,0,1,1-4.17,4.17,4.17,4.17,0,0,1,4.17-4.17m0-1a5.17,5.17,0,1,0,5.17,5.17,5.18,5.18,0,0,0-5.17-5.17Z"/><path class="cls-5" d="M415.29,273.09a4.17,4.17,0,1,1-4.17,4.17,4.17,4.17,0,0,1,4.17-4.17m0-1a5.17,5.17,0,1,0,5.17,5.17,5.18,5.18,0,0,0-5.17-5.17Z"/><path class="cls-5" d="M415.41,430.86a4.17,4.17,0,1,1-4.17,4.17,4.17,4.17,0,0,1,4.17-4.17m0-1a5.17,5.17,0,1,0,5.17,5.17,5.18,5.18,0,0,0-5.17-5.17Z"/><path class="cls-5" d="M482.4,154.2a4.17,4.17,0,1,1-4.17,4.17,4.17,4.17,0,0,1,4.17-4.17m0-1a5.17,5.17,0,1,0,5.17,5.17,5.18,5.18,0,0,0-5.17-5.17Z"/><path class="cls-5" d="M483.63,312.76a4.17,4.17,0,1,1-4.17,4.17,4.17,4.17,0,0,1,4.17-4.17m0-1a5.17,5.17,0,1,0,5.17,5.17,5.18,5.18,0,0,0-5.17-5.17Z"/><path class="cls-5" d="M482.4,390.55a4.17,4.17,0,1,1-4.17,4.17,4.17,4.17,0,0,1,4.17-4.17m0-1a5.17,5.17,0,1,0,5.17,5.17,5.18,5.18,0,0,0-5.17-5.17Z"/></g></g></g></g></svg>