<svg id="Element" xmlns="http://www.w3.org/2000/svg" viewBox="0 0 133.25 26.52">
  <defs>
    <style>
      .cls-1 {
        fill: #fff;
      }
    </style>
  </defs>
  <title>32</title>
  <g>
    <g>
      <path class="cls-1" d="M81.89,2370v-6.75a1.44,1.44,0,0,0-.65-1.12l-5.84-3.37a1.44,1.44,0,0,0-1.3,0l-5.84,3.37a1.44,1.44,0,0,0-.65,1.12V2370a1.44,1.44,0,0,0,.65,1.12l5.84,3.37a1.44,1.44,0,0,0,1.3,0l5.84-3.37A1.44,1.44,0,0,0,81.89,2370Z" transform="translate(-55.9 -2358.14)"/>
      <path class="cls-1" d="M84.67,2374.79l-3.47-2a0.85,0.85,0,0,0-.77,0l-3.47,2a0.85,0.85,0,0,0-.39.67v4a0.86,0.86,0,0,0,.39.67l3.47,2a0.86,0.86,0,0,0,.77,0l3.47-2a0.85,0.85,0,0,0,.39-0.67v-4A0.85,0.85,0,0,0,84.67,2374.79Z" transform="translate(-55.9 -2358.14)"/>
      <path class="cls-1" d="M73.48,2375.56l-5.84-3.37a2.7,2.7,0,0,1-1.27-2.2v-6.75a2.57,2.57,0,0,1,.35-1.25l-0.54-.31a1.9,1.9,0,0,0-1.71,0l-7.71,4.45a1.9,1.9,0,0,0-.86,1.48v8.9a1.9,1.9,0,0,0,.86,1.48l7.71,4.45a1.9,1.9,0,0,0,1.71,0l7.71-4.45a1.9,1.9,0,0,0,.86-1.48v-0.62A2.55,2.55,0,0,1,73.48,2375.56Z" transform="translate(-55.9 -2358.14)"/>
    </g>
    <g>
      <g>
        <path class="cls-1" d="M87.9,2365.83c0-4.33,2.2-7.39,5.66-7.39,2.63,0,3.86,1.78,4.57,3.45l-2.26,1a2.5,2.5,0,0,0-2.3-1.93c-1.78,0-2.89,2-2.89,4.84s1.11,4.84,2.89,4.84a2.55,2.55,0,0,0,2.32-2.08l2.24,1c-0.67,1.71-1.9,3.6-4.57,3.6C90.1,2373.22,87.9,2370.16,87.9,2365.83Z" transform="translate(-55.9 -2358.14)"/>
        <path class="cls-1" d="M99.11,2367.78c0-2.89,1.54-5.42,4.4-5.42s4.42,2.53,4.42,5.42-1.52,5.44-4.42,5.44S99.11,2370.69,99.11,2367.78Zm6.32,0c0-1.69-.59-3.15-1.92-3.15s-1.9,1.46-1.9,3.15,0.61,3.17,1.9,3.17S105.43,2369.49,105.43,2367.78Z" transform="translate(-55.9 -2358.14)"/>
        <path class="cls-1" d="M115.11,2366.15c0-1.09-.46-1.52-1.27-1.52a2.21,2.21,0,0,0-1.78,1.29v7h-2.42v-10.35h2.42V2364a3.6,3.6,0,0,1,2.87-1.61c1.8,0,2.61,1.11,2.61,2.83V2373h-2.42v-6.81Z" transform="translate(-55.9 -2358.14)"/>
        <path class="cls-1" d="M120.14,2370.48v-5.61h-1.27v-2.25h1.27v-2.83h2.42v2.83h1.6v2.25h-1.6v5c0,0.66.22,1.07,0.71,1.07a1,1,0,0,0,.73-0.3l0.5,2a2.7,2.7,0,0,1-1.88.6C120.92,2373.22,120.14,2372.3,120.14,2370.48Z" transform="translate(-55.9 -2358.14)"/>
        <path class="cls-1" d="M130.78,2371.94a3.16,3.16,0,0,1-2.57,1.29,3.13,3.13,0,0,1-3-3.43,3,3,0,0,1,3-3.34,3.14,3.14,0,0,1,2.57,1.22v-1.35a1.67,1.67,0,0,0-1.82-1.82,3.35,3.35,0,0,0-2.4,1.14l-0.91-1.76a5.3,5.3,0,0,1,3.78-1.52c2.1,0,3.78,1,3.78,3.66V2373h-2.42v-1Zm0-2.76a1.86,1.86,0,0,0-1.66-1,1.66,1.66,0,0,0,0,3.3,1.86,1.86,0,0,0,1.66-1v-1.33Z" transform="translate(-55.9 -2358.14)"/>
        <path class="cls-1" d="M135.14,2359.7a1.46,1.46,0,1,1,2.91,0A1.46,1.46,0,1,1,135.14,2359.7Zm0.24,2.91h2.42V2373h-2.42v-10.35Z" transform="translate(-55.9 -2358.14)"/>
        <path class="cls-1" d="M145.47,2366.15c0-1.09-.46-1.52-1.27-1.52a2.21,2.21,0,0,0-1.78,1.29v7H140v-10.35h2.42V2364a3.6,3.6,0,0,1,2.87-1.61c1.8,0,2.61,1.11,2.61,2.83V2373h-2.42v-6.81Z" transform="translate(-55.9 -2358.14)"/>
        <path class="cls-1" d="M153.93,2362.36c2.71,0,4.2,2.33,4.2,5.53v0.73H152a2.4,2.4,0,0,0,2.36,2.53,2.88,2.88,0,0,0,2.12-1l1.11,1.54a4.6,4.6,0,0,1-3.5,1.54c-2.75,0-4.55-2.19-4.55-5.44C149.57,2364.78,151.22,2362.36,153.93,2362.36Zm-1.92,4.5h3.78c0-1.07-.48-2.42-1.9-2.42S152.05,2365.79,152,2366.86Z" transform="translate(-55.9 -2358.14)"/>
        <path class="cls-1" d="M159.75,2362.62h2.42v1.44a3.34,3.34,0,0,1,2.67-1.67v2.53a1.69,1.69,0,0,0-.59-0.08,2.64,2.64,0,0,0-2.08,1.26V2373h-2.42v-10.35Z" transform="translate(-55.9 -2358.14)"/>
        <path class="cls-1" d="M171.69,2371.66a3.51,3.51,0,0,1-2.87,1.56c-1.8,0-2.61-1-2.61-2.79v-7.82h2.42v6.83a1.23,1.23,0,0,0,1.29,1.5,2.17,2.17,0,0,0,1.76-1.24v-7.09h2.42V2373h-2.42v-1.31Z" transform="translate(-55.9 -2358.14)"/>
        <path class="cls-1" d="M186.72,2366a1.13,1.13,0,0,0-1.11-1.39,2.11,2.11,0,0,0-1.68,1.29v7H181.5V2366a1.14,1.14,0,0,0-1.11-1.39,2.18,2.18,0,0,0-1.68,1.29v7h-2.42v-10.35h2.42V2364a3.48,3.48,0,0,1,2.75-1.61,2.18,2.18,0,0,1,2.34,1.8,3.48,3.48,0,0,1,2.87-1.8c1.5,0,2.46.83,2.46,2.74V2373h-2.42V2366Z" transform="translate(-55.9 -2358.14)"/>
      </g>
      <g>
        <path class="cls-1" d="M89.18,2379.38c0-2,.91-3.45,2.35-3.45a2,2,0,0,1,1.74,1.17l-0.44.24a1.46,1.46,0,0,0-1.3-.91c-1.09,0-1.8,1.25-1.8,2.95s0.71,2.95,1.8,2.95a1.47,1.47,0,0,0,1.31-1l0.44,0.23a1.94,1.94,0,0,1-1.75,1.27C90.09,2382.82,89.18,2381.36,89.18,2379.38Z" transform="translate(-55.9 -2358.14)"/>
        <path class="cls-1" d="M94.28,2377.88h0.47v0.82a1.54,1.54,0,0,1,1.31-.92v0.55H95.86a1.4,1.4,0,0,0-1.1.87v3.52H94.28v-4.83Z" transform="translate(-55.9 -2358.14)"/>
        <path class="cls-1" d="M98.45,2377.76c1.19,0,1.74,1.17,1.74,2.54v0.16h-3c0,1.1.54,1.94,1.4,1.94a1.39,1.39,0,0,0,1.13-.65L100,2382a1.74,1.74,0,0,1-1.44.79c-1.18,0-1.88-1.08-1.88-2.54S97.35,2377.76,98.45,2377.76Zm-1.26,2.3h2.51c0-.83-0.34-1.87-1.25-1.87S97.2,2379.26,97.19,2380.06Z" transform="translate(-55.9 -2358.14)"/>
        <path class="cls-1" d="M103.61,2382.16a1.41,1.41,0,0,1-1.21.66,1.45,1.45,0,0,1-1.37-1.61,1.43,1.43,0,0,1,1.37-1.6,1.39,1.39,0,0,1,1.21.65v-1a1,1,0,0,0-1-1.12,1.42,1.42,0,0,0-1.16.62l-0.25-.35a1.81,1.81,0,0,1,1.45-.71,1.31,1.31,0,0,1,1.41,1.51v3.44h-0.48v-0.54Zm0-1.47a1.18,1.18,0,0,0-1.08-.68,1.23,1.23,0,0,0,0,2.42,1.18,1.18,0,0,0,1.08-.68v-1.06Z" transform="translate(-55.9 -2358.14)"/>
        <path class="cls-1" d="M105.53,2381.82v-3.49h-0.61v-0.45h0.61v-1.32H106v1.32h0.78v0.45H106v3.43c0,0.39.11,0.62,0.39,0.62a0.54,0.54,0,0,0,.42-0.21l0.19,0.37a0.87,0.87,0,0,1-.68.29A0.81,0.81,0,0,1,105.53,2381.82Z" transform="translate(-55.9 -2358.14)"/>
        <path class="cls-1" d="M109.31,2377.76c1.19,0,1.74,1.17,1.74,2.54v0.16h-3c0,1.1.54,1.94,1.4,1.94a1.39,1.39,0,0,0,1.13-.65l0.28,0.29a1.74,1.74,0,0,1-1.44.79c-1.18,0-1.88-1.08-1.88-2.54S108.2,2377.76,109.31,2377.76Zm-1.26,2.3h2.51c0-.83-0.34-1.87-1.25-1.87S108.06,2379.26,108,2380.06Z" transform="translate(-55.9 -2358.14)"/>
        <path class="cls-1" d="M114.75,2382a1.46,1.46,0,0,1-1.22.84c-1,0-1.61-1-1.61-2.53s0.58-2.54,1.61-2.54a1.38,1.38,0,0,1,1.22.86V2376h0.48v6.67h-0.48V2382Zm0-2.88a1.39,1.39,0,0,0-1.13-.9c-0.82,0-1.19,1-1.19,2.09s0.37,2.08,1.19,2.08a1.36,1.36,0,0,0,1.13-.89v-2.38Z" transform="translate(-55.9 -2358.14)"/>
        <path class="cls-1" d="M118.61,2376h0.47v2.58a1.41,1.41,0,0,1,1.23-.86c1,0,1.61,1.06,1.61,2.54s-0.59,2.53-1.61,2.53a1.47,1.47,0,0,1-1.23-.84v0.72h-0.47V2376Zm1.61,6.34c0.81,0,1.19-.95,1.19-2.08s-0.38-2.09-1.19-2.09a1.39,1.39,0,0,0-1.14.9v2.38A1.36,1.36,0,0,0,120.22,2382.37Z" transform="translate(-55.9 -2358.14)"/>
        <path class="cls-1" d="M123.13,2384.21a0.58,0.58,0,0,0,.56-0.54l0.27-.87-1.5-4.93H123l1.24,4.21,1.24-4.21H126l-1.84,5.93a1,1,0,0,1-1,.86,1.25,1.25,0,0,1-.42-0.07l0.08-.46A0.72,0.72,0,0,0,123.13,2384.21Z" transform="translate(-55.9 -2358.14)"/>
        <path class="cls-1" d="M128.82,2376h3.07v0.5h-2.55v2.5h2.48v0.5h-2.48v2.67h2.55v0.5h-3.07V2376Z" transform="translate(-55.9 -2358.14)"/>
        <path class="cls-1" d="M134.24,2380.63l-1.16,2.08h-0.54l1.41-2.46-1.33-2.37h0.54l1.08,2,1.07-2h0.55l-1.33,2.37,1.4,2.46h-0.54Z" transform="translate(-55.9 -2358.14)"/>
        <path class="cls-1" d="M136.31,2380.29c0-1.37.6-2.53,1.76-2.53s1.76,1.16,1.76,2.53-0.6,2.54-1.76,2.54S136.31,2381.66,136.31,2380.29Zm3,0c0-1-.38-2.08-1.25-2.08s-1.25,1-1.25,2.08,0.39,2.09,1.25,2.09S139.33,2381.35,139.33,2380.29Z" transform="translate(-55.9 -2358.14)"/>
        <path class="cls-1" d="M143.39,2379.17a0.77,0.77,0,0,0-.78-1,1.49,1.49,0,0,0-1.18.85v3.65H141v-4.83h0.47v0.71a1.7,1.7,0,0,1,1.32-.83,1.07,1.07,0,0,1,1.12,1.3v3.65h-0.48v-3.54Z" transform="translate(-55.9 -2358.14)"/>
        <path class="cls-1" d="M145.56,2381.95a0.43,0.43,0,1,1-.41.42A0.43,0.43,0,0,1,145.56,2381.95Z" transform="translate(-55.9 -2358.14)"/>
        <path class="cls-1" d="M147.26,2376h0.47v6.67h-0.47V2376Z" transform="translate(-55.9 -2358.14)"/>
        <path class="cls-1" d="M151.4,2382.16a1.41,1.41,0,0,1-1.21.66,1.45,1.45,0,0,1-1.37-1.61,1.43,1.43,0,0,1,1.37-1.6,1.39,1.39,0,0,1,1.21.65v-1a1,1,0,0,0-1-1.12,1.42,1.42,0,0,0-1.16.62l-0.25-.35a1.81,1.81,0,0,1,1.45-.71,1.31,1.31,0,0,1,1.41,1.51v3.44H151.4v-0.54Zm0-1.47a1.18,1.18,0,0,0-1.08-.68,1.23,1.23,0,0,0,0,2.42,1.18,1.18,0,0,0,1.08-.68v-1.06Z" transform="translate(-55.9 -2358.14)"/>
        <path class="cls-1" d="M153.21,2376h0.47v2.58a1.41,1.41,0,0,1,1.23-.86c1,0,1.61,1.06,1.61,2.54s-0.59,2.53-1.61,2.53a1.47,1.47,0,0,1-1.23-.84v0.72h-0.47V2376Zm1.61,6.34c0.81,0,1.19-.95,1.19-2.08s-0.38-2.09-1.19-2.09a1.39,1.39,0,0,0-1.14.9v2.38A1.36,1.36,0,0,0,154.83,2382.37Z" transform="translate(-55.9 -2358.14)"/>
      </g>
    </g>
  </g>
</svg>
