<svg xmlns="http://www.w3.org/2000/svg" viewBox="0 0 33 26.91"><defs><style>.cls-1{fill:#29abe2;}.cls-2{fill:#ffcb31;}.cls-3{fill:#333;}</style></defs><title>Asset 4</title><g id="Layer_2" data-name="Layer 2"><g id="Element"><path class="cls-1" d="M29.23,12.75V5.2a1.61,1.61,0,0,0-.73-1.26L21.93.17a1.63,1.63,0,0,0-1.46,0L13.9,3.95a1.61,1.61,0,0,0-.73,1.26v7.55A1.61,1.61,0,0,0,13.9,14l6.57,3.77a1.63,1.63,0,0,0,1.46,0L28.5,14A1.61,1.61,0,0,0,29.23,12.75Z"/><path class="cls-2" d="M32.57,18.17l-3.9-2.24a1,1,0,0,0-.87,0l-3.9,2.24a1,1,0,0,0-.43.75V23.4a1,1,0,0,0,.43.75l3.9,2.24a1,1,0,0,0,.87,0l3.9-2.24A1,1,0,0,0,33,23.4V18.92A1,1,0,0,0,32.57,18.17Z"/><path class="cls-3" d="M19.77,19,13.2,15.22a3,3,0,0,1-1.43-2.47V5.2a2.86,2.86,0,0,1,.4-1.39l-.61-.35a2.15,2.15,0,0,0-1.93,0L1,8.43a2.12,2.12,0,0,0-1,1.66V20a2.12,2.12,0,0,0,1,1.66l8.67,5a2.15,2.15,0,0,0,1.93,0l8.67-5a2.12,2.12,0,0,0,1-1.66v-.7A2.88,2.88,0,0,1,19.77,19Z"/></g></g></svg>