<svg width="36" height="36" viewBox="0 0 36 36" xmlns="http://www.w3.org/2000/svg"><title>dribbble</title><g fill="none" fill-rule="evenodd"><path d="M18 0C8.059 0 0 8.06 0 18s8.059 18 18 18 18-8.06 18-18S27.941 0 18 0" fill="#AFB3C2"/><path d="M21.16 22.899a21.003 21.003 0 0 0-.543-2.873 20.95 20.95 0 0 0-.418-1.38 24.926 24.926 0 0 1 3.605 0 5.824 5.824 0 0 1-2.643 4.253m-3.153.929a5.802 5.802 0 0 1-3.574-1.23c.776-1.534 2.16-2.805 3.909-3.596.165-.076.383-.138.634-.193a20.863 20.863 0 0 1 1.096 4.636 5.773 5.773 0 0 1-2.065.383M12.175 18c0-.092.006-.184.01-.278.332.015.667.02 1.008.017 1.836-.023 3.549-.307 5.016-.778.138.287.269.583.395.886a3.508 3.508 0 0 0-.522.156c-2.01.842-3.591 2.2-4.448 3.843A5.795 5.795 0 0 1 12.174 18m3.195-5.191c.843.837 1.634 1.906 2.326 3.153-1.317.4-2.827.63-4.436.63-.305 0-.604-.01-.901-.028a5.842 5.842 0 0 1 3.01-3.755m2.64-.634c1.415 0 2.712.504 3.722 1.34-.634.802-1.627 1.499-2.867 2.024-.68-1.251-1.458-2.33-2.29-3.18.46-.117.939-.184 1.435-.184m4.442 2.055a5.796 5.796 0 0 1 1.374 3.383c-1.26-.067-2.77-.066-3.983.048a19.623 19.623 0 0 0-.48-1.13c1.4-.603 2.476-1.397 3.089-2.301m-4.442-3.221c-3.865 0-7 3.13-7 6.99a6.997 6.997 0 0 0 7 6.994c3.867 0 7-3.13 7-6.993a6.995 6.995 0 0 0-7-6.991" fill="#FBFCFE"/></g></svg>