<svg width="36" height="36" viewBox="0 0 36 36" xmlns="http://www.w3.org/2000/svg"><title>G+</title><g fill="none" fill-rule="evenodd"><path d="M18 0C8.059 0 0 8.06 0 18s8.059 18 18 18c9.94 0 18-8.06 18-18S27.94 0 18 0" fill="#AFB3C2"/><path d="M16.519 25.307c-1.698 0-2.924-1.054-2.924-2.32 0-1.24 1.52-2.271 3.219-2.253.396.004.765.066 1.1.172.922.629 1.583.984 1.77 1.7.034.145.053.295.053.447 0 1.265-.831 2.254-3.218 2.254zm.446-7.421c-1.14-.033-2.222-1.25-2.42-2.717-.196-1.466.568-2.59 1.707-2.555 1.14.032 2.223 1.21 2.419 2.677.197 1.467-.568 2.629-1.706 2.595zm2.364 2.174l-.001-.001c-.4-.278-1.164-.952-1.164-1.35 0-.464.136-.692.849-1.24.732-.56 1.249-1.346 1.249-2.263 0-1.09-.495-2.153-1.425-2.503h1.402l.58-.243S17.912 12 16.806 12c-1.983 0-3.85 1.472-3.85 3.179 0 1.743 1.353 3.149 3.37 3.149.14 0 .276-.002.41-.012a1.747 1.747 0 0 0-.225.81c0 .486.266.878.602 1.198-.253 0-.5.007-.766.007-2.456 0-4.347 1.534-4.347 3.124C12 25.02 14.072 26 16.529 26c2.8 0 4.347-1.557 4.347-3.124 0-1.255-.378-2.007-1.547-2.817zm7.67-5.305h-2.306l.002-2.295H24v2.295h-2.307v.688H24v2.066l.695.02-.002-2.086H27v-.688z" fill="#FBFCFE"/></g></svg>