<svg width="36" height="36" viewBox="0 0 36 36" xmlns="http://www.w3.org/2000/svg"><title>twitter</title><g fill="none" fill-rule="evenodd"><path d="M18 0C8.059 0 0 8.06 0 18s8.059 18 18 18c9.94 0 18-8.06 18-18S27.94 0 18 0" fill="#AFB3C2"/><path d="M25 14.298c-.515.22-1.07.37-1.65.437a2.805 2.805 0 0 0 1.262-1.538 5.835 5.835 0 0 1-1.823.675 2.911 2.911 0 0 0-2.097-.877c-1.587 0-2.872 1.243-2.872 2.778 0 .217.026.43.075.633a8.252 8.252 0 0 1-5.92-2.902c-.248.41-.39.887-.39 1.396 0 .964.507 1.814 1.278 2.312a2.93 2.93 0 0 1-1.3-.348v.036c0 1.346.989 2.47 2.303 2.723a2.984 2.984 0 0 1-1.296.048c.364 1.104 1.425 1.907 2.681 1.928a5.88 5.88 0 0 1-3.566 1.19 5.77 5.77 0 0 1-.686-.039A8.334 8.334 0 0 0 15.402 24c5.284 0 8.173-4.234 8.173-7.904 0-.122-.002-.24-.008-.36A5.722 5.722 0 0 0 25 14.297" fill="#FBFCFE"/></g></svg>