<svg width="36" height="36" viewBox="0 0 36 36" xmlns="http://www.w3.org/2000/svg"><title>vimeo</title><g fill="none" fill-rule="evenodd"><path d="M18 0C8.059 0 0 8.06 0 18s8.059 18 18 18c9.94 0 18-8.06 18-18S27.94 0 18 0" fill="#AFB3C2"/><path d="M24.684 13.592c-.506-.636-1.58-.66-2.318-.546-.6.09-2.627.979-3.317 3.107 1.222-.093 1.863.086 1.746 1.424-.05.558-.334 1.17-.652 1.758-.367.678-1.054 2.006-1.956 1.049-.812-.864-.75-2.513-.937-3.611-.104-.616-.213-1.384-.416-2.018-.175-.545-.577-1.202-1.068-1.345-.529-.153-1.18.086-1.564.31-1.22.712-2.15 1.726-3.206 2.56v.079c.21.199.266.525.574.569.727.106 1.42-.671 1.902.138.294.496.386 1.038.574 1.57.251.712.445 1.487.651 2.303.348 1.385.776 3.453 1.981 3.96.615.259 1.538-.088 2.006-.364 1.268-.743 2.255-1.823 3.1-2.922 1.932-2.6 3-5.545 3.16-6.386.104-.583.102-1.181-.26-1.635" fill="#FBFCFE"/></g></svg>