<svg width="252" height="18" viewBox="0 0 252 18" xmlns="http://www.w3.org/2000/svg" xmlns:xlink="http://www.w3.org/1999/xlink"><title>Group 13</title><defs><circle id="a" cx="125" cy="8" r="8"/></defs><g transform="translate(1 1)" fill="none" fill-rule="evenodd"><path d="M7.5 8.5h117.501m.499 0h25.505m2.495 0h19.506m1.99 0h19.01m21.988 0h22.01m-46.01 0h22.01" stroke="#0091EA" stroke-width="2" stroke-linecap="square"/><circle stroke="#0091EA" stroke-width="2" fill="#0E4FDC" cx="8" cy="8" r="8"/><circle stroke="#0091EA" stroke-width="2" fill="#FBFCFE" cx="242" cy="8" r="8"/><circle stroke="#0091EA" stroke-width="2" fill="#0E4FDC" cx="151" cy="9" r="4"/><circle stroke="#0091EA" stroke-width="2" fill="#0E4FDC" cx="173" cy="9" r="4"/><circle stroke="#0091EA" stroke-width="2" fill="#0E4FDC" cx="194" cy="9" r="4"/><circle stroke="#0091EA" stroke-width="2" fill="#0E4FDC" cx="216" cy="9" r="4"/><use fill="#0E4FDC" xlink:href="#a"/><circle stroke="#0091EA" stroke-width="2" cx="125" cy="8" r="7"/><circle stroke="#0091EA" stroke-width="2" fill="#0E4FDC" cx="66" cy="9" r="4"/><path d="M239.931 7.796a.545.545 0 1 0-.771.772l1.636 1.636a.545.545 0 0 0 .772 0l3.272-3.273a.545.545 0 0 0-.771-.771l-2.887 2.887-1.25-1.25z" fill="#0091EA" fill-rule="nonzero"/></g></svg>