<svg id="Слой_1" data-name="Слой 1" xmlns="http://www.w3.org/2000/svg" viewBox="0 0 54.72 30"><defs><style>.cls-1{fill:#f7931e;fill-rule:evenodd;}.cls-2{fill:#f57f1f;}.cls-3{fill:#f46b20;}.cls-4{fill:#f25821;}.cls-5{fill:#f04422;}.cls-6{fill:#ef3023;}.cls-7{fill:#ed1c24;}.cls-8{fill:#fff;}</style></defs><title>Монтажная область 1 копия 4</title><path class="cls-1" d="M2,9.34C3.07,9.23,6,9.12,6.89,9.12s3.82.11,4.91.22a1.72,1.72,0,0,1,1.75,1.75c.11,1.09.22,4,.22,4.91s-.11,3.82-.22,4.91a1.72,1.72,0,0,1-1.75,1.74c-1.09.11-4,.22-4.91.22s-3.8-.11-4.9-.22A1.75,1.75,0,0,1,.23,20.8C.12,19.6,0,16.89,0,16s.11-3.71.22-4.91A1.66,1.66,0,0,1,2,9.34Z"/><path class="cls-2" d="M6.8,9.54a18.35,18.35,0,0,1,4.64.43A1.83,1.83,0,0,1,13,11.7c.1.76.13,2.1.16,3.1.08.58.15,1.08.21,1.36s0,.92,0,1.56c0,1.1-.09,2.4-.15,3.09a1.75,1.75,0,0,1-1.8,1.45c-1.11.09-3.75.18-4.71.18a38.56,38.56,0,0,1-4.53-.37,1.75,1.75,0,0,1-1.6-1.72C.46,19.2.35,16.79.35,16s.11-3.26.24-4.4a2,2,0,0,1,.46-1.14C1.72,9.59,2.68,9.7,6.8,9.54Z"/><path class="cls-3" d="M6.72,10a13.07,13.07,0,0,1,4.38.64,2,2,0,0,1,1.45,1.71,25.16,25.16,0,0,1,.15,2.92,6.57,6.57,0,0,0,.39,1.09c0,.35,0,.89,0,1.48,0,1-.07,2.22-.12,2.93a1.9,1.9,0,0,1-1.85,1.16C10,22,7.61,22,6.6,22a22.43,22.43,0,0,1-4.15-.51A1.79,1.79,0,0,1,1,19.92,30.39,30.39,0,0,1,.69,16,35.79,35.79,0,0,1,1,12.1a2,2,0,0,1,.44-1C1.63,10.77,2.27,10.05,6.72,10Z"/><path class="cls-4" d="M6.64,10.38a10,10,0,0,1,4.11.85,2.24,2.24,0,0,1,1.31,1.69,16.73,16.73,0,0,1,.13,2.74,3.51,3.51,0,0,0,.57.82c0,.36,0,.85,0,1.39,0,1-.05,2-.09,2.76a2.31,2.31,0,0,1-1.9.86c-1.16.06-3.23.1-4.3.1a14.25,14.25,0,0,1-3.77-.66A1.88,1.88,0,0,1,1.4,19.48,19.68,19.68,0,0,1,1,16a23.3,23.3,0,0,1,.3-3.38,2,2,0,0,1,.42-.91C2.66,10.41,4.6,10.4,6.64,10.38Z"/><path class="cls-5" d="M6.56,10.8a7.75,7.75,0,0,1,3.85,1.06,2.59,2.59,0,0,1,1.16,1.67,11.23,11.23,0,0,1,.11,2.56,3.07,3.07,0,0,0,.74.55c0,.36,0,.82,0,1.31,0,.89,0,1.87-.06,2.6a3.38,3.38,0,0,1-1.95.57c-1.18,0-3,.06-4.09.06a9.43,9.43,0,0,1-3.4-.8A2.08,2.08,0,0,1,1.79,19,12.7,12.7,0,0,1,1.37,16a14.69,14.69,0,0,1,.32-2.87,2.48,2.48,0,0,1,.39-.8C3.13,10.8,5.57,10.8,6.56,10.8Z"/><path class="cls-6" d="M6.47,11.22a5.59,5.59,0,0,1,3.58,1.27,3.17,3.17,0,0,1,1,1.64,7.46,7.46,0,0,1,.1,2.39,5.4,5.4,0,0,0,.92.28c0,.37,0,.79,0,1.22,0,.83,0,1.69,0,2.43a7.2,7.2,0,0,1-2,.28c-1.2,0-2.72,0-3.89,0a6.34,6.34,0,0,1-3-.95,2.54,2.54,0,0,1-1-1.19A8,8,0,0,1,1.71,16a8.7,8.7,0,0,1,.35-2.36,3.52,3.52,0,0,1,.36-.69C3.54,11.25,6.29,11.22,6.47,11.22Z"/><path class="cls-7" d="M9.7,13.12a4.57,4.57,0,0,1,1,3.83h1.09v3.4L6,20.32a4.29,4.29,0,0,1-2.65-1.09,4.59,4.59,0,0,1-.4-6,4.47,4.47,0,0,1,6.72-.1Z"/><path class="cls-8" d="M6.41,19.21A3.23,3.23,0,1,1,9.63,16a3.16,3.16,0,0,1-.15,1l-3,0,1.63-2.05V14l-3.26,0v1h1.6L4.79,17.14v.92l7,0V17H10.67a4.38,4.38,0,1,0-4.27,3.41h5.38V19.21Z"/><path class="cls-8" d="M30.26,19.67A6.73,6.73,0,0,1,28.09,22a7.07,7.07,0,0,1-3.78,1A5.69,5.69,0,0,1,20,21.35a6.89,6.89,0,0,1-1.89-4.91,7.53,7.53,0,0,1,2-5.28,5.85,5.85,0,0,1,4.3-1.74,5.53,5.53,0,0,1,4.12,1.68,7.71,7.71,0,0,1,1.8,5.43v.37H21.14a4.24,4.24,0,0,0,1.1,2.59,3.05,3.05,0,0,0,2.29.82,3.15,3.15,0,0,0,2-.64,4.64,4.64,0,0,0,1.19-1.4Zm-3-5.22a3.11,3.11,0,0,0-.92-1.74,3.12,3.12,0,0,0-4.12.09,3.37,3.37,0,0,0-.92,1.65Z"/><path class="cls-8" d="M35.29,12.51V22.6h-3V12.51h-1V9.76h1V5.49A5.74,5.74,0,0,1,33.09,2a5.1,5.1,0,0,1,4.45-2c3,0,4,1.28,4.45,2a5.93,5.93,0,0,1,.79,3.51v.88h-3V5.83a3.74,3.74,0,0,0-.37-2,2,2,0,0,0-1.89-1,2,2,0,0,0-1.89,1,3.72,3.72,0,0,0-.37,2V9.76h3.23v2.75Zm7.5-2.75V22.6h-3V9.76Z"/><path class="cls-8" d="M45.57,9.76h3v1.16a5.17,5.17,0,0,1,1.25-1.07,3.45,3.45,0,0,1,1.83-.43A4.44,4.44,0,0,1,54,10l-1.22,2.71a2.71,2.71,0,0,0-1.53-.46,2.33,2.33,0,0,0-1.86.7,4.14,4.14,0,0,0-.82,3V22.6h-3Z"/></svg>