<svg xmlns="http://www.w3.org/2000/svg" width="31.812" height="31.812"><path d="M18.735 2.34L4.912 3.741l-.278-.19 13.109-1.423-.015-.146-13.28 1.441-.231-.159 13.261-1.45-.017-.147L4.03 3.136l-.255-.175 13.466-1.49-.015-.146L3.59 2.833l-.286-.195 13.642-1.517-.017-.147L3.118 2.51l-.308-.212.442-.046L17.284.727 16.771 0 1.425 1.626v20.36l2.779 1.962v.015l1.897-.193V4.647L18.735 3.41z"/><path d="M24.431 6.155L10.607 7.557l-.278-.19 13.109-1.423-.015-.147-13.28 1.441-.231-.158 13.261-1.451-.016-.146L9.725 6.951l-.254-.175 13.467-1.49-.016-.146L9.285 6.648 9 6.453l13.641-1.517-.016-.147L8.814 6.325l-.308-.212.441-.046 14.034-1.525-.515-.726L7.12 5.441v20.36l2.78 1.963v.015l1.897-.194V8.462L24.43 7.225z"/><path d="M16.565 11.591l-.277-.191 13.11-1.422-.017-.146-13.279 1.44-.231-.158 13.261-1.45-.018-.147-13.431 1.469-.255-.175 13.467-1.49-.015-.147-13.637 1.508-.284-.195L28.6 8.97l-.016-.146-13.811 1.535-.308-.211.441-.046L28.94 8.575l-.515-.725-15.347 1.626v20.359l2.78 1.962v.016l14.527-1.475.003-20.15-13.823 1.403zm11.226 7.386l-8.382.855v-4.46l8.382-.854v4.459z"/></svg>