<svg height="512" width="512" xmlns="http://www.w3.org/2000/svg"><path d="M181 452h150v60H181zm75-362C137.813 90 66.438 220.965 129.156 320.091A150.493 150.493 0 00181 369.92V422h60V273.027l-38.32-25.547 16.641-24.961L256 246.973l36.68-24.453 16.641 24.961L271 273.027V422h60v-52.08a150.493 150.493 0 0051.844-49.829C445.543 220.994 374.232 90 256 90zm195 135h45v30h-45zm-435 0h45v30H16zM383.231 91.542l31.815-31.815 21.21 21.21-31.815 31.815zM241 0h30v45h-30zM75.672 80.905l21.21-21.21 31.815 31.815-21.21 21.21z"/></svg>