<svg class="logo-svg" xmlns="http://www.w3.org/2000/svg" width="336.396" height="84.142" shape-rendering="geometricPrecision" text-rendering="geometricPrecision" image-rendering="optimizeQuality" fill-rule="evenodd" clip-rule="evenodd" viewBox="0 0 3325.59 831.82">
    <path class="logo-svg__circle" fill="#FFF450" fill-rule="nonzero" d="M368.6 2.74C596.79-23.39 802.95 140.41 829.08 368.6c26.13 228.19-137.68 434.35-365.86 460.48C235.03 855.2 28.87 691.4 2.74 463.22-23.39 235.03 140.41 28.87 368.6 2.74z"/>
    <path class="logo-svg__text" fill-rule="nonzero" d="M1287.75 415.91c0 29.32-23.77 53.09-53.09 53.09-29.32 0-53.09-23.77-53.09-53.09 0-29.32 23.77-53.09 53.09-53.09 29.32 0 53.09 23.77 53.09 53.09z"/>
    <path class="logo-svg__text" fill-rule="nonzero" d="M873.99 828.82c-227.69 0-412.93-185.23-412.93-412.91C461.06 188.22 646.3 3 873.99 3c161.92 0 309.67 95.37 376.41 242.96 5.02 11.12.09 24.2-11.03 29.23-11.1 5-24.21.09-29.23-11.03-59.6-131.81-191.54-216.98-336.15-216.98-203.33 0-368.75 165.41-368.75 368.73 0 203.32 165.42 368.73 368.75 368.73 145.33 0 277.54-85.76 336.83-218.49 4.99-11.13 18.07-16.12 29.19-11.16 11.14 4.98 16.13 18.04 11.16 29.18-66.39 148.62-214.44 244.65-377.18 244.65zm1242.64-480.89c0-56.29 31.34-83.36 87.28-83.36 50.23 0 79.08 27.79 79.08 74.1 0 44.18-21.37 58.07-45.24 63.77v.72c23.88 6.06 48.81 18.17 48.81 71.61 0 51.3-29.57 83.72-84.07 83.72-53.8 0-88-22.8-88-79.45v-25.29h63.41v14.96c0 21.73 2.49 39.19 21.72 39.19 18.53 0 21.38-17.46 21.38-38.12 0-19.24-6.42-34.56-25.3-34.56h-12.82V382.5h12.11c20.31 0 24.57-13.54 24.57-37.41 0-19.59-4.99-29.92-19.59-29.92-16.39 0-19.95 12.82-19.95 29.92v21.02h-63.41v-18.17zm204.81-78.73h70.17c71.97 0 101.54 12.11 101.54 85.86 0 42.4-12.47 85.86-71.97 85.86h-34.2v112.93h-65.55V269.21zm81.93 121.13c17.11 0 24.23-10.33 24.23-35.27 0-24.94-7.13-35.27-24.23-35.27h-16.38v70.54h16.38zM2528.4 269.2h145.7v54.86h-80.15v56.64h70.18v54.87h-70.18v63.41h83.37v54.86H2528.4zm187 0h65.55v107.58h37.76V269.2h65.54v284.64h-65.54V431.65h-37.76v122.19h-65.55zm331.99 110.79h-.71l-53.09 173.85h-71.24V269.2h63.41v169.93h.71l52.37-169.93h71.96v284.64h-63.41zm204.81 49.88h-15.33c-19.59 0-24.57 12.82-24.57 34.2v67.69c0 10.33-1.79 17.45-6.06 22.09h-63.41c4.28-5.34 6.06-13.9 6.06-25.65v-73.74c0-33.49 16.38-44.18 38.83-50.23v-.71c-22.8-5.7-38.83-19.59-38.83-61.99 0-43.11 16.38-72.32 74.45-72.32h94.4v284.64h-65.54V429.88zm0-112.22h-16.04c-20.66 0-23.86 12.82-23.86 32.06 0 26.72 7.13 33.84 24.57 33.84h15.33v-65.9z"/>
    <path class="logo-svg__text" fill-rule="nonzero" d="M942.02 271.69h149.01v54.38h-42.01v227.77h-64.98V326.07h-42.02zm541.92 171.97c-9.89 2.82-24.72 5.65-39.55 5.65-38.49 0-66.39-14.83-66.39-60.03V271.69h64.98v100.29c0 16.95 6 25.07 20.83 25.07 8.83 0 15.89-1.77 20.13-3.53V271.69h64.97v282.15h-64.97V443.66zm102.73-171.97h62.86v115.47h1.07l43.08-115.47h69.21l-54.38 116.89 54.38 165.26h-69.21l-28.96-101-15.19 23.31v77.69h-62.86zm329.1 109.82h-.71l-52.62 172.33h-70.62V271.69h62.85v168.44h.71l51.91-168.44h71.34v282.15h-62.86z"/>
    <path class="logo-svg__line" fill="none" stroke="#000" stroke-width="28.37" stroke-miterlimit="10" d="M536.35 227.95l207.06-68.3M492.35 360.2L800.9 258.43M494.84 476.54l333.97-110.15M530.2 584.58l295.53-97.47M594.72 683.35l181.49-59.86"/>
    <path class="logo-svg__text" d="M2527.05 630.72h95.06v35.65h-57.04v130.71h-38.02zm263.64 149.96c-9.98 11.17-31.61 19.25-54.19 19.25-51.57 0-87.22-34.23-87.22-86.04 0-47.77 29.71-86.03 86.99-86.03 22.1 0 40.87 7.6 50.86 17.35l-16.88 28.52c-9.03-5.47-18.3-10.22-33.98-10.22-25.67 0-46.59 17.59-46.59 50.38 0 29.48 20.44 50.39 50.38 50.39 11.89 0 24.96-3.81 36.13-12.12l14.49 28.52zm42.58-148.52h38.03v130.71h57.04V632.16h38.02v130.71h22.58v64.17h-35.65v-28.52h-120.02zm196.5-1.44h100.29v35.65h-62.26v26.38c4.51-.95 13.78-1.42 19.01-1.42 32.09 0 53.95 19.96 53.95 51.33 0 34.7-23.05 55.61-64.65 55.61-21.87 0-36.59-1.19-46.34-1.19V630.72zm38.03 97.68v33.03c6.17.71 9.98 1.18 14.26 1.18 15.68 0 20.68-7.84 20.68-17.11 0-9.74-5.23-18.54-19.02-18.54-4.75 0-10.22.48-15.92 1.43zm249.94 52.28c-9.98 11.17-31.61 19.25-54.19 19.25-51.57 0-87.22-34.23-87.22-86.04 0-47.77 29.7-86.03 86.98-86.03 22.1 0 40.87 7.6 50.86 17.35l-16.88 28.52c-9.03-5.47-18.3-10.22-33.99-10.22-25.67 0-46.58 17.59-46.58 50.38 0 29.48 20.44 50.39 50.38 50.39 11.88 0 24.96-3.81 36.13-12.12l14.49 28.52zM1385.31 137.25c0-12.54 9.79-23.06 26.05-23.06 10.27 0 18.88 3.46 23.89 8.96l-7.88 10.99c-4.06-3.95-8.12-6.21-14.81-6.21-7.29 0-11.71 3.7-11.71 9.2 0 17.33 37.88 11.83 37.88 39.67 0 14.09-12.3 23.65-27.96 23.65-10.76 0-23.3-4.66-27.36-13.14l8.37-10.03c4.9 6.33 12.78 9.43 19.23 9.43 6.93 0 12.19-3.46 12.19-9.79 0-16.49-37.88-12.42-37.88-39.66zm65.96-21.74h68.93v13.74h-27.11v69.89h-14.71v-69.89h-27.11zm112.3-.24h12.91l35.37 83.87h-15.65l-8.72-21.39h-35.72l-8.72 21.39h-14.82l35.36-83.87zm-6.21 48.75h24.49l-12.18-29.75-12.3 29.75zm62.62-48.51h68.93v13.74h-27.12v69.89h-14.69v-69.89h-27.12zm87.7 0h48.38v13.74h-33.69v20.79h30.11v13.73h-30.11v21.63h34.89v13.74h-49.58zm105.98 0h14.7v69.89h37.63v13.74h-52.33zm73.12 0h14.7v83.63h-14.7zm45.65.23c4.66-.24 15.77-.59 24.13-.59 19.95 0 27.48 9.08 27.48 20.67 0 9.56-4.78 15.65-11.95 18.99v.24c8.24 2.03 14.7 8.37 14.7 19.47 0 17.21-13.39 25.09-31.07 25.09-7.64 0-18.39-.24-23.29-.6v-83.27zm14.7 13.5v21.15h9.91c6.82 0 12.43-3.47 12.43-11.12 0-6.81-5.26-10.39-13.14-10.39-3.34 0-6.57.12-9.2.36zm0 33.93v22.1c2.03.24 5.5.6 9.67.6 9.92 0 15.29-4.18 15.29-12.07 0-7.05-5.38-10.63-14.57-10.63h-10.39zm64.99 35.97v-83.63c4.66 0 23.05-.24 25.44-.24 22.82 0 30.35 11.35 30.35 25.81 0 14.34-9.2 21.5-16.13 23.89l26.17 34.17h-17.8l-23.06-31.3h-10.28v31.3h-14.69zm14.69-69.89v24.85h9.56c8.49 0 16.01-4.3 16.01-12.91 0-6.57-3.58-12.18-15.53-12.18-2.75 0-6.09.12-10.04.24zm94.52-13.98h12.9l35.36 83.87h-15.64l-8.73-21.39h-35.72l-8.73 21.39h-14.81l35.37-83.87zm-6.22 48.75h24.5l-12.19-29.75-12.31 29.75zm73 35.12v-83.63c4.66 0 23.07-.24 25.45-.24 22.82 0 30.35 11.35 30.35 25.81 0 14.34-9.21 21.5-16.13 23.89l26.15 34.17h-17.8l-23.05-31.3h-10.28v31.3h-14.7zm14.7-69.89v24.85h9.55c8.48 0 16.01-4.3 16.01-12.91 0-6.57-3.58-12.18-15.52-12.18-2.76 0-6.1.12-10.04.24zm103.11 35v34.89h-14.69v-34.89l-29.52-48.74h16.74l20.79 35 20.54-35h15.9zm79.23-48.74h47.79v13.74h-33.09v23.65h29.5v13.74h-29.5v32.5h-14.7zm107.4-1.32c24.86 0 43.61 17.09 43.61 43.13 0 25.09-18.75 43.13-43.61 43.13-24.84 0-43.48-17.08-43.48-43.13 0-24.25 17.8-43.13 43.48-43.13zm0 72.52c17.56 0 28.08-12.9 28.08-29.39 0-17.32-12.31-29.39-28.08-29.39-16.01 0-27.96 12.07-27.96 29.39 0 16.73 12.31 29.39 27.96 29.39zm66.55 12.43v-83.63c4.66 0 23.07-.24 25.45-.24 22.82 0 30.35 11.35 30.35 25.81 0 14.34-9.21 21.5-16.13 23.89l26.15 34.17h-17.8l-23.05-31.3h-10.27v31.3h-14.7zm14.7-69.89v24.85h9.55c8.48 0 16.01-4.3 16.01-12.91 0-6.57-3.58-12.18-15.54-12.18-2.74 0-6.09.12-10.02.24zm90.82-13.74h68.93v13.74h-27.12v69.89h-14.69v-69.89h-27.12zm140.62 47.91h-38.22v35.72h-14.7v-83.63h14.7v34.17h38.22v-34.17h14.57v83.63h-14.57zm43.73-47.91h48.39v13.74h-33.69v20.79h30.11v13.73h-30.11v21.63h34.89v13.74h-49.59zm105.97.23c4.66-.24 15.77-.59 24.14-.59 19.95 0 27.48 9.08 27.48 20.67 0 9.56-4.78 15.65-11.95 18.99v.24c8.24 2.03 14.69 8.37 14.69 19.47 0 17.21-13.38 25.09-31.06 25.09-7.65 0-18.39-.24-23.3-.6v-83.27zm14.7 13.5v21.15h9.91c6.81 0 12.42-3.47 12.42-11.12 0-6.81-5.25-10.39-13.13-10.39-3.35 0-6.58.12-9.21.36zm0 33.93v22.1c2.04.24 5.5.6 9.68.6 9.91 0 15.29-4.18 15.29-12.07 0-7.05-5.38-10.63-14.58-10.63h-10.39zm65-47.66h14.69v69.89h37.63v13.74h-52.32zm73.14 0h14.68v83.63h-14.68zm105.37 83.63l-46-57.95v57.95h-13.74v-83.63h11.71l45.99 58.18v-58.18h13.74v83.63zm40.86-83.63h1.56c5.02 0 16.97-.35 23.05-.35 33.46 0 46.96 19.23 46.96 41.33 0 23.54-16.01 42.89-47.91 42.89-5.02 0-14.34-.24-21.99-.24h-1.67v-83.63zm14.7 13.74v56.15c4.05.24 7.4.24 9.43.24 20.2 0 31.9-11.47 31.9-29.15 0-16.84-11.7-27.6-31.65-27.6-3.46 0-6.33.12-9.68.36z" fill-rule="nonzero"/>
</svg>