<svg xmlns="http://www.w3.org/2000/svg" width="487.811" height="487.811"><path d="M0 124.814v-.009zm487.592-6.636l-1.425-1.521c-.794-.851-2.247-1.874-4.657-1.874l-77.169.067c-2.229 0-7.43-6.101-9.209-11.733l-16.639-47.392c-2.477-7.889-10.49-7.889-13.502-7.889l-181.238.077-3.691-.029c-3.825 0-12.785 0-15.195 8.319l-14.564 51.102c-1.1 3.806-5.508 7.545-8.902 7.545l-121.473-.019c-7.449 0-19.918 0-19.928 9.974.01-5.69 14.563-.517 24.604-.411l116.796.019c5.852 0 11.886-6.655 13.493-12.192l14.563-52.316c1.559-5.384 8.052-2.61 13.789-2.458l176.974.029H183.256c-5.728 0-12.23-2.936-13.789 2.438l-14.564 52.316c-1.597 5.518-7.612 12.135-13.435 12.183 8.558-.038 16.017-7.506 18.025-14.458l14.563-51.083-14.563 51.093c-2.018 6.952-9.505 14.449-18.092 14.449h.057H24.605c-10.041 0-24.595-5.288-24.604.401 0 0 0-.009 0 0v287.229c0 23.084 13.56 27.932 24.93 27.932h451.102c2.878 0 5.412-1.041 7.354-3.031 4.771-4.896 4.532-14.314 4.351-21.199a131.898 131.898 0 01-.048-3.701V121.171l-.098-2.993zm-9.419 297.804c.048 1.998.134 5.068-.048 7.879.182-2.81.096-5.881.048-7.879a152.68 152.68 0 01-.048-3.93v-.116.115c-.02 1.121.01 2.449.048 3.931zm-73.832-291.569s-.01 0 0 0zm-129.419 23.906c59.412 0 107.578 48.167 107.578 107.578 0 59.412-48.166 107.578-107.578 107.578-59.412 0-107.578-48.166-107.578-107.578 0-59.412 48.166-107.578 107.578-107.578z"/></svg>