<svg id="Capa_1" xmlns="http://www.w3.org/2000/svg" viewBox="0 0 512 512"><path d="M273.067 179.2h-51.2v68.267h51.2c18.825 0 34.133-15.309 34.133-34.133 0-18.825-15.309-34.134-34.133-34.134zm0 85.333h-51.2V332.8h51.2c18.825 0 34.133-15.309 34.133-34.133s-15.309-34.134-34.133-34.134z"/><path d="M256 59.733C147.78 59.733 59.733 147.78 59.733 256S147.78 452.267 256 452.267 452.267 364.22 452.267 256 364.22 59.733 256 59.733zM110.447 304.358a8.532 8.532 0 0 1-5.205 10.889 8.515 8.515 0 0 1-2.842.495 8.542 8.542 0 0 1-8.047-5.692c-5.982-16.939-9.02-35.123-9.02-54.042s3.038-37.111 9.02-54.042a8.531 8.531 0 0 1 10.888-5.205 8.531 8.531 0 0 1 5.205 10.889c-5.342 15.113-8.047 31.377-8.047 48.358s2.706 33.246 8.048 48.35zm41.216-21.103l1.451 4.036a8.532 8.532 0 0 1-5.205 10.889 8.515 8.515 0 0 1-2.842.495 8.542 8.542 0 0 1-8.047-5.692l-1.408-3.917c-3.567-9.873-7.612-21.069-7.612-33.058s4.045-23.177 7.612-33.058l1.408-3.917c1.57-4.446 6.443-6.776 10.888-5.205s6.776 6.443 5.205 10.889l-1.451 4.036c-3.243 8.977-6.596 18.253-6.596 27.255s3.354 18.27 6.597 27.247zm172.604 15.412c0 28.237-22.972 51.2-51.2 51.2v25.6a8.536 8.536 0 0 1-8.533 8.533 8.536 8.536 0 0 1-8.533-8.533v-25.6h-34.133v25.6a8.536 8.536 0 0 1-8.533 8.533 8.536 8.536 0 0 1-8.533-8.533v-25.6h-25.6c-4.71 0-8.533-3.823-8.533-8.533s3.823-8.533 8.533-8.533h25.6V179.2h-25.6c-4.71 0-8.533-3.823-8.533-8.533s3.823-8.533 8.533-8.533h25.6v-25.6a8.536 8.536 0 0 1 8.533-8.533 8.536 8.536 0 0 1 8.533 8.533v25.6H256v-25.6a8.536 8.536 0 0 1 8.533-8.533 8.536 8.536 0 0 1 8.533 8.533v25.6c28.228 0 51.2 22.963 51.2 51.2 0 17.801-9.139 33.493-22.955 42.667 13.817 9.172 22.956 24.865 22.956 42.666zm52.121-9.609l-1.408 3.917c-1.237 3.507-4.531 5.692-8.047 5.692a8.48 8.48 0 0 1-2.842-.495 8.532 8.532 0 0 1-5.205-10.889l1.451-4.036c3.243-8.977 6.596-18.253 6.596-27.255 0-9.003-3.354-18.278-6.596-27.255l-1.451-4.036a8.532 8.532 0 0 1 5.205-10.889c4.437-1.579 9.318.759 10.889 5.205l1.408 3.917c3.567 9.873 7.612 21.069 7.612 33.058s-4.045 23.185-7.612 33.066zm33.212 26.684a8.48 8.48 0 0 1-2.842-.495 8.532 8.532 0 0 1-5.205-10.889c5.342-15.112 8.047-31.377 8.047-48.358s-2.705-33.254-8.047-48.358a8.532 8.532 0 0 1 5.205-10.889 8.533 8.533 0 0 1 10.889 5.205c5.982 16.939 9.02 35.123 9.02 54.042s-3.038 37.111-9.02 54.042a8.539 8.539 0 0 1-8.047 5.7z"/><path d="M256 0C114.842 0 0 114.842 0 256s114.842 256 256 256 256-114.842 256-256S397.158 0 256 0zm0 469.333c-117.632 0-213.333-95.701-213.333-213.333S138.368 42.667 256 42.667 469.333 138.368 469.333 256 373.632 469.333 256 469.333z"/></svg>