<?xml version="1.0" encoding="iso-8859-1"?>
<!-- Generator: Adobe Illustrator 19.0.0, SVG Export Plug-In . SVG Version: 6.00 Build 0)  -->
<svg version="1.1" id="Capa_1" xmlns="http://www.w3.org/2000/svg" xmlns:xlink="http://www.w3.org/1999/xlink" x="0px" y="0px"
	 viewBox="0 0 512 512" style="enable-background:new 0 0 512 512;" xml:space="preserve">
<g>
	<g>
		<path d="M273.067,179.2h-51.2v68.267h51.2c18.825,0,34.133-15.309,34.133-34.133C307.2,194.509,291.891,179.2,273.067,179.2z"/>
	</g>
</g>
<g>
	<g>
		<path d="M273.067,264.533h-51.2V332.8h51.2c18.825,0,34.133-15.309,34.133-34.133S291.891,264.533,273.067,264.533z"/>
	</g>
</g>
<g>
	<g>
		<path d="M256,59.733C147.78,59.733,59.733,147.78,59.733,256S147.78,452.267,256,452.267S452.267,364.22,452.267,256
			S364.22,59.733,256,59.733z M110.447,304.358c1.57,4.446-0.759,9.318-5.205,10.889c-0.939,0.333-1.903,0.495-2.842,0.495
			c-3.516,0-6.81-2.193-8.047-5.692c-5.982-16.939-9.02-35.123-9.02-54.042s3.038-37.111,9.02-54.042
			c1.57-4.446,6.443-6.775,10.888-5.205c4.446,1.57,6.776,6.443,5.205,10.889c-5.342,15.113-8.047,31.377-8.047,48.358
			S105.105,289.254,110.447,304.358z M151.663,283.255l1.451,4.036c1.57,4.446-0.759,9.318-5.205,10.889
			c-0.939,0.333-1.903,0.495-2.842,0.495c-3.516,0-6.81-2.193-8.047-5.692l-1.408-3.917c-3.567-9.873-7.612-21.069-7.612-33.058
			s4.045-23.177,7.612-33.058l1.408-3.917c1.57-4.446,6.443-6.776,10.888-5.205s6.776,6.443,5.205,10.889l-1.451,4.036
			c-3.243,8.977-6.596,18.253-6.596,27.255S148.42,274.278,151.663,283.255z M324.267,298.667c0,28.237-22.972,51.2-51.2,51.2v25.6
			c0,4.71-3.823,8.533-8.533,8.533c-4.71,0-8.533-3.823-8.533-8.533v-25.6h-34.133v25.6c0,4.71-3.823,8.533-8.533,8.533
			c-4.71,0-8.533-3.823-8.533-8.533v-25.6h-25.6c-4.71,0-8.533-3.823-8.533-8.533s3.823-8.533,8.533-8.533h25.6V256v-76.8h-25.6
			c-4.71,0-8.533-3.823-8.533-8.533s3.823-8.533,8.533-8.533h25.6v-25.6c0-4.71,3.823-8.533,8.533-8.533
			c4.71,0,8.533,3.823,8.533,8.533v25.6H256v-25.6c0-4.71,3.823-8.533,8.533-8.533c4.71,0,8.533,3.823,8.533,8.533v25.6
			c28.228,0,51.2,22.963,51.2,51.2c0,17.801-9.139,33.493-22.955,42.667C315.128,265.173,324.267,280.866,324.267,298.667z
			 M376.388,289.058l-1.408,3.917c-1.237,3.507-4.531,5.692-8.047,5.692c-0.947,0-1.903-0.162-2.842-0.495
			c-4.446-1.57-6.775-6.443-5.205-10.889l1.451-4.036c3.243-8.977,6.596-18.253,6.596-27.255c0-9.003-3.354-18.278-6.596-27.255
			l-1.451-4.036c-1.57-4.446,0.759-9.318,5.205-10.889c4.437-1.579,9.318,0.759,10.889,5.205l1.408,3.917
			c3.567,9.873,7.612,21.069,7.612,33.058C384,267.981,379.955,279.177,376.388,289.058z M409.6,315.742
			c-0.947,0-1.903-0.162-2.842-0.495c-4.446-1.57-6.775-6.443-5.205-10.889c5.342-15.112,8.047-31.377,8.047-48.358
			s-2.705-33.254-8.047-48.358c-1.57-4.446,0.759-9.318,5.205-10.889c4.446-1.57,9.318,0.76,10.889,5.205
			c5.982,16.939,9.02,35.123,9.02,54.042s-3.038,37.111-9.02,54.042C416.41,313.549,413.116,315.742,409.6,315.742z"/>
	</g>
</g>
<g>
	<g>
		<path d="M256,0C114.842,0,0,114.842,0,256s114.842,256,256,256s256-114.842,256-256S397.158,0,256,0z M256,469.333
			c-117.632,0-213.333-95.701-213.333-213.333S138.368,42.667,256,42.667S469.333,138.368,469.333,256S373.632,469.333,256,469.333z
			"/>
	</g>
</g>
<g>
</g>
<g>
</g>
<g>
</g>
<g>
</g>
<g>
</g>
<g>
</g>
<g>
</g>
<g>
</g>
<g>
</g>
<g>
</g>
<g>
</g>
<g>
</g>
<g>
</g>
<g>
</g>
<g>
</g>
</svg>
